<?xml version="1.0" encoding="UTF-8" standalone="no"?>
<!DOCTYPE svg PUBLIC "-//W3C//DTD SVG 1.1//EN"
 "http://www.w3.org/Graphics/SVG/1.1/DTD/svg11.dtd">
<!-- Generated by graphviz version 2.43.0 (0)
 -->
<!-- Title: millis Pages: 1 -->
<svg width="401pt" height="284pt"
 viewBox="0.00 0.00 401.00 284.00" xmlns="http://www.w3.org/2000/svg" xmlns:xlink="http://www.w3.org/1999/xlink">
<g id="graph0" class="graph" transform="scale(1 1) rotate(0) translate(4 280)">
<title>millis</title>
<!-- Node1 -->
<g id="Node000001" class="node">
<title>Node1</title>
<g id="a_Node000001"><a xlink:title=" ">
<polygon fill="#999999" stroke="#666666" points="393,-147 349,-147 349,-128 393,-128 393,-147"/>
<text text-anchor="middle" x="371" y="-135" font-family="Helvetica,sans-Serif" font-size="10.00">millis</text>
</a>
</g>
</g>
<!-- Node2 -->
<g id="Node000002" class="node">
<title>Node2</title>
<g id="a_Node000002"><a xlink:href="classInputInterface.html#afefc70fa413062a1df8e7950f1afc564" target="_top" xlink:title="Call this from the derived class&#39; check() method to debounce and detect if the input is a hold vs....">
<polygon fill="white" stroke="#666666" points="313,-238.5 170,-238.5 170,-208.5 313,-208.5 313,-238.5"/>
<text text-anchor="start" x="178" y="-226.5" font-family="Helvetica,sans-Serif" font-size="10.00">InputInterface::_debounce</text>
<text text-anchor="middle" x="241.5" y="-215.5" font-family="Helvetica,sans-Serif" font-size="10.00">OrHeld</text>
</a>
</g>
</g>
<!-- Node1&#45;&gt;Node2 -->
<g id="edge1_Node000001_Node000002" class="edge">
<title>Node1&#45;&gt;Node2</title>
<g id="a_edge1_Node000001_Node000002"><a xlink:title=" ">
<path fill="none" stroke="#63b8ff" d="M357.38,-155.54C346.91,-169.31 330.88,-187.84 313,-199.5 307.8,-202.89 302.07,-205.85 296.2,-208.43"/>
<polygon fill="#63b8ff" stroke="#63b8ff" points="360.33,-157.44 363.42,-147.3 354.69,-153.3 360.33,-157.44"/>
</a>
</g>
</g>
<!-- Node6 -->
<g id="Node000006" class="node">
<title>Node6</title>
<g id="a_Node000006"><a xlink:href="classConfigurator.html#a74bea48b6837fd297b7a3a78de73c8c5" target="_top" xlink:title="Constructor for this Configurator.">
<polygon fill="white" stroke="#666666" points="313,-190 170,-190 170,-171 313,-171 313,-190"/>
<text text-anchor="middle" x="241.5" y="-178" font-family="Helvetica,sans-Serif" font-size="10.00">Configurator::Configurator</text>
</a>
</g>
</g>
<!-- Node1&#45;&gt;Node6 -->
<g id="edge5_Node000001_Node000006" class="edge">
<title>Node1&#45;&gt;Node6</title>
<g id="a_edge5_Node000001_Node000006"><a xlink:title=" ">
<path fill="none" stroke="#63b8ff" d="M339.88,-151.08C331.29,-154.71 321.85,-158.46 313,-161.5 302.93,-164.96 291.88,-168.19 281.57,-170.98"/>
<polygon fill="#63b8ff" stroke="#63b8ff" points="341.35,-154.25 349.15,-147.08 338.58,-147.83 341.35,-154.25"/>
</a>
</g>
</g>
<!-- Node7 -->
<g id="Node000007" class="node">
<title>Node7</title>
<g id="a_Node000007"><a xlink:href="classDebounceHoldInputTests.html#ac1f9bed57fb4e12ac48e79385ff321dd" target="_top" xlink:title=" ">
<polygon fill="white" stroke="#666666" points="310,-152.5 173,-152.5 173,-122.5 310,-122.5 310,-152.5"/>
<text text-anchor="start" x="181" y="-140.5" font-family="Helvetica,sans-Serif" font-size="10.00">DebounceHoldInputTests</text>
<text text-anchor="middle" x="241.5" y="-129.5" font-family="Helvetica,sans-Serif" font-size="10.00">::SetUp</text>
</a>
</g>
</g>
<!-- Node1&#45;&gt;Node7 -->
<g id="edge6_Node000001_Node000007" class="edge">
<title>Node1&#45;&gt;Node7</title>
<g id="a_edge6_Node000001_Node000007"><a xlink:title=" ">
<path fill="none" stroke="#63b8ff" d="M338.87,-137.5C330.09,-137.5 320.18,-137.5 310.15,-137.5"/>
<polygon fill="#63b8ff" stroke="#63b8ff" points="338.95,-141 348.95,-137.5 338.95,-134 338.95,-141"/>
</a>
</g>
</g>
<!-- Node8 -->
<g id="Node000008" class="node">
<title>Node8</title>
<g id="a_Node000008"><a xlink:href="classTouchScreenInputTests.html#af56a96900180dde47c024979d931cf2e" target="_top" xlink:title=" ">
<polygon fill="white" stroke="#666666" points="305,-104.5 178,-104.5 178,-74.5 305,-74.5 305,-104.5"/>
<text text-anchor="start" x="186" y="-92.5" font-family="Helvetica,sans-Serif" font-size="10.00">TouchScreenInputTests</text>
<text text-anchor="middle" x="241.5" y="-81.5" font-family="Helvetica,sans-Serif" font-size="10.00">::SetUp</text>
</a>
</g>
</g>
<!-- Node1&#45;&gt;Node8 -->
<g id="edge7_Node000001_Node000008" class="edge">
<title>Node1&#45;&gt;Node8</title>
<g id="a_edge7_Node000001_Node000008"><a xlink:title=" ">
<path fill="none" stroke="#63b8ff" d="M339.53,-124.2C331,-120.61 321.68,-116.8 313,-113.5 305.02,-110.47 296.47,-107.4 288.18,-104.53"/>
<polygon fill="#63b8ff" stroke="#63b8ff" points="338.19,-127.44 348.76,-128.14 340.93,-121 338.19,-127.44"/>
</a>
</g>
</g>
<!-- Node9 -->
<g id="Node000009" class="node">
<title>Node9</title>
<g id="a_Node000009"><a xlink:href="classController.html#a7d04c17913f04f99429aa29fa8505484" target="_top" xlink:title="Processes all ongoing activities, monitoring streams, receiving user input, updates displays,...">
<polygon fill="white" stroke="#666666" points="293.5,-56 189.5,-56 189.5,-37 293.5,-37 293.5,-56"/>
<text text-anchor="middle" x="241.5" y="-44" font-family="Helvetica,sans-Serif" font-size="10.00">Controller::update</text>
</a>
</g>
</g>
<!-- Node1&#45;&gt;Node9 -->
<g id="edge8_Node000001_Node000009" class="edge">
<title>Node1&#45;&gt;Node9</title>
<g id="a_edge8_Node000001_Node000009"><a xlink:title=" ">
<path fill="none" stroke="#63b8ff" d="M360.11,-119.22C350.29,-102.76 333.7,-79.13 313,-65.5 307.07,-61.6 300.36,-58.49 293.5,-56.02"/>
<polygon fill="#63b8ff" stroke="#63b8ff" points="357.1,-121 365.1,-127.95 363.18,-117.53 357.1,-121"/>
</a>
</g>
</g>
<!-- Node3 -->
<g id="Node000003" class="node">
<title>Node3</title>
<g id="a_Node000003"><a xlink:href="classMockButtonInput.html#aff7bf3f4782dc8dd912f94be30b006e8" target="_top" xlink:title="Call this method at least once per main loop to monitor for input actions Any actions should call the...">
<polygon fill="white" stroke="#666666" points="134,-276 0,-276 0,-257 134,-257 134,-276"/>
<text text-anchor="middle" x="67" y="-264" font-family="Helvetica,sans-Serif" font-size="10.00">MockButtonInput::check</text>
</a>
</g>
</g>
<!-- Node2&#45;&gt;Node3 -->
<g id="edge2_Node000002_Node000003" class="edge">
<title>Node2&#45;&gt;Node3</title>
<g id="a_edge2_Node000002_Node000003"><a xlink:title=" ">
<path fill="none" stroke="#63b8ff" d="M170.23,-241.02C148.34,-246.47 125.03,-252.28 106.2,-256.98"/>
<polygon fill="#63b8ff" stroke="#63b8ff" points="171.31,-244.35 180.17,-238.54 169.62,-237.56 171.31,-244.35"/>
</a>
</g>
</g>
<!-- Node4 -->
<g id="Node000004" class="node">
<title>Node4</title>
<g id="a_Node000004"><a xlink:href="classMockTouchScreenInput.html#afd6a598f9008cc810597db1db68aa6c0" target="_top" xlink:title="Call this method at least once per main loop to monitor for input actions Any actions should call the...">
<polygon fill="white" stroke="#666666" points="131,-238.5 3,-238.5 3,-208.5 131,-208.5 131,-238.5"/>
<text text-anchor="start" x="11" y="-226.5" font-family="Helvetica,sans-Serif" font-size="10.00">MockTouchScreenInput</text>
<text text-anchor="middle" x="67" y="-215.5" font-family="Helvetica,sans-Serif" font-size="10.00">::check</text>
</a>
</g>
</g>
<!-- Node2&#45;&gt;Node4 -->
<g id="edge3_Node000002_Node000004" class="edge">
<title>Node2&#45;&gt;Node4</title>
<g id="a_edge3_Node000002_Node000004"><a xlink:title=" ">
<path fill="none" stroke="#63b8ff" d="M159.83,-223.5C150.18,-223.5 140.43,-223.5 131.08,-223.5"/>
<polygon fill="#63b8ff" stroke="#63b8ff" points="159.84,-227 169.84,-223.5 159.84,-220 159.84,-227"/>
</a>
</g>
</g>
<!-- Node5 -->
<g id="Node000005" class="node">
<title>Node5</title>
<g id="a_Node000005"><a xlink:href="classTFT__eSPITouch.html#afd86f481b8789120fe1fa9357f183741" target="_top" xlink:title="Call this method at least once per main loop to monitor for input actions Any actions should call the...">
<polygon fill="white" stroke="#666666" points="128,-190 6,-190 6,-171 128,-171 128,-190"/>
<text text-anchor="middle" x="67" y="-178" font-family="Helvetica,sans-Serif" font-size="10.00">TFT_eSPITouch::check</text>
</a>
</g>
</g>
<!-- Node2&#45;&gt;Node5 -->
<g id="edge4_Node000002_Node000005" class="edge">
<title>Node2&#45;&gt;Node5</title>
<g id="a_edge4_Node000002_Node000005"><a xlink:title=" ">
<path fill="none" stroke="#63b8ff" d="M170.23,-205.98C148.34,-200.53 125.03,-194.72 106.2,-190.02"/>
<polygon fill="#63b8ff" stroke="#63b8ff" points="169.62,-209.44 180.17,-208.46 171.31,-202.65 169.62,-209.44"/>
</a>
</g>
</g>
<!-- Node10 -->
<g id="Node000010" class="node">
<title>Node10</title>
<g id="a_Node000010"><a xlink:href="EX-Display_8ino.html#afe461d27b9c48d5921c00d521181f12f" target="_top" xlink:title="Main loop, simply calls controller&#45;&gt;update() to manage all interactions.">
<polygon fill="white" stroke="#666666" points="86,-93 48,-93 48,-74 86,-74 86,-93"/>
<text text-anchor="middle" x="67" y="-81" font-family="Helvetica,sans-Serif" font-size="10.00">loop</text>
</a>
</g>
</g>
<!-- Node9&#45;&gt;Node10 -->
<g id="edge9_Node000009_Node000010" class="edge">
<title>Node9&#45;&gt;Node10</title>
<g id="a_edge9_Node000009_Node000010"><a xlink:title=" ">
<path fill="none" stroke="#63b8ff" d="M186.16,-58.15C151.83,-65.52 109.64,-74.57 86.09,-79.62"/>
<polygon fill="#63b8ff" stroke="#63b8ff" points="187.03,-61.55 196.08,-56.03 185.57,-54.7 187.03,-61.55"/>
</a>
</g>
</g>
<!-- Node11 -->
<g id="Node000011" class="node">
<title>Node11</title>
<g id="a_Node000011"><a xlink:href="test__Controller_8cpp.html#a75631fe386e9be5e2118adf3f01653ee" target="_top" xlink:title="Ensure update() method correctly ignores an invalid stream input.">
<polygon fill="white" stroke="#666666" points="93,-56 41,-56 41,-37 93,-37 93,-56"/>
<text text-anchor="middle" x="67" y="-44" font-family="Helvetica,sans-Serif" font-size="10.00">TEST_F</text>
</a>
</g>
</g>
<!-- Node9&#45;&gt;Node11 -->
<g id="edge10_Node000009_Node000011" class="edge">
<title>Node9&#45;&gt;Node11</title>
<g id="a_edge10_Node000009_Node000011"><a xlink:title=" ">
<path fill="none" stroke="#63b8ff" d="M178.99,-46.5C149.54,-46.5 115.87,-46.5 93.42,-46.5"/>
<polygon fill="#63b8ff" stroke="#63b8ff" points="179.21,-50 189.21,-46.5 179.21,-43 179.21,-50"/>
</a>
</g>
</g>
<!-- Node12 -->
<g id="Node000012" class="node">
<title>Node12</title>
<g id="a_Node000012"><a xlink:href="test__Controller_8cpp.html#abb9ca06c0e9bafef1a891dd9d22bd84d" target="_top" xlink:title="Ensure update() method correctly calls the mock callback.">
<polygon fill="white" stroke="#666666" points="93,-19 41,-19 41,0 93,0 93,-19"/>
<text text-anchor="middle" x="67" y="-7" font-family="Helvetica,sans-Serif" font-size="10.00">TEST_F</text>
</a>
</g>
</g>
<!-- Node9&#45;&gt;Node12 -->
<g id="edge11_Node000009_Node000012" class="edge">
<title>Node9&#45;&gt;Node12</title>
<g id="a_edge11_Node000009_Node000012"><a xlink:title=" ">
<path fill="none" stroke="#63b8ff" d="M186.21,-34.85C155.02,-28.17 117.35,-20.09 93.05,-14.87"/>
<polygon fill="#63b8ff" stroke="#63b8ff" points="185.57,-38.3 196.08,-36.97 187.03,-31.45 185.57,-38.3"/>
</a>
</g>
</g>
</g>
</svg>
