<?xml version="1.0" encoding="UTF-8" standalone="no"?>
<!DOCTYPE svg PUBLIC "-//W3C//DTD SVG 1.1//EN"
 "http://www.w3.org/Graphics/SVG/1.1/DTD/svg11.dtd">
<!-- Generated by graphviz version 2.43.0 (0)
 -->
<!-- Title: pinMode Pages: 1 -->
<svg width="587pt" height="66pt"
 viewBox="0.00 0.00 587.00 66.00" xmlns="http://www.w3.org/2000/svg" xmlns:xlink="http://www.w3.org/1999/xlink">
<g id="graph0" class="graph" transform="scale(1 1) rotate(0) translate(4 62)">
<title>pinMode</title>
<polygon fill="white" stroke="transparent" points="-4,4 -4,-62 583,-62 583,4 -4,4"/>
<!-- Node1 -->
<g id="node1" class="node">
<title>Node1</title>
<g id="a_node1"><a xlink:title=" ">
<polygon fill="#bfbfbf" stroke="black" points="520,-19.5 520,-38.5 579,-38.5 579,-19.5 520,-19.5"/>
<text text-anchor="middle" x="549.5" y="-26.5" font-family="Helvetica,sans-Serif" font-size="10.00">pinMode</text>
</a>
</g>
</g>
<!-- Node2 -->
<g id="node2" class="node">
<title>Node2</title>
<g id="a_node2"><a xlink:href="classDisplayManager.html#a33f6184fa8292c66a6cd2f05f264ef0f" target="_top" xlink:title="Set the chip select pin state for all displays that have it set and select them.">
<polygon fill="white" stroke="black" points="337,-14 337,-44 484,-44 484,-14 337,-14"/>
<text text-anchor="start" x="345" y="-32" font-family="Helvetica,sans-Serif" font-size="10.00">DisplayManager::_setupAll</text>
<text text-anchor="middle" x="410.5" y="-21" font-family="Helvetica,sans-Serif" font-size="10.00">SPICSPins</text>
</a>
</g>
</g>
<!-- Node1&#45;&gt;Node2 -->
<g id="edge1" class="edge">
<title>Node1&#45;&gt;Node2</title>
<path fill="none" stroke="midnightblue" d="M509.69,-29C501.68,-29 492.99,-29 484.22,-29"/>
<polygon fill="midnightblue" stroke="midnightblue" points="509.78,-32.5 519.78,-29 509.78,-25.5 509.78,-32.5"/>
</g>
<!-- Node3 -->
<g id="node3" class="node">
<title>Node3</title>
<g id="a_node3"><a xlink:href="classDisplayManager.html#a270daf83b6af22558fde42034254b351" target="_top" xlink:title="Call the begin() method for all associated Display instances.">
<polygon fill="white" stroke="black" points="134,-19.5 134,-38.5 301,-38.5 301,-19.5 134,-19.5"/>
<text text-anchor="middle" x="217.5" y="-26.5" font-family="Helvetica,sans-Serif" font-size="10.00">DisplayManager::startDisplays</text>
</a>
</g>
</g>
<!-- Node2&#45;&gt;Node3 -->
<g id="edge2" class="edge">
<title>Node2&#45;&gt;Node3</title>
<path fill="none" stroke="midnightblue" d="M326.59,-29C318.19,-29 309.67,-29 301.27,-29"/>
<polygon fill="midnightblue" stroke="midnightblue" points="326.75,-32.5 336.75,-29 326.75,-25.5 326.75,-32.5"/>
</g>
<!-- Node4 -->
<g id="node4" class="node">
<title>Node4</title>
<g id="a_node4"><a xlink:href="classController.html#a1cc0b87ab9e07d21ab47d294aa5bf607" target="_top" xlink:title="Call once to start displays and input.">
<polygon fill="white" stroke="red" points="0,-38.5 0,-57.5 98,-57.5 98,-38.5 0,-38.5"/>
<text text-anchor="middle" x="49" y="-45.5" font-family="Helvetica,sans-Serif" font-size="10.00">Controller::begin</text>
</a>
</g>
</g>
<!-- Node3&#45;&gt;Node4 -->
<g id="edge3" class="edge">
<title>Node3&#45;&gt;Node4</title>
<path fill="none" stroke="midnightblue" d="M123.71,-39.59C114.87,-40.6 106.17,-41.59 98.03,-42.52"/>
<polygon fill="midnightblue" stroke="midnightblue" points="124.2,-43.06 133.74,-38.44 123.41,-36.1 124.2,-43.06"/>
</g>
<!-- Node8 -->
<g id="node5" class="node">
<title>Node8</title>
<g id="a_node5"><a xlink:href="test__CompilerCreation_8cpp.html#a484c00ac396e82066ad78a3641a34a4f" target="_top" xlink:title="Ensure devices are created and all attributes are valid.">
<polygon fill="white" stroke="black" points="23,-0.5 23,-19.5 75,-19.5 75,-0.5 23,-0.5"/>
<text text-anchor="middle" x="49" y="-7.5" font-family="Helvetica,sans-Serif" font-size="10.00">TEST_F</text>
</a>
</g>
</g>
<!-- Node3&#45;&gt;Node8 -->
<g id="edge4" class="edge">
<title>Node3&#45;&gt;Node8</title>
<path fill="none" stroke="midnightblue" d="M123.73,-18.41C105.8,-16.37 88.46,-14.39 75.1,-12.86"/>
<polygon fill="midnightblue" stroke="midnightblue" points="123.41,-21.9 133.74,-19.56 124.2,-14.94 123.41,-21.9"/>
</g>
</g>
</svg>
