<?xml version="1.0" encoding="UTF-8" standalone="no"?>
<!DOCTYPE svg PUBLIC "-//W3C//DTD SVG 1.1//EN"
 "http://www.w3.org/Graphics/SVG/1.1/DTD/svg11.dtd">
<!-- Generated by graphviz version 2.43.0 (0)
 -->
<!-- Title: digitalWrite Pages: 1 -->
<!--zoomable 222 -->

<svg id="main" version="1.1" xmlns="http://www.w3.org/2000/svg" xmlns:xlink="http://www.w3.org/1999/xlink" xml:space="preserve" onload="init(evt)">
<style type="text/css"><![CDATA[
.node, .edge {opacity: 0.7;}
.node.selected, .edge.selected {opacity: 1;}
.edge:hover path { stroke: red; }
.edge:hover polygon { stroke: red; fill: red; }
]]></style>

<defs>
  <circle id="rim" cx="0" cy="0" r="7"/>
  <circle id="rim2" cx="0" cy="0" r="3.5"/>
  <g id="zoomPlus">
    <use xlink:href="#rim" fill="#404040"><set attributeName="fill" to="#808080" begin="zoomplus.mouseover" end="zoomplus.mouseout"/></use>
    <path d="M-4,0h8M0,-4v8" fill="none" stroke="white" stroke-width="1.5" pointer-events="none"/>
  </g>
  <g id="zoomMin">
    <use xlink:href="#rim" fill="#404040"><set attributeName="fill" to="#808080" begin="zoomminus.mouseover" end="zoomminus.mouseout"/></use>
    <path d="M-4,0h8" fill="none" stroke="white" stroke-width="1.5" pointer-events="none"/>
  </g>
  <g id="arrowUp" transform="translate(30 24)">
    <use xlink:href="#rim"/>
    <path pointer-events="none" fill="none" stroke="white" stroke-width="1.5" d="M0,-3.0v7 M-2.5,-0.5L0,-3.0L2.5,-0.5"/>
  </g>
  <g id="arrowRight" transform="rotate(90) translate(36 -43)">
    <use xlink:href="#rim"/>
    <path pointer-events="none" fill="none" stroke="white" stroke-width="1.5" d="M0,-3.0v7 M-2.5,-0.5L0,-3.0L2.5,-0.5"/>
  </g>
  <g id="arrowDown" transform="rotate(180) translate(-30 -48)">
    <use xlink:href="#rim"/>
    <path pointer-events="none" fill="none" stroke="white" stroke-width="1.5" d="M0,-3.0v7 M-2.5,-0.5L0,-3.0L2.5,-0.5"/>
  </g>
  <g id="arrowLeft" transform="rotate(270) translate(-36 17)">
    <use xlink:href="#rim"/>
    <path pointer-events="none" fill="none" stroke="white" stroke-width="1.5" d="M0,-3.0v7 M-2.5,-0.5L0,-3.0L2.5,-0.5"/>
  </g>
  <g id="resetDef">
    <use xlink:href="#rim2" fill="#404040"><set attributeName="fill" to="#808080" begin="reset.mouseover" end="reset.mouseout"/></use>
  </g>
</defs>
<script type="application/ecmascript">
var viewWidth = 673;
var viewHeight = 222;
var sectionId = 'dynsection-5';
</script>
<script type="application/ecmascript" xlink:href="svg.min.js"/>
<svg id="graph" class="graph">
<g id="viewport">
<title>digitalWrite</title>
<!-- Node1 -->
<g id="Node000001" class="node">
<title>Node1</title>
<g id="a_Node000001"><a xlink:title=" ">
<polygon fill="#999999" stroke="#666666" points="665,-113 591,-113 591,-94 665,-94 665,-113"/>
<text text-anchor="middle" x="628" y="-101" font-family="Helvetica,sans-Serif" font-size="10.00">digitalWrite</text>
</a>
</g>
</g>
<!-- Node2 -->
<g id="Node000002" class="node">
<title>Node2</title>
<g id="a_Node000002"><a xlink:href="classDisplayManager.html#abcac9213f163018979f2a226ecf53882" target="_top" xlink:title="Manually selects SPI displays that require manual selecting via the CS pin &#45; sets pin low.">
<polygon fill="white" stroke="#666666" points="555,-143 367,-143 367,-124 555,-124 555,-143"/>
<text text-anchor="middle" x="461" y="-131" font-family="Helvetica,sans-Serif" font-size="10.00">DisplayManager::_selectSPIDisplay</text>
</a>
</g>
</g>
<!-- Node1&#45;&gt;Node2 -->
<g id="edge1_Node000001_Node000002" class="edge">
<title>Node1&#45;&gt;Node2</title>
<g id="a_edge1_Node000001_Node000002"><a xlink:title=" ">
<path fill="none" stroke="#63b8ff" d="M580.69,-111.92C560.08,-115.67 535.69,-120.1 514.41,-123.97"/>
<polygon fill="#63b8ff" stroke="#63b8ff" points="581.58,-115.32 590.79,-110.08 580.33,-108.43 581.58,-115.32"/>
</a>
</g>
</g>
<!-- Node16 -->
<g id="Node000016" class="node">
<title>Node16</title>
<g id="a_Node000016"><a xlink:href="classDisplayManager.html#a33f6184fa8292c66a6cd2f05f264ef0f" target="_top" xlink:title="Set the chip select pin state for all displays that have it set and select them.">
<polygon fill="white" stroke="#666666" points="534.5,-97.5 387.5,-97.5 387.5,-67.5 534.5,-67.5 534.5,-97.5"/>
<text text-anchor="start" x="395.5" y="-85.5" font-family="Helvetica,sans-Serif" font-size="10.00">DisplayManager::_setupAll</text>
<text text-anchor="middle" x="461" y="-74.5" font-family="Helvetica,sans-Serif" font-size="10.00">SPICSPins</text>
</a>
</g>
</g>
<!-- Node1&#45;&gt;Node16 -->
<g id="edge10_Node000001_Node000016" class="edge">
<title>Node1&#45;&gt;Node16</title>
<g id="a_edge10_Node000001_Node000016"><a xlink:title=" ">
<path fill="none" stroke="#63b8ff" d="M580.73,-97.61C566.44,-95.79 550.33,-93.74 534.7,-91.75"/>
<polygon fill="#63b8ff" stroke="#63b8ff" points="580.43,-101.1 590.79,-98.89 581.31,-94.16 580.43,-101.1"/>
</a>
</g>
</g>
<!-- Node3 -->
<g id="Node000003" class="node">
<title>Node3</title>
<g id="a_Node000003"><a xlink:href="classDisplayManager.html#ac007625bc3dc91b4a7f22238226f37ea" target="_top" xlink:title="Clear all displays.">
<polygon fill="white" stroke="#666666" points="305,-213.5 166,-213.5 166,-183.5 305,-183.5 305,-213.5"/>
<text text-anchor="start" x="174" y="-201.5" font-family="Helvetica,sans-Serif" font-size="10.00">DisplayManager::clearAll</text>
<text text-anchor="middle" x="235.5" y="-190.5" font-family="Helvetica,sans-Serif" font-size="10.00">Displays</text>
</a>
</g>
</g>
<!-- Node2&#45;&gt;Node3 -->
<g id="edge2_Node000002_Node000003" class="edge">
<title>Node2&#45;&gt;Node3</title>
<g id="a_edge2_Node000002_Node000003"><a xlink:title=" ">
<path fill="none" stroke="#63b8ff" d="M422.02,-146.22C396.42,-154.64 361.82,-165.7 331,-174.5 320.34,-177.55 308.95,-180.6 297.9,-183.47"/>
<polygon fill="#63b8ff" stroke="#63b8ff" points="423.31,-149.48 431.71,-143.02 421.11,-142.83 423.31,-149.48"/>
</a>
</g>
</g>
<!-- Node8 -->
<g id="Node000008" class="node">
<title>Node8</title>
<g id="a_Node000008"><a xlink:href="classDisplayManager.html#aa0e0e26134a34beeb30e27c00b8e829f" target="_top" xlink:title="Calls the displayStartupInfo of all Display instances to display the version.">
<polygon fill="white" stroke="#666666" points="331,-128 140,-128 140,-109 331,-109 331,-128"/>
<text text-anchor="middle" x="235.5" y="-116" font-family="Helvetica,sans-Serif" font-size="10.00">DisplayManager::displayStartupInfo</text>
</a>
</g>
</g>
<!-- Node2&#45;&gt;Node8 -->
<g id="edge4_Node000002_Node000008" class="edge">
<title>Node2&#45;&gt;Node8</title>
<g id="a_edge4_Node000002_Node000008"><a xlink:title=" ">
<path fill="none" stroke="#63b8ff" d="M356.6,-126.56C348.17,-125.99 339.68,-125.42 331.31,-124.86"/>
<polygon fill="#63b8ff" stroke="#63b8ff" points="356.62,-130.07 366.83,-127.25 357.09,-123.09 356.62,-130.07"/>
</a>
</g>
</g>
<!-- Node15 -->
<g id="Node000015" class="node">
<title>Node15</title>
<g id="a_Node000015"><a xlink:href="classDisplayManager.html#ad53dcac2e939893727d27187524733c6" target="_top" xlink:title="Call this routinely to ensure all displays are updated with screens.">
<polygon fill="white" stroke="#666666" points="303.5,-165 167.5,-165 167.5,-146 303.5,-146 303.5,-165"/>
<text text-anchor="middle" x="235.5" y="-153" font-family="Helvetica,sans-Serif" font-size="10.00">DisplayManager::update</text>
</a>
</g>
</g>
<!-- Node2&#45;&gt;Node15 -->
<g id="edge8_Node000002_Node000015" class="edge">
<title>Node2&#45;&gt;Node15</title>
<g id="a_edge8_Node000002_Node000015"><a xlink:title=" ">
<path fill="none" stroke="#63b8ff" d="M356.84,-143.65C338.78,-145.43 320.41,-147.24 303.65,-148.89"/>
<polygon fill="#63b8ff" stroke="#63b8ff" points="357.23,-147.13 366.83,-142.67 356.54,-140.17 357.23,-147.13"/>
</a>
</g>
</g>
<!-- Node4 -->
<g id="Node000004" class="node">
<title>Node4</title>
<g id="a_Node000004"><a xlink:href="classController.html#a7d04c17913f04f99429aa29fa8505484" target="_top" xlink:title="Processes all ongoing activities, monitoring streams, receiving user input, updates displays,...">
<polygon fill="#fff0f0" stroke="red" points="104,-207 0,-207 0,-188 104,-188 104,-207"/>
<text text-anchor="middle" x="52" y="-195" font-family="Helvetica,sans-Serif" font-size="10.00">Controller::update</text>
</a>
</g>
</g>
<!-- Node3&#45;&gt;Node4 -->
<g id="edge3_Node000003_Node000004" class="edge">
<title>Node3&#45;&gt;Node4</title>
<g id="a_edge3_Node000003_Node000004"><a xlink:title=" ">
<path fill="none" stroke="#63b8ff" d="M155.69,-198.07C138.24,-197.97 120.18,-197.87 104.17,-197.78"/>
<polygon fill="#63b8ff" stroke="#63b8ff" points="155.86,-201.57 165.88,-198.12 155.9,-194.57 155.86,-201.57"/>
</a>
</g>
</g>
<!-- Node9 -->
<g id="Node000009" class="node">
<title>Node9</title>
<g id="a_Node000009"><a xlink:href="classController.html#a1cc0b87ab9e07d21ab47d294aa5bf607" target="_top" xlink:title="Call once to start displays and input.">
<polygon fill="#fff0f0" stroke="red" points="101,-93 3,-93 3,-74 101,-74 101,-93"/>
<text text-anchor="middle" x="52" y="-81" font-family="Helvetica,sans-Serif" font-size="10.00">Controller::begin</text>
</a>
</g>
</g>
<!-- Node8&#45;&gt;Node9 -->
<g id="edge5_Node000008_Node000009" class="edge">
<title>Node8&#45;&gt;Node9</title>
<g id="a_edge5_Node000008_Node000009"><a xlink:title=" ">
<path fill="none" stroke="#63b8ff" d="M174.9,-107.01C151.03,-102.4 123.88,-97.17 101.28,-92.81"/>
<polygon fill="#63b8ff" stroke="#63b8ff" points="174.42,-110.48 184.9,-108.94 175.75,-103.61 174.42,-110.48"/>
</a>
</g>
</g>
<!-- Node13 -->
<g id="Node000013" class="node">
<title>Node13</title>
<g id="a_Node000013"><a xlink:href="test__DisplayManager_8cpp.html#ad108e01a79b7f75a831a955e93bb9176" target="_top" xlink:title="Validate the displayStartupInfo() method correct calls all display methods.">
<polygon fill="white" stroke="#666666" points="78,-167 26,-167 26,-148 78,-148 78,-167"/>
<text text-anchor="middle" x="52" y="-155" font-family="Helvetica,sans-Serif" font-size="10.00">TEST_F</text>
</a>
</g>
</g>
<!-- Node8&#45;&gt;Node13 -->
<g id="edge6_Node000008_Node000013" class="edge">
<title>Node8&#45;&gt;Node13</title>
<g id="a_edge6_Node000008_Node000013"><a xlink:title=" ">
<path fill="none" stroke="#63b8ff" d="M176.02,-130C164.09,-132.42 151.63,-134.99 140,-137.5 119.09,-142 95.44,-147.46 78.09,-151.54"/>
<polygon fill="#63b8ff" stroke="#63b8ff" points="176.78,-133.41 185.89,-128.01 175.39,-126.55 176.78,-133.41"/>
</a>
</g>
</g>
<!-- Node14 -->
<g id="Node000014" class="node">
<title>Node14</title>
<g id="a_Node000014"><a xlink:href="test__DisplayManualSPISwitching_8cpp.html#a928ab800b1e1899f185fb572718ec014" target="_top" xlink:title="Test that SPI displays can be switched manually if their library doesn&#39;t support it (eg....">
<polygon fill="white" stroke="#666666" points="78,-130 26,-130 26,-111 78,-111 78,-130"/>
<text text-anchor="middle" x="52" y="-118" font-family="Helvetica,sans-Serif" font-size="10.00">TEST_F</text>
</a>
</g>
</g>
<!-- Node8&#45;&gt;Node14 -->
<g id="edge7_Node000008_Node000014" class="edge">
<title>Node8&#45;&gt;Node14</title>
<g id="a_edge7_Node000008_Node000014"><a xlink:title=" ">
<path fill="none" stroke="#63b8ff" d="M129.62,-119.66C110.35,-119.87 91.94,-120.07 78.01,-120.22"/>
<polygon fill="#63b8ff" stroke="#63b8ff" points="129.8,-123.15 139.76,-119.54 129.73,-116.15 129.8,-123.15"/>
</a>
</g>
</g>
<!-- Node15&#45;&gt;Node4 -->
<g id="edge9_Node000015_Node000004" class="edge">
<title>Node15&#45;&gt;Node4</title>
<g id="a_edge9_Node000015_Node000004"><a xlink:title=" ">
<path fill="none" stroke="#63b8ff" d="M174.03,-167.1C162.7,-169.43 150.97,-171.95 140,-174.5 122.5,-178.57 103.17,-183.62 87.18,-187.96"/>
<polygon fill="#63b8ff" stroke="#63b8ff" points="174.76,-170.52 183.86,-165.1 173.37,-163.66 174.76,-170.52"/>
</a>
</g>
</g>
<!-- Node17 -->
<g id="Node000017" class="node">
<title>Node17</title>
<g id="a_Node000017"><a xlink:href="classDisplayManager.html#a270daf83b6af22558fde42034254b351" target="_top" xlink:title="Call the begin() method for all associated Display instances.">
<polygon fill="white" stroke="#666666" points="319,-77 152,-77 152,-58 319,-58 319,-77"/>
<text text-anchor="middle" x="235.5" y="-65" font-family="Helvetica,sans-Serif" font-size="10.00">DisplayManager::startDisplays</text>
</a>
</g>
</g>
<!-- Node16&#45;&gt;Node17 -->
<g id="edge11_Node000016_Node000017" class="edge">
<title>Node16&#45;&gt;Node17</title>
<g id="a_edge11_Node000016_Node000017"><a xlink:title=" ">
<path fill="none" stroke="#63b8ff" d="M377.33,-76.95C358.34,-75.68 338.15,-74.32 319.17,-73.05"/>
<polygon fill="#63b8ff" stroke="#63b8ff" points="377.22,-80.45 387.44,-77.63 377.69,-73.47 377.22,-80.45"/>
</a>
</g>
</g>
<!-- Node17&#45;&gt;Node9 -->
<g id="edge12_Node000017_Node000009" class="edge">
<title>Node17&#45;&gt;Node9</title>
<g id="a_edge12_Node000017_Node000009"><a xlink:title=" ">
<path fill="none" stroke="#63b8ff" d="M141.75,-75.68C127.68,-76.92 113.68,-78.15 101.1,-79.26"/>
<polygon fill="#63b8ff" stroke="#63b8ff" points="142.33,-79.14 151.98,-74.77 141.71,-72.17 142.33,-79.14"/>
</a>
</g>
</g>
<!-- Node18 -->
<g id="Node000018" class="node">
<title>Node18</title>
<g id="a_Node000018"><a xlink:href="test__CompilerCreation_8cpp.html#a484c00ac396e82066ad78a3641a34a4f" target="_top" xlink:title="Ensure devices are created and all attributes are valid.">
<polygon fill="white" stroke="#666666" points="78,-56 26,-56 26,-37 78,-37 78,-56"/>
<text text-anchor="middle" x="52" y="-44" font-family="Helvetica,sans-Serif" font-size="10.00">TEST_F</text>
</a>
</g>
</g>
<!-- Node17&#45;&gt;Node18 -->
<g id="edge13_Node000017_Node000018" class="edge">
<title>Node17&#45;&gt;Node18</title>
<g id="a_edge13_Node000017_Node000018"><a xlink:title=" ">
<path fill="none" stroke="#63b8ff" d="M142.16,-56.82C118.6,-54.09 95.18,-51.38 78.26,-49.42"/>
<polygon fill="#63b8ff" stroke="#63b8ff" points="141.91,-60.31 152.25,-57.98 142.72,-53.36 141.91,-60.31"/>
</a>
</g>
</g>
<!-- Node19 -->
<g id="Node000019" class="node">
<title>Node19</title>
<g id="a_Node000019"><a xlink:href="test__DisplayManager_8cpp.html#a95f97074a82f0e3d901808635e654d9a" target="_top" xlink:title="Validate the startDisplays() method correctly calls all display begin() methods.">
<polygon fill="white" stroke="#666666" points="78,-19 26,-19 26,0 78,0 78,-19"/>
<text text-anchor="middle" x="52" y="-7" font-family="Helvetica,sans-Serif" font-size="10.00">TEST_F</text>
</a>
</g>
</g>
<!-- Node17&#45;&gt;Node19 -->
<g id="edge14_Node000017_Node000019" class="edge">
<title>Node17&#45;&gt;Node19</title>
<g id="a_edge14_Node000017_Node000019"><a xlink:title=" ">
<path fill="none" stroke="#63b8ff" d="M194.94,-54.86C159.39,-43.5 108.25,-27.16 78.04,-17.5"/>
<polygon fill="#63b8ff" stroke="#63b8ff" points="193.94,-58.21 204.53,-57.92 196.07,-51.54 193.94,-58.21"/>
</a>
</g>
</g>
</g>
</svg>

<g id="navigator" transform="translate(0 0)" fill="#404254">
  <rect fill="#f2f5e9" fill-opacity="0.5" stroke="#606060" stroke-width=".5" x="0" y="0" width="60" height="60"/>
  <use id="zoomplus" xlink:href="#zoomPlus" x="17" y="9" onmousedown="handleZoom(evt,'in')"/>
  <use id="zoomminus" xlink:href="#zoomMin" x="42" y="9" onmousedown="handleZoom(evt,'out')"/>
  <use id="reset" xlink:href="#resetDef" x="30" y="36" onmousedown="handleReset()"/>
   <use id="arrowup" xlink:href="#arrowUp" x="0" y="0" onmousedown="handlePan(0,-1)"/>
  <use id="arrowright" xlink:href="#arrowRight" x="0" y="0" onmousedown="handlePan(1,0)"/>
  <use id="arrowdown" xlink:href="#arrowDown" x="0" y="0" onmousedown="handlePan(0,1)"/>
  <use id="arrowleft" xlink:href="#arrowLeft" x="0" y="0" onmousedown="handlePan(-1,0)"/>
</g>
<svg viewBox="0 0 15 15" width="100%" height="30px" preserveAspectRatio="xMaxYMin meet">
 <g id="arrow_out" transform="scale(0.3 0.3)">
  <a xlink:href="Arduino_8h_ae9647a9a056bb33fd1206da70c83bde3_icgraph_org.svg" target="_base">
   <rect id="button" ry="5" rx="5" y="6" x="6" height="38" width="38"
        fill="#f2f5e9" fill-opacity="0.5" stroke="#606060" stroke-width="1.0"/>
   <path id="arrow"
     d="M 11.500037,31.436501 C 11.940474,20.09759 22.043105,11.32322 32.158766,21.979434 L 37.068811,17.246167 C 37.068811,17.246167 37.088388,32 37.088388,32 L 22.160133,31.978069 C 22.160133,31.978069 26.997745,27.140456 26.997745,27.140456 C 18.528582,18.264221 13.291696,25.230495 11.500037,31.436501 z"
     style="fill:#404040;"/>
  </a>
 </g>
</svg>

<style type='text/css'>
<![CDATA[
[data-mouse-over-selected='false'] { opacity: 0.7; }
[data-mouse-over-selected='true']  { opacity: 1.0; }
]]>
</style>
<script type="application/ecmascript"><![CDATA[
document.addEventListener('DOMContentLoaded', (event) => {
  highlightEdges();
  highlightAdjacentNodes();
});
]]></script>
</svg>
