<?xml version="1.0" encoding="UTF-8" standalone="no"?>
<!DOCTYPE svg PUBLIC "-//W3C//DTD SVG 1.1//EN"
 "http://www.w3.org/Graphics/SVG/1.1/DTD/svg11.dtd">
<!-- Generated by graphviz version 2.43.0 (0)
 -->
<!-- Title: digitalWrite Pages: 1 -->
<svg width="673pt" height="173pt"
 viewBox="0.00 0.00 673.00 172.50" xmlns="http://www.w3.org/2000/svg" xmlns:xlink="http://www.w3.org/1999/xlink">
<g id="graph0" class="graph" transform="scale(1 1) rotate(0) translate(4 168.5)">
<title>digitalWrite</title>
<polygon fill="white" stroke="transparent" points="-4,4 -4,-168.5 669,-168.5 669,4 -4,4"/>
<!-- Node1 -->
<g id="node1" class="node">
<title>Node1</title>
<g id="a_node1"><a xlink:title=" ">
<polygon fill="#bfbfbf" stroke="black" points="591,-57.5 591,-76.5 665,-76.5 665,-57.5 591,-57.5"/>
<text text-anchor="middle" x="628" y="-64.5" font-family="Helvetica,sans-Serif" font-size="10.00">digitalWrite</text>
</a>
</g>
</g>
<!-- Node2 -->
<g id="node2" class="node">
<title>Node2</title>
<g id="a_node2"><a xlink:href="classDisplayManager.html#abcac9213f163018979f2a226ecf53882" target="_top" xlink:title="Manually selects SPI displays that require manual selecting via the CS pin &#45; sets pin low.">
<polygon fill="white" stroke="black" points="367,-87.5 367,-106.5 555,-106.5 555,-87.5 367,-87.5"/>
<text text-anchor="middle" x="461" y="-94.5" font-family="Helvetica,sans-Serif" font-size="10.00">DisplayManager::_selectSPIDisplay</text>
</a>
</g>
</g>
<!-- Node1&#45;&gt;Node2 -->
<g id="edge1" class="edge">
<title>Node1&#45;&gt;Node2</title>
<path fill="none" stroke="midnightblue" d="M580.69,-75.42C560.08,-79.17 535.69,-83.6 514.41,-87.47"/>
<polygon fill="midnightblue" stroke="midnightblue" points="581.58,-78.82 590.79,-73.58 580.33,-71.93 581.58,-78.82"/>
</g>
<!-- Node14 -->
<g id="node9" class="node">
<title>Node14</title>
<g id="a_node9"><a xlink:href="classDisplayManager.html#a33f6184fa8292c66a6cd2f05f264ef0f" target="_top" xlink:title="Set the chip select pin state for all displays that have it set and select them.">
<polygon fill="white" stroke="black" points="387.5,-30 387.5,-60 534.5,-60 534.5,-30 387.5,-30"/>
<text text-anchor="start" x="395.5" y="-48" font-family="Helvetica,sans-Serif" font-size="10.00">DisplayManager::_setupAll</text>
<text text-anchor="middle" x="461" y="-37" font-family="Helvetica,sans-Serif" font-size="10.00">SPICSPins</text>
</a>
</g>
</g>
<!-- Node1&#45;&gt;Node14 -->
<g id="edge9" class="edge">
<title>Node1&#45;&gt;Node14</title>
<path fill="none" stroke="midnightblue" d="M580.73,-60.83C566.44,-58.92 550.33,-56.78 534.7,-54.69"/>
<polygon fill="midnightblue" stroke="midnightblue" points="580.42,-64.32 590.79,-62.17 581.34,-57.38 580.42,-64.32"/>
</g>
<!-- Node3 -->
<g id="node3" class="node">
<title>Node3</title>
<g id="a_node3"><a xlink:href="classDisplayManager.html#ac007625bc3dc91b4a7f22238226f37ea" target="_top" xlink:title="Clear all displays.">
<polygon fill="white" stroke="black" points="166,-134 166,-164 305,-164 305,-134 166,-134"/>
<text text-anchor="start" x="174" y="-152" font-family="Helvetica,sans-Serif" font-size="10.00">DisplayManager::clearAll</text>
<text text-anchor="middle" x="235.5" y="-141" font-family="Helvetica,sans-Serif" font-size="10.00">Displays</text>
</a>
</g>
</g>
<!-- Node2&#45;&gt;Node3 -->
<g id="edge2" class="edge">
<title>Node2&#45;&gt;Node3</title>
<path fill="none" stroke="midnightblue" d="M408.99,-108.87C377.06,-116.3 335.62,-125.94 301.37,-133.91"/>
<polygon fill="midnightblue" stroke="midnightblue" points="410.06,-112.21 419.01,-106.54 408.47,-105.39 410.06,-112.21"/>
</g>
<!-- Node7 -->
<g id="node5" class="node">
<title>Node7</title>
<g id="a_node5"><a xlink:href="classDisplayManager.html#aa0e0e26134a34beeb30e27c00b8e829f" target="_top" xlink:title="Calls the displayStartupInfo of all Display instances to display the version.">
<polygon fill="white" stroke="black" points="140,-57.5 140,-76.5 331,-76.5 331,-57.5 140,-57.5"/>
<text text-anchor="middle" x="235.5" y="-64.5" font-family="Helvetica,sans-Serif" font-size="10.00">DisplayManager::displayStartupInfo</text>
</a>
</g>
</g>
<!-- Node2&#45;&gt;Node7 -->
<g id="edge4" class="edge">
<title>Node2&#45;&gt;Node7</title>
<path fill="none" stroke="midnightblue" d="M379.05,-86.13C355.58,-82.98 330.14,-79.57 307.34,-76.51"/>
<polygon fill="midnightblue" stroke="midnightblue" points="378.6,-89.61 388.98,-87.47 379.53,-82.67 378.6,-89.61"/>
</g>
<!-- Node13 -->
<g id="node8" class="node">
<title>Node13</title>
<g id="a_node8"><a xlink:href="classDisplayManager.html#ad53dcac2e939893727d27187524733c6" target="_top" xlink:title="Call this routinely to ensure all displays are updated with screens.">
<polygon fill="white" stroke="black" points="167.5,-95.5 167.5,-114.5 303.5,-114.5 303.5,-95.5 167.5,-95.5"/>
<text text-anchor="middle" x="235.5" y="-102.5" font-family="Helvetica,sans-Serif" font-size="10.00">DisplayManager::update</text>
</a>
</g>
</g>
<!-- Node2&#45;&gt;Node13 -->
<g id="edge7" class="edge">
<title>Node2&#45;&gt;Node13</title>
<path fill="none" stroke="midnightblue" d="M356.59,-100.7C338.61,-101.35 320.33,-102 303.65,-102.6"/>
<polygon fill="midnightblue" stroke="midnightblue" points="356.97,-104.19 366.83,-100.33 356.72,-97.19 356.97,-104.19"/>
</g>
<!-- Node4 -->
<g id="node4" class="node">
<title>Node4</title>
<g id="a_node4"><a xlink:href="classController.html#a7d04c17913f04f99429aa29fa8505484" target="_top" xlink:title="Processes all ongoing activities, monitoring streams, receiving user input, updates displays,...">
<polygon fill="white" stroke="red" points="0,-126.5 0,-145.5 104,-145.5 104,-126.5 0,-126.5"/>
<text text-anchor="middle" x="52" y="-133.5" font-family="Helvetica,sans-Serif" font-size="10.00">Controller::update</text>
</a>
</g>
</g>
<!-- Node3&#45;&gt;Node4 -->
<g id="edge3" class="edge">
<title>Node3&#45;&gt;Node4</title>
<path fill="none" stroke="midnightblue" d="M155.69,-143.36C138.24,-142.11 120.18,-140.81 104.17,-139.67"/>
<polygon fill="midnightblue" stroke="midnightblue" points="155.66,-146.86 165.88,-144.09 156.16,-139.88 155.66,-146.86"/>
</g>
<!-- Node8 -->
<g id="node6" class="node">
<title>Node8</title>
<g id="a_node6"><a xlink:href="classController.html#a1cc0b87ab9e07d21ab47d294aa5bf607" target="_top" xlink:title="Call once to start displays and input.">
<polygon fill="white" stroke="red" points="3,-38.5 3,-57.5 101,-57.5 101,-38.5 3,-38.5"/>
<text text-anchor="middle" x="52" y="-45.5" font-family="Helvetica,sans-Serif" font-size="10.00">Controller::begin</text>
</a>
</g>
</g>
<!-- Node7&#45;&gt;Node8 -->
<g id="edge5" class="edge">
<title>Node7&#45;&gt;Node8</title>
<path fill="none" stroke="midnightblue" d="M133.52,-56.43C122.23,-55.25 111.15,-54.09 101,-53.02"/>
<polygon fill="midnightblue" stroke="midnightblue" points="133.17,-59.91 143.48,-57.47 133.9,-52.95 133.17,-59.91"/>
</g>
<!-- Node12 -->
<g id="node7" class="node">
<title>Node12</title>
<g id="a_node7"><a xlink:href="test__DisplayManager_8cpp.html#ad108e01a79b7f75a831a955e93bb9176" target="_top" xlink:title="Validate the displayStartupInfo() method correct calls all display methods.">
<polygon fill="white" stroke="black" points="26,-76.5 26,-95.5 78,-95.5 78,-76.5 26,-76.5"/>
<text text-anchor="middle" x="52" y="-83.5" font-family="Helvetica,sans-Serif" font-size="10.00">TEST_F</text>
</a>
</g>
</g>
<!-- Node7&#45;&gt;Node12 -->
<g id="edge6" class="edge">
<title>Node7&#45;&gt;Node12</title>
<path fill="none" stroke="midnightblue" d="M133.35,-77.59C112.8,-79.74 92.97,-81.82 78.15,-83.37"/>
<polygon fill="midnightblue" stroke="midnightblue" points="133.9,-81.05 143.48,-76.53 133.17,-74.09 133.9,-81.05"/>
</g>
<!-- Node13&#45;&gt;Node4 -->
<g id="edge8" class="edge">
<title>Node13&#45;&gt;Node4</title>
<path fill="none" stroke="midnightblue" d="M168.63,-116.25C147.38,-119.88 124.15,-123.85 104.12,-127.27"/>
<polygon fill="midnightblue" stroke="midnightblue" points="169.3,-119.69 178.56,-114.55 168.12,-112.79 169.3,-119.69"/>
</g>
<!-- Node15 -->
<g id="node10" class="node">
<title>Node15</title>
<g id="a_node10"><a xlink:href="classDisplayManager.html#a270daf83b6af22558fde42034254b351" target="_top" xlink:title="Call the begin() method for all associated Display instances.">
<polygon fill="white" stroke="black" points="152,-19.5 152,-38.5 319,-38.5 319,-19.5 152,-19.5"/>
<text text-anchor="middle" x="235.5" y="-26.5" font-family="Helvetica,sans-Serif" font-size="10.00">DisplayManager::startDisplays</text>
</a>
</g>
</g>
<!-- Node14&#45;&gt;Node15 -->
<g id="edge10" class="edge">
<title>Node14&#45;&gt;Node15</title>
<path fill="none" stroke="midnightblue" d="M377.33,-39.08C358.34,-37.72 338.15,-36.28 319.17,-34.92"/>
<polygon fill="midnightblue" stroke="midnightblue" points="377.21,-42.58 387.44,-39.81 377.71,-35.6 377.21,-42.58"/>
</g>
<!-- Node15&#45;&gt;Node8 -->
<g id="edge11" class="edge">
<title>Node15&#45;&gt;Node8</title>
<path fill="none" stroke="midnightblue" d="M141.75,-38.71C127.68,-40.18 113.68,-41.65 101.1,-42.96"/>
<polygon fill="midnightblue" stroke="midnightblue" points="142.4,-42.16 151.98,-37.64 141.67,-35.2 142.4,-42.16"/>
</g>
<!-- Node16 -->
<g id="node11" class="node">
<title>Node16</title>
<g id="a_node11"><a xlink:href="test__CompilerCreation_8cpp.html#a484c00ac396e82066ad78a3641a34a4f" target="_top" xlink:title="Ensure devices are created and all attributes are valid.">
<polygon fill="white" stroke="black" points="26,-0.5 26,-19.5 78,-19.5 78,-0.5 26,-0.5"/>
<text text-anchor="middle" x="52" y="-7.5" font-family="Helvetica,sans-Serif" font-size="10.00">TEST_F</text>
</a>
</g>
</g>
<!-- Node15&#45;&gt;Node16 -->
<g id="edge12" class="edge">
<title>Node15&#45;&gt;Node16</title>
<path fill="none" stroke="midnightblue" d="M141.91,-19.31C118.4,-16.85 95.04,-14.4 78.18,-12.64"/>
<polygon fill="midnightblue" stroke="midnightblue" points="141.67,-22.8 151.98,-20.36 142.4,-15.84 141.67,-22.8"/>
</g>
</g>
</svg>
