<?xml version="1.0" encoding="UTF-8" standalone="no"?>
<!DOCTYPE svg PUBLIC "-//W3C//DTD SVG 1.1//EN"
 "http://www.w3.org/Graphics/SVG/1.1/DTD/svg11.dtd">
<!-- Generated by graphviz version 2.43.0 (0)
 -->
<!-- Title: pinMode Pages: 1 -->
<svg width="587pt" height="101pt"
 viewBox="0.00 0.00 587.00 101.00" xmlns="http://www.w3.org/2000/svg" xmlns:xlink="http://www.w3.org/1999/xlink">
<g id="graph0" class="graph" transform="scale(1 1) rotate(0) translate(4 97)">
<title>pinMode</title>
<!-- Node1 -->
<g id="Node000001" class="node">
<title>Node1</title>
<g id="a_Node000001"><a xlink:title=" ">
<polygon fill="#999999" stroke="#666666" points="579,-56 520,-56 520,-37 579,-37 579,-56"/>
<text text-anchor="middle" x="549.5" y="-44" font-family="Helvetica,sans-Serif" font-size="10.00">pinMode</text>
</a>
</g>
</g>
<!-- Node2 -->
<g id="Node000002" class="node">
<title>Node2</title>
<g id="a_Node000002"><a xlink:href="classDisplayManager.html#a33f6184fa8292c66a6cd2f05f264ef0f" target="_top" xlink:title="Set the chip select pin state for all displays that have it set and select them.">
<polygon fill="white" stroke="#666666" points="484,-61.5 337,-61.5 337,-31.5 484,-31.5 484,-61.5"/>
<text text-anchor="start" x="345" y="-49.5" font-family="Helvetica,sans-Serif" font-size="10.00">DisplayManager::_setupAll</text>
<text text-anchor="middle" x="410.5" y="-38.5" font-family="Helvetica,sans-Serif" font-size="10.00">SPICSPins</text>
</a>
</g>
</g>
<!-- Node1&#45;&gt;Node2 -->
<g id="edge1_Node000001_Node000002" class="edge">
<title>Node1&#45;&gt;Node2</title>
<g id="a_edge1_Node000001_Node000002"><a xlink:title=" ">
<path fill="none" stroke="#63b8ff" d="M509.69,-46.5C501.68,-46.5 492.99,-46.5 484.22,-46.5"/>
<polygon fill="#63b8ff" stroke="#63b8ff" points="509.78,-50 519.78,-46.5 509.78,-43 509.78,-50"/>
</a>
</g>
</g>
<!-- Node3 -->
<g id="Node000003" class="node">
<title>Node3</title>
<g id="a_Node000003"><a xlink:href="classDisplayManager.html#a270daf83b6af22558fde42034254b351" target="_top" xlink:title="Call the begin() method for all associated Display instances.">
<polygon fill="white" stroke="#666666" points="301,-56 134,-56 134,-37 301,-37 301,-56"/>
<text text-anchor="middle" x="217.5" y="-44" font-family="Helvetica,sans-Serif" font-size="10.00">DisplayManager::startDisplays</text>
</a>
</g>
</g>
<!-- Node2&#45;&gt;Node3 -->
<g id="edge2_Node000002_Node000003" class="edge">
<title>Node2&#45;&gt;Node3</title>
<g id="a_edge2_Node000002_Node000003"><a xlink:title=" ">
<path fill="none" stroke="#63b8ff" d="M326.59,-46.5C318.19,-46.5 309.67,-46.5 301.27,-46.5"/>
<polygon fill="#63b8ff" stroke="#63b8ff" points="326.75,-50 336.75,-46.5 326.75,-43 326.75,-50"/>
</a>
</g>
</g>
<!-- Node4 -->
<g id="Node000004" class="node">
<title>Node4</title>
<g id="a_Node000004"><a xlink:href="classController.html#a1cc0b87ab9e07d21ab47d294aa5bf607" target="_top" xlink:title="Call once to start displays and input.">
<polygon fill="#fff0f0" stroke="red" points="98,-93 0,-93 0,-74 98,-74 98,-93"/>
<text text-anchor="middle" x="49" y="-81" font-family="Helvetica,sans-Serif" font-size="10.00">Controller::begin</text>
</a>
</g>
</g>
<!-- Node3&#45;&gt;Node4 -->
<g id="edge3_Node000003_Node000004" class="edge">
<title>Node3&#45;&gt;Node4</title>
<g id="a_edge3_Node000003_Node000004"><a xlink:title=" ">
<path fill="none" stroke="#63b8ff" d="M163.76,-58.22C140.96,-63.29 114.61,-69.14 93.02,-73.94"/>
<polygon fill="#63b8ff" stroke="#63b8ff" points="164.62,-61.61 173.62,-56.03 163.1,-54.78 164.62,-61.61"/>
</a>
</g>
</g>
<!-- Node8 -->
<g id="Node000008" class="node">
<title>Node8</title>
<g id="a_Node000008"><a xlink:href="test__CompilerCreation_8cpp.html#a484c00ac396e82066ad78a3641a34a4f" target="_top" xlink:title="Ensure devices are created and all attributes are valid.">
<polygon fill="white" stroke="#666666" points="75,-56 23,-56 23,-37 75,-37 75,-56"/>
<text text-anchor="middle" x="49" y="-44" font-family="Helvetica,sans-Serif" font-size="10.00">TEST_F</text>
</a>
</g>
</g>
<!-- Node3&#45;&gt;Node8 -->
<g id="edge4_Node000003_Node000008" class="edge">
<title>Node3&#45;&gt;Node8</title>
<g id="a_edge4_Node000003_Node000008"><a xlink:title=" ">
<path fill="none" stroke="#63b8ff" d="M123.73,-46.5C105.8,-46.5 88.46,-46.5 75.1,-46.5"/>
<polygon fill="#63b8ff" stroke="#63b8ff" points="123.74,-50 133.74,-46.5 123.74,-43 123.74,-50"/>
</a>
</g>
</g>
<!-- Node9 -->
<g id="Node000009" class="node">
<title>Node9</title>
<g id="a_Node000009"><a xlink:href="test__DisplayManager_8cpp.html#a95f97074a82f0e3d901808635e654d9a" target="_top" xlink:title="Validate the startDisplays() method correctly calls all display begin() methods.">
<polygon fill="white" stroke="#666666" points="75,-19 23,-19 23,0 75,0 75,-19"/>
<text text-anchor="middle" x="49" y="-7" font-family="Helvetica,sans-Serif" font-size="10.00">TEST_F</text>
</a>
</g>
</g>
<!-- Node3&#45;&gt;Node9 -->
<g id="edge5_Node000003_Node000009" class="edge">
<title>Node3&#45;&gt;Node9</title>
<g id="a_edge5_Node000003_Node000009"><a xlink:title=" ">
<path fill="none" stroke="#63b8ff" d="M163.83,-34.79C134.19,-28.21 98.55,-20.29 75.14,-15.09"/>
<polygon fill="#63b8ff" stroke="#63b8ff" points="163.1,-38.22 173.62,-36.97 164.62,-31.39 163.1,-38.22"/>
</a>
</g>
</g>
</g>
</svg>
