<?xml version="1.0" encoding="UTF-8" standalone="no"?>
<!DOCTYPE svg PUBLIC "-//W3C//DTD SVG 1.1//EN"
 "http://www.w3.org/Graphics/SVG/1.1/DTD/svg11.dtd">
<!-- Generated by graphviz version 2.43.0 (0)
 -->
<!-- Title: /home/runner/work/EX&#45;Display/EX&#45;Display/AtFinder.h Pages: 1 -->
<svg width="280pt" height="207pt"
 viewBox="0.00 0.00 280.00 207.00" xmlns="http://www.w3.org/2000/svg" xmlns:xlink="http://www.w3.org/1999/xlink">
<g id="graph0" class="graph" transform="scale(1 1) rotate(0) translate(4 203)">
<title>/home/runner/work/EX&#45;Display/EX&#45;Display/AtFinder.h</title>
<polygon fill="white" stroke="transparent" points="-4,4 -4,-203 276,-203 276,4 -4,4"/>
<!-- Node1 -->
<g id="node1" class="node">
<title>Node1</title>
<g id="a_node1"><a xlink:title=" ">
<polygon fill="#bfbfbf" stroke="black" points="108,-168.5 108,-198.5 272,-198.5 272,-168.5 108,-168.5"/>
<text text-anchor="start" x="116" y="-186.5" font-family="Helvetica,sans-Serif" font-size="10.00">/home/runner/work/EX</text>
<text text-anchor="middle" x="190" y="-175.5" font-family="Helvetica,sans-Serif" font-size="10.00">&#45;Display/EX&#45;Display/AtFinder.h</text>
</a>
</g>
</g>
<!-- Node2 -->
<g id="node2" class="node">
<title>Node2</title>
<g id="a_node2"><a xlink:href="CallbackInterface_8h.html" target="_top" xlink:title=" ">
<polygon fill="white" stroke="black" points="50.5,-112.5 50.5,-131.5 161.5,-131.5 161.5,-112.5 50.5,-112.5"/>
<text text-anchor="middle" x="106" y="-119.5" font-family="Helvetica,sans-Serif" font-size="10.00">CallbackInterface.h</text>
</a>
</g>
</g>
<!-- Node1&#45;&gt;Node2 -->
<g id="edge1" class="edge">
<title>Node1&#45;&gt;Node2</title>
<path fill="none" stroke="midnightblue" d="M170.09,-168.4C157.01,-159.13 139.92,-147.03 126.68,-137.65"/>
<polygon fill="midnightblue" stroke="midnightblue" points="128.41,-134.58 118.22,-131.66 124.36,-140.29 128.41,-134.58"/>
</g>
<!-- Node4 -->
<g id="node4" class="node">
<title>Node4</title>
<g id="a_node4"><a xlink:href="Logger_8h.html" target="_top" xlink:title=" ">
<polygon fill="white" stroke="black" points="142,-56.5 142,-75.5 200,-75.5 200,-56.5 142,-56.5"/>
<text text-anchor="middle" x="171" y="-63.5" font-family="Helvetica,sans-Serif" font-size="10.00">Logger.h</text>
</a>
</g>
</g>
<!-- Node1&#45;&gt;Node4 -->
<g id="edge6" class="edge">
<title>Node1&#45;&gt;Node4</title>
<path fill="none" stroke="midnightblue" d="M187.67,-168.34C184.25,-147.53 177.85,-108.66 174.06,-85.58"/>
<polygon fill="midnightblue" stroke="midnightblue" points="177.5,-84.97 172.43,-75.67 170.6,-86.1 177.5,-84.97"/>
</g>
<!-- Node5 -->
<g id="node5" class="node">
<title>Node5</title>
<g id="a_node5"><a xlink:href="Arduino_8h.html" target="_top" xlink:title=" ">
<polygon fill="white" stroke="red" points="139.5,-0.5 139.5,-19.5 202.5,-19.5 202.5,-0.5 139.5,-0.5"/>
<text text-anchor="middle" x="171" y="-7.5" font-family="Helvetica,sans-Serif" font-size="10.00">Arduino.h</text>
</a>
</g>
</g>
<!-- Node1&#45;&gt;Node5 -->
<g id="edge7" class="edge">
<title>Node1&#45;&gt;Node5</title>
<path fill="none" stroke="midnightblue" d="M196.51,-168.38C206.55,-144.52 223.26,-95 209,-56 204.94,-44.91 196.81,-34.67 189.11,-26.76"/>
<polygon fill="midnightblue" stroke="midnightblue" points="191.36,-24.07 181.71,-19.7 186.53,-29.14 191.36,-24.07"/>
</g>
<!-- Node3 -->
<g id="node3" class="node">
<title>Node3</title>
<g id="a_node3"><a xlink:href="InputActions_8h.html" target="_top" xlink:title=" ">
<polygon fill="white" stroke="black" points="0,-56.5 0,-75.5 86,-75.5 86,-56.5 0,-56.5"/>
<text text-anchor="middle" x="43" y="-63.5" font-family="Helvetica,sans-Serif" font-size="10.00">InputActions.h</text>
</a>
</g>
</g>
<!-- Node2&#45;&gt;Node3 -->
<g id="edge2" class="edge">
<title>Node2&#45;&gt;Node3</title>
<path fill="none" stroke="midnightblue" d="M95.88,-112.32C86.47,-104.26 72.26,-92.08 60.93,-82.37"/>
<polygon fill="midnightblue" stroke="midnightblue" points="63.18,-79.68 53.31,-75.83 58.62,-85 63.18,-79.68"/>
</g>
<!-- Node2&#45;&gt;Node4 -->
<g id="edge3" class="edge">
<title>Node2&#45;&gt;Node4</title>
<path fill="none" stroke="midnightblue" d="M116.44,-112.32C126.15,-104.26 140.82,-92.08 152.5,-82.37"/>
<polygon fill="midnightblue" stroke="midnightblue" points="154.91,-84.92 160.37,-75.83 150.44,-79.53 154.91,-84.92"/>
</g>
<!-- Node2&#45;&gt;Node5 -->
<g id="edge5" class="edge">
<title>Node2&#45;&gt;Node5</title>
<path fill="none" stroke="midnightblue" d="M108.7,-112.18C112.85,-99.29 121.55,-74.78 133,-56 139.31,-45.65 147.92,-35.24 155.35,-27.05"/>
<polygon fill="midnightblue" stroke="midnightblue" points="157.97,-29.36 162.25,-19.67 152.86,-24.58 157.97,-29.36"/>
</g>
<!-- Node4&#45;&gt;Node5 -->
<g id="edge4" class="edge">
<title>Node4&#45;&gt;Node5</title>
<path fill="none" stroke="midnightblue" d="M171,-56.08C171,-49.01 171,-38.86 171,-29.99"/>
<polygon fill="midnightblue" stroke="midnightblue" points="174.5,-29.75 171,-19.75 167.5,-29.75 174.5,-29.75"/>
</g>
</g>
</svg>
