<?xml version="1.0" encoding="UTF-8" standalone="no"?>
<!DOCTYPE svg PUBLIC "-//W3C//DTD SVG 1.1//EN"
 "http://www.w3.org/Graphics/SVG/1.1/DTD/svg11.dtd">
<!-- Generated by graphviz version 2.43.0 (0)
 -->
<!-- Title: /home/runner/work/EX&#45;Display/EX&#45;Display/CallbackInterface.h Pages: 1 -->
<svg width="2040pt" height="462pt"
 viewBox="0.00 0.00 2039.50 462.00" xmlns="http://www.w3.org/2000/svg" xmlns:xlink="http://www.w3.org/1999/xlink">
<g id="graph0" class="graph" transform="scale(1 1) rotate(0) translate(4 458)">
<title>/home/runner/work/EX&#45;Display/EX&#45;Display/CallbackInterface.h</title>
<polygon fill="white" stroke="transparent" points="-4,4 -4,-458 2035.5,-458 2035.5,4 -4,4"/>
<!-- Node1 -->
<g id="node1" class="node">
<title>Node1</title>
<g id="a_node1"><a xlink:title=" ">
<polygon fill="#bfbfbf" stroke="black" points="937,-412.5 937,-453.5 1095,-453.5 1095,-412.5 937,-412.5"/>
<text text-anchor="start" x="945" y="-441.5" font-family="Helvetica,sans-Serif" font-size="10.00">/home/runner/work/EX</text>
<text text-anchor="start" x="945" y="-430.5" font-family="Helvetica,sans-Serif" font-size="10.00">&#45;Display/EX&#45;Display/Callback</text>
<text text-anchor="middle" x="1016" y="-419.5" font-family="Helvetica,sans-Serif" font-size="10.00">Interface.h</text>
</a>
</g>
</g>
<!-- Node2 -->
<g id="node2" class="node">
<title>Node2</title>
<g id="a_node2"><a xlink:href="AtFinder_8h.html" target="_top" xlink:title=" ">
<polygon fill="white" stroke="black" points="191,-189.5 191,-219.5 355,-219.5 355,-189.5 191,-189.5"/>
<text text-anchor="start" x="199" y="-207.5" font-family="Helvetica,sans-Serif" font-size="10.00">/home/runner/work/EX</text>
<text text-anchor="middle" x="273" y="-196.5" font-family="Helvetica,sans-Serif" font-size="10.00">&#45;Display/EX&#45;Display/AtFinder.h</text>
</a>
</g>
</g>
<!-- Node1&#45;&gt;Node2 -->
<g id="edge1" class="edge">
<title>Node1&#45;&gt;Node2</title>
<path fill="none" stroke="midnightblue" d="M926.74,-421.15C814.56,-405.54 617.52,-371.49 459,-309 395.74,-284.06 327.33,-241.5 293.85,-219.54"/>
<polygon fill="midnightblue" stroke="midnightblue" points="926.28,-424.62 936.66,-422.52 927.23,-417.69 926.28,-424.62"/>
</g>
<!-- Node10 -->
<g id="node10" class="node">
<title>Node10</title>
<g id="a_node10"><a xlink:href="Controller_8h.html" target="_top" xlink:title=" ">
<polygon fill="white" stroke="black" points="1373,-189.5 1373,-219.5 1545,-219.5 1545,-189.5 1373,-189.5"/>
<text text-anchor="start" x="1381" y="-207.5" font-family="Helvetica,sans-Serif" font-size="10.00">/home/runner/work/EX</text>
<text text-anchor="middle" x="1459" y="-196.5" font-family="Helvetica,sans-Serif" font-size="10.00">&#45;Display/EX&#45;Display/Controller.h</text>
</a>
</g>
</g>
<!-- Node1&#45;&gt;Node10 -->
<g id="edge9" class="edge">
<title>Node1&#45;&gt;Node10</title>
<path fill="none" stroke="midnightblue" d="M1105.44,-416.5C1182.81,-399.78 1294.85,-367.33 1377,-309 1394.85,-296.32 1431.71,-244.95 1449.28,-219.68"/>
<polygon fill="midnightblue" stroke="midnightblue" points="1104.3,-413.16 1095.24,-418.66 1105.75,-420.01 1104.3,-413.16"/>
</g>
<!-- Node17 -->
<g id="node17" class="node">
<title>Node17</title>
<g id="a_node17"><a xlink:href="InputInterface_8h.html" target="_top" xlink:title=" ">
<polygon fill="white" stroke="black" points="982.5,-345.5 982.5,-375.5 1175.5,-375.5 1175.5,-345.5 982.5,-345.5"/>
<text text-anchor="start" x="990.5" y="-363.5" font-family="Helvetica,sans-Serif" font-size="10.00">/home/runner/work/EX</text>
<text text-anchor="middle" x="1079" y="-352.5" font-family="Helvetica,sans-Serif" font-size="10.00">&#45;Display/EX&#45;Display/InputInterface.h</text>
</a>
</g>
</g>
<!-- Node1&#45;&gt;Node17 -->
<g id="edge20" class="edge">
<title>Node1&#45;&gt;Node17</title>
<path fill="none" stroke="midnightblue" d="M1040.37,-404.73C1049.16,-394.89 1058.72,-384.19 1066.14,-375.89"/>
<polygon fill="midnightblue" stroke="midnightblue" points="1037.6,-402.57 1033.55,-412.36 1042.82,-407.24 1037.6,-402.57"/>
</g>
<!-- Node19 -->
<g id="node19" class="node">
<title>Node19</title>
<g id="a_node19"><a xlink:href="InputManager_8h.html" target="_top" xlink:title=" ">
<polygon fill="white" stroke="black" points="1424.5,-273 1424.5,-303 1615.5,-303 1615.5,-273 1424.5,-273"/>
<text text-anchor="start" x="1432.5" y="-291" font-family="Helvetica,sans-Serif" font-size="10.00">/home/runner/work/EX</text>
<text text-anchor="middle" x="1520" y="-280" font-family="Helvetica,sans-Serif" font-size="10.00">&#45;Display/EX&#45;Display/InputManager.h</text>
</a>
</g>
</g>
<!-- Node1&#45;&gt;Node19 -->
<g id="edge41" class="edge">
<title>Node1&#45;&gt;Node19</title>
<path fill="none" stroke="midnightblue" d="M1105.22,-424.77C1204.12,-415.79 1356.75,-398.84 1410,-376 1450.05,-358.82 1487.88,-323.13 1507,-303.21"/>
<polygon fill="midnightblue" stroke="midnightblue" points="1104.87,-421.28 1095.22,-425.66 1105.49,-428.25 1104.87,-421.28"/>
</g>
<!-- Node22 -->
<g id="node22" class="node">
<title>Node22</title>
<g id="a_node22"><a xlink:href="MockButtonInput_8h.html" target="_top" xlink:title=" ">
<polygon fill="white" stroke="black" points="652.5,-267.5 652.5,-308.5 799.5,-308.5 799.5,-267.5 652.5,-267.5"/>
<text text-anchor="start" x="660.5" y="-296.5" font-family="Helvetica,sans-Serif" font-size="10.00">/home/runner/work/EX</text>
<text text-anchor="start" x="660.5" y="-285.5" font-family="Helvetica,sans-Serif" font-size="10.00">&#45;Display/EX&#45;Display/test</text>
<text text-anchor="middle" x="726" y="-274.5" font-family="Helvetica,sans-Serif" font-size="10.00">/mocks/MockButtonInput.h</text>
</a>
</g>
</g>
<!-- Node1&#45;&gt;Node22 -->
<g id="edge42" class="edge">
<title>Node1&#45;&gt;Node22</title>
<path fill="none" stroke="midnightblue" d="M967.17,-407.92C910.5,-379.98 818.15,-334.44 765.7,-308.58"/>
<polygon fill="midnightblue" stroke="midnightblue" points="965.77,-411.13 976.28,-412.42 968.86,-404.85 965.77,-411.13"/>
</g>
<!-- Node26 -->
<g id="node26" class="node">
<title>Node26</title>
<g id="a_node26"><a xlink:href="MockTouchScreenInput_8h.html" target="_top" xlink:title=" ">
<polygon fill="white" stroke="black" points="818,-267.5 818,-308.5 994,-308.5 994,-267.5 818,-267.5"/>
<text text-anchor="start" x="826" y="-296.5" font-family="Helvetica,sans-Serif" font-size="10.00">/home/runner/work/EX</text>
<text text-anchor="start" x="826" y="-285.5" font-family="Helvetica,sans-Serif" font-size="10.00">&#45;Display/EX&#45;Display/test</text>
<text text-anchor="middle" x="906" y="-274.5" font-family="Helvetica,sans-Serif" font-size="10.00">/mocks/MockTouchScreenInput.h</text>
</a>
</g>
</g>
<!-- Node1&#45;&gt;Node26 -->
<g id="edge50" class="edge">
<title>Node1&#45;&gt;Node26</title>
<path fill="none" stroke="midnightblue" d="M994.63,-404.22C973.06,-376.18 940.3,-333.59 921.24,-308.81"/>
<polygon fill="midnightblue" stroke="midnightblue" points="992.06,-406.62 1000.94,-412.42 997.61,-402.36 992.06,-406.62"/>
</g>
<!-- Node29 -->
<g id="node29" class="node">
<title>Node29</title>
<g id="a_node29"><a xlink:href="TFT__eSPITouch_8cpp.html" target="_top" xlink:title=" ">
<polygon fill="white" stroke="black" points="1898.5,-184 1898.5,-225 2031.5,-225 2031.5,-184 1898.5,-184"/>
<text text-anchor="start" x="1906.5" y="-213" font-family="Helvetica,sans-Serif" font-size="10.00">/home/runner/work/EX</text>
<text text-anchor="start" x="1906.5" y="-202" font-family="Helvetica,sans-Serif" font-size="10.00">&#45;Display/EX&#45;Display/TFT</text>
<text text-anchor="middle" x="1965" y="-191" font-family="Helvetica,sans-Serif" font-size="10.00">_eSPITouch.cpp</text>
</a>
</g>
</g>
<!-- Node1&#45;&gt;Node29 -->
<g id="edge51" class="edge">
<title>Node1&#45;&gt;Node29</title>
<path fill="none" stroke="midnightblue" d="M1105.14,-425.84C1293.06,-411.74 1723.31,-373.3 1854,-309 1894.66,-288.99 1930.79,-249.15 1950.12,-225.16"/>
<polygon fill="midnightblue" stroke="midnightblue" points="1104.73,-422.36 1095.02,-426.59 1105.25,-429.34 1104.73,-422.36"/>
</g>
<!-- Node30 -->
<g id="node30" class="node">
<title>Node30</title>
<g id="a_node30"><a xlink:href="MockCallback_8h.html" target="_top" xlink:title=" ">
<polygon fill="white" stroke="black" points="468,-267.5 468,-308.5 602,-308.5 602,-267.5 468,-267.5"/>
<text text-anchor="start" x="476" y="-296.5" font-family="Helvetica,sans-Serif" font-size="10.00">/home/runner/work/EX</text>
<text text-anchor="start" x="476" y="-285.5" font-family="Helvetica,sans-Serif" font-size="10.00">&#45;Display/EX&#45;Display/test</text>
<text text-anchor="middle" x="535" y="-274.5" font-family="Helvetica,sans-Serif" font-size="10.00">/mocks/MockCallback.h</text>
</a>
</g>
</g>
<!-- Node1&#45;&gt;Node30 -->
<g id="edge43" class="edge">
<title>Node1&#45;&gt;Node30</title>
<path fill="none" stroke="midnightblue" d="M940.71,-409.62C847.36,-381.86 689.72,-335 600.92,-308.6"/>
<polygon fill="midnightblue" stroke="midnightblue" points="939.8,-413 950.38,-412.49 941.79,-406.29 939.8,-413"/>
</g>
<!-- Node3 -->
<g id="node3" class="node">
<title>Node3</title>
<g id="a_node3"><a xlink:href="AtFinder_8cpp.html" target="_top" xlink:title=" ">
<polygon fill="white" stroke="black" points="190,-100.5 190,-130.5 366,-130.5 366,-100.5 190,-100.5"/>
<text text-anchor="start" x="198" y="-118.5" font-family="Helvetica,sans-Serif" font-size="10.00">/home/runner/work/EX</text>
<text text-anchor="middle" x="278" y="-107.5" font-family="Helvetica,sans-Serif" font-size="10.00">&#45;Display/EX&#45;Display/AtFinder.cpp</text>
</a>
</g>
</g>
<!-- Node2&#45;&gt;Node3 -->
<g id="edge2" class="edge">
<title>Node2&#45;&gt;Node3</title>
<path fill="none" stroke="midnightblue" d="M274.4,-179.09C275.3,-163.44 276.44,-143.68 277.19,-130.6"/>
<polygon fill="midnightblue" stroke="midnightblue" points="270.91,-178.95 273.83,-189.13 277.89,-179.35 270.91,-178.95"/>
</g>
<!-- Node4 -->
<g id="node4" class="node">
<title>Node4</title>
<g id="a_node4"><a xlink:href="Configurator_8cpp.html" target="_top" xlink:title=" ">
<polygon fill="white" stroke="black" points="793.5,-11.5 793.5,-41.5 988.5,-41.5 988.5,-11.5 793.5,-11.5"/>
<text text-anchor="start" x="801.5" y="-29.5" font-family="Helvetica,sans-Serif" font-size="10.00">/home/runner/work/EX</text>
<text text-anchor="middle" x="891" y="-18.5" font-family="Helvetica,sans-Serif" font-size="10.00">&#45;Display/EX&#45;Display/Configurator.cpp</text>
</a>
</g>
</g>
<!-- Node2&#45;&gt;Node4 -->
<g id="edge3" class="edge">
<title>Node2&#45;&gt;Node4</title>
<path fill="none" stroke="midnightblue" d="M227.42,-184.68C209.58,-174.79 191.02,-160.76 181,-142 169.9,-121.22 165.08,-106.36 181,-89 221.56,-44.78 608.38,-32.26 793.37,-28.79"/>
<polygon fill="midnightblue" stroke="midnightblue" points="226.15,-187.97 236.63,-189.48 229.38,-181.76 226.15,-187.97"/>
</g>
<!-- Node5 -->
<g id="node5" class="node">
<title>Node5</title>
<g id="a_node5"><a xlink:href="Controller_8cpp.html" target="_top" xlink:title=" ">
<polygon fill="white" stroke="black" points="580.5,-100.5 580.5,-130.5 763.5,-130.5 763.5,-100.5 580.5,-100.5"/>
<text text-anchor="start" x="588.5" y="-118.5" font-family="Helvetica,sans-Serif" font-size="10.00">/home/runner/work/EX</text>
<text text-anchor="middle" x="672" y="-107.5" font-family="Helvetica,sans-Serif" font-size="10.00">&#45;Display/EX&#45;Display/Controller.cpp</text>
</a>
</g>
</g>
<!-- Node2&#45;&gt;Node5 -->
<g id="edge4" class="edge">
<title>Node2&#45;&gt;Node5</title>
<path fill="none" stroke="midnightblue" d="M355.62,-187.46C415.55,-175.58 498.48,-158.63 571,-142 586.42,-138.46 603.1,-134.36 618.38,-130.5"/>
<polygon fill="midnightblue" stroke="midnightblue" points="354.58,-184.1 345.45,-189.47 355.94,-190.96 354.58,-184.1"/>
</g>
<!-- Node6 -->
<g id="node6" class="node">
<title>Node6</title>
<g id="a_node6"><a xlink:href="test__ControllerDisplayUpdate_8cpp.html" target="_top" xlink:title=" ">
<polygon fill="white" stroke="black" points="782,-89.5 782,-141.5 966,-141.5 966,-89.5 782,-89.5"/>
<text text-anchor="start" x="790" y="-129.5" font-family="Helvetica,sans-Serif" font-size="10.00">/home/runner/work/EX</text>
<text text-anchor="start" x="790" y="-118.5" font-family="Helvetica,sans-Serif" font-size="10.00">&#45;Display/EX&#45;Display/test</text>
<text text-anchor="start" x="790" y="-107.5" font-family="Helvetica,sans-Serif" font-size="10.00">/integration/test_controller</text>
<text text-anchor="middle" x="874" y="-96.5" font-family="Helvetica,sans-Serif" font-size="10.00">/test_ControllerDisplayUpdate.cpp</text>
</a>
</g>
</g>
<!-- Node2&#45;&gt;Node6 -->
<g id="edge5" class="edge">
<title>Node2&#45;&gt;Node6</title>
<path fill="none" stroke="midnightblue" d="M350.16,-187.59C368.72,-184.11 388.52,-180.66 407,-178 568.34,-154.74 611.39,-169.84 772,-142 775.24,-141.44 778.52,-140.83 781.84,-140.18"/>
<polygon fill="midnightblue" stroke="midnightblue" points="349.45,-184.16 340.28,-189.47 350.76,-191.04 349.45,-184.16"/>
</g>
<!-- Node7 -->
<g id="node7" class="node">
<title>Node7</title>
<g id="a_node7"><a xlink:href="test__AtFinder__Logger_8cpp.html" target="_top" xlink:title=" ">
<polygon fill="white" stroke="black" points="384,-89.5 384,-141.5 562,-141.5 562,-89.5 384,-89.5"/>
<text text-anchor="start" x="392" y="-129.5" font-family="Helvetica,sans-Serif" font-size="10.00">/home/runner/work/EX</text>
<text text-anchor="start" x="392" y="-118.5" font-family="Helvetica,sans-Serif" font-size="10.00">&#45;Display/EX&#45;Display/test</text>
<text text-anchor="start" x="392" y="-107.5" font-family="Helvetica,sans-Serif" font-size="10.00">/integration/test_interactive</text>
<text text-anchor="middle" x="473" y="-96.5" font-family="Helvetica,sans-Serif" font-size="10.00">_logger/test_AtFinder_Logger.cpp</text>
</a>
</g>
</g>
<!-- Node2&#45;&gt;Node7 -->
<g id="edge6" class="edge">
<title>Node2&#45;&gt;Node7</title>
<path fill="none" stroke="midnightblue" d="M315.05,-185.21C344.19,-172.53 383.35,-155.5 415.38,-141.56"/>
<polygon fill="midnightblue" stroke="midnightblue" points="313.35,-182.13 305.58,-189.33 316.14,-188.55 313.35,-182.13"/>
</g>
<!-- Node8 -->
<g id="node8" class="node">
<title>Node8</title>
<g id="a_node8"><a xlink:href="test__Controller_8cpp.html" target="_top" xlink:title=" ">
<polygon fill="white" stroke="black" points="984.5,-89.5 984.5,-141.5 1125.5,-141.5 1125.5,-89.5 984.5,-89.5"/>
<text text-anchor="start" x="992.5" y="-129.5" font-family="Helvetica,sans-Serif" font-size="10.00">/home/runner/work/EX</text>
<text text-anchor="start" x="992.5" y="-118.5" font-family="Helvetica,sans-Serif" font-size="10.00">&#45;Display/EX&#45;Display/test</text>
<text text-anchor="start" x="992.5" y="-107.5" font-family="Helvetica,sans-Serif" font-size="10.00">/unit/test_application/test</text>
<text text-anchor="middle" x="1055" y="-96.5" font-family="Helvetica,sans-Serif" font-size="10.00">_Controller.cpp</text>
</a>
</g>
</g>
<!-- Node2&#45;&gt;Node8 -->
<g id="edge7" class="edge">
<title>Node2&#45;&gt;Node8</title>
<path fill="none" stroke="midnightblue" d="M347.74,-187.57C366.97,-183.94 387.69,-180.44 407,-178 657.96,-146.29 726.41,-188.76 975,-142 978.01,-141.43 981.06,-140.79 984.13,-140.08"/>
<polygon fill="midnightblue" stroke="midnightblue" points="346.99,-184.15 337.83,-189.47 348.31,-191.02 346.99,-184.15"/>
</g>
<!-- Node9 -->
<g id="node9" class="node">
<title>Node9</title>
<g id="a_node9"><a xlink:href="test__AtFinder_8cpp.html" target="_top" xlink:title=" ">
<polygon fill="white" stroke="black" points="0,-89.5 0,-141.5 134,-141.5 134,-89.5 0,-89.5"/>
<text text-anchor="start" x="8" y="-129.5" font-family="Helvetica,sans-Serif" font-size="10.00">/home/runner/work/EX</text>
<text text-anchor="start" x="8" y="-118.5" font-family="Helvetica,sans-Serif" font-size="10.00">&#45;Display/EX&#45;Display/test</text>
<text text-anchor="start" x="8" y="-107.5" font-family="Helvetica,sans-Serif" font-size="10.00">/unit/test_infrastructure</text>
<text text-anchor="middle" x="67" y="-96.5" font-family="Helvetica,sans-Serif" font-size="10.00">/test_AtFinder.cpp</text>
</a>
</g>
</g>
<!-- Node2&#45;&gt;Node9 -->
<g id="edge8" class="edge">
<title>Node2&#45;&gt;Node9</title>
<path fill="none" stroke="midnightblue" d="M230.08,-185.37C200.03,-172.68 159.49,-155.56 126.35,-141.56"/>
<polygon fill="midnightblue" stroke="midnightblue" points="228.87,-188.66 239.44,-189.33 231.59,-182.21 228.87,-188.66"/>
</g>
<!-- Node10&#45;&gt;Node5 -->
<g id="edge14" class="edge">
<title>Node10&#45;&gt;Node5</title>
<path fill="none" stroke="midnightblue" d="M1384.26,-187.59C1365.02,-183.96 1344.3,-180.46 1325,-178 1081.11,-146.96 1015.86,-180.25 773,-142 755.58,-139.26 736.78,-134.9 720.18,-130.57"/>
<polygon fill="midnightblue" stroke="midnightblue" points="1383.69,-191.05 1394.17,-189.5 1385.01,-184.17 1383.69,-191.05"/>
</g>
<!-- Node10&#45;&gt;Node6 -->
<g id="edge15" class="edge">
<title>Node10&#45;&gt;Node6</title>
<path fill="none" stroke="midnightblue" d="M1381.54,-187.59C1363.06,-184.12 1343.37,-180.69 1325,-178 1170.27,-155.36 1128.99,-169.21 975,-142 972.06,-141.48 969.08,-140.92 966.08,-140.33"/>
<polygon fill="midnightblue" stroke="midnightblue" points="1380.89,-191.03 1391.36,-189.46 1382.2,-184.15 1380.89,-191.03"/>
</g>
<!-- Node10&#45;&gt;Node8 -->
<g id="edge19" class="edge">
<title>Node10&#45;&gt;Node8</title>
<path fill="none" stroke="midnightblue" d="M1397.54,-186.9C1384.85,-183.73 1371.53,-180.6 1359,-178 1260.27,-157.52 1233.09,-165.38 1135,-142 1131.88,-141.26 1128.71,-140.45 1125.51,-139.6"/>
<polygon fill="midnightblue" stroke="midnightblue" points="1397.01,-190.37 1407.56,-189.44 1398.73,-183.59 1397.01,-190.37"/>
</g>
<!-- Node11 -->
<g id="node11" class="node">
<title>Node11</title>
<g id="a_node11"><a xlink:href="Configurator_8h.html" target="_top" xlink:title=" ">
<polygon fill="white" stroke="black" points="1709,-100.5 1709,-130.5 1893,-130.5 1893,-100.5 1709,-100.5"/>
<text text-anchor="start" x="1717" y="-118.5" font-family="Helvetica,sans-Serif" font-size="10.00">/home/runner/work/EX</text>
<text text-anchor="middle" x="1801" y="-107.5" font-family="Helvetica,sans-Serif" font-size="10.00">&#45;Display/EX&#45;Display/Configurator.h</text>
</a>
</g>
</g>
<!-- Node10&#45;&gt;Node11 -->
<g id="edge10" class="edge">
<title>Node10&#45;&gt;Node11</title>
<path fill="none" stroke="midnightblue" d="M1524.34,-186.88C1588.5,-170.56 1685.31,-145.93 1745.75,-130.55"/>
<polygon fill="midnightblue" stroke="midnightblue" points="1523.16,-183.57 1514.33,-189.43 1524.88,-190.35 1523.16,-183.57"/>
</g>
<!-- Node14 -->
<g id="node14" class="node">
<title>Node14</title>
<g id="a_node14"><a xlink:href="test__ControllerInputAction_8cpp.html" target="_top" xlink:title=" ">
<polygon fill="white" stroke="black" points="1523.5,-89.5 1523.5,-141.5 1690.5,-141.5 1690.5,-89.5 1523.5,-89.5"/>
<text text-anchor="start" x="1531.5" y="-129.5" font-family="Helvetica,sans-Serif" font-size="10.00">/home/runner/work/EX</text>
<text text-anchor="start" x="1531.5" y="-118.5" font-family="Helvetica,sans-Serif" font-size="10.00">&#45;Display/EX&#45;Display/test</text>
<text text-anchor="start" x="1531.5" y="-107.5" font-family="Helvetica,sans-Serif" font-size="10.00">/integration/test_controller</text>
<text text-anchor="middle" x="1607" y="-96.5" font-family="Helvetica,sans-Serif" font-size="10.00">/test_ControllerInputAction.cpp</text>
</a>
</g>
</g>
<!-- Node10&#45;&gt;Node14 -->
<g id="edge16" class="edge">
<title>Node10&#45;&gt;Node14</title>
<path fill="none" stroke="midnightblue" d="M1491.82,-184.21C1513.19,-171.65 1541.27,-155.14 1564.36,-141.56"/>
<polygon fill="midnightblue" stroke="midnightblue" points="1489.96,-181.24 1483.11,-189.33 1493.5,-187.28 1489.96,-181.24"/>
</g>
<!-- Node15 -->
<g id="node15" class="node">
<title>Node15</title>
<g id="a_node15"><a xlink:href="test__ControllerScreenCreation_8cpp.html" target="_top" xlink:title=" ">
<polygon fill="white" stroke="black" points="1144,-89.5 1144,-141.5 1330,-141.5 1330,-89.5 1144,-89.5"/>
<text text-anchor="start" x="1152" y="-129.5" font-family="Helvetica,sans-Serif" font-size="10.00">/home/runner/work/EX</text>
<text text-anchor="start" x="1152" y="-118.5" font-family="Helvetica,sans-Serif" font-size="10.00">&#45;Display/EX&#45;Display/test</text>
<text text-anchor="start" x="1152" y="-107.5" font-family="Helvetica,sans-Serif" font-size="10.00">/integration/test_controller</text>
<text text-anchor="middle" x="1237" y="-96.5" font-family="Helvetica,sans-Serif" font-size="10.00">/test_ControllerScreenCreation.cpp</text>
</a>
</g>
</g>
<!-- Node10&#45;&gt;Node15 -->
<g id="edge17" class="edge">
<title>Node10&#45;&gt;Node15</title>
<path fill="none" stroke="midnightblue" d="M1413.16,-185.54C1380.74,-172.83 1336.83,-155.62 1300.96,-141.56"/>
<polygon fill="midnightblue" stroke="midnightblue" points="1412.25,-188.94 1422.84,-189.33 1414.8,-182.42 1412.25,-188.94"/>
</g>
<!-- Node16 -->
<g id="node16" class="node">
<title>Node16</title>
<g id="a_node16"><a xlink:href="test__ValidDisplayScreen_8cpp.html" target="_top" xlink:title=" ">
<polygon fill="white" stroke="black" points="1348,-89.5 1348,-141.5 1506,-141.5 1506,-89.5 1348,-89.5"/>
<text text-anchor="start" x="1356" y="-129.5" font-family="Helvetica,sans-Serif" font-size="10.00">/home/runner/work/EX</text>
<text text-anchor="start" x="1356" y="-118.5" font-family="Helvetica,sans-Serif" font-size="10.00">&#45;Display/EX&#45;Display/test</text>
<text text-anchor="start" x="1356" y="-107.5" font-family="Helvetica,sans-Serif" font-size="10.00">/integration/test_display</text>
<text text-anchor="middle" x="1427" y="-96.5" font-family="Helvetica,sans-Serif" font-size="10.00">/test_ValidDisplayScreen.cpp</text>
</a>
</g>
</g>
<!-- Node10&#45;&gt;Node16 -->
<g id="edge18" class="edge">
<title>Node10&#45;&gt;Node16</title>
<path fill="none" stroke="midnightblue" d="M1450.19,-179.56C1445.88,-167.83 1440.68,-153.71 1436.31,-141.8"/>
<polygon fill="midnightblue" stroke="midnightblue" points="1446.98,-180.96 1453.72,-189.13 1453.55,-178.54 1446.98,-180.96"/>
</g>
<!-- Node11&#45;&gt;Node4 -->
<g id="edge11" class="edge">
<title>Node11&#45;&gt;Node4</title>
<path fill="none" stroke="midnightblue" d="M1742.05,-97.97C1728.03,-94.54 1713.06,-91.28 1699,-89 1444.86,-47.86 1141.17,-34.11 988.64,-29.62"/>
<polygon fill="midnightblue" stroke="midnightblue" points="1741.51,-101.44 1752.06,-100.48 1743.22,-94.65 1741.51,-101.44"/>
</g>
<!-- Node12 -->
<g id="node12" class="node">
<title>Node12</title>
<g id="a_node12"><a xlink:href="EX-Display_8ino.html" target="_top" xlink:title=" ">
<polygon fill="white" stroke="black" points="1660,-6 1660,-47 1788,-47 1788,-6 1660,-6"/>
<text text-anchor="start" x="1668" y="-35" font-family="Helvetica,sans-Serif" font-size="10.00">/home/runner/work/EX</text>
<text text-anchor="start" x="1668" y="-24" font-family="Helvetica,sans-Serif" font-size="10.00">&#45;Display/EX&#45;Display/EX</text>
<text text-anchor="middle" x="1724" y="-13" font-family="Helvetica,sans-Serif" font-size="10.00">&#45;Display.ino</text>
</a>
</g>
</g>
<!-- Node11&#45;&gt;Node12 -->
<g id="edge12" class="edge">
<title>Node11&#45;&gt;Node12</title>
<path fill="none" stroke="midnightblue" d="M1781.46,-92.43C1769.1,-78.46 1753.26,-60.56 1741.35,-47.1"/>
<polygon fill="midnightblue" stroke="midnightblue" points="1779.04,-94.97 1788.29,-100.13 1784.28,-90.33 1779.04,-94.97"/>
</g>
<!-- Node13 -->
<g id="node13" class="node">
<title>Node13</title>
<g id="a_node13"><a xlink:href="test__Configurator_8cpp.html" target="_top" xlink:title=" ">
<polygon fill="white" stroke="black" points="1806.5,-0.5 1806.5,-52.5 1947.5,-52.5 1947.5,-0.5 1806.5,-0.5"/>
<text text-anchor="start" x="1814.5" y="-40.5" font-family="Helvetica,sans-Serif" font-size="10.00">/home/runner/work/EX</text>
<text text-anchor="start" x="1814.5" y="-29.5" font-family="Helvetica,sans-Serif" font-size="10.00">&#45;Display/EX&#45;Display/test</text>
<text text-anchor="start" x="1814.5" y="-18.5" font-family="Helvetica,sans-Serif" font-size="10.00">/unit/test_application/test</text>
<text text-anchor="middle" x="1877" y="-7.5" font-family="Helvetica,sans-Serif" font-size="10.00">_Configurator.cpp</text>
</a>
</g>
</g>
<!-- Node11&#45;&gt;Node13 -->
<g id="edge13" class="edge">
<title>Node11&#45;&gt;Node13</title>
<path fill="none" stroke="midnightblue" d="M1820.38,-92.32C1830.91,-80.26 1843.97,-65.31 1854.9,-52.8"/>
<polygon fill="midnightblue" stroke="midnightblue" points="1817.49,-90.3 1813.55,-100.13 1822.76,-94.91 1817.49,-90.3"/>
</g>
<!-- Node18 -->
<g id="node18" class="node">
<title>Node18</title>
<g id="a_node18"><a xlink:href="InputInterface_8cpp.html" target="_top" xlink:title=" ">
<polygon fill="white" stroke="black" points="1164,-273 1164,-303 1368,-303 1368,-273 1164,-273"/>
<text text-anchor="start" x="1172" y="-291" font-family="Helvetica,sans-Serif" font-size="10.00">/home/runner/work/EX</text>
<text text-anchor="middle" x="1266" y="-280" font-family="Helvetica,sans-Serif" font-size="10.00">&#45;Display/EX&#45;Display/InputInterface.cpp</text>
</a>
</g>
</g>
<!-- Node17&#45;&gt;Node18 -->
<g id="edge21" class="edge">
<title>Node17&#45;&gt;Node18</title>
<path fill="none" stroke="midnightblue" d="M1125.92,-341.81C1157.71,-329.83 1199.13,-314.21 1228.67,-303.07"/>
<polygon fill="midnightblue" stroke="midnightblue" points="1124.52,-338.6 1116.39,-345.4 1126.98,-345.15 1124.52,-338.6"/>
</g>
<!-- Node17&#45;&gt;Node19 -->
<g id="edge22" class="edge">
<title>Node17&#45;&gt;Node19</title>
<path fill="none" stroke="midnightblue" d="M1176.76,-343.87C1253.16,-331.66 1358.39,-314.84 1432.13,-303.05"/>
<polygon fill="midnightblue" stroke="midnightblue" points="1175.98,-340.45 1166.65,-345.49 1177.08,-347.36 1175.98,-340.45"/>
</g>
<!-- Node17&#45;&gt;Node22 -->
<g id="edge29" class="edge">
<title>Node17&#45;&gt;Node22</title>
<path fill="none" stroke="midnightblue" d="M987.9,-343.67C935.45,-334.25 868.36,-321.69 809,-309 805.96,-308.35 802.85,-307.67 799.72,-306.97"/>
<polygon fill="midnightblue" stroke="midnightblue" points="987.39,-347.13 997.85,-345.45 988.62,-340.24 987.39,-347.13"/>
</g>
<!-- Node24 -->
<g id="node24" class="node">
<title>Node24</title>
<g id="a_node24"><a xlink:href="MockInput_8h.html" target="_top" xlink:title=" ">
<polygon fill="white" stroke="black" points="1012,-267.5 1012,-308.5 1146,-308.5 1146,-267.5 1012,-267.5"/>
<text text-anchor="start" x="1020" y="-296.5" font-family="Helvetica,sans-Serif" font-size="10.00">/home/runner/work/EX</text>
<text text-anchor="start" x="1020" y="-285.5" font-family="Helvetica,sans-Serif" font-size="10.00">&#45;Display/EX&#45;Display/test</text>
<text text-anchor="middle" x="1079" y="-274.5" font-family="Helvetica,sans-Serif" font-size="10.00">/mocks/MockInput.h</text>
</a>
</g>
</g>
<!-- Node17&#45;&gt;Node24 -->
<g id="edge31" class="edge">
<title>Node17&#45;&gt;Node24</title>
<path fill="none" stroke="midnightblue" d="M1079,-334.98C1079,-326.35 1079,-316.76 1079,-308.59"/>
<polygon fill="midnightblue" stroke="midnightblue" points="1075.5,-335.23 1079,-345.23 1082.5,-335.23 1075.5,-335.23"/>
</g>
<!-- Node17&#45;&gt;Node26 -->
<g id="edge36" class="edge">
<title>Node17&#45;&gt;Node26</title>
<path fill="none" stroke="midnightblue" d="M1034.91,-341.53C1010.18,-331.45 979.3,-318.87 953.96,-308.55"/>
<polygon fill="midnightblue" stroke="midnightblue" points="1033.83,-344.87 1044.41,-345.4 1036.47,-338.39 1033.83,-344.87"/>
</g>
<!-- Node28 -->
<g id="node28" class="node">
<title>Node28</title>
<g id="a_node28"><a xlink:href="TFT__eSPITouch_8h.html" target="_top" xlink:title=" ">
<polygon fill="white" stroke="black" points="1712.5,-267.5 1712.5,-308.5 1845.5,-308.5 1845.5,-267.5 1712.5,-267.5"/>
<text text-anchor="start" x="1720.5" y="-296.5" font-family="Helvetica,sans-Serif" font-size="10.00">/home/runner/work/EX</text>
<text text-anchor="start" x="1720.5" y="-285.5" font-family="Helvetica,sans-Serif" font-size="10.00">&#45;Display/EX&#45;Display/TFT</text>
<text text-anchor="middle" x="1779" y="-274.5" font-family="Helvetica,sans-Serif" font-size="10.00">_eSPITouch.h</text>
</a>
</g>
</g>
<!-- Node17&#45;&gt;Node28 -->
<g id="edge38" class="edge">
<title>Node17&#45;&gt;Node28</title>
<path fill="none" stroke="midnightblue" d="M1185.69,-350.75C1295.64,-341.47 1471.97,-325.85 1624,-309 1652.99,-305.79 1684.97,-301.75 1712.31,-298.14"/>
<polygon fill="midnightblue" stroke="midnightblue" points="1185.26,-347.28 1175.59,-351.61 1185.84,-354.25 1185.26,-347.28"/>
</g>
<!-- Node19&#45;&gt;Node8 -->
<g id="edge27" class="edge">
<title>Node19&#45;&gt;Node8</title>
<path fill="none" stroke="midnightblue" d="M1445.15,-269.96C1417.84,-261.31 1387.84,-248.77 1364,-231 1340.55,-213.52 1349.75,-193.58 1325,-178 1252.26,-132.21 1218.32,-163.09 1135,-142 1131.89,-141.21 1128.73,-140.37 1125.54,-139.49"/>
<polygon fill="midnightblue" stroke="midnightblue" points="1444.49,-273.42 1455.08,-272.97 1446.52,-266.72 1444.49,-273.42"/>
</g>
<!-- Node19&#45;&gt;Node10 -->
<g id="edge24" class="edge">
<title>Node19&#45;&gt;Node10</title>
<path fill="none" stroke="midnightblue" d="M1503.11,-264.43C1492.34,-250.05 1478.74,-231.87 1469.5,-219.53"/>
<polygon fill="midnightblue" stroke="midnightblue" points="1500.58,-266.9 1509.37,-272.8 1506.18,-262.7 1500.58,-266.9"/>
</g>
<!-- Node19&#45;&gt;Node11 -->
<g id="edge23" class="edge">
<title>Node19&#45;&gt;Node11</title>
<path fill="none" stroke="midnightblue" d="M1553.92,-267.91C1571.2,-257.68 1592.26,-244.44 1610,-231 1637.83,-209.91 1638.92,-197.33 1668,-178 1697.87,-158.14 1735.18,-141.5 1762.68,-130.56"/>
<polygon fill="midnightblue" stroke="midnightblue" points="1552.12,-264.9 1545.26,-272.97 1555.66,-270.94 1552.12,-264.9"/>
</g>
<!-- Node19&#45;&gt;Node14 -->
<g id="edge26" class="edge">
<title>Node19&#45;&gt;Node14</title>
<path fill="none" stroke="midnightblue" d="M1552.41,-267.2C1565.14,-257.79 1578.67,-245.43 1587,-231 1602.95,-203.39 1606.83,-166.25 1607.46,-141.85"/>
<polygon fill="midnightblue" stroke="midnightblue" points="1550.39,-264.34 1544.22,-272.95 1554.42,-270.07 1550.39,-264.34"/>
</g>
<!-- Node20 -->
<g id="node20" class="node">
<title>Node20</title>
<g id="a_node20"><a xlink:href="InputManager_8cpp.html" target="_top" xlink:title=" ">
<polygon fill="white" stroke="black" points="1677.5,-189.5 1677.5,-219.5 1880.5,-219.5 1880.5,-189.5 1677.5,-189.5"/>
<text text-anchor="start" x="1685.5" y="-207.5" font-family="Helvetica,sans-Serif" font-size="10.00">/home/runner/work/EX</text>
<text text-anchor="middle" x="1779" y="-196.5" font-family="Helvetica,sans-Serif" font-size="10.00">&#45;Display/EX&#45;Display/InputManager.cpp</text>
</a>
</g>
</g>
<!-- Node19&#45;&gt;Node20 -->
<g id="edge25" class="edge">
<title>Node19&#45;&gt;Node20</title>
<path fill="none" stroke="midnightblue" d="M1574.32,-269.91C1621.76,-254.98 1689.8,-233.57 1734.19,-219.6"/>
<polygon fill="midnightblue" stroke="midnightblue" points="1573.01,-266.65 1564.52,-272.99 1575.11,-273.33 1573.01,-266.65"/>
</g>
<!-- Node21 -->
<g id="node21" class="node">
<title>Node21</title>
<g id="a_node21"><a xlink:href="test__InputManager_8cpp.html" target="_top" xlink:title=" ">
<polygon fill="white" stroke="black" points="1107.5,-184 1107.5,-225 1316.5,-225 1316.5,-184 1107.5,-184"/>
<text text-anchor="start" x="1115.5" y="-213" font-family="Helvetica,sans-Serif" font-size="10.00">/home/runner/work/EX</text>
<text text-anchor="start" x="1115.5" y="-202" font-family="Helvetica,sans-Serif" font-size="10.00">&#45;Display/EX&#45;Display/test</text>
<text text-anchor="middle" x="1212" y="-191" font-family="Helvetica,sans-Serif" font-size="10.00">/unit/test_inputs/test_InputManager.cpp</text>
</a>
</g>
</g>
<!-- Node19&#45;&gt;Node21 -->
<g id="edge28" class="edge">
<title>Node19&#45;&gt;Node21</title>
<path fill="none" stroke="midnightblue" d="M1457.09,-270.35C1407.45,-257.22 1338.11,-238.87 1285.85,-225.04"/>
<polygon fill="midnightblue" stroke="midnightblue" points="1456.49,-273.82 1467.05,-272.99 1458.28,-267.05 1456.49,-273.82"/>
</g>
<!-- Node23 -->
<g id="node23" class="node">
<title>Node23</title>
<g id="a_node23"><a xlink:href="test__DebounceHoldInput_8cpp.html" target="_top" xlink:title=" ">
<polygon fill="white" stroke="black" points="449.5,-178.5 449.5,-230.5 620.5,-230.5 620.5,-178.5 449.5,-178.5"/>
<text text-anchor="start" x="457.5" y="-218.5" font-family="Helvetica,sans-Serif" font-size="10.00">/home/runner/work/EX</text>
<text text-anchor="start" x="457.5" y="-207.5" font-family="Helvetica,sans-Serif" font-size="10.00">&#45;Display/EX&#45;Display/test</text>
<text text-anchor="start" x="457.5" y="-196.5" font-family="Helvetica,sans-Serif" font-size="10.00">/unit/test_inputs/test_Debounce</text>
<text text-anchor="middle" x="535" y="-185.5" font-family="Helvetica,sans-Serif" font-size="10.00">HoldInput.cpp</text>
</a>
</g>
</g>
<!-- Node22&#45;&gt;Node23 -->
<g id="edge30" class="edge">
<title>Node22&#45;&gt;Node23</title>
<path fill="none" stroke="midnightblue" d="M670.87,-263.48C646.71,-253.17 618.33,-241.06 593.77,-230.58"/>
<polygon fill="midnightblue" stroke="midnightblue" points="669.68,-266.77 680.25,-267.48 672.43,-260.33 669.68,-266.77"/>
</g>
<!-- Node24&#45;&gt;Node8 -->
<g id="edge33" class="edge">
<title>Node24&#45;&gt;Node8</title>
<path fill="none" stroke="midnightblue" d="M1074.79,-257.13C1070.18,-224.36 1062.86,-172.36 1058.54,-141.61"/>
<polygon fill="midnightblue" stroke="midnightblue" points="1071.39,-258.03 1076.25,-267.44 1078.32,-257.05 1071.39,-258.03"/>
</g>
<!-- Node24&#45;&gt;Node14 -->
<g id="edge32" class="edge">
<title>Node24&#45;&gt;Node14</title>
<path fill="none" stroke="midnightblue" d="M1156.09,-267.17C1258.34,-253.56 1483.63,-280.56 1554,-231 1569.45,-220.12 1588.14,-171.91 1598.69,-141.63"/>
<polygon fill="midnightblue" stroke="midnightblue" points="1155.35,-263.74 1146,-268.72 1156.42,-270.66 1155.35,-263.74"/>
</g>
<!-- Node24&#45;&gt;Node21 -->
<g id="edge35" class="edge">
<title>Node24&#45;&gt;Node21</title>
<path fill="none" stroke="midnightblue" d="M1119.49,-262.19C1138.88,-250.3 1161.78,-236.27 1179.94,-225.14"/>
<polygon fill="midnightblue" stroke="midnightblue" points="1117.55,-259.27 1110.86,-267.48 1121.21,-265.24 1117.55,-259.27"/>
</g>
<!-- Node25 -->
<g id="node25" class="node">
<title>Node25</title>
<g id="a_node25"><a xlink:href="test__InputInterface_8cpp.html" target="_top" xlink:title=" ">
<polygon fill="white" stroke="black" points="839.5,-184 839.5,-225 1050.5,-225 1050.5,-184 839.5,-184"/>
<text text-anchor="start" x="847.5" y="-213" font-family="Helvetica,sans-Serif" font-size="10.00">/home/runner/work/EX</text>
<text text-anchor="start" x="847.5" y="-202" font-family="Helvetica,sans-Serif" font-size="10.00">&#45;Display/EX&#45;Display/test</text>
<text text-anchor="middle" x="945" y="-191" font-family="Helvetica,sans-Serif" font-size="10.00">/unit/test_inputs/test_InputInterface.cpp</text>
</a>
</g>
</g>
<!-- Node24&#45;&gt;Node25 -->
<g id="edge34" class="edge">
<title>Node24&#45;&gt;Node25</title>
<path fill="none" stroke="midnightblue" d="M1038.2,-262.19C1018.67,-250.3 995.6,-236.27 977.3,-225.14"/>
<polygon fill="midnightblue" stroke="midnightblue" points="1036.54,-265.27 1046.9,-267.48 1040.18,-259.29 1036.54,-265.27"/>
</g>
<!-- Node27 -->
<g id="node27" class="node">
<title>Node27</title>
<g id="a_node27"><a xlink:href="test__TouchScreenInput_8cpp.html" target="_top" xlink:title=" ">
<polygon fill="white" stroke="black" points="638.5,-178.5 638.5,-230.5 821.5,-230.5 821.5,-178.5 638.5,-178.5"/>
<text text-anchor="start" x="646.5" y="-218.5" font-family="Helvetica,sans-Serif" font-size="10.00">/home/runner/work/EX</text>
<text text-anchor="start" x="646.5" y="-207.5" font-family="Helvetica,sans-Serif" font-size="10.00">&#45;Display/EX&#45;Display/test</text>
<text text-anchor="start" x="646.5" y="-196.5" font-family="Helvetica,sans-Serif" font-size="10.00">/unit/test_inputs/test_TouchScreen</text>
<text text-anchor="middle" x="730" y="-185.5" font-family="Helvetica,sans-Serif" font-size="10.00">Input.cpp</text>
</a>
</g>
</g>
<!-- Node26&#45;&gt;Node27 -->
<g id="edge37" class="edge">
<title>Node26&#45;&gt;Node27</title>
<path fill="none" stroke="midnightblue" d="M854.61,-263.2C832.48,-252.95 806.58,-240.96 784.15,-230.58"/>
<polygon fill="midnightblue" stroke="midnightblue" points="853.3,-266.45 863.84,-267.48 856.24,-260.1 853.3,-266.45"/>
</g>
<!-- Node28&#45;&gt;Node20 -->
<g id="edge39" class="edge">
<title>Node28&#45;&gt;Node20</title>
<path fill="none" stroke="midnightblue" d="M1779,-257.03C1779,-244.26 1779,-229.97 1779,-219.68"/>
<polygon fill="midnightblue" stroke="midnightblue" points="1775.5,-257.27 1779,-267.27 1782.5,-257.27 1775.5,-257.27"/>
</g>
<!-- Node28&#45;&gt;Node29 -->
<g id="edge40" class="edge">
<title>Node28&#45;&gt;Node29</title>
<path fill="none" stroke="midnightblue" d="M1832.75,-263.45C1860.57,-251.26 1894.14,-236.55 1920.49,-225"/>
<polygon fill="midnightblue" stroke="midnightblue" points="1831.31,-260.26 1823.55,-267.48 1834.12,-266.67 1831.31,-260.26"/>
</g>
<!-- Node30&#45;&gt;Node7 -->
<g id="edge44" class="edge">
<title>Node30&#45;&gt;Node7</title>
<path fill="none" stroke="midnightblue" d="M458.26,-269.88C438.22,-261.56 418.92,-249.23 407,-231 394.11,-211.29 397.6,-199.6 407,-178 413.12,-163.93 424.23,-151.61 435.61,-141.78"/>
<polygon fill="midnightblue" stroke="midnightblue" points="457.22,-273.23 467.81,-273.55 459.73,-266.7 457.22,-273.23"/>
</g>
<!-- Node30&#45;&gt;Node8 -->
<g id="edge45" class="edge">
<title>Node30&#45;&gt;Node8</title>
<path fill="none" stroke="midnightblue" d="M471.83,-262.23C459.12,-254.23 447.41,-243.97 440,-231 428.31,-210.55 423.91,-195.21 440,-178 480.69,-134.48 916.47,-153.13 975,-142 978.01,-141.43 981.06,-140.78 984.13,-140.07"/>
<polygon fill="midnightblue" stroke="midnightblue" points="470.34,-265.42 480.74,-267.42 473.86,-259.37 470.34,-265.42"/>
</g>
<!-- Node30&#45;&gt;Node9 -->
<g id="edge46" class="edge">
<title>Node30&#45;&gt;Node9</title>
<path fill="none" stroke="midnightblue" d="M457.72,-280.33C368.78,-271.69 228.94,-254.86 182,-231 140.56,-209.94 104.77,-168.46 84.55,-141.63"/>
<polygon fill="midnightblue" stroke="midnightblue" points="457.48,-283.83 467.76,-281.3 458.14,-276.86 457.48,-283.83"/>
</g>
<!-- Node30&#45;&gt;Node23 -->
<g id="edge47" class="edge">
<title>Node30&#45;&gt;Node23</title>
<path fill="none" stroke="midnightblue" d="M535,-257.12C535,-248.41 535,-238.99 535,-230.61"/>
<polygon fill="midnightblue" stroke="midnightblue" points="531.5,-257.27 535,-267.27 538.5,-257.27 531.5,-257.27"/>
</g>
<!-- Node30&#45;&gt;Node25 -->
<g id="edge48" class="edge">
<title>Node30&#45;&gt;Node25</title>
<path fill="none" stroke="midnightblue" d="M612.12,-272.64C685.1,-259 789.34,-239.37 830,-231 839.11,-229.12 848.62,-227.11 858.09,-225.07"/>
<polygon fill="midnightblue" stroke="midnightblue" points="611.23,-269.24 602.04,-274.52 612.52,-276.12 611.23,-269.24"/>
</g>
<!-- Node30&#45;&gt;Node27 -->
<g id="edge49" class="edge">
<title>Node30&#45;&gt;Node27</title>
<path fill="none" stroke="midnightblue" d="M590.96,-263.61C615.69,-253.28 644.82,-241.1 670,-230.58"/>
<polygon fill="midnightblue" stroke="midnightblue" points="589.58,-260.39 581.71,-267.48 592.28,-266.85 589.58,-260.39"/>
</g>
</g>
</svg>
