<?xml version="1.0" encoding="UTF-8" standalone="no"?>
<!DOCTYPE svg PUBLIC "-//W3C//DTD SVG 1.1//EN"
 "http://www.w3.org/Graphics/SVG/1.1/DTD/svg11.dtd">
<!-- Generated by graphviz version 2.43.0 (0)
 -->
<!-- Title: /home/runner/work/EX&#45;Display/EX&#45;Display/CallbackInterface.h Pages: 1 -->
<!--zoomable 451 -->
<svg id="main" version="1.1" xmlns="http://www.w3.org/2000/svg" xmlns:xlink="http://www.w3.org/1999/xlink" xml:space="preserve" onload="init(evt)">
<style type="text/css"><![CDATA[
.edge:hover path { stroke: red; }
.edge:hover polygon { stroke: red; fill: red; }
]]></style>
<script type="text/javascript"><![CDATA[
var edges = document.getElementsByTagName('g');
if (edges && edges.length) {
  for (var i=0;i<edges.length;i++) {
    if (edges[i].id.substr(0,4)=='edge') {
      edges[i].setAttribute('class','edge');
    }
  }
}
]]></script>
        <defs>
                <circle id="rim" cx="0" cy="0" r="7"/>
                <circle id="rim2" cx="0" cy="0" r="3.5"/>
                <g id="zoomPlus">
                        <use xlink:href="#rim" fill="#404040">
                                <set attributeName="fill" to="#808080" begin="zoomplus.mouseover" end="zoomplus.mouseout"/>
                        </use>
                        <path d="M-4,0h8M0,-4v8" fill="none" stroke="white" stroke-width="1.5" pointer-events="none"/>
                </g>
                <g id="zoomMin">
                        <use xlink:href="#rim" fill="#404040">
                                <set attributeName="fill" to="#808080" begin="zoomminus.mouseover" end="zoomminus.mouseout"/>
                        </use>
                        <path d="M-4,0h8" fill="none" stroke="white" stroke-width="1.5" pointer-events="none"/>
                </g>
                <g id="dirArrow">
                        <path fill="none" stroke="white" stroke-width="1.5" d="M0,-3.0v7 M-2.5,-0.5L0,-3.0L2.5,-0.5"/>
                </g>
               <g id="resetDef">
                       <use xlink:href="#rim2" fill="#404040">
                               <set attributeName="fill" to="#808080" begin="reset.mouseover" end="reset.mouseout"/>
                       </use>
               </g>
        </defs>

<script type="text/javascript">
var viewWidth = 2792;
var viewHeight = 451;
var sectionId = 'dynsection-1';
</script>
<script xlink:href="svgpan.js"/>
<svg id="graph" class="graph">
<g id="viewport">
<title>/home/runner/work/EX&#45;Display/EX&#45;Display/CallbackInterface.h</title>
<polygon fill="white" stroke="transparent" points="-4,4 -4,-447 2788,-447 2788,4 -4,4"/>
<!-- Node1 -->
<g id="node1" class="node">
<title>Node1</title>
<g id="a_node1"><a xlink:title=" ">
<polygon fill="#bfbfbf" stroke="black" points="1628,-401.5 1628,-442.5 1786,-442.5 1786,-401.5 1628,-401.5"/>
<text text-anchor="start" x="1636" y="-430.5" font-family="Helvetica,sans-Serif" font-size="10.00">/home/runner/work/EX</text>
<text text-anchor="start" x="1636" y="-419.5" font-family="Helvetica,sans-Serif" font-size="10.00">&#45;Display/EX&#45;Display/Callback</text>
<text text-anchor="middle" x="1707" y="-408.5" font-family="Helvetica,sans-Serif" font-size="10.00">Interface.h</text>
</a>
</g>
</g>
<!-- Node2 -->
<g id="node2" class="node">
<title>Node2</title>
<g id="a_node2"><a xlink:href="AtFinder_8h.html" target="_top" xlink:title=" ">
<polygon fill="white" stroke="black" points="996,-184 996,-214 1160,-214 1160,-184 996,-184"/>
<text text-anchor="start" x="1004" y="-202" font-family="Helvetica,sans-Serif" font-size="10.00">/home/runner/work/EX</text>
<text text-anchor="middle" x="1078" y="-191" font-family="Helvetica,sans-Serif" font-size="10.00">&#45;Display/EX&#45;Display/AtFinder.h</text>
</a>
</g>
</g>
<!-- Node1&#45;&gt;Node2 -->
<g id="edge1" class="edge">
<title>Node1&#45;&gt;Node2</title>
<path fill="none" stroke="midnightblue" d="M1642.01,-398.17C1512.18,-352.55 1224.12,-251.34 1118.14,-214.1"/>
<polygon fill="midnightblue" stroke="midnightblue" points="1640.86,-401.47 1651.46,-401.48 1643.18,-394.87 1640.86,-401.47"/>
</g>
<!-- Node10 -->
<g id="node10" class="node">
<title>Node10</title>
<g id="a_node10"><a xlink:href="Controller_8h.html" target="_top" xlink:title=" ">
<polygon fill="white" stroke="black" points="724,-184 724,-214 896,-214 896,-184 724,-184"/>
<text text-anchor="start" x="732" y="-202" font-family="Helvetica,sans-Serif" font-size="10.00">/home/runner/work/EX</text>
<text text-anchor="middle" x="810" y="-191" font-family="Helvetica,sans-Serif" font-size="10.00">&#45;Display/EX&#45;Display/Controller.h</text>
</a>
</g>
</g>
<!-- Node1&#45;&gt;Node10 -->
<g id="edge9" class="edge">
<title>Node1&#45;&gt;Node10</title>
<path fill="none" stroke="midnightblue" d="M1618.16,-401.98C1569.83,-391.45 1509.03,-377.91 1455,-365 1234.09,-312.21 972.29,-243.25 862.53,-214.04"/>
<polygon fill="midnightblue" stroke="midnightblue" points="1617.45,-405.41 1627.97,-404.11 1618.94,-398.57 1617.45,-405.41"/>
</g>
<!-- Node16 -->
<g id="node16" class="node">
<title>Node16</title>
<g id="a_node16"><a xlink:href="InputInterface_8h.html" target="_top" xlink:title=" ">
<polygon fill="white" stroke="black" points="1694.5,-334.5 1694.5,-364.5 1887.5,-364.5 1887.5,-334.5 1694.5,-334.5"/>
<text text-anchor="start" x="1702.5" y="-352.5" font-family="Helvetica,sans-Serif" font-size="10.00">/home/runner/work/EX</text>
<text text-anchor="middle" x="1791" y="-341.5" font-family="Helvetica,sans-Serif" font-size="10.00">&#45;Display/EX&#45;Display/InputInterface.h</text>
</a>
</g>
</g>
<!-- Node1&#45;&gt;Node16 -->
<g id="edge19" class="edge">
<title>Node1&#45;&gt;Node16</title>
<path fill="none" stroke="midnightblue" d="M1738.16,-394.84C1750.34,-384.62 1763.82,-373.31 1774.12,-364.67"/>
<polygon fill="midnightblue" stroke="midnightblue" points="1735.81,-392.25 1730.4,-401.36 1740.31,-397.61 1735.81,-392.25"/>
</g>
<!-- Node18 -->
<g id="node18" class="node">
<title>Node18</title>
<g id="a_node18"><a xlink:href="InputManager_8h.html" target="_top" xlink:title=" ">
<polygon fill="white" stroke="black" points="1372.5,-262 1372.5,-292 1563.5,-292 1563.5,-262 1372.5,-262"/>
<text text-anchor="start" x="1380.5" y="-280" font-family="Helvetica,sans-Serif" font-size="10.00">/home/runner/work/EX</text>
<text text-anchor="middle" x="1468" y="-269" font-family="Helvetica,sans-Serif" font-size="10.00">&#45;Display/EX&#45;Display/InputManager.h</text>
</a>
</g>
</g>
<!-- Node1&#45;&gt;Node18 -->
<g id="edge45" class="edge">
<title>Node1&#45;&gt;Node18</title>
<path fill="none" stroke="midnightblue" d="M1662.8,-396.16C1645.9,-386.55 1626.48,-375.39 1609,-365 1566.71,-339.88 1518.01,-309.5 1490.32,-292.1"/>
<polygon fill="midnightblue" stroke="midnightblue" points="1661.49,-399.44 1671.91,-401.33 1664.94,-393.35 1661.49,-399.44"/>
</g>
<!-- Node36 -->
<g id="node24" class="node">
<title>Node36</title>
<g id="a_node24"><a xlink:href="MockButtonInput_8h.html" target="_top" xlink:title=" ">
<polygon fill="white" stroke="black" points="2101.5,-256.5 2101.5,-297.5 2248.5,-297.5 2248.5,-256.5 2101.5,-256.5"/>
<text text-anchor="start" x="2109.5" y="-285.5" font-family="Helvetica,sans-Serif" font-size="10.00">/home/runner/work/EX</text>
<text text-anchor="start" x="2109.5" y="-274.5" font-family="Helvetica,sans-Serif" font-size="10.00">&#45;Display/EX&#45;Display/test</text>
<text text-anchor="middle" x="2175" y="-263.5" font-family="Helvetica,sans-Serif" font-size="10.00">/mocks/MockButtonInput.h</text>
</a>
</g>
</g>
<!-- Node1&#45;&gt;Node36 -->
<g id="edge46" class="edge">
<title>Node1&#45;&gt;Node36</title>
<path fill="none" stroke="midnightblue" d="M1796.3,-414.29C1892.19,-405.95 2037.44,-389.74 2087,-365 2118.52,-349.26 2145.77,-317.98 2161.29,-297.54"/>
<polygon fill="midnightblue" stroke="midnightblue" points="1795.98,-410.8 1786.32,-415.14 1796.58,-417.78 1795.98,-410.8"/>
</g>
<!-- Node40 -->
<g id="node28" class="node">
<title>Node40</title>
<g id="a_node28"><a xlink:href="MockTouchScreenInput_8h.html" target="_top" xlink:title=" ">
<polygon fill="white" stroke="black" points="2267,-256.5 2267,-297.5 2443,-297.5 2443,-256.5 2267,-256.5"/>
<text text-anchor="start" x="2275" y="-285.5" font-family="Helvetica,sans-Serif" font-size="10.00">/home/runner/work/EX</text>
<text text-anchor="start" x="2275" y="-274.5" font-family="Helvetica,sans-Serif" font-size="10.00">&#45;Display/EX&#45;Display/test</text>
<text text-anchor="middle" x="2355" y="-263.5" font-family="Helvetica,sans-Serif" font-size="10.00">/mocks/MockTouchScreenInput.h</text>
</a>
</g>
</g>
<!-- Node1&#45;&gt;Node40 -->
<g id="edge55" class="edge">
<title>Node1&#45;&gt;Node40</title>
<path fill="none" stroke="midnightblue" d="M1796.28,-414.67C1880.86,-407.33 2010.96,-392.54 2121,-365 2189.11,-347.96 2264.73,-317.64 2311.07,-297.68"/>
<polygon fill="midnightblue" stroke="midnightblue" points="1795.86,-411.19 1786.19,-415.53 1796.45,-418.17 1795.86,-411.19"/>
</g>
<!-- Node43 -->
<g id="node31" class="node">
<title>Node43</title>
<g id="a_node31"><a xlink:href="TFT__eSPITouch_8cpp.html" target="_top" xlink:title=" ">
<polygon fill="white" stroke="black" points="2271.5,-178.5 2271.5,-219.5 2404.5,-219.5 2404.5,-178.5 2271.5,-178.5"/>
<text text-anchor="start" x="2279.5" y="-207.5" font-family="Helvetica,sans-Serif" font-size="10.00">/home/runner/work/EX</text>
<text text-anchor="start" x="2279.5" y="-196.5" font-family="Helvetica,sans-Serif" font-size="10.00">&#45;Display/EX&#45;Display/TFT</text>
<text text-anchor="middle" x="2338" y="-185.5" font-family="Helvetica,sans-Serif" font-size="10.00">_eSPITouch.cpp</text>
</a>
</g>
</g>
<!-- Node1&#45;&gt;Node43 -->
<g id="edge56" class="edge">
<title>Node1&#45;&gt;Node43</title>
<path fill="none" stroke="midnightblue" d="M1790.46,-398.68C1823.87,-389.16 1862.54,-377.38 1897,-365 1968.4,-339.34 1991.94,-341.64 2054,-298 2074.84,-283.35 2070.84,-268.56 2093,-256 2160.19,-217.92 2187.89,-237.96 2263,-220 2265.75,-219.34 2268.56,-218.66 2271.39,-217.96"/>
<polygon fill="midnightblue" stroke="midnightblue" points="1789.4,-395.34 1780.73,-401.43 1791.3,-402.08 1789.4,-395.34"/>
</g>
<!-- Node44 -->
<g id="node32" class="node">
<title>Node44</title>
<g id="a_node32"><a xlink:href="MockCallback_8h.html" target="_top" xlink:title=" ">
<polygon fill="white" stroke="black" points="1710,-178.5 1710,-219.5 1844,-219.5 1844,-178.5 1710,-178.5"/>
<text text-anchor="start" x="1718" y="-207.5" font-family="Helvetica,sans-Serif" font-size="10.00">/home/runner/work/EX</text>
<text text-anchor="start" x="1718" y="-196.5" font-family="Helvetica,sans-Serif" font-size="10.00">&#45;Display/EX&#45;Display/test</text>
<text text-anchor="middle" x="1777" y="-185.5" font-family="Helvetica,sans-Serif" font-size="10.00">/mocks/MockCallback.h</text>
</a>
</g>
</g>
<!-- Node1&#45;&gt;Node44 -->
<g id="edge47" class="edge">
<title>Node1&#45;&gt;Node44</title>
<path fill="none" stroke="midnightblue" d="M1691.69,-392.4C1675.44,-357.8 1655.26,-298.85 1680,-256 1689.24,-240 1704.98,-228.17 1721.12,-219.61"/>
<polygon fill="midnightblue" stroke="midnightblue" points="1688.59,-394.04 1696.13,-401.49 1694.88,-390.96 1688.59,-394.04"/>
</g>
<!-- Node3 -->
<g id="node3" class="node">
<title>Node3</title>
<g id="a_node3"><a xlink:href="AtFinder_8cpp.html" target="_top" xlink:title=" ">
<polygon fill="white" stroke="black" points="856,-100.5 856,-130.5 1032,-130.5 1032,-100.5 856,-100.5"/>
<text text-anchor="start" x="864" y="-118.5" font-family="Helvetica,sans-Serif" font-size="10.00">/home/runner/work/EX</text>
<text text-anchor="middle" x="944" y="-107.5" font-family="Helvetica,sans-Serif" font-size="10.00">&#45;Display/EX&#45;Display/AtFinder.cpp</text>
</a>
</g>
</g>
<!-- Node2&#45;&gt;Node3 -->
<g id="edge2" class="edge">
<title>Node2&#45;&gt;Node3</title>
<path fill="none" stroke="midnightblue" d="M1046.12,-178.61C1021.85,-163.85 989,-143.87 967.18,-130.6"/>
<polygon fill="midnightblue" stroke="midnightblue" points="1044.6,-181.78 1054.96,-183.99 1048.24,-175.8 1044.6,-181.78"/>
</g>
<!-- Node4 -->
<g id="node4" class="node">
<title>Node4</title>
<g id="a_node4"><a xlink:href="Configurator_8cpp.html" target="_top" xlink:title=" ">
<polygon fill="white" stroke="black" points="962.5,-11.5 962.5,-41.5 1157.5,-41.5 1157.5,-11.5 962.5,-11.5"/>
<text text-anchor="start" x="970.5" y="-29.5" font-family="Helvetica,sans-Serif" font-size="10.00">/home/runner/work/EX</text>
<text text-anchor="middle" x="1060" y="-18.5" font-family="Helvetica,sans-Serif" font-size="10.00">&#45;Display/EX&#45;Display/Configurator.cpp</text>
</a>
</g>
</g>
<!-- Node2&#45;&gt;Node4 -->
<g id="edge3" class="edge">
<title>Node2&#45;&gt;Node4</title>
<path fill="none" stroke="midnightblue" d="M1075.42,-173.58C1071.6,-137.37 1064.55,-70.6 1061.49,-41.58"/>
<polygon fill="midnightblue" stroke="midnightblue" points="1071.97,-174.18 1076.5,-183.76 1078.93,-173.44 1071.97,-174.18"/>
</g>
<!-- Node5 -->
<g id="node5" class="node">
<title>Node5</title>
<g id="a_node5"><a xlink:href="Controller_8cpp.html" target="_top" xlink:title=" ">
<polygon fill="white" stroke="black" points="654.5,-100.5 654.5,-130.5 837.5,-130.5 837.5,-100.5 654.5,-100.5"/>
<text text-anchor="start" x="662.5" y="-118.5" font-family="Helvetica,sans-Serif" font-size="10.00">/home/runner/work/EX</text>
<text text-anchor="middle" x="746" y="-107.5" font-family="Helvetica,sans-Serif" font-size="10.00">&#45;Display/EX&#45;Display/Controller.cpp</text>
</a>
</g>
</g>
<!-- Node2&#45;&gt;Node5 -->
<g id="edge4" class="edge">
<title>Node2&#45;&gt;Node5</title>
<path fill="none" stroke="midnightblue" d="M1009.72,-181.63C963.71,-170.55 901.67,-155.53 847,-142 832.17,-138.33 816.12,-134.3 801.28,-130.56"/>
<polygon fill="midnightblue" stroke="midnightblue" points="1009.03,-185.06 1019.58,-184 1010.67,-178.26 1009.03,-185.06"/>
</g>
<!-- Node6 -->
<g id="node6" class="node">
<title>Node6</title>
<g id="a_node6"><a xlink:href="test__ControllerDisplayUpdate_8cpp.html" target="_top" xlink:title=" ">
<polygon fill="white" stroke="black" points="452,-89.5 452,-141.5 636,-141.5 636,-89.5 452,-89.5"/>
<text text-anchor="start" x="460" y="-129.5" font-family="Helvetica,sans-Serif" font-size="10.00">/home/runner/work/EX</text>
<text text-anchor="start" x="460" y="-118.5" font-family="Helvetica,sans-Serif" font-size="10.00">&#45;Display/EX&#45;Display/test</text>
<text text-anchor="start" x="460" y="-107.5" font-family="Helvetica,sans-Serif" font-size="10.00">/integration/test_Controller</text>
<text text-anchor="middle" x="544" y="-96.5" font-family="Helvetica,sans-Serif" font-size="10.00">/test_ControllerDisplayUpdate.cpp</text>
</a>
</g>
</g>
<!-- Node2&#45;&gt;Node6 -->
<g id="edge5" class="edge">
<title>Node2&#45;&gt;Node6</title>
<path fill="none" stroke="midnightblue" d="M985.69,-187.37C878.5,-174.79 708.3,-154.04 645,-142 642.07,-141.44 639.1,-140.85 636.1,-140.23"/>
<polygon fill="midnightblue" stroke="midnightblue" points="985.52,-190.87 995.86,-188.56 986.34,-183.92 985.52,-190.87"/>
</g>
<!-- Node7 -->
<g id="node7" class="node">
<title>Node7</title>
<g id="a_node7"><a xlink:href="test__AtFinder__Logger_8cpp.html" target="_top" xlink:title=" ">
<polygon fill="white" stroke="black" points="1730.5,-89.5 1730.5,-141.5 1915.5,-141.5 1915.5,-89.5 1730.5,-89.5"/>
<text text-anchor="start" x="1738.5" y="-129.5" font-family="Helvetica,sans-Serif" font-size="10.00">/home/runner/work/EX</text>
<text text-anchor="start" x="1738.5" y="-118.5" font-family="Helvetica,sans-Serif" font-size="10.00">&#45;Display/EX&#45;Display/test</text>
<text text-anchor="start" x="1738.5" y="-107.5" font-family="Helvetica,sans-Serif" font-size="10.00">/integration/test_InteractiveLogger</text>
<text text-anchor="middle" x="1823" y="-96.5" font-family="Helvetica,sans-Serif" font-size="10.00">/test_AtFinder_Logger.cpp</text>
</a>
</g>
</g>
<!-- Node2&#45;&gt;Node7 -->
<g id="edge6" class="edge">
<title>Node2&#45;&gt;Node7</title>
<path fill="none" stroke="midnightblue" d="M1170.24,-187.87C1201.57,-184.56 1236.8,-180.97 1269,-178 1469.67,-159.5 1522.12,-174.55 1721,-142 1724.06,-141.5 1727.17,-140.95 1730.3,-140.37"/>
<polygon fill="midnightblue" stroke="midnightblue" points="1169.79,-184.4 1160.22,-188.94 1170.53,-191.36 1169.79,-184.4"/>
</g>
<!-- Node8 -->
<g id="node8" class="node">
<title>Node8</title>
<g id="a_node8"><a xlink:href="test__Controller_8cpp.html" target="_top" xlink:title=" ">
<polygon fill="white" stroke="black" points="1272.5,-89.5 1272.5,-141.5 1407.5,-141.5 1407.5,-89.5 1272.5,-89.5"/>
<text text-anchor="start" x="1280.5" y="-129.5" font-family="Helvetica,sans-Serif" font-size="10.00">/home/runner/work/EX</text>
<text text-anchor="start" x="1280.5" y="-118.5" font-family="Helvetica,sans-Serif" font-size="10.00">&#45;Display/EX&#45;Display/test</text>
<text text-anchor="start" x="1280.5" y="-107.5" font-family="Helvetica,sans-Serif" font-size="10.00">/unit/test_Controller/test</text>
<text text-anchor="middle" x="1340" y="-96.5" font-family="Helvetica,sans-Serif" font-size="10.00">_Controller.cpp</text>
</a>
</g>
</g>
<!-- Node2&#45;&gt;Node8 -->
<g id="edge7" class="edge">
<title>Node2&#45;&gt;Node8</title>
<path fill="none" stroke="midnightblue" d="M1136.34,-180.95C1173.06,-170.08 1221.41,-155.55 1264,-142 1266.79,-141.11 1269.62,-140.2 1272.49,-139.27"/>
<polygon fill="midnightblue" stroke="midnightblue" points="1134.9,-177.72 1126.3,-183.91 1136.88,-184.43 1134.9,-177.72"/>
</g>
<!-- Node9 -->
<g id="node9" class="node">
<title>Node9</title>
<g id="a_node9"><a xlink:href="test__AtFinder_8cpp.html" target="_top" xlink:title=" ">
<polygon fill="white" stroke="black" points="1578,-89.5 1578,-141.5 1712,-141.5 1712,-89.5 1578,-89.5"/>
<text text-anchor="start" x="1586" y="-129.5" font-family="Helvetica,sans-Serif" font-size="10.00">/home/runner/work/EX</text>
<text text-anchor="start" x="1586" y="-118.5" font-family="Helvetica,sans-Serif" font-size="10.00">&#45;Display/EX&#45;Display/test</text>
<text text-anchor="start" x="1586" y="-107.5" font-family="Helvetica,sans-Serif" font-size="10.00">/unit/test_Infrastructure</text>
<text text-anchor="middle" x="1645" y="-96.5" font-family="Helvetica,sans-Serif" font-size="10.00">/test_AtFinder.cpp</text>
</a>
</g>
</g>
<!-- Node2&#45;&gt;Node9 -->
<g id="edge8" class="edge">
<title>Node2&#45;&gt;Node9</title>
<path fill="none" stroke="midnightblue" d="M1170.23,-187.99C1307.05,-173.06 1549.84,-146.26 1569,-142 1571.85,-141.37 1574.75,-140.66 1577.66,-139.91"/>
<polygon fill="midnightblue" stroke="midnightblue" points="1169.73,-184.52 1160.17,-189.08 1170.49,-191.48 1169.73,-184.52"/>
</g>
<!-- Node10&#45;&gt;Node5 -->
<g id="edge14" class="edge">
<title>Node10&#45;&gt;Node5</title>
<path fill="none" stroke="midnightblue" d="M792.59,-175.83C781.25,-161.39 766.8,-142.99 757.02,-130.53"/>
<polygon fill="midnightblue" stroke="midnightblue" points="789.92,-178.1 798.85,-183.8 795.43,-173.78 789.92,-178.1"/>
</g>
<!-- Node10&#45;&gt;Node6 -->
<g id="edge15" class="edge">
<title>Node10&#45;&gt;Node6</title>
<path fill="none" stroke="midnightblue" d="M754.59,-181.02C717.28,-169.59 667.44,-154.32 625.62,-141.51"/>
<polygon fill="midnightblue" stroke="midnightblue" points="753.69,-184.41 764.27,-183.99 755.74,-177.71 753.69,-184.41"/>
</g>
<!-- Node10&#45;&gt;Node8 -->
<g id="edge18" class="edge">
<title>Node10&#45;&gt;Node8</title>
<path fill="none" stroke="midnightblue" d="M906.23,-187.17C1029.11,-173.19 1230.01,-149.72 1264,-142 1266.71,-141.38 1269.47,-140.71 1272.24,-139.99"/>
<polygon fill="midnightblue" stroke="midnightblue" points="905.59,-183.72 896.05,-188.33 906.39,-190.68 905.59,-183.72"/>
</g>
<!-- Node11 -->
<g id="node11" class="node">
<title>Node11</title>
<g id="a_node11"><a xlink:href="Configurator_8h.html" target="_top" xlink:title=" ">
<polygon fill="white" stroke="black" points="46,-100.5 46,-130.5 230,-130.5 230,-100.5 46,-100.5"/>
<text text-anchor="start" x="54" y="-118.5" font-family="Helvetica,sans-Serif" font-size="10.00">/home/runner/work/EX</text>
<text text-anchor="middle" x="138" y="-107.5" font-family="Helvetica,sans-Serif" font-size="10.00">&#45;Display/EX&#45;Display/Configurator.h</text>
</a>
</g>
</g>
<!-- Node10&#45;&gt;Node11 -->
<g id="edge10" class="edge">
<title>Node10&#45;&gt;Node11</title>
<path fill="none" stroke="midnightblue" d="M713.75,-192.96C599.77,-185.99 404.5,-170.84 239,-142 221.99,-139.03 203.61,-134.73 187.26,-130.51"/>
<polygon fill="midnightblue" stroke="midnightblue" points="713.66,-196.46 723.85,-193.57 714.08,-189.48 713.66,-196.46"/>
</g>
<!-- Node14 -->
<g id="node14" class="node">
<title>Node14</title>
<g id="a_node14"><a xlink:href="test__ControllerInputAction_8cpp.html" target="_top" xlink:title=" ">
<polygon fill="white" stroke="black" points="1087.5,-89.5 1087.5,-141.5 1254.5,-141.5 1254.5,-89.5 1087.5,-89.5"/>
<text text-anchor="start" x="1095.5" y="-129.5" font-family="Helvetica,sans-Serif" font-size="10.00">/home/runner/work/EX</text>
<text text-anchor="start" x="1095.5" y="-118.5" font-family="Helvetica,sans-Serif" font-size="10.00">&#45;Display/EX&#45;Display/test</text>
<text text-anchor="start" x="1095.5" y="-107.5" font-family="Helvetica,sans-Serif" font-size="10.00">/integration/test_Controller</text>
<text text-anchor="middle" x="1171" y="-96.5" font-family="Helvetica,sans-Serif" font-size="10.00">/test_ControllerInputAction.cpp</text>
</a>
</g>
</g>
<!-- Node10&#45;&gt;Node14 -->
<g id="edge16" class="edge">
<title>Node10&#45;&gt;Node14</title>
<path fill="none" stroke="midnightblue" d="M882.08,-181.73C941.32,-168.35 1025.31,-149.39 1087.47,-135.36"/>
<polygon fill="midnightblue" stroke="midnightblue" points="881.04,-178.37 872.06,-183.99 882.58,-185.2 881.04,-178.37"/>
</g>
<!-- Node15 -->
<g id="node15" class="node">
<title>Node15</title>
<g id="a_node15"><a xlink:href="test__ControllerScreenCreation_8cpp.html" target="_top" xlink:title=" ">
<polygon fill="white" stroke="black" points="248,-89.5 248,-141.5 434,-141.5 434,-89.5 248,-89.5"/>
<text text-anchor="start" x="256" y="-129.5" font-family="Helvetica,sans-Serif" font-size="10.00">/home/runner/work/EX</text>
<text text-anchor="start" x="256" y="-118.5" font-family="Helvetica,sans-Serif" font-size="10.00">&#45;Display/EX&#45;Display/test</text>
<text text-anchor="start" x="256" y="-107.5" font-family="Helvetica,sans-Serif" font-size="10.00">/integration/test_Controller</text>
<text text-anchor="middle" x="341" y="-96.5" font-family="Helvetica,sans-Serif" font-size="10.00">/test_ControllerScreenCreation.cpp</text>
</a>
</g>
</g>
<!-- Node10&#45;&gt;Node15 -->
<g id="edge17" class="edge">
<title>Node10&#45;&gt;Node15</title>
<path fill="none" stroke="midnightblue" d="M713.68,-185.81C639.4,-175.81 534.28,-160.33 443,-142 440.05,-141.41 437.05,-140.78 434.03,-140.14"/>
<polygon fill="midnightblue" stroke="midnightblue" points="713.58,-189.33 723.95,-187.19 714.51,-182.39 713.58,-189.33"/>
</g>
<!-- Node11&#45;&gt;Node4 -->
<g id="edge11" class="edge">
<title>Node11&#45;&gt;Node4</title>
<path fill="none" stroke="midnightblue" d="M196.36,-97.95C210.24,-94.52 225.07,-91.26 239,-89 498.07,-46.92 807.89,-33.56 962.36,-29.38"/>
<polygon fill="midnightblue" stroke="midnightblue" points="195.28,-94.61 186.45,-100.46 197,-101.4 195.28,-94.61"/>
</g>
<!-- Node12 -->
<g id="node12" class="node">
<title>Node12</title>
<g id="a_node12"><a xlink:href="EX-Display_8ino.html" target="_top" xlink:title=" ">
<polygon fill="white" stroke="black" points="0,-6 0,-47 128,-47 128,-6 0,-6"/>
<text text-anchor="start" x="8" y="-35" font-family="Helvetica,sans-Serif" font-size="10.00">/home/runner/work/EX</text>
<text text-anchor="start" x="8" y="-24" font-family="Helvetica,sans-Serif" font-size="10.00">&#45;Display/EX&#45;Display/EX</text>
<text text-anchor="middle" x="64" y="-13" font-family="Helvetica,sans-Serif" font-size="10.00">&#45;Display.ino</text>
</a>
</g>
</g>
<!-- Node11&#45;&gt;Node12 -->
<g id="edge12" class="edge">
<title>Node11&#45;&gt;Node12</title>
<path fill="none" stroke="midnightblue" d="M119.23,-92.43C107.35,-78.46 92.12,-60.56 80.67,-47.1"/>
<polygon fill="midnightblue" stroke="midnightblue" points="116.64,-94.78 125.78,-100.13 121.97,-90.25 116.64,-94.78"/>
</g>
<!-- Node13 -->
<g id="node13" class="node">
<title>Node13</title>
<g id="a_node13"><a xlink:href="test__Configurator_8cpp.html" target="_top" xlink:title=" ">
<polygon fill="white" stroke="black" points="146,-0.5 146,-52.5 280,-52.5 280,-0.5 146,-0.5"/>
<text text-anchor="start" x="154" y="-40.5" font-family="Helvetica,sans-Serif" font-size="10.00">/home/runner/work/EX</text>
<text text-anchor="start" x="154" y="-29.5" font-family="Helvetica,sans-Serif" font-size="10.00">&#45;Display/EX&#45;Display/test</text>
<text text-anchor="start" x="154" y="-18.5" font-family="Helvetica,sans-Serif" font-size="10.00">/unit/test_Configurator</text>
<text text-anchor="middle" x="213" y="-7.5" font-family="Helvetica,sans-Serif" font-size="10.00">/test_Configurator.cpp</text>
</a>
</g>
</g>
<!-- Node11&#45;&gt;Node13 -->
<g id="edge13" class="edge">
<title>Node11&#45;&gt;Node13</title>
<path fill="none" stroke="midnightblue" d="M157.12,-92.32C167.52,-80.26 180.41,-65.31 191.19,-52.8"/>
<polygon fill="midnightblue" stroke="midnightblue" points="154.26,-90.27 150.38,-100.13 159.57,-94.84 154.26,-90.27"/>
</g>
<!-- Node17 -->
<g id="node17" class="node">
<title>Node17</title>
<g id="a_node17"><a xlink:href="InputInterface_8cpp.html" target="_top" xlink:title=" ">
<polygon fill="white" stroke="black" points="1689,-262 1689,-292 1893,-292 1893,-262 1689,-262"/>
<text text-anchor="start" x="1697" y="-280" font-family="Helvetica,sans-Serif" font-size="10.00">/home/runner/work/EX</text>
<text text-anchor="middle" x="1791" y="-269" font-family="Helvetica,sans-Serif" font-size="10.00">&#45;Display/EX&#45;Display/InputInterface.cpp</text>
</a>
</g>
</g>
<!-- Node16&#45;&gt;Node17 -->
<g id="edge20" class="edge">
<title>Node16&#45;&gt;Node17</title>
<path fill="none" stroke="midnightblue" d="M1791,-324.23C1791,-313.57 1791,-301.41 1791,-292.25"/>
<polygon fill="midnightblue" stroke="midnightblue" points="1787.5,-324.23 1791,-334.23 1794.5,-324.23 1787.5,-324.23"/>
</g>
<!-- Node16&#45;&gt;Node18 -->
<g id="edge21" class="edge">
<title>Node16&#45;&gt;Node18</title>
<path fill="none" stroke="midnightblue" d="M1716.98,-332.34C1661.25,-320.18 1585.59,-303.67 1532.36,-292.05"/>
<polygon fill="midnightblue" stroke="midnightblue" points="1716.28,-335.77 1726.8,-334.49 1717.78,-328.94 1716.28,-335.77"/>
</g>
<!-- Node16&#45;&gt;Node36 -->
<g id="edge32" class="edge">
<title>Node16&#45;&gt;Node36</title>
<path fill="none" stroke="midnightblue" d="M1877.5,-332.62C1944.93,-320.24 2037.53,-303.24 2101.43,-291.51"/>
<polygon fill="midnightblue" stroke="midnightblue" points="1876.53,-329.24 1867.33,-334.49 1877.79,-336.12 1876.53,-329.24"/>
</g>
<!-- Node38 -->
<g id="node26" class="node">
<title>Node38</title>
<g id="a_node26"><a xlink:href="MockInput_8h.html" target="_top" xlink:title=" ">
<polygon fill="white" stroke="black" points="1528,-178.5 1528,-219.5 1662,-219.5 1662,-178.5 1528,-178.5"/>
<text text-anchor="start" x="1536" y="-207.5" font-family="Helvetica,sans-Serif" font-size="10.00">/home/runner/work/EX</text>
<text text-anchor="start" x="1536" y="-196.5" font-family="Helvetica,sans-Serif" font-size="10.00">&#45;Display/EX&#45;Display/test</text>
<text text-anchor="middle" x="1595" y="-185.5" font-family="Helvetica,sans-Serif" font-size="10.00">/mocks/MockInput.h</text>
</a>
</g>
</g>
<!-- Node16&#45;&gt;Node38 -->
<g id="edge34" class="edge">
<title>Node16&#45;&gt;Node38</title>
<path fill="none" stroke="midnightblue" d="M1739.92,-330.67C1720.15,-322.43 1698,-311.45 1680,-298 1650.05,-275.62 1623.2,-241.06 1608.02,-219.52"/>
<polygon fill="midnightblue" stroke="midnightblue" points="1738.83,-334 1749.41,-334.5 1741.44,-327.51 1738.83,-334"/>
</g>
<!-- Node16&#45;&gt;Node40 -->
<g id="edge39" class="edge">
<title>Node16&#45;&gt;Node40</title>
<path fill="none" stroke="midnightblue" d="M1897.68,-339.89C1992.59,-331.53 2134.99,-317.29 2258,-298 2260.89,-297.55 2263.82,-297.07 2266.78,-296.56"/>
<polygon fill="midnightblue" stroke="midnightblue" points="1897.16,-336.42 1887.5,-340.78 1897.77,-343.39 1897.16,-336.42"/>
</g>
<!-- Node42 -->
<g id="node30" class="node">
<title>Node42</title>
<g id="a_node30"><a xlink:href="TFT__eSPITouch_8h.html" target="_top" xlink:title=" ">
<polygon fill="white" stroke="black" points="1911.5,-256.5 1911.5,-297.5 2044.5,-297.5 2044.5,-256.5 1911.5,-256.5"/>
<text text-anchor="start" x="1919.5" y="-285.5" font-family="Helvetica,sans-Serif" font-size="10.00">/home/runner/work/EX</text>
<text text-anchor="start" x="1919.5" y="-274.5" font-family="Helvetica,sans-Serif" font-size="10.00">&#45;Display/EX&#45;Display/TFT</text>
<text text-anchor="middle" x="1978" y="-263.5" font-family="Helvetica,sans-Serif" font-size="10.00">_eSPITouch.h</text>
</a>
</g>
</g>
<!-- Node16&#45;&gt;Node42 -->
<g id="edge41" class="edge">
<title>Node16&#45;&gt;Node42</title>
<path fill="none" stroke="midnightblue" d="M1837.95,-330.8C1864.8,-320.68 1898.53,-307.96 1926.15,-297.55"/>
<polygon fill="midnightblue" stroke="midnightblue" points="1836.52,-327.6 1828.39,-334.4 1838.98,-334.15 1836.52,-327.6"/>
</g>
<!-- Node18&#45;&gt;Node8 -->
<g id="edge30" class="edge">
<title>Node18&#45;&gt;Node8</title>
<path fill="none" stroke="midnightblue" d="M1370.12,-259.9C1326.49,-250.53 1281.99,-237.16 1269,-220 1257.73,-205.12 1261.24,-194.98 1269,-178 1275.57,-163.61 1287.36,-151.3 1299.46,-141.55"/>
<polygon fill="midnightblue" stroke="midnightblue" points="1369.48,-263.34 1379.99,-261.95 1370.91,-256.49 1369.48,-263.34"/>
</g>
<!-- Node18&#45;&gt;Node10 -->
<g id="edge23" class="edge">
<title>Node18&#45;&gt;Node10</title>
<path fill="none" stroke="midnightblue" d="M1362.38,-263.8C1232.9,-248.85 1015.95,-223.79 896.1,-209.94"/>
<polygon fill="midnightblue" stroke="midnightblue" points="1361.99,-267.28 1372.32,-264.95 1362.79,-260.32 1361.99,-267.28"/>
</g>
<!-- Node18&#45;&gt;Node11 -->
<g id="edge22" class="edge">
<title>Node18&#45;&gt;Node11</title>
<path fill="none" stroke="midnightblue" d="M1362.06,-271.07C1216.05,-263.61 944.93,-247.34 715,-220 502.12,-194.69 448.89,-185.61 239,-142 222.98,-138.67 205.66,-134.51 189.97,-130.52"/>
<polygon fill="midnightblue" stroke="midnightblue" points="1362.19,-274.58 1372.35,-271.59 1362.54,-267.59 1362.19,-274.58"/>
</g>
<!-- Node18&#45;&gt;Node14 -->
<g id="edge28" class="edge">
<title>Node18&#45;&gt;Node14</title>
<path fill="none" stroke="midnightblue" d="M1362.39,-261.31C1326.94,-253.02 1288.46,-240.09 1257,-220 1225.89,-200.13 1200.42,-165.36 1185.48,-141.65"/>
<polygon fill="midnightblue" stroke="midnightblue" points="1361.77,-264.76 1372.3,-263.53 1363.3,-257.93 1361.77,-264.76"/>
</g>
<!-- Node19 -->
<g id="node19" class="node">
<title>Node19</title>
<g id="a_node19"><a xlink:href="CreateUserDevices_8h.html" target="_top" xlink:title=" ">
<polygon fill="white" stroke="black" points="1862,-178.5 1862,-219.5 2032,-219.5 2032,-178.5 1862,-178.5"/>
<text text-anchor="start" x="1870" y="-207.5" font-family="Helvetica,sans-Serif" font-size="10.00">/home/runner/work/EX</text>
<text text-anchor="start" x="1870" y="-196.5" font-family="Helvetica,sans-Serif" font-size="10.00">&#45;Display/EX&#45;Display/CreateUser</text>
<text text-anchor="middle" x="1947" y="-185.5" font-family="Helvetica,sans-Serif" font-size="10.00">Devices.h</text>
</a>
</g>
</g>
<!-- Node18&#45;&gt;Node19 -->
<g id="edge24" class="edge">
<title>Node18&#45;&gt;Node19</title>
<path fill="none" stroke="midnightblue" d="M1573.86,-262.49C1651.37,-252.14 1758.99,-236.82 1853,-220 1855.96,-219.47 1858.96,-218.92 1861.99,-218.35"/>
<polygon fill="midnightblue" stroke="midnightblue" points="1573.06,-259.07 1563.61,-263.86 1573.98,-266.01 1573.06,-259.07"/>
</g>
<!-- Node21 -->
<g id="node21" class="node">
<title>Node21</title>
<g id="a_node21"><a xlink:href="InputManager_8cpp.html" target="_top" xlink:title=" ">
<polygon fill="white" stroke="black" points="2050.5,-184 2050.5,-214 2253.5,-214 2253.5,-184 2050.5,-184"/>
<text text-anchor="start" x="2058.5" y="-202" font-family="Helvetica,sans-Serif" font-size="10.00">/home/runner/work/EX</text>
<text text-anchor="middle" x="2152" y="-191" font-family="Helvetica,sans-Serif" font-size="10.00">&#45;Display/EX&#45;Display/InputManager.cpp</text>
</a>
</g>
</g>
<!-- Node18&#45;&gt;Node21 -->
<g id="edge27" class="edge">
<title>Node18&#45;&gt;Node21</title>
<path fill="none" stroke="midnightblue" d="M1573.81,-265.88C1733.06,-250.62 2018.26,-223.15 2041,-220 2053.32,-218.29 2066.35,-216.2 2078.99,-214.02"/>
<polygon fill="midnightblue" stroke="midnightblue" points="1573.13,-262.43 1563.51,-266.87 1573.8,-269.4 1573.13,-262.43"/>
</g>
<!-- Node22 -->
<g id="node22" class="node">
<title>Node22</title>
<g id="a_node22"><a xlink:href="MockDisplayInputMethods_8h.html" target="_top" xlink:title=" ">
<polygon fill="white" stroke="red" points="1278,-178.5 1278,-219.5 1472,-219.5 1472,-178.5 1278,-178.5"/>
<text text-anchor="start" x="1286" y="-207.5" font-family="Helvetica,sans-Serif" font-size="10.00">/home/runner/work/EX</text>
<text text-anchor="start" x="1286" y="-196.5" font-family="Helvetica,sans-Serif" font-size="10.00">&#45;Display/EX&#45;Display/test</text>
<text text-anchor="middle" x="1375" y="-185.5" font-family="Helvetica,sans-Serif" font-size="10.00">/mocks/MockDisplayInputMethods.h</text>
</a>
</g>
</g>
<!-- Node18&#45;&gt;Node22 -->
<g id="edge29" class="edge">
<title>Node18&#45;&gt;Node22</title>
<path fill="none" stroke="midnightblue" d="M1442.52,-255.18C1428.97,-244.11 1412.41,-230.57 1399.08,-219.68"/>
<polygon fill="midnightblue" stroke="midnightblue" points="1440.55,-258.09 1450.51,-261.7 1444.98,-252.67 1440.55,-258.09"/>
</g>
<!-- Node35 -->
<g id="node23" class="node">
<title>Node35</title>
<g id="a_node23"><a xlink:href="test__InputManager_8cpp.html" target="_top" xlink:title=" ">
<polygon fill="white" stroke="black" points="1426,-89.5 1426,-141.5 1560,-141.5 1560,-89.5 1426,-89.5"/>
<text text-anchor="start" x="1434" y="-129.5" font-family="Helvetica,sans-Serif" font-size="10.00">/home/runner/work/EX</text>
<text text-anchor="start" x="1434" y="-118.5" font-family="Helvetica,sans-Serif" font-size="10.00">&#45;Display/EX&#45;Display/test</text>
<text text-anchor="start" x="1434" y="-107.5" font-family="Helvetica,sans-Serif" font-size="10.00">/unit/test_InputManager</text>
<text text-anchor="middle" x="1493" y="-96.5" font-family="Helvetica,sans-Serif" font-size="10.00">/test_InputManager.cpp</text>
</a>
</g>
</g>
<!-- Node18&#45;&gt;Node35 -->
<g id="edge31" class="edge">
<title>Node18&#45;&gt;Node35</title>
<path fill="none" stroke="midnightblue" d="M1474.22,-251.93C1476.59,-242.08 1479.17,-230.54 1481,-220 1485.61,-193.44 1488.92,-162.74 1490.88,-141.71"/>
<polygon fill="midnightblue" stroke="midnightblue" points="1470.77,-251.27 1471.76,-261.82 1477.57,-252.96 1470.77,-251.27"/>
</g>
<!-- Node19&#45;&gt;Node4 -->
<g id="edge25" class="edge">
<title>Node19&#45;&gt;Node4</title>
<path fill="none" stroke="midnightblue" d="M2041.69,-178.04C2041.8,-178.03 2041.9,-178.01 2042,-178 2099.03,-170.05 2519.72,-184.11 2559,-142 2575.07,-124.77 2575.31,-105.99 2559,-89 2510.44,-38.41 1482.6,-29.41 1157.6,-27.83"/>
<polygon fill="midnightblue" stroke="midnightblue" points="2041.46,-174.54 2032.1,-179.49 2042.51,-181.46 2041.46,-174.54"/>
</g>
<!-- Node20 -->
<g id="node20" class="node">
<title>Node20</title>
<g id="a_node20"><a xlink:href="test__CompilerCreation_8cpp.html" target="_top" xlink:title=" ">
<polygon fill="white" stroke="black" points="2158.5,-89.5 2158.5,-141.5 2343.5,-141.5 2343.5,-89.5 2158.5,-89.5"/>
<text text-anchor="start" x="2166.5" y="-129.5" font-family="Helvetica,sans-Serif" font-size="10.00">/home/runner/work/EX</text>
<text text-anchor="start" x="2166.5" y="-118.5" font-family="Helvetica,sans-Serif" font-size="10.00">&#45;Display/EX&#45;Display/test</text>
<text text-anchor="start" x="2166.5" y="-107.5" font-family="Helvetica,sans-Serif" font-size="10.00">/integration/test_CompilerCreation</text>
<text text-anchor="middle" x="2251" y="-96.5" font-family="Helvetica,sans-Serif" font-size="10.00">/test_CompilerCreation.cpp</text>
</a>
</g>
</g>
<!-- Node19&#45;&gt;Node20 -->
<g id="edge26" class="edge">
<title>Node19&#45;&gt;Node20</title>
<path fill="none" stroke="midnightblue" d="M2029.49,-175.88C2069.31,-165.21 2117.24,-152.36 2158.31,-141.35"/>
<polygon fill="midnightblue" stroke="midnightblue" points="2028.57,-172.51 2019.82,-178.48 2030.38,-179.27 2028.57,-172.51"/>
</g>
<!-- Node37 -->
<g id="node25" class="node">
<title>Node37</title>
<g id="a_node25"><a xlink:href="test__DebounceHoldInput_8cpp.html" target="_top" xlink:title=" ">
<polygon fill="white" stroke="black" points="2362,-89.5 2362,-141.5 2550,-141.5 2550,-89.5 2362,-89.5"/>
<text text-anchor="start" x="2370" y="-129.5" font-family="Helvetica,sans-Serif" font-size="10.00">/home/runner/work/EX</text>
<text text-anchor="start" x="2370" y="-118.5" font-family="Helvetica,sans-Serif" font-size="10.00">&#45;Display/EX&#45;Display/test</text>
<text text-anchor="start" x="2370" y="-107.5" font-family="Helvetica,sans-Serif" font-size="10.00">/unit/test_Input/test_DebounceHold</text>
<text text-anchor="middle" x="2456" y="-96.5" font-family="Helvetica,sans-Serif" font-size="10.00">Input.cpp</text>
</a>
</g>
</g>
<!-- Node36&#45;&gt;Node37 -->
<g id="edge33" class="edge">
<title>Node36&#45;&gt;Node37</title>
<path fill="none" stroke="midnightblue" d="M2258.63,-256.04C2330.1,-241.81 2362.18,-264.18 2414,-220 2437.31,-200.12 2447.85,-165.35 2452.5,-141.65"/>
<polygon fill="midnightblue" stroke="midnightblue" points="2257.78,-252.64 2248.76,-258.19 2259.27,-259.48 2257.78,-252.64"/>
</g>
<!-- Node38&#45;&gt;Node8 -->
<g id="edge36" class="edge">
<title>Node38&#45;&gt;Node8</title>
<path fill="none" stroke="midnightblue" d="M1522.11,-175.34C1489.86,-165.24 1451.5,-153.14 1417,-142 1413.92,-141 1410.77,-139.98 1407.59,-138.95"/>
<polygon fill="midnightblue" stroke="midnightblue" points="1521.32,-178.76 1531.91,-178.4 1523.41,-172.08 1521.32,-178.76"/>
</g>
<!-- Node38&#45;&gt;Node14 -->
<g id="edge35" class="edge">
<title>Node38&#45;&gt;Node14</title>
<path fill="none" stroke="midnightblue" d="M1517.61,-184.32C1505.36,-182.19 1492.84,-180.02 1481,-178 1384.63,-161.55 1359.49,-162.95 1264,-142 1260.89,-141.32 1257.73,-140.6 1254.55,-139.85"/>
<polygon fill="midnightblue" stroke="midnightblue" points="1517.35,-187.83 1527.81,-186.1 1518.56,-180.94 1517.35,-187.83"/>
</g>
<!-- Node38&#45;&gt;Node35 -->
<g id="edge38" class="edge">
<title>Node38&#45;&gt;Node35</title>
<path fill="none" stroke="midnightblue" d="M1562.47,-172.01C1550.35,-162.32 1536.61,-151.35 1524.57,-141.73"/>
<polygon fill="midnightblue" stroke="midnightblue" points="1560.57,-174.97 1570.57,-178.48 1564.94,-169.5 1560.57,-174.97"/>
</g>
<!-- Node39 -->
<g id="node27" class="node">
<title>Node39</title>
<g id="a_node27"><a xlink:href="test__InputInterface_8cpp.html" target="_top" xlink:title=" ">
<polygon fill="white" stroke="black" points="1934,-95 1934,-136 2140,-136 2140,-95 1934,-95"/>
<text text-anchor="start" x="1942" y="-124" font-family="Helvetica,sans-Serif" font-size="10.00">/home/runner/work/EX</text>
<text text-anchor="start" x="1942" y="-113" font-family="Helvetica,sans-Serif" font-size="10.00">&#45;Display/EX&#45;Display/test</text>
<text text-anchor="middle" x="2037" y="-102" font-family="Helvetica,sans-Serif" font-size="10.00">/unit/test_Input/test_InputInterface.cpp</text>
</a>
</g>
</g>
<!-- Node38&#45;&gt;Node39 -->
<g id="edge37" class="edge">
<title>Node38&#45;&gt;Node39</title>
<path fill="none" stroke="midnightblue" d="M1672.26,-183.17C1681.93,-181.39 1691.69,-179.63 1701,-178 1800.33,-160.65 1826.01,-161.2 1925,-142 1934.4,-140.18 1944.21,-138.14 1953.95,-136.04"/>
<polygon fill="midnightblue" stroke="midnightblue" points="1671.43,-179.76 1662.24,-185.03 1672.71,-186.65 1671.43,-179.76"/>
</g>
<!-- Node41 -->
<g id="node29" class="node">
<title>Node41</title>
<g id="a_node29"><a xlink:href="test__TouchScreenInput_8cpp.html" target="_top" xlink:title=" ">
<polygon fill="white" stroke="black" points="2606,-89.5 2606,-141.5 2784,-141.5 2784,-89.5 2606,-89.5"/>
<text text-anchor="start" x="2614" y="-129.5" font-family="Helvetica,sans-Serif" font-size="10.00">/home/runner/work/EX</text>
<text text-anchor="start" x="2614" y="-118.5" font-family="Helvetica,sans-Serif" font-size="10.00">&#45;Display/EX&#45;Display/test</text>
<text text-anchor="start" x="2614" y="-107.5" font-family="Helvetica,sans-Serif" font-size="10.00">/unit/test_Input/test_TouchScreen</text>
<text text-anchor="middle" x="2695" y="-96.5" font-family="Helvetica,sans-Serif" font-size="10.00">Input.cpp</text>
</a>
</g>
</g>
<!-- Node40&#45;&gt;Node41 -->
<g id="edge40" class="edge">
<title>Node40&#45;&gt;Node41</title>
<path fill="none" stroke="midnightblue" d="M2406.09,-252.03C2469.47,-222.3 2577.01,-171.85 2641.49,-141.6"/>
<polygon fill="midnightblue" stroke="midnightblue" points="2404.26,-249.03 2396.69,-256.44 2407.23,-255.36 2404.26,-249.03"/>
</g>
<!-- Node42&#45;&gt;Node19 -->
<g id="edge42" class="edge">
<title>Node42&#45;&gt;Node19</title>
<path fill="none" stroke="midnightblue" d="M1966.12,-246.88C1962.39,-237.72 1958.35,-227.83 1954.96,-219.51"/>
<polygon fill="midnightblue" stroke="midnightblue" points="1963,-248.49 1970.02,-256.43 1969.48,-245.85 1963,-248.49"/>
</g>
<!-- Node42&#45;&gt;Node21 -->
<g id="edge43" class="edge">
<title>Node42&#45;&gt;Node21</title>
<path fill="none" stroke="midnightblue" d="M2032.3,-252.28C2060.98,-239.76 2095.21,-224.81 2119.7,-214.11"/>
<polygon fill="midnightblue" stroke="midnightblue" points="2030.57,-249.22 2022.81,-256.43 2033.37,-255.63 2030.57,-249.22"/>
</g>
<!-- Node42&#45;&gt;Node43 -->
<g id="edge44" class="edge">
<title>Node42&#45;&gt;Node43</title>
<path fill="none" stroke="midnightblue" d="M2054.58,-256.95C2056.06,-256.63 2057.54,-256.31 2059,-256 2149.08,-236.95 2173.1,-239.88 2263,-220 2265.76,-219.39 2268.58,-218.74 2271.42,-218.07"/>
<polygon fill="midnightblue" stroke="midnightblue" points="2053.66,-253.57 2044.66,-259.16 2055.19,-260.4 2053.66,-253.57"/>
</g>
<!-- Node44&#45;&gt;Node7 -->
<g id="edge49" class="edge">
<title>Node44&#45;&gt;Node7</title>
<path fill="none" stroke="midnightblue" d="M1793.06,-169.55C1798.19,-160.45 1803.84,-150.45 1808.83,-141.61"/>
<polygon fill="midnightblue" stroke="midnightblue" points="1790,-167.84 1788.14,-178.27 1796.1,-171.28 1790,-167.84"/>
</g>
<!-- Node44&#45;&gt;Node8 -->
<g id="edge50" class="edge">
<title>Node44&#45;&gt;Node8</title>
<path fill="none" stroke="midnightblue" d="M1699.77,-183C1690.09,-181.25 1680.33,-179.54 1671,-178 1558.51,-159.43 1528.01,-168.03 1417,-142 1413.98,-141.29 1410.92,-140.52 1407.83,-139.69"/>
<polygon fill="midnightblue" stroke="midnightblue" points="1699.33,-186.48 1709.79,-184.84 1700.59,-179.59 1699.33,-186.48"/>
</g>
<!-- Node44&#45;&gt;Node9 -->
<g id="edge51" class="edge">
<title>Node44&#45;&gt;Node9</title>
<path fill="none" stroke="midnightblue" d="M1736.71,-173.12C1720.58,-163.17 1702.04,-151.72 1685.86,-141.73"/>
<polygon fill="midnightblue" stroke="midnightblue" points="1735.04,-176.2 1745.38,-178.48 1738.71,-170.25 1735.04,-176.2"/>
</g>
<!-- Node44&#45;&gt;Node20 -->
<g id="edge48" class="edge">
<title>Node44&#45;&gt;Node20</title>
<path fill="none" stroke="midnightblue" d="M1854.03,-177.94C1984.95,-153.69 2021.87,-165.53 2149,-142 2152.05,-141.44 2155.15,-140.83 2158.27,-140.2"/>
<polygon fill="midnightblue" stroke="midnightblue" points="1853.2,-174.54 1844.02,-179.83 1854.5,-181.42 1853.2,-174.54"/>
</g>
<!-- Node44&#45;&gt;Node37 -->
<g id="edge52" class="edge">
<title>Node44&#45;&gt;Node37</title>
<path fill="none" stroke="midnightblue" d="M1854.33,-177.94C2074.58,-142.52 2136.18,-176.39 2353,-142 2355.91,-141.54 2358.86,-141.03 2361.83,-140.5"/>
<polygon fill="midnightblue" stroke="midnightblue" points="1853.71,-174.5 1844.4,-179.57 1854.84,-181.41 1853.71,-174.5"/>
</g>
<!-- Node44&#45;&gt;Node39 -->
<g id="edge53" class="edge">
<title>Node44&#45;&gt;Node39</title>
<path fill="none" stroke="midnightblue" d="M1848.85,-175.48C1888.37,-163.09 1936.9,-147.88 1974.78,-136"/>
<polygon fill="midnightblue" stroke="midnightblue" points="1847.77,-172.15 1839.28,-178.48 1849.87,-178.83 1847.77,-172.15"/>
</g>
<!-- Node44&#45;&gt;Node41 -->
<g id="edge54" class="edge">
<title>Node44&#45;&gt;Node41</title>
<path fill="none" stroke="midnightblue" d="M1854.59,-177.93C2165.28,-130.81 2250.36,-178.64 2559,-142 2574.15,-140.2 2590.15,-137.73 2605.65,-135.02"/>
<polygon fill="midnightblue" stroke="midnightblue" points="1853.74,-174.51 1844.39,-179.49 1854.81,-181.43 1853.74,-174.51"/>
</g>
</g>
</svg>
        <g id="navigator" transform="translate(0 0)" fill="#404254">
                <rect fill="#f2f5e9" fill-opacity="0.5" stroke="#606060" stroke-width=".5" x="0" y="0" width="60" height="60"/>
                <use id="zoomplus" xlink:href="#zoomPlus" x="17" y="9" onmousedown="handleZoom(evt,'in')"/>
                <use id="zoomminus" xlink:href="#zoomMin" x="42" y="9" onmousedown="handleZoom(evt,'out')"/>
                <use id="reset" xlink:href="#resetDef" x="30" y="36" onmousedown="handleReset()"/>
                <g id="arrowUp" xlink:href="#dirArrow" transform="translate(30 24)" onmousedown="handlePan(0,-1)">
                  <use xlink:href="#rim" fill="#404040">
                        <set attributeName="fill" to="#808080" begin="arrowUp.mouseover" end="arrowUp.mouseout"/>
                  </use>
                  <path fill="none" stroke="white" stroke-width="1.5" d="M0,-3.0v7 M-2.5,-0.5L0,-3.0L2.5,-0.5"/>
                </g>
                <g id="arrowRight" xlink:href="#dirArrow" transform="rotate(90) translate(36 -43)" onmousedown="handlePan(1,0)">
                  <use xlink:href="#rim" fill="#404040">
                        <set attributeName="fill" to="#808080" begin="arrowRight.mouseover" end="arrowRight.mouseout"/>
                  </use>
                  <path fill="none" stroke="white" stroke-width="1.5" d="M0,-3.0v7 M-2.5,-0.5L0,-3.0L2.5,-0.5"/>
                </g>
                <g id="arrowDown" xlink:href="#dirArrow" transform="rotate(180) translate(-30 -48)" onmousedown="handlePan(0,1)">
                  <use xlink:href="#rim" fill="#404040">
                        <set attributeName="fill" to="#808080" begin="arrowDown.mouseover" end="arrowDown.mouseout"/>
                  </use>
                  <path fill="none" stroke="white" stroke-width="1.5" d="M0,-3.0v7 M-2.5,-0.5L0,-3.0L2.5,-0.5"/>
                </g>
                <g id="arrowLeft" xlink:href="#dirArrow" transform="rotate(270) translate(-36 17)" onmousedown="handlePan(-1,0)">
                  <use xlink:href="#rim" fill="#404040">
                        <set attributeName="fill" to="#808080" begin="arrowLeft.mouseover" end="arrowLeft.mouseout"/>
                  </use>
                  <path fill="none" stroke="white" stroke-width="1.5" d="M0,-3.0v7 M-2.5,-0.5L0,-3.0L2.5,-0.5"/>
                </g>
        </g>
        <svg viewBox="0 0 15 15" width="100%" height="30px" preserveAspectRatio="xMaxYMin meet">
         <g id="arrow_out" transform="scale(0.3 0.3)">
          <a xlink:href="CallbackInterface_8h__dep__incl_org.svg" target="_base">
           <rect id="button" ry="5" rx="5" y="6" x="6" height="38" width="38"
                fill="#f2f5e9" fill-opacity="0.5" stroke="#606060" stroke-width="1.0"/>
           <path id="arrow"
             d="M 11.500037,31.436501 C 11.940474,20.09759 22.043105,11.32322 32.158766,21.979434 L 37.068811,17.246167 C 37.068811,17.246167 37.088388,32 37.088388,32 L 22.160133,31.978069 C 22.160133,31.978069 26.997745,27.140456 26.997745,27.140456 C 18.528582,18.264221 13.291696,25.230495 11.500037,31.436501 z"
             style="fill:#404040;"/>
          </a>
         </g>
        </svg>
</svg>
