<?xml version="1.0" encoding="UTF-8" standalone="no"?>
<!DOCTYPE svg PUBLIC "-//W3C//DTD SVG 1.1//EN"
 "http://www.w3.org/Graphics/SVG/1.1/DTD/svg11.dtd">
<!-- Generated by graphviz version 2.43.0 (0)
 -->
<!-- Title: Configurator Pages: 1 -->
<!--zoomable 452 -->
<svg id="main" version="1.1" xmlns="http://www.w3.org/2000/svg" xmlns:xlink="http://www.w3.org/1999/xlink" xml:space="preserve" onload="init(evt)">
<style type="text/css"><![CDATA[
.edge:hover path { stroke: red; }
.edge:hover polygon { stroke: red; fill: red; }
]]></style>
<script type="text/javascript"><![CDATA[
var edges = document.getElementsByTagName('g');
if (edges && edges.length) {
  for (var i=0;i<edges.length;i++) {
    if (edges[i].id.substr(0,4)=='edge') {
      edges[i].setAttribute('class','edge');
    }
  }
}
]]></script>
        <defs>
                <circle id="rim" cx="0" cy="0" r="7"/>
                <circle id="rim2" cx="0" cy="0" r="3.5"/>
                <g id="zoomPlus">
                        <use xlink:href="#rim" fill="#404040">
                                <set attributeName="fill" to="#808080" begin="zoomplus.mouseover" end="zoomplus.mouseout"/>
                        </use>
                        <path d="M-4,0h8M0,-4v8" fill="none" stroke="white" stroke-width="1.5" pointer-events="none"/>
                </g>
                <g id="zoomMin">
                        <use xlink:href="#rim" fill="#404040">
                                <set attributeName="fill" to="#808080" begin="zoomminus.mouseover" end="zoomminus.mouseout"/>
                        </use>
                        <path d="M-4,0h8" fill="none" stroke="white" stroke-width="1.5" pointer-events="none"/>
                </g>
                <g id="dirArrow">
                        <path fill="none" stroke="white" stroke-width="1.5" d="M0,-3.0v7 M-2.5,-0.5L0,-3.0L2.5,-0.5"/>
                </g>
               <g id="resetDef">
                       <use xlink:href="#rim2" fill="#404040">
                               <set attributeName="fill" to="#808080" begin="reset.mouseover" end="reset.mouseout"/>
                       </use>
               </g>
        </defs>

<script type="text/javascript">
var viewWidth = 959;
var viewHeight = 452;
var sectionId = 'dynsection-0';
</script>
<script xlink:href="svgpan.js"/>
<svg id="graph" class="graph">
<g id="viewport">
<title>Configurator</title>
<polygon fill="white" stroke="transparent" points="-4,4 -4,-448 955.24,-448 955.24,4 -4,4"/>
<!-- Node1 -->
<g id="node1" class="node">
<title>Node1</title>
<g id="a_node1"><a xlink:title=" ">
<polygon fill="#bfbfbf" stroke="black" points="459.74,-0.5 459.74,-19.5 536.74,-19.5 536.74,-0.5 459.74,-0.5"/>
<text text-anchor="middle" x="498.24" y="-7.5" font-family="Helvetica,sans-Serif" font-size="10.00">Configurator</text>
</a>
</g>
</g>
<!-- Node2 -->
<g id="node2" class="node">
<title>Node2</title>
<g id="a_node2"><a xlink:href="classController.html" target="_top" xlink:title="Class for the central controller for EX&#45;Display. All application activities are controlled through th...">
<polygon fill="white" stroke="black" points="367.74,-67.5 367.74,-86.5 432.74,-86.5 432.74,-67.5 367.74,-67.5"/>
<text text-anchor="middle" x="400.24" y="-74.5" font-family="Helvetica,sans-Serif" font-size="10.00">Controller</text>
</a>
</g>
</g>
<!-- Node2&#45;&gt;Node1 -->
<g id="edge1" class="edge">
<title>Node2&#45;&gt;Node1</title>
<path fill="none" stroke="#9a32cd" stroke-dasharray="5,2" d="M421.96,-61.59C441.34,-48.74 469.09,-30.33 485.23,-19.63"/>
<polygon fill="#9a32cd" stroke="#9a32cd" points="419.85,-58.79 413.45,-67.23 423.72,-64.62 419.85,-58.79"/>
<text text-anchor="middle" x="482.74" y="-41" font-family="Helvetica,sans-Serif" font-size="10.00"> _controller</text>
</g>
<!-- Node3 -->
<g id="node3" class="node">
<title>Node3</title>
<g id="a_node3"><a xlink:href="classCallbackInterface.html" target="_top" xlink:title="Interface class to use for callbacks.">
<polygon fill="white" stroke="black" points="271.24,-290.5 271.24,-309.5 373.24,-309.5 373.24,-290.5 271.24,-290.5"/>
<text text-anchor="middle" x="322.24" y="-297.5" font-family="Helvetica,sans-Serif" font-size="10.00">CallbackInterface</text>
</a>
</g>
</g>
<!-- Node3&#45;&gt;Node2 -->
<g id="edge2" class="edge">
<title>Node3&#45;&gt;Node2</title>
<path fill="none" stroke="midnightblue" d="M332.09,-281.14C339.16,-267.86 348.57,-249.14 355.24,-232 376.24,-178 392.82,-110.09 398.3,-86.52"/>
<polygon fill="midnightblue" stroke="midnightblue" points="328.91,-279.66 327.23,-290.12 335.07,-282.99 328.91,-279.66"/>
</g>
<!-- Node11 -->
<g id="node10" class="node">
<title>Node11</title>
<g id="a_node10"><a xlink:href="classInputManager.html" target="_top" xlink:title=" ">
<polygon fill="white" stroke="black" points="250.24,-134.5 250.24,-153.5 334.24,-153.5 334.24,-134.5 250.24,-134.5"/>
<text text-anchor="middle" x="292.24" y="-141.5" font-family="Helvetica,sans-Serif" font-size="10.00">InputManager</text>
</a>
</g>
</g>
<!-- Node3&#45;&gt;Node11 -->
<g id="edge16" class="edge">
<title>Node3&#45;&gt;Node11</title>
<path fill="none" stroke="#9a32cd" stroke-dasharray="5,2" d="M317.42,-280.49C314.03,-267.08 309.53,-248.49 306.24,-232 300.55,-203.5 295.59,-169.38 293.41,-153.68"/>
<polygon fill="#9a32cd" stroke="#9a32cd" points="314.08,-281.56 319.96,-290.37 320.86,-279.82 314.08,-281.56"/>
<text text-anchor="middle" x="330.74" y="-218.5" font-family="Helvetica,sans-Serif" font-size="10.00"> _callback</text>
</g>
<!-- Node12 -->
<g id="node11" class="node">
<title>Node12</title>
<g id="a_node11"><a xlink:href="classInputInterface.html" target="_top" xlink:title="Class to abstract away all physical input implementatio to enable multiple input types Default return...">
<polygon fill="white" stroke="black" points="90.74,-211.5 90.74,-230.5 175.74,-230.5 175.74,-211.5 90.74,-211.5"/>
<text text-anchor="middle" x="133.24" y="-218.5" font-family="Helvetica,sans-Serif" font-size="10.00">InputInterface</text>
</a>
</g>
</g>
<!-- Node3&#45;&gt;Node12 -->
<g id="edge18" class="edge">
<title>Node3&#45;&gt;Node12</title>
<path fill="none" stroke="#9a32cd" stroke-dasharray="5,2" d="M287.22,-287.18C274.27,-282.64 259.51,-277.28 246.24,-272 228.2,-264.82 179.18,-242.8 152.01,-230.51"/>
<polygon fill="#9a32cd" stroke="#9a32cd" points="286.13,-290.51 296.73,-290.47 288.42,-283.89 286.13,-290.51"/>
<text text-anchor="middle" x="270.74" y="-258.5" font-family="Helvetica,sans-Serif" font-size="10.00"> _callback</text>
</g>
<!-- Node4 -->
<g id="node4" class="node">
<title>Node4</title>
<g id="a_node4"><a xlink:href="classLogger.html" target="_top" xlink:title="Class to enable simple logging to a Stream object with different log levels This enables embedding pe...">
<polygon fill="white" stroke="black" points="376.24,-357.5 376.24,-376.5 426.24,-376.5 426.24,-357.5 376.24,-357.5"/>
<text text-anchor="middle" x="401.24" y="-364.5" font-family="Helvetica,sans-Serif" font-size="10.00">Logger</text>
</a>
</g>
</g>
<!-- Node4&#45;&gt;Node1 -->
<g id="edge27" class="edge">
<title>Node4&#45;&gt;Node1</title>
<path fill="none" stroke="#9a32cd" stroke-dasharray="5,2" d="M436.31,-362.08C491.05,-355.12 592.69,-338.61 613.24,-310 616.21,-305.86 634.86,-160.77 608.24,-105 588.54,-63.74 541.25,-33.64 515.56,-19.68"/>
<polygon fill="#9a32cd" stroke="#9a32cd" points="435.84,-358.61 426.34,-363.3 436.7,-365.55 435.84,-358.61"/>
<text text-anchor="middle" x="643.24" y="-179.5" font-family="Helvetica,sans-Serif" font-size="10.00"> _logger</text>
</g>
<!-- Node4&#45;&gt;Node3 -->
<g id="edge3" class="edge">
<title>Node4&#45;&gt;Node3</title>
<path fill="none" stroke="#9a32cd" stroke-dasharray="5,2" d="M368.3,-352.98C360.89,-349.15 353.41,-344.48 347.24,-339 337.91,-330.71 330.57,-318.18 326.32,-309.8"/>
<polygon fill="#9a32cd" stroke="#9a32cd" points="367,-356.23 377.53,-357.38 370.01,-349.92 367,-356.23"/>
<text text-anchor="middle" x="367.24" y="-331" font-family="Helvetica,sans-Serif" font-size="10.00"> _logger</text>
</g>
<!-- Node6 -->
<g id="node6" class="node">
<title>Node6</title>
<g id="a_node6"><a xlink:href="classScreenManager.html" target="_top" xlink:title="Class to manage all EX&#45;Display screens.">
<polygon fill="white" stroke="black" points="465.24,-172.5 465.24,-191.5 557.24,-191.5 557.24,-172.5 465.24,-172.5"/>
<text text-anchor="middle" x="511.24" y="-179.5" font-family="Helvetica,sans-Serif" font-size="10.00">ScreenManager</text>
</a>
</g>
</g>
<!-- Node4&#45;&gt;Node6 -->
<g id="edge9" class="edge">
<title>Node4&#45;&gt;Node6</title>
<path fill="none" stroke="#9a32cd" stroke-dasharray="5,2" d="M411.96,-348.16C435.09,-309.68 488.96,-220.05 505.98,-191.74"/>
<polygon fill="#9a32cd" stroke="#9a32cd" points="408.69,-346.8 406.54,-357.17 414.69,-350.41 408.69,-346.8"/>
<text text-anchor="middle" x="466.24" y="-297.5" font-family="Helvetica,sans-Serif" font-size="10.00"> _logger</text>
</g>
<!-- Node7 -->
<g id="node7" class="node">
<title>Node7</title>
<g id="a_node7"><a xlink:href="classScreen.html" target="_top" xlink:title="Class for each screen as received from the EXRAIL SCREEN() command Each Screen instance contains a li...">
<polygon fill="white" stroke="red" points="505.24,-290.5 505.24,-309.5 555.24,-309.5 555.24,-290.5 505.24,-290.5"/>
<text text-anchor="middle" x="530.24" y="-297.5" font-family="Helvetica,sans-Serif" font-size="10.00">Screen</text>
</a>
</g>
</g>
<!-- Node4&#45;&gt;Node7 -->
<g id="edge8" class="edge">
<title>Node4&#45;&gt;Node7</title>
<path fill="none" stroke="#9a32cd" stroke-dasharray="5,2" d="M430.76,-353.28C440.54,-348.92 451.43,-343.9 461.24,-339 480.32,-329.47 501.77,-317.44 515.61,-309.5"/>
<polygon fill="#9a32cd" stroke="#9a32cd" points="429.16,-350.16 421.43,-357.4 431.99,-356.57 429.16,-350.16"/>
<text text-anchor="middle" x="503.24" y="-331" font-family="Helvetica,sans-Serif" font-size="10.00"> _logger</text>
</g>
<!-- Node9 -->
<g id="node8" class="node">
<title>Node9</title>
<g id="a_node8"><a xlink:href="classDisplayManager.html" target="_top" xlink:title="Manages all physical displays.">
<polygon fill="white" stroke="black" points="14.24,-172.5 14.24,-191.5 110.24,-191.5 110.24,-172.5 14.24,-172.5"/>
<text text-anchor="middle" x="62.24" y="-179.5" font-family="Helvetica,sans-Serif" font-size="10.00">DisplayManager</text>
</a>
</g>
</g>
<!-- Node4&#45;&gt;Node9 -->
<g id="edge11" class="edge">
<title>Node4&#45;&gt;Node9</title>
<path fill="none" stroke="#9a32cd" stroke-dasharray="5,2" d="M365.94,-366.38C306.41,-366.28 182.6,-362.86 81.24,-339 47.25,-331 27.84,-338.89 8.24,-310 -19.21,-269.56 31.38,-212.92 53.06,-191.59"/>
<polygon fill="#9a32cd" stroke="#9a32cd" points="365.95,-369.88 375.95,-366.36 365.94,-362.88 365.95,-369.88"/>
<text text-anchor="middle" x="28.24" y="-297.5" font-family="Helvetica,sans-Serif" font-size="10.00"> _logger</text>
</g>
<!-- Node10 -->
<g id="node9" class="node">
<title>Node10</title>
<g id="a_node9"><a xlink:href="classDisplayInterface.html" target="_top" xlink:title="Class to abstract away all physical display implementation to enable multiple display types.">
<polygon fill="white" stroke="black" points="105.74,-290.5 105.74,-309.5 202.74,-309.5 202.74,-290.5 105.74,-290.5"/>
<text text-anchor="middle" x="154.24" y="-297.5" font-family="Helvetica,sans-Serif" font-size="10.00">DisplayInterface</text>
</a>
</g>
</g>
<!-- Node4&#45;&gt;Node10 -->
<g id="edge13" class="edge">
<title>Node4&#45;&gt;Node10</title>
<path fill="none" stroke="#9a32cd" stroke-dasharray="5,2" d="M366.39,-357.37C345.45,-352.15 318.29,-345.3 294.24,-339 256.59,-329.14 213.4,-317.34 185.06,-309.54"/>
<polygon fill="#9a32cd" stroke="#9a32cd" points="365.58,-360.78 376.13,-359.8 367.27,-353.99 365.58,-360.78"/>
<text text-anchor="middle" x="314.24" y="-331" font-family="Helvetica,sans-Serif" font-size="10.00"> _logger</text>
</g>
<!-- Node4&#45;&gt;Node11 -->
<g id="edge21" class="edge">
<title>Node4&#45;&gt;Node11</title>
<path fill="none" stroke="#9a32cd" stroke-dasharray="5,2" d="M399.51,-347.09C396.01,-316.37 385.97,-254.58 359.24,-210 344.9,-186.09 319.58,-164.97 304.51,-153.68"/>
<polygon fill="#9a32cd" stroke="#9a32cd" points="396.05,-347.65 400.56,-357.24 403.02,-346.93 396.05,-347.65"/>
<text text-anchor="middle" x="405.24" y="-258.5" font-family="Helvetica,sans-Serif" font-size="10.00"> _logger</text>
</g>
<!-- Node4&#45;&gt;Node12 -->
<g id="edge19" class="edge">
<title>Node4&#45;&gt;Node12</title>
<path fill="none" stroke="#9a32cd" stroke-dasharray="5,2" d="M366.03,-365.79C286.31,-364.5 95.8,-356.5 56.24,-310 49.63,-302.24 50.66,-261.47 59.24,-250 66.8,-239.88 78.49,-233.42 90.36,-229.29"/>
<polygon fill="#9a32cd" stroke="#9a32cd" points="366.03,-369.29 376.08,-365.93 366.13,-362.29 366.03,-369.29"/>
<text text-anchor="middle" x="76.24" y="-297.5" font-family="Helvetica,sans-Serif" font-size="10.00"> _logger</text>
</g>
<!-- Node5 -->
<g id="node5" class="node">
<title>Node5</title>
<g id="a_node5"><a xlink:href="classStream.html" target="_top" xlink:title="Class to mock the basic Stream function equivalent of the Arduino framework.">
<polygon fill="white" stroke="black" points="656.24,-424.5 656.24,-443.5 708.24,-443.5 708.24,-424.5 656.24,-424.5"/>
<text text-anchor="middle" x="682.24" y="-431.5" font-family="Helvetica,sans-Serif" font-size="10.00">Stream</text>
</a>
</g>
</g>
<!-- Node5&#45;&gt;Node1 -->
<g id="edge28" class="edge">
<title>Node5&#45;&gt;Node1</title>
<path fill="none" stroke="#9a32cd" stroke-dasharray="5,2" d="M718.46,-431.63C760.53,-427.86 824.24,-414.49 824.24,-368 824.24,-368 824.24,-368 824.24,-76 824.24,-18 623.27,-11.01 536.91,-10.68"/>
<polygon fill="#9a32cd" stroke="#9a32cd" points="717.99,-428.15 708.28,-432.39 718.52,-435.13 717.99,-428.15"/>
<text text-anchor="middle" x="887.74" y="-224" font-family="Helvetica,sans-Serif" font-size="10.00"> _commandStationStream</text>
<text text-anchor="middle" x="887.74" y="-213" font-family="Helvetica,sans-Serif" font-size="10.00">_consoleStream</text>
</g>
<!-- Node5&#45;&gt;Node2 -->
<g id="edge23" class="edge">
<title>Node5&#45;&gt;Node2</title>
<path fill="none" stroke="#9a32cd" stroke-dasharray="5,2" d="M682.24,-414.13C682.24,-401.16 682.24,-383.54 682.24,-368 682.24,-368 682.24,-368 682.24,-143 682.24,-92.32 507.09,-81.15 432.86,-78.69"/>
<polygon fill="#9a32cd" stroke="#9a32cd" points="678.74,-414.17 682.24,-424.17 685.74,-414.17 678.74,-414.17"/>
<text text-anchor="middle" x="745.74" y="-264" font-family="Helvetica,sans-Serif" font-size="10.00"> _commandStationStream</text>
<text text-anchor="middle" x="745.74" y="-253" font-family="Helvetica,sans-Serif" font-size="10.00">_consoleStream</text>
</g>
<!-- Node5&#45;&gt;Node4 -->
<g id="edge4" class="edge">
<title>Node5&#45;&gt;Node4</title>
<path fill="none" stroke="#9a32cd" stroke-dasharray="5,2" d="M646.25,-424.67C588.4,-411.29 476.17,-385.33 426.24,-373.78"/>
<polygon fill="#9a32cd" stroke="#9a32cd" points="645.52,-428.1 656.05,-426.94 647.1,-421.28 645.52,-428.1"/>
<text text-anchor="middle" x="597.24" y="-398" font-family="Helvetica,sans-Serif" font-size="10.00"> _outputStream</text>
</g>
<!-- Node6&#45;&gt;Node1 -->
<g id="edge24" class="edge">
<title>Node6&#45;&gt;Node1</title>
<path fill="none" stroke="#9a32cd" stroke-dasharray="5,2" d="M514.61,-162.23C518.89,-134.53 524.46,-81.32 513.24,-38 511.51,-31.36 507.76,-24.61 504.45,-19.52"/>
<polygon fill="#9a32cd" stroke="#9a32cd" points="511.1,-161.99 512.9,-172.43 518,-163.14 511.1,-161.99"/>
<text text-anchor="middle" x="562.24" y="-108" font-family="Helvetica,sans-Serif" font-size="10.00"> _screenManager</text>
</g>
<!-- Node6&#45;&gt;Node2 -->
<g id="edge5" class="edge">
<title>Node6&#45;&gt;Node2</title>
<path fill="none" stroke="#9a32cd" stroke-dasharray="5,2" d="M455.24,-170C445.71,-166.16 436.55,-160.99 429.24,-154 409.73,-135.37 403.19,-102.24 401.12,-86.61"/>
<polygon fill="#9a32cd" stroke="#9a32cd" points="454.23,-173.36 464.82,-173.41 456.57,-166.77 454.23,-173.36"/>
<text text-anchor="middle" x="471.24" y="-141.5" font-family="Helvetica,sans-Serif" font-size="10.00"> _screenManager</text>
</g>
<!-- Node7&#45;&gt;Node6 -->
<g id="edge6" class="edge">
<title>Node7&#45;&gt;Node6</title>
<path fill="none" stroke="#9a32cd" stroke-dasharray="5,2" d="M527.18,-280.37C523.01,-254.86 515.68,-210.12 512.63,-191.5"/>
<polygon fill="#9a32cd" stroke="#9a32cd" points="523.74,-280.98 528.81,-290.28 530.65,-279.85 523.74,-280.98"/>
<text text-anchor="middle" x="556.74" y="-258.5" font-family="Helvetica,sans-Serif" font-size="10.00"> _firstScreen</text>
</g>
<!-- Node7&#45;&gt;Node7 -->
<g id="edge7" class="edge">
<title>Node7&#45;&gt;Node7</title>
<path fill="none" stroke="#9a32cd" stroke-dasharray="5,2" d="M565.68,-305.25C570.23,-304.34 573.24,-302.59 573.24,-300 573.24,-295.75 565.15,-293.76 555.41,-294.02"/>
<polygon fill="#9a32cd" stroke="#9a32cd" points="565.14,-301.78 555.41,-305.98 565.63,-308.77 565.14,-301.78"/>
<text text-anchor="middle" x="588.74" y="-297.5" font-family="Helvetica,sans-Serif" font-size="10.00"> _next</text>
</g>
<!-- Node9&#45;&gt;Node1 -->
<g id="edge25" class="edge">
<title>Node9&#45;&gt;Node1</title>
<path fill="none" stroke="#9a32cd" stroke-dasharray="5,2" d="M72.97,-163.26C84.12,-146.19 103.01,-120.72 125.24,-105 229.91,-30.95 387.39,-15.1 459.58,-11.8"/>
<polygon fill="#9a32cd" stroke="#9a32cd" points="69.71,-161.87 67.34,-172.2 75.63,-165.6 69.71,-161.87"/>
<text text-anchor="middle" x="168.74" y="-108" font-family="Helvetica,sans-Serif" font-size="10.00"> _displayManager</text>
</g>
<!-- Node9&#45;&gt;Node2 -->
<g id="edge10" class="edge">
<title>Node9&#45;&gt;Node2</title>
<path fill="none" stroke="#9a32cd" stroke-dasharray="5,2" d="M85.11,-167.29C103.3,-156.89 129.69,-142.91 154.24,-134 228.35,-107.11 319.86,-90.35 367.66,-82.77"/>
<polygon fill="#9a32cd" stroke="#9a32cd" points="83.28,-164.3 76.39,-172.36 86.8,-170.35 83.28,-164.3"/>
<text text-anchor="middle" x="197.74" y="-141.5" font-family="Helvetica,sans-Serif" font-size="10.00"> _displayManager</text>
</g>
<!-- Node10&#45;&gt;Node9 -->
<g id="edge12" class="edge">
<title>Node10&#45;&gt;Node9</title>
<path fill="none" stroke="#9a32cd" stroke-dasharray="5,2" d="M95.91,-288.02C87.63,-284.17 80,-278.98 74.24,-272 54.89,-248.55 58.06,-209.18 60.66,-191.76"/>
<polygon fill="#9a32cd" stroke="#9a32cd" points="94.87,-291.37 105.45,-291.82 97.46,-284.87 94.87,-291.37"/>
<text text-anchor="middle" x="106.24" y="-258.5" font-family="Helvetica,sans-Serif" font-size="10.00"> _firstDisplay</text>
</g>
<!-- Node10&#45;&gt;Node10 -->
<g id="edge14" class="edge">
<title>Node10&#45;&gt;Node10</title>
<path fill="none" stroke="#9a32cd" stroke-dasharray="5,2" d="M213.12,-304.58C217.82,-303.58 220.74,-302.05 220.74,-300 220.74,-296.72 213.28,-294.78 202.95,-294.19"/>
<polygon fill="#9a32cd" stroke="#9a32cd" points="212.46,-301.13 202.95,-305.81 213.3,-308.08 212.46,-301.13"/>
<text text-anchor="middle" x="236.24" y="-297.5" font-family="Helvetica,sans-Serif" font-size="10.00"> _next</text>
</g>
<!-- Node10&#45;&gt;Node11 -->
<g id="edge22" class="edge">
<title>Node10&#45;&gt;Node11</title>
<path fill="none" stroke="#9a32cd" stroke-dasharray="5,2" d="M178.64,-284.86C184.37,-281.04 190.25,-276.65 195.24,-272 236.63,-233.4 273.65,-175.67 286.98,-153.81"/>
<polygon fill="#9a32cd" stroke="#9a32cd" points="176.5,-282.08 169.93,-290.38 180.25,-287.99 176.5,-282.08"/>
<text text-anchor="middle" x="271.24" y="-218.5" font-family="Helvetica,sans-Serif" font-size="10.00"> _display</text>
</g>
<!-- Node10&#45;&gt;Node12 -->
<g id="edge20" class="edge">
<title>Node10&#45;&gt;Node12</title>
<path fill="none" stroke="#9a32cd" stroke-dasharray="5,2" d="M149.26,-280.77C144.97,-265.02 138.94,-242.92 135.64,-230.81"/>
<polygon fill="#9a32cd" stroke="#9a32cd" points="145.9,-281.74 151.91,-290.47 152.65,-279.9 145.9,-281.74"/>
<text text-anchor="middle" x="169.24" y="-258.5" font-family="Helvetica,sans-Serif" font-size="10.00"> _display</text>
</g>
<!-- Node11&#45;&gt;Node1 -->
<g id="edge26" class="edge">
<title>Node11&#45;&gt;Node1</title>
<path fill="none" stroke="#9a32cd" stroke-dasharray="5,2" d="M283.22,-125.22C276.14,-108.47 269.42,-83.56 282.24,-67 303.75,-39.2 403.33,-22.67 459.47,-15.4"/>
<polygon fill="#9a32cd" stroke="#9a32cd" points="280.11,-126.84 287.5,-134.44 286.46,-123.89 280.11,-126.84"/>
<text text-anchor="middle" x="320.24" y="-74.5" font-family="Helvetica,sans-Serif" font-size="10.00"> _inputManager</text>
</g>
<!-- Node11&#45;&gt;Node2 -->
<g id="edge15" class="edge">
<title>Node11&#45;&gt;Node2</title>
<path fill="none" stroke="#9a32cd" stroke-dasharray="5,2" d="M288.32,-124.09C288.01,-117.43 289.01,-110.28 293.24,-105 297.98,-99.07 337.87,-90.14 367.56,-84.19"/>
<polygon fill="#9a32cd" stroke="#9a32cd" points="284.92,-125.03 289.77,-134.45 291.85,-124.07 284.92,-125.03"/>
<text text-anchor="middle" x="331.24" y="-108" font-family="Helvetica,sans-Serif" font-size="10.00"> _inputManager</text>
</g>
<!-- Node12&#45;&gt;Node11 -->
<g id="edge17" class="edge">
<title>Node12&#45;&gt;Node11</title>
<path fill="none" stroke="#9a32cd" stroke-dasharray="5,2" d="M140.59,-201.99C145.72,-191.67 153.57,-179.34 164.24,-172 171.39,-167.08 215.72,-158.39 250.22,-152.2"/>
<polygon fill="#9a32cd" stroke="#9a32cd" points="137.28,-200.84 136.36,-211.39 143.66,-203.71 137.28,-200.84"/>
<text text-anchor="middle" x="181.24" y="-179.5" font-family="Helvetica,sans-Serif" font-size="10.00"> _input</text>
</g>
</g>
</svg>
        <g id="navigator" transform="translate(0 0)" fill="#404254">
                <rect fill="#f2f5e9" fill-opacity="0.5" stroke="#606060" stroke-width=".5" x="0" y="0" width="60" height="60"/>
                <use id="zoomplus" xlink:href="#zoomPlus" x="17" y="9" onmousedown="handleZoom(evt,'in')"/>
                <use id="zoomminus" xlink:href="#zoomMin" x="42" y="9" onmousedown="handleZoom(evt,'out')"/>
                <use id="reset" xlink:href="#resetDef" x="30" y="36" onmousedown="handleReset()"/>
                <g id="arrowUp" xlink:href="#dirArrow" transform="translate(30 24)" onmousedown="handlePan(0,-1)">
                  <use xlink:href="#rim" fill="#404040">
                        <set attributeName="fill" to="#808080" begin="arrowUp.mouseover" end="arrowUp.mouseout"/>
                  </use>
                  <path fill="none" stroke="white" stroke-width="1.5" d="M0,-3.0v7 M-2.5,-0.5L0,-3.0L2.5,-0.5"/>
                </g>
                <g id="arrowRight" xlink:href="#dirArrow" transform="rotate(90) translate(36 -43)" onmousedown="handlePan(1,0)">
                  <use xlink:href="#rim" fill="#404040">
                        <set attributeName="fill" to="#808080" begin="arrowRight.mouseover" end="arrowRight.mouseout"/>
                  </use>
                  <path fill="none" stroke="white" stroke-width="1.5" d="M0,-3.0v7 M-2.5,-0.5L0,-3.0L2.5,-0.5"/>
                </g>
                <g id="arrowDown" xlink:href="#dirArrow" transform="rotate(180) translate(-30 -48)" onmousedown="handlePan(0,1)">
                  <use xlink:href="#rim" fill="#404040">
                        <set attributeName="fill" to="#808080" begin="arrowDown.mouseover" end="arrowDown.mouseout"/>
                  </use>
                  <path fill="none" stroke="white" stroke-width="1.5" d="M0,-3.0v7 M-2.5,-0.5L0,-3.0L2.5,-0.5"/>
                </g>
                <g id="arrowLeft" xlink:href="#dirArrow" transform="rotate(270) translate(-36 17)" onmousedown="handlePan(-1,0)">
                  <use xlink:href="#rim" fill="#404040">
                        <set attributeName="fill" to="#808080" begin="arrowLeft.mouseover" end="arrowLeft.mouseout"/>
                  </use>
                  <path fill="none" stroke="white" stroke-width="1.5" d="M0,-3.0v7 M-2.5,-0.5L0,-3.0L2.5,-0.5"/>
                </g>
        </g>
        <svg viewBox="0 0 15 15" width="100%" height="30px" preserveAspectRatio="xMaxYMin meet">
         <g id="arrow_out" transform="scale(0.3 0.3)">
          <a xlink:href="classConfigurator__coll__graph_org.svg" target="_base">
           <rect id="button" ry="5" rx="5" y="6" x="6" height="38" width="38"
                fill="#f2f5e9" fill-opacity="0.5" stroke="#606060" stroke-width="1.0"/>
           <path id="arrow"
             d="M 11.500037,31.436501 C 11.940474,20.09759 22.043105,11.32322 32.158766,21.979434 L 37.068811,17.246167 C 37.068811,17.246167 37.088388,32 37.088388,32 L 22.160133,31.978069 C 22.160133,31.978069 26.997745,27.140456 26.997745,27.140456 C 18.528582,18.264221 13.291696,25.230495 11.500037,31.436501 z"
             style="fill:#404040;"/>
          </a>
         </g>
        </svg>
</svg>
