<?xml version="1.0" encoding="UTF-8" standalone="no"?>
<!DOCTYPE svg PUBLIC "-//W3C//DTD SVG 1.1//EN"
 "http://www.w3.org/Graphics/SVG/1.1/DTD/svg11.dtd">
<!-- Generated by graphviz version 2.43.0 (0)
 -->
<!-- Title: DisplayInterfaceTests Pages: 1 -->
<svg width="216pt" height="219pt"
 viewBox="0.00 0.00 215.50 219.00" xmlns="http://www.w3.org/2000/svg" xmlns:xlink="http://www.w3.org/1999/xlink">
<g id="graph0" class="graph" transform="scale(1 1) rotate(0) translate(4 215)">
<title>DisplayInterfaceTests</title>
<polygon fill="white" stroke="transparent" points="-4,4 -4,-215 211.5,-215 211.5,4 -4,4"/>
<!-- Node1 -->
<g id="node1" class="node">
<title>Node1</title>
<g id="a_node1"><a xlink:title="Test harness for physical display interface tests.">
<polygon fill="#bfbfbf" stroke="black" points="0,-0.5 0,-19.5 122,-19.5 122,-0.5 0,-0.5"/>
<text text-anchor="middle" x="61" y="-7.5" font-family="Helvetica,sans-Serif" font-size="10.00">DisplayInterfaceTests</text>
</a>
</g>
</g>
<!-- Node2 -->
<g id="node2" class="node">
<title>Node2</title>
<g id="a_node2"><a xlink:title=" ">
<polygon fill="white" stroke="#bfbfbf" points="16,-67.5 16,-86.5 52,-86.5 52,-67.5 16,-67.5"/>
<text text-anchor="middle" x="34" y="-74.5" font-family="Helvetica,sans-Serif" font-size="10.00">Test</text>
</a>
</g>
</g>
<!-- Node2&#45;&gt;Node1 -->
<g id="edge1" class="edge">
<title>Node2&#45;&gt;Node1</title>
<path fill="none" stroke="midnightblue" d="M41.56,-57.79C46.75,-45.31 53.39,-29.31 57.42,-19.63"/>
<polygon fill="midnightblue" stroke="midnightblue" points="38.25,-56.66 37.64,-67.23 44.71,-59.34 38.25,-56.66"/>
</g>
<!-- Node3 -->
<g id="node3" class="node">
<title>Node3</title>
<g id="a_node3"><a xlink:href="classMockDisplay.html" target="_top" xlink:title="Mock physical display class.">
<polygon fill="white" stroke="black" points="70,-67.5 70,-86.5 150,-86.5 150,-67.5 70,-67.5"/>
<text text-anchor="middle" x="110" y="-74.5" font-family="Helvetica,sans-Serif" font-size="10.00">MockDisplay</text>
</a>
</g>
</g>
<!-- Node3&#45;&gt;Node1 -->
<g id="edge2" class="edge">
<title>Node3&#45;&gt;Node1</title>
<path fill="none" stroke="#9a32cd" stroke-dasharray="5,2" d="M97.11,-58.9C87.59,-46.27 75.02,-29.6 67.5,-19.63"/>
<polygon fill="#9a32cd" stroke="#9a32cd" points="94.58,-61.36 103.39,-67.23 100.17,-57.14 94.58,-61.36"/>
<text text-anchor="middle" x="107.5" y="-41" font-family="Helvetica,sans-Serif" font-size="10.00"> display</text>
</g>
<!-- Node4 -->
<g id="node4" class="node">
<title>Node4</title>
<g id="a_node4"><a xlink:href="classDisplayInterface.html" target="_top" xlink:title="Class to abstract away all physical display implementation to enable multiple display types.">
<polygon fill="white" stroke="black" points="61.5,-124.5 61.5,-143.5 158.5,-143.5 158.5,-124.5 61.5,-124.5"/>
<text text-anchor="middle" x="110" y="-131.5" font-family="Helvetica,sans-Serif" font-size="10.00">DisplayInterface</text>
</a>
</g>
</g>
<!-- Node4&#45;&gt;Node3 -->
<g id="edge3" class="edge">
<title>Node4&#45;&gt;Node3</title>
<path fill="none" stroke="midnightblue" d="M110,-114.12C110,-104.82 110,-94.06 110,-86.71"/>
<polygon fill="midnightblue" stroke="midnightblue" points="106.5,-114.41 110,-124.41 113.5,-114.41 106.5,-114.41"/>
</g>
<!-- Node4&#45;&gt;Node4 -->
<g id="edge5" class="edge">
<title>Node4&#45;&gt;Node4</title>
<path fill="none" stroke="#9a32cd" stroke-dasharray="5,2" d="M168.88,-138C173.59,-137.13 176.5,-135.79 176.5,-134 176.5,-131.13 169.04,-129.44 158.71,-128.92"/>
<polygon fill="#9a32cd" stroke="#9a32cd" points="168.29,-134.55 158.71,-139.08 169.03,-141.51 168.29,-134.55"/>
<text text-anchor="middle" x="192" y="-131.5" font-family="Helvetica,sans-Serif" font-size="10.00"> _next</text>
</g>
<!-- Node5 -->
<g id="node5" class="node">
<title>Node5</title>
<g id="a_node5"><a xlink:href="classLogger.html" target="_top" xlink:title="Class to enable simple logging to a Stream object with different log levels This enables embedding pe...">
<polygon fill="white" stroke="red" points="85,-191.5 85,-210.5 135,-210.5 135,-191.5 85,-191.5"/>
<text text-anchor="middle" x="110" y="-198.5" font-family="Helvetica,sans-Serif" font-size="10.00">Logger</text>
</a>
</g>
</g>
<!-- Node5&#45;&gt;Node4 -->
<g id="edge4" class="edge">
<title>Node5&#45;&gt;Node4</title>
<path fill="none" stroke="#9a32cd" stroke-dasharray="5,2" d="M110,-181.04C110,-168.67 110,-153.12 110,-143.63"/>
<polygon fill="#9a32cd" stroke="#9a32cd" points="106.5,-181.23 110,-191.23 113.5,-181.23 106.5,-181.23"/>
<text text-anchor="middle" x="130" y="-165" font-family="Helvetica,sans-Serif" font-size="10.00"> _logger</text>
</g>
</g>
</svg>
