<?xml version="1.0" encoding="UTF-8" standalone="no"?>
<!DOCTYPE svg PUBLIC "-//W3C//DTD SVG 1.1//EN"
 "http://www.w3.org/Graphics/SVG/1.1/DTD/svg11.dtd">
<!-- Generated by graphviz version 2.43.0 (0)
 -->
<!-- Title: MockArduino::getInstance Pages: 1 -->
<!--zoomable 132 -->
<svg id="main" version="1.1" xmlns="http://www.w3.org/2000/svg" xmlns:xlink="http://www.w3.org/1999/xlink" xml:space="preserve" onload="init(evt)">
<style type="text/css"><![CDATA[
.edge:hover path { stroke: red; }
.edge:hover polygon { stroke: red; fill: red; }
]]></style>
<script type="text/javascript"><![CDATA[
var edges = document.getElementsByTagName('g');
if (edges && edges.length) {
  for (var i=0;i<edges.length;i++) {
    if (edges[i].id.substr(0,4)=='edge') {
      edges[i].setAttribute('class','edge');
    }
  }
}
]]></script>
        <defs>
                <circle id="rim" cx="0" cy="0" r="7"/>
                <circle id="rim2" cx="0" cy="0" r="3.5"/>
                <g id="zoomPlus">
                        <use xlink:href="#rim" fill="#404040">
                                <set attributeName="fill" to="#808080" begin="zoomplus.mouseover" end="zoomplus.mouseout"/>
                        </use>
                        <path d="M-4,0h8M0,-4v8" fill="none" stroke="white" stroke-width="1.5" pointer-events="none"/>
                </g>
                <g id="zoomMin">
                        <use xlink:href="#rim" fill="#404040">
                                <set attributeName="fill" to="#808080" begin="zoomminus.mouseover" end="zoomminus.mouseout"/>
                        </use>
                        <path d="M-4,0h8" fill="none" stroke="white" stroke-width="1.5" pointer-events="none"/>
                </g>
                <g id="dirArrow">
                        <path fill="none" stroke="white" stroke-width="1.5" d="M0,-3.0v7 M-2.5,-0.5L0,-3.0L2.5,-0.5"/>
                </g>
               <g id="resetDef">
                       <use xlink:href="#rim2" fill="#404040">
                               <set attributeName="fill" to="#808080" begin="reset.mouseover" end="reset.mouseout"/>
                       </use>
               </g>
        </defs>

<script type="text/javascript">
var viewWidth = 712;
var viewHeight = 132;
var sectionId = 'dynsection-0';
</script>
<script xlink:href="svgpan.js"/>
<svg id="graph" class="graph">
<g id="viewport">
<title>MockArduino::getInstance</title>
<polygon fill="white" stroke="transparent" points="-4,4 -4,-127.5 708,-127.5 708,4 -4,4"/>
<!-- Node1 -->
<g id="node1" class="node">
<title>Node1</title>
<g id="a_node1"><a xlink:title=" ">
<polygon fill="#bfbfbf" stroke="black" points="561,-38.5 561,-57.5 704,-57.5 704,-38.5 561,-38.5"/>
<text text-anchor="middle" x="632.5" y="-45.5" font-family="Helvetica,sans-Serif" font-size="10.00">MockArduino::getInstance</text>
</a>
</g>
</g>
<!-- Node2 -->
<g id="node2" class="node">
<title>Node2</title>
<g id="a_node2"><a xlink:href="Arduino_8h.html#ae9647a9a056bb33fd1206da70c83bde3" target="_top" xlink:title=" ">
<polygon fill="white" stroke="black" points="451,-76.5 451,-95.5 525,-95.5 525,-76.5 451,-76.5"/>
<text text-anchor="middle" x="488" y="-83.5" font-family="Helvetica,sans-Serif" font-size="10.00">digitalWrite</text>
</a>
</g>
</g>
<!-- Node1&#45;&gt;Node2 -->
<g id="edge1" class="edge">
<title>Node1&#45;&gt;Node2</title>
<path fill="none" stroke="midnightblue" d="M585.85,-60.17C566.14,-65.43 543.43,-71.49 524.95,-76.41"/>
<polygon fill="midnightblue" stroke="midnightblue" points="586.78,-63.55 595.54,-57.59 584.98,-56.78 586.78,-63.55"/>
</g>
<!-- Node15 -->
<g id="node7" class="node">
<title>Node15</title>
<g id="a_node7"><a xlink:href="Arduino_8h.html#ac7bdb53335528ad073ca13eb2b1bdc00" target="_top" xlink:title=" ">
<polygon fill="white" stroke="black" points="458.5,-38.5 458.5,-57.5 517.5,-57.5 517.5,-38.5 458.5,-38.5"/>
<text text-anchor="middle" x="488" y="-45.5" font-family="Helvetica,sans-Serif" font-size="10.00">pinMode</text>
</a>
</g>
</g>
<!-- Node1&#45;&gt;Node15 -->
<g id="edge8" class="edge">
<title>Node1&#45;&gt;Node15</title>
<path fill="none" stroke="midnightblue" d="M550.35,-48C538.67,-48 527.36,-48 517.69,-48"/>
<polygon fill="midnightblue" stroke="midnightblue" points="550.67,-51.5 560.67,-48 550.67,-44.5 550.67,-51.5"/>
</g>
<!-- Node16 -->
<g id="node8" class="node">
<title>Node16</title>
<g id="a_node8"><a xlink:href="test__DisplayManualSPISwitching_8cpp.html#a928ab800b1e1899f185fb572718ec014" target="_top" xlink:title="Test that SPI displays can be switched manually if their library doesn&#39;t support it (eg....">
<polygon fill="white" stroke="black" points="462,-0.5 462,-19.5 514,-19.5 514,-0.5 462,-0.5"/>
<text text-anchor="middle" x="488" y="-7.5" font-family="Helvetica,sans-Serif" font-size="10.00">TEST_F</text>
</a>
</g>
</g>
<!-- Node1&#45;&gt;Node16 -->
<g id="edge9" class="edge">
<title>Node1&#45;&gt;Node16</title>
<path fill="none" stroke="midnightblue" d="M585.68,-35.78C561.97,-29.46 533.93,-21.98 514.17,-16.71"/>
<polygon fill="midnightblue" stroke="midnightblue" points="584.98,-39.22 595.54,-38.41 586.78,-32.45 584.98,-39.22"/>
</g>
<!-- Node3 -->
<g id="node3" class="node">
<title>Node3</title>
<g id="a_node3"><a xlink:href="classDisplayManager.html#ab5225aac5f432dd65258e1d568bde88d" target="_top" xlink:title="Manually deselects SPI displays that require manual selecting via the CS pin &#45; sets pin high.">
<polygon fill="white" stroke="black" points="246.5,-93 246.5,-123 395.5,-123 395.5,-93 246.5,-93"/>
<text text-anchor="start" x="254.5" y="-111" font-family="Helvetica,sans-Serif" font-size="10.00">DisplayManager::_deselect</text>
<text text-anchor="middle" x="321" y="-100" font-family="Helvetica,sans-Serif" font-size="10.00">SPIDisplay</text>
</a>
</g>
</g>
<!-- Node2&#45;&gt;Node3 -->
<g id="edge2" class="edge">
<title>Node2&#45;&gt;Node3</title>
<path fill="none" stroke="midnightblue" d="M440.5,-92.2C426.57,-94.06 410.93,-96.14 395.7,-98.17"/>
<polygon fill="midnightblue" stroke="midnightblue" points="441.34,-95.62 450.79,-90.83 440.42,-88.68 441.34,-95.62"/>
</g>
<!-- Node14 -->
<g id="node6" class="node">
<title>Node14</title>
<g id="a_node6"><a xlink:href="classDisplayManager.html#abcac9213f163018979f2a226ecf53882" target="_top" xlink:title="Manually selects SPI displays that require manual selecting via the CS pin &#45; sets pin low.">
<polygon fill="white" stroke="black" points="227,-54.5 227,-73.5 415,-73.5 415,-54.5 227,-54.5"/>
<text text-anchor="middle" x="321" y="-61.5" font-family="Helvetica,sans-Serif" font-size="10.00">DisplayManager::_selectSPIDisplay</text>
</a>
</g>
</g>
<!-- Node2&#45;&gt;Node14 -->
<g id="edge5" class="edge">
<title>Node2&#45;&gt;Node14</title>
<path fill="none" stroke="midnightblue" d="M440.49,-79.8C425.85,-77.85 409.32,-75.64 393.36,-73.51"/>
<polygon fill="midnightblue" stroke="midnightblue" points="440.42,-83.32 450.79,-81.17 441.34,-76.38 440.42,-83.32"/>
</g>
<!-- Node4 -->
<g id="node4" class="node">
<title>Node4</title>
<g id="a_node4"><a xlink:href="classDisplayManager.html#aa0e0e26134a34beeb30e27c00b8e829f" target="_top" xlink:title="Calls the displayStartupInfo of all Display instances to display the version.">
<polygon fill="white" stroke="red" points="0,-96.5 0,-115.5 191,-115.5 191,-96.5 0,-96.5"/>
<text text-anchor="middle" x="95.5" y="-103.5" font-family="Helvetica,sans-Serif" font-size="10.00">DisplayManager::displayStartupInfo</text>
</a>
</g>
</g>
<!-- Node3&#45;&gt;Node4 -->
<g id="edge3" class="edge">
<title>Node3&#45;&gt;Node4</title>
<path fill="none" stroke="midnightblue" d="M236.19,-107.25C221.56,-107.12 206.25,-106.98 191.35,-106.85"/>
<polygon fill="midnightblue" stroke="midnightblue" points="236.17,-110.75 246.2,-107.34 236.23,-103.75 236.17,-110.75"/>
</g>
<!-- Node10 -->
<g id="node5" class="node">
<title>Node10</title>
<g id="a_node5"><a xlink:href="classDisplayManager.html#ad53dcac2e939893727d27187524733c6" target="_top" xlink:title="Call this routinely to ensure all displays are updated with screens.">
<polygon fill="white" stroke="red" points="27.5,-57.5 27.5,-76.5 163.5,-76.5 163.5,-57.5 27.5,-57.5"/>
<text text-anchor="middle" x="95.5" y="-64.5" font-family="Helvetica,sans-Serif" font-size="10.00">DisplayManager::update</text>
</a>
</g>
</g>
<!-- Node3&#45;&gt;Node10 -->
<g id="edge4" class="edge">
<title>Node3&#45;&gt;Node10</title>
<path fill="none" stroke="midnightblue" d="M236.3,-92.65C206.77,-87.23 174.44,-81.3 148.32,-76.51"/>
<polygon fill="midnightblue" stroke="midnightblue" points="235.73,-96.1 246.2,-94.46 236.99,-89.21 235.73,-96.1"/>
</g>
<!-- Node14&#45;&gt;Node4 -->
<g id="edge6" class="edge">
<title>Node14&#45;&gt;Node4</title>
<path fill="none" stroke="midnightblue" d="M259.18,-75.43C224.14,-82.01 180.61,-90.19 147.4,-96.43"/>
<polygon fill="midnightblue" stroke="midnightblue" points="260.1,-78.82 269.28,-73.53 258.81,-71.94 260.1,-78.82"/>
</g>
<!-- Node14&#45;&gt;Node10 -->
<g id="edge7" class="edge">
<title>Node14&#45;&gt;Node10</title>
<path fill="none" stroke="midnightblue" d="M216.59,-65.39C198.61,-65.63 180.33,-65.87 163.65,-66.1"/>
<polygon fill="midnightblue" stroke="midnightblue" points="216.88,-68.88 226.83,-65.25 216.79,-61.89 216.88,-68.88"/>
</g>
</g>
</svg>
        <g id="navigator" transform="translate(0 0)" fill="#404254">
                <rect fill="#f2f5e9" fill-opacity="0.5" stroke="#606060" stroke-width=".5" x="0" y="0" width="60" height="60"/>
                <use id="zoomplus" xlink:href="#zoomPlus" x="17" y="9" onmousedown="handleZoom(evt,'in')"/>
                <use id="zoomminus" xlink:href="#zoomMin" x="42" y="9" onmousedown="handleZoom(evt,'out')"/>
                <use id="reset" xlink:href="#resetDef" x="30" y="36" onmousedown="handleReset()"/>
                <g id="arrowUp" xlink:href="#dirArrow" transform="translate(30 24)" onmousedown="handlePan(0,-1)">
                  <use xlink:href="#rim" fill="#404040">
                        <set attributeName="fill" to="#808080" begin="arrowUp.mouseover" end="arrowUp.mouseout"/>
                  </use>
                  <path fill="none" stroke="white" stroke-width="1.5" d="M0,-3.0v7 M-2.5,-0.5L0,-3.0L2.5,-0.5"/>
                </g>
                <g id="arrowRight" xlink:href="#dirArrow" transform="rotate(90) translate(36 -43)" onmousedown="handlePan(1,0)">
                  <use xlink:href="#rim" fill="#404040">
                        <set attributeName="fill" to="#808080" begin="arrowRight.mouseover" end="arrowRight.mouseout"/>
                  </use>
                  <path fill="none" stroke="white" stroke-width="1.5" d="M0,-3.0v7 M-2.5,-0.5L0,-3.0L2.5,-0.5"/>
                </g>
                <g id="arrowDown" xlink:href="#dirArrow" transform="rotate(180) translate(-30 -48)" onmousedown="handlePan(0,1)">
                  <use xlink:href="#rim" fill="#404040">
                        <set attributeName="fill" to="#808080" begin="arrowDown.mouseover" end="arrowDown.mouseout"/>
                  </use>
                  <path fill="none" stroke="white" stroke-width="1.5" d="M0,-3.0v7 M-2.5,-0.5L0,-3.0L2.5,-0.5"/>
                </g>
                <g id="arrowLeft" xlink:href="#dirArrow" transform="rotate(270) translate(-36 17)" onmousedown="handlePan(-1,0)">
                  <use xlink:href="#rim" fill="#404040">
                        <set attributeName="fill" to="#808080" begin="arrowLeft.mouseover" end="arrowLeft.mouseout"/>
                  </use>
                  <path fill="none" stroke="white" stroke-width="1.5" d="M0,-3.0v7 M-2.5,-0.5L0,-3.0L2.5,-0.5"/>
                </g>
        </g>
        <svg viewBox="0 0 15 15" width="100%" height="30px" preserveAspectRatio="xMaxYMin meet">
         <g id="arrow_out" transform="scale(0.3 0.3)">
          <a xlink:href="classMockArduino_a31b8132fed4cf21517931e448ba515ea_icgraph_org.svg" target="_base">
           <rect id="button" ry="5" rx="5" y="6" x="6" height="38" width="38"
                fill="#f2f5e9" fill-opacity="0.5" stroke="#606060" stroke-width="1.0"/>
           <path id="arrow"
             d="M 11.500037,31.436501 C 11.940474,20.09759 22.043105,11.32322 32.158766,21.979434 L 37.068811,17.246167 C 37.068811,17.246167 37.088388,32 37.088388,32 L 22.160133,31.978069 C 22.160133,31.978069 26.997745,27.140456 26.997745,27.140456 C 18.528582,18.264221 13.291696,25.230495 11.500037,31.436501 z"
             style="fill:#404040;"/>
          </a>
         </g>
        </svg>
</svg>
