<?xml version="1.0" encoding="UTF-8" standalone="no"?>
<!DOCTYPE svg PUBLIC "-//W3C//DTD SVG 1.1//EN"
 "http://www.w3.org/Graphics/SVG/1.1/DTD/svg11.dtd">
<!-- Generated by graphviz version 2.43.0 (0)
 -->
<!-- Title: DisplayInterface::getNext Pages: 1 -->
<!--zoomable 306 -->
<svg id="main" version="1.1" xmlns="http://www.w3.org/2000/svg" xmlns:xlink="http://www.w3.org/1999/xlink" xml:space="preserve" onload="init(evt)">
<style type="text/css"><![CDATA[
.edge:hover path { stroke: red; }
.edge:hover polygon { stroke: red; fill: red; }
]]></style>
<script type="text/javascript"><![CDATA[
var edges = document.getElementsByTagName('g');
if (edges && edges.length) {
  for (var i=0;i<edges.length;i++) {
    if (edges[i].id.substr(0,4)=='edge') {
      edges[i].setAttribute('class','edge');
    }
  }
}
]]></script>
        <defs>
                <circle id="rim" cx="0" cy="0" r="7"/>
                <circle id="rim2" cx="0" cy="0" r="3.5"/>
                <g id="zoomPlus">
                        <use xlink:href="#rim" fill="#404040">
                                <set attributeName="fill" to="#808080" begin="zoomplus.mouseover" end="zoomplus.mouseout"/>
                        </use>
                        <path d="M-4,0h8M0,-4v8" fill="none" stroke="white" stroke-width="1.5" pointer-events="none"/>
                </g>
                <g id="zoomMin">
                        <use xlink:href="#rim" fill="#404040">
                                <set attributeName="fill" to="#808080" begin="zoomminus.mouseover" end="zoomminus.mouseout"/>
                        </use>
                        <path d="M-4,0h8" fill="none" stroke="white" stroke-width="1.5" pointer-events="none"/>
                </g>
                <g id="dirArrow">
                        <path fill="none" stroke="white" stroke-width="1.5" d="M0,-3.0v7 M-2.5,-0.5L0,-3.0L2.5,-0.5"/>
                </g>
               <g id="resetDef">
                       <use xlink:href="#rim2" fill="#404040">
                               <set attributeName="fill" to="#808080" begin="reset.mouseover" end="reset.mouseout"/>
                       </use>
               </g>
        </defs>

<script type="text/javascript">
var viewWidth = 626;
var viewHeight = 306;
var sectionId = 'dynsection-6';
</script>
<script xlink:href="svgpan.js"/>
<svg id="graph" class="graph">
<g id="viewport">
<title>DisplayInterface::getNext</title>
<polygon fill="white" stroke="transparent" points="-4,4 -4,-301.5 622,-301.5 622,4 -4,4"/>
<!-- Node1 -->
<g id="node1" class="node">
<title>Node1</title>
<g id="a_node1"><a xlink:title="Get the next DisplayInterface derived instance in the list.">
<polygon fill="#bfbfbf" stroke="black" points="476,-145 476,-164 618,-164 618,-145 476,-145"/>
<text text-anchor="middle" x="547" y="-152" font-family="Helvetica,sans-Serif" font-size="10.00">DisplayInterface::getNext</text>
</a>
</g>
</g>
<!-- Node2 -->
<g id="node2" class="node">
<title>Node2</title>
<g id="a_node2"><a xlink:href="classDisplayManager.html#a14afc225d393f7224bfa0474338d39f3" target="_top" xlink:title="Add a DisplayInterface derived instance to the list of displays.">
<polygon fill="white" stroke="black" points="266,-278 266,-297 423,-297 423,-278 266,-278"/>
<text text-anchor="middle" x="344.5" y="-285" font-family="Helvetica,sans-Serif" font-size="10.00">DisplayManager::addDisplay</text>
</a>
</g>
</g>
<!-- Node1&#45;&gt;Node2 -->
<g id="edge1" class="edge">
<title>Node1&#45;&gt;Node2</title>
<path fill="none" stroke="midnightblue" d="M534.72,-172.44C517.57,-198.09 482.43,-244.76 440,-268.5 433.14,-272.34 425.61,-275.41 417.89,-277.86"/>
<polygon fill="midnightblue" stroke="midnightblue" points="537.68,-174.31 540.2,-164.02 531.81,-170.49 537.68,-174.31"/>
</g>
<!-- Node4 -->
<g id="node4" class="node">
<title>Node4</title>
<g id="a_node4"><a xlink:href="classDisplayManager.html#aa0e0e26134a34beeb30e27c00b8e829f" target="_top" xlink:title="Calls the displayStartupInfo of all Display instances to display the version.">
<polygon fill="white" stroke="black" points="249,-240 249,-259 440,-259 440,-240 249,-240"/>
<text text-anchor="middle" x="344.5" y="-247" font-family="Helvetica,sans-Serif" font-size="10.00">DisplayManager::displayStartupInfo</text>
</a>
</g>
</g>
<!-- Node1&#45;&gt;Node4 -->
<g id="edge3" class="edge">
<title>Node1&#45;&gt;Node4</title>
<path fill="none" stroke="midnightblue" d="M528.15,-170.99C508.19,-188.5 474.16,-215.64 440,-230.5 431.02,-234.4 421.21,-237.52 411.42,-239.99"/>
<polygon fill="midnightblue" stroke="midnightblue" points="530.68,-173.42 535.8,-164.14 526.01,-168.21 530.68,-173.42"/>
</g>
<!-- Node10 -->
<g id="node8" class="node">
<title>Node10</title>
<g id="a_node8"><a xlink:href="classDisplayManager.html#a0dcf69d16599029ba34bf31c0c666390" target="_top" xlink:title="Get a DisplayInterface derived instance by its ID.">
<polygon fill="white" stroke="black" points="256.5,-126 256.5,-145 432.5,-145 432.5,-126 256.5,-126"/>
<text text-anchor="middle" x="344.5" y="-133" font-family="Helvetica,sans-Serif" font-size="10.00">DisplayManager::getDisplayById</text>
</a>
</g>
</g>
<!-- Node1&#45;&gt;Node10 -->
<g id="edge7" class="edge">
<title>Node1&#45;&gt;Node10</title>
<path fill="none" stroke="midnightblue" d="M465.9,-146.91C454.92,-145.87 443.61,-144.8 432.51,-143.75"/>
<polygon fill="midnightblue" stroke="midnightblue" points="465.59,-150.4 475.87,-147.85 466.25,-143.43 465.59,-150.4"/>
</g>
<!-- Node13 -->
<g id="node11" class="node">
<title>Node13</title>
<g id="a_node11"><a xlink:href="test__CompilerCreation_8cpp.html#a484c00ac396e82066ad78a3641a34a4f" target="_top" xlink:title="Ensure devices are created and all attributes are valid.">
<polygon fill="white" stroke="black" points="124.5,-164 124.5,-183 176.5,-183 176.5,-164 124.5,-164"/>
<text text-anchor="middle" x="150.5" y="-171" font-family="Helvetica,sans-Serif" font-size="10.00">TEST_F</text>
</a>
</g>
</g>
<!-- Node1&#45;&gt;Node13 -->
<g id="edge15" class="edge">
<title>Node1&#45;&gt;Node13</title>
<path fill="none" stroke="midnightblue" d="M465.72,-158.37C375.45,-162.71 233.99,-169.53 176.78,-172.28"/>
<polygon fill="midnightblue" stroke="midnightblue" points="466.11,-161.85 475.93,-157.87 465.77,-154.86 466.11,-161.85"/>
</g>
<!-- Node14 -->
<g id="node12" class="node">
<title>Node14</title>
<g id="a_node12"><a xlink:href="classDisplayManager.html#a270daf83b6af22558fde42034254b351" target="_top" xlink:title="Call the begin() method for all associated Display instances.">
<polygon fill="white" stroke="black" points="261,-202 261,-221 428,-221 428,-202 261,-202"/>
<text text-anchor="middle" x="344.5" y="-209" font-family="Helvetica,sans-Serif" font-size="10.00">DisplayManager::startDisplays</text>
</a>
</g>
</g>
<!-- Node1&#45;&gt;Node14 -->
<g id="edge12" class="edge">
<title>Node1&#45;&gt;Node14</title>
<path fill="none" stroke="midnightblue" d="M507.19,-167.12C487.2,-173.49 462.37,-181.18 440,-187.5 422.08,-192.56 402.11,-197.7 385.17,-201.92"/>
<polygon fill="midnightblue" stroke="midnightblue" points="508.42,-170.41 516.88,-164.02 506.29,-163.74 508.42,-170.41"/>
</g>
<!-- Node15 -->
<g id="node13" class="node">
<title>Node15</title>
<g id="a_node13"><a xlink:href="classController.html#a7d04c17913f04f99429aa29fa8505484" target="_top" xlink:title="Processes all ongoing activities, monitoring streams, receiving user input, updates displays,...">
<polygon fill="white" stroke="black" points="98.5,-69 98.5,-88 202.5,-88 202.5,-69 98.5,-69"/>
<text text-anchor="middle" x="150.5" y="-76" font-family="Helvetica,sans-Serif" font-size="10.00">Controller::update</text>
</a>
</g>
</g>
<!-- Node1&#45;&gt;Node15 -->
<g id="edge16" class="edge">
<title>Node1&#45;&gt;Node15</title>
<path fill="none" stroke="midnightblue" d="M514.38,-141.16C493.59,-132.89 465.59,-122.7 440,-116.5 358.25,-96.7 260.8,-86.58 202.65,-81.93"/>
<polygon fill="midnightblue" stroke="midnightblue" points="513.1,-144.42 523.68,-144.92 515.72,-137.93 513.1,-144.42"/>
</g>
<!-- Node18 -->
<g id="node16" class="node">
<title>Node18</title>
<g id="a_node16"><a xlink:href="classDisplayManager.html#ad53dcac2e939893727d27187524733c6" target="_top" xlink:title="Call this routinely to ensure all displays are updated with screens.">
<polygon fill="white" stroke="black" points="276.5,-50 276.5,-69 412.5,-69 412.5,-50 276.5,-50"/>
<text text-anchor="middle" x="344.5" y="-57" font-family="Helvetica,sans-Serif" font-size="10.00">DisplayManager::update</text>
</a>
</g>
</g>
<!-- Node1&#45;&gt;Node18 -->
<g id="edge19" class="edge">
<title>Node1&#45;&gt;Node18</title>
<path fill="none" stroke="midnightblue" d="M526.83,-138.69C506.46,-122.63 472.75,-98.1 440,-83.5 426.4,-77.43 410.98,-72.7 396.6,-69.1"/>
<polygon fill="midnightblue" stroke="midnightblue" points="524.71,-141.47 534.7,-145 529.09,-136.01 524.71,-141.47"/>
</g>
<!-- Node19 -->
<g id="node17" class="node">
<title>Node19</title>
<g id="a_node17"><a xlink:href="classDisplayManager.html#ae4c9d79e08490e64602cf562a16d8834" target="_top" xlink:title="Destructor for the DisplayManager.">
<polygon fill="white" stroke="black" points="271,-0.5 271,-30.5 418,-30.5 418,-0.5 271,-0.5"/>
<text text-anchor="start" x="279" y="-18.5" font-family="Helvetica,sans-Serif" font-size="10.00">DisplayManager::~Display</text>
<text text-anchor="middle" x="344.5" y="-7.5" font-family="Helvetica,sans-Serif" font-size="10.00">Manager</text>
</a>
</g>
</g>
<!-- Node1&#45;&gt;Node19 -->
<g id="edge21" class="edge">
<title>Node1&#45;&gt;Node19</title>
<path fill="none" stroke="midnightblue" d="M534.26,-136.52C516.79,-111.21 481.49,-65.38 440,-40.5 433.31,-36.49 425.96,-33.11 418.43,-30.26"/>
<polygon fill="midnightblue" stroke="midnightblue" points="531.38,-138.51 539.88,-144.84 537.19,-134.6 531.38,-138.51"/>
</g>
<!-- Node3 -->
<g id="node3" class="node">
<title>Node3</title>
<g id="a_node3"><a xlink:href="test__DisplayManager_8cpp.html#a8db4cc07d4e89d899e0a75ca521f9229" target="_top" xlink:title="Create a list of mock displays and validate they are created and operate correctly.">
<polygon fill="white" stroke="black" points="124.5,-278 124.5,-297 176.5,-297 176.5,-278 124.5,-278"/>
<text text-anchor="middle" x="150.5" y="-285" font-family="Helvetica,sans-Serif" font-size="10.00">TEST_F</text>
</a>
</g>
</g>
<!-- Node2&#45;&gt;Node3 -->
<g id="edge2" class="edge">
<title>Node2&#45;&gt;Node3</title>
<path fill="none" stroke="midnightblue" d="M255.81,-287.5C226.93,-287.5 197.05,-287.5 176.71,-287.5"/>
<polygon fill="midnightblue" stroke="midnightblue" points="255.96,-291 265.96,-287.5 255.96,-284 255.96,-291"/>
</g>
<!-- Node5 -->
<g id="node5" class="node">
<title>Node5</title>
<g id="a_node5"><a xlink:href="classController.html#a1cc0b87ab9e07d21ab47d294aa5bf607" target="_top" xlink:title="Call once to start displays and input.">
<polygon fill="white" stroke="black" points="101.5,-202 101.5,-221 199.5,-221 199.5,-202 101.5,-202"/>
<text text-anchor="middle" x="150.5" y="-209" font-family="Helvetica,sans-Serif" font-size="10.00">Controller::begin</text>
</a>
</g>
</g>
<!-- Node4&#45;&gt;Node5 -->
<g id="edge4" class="edge">
<title>Node4&#45;&gt;Node5</title>
<path fill="none" stroke="midnightblue" d="M285.2,-237.96C257.82,-232.54 225.57,-226.16 199.6,-221.02"/>
<polygon fill="midnightblue" stroke="midnightblue" points="284.56,-241.4 295.05,-239.91 285.92,-234.54 284.56,-241.4"/>
</g>
<!-- Node9 -->
<g id="node7" class="node">
<title>Node9</title>
<g id="a_node7"><a xlink:href="test__DisplayManager_8cpp.html#ad108e01a79b7f75a831a955e93bb9176" target="_top" xlink:title="Validate the displayStartupInfo() method correct calls all display methods.">
<polygon fill="white" stroke="black" points="124.5,-240 124.5,-259 176.5,-259 176.5,-240 124.5,-240"/>
<text text-anchor="middle" x="150.5" y="-247" font-family="Helvetica,sans-Serif" font-size="10.00">TEST_F</text>
</a>
</g>
</g>
<!-- Node4&#45;&gt;Node9 -->
<g id="edge6" class="edge">
<title>Node4&#45;&gt;Node9</title>
<path fill="none" stroke="midnightblue" d="M238.91,-249.5C215.63,-249.5 193.03,-249.5 176.65,-249.5"/>
<polygon fill="midnightblue" stroke="midnightblue" points="238.91,-253 248.91,-249.5 238.91,-246 238.91,-253"/>
</g>
<!-- Node6 -->
<g id="node6" class="node">
<title>Node6</title>
<g id="a_node6"><a xlink:href="EX-Display_8ino.html#a4fc01d736fe50cf5b977f755b675f11d" target="_top" xlink:title="Main setup method, initialise Configurator here.">
<polygon fill="white" stroke="red" points="4,-183 4,-202 48,-202 48,-183 4,-183"/>
<text text-anchor="middle" x="26" y="-190" font-family="Helvetica,sans-Serif" font-size="10.00">setup</text>
</a>
</g>
</g>
<!-- Node5&#45;&gt;Node6 -->
<g id="edge5" class="edge">
<title>Node5&#45;&gt;Node6</title>
<path fill="none" stroke="midnightblue" d="M91.34,-202.48C75.86,-200.08 60.11,-197.64 48.07,-195.77"/>
<polygon fill="midnightblue" stroke="midnightblue" points="91.02,-205.97 101.44,-204.05 92.09,-199.05 91.02,-205.97"/>
</g>
<!-- Node11 -->
<g id="node9" class="node">
<title>Node11</title>
<g id="a_node9"><a xlink:href="classConfigurator.html#a25ee5e1b0a64d971232d6ecaaadd5d61" target="_top" xlink:title="Call all one&#45;shot initialisation or begin methods on startup.">
<polygon fill="white" stroke="black" points="88,-126 88,-145 213,-145 213,-126 88,-126"/>
<text text-anchor="middle" x="150.5" y="-133" font-family="Helvetica,sans-Serif" font-size="10.00">Configurator::initialise</text>
</a>
</g>
</g>
<!-- Node10&#45;&gt;Node11 -->
<g id="edge8" class="edge">
<title>Node10&#45;&gt;Node11</title>
<path fill="none" stroke="midnightblue" d="M246.2,-135.5C234.99,-135.5 223.81,-135.5 213.26,-135.5"/>
<polygon fill="midnightblue" stroke="midnightblue" points="246.49,-139 256.49,-135.5 246.49,-132 246.49,-139"/>
</g>
<!-- Node10&#45;&gt;Node13 -->
<g id="edge11" class="edge">
<title>Node10&#45;&gt;Node13</title>
<path fill="none" stroke="midnightblue" d="M285.07,-147.06C248.83,-154.24 204.09,-163.09 176.69,-168.51"/>
<polygon fill="midnightblue" stroke="midnightblue" points="285.92,-150.46 295.05,-145.09 284.56,-143.6 285.92,-150.46"/>
</g>
<!-- Node11&#45;&gt;Node6 -->
<g id="edge9" class="edge">
<title>Node11&#45;&gt;Node6</title>
<path fill="none" stroke="midnightblue" d="M103.58,-148.25C98.25,-150.15 92.96,-152.24 88,-154.5 70.75,-162.38 52.48,-174.3 40.48,-182.68"/>
<polygon fill="midnightblue" stroke="midnightblue" points="104.78,-151.54 113.15,-145.03 102.55,-144.9 104.78,-151.54"/>
</g>
<!-- Node12 -->
<g id="node10" class="node">
<title>Node12</title>
<g id="a_node10"><a xlink:href="test__Configurator_8cpp.html#a90ba0264a5f676876816cf7411508ac9" target="_top" xlink:title="Ensure the Configurator is created and all attributes are as expected.">
<polygon fill="white" stroke="black" points="0,-126 0,-145 52,-145 52,-126 0,-126"/>
<text text-anchor="middle" x="26" y="-133" font-family="Helvetica,sans-Serif" font-size="10.00">TEST_F</text>
</a>
</g>
</g>
<!-- Node11&#45;&gt;Node12 -->
<g id="edge10" class="edge">
<title>Node11&#45;&gt;Node12</title>
<path fill="none" stroke="midnightblue" d="M77.87,-135.5C68.71,-135.5 59.88,-135.5 52.21,-135.5"/>
<polygon fill="midnightblue" stroke="midnightblue" points="77.89,-139 87.89,-135.5 77.89,-132 77.89,-139"/>
</g>
<!-- Node14&#45;&gt;Node5 -->
<g id="edge13" class="edge">
<title>Node14&#45;&gt;Node5</title>
<path fill="none" stroke="midnightblue" d="M250.6,-211.5C232.95,-211.5 215.16,-211.5 199.62,-211.5"/>
<polygon fill="midnightblue" stroke="midnightblue" points="250.96,-215 260.96,-211.5 250.96,-208 250.96,-215"/>
</g>
<!-- Node14&#45;&gt;Node13 -->
<g id="edge14" class="edge">
<title>Node14&#45;&gt;Node13</title>
<path fill="none" stroke="midnightblue" d="M285.07,-199.94C248.83,-192.76 204.09,-183.91 176.69,-178.49"/>
<polygon fill="midnightblue" stroke="midnightblue" points="284.56,-203.4 295.05,-201.91 285.92,-196.54 284.56,-203.4"/>
</g>
<!-- Node16 -->
<g id="node14" class="node">
<title>Node16</title>
<g id="a_node14"><a xlink:href="EX-Display_8ino.html#afe461d27b9c48d5921c00d521181f12f" target="_top" xlink:title="Main loop, simply calls controller&#45;&gt;update() to manage all interactions.">
<polygon fill="white" stroke="black" points="7,-79 7,-98 45,-98 45,-79 7,-79"/>
<text text-anchor="middle" x="26" y="-86" font-family="Helvetica,sans-Serif" font-size="10.00">loop</text>
</a>
</g>
</g>
<!-- Node15&#45;&gt;Node16 -->
<g id="edge17" class="edge">
<title>Node15&#45;&gt;Node16</title>
<path fill="none" stroke="midnightblue" d="M88,-83.52C72.32,-84.8 56.67,-86.08 45.14,-87.02"/>
<polygon fill="midnightblue" stroke="midnightblue" points="88.58,-86.99 98.26,-82.68 88.01,-80.01 88.58,-86.99"/>
</g>
<!-- Node17 -->
<g id="node15" class="node">
<title>Node17</title>
<g id="a_node15"><a xlink:href="test__Controller_8cpp.html#abb9ca06c0e9bafef1a891dd9d22bd84d" target="_top" xlink:title="Ensure update() method correctly calls the mock callback.">
<polygon fill="white" stroke="black" points="0,-41 0,-60 52,-60 52,-41 0,-41"/>
<text text-anchor="middle" x="26" y="-48" font-family="Helvetica,sans-Serif" font-size="10.00">TEST_F</text>
</a>
</g>
</g>
<!-- Node15&#45;&gt;Node17 -->
<g id="edge18" class="edge">
<title>Node15&#45;&gt;Node17</title>
<path fill="none" stroke="midnightblue" d="M97.54,-66.62C81.84,-63.04 65.32,-59.26 52.21,-56.26"/>
<polygon fill="midnightblue" stroke="midnightblue" points="97.16,-70.13 107.69,-68.94 98.72,-63.3 97.16,-70.13"/>
</g>
<!-- Node18&#45;&gt;Node15 -->
<g id="edge20" class="edge">
<title>Node18&#45;&gt;Node15</title>
<path fill="none" stroke="midnightblue" d="M266.28,-67.14C244.84,-69.26 222.11,-71.51 202.57,-73.45"/>
<polygon fill="midnightblue" stroke="midnightblue" points="266.74,-70.61 276.35,-66.15 266.05,-63.65 266.74,-70.61"/>
</g>
</g>
</svg>
        <g id="navigator" transform="translate(0 0)" fill="#404254">
                <rect fill="#f2f5e9" fill-opacity="0.5" stroke="#606060" stroke-width=".5" x="0" y="0" width="60" height="60"/>
                <use id="zoomplus" xlink:href="#zoomPlus" x="17" y="9" onmousedown="handleZoom(evt,'in')"/>
                <use id="zoomminus" xlink:href="#zoomMin" x="42" y="9" onmousedown="handleZoom(evt,'out')"/>
                <use id="reset" xlink:href="#resetDef" x="30" y="36" onmousedown="handleReset()"/>
                <g id="arrowUp" xlink:href="#dirArrow" transform="translate(30 24)" onmousedown="handlePan(0,-1)">
                  <use xlink:href="#rim" fill="#404040">
                        <set attributeName="fill" to="#808080" begin="arrowUp.mouseover" end="arrowUp.mouseout"/>
                  </use>
                  <path fill="none" stroke="white" stroke-width="1.5" d="M0,-3.0v7 M-2.5,-0.5L0,-3.0L2.5,-0.5"/>
                </g>
                <g id="arrowRight" xlink:href="#dirArrow" transform="rotate(90) translate(36 -43)" onmousedown="handlePan(1,0)">
                  <use xlink:href="#rim" fill="#404040">
                        <set attributeName="fill" to="#808080" begin="arrowRight.mouseover" end="arrowRight.mouseout"/>
                  </use>
                  <path fill="none" stroke="white" stroke-width="1.5" d="M0,-3.0v7 M-2.5,-0.5L0,-3.0L2.5,-0.5"/>
                </g>
                <g id="arrowDown" xlink:href="#dirArrow" transform="rotate(180) translate(-30 -48)" onmousedown="handlePan(0,1)">
                  <use xlink:href="#rim" fill="#404040">
                        <set attributeName="fill" to="#808080" begin="arrowDown.mouseover" end="arrowDown.mouseout"/>
                  </use>
                  <path fill="none" stroke="white" stroke-width="1.5" d="M0,-3.0v7 M-2.5,-0.5L0,-3.0L2.5,-0.5"/>
                </g>
                <g id="arrowLeft" xlink:href="#dirArrow" transform="rotate(270) translate(-36 17)" onmousedown="handlePan(-1,0)">
                  <use xlink:href="#rim" fill="#404040">
                        <set attributeName="fill" to="#808080" begin="arrowLeft.mouseover" end="arrowLeft.mouseout"/>
                  </use>
                  <path fill="none" stroke="white" stroke-width="1.5" d="M0,-3.0v7 M-2.5,-0.5L0,-3.0L2.5,-0.5"/>
                </g>
        </g>
        <svg viewBox="0 0 15 15" width="100%" height="30px" preserveAspectRatio="xMaxYMin meet">
         <g id="arrow_out" transform="scale(0.3 0.3)">
          <a xlink:href="classDisplayInterface_aa869afa166e1d7f231549e3b93f7bef5_icgraph_org.svg" target="_base">
           <rect id="button" ry="5" rx="5" y="6" x="6" height="38" width="38"
                fill="#f2f5e9" fill-opacity="0.5" stroke="#606060" stroke-width="1.0"/>
           <path id="arrow"
             d="M 11.500037,31.436501 C 11.940474,20.09759 22.043105,11.32322 32.158766,21.979434 L 37.068811,17.246167 C 37.068811,17.246167 37.088388,32 37.088388,32 L 22.160133,31.978069 C 22.160133,31.978069 26.997745,27.140456 26.997745,27.140456 C 18.528582,18.264221 13.291696,25.230495 11.500037,31.436501 z"
             style="fill:#404040;"/>
          </a>
         </g>
        </svg>
</svg>
