<?xml version="1.0" encoding="UTF-8" standalone="no"?>
<!DOCTYPE svg PUBLIC "-//W3C//DTD SVG 1.1//EN"
 "http://www.w3.org/Graphics/SVG/1.1/DTD/svg11.dtd">
<!-- Generated by graphviz version 2.43.0 (0)
 -->
<!-- Title: InputManager Pages: 1 -->
<svg width="357pt" height="229pt"
 viewBox="0.00 0.00 357.31 229.00" xmlns="http://www.w3.org/2000/svg" xmlns:xlink="http://www.w3.org/1999/xlink">
<g id="graph0" class="graph" transform="scale(1 1) rotate(0) translate(4 225)">
<title>InputManager</title>
<polygon fill="white" stroke="transparent" points="-4,4 -4,-225 353.31,-225 353.31,4 -4,4"/>
<!-- Node1 -->
<g id="node1" class="node">
<title>Node1</title>
<g id="a_node1"><a xlink:title=" ">
<polygon fill="#bfbfbf" stroke="black" points="78.81,-0.5 78.81,-19.5 162.81,-19.5 162.81,-0.5 78.81,-0.5"/>
<text text-anchor="middle" x="120.81" y="-7.5" font-family="Helvetica,sans-Serif" font-size="10.00">InputManager</text>
</a>
</g>
</g>
<!-- Node2 -->
<g id="node2" class="node">
<title>Node2</title>
<g id="a_node2"><a xlink:href="classInputInterface.html" target="_top" xlink:title="Class to abstract away all physical input implementatio to enable multiple input types Default return...">
<polygon fill="white" stroke="black" points="78.31,-67.5 78.31,-86.5 163.31,-86.5 163.31,-67.5 78.31,-67.5"/>
<text text-anchor="middle" x="120.81" y="-74.5" font-family="Helvetica,sans-Serif" font-size="10.00">InputInterface</text>
</a>
</g>
</g>
<!-- Node2&#45;&gt;Node1 -->
<g id="edge1" class="edge">
<title>Node2&#45;&gt;Node1</title>
<path fill="none" stroke="#9a32cd" stroke-dasharray="5,2" d="M120.81,-57.04C120.81,-44.67 120.81,-29.12 120.81,-19.63"/>
<polygon fill="#9a32cd" stroke="#9a32cd" points="117.31,-57.23 120.81,-67.23 124.31,-57.23 117.31,-57.23"/>
<text text-anchor="middle" x="137.81" y="-41" font-family="Helvetica,sans-Serif" font-size="10.00"> _input</text>
</g>
<!-- Node3 -->
<g id="node3" class="node">
<title>Node3</title>
<g id="a_node3"><a xlink:href="classCallbackInterface.html" target="_top" xlink:title="Interface class to use for callbacks.">
<polygon fill="white" stroke="black" points="82.81,-134.5 82.81,-153.5 184.81,-153.5 184.81,-134.5 82.81,-134.5"/>
<text text-anchor="middle" x="133.81" y="-141.5" font-family="Helvetica,sans-Serif" font-size="10.00">CallbackInterface</text>
</a>
</g>
</g>
<!-- Node3&#45;&gt;Node2 -->
<g id="edge2" class="edge">
<title>Node3&#45;&gt;Node2</title>
<path fill="none" stroke="#9a32cd" stroke-dasharray="5,2" d="M124.67,-125.03C123.51,-122.08 122.49,-119 121.81,-116 119.57,-106.09 119.66,-94.35 120.09,-86.57"/>
<polygon fill="#9a32cd" stroke="#9a32cd" points="121.57,-126.65 128.9,-134.3 127.94,-123.75 121.57,-126.65"/>
<text text-anchor="middle" x="146.31" y="-108" font-family="Helvetica,sans-Serif" font-size="10.00"> _callback</text>
</g>
<!-- Node4 -->
<g id="node4" class="node">
<title>Node4</title>
<g id="a_node4"><a xlink:href="classLogger.html" target="_top" xlink:title="Class to enable simple logging to a Stream object with different log levels This enables embedding pe...">
<polygon fill="white" stroke="red" points="15.81,-201.5 15.81,-220.5 65.81,-220.5 65.81,-201.5 15.81,-201.5"/>
<text text-anchor="middle" x="40.81" y="-208.5" font-family="Helvetica,sans-Serif" font-size="10.00">Logger</text>
</a>
</g>
</g>
<!-- Node4&#45;&gt;Node1 -->
<g id="edge8" class="edge">
<title>Node4&#45;&gt;Node1</title>
<path fill="none" stroke="#9a32cd" stroke-dasharray="5,2" d="M27.22,-193.31C11.79,-172.2 -9.48,-134.98 4.81,-105 25,-62.65 74.63,-33.2 101.98,-19.57"/>
<polygon fill="#9a32cd" stroke="#9a32cd" points="24.49,-195.5 33.35,-201.3 30.04,-191.24 24.49,-195.5"/>
<text text-anchor="middle" x="24.81" y="-108" font-family="Helvetica,sans-Serif" font-size="10.00"> _logger</text>
</g>
<!-- Node4&#45;&gt;Node2 -->
<g id="edge4" class="edge">
<title>Node4&#45;&gt;Node2</title>
<path fill="none" stroke="#9a32cd" stroke-dasharray="5,2" d="M33.58,-191.55C28.48,-175.39 24.12,-151.77 33.81,-134 46.8,-110.19 74.74,-94.98 95.47,-86.52"/>
<polygon fill="#9a32cd" stroke="#9a32cd" points="30.43,-193.13 37.07,-201.39 37.03,-190.8 30.43,-193.13"/>
<text text-anchor="middle" x="53.81" y="-141.5" font-family="Helvetica,sans-Serif" font-size="10.00"> _logger</text>
</g>
<!-- Node4&#45;&gt;Node3 -->
<g id="edge3" class="edge">
<title>Node4&#45;&gt;Node3</title>
<path fill="none" stroke="#9a32cd" stroke-dasharray="5,2" d="M61.67,-195.42C80.06,-182.57 106.22,-164.28 121.47,-153.63"/>
<polygon fill="#9a32cd" stroke="#9a32cd" points="59.55,-192.64 53.35,-201.23 63.56,-198.37 59.55,-192.64"/>
<text text-anchor="middle" x="112.81" y="-175" font-family="Helvetica,sans-Serif" font-size="10.00"> _logger</text>
</g>
<!-- Node6 -->
<g id="node5" class="node">
<title>Node6</title>
<g id="a_node5"><a xlink:href="classDisplayInterface.html" target="_top" xlink:title="Class to abstract away all physical display implementation to enable multiple display types.">
<polygon fill="white" stroke="black" points="203.31,-134.5 203.31,-153.5 300.31,-153.5 300.31,-134.5 203.31,-134.5"/>
<text text-anchor="middle" x="251.81" y="-141.5" font-family="Helvetica,sans-Serif" font-size="10.00">DisplayInterface</text>
</a>
</g>
</g>
<!-- Node4&#45;&gt;Node6 -->
<g id="edge6" class="edge">
<title>Node4&#45;&gt;Node6</title>
<path fill="none" stroke="#9a32cd" stroke-dasharray="5,2" d="M76.06,-200.49C94.26,-195.48 116.79,-189.12 136.81,-183 167.98,-173.47 203.56,-161.55 226.79,-153.63"/>
<polygon fill="#9a32cd" stroke="#9a32cd" points="74.89,-197.19 66.17,-203.2 76.74,-203.94 74.89,-197.19"/>
<text text-anchor="middle" x="187.81" y="-175" font-family="Helvetica,sans-Serif" font-size="10.00"> _logger</text>
</g>
<!-- Node6&#45;&gt;Node1 -->
<g id="edge9" class="edge">
<title>Node6&#45;&gt;Node1</title>
<path fill="none" stroke="#9a32cd" stroke-dasharray="5,2" d="M247.04,-124.27C244.85,-117.81 241.84,-110.76 237.81,-105 210.19,-65.5 161.39,-34 136.44,-19.56"/>
<polygon fill="#9a32cd" stroke="#9a32cd" points="243.79,-125.63 249.95,-134.25 250.51,-123.67 243.79,-125.63"/>
<text text-anchor="middle" x="243.81" y="-74.5" font-family="Helvetica,sans-Serif" font-size="10.00"> _display</text>
</g>
<!-- Node6&#45;&gt;Node2 -->
<g id="edge5" class="edge">
<title>Node6&#45;&gt;Node2</title>
<path fill="none" stroke="#9a32cd" stroke-dasharray="5,2" d="M223.81,-130.27C214.25,-125.84 203.53,-120.79 193.81,-116 173.95,-106.21 151.38,-94.35 136.66,-86.51"/>
<polygon fill="#9a32cd" stroke="#9a32cd" points="222.36,-133.45 232.9,-134.45 225.28,-127.09 222.36,-133.45"/>
<text text-anchor="middle" x="215.81" y="-108" font-family="Helvetica,sans-Serif" font-size="10.00"> _display</text>
</g>
<!-- Node6&#45;&gt;Node6 -->
<g id="edge7" class="edge">
<title>Node6&#45;&gt;Node6</title>
<path fill="none" stroke="#9a32cd" stroke-dasharray="5,2" d="M310.69,-148.58C315.4,-147.58 318.31,-146.05 318.31,-144 318.31,-140.72 310.85,-138.78 300.53,-138.19"/>
<polygon fill="#9a32cd" stroke="#9a32cd" points="310.03,-145.13 300.53,-149.81 310.87,-152.08 310.03,-145.13"/>
<text text-anchor="middle" x="333.81" y="-141.5" font-family="Helvetica,sans-Serif" font-size="10.00"> _next</text>
</g>
</g>
</svg>
