<?xml version="1.0" encoding="UTF-8" standalone="no"?>
<!DOCTYPE svg PUBLIC "-//W3C//DTD SVG 1.1//EN"
 "http://www.w3.org/Graphics/SVG/1.1/DTD/svg11.dtd">
<!-- Generated by graphviz version 2.43.0 (0)
 -->
<!-- Title: Controller::update Pages: 1 -->
<svg width="461pt" height="496pt"
 viewBox="0.00 0.00 461.00 496.00" xmlns="http://www.w3.org/2000/svg" xmlns:xlink="http://www.w3.org/1999/xlink">
<g id="graph0" class="graph" transform="scale(1 1) rotate(0) translate(4 492)">
<title>Controller::update</title>
<polygon fill="white" stroke="transparent" points="-4,4 -4,-492 457,-492 457,4 -4,4"/>
<!-- Node1 -->
<g id="node1" class="node">
<title>Node1</title>
<g id="a_node1"><a xlink:title="Processes all ongoing activities, monitoring streams, receiving user input, updates displays,...">
<polygon fill="#bfbfbf" stroke="black" points="0,-228.5 0,-247.5 104,-247.5 104,-228.5 0,-228.5"/>
<text text-anchor="middle" x="52" y="-235.5" font-family="Helvetica,sans-Serif" font-size="10.00">Controller::update</text>
</a>
</g>
</g>
<!-- Node2 -->
<g id="node2" class="node">
<title>Node2</title>
<g id="a_node2"><a xlink:href="classStream.html#a630f7c449a9674857fae9a7016d93dbe" target="_top" xlink:title="Check number of characters available in the buffer.">
<polygon fill="white" stroke="black" points="173,-468.5 173,-487.5 276,-487.5 276,-468.5 173,-468.5"/>
<text text-anchor="middle" x="224.5" y="-475.5" font-family="Helvetica,sans-Serif" font-size="10.00">Stream::available</text>
</a>
</g>
</g>
<!-- Node1&#45;&gt;Node2 -->
<g id="edge1" class="edge">
<title>Node1&#45;&gt;Node2</title>
<path fill="none" stroke="midnightblue" d="M53.72,-247.76C56.81,-282.44 72.13,-400.69 140,-459 146.57,-464.64 154.46,-468.7 162.75,-471.6"/>
<polygon fill="midnightblue" stroke="midnightblue" points="162.01,-475.03 172.59,-474.5 163.99,-468.32 162.01,-475.03"/>
</g>
<!-- Node3 -->
<g id="node3" class="node">
<title>Node3</title>
<g id="a_node3"><a xlink:href="classDisplayManager.html#a6ba13ae541760736e37f1f85477985a7" target="_top" xlink:title="Get the first DisplayInterface derived instance in the list of displays.">
<polygon fill="white" stroke="black" points="155,-419 155,-449 294,-449 294,-419 155,-419"/>
<text text-anchor="start" x="163" y="-437" font-family="Helvetica,sans-Serif" font-size="10.00">DisplayManager::getFirst</text>
<text text-anchor="middle" x="224.5" y="-426" font-family="Helvetica,sans-Serif" font-size="10.00">Display</text>
</a>
</g>
</g>
<!-- Node1&#45;&gt;Node3 -->
<g id="edge2" class="edge">
<title>Node1&#45;&gt;Node3</title>
<path fill="none" stroke="midnightblue" d="M55.12,-247.82C61.93,-277 86.04,-363.96 140,-409 142.03,-410.7 144.18,-412.28 146.41,-413.75"/>
<polygon fill="midnightblue" stroke="midnightblue" points="144.99,-416.97 155.4,-418.92 148.48,-410.9 144.99,-416.97"/>
</g>
<!-- Node4 -->
<g id="node4" class="node">
<title>Node4</title>
<g id="a_node4"><a xlink:href="classScreenManager.html#a110a39ff303b98b6d308518a9d6da8ff" target="_top" xlink:title="Get the first Screen instance in the list.">
<polygon fill="white" stroke="black" points="140.5,-380.5 140.5,-399.5 308.5,-399.5 308.5,-380.5 140.5,-380.5"/>
<text text-anchor="middle" x="224.5" y="-387.5" font-family="Helvetica,sans-Serif" font-size="10.00">ScreenManager::getFirstScreen</text>
</a>
</g>
</g>
<!-- Node1&#45;&gt;Node4 -->
<g id="edge3" class="edge">
<title>Node1&#45;&gt;Node4</title>
<path fill="none" stroke="midnightblue" d="M56.32,-247.53C65.44,-272.2 93.34,-338.55 140,-371 142.75,-372.91 145.65,-374.63 148.68,-376.18"/>
<polygon fill="midnightblue" stroke="midnightblue" points="147.47,-379.47 158.03,-380.34 150.31,-373.08 147.47,-379.47"/>
</g>
<!-- Node5 -->
<g id="node5" class="node">
<title>Node5</title>
<g id="a_node5"><a xlink:href="classScreen.html#a0bf66c3d7a47302ecb77113f3eacc422" target="_top" xlink:title="Get the first ScreenRow instance in the list.">
<polygon fill="white" stroke="black" points="151.5,-342.5 151.5,-361.5 297.5,-361.5 297.5,-342.5 151.5,-342.5"/>
<text text-anchor="middle" x="224.5" y="-349.5" font-family="Helvetica,sans-Serif" font-size="10.00">Screen::getFirstScreenRow</text>
</a>
</g>
</g>
<!-- Node1&#45;&gt;Node5 -->
<g id="edge4" class="edge">
<title>Node1&#45;&gt;Node5</title>
<path fill="none" stroke="midnightblue" d="M58.85,-247.58C71.24,-266.99 102.1,-310.97 140,-333 143.86,-335.25 147.97,-337.23 152.21,-338.97"/>
<polygon fill="midnightblue" stroke="midnightblue" points="151.07,-342.28 161.67,-342.43 153.48,-335.71 151.07,-342.28"/>
</g>
<!-- Node6 -->
<g id="node6" class="node">
<title>Node6</title>
<g id="a_node6"><a xlink:href="classScreen.html#ad70000886e796b4444e3cdf5e38f6169" target="_top" xlink:title="Get the ID for this screen instance.">
<polygon fill="white" stroke="black" points="184.5,-304.5 184.5,-323.5 264.5,-323.5 264.5,-304.5 184.5,-304.5"/>
<text text-anchor="middle" x="224.5" y="-311.5" font-family="Helvetica,sans-Serif" font-size="10.00">Screen::getId</text>
</a>
</g>
</g>
<!-- Node1&#45;&gt;Node6 -->
<g id="edge5" class="edge">
<title>Node1&#45;&gt;Node6</title>
<path fill="none" stroke="midnightblue" d="M64.61,-247.58C80.6,-260.29 110.75,-282.57 140,-295 150.79,-299.59 162.87,-303.15 174.4,-305.89"/>
<polygon fill="midnightblue" stroke="midnightblue" points="173.84,-309.35 184.36,-308.08 175.34,-302.51 173.84,-309.35"/>
</g>
<!-- Node7 -->
<g id="node7" class="node">
<title>Node7</title>
<g id="a_node7"><a xlink:href="classInputManager.html#a2672882f95872798fd07d4d98f82063b" target="_top" xlink:title="Get the configured InputInterface.">
<polygon fill="white" stroke="black" points="159,-266.5 159,-285.5 290,-285.5 290,-266.5 159,-266.5"/>
<text text-anchor="middle" x="224.5" y="-273.5" font-family="Helvetica,sans-Serif" font-size="10.00">InputManager::getInput</text>
</a>
</g>
</g>
<!-- Node1&#45;&gt;Node7 -->
<g id="edge6" class="edge">
<title>Node1&#45;&gt;Node7</title>
<path fill="none" stroke="midnightblue" d="M96.02,-247.59C118.73,-252.65 146.77,-258.9 170.77,-264.25"/>
<polygon fill="midnightblue" stroke="midnightblue" points="170.26,-267.72 180.79,-266.48 171.79,-260.89 170.26,-267.72"/>
</g>
<!-- Node8 -->
<g id="node8" class="node">
<title>Node8</title>
<g id="a_node8"><a xlink:href="classDisplayInterface.html#aa869afa166e1d7f231549e3b93f7bef5" target="_top" xlink:title="Get the next DisplayInterface derived instance in the list.">
<polygon fill="white" stroke="black" points="153.5,-228.5 153.5,-247.5 295.5,-247.5 295.5,-228.5 153.5,-228.5"/>
<text text-anchor="middle" x="224.5" y="-235.5" font-family="Helvetica,sans-Serif" font-size="10.00">DisplayInterface::getNext</text>
</a>
</g>
</g>
<!-- Node1&#45;&gt;Node8 -->
<g id="edge7" class="edge">
<title>Node1&#45;&gt;Node8</title>
<path fill="none" stroke="midnightblue" d="M104.16,-238C116.51,-238 130,-238 143.33,-238"/>
<polygon fill="midnightblue" stroke="midnightblue" points="143.46,-241.5 153.46,-238 143.46,-234.5 143.46,-241.5"/>
</g>
<!-- Node9 -->
<g id="node9" class="node">
<title>Node9</title>
<g id="a_node9"><a xlink:href="classScreenRow.html#aa8df6843233ea45caf26773d140ce4b8" target="_top" xlink:title="Get the next ScreenRow instance in the list.">
<polygon fill="white" stroke="black" points="167,-190.5 167,-209.5 282,-209.5 282,-190.5 167,-190.5"/>
<text text-anchor="middle" x="224.5" y="-197.5" font-family="Helvetica,sans-Serif" font-size="10.00">ScreenRow::getNext</text>
</a>
</g>
</g>
<!-- Node1&#45;&gt;Node9 -->
<g id="edge8" class="edge">
<title>Node1&#45;&gt;Node9</title>
<path fill="none" stroke="midnightblue" d="M96.02,-228.41C118.73,-223.35 146.77,-217.1 170.77,-211.75"/>
<polygon fill="midnightblue" stroke="midnightblue" points="171.79,-215.11 180.79,-209.52 170.26,-208.28 171.79,-215.11"/>
</g>
<!-- Node10 -->
<g id="node10" class="node">
<title>Node10</title>
<g id="a_node10"><a xlink:href="classScreenManager.html#a0cc1c81b131b3441fd808299c63b409b" target="_top" xlink:title="Get the Screen with the specified ID.">
<polygon fill="white" stroke="black" points="140,-152.5 140,-171.5 309,-171.5 309,-152.5 140,-152.5"/>
<text text-anchor="middle" x="224.5" y="-159.5" font-family="Helvetica,sans-Serif" font-size="10.00">ScreenManager::getScreenById</text>
</a>
</g>
</g>
<!-- Node1&#45;&gt;Node10 -->
<g id="edge9" class="edge">
<title>Node1&#45;&gt;Node10</title>
<path fill="none" stroke="midnightblue" d="M64.61,-228.42C80.6,-215.71 110.75,-193.43 140,-181 145.93,-178.48 152.24,-176.27 158.63,-174.34"/>
<polygon fill="midnightblue" stroke="midnightblue" points="160.02,-177.58 168.71,-171.52 158.14,-170.84 160.02,-177.58"/>
</g>
<!-- Node12 -->
<g id="node12" class="node">
<title>Node12</title>
<g id="a_node12"><a xlink:href="classInputInterface.html#af4e357d021d6ff950b6c8497734dcd75" target="_top" xlink:title="Test if this InputInterface is undergoing calibration as required by touch screens.">
<polygon fill="white" stroke="black" points="148.5,-114.5 148.5,-133.5 300.5,-133.5 300.5,-114.5 148.5,-114.5"/>
<text text-anchor="middle" x="224.5" y="-121.5" font-family="Helvetica,sans-Serif" font-size="10.00">InputInterface::isCalibrating</text>
</a>
</g>
</g>
<!-- Node1&#45;&gt;Node12 -->
<g id="edge11" class="edge">
<title>Node1&#45;&gt;Node12</title>
<path fill="none" stroke="midnightblue" d="M58.85,-228.42C71.24,-209.01 102.1,-165.03 140,-143 143.86,-140.75 147.97,-138.77 152.21,-137.03"/>
<polygon fill="midnightblue" stroke="midnightblue" points="153.48,-140.29 161.67,-133.57 151.07,-133.72 153.48,-140.29"/>
</g>
<!-- Node13 -->
<g id="node13" class="node">
<title>Node13</title>
<g id="a_node13"><a xlink:href="Arduino_8h.html#a6ff7f2532a22366f0013bc41397129fd" target="_top" xlink:title=" ">
<polygon fill="white" stroke="black" points="202.5,-76.5 202.5,-95.5 246.5,-95.5 246.5,-76.5 202.5,-76.5"/>
<text text-anchor="middle" x="224.5" y="-83.5" font-family="Helvetica,sans-Serif" font-size="10.00">millis</text>
</a>
</g>
</g>
<!-- Node1&#45;&gt;Node13 -->
<g id="edge12" class="edge">
<title>Node1&#45;&gt;Node13</title>
<path fill="none" stroke="midnightblue" d="M56.32,-228.47C65.44,-203.8 93.34,-137.45 140,-105 155.12,-94.49 175.16,-89.7 191.81,-87.56"/>
<polygon fill="midnightblue" stroke="midnightblue" points="192.59,-91 202.18,-86.5 191.88,-84.03 192.59,-91"/>
</g>
<!-- Node14 -->
<g id="node14" class="node">
<title>Node14</title>
<g id="a_node14"><a xlink:href="classAtFinder.html#a76f0a4563646bfdcd04820845d440c01" target="_top" xlink:title="Call this as often as possible with a streaming input (eg. Serial.read())">
<polygon fill="white" stroke="black" points="150.5,-38.5 150.5,-57.5 298.5,-57.5 298.5,-38.5 150.5,-38.5"/>
<text text-anchor="middle" x="224.5" y="-45.5" font-family="Helvetica,sans-Serif" font-size="10.00">AtFinder::processInputChar</text>
</a>
</g>
</g>
<!-- Node1&#45;&gt;Node14 -->
<g id="edge13" class="edge">
<title>Node1&#45;&gt;Node14</title>
<path fill="none" stroke="midnightblue" d="M54.89,-228.43C61.19,-199.19 84.3,-110.4 140,-67 142.31,-65.2 144.76,-63.57 147.31,-62.08"/>
<polygon fill="midnightblue" stroke="midnightblue" points="148.94,-65.18 156.33,-57.59 145.82,-58.91 148.94,-65.18"/>
</g>
<!-- Node16 -->
<g id="node16" class="node">
<title>Node16</title>
<g id="a_node16"><a xlink:href="classStream.html#a654017caec3e3feeba5feb346d83c7bb" target="_top" xlink:title="Read a character from the buffer.">
<polygon fill="white" stroke="black" points="184.5,-0.5 184.5,-19.5 264.5,-19.5 264.5,-0.5 184.5,-0.5"/>
<text text-anchor="middle" x="224.5" y="-7.5" font-family="Helvetica,sans-Serif" font-size="10.00">Stream::read</text>
</a>
</g>
</g>
<!-- Node1&#45;&gt;Node16 -->
<g id="edge15" class="edge">
<title>Node1&#45;&gt;Node16</title>
<path fill="none" stroke="midnightblue" d="M53.95,-228.29C57.77,-194.88 75.07,-83.69 140,-29 149.59,-20.92 161.93,-16.1 174.17,-13.27"/>
<polygon fill="midnightblue" stroke="midnightblue" points="175.19,-16.64 184.36,-11.34 173.88,-9.76 175.19,-16.64"/>
</g>
<!-- Node11 -->
<g id="node11" class="node">
<title>Node11</title>
<g id="a_node11"><a xlink:href="classScreen.html#af743df653d024c7571e596772009216d" target="_top" xlink:title="Get the next Screen instance in the list.">
<polygon fill="white" stroke="black" points="351.5,-152.5 351.5,-171.5 446.5,-171.5 446.5,-152.5 351.5,-152.5"/>
<text text-anchor="middle" x="399" y="-159.5" font-family="Helvetica,sans-Serif" font-size="10.00">Screen::getNext</text>
</a>
</g>
</g>
<!-- Node10&#45;&gt;Node11 -->
<g id="edge10" class="edge">
<title>Node10&#45;&gt;Node11</title>
<path fill="none" stroke="midnightblue" d="M309.22,-162C320.04,-162 330.91,-162 341.15,-162"/>
<polygon fill="midnightblue" stroke="midnightblue" points="341.16,-165.5 351.16,-162 341.16,-158.5 341.16,-165.5"/>
</g>
<!-- Node15 -->
<g id="node15" class="node">
<title>Node15</title>
<g id="a_node15"><a xlink:href="classCallbackInterface.html#aba96f818abe5d19945217275bdbe6b67" target="_top" xlink:title="Method to implement updating a screen.">
<polygon fill="white" stroke="black" points="345,-33 345,-63 453,-63 453,-33 345,-33"/>
<text text-anchor="start" x="353" y="-51" font-family="Helvetica,sans-Serif" font-size="10.00">CallbackInterface::</text>
<text text-anchor="middle" x="399" y="-40" font-family="Helvetica,sans-Serif" font-size="10.00">updateScreen</text>
</a>
</g>
</g>
<!-- Node14&#45;&gt;Node15 -->
<g id="edge14" class="edge">
<title>Node14&#45;&gt;Node15</title>
<path fill="none" stroke="midnightblue" d="M298.66,-48C310.66,-48 323.01,-48 334.74,-48"/>
<polygon fill="midnightblue" stroke="midnightblue" points="334.88,-51.5 344.88,-48 334.88,-44.5 334.88,-51.5"/>
</g>
</g>
</svg>
