<?xml version="1.0" encoding="UTF-8" standalone="no"?>
<!DOCTYPE svg PUBLIC "-//W3C//DTD SVG 1.1//EN"
 "http://www.w3.org/Graphics/SVG/1.1/DTD/svg11.dtd">
<!-- Generated by graphviz version 2.43.0 (0)
 -->
<!-- Title: DisplayInterface::getCSPin Pages: 1 -->
<svg width="745pt" height="189pt"
 viewBox="0.00 0.00 745.00 188.50" xmlns="http://www.w3.org/2000/svg" xmlns:xlink="http://www.w3.org/1999/xlink">
<g id="graph0" class="graph" transform="scale(1 1) rotate(0) translate(4 184.5)">
<title>DisplayInterface::getCSPin</title>
<!-- Node1 -->
<g id="Node000001" class="node">
<title>Node1</title>
<g id="a_Node000001"><a xlink:title="Get the defined CS pin for this display to see if it needs manual SPI switching.">
<polygon fill="#999999" stroke="#666666" points="737,-57 591,-57 591,-38 737,-38 737,-57"/>
<text text-anchor="middle" x="664" y="-45" font-family="Helvetica,sans-Serif" font-size="10.00">DisplayInterface::getCSPin</text>
</a>
</g>
</g>
<!-- Node2 -->
<g id="Node000002" class="node">
<title>Node2</title>
<g id="a_Node000002"><a xlink:href="classDisplayManager.html#abcac9213f163018979f2a226ecf53882" target="_top" xlink:title="Manually selects SPI displays that require manual selecting via the CS pin &#45; sets pin low.">
<polygon fill="white" stroke="#666666" points="555,-113 367,-113 367,-94 555,-94 555,-113"/>
<text text-anchor="middle" x="461" y="-101" font-family="Helvetica,sans-Serif" font-size="10.00">DisplayManager::_selectSPIDisplay</text>
</a>
</g>
</g>
<!-- Node1&#45;&gt;Node2 -->
<g id="edge1_Node000001_Node000002" class="edge">
<title>Node1&#45;&gt;Node2</title>
<g id="a_edge1_Node000001_Node000002"><a xlink:title=" ">
<path fill="none" stroke="#63b8ff" d="M618.45,-59.91C581.52,-70.2 529.8,-84.61 496.1,-94"/>
<polygon fill="#63b8ff" stroke="#63b8ff" points="619.75,-63.18 628.45,-57.13 617.87,-56.44 619.75,-63.18"/>
</a>
</g>
</g>
<!-- Node14 -->
<g id="Node000014" class="node">
<title>Node14</title>
<g id="a_Node000014"><a xlink:href="test__DisplayManualSPISwitching_8cpp.html#a928ab800b1e1899f185fb572718ec014" target="_top" xlink:title="Test that SPI displays can be switched manually if their library doesn&#39;t support it (eg....">
<polygon fill="white" stroke="#666666" points="78,-57 26,-57 26,-38 78,-38 78,-57"/>
<text text-anchor="middle" x="52" y="-45" font-family="Helvetica,sans-Serif" font-size="10.00">TEST_F</text>
</a>
</g>
</g>
<!-- Node1&#45;&gt;Node14 -->
<g id="edge11_Node000001_Node000014" class="edge">
<title>Node1&#45;&gt;Node14</title>
<g id="a_edge11_Node000001_Node000014"><a xlink:title=" ">
<path fill="none" stroke="#63b8ff" d="M580.67,-47.5C440.55,-47.5 162.62,-47.5 78.02,-47.5"/>
<polygon fill="#63b8ff" stroke="#63b8ff" points="580.93,-51 590.93,-47.5 580.93,-44 580.93,-51"/>
</a>
</g>
</g>
<!-- Node16 -->
<g id="Node000016" class="node">
<title>Node16</title>
<g id="a_Node000016"><a xlink:href="test__CompilerCreation_8cpp.html#a484c00ac396e82066ad78a3641a34a4f" target="_top" xlink:title="Ensure devices are created and all attributes are valid.">
<polygon fill="white" stroke="#666666" points="487,-19 435,-19 435,0 487,0 487,-19"/>
<text text-anchor="middle" x="461" y="-7" font-family="Helvetica,sans-Serif" font-size="10.00">TEST_F</text>
</a>
</g>
</g>
<!-- Node1&#45;&gt;Node16 -->
<g id="edge10_Node000001_Node000016" class="edge">
<title>Node1&#45;&gt;Node16</title>
<g id="a_edge10_Node000001_Node000016"><a xlink:title=" ">
<path fill="none" stroke="#63b8ff" d="M602.43,-36.05C563.8,-28.75 515.77,-19.66 487.07,-14.24"/>
<polygon fill="#63b8ff" stroke="#63b8ff" points="602.06,-39.54 612.54,-37.96 603.36,-32.66 602.06,-39.54"/>
</a>
</g>
</g>
<!-- Node3 -->
<g id="Node000003" class="node">
<title>Node3</title>
<g id="a_Node000003"><a xlink:href="classDisplayManager.html#ac007625bc3dc91b4a7f22238226f37ea" target="_top" xlink:title="Clear all displays.">
<polygon fill="white" stroke="#666666" points="305,-180.5 166,-180.5 166,-150.5 305,-150.5 305,-180.5"/>
<text text-anchor="start" x="174" y="-168.5" font-family="Helvetica,sans-Serif" font-size="10.00">DisplayManager::clearAll</text>
<text text-anchor="middle" x="235.5" y="-157.5" font-family="Helvetica,sans-Serif" font-size="10.00">Displays</text>
</a>
</g>
</g>
<!-- Node2&#45;&gt;Node3 -->
<g id="edge2_Node000002_Node000003" class="edge">
<title>Node2&#45;&gt;Node3</title>
<g id="a_edge2_Node000002_Node000003"><a xlink:title=" ">
<path fill="none" stroke="#63b8ff" d="M419.18,-115.95C393.86,-123.57 360.62,-133.38 331,-141.5 320.06,-144.5 308.38,-147.57 297.08,-150.47"/>
<polygon fill="#63b8ff" stroke="#63b8ff" points="420.25,-119.29 428.81,-113.05 418.23,-112.58 420.25,-119.29"/>
</a>
</g>
</g>
<!-- Node8 -->
<g id="Node000008" class="node">
<title>Node8</title>
<g id="a_Node000008"><a xlink:href="classDisplayManager.html#aa0e0e26134a34beeb30e27c00b8e829f" target="_top" xlink:title="Calls the displayStartupInfo of all Display instances to display the version.">
<polygon fill="white" stroke="#666666" points="331,-95 140,-95 140,-76 331,-76 331,-95"/>
<text text-anchor="middle" x="235.5" y="-83" font-family="Helvetica,sans-Serif" font-size="10.00">DisplayManager::displayStartupInfo</text>
</a>
</g>
</g>
<!-- Node2&#45;&gt;Node8 -->
<g id="edge4_Node000002_Node000008" class="edge">
<title>Node2&#45;&gt;Node8</title>
<g id="a_edge4_Node000002_Node000008"><a xlink:title=" ">
<path fill="none" stroke="#63b8ff" d="M356.6,-95.17C348.17,-94.49 339.68,-93.81 331.31,-93.14"/>
<polygon fill="#63b8ff" stroke="#63b8ff" points="356.59,-98.68 366.83,-96 357.15,-91.71 356.59,-98.68"/>
</a>
</g>
</g>
<!-- Node15 -->
<g id="Node000015" class="node">
<title>Node15</title>
<g id="a_Node000015"><a xlink:href="classDisplayManager.html#ad53dcac2e939893727d27187524733c6" target="_top" xlink:title="Call this routinely to ensure all displays are updated with screens.">
<polygon fill="white" stroke="#666666" points="303.5,-132 167.5,-132 167.5,-113 303.5,-113 303.5,-132"/>
<text text-anchor="middle" x="235.5" y="-120" font-family="Helvetica,sans-Serif" font-size="10.00">DisplayManager::update</text>
</a>
</g>
</g>
<!-- Node2&#45;&gt;Node15 -->
<g id="edge8_Node000002_Node000015" class="edge">
<title>Node2&#45;&gt;Node15</title>
<g id="a_edge8_Node000002_Node000015"><a xlink:title=" ">
<path fill="none" stroke="#63b8ff" d="M356.84,-112.27C338.78,-113.81 320.41,-115.37 303.65,-116.79"/>
<polygon fill="#63b8ff" stroke="#63b8ff" points="357.17,-115.75 366.83,-111.42 356.57,-108.78 357.17,-115.75"/>
</a>
</g>
</g>
<!-- Node4 -->
<g id="Node000004" class="node">
<title>Node4</title>
<g id="a_Node000004"><a xlink:href="classController.html#a7d04c17913f04f99429aa29fa8505484" target="_top" xlink:title="Processes all ongoing activities, monitoring streams, receiving user input, updates displays,...">
<polygon fill="#fff0f0" stroke="red" points="104,-171 0,-171 0,-152 104,-152 104,-171"/>
<text text-anchor="middle" x="52" y="-159" font-family="Helvetica,sans-Serif" font-size="10.00">Controller::update</text>
</a>
</g>
</g>
<!-- Node3&#45;&gt;Node4 -->
<g id="edge3_Node000003_Node000004" class="edge">
<title>Node3&#45;&gt;Node4</title>
<g id="a_edge3_Node000003_Node000004"><a xlink:title=" ">
<path fill="none" stroke="#63b8ff" d="M155.69,-163.76C138.24,-163.38 120.18,-162.98 104.17,-162.63"/>
<polygon fill="#63b8ff" stroke="#63b8ff" points="155.81,-167.27 165.88,-163.99 155.96,-160.27 155.81,-167.27"/>
</a>
</g>
</g>
<!-- Node9 -->
<g id="Node000009" class="node">
<title>Node9</title>
<g id="a_Node000009"><a xlink:href="classController.html#a1cc0b87ab9e07d21ab47d294aa5bf607" target="_top" xlink:title="Call once to start displays and input.">
<polygon fill="#fff0f0" stroke="red" points="101,-131 3,-131 3,-112 101,-112 101,-131"/>
<text text-anchor="middle" x="52" y="-119" font-family="Helvetica,sans-Serif" font-size="10.00">Controller::begin</text>
</a>
</g>
</g>
<!-- Node8&#45;&gt;Node9 -->
<g id="edge5_Node000008_Node000009" class="edge">
<title>Node8&#45;&gt;Node9</title>
<g id="a_edge5_Node000008_Node000009"><a xlink:title=" ">
<path fill="none" stroke="#63b8ff" d="M176.51,-97C152.18,-101.83 124.23,-107.37 101.07,-111.97"/>
<polygon fill="#63b8ff" stroke="#63b8ff" points="177.21,-100.43 186.34,-95.05 175.85,-93.57 177.21,-100.43"/>
</a>
</g>
</g>
<!-- Node13 -->
<g id="Node000013" class="node">
<title>Node13</title>
<g id="a_Node000013"><a xlink:href="test__DisplayManager_8cpp.html#ad108e01a79b7f75a831a955e93bb9176" target="_top" xlink:title="Validate the displayStartupInfo() method correct calls all display methods.">
<polygon fill="white" stroke="#666666" points="78,-94 26,-94 26,-75 78,-75 78,-94"/>
<text text-anchor="middle" x="52" y="-82" font-family="Helvetica,sans-Serif" font-size="10.00">TEST_F</text>
</a>
</g>
</g>
<!-- Node8&#45;&gt;Node13 -->
<g id="edge6_Node000008_Node000013" class="edge">
<title>Node8&#45;&gt;Node13</title>
<g id="a_edge6_Node000008_Node000013"><a xlink:title=" ">
<path fill="none" stroke="#63b8ff" d="M129.62,-84.92C110.35,-84.82 91.94,-84.71 78.01,-84.64"/>
<polygon fill="#63b8ff" stroke="#63b8ff" points="129.74,-88.42 139.76,-84.98 129.78,-81.42 129.74,-88.42"/>
</a>
</g>
</g>
<!-- Node8&#45;&gt;Node14 -->
<g id="edge7_Node000008_Node000014" class="edge">
<title>Node8&#45;&gt;Node14</title>
<g id="a_edge7_Node000008_Node000014"><a xlink:title=" ">
<path fill="none" stroke="#63b8ff" d="M178.54,-73.78C144.96,-66.75 103.89,-58.16 78.08,-52.75"/>
<polygon fill="#63b8ff" stroke="#63b8ff" points="178.19,-77.29 188.7,-75.91 179.63,-70.44 178.19,-77.29"/>
</a>
</g>
</g>
<!-- Node15&#45;&gt;Node4 -->
<g id="edge9_Node000015_Node000004" class="edge">
<title>Node15&#45;&gt;Node4</title>
<g id="a_edge9_Node000015_Node000004"><a xlink:title=" ">
<path fill="none" stroke="#63b8ff" d="M176.02,-134C164.09,-136.42 151.63,-138.99 140,-141.5 124.85,-144.76 108.26,-148.53 93.67,-151.91"/>
<polygon fill="#63b8ff" stroke="#63b8ff" points="176.78,-137.41 185.89,-132.01 175.39,-130.55 176.78,-137.41"/>
</a>
</g>
</g>
</g>
</svg>
