<?xml version="1.0" encoding="UTF-8" standalone="no"?>
<!DOCTYPE svg PUBLIC "-//W3C//DTD SVG 1.1//EN"
 "http://www.w3.org/Graphics/SVG/1.1/DTD/svg11.dtd">
<!-- Generated by graphviz version 2.43.0 (0)
 -->
<!-- Title: DisplayInterface::formatRow Pages: 1 -->
<svg width="339pt" height="278pt"
 viewBox="0.00 0.00 339.00 278.00" xmlns="http://www.w3.org/2000/svg" xmlns:xlink="http://www.w3.org/1999/xlink">
<g id="graph0" class="graph" transform="scale(1 1) rotate(0) translate(4 274)">
<title>DisplayInterface::formatRow</title>
<!-- Node1 -->
<g id="Node000001" class="node">
<title>Node1</title>
<g id="a_Node000001"><a xlink:title="Static method to enable calling back to a derived class with a formatted row.">
<polygon fill="#999999" stroke="#666666" points="157,-144.5 0,-144.5 0,-125.5 157,-125.5 157,-144.5"/>
<text text-anchor="middle" x="78.5" y="-132.5" font-family="Helvetica,sans-Serif" font-size="10.00">DisplayInterface::formatRow</text>
</a>
</g>
</g>
<!-- Node2 -->
<g id="Node000002" class="node">
<title>Node2</title>
<g id="a_Node000002"><a xlink:href="classDisplayInterface.html#acde7922833a368ce3233fe4d721f838a" target="_top" xlink:title="Convert the provided RGB colour code string constant to a uint16_t RGB565 colour.">
<polygon fill="white" stroke="#666666" points="326,-270 198,-270 198,-240 326,-240 326,-270"/>
<text text-anchor="start" x="206" y="-258" font-family="Helvetica,sans-Serif" font-size="10.00">DisplayInterface::</text>
<text text-anchor="middle" x="262" y="-247" font-family="Helvetica,sans-Serif" font-size="10.00">_convertRGBtoRGB565</text>
</a>
</g>
</g>
<!-- Node1&#45;&gt;Node2 -->
<g id="edge1_Node000001_Node000002" class="edge">
<title>Node1&#45;&gt;Node2</title>
<g id="a_edge1_Node000001_Node000002"><a xlink:title=" ">
<path fill="none" stroke="#63b8ff" d="M88.6,-144.78C106.78,-163.8 149.57,-206.09 193,-231 195.88,-232.65 198.89,-234.22 201.97,-235.7"/>
<polygon fill="#63b8ff" stroke="#63b8ff" points="200.84,-239.02 211.39,-239.89 203.68,-232.63 200.84,-239.02"/>
</a>
</g>
</g>
<!-- Node3 -->
<g id="Node000003" class="node">
<title>Node3</title>
<g id="a_Node000003"><a xlink:href="classDisplayInterface.html#ad8da5e63e3775f8f02b04636a9482d97" target="_top" xlink:title="Validates the provided char is a valid modifier.">
<polygon fill="white" stroke="#666666" points="313.5,-222 210.5,-222 210.5,-192 313.5,-192 313.5,-222"/>
<text text-anchor="start" x="218.5" y="-210" font-family="Helvetica,sans-Serif" font-size="10.00">DisplayInterface::</text>
<text text-anchor="middle" x="262" y="-199" font-family="Helvetica,sans-Serif" font-size="10.00">_isModifier</text>
</a>
</g>
</g>
<!-- Node1&#45;&gt;Node3 -->
<g id="edge2_Node000001_Node000003" class="edge">
<title>Node1&#45;&gt;Node3</title>
<g id="a_edge2_Node000001_Node000003"><a xlink:title=" ">
<path fill="none" stroke="#63b8ff" d="M101.1,-144.6C123.82,-154.58 160.68,-170.48 193,-183 197.69,-184.82 202.59,-186.66 207.51,-188.47"/>
<polygon fill="#63b8ff" stroke="#63b8ff" points="206.37,-191.78 216.96,-191.9 208.75,-185.2 206.37,-191.78"/>
</a>
</g>
</g>
<!-- Node4 -->
<g id="Node000004" class="node">
<title>Node4</title>
<g id="a_Node000004"><a xlink:href="classDisplayInterface.html#ac5cc108ca1c1410a8321078b3868ed78" target="_top" xlink:title="Check if the provided string constant translates to a valid RGB colour code.">
<polygon fill="white" stroke="#666666" points="313.5,-174 210.5,-174 210.5,-144 313.5,-144 313.5,-174"/>
<text text-anchor="start" x="218.5" y="-162" font-family="Helvetica,sans-Serif" font-size="10.00">DisplayInterface::</text>
<text text-anchor="middle" x="262" y="-151" font-family="Helvetica,sans-Serif" font-size="10.00">_isRGB</text>
</a>
</g>
</g>
<!-- Node1&#45;&gt;Node4 -->
<g id="edge3_Node000001_Node000004" class="edge">
<title>Node1&#45;&gt;Node4</title>
<g id="a_edge3_Node000001_Node000004"><a xlink:title=" ">
<path fill="none" stroke="#63b8ff" d="M151.49,-144.52C167.65,-146.66 184.64,-148.9 200.28,-150.97"/>
<polygon fill="#63b8ff" stroke="#63b8ff" points="199.97,-154.46 210.34,-152.3 200.89,-147.52 199.97,-154.46"/>
</a>
</g>
</g>
<!-- Node5 -->
<g id="Node000005" class="node">
<title>Node5</title>
<g id="a_Node000005"><a xlink:href="classDisplayInterface.html#a96f1a22d4566a22aefd3b652808d9441" target="_top" xlink:title="Sanitise the provided struct of RowAttributes.">
<polygon fill="white" stroke="#666666" points="316,-126 208,-126 208,-96 316,-96 316,-126"/>
<text text-anchor="start" x="216" y="-114" font-family="Helvetica,sans-Serif" font-size="10.00">DisplayInterface::</text>
<text text-anchor="middle" x="262" y="-103" font-family="Helvetica,sans-Serif" font-size="10.00">_sanitiseAttributes</text>
</a>
</g>
</g>
<!-- Node1&#45;&gt;Node5 -->
<g id="edge4_Node000001_Node000005" class="edge">
<title>Node1&#45;&gt;Node5</title>
<g id="a_edge4_Node000001_Node000005"><a xlink:title=" ">
<path fill="none" stroke="#63b8ff" d="M151.49,-125.48C166.77,-123.46 182.79,-121.34 197.72,-119.37"/>
<polygon fill="#63b8ff" stroke="#63b8ff" points="198.4,-122.81 207.86,-118.03 197.48,-115.87 198.4,-122.81"/>
</a>
</g>
</g>
<!-- Node6 -->
<g id="Node000006" class="node">
<title>Node6</title>
<g id="a_Node000006"><a xlink:href="classDisplayInterface.html#a652c6ce102531b9dd02fb960946987c8" target="_top" xlink:title="Update the provided RowAttributes struct according to the provided modifier.">
<polygon fill="white" stroke="#666666" points="313.5,-78 210.5,-78 210.5,-48 313.5,-48 313.5,-78"/>
<text text-anchor="start" x="218.5" y="-66" font-family="Helvetica,sans-Serif" font-size="10.00">DisplayInterface::</text>
<text text-anchor="middle" x="262" y="-55" font-family="Helvetica,sans-Serif" font-size="10.00">_setAttribute</text>
</a>
</g>
</g>
<!-- Node1&#45;&gt;Node6 -->
<g id="edge5_Node000001_Node000006" class="edge">
<title>Node1&#45;&gt;Node6</title>
<g id="a_edge5_Node000001_Node000006"><a xlink:title=" ">
<path fill="none" stroke="#63b8ff" d="M101.1,-125.4C123.82,-115.42 160.68,-99.52 193,-87 197.69,-85.18 202.59,-83.34 207.51,-81.53"/>
<polygon fill="#63b8ff" stroke="#63b8ff" points="208.75,-84.8 216.96,-78.1 206.37,-78.22 208.75,-84.8"/>
</a>
</g>
</g>
<!-- Node7 -->
<g id="Node000007" class="node">
<title>Node7</title>
<g id="a_Node000007"><a xlink:href="classDisplayInterface.html#a8e1258fa3f32baf1587b80354c8afdb3" target="_top" xlink:title="Display a row using formatting modifiers.">
<polygon fill="white" stroke="#666666" points="331,-30 193,-30 193,0 331,0 331,-30"/>
<text text-anchor="start" x="201" y="-18" font-family="Helvetica,sans-Serif" font-size="10.00">DisplayInterface::display</text>
<text text-anchor="middle" x="262" y="-7" font-family="Helvetica,sans-Serif" font-size="10.00">FormattedRow</text>
</a>
</g>
</g>
<!-- Node1&#45;&gt;Node7 -->
<g id="edge6_Node000001_Node000007" class="edge">
<title>Node1&#45;&gt;Node7</title>
<g id="a_edge6_Node000001_Node000007"><a xlink:title=" ">
<path fill="none" stroke="#63b8ff" d="M88.6,-125.22C106.78,-106.2 149.57,-63.91 193,-39 195.88,-37.35 198.89,-35.78 201.97,-34.3"/>
<polygon fill="#63b8ff" stroke="#63b8ff" points="203.68,-37.37 211.39,-30.11 200.84,-30.98 203.68,-37.37"/>
</a>
</g>
</g>
</g>
</svg>
