<?xml version="1.0" encoding="UTF-8" standalone="no"?>
<!DOCTYPE svg PUBLIC "-//W3C//DTD SVG 1.1//EN"
 "http://www.w3.org/Graphics/SVG/1.1/DTD/svg11.dtd">
<!-- Generated by graphviz version 2.43.0 (0)
 -->
<!-- Title: MockTouchScreenInput::check Pages: 1 -->
<svg width="395pt" height="137pt"
 viewBox="0.00 0.00 395.00 137.00" xmlns="http://www.w3.org/2000/svg" xmlns:xlink="http://www.w3.org/1999/xlink">
<g id="graph0" class="graph" transform="scale(1 1) rotate(0) translate(4 133)">
<title>MockTouchScreenInput::check</title>
<polygon fill="white" stroke="transparent" points="-4,4 -4,-133 391,-133 391,4 -4,4"/>
<!-- Node1 -->
<g id="node1" class="node">
<title>Node1</title>
<g id="a_node1"><a xlink:title="Call this method at least once per main loop to monitor for input actions Any actions should call the...">
<polygon fill="#bfbfbf" stroke="black" points="0,-49.5 0,-79.5 128,-79.5 128,-49.5 0,-49.5"/>
<text text-anchor="start" x="8" y="-67.5" font-family="Helvetica,sans-Serif" font-size="10.00">MockTouchScreenInput</text>
<text text-anchor="middle" x="64" y="-56.5" font-family="Helvetica,sans-Serif" font-size="10.00">::check</text>
</a>
</g>
</g>
<!-- Node2 -->
<g id="node2" class="node">
<title>Node2</title>
<g id="a_node2"><a xlink:href="classInputInterface.html#ae67f527b0f8a78a1d30a2d4e10977eea" target="_top" xlink:title="This method is designed to take an input from a touch screen display and determine which &quot;button&quot; has...">
<polygon fill="white" stroke="black" points="165.5,-98.5 165.5,-128.5 305.5,-128.5 305.5,-98.5 165.5,-98.5"/>
<text text-anchor="start" x="173.5" y="-116.5" font-family="Helvetica,sans-Serif" font-size="10.00">InputInterface::_calculate</text>
<text text-anchor="middle" x="235.5" y="-105.5" font-family="Helvetica,sans-Serif" font-size="10.00">InputAction</text>
</a>
</g>
</g>
<!-- Node1&#45;&gt;Node2 -->
<g id="edge1" class="edge">
<title>Node1&#45;&gt;Node2</title>
<path fill="none" stroke="midnightblue" d="M117.24,-79.6C134.8,-84.68 154.56,-90.39 172.78,-95.66"/>
<polygon fill="midnightblue" stroke="midnightblue" points="171.86,-99.03 182.43,-98.45 173.8,-92.31 171.86,-99.03"/>
</g>
<!-- Node3 -->
<g id="node3" class="node">
<title>Node3</title>
<g id="a_node3"><a xlink:href="classInputInterface.html#afefc70fa413062a1df8e7950f1afc564" target="_top" xlink:title="Call this from the derived class&#39; check() method to debounce and detect if the input is a hold vs....">
<polygon fill="white" stroke="black" points="164,-49.5 164,-79.5 307,-79.5 307,-49.5 164,-49.5"/>
<text text-anchor="start" x="172" y="-67.5" font-family="Helvetica,sans-Serif" font-size="10.00">InputInterface::_debounce</text>
<text text-anchor="middle" x="235.5" y="-56.5" font-family="Helvetica,sans-Serif" font-size="10.00">OrHeld</text>
</a>
</g>
</g>
<!-- Node1&#45;&gt;Node3 -->
<g id="edge2" class="edge">
<title>Node1&#45;&gt;Node3</title>
<path fill="none" stroke="midnightblue" d="M128.12,-64.5C136.5,-64.5 145.2,-64.5 153.83,-64.5"/>
<polygon fill="midnightblue" stroke="midnightblue" points="153.92,-68 163.92,-64.5 153.92,-61 153.92,-68"/>
</g>
<!-- Node5 -->
<g id="node5" class="node">
<title>Node5</title>
<g id="a_node5"><a xlink:href="classCallbackInterface.html#a0050e0aa32d6f53635dd19462ab5153f" target="_top" xlink:title="Method to implement to respond to an input action.">
<polygon fill="white" stroke="black" points="181.5,-0.5 181.5,-30.5 289.5,-30.5 289.5,-0.5 181.5,-0.5"/>
<text text-anchor="start" x="189.5" y="-18.5" font-family="Helvetica,sans-Serif" font-size="10.00">CallbackInterface::</text>
<text text-anchor="middle" x="235.5" y="-7.5" font-family="Helvetica,sans-Serif" font-size="10.00">onInputAction</text>
</a>
</g>
</g>
<!-- Node1&#45;&gt;Node5 -->
<g id="edge4" class="edge">
<title>Node1&#45;&gt;Node5</title>
<path fill="none" stroke="midnightblue" d="M117.24,-49.4C134.8,-44.32 154.56,-38.61 172.78,-33.34"/>
<polygon fill="midnightblue" stroke="midnightblue" points="173.8,-36.69 182.43,-30.55 171.86,-29.97 173.8,-36.69"/>
</g>
<!-- Node4 -->
<g id="node4" class="node">
<title>Node4</title>
<g id="a_node4"><a xlink:href="Arduino_8h.html#a6ff7f2532a22366f0013bc41397129fd" target="_top" xlink:title=" ">
<polygon fill="white" stroke="black" points="343,-55 343,-74 387,-74 387,-55 343,-55"/>
<text text-anchor="middle" x="365" y="-62" font-family="Helvetica,sans-Serif" font-size="10.00">millis</text>
</a>
</g>
</g>
<!-- Node3&#45;&gt;Node4 -->
<g id="edge3" class="edge">
<title>Node3&#45;&gt;Node4</title>
<path fill="none" stroke="midnightblue" d="M307.33,-64.5C316.24,-64.5 324.96,-64.5 332.78,-64.5"/>
<polygon fill="midnightblue" stroke="midnightblue" points="332.84,-68 342.84,-64.5 332.84,-61 332.84,-68"/>
</g>
</g>
</svg>
