<?xml version="1.0" encoding="UTF-8" standalone="no"?>
<!DOCTYPE svg PUBLIC "-//W3C//DTD SVG 1.1//EN"
 "http://www.w3.org/Graphics/SVG/1.1/DTD/svg11.dtd">
<!-- Generated by graphviz version 2.43.0 (0)
 -->
<!-- Title: InputInterface::setCallback Pages: 1 -->
<svg width="510pt" height="198pt"
 viewBox="0.00 0.00 510.00 198.00" xmlns="http://www.w3.org/2000/svg" xmlns:xlink="http://www.w3.org/1999/xlink">
<g id="graph0" class="graph" transform="scale(1 1) rotate(0) translate(4 194)">
<title>InputInterface::setCallback</title>
<!-- Node1 -->
<g id="Node000001" class="node">
<title>Node1</title>
<g id="a_Node000001"><a xlink:title="Set the instance for callbacks when users trigger an input action.">
<polygon fill="#999999" stroke="#666666" points="502,-96.5 354,-96.5 354,-77.5 502,-77.5 502,-96.5"/>
<text text-anchor="middle" x="428" y="-84.5" font-family="Helvetica,sans-Serif" font-size="10.00">InputInterface::setCallback</text>
</a>
</g>
</g>
<!-- Node2 -->
<g id="Node000002" class="node">
<title>Node2</title>
<g id="a_Node000002"><a xlink:href="classInputManager.html#a46a2124eddfd8617124bc16670f09633" target="_top" xlink:title="Set the InputInterface.">
<polygon fill="white" stroke="#666666" points="316,-163.5 183,-163.5 183,-144.5 316,-144.5 316,-163.5"/>
<text text-anchor="middle" x="249.5" y="-151.5" font-family="Helvetica,sans-Serif" font-size="10.00">InputManager::addInput</text>
</a>
</g>
</g>
<!-- Node1&#45;&gt;Node2 -->
<g id="edge1_Node000001_Node000002" class="edge">
<title>Node1&#45;&gt;Node2</title>
<g id="a_edge1_Node000001_Node000002"><a xlink:title=" ">
<path fill="none" stroke="#63b8ff" d="M398.34,-100.94C376.62,-111.19 345.85,-125.01 318,-135 308.37,-138.45 297.8,-141.69 287.93,-144.47"/>
<polygon fill="#63b8ff" stroke="#63b8ff" points="400.12,-103.97 407.65,-96.51 397.11,-97.65 400.12,-103.97"/>
</a>
</g>
</g>
<!-- Node5 -->
<g id="Node000005" class="node">
<title>Node5</title>
<g id="a_Node000005"><a xlink:href="classDebounceHoldInputTests.html#ac1f9bed57fb4e12ac48e79385ff321dd" target="_top" xlink:title=" ">
<polygon fill="white" stroke="#666666" points="318,-126 181,-126 181,-96 318,-96 318,-126"/>
<text text-anchor="start" x="189" y="-114" font-family="Helvetica,sans-Serif" font-size="10.00">DebounceHoldInputTests</text>
<text text-anchor="middle" x="249.5" y="-103" font-family="Helvetica,sans-Serif" font-size="10.00">::SetUp</text>
</a>
</g>
</g>
<!-- Node1&#45;&gt;Node5 -->
<g id="edge4_Node000001_Node000005" class="edge">
<title>Node1&#45;&gt;Node5</title>
<g id="a_edge4_Node000001_Node000005"><a xlink:title=" ">
<path fill="none" stroke="#63b8ff" d="M347,-97.88C337.35,-99.19 327.57,-100.52 318.12,-101.8"/>
<polygon fill="#63b8ff" stroke="#63b8ff" points="347.55,-101.34 356.99,-96.52 346.61,-94.4 347.55,-101.34"/>
</a>
</g>
</g>
<!-- Node6 -->
<g id="Node000006" class="node">
<title>Node6</title>
<g id="a_Node000006"><a xlink:href="classInputInterfaceTests.html#ae2ea7ef1af24dceda678e3cc8953d006" target="_top" xlink:title=" ">
<polygon fill="white" stroke="#666666" points="304.5,-78 194.5,-78 194.5,-48 304.5,-48 304.5,-78"/>
<text text-anchor="start" x="202.5" y="-66" font-family="Helvetica,sans-Serif" font-size="10.00">InputInterfaceTests</text>
<text text-anchor="middle" x="249.5" y="-55" font-family="Helvetica,sans-Serif" font-size="10.00">::SetUp</text>
</a>
</g>
</g>
<!-- Node1&#45;&gt;Node6 -->
<g id="edge5_Node000001_Node000006" class="edge">
<title>Node1&#45;&gt;Node6</title>
<g id="a_edge5_Node000001_Node000006"><a xlink:title=" ">
<path fill="none" stroke="#63b8ff" d="M346.69,-76.08C332.45,-74.14 317.93,-72.17 304.63,-70.36"/>
<polygon fill="#63b8ff" stroke="#63b8ff" points="346.61,-79.6 356.99,-77.48 347.55,-72.66 346.61,-79.6"/>
</a>
</g>
</g>
<!-- Node7 -->
<g id="Node000007" class="node">
<title>Node7</title>
<g id="a_Node000007"><a xlink:href="classTouchScreenInputTests.html#af56a96900180dde47c024979d931cf2e" target="_top" xlink:title=" ">
<polygon fill="white" stroke="#666666" points="313,-30 186,-30 186,0 313,0 313,-30"/>
<text text-anchor="start" x="194" y="-18" font-family="Helvetica,sans-Serif" font-size="10.00">TouchScreenInputTests</text>
<text text-anchor="middle" x="249.5" y="-7" font-family="Helvetica,sans-Serif" font-size="10.00">::SetUp</text>
</a>
</g>
</g>
<!-- Node1&#45;&gt;Node7 -->
<g id="edge6_Node000001_Node000007" class="edge">
<title>Node1&#45;&gt;Node7</title>
<g id="a_edge6_Node000001_Node000007"><a xlink:title=" ">
<path fill="none" stroke="#63b8ff" d="M396.94,-73.05C375.19,-63.14 345,-49.73 318,-39 310.37,-35.97 302.19,-32.91 294.25,-30.03"/>
<polygon fill="#63b8ff" stroke="#63b8ff" points="395.75,-76.36 406.3,-77.34 398.66,-69.99 395.75,-76.36"/>
</a>
</g>
</g>
<!-- Node3 -->
<g id="Node000003" class="node">
<title>Node3</title>
<g id="a_Node000003"><a xlink:href="classControllerInputActionTests.html#afb639f110e387a10897f635bdd329a4a" target="_top" xlink:title=" ">
<polygon fill="white" stroke="#666666" points="145,-190 0,-190 0,-160 145,-160 145,-190"/>
<text text-anchor="start" x="8" y="-178" font-family="Helvetica,sans-Serif" font-size="10.00">ControllerInputActionTests</text>
<text text-anchor="middle" x="72.5" y="-167" font-family="Helvetica,sans-Serif" font-size="10.00">::SetUp</text>
</a>
</g>
</g>
<!-- Node2&#45;&gt;Node3 -->
<g id="edge2_Node000002_Node000003" class="edge">
<title>Node2&#45;&gt;Node3</title>
<g id="a_edge2_Node000002_Node000003"><a xlink:title=" ">
<path fill="none" stroke="#63b8ff" d="M172.62,-163.11C163.48,-164.2 154.17,-165.32 145.1,-166.41"/>
<polygon fill="#63b8ff" stroke="#63b8ff" points="173.33,-166.55 182.84,-161.88 172.49,-159.6 173.33,-166.55"/>
</a>
</g>
</g>
<!-- Node4 -->
<g id="Node000004" class="node">
<title>Node4</title>
<g id="a_Node000004"><a xlink:href="test__InputManager_8cpp.html#ae61e78914c3beb26e21559280269fc47" target="_top" xlink:title="Test to ensure an input can be set, retrieved, and started with the InputManager.">
<polygon fill="white" stroke="#666666" points="98.5,-141.5 46.5,-141.5 46.5,-122.5 98.5,-122.5 98.5,-141.5"/>
<text text-anchor="middle" x="72.5" y="-129.5" font-family="Helvetica,sans-Serif" font-size="10.00">TEST_F</text>
</a>
</g>
</g>
<!-- Node2&#45;&gt;Node4 -->
<g id="edge3_Node000002_Node000004" class="edge">
<title>Node2&#45;&gt;Node4</title>
<g id="a_edge3_Node000002_Node000004"><a xlink:title=" ">
<path fill="none" stroke="#63b8ff" d="M172.77,-144.48C146.26,-141.15 118.28,-137.63 98.81,-135.18"/>
<polygon fill="#63b8ff" stroke="#63b8ff" points="172.48,-147.97 182.84,-145.75 173.35,-141.03 172.48,-147.97"/>
</a>
</g>
</g>
</g>
</svg>
