<?xml version="1.0" encoding="UTF-8" standalone="no"?>
<!DOCTYPE svg PUBLIC "-//W3C//DTD SVG 1.1//EN"
 "http://www.w3.org/Graphics/SVG/1.1/DTD/svg11.dtd">
<!-- Generated by graphviz version 2.43.0 (0)
 -->
<!-- Title: InputInterface::_debounceOrHeld Pages: 1 -->
<svg width="321pt" height="113pt"
 viewBox="0.00 0.00 321.00 113.00" xmlns="http://www.w3.org/2000/svg" xmlns:xlink="http://www.w3.org/1999/xlink">
<g id="graph0" class="graph" transform="scale(1 1) rotate(0) translate(4 109)">
<title>InputInterface::_debounceOrHeld</title>
<!-- Node1 -->
<g id="Node000001" class="node">
<title>Node1</title>
<g id="a_Node000001"><a xlink:title="Call this from the derived class&#39; check() method to debounce and detect if the input is a hold vs....">
<polygon fill="#999999" stroke="#666666" points="313,-67.5 170,-67.5 170,-37.5 313,-37.5 313,-67.5"/>
<text text-anchor="start" x="178" y="-55.5" font-family="Helvetica,sans-Serif" font-size="10.00">InputInterface::_debounce</text>
<text text-anchor="middle" x="241.5" y="-44.5" font-family="Helvetica,sans-Serif" font-size="10.00">OrHeld</text>
</a>
</g>
</g>
<!-- Node2 -->
<g id="Node000002" class="node">
<title>Node2</title>
<g id="a_Node000002"><a xlink:href="classMockButtonInput.html#aff7bf3f4782dc8dd912f94be30b006e8" target="_top" xlink:title="Call this method at least once per main loop to monitor for input actions Any actions should call the...">
<polygon fill="white" stroke="#666666" points="134,-105 0,-105 0,-86 134,-86 134,-105"/>
<text text-anchor="middle" x="67" y="-93" font-family="Helvetica,sans-Serif" font-size="10.00">MockButtonInput::check</text>
</a>
</g>
</g>
<!-- Node1&#45;&gt;Node2 -->
<g id="edge1_Node000001_Node000002" class="edge">
<title>Node1&#45;&gt;Node2</title>
<g id="a_edge1_Node000001_Node000002"><a xlink:title=" ">
<path fill="none" stroke="#63b8ff" d="M170.23,-70.02C148.34,-75.47 125.03,-81.28 106.2,-85.98"/>
<polygon fill="#63b8ff" stroke="#63b8ff" points="171.31,-73.35 180.17,-67.54 169.62,-66.56 171.31,-73.35"/>
</a>
</g>
</g>
<!-- Node3 -->
<g id="Node000003" class="node">
<title>Node3</title>
<g id="a_Node000003"><a xlink:href="classMockTouchScreenInput.html#afd6a598f9008cc810597db1db68aa6c0" target="_top" xlink:title="Call this method at least once per main loop to monitor for input actions Any actions should call the...">
<polygon fill="white" stroke="#666666" points="131,-67.5 3,-67.5 3,-37.5 131,-37.5 131,-67.5"/>
<text text-anchor="start" x="11" y="-55.5" font-family="Helvetica,sans-Serif" font-size="10.00">MockTouchScreenInput</text>
<text text-anchor="middle" x="67" y="-44.5" font-family="Helvetica,sans-Serif" font-size="10.00">::check</text>
</a>
</g>
</g>
<!-- Node1&#45;&gt;Node3 -->
<g id="edge2_Node000001_Node000003" class="edge">
<title>Node1&#45;&gt;Node3</title>
<g id="a_edge2_Node000001_Node000003"><a xlink:title=" ">
<path fill="none" stroke="#63b8ff" d="M159.83,-52.5C150.18,-52.5 140.43,-52.5 131.08,-52.5"/>
<polygon fill="#63b8ff" stroke="#63b8ff" points="159.84,-56 169.84,-52.5 159.84,-49 159.84,-56"/>
</a>
</g>
</g>
<!-- Node4 -->
<g id="Node000004" class="node">
<title>Node4</title>
<g id="a_Node000004"><a xlink:href="classTFT__eSPITouch.html#afd86f481b8789120fe1fa9357f183741" target="_top" xlink:title="Call this method at least once per main loop to monitor for input actions Any actions should call the...">
<polygon fill="white" stroke="#666666" points="128,-19 6,-19 6,0 128,0 128,-19"/>
<text text-anchor="middle" x="67" y="-7" font-family="Helvetica,sans-Serif" font-size="10.00">TFT_eSPITouch::check</text>
</a>
</g>
</g>
<!-- Node1&#45;&gt;Node4 -->
<g id="edge3_Node000001_Node000004" class="edge">
<title>Node1&#45;&gt;Node4</title>
<g id="a_edge3_Node000001_Node000004"><a xlink:title=" ">
<path fill="none" stroke="#63b8ff" d="M170.23,-34.98C148.34,-29.53 125.03,-23.72 106.2,-19.02"/>
<polygon fill="#63b8ff" stroke="#63b8ff" points="169.62,-38.44 180.17,-37.46 171.31,-31.65 169.62,-38.44"/>
</a>
</g>
</g>
</g>
</svg>
