<?xml version="1.0" encoding="UTF-8" standalone="no"?>
<!DOCTYPE svg PUBLIC "-//W3C//DTD SVG 1.1//EN"
 "http://www.w3.org/Graphics/SVG/1.1/DTD/svg11.dtd">
<!-- Generated by graphviz version 2.43.0 (0)
 -->
<!-- Title: TFT_eSPIDisplay::_getRowPosition Pages: 1 -->
<!--zoomable 127 -->
<svg id="main" version="1.1" xmlns="http://www.w3.org/2000/svg" xmlns:xlink="http://www.w3.org/1999/xlink" xml:space="preserve" onload="init(evt)">
<style type="text/css"><![CDATA[
.edge:hover path { stroke: red; }
.edge:hover polygon { stroke: red; fill: red; }
]]></style>
<script type="text/javascript"><![CDATA[
var edges = document.getElementsByTagName('g');
if (edges && edges.length) {
  for (var i=0;i<edges.length;i++) {
    if (edges[i].id.substr(0,4)=='edge') {
      edges[i].setAttribute('class','edge');
    }
  }
}
]]></script>
        <defs>
                <circle id="rim" cx="0" cy="0" r="7"/>
                <circle id="rim2" cx="0" cy="0" r="3.5"/>
                <g id="zoomPlus">
                        <use xlink:href="#rim" fill="#404040">
                                <set attributeName="fill" to="#808080" begin="zoomplus.mouseover" end="zoomplus.mouseout"/>
                        </use>
                        <path d="M-4,0h8M0,-4v8" fill="none" stroke="white" stroke-width="1.5" pointer-events="none"/>
                </g>
                <g id="zoomMin">
                        <use xlink:href="#rim" fill="#404040">
                                <set attributeName="fill" to="#808080" begin="zoomminus.mouseover" end="zoomminus.mouseout"/>
                        </use>
                        <path d="M-4,0h8" fill="none" stroke="white" stroke-width="1.5" pointer-events="none"/>
                </g>
                <g id="dirArrow">
                        <path fill="none" stroke="white" stroke-width="1.5" d="M0,-3.0v7 M-2.5,-0.5L0,-3.0L2.5,-0.5"/>
                </g>
               <g id="resetDef">
                       <use xlink:href="#rim2" fill="#404040">
                               <set attributeName="fill" to="#808080" begin="reset.mouseover" end="reset.mouseout"/>
                       </use>
               </g>
        </defs>

<script type="text/javascript">
var viewWidth = 753;
var viewHeight = 127;
var sectionId = 'dynsection-3';
</script>
<script xlink:href="svgpan.js"/>
<svg id="graph" class="graph">
<g id="viewport">
<title>TFT_eSPIDisplay::_getRowPosition</title>
<polygon fill="white" stroke="transparent" points="-4,4 -4,-123 749,-123 749,4 -4,4"/>
<!-- Node1 -->
<g id="node1" class="node">
<title>Node1</title>
<g id="a_node1"><a xlink:title="Get the X/Y coordinates to draw the specified row, starting at the specified column.">
<polygon fill="#bfbfbf" stroke="black" points="601,-44.5 601,-74.5 745,-74.5 745,-44.5 601,-44.5"/>
<text text-anchor="start" x="609" y="-62.5" font-family="Helvetica,sans-Serif" font-size="10.00">TFT_eSPIDisplay::_getRow</text>
<text text-anchor="middle" x="673" y="-51.5" font-family="Helvetica,sans-Serif" font-size="10.00">Position</text>
</a>
</g>
</g>
<!-- Node2 -->
<g id="node2" class="node">
<title>Node2</title>
<g id="a_node2"><a xlink:href="classTFT__eSPIDisplay.html#a0d8317643dddb535369abd48de8bdbda" target="_top" xlink:title="Clear the specified row.">
<polygon fill="white" stroke="black" points="418,-88 418,-107 565,-107 565,-88 418,-88"/>
<text text-anchor="middle" x="491.5" y="-95" font-family="Helvetica,sans-Serif" font-size="10.00">TFT_eSPIDisplay::clearRow</text>
</a>
</g>
</g>
<!-- Node1&#45;&gt;Node2 -->
<g id="edge1" class="edge">
<title>Node1&#45;&gt;Node2</title>
<path fill="none" stroke="midnightblue" d="M591.16,-76.61C572.69,-80.52 553.7,-84.54 537.38,-88"/>
<polygon fill="midnightblue" stroke="midnightblue" points="592,-80.01 601.06,-74.52 590.55,-73.17 592,-80.01"/>
</g>
<!-- Node3 -->
<g id="node3" class="node">
<title>Node3</title>
<g id="a_node3"><a xlink:href="classTFT__eSPIDisplay.html#a18b84c77677d72c6515d0cd45e9c65ae" target="_top" xlink:title="Display a row of text on the display.">
<polygon fill="white" stroke="black" points="224,-69 224,-88 382,-88 382,-69 224,-69"/>
<text text-anchor="middle" x="303" y="-76" font-family="Helvetica,sans-Serif" font-size="10.00">TFT_eSPIDisplay::displayRow</text>
</a>
</g>
</g>
<!-- Node1&#45;&gt;Node3 -->
<g id="edge5" class="edge">
<title>Node1&#45;&gt;Node3</title>
<path fill="none" stroke="midnightblue" d="M590.46,-63.71C528.37,-66.92 443.44,-71.3 382.19,-74.46"/>
<polygon fill="midnightblue" stroke="midnightblue" points="590.8,-67.2 600.61,-63.19 590.44,-60.21 590.8,-67.2"/>
</g>
<!-- Node7 -->
<g id="node6" class="node">
<title>Node7</title>
<g id="a_node6"><a xlink:href="classTFT__eSPIDisplay.html#aa1f86437ebb95745bdf69be9142ef26b" target="_top" xlink:title="Display the startup screen with software version.">
<polygon fill="white" stroke="black" points="423,-0.5 423,-30.5 560,-30.5 560,-0.5 423,-0.5"/>
<text text-anchor="start" x="431" y="-18.5" font-family="Helvetica,sans-Serif" font-size="10.00">TFT_eSPIDisplay::display</text>
<text text-anchor="middle" x="491.5" y="-7.5" font-family="Helvetica,sans-Serif" font-size="10.00">StartupInfo</text>
</a>
</g>
</g>
<!-- Node1&#45;&gt;Node7 -->
<g id="edge6" class="edge">
<title>Node1&#45;&gt;Node7</title>
<path fill="none" stroke="midnightblue" d="M600.67,-42.01C585.16,-38.21 568.88,-34.22 553.8,-30.53"/>
<polygon fill="midnightblue" stroke="midnightblue" points="600.18,-45.5 610.73,-44.48 601.85,-38.7 600.18,-45.5"/>
</g>
<!-- Node2&#45;&gt;Node3 -->
<g id="edge2" class="edge">
<title>Node2&#45;&gt;Node3</title>
<path fill="none" stroke="midnightblue" d="M407.65,-89.06C399.23,-88.2 390.68,-87.33 382.3,-86.48"/>
<polygon fill="midnightblue" stroke="midnightblue" points="407.56,-92.57 417.86,-90.1 408.27,-85.6 407.56,-92.57"/>
</g>
<!-- Node4 -->
<g id="node4" class="node">
<title>Node4</title>
<g id="a_node4"><a xlink:href="classTFT__eSPITouch.html#ad71507c11a328924064e703daef05ada" target="_top" xlink:title="Display calibration error on screen and pause for 5 seconds.">
<polygon fill="white" stroke="red" points="0,-88.5 0,-118.5 188,-118.5 188,-88.5 0,-88.5"/>
<text text-anchor="start" x="8" y="-106.5" font-family="Helvetica,sans-Serif" font-size="10.00">TFT_eSPITouch::_displayCalibration</text>
<text text-anchor="middle" x="94" y="-95.5" font-family="Helvetica,sans-Serif" font-size="10.00">Error</text>
</a>
</g>
</g>
<!-- Node3&#45;&gt;Node4 -->
<g id="edge3" class="edge">
<title>Node3&#45;&gt;Node4</title>
<path fill="none" stroke="midnightblue" d="M213.62,-89.17C205.25,-90.18 196.75,-91.21 188.34,-92.23"/>
<polygon fill="midnightblue" stroke="midnightblue" points="214.23,-92.63 223.74,-87.95 213.39,-85.68 214.23,-92.63"/>
</g>
<!-- Node6 -->
<g id="node5" class="node">
<title>Node6</title>
<g id="a_node5"><a xlink:href="classTFT__eSPIDisplay.html#ac4c657d18bcd4dae193f5fd906411dcf" target="_top" xlink:title="Display the specified Screen on this display.">
<polygon fill="white" stroke="black" points="25.5,-39.5 25.5,-69.5 162.5,-69.5 162.5,-39.5 25.5,-39.5"/>
<text text-anchor="start" x="33.5" y="-57.5" font-family="Helvetica,sans-Serif" font-size="10.00">TFT_eSPIDisplay::display</text>
<text text-anchor="middle" x="94" y="-46.5" font-family="Helvetica,sans-Serif" font-size="10.00">Screen</text>
</a>
</g>
</g>
<!-- Node3&#45;&gt;Node6 -->
<g id="edge4" class="edge">
<title>Node3&#45;&gt;Node6</title>
<path fill="none" stroke="midnightblue" d="M213.73,-68.27C196.59,-66.28 178.87,-64.22 162.53,-62.33"/>
<polygon fill="midnightblue" stroke="midnightblue" points="213.41,-71.75 223.74,-69.43 214.21,-64.8 213.41,-71.75"/>
</g>
</g>
</svg>
        <g id="navigator" transform="translate(0 0)" fill="#404254">
                <rect fill="#f2f5e9" fill-opacity="0.5" stroke="#606060" stroke-width=".5" x="0" y="0" width="60" height="60"/>
                <use id="zoomplus" xlink:href="#zoomPlus" x="17" y="9" onmousedown="handleZoom(evt,'in')"/>
                <use id="zoomminus" xlink:href="#zoomMin" x="42" y="9" onmousedown="handleZoom(evt,'out')"/>
                <use id="reset" xlink:href="#resetDef" x="30" y="36" onmousedown="handleReset()"/>
                <g id="arrowUp" xlink:href="#dirArrow" transform="translate(30 24)" onmousedown="handlePan(0,-1)">
                  <use xlink:href="#rim" fill="#404040">
                        <set attributeName="fill" to="#808080" begin="arrowUp.mouseover" end="arrowUp.mouseout"/>
                  </use>
                  <path fill="none" stroke="white" stroke-width="1.5" d="M0,-3.0v7 M-2.5,-0.5L0,-3.0L2.5,-0.5"/>
                </g>
                <g id="arrowRight" xlink:href="#dirArrow" transform="rotate(90) translate(36 -43)" onmousedown="handlePan(1,0)">
                  <use xlink:href="#rim" fill="#404040">
                        <set attributeName="fill" to="#808080" begin="arrowRight.mouseover" end="arrowRight.mouseout"/>
                  </use>
                  <path fill="none" stroke="white" stroke-width="1.5" d="M0,-3.0v7 M-2.5,-0.5L0,-3.0L2.5,-0.5"/>
                </g>
                <g id="arrowDown" xlink:href="#dirArrow" transform="rotate(180) translate(-30 -48)" onmousedown="handlePan(0,1)">
                  <use xlink:href="#rim" fill="#404040">
                        <set attributeName="fill" to="#808080" begin="arrowDown.mouseover" end="arrowDown.mouseout"/>
                  </use>
                  <path fill="none" stroke="white" stroke-width="1.5" d="M0,-3.0v7 M-2.5,-0.5L0,-3.0L2.5,-0.5"/>
                </g>
                <g id="arrowLeft" xlink:href="#dirArrow" transform="rotate(270) translate(-36 17)" onmousedown="handlePan(-1,0)">
                  <use xlink:href="#rim" fill="#404040">
                        <set attributeName="fill" to="#808080" begin="arrowLeft.mouseover" end="arrowLeft.mouseout"/>
                  </use>
                  <path fill="none" stroke="white" stroke-width="1.5" d="M0,-3.0v7 M-2.5,-0.5L0,-3.0L2.5,-0.5"/>
                </g>
        </g>
        <svg viewBox="0 0 15 15" width="100%" height="30px" preserveAspectRatio="xMaxYMin meet">
         <g id="arrow_out" transform="scale(0.3 0.3)">
          <a xlink:href="classTFT__eSPIDisplay_afcbf3673396a684fd540bc75214719a3_icgraph_org.svg" target="_base">
           <rect id="button" ry="5" rx="5" y="6" x="6" height="38" width="38"
                fill="#f2f5e9" fill-opacity="0.5" stroke="#606060" stroke-width="1.0"/>
           <path id="arrow"
             d="M 11.500037,31.436501 C 11.940474,20.09759 22.043105,11.32322 32.158766,21.979434 L 37.068811,17.246167 C 37.068811,17.246167 37.088388,32 37.088388,32 L 22.160133,31.978069 C 22.160133,31.978069 26.997745,27.140456 26.997745,27.140456 C 18.528582,18.264221 13.291696,25.230495 11.500037,31.436501 z"
             style="fill:#404040;"/>
          </a>
         </g>
        </svg>
</svg>
