<?xml version="1.0" encoding="UTF-8" standalone="no"?>
<!DOCTYPE svg PUBLIC "-//W3C//DTD SVG 1.1//EN"
 "http://www.w3.org/Graphics/SVG/1.1/DTD/svg11.dtd">
<!-- Generated by graphviz version 2.43.0 (0)
 -->
<!-- Title: TFT_eSPITouch::_setupSPIFFS Pages: 1 -->
<svg width="655pt" height="434pt"
 viewBox="0.00 0.00 655.00 434.00" xmlns="http://www.w3.org/2000/svg" xmlns:xlink="http://www.w3.org/1999/xlink">
<g id="graph0" class="graph" transform="scale(1 1) rotate(0) translate(4 430)">
<title>TFT_eSPITouch::_setupSPIFFS</title>
<!-- Node1 -->
<g id="Node000001" class="node">
<title>Node1</title>
<g id="a_Node000001"><a xlink:title="Ensure SPIFFS filesystem is up and running.">
<polygon fill="#999999" stroke="#666666" points="158,-269 0,-269 0,-250 158,-250 158,-269"/>
<text text-anchor="middle" x="79" y="-257" font-family="Helvetica,sans-Serif" font-size="10.00">TFT_eSPITouch::_setupSPIFFS</text>
</a>
</g>
</g>
<!-- Node2 -->
<g id="Node000002" class="node">
<title>Node2</title>
<g id="a_Node000002"><a xlink:href="EX-Display_8ino.html#a4fc01d736fe50cf5b977f755b675f11d" target="_top" xlink:title="Main setup method, initialise Configurator here.">
<polygon fill="white" stroke="#666666" points="238,-269 194,-269 194,-250 238,-250 238,-269"/>
<text text-anchor="middle" x="216" y="-257" font-family="Helvetica,sans-Serif" font-size="10.00">setup</text>
</a>
</g>
</g>
<!-- Node1&#45;&gt;Node2 -->
<g id="edge1_Node000001_Node000002" class="edge">
<title>Node1&#45;&gt;Node2</title>
<g id="a_edge1_Node000001_Node000002"><a xlink:title=" ">
<path fill="none" stroke="#63b8ff" d="M158.14,-259.5C167.2,-259.5 176,-259.5 183.86,-259.5"/>
<polygon fill="#63b8ff" stroke="#63b8ff" points="183.93,-263 193.93,-259.5 183.93,-256 183.93,-263"/>
</a>
</g>
</g>
<!-- Node3 -->
<g id="Node000003" class="node">
<title>Node3</title>
<g id="a_Node000003"><a xlink:href="classController.html#a1cc0b87ab9e07d21ab47d294aa5bf607" target="_top" xlink:title="Call once to start displays and input.">
<polygon fill="white" stroke="#666666" points="396,-370 298,-370 298,-351 396,-351 396,-370"/>
<text text-anchor="middle" x="347" y="-358" font-family="Helvetica,sans-Serif" font-size="10.00">Controller::begin</text>
</a>
</g>
</g>
<!-- Node2&#45;&gt;Node3 -->
<g id="edge2_Node000002_Node000003" class="edge">
<title>Node2&#45;&gt;Node3</title>
<g id="a_edge2_Node000002_Node000003"><a xlink:title=" ">
<path fill="none" stroke="#63b8ff" d="M229.37,-269.18C251.68,-286.65 298.83,-323.57 325.85,-344.72"/>
<polygon fill="#63b8ff" stroke="#63b8ff" points="323.83,-347.58 333.86,-350.99 328.14,-342.07 323.83,-347.58"/>
</a>
</g>
</g>
<!-- Node15 -->
<g id="Node000015" class="node">
<title>Node15</title>
<g id="a_Node000015"><a xlink:href="classConfigurator.html#a82c65d6d040b717d64520903c788dd79" target="_top" xlink:title="Get the Controller instance for this Configurator.">
<polygon fill="white" stroke="#666666" points="420,-269 274,-269 274,-250 420,-250 420,-269"/>
<text text-anchor="middle" x="347" y="-257" font-family="Helvetica,sans-Serif" font-size="10.00">Configurator::getController</text>
</a>
</g>
</g>
<!-- Node2&#45;&gt;Node15 -->
<g id="edge6_Node000002_Node000015" class="edge">
<title>Node2&#45;&gt;Node15</title>
<g id="a_edge6_Node000002_Node000015"><a xlink:title=" ">
<path fill="none" stroke="#63b8ff" d="M238.01,-259.5C245.48,-259.5 254.41,-259.5 263.89,-259.5"/>
<polygon fill="#63b8ff" stroke="#63b8ff" points="263.93,-263 273.93,-259.5 263.93,-256 263.93,-263"/>
</a>
</g>
</g>
<!-- Node16 -->
<g id="Node000016" class="node">
<title>Node16</title>
<g id="a_Node000016"><a xlink:href="classConfigurator.html#a25ee5e1b0a64d971232d6ecaaadd5d61" target="_top" xlink:title="Call all one&#45;shot initialisation or begin methods on startup.">
<polygon fill="white" stroke="#666666" points="409.5,-186 284.5,-186 284.5,-167 409.5,-167 409.5,-186"/>
<text text-anchor="middle" x="347" y="-174" font-family="Helvetica,sans-Serif" font-size="10.00">Configurator::initialise</text>
</a>
</g>
</g>
<!-- Node2&#45;&gt;Node16 -->
<g id="edge7_Node000002_Node000016" class="edge">
<title>Node2&#45;&gt;Node16</title>
<g id="a_edge7_Node000002_Node000016"><a xlink:title=" ">
<path fill="none" stroke="#63b8ff" d="M231.8,-249.98C253.94,-235.73 295.91,-208.73 322.33,-191.73"/>
<polygon fill="#63b8ff" stroke="#63b8ff" points="324.46,-194.52 330.98,-186.17 320.67,-188.63 324.46,-194.52"/>
</a>
</g>
</g>
<!-- Node4 -->
<g id="Node000004" class="node">
<title>Node4</title>
<g id="a_Node000004"><a xlink:href="classDisplayManager.html#aa0e0e26134a34beeb30e27c00b8e829f" target="_top" xlink:title="Calls the displayStartupInfo of all Display instances to display the version.">
<polygon fill="#fff0f0" stroke="red" points="647,-426 456,-426 456,-407 647,-407 647,-426"/>
<text text-anchor="middle" x="551.5" y="-414" font-family="Helvetica,sans-Serif" font-size="10.00">DisplayManager::displayStartupInfo</text>
</a>
</g>
</g>
<!-- Node3&#45;&gt;Node4 -->
<g id="edge3_Node000003_Node000004" class="edge">
<title>Node3&#45;&gt;Node4</title>
<g id="a_edge3_Node000003_Node000004"><a xlink:title=" ">
<path fill="none" stroke="#63b8ff" d="M372.12,-370.16C393.79,-378.56 426.64,-390.59 456,-398.5 464.7,-400.85 473.94,-403 483.09,-404.95"/>
<polygon fill="#63b8ff" stroke="#63b8ff" points="482.47,-408.39 492.97,-406.97 483.87,-401.53 482.47,-408.39"/>
</a>
</g>
</g>
<!-- Node10 -->
<g id="Node000010" class="node">
<title>Node10</title>
<g id="a_Node000010"><a xlink:href="classDisplayManager.html#a270daf83b6af22558fde42034254b351" target="_top" xlink:title="Call the begin() method for all associated Display instances.">
<polygon fill="#fff0f0" stroke="red" points="635,-389 468,-389 468,-370 635,-370 635,-389"/>
<text text-anchor="middle" x="551.5" y="-377" font-family="Helvetica,sans-Serif" font-size="10.00">DisplayManager::startDisplays</text>
</a>
</g>
</g>
<!-- Node3&#45;&gt;Node10 -->
<g id="edge4_Node000003_Node000010" class="edge">
<title>Node3&#45;&gt;Node10</title>
<g id="a_edge4_Node000003_Node000010"><a xlink:title=" ">
<path fill="none" stroke="#63b8ff" d="M396.25,-365.03C414.73,-366.76 436.49,-368.8 457.75,-370.8"/>
<polygon fill="#63b8ff" stroke="#63b8ff" points="457.51,-374.29 467.8,-371.74 458.17,-367.32 457.51,-374.29"/>
</a>
</g>
</g>
<!-- Node13 -->
<g id="Node000013" class="node">
<title>Node13</title>
<g id="a_Node000013"><a xlink:href="classInputManager.html#aa180ec01ef4c17f0f9a3d681dc99817c" target="_top" xlink:title="Start the configured input &#45; calls the InputInterface::begin() method.">
<polygon fill="#fff0f0" stroke="red" points="620,-352 483,-352 483,-333 620,-333 620,-352"/>
<text text-anchor="middle" x="551.5" y="-340" font-family="Helvetica,sans-Serif" font-size="10.00">InputManager::startInput</text>
</a>
</g>
</g>
<!-- Node3&#45;&gt;Node13 -->
<g id="edge5_Node000003_Node000013" class="edge">
<title>Node3&#45;&gt;Node13</title>
<g id="a_edge5_Node000003_Node000013"><a xlink:title=" ">
<path fill="none" stroke="#63b8ff" d="M396.25,-356.21C419.07,-354.18 446.9,-351.71 472.6,-349.42"/>
<polygon fill="#63b8ff" stroke="#63b8ff" points="473.06,-352.9 482.71,-348.53 472.44,-345.93 473.06,-352.9"/>
</a>
</g>
</g>
<!-- Node17 -->
<g id="Node000017" class="node">
<title>Node17</title>
<g id="a_Node000017"><a xlink:href="classDisplayManager.html#a9ade9b696372a53b8b716d29d7b53c70" target="_top" xlink:title="Parses the displays configured in myConfig.h and creates the list of displays (this is implemented in...">
<polygon fill="white" stroke="#666666" points="639,-315 464,-315 464,-296 639,-296 639,-315"/>
<text text-anchor="middle" x="551.5" y="-303" font-family="Helvetica,sans-Serif" font-size="10.00">DisplayManager::createDisplays</text>
</a>
</g>
</g>
<!-- Node16&#45;&gt;Node17 -->
<g id="edge8_Node000016_Node000017" class="edge">
<title>Node16&#45;&gt;Node17</title>
<g id="a_edge8_Node000016_Node000017"><a xlink:title=" ">
<path fill="none" stroke="#63b8ff" d="M359.79,-186.06C374.54,-198.25 400.25,-220.31 420,-241.5 437.7,-260.49 433.83,-273.99 456,-287.5 458.69,-289.14 461.5,-290.64 464.4,-292.01"/>
<polygon fill="#63b8ff" stroke="#63b8ff" points="463.32,-295.35 473.9,-295.93 466,-288.88 463.32,-295.35"/>
</a>
</g>
</g>
<!-- Node18 -->
<g id="Node000018" class="node">
<title>Node18</title>
<g id="a_Node000018"><a xlink:href="classInputManager.html#a3307bd524c644992394b1f74ad9c1433" target="_top" xlink:title="Call once to create the InputInterface derived input.">
<polygon fill="white" stroke="#666666" points="624.5,-278 478.5,-278 478.5,-259 624.5,-259 624.5,-278"/>
<text text-anchor="middle" x="551.5" y="-266" font-family="Helvetica,sans-Serif" font-size="10.00">InputManager::createInput</text>
</a>
</g>
</g>
<!-- Node16&#45;&gt;Node18 -->
<g id="edge9_Node000016_Node000018" class="edge">
<title>Node16&#45;&gt;Node18</title>
<g id="a_edge9_Node000016_Node000018"><a xlink:title=" ">
<path fill="none" stroke="#63b8ff" d="M358.76,-186.17C377.22,-202.21 416.76,-234.17 456,-250.5 461.16,-252.65 466.58,-254.54 472.11,-256.21"/>
<polygon fill="#63b8ff" stroke="#63b8ff" points="471.57,-259.69 482.14,-258.98 473.43,-252.94 471.57,-259.69"/>
</a>
</g>
</g>
<!-- Node19 -->
<g id="Node000019" class="node">
<title>Node19</title>
<g id="a_Node000019"><a xlink:href="classDisplayManager.html#a0dcf69d16599029ba34bf31c0c666390" target="_top" xlink:title="Get a DisplayInterface derived instance by its ID.">
<polygon fill="#fff0f0" stroke="red" points="639.5,-241 463.5,-241 463.5,-222 639.5,-222 639.5,-241"/>
<text text-anchor="middle" x="551.5" y="-229" font-family="Helvetica,sans-Serif" font-size="10.00">DisplayManager::getDisplayById</text>
</a>
</g>
</g>
<!-- Node16&#45;&gt;Node19 -->
<g id="edge10_Node000016_Node000019" class="edge">
<title>Node16&#45;&gt;Node19</title>
<g id="a_edge10_Node000016_Node000019"><a xlink:title=" ">
<path fill="none" stroke="#63b8ff" d="M372.57,-186.04C394.27,-194.18 426.88,-205.78 456,-213.5 464.83,-215.84 474.21,-218 483.49,-219.96"/>
<polygon fill="#63b8ff" stroke="#63b8ff" points="482.99,-223.43 493.49,-221.99 484.39,-216.57 482.99,-223.43"/>
</a>
</g>
</g>
<!-- Node20 -->
<g id="Node000020" class="node">
<title>Node20</title>
<g id="a_Node000020"><a xlink:href="classInputManager.html#a2672882f95872798fd07d4d98f82063b" target="_top" xlink:title="Get the configured InputInterface.">
<polygon fill="white" stroke="#666666" points="617,-204 486,-204 486,-185 617,-185 617,-204"/>
<text text-anchor="middle" x="551.5" y="-192" font-family="Helvetica,sans-Serif" font-size="10.00">InputManager::getInput</text>
</a>
</g>
</g>
<!-- Node16&#45;&gt;Node20 -->
<g id="edge11_Node000016_Node000020" class="edge">
<title>Node16&#45;&gt;Node20</title>
<g id="a_edge11_Node000016_Node000020"><a xlink:title=" ">
<path fill="none" stroke="#63b8ff" d="M409.58,-181.97C430.37,-183.82 453.82,-185.91 475.53,-187.84"/>
<polygon fill="#63b8ff" stroke="#63b8ff" points="475.43,-191.34 485.7,-188.74 476.05,-184.37 475.43,-191.34"/>
</a>
</g>
</g>
<!-- Node21 -->
<g id="Node000021" class="node">
<title>Node21</title>
<g id="a_Node000021"><a xlink:href="classInputInterface.html#a150a075ce0c5a95dc4fd15ccd1933d26" target="_top" xlink:title="Test if this InputInterface requires a display instance &#45; needed for TFT_eSPI as it shares the instan...">
<polygon fill="white" stroke="#666666" points="630,-167 473,-167 473,-148 630,-148 630,-167"/>
<text text-anchor="middle" x="551.5" y="-155" font-family="Helvetica,sans-Serif" font-size="10.00">InputInterface::needsDisplay</text>
</a>
</g>
</g>
<!-- Node16&#45;&gt;Node21 -->
<g id="edge12_Node000016_Node000021" class="edge">
<title>Node16&#45;&gt;Node21</title>
<g id="a_edge12_Node000016_Node000021"><a xlink:title=" ">
<path fill="none" stroke="#63b8ff" d="M409.58,-170.72C426.21,-169.16 444.54,-167.44 462.33,-165.77"/>
<polygon fill="#63b8ff" stroke="#63b8ff" points="463.09,-169.22 472.72,-164.8 462.43,-162.25 463.09,-169.22"/>
</a>
</g>
</g>
<!-- Node22 -->
<g id="Node000022" class="node">
<title>Node22</title>
<g id="a_Node000022"><a xlink:href="classInputManager.html#a085a9206b827e9666b798cb8706c20c5" target="_top" xlink:title="Set the CallbackInterface derived instance for user input to use for callbacks.">
<polygon fill="white" stroke="#666666" points="625,-130 478,-130 478,-111 625,-111 625,-130"/>
<text text-anchor="middle" x="551.5" y="-118" font-family="Helvetica,sans-Serif" font-size="10.00">InputManager::setCallback</text>
</a>
</g>
</g>
<!-- Node16&#45;&gt;Node22 -->
<g id="edge13_Node000016_Node000022" class="edge">
<title>Node16&#45;&gt;Node22</title>
<g id="a_edge13_Node000016_Node000022"><a xlink:title=" ">
<path fill="none" stroke="#63b8ff" d="M373.02,-166.88C394.73,-158.78 427.11,-147.32 456,-139.5 465.92,-136.82 476.51,-134.33 486.89,-132.1"/>
<polygon fill="#63b8ff" stroke="#63b8ff" points="487.67,-135.51 496.74,-130.03 486.23,-128.66 487.67,-135.51"/>
</a>
</g>
</g>
<!-- Node23 -->
<g id="Node000023" class="node">
<title>Node23</title>
<g id="a_Node000023"><a xlink:href="classInputManager.html#a27c7bc043eb9fbb8c7700624852220f6" target="_top" xlink:title="Set the display interface to retrieve required attributes &#45; note this should only be required for TFT...">
<polygon fill="#fff0f0" stroke="red" points="622.5,-93 480.5,-93 480.5,-74 622.5,-74 622.5,-93"/>
<text text-anchor="middle" x="551.5" y="-81" font-family="Helvetica,sans-Serif" font-size="10.00">InputManager::setDisplay</text>
</a>
</g>
</g>
<!-- Node16&#45;&gt;Node23 -->
<g id="edge14_Node000016_Node000023" class="edge">
<title>Node16&#45;&gt;Node23</title>
<g id="a_edge14_Node000016_Node000023"><a xlink:title=" ">
<path fill="none" stroke="#63b8ff" d="M358.77,-166.87C377.27,-150.9 416.84,-119.03 456,-102.5 462.16,-99.9 468.71,-97.64 475.36,-95.7"/>
<polygon fill="#63b8ff" stroke="#63b8ff" points="476.41,-99.04 485.15,-93.05 474.59,-92.28 476.41,-99.04"/>
</a>
</g>
</g>
<!-- Node26 -->
<g id="Node000026" class="node">
<title>Node26</title>
<g id="a_Node000026"><a xlink:href="classAtFinder.html#ac50442f56c76cd6bd05da52db7ba8910" target="_top" xlink:title="Set the logger instance to use for diagnostic logging.">
<polygon fill="white" stroke="#666666" points="607,-56 496,-56 496,-37 607,-37 607,-56"/>
<text text-anchor="middle" x="551.5" y="-44" font-family="Helvetica,sans-Serif" font-size="10.00">AtFinder::setLogger</text>
</a>
</g>
</g>
<!-- Node16&#45;&gt;Node26 -->
<g id="edge15_Node000016_Node000026" class="edge">
<title>Node16&#45;&gt;Node26</title>
<g id="a_edge15_Node000016_Node000026"><a xlink:title=" ">
<path fill="none" stroke="#63b8ff" d="M354.24,-166.91C369.03,-145.04 408.54,-91.35 456,-65.5 465.13,-60.53 475.4,-56.85 485.71,-54.13"/>
<polygon fill="#63b8ff" stroke="#63b8ff" points="486.65,-57.5 495.58,-51.8 485.04,-50.69 486.65,-57.5"/>
</a>
</g>
</g>
<!-- Node27 -->
<g id="Node000027" class="node">
<title>Node27</title>
<g id="a_Node000027"><a xlink:href="classAtFinder.html#abadf56235ed457d74fff16dfdcd6d693" target="_top" xlink:title="Setup the AtFinder parser.">
<polygon fill="white" stroke="#666666" points="596.5,-19 506.5,-19 506.5,0 596.5,0 596.5,-19"/>
<text text-anchor="middle" x="551.5" y="-7" font-family="Helvetica,sans-Serif" font-size="10.00">AtFinder::setup</text>
</a>
</g>
</g>
<!-- Node16&#45;&gt;Node27 -->
<g id="edge16_Node000016_Node000027" class="edge">
<title>Node16&#45;&gt;Node27</title>
<g id="a_edge16_Node000016_Node000027"><a xlink:title=" ">
<path fill="none" stroke="#63b8ff" d="M351.92,-166.99C363.46,-140.31 400.01,-64.34 456,-28.5 467.91,-20.88 482.25,-16.22 496.12,-13.39"/>
<polygon fill="#63b8ff" stroke="#63b8ff" points="496.85,-16.82 506.1,-11.65 495.64,-9.92 496.85,-16.82"/>
</a>
</g>
</g>
</g>
</svg>
