<?xml version="1.0" encoding="UTF-8" standalone="no"?>
<!DOCTYPE svg PUBLIC "-//W3C//DTD SVG 1.1//EN"
 "http://www.w3.org/Graphics/SVG/1.1/DTD/svg11.dtd">
<!-- Generated by graphviz version 2.43.0 (0)
 -->
<!-- Title: DisplayManager::startDisplays Pages: 1 -->
<svg width="715pt" height="105pt"
 viewBox="0.00 0.00 715.00 105.00" xmlns="http://www.w3.org/2000/svg" xmlns:xlink="http://www.w3.org/1999/xlink">
<g id="graph0" class="graph" transform="scale(1 1) rotate(0) translate(4 101)">
<title>DisplayManager::startDisplays</title>
<polygon fill="white" stroke="transparent" points="-4,4 -4,-101 711,-101 711,4 -4,4"/>
<!-- Node1 -->
<g id="node1" class="node">
<title>Node1</title>
<g id="a_node1"><a xlink:title="Call the begin() method for all associated Display instances.">
<polygon fill="#bfbfbf" stroke="black" points="0,-19.5 0,-38.5 167,-38.5 167,-19.5 0,-19.5"/>
<text text-anchor="middle" x="83.5" y="-26.5" font-family="Helvetica,sans-Serif" font-size="10.00">DisplayManager::startDisplays</text>
</a>
</g>
</g>
<!-- Node2 -->
<g id="node2" class="node">
<title>Node2</title>
<g id="a_node2"><a xlink:href="classDisplayManager.html#a33f6184fa8292c66a6cd2f05f264ef0f" target="_top" xlink:title="Set the chip select pin state for all displays that have it set and select them.">
<polygon fill="white" stroke="black" points="203,-36 203,-66 350,-66 350,-36 203,-36"/>
<text text-anchor="start" x="211" y="-54" font-family="Helvetica,sans-Serif" font-size="10.00">DisplayManager::_setupAll</text>
<text text-anchor="middle" x="276.5" y="-43" font-family="Helvetica,sans-Serif" font-size="10.00">SPICSPins</text>
</a>
</g>
</g>
<!-- Node1&#45;&gt;Node2 -->
<g id="edge1" class="edge">
<title>Node1&#45;&gt;Node2</title>
<path fill="none" stroke="midnightblue" d="M167.16,-38.52C175.72,-39.51 184.41,-40.51 192.96,-41.49"/>
<polygon fill="midnightblue" stroke="midnightblue" points="192.58,-44.97 202.91,-42.64 193.38,-38.02 192.58,-44.97"/>
</g>
<!-- Node5 -->
<g id="node5" class="node">
<title>Node5</title>
<g id="a_node5"><a xlink:href="classDisplayInterface.html#aa869afa166e1d7f231549e3b93f7bef5" target="_top" xlink:title="Get the next DisplayInterface derived instance in the list.">
<polygon fill="white" stroke="black" points="386,-0.5 386,-19.5 528,-19.5 528,-0.5 386,-0.5"/>
<text text-anchor="middle" x="457" y="-7.5" font-family="Helvetica,sans-Serif" font-size="10.00">DisplayInterface::getNext</text>
</a>
</g>
</g>
<!-- Node1&#45;&gt;Node5 -->
<g id="edge7" class="edge">
<title>Node1&#45;&gt;Node5</title>
<path fill="none" stroke="midnightblue" d="M167.41,-24.76C229.6,-21.58 314.24,-17.25 375.77,-14.1"/>
<polygon fill="midnightblue" stroke="midnightblue" points="376.02,-17.6 385.83,-13.59 375.66,-10.6 376.02,-17.6"/>
</g>
<!-- Node3 -->
<g id="node3" class="node">
<title>Node3</title>
<g id="a_node3"><a xlink:href="Arduino_8h.html#ae9647a9a056bb33fd1206da70c83bde3" target="_top" xlink:title=" ">
<polygon fill="white" stroke="black" points="420,-77.5 420,-96.5 494,-96.5 494,-77.5 420,-77.5"/>
<text text-anchor="middle" x="457" y="-84.5" font-family="Helvetica,sans-Serif" font-size="10.00">digitalWrite</text>
</a>
</g>
</g>
<!-- Node2&#45;&gt;Node3 -->
<g id="edge2" class="edge">
<title>Node2&#45;&gt;Node3</title>
<path fill="none" stroke="midnightblue" d="M350.1,-65.64C370.21,-69.7 391.48,-73.99 409.64,-77.65"/>
<polygon fill="midnightblue" stroke="midnightblue" points="409.17,-81.13 419.66,-79.67 410.55,-74.26 409.17,-81.13"/>
</g>
<!-- Node2&#45;&gt;Node5 -->
<g id="edge4" class="edge">
<title>Node2&#45;&gt;Node5</title>
<path fill="none" stroke="midnightblue" d="M342.95,-35.97C363.29,-31.3 385.4,-26.22 404.63,-21.8"/>
<polygon fill="midnightblue" stroke="midnightblue" points="405.44,-25.2 414.4,-19.55 403.87,-18.38 405.44,-25.2"/>
</g>
<!-- Node6 -->
<g id="node6" class="node">
<title>Node6</title>
<g id="a_node6"><a xlink:href="Arduino_8h.html#ac7bdb53335528ad073ca13eb2b1bdc00" target="_top" xlink:title=" ">
<polygon fill="white" stroke="black" points="427.5,-39.5 427.5,-58.5 486.5,-58.5 486.5,-39.5 427.5,-39.5"/>
<text text-anchor="middle" x="457" y="-46.5" font-family="Helvetica,sans-Serif" font-size="10.00">pinMode</text>
</a>
</g>
</g>
<!-- Node2&#45;&gt;Node6 -->
<g id="edge5" class="edge">
<title>Node2&#45;&gt;Node6</title>
<path fill="none" stroke="midnightblue" d="M350.1,-50.19C373.01,-49.93 397.44,-49.66 417.05,-49.44"/>
<polygon fill="midnightblue" stroke="midnightblue" points="417.16,-52.94 427.12,-49.32 417.08,-45.94 417.16,-52.94"/>
</g>
<!-- Node4 -->
<g id="node4" class="node">
<title>Node4</title>
<g id="a_node4"><a xlink:href="classMockArduino.html#a31b8132fed4cf21517931e448ba515ea" target="_top" xlink:title=" ">
<polygon fill="white" stroke="black" points="564,-58.5 564,-77.5 707,-77.5 707,-58.5 564,-58.5"/>
<text text-anchor="middle" x="635.5" y="-65.5" font-family="Helvetica,sans-Serif" font-size="10.00">MockArduino::getInstance</text>
</a>
</g>
</g>
<!-- Node3&#45;&gt;Node4 -->
<g id="edge3" class="edge">
<title>Node3&#45;&gt;Node4</title>
<path fill="none" stroke="midnightblue" d="M494.14,-83.11C511.39,-81.25 532.78,-78.95 553.61,-76.71"/>
<polygon fill="midnightblue" stroke="midnightblue" points="554.2,-80.16 563.77,-75.61 553.46,-73.2 554.2,-80.16"/>
</g>
<!-- Node6&#45;&gt;Node4 -->
<g id="edge6" class="edge">
<title>Node6&#45;&gt;Node4</title>
<path fill="none" stroke="midnightblue" d="M486.75,-52.09C505.04,-54.06 529.72,-56.72 553.66,-59.3"/>
<polygon fill="midnightblue" stroke="midnightblue" points="553.54,-62.8 563.85,-60.39 554.28,-55.84 553.54,-62.8"/>
</g>
</g>
</svg>
