<?xml version="1.0" encoding="UTF-8" standalone="no"?>
<!DOCTYPE svg PUBLIC "-//W3C//DTD SVG 1.1//EN"
 "http://www.w3.org/Graphics/SVG/1.1/DTD/svg11.dtd">
<!-- Generated by graphviz version 2.43.0 (0)
 -->
<!-- Title: Controller::updateScreen Pages: 1 -->
<!--zoomable 315 -->
<svg id="main" version="1.1" xmlns="http://www.w3.org/2000/svg" xmlns:xlink="http://www.w3.org/1999/xlink" xml:space="preserve" onload="init(evt)">
<style type="text/css"><![CDATA[
.edge:hover path { stroke: red; }
.edge:hover polygon { stroke: red; fill: red; }
]]></style>
<script type="text/javascript"><![CDATA[
var edges = document.getElementsByTagName('g');
if (edges && edges.length) {
  for (var i=0;i<edges.length;i++) {
    if (edges[i].id.substr(0,4)=='edge') {
      edges[i].setAttribute('class','edge');
    }
  }
}
]]></script>
        <defs>
                <circle id="rim" cx="0" cy="0" r="7"/>
                <circle id="rim2" cx="0" cy="0" r="3.5"/>
                <g id="zoomPlus">
                        <use xlink:href="#rim" fill="#404040">
                                <set attributeName="fill" to="#808080" begin="zoomplus.mouseover" end="zoomplus.mouseout"/>
                        </use>
                        <path d="M-4,0h8M0,-4v8" fill="none" stroke="white" stroke-width="1.5" pointer-events="none"/>
                </g>
                <g id="zoomMin">
                        <use xlink:href="#rim" fill="#404040">
                                <set attributeName="fill" to="#808080" begin="zoomminus.mouseover" end="zoomminus.mouseout"/>
                        </use>
                        <path d="M-4,0h8" fill="none" stroke="white" stroke-width="1.5" pointer-events="none"/>
                </g>
                <g id="dirArrow">
                        <path fill="none" stroke="white" stroke-width="1.5" d="M0,-3.0v7 M-2.5,-0.5L0,-3.0L2.5,-0.5"/>
                </g>
               <g id="resetDef">
                       <use xlink:href="#rim2" fill="#404040">
                               <set attributeName="fill" to="#808080" begin="reset.mouseover" end="reset.mouseout"/>
                       </use>
               </g>
        </defs>

<script type="text/javascript">
var viewWidth = 711;
var viewHeight = 315;
var sectionId = 'dynsection-11';
</script>
<script xlink:href="svgpan.js"/>
<svg id="graph" class="graph">
<g id="viewport">
<title>Controller::updateScreen</title>
<polygon fill="white" stroke="transparent" points="-4,4 -4,-310.93 707,-310.93 707,4 -4,4"/>
<!-- Node1 -->
<g id="node1" class="node">
<title>Node1</title>
<g id="a_node1"><a xlink:title="Method to implement updating a screen.">
<polygon fill="#bfbfbf" stroke="black" points="0,-171.5 0,-190.5 137,-190.5 137,-171.5 0,-171.5"/>
<text text-anchor="middle" x="68.5" y="-178.5" font-family="Helvetica,sans-Serif" font-size="10.00">Controller::updateScreen</text>
</a>
</g>
</g>
<!-- Node2 -->
<g id="node2" class="node">
<title>Node2</title>
<g id="a_node2"><a xlink:href="classScreenManager.html#a760f0b958985e3c29f5a3efc81367f89" target="_top" xlink:title="Update a Screen, adds a new one if it doesn&#39;t exist.">
<polygon fill="white" stroke="black" points="173,-228.5 173,-247.5 338,-247.5 338,-228.5 173,-228.5"/>
<text text-anchor="middle" x="255.5" y="-235.5" font-family="Helvetica,sans-Serif" font-size="10.00">ScreenManager::updateScreen</text>
</a>
</g>
</g>
<!-- Node1&#45;&gt;Node2 -->
<g id="edge1" class="edge">
<title>Node1&#45;&gt;Node2</title>
<path fill="none" stroke="midnightblue" d="M100.46,-190.54C131.55,-200.12 179.59,-214.92 213.75,-225.45"/>
<polygon fill="midnightblue" stroke="midnightblue" points="212.85,-228.83 223.43,-228.43 214.91,-222.14 212.85,-228.83"/>
</g>
<!-- Node7 -->
<g id="node7" class="node">
<title>Node7</title>
<g id="a_node7"><a xlink:href="classScreen.html#a0a9a3a713a63ef55e854841d07630556" target="_top" xlink:title="Update the specified ScreenRow, or create it if it doesn&#39;t exist This will automatically maintain the...">
<polygon fill="white" stroke="black" points="184,-114.5 184,-133.5 327,-133.5 327,-114.5 184,-114.5"/>
<text text-anchor="middle" x="255.5" y="-121.5" font-family="Helvetica,sans-Serif" font-size="10.00">Screen::updateScreenRow</text>
</a>
</g>
</g>
<!-- Node1&#45;&gt;Node7 -->
<g id="edge7" class="edge">
<title>Node1&#45;&gt;Node7</title>
<path fill="none" stroke="midnightblue" d="M100.46,-171.46C131.55,-161.88 179.59,-147.08 213.75,-136.55"/>
<polygon fill="midnightblue" stroke="midnightblue" points="214.91,-139.86 223.43,-133.57 212.85,-133.17 214.91,-139.86"/>
</g>
<!-- Node3 -->
<g id="node3" class="node">
<title>Node3</title>
<g id="a_node3"><a xlink:href="classScreen.html#af743df653d024c7571e596772009216d" target="_top" xlink:title="Get the next Screen instance in the list.">
<polygon fill="white" stroke="black" points="593.5,-285.5 593.5,-304.5 688.5,-304.5 688.5,-285.5 593.5,-285.5"/>
<text text-anchor="middle" x="641" y="-292.5" font-family="Helvetica,sans-Serif" font-size="10.00">Screen::getNext</text>
</a>
</g>
</g>
<!-- Node2&#45;&gt;Node3 -->
<g id="edge2" class="edge">
<title>Node2&#45;&gt;Node3</title>
<path fill="none" stroke="midnightblue" d="M270.9,-247.67C292.29,-261.39 334.23,-285.86 374,-295 444.61,-311.22 528.58,-307.56 583.01,-302.29"/>
<polygon fill="midnightblue" stroke="midnightblue" points="583.56,-305.76 593.16,-301.26 582.85,-298.79 583.56,-305.76"/>
</g>
<!-- Node4 -->
<g id="node4" class="node">
<title>Node4</title>
<g id="a_node4"><a xlink:href="classScreenManager.html#a0cc1c81b131b3441fd808299c63b409b" target="_top" xlink:title="Get the Screen with the specified ID.">
<polygon fill="white" stroke="black" points="374,-266.5 374,-285.5 543,-285.5 543,-266.5 374,-266.5"/>
<text text-anchor="middle" x="458.5" y="-273.5" font-family="Helvetica,sans-Serif" font-size="10.00">ScreenManager::getScreenById</text>
</a>
</g>
</g>
<!-- Node2&#45;&gt;Node4 -->
<g id="edge3" class="edge">
<title>Node2&#45;&gt;Node4</title>
<path fill="none" stroke="midnightblue" d="M306.96,-247.54C334.32,-252.71 368.32,-259.14 397.08,-264.58"/>
<polygon fill="midnightblue" stroke="midnightblue" points="396.54,-268.04 407.02,-266.46 397.84,-261.16 396.54,-268.04"/>
</g>
<!-- Node5 -->
<g id="node5" class="node">
<title>Node5</title>
<g id="a_node5"><a xlink:href="classScreen.html#a3f87fd3cb0de678a506d26c44c79df5f" target="_top" xlink:title="Set the Logger instance.">
<polygon fill="white" stroke="black" points="406.5,-228.5 406.5,-247.5 510.5,-247.5 510.5,-228.5 406.5,-228.5"/>
<text text-anchor="middle" x="458.5" y="-235.5" font-family="Helvetica,sans-Serif" font-size="10.00">Screen::setLogger</text>
</a>
</g>
</g>
<!-- Node2&#45;&gt;Node5 -->
<g id="edge5" class="edge">
<title>Node2&#45;&gt;Node5</title>
<path fill="none" stroke="midnightblue" d="M338.25,-238C357.61,-238 377.92,-238 396.18,-238"/>
<polygon fill="midnightblue" stroke="midnightblue" points="396.39,-241.5 406.39,-238 396.39,-234.5 396.39,-241.5"/>
</g>
<!-- Node6 -->
<g id="node6" class="node">
<title>Node6</title>
<g id="a_node6"><a xlink:href="classScreen.html#a73bbfda08cbc10369ba075e765c8b18a" target="_top" xlink:title="Set the next Screen instance in the list.">
<polygon fill="white" stroke="black" points="411.5,-190.5 411.5,-209.5 505.5,-209.5 505.5,-190.5 411.5,-190.5"/>
<text text-anchor="middle" x="458.5" y="-197.5" font-family="Helvetica,sans-Serif" font-size="10.00">Screen::setNext</text>
</a>
</g>
</g>
<!-- Node2&#45;&gt;Node6 -->
<g id="edge6" class="edge">
<title>Node2&#45;&gt;Node6</title>
<path fill="none" stroke="midnightblue" d="M306.96,-228.46C335.67,-223.03 371.7,-216.22 401.31,-210.62"/>
<polygon fill="midnightblue" stroke="midnightblue" points="402.32,-214 411.49,-208.7 401.01,-207.12 402.32,-214"/>
</g>
<!-- Node4&#45;&gt;Node3 -->
<g id="edge4" class="edge">
<title>Node4&#45;&gt;Node3</title>
<path fill="none" stroke="midnightblue" d="M543.15,-284.8C556.68,-286.23 570.41,-287.68 583.12,-289.01"/>
<polygon fill="midnightblue" stroke="midnightblue" points="582.75,-292.49 593.07,-290.06 583.49,-285.53 582.75,-292.49"/>
</g>
<!-- Node8 -->
<g id="node8" class="node">
<title>Node8</title>
<g id="a_node8"><a xlink:href="classScreen.html#a1a1f735d2c573b460813e1ba0667b649" target="_top" xlink:title="Add a new ScreenRow to the list.">
<polygon fill="white" stroke="black" points="392,-76.5 392,-95.5 525,-95.5 525,-76.5 392,-76.5"/>
<text text-anchor="middle" x="458.5" y="-83.5" font-family="Helvetica,sans-Serif" font-size="10.00">Screen::_addScreenRow</text>
</a>
</g>
</g>
<!-- Node7&#45;&gt;Node8 -->
<g id="edge8" class="edge">
<title>Node7&#45;&gt;Node8</title>
<path fill="none" stroke="midnightblue" d="M306.96,-114.46C334.32,-109.29 368.32,-102.86 397.08,-97.42"/>
<polygon fill="midnightblue" stroke="midnightblue" points="397.84,-100.84 407.02,-95.54 396.54,-93.96 397.84,-100.84"/>
</g>
<!-- Node12 -->
<g id="node12" class="node">
<title>Node12</title>
<g id="a_node12"><a xlink:href="classScreenRow.html#a0d6afc0a69cc0abc42e1dd362e3e0832" target="_top" xlink:title="Set the text associated with this ScreenRow.">
<polygon fill="white" stroke="black" points="585.5,-0.5 585.5,-19.5 696.5,-19.5 696.5,-0.5 585.5,-0.5"/>
<text text-anchor="middle" x="641" y="-7.5" font-family="Helvetica,sans-Serif" font-size="10.00">ScreenRow::setText</text>
</a>
</g>
</g>
<!-- Node7&#45;&gt;Node12 -->
<g id="edge19" class="edge">
<title>Node7&#45;&gt;Node12</title>
<path fill="none" stroke="midnightblue" d="M273.08,-114.37C295.35,-101.81 336.48,-79.91 374,-67 441.06,-43.93 520.96,-28.31 575.58,-19.34"/>
<polygon fill="midnightblue" stroke="midnightblue" points="576.16,-22.79 585.47,-17.74 575.04,-15.88 576.16,-22.79"/>
</g>
<!-- Node13 -->
<g id="node13" class="node">
<title>Node13</title>
<g id="a_node13"><a xlink:href="classScreen.html#a43263117dfffa210ccd83b6cd12e0732" target="_top" xlink:title="Delete the specified ScreenRow and update the list accordingly.">
<polygon fill="white" stroke="black" points="385.5,-114.5 385.5,-133.5 531.5,-133.5 531.5,-114.5 385.5,-114.5"/>
<text text-anchor="middle" x="458.5" y="-121.5" font-family="Helvetica,sans-Serif" font-size="10.00">Screen::_deleteScreenRow</text>
</a>
</g>
</g>
<!-- Node7&#45;&gt;Node13 -->
<g id="edge13" class="edge">
<title>Node7&#45;&gt;Node13</title>
<path fill="none" stroke="midnightblue" d="M327.08,-124C342.58,-124 359.12,-124 375.04,-124"/>
<polygon fill="midnightblue" stroke="midnightblue" points="375.39,-127.5 385.39,-124 375.39,-120.5 375.39,-127.5"/>
</g>
<!-- Node15 -->
<g id="node15" class="node">
<title>Node15</title>
<g id="a_node15"><a xlink:href="classScreen.html#a1545b68b9bd38176d171d769f3f3c7f3" target="_top" xlink:title="Get the ScreenRow instance at the specified ID.">
<polygon fill="white" stroke="black" points="385,-152.5 385,-171.5 532,-171.5 532,-152.5 385,-152.5"/>
<text text-anchor="middle" x="458.5" y="-159.5" font-family="Helvetica,sans-Serif" font-size="10.00">Screen::getScreenRowById</text>
</a>
</g>
</g>
<!-- Node7&#45;&gt;Node15 -->
<g id="edge17" class="edge">
<title>Node7&#45;&gt;Node15</title>
<path fill="none" stroke="midnightblue" d="M306.96,-133.54C334.32,-138.71 368.32,-145.14 397.08,-150.58"/>
<polygon fill="midnightblue" stroke="midnightblue" points="396.54,-154.04 407.02,-152.46 397.84,-147.16 396.54,-154.04"/>
</g>
<!-- Node9 -->
<g id="node9" class="node">
<title>Node9</title>
<g id="a_node9"><a xlink:href="classScreenRow.html#aa8df6843233ea45caf26773d140ce4b8" target="_top" xlink:title="Get the next ScreenRow instance in the list.">
<polygon fill="white" stroke="black" points="583.5,-152.5 583.5,-171.5 698.5,-171.5 698.5,-152.5 583.5,-152.5"/>
<text text-anchor="middle" x="641" y="-159.5" font-family="Helvetica,sans-Serif" font-size="10.00">ScreenRow::getNext</text>
</a>
</g>
</g>
<!-- Node8&#45;&gt;Node9 -->
<g id="edge9" class="edge">
<title>Node8&#45;&gt;Node9</title>
<path fill="none" stroke="midnightblue" d="M520.83,-95.53C528.56,-98 536.15,-101.1 543,-105 563.21,-116.52 559.25,-130.7 579,-143 582.35,-145.08 585.94,-146.96 589.65,-148.64"/>
<polygon fill="midnightblue" stroke="midnightblue" points="588.44,-151.92 599.02,-152.42 591.06,-145.43 588.44,-151.92"/>
</g>
<!-- Node10 -->
<g id="node10" class="node">
<title>Node10</title>
<g id="a_node10"><a xlink:href="classScreenRow.html#a51f874b0a3ca8fce7152755cdc849d01" target="_top" xlink:title="Set the Logger instance.">
<polygon fill="white" stroke="black" points="579,-38.5 579,-57.5 703,-57.5 703,-38.5 579,-38.5"/>
<text text-anchor="middle" x="641" y="-45.5" font-family="Helvetica,sans-Serif" font-size="10.00">ScreenRow::setLogger</text>
</a>
</g>
</g>
<!-- Node8&#45;&gt;Node10 -->
<g id="edge10" class="edge">
<title>Node8&#45;&gt;Node10</title>
<path fill="none" stroke="midnightblue" d="M505.05,-76.41C529.3,-71.31 559.3,-64.99 584.86,-59.61"/>
<polygon fill="midnightblue" stroke="midnightblue" points="585.72,-63.01 594.78,-57.52 584.27,-56.16 585.72,-63.01"/>
</g>
<!-- Node11 -->
<g id="node11" class="node">
<title>Node11</title>
<g id="a_node11"><a xlink:href="classScreenRow.html#a11c13ad781e5bfe79ebd74462d6cedc0" target="_top" xlink:title="Set the next ScreenRow instance in the list.">
<polygon fill="white" stroke="black" points="584,-76.5 584,-95.5 698,-95.5 698,-76.5 584,-76.5"/>
<text text-anchor="middle" x="641" y="-83.5" font-family="Helvetica,sans-Serif" font-size="10.00">ScreenRow::setNext</text>
</a>
</g>
</g>
<!-- Node8&#45;&gt;Node11 -->
<g id="edge11" class="edge">
<title>Node8&#45;&gt;Node11</title>
<path fill="none" stroke="midnightblue" d="M525.18,-86C540.97,-86 557.85,-86 573.67,-86"/>
<polygon fill="midnightblue" stroke="midnightblue" points="573.89,-89.5 583.89,-86 573.89,-82.5 573.89,-89.5"/>
</g>
<!-- Node8&#45;&gt;Node12 -->
<g id="edge12" class="edge">
<title>Node8&#45;&gt;Node12</title>
<path fill="none" stroke="midnightblue" d="M477.36,-76.49C500.42,-64.44 541.98,-43.51 579,-29 584.62,-26.8 590.61,-24.67 596.56,-22.69"/>
<polygon fill="midnightblue" stroke="midnightblue" points="598.01,-25.9 606.46,-19.5 595.87,-19.24 598.01,-25.9"/>
</g>
<!-- Node13&#45;&gt;Node9 -->
<g id="edge15" class="edge">
<title>Node13&#45;&gt;Node9</title>
<path fill="none" stroke="midnightblue" d="M505.05,-133.59C529.3,-138.69 559.3,-145.01 584.86,-150.39"/>
<polygon fill="midnightblue" stroke="midnightblue" points="584.27,-153.84 594.78,-152.48 585.72,-146.99 584.27,-153.84"/>
</g>
<!-- Node13&#45;&gt;Node11 -->
<g id="edge16" class="edge">
<title>Node13&#45;&gt;Node11</title>
<path fill="none" stroke="midnightblue" d="M505.05,-114.41C529.3,-109.31 559.3,-102.99 584.86,-97.61"/>
<polygon fill="midnightblue" stroke="midnightblue" points="585.72,-101.01 594.78,-95.52 584.27,-94.16 585.72,-101.01"/>
</g>
<!-- Node14 -->
<g id="node14" class="node">
<title>Node14</title>
<g id="a_node14"><a xlink:href="classScreenRow.html#a4c72ef81c0dde9c008c946625fdce36b" target="_top" xlink:title="Get the ID of this ScreenRow.">
<polygon fill="white" stroke="black" points="590.5,-114.5 590.5,-133.5 691.5,-133.5 691.5,-114.5 590.5,-114.5"/>
<text text-anchor="middle" x="641" y="-121.5" font-family="Helvetica,sans-Serif" font-size="10.00">ScreenRow::getId</text>
</a>
</g>
</g>
<!-- Node13&#45;&gt;Node14 -->
<g id="edge14" class="edge">
<title>Node13&#45;&gt;Node14</title>
<path fill="none" stroke="midnightblue" d="M531.62,-124C547.81,-124 564.81,-124 580.42,-124"/>
<polygon fill="midnightblue" stroke="midnightblue" points="580.46,-127.5 590.46,-124 580.46,-120.5 580.46,-127.5"/>
</g>
<!-- Node15&#45;&gt;Node9 -->
<g id="edge18" class="edge">
<title>Node15&#45;&gt;Node9</title>
<path fill="none" stroke="midnightblue" d="M532.14,-162C545.72,-162 559.86,-162 573.25,-162"/>
<polygon fill="midnightblue" stroke="midnightblue" points="573.33,-165.5 583.33,-162 573.33,-158.5 573.33,-165.5"/>
</g>
</g>
</svg>
        <g id="navigator" transform="translate(0 0)" fill="#404254">
                <rect fill="#f2f5e9" fill-opacity="0.5" stroke="#606060" stroke-width=".5" x="0" y="0" width="60" height="60"/>
                <use id="zoomplus" xlink:href="#zoomPlus" x="17" y="9" onmousedown="handleZoom(evt,'in')"/>
                <use id="zoomminus" xlink:href="#zoomMin" x="42" y="9" onmousedown="handleZoom(evt,'out')"/>
                <use id="reset" xlink:href="#resetDef" x="30" y="36" onmousedown="handleReset()"/>
                <g id="arrowUp" xlink:href="#dirArrow" transform="translate(30 24)" onmousedown="handlePan(0,-1)">
                  <use xlink:href="#rim" fill="#404040">
                        <set attributeName="fill" to="#808080" begin="arrowUp.mouseover" end="arrowUp.mouseout"/>
                  </use>
                  <path fill="none" stroke="white" stroke-width="1.5" d="M0,-3.0v7 M-2.5,-0.5L0,-3.0L2.5,-0.5"/>
                </g>
                <g id="arrowRight" xlink:href="#dirArrow" transform="rotate(90) translate(36 -43)" onmousedown="handlePan(1,0)">
                  <use xlink:href="#rim" fill="#404040">
                        <set attributeName="fill" to="#808080" begin="arrowRight.mouseover" end="arrowRight.mouseout"/>
                  </use>
                  <path fill="none" stroke="white" stroke-width="1.5" d="M0,-3.0v7 M-2.5,-0.5L0,-3.0L2.5,-0.5"/>
                </g>
                <g id="arrowDown" xlink:href="#dirArrow" transform="rotate(180) translate(-30 -48)" onmousedown="handlePan(0,1)">
                  <use xlink:href="#rim" fill="#404040">
                        <set attributeName="fill" to="#808080" begin="arrowDown.mouseover" end="arrowDown.mouseout"/>
                  </use>
                  <path fill="none" stroke="white" stroke-width="1.5" d="M0,-3.0v7 M-2.5,-0.5L0,-3.0L2.5,-0.5"/>
                </g>
                <g id="arrowLeft" xlink:href="#dirArrow" transform="rotate(270) translate(-36 17)" onmousedown="handlePan(-1,0)">
                  <use xlink:href="#rim" fill="#404040">
                        <set attributeName="fill" to="#808080" begin="arrowLeft.mouseover" end="arrowLeft.mouseout"/>
                  </use>
                  <path fill="none" stroke="white" stroke-width="1.5" d="M0,-3.0v7 M-2.5,-0.5L0,-3.0L2.5,-0.5"/>
                </g>
        </g>
        <svg viewBox="0 0 15 15" width="100%" height="30px" preserveAspectRatio="xMaxYMin meet">
         <g id="arrow_out" transform="scale(0.3 0.3)">
          <a xlink:href="classController_a908f5f6c24239286e29d4761da509963_cgraph_org.svg" target="_base">
           <rect id="button" ry="5" rx="5" y="6" x="6" height="38" width="38"
                fill="#f2f5e9" fill-opacity="0.5" stroke="#606060" stroke-width="1.0"/>
           <path id="arrow"
             d="M 11.500037,31.436501 C 11.940474,20.09759 22.043105,11.32322 32.158766,21.979434 L 37.068811,17.246167 C 37.068811,17.246167 37.088388,32 37.088388,32 L 22.160133,31.978069 C 22.160133,31.978069 26.997745,27.140456 26.997745,27.140456 C 18.528582,18.264221 13.291696,25.230495 11.500037,31.436501 z"
             style="fill:#404040;"/>
          </a>
         </g>
        </svg>
</svg>
