<?xml version="1.0" encoding="UTF-8" standalone="no"?>
<!DOCTYPE svg PUBLIC "-//W3C//DTD SVG 1.1//EN"
 "http://www.w3.org/Graphics/SVG/1.1/DTD/svg11.dtd">
<!-- Generated by graphviz version 2.43.0 (0)
 -->
<!-- Title: AtFinder::cleanUp Pages: 1 -->
<svg width="298pt" height="66pt"
 viewBox="0.00 0.00 298.00 66.00" xmlns="http://www.w3.org/2000/svg" xmlns:xlink="http://www.w3.org/1999/xlink">
<g id="graph0" class="graph" transform="scale(1 1) rotate(0) translate(4 62)">
<title>AtFinder::cleanUp</title>
<polygon fill="white" stroke="transparent" points="-4,4 -4,-62 294,-62 294,4 -4,4"/>
<!-- Node1 -->
<g id="node1" class="node">
<title>Node1</title>
<g id="a_node1"><a xlink:title="Clean up memory allocations used by AtFinder.">
<polygon fill="#bfbfbf" stroke="black" points="187,-19.5 187,-38.5 290,-38.5 290,-19.5 187,-19.5"/>
<text text-anchor="middle" x="238.5" y="-26.5" font-family="Helvetica,sans-Serif" font-size="10.00">AtFinder::cleanUp</text>
</a>
</g>
</g>
<!-- Node2 -->
<g id="node2" class="node">
<title>Node2</title>
<g id="a_node2"><a xlink:href="test__ControllerDisplayUpdate_8cpp.html#af7a73dc328bc3f14a231b3d577180628" target="_top" xlink:title="Test to ensure a mock display correctly receives screen updates from the Controller.">
<polygon fill="white" stroke="black" points="49.5,-38.5 49.5,-57.5 101.5,-57.5 101.5,-38.5 49.5,-38.5"/>
<text text-anchor="middle" x="75.5" y="-45.5" font-family="Helvetica,sans-Serif" font-size="10.00">TEST_F</text>
</a>
</g>
</g>
<!-- Node1&#45;&gt;Node2 -->
<g id="edge1" class="edge">
<title>Node1&#45;&gt;Node2</title>
<path fill="none" stroke="midnightblue" d="M176.44,-36.21C150.6,-39.26 121.91,-42.64 101.92,-45"/>
<polygon fill="midnightblue" stroke="midnightblue" points="177.04,-39.66 186.56,-35.01 176.22,-32.71 177.04,-39.66"/>
</g>
<!-- Node3 -->
<g id="node3" class="node">
<title>Node3</title>
<g id="a_node3"><a xlink:href="classConfigurator.html#a746eb3439c34f99927d46eff5722a93a" target="_top" xlink:title="Destructor for the Configurator.">
<polygon fill="white" stroke="black" points="0,-0.5 0,-19.5 151,-19.5 151,-0.5 0,-0.5"/>
<text text-anchor="middle" x="75.5" y="-7.5" font-family="Helvetica,sans-Serif" font-size="10.00">Configurator::~Configurator</text>
</a>
</g>
</g>
<!-- Node1&#45;&gt;Node3 -->
<g id="edge2" class="edge">
<title>Node1&#45;&gt;Node3</title>
<path fill="none" stroke="midnightblue" d="M176.61,-21.81C168.32,-20.84 159.73,-19.82 151.23,-18.82"/>
<polygon fill="midnightblue" stroke="midnightblue" points="176.22,-25.29 186.56,-22.99 177.04,-18.34 176.22,-25.29"/>
</g>
</g>
</svg>
