<?xml version="1.0" encoding="UTF-8" standalone="no"?>
<!DOCTYPE svg PUBLIC "-//W3C//DTD SVG 1.1//EN"
 "http://www.w3.org/Graphics/SVG/1.1/DTD/svg11.dtd">
<!-- Generated by graphviz version 2.43.0 (0)
 -->
<!-- Title: ControllerInputActionTests Pages: 1 -->
<svg width="883pt" height="461pt"
 viewBox="0.00 0.00 883.00 461.00" xmlns="http://www.w3.org/2000/svg" xmlns:xlink="http://www.w3.org/1999/xlink">
<g id="graph0" class="graph" transform="scale(1 1) rotate(0) translate(4 457)">
<title>ControllerInputActionTests</title>
<polygon fill="white" stroke="transparent" points="-4,4 -4,-457 879,-457 879,4 -4,4"/>
<!-- Node1 -->
<g id="node1" class="node">
<title>Node1</title>
<g id="a_node1"><a xlink:title="Test harness for input actions interacting with the Controller.">
<polygon fill="#bfbfbf" stroke="black" points="183.5,-0.5 183.5,-19.5 328.5,-19.5 328.5,-0.5 183.5,-0.5"/>
<text text-anchor="middle" x="256" y="-7.5" font-family="Helvetica,sans-Serif" font-size="10.00">ControllerInputActionTests</text>
</a>
</g>
</g>
<!-- Node2 -->
<g id="node2" class="node">
<title>Node2</title>
<g id="a_node2"><a xlink:title=" ">
<polygon fill="white" stroke="#bfbfbf" points="0,-67.5 0,-86.5 36,-86.5 36,-67.5 0,-67.5"/>
<text text-anchor="middle" x="18" y="-74.5" font-family="Helvetica,sans-Serif" font-size="10.00">Test</text>
</a>
</g>
</g>
<!-- Node2&#45;&gt;Node1 -->
<g id="edge1" class="edge">
<title>Node2&#45;&gt;Node1</title>
<path fill="none" stroke="midnightblue" d="M28.11,-59.01C33.59,-51.32 41.08,-42.88 50,-38 72.51,-25.69 133.61,-18.72 183.46,-14.96"/>
<polygon fill="midnightblue" stroke="midnightblue" points="25.14,-57.14 22.62,-67.43 31.01,-60.96 25.14,-57.14"/>
</g>
<!-- Node3 -->
<g id="node3" class="node">
<title>Node3</title>
<g id="a_node3"><a xlink:href="classMockInput.html" target="_top" xlink:title="Mock physical input class.">
<polygon fill="white" stroke="black" points="237,-105.5 237,-124.5 305,-124.5 305,-105.5 237,-105.5"/>
<text text-anchor="middle" x="271" y="-112.5" font-family="Helvetica,sans-Serif" font-size="10.00">MockInput</text>
</a>
</g>
</g>
<!-- Node3&#45;&gt;Node1 -->
<g id="edge2" class="edge">
<title>Node3&#45;&gt;Node1</title>
<path fill="none" stroke="#9a32cd" stroke-dasharray="5,2" d="M268.27,-95.25C265.01,-72.87 259.7,-36.39 257.28,-19.76"/>
<polygon fill="#9a32cd" stroke="#9a32cd" points="264.82,-95.83 269.72,-105.22 271.74,-94.82 264.82,-95.83"/>
<text text-anchor="middle" x="280" y="-74.5" font-family="Helvetica,sans-Serif" font-size="10.00"> input</text>
</g>
<!-- Node4 -->
<g id="node4" class="node">
<title>Node4</title>
<g id="a_node4"><a xlink:href="classInputInterface.html" target="_top" xlink:title="Class to abstract away all physical input implementatio to enable multiple input types Default return...">
<polygon fill="white" stroke="black" points="455.5,-220.5 455.5,-239.5 540.5,-239.5 540.5,-220.5 455.5,-220.5"/>
<text text-anchor="middle" x="498" y="-227.5" font-family="Helvetica,sans-Serif" font-size="10.00">InputInterface</text>
</a>
</g>
</g>
<!-- Node4&#45;&gt;Node3 -->
<g id="edge3" class="edge">
<title>Node4&#45;&gt;Node3</title>
<path fill="none" stroke="midnightblue" d="M481.72,-213.56C460.45,-194.22 421.28,-161.41 382,-143 380.2,-142.16 337.03,-131.76 305.06,-124.12"/>
<polygon fill="midnightblue" stroke="midnightblue" points="479.49,-216.26 489.2,-220.48 484.24,-211.12 479.49,-216.26"/>
</g>
<!-- Node14 -->
<g id="node13" class="node">
<title>Node14</title>
<g id="a_node13"><a xlink:href="classInputManager.html" target="_top" xlink:title=" ">
<polygon fill="white" stroke="black" points="433,-143.5 433,-162.5 517,-162.5 517,-143.5 433,-143.5"/>
<text text-anchor="middle" x="475" y="-150.5" font-family="Helvetica,sans-Serif" font-size="10.00">InputManager</text>
</a>
</g>
</g>
<!-- Node4&#45;&gt;Node14 -->
<g id="edge23" class="edge">
<title>Node4&#45;&gt;Node14</title>
<path fill="none" stroke="#9a32cd" stroke-dasharray="5,2" d="M492.32,-210.47C487.62,-195.15 481.16,-174.09 477.61,-162.5"/>
<polygon fill="#9a32cd" stroke="#9a32cd" points="489.08,-211.86 495.36,-220.4 495.78,-209.81 489.08,-211.86"/>
<text text-anchor="middle" x="506" y="-188.5" font-family="Helvetica,sans-Serif" font-size="10.00"> _input</text>
</g>
<!-- Node5 -->
<g id="node5" class="node">
<title>Node5</title>
<g id="a_node5"><a xlink:href="classCallbackInterface.html" target="_top" xlink:title="Interface class to use for callbacks.">
<polygon fill="white" stroke="black" points="562,-299.5 562,-318.5 664,-318.5 664,-299.5 562,-299.5"/>
<text text-anchor="middle" x="613" y="-306.5" font-family="Helvetica,sans-Serif" font-size="10.00">CallbackInterface</text>
</a>
</g>
</g>
<!-- Node5&#45;&gt;Node4 -->
<g id="edge4" class="edge">
<title>Node5&#45;&gt;Node4</title>
<path fill="none" stroke="#9a32cd" stroke-dasharray="5,2" d="M564.16,-296.14C553.95,-292.32 543.66,-287.36 535,-281 519.86,-269.88 508.21,-250.78 502.3,-239.68"/>
<polygon fill="#9a32cd" stroke="#9a32cd" points="563.28,-299.54 573.87,-299.47 565.55,-292.91 563.28,-299.54"/>
<text text-anchor="middle" x="559.5" y="-267.5" font-family="Helvetica,sans-Serif" font-size="10.00"> _callback</text>
</g>
<!-- Node9 -->
<g id="node9" class="node">
<title>Node9</title>
<g id="a_node9"><a xlink:href="classController.html" target="_top" xlink:title="Class for the central controller for EX&#45;Display. All application activities are controlled through th...">
<polygon fill="white" stroke="black" points="421.5,-67.5 421.5,-86.5 486.5,-86.5 486.5,-67.5 421.5,-67.5"/>
<text text-anchor="middle" x="454" y="-74.5" font-family="Helvetica,sans-Serif" font-size="10.00">Controller</text>
</a>
</g>
</g>
<!-- Node5&#45;&gt;Node9 -->
<g id="edge12" class="edge">
<title>Node5&#45;&gt;Node9</title>
<path fill="none" stroke="midnightblue" d="M621.27,-290.09C628.53,-271.86 636.8,-242.96 629,-219 609.6,-159.4 597.24,-141.08 546,-105 528.58,-92.73 505.58,-85.98 486.93,-82.3"/>
<polygon fill="midnightblue" stroke="midnightblue" points="617.98,-288.9 617.25,-299.47 624.41,-291.66 617.98,-288.9"/>
</g>
<!-- Node5&#45;&gt;Node14 -->
<g id="edge22" class="edge">
<title>Node5&#45;&gt;Node14</title>
<path fill="none" stroke="#9a32cd" stroke-dasharray="5,2" d="M604.78,-290.15C591.68,-263.36 563.75,-212.54 527,-181 518.12,-173.38 506.73,-167.16 496.87,-162.62"/>
<polygon fill="#9a32cd" stroke="#9a32cd" points="601.75,-291.92 609.2,-299.45 608.07,-288.91 601.75,-291.92"/>
<text text-anchor="middle" x="600.5" y="-227.5" font-family="Helvetica,sans-Serif" font-size="10.00"> _callback</text>
</g>
<!-- Node6 -->
<g id="node6" class="node">
<title>Node6</title>
<g id="a_node6"><a xlink:href="classLogger.html" target="_top" xlink:title="Class to enable simple logging to a Stream object with different log levels This enables embedding pe...">
<polygon fill="white" stroke="black" points="514,-366.5 514,-385.5 564,-385.5 564,-366.5 514,-366.5"/>
<text text-anchor="middle" x="539" y="-373.5" font-family="Helvetica,sans-Serif" font-size="10.00">Logger</text>
</a>
</g>
</g>
<!-- Node6&#45;&gt;Node4 -->
<g id="edge7" class="edge">
<title>Node6&#45;&gt;Node4</title>
<path fill="none" stroke="#9a32cd" stroke-dasharray="5,2" d="M529.16,-357.03C523.66,-346.28 517.1,-332.19 513,-319 504.2,-290.74 500.18,-255.66 498.71,-239.67"/>
<polygon fill="#9a32cd" stroke="#9a32cd" points="526.23,-358.97 534,-366.18 532.42,-355.7 526.23,-358.97"/>
<text text-anchor="middle" x="533" y="-306.5" font-family="Helvetica,sans-Serif" font-size="10.00"> _logger</text>
</g>
<!-- Node6&#45;&gt;Node5 -->
<g id="edge5" class="edge">
<title>Node6&#45;&gt;Node5</title>
<path fill="none" stroke="#9a32cd" stroke-dasharray="5,2" d="M556.81,-359.36C571.36,-346.58 591.38,-328.99 603.18,-318.63"/>
<polygon fill="#9a32cd" stroke="#9a32cd" points="554.18,-357 548.98,-366.23 558.8,-362.26 554.18,-357"/>
<text text-anchor="middle" x="600" y="-340" font-family="Helvetica,sans-Serif" font-size="10.00"> _logger</text>
</g>
<!-- Node8 -->
<g id="node8" class="node">
<title>Node8</title>
<g id="a_node8"><a xlink:href="classDisplayInterface.html" target="_top" xlink:title="Class to abstract away all physical display implementation to enable multiple display types.">
<polygon fill="white" stroke="black" points="321.5,-299.5 321.5,-318.5 418.5,-318.5 418.5,-299.5 321.5,-299.5"/>
<text text-anchor="middle" x="370" y="-306.5" font-family="Helvetica,sans-Serif" font-size="10.00">DisplayInterface</text>
</a>
</g>
</g>
<!-- Node6&#45;&gt;Node8 -->
<g id="edge9" class="edge">
<title>Node6&#45;&gt;Node8</title>
<path fill="none" stroke="#9a32cd" stroke-dasharray="5,2" d="M503.91,-365.66C487.36,-360.93 467.46,-354.75 450,-348 427.34,-339.24 402.18,-326.82 386.23,-318.59"/>
<polygon fill="#9a32cd" stroke="#9a32cd" points="503.15,-369.08 513.73,-368.42 505.04,-362.34 503.15,-369.08"/>
<text text-anchor="middle" x="470" y="-340" font-family="Helvetica,sans-Serif" font-size="10.00"> _logger</text>
</g>
<!-- Node10 -->
<g id="node10" class="node">
<title>Node10</title>
<g id="a_node10"><a xlink:href="classScreenManager.html" target="_top" xlink:title="Class to manage all EX&#45;Display screens.">
<polygon fill="white" stroke="black" points="738,-181.5 738,-200.5 830,-200.5 830,-181.5 738,-181.5"/>
<text text-anchor="middle" x="784" y="-188.5" font-family="Helvetica,sans-Serif" font-size="10.00">ScreenManager</text>
</a>
</g>
</g>
<!-- Node6&#45;&gt;Node10 -->
<g id="edge17" class="edge">
<title>Node6&#45;&gt;Node10</title>
<path fill="none" stroke="#9a32cd" stroke-dasharray="5,2" d="M574.26,-374.17C645.21,-371.6 800.8,-361.18 828,-319 853.79,-278.99 810.54,-222.1 791.9,-200.64"/>
<polygon fill="#9a32cd" stroke="#9a32cd" points="573.91,-370.68 564.03,-374.5 574.14,-377.67 573.91,-370.68"/>
<text text-anchor="middle" x="855" y="-306.5" font-family="Helvetica,sans-Serif" font-size="10.00"> _logger</text>
</g>
<!-- Node11 -->
<g id="node11" class="node">
<title>Node11</title>
<g id="a_node11"><a xlink:href="classScreen.html" target="_top" xlink:title="Class for each screen as received from the EXRAIL SCREEN() command Each Screen instance contains a li...">
<polygon fill="white" stroke="red" points="720,-299.5 720,-318.5 770,-318.5 770,-299.5 720,-299.5"/>
<text text-anchor="middle" x="745" y="-306.5" font-family="Helvetica,sans-Serif" font-size="10.00">Screen</text>
</a>
</g>
</g>
<!-- Node6&#45;&gt;Node11 -->
<g id="edge16" class="edge">
<title>Node6&#45;&gt;Node11</title>
<path fill="none" stroke="#9a32cd" stroke-dasharray="5,2" d="M574.46,-375.36C609.63,-374.36 664.16,-369.06 706,-348 719.68,-341.11 731.66,-327.73 738.62,-318.82"/>
<polygon fill="#9a32cd" stroke="#9a32cd" points="574.14,-371.87 564.21,-375.55 574.27,-378.87 574.14,-371.87"/>
<text text-anchor="middle" x="740" y="-340" font-family="Helvetica,sans-Serif" font-size="10.00"> _logger</text>
</g>
<!-- Node13 -->
<g id="node12" class="node">
<title>Node13</title>
<g id="a_node12"><a xlink:href="classDisplayManager.html" target="_top" xlink:title="Manages all physical displays.">
<polygon fill="white" stroke="black" points="231,-181.5 231,-200.5 327,-200.5 327,-181.5 231,-181.5"/>
<text text-anchor="middle" x="279" y="-188.5" font-family="Helvetica,sans-Serif" font-size="10.00">DisplayManager</text>
</a>
</g>
</g>
<!-- Node6&#45;&gt;Node13 -->
<g id="edge19" class="edge">
<title>Node6&#45;&gt;Node13</title>
<path fill="none" stroke="#9a32cd" stroke-dasharray="5,2" d="M503.58,-372.9C437.98,-368.2 301.66,-354.32 273,-319 258.33,-300.92 271.92,-226.37 277.15,-200.72"/>
<polygon fill="#9a32cd" stroke="#9a32cd" points="503.63,-376.41 513.84,-373.61 504.11,-369.43 503.63,-376.41"/>
<text text-anchor="middle" x="293" y="-306.5" font-family="Helvetica,sans-Serif" font-size="10.00"> _logger</text>
</g>
<!-- Node6&#45;&gt;Node14 -->
<g id="edge24" class="edge">
<title>Node6&#45;&gt;Node14</title>
<path fill="none" stroke="#9a32cd" stroke-dasharray="5,2" d="M574.26,-371.87C606.9,-366.81 653.28,-353.59 673,-319 677.4,-311.28 675.21,-307.61 673,-299 662.9,-259.7 658.46,-246.9 629,-219 600.71,-192.21 585.93,-196.06 550,-181 533.92,-174.26 515.5,-167.61 500.94,-162.6"/>
<polygon fill="#9a32cd" stroke="#9a32cd" points="573.63,-368.42 564.19,-373.24 574.57,-375.36 573.63,-368.42"/>
<text text-anchor="middle" x="688" y="-267.5" font-family="Helvetica,sans-Serif" font-size="10.00"> _logger</text>
</g>
<!-- Node7 -->
<g id="node7" class="node">
<title>Node7</title>
<g id="a_node7"><a xlink:href="classStream.html" target="_top" xlink:title="Class to mock the basic Stream function equivalent of the Arduino framework.">
<polygon fill="white" stroke="black" points="108,-433.5 108,-452.5 160,-452.5 160,-433.5 108,-433.5"/>
<text text-anchor="middle" x="134" y="-440.5" font-family="Helvetica,sans-Serif" font-size="10.00">Stream</text>
</a>
</g>
</g>
<!-- Node7&#45;&gt;Node1 -->
<g id="edge30" class="edge">
<title>Node7&#45;&gt;Node1</title>
<path fill="none" stroke="#9a32cd" stroke-dasharray="5,2" d="M104.29,-428.58C85.22,-417.71 64,-400.37 64,-377 64,-377 64,-377 64,-76 64,-47.67 139.94,-29.27 196.3,-19.51"/>
<polygon fill="#9a32cd" stroke="#9a32cd" points="102.9,-431.8 113.38,-433.39 106.18,-425.62 102.9,-431.8"/>
<text text-anchor="middle" x="107.5" y="-233" font-family="Helvetica,sans-Serif" font-size="10.00"> commandStation</text>
<text text-anchor="middle" x="107.5" y="-222" font-family="Helvetica,sans-Serif" font-size="10.00">console</text>
</g>
<!-- Node7&#45;&gt;Node6 -->
<g id="edge6" class="edge">
<title>Node7&#45;&gt;Node6</title>
<path fill="none" stroke="#9a32cd" stroke-dasharray="5,2" d="M170.47,-436.15C251.48,-423.15 444.68,-392.14 513.84,-381.04"/>
<polygon fill="#9a32cd" stroke="#9a32cd" points="169.58,-432.74 160.26,-437.79 170.69,-439.66 169.58,-432.74"/>
<text text-anchor="middle" x="398" y="-407" font-family="Helvetica,sans-Serif" font-size="10.00"> _outputStream</text>
</g>
<!-- Node7&#45;&gt;Node9 -->
<g id="edge26" class="edge">
<title>Node7&#45;&gt;Node9</title>
<path fill="none" stroke="#9a32cd" stroke-dasharray="5,2" d="M129.4,-423.5C121.87,-389.27 110.11,-314.47 135,-259 139.9,-248.09 147.41,-250.24 155,-241 199.65,-186.63 176.63,-142.75 236,-105 270.11,-83.31 377.15,-93.79 417,-87 418.43,-86.76 419.89,-86.49 421.37,-86.2"/>
<polygon fill="#9a32cd" stroke="#9a32cd" points="126.05,-424.53 131.73,-433.47 132.86,-422.94 126.05,-424.53"/>
<text text-anchor="middle" x="198.5" y="-273" font-family="Helvetica,sans-Serif" font-size="10.00"> _commandStationStream</text>
<text text-anchor="middle" x="198.5" y="-262" font-family="Helvetica,sans-Serif" font-size="10.00">_consoleStream</text>
</g>
<!-- Node8&#45;&gt;Node4 -->
<g id="edge8" class="edge">
<title>Node8&#45;&gt;Node4</title>
<path fill="none" stroke="#9a32cd" stroke-dasharray="5,2" d="M390.3,-293.41C404.72,-283.29 424.69,-269.75 443,-259 455.01,-251.95 469.01,-244.84 479.87,-239.55"/>
<polygon fill="#9a32cd" stroke="#9a32cd" points="388.25,-290.58 382.11,-299.21 392.29,-296.29 388.25,-290.58"/>
<text text-anchor="middle" x="465" y="-267.5" font-family="Helvetica,sans-Serif" font-size="10.00"> _display</text>
</g>
<!-- Node8&#45;&gt;Node8 -->
<g id="edge10" class="edge">
<title>Node8&#45;&gt;Node8</title>
<path fill="none" stroke="#9a32cd" stroke-dasharray="5,2" d="M428.88,-313.58C433.59,-312.58 436.5,-311.05 436.5,-309 436.5,-305.72 429.04,-303.78 418.71,-303.19"/>
<polygon fill="#9a32cd" stroke="#9a32cd" points="428.22,-310.13 418.71,-314.81 429.06,-317.08 428.22,-310.13"/>
<text text-anchor="middle" x="452" y="-306.5" font-family="Helvetica,sans-Serif" font-size="10.00"> _next</text>
</g>
<!-- Node8&#45;&gt;Node13 -->
<g id="edge20" class="edge">
<title>Node8&#45;&gt;Node13</title>
<path fill="none" stroke="#9a32cd" stroke-dasharray="5,2" d="M333.74,-294.93C326.88,-291.22 320.23,-286.62 315,-281 294.77,-259.24 301.16,-246.54 290,-219 287.49,-212.81 284.64,-205.82 282.48,-200.51"/>
<polygon fill="#9a32cd" stroke="#9a32cd" points="332.58,-298.25 343.1,-299.44 335.61,-291.95 332.58,-298.25"/>
<text text-anchor="middle" x="347" y="-267.5" font-family="Helvetica,sans-Serif" font-size="10.00"> _firstDisplay</text>
</g>
<!-- Node8&#45;&gt;Node14 -->
<g id="edge25" class="edge">
<title>Node8&#45;&gt;Node14</title>
<path fill="none" stroke="#9a32cd" stroke-dasharray="5,2" d="M376.22,-289.82C384.59,-265.59 398.89,-225.06 403,-219 419.25,-195.02 446.17,-173.92 462.08,-162.66"/>
<polygon fill="#9a32cd" stroke="#9a32cd" points="372.89,-288.74 372.95,-299.34 379.51,-291.02 372.89,-288.74"/>
<text text-anchor="middle" x="425" y="-227.5" font-family="Helvetica,sans-Serif" font-size="10.00"> _display</text>
</g>
<!-- Node9&#45;&gt;Node1 -->
<g id="edge11" class="edge">
<title>Node9&#45;&gt;Node1</title>
<path fill="none" stroke="#9a32cd" stroke-dasharray="5,2" d="M418,-64.18C378.76,-51.3 316.91,-31 282.09,-19.56"/>
<polygon fill="#9a32cd" stroke="#9a32cd" points="417.11,-67.57 427.71,-67.37 419.3,-60.92 417.11,-67.57"/>
<text text-anchor="middle" x="391" y="-41" font-family="Helvetica,sans-Serif" font-size="10.00"> controller</text>
</g>
<!-- Node10&#45;&gt;Node1 -->
<g id="edge27" class="edge">
<title>Node10&#45;&gt;Node1</title>
<path fill="none" stroke="#9a32cd" stroke-dasharray="5,2" d="M795.95,-172.73C800.89,-163.29 804.19,-151.76 798,-143 771.68,-105.72 583.15,-71.54 420,-38 385.23,-30.85 346.02,-24.34 314.65,-19.5"/>
<polygon fill="#9a32cd" stroke="#9a32cd" points="792.95,-170.93 790.75,-181.3 798.93,-174.57 792.95,-170.93"/>
<text text-anchor="middle" x="811.5" y="-112.5" font-family="Helvetica,sans-Serif" font-size="10.00"> screenManager</text>
</g>
<!-- Node10&#45;&gt;Node9 -->
<g id="edge13" class="edge">
<title>Node10&#45;&gt;Node9</title>
<path fill="none" stroke="#9a32cd" stroke-dasharray="5,2" d="M741.95,-177.94C732.25,-174.06 722.34,-169.14 714,-163 687.5,-143.51 696.67,-121.14 668,-105 637.74,-87.96 538.97,-81.44 486.86,-79.14"/>
<polygon fill="#9a32cd" stroke="#9a32cd" points="740.93,-181.3 751.52,-181.48 743.35,-174.73 740.93,-181.3"/>
<text text-anchor="middle" x="756" y="-150.5" font-family="Helvetica,sans-Serif" font-size="10.00"> _screenManager</text>
</g>
<!-- Node11&#45;&gt;Node10 -->
<g id="edge14" class="edge">
<title>Node11&#45;&gt;Node10</title>
<path fill="none" stroke="#9a32cd" stroke-dasharray="5,2" d="M751.15,-289.71C759.7,-264.27 774.85,-219.21 781.14,-200.5"/>
<polygon fill="#9a32cd" stroke="#9a32cd" points="747.8,-288.69 747.93,-299.28 754.44,-290.92 747.8,-288.69"/>
<text text-anchor="middle" x="791.5" y="-267.5" font-family="Helvetica,sans-Serif" font-size="10.00"> _firstScreen</text>
</g>
<!-- Node11&#45;&gt;Node11 -->
<g id="edge15" class="edge">
<title>Node11&#45;&gt;Node11</title>
<path fill="none" stroke="#9a32cd" stroke-dasharray="5,2" d="M780.45,-314.25C785,-313.34 788,-311.59 788,-309 788,-304.75 779.91,-302.76 770.18,-303.02"/>
<polygon fill="#9a32cd" stroke="#9a32cd" points="779.91,-310.78 770.18,-314.98 780.4,-317.77 779.91,-310.78"/>
<text text-anchor="middle" x="803.5" y="-306.5" font-family="Helvetica,sans-Serif" font-size="10.00"> _next</text>
</g>
<!-- Node13&#45;&gt;Node1 -->
<g id="edge28" class="edge">
<title>Node13&#45;&gt;Node1</title>
<path fill="none" stroke="#9a32cd" stroke-dasharray="5,2" d="M226.19,-178.63C197.15,-169.39 163.55,-153.11 146,-125 117.6,-79.51 196.29,-37.18 235.4,-19.58"/>
<polygon fill="#9a32cd" stroke="#9a32cd" points="225.25,-182 235.84,-181.5 227.25,-175.29 225.25,-182"/>
<text text-anchor="middle" x="187" y="-112.5" font-family="Helvetica,sans-Serif" font-size="10.00"> displayManager</text>
</g>
<!-- Node13&#45;&gt;Node9 -->
<g id="edge18" class="edge">
<title>Node13&#45;&gt;Node9</title>
<path fill="none" stroke="#9a32cd" stroke-dasharray="5,2" d="M296.19,-174.75C307.42,-165.12 322.62,-152.71 337,-143 370.7,-120.24 413,-98.22 436.39,-86.57"/>
<polygon fill="#9a32cd" stroke="#9a32cd" points="293.7,-172.27 288.45,-181.48 298.29,-177.55 293.7,-172.27"/>
<text text-anchor="middle" x="380.5" y="-150.5" font-family="Helvetica,sans-Serif" font-size="10.00"> _displayManager</text>
</g>
<!-- Node14&#45;&gt;Node1 -->
<g id="edge29" class="edge">
<title>Node14&#45;&gt;Node1</title>
<path fill="none" stroke="#9a32cd" stroke-dasharray="5,2" d="M443.59,-139.5C415.79,-127.79 374.68,-108.84 342,-87 310.86,-66.18 279.07,-34.95 264.39,-19.83"/>
<polygon fill="#9a32cd" stroke="#9a32cd" points="442.26,-142.74 452.83,-143.34 444.94,-136.27 442.26,-142.74"/>
<text text-anchor="middle" x="377.5" y="-74.5" font-family="Helvetica,sans-Serif" font-size="10.00"> inputManager</text>
</g>
<!-- Node14&#45;&gt;Node9 -->
<g id="edge21" class="edge">
<title>Node14&#45;&gt;Node9</title>
<path fill="none" stroke="#9a32cd" stroke-dasharray="5,2" d="M469.75,-133.51C465.51,-118.57 459.74,-98.22 456.49,-86.77"/>
<polygon fill="#9a32cd" stroke="#9a32cd" points="466.41,-134.56 472.51,-143.22 473.15,-132.64 466.41,-134.56"/>
<text text-anchor="middle" x="504" y="-112.5" font-family="Helvetica,sans-Serif" font-size="10.00"> _inputManager</text>
</g>
</g>
</svg>
