<?xml version="1.0" encoding="UTF-8" standalone="no"?>
<!DOCTYPE svg PUBLIC "-//W3C//DTD SVG 1.1//EN"
 "http://www.w3.org/Graphics/SVG/1.1/DTD/svg11.dtd">
<!-- Generated by graphviz version 2.43.0 (0)
 -->
<!-- Title: ControllerInputActionTests Pages: 1 -->
<!--zoomable 453 -->

<svg id="main" version="1.1" xmlns="http://www.w3.org/2000/svg" xmlns:xlink="http://www.w3.org/1999/xlink" xml:space="preserve" onload="init(evt)">
<style type="text/css"><![CDATA[
.node, .edge {opacity: 0.7;}
.node.selected, .edge.selected {opacity: 1;}
.edge:hover path { stroke: red; }
.edge:hover polygon { stroke: red; fill: red; }
]]></style>

<defs>
  <circle id="rim" cx="0" cy="0" r="7"/>
  <circle id="rim2" cx="0" cy="0" r="3.5"/>
  <g id="zoomPlus">
    <use xlink:href="#rim" fill="#404040"><set attributeName="fill" to="#808080" begin="zoomplus.mouseover" end="zoomplus.mouseout"/></use>
    <path d="M-4,0h8M0,-4v8" fill="none" stroke="white" stroke-width="1.5" pointer-events="none"/>
  </g>
  <g id="zoomMin">
    <use xlink:href="#rim" fill="#404040"><set attributeName="fill" to="#808080" begin="zoomminus.mouseover" end="zoomminus.mouseout"/></use>
    <path d="M-4,0h8" fill="none" stroke="white" stroke-width="1.5" pointer-events="none"/>
  </g>
  <g id="arrowUp" transform="translate(30 24)">
    <use xlink:href="#rim"/>
    <path pointer-events="none" fill="none" stroke="white" stroke-width="1.5" d="M0,-3.0v7 M-2.5,-0.5L0,-3.0L2.5,-0.5"/>
  </g>
  <g id="arrowRight" transform="rotate(90) translate(36 -43)">
    <use xlink:href="#rim"/>
    <path pointer-events="none" fill="none" stroke="white" stroke-width="1.5" d="M0,-3.0v7 M-2.5,-0.5L0,-3.0L2.5,-0.5"/>
  </g>
  <g id="arrowDown" transform="rotate(180) translate(-30 -48)">
    <use xlink:href="#rim"/>
    <path pointer-events="none" fill="none" stroke="white" stroke-width="1.5" d="M0,-3.0v7 M-2.5,-0.5L0,-3.0L2.5,-0.5"/>
  </g>
  <g id="arrowLeft" transform="rotate(270) translate(-36 17)">
    <use xlink:href="#rim"/>
    <path pointer-events="none" fill="none" stroke="white" stroke-width="1.5" d="M0,-3.0v7 M-2.5,-0.5L0,-3.0L2.5,-0.5"/>
  </g>
  <g id="resetDef">
    <use xlink:href="#rim2" fill="#404040"><set attributeName="fill" to="#808080" begin="reset.mouseover" end="reset.mouseout"/></use>
  </g>
</defs>
<script type="application/ecmascript">
var viewWidth = 1023;
var viewHeight = 453;
var sectionId = 'dynsection-1';
</script>
<script type="application/ecmascript" xlink:href="svg.min.js"/>
<svg id="graph" class="graph">
<g id="viewport">
<title>ControllerInputActionTests</title>
<!-- Node1 -->
<g id="Node000001" class="node">
<title>Node1</title>
<g id="a_Node000001"><a xlink:title="Test harness for input actions interacting with the Controller.">
<polygon fill="#999999" stroke="#666666" points="533.5,-19 388.5,-19 388.5,0 533.5,0 533.5,-19"/>
<text text-anchor="middle" x="461" y="-7" font-family="Helvetica,sans-Serif" font-size="10.00">ControllerInputActionTests</text>
</a>
</g>
</g>
<!-- Node2 -->
<g id="Node000002" class="node">
<title>Node2</title>
<g id="a_Node000002"><a xlink:title=" ">
<polygon fill="white" stroke="#666666" points="36,-85 0,-85 0,-66 36,-66 36,-85"/>
<text text-anchor="middle" x="18" y="-73" font-family="Helvetica,sans-Serif" font-size="10.00">Test</text>
</a>
</g>
</g>
<!-- Node2&#45;&gt;Node1 -->
<g id="edge1_Node000001_Node000002" class="edge">
<title>Node2&#45;&gt;Node1</title>
<g id="a_edge1_Node000001_Node000002"><a xlink:title=" ">
<path fill="none" stroke="#63b8ff" d="M28.02,-57.48C33.48,-49.83 40.98,-41.52 50,-37 79.37,-22.29 278.32,-15.04 388.29,-12.13"/>
<polygon fill="#63b8ff" stroke="#63b8ff" points="25.07,-55.59 22.57,-65.89 30.94,-59.4 25.07,-55.59"/>
</a>
</g>
</g>
<!-- Node3 -->
<g id="Node000003" class="node">
<title>Node3</title>
<g id="a_Node000003"><a xlink:href="classMockInput.html" target="_top" xlink:title="Mock physical input class.">
<polygon fill="white" stroke="#666666" points="947,-122 879,-122 879,-103 947,-103 947,-122"/>
<text text-anchor="middle" x="913" y="-110" font-family="Helvetica,sans-Serif" font-size="10.00">MockInput</text>
</a>
</g>
</g>
<!-- Node3&#45;&gt;Node1 -->
<g id="edge2_Node000001_Node000003" class="edge">
<title>Node3&#45;&gt;Node1</title>
<g id="a_edge2_Node000001_Node000003"><a xlink:title=" ">
<path fill="none" stroke="#9a32cd" stroke-dasharray="5,2" d="M904.04,-93.99C898.64,-84.75 891.05,-73.75 882,-66 859.2,-46.47 850.02,-44.68 821,-37 768.67,-23.16 623.03,-15.93 533.85,-12.69"/>
<polygon fill="#9a32cd" stroke="#9a32cd" points="900.98,-95.68 908.85,-102.77 907.12,-92.32 900.98,-95.68"/>
</a>
</g>
<text text-anchor="middle" x="912" y="-73" font-family="Helvetica,sans-Serif" font-size="10.00" fill="grey"> input</text>
</g>
<!-- Node4 -->
<g id="Node000004" class="node">
<title>Node4</title>
<g id="a_Node000004"><a xlink:href="classInputInterface.html" target="_top" xlink:title="Class to abstract away all physical input implementatio to enable multiple input types Default return...">
<polygon fill="white" stroke="#666666" points="954.5,-234.5 869.5,-234.5 869.5,-215.5 954.5,-215.5 954.5,-234.5"/>
<text text-anchor="middle" x="912" y="-222.5" font-family="Helvetica,sans-Serif" font-size="10.00">InputInterface</text>
</a>
</g>
</g>
<!-- Node4&#45;&gt;Node3 -->
<g id="edge3_Node000003_Node000004" class="edge">
<title>Node4&#45;&gt;Node3</title>
<g id="a_edge3_Node000003_Node000004"><a xlink:title=" ">
<path fill="none" stroke="#63b8ff" d="M912.17,-205.26C912.39,-181.06 912.76,-139.93 912.92,-122.13"/>
<polygon fill="#63b8ff" stroke="#63b8ff" points="908.67,-205.3 912.08,-215.33 915.67,-205.36 908.67,-205.3"/>
</a>
</g>
</g>
<!-- Node10 -->
<g id="Node000010" class="node">
<title>Node10</title>
<g id="a_Node000010"><a xlink:href="classInputManager.html" target="_top" xlink:title=" ">
<polygon fill="white" stroke="#666666" points="849,-159 765,-159 765,-140 849,-140 849,-159"/>
<text text-anchor="middle" x="807" y="-147" font-family="Helvetica,sans-Serif" font-size="10.00">InputManager</text>
</a>
</g>
</g>
<!-- Node4&#45;&gt;Node10 -->
<g id="edge17_Node000010_Node000004" class="edge">
<title>Node4&#45;&gt;Node10</title>
<g id="a_edge17_Node000010_Node000004"><a xlink:title=" ">
<path fill="none" stroke="#9a32cd" stroke-dasharray="5,2" d="M887.26,-210.49C879.66,-206.09 871.35,-201.04 864,-196 846.66,-184.12 827.84,-168.51 816.75,-159.01"/>
<polygon fill="#9a32cd" stroke="#9a32cd" points="885.65,-213.6 896.08,-215.48 889.1,-207.51 885.65,-213.6"/>
</a>
</g>
<text text-anchor="middle" x="881" y="-184" font-family="Helvetica,sans-Serif" font-size="10.00" fill="grey"> _input</text>
</g>
<!-- Node5 -->
<g id="Node000005" class="node">
<title>Node5</title>
<g id="a_Node000005"><a xlink:href="classCallbackInterface.html" target="_top" xlink:title="Interface class to use for callbacks.">
<polygon fill="white" stroke="#666666" points="711,-313 609,-313 609,-294 711,-294 711,-313"/>
<text text-anchor="middle" x="660" y="-301" font-family="Helvetica,sans-Serif" font-size="10.00">CallbackInterface</text>
</a>
</g>
</g>
<!-- Node5&#45;&gt;Node4 -->
<g id="edge4_Node000004_Node000005" class="edge">
<title>Node5&#45;&gt;Node4</title>
<g id="a_edge4_Node000004_Node000005"><a xlink:title=" ">
<path fill="none" stroke="#9a32cd" stroke-dasharray="5,2" d="M692.12,-290.26C703.23,-285.9 715.72,-280.87 727,-276 748.18,-266.87 752.1,-261.23 774,-254 791.35,-248.27 835.5,-239.68 869.23,-233.53"/>
<polygon fill="#9a32cd" stroke="#9a32cd" points="690.83,-287 682.78,-293.89 693.37,-293.53 690.83,-287"/>
</a>
</g>
<text text-anchor="middle" x="798.5" y="-262.5" font-family="Helvetica,sans-Serif" font-size="10.00" fill="grey"> _callback</text>
</g>
<!-- Node5&#45;&gt;Node10 -->
<g id="edge19_Node000010_Node000005" class="edge">
<title>Node5&#45;&gt;Node10</title>
<g id="a_edge19_Node000010_Node000005"><a xlink:title=" ">
<path fill="none" stroke="#9a32cd" stroke-dasharray="5,2" d="M648.2,-285.22C643.22,-275.64 639.66,-263.74 645,-254 673.46,-202.04 740.34,-172.38 778.67,-159.07"/>
<polygon fill="#9a32cd" stroke="#9a32cd" points="645.23,-287.08 653.38,-293.85 651.23,-283.48 645.23,-287.08"/>
</a>
</g>
<text text-anchor="middle" x="701.5" y="-222.5" font-family="Helvetica,sans-Serif" font-size="10.00" fill="grey"> _callback</text>
</g>
<!-- Node14 -->
<g id="Node000014" class="node">
<title>Node14</title>
<g id="a_Node000014"><a xlink:href="classController.html" target="_top" xlink:title="Class for the central controller for EX&#45;Display. All application activities are controlled through th...">
<polygon fill="white" stroke="#666666" points="493.5,-85 428.5,-85 428.5,-66 493.5,-66 493.5,-85"/>
<text text-anchor="middle" x="461" y="-73" font-family="Helvetica,sans-Serif" font-size="10.00">Controller</text>
</a>
</g>
</g>
<!-- Node5&#45;&gt;Node14 -->
<g id="edge29_Node000014_Node000005" class="edge">
<title>Node5&#45;&gt;Node14</title>
<g id="a_edge29_Node000014_Node000005"><a xlink:title=" ">
<path fill="none" stroke="#63b8ff" d="M618.62,-290.84C575.13,-276.26 508.48,-246.82 475,-196 451.67,-160.59 456.54,-106.2 459.55,-85.19"/>
<polygon fill="#63b8ff" stroke="#63b8ff" points="617.74,-294.24 628.33,-293.98 619.89,-287.58 617.74,-294.24"/>
</a>
</g>
</g>
<!-- Node6 -->
<g id="Node000006" class="node">
<title>Node6</title>
<g id="a_Node000006"><a xlink:href="classLogger.html" target="_top" xlink:title="Class to enable simple logging to a Stream object with different log levels This enables embedding pe...">
<polygon fill="white" stroke="#666666" points="576,-379 526,-379 526,-360 576,-360 576,-379"/>
<text text-anchor="middle" x="551" y="-367" font-family="Helvetica,sans-Serif" font-size="10.00">Logger</text>
</a>
</g>
</g>
<!-- Node6&#45;&gt;Node4 -->
<g id="edge7_Node000004_Node000006" class="edge">
<title>Node6&#45;&gt;Node4</title>
<g id="a_edge7_Node000004_Node000006"><a xlink:title=" ">
<path fill="none" stroke="#9a32cd" stroke-dasharray="5,2" d="M586.29,-367.18C662.81,-363.62 840.69,-351.34 885,-313 908.44,-292.72 911.82,-252.5 912.11,-234.75"/>
<polygon fill="#9a32cd" stroke="#9a32cd" points="586.03,-363.69 576.19,-367.63 586.34,-370.68 586.03,-363.69"/>
</a>
</g>
<text text-anchor="middle" x="918" y="-301" font-family="Helvetica,sans-Serif" font-size="10.00" fill="grey"> _logger</text>
</g>
<!-- Node6&#45;&gt;Node5 -->
<g id="edge5_Node000005_Node000006" class="edge">
<title>Node6&#45;&gt;Node5</title>
<g id="a_edge5_Node000005_Node000006"><a xlink:title=" ">
<path fill="none" stroke="#9a32cd" stroke-dasharray="5,2" d="M574.52,-354.69C595.97,-342.09 627.01,-323.87 645.18,-313.2"/>
<polygon fill="#9a32cd" stroke="#9a32cd" points="572.55,-351.79 565.7,-359.87 576.1,-357.82 572.55,-351.79"/>
</a>
</g>
<text text-anchor="middle" x="632" y="-334" font-family="Helvetica,sans-Serif" font-size="10.00" fill="grey"> _logger</text>
</g>
<!-- Node8 -->
<g id="Node000008" class="node">
<title>Node8</title>
<g id="a_Node000008"><a xlink:href="classDisplayInterface.html" target="_top" xlink:title="Class to abstract away all physical display implementation to enable multiple display types.">
<polygon fill="white" stroke="#666666" points="826.5,-313 729.5,-313 729.5,-294 826.5,-294 826.5,-313"/>
<text text-anchor="middle" x="778" y="-301" font-family="Helvetica,sans-Serif" font-size="10.00">DisplayInterface</text>
</a>
</g>
</g>
<!-- Node6&#45;&gt;Node8 -->
<g id="edge10_Node000008_Node000006" class="edge">
<title>Node6&#45;&gt;Node8</title>
<g id="a_edge10_Node000008_Node000006"><a xlink:title=" ">
<path fill="none" stroke="#9a32cd" stroke-dasharray="5,2" d="M585.96,-360.15C606.44,-355.14 632.77,-348.5 656,-342 689.08,-332.75 726.82,-320.95 751.46,-313.09"/>
<polygon fill="#9a32cd" stroke="#9a32cd" points="585.02,-356.78 576.13,-362.54 586.67,-363.58 585.02,-356.78"/>
</a>
</g>
<text text-anchor="middle" x="713" y="-334" font-family="Helvetica,sans-Serif" font-size="10.00" fill="grey"> _logger</text>
</g>
<!-- Node9 -->
<g id="Node000009" class="node">
<title>Node9</title>
<g id="a_Node000009"><a xlink:href="classDisplayManager.html" target="_top" xlink:title="Manages all physical displays.">
<polygon fill="white" stroke="#666666" points="572,-196 476,-196 476,-177 572,-177 572,-196"/>
<text text-anchor="middle" x="524" y="-184" font-family="Helvetica,sans-Serif" font-size="10.00">DisplayManager</text>
</a>
</g>
</g>
<!-- Node6&#45;&gt;Node9 -->
<g id="edge14_Node000009_Node000006" class="edge">
<title>Node6&#45;&gt;Node9</title>
<g id="a_edge14_Node000009_Node000006"><a xlink:title=" ">
<path fill="none" stroke="#9a32cd" stroke-dasharray="5,2" d="M548.22,-349.87C542.47,-311.29 529.43,-223.91 525.29,-196.14"/>
<polygon fill="#9a32cd" stroke="#9a32cd" points="544.76,-350.4 549.7,-359.77 551.68,-349.36 544.76,-350.4"/>
</a>
</g>
<text text-anchor="middle" x="562" y="-301" font-family="Helvetica,sans-Serif" font-size="10.00" fill="grey"> _logger</text>
</g>
<!-- Node6&#45;&gt;Node10 -->
<g id="edge18_Node000010_Node000006" class="edge">
<title>Node6&#45;&gt;Node10</title>
<g id="a_edge18_Node000010_Node000006"><a xlink:title=" ">
<path fill="none" stroke="#9a32cd" stroke-dasharray="5,2" d="M586.14,-368.7C672.68,-368.43 892.6,-362.73 942,-313 973.77,-281.02 986.25,-253.2 964,-214 941.21,-173.86 887.32,-159.07 849.05,-153.63"/>
<polygon fill="#9a32cd" stroke="#9a32cd" points="586.03,-365.2 576.03,-368.71 586.04,-372.2 586.03,-365.2"/>
</a>
</g>
<text text-anchor="middle" x="995" y="-262.5" font-family="Helvetica,sans-Serif" font-size="10.00" fill="grey"> _logger</text>
</g>
<!-- Node11 -->
<g id="Node000011" class="node">
<title>Node11</title>
<g id="a_Node000011"><a xlink:href="classScreenManager.html" target="_top" xlink:title="Class to manage all EX&#45;Display screens.">
<polygon fill="white" stroke="#666666" points="378,-159 286,-159 286,-140 378,-140 378,-159"/>
<text text-anchor="middle" x="332" y="-147" font-family="Helvetica,sans-Serif" font-size="10.00">ScreenManager</text>
</a>
</g>
</g>
<!-- Node6&#45;&gt;Node11 -->
<g id="edge27_Node000011_Node000006" class="edge">
<title>Node6&#45;&gt;Node11</title>
<g id="a_edge27_Node000011_Node000006"><a xlink:title=" ">
<path fill="none" stroke="#9a32cd" stroke-dasharray="5,2" d="M515.71,-368.8C477.91,-367.9 416.89,-362.89 369,-342 327.38,-323.84 309.7,-317.38 291,-276 271.94,-233.8 308.49,-180.06 324.75,-159.26"/>
<polygon fill="#9a32cd" stroke="#9a32cd" points="515.67,-372.3 525.73,-368.95 515.78,-365.3 515.67,-372.3"/>
</a>
</g>
<text text-anchor="middle" x="311" y="-262.5" font-family="Helvetica,sans-Serif" font-size="10.00" fill="grey"> _logger</text>
</g>
<!-- Node12 -->
<g id="Node000012" class="node">
<title>Node12</title>
<g id="a_Node000012"><a xlink:href="classScreen.html" target="_top" xlink:title="Class for each screen as received from the EXRAIL SCREEN() command Each Screen instance contains a li...">
<polygon fill="white" stroke="#666666" points="370,-234.5 320,-234.5 320,-215.5 370,-215.5 370,-234.5"/>
<text text-anchor="middle" x="345" y="-222.5" font-family="Helvetica,sans-Serif" font-size="10.00">Screen</text>
</a>
</g>
</g>
<!-- Node6&#45;&gt;Node12 -->
<g id="edge26_Node000012_Node000006" class="edge">
<title>Node6&#45;&gt;Node12</title>
<g id="a_edge26_Node000012_Node000006"><a xlink:title=" ">
<path fill="none" stroke="#9a32cd" stroke-dasharray="5,2" d="M515.78,-364.08C462.83,-356.63 366.69,-339.72 346,-313 328.06,-289.83 336.73,-251.82 341.99,-234.76"/>
<polygon fill="#9a32cd" stroke="#9a32cd" points="515.38,-367.55 525.76,-365.44 516.33,-360.62 515.38,-367.55"/>
</a>
</g>
<text text-anchor="middle" x="366" y="-301" font-family="Helvetica,sans-Serif" font-size="10.00" fill="grey"> _logger</text>
</g>
<!-- Node13 -->
<g id="Node000013" class="node">
<title>Node13</title>
<g id="a_Node000013"><a xlink:href="classScreenRow.html" target="_top" xlink:title=" ">
<polygon fill="white" stroke="#666666" points="465.5,-313 394.5,-313 394.5,-294 465.5,-294 465.5,-313"/>
<text text-anchor="middle" x="430" y="-301" font-family="Helvetica,sans-Serif" font-size="10.00">ScreenRow</text>
</a>
</g>
</g>
<!-- Node6&#45;&gt;Node13 -->
<g id="edge25_Node000013_Node000006" class="edge">
<title>Node6&#45;&gt;Node13</title>
<g id="a_edge25_Node000013_Node000006"><a xlink:title=" ">
<path fill="none" stroke="#9a32cd" stroke-dasharray="5,2" d="M523.66,-355.44C515.08,-351.24 505.6,-346.51 497,-342 478.82,-332.46 458.27,-320.83 444.78,-313.07"/>
<polygon fill="#9a32cd" stroke="#9a32cd" points="522.35,-358.69 532.88,-359.91 525.41,-352.4 522.35,-358.69"/>
</a>
</g>
<text text-anchor="middle" x="517" y="-334" font-family="Helvetica,sans-Serif" font-size="10.00" fill="grey"> _logger</text>
</g>
<!-- Node7 -->
<g id="Node000007" class="node">
<title>Node7</title>
<g id="a_Node000007"><a xlink:href="classStream.html" target="_top" xlink:title="Class to mock the basic Stream function equivalent of the Arduino framework.">
<polygon fill="white" stroke="#666666" points="166,-445 114,-445 114,-426 166,-426 166,-445"/>
<text text-anchor="middle" x="140" y="-433" font-family="Helvetica,sans-Serif" font-size="10.00">Stream</text>
</a>
</g>
</g>
<!-- Node7&#45;&gt;Node1 -->
<g id="edge11_Node000001_Node000007" class="edge">
<title>Node7&#45;&gt;Node1</title>
<g id="a_edge11_Node000001_Node000007"><a xlink:title=" ">
<path fill="none" stroke="#9a32cd" stroke-dasharray="5,2" d="M106.78,-421.58C86.33,-411.22 64,-394.43 64,-370.5 64,-370.5 64,-370.5 64,-74.5 64,-42.04 273.57,-22.96 388.18,-14.96"/>
<polygon fill="#9a32cd" stroke="#9a32cd" points="105.41,-424.81 115.95,-425.89 108.39,-418.47 105.41,-424.81"/>
</a>
</g>
<text text-anchor="middle" x="107.5" y="-228" font-family="Helvetica,sans-Serif" font-size="10.00" fill="grey"> commandStation</text>
<text text-anchor="middle" x="107.5" y="-217" font-family="Helvetica,sans-Serif" font-size="10.00" fill="grey">console</text>
</g>
<!-- Node7&#45;&gt;Node6 -->
<g id="edge6_Node000006_Node000007" class="edge">
<title>Node7&#45;&gt;Node6</title>
<g id="a_edge6_Node000006_Node000007"><a xlink:title=" ">
<path fill="none" stroke="#9a32cd" stroke-dasharray="5,2" d="M176.09,-428.88C257.9,-416.14 455.79,-385.33 525.88,-374.41"/>
<polygon fill="#9a32cd" stroke="#9a32cd" points="175.36,-425.45 166.02,-430.45 176.44,-432.37 175.36,-425.45"/>
</a>
</g>
<text text-anchor="middle" x="408" y="-400" font-family="Helvetica,sans-Serif" font-size="10.00" fill="grey"> _outputStream</text>
</g>
<!-- Node7&#45;&gt;Node14 -->
<g id="edge30_Node000014_Node000007" class="edge">
<title>Node7&#45;&gt;Node14</title>
<g id="a_edge30_Node000014_Node000007"><a xlink:title=" ">
<path fill="none" stroke="#9a32cd" stroke-dasharray="5,2" d="M137.16,-415.67C132.91,-381.51 127.94,-307.9 154,-254 200.5,-157.83 241.36,-141.52 341,-103 376.21,-89.39 387.16,-93.23 424,-85 425.42,-84.68 426.86,-84.36 428.32,-84.03"/>
<polygon fill="#9a32cd" stroke="#9a32cd" points="133.7,-416.22 138.53,-425.65 140.64,-415.27 133.7,-416.22"/>
</a>
</g>
<text text-anchor="middle" x="217.5" y="-268" font-family="Helvetica,sans-Serif" font-size="10.00" fill="grey"> _commandStationStream</text>
<text text-anchor="middle" x="217.5" y="-257" font-family="Helvetica,sans-Serif" font-size="10.00" fill="grey">_consoleStream</text>
</g>
<!-- Node8&#45;&gt;Node4 -->
<g id="edge8_Node000004_Node000008" class="edge">
<title>Node8&#45;&gt;Node4</title>
<g id="a_edge8_Node000004_Node000008"><a xlink:title=" ">
<path fill="none" stroke="#9a32cd" stroke-dasharray="5,2" d="M804.68,-289.25C812.07,-285.26 819.99,-280.69 827,-276 839.86,-267.39 840.94,-262.31 854,-254 865.79,-246.5 879.9,-239.64 891.24,-234.6"/>
<polygon fill="#9a32cd" stroke="#9a32cd" points="802.93,-286.21 795.7,-293.95 806.18,-292.41 802.93,-286.21"/>
</a>
</g>
<text text-anchor="middle" x="876" y="-262.5" font-family="Helvetica,sans-Serif" font-size="10.00" fill="grey"> _display</text>
</g>
<!-- Node8&#45;&gt;Node8 -->
<g id="edge9_Node000008_Node000008" class="edge">
<title>Node8&#45;&gt;Node8</title>
<g id="a_edge9_Node000008_Node000008"><a xlink:title=" ">
<path fill="none" stroke="#9a32cd" stroke-dasharray="5,2" d="M836.88,-308.08C841.59,-307.08 844.5,-305.55 844.5,-303.5 844.5,-300.22 837.04,-298.28 826.71,-297.69"/>
<polygon fill="#9a32cd" stroke="#9a32cd" points="836.22,-304.63 826.71,-309.31 837.06,-311.58 836.22,-304.63"/>
</a>
</g>
<text text-anchor="middle" x="860" y="-301" font-family="Helvetica,sans-Serif" font-size="10.00" fill="grey"> _next</text>
</g>
<!-- Node8&#45;&gt;Node9 -->
<g id="edge13_Node000009_Node000008" class="edge">
<title>Node8&#45;&gt;Node9</title>
<g id="a_edge13_Node000009_Node000008"><a xlink:title=" ">
<path fill="none" stroke="#9a32cd" stroke-dasharray="5,2" d="M719.12,-292.1C691.59,-286.74 663.79,-280.43 659,-276 637.84,-256.43 661.11,-233.62 640,-214 630.01,-204.72 599.49,-197.96 572.25,-193.59"/>
<polygon fill="#9a32cd" stroke="#9a32cd" points="718.73,-295.59 729.21,-294.02 720.04,-288.71 718.73,-295.59"/>
</a>
</g>
<text text-anchor="middle" x="691" y="-262.5" font-family="Helvetica,sans-Serif" font-size="10.00" fill="grey"> _firstDisplay</text>
</g>
<!-- Node8&#45;&gt;Node10 -->
<g id="edge16_Node000010_Node000008" class="edge">
<title>Node8&#45;&gt;Node10</title>
<g id="a_edge16_Node000010_Node000008"><a xlink:title=" ">
<path fill="none" stroke="#9a32cd" stroke-dasharray="5,2" d="M793.67,-285.74C795.8,-282.69 797.7,-279.39 799,-276 814.9,-234.63 810.61,-179.96 808.16,-159.09"/>
<polygon fill="#9a32cd" stroke="#9a32cd" points="790.9,-283.6 787.34,-293.58 796.35,-287.99 790.9,-283.6"/>
</a>
</g>
<text text-anchor="middle" x="832" y="-222.5" font-family="Helvetica,sans-Serif" font-size="10.00" fill="grey"> _display</text>
</g>
<!-- Node9&#45;&gt;Node1 -->
<g id="edge12_Node000001_Node000009" class="edge">
<title>Node9&#45;&gt;Node1</title>
<g id="a_edge12_Node000001_Node000009"><a xlink:title=" ">
<path fill="none" stroke="#9a32cd" stroke-dasharray="5,2" d="M581.74,-173.75C588.5,-170.08 594.56,-165.28 599,-159 603.88,-152.11 601.83,-147.96 599,-140 579.19,-84.35 561.25,-73.75 515,-37 505.68,-29.59 493.95,-23.53 483.81,-19.08"/>
<polygon fill="#9a32cd" stroke="#9a32cd" points="579.84,-170.77 572.17,-178.08 582.72,-177.15 579.84,-170.77"/>
</a>
</g>
<text text-anchor="middle" x="632" y="-110" font-family="Helvetica,sans-Serif" font-size="10.00" fill="grey"> displayManager</text>
</g>
<!-- Node9&#45;&gt;Node14 -->
<g id="edge31_Node000014_Node000009" class="edge">
<title>Node9&#45;&gt;Node14</title>
<g id="a_edge31_Node000014_Node000009"><a xlink:title=" ">
<path fill="none" stroke="#9a32cd" stroke-dasharray="5,2" d="M513.87,-167.98C500.16,-144.25 476.21,-102.81 465.92,-85.01"/>
<polygon fill="#9a32cd" stroke="#9a32cd" points="511.02,-170.04 519.06,-176.95 517.08,-166.54 511.02,-170.04"/>
</a>
</g>
<text text-anchor="middle" x="551.5" y="-147" font-family="Helvetica,sans-Serif" font-size="10.00" fill="grey"> _displayManager</text>
</g>
<!-- Node10&#45;&gt;Node1 -->
<g id="edge15_Node000001_Node000010" class="edge">
<title>Node10&#45;&gt;Node1</title>
<g id="a_edge15_Node000001_Node000010"><a xlink:title=" ">
<path fill="none" stroke="#9a32cd" stroke-dasharray="5,2" d="M805.03,-129.65C803.21,-120.63 799.71,-110.24 793,-103 738.47,-44.16 702.37,-58.19 625,-37 595.51,-28.93 562.33,-22.99 533.56,-18.82"/>
<polygon fill="#9a32cd" stroke="#9a32cd" points="801.59,-130.3 806.52,-139.68 808.51,-129.27 801.59,-130.3"/>
</a>
</g>
<text text-anchor="middle" x="808.5" y="-73" font-family="Helvetica,sans-Serif" font-size="10.00" fill="grey"> inputManager</text>
</g>
<!-- Node10&#45;&gt;Node14 -->
<g id="edge32_Node000014_Node000010" class="edge">
<title>Node10&#45;&gt;Node14</title>
<g id="a_edge32_Node000014_Node000010"><a xlink:title=" ">
<path fill="none" stroke="#9a32cd" stroke-dasharray="5,2" d="M755.54,-137.22C742.56,-133.34 728.92,-128.33 717,-122 705.29,-115.78 706.2,-108.19 694,-103 658.69,-87.99 549.05,-80.72 493.69,-77.93"/>
<polygon fill="#9a32cd" stroke="#9a32cd" points="754.74,-140.63 765.31,-139.97 756.64,-133.89 754.74,-140.63"/>
</a>
</g>
<text text-anchor="middle" x="755" y="-110" font-family="Helvetica,sans-Serif" font-size="10.00" fill="grey"> _inputManager</text>
</g>
<!-- Node11&#45;&gt;Node1 -->
<g id="edge20_Node000001_Node000011" class="edge">
<title>Node11&#45;&gt;Node1</title>
<g id="a_edge20_Node000001_Node000011"><a xlink:title=" ">
<path fill="none" stroke="#9a32cd" stroke-dasharray="5,2" d="M329.11,-129.7C327.4,-111.67 327.69,-84.52 341,-66 359.15,-40.74 391.71,-26.67 418.33,-19.03"/>
<polygon fill="#9a32cd" stroke="#9a32cd" points="325.67,-130.33 330.38,-139.82 332.61,-129.46 325.67,-130.33"/>
</a>
</g>
<text text-anchor="middle" x="380.5" y="-73" font-family="Helvetica,sans-Serif" font-size="10.00" fill="grey"> screenManager</text>
</g>
<!-- Node11&#45;&gt;Node14 -->
<g id="edge33_Node000014_Node000011" class="edge">
<title>Node11&#45;&gt;Node14</title>
<g id="a_edge33_Node000014_Node000011"><a xlink:title=" ">
<path fill="none" stroke="#9a32cd" stroke-dasharray="5,2" d="M340.25,-130.66C345.5,-121.14 353.17,-109.99 363,-103 373.48,-95.54 403.88,-87.97 428.07,-82.84"/>
<polygon fill="#9a32cd" stroke="#9a32cd" points="337.05,-129.23 335.66,-139.73 343.3,-132.39 337.05,-129.23"/>
</a>
</g>
<text text-anchor="middle" x="405" y="-110" font-family="Helvetica,sans-Serif" font-size="10.00" fill="grey"> _screenManager</text>
</g>
<!-- Node12&#45;&gt;Node11 -->
<g id="edge21_Node000011_Node000012" class="edge">
<title>Node12&#45;&gt;Node11</title>
<g id="a_edge21_Node000011_Node000012"><a xlink:title=" ">
<path fill="none" stroke="#9a32cd" stroke-dasharray="5,2" d="M341.67,-205.2C339.06,-190.41 335.53,-170.48 333.54,-159.21"/>
<polygon fill="#9a32cd" stroke="#9a32cd" points="338.27,-206.04 343.46,-215.28 345.16,-204.82 338.27,-206.04"/>
</a>
</g>
<text text-anchor="middle" x="370.5" y="-184" font-family="Helvetica,sans-Serif" font-size="10.00" fill="grey"> _firstScreen</text>
</g>
<!-- Node12&#45;&gt;Node12 -->
<g id="edge22_Node000012_Node000012" class="edge">
<title>Node12&#45;&gt;Node12</title>
<g id="a_edge22_Node000012_Node000012"><a xlink:title=" ">
<path fill="none" stroke="#9a32cd" stroke-dasharray="5,2" d="M380.45,-231.24C385,-230.16 388,-228.08 388,-225 388,-219.95 379.91,-217.59 370.18,-217.9"/>
<polygon fill="#9a32cd" stroke="#9a32cd" points="379.85,-227.78 370.18,-232.1 380.43,-234.75 379.85,-227.78"/>
</a>
</g>
<text text-anchor="middle" x="403.5" y="-222.5" font-family="Helvetica,sans-Serif" font-size="10.00" fill="grey"> _next</text>
</g>
<!-- Node13&#45;&gt;Node12 -->
<g id="edge23_Node000012_Node000013" class="edge">
<title>Node13&#45;&gt;Node12</title>
<g id="a_edge23_Node000012_Node000013"><a xlink:title=" ">
<path fill="none" stroke="#9a32cd" stroke-dasharray="5,2" d="M412.45,-286.7C394.93,-270.94 368.66,-247.3 354.64,-234.67"/>
<polygon fill="#9a32cd" stroke="#9a32cd" points="410.48,-289.64 420.25,-293.72 415.16,-284.43 410.48,-289.64"/>
</a>
</g>
<text text-anchor="middle" x="441" y="-262.5" font-family="Helvetica,sans-Serif" font-size="10.00" fill="grey"> _firstScreenRow</text>
</g>
<!-- Node13&#45;&gt;Node13 -->
<g id="edge24_Node000013_Node000013" class="edge">
<title>Node13&#45;&gt;Node13</title>
<g id="a_edge24_Node000013_Node000013"><a xlink:title=" ">
<path fill="none" stroke="#9a32cd" stroke-dasharray="5,2" d="M475.78,-308.45C480.49,-307.47 483.5,-305.82 483.5,-303.5 483.5,-299.78 475.79,-297.79 465.75,-297.53"/>
<polygon fill="#9a32cd" stroke="#9a32cd" points="475.35,-304.97 465.75,-309.47 476.06,-311.94 475.35,-304.97"/>
</a>
</g>
<text text-anchor="middle" x="499" y="-301" font-family="Helvetica,sans-Serif" font-size="10.00" fill="grey"> _next</text>
</g>
<!-- Node14&#45;&gt;Node1 -->
<g id="edge28_Node000001_Node000014" class="edge">
<title>Node14&#45;&gt;Node1</title>
<g id="a_edge28_Node000001_Node000014"><a xlink:title=" ">
<path fill="none" stroke="#9a32cd" stroke-dasharray="5,2" d="M461,-55.58C461,-43.63 461,-28.72 461,-19.41"/>
<polygon fill="#9a32cd" stroke="#9a32cd" points="457.5,-55.87 461,-65.87 464.5,-55.87 457.5,-55.87"/>
</a>
</g>
<text text-anchor="middle" x="486" y="-40" font-family="Helvetica,sans-Serif" font-size="10.00" fill="grey"> controller</text>
</g>
</g>
</svg>

<g id="navigator" transform="translate(0 0)" fill="#404254">
  <rect fill="#f2f5e9" fill-opacity="0.5" stroke="#606060" stroke-width=".5" x="0" y="0" width="60" height="60"/>
  <use id="zoomplus" xlink:href="#zoomPlus" x="17" y="9" onmousedown="handleZoom(evt,'in')"/>
  <use id="zoomminus" xlink:href="#zoomMin" x="42" y="9" onmousedown="handleZoom(evt,'out')"/>
  <use id="reset" xlink:href="#resetDef" x="30" y="36" onmousedown="handleReset()"/>
   <use id="arrowup" xlink:href="#arrowUp" x="0" y="0" onmousedown="handlePan(0,-1)"/>
  <use id="arrowright" xlink:href="#arrowRight" x="0" y="0" onmousedown="handlePan(1,0)"/>
  <use id="arrowdown" xlink:href="#arrowDown" x="0" y="0" onmousedown="handlePan(0,1)"/>
  <use id="arrowleft" xlink:href="#arrowLeft" x="0" y="0" onmousedown="handlePan(-1,0)"/>
</g>
<svg viewBox="0 0 15 15" width="100%" height="30px" preserveAspectRatio="xMaxYMin meet">
 <g id="arrow_out" transform="scale(0.3 0.3)">
  <a xlink:href="classControllerInputActionTests__coll__graph_org.svg" target="_base">
   <rect id="button" ry="5" rx="5" y="6" x="6" height="38" width="38"
        fill="#f2f5e9" fill-opacity="0.5" stroke="#606060" stroke-width="1.0"/>
   <path id="arrow"
     d="M 11.500037,31.436501 C 11.940474,20.09759 22.043105,11.32322 32.158766,21.979434 L 37.068811,17.246167 C 37.068811,17.246167 37.088388,32 37.088388,32 L 22.160133,31.978069 C 22.160133,31.978069 26.997745,27.140456 26.997745,27.140456 C 18.528582,18.264221 13.291696,25.230495 11.500037,31.436501 z"
     style="fill:#404040;"/>
  </a>
 </g>
</svg>

<style type='text/css'>
<![CDATA[
[data-mouse-over-selected='false'] { opacity: 0.7; }
[data-mouse-over-selected='true']  { opacity: 1.0; }
]]>
</style>
<script type="application/ecmascript"><![CDATA[
document.addEventListener('DOMContentLoaded', (event) => {
  highlightEdges();
  highlightAdjacentNodes();
});
]]></script>
</svg>
