<?xml version="1.0" encoding="UTF-8" standalone="no"?>
<!DOCTYPE svg PUBLIC "-//W3C//DTD SVG 1.1//EN"
 "http://www.w3.org/Graphics/SVG/1.1/DTD/svg11.dtd">
<!-- Generated by graphviz version 2.43.0 (0)
 -->
<!-- Title: Controller::updateScreen Pages: 1 -->
<!--zoomable 307 -->

<svg id="main" version="1.1" xmlns="http://www.w3.org/2000/svg" xmlns:xlink="http://www.w3.org/1999/xlink" xml:space="preserve" onload="init(evt)">
<style type="text/css"><![CDATA[
.node, .edge {opacity: 0.7;}
.node.selected, .edge.selected {opacity: 1;}
.edge:hover path { stroke: red; }
.edge:hover polygon { stroke: red; fill: red; }
]]></style>

<defs>
  <circle id="rim" cx="0" cy="0" r="7"/>
  <circle id="rim2" cx="0" cy="0" r="3.5"/>
  <g id="zoomPlus">
    <use xlink:href="#rim" fill="#404040"><set attributeName="fill" to="#808080" begin="zoomplus.mouseover" end="zoomplus.mouseout"/></use>
    <path d="M-4,0h8M0,-4v8" fill="none" stroke="white" stroke-width="1.5" pointer-events="none"/>
  </g>
  <g id="zoomMin">
    <use xlink:href="#rim" fill="#404040"><set attributeName="fill" to="#808080" begin="zoomminus.mouseover" end="zoomminus.mouseout"/></use>
    <path d="M-4,0h8" fill="none" stroke="white" stroke-width="1.5" pointer-events="none"/>
  </g>
  <g id="arrowUp" transform="translate(30 24)">
    <use xlink:href="#rim"/>
    <path pointer-events="none" fill="none" stroke="white" stroke-width="1.5" d="M0,-3.0v7 M-2.5,-0.5L0,-3.0L2.5,-0.5"/>
  </g>
  <g id="arrowRight" transform="rotate(90) translate(36 -43)">
    <use xlink:href="#rim"/>
    <path pointer-events="none" fill="none" stroke="white" stroke-width="1.5" d="M0,-3.0v7 M-2.5,-0.5L0,-3.0L2.5,-0.5"/>
  </g>
  <g id="arrowDown" transform="rotate(180) translate(-30 -48)">
    <use xlink:href="#rim"/>
    <path pointer-events="none" fill="none" stroke="white" stroke-width="1.5" d="M0,-3.0v7 M-2.5,-0.5L0,-3.0L2.5,-0.5"/>
  </g>
  <g id="arrowLeft" transform="rotate(270) translate(-36 17)">
    <use xlink:href="#rim"/>
    <path pointer-events="none" fill="none" stroke="white" stroke-width="1.5" d="M0,-3.0v7 M-2.5,-0.5L0,-3.0L2.5,-0.5"/>
  </g>
  <g id="resetDef">
    <use xlink:href="#rim2" fill="#404040"><set attributeName="fill" to="#808080" begin="reset.mouseover" end="reset.mouseout"/></use>
  </g>
</defs>
<script type="application/ecmascript">
var viewWidth = 711;
var viewHeight = 307;
var sectionId = 'dynsection-11';
</script>
<script type="application/ecmascript" xlink:href="svg.min.js"/>
<svg id="graph" class="graph">
<g id="viewport">
<title>Controller::updateScreen</title>
<!-- Node1 -->
<g id="Node000001" class="node">
<title>Node1</title>
<g id="a_Node000001"><a xlink:title="Method to implement updating a screen.">
<polygon fill="#999999" stroke="#666666" points="137,-185 0,-185 0,-166 137,-166 137,-185"/>
<text text-anchor="middle" x="68.5" y="-173" font-family="Helvetica,sans-Serif" font-size="10.00">Controller::updateScreen</text>
</a>
</g>
</g>
<!-- Node2 -->
<g id="Node000002" class="node">
<title>Node2</title>
<g id="a_Node000002"><a xlink:href="classScreenManager.html#a760f0b958985e3c29f5a3efc81367f89" target="_top" xlink:title="Update a Screen, adds a new one if it doesn&#39;t exist.">
<polygon fill="white" stroke="#666666" points="338,-241 173,-241 173,-222 338,-222 338,-241"/>
<text text-anchor="middle" x="255.5" y="-229" font-family="Helvetica,sans-Serif" font-size="10.00">ScreenManager::updateScreen</text>
</a>
</g>
</g>
<!-- Node1&#45;&gt;Node2 -->
<g id="edge1_Node000001_Node000002" class="edge">
<title>Node1&#45;&gt;Node2</title>
<g id="a_edge1_Node000001_Node000002"><a xlink:title=" ">
<path fill="none" stroke="#63b8ff" d="M101.3,-185.13C132.33,-194.52 179.68,-208.85 213.51,-219.09"/>
<polygon fill="#63b8ff" stroke="#63b8ff" points="212.53,-222.45 223.11,-222 214.56,-215.75 212.53,-222.45"/>
</a>
</g>
</g>
<!-- Node7 -->
<g id="Node000007" class="node">
<title>Node7</title>
<g id="a_Node000007"><a xlink:href="classScreen.html#a0a9a3a713a63ef55e854841d07630556" target="_top" xlink:title="Update the specified ScreenRow, or create it if it doesn&#39;t exist This will automatically maintain the...">
<polygon fill="white" stroke="#666666" points="327,-130 184,-130 184,-111 327,-111 327,-130"/>
<text text-anchor="middle" x="255.5" y="-118" font-family="Helvetica,sans-Serif" font-size="10.00">Screen::updateScreenRow</text>
</a>
</g>
</g>
<!-- Node1&#45;&gt;Node7 -->
<g id="edge7_Node000001_Node000007" class="edge">
<title>Node1&#45;&gt;Node7</title>
<g id="a_edge7_Node000001_Node000007"><a xlink:title=" ">
<path fill="none" stroke="#63b8ff" d="M101.72,-165.92C132.4,-156.8 178.75,-143.02 212.35,-133.03"/>
<polygon fill="#63b8ff" stroke="#63b8ff" points="213.75,-136.27 222.33,-130.06 211.75,-129.56 213.75,-136.27"/>
</a>
</g>
</g>
<!-- Node3 -->
<g id="Node000003" class="node">
<title>Node3</title>
<g id="a_Node000003"><a xlink:href="classScreen.html#af743df653d024c7571e596772009216d" target="_top" xlink:title="Get the next Screen instance in the list.">
<polygon fill="white" stroke="#666666" points="688.5,-297 593.5,-297 593.5,-278 688.5,-278 688.5,-297"/>
<text text-anchor="middle" x="641" y="-285" font-family="Helvetica,sans-Serif" font-size="10.00">Screen::getNext</text>
</a>
</g>
</g>
<!-- Node2&#45;&gt;Node3 -->
<g id="edge2_Node000002_Node000003" class="edge">
<title>Node2&#45;&gt;Node3</title>
<g id="a_edge2_Node000002_Node000003"><a xlink:title=" ">
<path fill="none" stroke="#63b8ff" d="M270.93,-241C292.35,-254.49 334.33,-278.53 374,-287.5 444.67,-303.48 528.62,-299.87 583.04,-294.69"/>
<polygon fill="#63b8ff" stroke="#63b8ff" points="583.58,-298.15 593.18,-293.67 582.88,-291.18 583.58,-298.15"/>
</a>
</g>
</g>
<!-- Node4 -->
<g id="Node000004" class="node">
<title>Node4</title>
<g id="a_Node000004"><a xlink:href="classScreenManager.html#a0cc1c81b131b3441fd808299c63b409b" target="_top" xlink:title="Get the Screen with the specified ID.">
<polygon fill="white" stroke="#666666" points="543,-278 374,-278 374,-259 543,-259 543,-278"/>
<text text-anchor="middle" x="458.5" y="-266" font-family="Helvetica,sans-Serif" font-size="10.00">ScreenManager::getScreenById</text>
</a>
</g>
</g>
<!-- Node2&#45;&gt;Node4 -->
<g id="edge3_Node000002_Node000004" class="edge">
<title>Node2&#45;&gt;Node4</title>
<g id="a_edge3_Node000002_Node000004"><a xlink:title=" ">
<path fill="none" stroke="#63b8ff" d="M308.26,-241.03C334.89,-245.93 367.53,-251.94 395.49,-257.09"/>
<polygon fill="#63b8ff" stroke="#63b8ff" points="395.1,-260.57 405.56,-258.94 396.36,-253.69 395.1,-260.57"/>
</a>
</g>
</g>
<!-- Node5 -->
<g id="Node000005" class="node">
<title>Node5</title>
<g id="a_Node000005"><a xlink:href="classScreen.html#a3f87fd3cb0de678a506d26c44c79df5f" target="_top" xlink:title="Set the Logger instance.">
<polygon fill="white" stroke="#666666" points="510.5,-241 406.5,-241 406.5,-222 510.5,-222 510.5,-241"/>
<text text-anchor="middle" x="458.5" y="-229" font-family="Helvetica,sans-Serif" font-size="10.00">Screen::setLogger</text>
</a>
</g>
</g>
<!-- Node2&#45;&gt;Node5 -->
<g id="edge5_Node000002_Node000005" class="edge">
<title>Node2&#45;&gt;Node5</title>
<g id="a_edge5_Node000002_Node000005"><a xlink:title=" ">
<path fill="none" stroke="#63b8ff" d="M338.25,-231.5C357.61,-231.5 377.92,-231.5 396.18,-231.5"/>
<polygon fill="#63b8ff" stroke="#63b8ff" points="396.39,-235 406.39,-231.5 396.39,-228 396.39,-235"/>
</a>
</g>
</g>
<!-- Node6 -->
<g id="Node000006" class="node">
<title>Node6</title>
<g id="a_Node000006"><a xlink:href="classScreen.html#a73bbfda08cbc10369ba075e765c8b18a" target="_top" xlink:title="Set the next Screen instance in the list.">
<polygon fill="white" stroke="#666666" points="505.5,-204 411.5,-204 411.5,-185 505.5,-185 505.5,-204"/>
<text text-anchor="middle" x="458.5" y="-192" font-family="Helvetica,sans-Serif" font-size="10.00">Screen::setNext</text>
</a>
</g>
</g>
<!-- Node2&#45;&gt;Node6 -->
<g id="edge6_Node000002_Node000006" class="edge">
<title>Node2&#45;&gt;Node6</title>
<g id="a_edge6_Node000002_Node000006"><a xlink:title=" ">
<path fill="none" stroke="#63b8ff" d="M308.26,-221.97C336.77,-216.72 372.19,-210.2 401.36,-204.83"/>
<polygon fill="#63b8ff" stroke="#63b8ff" points="402.2,-208.24 411.4,-202.99 400.93,-201.35 402.2,-208.24"/>
</a>
</g>
</g>
<!-- Node4&#45;&gt;Node3 -->
<g id="edge4_Node000004_Node000003" class="edge">
<title>Node4&#45;&gt;Node3</title>
<g id="a_edge4_Node000004_Node000003"><a xlink:title=" ">
<path fill="none" stroke="#63b8ff" d="M543.15,-277.3C556.68,-278.73 570.41,-280.18 583.12,-281.51"/>
<polygon fill="#63b8ff" stroke="#63b8ff" points="582.75,-284.99 593.07,-282.56 583.49,-278.03 582.75,-284.99"/>
</a>
</g>
</g>
<!-- Node8 -->
<g id="Node000008" class="node">
<title>Node8</title>
<g id="a_Node000008"><a xlink:href="classScreen.html#a1a1f735d2c573b460813e1ba0667b649" target="_top" xlink:title="Add a new ScreenRow to the list.">
<polygon fill="white" stroke="#666666" points="525,-93 392,-93 392,-74 525,-74 525,-93"/>
<text text-anchor="middle" x="458.5" y="-81" font-family="Helvetica,sans-Serif" font-size="10.00">Screen::_addScreenRow</text>
</a>
</g>
</g>
<!-- Node7&#45;&gt;Node8 -->
<g id="edge8_Node000007_Node000008" class="edge">
<title>Node7&#45;&gt;Node8</title>
<g id="a_edge8_Node000007_Node000008"><a xlink:title=" ">
<path fill="none" stroke="#63b8ff" d="M308.26,-110.97C334.89,-106.07 367.53,-100.06 395.49,-94.91"/>
<polygon fill="#63b8ff" stroke="#63b8ff" points="396.36,-98.31 405.56,-93.06 395.1,-91.43 396.36,-98.31"/>
</a>
</g>
</g>
<!-- Node12 -->
<g id="Node000012" class="node">
<title>Node12</title>
<g id="a_Node000012"><a xlink:href="classScreenRow.html#a0d6afc0a69cc0abc42e1dd362e3e0832" target="_top" xlink:title="Set the text associated with this ScreenRow.">
<polygon fill="white" stroke="#666666" points="696.5,-19 585.5,-19 585.5,0 696.5,0 696.5,-19"/>
<text text-anchor="middle" x="641" y="-7" font-family="Helvetica,sans-Serif" font-size="10.00">ScreenRow::setText</text>
</a>
</g>
</g>
<!-- Node7&#45;&gt;Node12 -->
<g id="edge19_Node000007_Node000012" class="edge">
<title>Node7&#45;&gt;Node12</title>
<g id="a_edge19_Node000007_Node000012"><a xlink:title=" ">
<path fill="none" stroke="#63b8ff" d="M273.47,-110.8C295.84,-98.4 336.73,-77.03 374,-64.5 441.12,-41.94 521.01,-26.92 575.61,-18.36"/>
<polygon fill="#63b8ff" stroke="#63b8ff" points="576.15,-21.82 585.5,-16.84 575.08,-14.9 576.15,-21.82"/>
</a>
</g>
</g>
<!-- Node13 -->
<g id="Node000013" class="node">
<title>Node13</title>
<g id="a_Node000013"><a xlink:href="classScreen.html#a43263117dfffa210ccd83b6cd12e0732" target="_top" xlink:title="Delete the specified ScreenRow and update the list accordingly.">
<polygon fill="white" stroke="#666666" points="531.5,-130 385.5,-130 385.5,-111 531.5,-111 531.5,-130"/>
<text text-anchor="middle" x="458.5" y="-118" font-family="Helvetica,sans-Serif" font-size="10.00">Screen::_deleteScreenRow</text>
</a>
</g>
</g>
<!-- Node7&#45;&gt;Node13 -->
<g id="edge13_Node000007_Node000013" class="edge">
<title>Node7&#45;&gt;Node13</title>
<g id="a_edge13_Node000007_Node000013"><a xlink:title=" ">
<path fill="none" stroke="#63b8ff" d="M327.08,-120.5C342.58,-120.5 359.12,-120.5 375.04,-120.5"/>
<polygon fill="#63b8ff" stroke="#63b8ff" points="375.39,-124 385.39,-120.5 375.39,-117 375.39,-124"/>
</a>
</g>
</g>
<!-- Node15 -->
<g id="Node000015" class="node">
<title>Node15</title>
<g id="a_Node000015"><a xlink:href="classScreen.html#a1545b68b9bd38176d171d769f3f3c7f3" target="_top" xlink:title="Get the ScreenRow instance at the specified ID.">
<polygon fill="white" stroke="#666666" points="532,-167 385,-167 385,-148 532,-148 532,-167"/>
<text text-anchor="middle" x="458.5" y="-155" font-family="Helvetica,sans-Serif" font-size="10.00">Screen::getScreenRowById</text>
</a>
</g>
</g>
<!-- Node7&#45;&gt;Node15 -->
<g id="edge17_Node000007_Node000015" class="edge">
<title>Node7&#45;&gt;Node15</title>
<g id="a_edge17_Node000007_Node000015"><a xlink:title=" ">
<path fill="none" stroke="#63b8ff" d="M308.26,-130.03C334.89,-134.93 367.53,-140.94 395.49,-146.09"/>
<polygon fill="#63b8ff" stroke="#63b8ff" points="395.1,-149.57 405.56,-147.94 396.36,-142.69 395.1,-149.57"/>
</a>
</g>
</g>
<!-- Node9 -->
<g id="Node000009" class="node">
<title>Node9</title>
<g id="a_Node000009"><a xlink:href="classScreenRow.html#aa8df6843233ea45caf26773d140ce4b8" target="_top" xlink:title="Get the next ScreenRow instance in the list.">
<polygon fill="white" stroke="#666666" points="698.5,-167 583.5,-167 583.5,-148 698.5,-148 698.5,-167"/>
<text text-anchor="middle" x="641" y="-155" font-family="Helvetica,sans-Serif" font-size="10.00">ScreenRow::getNext</text>
</a>
</g>
</g>
<!-- Node8&#45;&gt;Node9 -->
<g id="edge9_Node000008_Node000009" class="edge">
<title>Node8&#45;&gt;Node9</title>
<g id="a_edge9_Node000008_Node000009"><a xlink:title=" ">
<path fill="none" stroke="#63b8ff" d="M523.44,-93.07C530.27,-95.31 536.93,-98.08 543,-101.5 563.28,-112.91 559.16,-127.35 579,-139.5 581.78,-141.2 584.72,-142.75 587.77,-144.16"/>
<polygon fill="#63b8ff" stroke="#63b8ff" points="586.51,-147.43 597.1,-147.97 589.16,-140.95 586.51,-147.43"/>
</a>
</g>
</g>
<!-- Node10 -->
<g id="Node000010" class="node">
<title>Node10</title>
<g id="a_Node000010"><a xlink:href="classScreenRow.html#a51f874b0a3ca8fce7152755cdc849d01" target="_top" xlink:title="Set the Logger instance.">
<polygon fill="white" stroke="#666666" points="703,-56 579,-56 579,-37 703,-37 703,-56"/>
<text text-anchor="middle" x="641" y="-44" font-family="Helvetica,sans-Serif" font-size="10.00">ScreenRow::setLogger</text>
</a>
</g>
</g>
<!-- Node8&#45;&gt;Node10 -->
<g id="edge10_Node000008_Node000010" class="edge">
<title>Node8&#45;&gt;Node10</title>
<g id="a_edge10_Node000008_Node000010"><a xlink:title=" ">
<path fill="none" stroke="#63b8ff" d="M505.98,-73.97C529.58,-69.14 558.44,-63.22 583.32,-58.12"/>
<polygon fill="#63b8ff" stroke="#63b8ff" points="584.27,-61.5 593.36,-56.06 582.86,-54.64 584.27,-61.5"/>
</a>
</g>
</g>
<!-- Node11 -->
<g id="Node000011" class="node">
<title>Node11</title>
<g id="a_Node000011"><a xlink:href="classScreenRow.html#a11c13ad781e5bfe79ebd74462d6cedc0" target="_top" xlink:title="Set the next ScreenRow instance in the list.">
<polygon fill="white" stroke="#666666" points="698,-93 584,-93 584,-74 698,-74 698,-93"/>
<text text-anchor="middle" x="641" y="-81" font-family="Helvetica,sans-Serif" font-size="10.00">ScreenRow::setNext</text>
</a>
</g>
</g>
<!-- Node8&#45;&gt;Node11 -->
<g id="edge11_Node000008_Node000011" class="edge">
<title>Node8&#45;&gt;Node11</title>
<g id="a_edge11_Node000008_Node000011"><a xlink:title=" ">
<path fill="none" stroke="#63b8ff" d="M525.18,-83.5C540.97,-83.5 557.85,-83.5 573.67,-83.5"/>
<polygon fill="#63b8ff" stroke="#63b8ff" points="573.89,-87 583.89,-83.5 573.89,-80 573.89,-87"/>
</a>
</g>
</g>
<!-- Node8&#45;&gt;Node12 -->
<g id="edge12_Node000008_Node000012" class="edge">
<title>Node8&#45;&gt;Node12</title>
<g id="a_edge12_Node000008_Node000012"><a xlink:title=" ">
<path fill="none" stroke="#63b8ff" d="M477.75,-73.88C500.88,-61.95 542.15,-41.48 579,-27.5 583.91,-25.64 589.09,-23.85 594.29,-22.17"/>
<polygon fill="#63b8ff" stroke="#63b8ff" points="595.71,-25.39 604.22,-19.07 593.63,-18.71 595.71,-25.39"/>
</a>
</g>
</g>
<!-- Node13&#45;&gt;Node9 -->
<g id="edge15_Node000013_Node000009" class="edge">
<title>Node13&#45;&gt;Node9</title>
<g id="a_edge15_Node000013_Node000009"><a xlink:title=" ">
<path fill="none" stroke="#63b8ff" d="M505.98,-130.03C529.58,-134.86 558.44,-140.78 583.32,-145.88"/>
<polygon fill="#63b8ff" stroke="#63b8ff" points="582.86,-149.36 593.36,-147.94 584.27,-142.5 582.86,-149.36"/>
</a>
</g>
</g>
<!-- Node13&#45;&gt;Node11 -->
<g id="edge16_Node000013_Node000011" class="edge">
<title>Node13&#45;&gt;Node11</title>
<g id="a_edge16_Node000013_Node000011"><a xlink:title=" ">
<path fill="none" stroke="#63b8ff" d="M505.98,-110.97C529.58,-106.14 558.44,-100.22 583.32,-95.12"/>
<polygon fill="#63b8ff" stroke="#63b8ff" points="584.27,-98.5 593.36,-93.06 582.86,-91.64 584.27,-98.5"/>
</a>
</g>
</g>
<!-- Node14 -->
<g id="Node000014" class="node">
<title>Node14</title>
<g id="a_Node000014"><a xlink:href="classScreenRow.html#a4c72ef81c0dde9c008c946625fdce36b" target="_top" xlink:title="Get the ID of this ScreenRow.">
<polygon fill="white" stroke="#666666" points="691.5,-130 590.5,-130 590.5,-111 691.5,-111 691.5,-130"/>
<text text-anchor="middle" x="641" y="-118" font-family="Helvetica,sans-Serif" font-size="10.00">ScreenRow::getId</text>
</a>
</g>
</g>
<!-- Node13&#45;&gt;Node14 -->
<g id="edge14_Node000013_Node000014" class="edge">
<title>Node13&#45;&gt;Node14</title>
<g id="a_edge14_Node000013_Node000014"><a xlink:title=" ">
<path fill="none" stroke="#63b8ff" d="M531.62,-120.5C547.81,-120.5 564.81,-120.5 580.42,-120.5"/>
<polygon fill="#63b8ff" stroke="#63b8ff" points="580.46,-124 590.46,-120.5 580.46,-117 580.46,-124"/>
</a>
</g>
</g>
<!-- Node15&#45;&gt;Node9 -->
<g id="edge18_Node000015_Node000009" class="edge">
<title>Node15&#45;&gt;Node9</title>
<g id="a_edge18_Node000015_Node000009"><a xlink:title=" ">
<path fill="none" stroke="#63b8ff" d="M532.14,-157.5C545.72,-157.5 559.86,-157.5 573.25,-157.5"/>
<polygon fill="#63b8ff" stroke="#63b8ff" points="573.33,-161 583.33,-157.5 573.33,-154 573.33,-161"/>
</a>
</g>
</g>
</g>
</svg>

<g id="navigator" transform="translate(0 0)" fill="#404254">
  <rect fill="#f2f5e9" fill-opacity="0.5" stroke="#606060" stroke-width=".5" x="0" y="0" width="60" height="60"/>
  <use id="zoomplus" xlink:href="#zoomPlus" x="17" y="9" onmousedown="handleZoom(evt,'in')"/>
  <use id="zoomminus" xlink:href="#zoomMin" x="42" y="9" onmousedown="handleZoom(evt,'out')"/>
  <use id="reset" xlink:href="#resetDef" x="30" y="36" onmousedown="handleReset()"/>
   <use id="arrowup" xlink:href="#arrowUp" x="0" y="0" onmousedown="handlePan(0,-1)"/>
  <use id="arrowright" xlink:href="#arrowRight" x="0" y="0" onmousedown="handlePan(1,0)"/>
  <use id="arrowdown" xlink:href="#arrowDown" x="0" y="0" onmousedown="handlePan(0,1)"/>
  <use id="arrowleft" xlink:href="#arrowLeft" x="0" y="0" onmousedown="handlePan(-1,0)"/>
</g>
<svg viewBox="0 0 15 15" width="100%" height="30px" preserveAspectRatio="xMaxYMin meet">
 <g id="arrow_out" transform="scale(0.3 0.3)">
  <a xlink:href="classController_a908f5f6c24239286e29d4761da509963_cgraph_org.svg" target="_base">
   <rect id="button" ry="5" rx="5" y="6" x="6" height="38" width="38"
        fill="#f2f5e9" fill-opacity="0.5" stroke="#606060" stroke-width="1.0"/>
   <path id="arrow"
     d="M 11.500037,31.436501 C 11.940474,20.09759 22.043105,11.32322 32.158766,21.979434 L 37.068811,17.246167 C 37.068811,17.246167 37.088388,32 37.088388,32 L 22.160133,31.978069 C 22.160133,31.978069 26.997745,27.140456 26.997745,27.140456 C 18.528582,18.264221 13.291696,25.230495 11.500037,31.436501 z"
     style="fill:#404040;"/>
  </a>
 </g>
</svg>

<style type='text/css'>
<![CDATA[
[data-mouse-over-selected='false'] { opacity: 0.7; }
[data-mouse-over-selected='true']  { opacity: 1.0; }
]]>
</style>
<script type="application/ecmascript"><![CDATA[
document.addEventListener('DOMContentLoaded', (event) => {
  highlightEdges();
  highlightAdjacentNodes();
});
]]></script>
</svg>
