<?xml version="1.0" encoding="UTF-8" standalone="no"?>
<!DOCTYPE svg PUBLIC "-//W3C//DTD SVG 1.1//EN"
 "http://www.w3.org/Graphics/SVG/1.1/DTD/svg11.dtd">
<!-- Generated by graphviz version 2.43.0 (0)
 -->
<!-- Title: Screen::getFirstScreenRow Pages: 1 -->
<svg width="382pt" height="85pt"
 viewBox="0.00 0.00 382.00 85.00" xmlns="http://www.w3.org/2000/svg" xmlns:xlink="http://www.w3.org/1999/xlink">
<g id="graph0" class="graph" transform="scale(1 1) rotate(0) translate(4 81)">
<title>Screen::getFirstScreenRow</title>
<polygon fill="white" stroke="transparent" points="-4,4 -4,-81 378,-81 378,4 -4,4"/>
<!-- Node1 -->
<g id="node1" class="node">
<title>Node1</title>
<g id="a_node1"><a xlink:title="Get the first ScreenRow instance in the list.">
<polygon fill="#bfbfbf" stroke="black" points="228,-38.5 228,-57.5 374,-57.5 374,-38.5 228,-38.5"/>
<text text-anchor="middle" x="301" y="-45.5" font-family="Helvetica,sans-Serif" font-size="10.00">Screen::getFirstScreenRow</text>
</a>
</g>
</g>
<!-- Node2 -->
<g id="node2" class="node">
<title>Node2</title>
<g id="a_node2"><a xlink:href="test__ControllerScreenCreation_8cpp.html#a9b3c4848f918df987352646ef615b8bb" target="_top" xlink:title="Validates that the Controller&#45;&gt;updateScreen() method creates a screen and updates rows correctly.">
<polygon fill="white" stroke="black" points="114,-57.5 114,-76.5 166,-76.5 166,-57.5 114,-57.5"/>
<text text-anchor="middle" x="140" y="-64.5" font-family="Helvetica,sans-Serif" font-size="10.00">TEST_F</text>
</a>
</g>
</g>
<!-- Node1&#45;&gt;Node2 -->
<g id="edge1" class="edge">
<title>Node1&#45;&gt;Node2</title>
<path fill="none" stroke="midnightblue" d="M217.77,-57.83C198.91,-60.08 180.24,-62.31 166.04,-64.01"/>
<polygon fill="midnightblue" stroke="midnightblue" points="218.43,-61.27 227.94,-56.61 217.6,-54.32 218.43,-61.27"/>
</g>
<!-- Node3 -->
<g id="node3" class="node">
<title>Node3</title>
<g id="a_node3"><a xlink:href="classController.html#a7d04c17913f04f99429aa29fa8505484" target="_top" xlink:title="Processes all ongoing activities, monitoring streams, receiving user input, updates displays,...">
<polygon fill="white" stroke="black" points="88,-19.5 88,-38.5 192,-38.5 192,-19.5 88,-19.5"/>
<text text-anchor="middle" x="140" y="-26.5" font-family="Helvetica,sans-Serif" font-size="10.00">Controller::update</text>
</a>
</g>
</g>
<!-- Node1&#45;&gt;Node3 -->
<g id="edge2" class="edge">
<title>Node1&#45;&gt;Node3</title>
<path fill="none" stroke="midnightblue" d="M217.79,-38.18C209.14,-37.14 200.53,-36.11 192.38,-35.14"/>
<polygon fill="midnightblue" stroke="midnightblue" points="217.6,-41.68 227.94,-39.39 218.43,-34.73 217.6,-41.68"/>
</g>
<!-- Node4 -->
<g id="node4" class="node">
<title>Node4</title>
<g id="a_node4"><a xlink:href="EX-Display_8ino.html#afe461d27b9c48d5921c00d521181f12f" target="_top" xlink:title="Main loop, simply calls controller&#45;&gt;update() to manage all interactions.">
<polygon fill="white" stroke="black" points="7,-38.5 7,-57.5 45,-57.5 45,-38.5 7,-38.5"/>
<text text-anchor="middle" x="26" y="-45.5" font-family="Helvetica,sans-Serif" font-size="10.00">loop</text>
</a>
</g>
</g>
<!-- Node3&#45;&gt;Node4 -->
<g id="edge3" class="edge">
<title>Node3&#45;&gt;Node4</title>
<path fill="none" stroke="midnightblue" d="M77.82,-39.38C65.84,-41.41 54.17,-43.39 45.05,-44.94"/>
<polygon fill="midnightblue" stroke="midnightblue" points="78.64,-42.79 87.92,-37.67 77.47,-35.89 78.64,-42.79"/>
</g>
<!-- Node5 -->
<g id="node5" class="node">
<title>Node5</title>
<g id="a_node5"><a xlink:href="test__Controller_8cpp.html#abb9ca06c0e9bafef1a891dd9d22bd84d" target="_top" xlink:title="Ensure update() method correctly calls the mock callback.">
<polygon fill="white" stroke="black" points="0,-0.5 0,-19.5 52,-19.5 52,-0.5 0,-0.5"/>
<text text-anchor="middle" x="26" y="-7.5" font-family="Helvetica,sans-Serif" font-size="10.00">TEST_F</text>
</a>
</g>
</g>
<!-- Node3&#45;&gt;Node5 -->
<g id="edge4" class="edge">
<title>Node3&#45;&gt;Node5</title>
<path fill="none" stroke="midnightblue" d="M77.96,-18.65C68.81,-17.09 59.84,-15.57 52.04,-14.25"/>
<polygon fill="midnightblue" stroke="midnightblue" points="77.47,-22.11 87.92,-20.33 78.64,-15.21 77.47,-22.11"/>
</g>
</g>
</svg>
