<?xml version="1.0" encoding="UTF-8" standalone="no"?>
<!DOCTYPE svg PUBLIC "-//W3C//DTD SVG 1.1//EN"
 "http://www.w3.org/Graphics/SVG/1.1/DTD/svg11.dtd">
<!-- Generated by graphviz version 2.43.0 (0)
 -->
<!-- Title: Screen::getFirstScreenRow Pages: 1 -->
<svg width="327pt" height="78pt"
 viewBox="0.00 0.00 327.00 77.50" xmlns="http://www.w3.org/2000/svg" xmlns:xlink="http://www.w3.org/1999/xlink">
<g id="graph0" class="graph" transform="scale(1 1) rotate(0) translate(4 73.5)">
<title>Screen::getFirstScreenRow</title>
<polygon fill="white" stroke="transparent" points="-4,4 -4,-73.5 323,-73.5 323,4 -4,4"/>
<!-- Node1 -->
<g id="node1" class="node">
<title>Node1</title>
<g id="a_node1"><a xlink:title="Get the first ScreenRow instance in the list.">
<polygon fill="#bfbfbf" stroke="black" points="173,-22.5 173,-41.5 319,-41.5 319,-22.5 173,-22.5"/>
<text text-anchor="middle" x="246" y="-29.5" font-family="Helvetica,sans-Serif" font-size="10.00">Screen::getFirstScreenRow</text>
</a>
</g>
</g>
<!-- Node2 -->
<g id="node2" class="node">
<title>Node2</title>
<g id="a_node2"><a xlink:href="classTFT__eSPIDisplay.html#ac4c657d18bcd4dae193f5fd906411dcf" target="_top" xlink:title="Display the specified Screen on this display.">
<polygon fill="white" stroke="black" points="0,-39 0,-69 137,-69 137,-39 0,-39"/>
<text text-anchor="start" x="8" y="-57" font-family="Helvetica,sans-Serif" font-size="10.00">TFT_eSPIDisplay::display</text>
<text text-anchor="middle" x="68.5" y="-46" font-family="Helvetica,sans-Serif" font-size="10.00">Screen</text>
</a>
</g>
</g>
<!-- Node1&#45;&gt;Node2 -->
<g id="edge1" class="edge">
<title>Node1&#45;&gt;Node2</title>
<path fill="none" stroke="midnightblue" d="M162.81,-42.3C154.21,-43.38 145.54,-44.47 137.13,-45.52"/>
<polygon fill="midnightblue" stroke="midnightblue" points="163.37,-45.76 172.86,-41.04 162.5,-38.81 163.37,-45.76"/>
</g>
<!-- Node3 -->
<g id="node3" class="node">
<title>Node3</title>
<g id="a_node3"><a xlink:href="test__ControllerScreenCreation_8cpp.html#a9b3c4848f918df987352646ef615b8bb" target="_top" xlink:title="Validates that the Controller&#45;&gt;updateScreen() method creates a screen and updates rows correctly.">
<polygon fill="white" stroke="black" points="42.5,-0.5 42.5,-19.5 94.5,-19.5 94.5,-0.5 42.5,-0.5"/>
<text text-anchor="middle" x="68.5" y="-7.5" font-family="Helvetica,sans-Serif" font-size="10.00">TEST_F</text>
</a>
</g>
</g>
<!-- Node1&#45;&gt;Node3 -->
<g id="edge2" class="edge">
<title>Node1&#45;&gt;Node3</title>
<path fill="none" stroke="midnightblue" d="M162.69,-21.68C137.95,-18.58 112.63,-15.41 94.64,-13.15"/>
<polygon fill="midnightblue" stroke="midnightblue" points="162.5,-25.19 172.86,-22.96 163.37,-18.24 162.5,-25.19"/>
</g>
</g>
</svg>
