<?xml version="1.0" encoding="UTF-8" standalone="no"?>
<!DOCTYPE svg PUBLIC "-//W3C//DTD SVG 1.1//EN"
 "http://www.w3.org/Graphics/SVG/1.1/DTD/svg11.dtd">
<!-- Generated by graphviz version 2.43.0 (0)
 -->
<!-- Title: Configurator::initialise Pages: 1 -->
<!--zoomable 382 -->
<svg id="main" version="1.1" xmlns="http://www.w3.org/2000/svg" xmlns:xlink="http://www.w3.org/1999/xlink" xml:space="preserve" onload="init(evt)">
<style type="text/css"><![CDATA[
.edge:hover path { stroke: red; }
.edge:hover polygon { stroke: red; fill: red; }
]]></style>
<script type="text/javascript"><![CDATA[
var edges = document.getElementsByTagName('g');
if (edges && edges.length) {
  for (var i=0;i<edges.length;i++) {
    if (edges[i].id.substr(0,4)=='edge') {
      edges[i].setAttribute('class','edge');
    }
  }
}
]]></script>
        <defs>
                <circle id="rim" cx="0" cy="0" r="7"/>
                <circle id="rim2" cx="0" cy="0" r="3.5"/>
                <g id="zoomPlus">
                        <use xlink:href="#rim" fill="#404040">
                                <set attributeName="fill" to="#808080" begin="zoomplus.mouseover" end="zoomplus.mouseout"/>
                        </use>
                        <path d="M-4,0h8M0,-4v8" fill="none" stroke="white" stroke-width="1.5" pointer-events="none"/>
                </g>
                <g id="zoomMin">
                        <use xlink:href="#rim" fill="#404040">
                                <set attributeName="fill" to="#808080" begin="zoomminus.mouseover" end="zoomminus.mouseout"/>
                        </use>
                        <path d="M-4,0h8" fill="none" stroke="white" stroke-width="1.5" pointer-events="none"/>
                </g>
                <g id="dirArrow">
                        <path fill="none" stroke="white" stroke-width="1.5" d="M0,-3.0v7 M-2.5,-0.5L0,-3.0L2.5,-0.5"/>
                </g>
               <g id="resetDef">
                       <use xlink:href="#rim2" fill="#404040">
                               <set attributeName="fill" to="#808080" begin="reset.mouseover" end="reset.mouseout"/>
                       </use>
               </g>
        </defs>

<script type="text/javascript">
var viewWidth = 768;
var viewHeight = 382;
var sectionId = 'dynsection-10';
</script>
<script xlink:href="svgpan.js"/>
<svg id="graph" class="graph">
<g id="viewport">
<title>Configurator::initialise</title>
<polygon fill="white" stroke="transparent" points="-4,4 -4,-378 764,-378 764,4 -4,4"/>
<!-- Node1 -->
<g id="node1" class="node">
<title>Node1</title>
<g id="a_node1"><a xlink:title="Call all one&#45;shot initialisation or begin methods on startup.">
<polygon fill="#bfbfbf" stroke="black" points="0,-133.5 0,-152.5 125,-152.5 125,-133.5 0,-133.5"/>
<text text-anchor="middle" x="62.5" y="-140.5" font-family="Helvetica,sans-Serif" font-size="10.00">Configurator::initialise</text>
</a>
</g>
</g>
<!-- Node2 -->
<g id="node2" class="node">
<title>Node2</title>
<g id="a_node2"><a xlink:href="classDisplayManager.html#a9ade9b696372a53b8b716d29d7b53c70" target="_top" xlink:title="Parses the displays configured in myConfig.h and creates the list of displays.">
<polygon fill="white" stroke="black" points="161,-253.5 161,-272.5 336,-272.5 336,-253.5 161,-253.5"/>
<text text-anchor="middle" x="248.5" y="-260.5" font-family="Helvetica,sans-Serif" font-size="10.00">DisplayManager::createDisplays</text>
</a>
</g>
</g>
<!-- Node1&#45;&gt;Node2 -->
<g id="edge1" class="edge">
<title>Node1&#45;&gt;Node2</title>
<path fill="none" stroke="midnightblue" d="M74.39,-152.63C91.89,-167.82 127.68,-197.81 161,-219 178.71,-230.26 199.66,-240.98 216.51,-249.02"/>
<polygon fill="midnightblue" stroke="midnightblue" points="215.36,-252.34 225.9,-253.42 218.34,-246.01 215.36,-252.34"/>
</g>
<!-- Node8 -->
<g id="node8" class="node">
<title>Node8</title>
<g id="a_node8"><a xlink:href="classInputManager.html#af956225a4057143bf0704781e036be09" target="_top" xlink:title="Call once to create the InputInterface derived input.">
<polygon fill="white" stroke="black" points="175.5,-190.5 175.5,-209.5 321.5,-209.5 321.5,-190.5 175.5,-190.5"/>
<text text-anchor="middle" x="248.5" y="-197.5" font-family="Helvetica,sans-Serif" font-size="10.00">InputManager::createInput</text>
</a>
</g>
</g>
<!-- Node1&#45;&gt;Node8 -->
<g id="edge7" class="edge">
<title>Node1&#45;&gt;Node8</title>
<path fill="none" stroke="midnightblue" d="M85.23,-152.59C104.77,-160.95 134.4,-172.95 161,-181 169.65,-183.62 178.88,-186.03 187.97,-188.2"/>
<polygon fill="midnightblue" stroke="midnightblue" points="187.22,-191.62 197.76,-190.46 188.8,-184.8 187.22,-191.62"/>
</g>
<!-- Node15 -->
<g id="node14" class="node">
<title>Node15</title>
<g id="a_node14"><a xlink:href="classDisplayManager.html#a0dcf69d16599029ba34bf31c0c666390" target="_top" xlink:title="Get a DisplayInterface derived instance by its ID.">
<polygon fill="white" stroke="black" points="372,-335.5 372,-354.5 548,-354.5 548,-335.5 372,-335.5"/>
<text text-anchor="middle" x="460" y="-342.5" font-family="Helvetica,sans-Serif" font-size="10.00">DisplayManager::getDisplayById</text>
</a>
</g>
</g>
<!-- Node1&#45;&gt;Node15 -->
<g id="edge13" class="edge">
<title>Node1&#45;&gt;Node15</title>
<path fill="none" stroke="midnightblue" d="M67.25,-152.63C77.76,-178.25 110.09,-248.37 161,-282 220.46,-321.27 299.88,-336.65 361.79,-342.42"/>
<polygon fill="midnightblue" stroke="midnightblue" points="361.69,-345.92 371.96,-343.29 362.29,-338.95 361.69,-345.92"/>
</g>
<!-- Node16 -->
<g id="node15" class="node">
<title>Node16</title>
<g id="a_node15"><a xlink:href="classInputManager.html#a2672882f95872798fd07d4d98f82063b" target="_top" xlink:title="Get the configured InputInterface.">
<polygon fill="white" stroke="black" points="183,-152.5 183,-171.5 314,-171.5 314,-152.5 183,-152.5"/>
<text text-anchor="middle" x="248.5" y="-159.5" font-family="Helvetica,sans-Serif" font-size="10.00">InputManager::getInput</text>
</a>
</g>
</g>
<!-- Node1&#45;&gt;Node16 -->
<g id="edge15" class="edge">
<title>Node1&#45;&gt;Node16</title>
<path fill="none" stroke="midnightblue" d="M125.03,-149.35C140.28,-150.93 156.79,-152.63 172.61,-154.27"/>
<polygon fill="midnightblue" stroke="midnightblue" points="172.58,-157.78 182.88,-155.33 173.29,-150.82 172.58,-157.78"/>
</g>
<!-- Node17 -->
<g id="node16" class="node">
<title>Node17</title>
<g id="a_node16"><a xlink:href="classInputInterface.html#a150a075ce0c5a95dc4fd15ccd1933d26" target="_top" xlink:title="Test if this InputInterface requires a display instance &#45; needed for TFT_eSPI as it shares the instan...">
<polygon fill="white" stroke="black" points="170,-114.5 170,-133.5 327,-133.5 327,-114.5 170,-114.5"/>
<text text-anchor="middle" x="248.5" y="-121.5" font-family="Helvetica,sans-Serif" font-size="10.00">InputInterface::needsDisplay</text>
</a>
</g>
</g>
<!-- Node1&#45;&gt;Node17 -->
<g id="edge16" class="edge">
<title>Node1&#45;&gt;Node17</title>
<path fill="none" stroke="midnightblue" d="M125.03,-136.65C136.18,-135.5 148,-134.27 159.73,-133.06"/>
<polygon fill="midnightblue" stroke="midnightblue" points="160.41,-136.51 170,-132 159.69,-129.55 160.41,-136.51"/>
</g>
<!-- Node18 -->
<g id="node17" class="node">
<title>Node18</title>
<g id="a_node17"><a xlink:href="classInputManager.html#a27c7bc043eb9fbb8c7700624852220f6" target="_top" xlink:title="Set the display interface to retrieve required attributes &#45; note this should only be required for TFT...">
<polygon fill="white" stroke="black" points="177.5,-76.5 177.5,-95.5 319.5,-95.5 319.5,-76.5 177.5,-76.5"/>
<text text-anchor="middle" x="248.5" y="-83.5" font-family="Helvetica,sans-Serif" font-size="10.00">InputManager::setDisplay</text>
</a>
</g>
</g>
<!-- Node1&#45;&gt;Node18 -->
<g id="edge17" class="edge">
<title>Node1&#45;&gt;Node18</title>
<path fill="none" stroke="midnightblue" d="M85.23,-133.41C104.77,-125.05 134.4,-113.05 161,-105 169.65,-102.38 178.88,-99.97 187.97,-97.8"/>
<polygon fill="midnightblue" stroke="midnightblue" points="188.8,-101.2 197.76,-95.54 187.22,-94.38 188.8,-101.2"/>
</g>
<!-- Node21 -->
<g id="node20" class="node">
<title>Node21</title>
<g id="a_node20"><a xlink:href="classAtFinder.html#ac50442f56c76cd6bd05da52db7ba8910" target="_top" xlink:title="Set the logger instance to use for diagnostic logging.">
<polygon fill="white" stroke="black" points="193,-38.5 193,-57.5 304,-57.5 304,-38.5 193,-38.5"/>
<text text-anchor="middle" x="248.5" y="-45.5" font-family="Helvetica,sans-Serif" font-size="10.00">AtFinder::setLogger</text>
</a>
</g>
</g>
<!-- Node1&#45;&gt;Node21 -->
<g id="edge21" class="edge">
<title>Node1&#45;&gt;Node21</title>
<path fill="none" stroke="midnightblue" d="M72.75,-133.39C89.02,-117.1 124.48,-84.16 161,-67 167.95,-63.74 175.47,-61.02 183.09,-58.77"/>
<polygon fill="midnightblue" stroke="midnightblue" points="184.01,-62.15 192.75,-56.15 182.18,-55.39 184.01,-62.15"/>
</g>
<!-- Node22 -->
<g id="node21" class="node">
<title>Node22</title>
<g id="a_node21"><a xlink:href="classAtFinder.html#abadf56235ed457d74fff16dfdcd6d693" target="_top" xlink:title="Setup the AtFinder parser.">
<polygon fill="white" stroke="black" points="203.5,-0.5 203.5,-19.5 293.5,-19.5 293.5,-0.5 203.5,-0.5"/>
<text text-anchor="middle" x="248.5" y="-7.5" font-family="Helvetica,sans-Serif" font-size="10.00">AtFinder::setup</text>
</a>
</g>
</g>
<!-- Node1&#45;&gt;Node22 -->
<g id="edge22" class="edge">
<title>Node1&#45;&gt;Node22</title>
<path fill="none" stroke="midnightblue" d="M68.85,-133.2C81.6,-110.84 116.09,-55.9 161,-29 170.79,-23.13 182.18,-19.07 193.42,-16.26"/>
<polygon fill="midnightblue" stroke="midnightblue" points="194.2,-19.67 203.21,-14.1 192.69,-12.84 194.2,-19.67"/>
</g>
<!-- Node3 -->
<g id="node3" class="node">
<title>Node3</title>
<g id="a_node3"><a xlink:href="classDisplayManager.html#a14afc225d393f7224bfa0474338d39f3" target="_top" xlink:title="Add a DisplayInterface derived instance to the list of displays.">
<polygon fill="white" stroke="black" points="381.5,-278.5 381.5,-297.5 538.5,-297.5 538.5,-278.5 381.5,-278.5"/>
<text text-anchor="middle" x="460" y="-285.5" font-family="Helvetica,sans-Serif" font-size="10.00">DisplayManager::addDisplay</text>
</a>
</g>
</g>
<!-- Node2&#45;&gt;Node3 -->
<g id="edge2" class="edge">
<title>Node2&#45;&gt;Node3</title>
<path fill="none" stroke="midnightblue" d="M329.3,-272.52C343.07,-274.17 357.45,-275.88 371.42,-277.55"/>
<polygon fill="midnightblue" stroke="midnightblue" points="371.15,-281.04 381.5,-278.75 371.98,-274.09 371.15,-281.04"/>
</g>
<!-- Node4 -->
<g id="node4" class="node">
<title>Node4</title>
<g id="a_node4"><a xlink:href="classDisplayInterface.html#aa869afa166e1d7f231549e3b93f7bef5" target="_top" xlink:title="Get the next DisplayInterface derived instance in the list.">
<polygon fill="white" stroke="black" points="601,-354.5 601,-373.5 743,-373.5 743,-354.5 601,-354.5"/>
<text text-anchor="middle" x="672" y="-361.5" font-family="Helvetica,sans-Serif" font-size="10.00">DisplayInterface::getNext</text>
</a>
</g>
</g>
<!-- Node3&#45;&gt;Node4 -->
<g id="edge3" class="edge">
<title>Node3&#45;&gt;Node4</title>
<path fill="none" stroke="midnightblue" d="M484.11,-297.54C501.76,-304.97 526.62,-315.7 548,-326 564.3,-333.85 567.01,-338.79 584,-345 591.25,-347.65 598.98,-349.99 606.73,-352.04"/>
<polygon fill="midnightblue" stroke="midnightblue" points="605.97,-355.45 616.52,-354.48 607.66,-348.66 605.97,-355.45"/>
</g>
<!-- Node5 -->
<g id="node5" class="node">
<title>Node5</title>
<g id="a_node5"><a xlink:href="classDisplayInterface.html#aa1d72bdfd3cf533bc3d910dab42b1e4d" target="_top" xlink:title="Set the ID for this display instance.">
<polygon fill="white" stroke="black" points="608.5,-316.5 608.5,-335.5 735.5,-335.5 735.5,-316.5 608.5,-316.5"/>
<text text-anchor="middle" x="672" y="-323.5" font-family="Helvetica,sans-Serif" font-size="10.00">DisplayInterface::setId</text>
</a>
</g>
</g>
<!-- Node3&#45;&gt;Node5 -->
<g id="edge4" class="edge">
<title>Node3&#45;&gt;Node5</title>
<path fill="none" stroke="midnightblue" d="M513.72,-297.54C542.43,-302.73 578.14,-309.2 608.27,-314.65"/>
<polygon fill="midnightblue" stroke="midnightblue" points="607.79,-318.12 618.26,-316.46 609.04,-311.23 607.79,-318.12"/>
</g>
<!-- Node6 -->
<g id="node6" class="node">
<title>Node6</title>
<g id="a_node6"><a xlink:href="classDisplayInterface.html#a4d4c3c663ad0e26cfb00e3a9d6dd687b" target="_top" xlink:title="Set the logger instance to use for diagnostic logging.">
<polygon fill="white" stroke="black" points="596.5,-278.5 596.5,-297.5 747.5,-297.5 747.5,-278.5 596.5,-278.5"/>
<text text-anchor="middle" x="672" y="-285.5" font-family="Helvetica,sans-Serif" font-size="10.00">DisplayInterface::setLogger</text>
</a>
</g>
</g>
<!-- Node3&#45;&gt;Node6 -->
<g id="edge5" class="edge">
<title>Node3&#45;&gt;Node6</title>
<path fill="none" stroke="midnightblue" d="M538.6,-288C554.03,-288 570.31,-288 585.97,-288"/>
<polygon fill="midnightblue" stroke="midnightblue" points="586.16,-291.5 596.16,-288 586.16,-284.5 586.16,-291.5"/>
</g>
<!-- Node7 -->
<g id="node7" class="node">
<title>Node7</title>
<g id="a_node7"><a xlink:href="classDisplayInterface.html#ac8e3fa088bc342b97e6f04be999ea0d3" target="_top" xlink:title="Set the next DisplayInterface derived instance in the list.">
<polygon fill="white" stroke="black" points="601.5,-240.5 601.5,-259.5 742.5,-259.5 742.5,-240.5 601.5,-240.5"/>
<text text-anchor="middle" x="672" y="-247.5" font-family="Helvetica,sans-Serif" font-size="10.00">DisplayInterface::setNext</text>
</a>
</g>
</g>
<!-- Node3&#45;&gt;Node7 -->
<g id="edge6" class="edge">
<title>Node3&#45;&gt;Node7</title>
<path fill="none" stroke="midnightblue" d="M513.72,-278.46C542.43,-273.27 578.14,-266.8 608.27,-261.35"/>
<polygon fill="midnightblue" stroke="midnightblue" points="609.04,-264.77 618.26,-259.54 607.79,-257.88 609.04,-264.77"/>
</g>
<!-- Node9 -->
<g id="node9" class="node">
<title>Node9</title>
<g id="a_node9"><a xlink:href="classInputManager.html#a3579aef6a242289012e5819b4be15e52" target="_top" xlink:title="Set the InputInterface.">
<polygon fill="white" stroke="black" points="393.5,-158.5 393.5,-177.5 526.5,-177.5 526.5,-158.5 393.5,-158.5"/>
<text text-anchor="middle" x="460" y="-165.5" font-family="Helvetica,sans-Serif" font-size="10.00">InputManager::addInput</text>
</a>
</g>
</g>
<!-- Node8&#45;&gt;Node9 -->
<g id="edge8" class="edge">
<title>Node8&#45;&gt;Node9</title>
<path fill="none" stroke="midnightblue" d="M311.79,-190.49C335.32,-186.89 362.3,-182.77 386.68,-179.05"/>
<polygon fill="midnightblue" stroke="midnightblue" points="387.23,-182.5 396.59,-177.53 386.17,-175.58 387.23,-182.5"/>
</g>
<!-- Node10 -->
<g id="node10" class="node">
<title>Node10</title>
<g id="a_node10"><a xlink:href="classInputInterface.html#abae89c99e802186c05e97750e473dac1" target="_top" xlink:title="Set the instance for callbacks when users trigger an input action.">
<polygon fill="white" stroke="black" points="598,-202.5 598,-221.5 746,-221.5 746,-202.5 598,-202.5"/>
<text text-anchor="middle" x="672" y="-209.5" font-family="Helvetica,sans-Serif" font-size="10.00">InputInterface::setCallback</text>
</a>
</g>
</g>
<!-- Node9&#45;&gt;Node10 -->
<g id="edge9" class="edge">
<title>Node9&#45;&gt;Node10</title>
<path fill="none" stroke="midnightblue" d="M506.57,-177.55C538.63,-184.26 581.71,-193.29 615.73,-200.42"/>
<polygon fill="midnightblue" stroke="midnightblue" points="615.02,-203.85 625.52,-202.47 616.45,-196.99 615.02,-203.85"/>
</g>
<!-- Node11 -->
<g id="node11" class="node">
<title>Node11</title>
<g id="a_node11"><a xlink:href="classInputInterface.html#a496b20fc72c9b458bc5b7b29bebfe672" target="_top" xlink:title="Set the debounce delay.">
<polygon fill="white" stroke="red" points="594.5,-153 594.5,-183 749.5,-183 749.5,-153 594.5,-153"/>
<text text-anchor="start" x="602.5" y="-171" font-family="Helvetica,sans-Serif" font-size="10.00">InputInterface::setDebounce</text>
<text text-anchor="middle" x="672" y="-160" font-family="Helvetica,sans-Serif" font-size="10.00">Delay</text>
</a>
</g>
</g>
<!-- Node9&#45;&gt;Node11 -->
<g id="edge10" class="edge">
<title>Node9&#45;&gt;Node11</title>
<path fill="none" stroke="midnightblue" d="M526.58,-168C544.74,-168 564.74,-168 583.91,-168"/>
<polygon fill="midnightblue" stroke="midnightblue" points="584.16,-171.5 594.16,-168 584.16,-164.5 584.16,-171.5"/>
</g>
<!-- Node13 -->
<g id="node12" class="node">
<title>Node13</title>
<g id="a_node12"><a xlink:href="classInputInterface.html#a9880a65f1358aa4f7880cddadf3ff846" target="_top" xlink:title="Set the threshold for detecting an input is held.">
<polygon fill="white" stroke="black" points="584,-114.5 584,-133.5 760,-133.5 760,-114.5 584,-114.5"/>
<text text-anchor="middle" x="672" y="-121.5" font-family="Helvetica,sans-Serif" font-size="10.00">InputInterface::setHoldThreshold</text>
</a>
</g>
</g>
<!-- Node9&#45;&gt;Node13 -->
<g id="edge11" class="edge">
<title>Node9&#45;&gt;Node13</title>
<path fill="none" stroke="midnightblue" d="M506.57,-158.45C538.63,-151.74 581.71,-142.71 615.73,-135.58"/>
<polygon fill="midnightblue" stroke="midnightblue" points="616.45,-139.01 625.52,-133.53 615.02,-132.15 616.45,-139.01"/>
</g>
<!-- Node14 -->
<g id="node13" class="node">
<title>Node14</title>
<g id="a_node13"><a xlink:href="classInputInterface.html#add815941c23f1e6fe831a13738ed626c" target="_top" xlink:title="Set the logger instance to use for diagnostic logging.">
<polygon fill="white" stroke="black" points="602.5,-76.5 602.5,-95.5 741.5,-95.5 741.5,-76.5 602.5,-76.5"/>
<text text-anchor="middle" x="672" y="-83.5" font-family="Helvetica,sans-Serif" font-size="10.00">InputInterface::setLogger</text>
</a>
</g>
</g>
<!-- Node9&#45;&gt;Node14 -->
<g id="edge12" class="edge">
<title>Node9&#45;&gt;Node14</title>
<path fill="none" stroke="midnightblue" d="M476.34,-158.49C499.05,-144.8 543.35,-119.57 584,-105 591.37,-102.36 599.22,-100.02 607.09,-97.97"/>
<polygon fill="midnightblue" stroke="midnightblue" points="608.14,-101.31 617.01,-95.52 606.47,-94.51 608.14,-101.31"/>
</g>
<!-- Node15&#45;&gt;Node4 -->
<g id="edge14" class="edge">
<title>Node15&#45;&gt;Node4</title>
<path fill="none" stroke="midnightblue" d="M548.23,-352.89C562.38,-354.17 576.97,-355.49 590.93,-356.76"/>
<polygon fill="midnightblue" stroke="midnightblue" points="590.7,-360.25 600.98,-357.66 591.33,-353.28 590.7,-360.25"/>
</g>
<!-- Node19 -->
<g id="node18" class="node">
<title>Node19</title>
<g id="a_node18"><a xlink:href="classDisplayInterface.html#a3649a768b8ca59c3070f56aed1fe42c2" target="_top" xlink:title="Get the ID of this display instance.">
<polygon fill="white" stroke="black" points="608,-38.5 608,-57.5 736,-57.5 736,-38.5 608,-38.5"/>
<text text-anchor="middle" x="672" y="-45.5" font-family="Helvetica,sans-Serif" font-size="10.00">DisplayInterface::getId</text>
</a>
</g>
</g>
<!-- Node18&#45;&gt;Node19 -->
<g id="edge18" class="edge">
<title>Node18&#45;&gt;Node19</title>
<path fill="none" stroke="midnightblue" d="M319.61,-83.31C380.2,-80.57 470.05,-75.48 548,-67 567.03,-64.93 587.61,-62.02 606.4,-59.09"/>
<polygon fill="midnightblue" stroke="midnightblue" points="607.01,-62.54 616.34,-57.52 605.91,-55.63 607.01,-62.54"/>
</g>
<!-- Node20 -->
<g id="node19" class="node">
<title>Node20</title>
<g id="a_node19"><a xlink:href="classInputInterface.html#a8835a0d2c51926d4636f239d888a8e71" target="_top" xlink:title="Set the DisplayInterface for this input if required.">
<polygon fill="white" stroke="black" points="388.5,-38.5 388.5,-57.5 531.5,-57.5 531.5,-38.5 388.5,-38.5"/>
<text text-anchor="middle" x="460" y="-45.5" font-family="Helvetica,sans-Serif" font-size="10.00">InputInterface::setDisplay</text>
</a>
</g>
</g>
<!-- Node18&#45;&gt;Node20 -->
<g id="edge19" class="edge">
<title>Node18&#45;&gt;Node20</title>
<path fill="none" stroke="midnightblue" d="M302.1,-76.46C330.74,-71.27 366.36,-64.8 396.42,-59.35"/>
<polygon fill="midnightblue" stroke="midnightblue" points="397.17,-62.77 406.38,-57.54 395.92,-55.88 397.17,-62.77"/>
</g>
<!-- Node20&#45;&gt;Node19 -->
<g id="edge20" class="edge">
<title>Node20&#45;&gt;Node19</title>
<path fill="none" stroke="midnightblue" d="M531.51,-48C552.8,-48 576.23,-48 597.7,-48"/>
<polygon fill="midnightblue" stroke="midnightblue" points="597.73,-51.5 607.73,-48 597.73,-44.5 597.73,-51.5"/>
</g>
</g>
</svg>
        <g id="navigator" transform="translate(0 0)" fill="#404254">
                <rect fill="#f2f5e9" fill-opacity="0.5" stroke="#606060" stroke-width=".5" x="0" y="0" width="60" height="60"/>
                <use id="zoomplus" xlink:href="#zoomPlus" x="17" y="9" onmousedown="handleZoom(evt,'in')"/>
                <use id="zoomminus" xlink:href="#zoomMin" x="42" y="9" onmousedown="handleZoom(evt,'out')"/>
                <use id="reset" xlink:href="#resetDef" x="30" y="36" onmousedown="handleReset()"/>
                <g id="arrowUp" xlink:href="#dirArrow" transform="translate(30 24)" onmousedown="handlePan(0,-1)">
                  <use xlink:href="#rim" fill="#404040">
                        <set attributeName="fill" to="#808080" begin="arrowUp.mouseover" end="arrowUp.mouseout"/>
                  </use>
                  <path fill="none" stroke="white" stroke-width="1.5" d="M0,-3.0v7 M-2.5,-0.5L0,-3.0L2.5,-0.5"/>
                </g>
                <g id="arrowRight" xlink:href="#dirArrow" transform="rotate(90) translate(36 -43)" onmousedown="handlePan(1,0)">
                  <use xlink:href="#rim" fill="#404040">
                        <set attributeName="fill" to="#808080" begin="arrowRight.mouseover" end="arrowRight.mouseout"/>
                  </use>
                  <path fill="none" stroke="white" stroke-width="1.5" d="M0,-3.0v7 M-2.5,-0.5L0,-3.0L2.5,-0.5"/>
                </g>
                <g id="arrowDown" xlink:href="#dirArrow" transform="rotate(180) translate(-30 -48)" onmousedown="handlePan(0,1)">
                  <use xlink:href="#rim" fill="#404040">
                        <set attributeName="fill" to="#808080" begin="arrowDown.mouseover" end="arrowDown.mouseout"/>
                  </use>
                  <path fill="none" stroke="white" stroke-width="1.5" d="M0,-3.0v7 M-2.5,-0.5L0,-3.0L2.5,-0.5"/>
                </g>
                <g id="arrowLeft" xlink:href="#dirArrow" transform="rotate(270) translate(-36 17)" onmousedown="handlePan(-1,0)">
                  <use xlink:href="#rim" fill="#404040">
                        <set attributeName="fill" to="#808080" begin="arrowLeft.mouseover" end="arrowLeft.mouseout"/>
                  </use>
                  <path fill="none" stroke="white" stroke-width="1.5" d="M0,-3.0v7 M-2.5,-0.5L0,-3.0L2.5,-0.5"/>
                </g>
        </g>
        <svg viewBox="0 0 15 15" width="100%" height="30px" preserveAspectRatio="xMaxYMin meet">
         <g id="arrow_out" transform="scale(0.3 0.3)">
          <a xlink:href="classConfigurator_a25ee5e1b0a64d971232d6ecaaadd5d61_cgraph_org.svg" target="_base">
           <rect id="button" ry="5" rx="5" y="6" x="6" height="38" width="38"
                fill="#f2f5e9" fill-opacity="0.5" stroke="#606060" stroke-width="1.0"/>
           <path id="arrow"
             d="M 11.500037,31.436501 C 11.940474,20.09759 22.043105,11.32322 32.158766,21.979434 L 37.068811,17.246167 C 37.068811,17.246167 37.088388,32 37.088388,32 L 22.160133,31.978069 C 22.160133,31.978069 26.997745,27.140456 26.997745,27.140456 C 18.528582,18.264221 13.291696,25.230495 11.500037,31.436501 z"
             style="fill:#404040;"/>
          </a>
         </g>
        </svg>
</svg>
