<?xml version="1.0" encoding="UTF-8" standalone="no"?>
<!DOCTYPE svg PUBLIC "-//W3C//DTD SVG 1.1//EN"
 "http://www.w3.org/Graphics/SVG/1.1/DTD/svg11.dtd">
<!-- Generated by graphviz version 2.43.0 (0)
 -->
<!-- Title: Controller::_selectNextScreen Pages: 1 -->
<!--zoomable 294 -->
<svg id="main" version="1.1" xmlns="http://www.w3.org/2000/svg" xmlns:xlink="http://www.w3.org/1999/xlink" xml:space="preserve" onload="init(evt)">
<style type="text/css"><![CDATA[
.edge:hover path { stroke: red; }
.edge:hover polygon { stroke: red; fill: red; }
]]></style>
<script type="text/javascript"><![CDATA[
var edges = document.getElementsByTagName('g');
if (edges && edges.length) {
  for (var i=0;i<edges.length;i++) {
    if (edges[i].id.substr(0,4)=='edge') {
      edges[i].setAttribute('class','edge');
    }
  }
}
]]></script>
        <defs>
                <circle id="rim" cx="0" cy="0" r="7"/>
                <circle id="rim2" cx="0" cy="0" r="3.5"/>
                <g id="zoomPlus">
                        <use xlink:href="#rim" fill="#404040">
                                <set attributeName="fill" to="#808080" begin="zoomplus.mouseover" end="zoomplus.mouseout"/>
                        </use>
                        <path d="M-4,0h8M0,-4v8" fill="none" stroke="white" stroke-width="1.5" pointer-events="none"/>
                </g>
                <g id="zoomMin">
                        <use xlink:href="#rim" fill="#404040">
                                <set attributeName="fill" to="#808080" begin="zoomminus.mouseover" end="zoomminus.mouseout"/>
                        </use>
                        <path d="M-4,0h8" fill="none" stroke="white" stroke-width="1.5" pointer-events="none"/>
                </g>
                <g id="dirArrow">
                        <path fill="none" stroke="white" stroke-width="1.5" d="M0,-3.0v7 M-2.5,-0.5L0,-3.0L2.5,-0.5"/>
                </g>
               <g id="resetDef">
                       <use xlink:href="#rim2" fill="#404040">
                               <set attributeName="fill" to="#808080" begin="reset.mouseover" end="reset.mouseout"/>
                       </use>
               </g>
        </defs>

<script type="text/javascript">
var viewWidth = 719;
var viewHeight = 294;
var sectionId = 'dynsection-2';
</script>
<script xlink:href="svgpan.js"/>
<svg id="graph" class="graph">
<g id="viewport">
<title>Controller::_selectNextScreen</title>
<polygon fill="white" stroke="transparent" points="-4,4 -4,-290 715,-290 715,4 -4,4"/>
<!-- Node1 -->
<g id="node1" class="node">
<title>Node1</title>
<g id="a_node1"><a xlink:title="Selects the next screen for the selected display.">
<polygon fill="#bfbfbf" stroke="black" points="0,-114.5 0,-133.5 161,-133.5 161,-114.5 0,-114.5"/>
<text text-anchor="middle" x="80.5" y="-121.5" font-family="Helvetica,sans-Serif" font-size="10.00">Controller::_selectNextScreen</text>
</a>
</g>
</g>
<!-- Node2 -->
<g id="node2" class="node">
<title>Node2</title>
<g id="a_node2"><a xlink:href="classScreenManager.html#a110a39ff303b98b6d308518a9d6da8ff" target="_top" xlink:title="Get the first Screen instance in the list.">
<polygon fill="white" stroke="black" points="198,-266.5 198,-285.5 366,-285.5 366,-266.5 198,-266.5"/>
<text text-anchor="middle" x="282" y="-273.5" font-family="Helvetica,sans-Serif" font-size="10.00">ScreenManager::getFirstScreen</text>
</a>
</g>
</g>
<!-- Node1&#45;&gt;Node2 -->
<g id="edge1" class="edge">
<title>Node1&#45;&gt;Node2</title>
<path fill="none" stroke="midnightblue" d="M86.81,-133.54C101.09,-158.25 142.94,-224.66 197,-257 200.68,-259.2 204.59,-261.15 208.63,-262.87"/>
<polygon fill="midnightblue" stroke="midnightblue" points="207.67,-266.25 218.26,-266.49 210.13,-259.7 207.67,-266.25"/>
</g>
<!-- Node3 -->
<g id="node3" class="node">
<title>Node3</title>
<g id="a_node3"><a xlink:href="classDisplayInterface.html#a3649a768b8ca59c3070f56aed1fe42c2" target="_top" xlink:title="Get the ID of this display instance.">
<polygon fill="white" stroke="black" points="218,-228.5 218,-247.5 346,-247.5 346,-228.5 218,-228.5"/>
<text text-anchor="middle" x="282" y="-235.5" font-family="Helvetica,sans-Serif" font-size="10.00">DisplayInterface::getId</text>
</a>
</g>
</g>
<!-- Node1&#45;&gt;Node3 -->
<g id="edge2" class="edge">
<title>Node1&#45;&gt;Node3</title>
<path fill="none" stroke="midnightblue" d="M91.1,-133.63C109.82,-151.91 153.26,-191.77 197,-214 206.03,-218.59 216.06,-222.41 225.95,-225.56"/>
<polygon fill="midnightblue" stroke="midnightblue" points="225.18,-228.98 235.76,-228.49 227.18,-222.28 225.18,-228.98"/>
</g>
<!-- Node4 -->
<g id="node4" class="node">
<title>Node4</title>
<g id="a_node4"><a xlink:href="classScreen.html#ad70000886e796b4444e3cdf5e38f6169" target="_top" xlink:title="Get the ID for this screen instance.">
<polygon fill="white" stroke="black" points="623.5,-123.5 623.5,-142.5 703.5,-142.5 703.5,-123.5 623.5,-123.5"/>
<text text-anchor="middle" x="663.5" y="-130.5" font-family="Helvetica,sans-Serif" font-size="10.00">Screen::getId</text>
</a>
</g>
</g>
<!-- Node1&#45;&gt;Node4 -->
<g id="edge3" class="edge">
<title>Node1&#45;&gt;Node4</title>
<path fill="none" stroke="midnightblue" d="M133.4,-133.51C153.24,-136.89 176.12,-140.48 197,-143 366.14,-163.44 411.61,-184.91 580,-159 596.52,-156.46 614.27,-151.21 629.06,-146.09"/>
<polygon fill="midnightblue" stroke="midnightblue" points="630.55,-149.28 638.78,-142.6 628.18,-142.69 630.55,-149.28"/>
</g>
<!-- Node5 -->
<g id="node5" class="node">
<title>Node5</title>
<g id="a_node5"><a xlink:href="classScreenManager.html#a38890def1478514514341039b83299ef" target="_top" xlink:title="Get the next screen in the list (sorted by ID)">
<polygon fill="white" stroke="black" points="197,-114.5 197,-133.5 367,-133.5 367,-114.5 197,-114.5"/>
<text text-anchor="middle" x="282" y="-121.5" font-family="Helvetica,sans-Serif" font-size="10.00">ScreenManager::getNextScreen</text>
</a>
</g>
</g>
<!-- Node1&#45;&gt;Node5 -->
<g id="edge4" class="edge">
<title>Node1&#45;&gt;Node5</title>
<path fill="none" stroke="midnightblue" d="M161.21,-124C169.63,-124 178.26,-124 186.83,-124"/>
<polygon fill="midnightblue" stroke="midnightblue" points="186.84,-127.5 196.84,-124 186.84,-120.5 186.84,-127.5"/>
</g>
<!-- Node9 -->
<g id="node9" class="node">
<title>Node9</title>
<g id="a_node9"><a xlink:href="classScreenManager.html#a0cc1c81b131b3441fd808299c63b409b" target="_top" xlink:title="Get the Screen with the specified ID.">
<polygon fill="white" stroke="black" points="407,-0.5 407,-19.5 576,-19.5 576,-0.5 407,-0.5"/>
<text text-anchor="middle" x="491.5" y="-7.5" font-family="Helvetica,sans-Serif" font-size="10.00">ScreenManager::getScreenById</text>
</a>
</g>
</g>
<!-- Node1&#45;&gt;Node9 -->
<g id="edge15" class="edge">
<title>Node1&#45;&gt;Node9</title>
<path fill="none" stroke="midnightblue" d="M141.04,-114.49C212.12,-102.73 326.48,-82.37 367,-67 384.32,-60.43 386.4,-54.21 403,-46 419.71,-37.74 438.79,-29.73 454.86,-23.37"/>
<polygon fill="midnightblue" stroke="midnightblue" points="456.39,-26.53 464.43,-19.64 453.85,-20.01 456.39,-26.53"/>
</g>
<!-- Node10 -->
<g id="node10" class="node">
<title>Node10</title>
<g id="a_node10"><a xlink:href="classDisplayInterface.html#a080200cc5dfe54b0d05fde5a4cb041fc" target="_top" xlink:title="Get the Screen ID this display is currently displaing.">
<polygon fill="white" stroke="black" points="201.5,-38.5 201.5,-57.5 362.5,-57.5 362.5,-38.5 201.5,-38.5"/>
<text text-anchor="middle" x="282" y="-45.5" font-family="Helvetica,sans-Serif" font-size="10.00">DisplayInterface::getScreenId</text>
</a>
</g>
</g>
<!-- Node1&#45;&gt;Node10 -->
<g id="edge16" class="edge">
<title>Node1&#45;&gt;Node10</title>
<path fill="none" stroke="midnightblue" d="M100.36,-114.49C122.94,-103.34 162.1,-84.77 197,-72 208.57,-67.77 221.26,-63.8 233.19,-60.36"/>
<polygon fill="midnightblue" stroke="midnightblue" points="234.32,-63.68 242.99,-57.6 232.42,-56.95 234.32,-63.68"/>
</g>
<!-- Node11 -->
<g id="node11" class="node">
<title>Node11</title>
<g id="a_node11"><a xlink:href="classDisplayInterface.html#a10b7691f495e4044e71e12caf6985d9a" target="_top" xlink:title="Set the Screen ID this display is currently displaying.">
<polygon fill="white" stroke="black" points="202,-0.5 202,-19.5 362,-19.5 362,-0.5 202,-0.5"/>
<text text-anchor="middle" x="282" y="-7.5" font-family="Helvetica,sans-Serif" font-size="10.00">DisplayInterface::setScreenId</text>
</a>
</g>
</g>
<!-- Node1&#45;&gt;Node11 -->
<g id="edge17" class="edge">
<title>Node1&#45;&gt;Node11</title>
<path fill="none" stroke="midnightblue" d="M90.03,-114.48C107.87,-95.18 151.3,-51.38 197,-29 201.95,-26.58 207.22,-24.45 212.61,-22.6"/>
<polygon fill="midnightblue" stroke="midnightblue" points="213.9,-25.87 222.4,-19.55 211.81,-19.18 213.9,-25.87"/>
</g>
<!-- Node5&#45;&gt;Node4 -->
<g id="edge5" class="edge">
<title>Node5&#45;&gt;Node4</title>
<path fill="none" stroke="midnightblue" d="M331.84,-133.51C353.54,-137.28 379.45,-141.15 403,-143 481.42,-149.17 501.48,-147.74 580,-143 590.7,-142.35 602.13,-141.24 612.97,-139.99"/>
<polygon fill="midnightblue" stroke="midnightblue" points="613.64,-143.43 623.14,-138.75 612.79,-136.48 613.64,-143.43"/>
</g>
<!-- Node6 -->
<g id="node6" class="node">
<title>Node6</title>
<g id="a_node6"><a xlink:href="classScreenManager.html#a6cc01abb59037b653ca45f130c83c9b3" target="_top" xlink:title="Get the highest Screen ID in the list.">
<polygon fill="white" stroke="black" points="403,-76.5 403,-95.5 580,-95.5 580,-76.5 403,-76.5"/>
<text text-anchor="middle" x="491.5" y="-83.5" font-family="Helvetica,sans-Serif" font-size="10.00">ScreenManager::getMaxScreenId</text>
</a>
</g>
</g>
<!-- Node5&#45;&gt;Node6 -->
<g id="edge6" class="edge">
<title>Node5&#45;&gt;Node6</title>
<path fill="none" stroke="midnightblue" d="M335.09,-114.46C363.46,-109.27 398.74,-102.8 428.52,-97.35"/>
<polygon fill="midnightblue" stroke="midnightblue" points="429.18,-100.79 438.39,-95.54 427.92,-93.9 429.18,-100.79"/>
</g>
<!-- Node7 -->
<g id="node7" class="node">
<title>Node7</title>
<g id="a_node7"><a xlink:href="classScreen.html#af743df653d024c7571e596772009216d" target="_top" xlink:title="Get the next Screen instance in the list.">
<polygon fill="white" stroke="black" points="616,-66.5 616,-85.5 711,-85.5 711,-66.5 616,-66.5"/>
<text text-anchor="middle" x="663.5" y="-73.5" font-family="Helvetica,sans-Serif" font-size="10.00">Screen::getNext</text>
</a>
</g>
</g>
<!-- Node5&#45;&gt;Node7 -->
<g id="edge12" class="edge">
<title>Node5&#45;&gt;Node7</title>
<path fill="none" stroke="midnightblue" d="M330.75,-114.48C343.02,-110.94 355.88,-106.22 367,-100 385.94,-89.4 382.77,-74.87 403,-67 474.24,-39.29 564.96,-52.24 618.1,-64.14"/>
<polygon fill="midnightblue" stroke="midnightblue" points="617.35,-67.56 627.89,-66.42 618.94,-60.74 617.35,-67.56"/>
</g>
<!-- Node8 -->
<g id="node8" class="node">
<title>Node8</title>
<g id="a_node8"><a xlink:href="classScreenManager.html#acd4f0a92975819547a21bfc7d6320f6d" target="_top" xlink:title="Get the lowest Screen ID in the list.">
<polygon fill="white" stroke="black" points="404.5,-114.5 404.5,-133.5 578.5,-133.5 578.5,-114.5 404.5,-114.5"/>
<text text-anchor="middle" x="491.5" y="-121.5" font-family="Helvetica,sans-Serif" font-size="10.00">ScreenManager::getMinScreenId</text>
</a>
</g>
</g>
<!-- Node5&#45;&gt;Node8 -->
<g id="edge9" class="edge">
<title>Node5&#45;&gt;Node8</title>
<path fill="none" stroke="midnightblue" d="M367.1,-124C376,-124 385.09,-124 394.12,-124"/>
<polygon fill="midnightblue" stroke="midnightblue" points="394.26,-127.5 404.26,-124 394.26,-120.5 394.26,-127.5"/>
</g>
<!-- Node5&#45;&gt;Node9 -->
<g id="edge13" class="edge">
<title>Node5&#45;&gt;Node9</title>
<path fill="none" stroke="midnightblue" d="M339.78,-114.45C349.53,-111.02 359.07,-106.35 367,-100 393.09,-79.12 376.8,-54.74 403,-34 408.39,-29.73 414.49,-26.22 420.9,-23.33"/>
<polygon fill="midnightblue" stroke="midnightblue" points="422.46,-26.48 430.47,-19.53 419.88,-19.97 422.46,-26.48"/>
</g>
<!-- Node6&#45;&gt;Node4 -->
<g id="edge7" class="edge">
<title>Node6&#45;&gt;Node4</title>
<path fill="none" stroke="midnightblue" d="M541.34,-95.58C554,-98.34 567.57,-101.55 580,-105 595.63,-109.33 612.65,-114.95 627.14,-120.02"/>
<polygon fill="midnightblue" stroke="midnightblue" points="626.13,-123.37 636.72,-123.41 628.47,-116.77 626.13,-123.37"/>
</g>
<!-- Node6&#45;&gt;Node7 -->
<g id="edge8" class="edge">
<title>Node6&#45;&gt;Node7</title>
<path fill="none" stroke="midnightblue" d="M580.49,-80.82C589.03,-80.32 597.54,-79.82 605.66,-79.34"/>
<polygon fill="midnightblue" stroke="midnightblue" points="605.93,-82.83 615.71,-78.75 605.52,-75.85 605.93,-82.83"/>
</g>
<!-- Node8&#45;&gt;Node4 -->
<g id="edge10" class="edge">
<title>Node8&#45;&gt;Node4</title>
<path fill="none" stroke="midnightblue" d="M578.99,-128.58C590.8,-129.2 602.58,-129.83 613.4,-130.4"/>
<polygon fill="midnightblue" stroke="midnightblue" points="613.28,-133.9 623.45,-130.93 613.65,-126.91 613.28,-133.9"/>
</g>
<!-- Node8&#45;&gt;Node7 -->
<g id="edge11" class="edge">
<title>Node8&#45;&gt;Node7</title>
<path fill="none" stroke="midnightblue" d="M541.82,-114.41C554.35,-111.67 567.74,-108.47 580,-105 596.02,-100.46 613.46,-94.49 628.16,-89.14"/>
<polygon fill="midnightblue" stroke="midnightblue" points="629.68,-92.32 637.85,-85.57 627.25,-85.75 629.68,-92.32"/>
</g>
<!-- Node9&#45;&gt;Node7 -->
<g id="edge14" class="edge">
<title>Node9&#45;&gt;Node7</title>
<path fill="none" stroke="midnightblue" d="M534.01,-19.54C548.75,-23.41 565.31,-28.31 580,-34 599.92,-41.71 621.4,-52.74 637.44,-61.56"/>
<polygon fill="midnightblue" stroke="midnightblue" points="635.77,-64.63 646.21,-66.45 639.18,-58.52 635.77,-64.63"/>
</g>
</g>
</svg>
        <g id="navigator" transform="translate(0 0)" fill="#404254">
                <rect fill="#f2f5e9" fill-opacity="0.5" stroke="#606060" stroke-width=".5" x="0" y="0" width="60" height="60"/>
                <use id="zoomplus" xlink:href="#zoomPlus" x="17" y="9" onmousedown="handleZoom(evt,'in')"/>
                <use id="zoomminus" xlink:href="#zoomMin" x="42" y="9" onmousedown="handleZoom(evt,'out')"/>
                <use id="reset" xlink:href="#resetDef" x="30" y="36" onmousedown="handleReset()"/>
                <g id="arrowUp" xlink:href="#dirArrow" transform="translate(30 24)" onmousedown="handlePan(0,-1)">
                  <use xlink:href="#rim" fill="#404040">
                        <set attributeName="fill" to="#808080" begin="arrowUp.mouseover" end="arrowUp.mouseout"/>
                  </use>
                  <path fill="none" stroke="white" stroke-width="1.5" d="M0,-3.0v7 M-2.5,-0.5L0,-3.0L2.5,-0.5"/>
                </g>
                <g id="arrowRight" xlink:href="#dirArrow" transform="rotate(90) translate(36 -43)" onmousedown="handlePan(1,0)">
                  <use xlink:href="#rim" fill="#404040">
                        <set attributeName="fill" to="#808080" begin="arrowRight.mouseover" end="arrowRight.mouseout"/>
                  </use>
                  <path fill="none" stroke="white" stroke-width="1.5" d="M0,-3.0v7 M-2.5,-0.5L0,-3.0L2.5,-0.5"/>
                </g>
                <g id="arrowDown" xlink:href="#dirArrow" transform="rotate(180) translate(-30 -48)" onmousedown="handlePan(0,1)">
                  <use xlink:href="#rim" fill="#404040">
                        <set attributeName="fill" to="#808080" begin="arrowDown.mouseover" end="arrowDown.mouseout"/>
                  </use>
                  <path fill="none" stroke="white" stroke-width="1.5" d="M0,-3.0v7 M-2.5,-0.5L0,-3.0L2.5,-0.5"/>
                </g>
                <g id="arrowLeft" xlink:href="#dirArrow" transform="rotate(270) translate(-36 17)" onmousedown="handlePan(-1,0)">
                  <use xlink:href="#rim" fill="#404040">
                        <set attributeName="fill" to="#808080" begin="arrowLeft.mouseover" end="arrowLeft.mouseout"/>
                  </use>
                  <path fill="none" stroke="white" stroke-width="1.5" d="M0,-3.0v7 M-2.5,-0.5L0,-3.0L2.5,-0.5"/>
                </g>
        </g>
        <svg viewBox="0 0 15 15" width="100%" height="30px" preserveAspectRatio="xMaxYMin meet">
         <g id="arrow_out" transform="scale(0.3 0.3)">
          <a xlink:href="classController_aa981e303ca83593ffb34db49c7d73cc6_cgraph_org.svg" target="_base">
           <rect id="button" ry="5" rx="5" y="6" x="6" height="38" width="38"
                fill="#f2f5e9" fill-opacity="0.5" stroke="#606060" stroke-width="1.0"/>
           <path id="arrow"
             d="M 11.500037,31.436501 C 11.940474,20.09759 22.043105,11.32322 32.158766,21.979434 L 37.068811,17.246167 C 37.068811,17.246167 37.088388,32 37.088388,32 L 22.160133,31.978069 C 22.160133,31.978069 26.997745,27.140456 26.997745,27.140456 C 18.528582,18.264221 13.291696,25.230495 11.500037,31.436501 z"
             style="fill:#404040;"/>
          </a>
         </g>
        </svg>
</svg>
