<?xml version="1.0" encoding="UTF-8" standalone="no"?>
<!DOCTYPE svg PUBLIC "-//W3C//DTD SVG 1.1//EN"
 "http://www.w3.org/Graphics/SVG/1.1/DTD/svg11.dtd">
<!-- Generated by graphviz version 2.43.0 (0)
 -->
<!-- Title: DisplayManager::clearAllDisplays Pages: 1 -->
<svg width="732pt" height="104pt"
 viewBox="0.00 0.00 732.00 104.00" xmlns="http://www.w3.org/2000/svg" xmlns:xlink="http://www.w3.org/1999/xlink">
<g id="graph0" class="graph" transform="scale(1 1) rotate(0) translate(4 100)">
<title>DisplayManager::clearAllDisplays</title>
<polygon fill="white" stroke="transparent" points="-4,4 -4,-100 728,-100 728,4 -4,4"/>
<!-- Node1 -->
<g id="node1" class="node">
<title>Node1</title>
<g id="a_node1"><a xlink:title="Clear all displays.">
<polygon fill="#bfbfbf" stroke="black" points="0,-14 0,-44 139,-44 139,-14 0,-14"/>
<text text-anchor="start" x="8" y="-32" font-family="Helvetica,sans-Serif" font-size="10.00">DisplayManager::clearAll</text>
<text text-anchor="middle" x="69.5" y="-21" font-family="Helvetica,sans-Serif" font-size="10.00">Displays</text>
</a>
</g>
</g>
<!-- Node2 -->
<g id="node2" class="node">
<title>Node2</title>
<g id="a_node2"><a xlink:href="classDisplayManager.html#abcac9213f163018979f2a226ecf53882" target="_top" xlink:title="Manually selects SPI displays that require manual selecting via the CS pin &#45; sets pin low.">
<polygon fill="white" stroke="black" points="175,-38.5 175,-57.5 363,-57.5 363,-38.5 175,-38.5"/>
<text text-anchor="middle" x="269" y="-45.5" font-family="Helvetica,sans-Serif" font-size="10.00">DisplayManager::_selectSPIDisplay</text>
</a>
</g>
</g>
<!-- Node1&#45;&gt;Node2 -->
<g id="edge1" class="edge">
<title>Node1&#45;&gt;Node2</title>
<path fill="none" stroke="midnightblue" d="M139.02,-35.59C147.35,-36.39 156,-37.22 164.69,-38.06"/>
<polygon fill="midnightblue" stroke="midnightblue" points="164.61,-41.57 174.9,-39.04 165.28,-34.6 164.61,-41.57"/>
</g>
<!-- Node6 -->
<g id="node6" class="node">
<title>Node6</title>
<g id="a_node6"><a xlink:href="classDisplayInterface.html#aa869afa166e1d7f231549e3b93f7bef5" target="_top" xlink:title="Get the next DisplayInterface derived instance in the list.">
<polygon fill="white" stroke="black" points="401,-0.5 401,-19.5 543,-19.5 543,-0.5 401,-0.5"/>
<text text-anchor="middle" x="472" y="-7.5" font-family="Helvetica,sans-Serif" font-size="10.00">DisplayInterface::getNext</text>
</a>
</g>
</g>
<!-- Node1&#45;&gt;Node6 -->
<g id="edge6" class="edge">
<title>Node1&#45;&gt;Node6</title>
<path fill="none" stroke="midnightblue" d="M139.35,-25.73C209.09,-22.43 316.9,-17.31 390.54,-13.82"/>
<polygon fill="midnightblue" stroke="midnightblue" points="390.88,-17.31 400.7,-13.34 390.54,-10.31 390.88,-17.31"/>
</g>
<!-- Node3 -->
<g id="node3" class="node">
<title>Node3</title>
<g id="a_node3"><a xlink:href="Arduino_8h.html#ae9647a9a056bb33fd1206da70c83bde3" target="_top" xlink:title=" ">
<polygon fill="white" stroke="black" points="435,-76.5 435,-95.5 509,-95.5 509,-76.5 435,-76.5"/>
<text text-anchor="middle" x="472" y="-83.5" font-family="Helvetica,sans-Serif" font-size="10.00">digitalWrite</text>
</a>
</g>
</g>
<!-- Node2&#45;&gt;Node3 -->
<g id="edge2" class="edge">
<title>Node2&#45;&gt;Node3</title>
<path fill="none" stroke="midnightblue" d="M320.46,-57.54C352.43,-63.58 393.47,-71.34 424.62,-77.23"/>
<polygon fill="midnightblue" stroke="midnightblue" points="424.31,-80.73 434.78,-79.15 425.61,-73.86 424.31,-80.73"/>
</g>
<!-- Node5 -->
<g id="node5" class="node">
<title>Node5</title>
<g id="a_node5"><a xlink:href="classDisplayInterface.html#a99f118df7933707f23506e6c4138c8ac" target="_top" xlink:title="Get the defined CS pin for this display to see if it needs manual SPI switching.">
<polygon fill="white" stroke="black" points="399,-38.5 399,-57.5 545,-57.5 545,-38.5 399,-38.5"/>
<text text-anchor="middle" x="472" y="-45.5" font-family="Helvetica,sans-Serif" font-size="10.00">DisplayInterface::getCSPin</text>
</a>
</g>
</g>
<!-- Node2&#45;&gt;Node5 -->
<g id="edge4" class="edge">
<title>Node2&#45;&gt;Node5</title>
<path fill="none" stroke="midnightblue" d="M363.15,-48C371.69,-48 380.3,-48 388.74,-48"/>
<polygon fill="midnightblue" stroke="midnightblue" points="388.92,-51.5 398.92,-48 388.92,-44.5 388.92,-51.5"/>
</g>
<!-- Node2&#45;&gt;Node6 -->
<g id="edge5" class="edge">
<title>Node2&#45;&gt;Node6</title>
<path fill="none" stroke="midnightblue" d="M320.46,-38.46C347.82,-33.29 381.82,-26.86 410.58,-21.42"/>
<polygon fill="midnightblue" stroke="midnightblue" points="411.34,-24.84 420.52,-19.54 410.04,-17.96 411.34,-24.84"/>
</g>
<!-- Node4 -->
<g id="node4" class="node">
<title>Node4</title>
<g id="a_node4"><a xlink:href="classMockArduino.html#a31b8132fed4cf21517931e448ba515ea" target="_top" xlink:title=" ">
<polygon fill="white" stroke="black" points="581,-76.5 581,-95.5 724,-95.5 724,-76.5 581,-76.5"/>
<text text-anchor="middle" x="652.5" y="-83.5" font-family="Helvetica,sans-Serif" font-size="10.00">MockArduino::getInstance</text>
</a>
</g>
</g>
<!-- Node3&#45;&gt;Node4 -->
<g id="edge3" class="edge">
<title>Node3&#45;&gt;Node4</title>
<path fill="none" stroke="midnightblue" d="M509.12,-86C526.89,-86 549.07,-86 570.59,-86"/>
<polygon fill="midnightblue" stroke="midnightblue" points="570.75,-89.5 580.75,-86 570.75,-82.5 570.75,-89.5"/>
</g>
</g>
</svg>
