<?xml version="1.0" encoding="UTF-8" standalone="no"?>
<!DOCTYPE svg PUBLIC "-//W3C//DTD SVG 1.1//EN"
 "http://www.w3.org/Graphics/SVG/1.1/DTD/svg11.dtd">
<!-- Generated by graphviz version 2.43.0 (0)
 -->
<!-- Title: ControllerDisplayUpdateTests Pages: 1 -->
<svg width="906pt" height="452pt"
 viewBox="0.00 0.00 906.00 452.00" xmlns="http://www.w3.org/2000/svg" xmlns:xlink="http://www.w3.org/1999/xlink">
<g id="graph0" class="graph" transform="scale(1 1) rotate(0) translate(4 448)">
<title>ControllerDisplayUpdateTests</title>
<polygon fill="white" stroke="transparent" points="-4,4 -4,-448 902,-448 902,4 -4,4"/>
<!-- Node1 -->
<g id="node1" class="node">
<title>Node1</title>
<g id="a_node1"><a xlink:title="Test harness for ensuring displays are updated when screen updates are received.">
<polygon fill="#bfbfbf" stroke="black" points="338.5,-0.5 338.5,-19.5 499.5,-19.5 499.5,-0.5 338.5,-0.5"/>
<text text-anchor="middle" x="419" y="-7.5" font-family="Helvetica,sans-Serif" font-size="10.00">ControllerDisplayUpdateTests</text>
</a>
</g>
</g>
<!-- Node2 -->
<g id="node2" class="node">
<title>Node2</title>
<g id="a_node2"><a xlink:title=" ">
<polygon fill="white" stroke="#bfbfbf" points="116,-67.5 116,-86.5 152,-86.5 152,-67.5 116,-67.5"/>
<text text-anchor="middle" x="134" y="-74.5" font-family="Helvetica,sans-Serif" font-size="10.00">Test</text>
</a>
</g>
</g>
<!-- Node2&#45;&gt;Node1 -->
<g id="edge1" class="edge">
<title>Node2&#45;&gt;Node1</title>
<path fill="none" stroke="midnightblue" d="M144.05,-58.92C149.53,-51.21 157.02,-42.77 166,-38 195.01,-22.58 275.73,-15.96 338.27,-13.13"/>
<polygon fill="midnightblue" stroke="midnightblue" points="141.08,-57.08 138.59,-67.38 146.96,-60.88 141.08,-57.08"/>
</g>
<!-- Node3 -->
<g id="node3" class="node">
<title>Node3</title>
<g id="a_node3"><a xlink:href="classController.html" target="_top" xlink:title="Class for the central controller for EX&#45;Display All application activities are controlled through thi...">
<polygon fill="white" stroke="black" points="386.5,-67.5 386.5,-86.5 451.5,-86.5 451.5,-67.5 386.5,-67.5"/>
<text text-anchor="middle" x="419" y="-74.5" font-family="Helvetica,sans-Serif" font-size="10.00">Controller</text>
</a>
</g>
</g>
<!-- Node3&#45;&gt;Node1 -->
<g id="edge2" class="edge">
<title>Node3&#45;&gt;Node1</title>
<path fill="none" stroke="#9a32cd" stroke-dasharray="5,2" d="M419,-57.04C419,-44.67 419,-29.12 419,-19.63"/>
<polygon fill="#9a32cd" stroke="#9a32cd" points="415.5,-57.23 419,-67.23 422.5,-57.23 415.5,-57.23"/>
<text text-anchor="middle" x="444" y="-41" font-family="Helvetica,sans-Serif" font-size="10.00"> controller</text>
</g>
<!-- Node4 -->
<g id="node4" class="node">
<title>Node4</title>
<g id="a_node4"><a xlink:href="classCallbackInterface.html" target="_top" xlink:title="Interface class to use for callbacks.">
<polygon fill="white" stroke="black" points="488,-290.5 488,-309.5 590,-309.5 590,-290.5 488,-290.5"/>
<text text-anchor="middle" x="539" y="-297.5" font-family="Helvetica,sans-Serif" font-size="10.00">CallbackInterface</text>
</a>
</g>
</g>
<!-- Node4&#45;&gt;Node3 -->
<g id="edge3" class="edge">
<title>Node4&#45;&gt;Node3</title>
<path fill="none" stroke="midnightblue" d="M534.82,-280.41C531.8,-266.97 527.64,-248.36 524,-232 511.46,-175.58 534.34,-148.25 496,-105 484.72,-92.28 467.1,-85.55 451.56,-81.99"/>
<polygon fill="midnightblue" stroke="midnightblue" points="531.44,-281.34 537.05,-290.33 538.27,-279.8 531.44,-281.34"/>
</g>
<!-- Node12 -->
<g id="node11" class="node">
<title>Node12</title>
<g id="a_node11"><a xlink:href="classInputManager.html" target="_top" xlink:title=" ">
<polygon fill="white" stroke="black" points="382,-134.5 382,-153.5 466,-153.5 466,-134.5 382,-134.5"/>
<text text-anchor="middle" x="424" y="-141.5" font-family="Helvetica,sans-Serif" font-size="10.00">InputManager</text>
</a>
</g>
</g>
<!-- Node4&#45;&gt;Node12 -->
<g id="edge17" class="edge">
<title>Node4&#45;&gt;Node12</title>
<path fill="none" stroke="#9a32cd" stroke-dasharray="5,2" d="M543.16,-280.46C544.44,-271.05 544.68,-259.6 541,-250 522.85,-202.59 469.31,-168.65 441.39,-153.62"/>
<polygon fill="#9a32cd" stroke="#9a32cd" points="539.71,-279.88 541.36,-290.35 546.6,-281.14 539.71,-279.88"/>
<text text-anchor="middle" x="555.5" y="-218.5" font-family="Helvetica,sans-Serif" font-size="10.00"> _callback</text>
</g>
<!-- Node13 -->
<g id="node12" class="node">
<title>Node13</title>
<g id="a_node12"><a xlink:href="classInputInterface.html" target="_top" xlink:title="Class to abstract away all physical input implementatio to enable multiple input types Default return...">
<polygon fill="white" stroke="black" points="396.5,-211.5 396.5,-230.5 481.5,-230.5 481.5,-211.5 396.5,-211.5"/>
<text text-anchor="middle" x="439" y="-218.5" font-family="Helvetica,sans-Serif" font-size="10.00">InputInterface</text>
</a>
</g>
</g>
<!-- Node4&#45;&gt;Node13 -->
<g id="edge19" class="edge">
<title>Node4&#45;&gt;Node13</title>
<path fill="none" stroke="#9a32cd" stroke-dasharray="5,2" d="M488.56,-286.86C479.7,-283.13 471.07,-278.28 464,-272 451.38,-260.78 444.36,-241.72 441.17,-230.65"/>
<polygon fill="#9a32cd" stroke="#9a32cd" points="487.61,-290.25 498.2,-290.5 490.08,-283.7 487.61,-290.25"/>
<text text-anchor="middle" x="488.5" y="-258.5" font-family="Helvetica,sans-Serif" font-size="10.00"> _callback</text>
</g>
<!-- Node5 -->
<g id="node5" class="node">
<title>Node5</title>
<g id="a_node5"><a xlink:href="classLogger.html" target="_top" xlink:title="Class to enable simple logging to a Stream object with different log levels This enables embedding pe...">
<polygon fill="white" stroke="black" points="405,-357.5 405,-376.5 455,-376.5 455,-357.5 405,-357.5"/>
<text text-anchor="middle" x="430" y="-364.5" font-family="Helvetica,sans-Serif" font-size="10.00">Logger</text>
</a>
</g>
</g>
<!-- Node5&#45;&gt;Node4 -->
<g id="edge4" class="edge">
<title>Node5&#45;&gt;Node4</title>
<path fill="none" stroke="#9a32cd" stroke-dasharray="5,2" d="M453.57,-351.94C475.16,-339.07 506.42,-320.43 524.53,-309.63"/>
<polygon fill="#9a32cd" stroke="#9a32cd" points="451.5,-349.11 444.7,-357.23 455.08,-355.12 451.5,-349.11"/>
<text text-anchor="middle" x="511" y="-331" font-family="Helvetica,sans-Serif" font-size="10.00"> _logger</text>
</g>
<!-- Node7 -->
<g id="node7" class="node">
<title>Node7</title>
<g id="a_node7"><a xlink:href="classScreenManager.html" target="_top" xlink:title="Class to manage all EX&#45;Display screens.">
<polygon fill="white" stroke="black" points="592,-172.5 592,-191.5 684,-191.5 684,-172.5 592,-172.5"/>
<text text-anchor="middle" x="638" y="-179.5" font-family="Helvetica,sans-Serif" font-size="10.00">ScreenManager</text>
</a>
</g>
</g>
<!-- Node5&#45;&gt;Node7 -->
<g id="edge10" class="edge">
<title>Node5&#45;&gt;Node7</title>
<path fill="none" stroke="#9a32cd" stroke-dasharray="5,2" d="M465.48,-364.38C504.18,-360.62 565.12,-348.5 599,-310 630.39,-274.33 636.51,-213.83 637.71,-191.56"/>
<polygon fill="#9a32cd" stroke="#9a32cd" points="464.87,-360.92 455.19,-365.23 465.45,-367.89 464.87,-360.92"/>
<text text-anchor="middle" x="632" y="-297.5" font-family="Helvetica,sans-Serif" font-size="10.00"> _logger</text>
</g>
<!-- Node8 -->
<g id="node8" class="node">
<title>Node8</title>
<g id="a_node8"><a xlink:href="classScreen.html" target="_top" xlink:title="Class for each screen as received from the EXRAIL SCREEN() command Each Screen instance contains a li...">
<polygon fill="white" stroke="red" points="684,-290.5 684,-309.5 734,-309.5 734,-290.5 684,-290.5"/>
<text text-anchor="middle" x="709" y="-297.5" font-family="Helvetica,sans-Serif" font-size="10.00">Screen</text>
</a>
</g>
</g>
<!-- Node5&#45;&gt;Node8 -->
<g id="edge9" class="edge">
<title>Node5&#45;&gt;Node8</title>
<path fill="none" stroke="#9a32cd" stroke-dasharray="5,2" d="M465.34,-365.46C507.81,-363.91 580.73,-358.36 640,-339 661.06,-332.12 683.1,-318.73 696.44,-309.83"/>
<polygon fill="#9a32cd" stroke="#9a32cd" points="465.12,-361.97 455.23,-365.78 465.34,-368.97 465.12,-361.97"/>
<text text-anchor="middle" x="683" y="-331" font-family="Helvetica,sans-Serif" font-size="10.00"> _logger</text>
</g>
<!-- Node10 -->
<g id="node9" class="node">
<title>Node10</title>
<g id="a_node9"><a xlink:href="classDisplayManager.html" target="_top" xlink:title="Manages all physical displays.">
<polygon fill="white" stroke="black" points="94,-172.5 94,-191.5 190,-191.5 190,-172.5 94,-172.5"/>
<text text-anchor="middle" x="142" y="-179.5" font-family="Helvetica,sans-Serif" font-size="10.00">DisplayManager</text>
</a>
</g>
</g>
<!-- Node5&#45;&gt;Node10 -->
<g id="edge12" class="edge">
<title>Node5&#45;&gt;Node10</title>
<path fill="none" stroke="#9a32cd" stroke-dasharray="5,2" d="M394.62,-364.12C338.38,-360.76 231.36,-352.76 196,-339 175.54,-331.04 167.04,-328.98 156,-310 133.26,-270.88 137.87,-213.46 140.68,-191.75"/>
<polygon fill="#9a32cd" stroke="#9a32cd" points="394.64,-367.62 404.82,-364.71 395.04,-360.64 394.64,-367.62"/>
<text text-anchor="middle" x="176" y="-297.5" font-family="Helvetica,sans-Serif" font-size="10.00"> _logger</text>
</g>
<!-- Node11 -->
<g id="node10" class="node">
<title>Node11</title>
<g id="a_node10"><a xlink:href="classDisplayInterface.html" target="_top" xlink:title="Class to abstract away all physical display implementation to enable multiple display types.">
<polygon fill="white" stroke="black" points="247.5,-290.5 247.5,-309.5 344.5,-309.5 344.5,-290.5 247.5,-290.5"/>
<text text-anchor="middle" x="296" y="-297.5" font-family="Helvetica,sans-Serif" font-size="10.00">DisplayInterface</text>
</a>
</g>
</g>
<!-- Node5&#45;&gt;Node11 -->
<g id="edge14" class="edge">
<title>Node5&#45;&gt;Node11</title>
<path fill="none" stroke="#9a32cd" stroke-dasharray="5,2" d="M403.08,-352.94C376.54,-340.07 336.73,-320.76 313.87,-309.67"/>
<polygon fill="#9a32cd" stroke="#9a32cd" points="401.68,-356.15 412.21,-357.37 404.74,-349.85 401.68,-356.15"/>
<text text-anchor="middle" x="391" y="-331" font-family="Helvetica,sans-Serif" font-size="10.00"> _logger</text>
</g>
<!-- Node5&#45;&gt;Node12 -->
<g id="edge22" class="edge">
<title>Node5&#45;&gt;Node12</title>
<path fill="none" stroke="#9a32cd" stroke-dasharray="5,2" d="M394.77,-365.49C337.76,-362.42 228.16,-346.64 193,-272 155.41,-192.2 305.38,-160.57 381.78,-149.81"/>
<polygon fill="#9a32cd" stroke="#9a32cd" points="394.62,-368.98 404.77,-365.92 394.93,-361.99 394.62,-368.98"/>
<text text-anchor="middle" x="213" y="-258.5" font-family="Helvetica,sans-Serif" font-size="10.00"> _logger</text>
</g>
<!-- Node5&#45;&gt;Node13 -->
<g id="edge20" class="edge">
<title>Node5&#45;&gt;Node13</title>
<path fill="none" stroke="#9a32cd" stroke-dasharray="5,2" d="M431.16,-347.38C433.13,-315.97 437.02,-253.63 438.46,-230.71"/>
<polygon fill="#9a32cd" stroke="#9a32cd" points="427.67,-347.22 430.54,-357.42 434.65,-347.66 427.67,-347.22"/>
<text text-anchor="middle" x="454" y="-297.5" font-family="Helvetica,sans-Serif" font-size="10.00"> _logger</text>
</g>
<!-- Node6 -->
<g id="node6" class="node">
<title>Node6</title>
<g id="a_node6"><a xlink:href="classStream.html" target="_top" xlink:title="Class to mock the basic Stream function equivalent of the Arduino framework.">
<polygon fill="white" stroke="black" points="404,-424.5 404,-443.5 456,-443.5 456,-424.5 404,-424.5"/>
<text text-anchor="middle" x="430" y="-431.5" font-family="Helvetica,sans-Serif" font-size="10.00">Stream</text>
</a>
</g>
</g>
<!-- Node6&#45;&gt;Node1 -->
<g id="edge27" class="edge">
<title>Node6&#45;&gt;Node1</title>
<path fill="none" stroke="#9a32cd" stroke-dasharray="5,2" d="M466.21,-430.61C561.34,-423.84 811,-402.76 811,-368 811,-368 811,-368 811,-76 811,-44.74 614.5,-25.16 499.75,-16.39"/>
<polygon fill="#9a32cd" stroke="#9a32cd" points="465.92,-427.12 456.19,-431.31 466.41,-434.1 465.92,-427.12"/>
<text text-anchor="middle" x="854.5" y="-224" font-family="Helvetica,sans-Serif" font-size="10.00"> commandStation</text>
<text text-anchor="middle" x="854.5" y="-213" font-family="Helvetica,sans-Serif" font-size="10.00">console</text>
</g>
<!-- Node6&#45;&gt;Node3 -->
<g id="edge24" class="edge">
<title>Node6&#45;&gt;Node3</title>
<path fill="none" stroke="#9a32cd" stroke-dasharray="5,2" d="M393.75,-431.32C290.12,-426.03 0,-407.69 0,-368 0,-368 0,-368 0,-143 0,-103.94 288.02,-84.97 386.47,-79.62"/>
<polygon fill="#9a32cd" stroke="#9a32cd" points="393.59,-434.81 403.75,-431.82 393.94,-427.82 393.59,-434.81"/>
<text text-anchor="middle" x="63.5" y="-264" font-family="Helvetica,sans-Serif" font-size="10.00"> _commandStationStream</text>
<text text-anchor="middle" x="63.5" y="-253" font-family="Helvetica,sans-Serif" font-size="10.00">_consoleStream</text>
</g>
<!-- Node6&#45;&gt;Node5 -->
<g id="edge5" class="edge">
<title>Node6&#45;&gt;Node5</title>
<path fill="none" stroke="#9a32cd" stroke-dasharray="5,2" d="M430,-414.04C430,-401.67 430,-386.12 430,-376.63"/>
<polygon fill="#9a32cd" stroke="#9a32cd" points="426.5,-414.23 430,-424.23 433.5,-414.23 426.5,-414.23"/>
<text text-anchor="middle" x="468" y="-398" font-family="Helvetica,sans-Serif" font-size="10.00"> _outputStream</text>
</g>
<!-- Node7&#45;&gt;Node1 -->
<g id="edge25" class="edge">
<title>Node7&#45;&gt;Node1</title>
<path fill="none" stroke="#9a32cd" stroke-dasharray="5,2" d="M622.39,-165.06C594.32,-136.97 532.68,-77.86 473,-38 462.37,-30.9 449.6,-24.43 439.16,-19.61"/>
<polygon fill="#9a32cd" stroke="#9a32cd" points="620.16,-167.78 629.69,-172.42 625.14,-162.86 620.16,-167.78"/>
<text text-anchor="middle" x="608.5" y="-108" font-family="Helvetica,sans-Serif" font-size="10.00"> screenManager</text>
</g>
<!-- Node7&#45;&gt;Node3 -->
<g id="edge6" class="edge">
<title>Node7&#45;&gt;Node3</title>
<path fill="none" stroke="#9a32cd" stroke-dasharray="5,2" d="M641.32,-162.21C643.2,-144.9 642.76,-119.73 628,-105 603.85,-80.9 503.96,-77.59 451.51,-77.56"/>
<polygon fill="#9a32cd" stroke="#9a32cd" points="637.83,-161.87 639.87,-172.26 644.76,-162.86 637.83,-161.87"/>
<text text-anchor="middle" x="684" y="-141.5" font-family="Helvetica,sans-Serif" font-size="10.00"> _screenManager</text>
</g>
<!-- Node8&#45;&gt;Node7 -->
<g id="edge7" class="edge">
<title>Node8&#45;&gt;Node7</title>
<path fill="none" stroke="#9a32cd" stroke-dasharray="5,2" d="M698.43,-281.72C682.97,-256.48 654.81,-210.46 643.21,-191.5"/>
<polygon fill="#9a32cd" stroke="#9a32cd" points="695.46,-283.58 703.66,-290.28 701.43,-279.92 695.46,-283.58"/>
<text text-anchor="middle" x="722.5" y="-258.5" font-family="Helvetica,sans-Serif" font-size="10.00"> _firstScreen</text>
</g>
<!-- Node8&#45;&gt;Node8 -->
<g id="edge8" class="edge">
<title>Node8&#45;&gt;Node8</title>
<path fill="none" stroke="#9a32cd" stroke-dasharray="5,2" d="M744.45,-305.25C749,-304.34 752,-302.59 752,-300 752,-295.75 743.91,-293.76 734.18,-294.02"/>
<polygon fill="#9a32cd" stroke="#9a32cd" points="743.91,-301.78 734.18,-305.98 744.4,-308.77 743.91,-301.78"/>
<text text-anchor="middle" x="767.5" y="-297.5" font-family="Helvetica,sans-Serif" font-size="10.00"> _next</text>
</g>
<!-- Node10&#45;&gt;Node1 -->
<g id="edge26" class="edge">
<title>Node10&#45;&gt;Node1</title>
<path fill="none" stroke="#9a32cd" stroke-dasharray="5,2" d="M159.12,-165.13C177.15,-148.86 206.8,-123.43 235,-105 291.46,-68.11 364.23,-34.71 398.9,-19.57"/>
<polygon fill="#9a32cd" stroke="#9a32cd" points="156.28,-162.97 151.25,-172.3 161,-168.15 156.28,-162.97"/>
<text text-anchor="middle" x="276" y="-108" font-family="Helvetica,sans-Serif" font-size="10.00"> displayManager</text>
</g>
<!-- Node10&#45;&gt;Node3 -->
<g id="edge11" class="edge">
<title>Node10&#45;&gt;Node3</title>
<path fill="none" stroke="#9a32cd" stroke-dasharray="5,2" d="M174.71,-168.84C231.52,-147.71 347.04,-104.76 396.12,-86.51"/>
<polygon fill="#9a32cd" stroke="#9a32cd" points="173.29,-165.63 165.14,-172.4 175.73,-172.19 173.29,-165.63"/>
<text text-anchor="middle" x="305.5" y="-141.5" font-family="Helvetica,sans-Serif" font-size="10.00"> _displayManager</text>
</g>
<!-- Node11&#45;&gt;Node10 -->
<g id="edge13" class="edge">
<title>Node11&#45;&gt;Node10</title>
<path fill="none" stroke="#9a32cd" stroke-dasharray="5,2" d="M275.49,-284.28C270.34,-280.4 264.89,-276.14 260,-272 249.21,-262.85 247.92,-258.99 237,-250 209.26,-227.17 174.17,-203.7 155.36,-191.51"/>
<polygon fill="#9a32cd" stroke="#9a32cd" points="273.59,-287.23 283.72,-290.35 277.75,-281.6 273.59,-287.23"/>
<text text-anchor="middle" x="292" y="-258.5" font-family="Helvetica,sans-Serif" font-size="10.00"> _firstDisplay</text>
</g>
<!-- Node11&#45;&gt;Node11 -->
<g id="edge15" class="edge">
<title>Node11&#45;&gt;Node11</title>
<path fill="none" stroke="#9a32cd" stroke-dasharray="5,2" d="M354.88,-304.58C359.59,-303.58 362.5,-302.05 362.5,-300 362.5,-296.72 355.04,-294.78 344.71,-294.19"/>
<polygon fill="#9a32cd" stroke="#9a32cd" points="354.22,-301.13 344.71,-305.81 355.06,-308.08 354.22,-301.13"/>
<text text-anchor="middle" x="378" y="-297.5" font-family="Helvetica,sans-Serif" font-size="10.00"> _next</text>
</g>
<!-- Node11&#45;&gt;Node12 -->
<g id="edge23" class="edge">
<title>Node11&#45;&gt;Node12</title>
<path fill="none" stroke="#9a32cd" stroke-dasharray="5,2" d="M314.82,-283.38C318.22,-279.9 321.48,-276.04 324,-272 339.33,-247.44 327.65,-233.89 344,-210 361.18,-184.9 390.82,-164.47 408.8,-153.58"/>
<polygon fill="#9a32cd" stroke="#9a32cd" points="312.33,-280.92 307.4,-290.3 317.1,-286.04 312.33,-280.92"/>
<text text-anchor="middle" x="366" y="-218.5" font-family="Helvetica,sans-Serif" font-size="10.00"> _display</text>
</g>
<!-- Node11&#45;&gt;Node13 -->
<g id="edge21" class="edge">
<title>Node11&#45;&gt;Node13</title>
<path fill="none" stroke="#9a32cd" stroke-dasharray="5,2" d="M325.23,-286.03C333.21,-281.98 341.68,-277.2 349,-272 360.54,-263.81 360.16,-257.75 372,-250 384.45,-241.85 399.65,-235.27 412.43,-230.54"/>
<polygon fill="#9a32cd" stroke="#9a32cd" points="323.64,-282.91 316.17,-290.43 326.69,-289.21 323.64,-282.91"/>
<text text-anchor="middle" x="394" y="-258.5" font-family="Helvetica,sans-Serif" font-size="10.00"> _display</text>
</g>
<!-- Node12&#45;&gt;Node3 -->
<g id="edge16" class="edge">
<title>Node12&#45;&gt;Node3</title>
<path fill="none" stroke="#9a32cd" stroke-dasharray="5,2" d="M420.87,-123.86C420.53,-121.22 420.22,-118.55 420,-116 419.13,-106.01 418.94,-94.48 418.93,-86.77"/>
<polygon fill="#9a32cd" stroke="#9a32cd" points="417.45,-124.66 422.39,-134.03 424.38,-123.62 417.45,-124.66"/>
<text text-anchor="middle" x="458" y="-108" font-family="Helvetica,sans-Serif" font-size="10.00"> _inputManager</text>
</g>
<!-- Node13&#45;&gt;Node12 -->
<g id="edge18" class="edge">
<title>Node13&#45;&gt;Node12</title>
<path fill="none" stroke="#9a32cd" stroke-dasharray="5,2" d="M435.29,-201.47C432.23,-186.15 428.02,-165.09 425.7,-153.5"/>
<polygon fill="#9a32cd" stroke="#9a32cd" points="431.89,-202.28 437.28,-211.4 438.75,-200.9 431.89,-202.28"/>
<text text-anchor="middle" x="450" y="-179.5" font-family="Helvetica,sans-Serif" font-size="10.00"> _input</text>
</g>
</g>
</svg>
