<?xml version="1.0" encoding="UTF-8" standalone="no"?>
<!DOCTYPE svg PUBLIC "-//W3C//DTD SVG 1.1//EN"
 "http://www.w3.org/Graphics/SVG/1.1/DTD/svg11.dtd">
<!-- Generated by graphviz version 2.43.0 (0)
 -->
<!-- Title: ValidDisplayScreenTests Pages: 1 -->
<svg width="759pt" height="450pt"
 viewBox="0.00 0.00 759.00 450.00" xmlns="http://www.w3.org/2000/svg" xmlns:xlink="http://www.w3.org/1999/xlink">
<g id="graph0" class="graph" transform="scale(1 1) rotate(0) translate(4 446)">
<title>ValidDisplayScreenTests</title>
<polygon fill="white" stroke="transparent" points="-4,4 -4,-446 755,-446 755,4 -4,4"/>
<!-- Node1 -->
<g id="node1" class="node">
<title>Node1</title>
<g id="a_node1"><a xlink:title="Integration test harness for ensuring displays are set to display valid screens.">
<polygon fill="#bfbfbf" stroke="black" points="437.5,-0.5 437.5,-19.5 572.5,-19.5 572.5,-0.5 437.5,-0.5"/>
<text text-anchor="middle" x="505" y="-7.5" font-family="Helvetica,sans-Serif" font-size="10.00">ValidDisplayScreenTests</text>
</a>
</g>
</g>
<!-- Node2 -->
<g id="node2" class="node">
<title>Node2</title>
<g id="a_node2"><a xlink:title=" ">
<polygon fill="white" stroke="#bfbfbf" points="336,-67.5 336,-86.5 372,-86.5 372,-67.5 336,-67.5"/>
<text text-anchor="middle" x="354" y="-74.5" font-family="Helvetica,sans-Serif" font-size="10.00">Test</text>
</a>
</g>
</g>
<!-- Node2&#45;&gt;Node1 -->
<g id="edge1" class="edge">
<title>Node2&#45;&gt;Node1</title>
<path fill="none" stroke="midnightblue" d="M381.62,-64.11C411.45,-51.27 458.23,-31.13 484.8,-19.7"/>
<polygon fill="midnightblue" stroke="midnightblue" points="380.02,-60.99 372.21,-68.16 382.78,-67.42 380.02,-60.99"/>
</g>
<!-- Node3 -->
<g id="node3" class="node">
<title>Node3</title>
<g id="a_node3"><a xlink:href="classController.html" target="_top" xlink:title="Class for the central controller for EX&#45;Display All application activities are controlled through thi...">
<polygon fill="white" stroke="black" points="390.5,-67.5 390.5,-86.5 455.5,-86.5 455.5,-67.5 390.5,-67.5"/>
<text text-anchor="middle" x="423" y="-74.5" font-family="Helvetica,sans-Serif" font-size="10.00">Controller</text>
</a>
</g>
</g>
<!-- Node3&#45;&gt;Node1 -->
<g id="edge2" class="edge">
<title>Node3&#45;&gt;Node1</title>
<path fill="none" stroke="#9a32cd" stroke-dasharray="5,2" d="M442.28,-60.71C458.44,-47.91 480.92,-30.09 494.12,-19.63"/>
<polygon fill="#9a32cd" stroke="#9a32cd" points="439.72,-58.28 434.06,-67.23 444.07,-63.76 439.72,-58.28"/>
<text text-anchor="middle" x="493" y="-41" font-family="Helvetica,sans-Serif" font-size="10.00"> controller</text>
</g>
<!-- Node4 -->
<g id="node4" class="node">
<title>Node4</title>
<g id="a_node4"><a xlink:href="classCallbackInterface.html" target="_top" xlink:title="Interface class to use for callbacks.">
<polygon fill="white" stroke="black" points="111,-288.5 111,-307.5 213,-307.5 213,-288.5 111,-288.5"/>
<text text-anchor="middle" x="162" y="-295.5" font-family="Helvetica,sans-Serif" font-size="10.00">CallbackInterface</text>
</a>
</g>
</g>
<!-- Node4&#45;&gt;Node3 -->
<g id="edge3" class="edge">
<title>Node4&#45;&gt;Node3</title>
<path fill="none" stroke="midnightblue" d="M161.12,-277.97C161.37,-268.57 162.74,-257.28 167,-248 206.49,-161.91 239.17,-145.05 325,-105 336.59,-99.59 366.49,-91.65 390.24,-85.78"/>
<polygon fill="midnightblue" stroke="midnightblue" points="157.62,-278.28 161.24,-288.24 164.62,-278.2 157.62,-278.28"/>
</g>
<!-- Node13 -->
<g id="node12" class="node">
<title>Node13</title>
<g id="a_node12"><a xlink:href="classInputInterface.html" target="_top" xlink:title="Class to abstract away all physical input implementatio to enable multiple input types Default return...">
<polygon fill="white" stroke="black" points="211.5,-210.5 211.5,-229.5 296.5,-229.5 296.5,-210.5 211.5,-210.5"/>
<text text-anchor="middle" x="254" y="-217.5" font-family="Helvetica,sans-Serif" font-size="10.00">InputInterface</text>
</a>
</g>
</g>
<!-- Node4&#45;&gt;Node13 -->
<g id="edge18" class="edge">
<title>Node4&#45;&gt;Node13</title>
<path fill="none" stroke="#9a32cd" stroke-dasharray="5,2" d="M167.36,-278.59C171.13,-268.42 177.12,-256.21 186,-248 195.04,-239.63 207,-233.73 218.36,-229.62"/>
<polygon fill="#9a32cd" stroke="#9a32cd" points="163.99,-277.62 164.19,-288.21 170.64,-279.8 163.99,-277.62"/>
<text text-anchor="middle" x="210.5" y="-256.5" font-family="Helvetica,sans-Serif" font-size="10.00"> _callback</text>
</g>
<!-- Node5 -->
<g id="node5" class="node">
<title>Node5</title>
<g id="a_node5"><a xlink:href="classLogger.html" target="_top" xlink:title="Class to enable simple logging to a Stream object with different log levels This enables embedding pe...">
<polygon fill="white" stroke="black" points="425,-355.5 425,-374.5 475,-374.5 475,-355.5 425,-355.5"/>
<text text-anchor="middle" x="450" y="-362.5" font-family="Helvetica,sans-Serif" font-size="10.00">Logger</text>
</a>
</g>
</g>
<!-- Node5&#45;&gt;Node4 -->
<g id="edge4" class="edge">
<title>Node5&#45;&gt;Node4</title>
<path fill="none" stroke="#9a32cd" stroke-dasharray="5,2" d="M414.55,-363.42C353.7,-361.91 232.33,-356.46 195,-337 182.29,-330.38 172.32,-316.64 166.8,-307.63"/>
<polygon fill="#9a32cd" stroke="#9a32cd" points="414.74,-366.93 424.82,-363.65 414.9,-359.93 414.74,-366.93"/>
<text text-anchor="middle" x="215" y="-329" font-family="Helvetica,sans-Serif" font-size="10.00"> _logger</text>
</g>
<!-- Node7 -->
<g id="node7" class="node">
<title>Node7</title>
<g id="a_node7"><a xlink:href="classScreenManager.html" target="_top" xlink:title="Class to manage all EX&#45;Display screens.">
<polygon fill="white" stroke="black" points="624,-172.5 624,-191.5 716,-191.5 716,-172.5 624,-172.5"/>
<text text-anchor="middle" x="670" y="-179.5" font-family="Helvetica,sans-Serif" font-size="10.00">ScreenManager</text>
</a>
</g>
</g>
<!-- Node5&#45;&gt;Node7 -->
<g id="edge10" class="edge">
<title>Node5&#45;&gt;Node7</title>
<path fill="none" stroke="#9a32cd" stroke-dasharray="5,2" d="M485.68,-361.63C549.07,-356.57 677.1,-342.26 703,-308 730.75,-271.3 692.89,-213.22 676.71,-191.54"/>
<polygon fill="#9a32cd" stroke="#9a32cd" points="485.07,-358.16 475.36,-362.41 485.6,-365.14 485.07,-358.16"/>
<text text-anchor="middle" x="731" y="-295.5" font-family="Helvetica,sans-Serif" font-size="10.00"> _logger</text>
</g>
<!-- Node8 -->
<g id="node8" class="node">
<title>Node8</title>
<g id="a_node8"><a xlink:href="classScreen.html" target="_top" xlink:title="Class for each screen as received from the EXRAIL SCREEN() command Each Screen instance contains a li...">
<polygon fill="white" stroke="red" points="595,-288.5 595,-307.5 645,-307.5 645,-288.5 595,-288.5"/>
<text text-anchor="middle" x="620" y="-295.5" font-family="Helvetica,sans-Serif" font-size="10.00">Screen</text>
</a>
</g>
</g>
<!-- Node5&#45;&gt;Node8 -->
<g id="edge9" class="edge">
<title>Node5&#45;&gt;Node8</title>
<path fill="none" stroke="#9a32cd" stroke-dasharray="5,2" d="M484.85,-356.88C504.64,-352.3 529.63,-345.59 551,-337 571.3,-328.84 593.18,-316.03 606.73,-307.58"/>
<polygon fill="#9a32cd" stroke="#9a32cd" points="484.03,-353.48 475.03,-359.08 485.56,-360.31 484.03,-353.48"/>
<text text-anchor="middle" x="594" y="-329" font-family="Helvetica,sans-Serif" font-size="10.00"> _logger</text>
</g>
<!-- Node10 -->
<g id="node9" class="node">
<title>Node10</title>
<g id="a_node9"><a xlink:href="classDisplayManager.html" target="_top" xlink:title="Manages all physical displays.">
<polygon fill="white" stroke="black" points="490,-172.5 490,-191.5 586,-191.5 586,-172.5 490,-172.5"/>
<text text-anchor="middle" x="538" y="-179.5" font-family="Helvetica,sans-Serif" font-size="10.00">DisplayManager</text>
</a>
</g>
</g>
<!-- Node5&#45;&gt;Node10 -->
<g id="edge12" class="edge">
<title>Node5&#45;&gt;Node10</title>
<path fill="none" stroke="#9a32cd" stroke-dasharray="5,2" d="M479.61,-350.52C485.6,-346.79 491.45,-342.28 496,-337 534,-292.92 537.92,-217.53 538.1,-191.86"/>
<polygon fill="#9a32cd" stroke="#9a32cd" points="477.86,-347.49 470.86,-355.44 481.29,-353.59 477.86,-347.49"/>
<text text-anchor="middle" x="542" y="-295.5" font-family="Helvetica,sans-Serif" font-size="10.00"> _logger</text>
</g>
<!-- Node11 -->
<g id="node10" class="node">
<title>Node11</title>
<g id="a_node10"><a xlink:href="classDisplayInterface.html" target="_top" xlink:title="Class to abstract away all physical display implementation to enable multiple display types.">
<polygon fill="white" stroke="black" points="307.5,-288.5 307.5,-307.5 404.5,-307.5 404.5,-288.5 307.5,-288.5"/>
<text text-anchor="middle" x="356" y="-295.5" font-family="Helvetica,sans-Serif" font-size="10.00">DisplayInterface</text>
</a>
</g>
</g>
<!-- Node5&#45;&gt;Node11 -->
<g id="edge14" class="edge">
<title>Node5&#45;&gt;Node11</title>
<path fill="none" stroke="#9a32cd" stroke-dasharray="5,2" d="M428.91,-349.42C410.33,-336.57 383.88,-318.28 368.48,-307.63"/>
<polygon fill="#9a32cd" stroke="#9a32cd" points="427.11,-352.43 437.32,-355.23 431.09,-346.67 427.11,-352.43"/>
<text text-anchor="middle" x="428" y="-329" font-family="Helvetica,sans-Serif" font-size="10.00"> _logger</text>
</g>
<!-- Node12 -->
<g id="node11" class="node">
<title>Node12</title>
<g id="a_node11"><a xlink:href="classInputManager.html" target="_top" xlink:title=" ">
<polygon fill="white" stroke="black" points="292,-134.5 292,-153.5 376,-153.5 376,-134.5 292,-134.5"/>
<text text-anchor="middle" x="334" y="-141.5" font-family="Helvetica,sans-Serif" font-size="10.00">InputManager</text>
</a>
</g>
</g>
<!-- Node5&#45;&gt;Node12 -->
<g id="edge21" class="edge">
<title>Node5&#45;&gt;Node12</title>
<path fill="none" stroke="#9a32cd" stroke-dasharray="5,2" d="M457.38,-345.65C465.75,-321.72 476.28,-279.25 460,-248 435.85,-201.64 380.81,-168.5 352.13,-153.68"/>
<polygon fill="#9a32cd" stroke="#9a32cd" points="454.02,-344.64 453.79,-355.23 460.57,-347.09 454.02,-344.64"/>
<text text-anchor="middle" x="487" y="-256.5" font-family="Helvetica,sans-Serif" font-size="10.00"> _logger</text>
</g>
<!-- Node5&#45;&gt;Node13 -->
<g id="edge19" class="edge">
<title>Node5&#45;&gt;Node13</title>
<path fill="none" stroke="#9a32cd" stroke-dasharray="5,2" d="M414.76,-358.59C365.09,-350.18 278.37,-332.37 259,-308 240.65,-284.9 247.35,-246.51 251.59,-229.53"/>
<polygon fill="#9a32cd" stroke="#9a32cd" points="414.32,-362.06 424.76,-360.24 415.46,-355.16 414.32,-362.06"/>
<text text-anchor="middle" x="279" y="-295.5" font-family="Helvetica,sans-Serif" font-size="10.00"> _logger</text>
</g>
<!-- Node6 -->
<g id="node6" class="node">
<title>Node6</title>
<g id="a_node6"><a xlink:href="classStream.html" target="_top" xlink:title="Class to mock the basic Stream function equivalent of the Arduino framework.">
<polygon fill="white" stroke="black" points="0,-422.5 0,-441.5 52,-441.5 52,-422.5 0,-422.5"/>
<text text-anchor="middle" x="26" y="-429.5" font-family="Helvetica,sans-Serif" font-size="10.00">Stream</text>
</a>
</g>
</g>
<!-- Node6&#45;&gt;Node3 -->
<g id="edge23" class="edge">
<title>Node6&#45;&gt;Node3</title>
<path fill="none" stroke="#9a32cd" stroke-dasharray="5,2" d="M19.03,-412.82C14.72,-399.94 10,-382.16 10,-366 10,-366 10,-366 10,-143 10,-59.62 298.98,-101.96 381,-87 384.08,-86.44 387.28,-85.82 390.48,-85.17"/>
<polygon fill="#9a32cd" stroke="#9a32cd" points="15.78,-414.11 22.45,-422.34 22.37,-411.74 15.78,-414.11"/>
<text text-anchor="middle" x="73.5" y="-262" font-family="Helvetica,sans-Serif" font-size="10.00"> _commandStationStream</text>
<text text-anchor="middle" x="73.5" y="-251" font-family="Helvetica,sans-Serif" font-size="10.00">_consoleStream</text>
</g>
<!-- Node6&#45;&gt;Node5 -->
<g id="edge5" class="edge">
<title>Node6&#45;&gt;Node5</title>
<path fill="none" stroke="#9a32cd" stroke-dasharray="5,2" d="M62.3,-425.43C146.39,-412.54 352.83,-380.9 424.78,-369.87"/>
<polygon fill="#9a32cd" stroke="#9a32cd" points="61.56,-422.01 52.2,-426.98 62.62,-428.93 61.56,-422.01"/>
<text text-anchor="middle" x="301" y="-396" font-family="Helvetica,sans-Serif" font-size="10.00"> _outputStream</text>
</g>
<!-- Node7&#45;&gt;Node1 -->
<g id="edge24" class="edge">
<title>Node7&#45;&gt;Node1</title>
<path fill="none" stroke="#9a32cd" stroke-dasharray="5,2" d="M680.34,-163.31C684.26,-154.19 686.76,-143.1 682,-134 649.66,-72.15 570.5,-35.14 529.9,-19.6"/>
<polygon fill="#9a32cd" stroke="#9a32cd" points="677.21,-161.75 675.81,-172.25 683.45,-164.92 677.21,-161.75"/>
<text text-anchor="middle" x="708.5" y="-108" font-family="Helvetica,sans-Serif" font-size="10.00"> screenManager</text>
</g>
<!-- Node7&#45;&gt;Node3 -->
<g id="edge6" class="edge">
<title>Node7&#45;&gt;Node3</title>
<path fill="none" stroke="#9a32cd" stroke-dasharray="5,2" d="M636.81,-168.96C624.56,-164.41 610.6,-159.09 598,-154 540.58,-130.78 473.67,-100.93 441.77,-86.53"/>
<polygon fill="#9a32cd" stroke="#9a32cd" points="635.62,-172.25 646.21,-172.42 638.04,-165.68 635.62,-172.25"/>
<text text-anchor="middle" x="640" y="-141.5" font-family="Helvetica,sans-Serif" font-size="10.00"> _screenManager</text>
</g>
<!-- Node8&#45;&gt;Node7 -->
<g id="edge7" class="edge">
<title>Node8&#45;&gt;Node7</title>
<path fill="none" stroke="#9a32cd" stroke-dasharray="5,2" d="M627.86,-279.08C638.76,-254.22 658.05,-210.24 666.2,-191.67"/>
<polygon fill="#9a32cd" stroke="#9a32cd" points="624.57,-277.87 623.76,-288.43 630.98,-280.68 624.57,-277.87"/>
<text text-anchor="middle" x="670.5" y="-256.5" font-family="Helvetica,sans-Serif" font-size="10.00"> _firstScreen</text>
</g>
<!-- Node8&#45;&gt;Node8 -->
<g id="edge8" class="edge">
<title>Node8&#45;&gt;Node8</title>
<path fill="none" stroke="#9a32cd" stroke-dasharray="5,2" d="M655.45,-303.25C660,-302.34 663,-300.59 663,-298 663,-293.75 654.91,-291.76 645.18,-292.02"/>
<polygon fill="#9a32cd" stroke="#9a32cd" points="654.91,-299.78 645.18,-303.98 655.4,-306.77 654.91,-299.78"/>
<text text-anchor="middle" x="678.5" y="-295.5" font-family="Helvetica,sans-Serif" font-size="10.00"> _next</text>
</g>
<!-- Node10&#45;&gt;Node1 -->
<g id="edge25" class="edge">
<title>Node10&#45;&gt;Node1</title>
<path fill="none" stroke="#9a32cd" stroke-dasharray="5,2" d="M538.53,-162.01C538.74,-134.05 536.88,-80.5 522,-38 519.73,-31.52 515.67,-24.98 512.09,-19.96"/>
<polygon fill="#9a32cd" stroke="#9a32cd" points="535.03,-162.26 538.35,-172.32 542.03,-162.39 535.03,-162.26"/>
<text text-anchor="middle" x="577" y="-108" font-family="Helvetica,sans-Serif" font-size="10.00"> displayManager</text>
</g>
<!-- Node10&#45;&gt;Node3 -->
<g id="edge11" class="edge">
<title>Node10&#45;&gt;Node3</title>
<path fill="none" stroke="#9a32cd" stroke-dasharray="5,2" d="M488.07,-170.14C464.56,-164.58 440.81,-158.13 437,-154 419.61,-135.18 420.38,-102.14 421.89,-86.57"/>
<polygon fill="#9a32cd" stroke="#9a32cd" points="487.54,-173.61 498.07,-172.46 489.12,-166.79 487.54,-173.61"/>
<text text-anchor="middle" x="480.5" y="-141.5" font-family="Helvetica,sans-Serif" font-size="10.00"> _displayManager</text>
</g>
<!-- Node11&#45;&gt;Node10 -->
<g id="edge13" class="edge">
<title>Node11&#45;&gt;Node10</title>
<path fill="none" stroke="#9a32cd" stroke-dasharray="5,2" d="M367.04,-279.81C374.3,-269.55 384.56,-256.84 396,-248 431.3,-220.73 479.86,-201.67 510.07,-191.53"/>
<polygon fill="#9a32cd" stroke="#9a32cd" points="363.96,-278.12 361.27,-288.36 369.76,-282.04 363.96,-278.12"/>
<text text-anchor="middle" x="428" y="-256.5" font-family="Helvetica,sans-Serif" font-size="10.00"> _firstDisplay</text>
</g>
<!-- Node11&#45;&gt;Node11 -->
<g id="edge15" class="edge">
<title>Node11&#45;&gt;Node11</title>
<path fill="none" stroke="#9a32cd" stroke-dasharray="5,2" d="M414.88,-302.58C419.59,-301.58 422.5,-300.05 422.5,-298 422.5,-294.72 415.04,-292.78 404.71,-292.19"/>
<polygon fill="#9a32cd" stroke="#9a32cd" points="414.22,-299.13 404.71,-303.81 415.06,-306.08 414.22,-299.13"/>
<text text-anchor="middle" x="438" y="-295.5" font-family="Helvetica,sans-Serif" font-size="10.00"> _next</text>
</g>
<!-- Node11&#45;&gt;Node12 -->
<g id="edge22" class="edge">
<title>Node11&#45;&gt;Node12</title>
<path fill="none" stroke="#9a32cd" stroke-dasharray="5,2" d="M353.28,-278.23C348.48,-245.06 338.68,-177.33 335.23,-153.51"/>
<polygon fill="#9a32cd" stroke="#9a32cd" points="349.86,-279 354.75,-288.39 356.79,-277.99 349.86,-279"/>
<text text-anchor="middle" x="368" y="-217.5" font-family="Helvetica,sans-Serif" font-size="10.00"> _display</text>
</g>
<!-- Node11&#45;&gt;Node13 -->
<g id="edge20" class="edge">
<title>Node11&#45;&gt;Node13</title>
<path fill="none" stroke="#9a32cd" stroke-dasharray="5,2" d="M308.65,-284.86C299.51,-281.09 290.47,-276.23 283,-270 269.94,-259.11 261.34,-240.73 257.1,-229.85"/>
<polygon fill="#9a32cd" stroke="#9a32cd" points="307.55,-288.19 318.15,-288.41 310,-281.63 307.55,-288.19"/>
<text text-anchor="middle" x="305" y="-256.5" font-family="Helvetica,sans-Serif" font-size="10.00"> _display</text>
</g>
<!-- Node12&#45;&gt;Node3 -->
<g id="edge16" class="edge">
<title>Node12&#45;&gt;Node3</title>
<path fill="none" stroke="#9a32cd" stroke-dasharray="5,2" d="M328.97,-124C328.33,-117.42 329.01,-110.36 333,-105 336.6,-100.16 366.12,-91.89 390.38,-85.78"/>
<polygon fill="#9a32cd" stroke="#9a32cd" points="325.61,-125.07 330.94,-134.24 332.49,-123.75 325.61,-125.07"/>
<text text-anchor="middle" x="371" y="-108" font-family="Helvetica,sans-Serif" font-size="10.00"> _inputManager</text>
</g>
<!-- Node13&#45;&gt;Node12 -->
<g id="edge17" class="edge">
<title>Node13&#45;&gt;Node12</title>
<path fill="none" stroke="#9a32cd" stroke-dasharray="5,2" d="M265.2,-202.01C271.96,-192.51 281.17,-180.84 291,-172 299,-164.81 309.14,-158.34 317.56,-153.54"/>
<polygon fill="#9a32cd" stroke="#9a32cd" points="262.29,-200.07 259.51,-210.29 268.06,-204.03 262.29,-200.07"/>
<text text-anchor="middle" x="308" y="-179.5" font-family="Helvetica,sans-Serif" font-size="10.00"> _input</text>
</g>
</g>
</svg>
