<?xml version="1.0" encoding="UTF-8" standalone="no"?>
<!DOCTYPE svg PUBLIC "-//W3C//DTD SVG 1.1//EN"
 "http://www.w3.org/Graphics/SVG/1.1/DTD/svg11.dtd">
<!-- Generated by graphviz version 2.43.0 (0)
 -->
<!-- Title: DisplayManager::_selectSPIDisplay Pages: 1 -->
<svg width="557pt" height="104pt"
 viewBox="0.00 0.00 557.00 104.00" xmlns="http://www.w3.org/2000/svg" xmlns:xlink="http://www.w3.org/1999/xlink">
<g id="graph0" class="graph" transform="scale(1 1) rotate(0) translate(4 100)">
<title>DisplayManager::_selectSPIDisplay</title>
<polygon fill="white" stroke="transparent" points="-4,4 -4,-100 553,-100 553,4 -4,4"/>
<!-- Node1 -->
<g id="node1" class="node">
<title>Node1</title>
<g id="a_node1"><a xlink:title="Manually selects SPI displays that require manual selecting via the CS pin &#45; sets pin low.">
<polygon fill="#bfbfbf" stroke="black" points="0,-38.5 0,-57.5 188,-57.5 188,-38.5 0,-38.5"/>
<text text-anchor="middle" x="94" y="-45.5" font-family="Helvetica,sans-Serif" font-size="10.00">DisplayManager::_selectSPIDisplay</text>
</a>
</g>
</g>
<!-- Node2 -->
<g id="node2" class="node">
<title>Node2</title>
<g id="a_node2"><a xlink:href="Arduino_8h.html#ae9647a9a056bb33fd1206da70c83bde3" target="_top" xlink:title=" ">
<polygon fill="white" stroke="black" points="260,-76.5 260,-95.5 334,-95.5 334,-76.5 260,-76.5"/>
<text text-anchor="middle" x="297" y="-83.5" font-family="Helvetica,sans-Serif" font-size="10.00">digitalWrite</text>
</a>
</g>
</g>
<!-- Node1&#45;&gt;Node2 -->
<g id="edge1" class="edge">
<title>Node1&#45;&gt;Node2</title>
<path fill="none" stroke="midnightblue" d="M145.46,-57.54C177.43,-63.58 218.47,-71.34 249.62,-77.23"/>
<polygon fill="midnightblue" stroke="midnightblue" points="249.31,-80.73 259.78,-79.15 250.61,-73.86 249.31,-80.73"/>
</g>
<!-- Node4 -->
<g id="node4" class="node">
<title>Node4</title>
<g id="a_node4"><a xlink:href="classDisplayInterface.html#a99f118df7933707f23506e6c4138c8ac" target="_top" xlink:title="Get the defined CS pin for this display to see if it needs manual SPI switching.">
<polygon fill="white" stroke="black" points="224,-38.5 224,-57.5 370,-57.5 370,-38.5 224,-38.5"/>
<text text-anchor="middle" x="297" y="-45.5" font-family="Helvetica,sans-Serif" font-size="10.00">DisplayInterface::getCSPin</text>
</a>
</g>
</g>
<!-- Node1&#45;&gt;Node4 -->
<g id="edge3" class="edge">
<title>Node1&#45;&gt;Node4</title>
<path fill="none" stroke="midnightblue" d="M188.15,-48C196.69,-48 205.3,-48 213.74,-48"/>
<polygon fill="midnightblue" stroke="midnightblue" points="213.92,-51.5 223.92,-48 213.92,-44.5 213.92,-51.5"/>
</g>
<!-- Node5 -->
<g id="node5" class="node">
<title>Node5</title>
<g id="a_node5"><a xlink:href="classDisplayInterface.html#aa869afa166e1d7f231549e3b93f7bef5" target="_top" xlink:title="Get the next DisplayInterface derived instance in the list.">
<polygon fill="white" stroke="black" points="226,-0.5 226,-19.5 368,-19.5 368,-0.5 226,-0.5"/>
<text text-anchor="middle" x="297" y="-7.5" font-family="Helvetica,sans-Serif" font-size="10.00">DisplayInterface::getNext</text>
</a>
</g>
</g>
<!-- Node1&#45;&gt;Node5 -->
<g id="edge4" class="edge">
<title>Node1&#45;&gt;Node5</title>
<path fill="none" stroke="midnightblue" d="M145.46,-38.46C172.82,-33.29 206.82,-26.86 235.58,-21.42"/>
<polygon fill="midnightblue" stroke="midnightblue" points="236.34,-24.84 245.52,-19.54 235.04,-17.96 236.34,-24.84"/>
</g>
<!-- Node3 -->
<g id="node3" class="node">
<title>Node3</title>
<g id="a_node3"><a xlink:href="classMockArduino.html#a31b8132fed4cf21517931e448ba515ea" target="_top" xlink:title=" ">
<polygon fill="white" stroke="black" points="406,-76.5 406,-95.5 549,-95.5 549,-76.5 406,-76.5"/>
<text text-anchor="middle" x="477.5" y="-83.5" font-family="Helvetica,sans-Serif" font-size="10.00">MockArduino::getInstance</text>
</a>
</g>
</g>
<!-- Node2&#45;&gt;Node3 -->
<g id="edge2" class="edge">
<title>Node2&#45;&gt;Node3</title>
<path fill="none" stroke="midnightblue" d="M334.12,-86C351.89,-86 374.07,-86 395.59,-86"/>
<polygon fill="midnightblue" stroke="midnightblue" points="395.75,-89.5 405.75,-86 395.75,-82.5 395.75,-89.5"/>
</g>
</g>
</svg>
