<?xml version="1.0" encoding="UTF-8" standalone="no"?>
<!DOCTYPE svg PUBLIC "-//W3C//DTD SVG 1.1//EN"
 "http://www.w3.org/Graphics/SVG/1.1/DTD/svg11.dtd">
<!-- Generated by graphviz version 2.43.0 (0)
 -->
<!-- Title: DisplayInterface::setScreenId Pages: 1 -->
<svg width="539pt" height="76pt"
 viewBox="0.00 0.00 539.00 75.50" xmlns="http://www.w3.org/2000/svg" xmlns:xlink="http://www.w3.org/1999/xlink">
<g id="graph0" class="graph" transform="scale(1 1) rotate(0) translate(4 71.5)">
<title>DisplayInterface::setScreenId</title>
<!-- Node1 -->
<g id="Node000001" class="node">
<title>Node1</title>
<g id="a_Node000001"><a xlink:title="Set the Screen ID this display is currently displaying.">
<polygon fill="#999999" stroke="#666666" points="531,-45.5 371,-45.5 371,-26.5 531,-26.5 531,-45.5"/>
<text text-anchor="middle" x="451" y="-33.5" font-family="Helvetica,sans-Serif" font-size="10.00">DisplayInterface::setScreenId</text>
</a>
</g>
</g>
<!-- Node2 -->
<g id="Node000002" class="node">
<title>Node2</title>
<g id="a_Node000002"><a xlink:href="classController.html#aa981e303ca83593ffb34db49c7d73cc6" target="_top" xlink:title="Selects the next screen for the selected display.">
<polygon fill="white" stroke="#666666" points="335,-67.5 174,-67.5 174,-48.5 335,-48.5 335,-67.5"/>
<text text-anchor="middle" x="254.5" y="-55.5" font-family="Helvetica,sans-Serif" font-size="10.00">Controller::_selectNextScreen</text>
</a>
</g>
</g>
<!-- Node1&#45;&gt;Node2 -->
<g id="edge1_Node000001_Node000002" class="edge">
<title>Node1&#45;&gt;Node2</title>
<g id="a_edge1_Node000001_Node000002"><a xlink:title=" ">
<path fill="none" stroke="#63b8ff" d="M360.88,-46.08C352.31,-47.05 343.65,-48.03 335.17,-48.99"/>
<polygon fill="#63b8ff" stroke="#63b8ff" points="361.35,-49.55 370.89,-44.95 360.56,-42.59 361.35,-49.55"/>
</a>
</g>
</g>
<!-- Node4 -->
<g id="Node000004" class="node">
<title>Node4</title>
<g id="a_Node000004"><a xlink:href="classController.html#a3e02f73e534a929849f981ec892b4f54" target="_top" xlink:title="Selects the previous screen for the selected display.">
<polygon fill="white" stroke="#666666" points="328,-30 181,-30 181,0 328,0 328,-30"/>
<text text-anchor="start" x="189" y="-18" font-family="Helvetica,sans-Serif" font-size="10.00">Controller::_selectPrevious</text>
<text text-anchor="middle" x="254.5" y="-7" font-family="Helvetica,sans-Serif" font-size="10.00">Screen</text>
</a>
</g>
</g>
<!-- Node1&#45;&gt;Node4 -->
<g id="edge3_Node000001_Node000004" class="edge">
<title>Node1&#45;&gt;Node4</title>
<g id="a_edge3_Node000001_Node000004"><a xlink:title=" ">
<path fill="none" stroke="#63b8ff" d="M360.91,-26.38C349.98,-25.2 338.92,-24.01 328.27,-22.86"/>
<polygon fill="#63b8ff" stroke="#63b8ff" points="360.57,-29.86 370.89,-27.46 361.32,-22.91 360.57,-29.86"/>
</a>
</g>
</g>
<!-- Node3 -->
<g id="Node000003" class="node">
<title>Node3</title>
<g id="a_Node000003"><a xlink:href="classController.html#af9c9f10320fb7770553156da4d164e64" target="_top" xlink:title="Method to implement to respond to an input action.">
<polygon fill="white" stroke="#666666" points="138,-45.5 0,-45.5 0,-26.5 138,-26.5 138,-45.5"/>
<text text-anchor="middle" x="69" y="-33.5" font-family="Helvetica,sans-Serif" font-size="10.00">Controller::onInputAction</text>
</a>
</g>
</g>
<!-- Node2&#45;&gt;Node3 -->
<g id="edge2_Node000002_Node000003" class="edge">
<title>Node2&#45;&gt;Node3</title>
<g id="a_edge2_Node000002_Node000003"><a xlink:title=" ">
<path fill="none" stroke="#63b8ff" d="M163.9,-47.26C155.2,-46.21 146.47,-45.17 138.03,-44.16"/>
<polygon fill="#63b8ff" stroke="#63b8ff" points="163.74,-50.76 174.08,-48.48 164.57,-43.81 163.74,-50.76"/>
</a>
</g>
</g>
<!-- Node4&#45;&gt;Node3 -->
<g id="edge4_Node000004_Node000003" class="edge">
<title>Node4&#45;&gt;Node3</title>
<g id="a_edge4_Node000004_Node000003"><a xlink:title=" ">
<path fill="none" stroke="#63b8ff" d="M170.96,-24.45C159.97,-25.7 148.81,-26.98 138.11,-28.21"/>
<polygon fill="#63b8ff" stroke="#63b8ff" points="171.44,-27.91 180.98,-23.3 170.64,-20.96 171.44,-27.91"/>
</a>
</g>
</g>
</g>
</svg>
