<?xml version="1.0" encoding="UTF-8" standalone="no"?>
<!DOCTYPE svg PUBLIC "-//W3C//DTD SVG 1.1//EN"
 "http://www.w3.org/Graphics/SVG/1.1/DTD/svg11.dtd">
<!-- Generated by graphviz version 2.43.0 (0)
 -->
<!-- Title: Screen::_addScreenRow Pages: 1 -->
<svg width="493pt" height="66pt"
 viewBox="0.00 0.00 493.00 66.00" xmlns="http://www.w3.org/2000/svg" xmlns:xlink="http://www.w3.org/1999/xlink">
<g id="graph0" class="graph" transform="scale(1 1) rotate(0) translate(4 62)">
<title>Screen::_addScreenRow</title>
<polygon fill="white" stroke="transparent" points="-4,4 -4,-62 489,-62 489,4 -4,4"/>
<!-- Node1 -->
<g id="node1" class="node">
<title>Node1</title>
<g id="a_node1"><a xlink:title="Add a new ScreenRow to the list.">
<polygon fill="#bfbfbf" stroke="black" points="352,-19.5 352,-38.5 485,-38.5 485,-19.5 352,-19.5"/>
<text text-anchor="middle" x="418.5" y="-26.5" font-family="Helvetica,sans-Serif" font-size="10.00">Screen::_addScreenRow</text>
</a>
</g>
</g>
<!-- Node2 -->
<g id="node2" class="node">
<title>Node2</title>
<g id="a_node2"><a xlink:href="classScreen.html#a0a9a3a713a63ef55e854841d07630556" target="_top" xlink:title="Update the specified ScreenRow, or create it if it doesn&#39;t exist This will automatically maintain the...">
<polygon fill="white" stroke="black" points="173,-19.5 173,-38.5 316,-38.5 316,-19.5 173,-19.5"/>
<text text-anchor="middle" x="244.5" y="-26.5" font-family="Helvetica,sans-Serif" font-size="10.00">Screen::updateScreenRow</text>
</a>
</g>
</g>
<!-- Node1&#45;&gt;Node2 -->
<g id="edge1" class="edge">
<title>Node1&#45;&gt;Node2</title>
<path fill="none" stroke="midnightblue" d="M341.75,-29C333.28,-29 324.68,-29 316.28,-29"/>
<polygon fill="midnightblue" stroke="midnightblue" points="341.98,-32.5 351.98,-29 341.98,-25.5 341.98,-32.5"/>
</g>
<!-- Node3 -->
<g id="node3" class="node">
<title>Node3</title>
<g id="a_node3"><a xlink:href="test__Screen_8cpp.html#a9da657726211d6af0e63eaab94ad162f" target="_top" xlink:title="Create a screen with associated row list and ensure rows are accessible by ID.">
<polygon fill="white" stroke="black" points="42.5,-38.5 42.5,-57.5 94.5,-57.5 94.5,-38.5 42.5,-38.5"/>
<text text-anchor="middle" x="68.5" y="-45.5" font-family="Helvetica,sans-Serif" font-size="10.00">TEST_F</text>
</a>
</g>
</g>
<!-- Node2&#45;&gt;Node3 -->
<g id="edge2" class="edge">
<title>Node2&#45;&gt;Node3</title>
<path fill="none" stroke="midnightblue" d="M162.84,-37.81C138.15,-40.5 112.79,-43.27 94.74,-45.24"/>
<polygon fill="midnightblue" stroke="midnightblue" points="163.42,-41.27 172.98,-36.7 162.66,-34.31 163.42,-41.27"/>
</g>
<!-- Node4 -->
<g id="node4" class="node">
<title>Node4</title>
<g id="a_node4"><a xlink:href="classController.html#a908f5f6c24239286e29d4761da509963" target="_top" xlink:title="Method to implement updating a screen.">
<polygon fill="white" stroke="black" points="0,-0.5 0,-19.5 137,-19.5 137,-0.5 0,-0.5"/>
<text text-anchor="middle" x="68.5" y="-7.5" font-family="Helvetica,sans-Serif" font-size="10.00">Controller::updateScreen</text>
</a>
</g>
</g>
<!-- Node2&#45;&gt;Node4 -->
<g id="edge3" class="edge">
<title>Node2&#45;&gt;Node4</title>
<path fill="none" stroke="midnightblue" d="M162.88,-20.2C154.23,-19.25 145.5,-18.3 137.02,-17.37"/>
<polygon fill="midnightblue" stroke="midnightblue" points="162.66,-23.69 172.98,-21.3 163.42,-16.73 162.66,-23.69"/>
</g>
</g>
</svg>
