<?xml version="1.0" encoding="UTF-8" standalone="no"?>
<!DOCTYPE svg PUBLIC "-//W3C//DTD SVG 1.1//EN"
 "http://www.w3.org/Graphics/SVG/1.1/DTD/svg11.dtd">
<!-- Generated by graphviz version 2.43.0 (0)
 -->
<!-- Title: AtFinder Pages: 1 -->
<svg width="181pt" height="229pt"
 viewBox="0.00 0.00 180.50 229.00" xmlns="http://www.w3.org/2000/svg" xmlns:xlink="http://www.w3.org/1999/xlink">
<g id="graph0" class="graph" transform="scale(1 1) rotate(0) translate(4 225)">
<title>AtFinder</title>
<polygon fill="white" stroke="transparent" points="-4,4 -4,-225 176.5,-225 176.5,4 -4,4"/>
<!-- Node1 -->
<g id="node1" class="node">
<title>Node1</title>
<g id="a_node1"><a xlink:title="Class to monitor input stream for EXRAIL SCREEN commands Format: &lt;@ screen row &quot;Text&quot;&gt;">
<polygon fill="#bfbfbf" stroke="black" points="0,-0.5 0,-19.5 57,-19.5 57,-0.5 0,-0.5"/>
<text text-anchor="middle" x="28.5" y="-7.5" font-family="Helvetica,sans-Serif" font-size="10.00">AtFinder</text>
</a>
</g>
</g>
<!-- Node2 -->
<g id="node2" class="node">
<title>Node2</title>
<g id="a_node2"><a xlink:href="classCallbackInterface.html" target="_top" xlink:title="Interface class to use for callbacks.">
<polygon fill="white" stroke="black" points="70.5,-67.5 70.5,-86.5 172.5,-86.5 172.5,-67.5 70.5,-67.5"/>
<text text-anchor="middle" x="121.5" y="-74.5" font-family="Helvetica,sans-Serif" font-size="10.00">CallbackInterface</text>
</a>
</g>
</g>
<!-- Node2&#45;&gt;Node1 -->
<g id="edge1" class="edge">
<title>Node2&#45;&gt;Node1</title>
<path fill="none" stroke="#9a32cd" stroke-dasharray="5,2" d="M100.64,-61.42C82.25,-48.57 56.09,-30.28 40.84,-19.63"/>
<polygon fill="#9a32cd" stroke="#9a32cd" points="98.76,-64.37 108.96,-67.23 102.77,-58.64 98.76,-64.37"/>
<text text-anchor="middle" x="105" y="-41" font-family="Helvetica,sans-Serif" font-size="10.00"> _callback</text>
</g>
<!-- Node3 -->
<g id="node3" class="node">
<title>Node3</title>
<g id="a_node3"><a xlink:href="classLogger.html" target="_top" xlink:title="Class to enable simple logging to a Stream object with different log levels This enables embedding pe...">
<polygon fill="white" stroke="black" points="3.5,-134.5 3.5,-153.5 53.5,-153.5 53.5,-134.5 3.5,-134.5"/>
<text text-anchor="middle" x="28.5" y="-141.5" font-family="Helvetica,sans-Serif" font-size="10.00">Logger</text>
</a>
</g>
</g>
<!-- Node3&#45;&gt;Node1 -->
<g id="edge4" class="edge">
<title>Node3&#45;&gt;Node1</title>
<path fill="none" stroke="#9a32cd" stroke-dasharray="5,2" d="M25.1,-123.85C22.76,-108.5 20.29,-86.39 21.5,-67 22.55,-50.18 25.35,-30.68 27.07,-19.7"/>
<polygon fill="#9a32cd" stroke="#9a32cd" points="21.71,-124.82 26.79,-134.12 28.62,-123.68 21.71,-124.82"/>
<text text-anchor="middle" x="41.5" y="-74.5" font-family="Helvetica,sans-Serif" font-size="10.00"> _logger</text>
</g>
<!-- Node3&#45;&gt;Node2 -->
<g id="edge2" class="edge">
<title>Node3&#45;&gt;Node2</title>
<path fill="none" stroke="#9a32cd" stroke-dasharray="5,2" d="M49.36,-128.42C67.75,-115.57 93.91,-97.28 109.16,-86.63"/>
<polygon fill="#9a32cd" stroke="#9a32cd" points="47.23,-125.64 41.04,-134.23 51.24,-131.37 47.23,-125.64"/>
<text text-anchor="middle" x="100.5" y="-108" font-family="Helvetica,sans-Serif" font-size="10.00"> _logger</text>
</g>
<!-- Node4 -->
<g id="node4" class="node">
<title>Node4</title>
<g id="a_node4"><a xlink:href="classStream.html" target="_top" xlink:title="Class to mock the basic Stream function equivalent of the Arduino framework.">
<polygon fill="white" stroke="black" points="2.5,-201.5 2.5,-220.5 54.5,-220.5 54.5,-201.5 2.5,-201.5"/>
<text text-anchor="middle" x="28.5" y="-208.5" font-family="Helvetica,sans-Serif" font-size="10.00">Stream</text>
</a>
</g>
</g>
<!-- Node4&#45;&gt;Node3 -->
<g id="edge3" class="edge">
<title>Node4&#45;&gt;Node3</title>
<path fill="none" stroke="#9a32cd" stroke-dasharray="5,2" d="M28.5,-191.04C28.5,-178.67 28.5,-163.12 28.5,-153.63"/>
<polygon fill="#9a32cd" stroke="#9a32cd" points="25,-191.23 28.5,-201.23 32,-191.23 25,-191.23"/>
<text text-anchor="middle" x="66.5" y="-175" font-family="Helvetica,sans-Serif" font-size="10.00"> _outputStream</text>
</g>
</g>
</svg>
