<?xml version="1.0" encoding="UTF-8" standalone="no"?>
<!DOCTYPE svg PUBLIC "-//W3C//DTD SVG 1.1//EN"
 "http://www.w3.org/Graphics/SVG/1.1/DTD/svg11.dtd">
<!-- Generated by graphviz version 2.43.0 (0)
 -->
<!-- Title: InputInterface::isCalibrating Pages: 1 -->
<svg width="466pt" height="173pt"
 viewBox="0.00 0.00 466.00 173.00" xmlns="http://www.w3.org/2000/svg" xmlns:xlink="http://www.w3.org/1999/xlink">
<g id="graph0" class="graph" transform="scale(1 1) rotate(0) translate(4 169)">
<title>InputInterface::isCalibrating</title>
<polygon fill="white" stroke="transparent" points="-4,4 -4,-169 462,-169 462,4 -4,4"/>
<!-- Node1 -->
<g id="node1" class="node">
<title>Node1</title>
<g id="a_node1"><a xlink:title="Test if this InputInterface is undergoing calibration as required by touch screens.">
<polygon fill="#bfbfbf" stroke="black" points="306,-85.5 306,-104.5 458,-104.5 458,-85.5 306,-85.5"/>
<text text-anchor="middle" x="382" y="-92.5" font-family="Helvetica,sans-Serif" font-size="10.00">InputInterface::isCalibrating</text>
</a>
</g>
</g>
<!-- Node2 -->
<g id="node2" class="node">
<title>Node2</title>
<g id="a_node2"><a xlink:href="classMockButtonInput.html#a42ad0da1019fdaffafdb802110e4b8c5" target="_top" xlink:title=" ">
<polygon fill="white" stroke="black" points="88,-145.5 88,-164.5 270,-164.5 270,-145.5 88,-145.5"/>
<text text-anchor="middle" x="179" y="-152.5" font-family="Helvetica,sans-Serif" font-size="10.00">MockButtonInput::setIsCalibrating</text>
</a>
</g>
</g>
<!-- Node1&#45;&gt;Node2 -->
<g id="edge1" class="edge">
<title>Node1&#45;&gt;Node2</title>
<path fill="none" stroke="midnightblue" d="M348.46,-108.45C326.56,-117.14 296.87,-128.25 270,-136 257.73,-139.54 244.33,-142.73 231.72,-145.43"/>
<polygon fill="midnightblue" stroke="midnightblue" points="349.97,-111.61 357.94,-104.64 347.36,-105.12 349.97,-111.61"/>
</g>
<!-- Node3 -->
<g id="node3" class="node">
<title>Node3</title>
<g id="a_node3"><a xlink:href="classMockInput.html#a76b4c4850d8774d3e988df775177b847" target="_top" xlink:title=" ">
<polygon fill="white" stroke="black" points="104,-107.5 104,-126.5 254,-126.5 254,-107.5 104,-107.5"/>
<text text-anchor="middle" x="179" y="-114.5" font-family="Helvetica,sans-Serif" font-size="10.00">MockInput::setIsCalibrating</text>
</a>
</g>
</g>
<!-- Node1&#45;&gt;Node3 -->
<g id="edge2" class="edge">
<title>Node1&#45;&gt;Node3</title>
<path fill="none" stroke="midnightblue" d="M295.84,-104.32C281.94,-105.84 267.64,-107.41 254.04,-108.9"/>
<polygon fill="midnightblue" stroke="midnightblue" points="296.31,-107.79 305.87,-103.22 295.55,-100.83 296.31,-107.79"/>
</g>
<!-- Node4 -->
<g id="node4" class="node">
<title>Node4</title>
<g id="a_node4"><a xlink:href="classMockTouchScreenInput.html#aa1695790ef58c9a3681df59eaae9a522" target="_top" xlink:title=" ">
<polygon fill="white" stroke="black" points="115,-58 115,-88 243,-88 243,-58 115,-58"/>
<text text-anchor="start" x="123" y="-76" font-family="Helvetica,sans-Serif" font-size="10.00">MockTouchScreenInput</text>
<text text-anchor="middle" x="179" y="-65" font-family="Helvetica,sans-Serif" font-size="10.00">::setIsCalibrating</text>
</a>
</g>
</g>
<!-- Node1&#45;&gt;Node4 -->
<g id="edge3" class="edge">
<title>Node1&#45;&gt;Node4</title>
<path fill="none" stroke="midnightblue" d="M295.61,-85.65C278.03,-83.73 259.82,-81.74 243.2,-79.92"/>
<polygon fill="midnightblue" stroke="midnightblue" points="295.55,-89.17 305.87,-86.78 296.31,-82.21 295.55,-89.17"/>
</g>
<!-- Node5 -->
<g id="node5" class="node">
<title>Node5</title>
<g id="a_node5"><a xlink:href="classController.html#a7d04c17913f04f99429aa29fa8505484" target="_top" xlink:title="Processes all ongoing activities, monitoring streams, receiving user input, updates displays,...">
<polygon fill="white" stroke="black" points="127,-19.5 127,-38.5 231,-38.5 231,-19.5 127,-19.5"/>
<text text-anchor="middle" x="179" y="-26.5" font-family="Helvetica,sans-Serif" font-size="10.00">Controller::update</text>
</a>
</g>
</g>
<!-- Node1&#45;&gt;Node5 -->
<g id="edge4" class="edge">
<title>Node1&#45;&gt;Node5</title>
<path fill="none" stroke="midnightblue" d="M351.77,-81.24C329.69,-71.25 298.42,-57.97 270,-49 257.33,-45 243.42,-41.49 230.4,-38.58"/>
<polygon fill="midnightblue" stroke="midnightblue" points="350.39,-84.46 360.94,-85.44 353.3,-78.09 350.39,-84.46"/>
</g>
<!-- Node6 -->
<g id="node6" class="node">
<title>Node6</title>
<g id="a_node6"><a xlink:href="EX-Display_8ino.html#afe461d27b9c48d5921c00d521181f12f" target="_top" xlink:title="Main loop, simply calls controller&#45;&gt;update() to manage all interactions.">
<polygon fill="white" stroke="black" points="7,-38.5 7,-57.5 45,-57.5 45,-38.5 7,-38.5"/>
<text text-anchor="middle" x="26" y="-45.5" font-family="Helvetica,sans-Serif" font-size="10.00">loop</text>
</a>
</g>
</g>
<!-- Node5&#45;&gt;Node6 -->
<g id="edge5" class="edge">
<title>Node5&#45;&gt;Node6</title>
<path fill="none" stroke="midnightblue" d="M116.77,-36.7C91.01,-39.95 62.96,-43.48 45.19,-45.71"/>
<polygon fill="midnightblue" stroke="midnightblue" points="117.39,-40.15 126.88,-35.43 116.52,-33.21 117.39,-40.15"/>
</g>
<!-- Node7 -->
<g id="node7" class="node">
<title>Node7</title>
<g id="a_node7"><a xlink:href="test__Controller_8cpp.html#abb9ca06c0e9bafef1a891dd9d22bd84d" target="_top" xlink:title="Ensure update() method correctly calls the mock callback.">
<polygon fill="white" stroke="black" points="0,-0.5 0,-19.5 52,-19.5 52,-0.5 0,-0.5"/>
<text text-anchor="middle" x="26" y="-7.5" font-family="Helvetica,sans-Serif" font-size="10.00">TEST_F</text>
</a>
</g>
</g>
<!-- Node5&#45;&gt;Node7 -->
<g id="edge6" class="edge">
<title>Node5&#45;&gt;Node7</title>
<path fill="none" stroke="midnightblue" d="M116.67,-21.28C94.12,-18.45 69.83,-15.39 52.22,-13.17"/>
<polygon fill="midnightblue" stroke="midnightblue" points="116.52,-24.79 126.88,-22.57 117.39,-17.85 116.52,-24.79"/>
</g>
</g>
</svg>
