<?xml version="1.0" encoding="UTF-8" standalone="no"?>
<!DOCTYPE svg PUBLIC "-//W3C//DTD SVG 1.1//EN"
 "http://www.w3.org/Graphics/SVG/1.1/DTD/svg11.dtd">
<!-- Generated by graphviz version 2.43.0 (0)
 -->
<!-- Title: ScreenManager::getMaxScreenId Pages: 1 -->
<svg width="762pt" height="151pt"
 viewBox="0.00 0.00 762.00 151.00" xmlns="http://www.w3.org/2000/svg" xmlns:xlink="http://www.w3.org/1999/xlink">
<g id="graph0" class="graph" transform="scale(1 1) rotate(0) translate(4 147)">
<title>ScreenManager::getMaxScreenId</title>
<!-- Node1 -->
<g id="Node000001" class="node">
<title>Node1</title>
<g id="a_Node000001"><a xlink:title="Get the highest Screen ID in the list.">
<polygon fill="#999999" stroke="#666666" points="754,-83 577,-83 577,-64 754,-64 754,-83"/>
<text text-anchor="middle" x="665.5" y="-71" font-family="Helvetica,sans-Serif" font-size="10.00">ScreenManager::getMaxScreenId</text>
</a>
</g>
</g>
<!-- Node2 -->
<g id="Node000002" class="node">
<title>Node2</title>
<g id="a_Node000002"><a xlink:href="classScreenManager.html#a38890def1478514514341039b83299ef" target="_top" xlink:title="Get the next screen in the list (sorted by ID)">
<polygon fill="white" stroke="#666666" points="541,-143 371,-143 371,-124 541,-124 541,-143"/>
<text text-anchor="middle" x="456" y="-131" font-family="Helvetica,sans-Serif" font-size="10.00">ScreenManager::getNextScreen</text>
</a>
</g>
</g>
<!-- Node1&#45;&gt;Node2 -->
<g id="edge1_Node000001_Node000002" class="edge">
<title>Node1&#45;&gt;Node2</title>
<g id="a_edge1_Node000001_Node000002"><a xlink:title=" ">
<path fill="none" stroke="#63b8ff" d="M622.22,-85.89C598.38,-92.85 568.04,-101.7 541,-109.5 524.39,-114.29 505.91,-119.58 490.53,-123.96"/>
<polygon fill="#63b8ff" stroke="#63b8ff" points="623.39,-89.19 632.01,-83.02 621.43,-82.47 623.39,-89.19"/>
</a>
</g>
</g>
<!-- Node5 -->
<g id="Node000005" class="node">
<title>Node5</title>
<g id="a_Node000005"><a xlink:href="test__ScreenManager_8cpp.html#a339218e57c67512f1332ef94ac1b9fb8" target="_top" xlink:title="Validate that previous screen is a lower ID, and next is a higher ID, wrapping around the list.">
<polygon fill="white" stroke="#666666" points="280.5,-105 228.5,-105 228.5,-86 280.5,-86 280.5,-105"/>
<text text-anchor="middle" x="254.5" y="-93" font-family="Helvetica,sans-Serif" font-size="10.00">TEST_F</text>
</a>
</g>
</g>
<!-- Node1&#45;&gt;Node5 -->
<g id="edge10_Node000001_Node000005" class="edge">
<title>Node1&#45;&gt;Node5</title>
<g id="a_edge10_Node000001_Node000005"><a xlink:title=" ">
<path fill="none" stroke="#63b8ff" d="M566.63,-78.76C472.37,-83.83 336.14,-91.16 280.55,-94.15"/>
<polygon fill="#63b8ff" stroke="#63b8ff" points="566.96,-82.25 576.76,-78.22 566.59,-75.26 566.96,-82.25"/>
</a>
</g>
</g>
<!-- Node6 -->
<g id="Node000006" class="node">
<title>Node6</title>
<g id="a_Node000006"><a xlink:href="classScreenManager.html#a64ecbfb9232d4051a75ff5abea58ba6d" target="_top" xlink:title="Get the previous screen in the list (sorted by ID)">
<polygon fill="white" stroke="#666666" points="534,-67.5 378,-67.5 378,-37.5 534,-37.5 534,-67.5"/>
<text text-anchor="start" x="386" y="-55.5" font-family="Helvetica,sans-Serif" font-size="10.00">ScreenManager::getPrevious</text>
<text text-anchor="middle" x="456" y="-44.5" font-family="Helvetica,sans-Serif" font-size="10.00">Screen</text>
</a>
</g>
</g>
<!-- Node1&#45;&gt;Node6 -->
<g id="edge5_Node000001_Node000006" class="edge">
<title>Node1&#45;&gt;Node6</title>
<g id="a_edge5_Node000001_Node000006"><a xlink:title=" ">
<path fill="none" stroke="#63b8ff" d="M566.79,-63.61C555.85,-62.5 544.82,-61.39 534.19,-60.31"/>
<polygon fill="#63b8ff" stroke="#63b8ff" points="566.5,-67.1 576.8,-64.62 567.21,-60.14 566.5,-67.1"/>
</a>
</g>
</g>
<!-- Node8 -->
<g id="Node000008" class="node">
<title>Node8</title>
<g id="a_Node000008"><a xlink:href="test__ScreenManager_8cpp.html#ab5ada86d9042a1a62ed2251d66d84ef3" target="_top" xlink:title="Create a list of Screens with ScreenManager.">
<polygon fill="white" stroke="#666666" points="482,-19 430,-19 430,0 482,0 482,-19"/>
<text text-anchor="middle" x="456" y="-7" font-family="Helvetica,sans-Serif" font-size="10.00">TEST_F</text>
</a>
</g>
</g>
<!-- Node1&#45;&gt;Node8 -->
<g id="edge9_Node000001_Node000008" class="edge">
<title>Node1&#45;&gt;Node8</title>
<g id="a_edge9_Node000001_Node000008"><a xlink:title=" ">
<path fill="none" stroke="#63b8ff" d="M631.53,-60.19C606.87,-50.55 572.17,-37.66 541,-28.5 521.49,-22.76 499,-17.76 482.21,-14.33"/>
<polygon fill="#63b8ff" stroke="#63b8ff" points="630.53,-63.56 641.12,-63.97 633.1,-57.05 630.53,-63.56"/>
</a>
</g>
</g>
<!-- Node3 -->
<g id="Node000003" class="node">
<title>Node3</title>
<g id="a_Node000003"><a xlink:href="classController.html#aa981e303ca83593ffb34db49c7d73cc6" target="_top" xlink:title="Selects the next screen for the selected display.">
<polygon fill="white" stroke="#666666" points="335,-142 174,-142 174,-123 335,-123 335,-142"/>
<text text-anchor="middle" x="254.5" y="-130" font-family="Helvetica,sans-Serif" font-size="10.00">Controller::_selectNextScreen</text>
</a>
</g>
</g>
<!-- Node2&#45;&gt;Node3 -->
<g id="edge2_Node000002_Node000003" class="edge">
<title>Node2&#45;&gt;Node3</title>
<g id="a_edge2_Node000002_Node000003"><a xlink:title=" ">
<path fill="none" stroke="#63b8ff" d="M360.94,-133.03C352.36,-132.99 343.73,-132.94 335.29,-132.9"/>
<polygon fill="#63b8ff" stroke="#63b8ff" points="360.95,-136.53 370.97,-133.08 360.99,-129.53 360.95,-136.53"/>
</a>
</g>
</g>
<!-- Node2&#45;&gt;Node5 -->
<g id="edge4_Node000002_Node000005" class="edge">
<title>Node2&#45;&gt;Node5</title>
<g id="a_edge4_Node000002_Node000005"><a xlink:title=" ">
<path fill="none" stroke="#63b8ff" d="M394.91,-122.05C356.68,-114.77 309.17,-105.72 280.65,-100.29"/>
<polygon fill="#63b8ff" stroke="#63b8ff" points="394.44,-125.53 404.92,-123.96 395.75,-118.65 394.44,-125.53"/>
</a>
</g>
</g>
<!-- Node4 -->
<g id="Node000004" class="node">
<title>Node4</title>
<g id="a_Node000004"><a xlink:href="classController.html#af9c9f10320fb7770553156da4d164e64" target="_top" xlink:title="Method to implement to respond to an input action.">
<polygon fill="white" stroke="#666666" points="138,-102 0,-102 0,-83 138,-83 138,-102"/>
<text text-anchor="middle" x="69" y="-90" font-family="Helvetica,sans-Serif" font-size="10.00">Controller::onInputAction</text>
</a>
</g>
</g>
<!-- Node3&#45;&gt;Node4 -->
<g id="edge3_Node000003_Node000004" class="edge">
<title>Node3&#45;&gt;Node4</title>
<g id="a_edge3_Node000003_Node000004"><a xlink:title=" ">
<path fill="none" stroke="#63b8ff" d="M199.72,-120.78C172.31,-114.8 139.4,-107.63 113.59,-102"/>
<polygon fill="#63b8ff" stroke="#63b8ff" points="199.03,-124.21 209.55,-122.92 200.52,-117.37 199.03,-124.21"/>
</a>
</g>
</g>
<!-- Node6&#45;&gt;Node5 -->
<g id="edge8_Node000006_Node000005" class="edge">
<title>Node6&#45;&gt;Node5</title>
<g id="a_edge8_Node000006_Node000005"><a xlink:title=" ">
<path fill="none" stroke="#63b8ff" d="M375.35,-69.67C341.63,-76.94 304.71,-84.89 280.89,-90.03"/>
<polygon fill="#63b8ff" stroke="#63b8ff" points="376.19,-73.07 385.22,-67.54 374.71,-66.22 376.19,-73.07"/>
</a>
</g>
</g>
<!-- Node7 -->
<g id="Node000007" class="node">
<title>Node7</title>
<g id="a_Node000007"><a xlink:href="classController.html#a3e02f73e534a929849f981ec892b4f54" target="_top" xlink:title="Selects the previous screen for the selected display.">
<polygon fill="white" stroke="#666666" points="328,-67.5 181,-67.5 181,-37.5 328,-37.5 328,-67.5"/>
<text text-anchor="start" x="189" y="-55.5" font-family="Helvetica,sans-Serif" font-size="10.00">Controller::_selectPrevious</text>
<text text-anchor="middle" x="254.5" y="-44.5" font-family="Helvetica,sans-Serif" font-size="10.00">Screen</text>
</a>
</g>
</g>
<!-- Node6&#45;&gt;Node7 -->
<g id="edge6_Node000006_Node000007" class="edge">
<title>Node6&#45;&gt;Node7</title>
<g id="a_edge6_Node000006_Node000007"><a xlink:title=" ">
<path fill="none" stroke="#63b8ff" d="M367.82,-52.5C354.59,-52.5 341.06,-52.5 328.17,-52.5"/>
<polygon fill="#63b8ff" stroke="#63b8ff" points="367.87,-56 377.87,-52.5 367.87,-49 367.87,-56"/>
</a>
</g>
</g>
<!-- Node7&#45;&gt;Node4 -->
<g id="edge7_Node000007_Node000004" class="edge">
<title>Node7&#45;&gt;Node4</title>
<g id="a_edge7_Node000007_Node000004"><a xlink:title=" ">
<path fill="none" stroke="#63b8ff" d="M174.78,-69.66C153.83,-74.23 131.96,-78.99 113.65,-82.99"/>
<polygon fill="#63b8ff" stroke="#63b8ff" points="175.62,-73.06 184.65,-67.51 174.13,-66.22 175.62,-73.06"/>
</a>
</g>
</g>
</g>
</svg>
