<?xml version="1.0" encoding="UTF-8" standalone="no"?>
<!DOCTYPE svg PUBLIC "-//W3C//DTD SVG 1.1//EN"
 "http://www.w3.org/Graphics/SVG/1.1/DTD/svg11.dtd">
<!-- Generated by graphviz version 2.43.0 (0)
 -->
<!-- Title: ScreenManager::getMinScreenId Pages: 1 -->
<svg width="759pt" height="114pt"
 viewBox="0.00 0.00 759.00 113.50" xmlns="http://www.w3.org/2000/svg" xmlns:xlink="http://www.w3.org/1999/xlink">
<g id="graph0" class="graph" transform="scale(1 1) rotate(0) translate(4 109.5)">
<title>ScreenManager::getMinScreenId</title>
<!-- Node1 -->
<g id="Node000001" class="node">
<title>Node1</title>
<g id="a_Node000001"><a xlink:title="Get the lowest Screen ID in the list.">
<polygon fill="#999999" stroke="#666666" points="751,-67.5 577,-67.5 577,-48.5 751,-48.5 751,-67.5"/>
<text text-anchor="middle" x="664" y="-55.5" font-family="Helvetica,sans-Serif" font-size="10.00">ScreenManager::getMinScreenId</text>
</a>
</g>
</g>
<!-- Node2 -->
<g id="Node000002" class="node">
<title>Node2</title>
<g id="a_Node000002"><a xlink:href="classScreenManager.html#a38890def1478514514341039b83299ef" target="_top" xlink:title="Get the next screen in the list (sorted by ID)">
<polygon fill="white" stroke="#666666" points="541,-105.5 371,-105.5 371,-86.5 541,-86.5 541,-105.5"/>
<text text-anchor="middle" x="456" y="-93.5" font-family="Helvetica,sans-Serif" font-size="10.00">ScreenManager::getNextScreen</text>
</a>
</g>
</g>
<!-- Node1&#45;&gt;Node2 -->
<g id="edge1_Node000001_Node000002" class="edge">
<title>Node1&#45;&gt;Node2</title>
<g id="a_edge1_Node000001_Node000002"><a xlink:title=" ">
<path fill="none" stroke="#63b8ff" d="M601.1,-69.42C571.63,-74.86 536.78,-81.28 508.74,-86.46"/>
<polygon fill="#63b8ff" stroke="#63b8ff" points="602.08,-72.8 611.28,-67.54 600.81,-65.91 602.08,-72.8"/>
</a>
</g>
</g>
<!-- Node5 -->
<g id="Node000005" class="node">
<title>Node5</title>
<g id="a_Node000005"><a xlink:href="test__ScreenManager_8cpp.html#a339218e57c67512f1332ef94ac1b9fb8" target="_top" xlink:title="Validate that previous screen is a lower ID, and next is a higher ID, wrapping around the list.">
<polygon fill="white" stroke="#666666" points="280.5,-67.5 228.5,-67.5 228.5,-48.5 280.5,-48.5 280.5,-67.5"/>
<text text-anchor="middle" x="254.5" y="-55.5" font-family="Helvetica,sans-Serif" font-size="10.00">TEST_F</text>
</a>
</g>
</g>
<!-- Node1&#45;&gt;Node5 -->
<g id="edge9_Node000001_Node000005" class="edge">
<title>Node1&#45;&gt;Node5</title>
<g id="a_edge9_Node000001_Node000005"><a xlink:title=" ">
<path fill="none" stroke="#63b8ff" d="M566.49,-58C472.62,-58 336.26,-58 280.59,-58"/>
<polygon fill="#63b8ff" stroke="#63b8ff" points="566.58,-61.5 576.58,-58 566.58,-54.5 566.58,-61.5"/>
</a>
</g>
</g>
<!-- Node6 -->
<g id="Node000006" class="node">
<title>Node6</title>
<g id="a_Node000006"><a xlink:href="classScreenManager.html#a64ecbfb9232d4051a75ff5abea58ba6d" target="_top" xlink:title="Get the previous screen in the list (sorted by ID)">
<polygon fill="white" stroke="#666666" points="534,-30 378,-30 378,0 534,0 534,-30"/>
<text text-anchor="start" x="386" y="-18" font-family="Helvetica,sans-Serif" font-size="10.00">ScreenManager::getPrevious</text>
<text text-anchor="middle" x="456" y="-7" font-family="Helvetica,sans-Serif" font-size="10.00">Screen</text>
</a>
</g>
</g>
<!-- Node1&#45;&gt;Node6 -->
<g id="edge5_Node000001_Node000006" class="edge">
<title>Node1&#45;&gt;Node6</title>
<g id="a_edge5_Node000001_Node000006"><a xlink:title=" ">
<path fill="none" stroke="#63b8ff" d="M607.23,-46.36C583.11,-41.32 554.58,-35.37 528.89,-30.01"/>
<polygon fill="#63b8ff" stroke="#63b8ff" points="606.78,-49.84 617.28,-48.46 608.21,-42.99 606.78,-49.84"/>
</a>
</g>
</g>
<!-- Node3 -->
<g id="Node000003" class="node">
<title>Node3</title>
<g id="a_Node000003"><a xlink:href="classController.html#aa981e303ca83593ffb34db49c7d73cc6" target="_top" xlink:title="Selects the next screen for the selected display.">
<polygon fill="white" stroke="#666666" points="335,-104.5 174,-104.5 174,-85.5 335,-85.5 335,-104.5"/>
<text text-anchor="middle" x="254.5" y="-92.5" font-family="Helvetica,sans-Serif" font-size="10.00">Controller::_selectNextScreen</text>
</a>
</g>
</g>
<!-- Node2&#45;&gt;Node3 -->
<g id="edge2_Node000002_Node000003" class="edge">
<title>Node2&#45;&gt;Node3</title>
<g id="a_edge2_Node000002_Node000003"><a xlink:title=" ">
<path fill="none" stroke="#63b8ff" d="M360.94,-95.53C352.36,-95.49 343.73,-95.44 335.29,-95.4"/>
<polygon fill="#63b8ff" stroke="#63b8ff" points="360.95,-99.03 370.97,-95.58 360.99,-92.03 360.95,-99.03"/>
</a>
</g>
</g>
<!-- Node2&#45;&gt;Node5 -->
<g id="edge4_Node000002_Node000005" class="edge">
<title>Node2&#45;&gt;Node5</title>
<g id="a_edge4_Node000002_Node000005"><a xlink:title=" ">
<path fill="none" stroke="#63b8ff" d="M394.91,-84.55C356.68,-77.27 309.17,-68.22 280.65,-62.79"/>
<polygon fill="#63b8ff" stroke="#63b8ff" points="394.44,-88.03 404.92,-86.46 395.75,-81.15 394.44,-88.03"/>
</a>
</g>
</g>
<!-- Node4 -->
<g id="Node000004" class="node">
<title>Node4</title>
<g id="a_Node000004"><a xlink:href="classController.html#af9c9f10320fb7770553156da4d164e64" target="_top" xlink:title="Method to implement to respond to an input action.">
<polygon fill="white" stroke="#666666" points="138,-64.5 0,-64.5 0,-45.5 138,-45.5 138,-64.5"/>
<text text-anchor="middle" x="69" y="-52.5" font-family="Helvetica,sans-Serif" font-size="10.00">Controller::onInputAction</text>
</a>
</g>
</g>
<!-- Node3&#45;&gt;Node4 -->
<g id="edge3_Node000003_Node000004" class="edge">
<title>Node3&#45;&gt;Node4</title>
<g id="a_edge3_Node000003_Node000004"><a xlink:title=" ">
<path fill="none" stroke="#63b8ff" d="M199.72,-83.28C172.31,-77.3 139.4,-70.13 113.59,-64.5"/>
<polygon fill="#63b8ff" stroke="#63b8ff" points="199.03,-86.71 209.55,-85.42 200.52,-79.87 199.03,-86.71"/>
</a>
</g>
</g>
<!-- Node6&#45;&gt;Node5 -->
<g id="edge8_Node000006_Node000005" class="edge">
<title>Node6&#45;&gt;Node5</title>
<g id="a_edge8_Node000006_Node000005"><a xlink:title=" ">
<path fill="none" stroke="#63b8ff" d="M375.35,-32.17C341.63,-39.44 304.71,-47.39 280.89,-52.53"/>
<polygon fill="#63b8ff" stroke="#63b8ff" points="376.19,-35.57 385.22,-30.04 374.71,-28.72 376.19,-35.57"/>
</a>
</g>
</g>
<!-- Node7 -->
<g id="Node000007" class="node">
<title>Node7</title>
<g id="a_Node000007"><a xlink:href="classController.html#a3e02f73e534a929849f981ec892b4f54" target="_top" xlink:title="Selects the previous screen for the selected display.">
<polygon fill="white" stroke="#666666" points="328,-30 181,-30 181,0 328,0 328,-30"/>
<text text-anchor="start" x="189" y="-18" font-family="Helvetica,sans-Serif" font-size="10.00">Controller::_selectPrevious</text>
<text text-anchor="middle" x="254.5" y="-7" font-family="Helvetica,sans-Serif" font-size="10.00">Screen</text>
</a>
</g>
</g>
<!-- Node6&#45;&gt;Node7 -->
<g id="edge6_Node000006_Node000007" class="edge">
<title>Node6&#45;&gt;Node7</title>
<g id="a_edge6_Node000006_Node000007"><a xlink:title=" ">
<path fill="none" stroke="#63b8ff" d="M367.82,-15C354.59,-15 341.06,-15 328.17,-15"/>
<polygon fill="#63b8ff" stroke="#63b8ff" points="367.87,-18.5 377.87,-15 367.87,-11.5 367.87,-18.5"/>
</a>
</g>
</g>
<!-- Node7&#45;&gt;Node4 -->
<g id="edge7_Node000007_Node000004" class="edge">
<title>Node7&#45;&gt;Node4</title>
<g id="a_edge7_Node000007_Node000004"><a xlink:title=" ">
<path fill="none" stroke="#63b8ff" d="M174.78,-32.16C153.83,-36.73 131.96,-41.49 113.65,-45.49"/>
<polygon fill="#63b8ff" stroke="#63b8ff" points="175.62,-35.56 184.65,-30.01 174.13,-28.72 175.62,-35.56"/>
</a>
</g>
</g>
</g>
</svg>
