<?xml version="1.0" encoding="UTF-8" standalone="no"?>
<!DOCTYPE svg PUBLIC "-//W3C//DTD SVG 1.1//EN"
 "http://www.w3.org/Graphics/SVG/1.1/DTD/svg11.dtd">
<!-- Generated by graphviz version 2.43.0 (0)
 -->
<!-- Title: ScreenRow::getId Pages: 1 -->
<svg width="643pt" height="85pt"
 viewBox="0.00 0.00 643.00 85.00" xmlns="http://www.w3.org/2000/svg" xmlns:xlink="http://www.w3.org/1999/xlink">
<g id="graph0" class="graph" transform="scale(1 1) rotate(0) translate(4 81)">
<title>ScreenRow::getId</title>
<polygon fill="white" stroke="transparent" points="-4,4 -4,-81 639,-81 639,4 -4,4"/>
<!-- Node1 -->
<g id="node1" class="node">
<title>Node1</title>
<g id="a_node1"><a xlink:title="Get the ID of this ScreenRow.">
<polygon fill="#bfbfbf" stroke="black" points="534,-19.5 534,-38.5 635,-38.5 635,-19.5 534,-19.5"/>
<text text-anchor="middle" x="584.5" y="-26.5" font-family="Helvetica,sans-Serif" font-size="10.00">ScreenRow::getId</text>
</a>
</g>
</g>
<!-- Node2 -->
<g id="node2" class="node">
<title>Node2</title>
<g id="a_node2"><a xlink:href="classScreen.html#a43263117dfffa210ccd83b6cd12e0732" target="_top" xlink:title="Delete the specified ScreenRow and update the list accordingly.">
<polygon fill="white" stroke="black" points="352,-38.5 352,-57.5 498,-57.5 498,-38.5 352,-38.5"/>
<text text-anchor="middle" x="425" y="-45.5" font-family="Helvetica,sans-Serif" font-size="10.00">Screen::_deleteScreenRow</text>
</a>
</g>
</g>
<!-- Node1&#45;&gt;Node2 -->
<g id="edge1" class="edge">
<title>Node1&#45;&gt;Node2</title>
<path fill="none" stroke="midnightblue" d="M523.69,-36.21C515.37,-37.22 506.76,-38.26 498.24,-39.29"/>
<polygon fill="midnightblue" stroke="midnightblue" points="524.16,-39.68 533.67,-35.01 523.32,-32.73 524.16,-39.68"/>
</g>
<!-- Node6 -->
<g id="node6" class="node">
<title>Node6</title>
<g id="a_node6"><a xlink:href="test__ControllerScreenCreation_8cpp.html#a9b3c4848f918df987352646ef615b8bb" target="_top" xlink:title="Validates that the Controller&#45;&gt;updateScreen() method creates a screen and updates rows correctly.">
<polygon fill="white" stroke="black" points="399,-0.5 399,-19.5 451,-19.5 451,-0.5 399,-0.5"/>
<text text-anchor="middle" x="425" y="-7.5" font-family="Helvetica,sans-Serif" font-size="10.00">TEST_F</text>
</a>
</g>
</g>
<!-- Node1&#45;&gt;Node6 -->
<g id="edge5" class="edge">
<title>Node1&#45;&gt;Node6</title>
<path fill="none" stroke="midnightblue" d="M523.5,-21.76C498.48,-18.74 470.77,-15.4 451.31,-13.05"/>
<polygon fill="midnightblue" stroke="midnightblue" points="523.32,-25.27 533.67,-22.99 524.16,-18.32 523.32,-25.27"/>
</g>
<!-- Node3 -->
<g id="node3" class="node">
<title>Node3</title>
<g id="a_node3"><a xlink:href="classScreen.html#a0a9a3a713a63ef55e854841d07630556" target="_top" xlink:title="Update the specified ScreenRow, or create it if it doesn&#39;t exist This will automatically maintain the...">
<polygon fill="white" stroke="black" points="173,-38.5 173,-57.5 316,-57.5 316,-38.5 173,-38.5"/>
<text text-anchor="middle" x="244.5" y="-45.5" font-family="Helvetica,sans-Serif" font-size="10.00">Screen::updateScreenRow</text>
</a>
</g>
</g>
<!-- Node2&#45;&gt;Node3 -->
<g id="edge2" class="edge">
<title>Node2&#45;&gt;Node3</title>
<path fill="none" stroke="midnightblue" d="M341.87,-48C333.27,-48 324.58,-48 316.12,-48"/>
<polygon fill="midnightblue" stroke="midnightblue" points="341.91,-51.5 351.91,-48 341.91,-44.5 341.91,-51.5"/>
</g>
<!-- Node4 -->
<g id="node4" class="node">
<title>Node4</title>
<g id="a_node4"><a xlink:href="test__Screen_8cpp.html#a9da657726211d6af0e63eaab94ad162f" target="_top" xlink:title="Create a screen with associated row list and ensure rows are accessible by ID.">
<polygon fill="white" stroke="black" points="42.5,-57.5 42.5,-76.5 94.5,-76.5 94.5,-57.5 42.5,-57.5"/>
<text text-anchor="middle" x="68.5" y="-64.5" font-family="Helvetica,sans-Serif" font-size="10.00">TEST_F</text>
</a>
</g>
</g>
<!-- Node3&#45;&gt;Node4 -->
<g id="edge3" class="edge">
<title>Node3&#45;&gt;Node4</title>
<path fill="none" stroke="midnightblue" d="M162.84,-56.81C138.15,-59.5 112.79,-62.27 94.74,-64.24"/>
<polygon fill="midnightblue" stroke="midnightblue" points="163.42,-60.27 172.98,-55.7 162.66,-53.31 163.42,-60.27"/>
</g>
<!-- Node5 -->
<g id="node5" class="node">
<title>Node5</title>
<g id="a_node5"><a xlink:href="classController.html#a908f5f6c24239286e29d4761da509963" target="_top" xlink:title="Method to implement updating a screen.">
<polygon fill="white" stroke="black" points="0,-19.5 0,-38.5 137,-38.5 137,-19.5 0,-19.5"/>
<text text-anchor="middle" x="68.5" y="-26.5" font-family="Helvetica,sans-Serif" font-size="10.00">Controller::updateScreen</text>
</a>
</g>
</g>
<!-- Node3&#45;&gt;Node5 -->
<g id="edge4" class="edge">
<title>Node3&#45;&gt;Node5</title>
<path fill="none" stroke="midnightblue" d="M162.88,-39.2C154.23,-38.25 145.5,-37.3 137.02,-36.37"/>
<polygon fill="midnightblue" stroke="midnightblue" points="162.66,-42.69 172.98,-40.3 163.42,-35.73 162.66,-42.69"/>
</g>
</g>
</svg>
