<?xml version="1.0" encoding="UTF-8" standalone="no"?>
<!DOCTYPE svg PUBLIC "-//W3C//DTD SVG 1.1//EN"
 "http://www.w3.org/Graphics/SVG/1.1/DTD/svg11.dtd">
<!-- Generated by graphviz version 2.43.0 (0)
 -->
<!-- Title: DisplayManager::_deselectSPIDisplay Pages: 1 -->
<svg width="612pt" height="161pt"
 viewBox="0.00 0.00 612.00 161.00" xmlns="http://www.w3.org/2000/svg" xmlns:xlink="http://www.w3.org/1999/xlink">
<g id="graph0" class="graph" transform="scale(1 1) rotate(0) translate(4 157)">
<title>DisplayManager::_deselectSPIDisplay</title>
<polygon fill="white" stroke="transparent" points="-4,4 -4,-157 608,-157 608,4 -4,4"/>
<!-- Node1 -->
<g id="node1" class="node">
<title>Node1</title>
<g id="a_node1"><a xlink:title="Manually deselects SPI displays that require manual selecting via the CS pin &#45; sets pin high.">
<polygon fill="#bfbfbf" stroke="black" points="455,-52 455,-82 604,-82 604,-52 455,-52"/>
<text text-anchor="start" x="463" y="-70" font-family="Helvetica,sans-Serif" font-size="10.00">DisplayManager::_deselect</text>
<text text-anchor="middle" x="529.5" y="-59" font-family="Helvetica,sans-Serif" font-size="10.00">SPIDisplay</text>
</a>
</g>
</g>
<!-- Node2 -->
<g id="node2" class="node">
<title>Node2</title>
<g id="a_node2"><a xlink:href="classDisplayManager.html#aa0e0e26134a34beeb30e27c00b8e829f" target="_top" xlink:title="Calls the displayStartupInfo of all Display instances to display the version.">
<polygon fill="white" stroke="black" points="228,-95.5 228,-114.5 419,-114.5 419,-95.5 228,-95.5"/>
<text text-anchor="middle" x="323.5" y="-102.5" font-family="Helvetica,sans-Serif" font-size="10.00">DisplayManager::displayStartupInfo</text>
</a>
</g>
</g>
<!-- Node1&#45;&gt;Node2 -->
<g id="edge1" class="edge">
<title>Node1&#45;&gt;Node2</title>
<path fill="none" stroke="midnightblue" d="M444.9,-82.57C421.44,-86.94 396.64,-91.56 375.68,-95.47"/>
<polygon fill="midnightblue" stroke="midnightblue" points="445.66,-85.99 454.85,-80.72 444.38,-79.11 445.66,-85.99"/>
</g>
<!-- Node8 -->
<g id="node6" class="node">
<title>Node8</title>
<g id="a_node6"><a xlink:href="classDisplayManager.html#a270daf83b6af22558fde42034254b351" target="_top" xlink:title="Call the begin() method for all associated Display instances.">
<polygon fill="white" stroke="black" points="240,-57.5 240,-76.5 407,-76.5 407,-57.5 240,-57.5"/>
<text text-anchor="middle" x="323.5" y="-64.5" font-family="Helvetica,sans-Serif" font-size="10.00">DisplayManager::startDisplays</text>
</a>
</g>
</g>
<!-- Node1&#45;&gt;Node8 -->
<g id="edge5" class="edge">
<title>Node1&#45;&gt;Node8</title>
<path fill="none" stroke="midnightblue" d="M444.55,-67C432.15,-67 419.4,-67 407.03,-67"/>
<polygon fill="midnightblue" stroke="midnightblue" points="444.85,-70.5 454.85,-67 444.85,-63.5 444.85,-70.5"/>
</g>
<!-- Node10 -->
<g id="node8" class="node">
<title>Node10</title>
<g id="a_node8"><a xlink:href="classDisplayManager.html#ad53dcac2e939893727d27187524733c6" target="_top" xlink:title="Call this routinely to ensure all displays are updated with screens.">
<polygon fill="white" stroke="black" points="255.5,-19.5 255.5,-38.5 391.5,-38.5 391.5,-19.5 255.5,-19.5"/>
<text text-anchor="middle" x="323.5" y="-26.5" font-family="Helvetica,sans-Serif" font-size="10.00">DisplayManager::update</text>
</a>
</g>
</g>
<!-- Node1&#45;&gt;Node10 -->
<g id="edge8" class="edge">
<title>Node1&#45;&gt;Node10</title>
<path fill="none" stroke="midnightblue" d="M444.9,-51.43C421.44,-47.06 396.64,-42.44 375.68,-38.53"/>
<polygon fill="midnightblue" stroke="midnightblue" points="444.38,-54.89 454.85,-53.28 445.66,-48.01 444.38,-54.89"/>
</g>
<!-- Node3 -->
<g id="node3" class="node">
<title>Node3</title>
<g id="a_node3"><a xlink:href="classController.html#a1cc0b87ab9e07d21ab47d294aa5bf607" target="_top" xlink:title="Call once to start displays and input.">
<polygon fill="white" stroke="black" points="91,-95.5 91,-114.5 189,-114.5 189,-95.5 91,-95.5"/>
<text text-anchor="middle" x="140" y="-102.5" font-family="Helvetica,sans-Serif" font-size="10.00">Controller::begin</text>
</a>
</g>
</g>
<!-- Node2&#45;&gt;Node3 -->
<g id="edge2" class="edge">
<title>Node2&#45;&gt;Node3</title>
<path fill="none" stroke="midnightblue" d="M217.75,-105C207.79,-105 198.06,-105 189.06,-105"/>
<polygon fill="midnightblue" stroke="midnightblue" points="217.76,-108.5 227.76,-105 217.76,-101.5 217.76,-108.5"/>
</g>
<!-- Node7 -->
<g id="node5" class="node">
<title>Node7</title>
<g id="a_node5"><a xlink:href="test__DisplayManager_8cpp.html#ad108e01a79b7f75a831a955e93bb9176" target="_top" xlink:title="Validate the displayStartupInfo() method correct calls all display methods.">
<polygon fill="white" stroke="black" points="114,-133.5 114,-152.5 166,-152.5 166,-133.5 114,-133.5"/>
<text text-anchor="middle" x="140" y="-140.5" font-family="Helvetica,sans-Serif" font-size="10.00">TEST_F</text>
</a>
</g>
</g>
<!-- Node2&#45;&gt;Node7 -->
<g id="edge4" class="edge">
<title>Node2&#45;&gt;Node7</title>
<path fill="none" stroke="midnightblue" d="M266.54,-116.72C232.96,-123.75 191.89,-132.34 166.08,-137.75"/>
<polygon fill="midnightblue" stroke="midnightblue" points="267.63,-120.06 276.7,-114.59 266.19,-113.21 267.63,-120.06"/>
</g>
<!-- Node4 -->
<g id="node4" class="node">
<title>Node4</title>
<g id="a_node4"><a xlink:href="EX-Display_8ino.html#a4fc01d736fe50cf5b977f755b675f11d" target="_top" xlink:title="Main setup method, initialise Configurator here.">
<polygon fill="white" stroke="red" points="4,-95.5 4,-114.5 48,-114.5 48,-95.5 4,-95.5"/>
<text text-anchor="middle" x="26" y="-102.5" font-family="Helvetica,sans-Serif" font-size="10.00">setup</text>
</a>
</g>
</g>
<!-- Node3&#45;&gt;Node4 -->
<g id="edge3" class="edge">
<title>Node3&#45;&gt;Node4</title>
<path fill="none" stroke="midnightblue" d="M80.63,-105C68.98,-105 57.47,-105 48.12,-105"/>
<polygon fill="midnightblue" stroke="midnightblue" points="80.85,-108.5 90.85,-105 80.85,-101.5 80.85,-108.5"/>
</g>
<!-- Node8&#45;&gt;Node3 -->
<g id="edge6" class="edge">
<title>Node8&#45;&gt;Node3</title>
<path fill="none" stroke="midnightblue" d="M264.43,-78.52C252.38,-80.95 239.77,-83.53 228,-86 213.63,-89.01 197.94,-92.41 183.89,-95.48"/>
<polygon fill="midnightblue" stroke="midnightblue" points="265.28,-81.92 274.39,-76.51 263.9,-75.05 265.28,-81.92"/>
</g>
<!-- Node9 -->
<g id="node7" class="node">
<title>Node9</title>
<g id="a_node7"><a xlink:href="test__CompilerCreation_8cpp.html#a484c00ac396e82066ad78a3641a34a4f" target="_top" xlink:title="Ensure devices are created and all attributes are valid.">
<polygon fill="white" stroke="black" points="114,-57.5 114,-76.5 166,-76.5 166,-57.5 114,-57.5"/>
<text text-anchor="middle" x="140" y="-64.5" font-family="Helvetica,sans-Serif" font-size="10.00">TEST_F</text>
</a>
</g>
</g>
<!-- Node8&#45;&gt;Node9 -->
<g id="edge7" class="edge">
<title>Node8&#45;&gt;Node9</title>
<path fill="none" stroke="midnightblue" d="M229.91,-67C206.4,-67 183.04,-67 166.18,-67"/>
<polygon fill="midnightblue" stroke="midnightblue" points="229.98,-70.5 239.98,-67 229.98,-63.5 229.98,-70.5"/>
</g>
<!-- Node11 -->
<g id="node9" class="node">
<title>Node11</title>
<g id="a_node9"><a xlink:href="classController.html#a7d04c17913f04f99429aa29fa8505484" target="_top" xlink:title="Processes all ongoing activities, monitoring streams, receiving user input, updates displays,...">
<polygon fill="white" stroke="black" points="88,-19.5 88,-38.5 192,-38.5 192,-19.5 88,-19.5"/>
<text text-anchor="middle" x="140" y="-26.5" font-family="Helvetica,sans-Serif" font-size="10.00">Controller::update</text>
</a>
</g>
</g>
<!-- Node10&#45;&gt;Node11 -->
<g id="edge9" class="edge">
<title>Node10&#45;&gt;Node11</title>
<path fill="none" stroke="midnightblue" d="M245.27,-29C227.33,-29 208.68,-29 192.19,-29"/>
<polygon fill="midnightblue" stroke="midnightblue" points="245.43,-32.5 255.43,-29 245.43,-25.5 245.43,-32.5"/>
</g>
<!-- Node12 -->
<g id="node10" class="node">
<title>Node12</title>
<g id="a_node10"><a xlink:href="EX-Display_8ino.html#afe461d27b9c48d5921c00d521181f12f" target="_top" xlink:title="Main loop, simply calls controller&#45;&gt;update() to manage all interactions.">
<polygon fill="white" stroke="black" points="7,-38.5 7,-57.5 45,-57.5 45,-38.5 7,-38.5"/>
<text text-anchor="middle" x="26" y="-45.5" font-family="Helvetica,sans-Serif" font-size="10.00">loop</text>
</a>
</g>
</g>
<!-- Node11&#45;&gt;Node12 -->
<g id="edge10" class="edge">
<title>Node11&#45;&gt;Node12</title>
<path fill="none" stroke="midnightblue" d="M77.82,-39.38C65.84,-41.41 54.17,-43.39 45.05,-44.94"/>
<polygon fill="midnightblue" stroke="midnightblue" points="78.64,-42.79 87.92,-37.67 77.47,-35.89 78.64,-42.79"/>
</g>
<!-- Node13 -->
<g id="node11" class="node">
<title>Node13</title>
<g id="a_node11"><a xlink:href="test__Controller_8cpp.html#abb9ca06c0e9bafef1a891dd9d22bd84d" target="_top" xlink:title="Ensure update() method correctly calls the mock callback.">
<polygon fill="white" stroke="black" points="0,-0.5 0,-19.5 52,-19.5 52,-0.5 0,-0.5"/>
<text text-anchor="middle" x="26" y="-7.5" font-family="Helvetica,sans-Serif" font-size="10.00">TEST_F</text>
</a>
</g>
</g>
<!-- Node11&#45;&gt;Node13 -->
<g id="edge11" class="edge">
<title>Node11&#45;&gt;Node13</title>
<path fill="none" stroke="midnightblue" d="M77.96,-18.65C68.81,-17.09 59.84,-15.57 52.04,-14.25"/>
<polygon fill="midnightblue" stroke="midnightblue" points="77.47,-22.11 87.92,-20.33 78.64,-15.21 77.47,-22.11"/>
</g>
</g>
</svg>
