<?xml version="1.0" encoding="UTF-8" standalone="no"?>
<!DOCTYPE svg PUBLIC "-//W3C//DTD SVG 1.1//EN"
 "http://www.w3.org/Graphics/SVG/1.1/DTD/svg11.dtd">
<!-- Generated by graphviz version 2.43.0 (0)
 -->
<!-- Title: DisplayInterface::getNext Pages: 1 -->
<!--zoomable 396 -->
<svg id="main" version="1.1" xmlns="http://www.w3.org/2000/svg" xmlns:xlink="http://www.w3.org/1999/xlink" xml:space="preserve" onload="init(evt)">
<style type="text/css"><![CDATA[
.edge:hover path { stroke: red; }
.edge:hover polygon { stroke: red; fill: red; }
]]></style>
<script type="text/javascript"><![CDATA[
var edges = document.getElementsByTagName('g');
if (edges && edges.length) {
  for (var i=0;i<edges.length;i++) {
    if (edges[i].id.substr(0,4)=='edge') {
      edges[i].setAttribute('class','edge');
    }
  }
}
]]></script>
        <defs>
                <circle id="rim" cx="0" cy="0" r="7"/>
                <circle id="rim2" cx="0" cy="0" r="3.5"/>
                <g id="zoomPlus">
                        <use xlink:href="#rim" fill="#404040">
                                <set attributeName="fill" to="#808080" begin="zoomplus.mouseover" end="zoomplus.mouseout"/>
                        </use>
                        <path d="M-4,0h8M0,-4v8" fill="none" stroke="white" stroke-width="1.5" pointer-events="none"/>
                </g>
                <g id="zoomMin">
                        <use xlink:href="#rim" fill="#404040">
                                <set attributeName="fill" to="#808080" begin="zoomminus.mouseover" end="zoomminus.mouseout"/>
                        </use>
                        <path d="M-4,0h8" fill="none" stroke="white" stroke-width="1.5" pointer-events="none"/>
                </g>
                <g id="dirArrow">
                        <path fill="none" stroke="white" stroke-width="1.5" d="M0,-3.0v7 M-2.5,-0.5L0,-3.0L2.5,-0.5"/>
                </g>
               <g id="resetDef">
                       <use xlink:href="#rim2" fill="#404040">
                               <set attributeName="fill" to="#808080" begin="reset.mouseover" end="reset.mouseout"/>
                       </use>
               </g>
        </defs>

<script type="text/javascript">
var viewWidth = 850;
var viewHeight = 396;
var sectionId = 'dynsection-6';
</script>
<script xlink:href="svgpan.js"/>
<svg id="graph" class="graph">
<g id="viewport">
<title>DisplayInterface::getNext</title>
<polygon fill="white" stroke="transparent" points="-4,4 -4,-392.13 846,-392.13 846,4 -4,4"/>
<!-- Node1 -->
<g id="node1" class="node">
<title>Node1</title>
<g id="a_node1"><a xlink:title="Get the next DisplayInterface derived instance in the list.">
<polygon fill="#bfbfbf" stroke="black" points="700,-192 700,-211 842,-211 842,-192 700,-192"/>
<text text-anchor="middle" x="771" y="-199" font-family="Helvetica,sans-Serif" font-size="10.00">DisplayInterface::getNext</text>
</a>
</g>
</g>
<!-- Node2 -->
<g id="node2" class="node">
<title>Node2</title>
<g id="a_node2"><a xlink:href="classDisplayManager.html#abcac9213f163018979f2a226ecf53882" target="_top" xlink:title="Manually selects SPI displays that require manual selecting via the CS pin &#45; sets pin low.">
<polygon fill="white" stroke="black" points="476,-328 476,-347 664,-347 664,-328 476,-328"/>
<text text-anchor="middle" x="570" y="-335" font-family="Helvetica,sans-Serif" font-size="10.00">DisplayManager::_selectSPIDisplay</text>
</a>
</g>
</g>
<!-- Node1&#45;&gt;Node2 -->
<g id="edge1" class="edge">
<title>Node1&#45;&gt;Node2</title>
<path fill="none" stroke="midnightblue" d="M757.98,-219.52C740.35,-244.49 705.1,-289.27 664,-313.5 653.23,-319.85 640.78,-324.54 628.57,-328"/>
<polygon fill="midnightblue" stroke="midnightblue" points="761.05,-221.22 763.84,-211 755.29,-217.25 761.05,-221.22"/>
</g>
<!-- Node3 -->
<g id="node3" class="node">
<title>Node3</title>
<g id="a_node3"><a xlink:href="classDisplayManager.html#ac007625bc3dc91b4a7f22238226f37ea" target="_top" xlink:title="Clear all displays.">
<polygon fill="white" stroke="black" points="275,-303.5 275,-333.5 414,-333.5 414,-303.5 275,-303.5"/>
<text text-anchor="start" x="283" y="-321.5" font-family="Helvetica,sans-Serif" font-size="10.00">DisplayManager::clearAll</text>
<text text-anchor="middle" x="344.5" y="-310.5" font-family="Helvetica,sans-Serif" font-size="10.00">Displays</text>
</a>
</g>
</g>
<!-- Node1&#45;&gt;Node3 -->
<g id="edge16" class="edge">
<title>Node1&#45;&gt;Node3</title>
<path fill="none" stroke="midnightblue" d="M740.34,-215.39C719.36,-224.82 690.38,-237.07 664,-245.5 579.43,-272.53 479.23,-293.79 414.12,-306.24"/>
<polygon fill="midnightblue" stroke="midnightblue" points="742.01,-218.47 749.67,-211.15 739.11,-212.1 742.01,-218.47"/>
</g>
<!-- Node7 -->
<g id="node5" class="node">
<title>Node7</title>
<g id="a_node5"><a xlink:href="classDisplayManager.html#aa0e0e26134a34beeb30e27c00b8e829f" target="_top" xlink:title="Calls the displayStartupInfo of all Display instances to display the version.">
<polygon fill="white" stroke="black" points="249,-252 249,-271 440,-271 440,-252 249,-252"/>
<text text-anchor="middle" x="344.5" y="-259" font-family="Helvetica,sans-Serif" font-size="10.00">DisplayManager::displayStartupInfo</text>
</a>
</g>
</g>
<!-- Node1&#45;&gt;Node7 -->
<g id="edge17" class="edge">
<title>Node1&#45;&gt;Node7</title>
<path fill="none" stroke="midnightblue" d="M706.18,-212.73C692.29,-215.07 677.66,-217.44 664,-219.5 582.24,-231.83 488.36,-243.96 423.82,-251.99"/>
<polygon fill="midnightblue" stroke="midnightblue" points="706.86,-216.17 716.14,-211.04 705.69,-209.26 706.86,-216.17"/>
</g>
<!-- Node13 -->
<g id="node9" class="node">
<title>Node13</title>
<g id="a_node9"><a xlink:href="classDisplayManager.html#ad53dcac2e939893727d27187524733c6" target="_top" xlink:title="Call this routinely to ensure all displays are updated with screens.">
<polygon fill="white" stroke="black" points="276.5,-353 276.5,-372 412.5,-372 412.5,-353 276.5,-353"/>
<text text-anchor="middle" x="344.5" y="-360" font-family="Helvetica,sans-Serif" font-size="10.00">DisplayManager::update</text>
</a>
</g>
</g>
<!-- Node1&#45;&gt;Node13 -->
<g id="edge25" class="edge">
<title>Node1&#45;&gt;Node13</title>
<path fill="none" stroke="midnightblue" d="M763.45,-221.01C750.63,-255.65 718.62,-327.02 664,-356.5 572.75,-405.75 444.31,-386.08 382.11,-372.02"/>
<polygon fill="midnightblue" stroke="midnightblue" points="766.9,-221.75 766.94,-211.16 760.3,-219.41 766.9,-221.75"/>
</g>
<!-- Node14 -->
<g id="node10" class="node">
<title>Node14</title>
<g id="a_node10"><a xlink:href="classDisplayManager.html#a33f6184fa8292c66a6cd2f05f264ef0f" target="_top" xlink:title="Set the chip select pin state for all displays that have it set and select them.">
<polygon fill="white" stroke="black" points="496.5,-164.5 496.5,-194.5 643.5,-194.5 643.5,-164.5 496.5,-164.5"/>
<text text-anchor="start" x="504.5" y="-182.5" font-family="Helvetica,sans-Serif" font-size="10.00">DisplayManager::_setupAll</text>
<text text-anchor="middle" x="570" y="-171.5" font-family="Helvetica,sans-Serif" font-size="10.00">SPICSPins</text>
</a>
</g>
</g>
<!-- Node1&#45;&gt;Node14 -->
<g id="edge10" class="edge">
<title>Node1&#45;&gt;Node14</title>
<path fill="none" stroke="midnightblue" d="M689.88,-192.64C674.57,-190.95 658.62,-189.19 643.56,-187.52"/>
<polygon fill="midnightblue" stroke="midnightblue" points="689.52,-196.12 699.84,-193.74 690.29,-189.17 689.52,-196.12"/>
</g>
<!-- Node15 -->
<g id="node11" class="node">
<title>Node15</title>
<g id="a_node11"><a xlink:href="classDisplayManager.html#a270daf83b6af22558fde42034254b351" target="_top" xlink:title="Call the begin() method for all associated Display instances.">
<polygon fill="white" stroke="black" points="261,-170 261,-189 428,-189 428,-170 261,-170"/>
<text text-anchor="middle" x="344.5" y="-177" font-family="Helvetica,sans-Serif" font-size="10.00">DisplayManager::startDisplays</text>
</a>
</g>
</g>
<!-- Node1&#45;&gt;Node15 -->
<g id="edge23" class="edge">
<title>Node1&#45;&gt;Node15</title>
<path fill="none" stroke="midnightblue" d="M689.72,-203.17C681.04,-203.31 672.33,-203.42 664,-203.5 580.45,-204.29 559.21,-211.09 476,-203.5 445.83,-200.75 412.22,-194.49 386.67,-189.06"/>
<polygon fill="midnightblue" stroke="midnightblue" points="689.93,-206.67 699.87,-203.01 689.81,-199.67 689.93,-206.67"/>
</g>
<!-- Node16 -->
<g id="node12" class="node">
<title>Node16</title>
<g id="a_node12"><a xlink:href="test__CompilerCreation_8cpp.html#a484c00ac396e82066ad78a3641a34a4f" target="_top" xlink:title="Ensure devices are created and all attributes are valid.">
<polygon fill="white" stroke="black" points="124.5,-126 124.5,-145 176.5,-145 176.5,-126 124.5,-126"/>
<text text-anchor="middle" x="150.5" y="-133" font-family="Helvetica,sans-Serif" font-size="10.00">TEST_F</text>
</a>
</g>
</g>
<!-- Node1&#45;&gt;Node16 -->
<g id="edge24" class="edge">
<title>Node1&#45;&gt;Node16</title>
<path fill="none" stroke="midnightblue" d="M744.94,-187.11C724.04,-175.93 693.08,-161.22 664,-154.5 481.18,-112.23 252.03,-126.68 176.74,-133.11"/>
<polygon fill="midnightblue" stroke="midnightblue" points="743.34,-190.23 753.79,-191.96 746.71,-184.09 743.34,-190.23"/>
</g>
<!-- Node17 -->
<g id="node13" class="node">
<title>Node17</title>
<g id="a_node13"><a xlink:href="classDisplayManager.html#a14afc225d393f7224bfa0474338d39f3" target="_top" xlink:title="Add a DisplayInterface derived instance to the list of displays.">
<polygon fill="white" stroke="black" points="491.5,-50 491.5,-69 648.5,-69 648.5,-50 491.5,-50"/>
<text text-anchor="middle" x="570" y="-57" font-family="Helvetica,sans-Serif" font-size="10.00">DisplayManager::addDisplay</text>
</a>
</g>
</g>
<!-- Node1&#45;&gt;Node17 -->
<g id="edge14" class="edge">
<title>Node1&#45;&gt;Node17</title>
<path fill="none" stroke="midnightblue" d="M758.7,-183.24C741.52,-157.06 706.35,-109.21 664,-83.5 653.6,-77.18 641.56,-72.52 629.68,-69.07"/>
<polygon fill="midnightblue" stroke="midnightblue" points="755.85,-185.28 764.19,-191.82 761.74,-181.51 755.85,-185.28"/>
</g>
<!-- Node19 -->
<g id="node15" class="node">
<title>Node19</title>
<g id="a_node15"><a xlink:href="classDisplayManager.html#a0dcf69d16599029ba34bf31c0c666390" target="_top" xlink:title="Get a DisplayInterface derived instance by its ID.">
<polygon fill="white" stroke="black" points="256.5,-88 256.5,-107 432.5,-107 432.5,-88 256.5,-88"/>
<text text-anchor="middle" x="344.5" y="-95" font-family="Helvetica,sans-Serif" font-size="10.00">DisplayManager::getDisplayById</text>
</a>
</g>
</g>
<!-- Node1&#45;&gt;Node19 -->
<g id="edge18" class="edge">
<title>Node1&#45;&gt;Node19</title>
<path fill="none" stroke="midnightblue" d="M754.14,-184.74C734.87,-165.63 700.4,-135.24 664,-121.5 589.55,-93.4 498.49,-89.27 432.83,-91.05"/>
<polygon fill="midnightblue" stroke="midnightblue" points="751.7,-187.25 761.2,-191.93 756.69,-182.35 751.7,-187.25"/>
</g>
<!-- Node22 -->
<g id="node18" class="node">
<title>Node22</title>
<g id="a_node18"><a xlink:href="classDisplayManager.html#ae4c9d79e08490e64602cf562a16d8834" target="_top" xlink:title="Destructor for the DisplayManager.">
<polygon fill="white" stroke="black" points="496.5,-0.5 496.5,-30.5 643.5,-30.5 643.5,-0.5 496.5,-0.5"/>
<text text-anchor="start" x="504.5" y="-18.5" font-family="Helvetica,sans-Serif" font-size="10.00">DisplayManager::~Display</text>
<text text-anchor="middle" x="570" y="-7.5" font-family="Helvetica,sans-Serif" font-size="10.00">Manager</text>
</a>
</g>
</g>
<!-- Node1&#45;&gt;Node22 -->
<g id="edge26" class="edge">
<title>Node1&#45;&gt;Node22</title>
<path fill="none" stroke="midnightblue" d="M762.66,-182.07C748.79,-148.01 715.41,-77.63 664,-40.5 657.9,-36.09 651.07,-32.47 643.96,-29.48"/>
<polygon fill="midnightblue" stroke="midnightblue" points="759.56,-183.74 766.48,-191.76 766.07,-181.17 759.56,-183.74"/>
</g>
<!-- Node2&#45;&gt;Node3 -->
<g id="edge2" class="edge">
<title>Node2&#45;&gt;Node3</title>
<path fill="none" stroke="midnightblue" d="M465.64,-328.71C448.24,-327.23 430.58,-325.73 414.34,-324.35"/>
<polygon fill="midnightblue" stroke="midnightblue" points="465.57,-332.22 475.83,-329.58 466.17,-325.25 465.57,-332.22"/>
</g>
<!-- Node2&#45;&gt;Node7 -->
<g id="edge4" class="edge">
<title>Node2&#45;&gt;Node7</title>
<path fill="none" stroke="midnightblue" d="M531.08,-324.61C486.46,-309.43 413.42,-284.6 373.58,-271.05"/>
<polygon fill="midnightblue" stroke="midnightblue" points="530.1,-327.97 540.69,-327.87 532.35,-321.34 530.1,-327.97"/>
</g>
<!-- Node2&#45;&gt;Node13 -->
<g id="edge8" class="edge">
<title>Node2&#45;&gt;Node13</title>
<path fill="none" stroke="midnightblue" d="M473.84,-348.14C453.26,-350.45 431.92,-352.83 412.68,-354.99"/>
<polygon fill="midnightblue" stroke="midnightblue" points="474.32,-351.61 483.87,-347.02 473.54,-344.66 474.32,-351.61"/>
</g>
<!-- Node4 -->
<g id="node4" class="node">
<title>Node4</title>
<g id="a_node4"><a xlink:href="classController.html#a7d04c17913f04f99429aa29fa8505484" target="_top" xlink:title="Processes all ongoing activities, monitoring streams, receiving user input, updates displays,...">
<polygon fill="white" stroke="red" points="98.5,-331 98.5,-350 202.5,-350 202.5,-331 98.5,-331"/>
<text text-anchor="middle" x="150.5" y="-338" font-family="Helvetica,sans-Serif" font-size="10.00">Controller::update</text>
</a>
</g>
</g>
<!-- Node3&#45;&gt;Node4 -->
<g id="edge3" class="edge">
<title>Node3&#45;&gt;Node4</title>
<path fill="none" stroke="midnightblue" d="M264.83,-327.51C243.89,-329.91 221.82,-332.44 202.77,-334.63"/>
<polygon fill="midnightblue" stroke="midnightblue" points="265.46,-330.97 275,-326.35 264.66,-324.01 265.46,-330.97"/>
</g>
<!-- Node8 -->
<g id="node6" class="node">
<title>Node8</title>
<g id="a_node6"><a xlink:href="classController.html#a1cc0b87ab9e07d21ab47d294aa5bf607" target="_top" xlink:title="Call once to start displays and input.">
<polygon fill="white" stroke="black" points="101.5,-170 101.5,-189 199.5,-189 199.5,-170 101.5,-170"/>
<text text-anchor="middle" x="150.5" y="-177" font-family="Helvetica,sans-Serif" font-size="10.00">Controller::begin</text>
</a>
</g>
</g>
<!-- Node7&#45;&gt;Node8 -->
<g id="edge5" class="edge">
<title>Node7&#45;&gt;Node8</title>
<path fill="none" stroke="midnightblue" d="M311.8,-247.96C272.85,-231.33 207.78,-203.54 173.76,-189.01"/>
<polygon fill="midnightblue" stroke="midnightblue" points="310.53,-251.22 321.1,-251.93 313.28,-244.79 310.53,-251.22"/>
</g>
<!-- Node12 -->
<g id="node8" class="node">
<title>Node12</title>
<g id="a_node8"><a xlink:href="test__DisplayManager_8cpp.html#ad108e01a79b7f75a831a955e93bb9176" target="_top" xlink:title="Validate the displayStartupInfo() method correct calls all display methods.">
<polygon fill="white" stroke="black" points="124.5,-252 124.5,-271 176.5,-271 176.5,-252 124.5,-252"/>
<text text-anchor="middle" x="150.5" y="-259" font-family="Helvetica,sans-Serif" font-size="10.00">TEST_F</text>
</a>
</g>
</g>
<!-- Node7&#45;&gt;Node12 -->
<g id="edge7" class="edge">
<title>Node7&#45;&gt;Node12</title>
<path fill="none" stroke="midnightblue" d="M238.91,-261.5C215.63,-261.5 193.03,-261.5 176.65,-261.5"/>
<polygon fill="midnightblue" stroke="midnightblue" points="238.91,-265 248.91,-261.5 238.91,-258 238.91,-265"/>
</g>
<!-- Node9 -->
<g id="node7" class="node">
<title>Node9</title>
<g id="a_node7"><a xlink:href="EX-Display_8ino.html#a4fc01d736fe50cf5b977f755b675f11d" target="_top" xlink:title="Main setup method, initialise Configurator here.">
<polygon fill="white" stroke="red" points="4,-148 4,-167 48,-167 48,-148 4,-148"/>
<text text-anchor="middle" x="26" y="-155" font-family="Helvetica,sans-Serif" font-size="10.00">setup</text>
</a>
</g>
</g>
<!-- Node8&#45;&gt;Node9 -->
<g id="edge6" class="edge">
<title>Node8&#45;&gt;Node9</title>
<path fill="none" stroke="midnightblue" d="M91.34,-169.06C75.86,-166.27 60.11,-163.45 48.07,-161.28"/>
<polygon fill="midnightblue" stroke="midnightblue" points="90.98,-172.55 101.44,-170.87 92.21,-165.66 90.98,-172.55"/>
</g>
<!-- Node13&#45;&gt;Node4 -->
<g id="edge9" class="edge">
<title>Node13&#45;&gt;Node4</title>
<path fill="none" stroke="midnightblue" d="M266.28,-353.65C244.84,-351.2 222.11,-348.59 202.57,-346.35"/>
<polygon fill="midnightblue" stroke="midnightblue" points="266.01,-357.14 276.35,-354.81 266.81,-350.19 266.01,-357.14"/>
</g>
<!-- Node14&#45;&gt;Node15 -->
<g id="edge11" class="edge">
<title>Node14&#45;&gt;Node15</title>
<path fill="none" stroke="midnightblue" d="M486.33,-179.5C467.34,-179.5 447.15,-179.5 428.17,-179.5"/>
<polygon fill="midnightblue" stroke="midnightblue" points="486.44,-183 496.44,-179.5 486.44,-176 486.44,-183"/>
</g>
<!-- Node15&#45;&gt;Node8 -->
<g id="edge12" class="edge">
<title>Node15&#45;&gt;Node8</title>
<path fill="none" stroke="midnightblue" d="M250.6,-179.5C232.95,-179.5 215.16,-179.5 199.62,-179.5"/>
<polygon fill="midnightblue" stroke="midnightblue" points="250.96,-183 260.96,-179.5 250.96,-176 250.96,-183"/>
</g>
<!-- Node15&#45;&gt;Node16 -->
<g id="edge13" class="edge">
<title>Node15&#45;&gt;Node16</title>
<path fill="none" stroke="midnightblue" d="M291.65,-167.62C254.36,-159.07 205.7,-147.92 176.63,-141.26"/>
<polygon fill="midnightblue" stroke="midnightblue" points="291.31,-171.13 301.84,-169.95 292.87,-164.31 291.31,-171.13"/>
</g>
<!-- Node18 -->
<g id="node14" class="node">
<title>Node18</title>
<g id="a_node14"><a xlink:href="test__DisplayManager_8cpp.html#a8db4cc07d4e89d899e0a75ca521f9229" target="_top" xlink:title="Create a list of mock displays and validate they are created and operate correctly.">
<polygon fill="white" stroke="black" points="318.5,-50 318.5,-69 370.5,-69 370.5,-50 318.5,-50"/>
<text text-anchor="middle" x="344.5" y="-57" font-family="Helvetica,sans-Serif" font-size="10.00">TEST_F</text>
</a>
</g>
</g>
<!-- Node17&#45;&gt;Node18 -->
<g id="edge15" class="edge">
<title>Node17&#45;&gt;Node18</title>
<path fill="none" stroke="midnightblue" d="M481.44,-59.5C441.62,-59.5 397.49,-59.5 370.63,-59.5"/>
<polygon fill="midnightblue" stroke="midnightblue" points="481.46,-63 491.46,-59.5 481.46,-56 481.46,-63"/>
</g>
<!-- Node19&#45;&gt;Node16 -->
<g id="edge22" class="edge">
<title>Node19&#45;&gt;Node16</title>
<path fill="none" stroke="midnightblue" d="M285.07,-109.06C248.83,-116.24 204.09,-125.09 176.69,-130.51"/>
<polygon fill="midnightblue" stroke="midnightblue" points="285.92,-112.46 295.05,-107.09 284.56,-105.6 285.92,-112.46"/>
</g>
<!-- Node20 -->
<g id="node16" class="node">
<title>Node20</title>
<g id="a_node16"><a xlink:href="classConfigurator.html#a25ee5e1b0a64d971232d6ecaaadd5d61" target="_top" xlink:title="Call all one&#45;shot initialisation or begin methods on startup.">
<polygon fill="white" stroke="black" points="88,-88 88,-107 213,-107 213,-88 88,-88"/>
<text text-anchor="middle" x="150.5" y="-95" font-family="Helvetica,sans-Serif" font-size="10.00">Configurator::initialise</text>
</a>
</g>
</g>
<!-- Node19&#45;&gt;Node20 -->
<g id="edge19" class="edge">
<title>Node19&#45;&gt;Node20</title>
<path fill="none" stroke="midnightblue" d="M246.2,-97.5C234.99,-97.5 223.81,-97.5 213.26,-97.5"/>
<polygon fill="midnightblue" stroke="midnightblue" points="246.49,-101 256.49,-97.5 246.49,-94 246.49,-101"/>
</g>
<!-- Node20&#45;&gt;Node9 -->
<g id="edge20" class="edge">
<title>Node20&#45;&gt;Node9</title>
<path fill="none" stroke="midnightblue" d="M102.71,-110.37C97.66,-112.22 92.67,-114.27 88,-116.5 69.81,-125.19 50.84,-138.77 38.98,-147.9"/>
<polygon fill="midnightblue" stroke="midnightblue" points="104.09,-113.6 112.41,-107.04 101.81,-106.98 104.09,-113.6"/>
</g>
<!-- Node21 -->
<g id="node17" class="node">
<title>Node21</title>
<g id="a_node17"><a xlink:href="test__Configurator_8cpp.html#a90ba0264a5f676876816cf7411508ac9" target="_top" xlink:title="Ensure the Configurator is created and all attributes are as expected.">
<polygon fill="white" stroke="black" points="0,-88 0,-107 52,-107 52,-88 0,-88"/>
<text text-anchor="middle" x="26" y="-95" font-family="Helvetica,sans-Serif" font-size="10.00">TEST_F</text>
</a>
</g>
</g>
<!-- Node20&#45;&gt;Node21 -->
<g id="edge21" class="edge">
<title>Node20&#45;&gt;Node21</title>
<path fill="none" stroke="midnightblue" d="M77.87,-97.5C68.71,-97.5 59.88,-97.5 52.21,-97.5"/>
<polygon fill="midnightblue" stroke="midnightblue" points="77.89,-101 87.89,-97.5 77.89,-94 77.89,-101"/>
</g>
</g>
</svg>
        <g id="navigator" transform="translate(0 0)" fill="#404254">
                <rect fill="#f2f5e9" fill-opacity="0.5" stroke="#606060" stroke-width=".5" x="0" y="0" width="60" height="60"/>
                <use id="zoomplus" xlink:href="#zoomPlus" x="17" y="9" onmousedown="handleZoom(evt,'in')"/>
                <use id="zoomminus" xlink:href="#zoomMin" x="42" y="9" onmousedown="handleZoom(evt,'out')"/>
                <use id="reset" xlink:href="#resetDef" x="30" y="36" onmousedown="handleReset()"/>
                <g id="arrowUp" xlink:href="#dirArrow" transform="translate(30 24)" onmousedown="handlePan(0,-1)">
                  <use xlink:href="#rim" fill="#404040">
                        <set attributeName="fill" to="#808080" begin="arrowUp.mouseover" end="arrowUp.mouseout"/>
                  </use>
                  <path fill="none" stroke="white" stroke-width="1.5" d="M0,-3.0v7 M-2.5,-0.5L0,-3.0L2.5,-0.5"/>
                </g>
                <g id="arrowRight" xlink:href="#dirArrow" transform="rotate(90) translate(36 -43)" onmousedown="handlePan(1,0)">
                  <use xlink:href="#rim" fill="#404040">
                        <set attributeName="fill" to="#808080" begin="arrowRight.mouseover" end="arrowRight.mouseout"/>
                  </use>
                  <path fill="none" stroke="white" stroke-width="1.5" d="M0,-3.0v7 M-2.5,-0.5L0,-3.0L2.5,-0.5"/>
                </g>
                <g id="arrowDown" xlink:href="#dirArrow" transform="rotate(180) translate(-30 -48)" onmousedown="handlePan(0,1)">
                  <use xlink:href="#rim" fill="#404040">
                        <set attributeName="fill" to="#808080" begin="arrowDown.mouseover" end="arrowDown.mouseout"/>
                  </use>
                  <path fill="none" stroke="white" stroke-width="1.5" d="M0,-3.0v7 M-2.5,-0.5L0,-3.0L2.5,-0.5"/>
                </g>
                <g id="arrowLeft" xlink:href="#dirArrow" transform="rotate(270) translate(-36 17)" onmousedown="handlePan(-1,0)">
                  <use xlink:href="#rim" fill="#404040">
                        <set attributeName="fill" to="#808080" begin="arrowLeft.mouseover" end="arrowLeft.mouseout"/>
                  </use>
                  <path fill="none" stroke="white" stroke-width="1.5" d="M0,-3.0v7 M-2.5,-0.5L0,-3.0L2.5,-0.5"/>
                </g>
        </g>
        <svg viewBox="0 0 15 15" width="100%" height="30px" preserveAspectRatio="xMaxYMin meet">
         <g id="arrow_out" transform="scale(0.3 0.3)">
          <a xlink:href="classDisplayInterface_aa869afa166e1d7f231549e3b93f7bef5_icgraph_org.svg" target="_base">
           <rect id="button" ry="5" rx="5" y="6" x="6" height="38" width="38"
                fill="#f2f5e9" fill-opacity="0.5" stroke="#606060" stroke-width="1.0"/>
           <path id="arrow"
             d="M 11.500037,31.436501 C 11.940474,20.09759 22.043105,11.32322 32.158766,21.979434 L 37.068811,17.246167 C 37.068811,17.246167 37.088388,32 37.088388,32 L 22.160133,31.978069 C 22.160133,31.978069 26.997745,27.140456 26.997745,27.140456 C 18.528582,18.264221 13.291696,25.230495 11.500037,31.436501 z"
             style="fill:#404040;"/>
          </a>
         </g>
        </svg>
</svg>
