<?xml version="1.0" encoding="UTF-8" standalone="no"?>
<!DOCTYPE svg PUBLIC "-//W3C//DTD SVG 1.1//EN"
 "http://www.w3.org/Graphics/SVG/1.1/DTD/svg11.dtd">
<!-- Generated by graphviz version 2.43.0 (0)
 -->
<!-- Title: DisplayManager::getFirstDisplay Pages: 1 -->
<svg width="321pt" height="138pt"
 viewBox="0.00 0.00 321.00 138.00" xmlns="http://www.w3.org/2000/svg" xmlns:xlink="http://www.w3.org/1999/xlink">
<g id="graph0" class="graph" transform="scale(1 1) rotate(0) translate(4 134)">
<title>DisplayManager::getFirstDisplay</title>
<!-- Node1 -->
<g id="Node000001" class="node">
<title>Node1</title>
<g id="a_Node000001"><a xlink:title="Get the first DisplayInterface derived instance in the list of displays.">
<polygon fill="#999999" stroke="#666666" points="313,-79.5 174,-79.5 174,-49.5 313,-49.5 313,-79.5"/>
<text text-anchor="start" x="182" y="-67.5" font-family="Helvetica,sans-Serif" font-size="10.00">DisplayManager::getFirst</text>
<text text-anchor="middle" x="243.5" y="-56.5" font-family="Helvetica,sans-Serif" font-size="10.00">Display</text>
</a>
</g>
</g>
<!-- Node2 -->
<g id="Node000002" class="node">
<title>Node2</title>
<g id="a_Node000002"><a xlink:href="classController.html#af9c9f10320fb7770553156da4d164e64" target="_top" xlink:title="Method to implement to respond to an input action.">
<polygon fill="white" stroke="#666666" points="138,-130 0,-130 0,-111 138,-111 138,-130"/>
<text text-anchor="middle" x="69" y="-118" font-family="Helvetica,sans-Serif" font-size="10.00">Controller::onInputAction</text>
</a>
</g>
</g>
<!-- Node1&#45;&gt;Node2 -->
<g id="edge1_Node000001_Node000002" class="edge">
<title>Node1&#45;&gt;Node2</title>
<g id="a_edge1_Node000001_Node000002"><a xlink:title=" ">
<path fill="none" stroke="#63b8ff" d="M194.11,-83.12C176.56,-89.61 156.5,-96.7 138,-102.5 128.56,-105.46 118.29,-108.35 108.65,-110.91"/>
<polygon fill="#63b8ff" stroke="#63b8ff" points="195.43,-86.37 203.58,-79.6 192.99,-79.81 195.43,-86.37"/>
</a>
</g>
</g>
<!-- Node3 -->
<g id="Node000003" class="node">
<title>Node3</title>
<g id="a_Node000003"><a xlink:href="test__CompilerCreation_8cpp.html#a484c00ac396e82066ad78a3641a34a4f" target="_top" xlink:title="Ensure devices are created and all attributes are valid.">
<polygon fill="white" stroke="#666666" points="95,-93 43,-93 43,-74 95,-74 95,-93"/>
<text text-anchor="middle" x="69" y="-81" font-family="Helvetica,sans-Serif" font-size="10.00">TEST_F</text>
</a>
</g>
</g>
<!-- Node1&#45;&gt;Node3 -->
<g id="edge2_Node000001_Node000003" class="edge">
<title>Node1&#45;&gt;Node3</title>
<g id="a_edge2_Node000001_Node000003"><a xlink:title=" ">
<path fill="none" stroke="#63b8ff" d="M163.7,-73.18C139.05,-75.89 113.57,-78.7 95.42,-80.7"/>
<polygon fill="#63b8ff" stroke="#63b8ff" points="164.27,-76.64 173.83,-72.06 163.5,-69.68 164.27,-76.64"/>
</a>
</g>
</g>
<!-- Node4 -->
<g id="Node000004" class="node">
<title>Node4</title>
<g id="a_Node000004"><a xlink:href="test__DisplayManager_8cpp.html#a8db4cc07d4e89d899e0a75ca521f9229" target="_top" xlink:title="Create a list of mock displays and validate they are created and operate correctly.">
<polygon fill="white" stroke="#666666" points="95,-56 43,-56 43,-37 95,-37 95,-56"/>
<text text-anchor="middle" x="69" y="-44" font-family="Helvetica,sans-Serif" font-size="10.00">TEST_F</text>
</a>
</g>
</g>
<!-- Node1&#45;&gt;Node4 -->
<g id="edge3_Node000001_Node000004" class="edge">
<title>Node1&#45;&gt;Node4</title>
<g id="a_edge3_Node000001_Node000004"><a xlink:title=" ">
<path fill="none" stroke="#63b8ff" d="M163.7,-56.28C139.05,-53.7 113.57,-51.05 95.42,-49.15"/>
<polygon fill="#63b8ff" stroke="#63b8ff" points="163.52,-59.78 173.83,-57.33 164.25,-52.82 163.52,-59.78"/>
</a>
</g>
</g>
<!-- Node5 -->
<g id="Node000005" class="node">
<title>Node5</title>
<g id="a_Node000005"><a xlink:href="test__DisplayManager_8cpp.html#aa8337fc1959edc9e8bd86823f8071176" target="_top" xlink:title="Create DisplayManager and validate attributes are as expected.">
<polygon fill="white" stroke="#666666" points="95,-19 43,-19 43,0 95,0 95,-19"/>
<text text-anchor="middle" x="69" y="-7" font-family="Helvetica,sans-Serif" font-size="10.00">TEST_F</text>
</a>
</g>
</g>
<!-- Node1&#45;&gt;Node5 -->
<g id="edge4_Node000001_Node000005" class="edge">
<title>Node1&#45;&gt;Node5</title>
<g id="a_edge4_Node000001_Node000005"><a xlink:title=" ">
<path fill="none" stroke="#63b8ff" d="M191.08,-46.11C174.23,-40.26 155.38,-33.92 138,-28.5 123.96,-24.12 108.14,-19.68 95.29,-16.18"/>
<polygon fill="#63b8ff" stroke="#63b8ff" points="190.14,-49.49 200.74,-49.48 192.45,-42.88 190.14,-49.49"/>
</a>
</g>
</g>
</g>
</svg>
