<?xml version="1.0" encoding="UTF-8" standalone="no"?>
<!DOCTYPE svg PUBLIC "-//W3C//DTD SVG 1.1//EN"
 "http://www.w3.org/Graphics/SVG/1.1/DTD/svg11.dtd">
<!-- Generated by graphviz version 2.43.0 (0)
 -->
<!-- Title: TFT_eSPITouch::_displayCalibrationError Pages: 1 -->
<!--zoomable 278 -->

<svg id="main" version="1.1" xmlns="http://www.w3.org/2000/svg" xmlns:xlink="http://www.w3.org/1999/xlink" xml:space="preserve" onload="init(evt)">
<style type="text/css"><![CDATA[
.node, .edge {opacity: 0.7;}
.node.selected, .edge.selected {opacity: 1;}
.edge:hover path { stroke: red; }
.edge:hover polygon { stroke: red; fill: red; }
]]></style>

<defs>
  <circle id="rim" cx="0" cy="0" r="7"/>
  <circle id="rim2" cx="0" cy="0" r="3.5"/>
  <g id="zoomPlus">
    <use xlink:href="#rim" fill="#404040"><set attributeName="fill" to="#808080" begin="zoomplus.mouseover" end="zoomplus.mouseout"/></use>
    <path d="M-4,0h8M0,-4v8" fill="none" stroke="white" stroke-width="1.5" pointer-events="none"/>
  </g>
  <g id="zoomMin">
    <use xlink:href="#rim" fill="#404040"><set attributeName="fill" to="#808080" begin="zoomminus.mouseover" end="zoomminus.mouseout"/></use>
    <path d="M-4,0h8" fill="none" stroke="white" stroke-width="1.5" pointer-events="none"/>
  </g>
  <g id="arrowUp" transform="translate(30 24)">
    <use xlink:href="#rim"/>
    <path pointer-events="none" fill="none" stroke="white" stroke-width="1.5" d="M0,-3.0v7 M-2.5,-0.5L0,-3.0L2.5,-0.5"/>
  </g>
  <g id="arrowRight" transform="rotate(90) translate(36 -43)">
    <use xlink:href="#rim"/>
    <path pointer-events="none" fill="none" stroke="white" stroke-width="1.5" d="M0,-3.0v7 M-2.5,-0.5L0,-3.0L2.5,-0.5"/>
  </g>
  <g id="arrowDown" transform="rotate(180) translate(-30 -48)">
    <use xlink:href="#rim"/>
    <path pointer-events="none" fill="none" stroke="white" stroke-width="1.5" d="M0,-3.0v7 M-2.5,-0.5L0,-3.0L2.5,-0.5"/>
  </g>
  <g id="arrowLeft" transform="rotate(270) translate(-36 17)">
    <use xlink:href="#rim"/>
    <path pointer-events="none" fill="none" stroke="white" stroke-width="1.5" d="M0,-3.0v7 M-2.5,-0.5L0,-3.0L2.5,-0.5"/>
  </g>
  <g id="resetDef">
    <use xlink:href="#rim2" fill="#404040"><set attributeName="fill" to="#808080" begin="reset.mouseover" end="reset.mouseout"/></use>
  </g>
</defs>
<script type="application/ecmascript">
var viewWidth = 565;
var viewHeight = 278;
var sectionId = 'dynsection-3';
</script>
<script type="application/ecmascript" xlink:href="svg.min.js"/>
<svg id="graph" class="graph">
<g id="viewport">
<title>TFT_eSPITouch::_displayCalibrationError</title>
<!-- Node1 -->
<g id="Node000001" class="node">
<title>Node1</title>
<g id="a_Node000001"><a xlink:title="Display calibration error on screen and pause for 5 seconds.">
<polygon fill="#999999" stroke="#666666" points="188,-187 0,-187 0,-157 188,-157 188,-187"/>
<text text-anchor="start" x="8" y="-175" font-family="Helvetica,sans-Serif" font-size="10.00">TFT_eSPITouch::_displayCalibration</text>
<text text-anchor="middle" x="94" y="-164" font-family="Helvetica,sans-Serif" font-size="10.00">Error</text>
</a>
</g>
</g>
<!-- Node2 -->
<g id="Node000002" class="node">
<title>Node2</title>
<g id="a_Node000002"><a xlink:href="classTFT__eSPIDisplay.html#af7bbb772e597d3431656ccd32d73bdf5" target="_top" xlink:title="Clear the entire screen.">
<polygon fill="white" stroke="#666666" points="383,-218.5 224,-218.5 224,-199.5 383,-199.5 383,-218.5"/>
<text text-anchor="middle" x="303.5" y="-206.5" font-family="Helvetica,sans-Serif" font-size="10.00">TFT_eSPIDisplay::clearScreen</text>
</a>
</g>
</g>
<!-- Node1&#45;&gt;Node2 -->
<g id="edge1_Node000001_Node000002" class="edge">
<title>Node1&#45;&gt;Node2</title>
<g id="a_edge1_Node000001_Node000002"><a xlink:title=" ">
<path fill="none" stroke="#63b8ff" d="M179.4,-187.05C199.37,-190.61 220.34,-194.35 239.19,-197.71"/>
<polygon fill="#63b8ff" stroke="#63b8ff" points="238.67,-201.17 249.13,-199.48 239.9,-194.28 238.67,-201.17"/>
</a>
</g>
</g>
<!-- Node3 -->
<g id="Node000003" class="node">
<title>Node3</title>
<g id="a_Node000003"><a xlink:href="Arduino_8h.html#a6bc5f943544a887f8b23cadfb26a5e30" target="_top" xlink:title=" ">
<polygon fill="white" stroke="#666666" points="325.5,-181.5 281.5,-181.5 281.5,-162.5 325.5,-162.5 325.5,-181.5"/>
<text text-anchor="middle" x="303.5" y="-169.5" font-family="Helvetica,sans-Serif" font-size="10.00">delay</text>
</a>
</g>
</g>
<!-- Node1&#45;&gt;Node3 -->
<g id="edge2_Node000001_Node000003" class="edge">
<title>Node1&#45;&gt;Node3</title>
<g id="a_edge2_Node000001_Node000003"><a xlink:title=" ">
<path fill="none" stroke="#63b8ff" d="M188.13,-172C217.94,-172 248.94,-172 271.13,-172"/>
<polygon fill="#63b8ff" stroke="#63b8ff" points="271.27,-175.5 281.27,-172 271.27,-168.5 271.27,-175.5"/>
</a>
</g>
</g>
<!-- Node4 -->
<g id="Node000004" class="node">
<title>Node4</title>
<g id="a_Node000004"><a xlink:href="classDisplayInterface.html#a1bc192c6854bae554c9aa09cd7122cdc" target="_top" xlink:title="Static method to enable calling back to a derived class with a formatted row.">
<polygon fill="white" stroke="#666666" points="382,-144.5 225,-144.5 225,-125.5 382,-125.5 382,-144.5"/>
<text text-anchor="middle" x="303.5" y="-132.5" font-family="Helvetica,sans-Serif" font-size="10.00">DisplayInterface::formatRow</text>
</a>
</g>
</g>
<!-- Node1&#45;&gt;Node4 -->
<g id="edge3_Node000001_Node000004" class="edge">
<title>Node1&#45;&gt;Node4</title>
<g id="a_edge3_Node000001_Node000004"><a xlink:title=" ">
<path fill="none" stroke="#63b8ff" d="M179.4,-156.95C199.37,-153.39 220.34,-149.65 239.19,-146.29"/>
<polygon fill="#63b8ff" stroke="#63b8ff" points="239.9,-149.72 249.13,-144.52 238.67,-142.83 239.9,-149.72"/>
</a>
</g>
</g>
<!-- Node5 -->
<g id="Node000005" class="node">
<title>Node5</title>
<g id="a_Node000005"><a xlink:href="classDisplayInterface.html#acde7922833a368ce3233fe4d721f838a" target="_top" xlink:title="Convert the provided RGB colour code string constant to a uint16_t RGB565 colour.">
<polygon fill="white" stroke="#666666" points="552,-270 424,-270 424,-240 552,-240 552,-270"/>
<text text-anchor="start" x="432" y="-258" font-family="Helvetica,sans-Serif" font-size="10.00">DisplayInterface::</text>
<text text-anchor="middle" x="488" y="-247" font-family="Helvetica,sans-Serif" font-size="10.00">_convertRGBtoRGB565</text>
</a>
</g>
</g>
<!-- Node4&#45;&gt;Node5 -->
<g id="edge4_Node000004_Node000005" class="edge">
<title>Node4&#45;&gt;Node5</title>
<g id="a_edge4_Node000004_Node000005"><a xlink:title=" ">
<path fill="none" stroke="#63b8ff" d="M367.41,-144.64C373.02,-147.11 378.33,-150.18 383,-154 412.24,-177.91 391.01,-205.63 419,-231 420.31,-232.19 421.68,-233.31 423.1,-234.38"/>
<polygon fill="#63b8ff" stroke="#63b8ff" points="421.42,-237.47 431.72,-239.94 425.21,-231.58 421.42,-237.47"/>
</a>
</g>
</g>
<!-- Node6 -->
<g id="Node000006" class="node">
<title>Node6</title>
<g id="a_Node000006"><a xlink:href="classDisplayInterface.html#ad8da5e63e3775f8f02b04636a9482d97" target="_top" xlink:title="Validates the provided char is a valid modifier.">
<polygon fill="white" stroke="#666666" points="539.5,-222 436.5,-222 436.5,-192 539.5,-192 539.5,-222"/>
<text text-anchor="start" x="444.5" y="-210" font-family="Helvetica,sans-Serif" font-size="10.00">DisplayInterface::</text>
<text text-anchor="middle" x="488" y="-199" font-family="Helvetica,sans-Serif" font-size="10.00">_isModifier</text>
</a>
</g>
</g>
<!-- Node4&#45;&gt;Node6 -->
<g id="edge5_Node000004_Node000006" class="edge">
<title>Node4&#45;&gt;Node6</title>
<g id="a_edge5_Node000004_Node000006"><a xlink:title=" ">
<path fill="none" stroke="#63b8ff" d="M357.98,-144.58C366.58,-147.06 375.2,-150.16 383,-154 401.43,-163.08 401.06,-172.99 419,-183 422.04,-184.7 425.23,-186.31 428.49,-187.84"/>
<polygon fill="#63b8ff" stroke="#63b8ff" points="427.26,-191.12 437.83,-191.9 430.06,-184.7 427.26,-191.12"/>
</a>
</g>
</g>
<!-- Node7 -->
<g id="Node000007" class="node">
<title>Node7</title>
<g id="a_Node000007"><a xlink:href="classDisplayInterface.html#ac5cc108ca1c1410a8321078b3868ed78" target="_top" xlink:title="Check if the provided string constant translates to a valid RGB colour code.">
<polygon fill="white" stroke="#666666" points="539.5,-174 436.5,-174 436.5,-144 539.5,-144 539.5,-174"/>
<text text-anchor="start" x="444.5" y="-162" font-family="Helvetica,sans-Serif" font-size="10.00">DisplayInterface::</text>
<text text-anchor="middle" x="488" y="-151" font-family="Helvetica,sans-Serif" font-size="10.00">_isRGB</text>
</a>
</g>
</g>
<!-- Node4&#45;&gt;Node7 -->
<g id="edge6_Node000004_Node000007" class="edge">
<title>Node4&#45;&gt;Node7</title>
<g id="a_edge6_Node000004_Node000007"><a xlink:title=" ">
<path fill="none" stroke="#63b8ff" d="M376.89,-144.52C393.22,-146.67 410.39,-148.92 426.18,-151"/>
<polygon fill="#63b8ff" stroke="#63b8ff" points="425.97,-154.5 436.34,-152.34 426.88,-147.56 425.97,-154.5"/>
</a>
</g>
</g>
<!-- Node8 -->
<g id="Node000008" class="node">
<title>Node8</title>
<g id="a_Node000008"><a xlink:href="classDisplayInterface.html#a96f1a22d4566a22aefd3b652808d9441" target="_top" xlink:title="Sanitise the provided struct of RowAttributes.">
<polygon fill="white" stroke="#666666" points="542,-126 434,-126 434,-96 542,-96 542,-126"/>
<text text-anchor="start" x="442" y="-114" font-family="Helvetica,sans-Serif" font-size="10.00">DisplayInterface::</text>
<text text-anchor="middle" x="488" y="-103" font-family="Helvetica,sans-Serif" font-size="10.00">_sanitiseAttributes</text>
</a>
</g>
</g>
<!-- Node4&#45;&gt;Node8 -->
<g id="edge7_Node000004_Node000008" class="edge">
<title>Node4&#45;&gt;Node8</title>
<g id="a_edge7_Node000004_Node000008"><a xlink:title=" ">
<path fill="none" stroke="#63b8ff" d="M376.89,-125.48C392.33,-123.45 408.53,-121.32 423.61,-119.34"/>
<polygon fill="#63b8ff" stroke="#63b8ff" points="424.38,-122.76 433.84,-117.99 423.47,-115.82 424.38,-122.76"/>
</a>
</g>
</g>
<!-- Node9 -->
<g id="Node000009" class="node">
<title>Node9</title>
<g id="a_Node000009"><a xlink:href="classDisplayInterface.html#a652c6ce102531b9dd02fb960946987c8" target="_top" xlink:title="Update the provided RowAttributes struct according to the provided modifier.">
<polygon fill="white" stroke="#666666" points="539.5,-78 436.5,-78 436.5,-48 539.5,-48 539.5,-78"/>
<text text-anchor="start" x="444.5" y="-66" font-family="Helvetica,sans-Serif" font-size="10.00">DisplayInterface::</text>
<text text-anchor="middle" x="488" y="-55" font-family="Helvetica,sans-Serif" font-size="10.00">_setAttribute</text>
</a>
</g>
</g>
<!-- Node4&#45;&gt;Node9 -->
<g id="edge8_Node000004_Node000009" class="edge">
<title>Node4&#45;&gt;Node9</title>
<g id="a_edge8_Node000004_Node000009"><a xlink:title=" ">
<path fill="none" stroke="#63b8ff" d="M326.3,-125.42C349.22,-115.45 386.42,-99.57 419,-87 423.7,-85.19 428.6,-83.35 433.52,-81.55"/>
<polygon fill="#63b8ff" stroke="#63b8ff" points="434.76,-84.82 442.97,-78.12 432.37,-78.24 434.76,-84.82"/>
</a>
</g>
</g>
<!-- Node10 -->
<g id="Node000010" class="node">
<title>Node10</title>
<g id="a_Node000010"><a xlink:href="classDisplayInterface.html#a8e1258fa3f32baf1587b80354c8afdb3" target="_top" xlink:title="Display a row using formatting modifiers.">
<polygon fill="white" stroke="#666666" points="557,-30 419,-30 419,0 557,0 557,-30"/>
<text text-anchor="start" x="427" y="-18" font-family="Helvetica,sans-Serif" font-size="10.00">DisplayInterface::display</text>
<text text-anchor="middle" x="488" y="-7" font-family="Helvetica,sans-Serif" font-size="10.00">FormattedRow</text>
</a>
</g>
</g>
<!-- Node4&#45;&gt;Node10 -->
<g id="edge9_Node000004_Node000010" class="edge">
<title>Node4&#45;&gt;Node10</title>
<g id="a_edge9_Node000004_Node000010"><a xlink:title=" ">
<path fill="none" stroke="#63b8ff" d="M313.7,-125.22C332.07,-106.21 375.29,-63.94 419,-39 421.88,-37.36 424.9,-35.79 427.98,-34.32"/>
<polygon fill="#63b8ff" stroke="#63b8ff" points="429.69,-37.39 437.41,-30.14 426.85,-30.99 429.69,-37.39"/>
</a>
</g>
</g>
</g>
</svg>

<g id="navigator" transform="translate(0 0)" fill="#404254">
  <rect fill="#f2f5e9" fill-opacity="0.5" stroke="#606060" stroke-width=".5" x="0" y="0" width="60" height="60"/>
  <use id="zoomplus" xlink:href="#zoomPlus" x="17" y="9" onmousedown="handleZoom(evt,'in')"/>
  <use id="zoomminus" xlink:href="#zoomMin" x="42" y="9" onmousedown="handleZoom(evt,'out')"/>
  <use id="reset" xlink:href="#resetDef" x="30" y="36" onmousedown="handleReset()"/>
   <use id="arrowup" xlink:href="#arrowUp" x="0" y="0" onmousedown="handlePan(0,-1)"/>
  <use id="arrowright" xlink:href="#arrowRight" x="0" y="0" onmousedown="handlePan(1,0)"/>
  <use id="arrowdown" xlink:href="#arrowDown" x="0" y="0" onmousedown="handlePan(0,1)"/>
  <use id="arrowleft" xlink:href="#arrowLeft" x="0" y="0" onmousedown="handlePan(-1,0)"/>
</g>
<svg viewBox="0 0 15 15" width="100%" height="30px" preserveAspectRatio="xMaxYMin meet">
 <g id="arrow_out" transform="scale(0.3 0.3)">
  <a xlink:href="classTFT__eSPITouch_ad71507c11a328924064e703daef05ada_cgraph_org.svg" target="_base">
   <rect id="button" ry="5" rx="5" y="6" x="6" height="38" width="38"
        fill="#f2f5e9" fill-opacity="0.5" stroke="#606060" stroke-width="1.0"/>
   <path id="arrow"
     d="M 11.500037,31.436501 C 11.940474,20.09759 22.043105,11.32322 32.158766,21.979434 L 37.068811,17.246167 C 37.068811,17.246167 37.088388,32 37.088388,32 L 22.160133,31.978069 C 22.160133,31.978069 26.997745,27.140456 26.997745,27.140456 C 18.528582,18.264221 13.291696,25.230495 11.500037,31.436501 z"
     style="fill:#404040;"/>
  </a>
 </g>
</svg>

<style type='text/css'>
<![CDATA[
[data-mouse-over-selected='false'] { opacity: 0.7; }
[data-mouse-over-selected='true']  { opacity: 1.0; }
]]>
</style>
<script type="application/ecmascript"><![CDATA[
document.addEventListener('DOMContentLoaded', (event) => {
  highlightEdges();
  highlightAdjacentNodes();
});
]]></script>
</svg>
