<?xml version="1.0" encoding="UTF-8" standalone="no"?>
<!DOCTYPE svg PUBLIC "-//W3C//DTD SVG 1.1//EN"
 "http://www.w3.org/Graphics/SVG/1.1/DTD/svg11.dtd">
<!-- Generated by graphviz version 2.43.0 (0)
 -->
<!-- Title: MockArduino::getInstance Pages: 1 -->
<svg width="800pt" height="131pt"
 viewBox="0.00 0.00 800.00 130.51" xmlns="http://www.w3.org/2000/svg" xmlns:xlink="http://www.w3.org/1999/xlink">
<g id="graph0" class="graph" transform="scale(1 1) rotate(0) translate(4 126.51)">
<title>MockArduino::getInstance</title>
<polygon fill="white" stroke="transparent" points="-4,4 -4,-126.51 796,-126.51 796,4 -4,4"/>
<!-- Node1 -->
<g id="node1" class="node">
<title>Node1</title>
<g id="a_node1"><a xlink:title=" ">
<polygon fill="#bfbfbf" stroke="black" points="649,-24.01 649,-43.01 792,-43.01 792,-24.01 649,-24.01"/>
<text text-anchor="middle" x="720.5" y="-31.01" font-family="Helvetica,sans-Serif" font-size="10.00">MockArduino::getInstance</text>
</a>
</g>
</g>
<!-- Node2 -->
<g id="node2" class="node">
<title>Node2</title>
<g id="a_node2"><a xlink:href="Arduino_8h.html#ae9647a9a056bb33fd1206da70c83bde3" target="_top" xlink:title=" ">
<polygon fill="white" stroke="black" points="539,-65.01 539,-84.01 613,-84.01 613,-65.01 539,-65.01"/>
<text text-anchor="middle" x="576" y="-72.01" font-family="Helvetica,sans-Serif" font-size="10.00">digitalWrite</text>
</a>
</g>
</g>
<!-- Node1&#45;&gt;Node2 -->
<g id="edge1" class="edge">
<title>Node1&#45;&gt;Node2</title>
<path fill="none" stroke="midnightblue" d="M676.69,-45.82C655.44,-51.94 630.16,-59.21 610.36,-64.91"/>
<polygon fill="midnightblue" stroke="midnightblue" points="677.81,-49.14 686.45,-43.02 675.87,-42.42 677.81,-49.14"/>
</g>
<!-- Node11 -->
<g id="node6" class="node">
<title>Node11</title>
<g id="a_node6"><a xlink:href="test__CompilerCreation_8cpp.html#a484c00ac396e82066ad78a3641a34a4f" target="_top" xlink:title="Ensure devices are created and all attributes are valid.">
<polygon fill="white" stroke="black" points="0,-2.01 0,-21.01 52,-21.01 52,-2.01 0,-2.01"/>
<text text-anchor="middle" x="26" y="-9.01" font-family="Helvetica,sans-Serif" font-size="10.00">TEST_F</text>
</a>
</g>
</g>
<!-- Node1&#45;&gt;Node11 -->
<g id="edge10" class="edge">
<title>Node1&#45;&gt;Node11</title>
<path fill="none" stroke="midnightblue" d="M663.42,-22.18C647.21,-19.26 629.45,-16.42 613,-14.51 397.24,10.53 133.78,-4.11 52.25,-9.66"/>
<polygon fill="midnightblue" stroke="midnightblue" points="662.82,-25.63 673.29,-23.99 664.09,-18.74 662.82,-25.63"/>
</g>
<!-- Node16 -->
<g id="node8" class="node">
<title>Node16</title>
<g id="a_node8"><a xlink:href="Arduino_8h.html#ac7bdb53335528ad073ca13eb2b1bdc00" target="_top" xlink:title=" ">
<polygon fill="white" stroke="black" points="546.5,-24.01 546.5,-43.01 605.5,-43.01 605.5,-24.01 546.5,-24.01"/>
<text text-anchor="middle" x="576" y="-31.01" font-family="Helvetica,sans-Serif" font-size="10.00">pinMode</text>
</a>
</g>
</g>
<!-- Node1&#45;&gt;Node16 -->
<g id="edge7" class="edge">
<title>Node1&#45;&gt;Node16</title>
<path fill="none" stroke="midnightblue" d="M638.35,-33.51C626.67,-33.51 615.36,-33.51 605.69,-33.51"/>
<polygon fill="midnightblue" stroke="midnightblue" points="638.67,-37.01 648.67,-33.51 638.67,-30.01 638.67,-37.01"/>
</g>
<!-- Node3 -->
<g id="node3" class="node">
<title>Node3</title>
<g id="a_node3"><a xlink:href="classDisplayManager.html#abcac9213f163018979f2a226ecf53882" target="_top" xlink:title="Manually selects SPI displays that require manual selecting via the CS pin &#45; sets pin low.">
<polygon fill="white" stroke="black" points="315,-68.01 315,-87.01 503,-87.01 503,-68.01 315,-68.01"/>
<text text-anchor="middle" x="409" y="-75.01" font-family="Helvetica,sans-Serif" font-size="10.00">DisplayManager::_selectSPIDisplay</text>
</a>
</g>
</g>
<!-- Node2&#45;&gt;Node3 -->
<g id="edge2" class="edge">
<title>Node2&#45;&gt;Node3</title>
<path fill="none" stroke="midnightblue" d="M528.6,-75.35C520.57,-75.5 511.97,-75.65 503.21,-75.81"/>
<polygon fill="midnightblue" stroke="midnightblue" points="528.86,-78.85 538.79,-75.16 528.73,-71.85 528.86,-78.85"/>
</g>
<!-- Node4 -->
<g id="node4" class="node">
<title>Node4</title>
<g id="a_node4"><a xlink:href="classDisplayManager.html#aa0e0e26134a34beeb30e27c00b8e829f" target="_top" xlink:title="Calls the displayStartupInfo of all Display instances to display the version.">
<polygon fill="white" stroke="red" points="88,-103.01 88,-122.01 279,-122.01 279,-103.01 88,-103.01"/>
<text text-anchor="middle" x="183.5" y="-110.01" font-family="Helvetica,sans-Serif" font-size="10.00">DisplayManager::displayStartupInfo</text>
</a>
</g>
</g>
<!-- Node3&#45;&gt;Node4 -->
<g id="edge3" class="edge">
<title>Node3&#45;&gt;Node4</title>
<path fill="none" stroke="midnightblue" d="M336.99,-88.63C307.48,-93.25 273.59,-98.55 245.27,-102.99"/>
<polygon fill="midnightblue" stroke="midnightblue" points="337.88,-92.03 347.22,-87.02 336.8,-85.11 337.88,-92.03"/>
</g>
<!-- Node10 -->
<g id="node5" class="node">
<title>Node10</title>
<g id="a_node5"><a xlink:href="classDisplayManager.html#a270daf83b6af22558fde42034254b351" target="_top" xlink:title="Call the begin() method for all associated Display instances.">
<polygon fill="white" stroke="red" points="100,-24.01 100,-43.01 267,-43.01 267,-24.01 100,-24.01"/>
<text text-anchor="middle" x="183.5" y="-31.01" font-family="Helvetica,sans-Serif" font-size="10.00">DisplayManager::startDisplays</text>
</a>
</g>
</g>
<!-- Node3&#45;&gt;Node10 -->
<g id="edge4" class="edge">
<title>Node3&#45;&gt;Node10</title>
<path fill="none" stroke="midnightblue" d="M349.54,-66C313.24,-58.85 267.15,-49.78 232.9,-43.03"/>
<polygon fill="midnightblue" stroke="midnightblue" points="349.02,-69.46 359.5,-67.96 350.37,-62.59 349.02,-69.46"/>
</g>
<!-- Node12 -->
<g id="node7" class="node">
<title>Node12</title>
<g id="a_node7"><a xlink:href="classDisplayManager.html#ad53dcac2e939893727d27187524733c6" target="_top" xlink:title="Call this routinely to ensure all displays are updated with screens.">
<polygon fill="white" stroke="red" points="115.5,-65.01 115.5,-84.01 251.5,-84.01 251.5,-65.01 115.5,-65.01"/>
<text text-anchor="middle" x="183.5" y="-72.01" font-family="Helvetica,sans-Serif" font-size="10.00">DisplayManager::update</text>
</a>
</g>
</g>
<!-- Node3&#45;&gt;Node12 -->
<g id="edge6" class="edge">
<title>Node3&#45;&gt;Node12</title>
<path fill="none" stroke="midnightblue" d="M304.59,-76.12C286.61,-75.88 268.33,-75.63 251.65,-75.41"/>
<polygon fill="midnightblue" stroke="midnightblue" points="304.79,-79.62 314.83,-76.26 304.88,-72.62 304.79,-79.62"/>
</g>
<!-- Node10&#45;&gt;Node11 -->
<g id="edge5" class="edge">
<title>Node10&#45;&gt;Node11</title>
<path fill="none" stroke="midnightblue" d="M105.21,-22.57C86.04,-19.86 66.84,-17.14 52.25,-15.08"/>
<polygon fill="midnightblue" stroke="midnightblue" points="104.81,-26.05 115.2,-23.98 105.79,-19.12 104.81,-26.05"/>
</g>
<!-- Node17 -->
<g id="node9" class="node">
<title>Node17</title>
<g id="a_node9"><a xlink:href="classDisplayManager.html#aac782a88d4d491444b6eb7b6fa30645d" target="_top" xlink:title="Set the chip select pin state for any display that has it set.">
<polygon fill="white" stroke="black" points="322,-18.51 322,-48.51 496,-48.51 496,-18.51 322,-18.51"/>
<text text-anchor="start" x="330" y="-36.51" font-family="Helvetica,sans-Serif" font-size="10.00">DisplayManager::_setSPIDisplay</text>
<text text-anchor="middle" x="409" y="-25.51" font-family="Helvetica,sans-Serif" font-size="10.00">CSPin</text>
</a>
</g>
</g>
<!-- Node16&#45;&gt;Node17 -->
<g id="edge8" class="edge">
<title>Node16&#45;&gt;Node17</title>
<path fill="none" stroke="midnightblue" d="M536.12,-33.51C524.03,-33.51 510.18,-33.51 496.19,-33.51"/>
<polygon fill="midnightblue" stroke="midnightblue" points="536.26,-37.01 546.26,-33.51 536.26,-30.01 536.26,-37.01"/>
</g>
<!-- Node17&#45;&gt;Node10 -->
<g id="edge9" class="edge">
<title>Node17&#45;&gt;Node10</title>
<path fill="none" stroke="midnightblue" d="M311.72,-33.51C296.91,-33.51 281.72,-33.51 267.24,-33.51"/>
<polygon fill="midnightblue" stroke="midnightblue" points="311.91,-37.01 321.91,-33.51 311.91,-30.01 311.91,-37.01"/>
</g>
</g>
</svg>
