<?xml version="1.0" encoding="UTF-8" standalone="no"?>
<!DOCTYPE svg PUBLIC "-//W3C//DTD SVG 1.1//EN"
 "http://www.w3.org/Graphics/SVG/1.1/DTD/svg11.dtd">
<!-- Generated by graphviz version 2.43.0 (0)
 -->
<!-- Title: RowFormattingTests Pages: 1 -->
<svg width="240pt" height="215pt"
 viewBox="0.00 0.00 239.50 215.00" xmlns="http://www.w3.org/2000/svg" xmlns:xlink="http://www.w3.org/1999/xlink">
<g id="graph0" class="graph" transform="scale(1 1) rotate(0) translate(4 211)">
<title>RowFormattingTests</title>
<!-- Node1 -->
<g id="Node000001" class="node">
<title>Node1</title>
<g id="a_Node000001"><a xlink:title=" ">
<polygon fill="#999999" stroke="#666666" points="116,-19 0,-19 0,0 116,0 116,-19"/>
<text text-anchor="middle" x="58" y="-7" font-family="Helvetica,sans-Serif" font-size="10.00">RowFormattingTests</text>
</a>
</g>
</g>
<!-- Node2 -->
<g id="Node000002" class="node">
<title>Node2</title>
<g id="a_Node000002"><a xlink:title=" ">
<polygon fill="white" stroke="#666666" points="60,-85 24,-85 24,-66 60,-66 60,-85"/>
<text text-anchor="middle" x="42" y="-73" font-family="Helvetica,sans-Serif" font-size="10.00">Test</text>
</a>
</g>
</g>
<!-- Node2&#45;&gt;Node1 -->
<g id="edge1_Node000001_Node000002" class="edge">
<title>Node2&#45;&gt;Node1</title>
<g id="a_edge1_Node000001_Node000002"><a xlink:title=" ">
<path fill="none" stroke="#63b8ff" d="M46.64,-55.95C49.64,-43.93 53.42,-28.82 55.77,-19.41"/>
<polygon fill="#63b8ff" stroke="#63b8ff" points="43.19,-55.32 44.16,-65.87 49.98,-57.02 43.19,-55.32"/>
</a>
</g>
</g>
<!-- Node3 -->
<g id="Node000003" class="node">
<title>Node3</title>
<g id="a_Node000003"><a xlink:href="classMockColourDisplay.html" target="_top" xlink:title="Mock colour display class for format testing.">
<polygon fill="white" stroke="#666666" points="189.5,-85 78.5,-85 78.5,-66 189.5,-66 189.5,-85"/>
<text text-anchor="middle" x="134" y="-73" font-family="Helvetica,sans-Serif" font-size="10.00">MockColourDisplay</text>
</a>
</g>
</g>
<!-- Node3&#45;&gt;Node1 -->
<g id="edge2_Node000001_Node000003" class="edge">
<title>Node3&#45;&gt;Node1</title>
<g id="a_edge2_Node000001_Node000003"><a xlink:title=" ">
<path fill="none" stroke="#9a32cd" stroke-dasharray="5,2" d="M115.81,-59.18C101.06,-46.76 80.78,-29.68 68.57,-19.41"/>
<polygon fill="#9a32cd" stroke="#9a32cd" points="113.85,-62.1 123.75,-65.87 118.36,-56.75 113.85,-62.1"/>
</a>
</g>
<text text-anchor="middle" x="119.5" y="-40" font-family="Helvetica,sans-Serif" font-size="10.00" fill="grey"> display</text>
</g>
<!-- Node4 -->
<g id="Node000004" class="node">
<title>Node4</title>
<g id="a_Node000004"><a xlink:href="classDisplayInterface.html" target="_top" xlink:title="Class to abstract away all physical display implementation to enable multiple display types.">
<polygon fill="white" stroke="#666666" points="182.5,-141 85.5,-141 85.5,-122 182.5,-122 182.5,-141"/>
<text text-anchor="middle" x="134" y="-129" font-family="Helvetica,sans-Serif" font-size="10.00">DisplayInterface</text>
</a>
</g>
</g>
<!-- Node4&#45;&gt;Node3 -->
<g id="edge3_Node000003_Node000004" class="edge">
<title>Node4&#45;&gt;Node3</title>
<g id="a_edge3_Node000003_Node000004"><a xlink:title=" ">
<path fill="none" stroke="#63b8ff" d="M134,-111.3C134,-102.41 134,-92.28 134,-85.25"/>
<polygon fill="#63b8ff" stroke="#63b8ff" points="130.5,-111.58 134,-121.58 137.5,-111.58 130.5,-111.58"/>
</a>
</g>
</g>
<!-- Node4&#45;&gt;Node4 -->
<g id="edge4_Node000004_Node000004" class="edge">
<title>Node4&#45;&gt;Node4</title>
<g id="a_edge4_Node000004_Node000004"><a xlink:title=" ">
<path fill="none" stroke="#9a32cd" stroke-dasharray="5,2" d="M192.88,-135.5C197.59,-134.63 200.5,-133.29 200.5,-131.5 200.5,-128.63 193.04,-126.94 182.71,-126.42"/>
<polygon fill="#9a32cd" stroke="#9a32cd" points="192.29,-132.05 182.71,-136.58 193.03,-139.01 192.29,-132.05"/>
</a>
</g>
<text text-anchor="middle" x="216" y="-129" font-family="Helvetica,sans-Serif" font-size="10.00" fill="grey"> _next</text>
</g>
<!-- Node5 -->
<g id="Node000005" class="node">
<title>Node5</title>
<g id="a_Node000005"><a xlink:href="classLogger.html" target="_top" xlink:title="Class to enable simple logging to a Stream object with different log levels This enables embedding pe...">
<polygon fill="#fff0f0" stroke="red" points="159,-207 109,-207 109,-188 159,-188 159,-207"/>
<text text-anchor="middle" x="134" y="-195" font-family="Helvetica,sans-Serif" font-size="10.00">Logger</text>
</a>
</g>
</g>
<!-- Node5&#45;&gt;Node4 -->
<g id="edge5_Node000004_Node000005" class="edge">
<title>Node5&#45;&gt;Node4</title>
<g id="a_edge5_Node000004_Node000005"><a xlink:title=" ">
<path fill="none" stroke="#9a32cd" stroke-dasharray="5,2" d="M134,-177.58C134,-165.63 134,-150.72 134,-141.41"/>
<polygon fill="#9a32cd" stroke="#9a32cd" points="130.5,-177.87 134,-187.87 137.5,-177.87 130.5,-177.87"/>
</a>
</g>
<text text-anchor="middle" x="154" y="-162" font-family="Helvetica,sans-Serif" font-size="10.00" fill="grey"> _logger</text>
</g>
</g>
</svg>
