<?xml version="1.0" encoding="UTF-8" standalone="no"?>
<!DOCTYPE svg PUBLIC "-//W3C//DTD SVG 1.1//EN"
 "http://www.w3.org/Graphics/SVG/1.1/DTD/svg11.dtd">
<!-- Generated by graphviz version 2.43.0 (0)
 -->
<!-- Title: ScreenManager::getMaxScreenId Pages: 1 -->
<svg width="762pt" height="135pt"
 viewBox="0.00 0.00 762.00 135.00" xmlns="http://www.w3.org/2000/svg" xmlns:xlink="http://www.w3.org/1999/xlink">
<g id="graph0" class="graph" transform="scale(1 1) rotate(0) translate(4 131)">
<title>ScreenManager::getMaxScreenId</title>
<polygon fill="white" stroke="transparent" points="-4,4 -4,-131 758,-131 758,4 -4,4"/>
<!-- Node1 -->
<g id="node1" class="node">
<title>Node1</title>
<g id="a_node1"><a xlink:title="Get the highest Screen ID in the list.">
<polygon fill="#bfbfbf" stroke="black" points="577,-44.5 577,-63.5 754,-63.5 754,-44.5 577,-44.5"/>
<text text-anchor="middle" x="665.5" y="-51.5" font-family="Helvetica,sans-Serif" font-size="10.00">ScreenManager::getMaxScreenId</text>
</a>
</g>
</g>
<!-- Node2 -->
<g id="node2" class="node">
<title>Node2</title>
<g id="a_node2"><a xlink:href="classScreenManager.html#a38890def1478514514341039b83299ef" target="_top" xlink:title="Get the next screen in the list (sorted by ID)">
<polygon fill="white" stroke="black" points="371,-88.5 371,-107.5 541,-107.5 541,-88.5 371,-88.5"/>
<text text-anchor="middle" x="456" y="-95.5" font-family="Helvetica,sans-Serif" font-size="10.00">ScreenManager::getNextScreen</text>
</a>
</g>
</g>
<!-- Node1&#45;&gt;Node2 -->
<g id="edge1" class="edge">
<title>Node1&#45;&gt;Node2</title>
<path fill="none" stroke="midnightblue" d="M609.36,-65.69C575.8,-72.81 533.46,-81.79 501.94,-88.47"/>
<polygon fill="midnightblue" stroke="midnightblue" points="610.42,-69.05 619.48,-63.55 608.97,-62.2 610.42,-69.05"/>
</g>
<!-- Node6 -->
<g id="node6" class="node">
<title>Node6</title>
<g id="a_node6"><a xlink:href="classScreenManager.html#a64ecbfb9232d4051a75ff5abea58ba6d" target="_top" xlink:title="Get the previous screen in the list (sorted by ID)">
<polygon fill="white" stroke="black" points="378,-39 378,-69 534,-69 534,-39 378,-39"/>
<text text-anchor="start" x="386" y="-57" font-family="Helvetica,sans-Serif" font-size="10.00">ScreenManager::getPrevious</text>
<text text-anchor="middle" x="456" y="-46" font-family="Helvetica,sans-Serif" font-size="10.00">Screen</text>
</a>
</g>
</g>
<!-- Node1&#45;&gt;Node6 -->
<g id="edge5" class="edge">
<title>Node1&#45;&gt;Node6</title>
<path fill="none" stroke="midnightblue" d="M566.79,-54C555.85,-54 544.82,-54 534.19,-54"/>
<polygon fill="midnightblue" stroke="midnightblue" points="566.8,-57.5 576.8,-54 566.8,-50.5 566.8,-57.5"/>
</g>
<!-- Node8 -->
<g id="node8" class="node">
<title>Node8</title>
<g id="a_node8"><a xlink:href="test__ScreenManager_8cpp.html#ab5ada86d9042a1a62ed2251d66d84ef3" target="_top" xlink:title="Create a list of Screens with ScreenManager.">
<polygon fill="white" stroke="black" points="430,-0.5 430,-19.5 482,-19.5 482,-0.5 430,-0.5"/>
<text text-anchor="middle" x="456" y="-7.5" font-family="Helvetica,sans-Serif" font-size="10.00">TEST_F</text>
</a>
</g>
</g>
<!-- Node1&#45;&gt;Node8 -->
<g id="edge9" class="edge">
<title>Node1&#45;&gt;Node8</title>
<path fill="none" stroke="midnightblue" d="M609.55,-42.35C568.22,-33.58 513.52,-21.98 482.1,-15.32"/>
<polygon fill="midnightblue" stroke="midnightblue" points="608.97,-45.8 619.48,-44.45 610.42,-38.95 608.97,-45.8"/>
</g>
<!-- Node3 -->
<g id="node3" class="node">
<title>Node3</title>
<g id="a_node3"><a xlink:href="classController.html#aa981e303ca83593ffb34db49c7d73cc6" target="_top" xlink:title="Selects the next screen for the selected display.">
<polygon fill="white" stroke="black" points="174,-107.5 174,-126.5 335,-126.5 335,-107.5 174,-107.5"/>
<text text-anchor="middle" x="254.5" y="-114.5" font-family="Helvetica,sans-Serif" font-size="10.00">Controller::_selectNextScreen</text>
</a>
</g>
</g>
<!-- Node2&#45;&gt;Node3 -->
<g id="edge2" class="edge">
<title>Node2&#45;&gt;Node3</title>
<path fill="none" stroke="midnightblue" d="M360.94,-106.96C352.36,-107.77 343.73,-108.6 335.29,-109.4"/>
<polygon fill="midnightblue" stroke="midnightblue" points="361.35,-110.44 370.97,-106 360.69,-103.47 361.35,-110.44"/>
</g>
<!-- Node5 -->
<g id="node5" class="node">
<title>Node5</title>
<g id="a_node5"><a xlink:href="test__ScreenManager_8cpp.html#a339218e57c67512f1332ef94ac1b9fb8" target="_top" xlink:title="Validate that previous screen is a lower ID, and next is a higher ID, wrapping around the list.">
<polygon fill="white" stroke="black" points="228.5,-69.5 228.5,-88.5 280.5,-88.5 280.5,-69.5 228.5,-69.5"/>
<text text-anchor="middle" x="254.5" y="-76.5" font-family="Helvetica,sans-Serif" font-size="10.00">TEST_F</text>
</a>
</g>
</g>
<!-- Node2&#45;&gt;Node5 -->
<g id="edge4" class="edge">
<title>Node2&#45;&gt;Node5</title>
<path fill="none" stroke="midnightblue" d="M360.99,-89.05C331.43,-86.23 301.19,-83.35 280.71,-81.4"/>
<polygon fill="midnightblue" stroke="midnightblue" points="360.69,-92.53 370.97,-90 361.35,-85.56 360.69,-92.53"/>
</g>
<!-- Node4 -->
<g id="node4" class="node">
<title>Node4</title>
<g id="a_node4"><a xlink:href="classController.html#af9c9f10320fb7770553156da4d164e64" target="_top" xlink:title="Method to implement to respond to an input action.">
<polygon fill="white" stroke="black" points="0,-66.5 0,-85.5 138,-85.5 138,-66.5 0,-66.5"/>
<text text-anchor="middle" x="69" y="-73.5" font-family="Helvetica,sans-Serif" font-size="10.00">Controller::onInputAction</text>
</a>
</g>
</g>
<!-- Node3&#45;&gt;Node4 -->
<g id="edge3" class="edge">
<title>Node3&#45;&gt;Node4</title>
<path fill="none" stroke="midnightblue" d="M200.93,-105.25C172.94,-99 138.97,-91.41 112.65,-85.53"/>
<polygon fill="midnightblue" stroke="midnightblue" points="200.42,-108.73 210.94,-107.49 201.94,-101.89 200.42,-108.73"/>
</g>
<!-- Node6&#45;&gt;Node5 -->
<g id="edge8" class="edge">
<title>Node6&#45;&gt;Node5</title>
<path fill="none" stroke="midnightblue" d="M367.69,-64.94C336.11,-68.9 302.83,-73.07 280.8,-75.83"/>
<polygon fill="midnightblue" stroke="midnightblue" points="368.38,-68.38 377.87,-63.67 367.51,-61.44 368.38,-68.38"/>
</g>
<!-- Node7 -->
<g id="node7" class="node">
<title>Node7</title>
<g id="a_node7"><a xlink:href="classController.html#a3e02f73e534a929849f981ec892b4f54" target="_top" xlink:title="Selects the previous screen for the selected display.">
<polygon fill="white" stroke="black" points="181,-20 181,-50 328,-50 328,-20 181,-20"/>
<text text-anchor="start" x="189" y="-38" font-family="Helvetica,sans-Serif" font-size="10.00">Controller::_selectPrevious</text>
<text text-anchor="middle" x="254.5" y="-27" font-family="Helvetica,sans-Serif" font-size="10.00">Screen</text>
</a>
</g>
</g>
<!-- Node6&#45;&gt;Node7 -->
<g id="edge6" class="edge">
<title>Node6&#45;&gt;Node7</title>
<path fill="none" stroke="midnightblue" d="M367.82,-45.7C354.59,-44.44 341.06,-43.15 328.17,-41.92"/>
<polygon fill="midnightblue" stroke="midnightblue" points="367.58,-49.19 377.87,-46.65 368.24,-42.22 367.58,-49.19"/>
</g>
<!-- Node7&#45;&gt;Node4 -->
<g id="edge7" class="edge">
<title>Node7&#45;&gt;Node4</title>
<path fill="none" stroke="midnightblue" d="M176.32,-52.25C154.57,-57.11 131.7,-62.22 112.76,-66.45"/>
<polygon fill="midnightblue" stroke="midnightblue" points="177.22,-55.63 186.21,-50.03 175.69,-48.8 177.22,-55.63"/>
</g>
</g>
</svg>
