<?xml version="1.0" encoding="UTF-8" standalone="no"?>
<!DOCTYPE svg PUBLIC "-//W3C//DTD SVG 1.1//EN"
 "http://www.w3.org/Graphics/SVG/1.1/DTD/svg11.dtd">
<!-- Generated by graphviz version 2.43.0 (0)
 -->
<!-- Title: Screen::getId Pages: 1 -->
<!--zoomable 544 -->

<svg id="main" version="1.1" xmlns="http://www.w3.org/2000/svg" xmlns:xlink="http://www.w3.org/1999/xlink" xml:space="preserve" onload="init(evt)">
<style type="text/css"><![CDATA[
.node, .edge {opacity: 0.7;}
.node.selected, .edge.selected {opacity: 1;}
.edge:hover path { stroke: red; }
.edge:hover polygon { stroke: red; fill: red; }
]]></style>

<defs>
  <circle id="rim" cx="0" cy="0" r="7"/>
  <circle id="rim2" cx="0" cy="0" r="3.5"/>
  <g id="zoomPlus">
    <use xlink:href="#rim" fill="#404040"><set attributeName="fill" to="#808080" begin="zoomplus.mouseover" end="zoomplus.mouseout"/></use>
    <path d="M-4,0h8M0,-4v8" fill="none" stroke="white" stroke-width="1.5" pointer-events="none"/>
  </g>
  <g id="zoomMin">
    <use xlink:href="#rim" fill="#404040"><set attributeName="fill" to="#808080" begin="zoomminus.mouseover" end="zoomminus.mouseout"/></use>
    <path d="M-4,0h8" fill="none" stroke="white" stroke-width="1.5" pointer-events="none"/>
  </g>
  <g id="arrowUp" transform="translate(30 24)">
    <use xlink:href="#rim"/>
    <path pointer-events="none" fill="none" stroke="white" stroke-width="1.5" d="M0,-3.0v7 M-2.5,-0.5L0,-3.0L2.5,-0.5"/>
  </g>
  <g id="arrowRight" transform="rotate(90) translate(36 -43)">
    <use xlink:href="#rim"/>
    <path pointer-events="none" fill="none" stroke="white" stroke-width="1.5" d="M0,-3.0v7 M-2.5,-0.5L0,-3.0L2.5,-0.5"/>
  </g>
  <g id="arrowDown" transform="rotate(180) translate(-30 -48)">
    <use xlink:href="#rim"/>
    <path pointer-events="none" fill="none" stroke="white" stroke-width="1.5" d="M0,-3.0v7 M-2.5,-0.5L0,-3.0L2.5,-0.5"/>
  </g>
  <g id="arrowLeft" transform="rotate(270) translate(-36 17)">
    <use xlink:href="#rim"/>
    <path pointer-events="none" fill="none" stroke="white" stroke-width="1.5" d="M0,-3.0v7 M-2.5,-0.5L0,-3.0L2.5,-0.5"/>
  </g>
  <g id="resetDef">
    <use xlink:href="#rim2" fill="#404040"><set attributeName="fill" to="#808080" begin="reset.mouseover" end="reset.mouseout"/></use>
  </g>
</defs>
<script type="application/ecmascript">
var viewWidth = 878;
var viewHeight = 544;
var sectionId = 'dynsection-7';
</script>
<script type="application/ecmascript" xlink:href="svg.min.js"/>
<svg id="graph" class="graph">
<g id="viewport">
<title>Screen::getId</title>
<!-- Node1 -->
<g id="Node000001" class="node">
<title>Node1</title>
<g id="a_Node000001"><a xlink:title="Get the ID for this screen instance.">
<polygon fill="#999999" stroke="#666666" points="870,-261 790,-261 790,-242 870,-242 870,-261"/>
<text text-anchor="middle" x="830" y="-249" font-family="Helvetica,sans-Serif" font-size="10.00">Screen::getId</text>
</a>
</g>
</g>
<!-- Node2 -->
<g id="Node000002" class="node">
<title>Node2</title>
<g id="a_Node000002"><a xlink:href="classController.html#aa981e303ca83593ffb34db49c7d73cc6" target="_top" xlink:title="Selects the next screen for the selected display.">
<polygon fill="white" stroke="#666666" points="335,-480 174,-480 174,-461 335,-461 335,-480"/>
<text text-anchor="middle" x="254.5" y="-468" font-family="Helvetica,sans-Serif" font-size="10.00">Controller::_selectNextScreen</text>
</a>
</g>
</g>
<!-- Node1&#45;&gt;Node2 -->
<g id="edge1_Node000001_Node000002" class="edge">
<title>Node1&#45;&gt;Node2</title>
<g id="a_edge1_Node000001_Node000002"><a xlink:title=" ">
<path fill="none" stroke="#63b8ff" d="M829.53,-271.22C829.56,-317.12 822.39,-430.94 754,-480.5 604.18,-589.08 357.01,-509.37 279.51,-480.1"/>
<polygon fill="#63b8ff" stroke="#63b8ff" points="833.03,-271.05 829.4,-261.1 826.03,-271.14 833.03,-271.05"/>
</a>
</g>
</g>
<!-- Node4 -->
<g id="Node000004" class="node">
<title>Node4</title>
<g id="a_Node000004"><a xlink:href="classController.html#a3e02f73e534a929849f981ec892b4f54" target="_top" xlink:title="Selects the previous screen for the selected display.">
<polygon fill="white" stroke="#666666" points="328,-442.5 181,-442.5 181,-412.5 328,-412.5 328,-442.5"/>
<text text-anchor="start" x="189" y="-430.5" font-family="Helvetica,sans-Serif" font-size="10.00">Controller::_selectPrevious</text>
<text text-anchor="middle" x="254.5" y="-419.5" font-family="Helvetica,sans-Serif" font-size="10.00">Screen</text>
</a>
</g>
</g>
<!-- Node1&#45;&gt;Node4 -->
<g id="edge3_Node000001_Node000004" class="edge">
<title>Node1&#45;&gt;Node4</title>
<g id="a_edge3_Node000001_Node000004"><a xlink:title=" ">
<path fill="none" stroke="#63b8ff" d="M827.98,-271.36C824.72,-311.57 811.07,-402.21 754,-442.5 614.92,-540.69 540.5,-465.5 371,-449.5 355.25,-448.01 338.45,-445.41 322.68,-442.5"/>
<polygon fill="#63b8ff" stroke="#63b8ff" points="831.48,-271.44 828.66,-261.23 824.49,-270.97 831.48,-271.44"/>
</a>
</g>
</g>
<!-- Node5 -->
<g id="Node000005" class="node">
<title>Node5</title>
<g id="a_Node000005"><a xlink:href="classScreenManager.html#a6cc01abb59037b653ca45f130c83c9b3" target="_top" xlink:title="Get the highest Screen ID in the list.">
<polygon fill="white" stroke="#666666" points="754,-318 577,-318 577,-299 754,-299 754,-318"/>
<text text-anchor="middle" x="665.5" y="-306" font-family="Helvetica,sans-Serif" font-size="10.00">ScreenManager::getMaxScreenId</text>
</a>
</g>
</g>
<!-- Node1&#45;&gt;Node5 -->
<g id="edge5_Node000001_Node000005" class="edge">
<title>Node1&#45;&gt;Node5</title>
<g id="a_edge5_Node000001_Node000005"><a xlink:title=" ">
<path fill="none" stroke="#63b8ff" d="M799.86,-265.51C786.14,-271.8 769.43,-279.02 754,-284.5 738.56,-289.98 721.23,-294.97 706.08,-298.96"/>
<polygon fill="#63b8ff" stroke="#63b8ff" points="801.68,-268.53 809.27,-261.14 798.72,-262.18 801.68,-268.53"/>
</a>
</g>
</g>
<!-- Node6 -->
<g id="Node000006" class="node">
<title>Node6</title>
<g id="a_Node000006"><a xlink:href="classScreenManager.html#a38890def1478514514341039b83299ef" target="_top" xlink:title="Get the next screen in the list (sorted by ID)">
<polygon fill="white" stroke="#666666" points="541,-440 371,-440 371,-421 541,-421 541,-440"/>
<text text-anchor="middle" x="456" y="-428" font-family="Helvetica,sans-Serif" font-size="10.00">ScreenManager::getNextScreen</text>
</a>
</g>
</g>
<!-- Node1&#45;&gt;Node6 -->
<g id="edge18_Node000001_Node000006" class="edge">
<title>Node1&#45;&gt;Node6</title>
<g id="a_edge18_Node000001_Node000006"><a xlink:title=" ">
<path fill="none" stroke="#63b8ff" d="M826.07,-271.34C819.8,-306.01 801.54,-377.04 754,-409.5 677.37,-461.82 562.19,-451.09 500.19,-440.01"/>
<polygon fill="#63b8ff" stroke="#63b8ff" points="829.59,-271.52 827.77,-261.08 822.68,-270.38 829.59,-271.52"/>
</a>
</g>
</g>
<!-- Node7 -->
<g id="Node000007" class="node">
<title>Node7</title>
<g id="a_Node000007"><a xlink:href="test__ScreenManager_8cpp.html#a339218e57c67512f1332ef94ac1b9fb8" target="_top" xlink:title="Validate that previous screen is a lower ID, and next is a higher ID, wrapping around the list.">
<polygon fill="white" stroke="#666666" points="280.5,-359 228.5,-359 228.5,-340 280.5,-340 280.5,-359"/>
<text text-anchor="middle" x="254.5" y="-347" font-family="Helvetica,sans-Serif" font-size="10.00">TEST_F</text>
</a>
</g>
</g>
<!-- Node1&#45;&gt;Node7 -->
<g id="edge26_Node000001_Node000007" class="edge">
<title>Node1&#45;&gt;Node7</title>
<g id="a_edge26_Node000001_Node000007"><a xlink:title=" ">
<path fill="none" stroke="#63b8ff" d="M779.67,-240.26C693.54,-223 511.51,-197.13 371,-249.5 321.29,-268.03 278.76,-318.64 262.53,-339.9"/>
<polygon fill="#63b8ff" stroke="#63b8ff" points="779.19,-243.73 789.69,-242.32 780.6,-236.88 779.19,-243.73"/>
</a>
</g>
</g>
<!-- Node8 -->
<g id="Node000008" class="node">
<title>Node8</title>
<g id="a_Node000008"><a xlink:href="classScreenManager.html#a64ecbfb9232d4051a75ff5abea58ba6d" target="_top" xlink:title="Get the previous screen in the list (sorted by ID)">
<polygon fill="white" stroke="#666666" points="534,-364.5 378,-364.5 378,-334.5 534,-334.5 534,-364.5"/>
<text text-anchor="start" x="386" y="-352.5" font-family="Helvetica,sans-Serif" font-size="10.00">ScreenManager::getPrevious</text>
<text text-anchor="middle" x="456" y="-341.5" font-family="Helvetica,sans-Serif" font-size="10.00">Screen</text>
</a>
</g>
</g>
<!-- Node1&#45;&gt;Node8 -->
<g id="edge19_Node000001_Node000008" class="edge">
<title>Node1&#45;&gt;Node8</title>
<g id="a_edge19_Node000001_Node000008"><a xlink:title=" ">
<path fill="none" stroke="#63b8ff" d="M817.07,-269.69C804,-287.88 781.23,-314.92 754,-327.5 684.66,-359.55 596.43,-361.94 534.21,-358.22"/>
<polygon fill="#63b8ff" stroke="#63b8ff" points="820.19,-271.32 822.99,-261.1 814.43,-267.35 820.19,-271.32"/>
</a>
</g>
</g>
<!-- Node9 -->
<g id="Node000009" class="node">
<title>Node9</title>
<g id="a_Node000009"><a xlink:href="test__ScreenManager_8cpp.html#ab5ada86d9042a1a62ed2251d66d84ef3" target="_top" xlink:title="Create a list of Screens with ScreenManager.">
<polygon fill="white" stroke="#666666" points="482,-278 430,-278 430,-259 482,-259 482,-278"/>
<text text-anchor="middle" x="456" y="-266" font-family="Helvetica,sans-Serif" font-size="10.00">TEST_F</text>
</a>
</g>
</g>
<!-- Node1&#45;&gt;Node9 -->
<g id="edge25_Node000001_Node000009" class="edge">
<title>Node1&#45;&gt;Node9</title>
<g id="a_edge25_Node000001_Node000009"><a xlink:title=" ">
<path fill="none" stroke="#63b8ff" d="M779.55,-253.76C699.21,-257.43 543.22,-264.56 482.27,-267.35"/>
<polygon fill="#63b8ff" stroke="#63b8ff" points="780.06,-257.24 789.89,-253.29 779.74,-250.25 780.06,-257.24"/>
</a>
</g>
</g>
<!-- Node10 -->
<g id="Node000010" class="node">
<title>Node10</title>
<g id="a_Node000010"><a xlink:href="classScreenManager.html#acd4f0a92975819547a21bfc7d6320f6d" target="_top" xlink:title="Get the lowest Screen ID in the list.">
<polygon fill="white" stroke="#666666" points="752.5,-400 578.5,-400 578.5,-381 752.5,-381 752.5,-400"/>
<text text-anchor="middle" x="665.5" y="-388" font-family="Helvetica,sans-Serif" font-size="10.00">ScreenManager::getMinScreenId</text>
</a>
</g>
</g>
<!-- Node1&#45;&gt;Node10 -->
<g id="edge14_Node000001_Node000010" class="edge">
<title>Node1&#45;&gt;Node10</title>
<g id="a_edge14_Node000001_Node000010"><a xlink:title=" ">
<path fill="none" stroke="#63b8ff" d="M821.01,-270.47C809.66,-295.18 786.57,-338.09 754,-362.5 742.9,-370.82 729.23,-376.72 716.03,-380.88"/>
<polygon fill="#63b8ff" stroke="#63b8ff" points="824.31,-271.67 825.15,-261.11 817.9,-268.84 824.31,-271.67"/>
</a>
</g>
</g>
<!-- Node11 -->
<g id="Node000011" class="node">
<title>Node11</title>
<g id="a_Node000011"><a xlink:href="test__ControllerDisplayUpdate_8cpp.html#af7a73dc328bc3f14a231b3d577180628" target="_top" xlink:title="Test to ensure a mock display correctly receives screen updates from the Controller.">
<polygon fill="white" stroke="#666666" points="691.5,-204 639.5,-204 639.5,-185 691.5,-185 691.5,-204"/>
<text text-anchor="middle" x="665.5" y="-192" font-family="Helvetica,sans-Serif" font-size="10.00">TEST_F</text>
</a>
</g>
</g>
<!-- Node1&#45;&gt;Node11 -->
<g id="edge20_Node000001_Node000011" class="edge">
<title>Node1&#45;&gt;Node11</title>
<g id="a_edge20_Node000001_Node000011"><a xlink:title=" ">
<path fill="none" stroke="#63b8ff" d="M799.86,-237.49C786.14,-231.2 769.43,-223.98 754,-218.5 733.37,-211.18 709.34,-204.73 691.69,-200.37"/>
<polygon fill="#63b8ff" stroke="#63b8ff" points="798.72,-240.82 809.27,-241.86 801.68,-234.47 798.72,-240.82"/>
</a>
</g>
</g>
<!-- Node12 -->
<g id="Node000012" class="node">
<title>Node12</title>
<g id="a_Node000012"><a xlink:href="test__ControllerInputAction_8cpp.html#a8f23663971c4dff626cd0d8c765fd290" target="_top" xlink:title="This test ensures left/right buttons or touches switch the active screen.">
<polygon fill="white" stroke="#666666" points="691.5,-167 639.5,-167 639.5,-148 691.5,-148 691.5,-167"/>
<text text-anchor="middle" x="665.5" y="-155" font-family="Helvetica,sans-Serif" font-size="10.00">TEST_F</text>
</a>
</g>
</g>
<!-- Node1&#45;&gt;Node12 -->
<g id="edge21_Node000001_Node000012" class="edge">
<title>Node1&#45;&gt;Node12</title>
<g id="a_edge21_Node000001_Node000012"><a xlink:title=" ">
<path fill="none" stroke="#63b8ff" d="M816.29,-233.46C802.87,-215.83 780.08,-189.66 754,-175.5 734.65,-164.99 709.84,-160.6 691.59,-158.78"/>
<polygon fill="#63b8ff" stroke="#63b8ff" points="813.67,-235.8 822.42,-241.78 819.31,-231.65 813.67,-235.8"/>
</a>
</g>
</g>
<!-- Node13 -->
<g id="Node000013" class="node">
<title>Node13</title>
<g id="a_Node000013"><a xlink:href="test__DisplayInterface_8cpp.html#af8969d96ad38792b87e59f8c2a0c0e1f" target="_top" xlink:title="Test DisplayInterface methods that should interact with a physical display.">
<polygon fill="white" stroke="#666666" points="691.5,-130 639.5,-130 639.5,-111 691.5,-111 691.5,-130"/>
<text text-anchor="middle" x="665.5" y="-118" font-family="Helvetica,sans-Serif" font-size="10.00">TEST_F</text>
</a>
</g>
</g>
<!-- Node1&#45;&gt;Node13 -->
<g id="edge22_Node000001_Node000013" class="edge">
<title>Node1&#45;&gt;Node13</title>
<g id="a_edge22_Node000001_Node000013"><a xlink:title=" ">
<path fill="none" stroke="#63b8ff" d="M821.79,-232.37C811.08,-206.74 788.47,-161.78 754,-138.5 735.62,-126.09 710.47,-121.93 691.85,-120.67"/>
<polygon fill="#63b8ff" stroke="#63b8ff" points="818.58,-233.77 825.53,-241.76 825.08,-231.18 818.58,-233.77"/>
</a>
</g>
</g>
<!-- Node14 -->
<g id="Node000014" class="node">
<title>Node14</title>
<g id="a_Node000014"><a xlink:href="test__DisplayScreens_8cpp.html#a1666ced739e5965d0ba9f6722b5a4d48" target="_top" xlink:title="Ensure the first display has a valid screen ID to display.">
<polygon fill="white" stroke="#666666" points="691.5,-93 639.5,-93 639.5,-74 691.5,-74 691.5,-93"/>
<text text-anchor="middle" x="665.5" y="-81" font-family="Helvetica,sans-Serif" font-size="10.00">TEST_F</text>
</a>
</g>
</g>
<!-- Node1&#45;&gt;Node14 -->
<g id="edge23_Node000001_Node000014" class="edge">
<title>Node1&#45;&gt;Node14</title>
<g id="a_edge23_Node000001_Node000014"><a xlink:title=" ">
<path fill="none" stroke="#63b8ff" d="M825,-231.89C817.29,-199.39 797.17,-134.66 754,-101.5 736.17,-87.8 710.46,-83.85 691.53,-82.99"/>
<polygon fill="#63b8ff" stroke="#63b8ff" points="821.64,-232.93 827.22,-241.94 828.48,-231.42 821.64,-232.93"/>
</a>
</g>
</g>
<!-- Node15 -->
<g id="Node000015" class="node">
<title>Node15</title>
<g id="a_Node000015"><a xlink:href="test__DisplayScreens_8cpp.html#ab303fb98b2f8f60f7514fd89163e764f" target="_top" xlink:title="Validate that update() correctly calls display instance updates.">
<polygon fill="white" stroke="#666666" points="691.5,-56 639.5,-56 639.5,-37 691.5,-37 691.5,-56"/>
<text text-anchor="middle" x="665.5" y="-44" font-family="Helvetica,sans-Serif" font-size="10.00">TEST_F</text>
</a>
</g>
</g>
<!-- Node1&#45;&gt;Node15 -->
<g id="edge24_Node000001_Node000015" class="edge">
<title>Node1&#45;&gt;Node15</title>
<g id="a_edge24_Node000001_Node000015"><a xlink:title=" ">
<path fill="none" stroke="#63b8ff" d="M827.09,-231.53C822.28,-192.91 806.05,-108 754,-64.5 736.74,-50.08 710.96,-46.22 691.85,-45.58"/>
<polygon fill="#63b8ff" stroke="#63b8ff" points="823.66,-232.37 828.24,-241.93 830.62,-231.6 823.66,-232.37"/>
</a>
</g>
</g>
<!-- Node16 -->
<g id="Node000016" class="node">
<title>Node16</title>
<g id="a_Node000016"><a xlink:href="test__Screen_8cpp.html#a680e2c57d51963c79048644663f58770" target="_top" xlink:title="Create a Screen and check all attributes are valid.">
<polygon fill="white" stroke="#666666" points="691.5,-19 639.5,-19 639.5,0 691.5,0 691.5,-19"/>
<text text-anchor="middle" x="665.5" y="-7" font-family="Helvetica,sans-Serif" font-size="10.00">TEST_F</text>
</a>
</g>
</g>
<!-- Node1&#45;&gt;Node16 -->
<g id="edge27_Node000001_Node000016" class="edge">
<title>Node1&#45;&gt;Node16</title>
<g id="a_edge27_Node000001_Node000016"><a xlink:title=" ">
<path fill="none" stroke="#63b8ff" d="M828.6,-231.6C826.59,-187.62 815.26,-81.81 754,-27.5 737.06,-12.48 710.98,-8.74 691.7,-8.29"/>
<polygon fill="#63b8ff" stroke="#63b8ff" points="825.11,-231.72 828.95,-241.6 832.1,-231.48 825.11,-231.72"/>
</a>
</g>
</g>
<!-- Node3 -->
<g id="Node000003" class="node">
<title>Node3</title>
<g id="a_Node000003"><a xlink:href="classController.html#af9c9f10320fb7770553156da4d164e64" target="_top" xlink:title="Method to implement to respond to an input action.">
<polygon fill="white" stroke="#666666" points="138,-458 0,-458 0,-439 138,-439 138,-458"/>
<text text-anchor="middle" x="69" y="-446" font-family="Helvetica,sans-Serif" font-size="10.00">Controller::onInputAction</text>
</a>
</g>
</g>
<!-- Node2&#45;&gt;Node3 -->
<g id="edge2_Node000002_Node000003" class="edge">
<title>Node2&#45;&gt;Node3</title>
<g id="a_edge2_Node000002_Node000003"><a xlink:title=" ">
<path fill="none" stroke="#63b8ff" d="M163.9,-459.76C155.2,-458.71 146.47,-457.67 138.03,-456.66"/>
<polygon fill="#63b8ff" stroke="#63b8ff" points="163.74,-463.26 174.08,-460.98 164.57,-456.31 163.74,-463.26"/>
</a>
</g>
</g>
<!-- Node4&#45;&gt;Node3 -->
<g id="edge4_Node000004_Node000003" class="edge">
<title>Node4&#45;&gt;Node3</title>
<g id="a_edge4_Node000004_Node000003"><a xlink:title=" ">
<path fill="none" stroke="#63b8ff" d="M170.96,-436.95C159.97,-438.2 148.81,-439.48 138.11,-440.71"/>
<polygon fill="#63b8ff" stroke="#63b8ff" points="171.44,-440.41 180.98,-435.8 170.64,-433.46 171.44,-440.41"/>
</a>
</g>
</g>
<!-- Node5&#45;&gt;Node6 -->
<g id="edge6_Node000005_Node000006" class="edge">
<title>Node5&#45;&gt;Node6</title>
<g id="a_edge6_Node000005_Node000006"><a xlink:title=" ">
<path fill="none" stroke="#63b8ff" d="M639.48,-323.21C596.37,-348.56 509.27,-399.77 473.21,-420.97"/>
<polygon fill="#63b8ff" stroke="#63b8ff" points="641.37,-326.16 648.22,-318.07 637.82,-320.12 641.37,-326.16"/>
</a>
</g>
</g>
<!-- Node5&#45;&gt;Node7 -->
<g id="edge13_Node000005_Node000007" class="edge">
<title>Node5&#45;&gt;Node7</title>
<g id="a_edge13_Node000005_Node000007"><a xlink:title=" ">
<path fill="none" stroke="#63b8ff" d="M566.72,-310.57C509.48,-312.67 435.92,-316.92 371,-325.5 339.53,-329.66 303.83,-337.58 280.55,-343.18"/>
<polygon fill="#63b8ff" stroke="#63b8ff" points="566.98,-314.06 576.85,-310.21 566.74,-307.06 566.98,-314.06"/>
</a>
</g>
</g>
<!-- Node5&#45;&gt;Node8 -->
<g id="edge9_Node000005_Node000008" class="edge">
<title>Node5&#45;&gt;Node8</title>
<g id="a_edge9_Node000005_Node000008"><a xlink:title=" ">
<path fill="none" stroke="#63b8ff" d="M606.56,-319.95C583.86,-324.43 557.51,-329.64 533.31,-334.42"/>
<polygon fill="#63b8ff" stroke="#63b8ff" points="607.24,-323.38 616.37,-318.01 605.88,-316.51 607.24,-323.38"/>
</a>
</g>
</g>
<!-- Node5&#45;&gt;Node9 -->
<g id="edge12_Node000005_Node000009" class="edge">
<title>Node5&#45;&gt;Node9</title>
<g id="a_edge12_Node000005_Node000009"><a xlink:title=" ">
<path fill="none" stroke="#63b8ff" d="M605.24,-297.08C564.5,-289.22 512.48,-279.2 482.14,-273.35"/>
<polygon fill="#63b8ff" stroke="#63b8ff" points="604.58,-300.51 615.06,-298.97 605.91,-293.64 604.58,-300.51"/>
</a>
</g>
</g>
<!-- Node6&#45;&gt;Node2 -->
<g id="edge7_Node000006_Node000002" class="edge">
<title>Node6&#45;&gt;Node2</title>
<g id="a_edge7_Node000006_Node000002"><a xlink:title=" ">
<path fill="none" stroke="#63b8ff" d="M397.57,-442.02C367.6,-448.02 331.38,-455.29 303.01,-460.97"/>
<polygon fill="#63b8ff" stroke="#63b8ff" points="398.35,-445.43 407.47,-440.03 396.98,-438.56 398.35,-445.43"/>
</a>
</g>
</g>
<!-- Node6&#45;&gt;Node7 -->
<g id="edge8_Node000006_Node000007" class="edge">
<title>Node6&#45;&gt;Node7</title>
<g id="a_edge8_Node000006_Node000007"><a xlink:title=" ">
<path fill="none" stroke="#63b8ff" d="M406.4,-418.22C394.67,-414.82 382.28,-410.85 371,-406.5 334.91,-392.57 294.85,-371.44 272.67,-359.2"/>
<polygon fill="#63b8ff" stroke="#63b8ff" points="405.47,-421.6 416.05,-420.94 407.37,-414.86 405.47,-421.6"/>
</a>
</g>
</g>
<!-- Node8&#45;&gt;Node4 -->
<g id="edge10_Node000008_Node000004" class="edge">
<title>Node8&#45;&gt;Node4</title>
<g id="a_edge10_Node000008_Node000004"><a xlink:title=" ">
<path fill="none" stroke="#63b8ff" d="M407.11,-368.22C372.53,-381.74 326.44,-399.76 294.19,-412.37"/>
<polygon fill="#63b8ff" stroke="#63b8ff" points="408.5,-371.44 416.53,-364.54 405.95,-364.92 408.5,-371.44"/>
</a>
</g>
</g>
<!-- Node8&#45;&gt;Node7 -->
<g id="edge11_Node000008_Node000007" class="edge">
<title>Node8&#45;&gt;Node7</title>
<g id="a_edge11_Node000008_Node000007"><a xlink:title=" ">
<path fill="none" stroke="#63b8ff" d="M367.69,-349.5C336.11,-349.5 302.83,-349.5 280.8,-349.5"/>
<polygon fill="#63b8ff" stroke="#63b8ff" points="367.87,-353 377.87,-349.5 367.87,-346 367.87,-353"/>
</a>
</g>
</g>
<!-- Node10&#45;&gt;Node6 -->
<g id="edge15_Node000010_Node000006" class="edge">
<title>Node10&#45;&gt;Node6</title>
<g id="a_edge15_Node000010_Node000006"><a xlink:title=" ">
<path fill="none" stroke="#63b8ff" d="M605.17,-401.94C573.92,-407.96 536.05,-415.26 506.42,-420.97"/>
<polygon fill="#63b8ff" stroke="#63b8ff" points="605.91,-405.36 615.06,-400.03 604.58,-398.49 605.91,-405.36"/>
</a>
</g>
</g>
<!-- Node10&#45;&gt;Node7 -->
<g id="edge17_Node000010_Node000007" class="edge">
<title>Node10&#45;&gt;Node7</title>
<g id="a_edge17_Node000010_Node000007"><a xlink:title=" ">
<path fill="none" stroke="#63b8ff" d="M568.3,-388.49C510.84,-386.41 436.52,-382.16 371,-373.5 339.53,-369.34 303.83,-361.42 280.55,-355.82"/>
<polygon fill="#63b8ff" stroke="#63b8ff" points="568.35,-391.99 578.46,-388.84 568.59,-385 568.35,-391.99"/>
</a>
</g>
</g>
<!-- Node10&#45;&gt;Node8 -->
<g id="edge16_Node000010_Node000008" class="edge">
<title>Node10&#45;&gt;Node8</title>
<g id="a_edge16_Node000010_Node000008"><a xlink:title=" ">
<path fill="none" stroke="#63b8ff" d="M606.56,-379.05C583.86,-374.57 557.51,-369.36 533.31,-364.58"/>
<polygon fill="#63b8ff" stroke="#63b8ff" points="605.88,-382.49 616.37,-380.99 607.24,-375.62 605.88,-382.49"/>
</a>
</g>
</g>
</g>
</svg>

<g id="navigator" transform="translate(0 0)" fill="#404254">
  <rect fill="#f2f5e9" fill-opacity="0.5" stroke="#606060" stroke-width=".5" x="0" y="0" width="60" height="60"/>
  <use id="zoomplus" xlink:href="#zoomPlus" x="17" y="9" onmousedown="handleZoom(evt,'in')"/>
  <use id="zoomminus" xlink:href="#zoomMin" x="42" y="9" onmousedown="handleZoom(evt,'out')"/>
  <use id="reset" xlink:href="#resetDef" x="30" y="36" onmousedown="handleReset()"/>
   <use id="arrowup" xlink:href="#arrowUp" x="0" y="0" onmousedown="handlePan(0,-1)"/>
  <use id="arrowright" xlink:href="#arrowRight" x="0" y="0" onmousedown="handlePan(1,0)"/>
  <use id="arrowdown" xlink:href="#arrowDown" x="0" y="0" onmousedown="handlePan(0,1)"/>
  <use id="arrowleft" xlink:href="#arrowLeft" x="0" y="0" onmousedown="handlePan(-1,0)"/>
</g>
<svg viewBox="0 0 15 15" width="100%" height="30px" preserveAspectRatio="xMaxYMin meet">
 <g id="arrow_out" transform="scale(0.3 0.3)">
  <a xlink:href="classScreen_ad70000886e796b4444e3cdf5e38f6169_icgraph_org.svg" target="_base">
   <rect id="button" ry="5" rx="5" y="6" x="6" height="38" width="38"
        fill="#f2f5e9" fill-opacity="0.5" stroke="#606060" stroke-width="1.0"/>
   <path id="arrow"
     d="M 11.500037,31.436501 C 11.940474,20.09759 22.043105,11.32322 32.158766,21.979434 L 37.068811,17.246167 C 37.068811,17.246167 37.088388,32 37.088388,32 L 22.160133,31.978069 C 22.160133,31.978069 26.997745,27.140456 26.997745,27.140456 C 18.528582,18.264221 13.291696,25.230495 11.500037,31.436501 z"
     style="fill:#404040;"/>
  </a>
 </g>
</svg>

<style type='text/css'>
<![CDATA[
[data-mouse-over-selected='false'] { opacity: 0.7; }
[data-mouse-over-selected='true']  { opacity: 1.0; }
]]>
</style>
<script type="application/ecmascript"><![CDATA[
document.addEventListener('DOMContentLoaded', (event) => {
  highlightEdges();
  highlightAdjacentNodes();
});
]]></script>
</svg>
