<?xml version="1.0" encoding="UTF-8" standalone="no"?>
<!DOCTYPE svg PUBLIC "-//W3C//DTD SVG 1.1//EN"
 "http://www.w3.org/Graphics/SVG/1.1/DTD/svg11.dtd">
<!-- Generated by graphviz version 2.43.0 (0)
 -->
<!-- Title: InputInterface Pages: 1 -->
<svg width="446pt" height="82pt"
 viewBox="0.00 0.00 446.00 82.00" xmlns="http://www.w3.org/2000/svg" xmlns:xlink="http://www.w3.org/1999/xlink">

<svg id="main" version="1.1" xmlns="http://www.w3.org/2000/svg" xmlns:xlink="http://www.w3.org/1999/xlink" xml:space="preserve" onload="init(evt)">
<style type="text/css"><![CDATA[
.node, .edge {opacity: 0.7;}
.node.selected, .edge.selected {opacity: 1;}
.edge:hover path { stroke: red; }
.edge:hover polygon { stroke: red; fill: red; }
]]></style>
<script type="application/ecmascript" xlink:href="svg.min.js"/>
<svg id="graph" class="graph">
<g id="graph0" class="graph" transform="scale(1 1) rotate(0) translate(4 78)">
<title>InputInterface</title>
<!-- Node1 -->
<g id="Node000001" class="node">
<title>Node1</title>
<g id="a_Node000001"><a xlink:title="Class to abstract away all physical input implementatio to enable multiple input types Default return...">
<polygon fill="#999999" stroke="#666666" points="252.5,-74 167.5,-74 167.5,-55 252.5,-55 252.5,-74"/>
<text text-anchor="middle" x="210" y="-62" font-family="Helvetica,sans-Serif" font-size="10.00">InputInterface</text>
</a>
</g>
</g>
<!-- Node2 -->
<g id="Node000002" class="node">
<title>Node2</title>
<g id="a_Node000002"><a xlink:href="classMockButtonInput.html" target="_top" xlink:title="Mock button input class using debounce and hold methods Use setRawAction() to simulate what a button ...">
<polygon fill="white" stroke="#666666" points="100,-19 0,-19 0,0 100,0 100,-19"/>
<text text-anchor="middle" x="50" y="-7" font-family="Helvetica,sans-Serif" font-size="10.00">MockButtonInput</text>
</a>
</g>
</g>
<!-- Node1&#45;&gt;Node2 -->
<g id="edge1_Node000001_Node000002" class="edge">
<title>Node1&#45;&gt;Node2</title>
<g id="a_edge1_Node000001_Node000002"><a xlink:title=" ">
<path fill="none" stroke="#63b8ff" d="M174.67,-51.8C144.81,-41.91 102.73,-27.97 75.91,-19.08"/>
<polygon fill="#63b8ff" stroke="#63b8ff" points="173.7,-55.16 184.29,-54.98 175.9,-48.52 173.7,-55.16"/>
</a>
</g>
</g>
<!-- Node3 -->
<g id="Node000003" class="node">
<title>Node3</title>
<g id="a_Node000003"><a xlink:href="classMockInput.html" target="_top" xlink:title="Mock physical input class.">
<polygon fill="white" stroke="#666666" points="186,-19 118,-19 118,0 186,0 186,-19"/>
<text text-anchor="middle" x="152" y="-7" font-family="Helvetica,sans-Serif" font-size="10.00">MockInput</text>
</a>
</g>
</g>
<!-- Node1&#45;&gt;Node3 -->
<g id="edge2_Node000001_Node000003" class="edge">
<title>Node1&#45;&gt;Node3</title>
<g id="a_edge2_Node000001_Node000003"><a xlink:title=" ">
<path fill="none" stroke="#63b8ff" d="M193.09,-48.04C182.8,-38.64 170.03,-26.98 161.49,-19.17"/>
<polygon fill="#63b8ff" stroke="#63b8ff" points="190.94,-50.82 200.68,-54.98 195.66,-45.66 190.94,-50.82"/>
</a>
</g>
</g>
<!-- Node4 -->
<g id="Node000004" class="node">
<title>Node4</title>
<g id="a_Node000004"><a xlink:href="classMockTouchScreenInput.html" target="_top" xlink:title="Mock touch screen input class using debounce and hold methods and calculating touch position to deter...">
<polygon fill="white" stroke="#666666" points="332,-19 204,-19 204,0 332,0 332,-19"/>
<text text-anchor="middle" x="268" y="-7" font-family="Helvetica,sans-Serif" font-size="10.00">MockTouchScreenInput</text>
</a>
</g>
</g>
<!-- Node1&#45;&gt;Node4 -->
<g id="edge3_Node000001_Node000004" class="edge">
<title>Node1&#45;&gt;Node4</title>
<g id="a_edge3_Node000001_Node000004"><a xlink:title=" ">
<path fill="none" stroke="#63b8ff" d="M226.91,-48.04C237.2,-38.64 249.97,-26.98 258.51,-19.17"/>
<polygon fill="#63b8ff" stroke="#63b8ff" points="224.34,-45.66 219.32,-54.98 229.06,-50.82 224.34,-45.66"/>
</a>
</g>
</g>
<!-- Node5 -->
<g id="Node000005" class="node">
<title>Node5</title>
<g id="a_Node000005"><a xlink:href="classTFT__eSPITouch.html" target="_top" xlink:title="Display class for TFT_eSPI touch screens.">
<polygon fill="white" stroke="#666666" points="438,-19 350,-19 350,0 438,0 438,-19"/>
<text text-anchor="middle" x="394" y="-7" font-family="Helvetica,sans-Serif" font-size="10.00">TFT_eSPITouch</text>
</a>
</g>
</g>
<!-- Node1&#45;&gt;Node5 -->
<g id="edge4_Node000001_Node000005" class="edge">
<title>Node1&#45;&gt;Node5</title>
<g id="a_edge4_Node000001_Node000005"><a xlink:title=" ">
<path fill="none" stroke="#63b8ff" d="M249.29,-52.18C283.7,-42.27 332.96,-28.08 364.21,-19.08"/>
<polygon fill="#63b8ff" stroke="#63b8ff" points="248.2,-48.85 239.56,-54.98 250.14,-55.58 248.2,-48.85"/>
</a>
</g>
</g>
</g>
</svg>
</svg>

<style type='text/css'>
<![CDATA[
[data-mouse-over-selected='false'] { opacity: 0.7; }
[data-mouse-over-selected='true']  { opacity: 1.0; }
]]>
</style>
<script type="application/ecmascript"><![CDATA[
document.addEventListener('DOMContentLoaded', (event) => {
  highlightEdges();
  highlightAdjacentNodes();
});
]]></script>
</svg>
