<?xml version="1.0" encoding="UTF-8" standalone="no"?>
<!DOCTYPE svg PUBLIC "-//W3C//DTD SVG 1.1//EN"
 "http://www.w3.org/Graphics/SVG/1.1/DTD/svg11.dtd">
<!-- Generated by graphviz version 2.43.0 (0)
 -->
<!-- Title: TFT_eSPIDisplay::displayScreen Pages: 1 -->
<svg width="514pt" height="278pt"
 viewBox="0.00 0.00 514.00 278.00" xmlns="http://www.w3.org/2000/svg" xmlns:xlink="http://www.w3.org/1999/xlink">
<g id="graph0" class="graph" transform="scale(1 1) rotate(0) translate(4 274)">
<title>TFT_eSPIDisplay::displayScreen</title>
<!-- Node1 -->
<g id="Node000001" class="node">
<title>Node1</title>
<g id="a_Node000001"><a xlink:title="Display the specified Screen on this display.">
<polygon fill="#999999" stroke="#666666" points="137,-150 0,-150 0,-120 137,-120 137,-150"/>
<text text-anchor="start" x="8" y="-138" font-family="Helvetica,sans-Serif" font-size="10.00">TFT_eSPIDisplay::display</text>
<text text-anchor="middle" x="68.5" y="-127" font-family="Helvetica,sans-Serif" font-size="10.00">Screen</text>
</a>
</g>
</g>
<!-- Node2 -->
<g id="Node000002" class="node">
<title>Node2</title>
<g id="a_Node000002"><a xlink:href="classTFT__eSPIDisplay.html#af7bbb772e597d3431656ccd32d73bdf5" target="_top" xlink:title="Clear the entire screen.">
<polygon fill="white" stroke="#666666" points="332,-181.5 173,-181.5 173,-162.5 332,-162.5 332,-181.5"/>
<text text-anchor="middle" x="252.5" y="-169.5" font-family="Helvetica,sans-Serif" font-size="10.00">TFT_eSPIDisplay::clearScreen</text>
</a>
</g>
</g>
<!-- Node1&#45;&gt;Node2 -->
<g id="edge1_Node000001_Node000002" class="edge">
<title>Node1&#45;&gt;Node2</title>
<g id="a_edge1_Node000001_Node000002"><a xlink:title=" ">
<path fill="none" stroke="#63b8ff" d="M137.01,-148.72C155.96,-152.58 176.37,-156.73 194.63,-160.44"/>
<polygon fill="#63b8ff" stroke="#63b8ff" points="194.04,-163.89 204.53,-162.45 195.43,-157.03 194.04,-163.89"/>
</a>
</g>
</g>
<!-- Node3 -->
<g id="Node000003" class="node">
<title>Node3</title>
<g id="a_Node000003"><a xlink:href="classDisplayInterface.html#a1bc192c6854bae554c9aa09cd7122cdc" target="_top" xlink:title="Static method to enable calling back to a derived class with a formatted row.">
<polygon fill="white" stroke="#666666" points="331,-144.5 174,-144.5 174,-125.5 331,-125.5 331,-144.5"/>
<text text-anchor="middle" x="252.5" y="-132.5" font-family="Helvetica,sans-Serif" font-size="10.00">DisplayInterface::formatRow</text>
</a>
</g>
</g>
<!-- Node1&#45;&gt;Node3 -->
<g id="edge2_Node000001_Node000003" class="edge">
<title>Node1&#45;&gt;Node3</title>
<g id="a_edge2_Node000001_Node000003"><a xlink:title=" ">
<path fill="none" stroke="#63b8ff" d="M137.01,-135C145.76,-135 154.82,-135 163.83,-135"/>
<polygon fill="#63b8ff" stroke="#63b8ff" points="163.97,-138.5 173.97,-135 163.97,-131.5 163.97,-138.5"/>
</a>
</g>
</g>
<!-- Node10 -->
<g id="Node000010" class="node">
<title>Node10</title>
<g id="a_Node000010"><a xlink:href="classScreen.html#a0bf66c3d7a47302ecb77113f3eacc422" target="_top" xlink:title="Get the first ScreenRow instance in the list.">
<polygon fill="white" stroke="#666666" points="325.5,-107.5 179.5,-107.5 179.5,-88.5 325.5,-88.5 325.5,-107.5"/>
<text text-anchor="middle" x="252.5" y="-95.5" font-family="Helvetica,sans-Serif" font-size="10.00">Screen::getFirstScreenRow</text>
</a>
</g>
</g>
<!-- Node1&#45;&gt;Node10 -->
<g id="edge9_Node000001_Node000010" class="edge">
<title>Node1&#45;&gt;Node10</title>
<g id="a_edge9_Node000001_Node000010"><a xlink:title=" ">
<path fill="none" stroke="#63b8ff" d="M137.01,-121.28C155.96,-117.42 176.37,-113.27 194.63,-109.56"/>
<polygon fill="#63b8ff" stroke="#63b8ff" points="195.43,-112.97 204.53,-107.55 194.04,-106.11 195.43,-112.97"/>
</a>
</g>
</g>
<!-- Node4 -->
<g id="Node000004" class="node">
<title>Node4</title>
<g id="a_Node000004"><a xlink:href="classDisplayInterface.html#acde7922833a368ce3233fe4d721f838a" target="_top" xlink:title="Convert the provided RGB colour code string constant to a uint16_t RGB565 colour.">
<polygon fill="white" stroke="#666666" points="501,-270 373,-270 373,-240 501,-240 501,-270"/>
<text text-anchor="start" x="381" y="-258" font-family="Helvetica,sans-Serif" font-size="10.00">DisplayInterface::</text>
<text text-anchor="middle" x="437" y="-247" font-family="Helvetica,sans-Serif" font-size="10.00">_convertRGBtoRGB565</text>
</a>
</g>
</g>
<!-- Node3&#45;&gt;Node4 -->
<g id="edge3_Node000003_Node000004" class="edge">
<title>Node3&#45;&gt;Node4</title>
<g id="a_edge3_Node000003_Node000004"><a xlink:title=" ">
<path fill="none" stroke="#63b8ff" d="M316.41,-144.64C322.02,-147.11 327.33,-150.18 332,-154 361.24,-177.91 340.01,-205.63 368,-231 369.31,-232.19 370.68,-233.31 372.1,-234.38"/>
<polygon fill="#63b8ff" stroke="#63b8ff" points="370.42,-237.47 380.72,-239.94 374.21,-231.58 370.42,-237.47"/>
</a>
</g>
</g>
<!-- Node5 -->
<g id="Node000005" class="node">
<title>Node5</title>
<g id="a_Node000005"><a xlink:href="classDisplayInterface.html#ad8da5e63e3775f8f02b04636a9482d97" target="_top" xlink:title="Validates the provided char is a valid modifier.">
<polygon fill="white" stroke="#666666" points="488.5,-222 385.5,-222 385.5,-192 488.5,-192 488.5,-222"/>
<text text-anchor="start" x="393.5" y="-210" font-family="Helvetica,sans-Serif" font-size="10.00">DisplayInterface::</text>
<text text-anchor="middle" x="437" y="-199" font-family="Helvetica,sans-Serif" font-size="10.00">_isModifier</text>
</a>
</g>
</g>
<!-- Node3&#45;&gt;Node5 -->
<g id="edge4_Node000003_Node000005" class="edge">
<title>Node3&#45;&gt;Node5</title>
<g id="a_edge4_Node000003_Node000005"><a xlink:title=" ">
<path fill="none" stroke="#63b8ff" d="M306.98,-144.58C315.58,-147.06 324.2,-150.16 332,-154 350.43,-163.08 350.06,-172.99 368,-183 371.04,-184.7 374.23,-186.31 377.49,-187.84"/>
<polygon fill="#63b8ff" stroke="#63b8ff" points="376.26,-191.12 386.83,-191.9 379.06,-184.7 376.26,-191.12"/>
</a>
</g>
</g>
<!-- Node6 -->
<g id="Node000006" class="node">
<title>Node6</title>
<g id="a_Node000006"><a xlink:href="classDisplayInterface.html#ac5cc108ca1c1410a8321078b3868ed78" target="_top" xlink:title="Check if the provided string constant translates to a valid RGB colour code.">
<polygon fill="white" stroke="#666666" points="488.5,-174 385.5,-174 385.5,-144 488.5,-144 488.5,-174"/>
<text text-anchor="start" x="393.5" y="-162" font-family="Helvetica,sans-Serif" font-size="10.00">DisplayInterface::</text>
<text text-anchor="middle" x="437" y="-151" font-family="Helvetica,sans-Serif" font-size="10.00">_isRGB</text>
</a>
</g>
</g>
<!-- Node3&#45;&gt;Node6 -->
<g id="edge5_Node000003_Node000006" class="edge">
<title>Node3&#45;&gt;Node6</title>
<g id="a_edge5_Node000003_Node000006"><a xlink:title=" ">
<path fill="none" stroke="#63b8ff" d="M325.89,-144.52C342.22,-146.67 359.39,-148.92 375.18,-151"/>
<polygon fill="#63b8ff" stroke="#63b8ff" points="374.97,-154.5 385.34,-152.34 375.88,-147.56 374.97,-154.5"/>
</a>
</g>
</g>
<!-- Node7 -->
<g id="Node000007" class="node">
<title>Node7</title>
<g id="a_Node000007"><a xlink:href="classDisplayInterface.html#a96f1a22d4566a22aefd3b652808d9441" target="_top" xlink:title="Sanitise the provided struct of RowAttributes.">
<polygon fill="white" stroke="#666666" points="491,-126 383,-126 383,-96 491,-96 491,-126"/>
<text text-anchor="start" x="391" y="-114" font-family="Helvetica,sans-Serif" font-size="10.00">DisplayInterface::</text>
<text text-anchor="middle" x="437" y="-103" font-family="Helvetica,sans-Serif" font-size="10.00">_sanitiseAttributes</text>
</a>
</g>
</g>
<!-- Node3&#45;&gt;Node7 -->
<g id="edge6_Node000003_Node000007" class="edge">
<title>Node3&#45;&gt;Node7</title>
<g id="a_edge6_Node000003_Node000007"><a xlink:title=" ">
<path fill="none" stroke="#63b8ff" d="M325.89,-125.48C341.33,-123.45 357.53,-121.32 372.61,-119.34"/>
<polygon fill="#63b8ff" stroke="#63b8ff" points="373.38,-122.76 382.84,-117.99 372.47,-115.82 373.38,-122.76"/>
</a>
</g>
</g>
<!-- Node8 -->
<g id="Node000008" class="node">
<title>Node8</title>
<g id="a_Node000008"><a xlink:href="classDisplayInterface.html#a652c6ce102531b9dd02fb960946987c8" target="_top" xlink:title="Update the provided RowAttributes struct according to the provided modifier.">
<polygon fill="white" stroke="#666666" points="488.5,-78 385.5,-78 385.5,-48 488.5,-48 488.5,-78"/>
<text text-anchor="start" x="393.5" y="-66" font-family="Helvetica,sans-Serif" font-size="10.00">DisplayInterface::</text>
<text text-anchor="middle" x="437" y="-55" font-family="Helvetica,sans-Serif" font-size="10.00">_setAttribute</text>
</a>
</g>
</g>
<!-- Node3&#45;&gt;Node8 -->
<g id="edge7_Node000003_Node000008" class="edge">
<title>Node3&#45;&gt;Node8</title>
<g id="a_edge7_Node000003_Node000008"><a xlink:title=" ">
<path fill="none" stroke="#63b8ff" d="M309.94,-125.45C317.56,-123.19 325.11,-120.41 332,-117 350.66,-107.75 349.89,-97.29 368,-87 371.03,-85.28 374.21,-83.64 377.46,-82.1"/>
<polygon fill="#63b8ff" stroke="#63b8ff" points="379.03,-85.24 386.78,-78.01 376.21,-78.83 379.03,-85.24"/>
</a>
</g>
</g>
<!-- Node9 -->
<g id="Node000009" class="node">
<title>Node9</title>
<g id="a_Node000009"><a xlink:href="classDisplayInterface.html#a8e1258fa3f32baf1587b80354c8afdb3" target="_top" xlink:title="Display a row using formatting modifiers.">
<polygon fill="white" stroke="#666666" points="506,-30 368,-30 368,0 506,0 506,-30"/>
<text text-anchor="start" x="376" y="-18" font-family="Helvetica,sans-Serif" font-size="10.00">DisplayInterface::display</text>
<text text-anchor="middle" x="437" y="-7" font-family="Helvetica,sans-Serif" font-size="10.00">FormattedRow</text>
</a>
</g>
</g>
<!-- Node3&#45;&gt;Node9 -->
<g id="edge8_Node000003_Node000009" class="edge">
<title>Node3&#45;&gt;Node9</title>
<g id="a_edge8_Node000003_Node000009"><a xlink:title=" ">
<path fill="none" stroke="#63b8ff" d="M318.35,-125.36C323.24,-123.1 327.87,-120.35 332,-117 361.64,-92.94 339.77,-64.71 368,-39 369.3,-37.81 370.67,-36.68 372.09,-35.61"/>
<polygon fill="#63b8ff" stroke="#63b8ff" points="374.21,-38.41 380.7,-30.04 370.41,-32.53 374.21,-38.41"/>
</a>
</g>
</g>
</g>
</svg>
