<?xml version="1.0" encoding="UTF-8" standalone="no"?>
<!DOCTYPE svg PUBLIC "-//W3C//DTD SVG 1.1//EN"
 "http://www.w3.org/Graphics/SVG/1.1/DTD/svg11.dtd">
<!-- Generated by graphviz version 2.43.0 (0)
 -->
<!-- Title: DisplayInterface::getScreenId Pages: 1 -->
<svg width="540pt" height="150pt"
 viewBox="0.00 0.00 540.00 150.00" xmlns="http://www.w3.org/2000/svg" xmlns:xlink="http://www.w3.org/1999/xlink">
<g id="graph0" class="graph" transform="scale(1 1) rotate(0) translate(4 146)">
<title>DisplayInterface::getScreenId</title>
<!-- Node1 -->
<g id="Node000001" class="node">
<title>Node1</title>
<g id="a_Node000001"><a xlink:title="Get the Screen ID this display is currently displaing.">
<polygon fill="#999999" stroke="#666666" points="532,-77 371,-77 371,-58 532,-58 532,-77"/>
<text text-anchor="middle" x="451.5" y="-65" font-family="Helvetica,sans-Serif" font-size="10.00">DisplayInterface::getScreenId</text>
</a>
</g>
</g>
<!-- Node2 -->
<g id="Node000002" class="node">
<title>Node2</title>
<g id="a_Node000002"><a xlink:href="classController.html#aa981e303ca83593ffb34db49c7d73cc6" target="_top" xlink:title="Selects the next screen for the selected display.">
<polygon fill="white" stroke="#666666" points="335,-142 174,-142 174,-123 335,-123 335,-142"/>
<text text-anchor="middle" x="254.5" y="-130" font-family="Helvetica,sans-Serif" font-size="10.00">Controller::_selectNextScreen</text>
</a>
</g>
</g>
<!-- Node1&#45;&gt;Node2 -->
<g id="edge1_Node000001_Node000002" class="edge">
<title>Node1&#45;&gt;Node2</title>
<g id="a_edge1_Node000001_Node000002"><a xlink:title=" ">
<path fill="none" stroke="#63b8ff" d="M419.87,-81.1C396.84,-90.99 364.35,-104.2 335,-113.5 323.91,-117.01 311.76,-120.23 300.38,-122.97"/>
<polygon fill="#63b8ff" stroke="#63b8ff" points="421.34,-84.28 429.12,-77.09 418.56,-77.86 421.34,-84.28"/>
</a>
</g>
</g>
<!-- Node4 -->
<g id="Node000004" class="node">
<title>Node4</title>
<g id="a_Node000004"><a xlink:href="classController.html#a3e02f73e534a929849f981ec892b4f54" target="_top" xlink:title="Selects the previous screen for the selected display.">
<polygon fill="white" stroke="#666666" points="328,-104.5 181,-104.5 181,-74.5 328,-74.5 328,-104.5"/>
<text text-anchor="start" x="189" y="-92.5" font-family="Helvetica,sans-Serif" font-size="10.00">Controller::_selectPrevious</text>
<text text-anchor="middle" x="254.5" y="-81.5" font-family="Helvetica,sans-Serif" font-size="10.00">Screen</text>
</a>
</g>
</g>
<!-- Node1&#45;&gt;Node4 -->
<g id="edge3_Node000001_Node000004" class="edge">
<title>Node1&#45;&gt;Node4</title>
<g id="a_edge3_Node000001_Node000004"><a xlink:title=" ">
<path fill="none" stroke="#63b8ff" d="M360.91,-77.61C349.97,-78.84 338.9,-80.09 328.25,-81.29"/>
<polygon fill="#63b8ff" stroke="#63b8ff" points="361.36,-81.08 370.9,-76.48 360.58,-74.12 361.36,-81.08"/>
</a>
</g>
</g>
<!-- Node5 -->
<g id="Node000005" class="node">
<title>Node5</title>
<g id="a_Node000005"><a xlink:href="test__ControllerInputAction_8cpp.html#a8f23663971c4dff626cd0d8c765fd290" target="_top" xlink:title="This test ensures left/right buttons or touches switch the active screen.">
<polygon fill="white" stroke="#666666" points="280.5,-56 228.5,-56 228.5,-37 280.5,-37 280.5,-56"/>
<text text-anchor="middle" x="254.5" y="-44" font-family="Helvetica,sans-Serif" font-size="10.00">TEST_F</text>
</a>
</g>
</g>
<!-- Node1&#45;&gt;Node5 -->
<g id="edge5_Node000001_Node000005" class="edge">
<title>Node1&#45;&gt;Node5</title>
<g id="a_edge5_Node000001_Node000005"><a xlink:title=" ">
<path fill="none" stroke="#63b8ff" d="M360.64,-57.82C331.45,-54.68 301.34,-51.44 280.86,-49.23"/>
<polygon fill="#63b8ff" stroke="#63b8ff" points="360.59,-61.34 370.9,-58.93 361.34,-54.38 360.59,-61.34"/>
</a>
</g>
</g>
<!-- Node6 -->
<g id="Node000006" class="node">
<title>Node6</title>
<g id="a_Node000006"><a xlink:href="test__DisplayScreens_8cpp.html#a1666ced739e5965d0ba9f6722b5a4d48" target="_top" xlink:title="Ensure the first display has a valid screen ID to display.">
<polygon fill="white" stroke="#666666" points="280.5,-19 228.5,-19 228.5,0 280.5,0 280.5,-19"/>
<text text-anchor="middle" x="254.5" y="-7" font-family="Helvetica,sans-Serif" font-size="10.00">TEST_F</text>
</a>
</g>
</g>
<!-- Node1&#45;&gt;Node6 -->
<g id="edge6_Node000001_Node000006" class="edge">
<title>Node1&#45;&gt;Node6</title>
<g id="a_edge6_Node000001_Node000006"><a xlink:title=" ">
<path fill="none" stroke="#63b8ff" d="M415.01,-54.58C392.3,-46.55 362.11,-36.3 335,-28.5 317,-23.32 296.42,-18.43 280.72,-14.91"/>
<polygon fill="#63b8ff" stroke="#63b8ff" points="413.97,-57.93 424.57,-57.99 416.32,-51.33 413.97,-57.93"/>
</a>
</g>
</g>
<!-- Node3 -->
<g id="Node000003" class="node">
<title>Node3</title>
<g id="a_Node000003"><a xlink:href="classController.html#af9c9f10320fb7770553156da4d164e64" target="_top" xlink:title="Method to implement to respond to an input action.">
<polygon fill="white" stroke="#666666" points="138,-120 0,-120 0,-101 138,-101 138,-120"/>
<text text-anchor="middle" x="69" y="-108" font-family="Helvetica,sans-Serif" font-size="10.00">Controller::onInputAction</text>
</a>
</g>
</g>
<!-- Node2&#45;&gt;Node3 -->
<g id="edge2_Node000002_Node000003" class="edge">
<title>Node2&#45;&gt;Node3</title>
<g id="a_edge2_Node000002_Node000003"><a xlink:title=" ">
<path fill="none" stroke="#63b8ff" d="M163.9,-121.76C155.2,-120.71 146.47,-119.67 138.03,-118.66"/>
<polygon fill="#63b8ff" stroke="#63b8ff" points="163.74,-125.26 174.08,-122.98 164.57,-118.31 163.74,-125.26"/>
</a>
</g>
</g>
<!-- Node4&#45;&gt;Node3 -->
<g id="edge4_Node000004_Node000003" class="edge">
<title>Node4&#45;&gt;Node3</title>
<g id="a_edge4_Node000004_Node000003"><a xlink:title=" ">
<path fill="none" stroke="#63b8ff" d="M170.96,-98.95C159.97,-100.2 148.81,-101.48 138.11,-102.71"/>
<polygon fill="#63b8ff" stroke="#63b8ff" points="171.44,-102.41 180.98,-97.8 170.64,-95.46 171.44,-102.41"/>
</a>
</g>
</g>
</g>
</svg>
