<?xml version="1.0" encoding="UTF-8" standalone="no"?>
<!DOCTYPE svg PUBLIC "-//W3C//DTD SVG 1.1//EN"
 "http://www.w3.org/Graphics/SVG/1.1/DTD/svg11.dtd">
<!-- Generated by graphviz version 2.43.0 (0)
 -->
<!-- Title: TFT_eSPIDisplay::clearScreen Pages: 1 -->
<svg width="548pt" height="55pt"
 viewBox="0.00 0.00 548.00 54.50" xmlns="http://www.w3.org/2000/svg" xmlns:xlink="http://www.w3.org/1999/xlink">
<g id="graph0" class="graph" transform="scale(1 1) rotate(0) translate(4 50.5)">
<title>TFT_eSPIDisplay::clearScreen</title>
<!-- Node1 -->
<g id="Node000001" class="node">
<title>Node1</title>
<g id="a_Node000001"><a xlink:title="Clear the entire screen.">
<polygon fill="#999999" stroke="#666666" points="540,-19 381,-19 381,0 540,0 540,-19"/>
<text text-anchor="middle" x="460.5" y="-7" font-family="Helvetica,sans-Serif" font-size="10.00">TFT_eSPIDisplay::clearScreen</text>
</a>
</g>
</g>
<!-- Node2 -->
<g id="Node000002" class="node">
<title>Node2</title>
<g id="a_Node000002"><a xlink:href="classTFT__eSPITouch.html#ad71507c11a328924064e703daef05ada" target="_top" xlink:title="Display calibration error on screen and pause for 5 seconds.">
<polygon fill="white" stroke="#666666" points="345,-46.5 157,-46.5 157,-16.5 345,-16.5 345,-46.5"/>
<text text-anchor="start" x="165" y="-34.5" font-family="Helvetica,sans-Serif" font-size="10.00">TFT_eSPITouch::_displayCalibration</text>
<text text-anchor="middle" x="251" y="-23.5" font-family="Helvetica,sans-Serif" font-size="10.00">Error</text>
</a>
</g>
</g>
<!-- Node1&#45;&gt;Node2 -->
<g id="edge1_Node000001_Node000002" class="edge">
<title>Node1&#45;&gt;Node2</title>
<g id="a_edge1_Node000001_Node000002"><a xlink:title=" ">
<path fill="none" stroke="#63b8ff" d="M370.62,-18.92C362.24,-19.81 353.73,-20.71 345.32,-21.61"/>
<polygon fill="#63b8ff" stroke="#63b8ff" points="371.18,-22.38 380.76,-17.85 370.44,-15.42 371.18,-22.38"/>
</a>
</g>
</g>
<!-- Node3 -->
<g id="Node000003" class="node">
<title>Node3</title>
<g id="a_Node000003"><a xlink:href="classTFT__eSPITouch.html#aaf01840eb32016de879566883287b9c3" target="_top" xlink:title="Perform any initial once off setup or configuration here and call only once.">
<polygon fill="white" stroke="#666666" points="121,-19 0,-19 0,0 121,0 121,-19"/>
<text text-anchor="middle" x="60.5" y="-7" font-family="Helvetica,sans-Serif" font-size="10.00">TFT_eSPITouch::begin</text>
</a>
</g>
</g>
<!-- Node1&#45;&gt;Node3 -->
<g id="edge3_Node000001_Node000003" class="edge">
<title>Node1&#45;&gt;Node3</title>
<g id="a_edge3_Node000001_Node000003"><a xlink:title=" ">
<path fill="none" stroke="#63b8ff" d="M370.77,-7.8C362.06,-7.68 353.36,-7.57 345,-7.5 261.45,-6.77 240.55,-6.63 157,-7.5 145.39,-7.62 132.99,-7.83 121.1,-8.06"/>
<polygon fill="#63b8ff" stroke="#63b8ff" points="370.92,-11.3 380.97,-7.95 371.02,-4.3 370.92,-11.3"/>
</a>
</g>
</g>
<!-- Node2&#45;&gt;Node3 -->
<g id="edge2_Node000002_Node000003" class="edge">
<title>Node2&#45;&gt;Node3</title>
<g id="a_edge2_Node000002_Node000003"><a xlink:title=" ">
<path fill="none" stroke="#63b8ff" d="M146.9,-19.47C138.1,-18.44 129.41,-17.43 121.14,-16.46"/>
<polygon fill="#63b8ff" stroke="#63b8ff" points="146.52,-22.95 156.85,-20.63 147.33,-15.99 146.52,-22.95"/>
</a>
</g>
</g>
</g>
</svg>
