<?xml version="1.0" encoding="UTF-8" standalone="no"?>
<!DOCTYPE svg PUBLIC "-//W3C//DTD SVG 1.1//EN"
 "http://www.w3.org/Graphics/SVG/1.1/DTD/svg11.dtd">
<!-- Generated by graphviz version 2.43.0 (0)
 -->
<!-- Title: DisplayManager::update Pages: 1 -->
<svg width="729pt" height="230pt"
 viewBox="0.00 0.00 729.00 229.50" xmlns="http://www.w3.org/2000/svg" xmlns:xlink="http://www.w3.org/1999/xlink">
<g id="graph0" class="graph" transform="scale(1 1) rotate(0) translate(4 225.5)">
<title>DisplayManager::update</title>
<polygon fill="white" stroke="transparent" points="-4,4 -4,-225.5 725,-225.5 725,4 -4,4"/>
<!-- Node1 -->
<g id="node1" class="node">
<title>Node1</title>
<g id="a_node1"><a xlink:title="Call this routinely to ensure all displays are updated with screens.">
<polygon fill="#bfbfbf" stroke="black" points="0,-95.5 0,-114.5 136,-114.5 136,-95.5 0,-95.5"/>
<text text-anchor="middle" x="68" y="-102.5" font-family="Helvetica,sans-Serif" font-size="10.00">DisplayManager::update</text>
</a>
</g>
</g>
<!-- Node2 -->
<g id="node2" class="node">
<title>Node2</title>
<g id="a_node2"><a xlink:href="classDisplayManager.html#ab5225aac5f432dd65258e1d568bde88d" target="_top" xlink:title="Manually deselects SPI displays that require manual selecting via the CS pin &#45; sets pin high.">
<polygon fill="white" stroke="black" points="191.5,-191 191.5,-221 340.5,-221 340.5,-191 191.5,-191"/>
<text text-anchor="start" x="199.5" y="-209" font-family="Helvetica,sans-Serif" font-size="10.00">DisplayManager::_deselect</text>
<text text-anchor="middle" x="266" y="-198" font-family="Helvetica,sans-Serif" font-size="10.00">SPIDisplay</text>
</a>
</g>
</g>
<!-- Node1&#45;&gt;Node2 -->
<g id="edge1" class="edge">
<title>Node1&#45;&gt;Node2</title>
<path fill="none" stroke="midnightblue" d="M79.26,-114.65C96.86,-130.72 134.56,-162.96 172,-181 176.89,-183.36 182.05,-185.52 187.31,-187.5"/>
<polygon fill="midnightblue" stroke="midnightblue" points="186.28,-190.85 196.87,-190.87 188.6,-184.25 186.28,-190.85"/>
</g>
<!-- Node6 -->
<g id="node6" class="node">
<title>Node6</title>
<g id="a_node6"><a xlink:href="classDisplayManager.html#abcac9213f163018979f2a226ecf53882" target="_top" xlink:title="Manually selects SPI displays that require manual selecting via the CS pin &#45; sets pin low.">
<polygon fill="white" stroke="black" points="172,-152.5 172,-171.5 360,-171.5 360,-152.5 172,-152.5"/>
<text text-anchor="middle" x="266" y="-159.5" font-family="Helvetica,sans-Serif" font-size="10.00">DisplayManager::_selectSPIDisplay</text>
</a>
</g>
</g>
<!-- Node1&#45;&gt;Node6 -->
<g id="edge5" class="edge">
<title>Node1&#45;&gt;Node6</title>
<path fill="none" stroke="midnightblue" d="M91.98,-114.62C112.64,-123 143.95,-135.01 172,-143 181.39,-145.67 191.42,-148.13 201.28,-150.32"/>
<polygon fill="midnightblue" stroke="midnightblue" points="200.55,-153.74 211.06,-152.43 202.02,-146.9 200.55,-153.74"/>
</g>
<!-- Node7 -->
<g id="node7" class="node">
<title>Node7</title>
<g id="a_node7"><a xlink:href="classScreen.html#a0bf66c3d7a47302ecb77113f3eacc422" target="_top" xlink:title="Get the first ScreenRow instance in the list.">
<polygon fill="white" stroke="black" points="193,-114.5 193,-133.5 339,-133.5 339,-114.5 193,-114.5"/>
<text text-anchor="middle" x="266" y="-121.5" font-family="Helvetica,sans-Serif" font-size="10.00">Screen::getFirstScreenRow</text>
</a>
</g>
</g>
<!-- Node1&#45;&gt;Node7 -->
<g id="edge8" class="edge">
<title>Node1&#45;&gt;Node7</title>
<path fill="none" stroke="midnightblue" d="M136.18,-111.51C151.18,-112.97 167.25,-114.52 182.78,-116.03"/>
<polygon fill="midnightblue" stroke="midnightblue" points="182.6,-119.53 192.89,-117.01 183.27,-112.56 182.6,-119.53"/>
</g>
<!-- Node8 -->
<g id="node8" class="node">
<title>Node8</title>
<g id="a_node8"><a xlink:href="classDisplayInterface.html#aa869afa166e1d7f231549e3b93f7bef5" target="_top" xlink:title="Get the next DisplayInterface derived instance in the list.">
<polygon fill="white" stroke="black" points="195,-76.5 195,-95.5 337,-95.5 337,-76.5 195,-76.5"/>
<text text-anchor="middle" x="266" y="-83.5" font-family="Helvetica,sans-Serif" font-size="10.00">DisplayInterface::getNext</text>
</a>
</g>
</g>
<!-- Node1&#45;&gt;Node8 -->
<g id="edge9" class="edge">
<title>Node1&#45;&gt;Node8</title>
<path fill="none" stroke="midnightblue" d="M136.18,-98.49C151.87,-96.97 168.74,-95.33 184.93,-93.76"/>
<polygon fill="midnightblue" stroke="midnightblue" points="185.29,-97.24 194.9,-92.79 184.61,-90.28 185.29,-97.24"/>
</g>
<!-- Node9 -->
<g id="node9" class="node">
<title>Node9</title>
<g id="a_node9"><a xlink:href="classScreenRow.html#aa8df6843233ea45caf26773d140ce4b8" target="_top" xlink:title="Get the next ScreenRow instance in the list.">
<polygon fill="white" stroke="black" points="208.5,-38.5 208.5,-57.5 323.5,-57.5 323.5,-38.5 208.5,-38.5"/>
<text text-anchor="middle" x="266" y="-45.5" font-family="Helvetica,sans-Serif" font-size="10.00">ScreenRow::getNext</text>
</a>
</g>
</g>
<!-- Node1&#45;&gt;Node9 -->
<g id="edge10" class="edge">
<title>Node1&#45;&gt;Node9</title>
<path fill="none" stroke="midnightblue" d="M91.98,-95.38C112.64,-87 143.95,-74.99 172,-67 181.39,-64.33 191.42,-61.87 201.28,-59.68"/>
<polygon fill="midnightblue" stroke="midnightblue" points="202.02,-63.1 211.06,-57.57 200.55,-56.26 202.02,-63.1"/>
</g>
<!-- Node10 -->
<g id="node10" class="node">
<title>Node10</title>
<g id="a_node10"><a xlink:href="classScreenManager.html#a0cc1c81b131b3441fd808299c63b409b" target="_top" xlink:title="Get the Screen with the specified ID.">
<polygon fill="white" stroke="black" points="181.5,-0.5 181.5,-19.5 350.5,-19.5 350.5,-0.5 181.5,-0.5"/>
<text text-anchor="middle" x="266" y="-7.5" font-family="Helvetica,sans-Serif" font-size="10.00">ScreenManager::getScreenById</text>
</a>
</g>
</g>
<!-- Node1&#45;&gt;Node10 -->
<g id="edge11" class="edge">
<title>Node1&#45;&gt;Node10</title>
<path fill="none" stroke="midnightblue" d="M78.86,-95.36C96.17,-79.01 133.83,-45.98 172,-29 177.73,-26.45 183.81,-24.24 190.02,-22.32"/>
<polygon fill="midnightblue" stroke="midnightblue" points="191.16,-25.63 199.83,-19.54 189.25,-18.9 191.16,-25.63"/>
</g>
<!-- Node3 -->
<g id="node3" class="node">
<title>Node3</title>
<g id="a_node3"><a xlink:href="Arduino_8h.html#ae9647a9a056bb33fd1206da70c83bde3" target="_top" xlink:title=" ">
<polygon fill="white" stroke="black" points="432,-153.5 432,-172.5 506,-172.5 506,-153.5 432,-153.5"/>
<text text-anchor="middle" x="469" y="-160.5" font-family="Helvetica,sans-Serif" font-size="10.00">digitalWrite</text>
</a>
</g>
</g>
<!-- Node2&#45;&gt;Node3 -->
<g id="edge2" class="edge">
<title>Node2&#45;&gt;Node3</title>
<path fill="none" stroke="midnightblue" d="M337.3,-190.96C365.36,-184.96 396.88,-178.21 421.94,-172.85"/>
<polygon fill="midnightblue" stroke="midnightblue" points="422.85,-176.24 431.9,-170.72 421.39,-169.39 422.85,-176.24"/>
</g>
<!-- Node5 -->
<g id="node5" class="node">
<title>Node5</title>
<g id="a_node5"><a xlink:href="classDisplayInterface.html#a99f118df7933707f23506e6c4138c8ac" target="_top" xlink:title="Get the defined CS pin for this display to see if it needs manual SPI switching.">
<polygon fill="white" stroke="black" points="396,-194.5 396,-213.5 542,-213.5 542,-194.5 396,-194.5"/>
<text text-anchor="middle" x="469" y="-201.5" font-family="Helvetica,sans-Serif" font-size="10.00">DisplayInterface::getCSPin</text>
</a>
</g>
</g>
<!-- Node2&#45;&gt;Node5 -->
<g id="edge4" class="edge">
<title>Node2&#45;&gt;Node5</title>
<path fill="none" stroke="midnightblue" d="M340.7,-205.27C355.36,-205.12 370.84,-204.97 385.76,-204.82"/>
<polygon fill="midnightblue" stroke="midnightblue" points="386.02,-208.32 395.98,-204.72 385.95,-201.32 386.02,-208.32"/>
</g>
<!-- Node4 -->
<g id="node4" class="node">
<title>Node4</title>
<g id="a_node4"><a xlink:href="classMockArduino.html#a31b8132fed4cf21517931e448ba515ea" target="_top" xlink:title=" ">
<polygon fill="white" stroke="black" points="578,-153.5 578,-172.5 721,-172.5 721,-153.5 578,-153.5"/>
<text text-anchor="middle" x="649.5" y="-160.5" font-family="Helvetica,sans-Serif" font-size="10.00">MockArduino::getInstance</text>
</a>
</g>
</g>
<!-- Node3&#45;&gt;Node4 -->
<g id="edge3" class="edge">
<title>Node3&#45;&gt;Node4</title>
<path fill="none" stroke="midnightblue" d="M506.12,-163C523.89,-163 546.07,-163 567.59,-163"/>
<polygon fill="midnightblue" stroke="midnightblue" points="567.75,-166.5 577.75,-163 567.75,-159.5 567.75,-166.5"/>
</g>
<!-- Node6&#45;&gt;Node3 -->
<g id="edge6" class="edge">
<title>Node6&#45;&gt;Node3</title>
<path fill="none" stroke="midnightblue" d="M360.15,-162.46C381.53,-162.57 403.37,-162.68 421.75,-162.77"/>
<polygon fill="midnightblue" stroke="midnightblue" points="421.84,-166.27 431.86,-162.82 421.88,-159.27 421.84,-166.27"/>
</g>
<!-- Node6&#45;&gt;Node5 -->
<g id="edge7" class="edge">
<title>Node6&#45;&gt;Node5</title>
<path fill="none" stroke="midnightblue" d="M312.61,-171.53C342.19,-177.71 380.92,-185.8 412.31,-192.36"/>
<polygon fill="midnightblue" stroke="midnightblue" points="411.72,-195.82 422.22,-194.43 413.15,-188.96 411.72,-195.82"/>
</g>
<!-- Node11 -->
<g id="node11" class="node">
<title>Node11</title>
<g id="a_node11"><a xlink:href="classScreen.html#af743df653d024c7571e596772009216d" target="_top" xlink:title="Get the next Screen instance in the list.">
<polygon fill="white" stroke="black" points="421.5,-0.5 421.5,-19.5 516.5,-19.5 516.5,-0.5 421.5,-0.5"/>
<text text-anchor="middle" x="469" y="-7.5" font-family="Helvetica,sans-Serif" font-size="10.00">Screen::getNext</text>
</a>
</g>
</g>
<!-- Node10&#45;&gt;Node11 -->
<g id="edge12" class="edge">
<title>Node10&#45;&gt;Node11</title>
<path fill="none" stroke="midnightblue" d="M350.79,-10C371.15,-10 392.45,-10 411.22,-10"/>
<polygon fill="midnightblue" stroke="midnightblue" points="411.37,-13.5 421.37,-10 411.37,-6.5 411.37,-13.5"/>
</g>
</g>
</svg>
