<?xml version="1.0" encoding="UTF-8" standalone="no"?>
<!DOCTYPE svg PUBLIC "-//W3C//DTD SVG 1.1//EN"
 "http://www.w3.org/Graphics/SVG/1.1/DTD/svg11.dtd">
<!-- Generated by graphviz version 2.43.0 (0)
 -->
<!-- Title: InputInterface::_debounceOrHeld Pages: 1 -->
<svg width="321pt" height="116pt"
 viewBox="0.00 0.00 321.00 116.00" xmlns="http://www.w3.org/2000/svg" xmlns:xlink="http://www.w3.org/1999/xlink">
<g id="graph0" class="graph" transform="scale(1 1) rotate(0) translate(4 112)">
<title>InputInterface::_debounceOrHeld</title>
<polygon fill="white" stroke="transparent" points="-4,4 -4,-112 317,-112 317,4 -4,4"/>
<!-- Node1 -->
<g id="node1" class="node">
<title>Node1</title>
<g id="a_node1"><a xlink:title="Call this from the derived class&#39; check() method to debounce and detect if the input is a hold vs....">
<polygon fill="#bfbfbf" stroke="black" points="170,-39 170,-69 313,-69 313,-39 170,-39"/>
<text text-anchor="start" x="178" y="-57" font-family="Helvetica,sans-Serif" font-size="10.00">InputInterface::_debounce</text>
<text text-anchor="middle" x="241.5" y="-46" font-family="Helvetica,sans-Serif" font-size="10.00">OrHeld</text>
</a>
</g>
</g>
<!-- Node2 -->
<g id="node2" class="node">
<title>Node2</title>
<g id="a_node2"><a xlink:href="classMockButtonInput.html#aff7bf3f4782dc8dd912f94be30b006e8" target="_top" xlink:title="Call this method at least once per main loop to monitor for input actions Any actions should call the...">
<polygon fill="white" stroke="black" points="0,-88.5 0,-107.5 134,-107.5 134,-88.5 0,-88.5"/>
<text text-anchor="middle" x="67" y="-95.5" font-family="Helvetica,sans-Serif" font-size="10.00">MockButtonInput::check</text>
</a>
</g>
</g>
<!-- Node1&#45;&gt;Node2 -->
<g id="edge1" class="edge">
<title>Node1&#45;&gt;Node2</title>
<path fill="none" stroke="midnightblue" d="M171.69,-71.55C149.03,-77.33 124.69,-83.54 105.29,-88.49"/>
<polygon fill="midnightblue" stroke="midnightblue" points="172.79,-74.88 181.62,-69.02 171.06,-68.1 172.79,-74.88"/>
</g>
<!-- Node3 -->
<g id="node3" class="node">
<title>Node3</title>
<g id="a_node3"><a xlink:href="classMockTouchScreenInput.html#afd6a598f9008cc810597db1db68aa6c0" target="_top" xlink:title="Call this method at least once per main loop to monitor for input actions Any actions should call the...">
<polygon fill="white" stroke="black" points="3,-39 3,-69 131,-69 131,-39 3,-39"/>
<text text-anchor="start" x="11" y="-57" font-family="Helvetica,sans-Serif" font-size="10.00">MockTouchScreenInput</text>
<text text-anchor="middle" x="67" y="-46" font-family="Helvetica,sans-Serif" font-size="10.00">::check</text>
</a>
</g>
</g>
<!-- Node1&#45;&gt;Node3 -->
<g id="edge2" class="edge">
<title>Node1&#45;&gt;Node3</title>
<path fill="none" stroke="midnightblue" d="M159.83,-54C150.18,-54 140.43,-54 131.08,-54"/>
<polygon fill="midnightblue" stroke="midnightblue" points="159.84,-57.5 169.84,-54 159.84,-50.5 159.84,-57.5"/>
</g>
<!-- Node4 -->
<g id="node4" class="node">
<title>Node4</title>
<g id="a_node4"><a xlink:href="classTFT__eSPITouch.html#afd86f481b8789120fe1fa9357f183741" target="_top" xlink:title="Call this method at least once per main loop to monitor for input actions Any actions should call the...">
<polygon fill="white" stroke="black" points="6,-0.5 6,-19.5 128,-19.5 128,-0.5 6,-0.5"/>
<text text-anchor="middle" x="67" y="-7.5" font-family="Helvetica,sans-Serif" font-size="10.00">TFT_eSPITouch::check</text>
</a>
</g>
</g>
<!-- Node1&#45;&gt;Node4 -->
<g id="edge3" class="edge">
<title>Node1&#45;&gt;Node4</title>
<path fill="none" stroke="midnightblue" d="M171.69,-36.45C149.03,-30.67 124.69,-24.46 105.29,-19.51"/>
<polygon fill="midnightblue" stroke="midnightblue" points="171.06,-39.9 181.62,-38.98 172.79,-33.12 171.06,-39.9"/>
</g>
</g>
</svg>
