<?xml version="1.0" encoding="UTF-8" standalone="no"?>
<!DOCTYPE svg PUBLIC "-//W3C//DTD SVG 1.1//EN"
 "http://www.w3.org/Graphics/SVG/1.1/DTD/svg11.dtd">
<!-- Generated by graphviz version 2.43.0 (0)
 -->
<!-- Title: TFT_eSPITouch::check Pages: 1 -->
<svg width="389pt" height="134pt"
 viewBox="0.00 0.00 389.00 134.00" xmlns="http://www.w3.org/2000/svg" xmlns:xlink="http://www.w3.org/1999/xlink">
<g id="graph0" class="graph" transform="scale(1 1) rotate(0) translate(4 130)">
<title>TFT_eSPITouch::check</title>
<!-- Node1 -->
<g id="Node000001" class="node">
<title>Node1</title>
<g id="a_Node000001"><a xlink:title="Call this method at least once per main loop to monitor for input actions Any actions should call the...">
<polygon fill="#999999" stroke="#666666" points="122,-72.5 0,-72.5 0,-53.5 122,-53.5 122,-72.5"/>
<text text-anchor="middle" x="61" y="-60.5" font-family="Helvetica,sans-Serif" font-size="10.00">TFT_eSPITouch::check</text>
</a>
</g>
</g>
<!-- Node2 -->
<g id="Node000002" class="node">
<title>Node2</title>
<g id="a_Node000002"><a xlink:href="classInputInterface.html#ae67f527b0f8a78a1d30a2d4e10977eea" target="_top" xlink:title="This method is designed to take an input from a touch screen display and determine which &quot;button&quot; has...">
<polygon fill="white" stroke="#666666" points="299.5,-126 159.5,-126 159.5,-96 299.5,-96 299.5,-126"/>
<text text-anchor="start" x="167.5" y="-114" font-family="Helvetica,sans-Serif" font-size="10.00">InputInterface::_calculate</text>
<text text-anchor="middle" x="229.5" y="-103" font-family="Helvetica,sans-Serif" font-size="10.00">InputAction</text>
</a>
</g>
</g>
<!-- Node1&#45;&gt;Node2 -->
<g id="edge1_Node000001_Node000002" class="edge">
<title>Node1&#45;&gt;Node2</title>
<g id="a_edge1_Node000001_Node000002"><a xlink:title=" ">
<path fill="none" stroke="#63b8ff" d="M95.29,-72.6C115.65,-78.47 142.32,-86.15 166.45,-93.11"/>
<polygon fill="#63b8ff" stroke="#63b8ff" points="165.67,-96.53 176.25,-95.94 167.61,-89.8 165.67,-96.53"/>
</a>
</g>
</g>
<!-- Node3 -->
<g id="Node000003" class="node">
<title>Node3</title>
<g id="a_Node000003"><a xlink:href="classInputInterface.html#afefc70fa413062a1df8e7950f1afc564" target="_top" xlink:title="Call this from the derived class&#39; check() method to debounce and detect if the input is a hold vs....">
<polygon fill="white" stroke="#666666" points="301,-78 158,-78 158,-48 301,-48 301,-78"/>
<text text-anchor="start" x="166" y="-66" font-family="Helvetica,sans-Serif" font-size="10.00">InputInterface::_debounce</text>
<text text-anchor="middle" x="229.5" y="-55" font-family="Helvetica,sans-Serif" font-size="10.00">OrHeld</text>
</a>
</g>
</g>
<!-- Node1&#45;&gt;Node3 -->
<g id="edge2_Node000001_Node000003" class="edge">
<title>Node1&#45;&gt;Node3</title>
<g id="a_edge2_Node000001_Node000003"><a xlink:title=" ">
<path fill="none" stroke="#63b8ff" d="M122.11,-63C130.48,-63 139.19,-63 147.86,-63"/>
<polygon fill="#63b8ff" stroke="#63b8ff" points="147.99,-66.5 157.99,-63 147.99,-59.5 147.99,-66.5"/>
</a>
</g>
</g>
<!-- Node5 -->
<g id="Node000005" class="node">
<title>Node5</title>
<g id="a_Node000005"><a xlink:href="classCallbackInterface.html#a0050e0aa32d6f53635dd19462ab5153f" target="_top" xlink:title="Method to implement to respond to an input action.">
<polygon fill="white" stroke="#666666" points="283.5,-30 175.5,-30 175.5,0 283.5,0 283.5,-30"/>
<text text-anchor="start" x="183.5" y="-18" font-family="Helvetica,sans-Serif" font-size="10.00">CallbackInterface::</text>
<text text-anchor="middle" x="229.5" y="-7" font-family="Helvetica,sans-Serif" font-size="10.00">onInputAction</text>
</a>
</g>
</g>
<!-- Node1&#45;&gt;Node5 -->
<g id="edge4_Node000001_Node000005" class="edge">
<title>Node1&#45;&gt;Node5</title>
<g id="a_edge4_Node000001_Node000005"><a xlink:title=" ">
<path fill="none" stroke="#63b8ff" d="M95.29,-53.4C115.65,-47.53 142.32,-39.85 166.45,-32.89"/>
<polygon fill="#63b8ff" stroke="#63b8ff" points="167.61,-36.2 176.25,-30.06 165.67,-29.47 167.61,-36.2"/>
</a>
</g>
</g>
<!-- Node4 -->
<g id="Node000004" class="node">
<title>Node4</title>
<g id="a_Node000004"><a xlink:href="Arduino_8h.html#a6ff7f2532a22366f0013bc41397129fd" target="_top" xlink:title=" ">
<polygon fill="white" stroke="#666666" points="381,-72.5 337,-72.5 337,-53.5 381,-53.5 381,-72.5"/>
<text text-anchor="middle" x="359" y="-60.5" font-family="Helvetica,sans-Serif" font-size="10.00">millis</text>
</a>
</g>
</g>
<!-- Node3&#45;&gt;Node4 -->
<g id="edge3_Node000003_Node000004" class="edge">
<title>Node3&#45;&gt;Node4</title>
<g id="a_edge3_Node000003_Node000004"><a xlink:title=" ">
<path fill="none" stroke="#63b8ff" d="M301.33,-63C310.24,-63 318.96,-63 326.78,-63"/>
<polygon fill="#63b8ff" stroke="#63b8ff" points="326.84,-66.5 336.84,-63 326.84,-59.5 326.84,-66.5"/>
</a>
</g>
</g>
</g>
</svg>
