<?xml version="1.0" encoding="UTF-8" standalone="no"?>
<!DOCTYPE svg PUBLIC "-//W3C//DTD SVG 1.1//EN"
 "http://www.w3.org/Graphics/SVG/1.1/DTD/svg11.dtd">
<!-- Generated by graphviz version 2.43.0 (0)
 -->
<!-- Title: DisplayInterface::getCSPin Pages: 1 -->
<svg width="745pt" height="151pt"
 viewBox="0.00 0.00 745.00 151.00" xmlns="http://www.w3.org/2000/svg" xmlns:xlink="http://www.w3.org/1999/xlink">
<g id="graph0" class="graph" transform="scale(1 1) rotate(0) translate(4 147)">
<title>DisplayInterface::getCSPin</title>
<polygon fill="white" stroke="transparent" points="-4,4 -4,-147 741,-147 741,4 -4,4"/>
<!-- Node1 -->
<g id="node1" class="node">
<title>Node1</title>
<g id="a_node1"><a xlink:title="Get the defined CS pin for this display to see if it needs manual SPI switching.">
<polygon fill="#bfbfbf" stroke="black" points="591,-44.5 591,-63.5 737,-63.5 737,-44.5 591,-44.5"/>
<text text-anchor="middle" x="664" y="-51.5" font-family="Helvetica,sans-Serif" font-size="10.00">DisplayInterface::getCSPin</text>
</a>
</g>
</g>
<!-- Node2 -->
<g id="node2" class="node">
<title>Node2</title>
<g id="a_node2"><a xlink:href="classDisplayManager.html#ab5225aac5f432dd65258e1d568bde88d" target="_top" xlink:title="Manually deselects SPI displays that require manual selecting via the CS pin &#45; sets pin high.">
<polygon fill="white" stroke="black" points="386.5,-39 386.5,-69 535.5,-69 535.5,-39 386.5,-39"/>
<text text-anchor="start" x="394.5" y="-57" font-family="Helvetica,sans-Serif" font-size="10.00">DisplayManager::_deselect</text>
<text text-anchor="middle" x="461" y="-46" font-family="Helvetica,sans-Serif" font-size="10.00">SPIDisplay</text>
</a>
</g>
</g>
<!-- Node1&#45;&gt;Node2 -->
<g id="edge1" class="edge">
<title>Node1&#45;&gt;Node2</title>
<path fill="none" stroke="midnightblue" d="M580.53,-54C565.67,-54 550.26,-54 535.67,-54"/>
<polygon fill="midnightblue" stroke="midnightblue" points="580.72,-57.5 590.72,-54 580.72,-50.5 580.72,-57.5"/>
</g>
<!-- Node13 -->
<g id="node8" class="node">
<title>Node13</title>
<g id="a_node8"><a xlink:href="classDisplayManager.html#abcac9213f163018979f2a226ecf53882" target="_top" xlink:title="Manually selects SPI displays that require manual selecting via the CS pin &#45; sets pin low.">
<polygon fill="white" stroke="black" points="367,-88.5 367,-107.5 555,-107.5 555,-88.5 367,-88.5"/>
<text text-anchor="middle" x="461" y="-95.5" font-family="Helvetica,sans-Serif" font-size="10.00">DisplayManager::_selectSPIDisplay</text>
</a>
</g>
</g>
<!-- Node1&#45;&gt;Node13 -->
<g id="edge7" class="edge">
<title>Node1&#45;&gt;Node13</title>
<path fill="none" stroke="midnightblue" d="M610.35,-65.77C592.76,-69.69 573.04,-74.06 555,-78 539.19,-81.46 521.85,-85.2 506.48,-88.5"/>
<polygon fill="midnightblue" stroke="midnightblue" points="611.44,-69.12 620.44,-63.53 609.92,-62.29 611.44,-69.12"/>
</g>
<!-- Node14 -->
<g id="node9" class="node">
<title>Node14</title>
<g id="a_node9"><a xlink:href="test__CompilerCreation_8cpp.html#a484c00ac396e82066ad78a3641a34a4f" target="_top" xlink:title="Ensure devices are created and all attributes are valid.">
<polygon fill="white" stroke="black" points="435,-0.5 435,-19.5 487,-19.5 487,-0.5 435,-0.5"/>
<text text-anchor="middle" x="461" y="-7.5" font-family="Helvetica,sans-Serif" font-size="10.00">TEST_F</text>
</a>
</g>
</g>
<!-- Node1&#45;&gt;Node14 -->
<g id="edge10" class="edge">
<title>Node1&#45;&gt;Node14</title>
<path fill="none" stroke="midnightblue" d="M613.19,-42.19C594.91,-37.93 574.04,-33.15 555,-29 532.14,-24.02 506.02,-18.72 487.3,-14.98"/>
<polygon fill="midnightblue" stroke="midnightblue" points="612.52,-45.62 623.05,-44.49 614.11,-38.81 612.52,-45.62"/>
</g>
<!-- Node3 -->
<g id="node3" class="node">
<title>Node3</title>
<g id="a_node3"><a xlink:href="classDisplayManager.html#aa0e0e26134a34beeb30e27c00b8e829f" target="_top" xlink:title="Calls the displayStartupInfo of all Display instances to display the version.">
<polygon fill="white" stroke="black" points="140,-86.5 140,-105.5 331,-105.5 331,-86.5 140,-86.5"/>
<text text-anchor="middle" x="235.5" y="-93.5" font-family="Helvetica,sans-Serif" font-size="10.00">DisplayManager::displayStartupInfo</text>
</a>
</g>
</g>
<!-- Node2&#45;&gt;Node3 -->
<g id="edge2" class="edge">
<title>Node2&#45;&gt;Node3</title>
<path fill="none" stroke="midnightblue" d="M376.18,-69.75C346.29,-75.37 313.55,-81.52 287.28,-86.46"/>
<polygon fill="midnightblue" stroke="midnightblue" points="377.02,-73.16 386.2,-67.87 375.72,-66.28 377.02,-73.16"/>
</g>
<!-- Node9 -->
<g id="node6" class="node">
<title>Node9</title>
<g id="a_node6"><a xlink:href="classDisplayManager.html#ad53dcac2e939893727d27187524733c6" target="_top" xlink:title="Call this routinely to ensure all displays are updated with screens.">
<polygon fill="white" stroke="black" points="167.5,-47.5 167.5,-66.5 303.5,-66.5 303.5,-47.5 167.5,-47.5"/>
<text text-anchor="middle" x="235.5" y="-54.5" font-family="Helvetica,sans-Serif" font-size="10.00">DisplayManager::update</text>
</a>
</g>
</g>
<!-- Node2&#45;&gt;Node9 -->
<g id="edge5" class="edge">
<title>Node2&#45;&gt;Node9</title>
<path fill="none" stroke="midnightblue" d="M376.09,-55.13C352.23,-55.45 326.55,-55.79 303.81,-56.1"/>
<polygon fill="midnightblue" stroke="midnightblue" points="376.25,-58.62 386.2,-54.99 376.15,-51.63 376.25,-58.62"/>
</g>
<!-- Node4 -->
<g id="node4" class="node">
<title>Node4</title>
<g id="a_node4"><a xlink:href="classController.html#a1cc0b87ab9e07d21ab47d294aa5bf607" target="_top" xlink:title="Call once to start displays and input.">
<polygon fill="white" stroke="red" points="3,-85.5 3,-104.5 101,-104.5 101,-85.5 3,-85.5"/>
<text text-anchor="middle" x="52" y="-92.5" font-family="Helvetica,sans-Serif" font-size="10.00">Controller::begin</text>
</a>
</g>
</g>
<!-- Node3&#45;&gt;Node4 -->
<g id="edge3" class="edge">
<title>Node3&#45;&gt;Node4</title>
<path fill="none" stroke="midnightblue" d="M129.75,-95.42C119.79,-95.37 110.06,-95.31 101.06,-95.26"/>
<polygon fill="midnightblue" stroke="midnightblue" points="129.74,-98.92 139.76,-95.48 129.78,-91.92 129.74,-98.92"/>
</g>
<!-- Node8 -->
<g id="node5" class="node">
<title>Node8</title>
<g id="a_node5"><a xlink:href="test__DisplayManager_8cpp.html#ad108e01a79b7f75a831a955e93bb9176" target="_top" xlink:title="Validate the displayStartupInfo() method correct calls all display methods.">
<polygon fill="white" stroke="black" points="26,-123.5 26,-142.5 78,-142.5 78,-123.5 26,-123.5"/>
<text text-anchor="middle" x="52" y="-130.5" font-family="Helvetica,sans-Serif" font-size="10.00">TEST_F</text>
</a>
</g>
</g>
<!-- Node3&#45;&gt;Node8 -->
<g id="edge4" class="edge">
<title>Node3&#45;&gt;Node8</title>
<path fill="none" stroke="midnightblue" d="M177.64,-107.59C144.23,-114.4 103.65,-122.67 78.07,-127.89"/>
<polygon fill="midnightblue" stroke="midnightblue" points="178.66,-110.96 187.76,-105.53 177.26,-104.1 178.66,-110.96"/>
</g>
<!-- Node10 -->
<g id="node7" class="node">
<title>Node10</title>
<g id="a_node7"><a xlink:href="classController.html#a7d04c17913f04f99429aa29fa8505484" target="_top" xlink:title="Processes all ongoing activities, monitoring streams, receiving user input, updates displays,...">
<polygon fill="white" stroke="red" points="0,-47.5 0,-66.5 104,-66.5 104,-47.5 0,-47.5"/>
<text text-anchor="middle" x="52" y="-54.5" font-family="Helvetica,sans-Serif" font-size="10.00">Controller::update</text>
</a>
</g>
</g>
<!-- Node9&#45;&gt;Node10 -->
<g id="edge6" class="edge">
<title>Node9&#45;&gt;Node10</title>
<path fill="none" stroke="midnightblue" d="M157.27,-57C139.33,-57 120.68,-57 104.19,-57"/>
<polygon fill="midnightblue" stroke="midnightblue" points="157.43,-60.5 167.43,-57 157.43,-53.5 157.43,-60.5"/>
</g>
<!-- Node13&#45;&gt;Node3 -->
<g id="edge8" class="edge">
<title>Node13&#45;&gt;Node3</title>
<path fill="none" stroke="midnightblue" d="M356.6,-97.07C348.17,-97 339.68,-96.92 331.31,-96.85"/>
<polygon fill="midnightblue" stroke="midnightblue" points="356.8,-100.58 366.83,-97.17 356.87,-93.58 356.8,-100.58"/>
</g>
<!-- Node13&#45;&gt;Node9 -->
<g id="edge9" class="edge">
<title>Node13&#45;&gt;Node9</title>
<path fill="none" stroke="midnightblue" d="M398.2,-86.66C363.7,-80.33 321.21,-72.54 288.44,-66.53"/>
<polygon fill="midnightblue" stroke="midnightblue" points="397.7,-90.13 408.16,-88.49 398.96,-83.24 397.7,-90.13"/>
</g>
</g>
</svg>
