<?xml version="1.0" encoding="UTF-8" standalone="no"?>
<!DOCTYPE svg PUBLIC "-//W3C//DTD SVG 1.1//EN"
 "http://www.w3.org/Graphics/SVG/1.1/DTD/svg11.dtd">
<!-- Generated by graphviz version 2.43.0 (0)
 -->
<!-- Title: InputManager::addInput Pages: 1 -->
<svg width="433pt" height="154pt"
 viewBox="0.00 0.00 433.00 154.00" xmlns="http://www.w3.org/2000/svg" xmlns:xlink="http://www.w3.org/1999/xlink">
<g id="graph0" class="graph" transform="scale(1 1) rotate(0) translate(4 150)">
<title>InputManager::addInput</title>
<polygon fill="white" stroke="transparent" points="-4,4 -4,-150 429,-150 429,4 -4,4"/>
<!-- Node1 -->
<g id="node1" class="node">
<title>Node1</title>
<g id="a_node1"><a xlink:title="Set the InputInterface.">
<polygon fill="#bfbfbf" stroke="black" points="0,-60.5 0,-79.5 133,-79.5 133,-60.5 0,-60.5"/>
<text text-anchor="middle" x="66.5" y="-67.5" font-family="Helvetica,sans-Serif" font-size="10.00">InputManager::addInput</text>
</a>
</g>
</g>
<!-- Node2 -->
<g id="node2" class="node">
<title>Node2</title>
<g id="a_node2"><a xlink:href="classInputInterface.html#abae89c99e802186c05e97750e473dac1" target="_top" xlink:title="Set the instance for callbacks when users trigger an input action.">
<polygon fill="white" stroke="black" points="183,-126.5 183,-145.5 331,-145.5 331,-126.5 183,-126.5"/>
<text text-anchor="middle" x="257" y="-133.5" font-family="Helvetica,sans-Serif" font-size="10.00">InputInterface::setCallback</text>
</a>
</g>
</g>
<!-- Node1&#45;&gt;Node2 -->
<g id="edge1" class="edge">
<title>Node1&#45;&gt;Node2</title>
<path fill="none" stroke="midnightblue" d="M84.98,-79.53C104.84,-90.01 138.45,-106.73 169,-117 176.9,-119.66 185.33,-122.04 193.72,-124.14"/>
<polygon fill="midnightblue" stroke="midnightblue" points="192.97,-127.56 203.51,-126.48 194.6,-120.75 192.97,-127.56"/>
</g>
<!-- Node3 -->
<g id="node3" class="node">
<title>Node3</title>
<g id="a_node3"><a xlink:href="classInputInterface.html#a496b20fc72c9b458bc5b7b29bebfe672" target="_top" xlink:title="Set the debounce delay.">
<polygon fill="white" stroke="black" points="179.5,-77 179.5,-107 334.5,-107 334.5,-77 179.5,-77"/>
<text text-anchor="start" x="187.5" y="-95" font-family="Helvetica,sans-Serif" font-size="10.00">InputInterface::setDebounce</text>
<text text-anchor="middle" x="257" y="-84" font-family="Helvetica,sans-Serif" font-size="10.00">Delay</text>
</a>
</g>
</g>
<!-- Node1&#45;&gt;Node3 -->
<g id="edge2" class="edge">
<title>Node1&#45;&gt;Node3</title>
<path fill="none" stroke="midnightblue" d="M133.16,-77.66C144.78,-79.02 157.05,-80.45 169.14,-81.86"/>
<polygon fill="midnightblue" stroke="midnightblue" points="168.91,-85.36 179.25,-83.04 169.72,-78.41 168.91,-85.36"/>
</g>
<!-- Node5 -->
<g id="node5" class="node">
<title>Node5</title>
<g id="a_node5"><a xlink:href="classInputInterface.html#a9880a65f1358aa4f7880cddadf3ff846" target="_top" xlink:title="Set the threshold for detecting an input is held.">
<polygon fill="white" stroke="black" points="169,-38.5 169,-57.5 345,-57.5 345,-38.5 169,-38.5"/>
<text text-anchor="middle" x="257" y="-45.5" font-family="Helvetica,sans-Serif" font-size="10.00">InputInterface::setHoldThreshold</text>
</a>
</g>
</g>
<!-- Node1&#45;&gt;Node5 -->
<g id="edge4" class="edge">
<title>Node1&#45;&gt;Node5</title>
<path fill="none" stroke="midnightblue" d="M133.16,-62.34C143.23,-61.16 153.77,-59.93 164.28,-58.71"/>
<polygon fill="midnightblue" stroke="midnightblue" points="164.79,-62.17 174.32,-57.53 163.98,-55.22 164.79,-62.17"/>
</g>
<!-- Node6 -->
<g id="node6" class="node">
<title>Node6</title>
<g id="a_node6"><a xlink:href="classInputInterface.html#add815941c23f1e6fe831a13738ed626c" target="_top" xlink:title="Set the logger instance to use for diagnostic logging.">
<polygon fill="white" stroke="black" points="187.5,-0.5 187.5,-19.5 326.5,-19.5 326.5,-0.5 187.5,-0.5"/>
<text text-anchor="middle" x="257" y="-7.5" font-family="Helvetica,sans-Serif" font-size="10.00">InputInterface::setLogger</text>
</a>
</g>
</g>
<!-- Node1&#45;&gt;Node6 -->
<g id="edge5" class="edge">
<title>Node1&#45;&gt;Node6</title>
<path fill="none" stroke="midnightblue" d="M88.12,-60.47C108.37,-51.4 140.31,-37.86 169,-29 177.48,-26.38 186.53,-23.98 195.47,-21.84"/>
<polygon fill="midnightblue" stroke="midnightblue" points="196.52,-25.18 205.48,-19.52 194.95,-18.36 196.52,-25.18"/>
</g>
<!-- Node4 -->
<g id="node4" class="node">
<title>Node4</title>
<g id="a_node4"><a xlink:href="Arduino_8h.html#a6bc5f943544a887f8b23cadfb26a5e30" target="_top" xlink:title=" ">
<polygon fill="white" stroke="black" points="381,-82.5 381,-101.5 425,-101.5 425,-82.5 381,-82.5"/>
<text text-anchor="middle" x="403" y="-89.5" font-family="Helvetica,sans-Serif" font-size="10.00">delay</text>
</a>
</g>
</g>
<!-- Node3&#45;&gt;Node4 -->
<g id="edge3" class="edge">
<title>Node3&#45;&gt;Node4</title>
<path fill="none" stroke="midnightblue" d="M334.64,-92C347.43,-92 360.03,-92 370.81,-92"/>
<polygon fill="midnightblue" stroke="midnightblue" points="370.92,-95.5 380.92,-92 370.92,-88.5 370.92,-95.5"/>
</g>
</g>
</svg>
