<?xml version="1.0" encoding="UTF-8" standalone="no"?>
<!DOCTYPE svg PUBLIC "-//W3C//DTD SVG 1.1//EN"
 "http://www.w3.org/Graphics/SVG/1.1/DTD/svg11.dtd">
<!-- Generated by graphviz version 2.43.0 (0)
 -->
<!-- Title: MockCallback Pages: 1 -->
<svg width="135pt" height="219pt"
 viewBox="0.00 0.00 135.00 219.00" xmlns="http://www.w3.org/2000/svg" xmlns:xlink="http://www.w3.org/1999/xlink">
<g id="graph0" class="graph" transform="scale(1 1) rotate(0) translate(4 215)">
<title>MockCallback</title>
<polygon fill="white" stroke="transparent" points="-4,4 -4,-215 131,-215 131,4 -4,4"/>
<!-- Node1 -->
<g id="node1" class="node">
<title>Node1</title>
<g id="a_node1"><a xlink:title="Mock class to test callbacks.">
<polygon fill="#bfbfbf" stroke="black" points="8.5,-0.5 8.5,-19.5 93.5,-19.5 93.5,-0.5 8.5,-0.5"/>
<text text-anchor="middle" x="51" y="-7.5" font-family="Helvetica,sans-Serif" font-size="10.00">MockCallback</text>
</a>
</g>
</g>
<!-- Node2 -->
<g id="node2" class="node">
<title>Node2</title>
<g id="a_node2"><a xlink:href="classCallbackInterface.html" target="_top" xlink:title="Interface class to use for callbacks.">
<polygon fill="white" stroke="black" points="0,-57.5 0,-76.5 102,-76.5 102,-57.5 0,-57.5"/>
<text text-anchor="middle" x="51" y="-64.5" font-family="Helvetica,sans-Serif" font-size="10.00">CallbackInterface</text>
</a>
</g>
</g>
<!-- Node2&#45;&gt;Node1 -->
<g id="edge1" class="edge">
<title>Node2&#45;&gt;Node1</title>
<path fill="none" stroke="midnightblue" d="M51,-47.12C51,-37.82 51,-27.06 51,-19.71"/>
<polygon fill="midnightblue" stroke="midnightblue" points="47.5,-47.41 51,-57.41 54.5,-47.41 47.5,-47.41"/>
</g>
<!-- Node3 -->
<g id="node3" class="node">
<title>Node3</title>
<g id="a_node3"><a xlink:href="classLogger.html" target="_top" xlink:title="Class to enable simple logging to a Stream object with different log levels This enables embedding pe...">
<polygon fill="white" stroke="black" points="26,-124.5 26,-143.5 76,-143.5 76,-124.5 26,-124.5"/>
<text text-anchor="middle" x="51" y="-131.5" font-family="Helvetica,sans-Serif" font-size="10.00">Logger</text>
</a>
</g>
</g>
<!-- Node3&#45;&gt;Node2 -->
<g id="edge2" class="edge">
<title>Node3&#45;&gt;Node2</title>
<path fill="none" stroke="#9a32cd" stroke-dasharray="5,2" d="M51,-114.04C51,-101.67 51,-86.12 51,-76.63"/>
<polygon fill="#9a32cd" stroke="#9a32cd" points="47.5,-114.23 51,-124.23 54.5,-114.23 47.5,-114.23"/>
<text text-anchor="middle" x="71" y="-98" font-family="Helvetica,sans-Serif" font-size="10.00"> _logger</text>
</g>
<!-- Node4 -->
<g id="node4" class="node">
<title>Node4</title>
<g id="a_node4"><a xlink:href="classStream.html" target="_top" xlink:title="Class to mock the basic Stream function equivalent of the Arduino framework.">
<polygon fill="white" stroke="black" points="25,-191.5 25,-210.5 77,-210.5 77,-191.5 25,-191.5"/>
<text text-anchor="middle" x="51" y="-198.5" font-family="Helvetica,sans-Serif" font-size="10.00">Stream</text>
</a>
</g>
</g>
<!-- Node4&#45;&gt;Node3 -->
<g id="edge3" class="edge">
<title>Node4&#45;&gt;Node3</title>
<path fill="none" stroke="#9a32cd" stroke-dasharray="5,2" d="M51,-181.04C51,-168.67 51,-153.12 51,-143.63"/>
<polygon fill="#9a32cd" stroke="#9a32cd" points="47.5,-181.23 51,-191.23 54.5,-181.23 47.5,-181.23"/>
<text text-anchor="middle" x="89" y="-165" font-family="Helvetica,sans-Serif" font-size="10.00"> _outputStream</text>
</g>
</g>
</svg>
