<?xml version="1.0" encoding="UTF-8" standalone="no"?>
<!DOCTYPE svg PUBLIC "-//W3C//DTD SVG 1.1//EN"
 "http://www.w3.org/Graphics/SVG/1.1/DTD/svg11.dtd">
<!-- Generated by graphviz version 2.43.0 (0)
 -->
<!-- Title: DisplayInterface::setLogger Pages: 1 -->
<svg width="724pt" height="66pt"
 viewBox="0.00 0.00 724.00 66.00" xmlns="http://www.w3.org/2000/svg" xmlns:xlink="http://www.w3.org/1999/xlink">
<g id="graph0" class="graph" transform="scale(1 1) rotate(0) translate(4 62)">
<title>DisplayInterface::setLogger</title>
<polygon fill="white" stroke="transparent" points="-4,4 -4,-62 720,-62 720,4 -4,4"/>
<!-- Node1 -->
<g id="node1" class="node">
<title>Node1</title>
<g id="a_node1"><a xlink:title="Set the logger instance to use for diagnostic logging.">
<polygon fill="#bfbfbf" stroke="black" points="565,-19.5 565,-38.5 716,-38.5 716,-19.5 565,-19.5"/>
<text text-anchor="middle" x="640.5" y="-26.5" font-family="Helvetica,sans-Serif" font-size="10.00">DisplayInterface::setLogger</text>
</a>
</g>
</g>
<!-- Node2 -->
<g id="node2" class="node">
<title>Node2</title>
<g id="a_node2"><a xlink:href="classDisplayManager.html#a14afc225d393f7224bfa0474338d39f3" target="_top" xlink:title="Add a DisplayInterface derived instance to the list of displays.">
<polygon fill="white" stroke="black" points="372,-19.5 372,-38.5 529,-38.5 529,-19.5 372,-19.5"/>
<text text-anchor="middle" x="450.5" y="-26.5" font-family="Helvetica,sans-Serif" font-size="10.00">DisplayManager::addDisplay</text>
</a>
</g>
</g>
<!-- Node1&#45;&gt;Node2 -->
<g id="edge1" class="edge">
<title>Node1&#45;&gt;Node2</title>
<path fill="none" stroke="midnightblue" d="M554.9,-29C546.3,-29 537.59,-29 529.07,-29"/>
<polygon fill="midnightblue" stroke="midnightblue" points="554.93,-32.5 564.93,-29 554.93,-25.5 554.93,-32.5"/>
</g>
<!-- Node3 -->
<g id="node3" class="node">
<title>Node3</title>
<g id="a_node3"><a xlink:href="classDisplayManager.html#a9ade9b696372a53b8b716d29d7b53c70" target="_top" xlink:title="Parses the displays configured in myConfig.h and creates the list of displays.">
<polygon fill="white" stroke="black" points="161,-38.5 161,-57.5 336,-57.5 336,-38.5 161,-38.5"/>
<text text-anchor="middle" x="248.5" y="-45.5" font-family="Helvetica,sans-Serif" font-size="10.00">DisplayManager::createDisplays</text>
</a>
</g>
</g>
<!-- Node2&#45;&gt;Node3 -->
<g id="edge2" class="edge">
<title>Node2&#45;&gt;Node3</title>
<path fill="none" stroke="midnightblue" d="M361.89,-37.32C353.31,-38.14 344.6,-38.97 336.03,-39.78"/>
<polygon fill="midnightblue" stroke="midnightblue" points="362.26,-40.8 371.89,-36.37 361.6,-33.83 362.26,-40.8"/>
</g>
<!-- Node9 -->
<g id="node5" class="node">
<title>Node9</title>
<g id="a_node5"><a xlink:href="test__DisplayManager_8cpp.html#a8db4cc07d4e89d899e0a75ca521f9229" target="_top" xlink:title="Create a list of mock displays and validate they are created and operate correctly.">
<polygon fill="white" stroke="black" points="222.5,-0.5 222.5,-19.5 274.5,-19.5 274.5,-0.5 222.5,-0.5"/>
<text text-anchor="middle" x="248.5" y="-7.5" font-family="Helvetica,sans-Serif" font-size="10.00">TEST_F</text>
</a>
</g>
</g>
<!-- Node2&#45;&gt;Node9 -->
<g id="edge4" class="edge">
<title>Node2&#45;&gt;Node9</title>
<path fill="none" stroke="midnightblue" d="M361.7,-20.66C330.08,-17.65 296.81,-14.49 274.78,-12.4"/>
<polygon fill="midnightblue" stroke="midnightblue" points="361.6,-24.17 371.89,-21.63 362.26,-17.2 361.6,-24.17"/>
</g>
<!-- Node4 -->
<g id="node4" class="node">
<title>Node4</title>
<g id="a_node4"><a xlink:href="classConfigurator.html#a25ee5e1b0a64d971232d6ecaaadd5d61" target="_top" xlink:title="Call all one&#45;shot initialisation or begin methods on startup.">
<polygon fill="white" stroke="red" points="0,-38.5 0,-57.5 125,-57.5 125,-38.5 0,-38.5"/>
<text text-anchor="middle" x="62.5" y="-45.5" font-family="Helvetica,sans-Serif" font-size="10.00">Configurator::initialise</text>
</a>
</g>
</g>
<!-- Node3&#45;&gt;Node4 -->
<g id="edge3" class="edge">
<title>Node3&#45;&gt;Node4</title>
<path fill="none" stroke="midnightblue" d="M150.65,-48C141.94,-48 133.29,-48 125.01,-48"/>
<polygon fill="midnightblue" stroke="midnightblue" points="150.89,-51.5 160.89,-48 150.89,-44.5 150.89,-51.5"/>
</g>
</g>
</svg>
