<?xml version="1.0" encoding="UTF-8" standalone="no"?>
<!DOCTYPE svg PUBLIC "-//W3C//DTD SVG 1.1//EN"
 "http://www.w3.org/Graphics/SVG/1.1/DTD/svg11.dtd">
<!-- Generated by graphviz version 2.43.0 (0)
 -->
<!-- Title: TFT_eSPIDisplay::displayScreen Pages: 1 -->
<svg width="703pt" height="142pt"
 viewBox="0.00 0.00 703.00 142.00" xmlns="http://www.w3.org/2000/svg" xmlns:xlink="http://www.w3.org/1999/xlink">
<g id="graph0" class="graph" transform="scale(1 1) rotate(0) translate(4 138)">
<title>TFT_eSPIDisplay::displayScreen</title>
<polygon fill="white" stroke="transparent" points="-4,4 -4,-138 699,-138 699,4 -4,4"/>
<!-- Node1 -->
<g id="node1" class="node">
<title>Node1</title>
<g id="a_node1"><a xlink:title="Display the specified Screen on this display.">
<polygon fill="#bfbfbf" stroke="black" points="0,-52 0,-82 137,-82 137,-52 0,-52"/>
<text text-anchor="start" x="8" y="-70" font-family="Helvetica,sans-Serif" font-size="10.00">TFT_eSPIDisplay::display</text>
<text text-anchor="middle" x="68.5" y="-59" font-family="Helvetica,sans-Serif" font-size="10.00">Screen</text>
</a>
</g>
</g>
<!-- Node2 -->
<g id="node2" class="node">
<title>Node2</title>
<g id="a_node2"><a xlink:href="classTFT__eSPIDisplay.html#af7bbb772e597d3431656ccd32d73bdf5" target="_top" xlink:title="Clear the entire screen.">
<polygon fill="white" stroke="black" points="173,-114.5 173,-133.5 332,-133.5 332,-114.5 173,-114.5"/>
<text text-anchor="middle" x="252.5" y="-121.5" font-family="Helvetica,sans-Serif" font-size="10.00">TFT_eSPIDisplay::clearScreen</text>
</a>
</g>
</g>
<!-- Node1&#45;&gt;Node2 -->
<g id="edge1" class="edge">
<title>Node1&#45;&gt;Node2</title>
<path fill="none" stroke="midnightblue" d="M107.49,-82.13C126.9,-89.56 151.02,-98.33 173,-105 181.1,-107.46 189.75,-109.81 198.23,-111.98"/>
<polygon fill="midnightblue" stroke="midnightblue" points="197.52,-115.41 208.07,-114.43 199.21,-108.62 197.52,-115.41"/>
</g>
<!-- Node3 -->
<g id="node3" class="node">
<title>Node3</title>
<g id="a_node3"><a xlink:href="classTFT__eSPIDisplay.html#a18b84c77677d72c6515d0cd45e9c65ae" target="_top" xlink:title="Display a row of text on the display.">
<polygon fill="white" stroke="black" points="173.5,-76.5 173.5,-95.5 331.5,-95.5 331.5,-76.5 173.5,-76.5"/>
<text text-anchor="middle" x="252.5" y="-83.5" font-family="Helvetica,sans-Serif" font-size="10.00">TFT_eSPIDisplay::displayRow</text>
</a>
</g>
</g>
<!-- Node1&#45;&gt;Node3 -->
<g id="edge2" class="edge">
<title>Node1&#45;&gt;Node3</title>
<path fill="none" stroke="midnightblue" d="M137.01,-74.05C145.61,-74.95 154.51,-75.87 163.37,-76.8"/>
<polygon fill="midnightblue" stroke="midnightblue" points="163.04,-80.28 173.35,-77.84 163.77,-73.32 163.04,-80.28"/>
</g>
<!-- Node6 -->
<g id="node6" class="node">
<title>Node6</title>
<g id="a_node6"><a xlink:href="classScreen.html#a0bf66c3d7a47302ecb77113f3eacc422" target="_top" xlink:title="Get the first ScreenRow instance in the list.">
<polygon fill="white" stroke="black" points="179.5,-38.5 179.5,-57.5 325.5,-57.5 325.5,-38.5 179.5,-38.5"/>
<text text-anchor="middle" x="252.5" y="-45.5" font-family="Helvetica,sans-Serif" font-size="10.00">Screen::getFirstScreenRow</text>
</a>
</g>
</g>
<!-- Node1&#45;&gt;Node6 -->
<g id="edge6" class="edge">
<title>Node1&#45;&gt;Node6</title>
<path fill="none" stroke="midnightblue" d="M137.01,-59.95C147.44,-58.86 158.31,-57.73 169.01,-56.61"/>
<polygon fill="midnightblue" stroke="midnightblue" points="169.63,-60.07 179.21,-55.55 168.9,-53.1 169.63,-60.07"/>
</g>
<!-- Node7 -->
<g id="node7" class="node">
<title>Node7</title>
<g id="a_node7"><a xlink:href="classScreenRow.html#aa8df6843233ea45caf26773d140ce4b8" target="_top" xlink:title="Get the next ScreenRow instance in the list.">
<polygon fill="white" stroke="black" points="195,-0.5 195,-19.5 310,-19.5 310,-0.5 195,-0.5"/>
<text text-anchor="middle" x="252.5" y="-7.5" font-family="Helvetica,sans-Serif" font-size="10.00">ScreenRow::getNext</text>
</a>
</g>
</g>
<!-- Node1&#45;&gt;Node7 -->
<g id="edge7" class="edge">
<title>Node1&#45;&gt;Node7</title>
<path fill="none" stroke="midnightblue" d="M107.49,-51.87C126.9,-44.44 151.02,-35.67 173,-29 181.1,-26.54 189.75,-24.19 198.23,-22.02"/>
<polygon fill="midnightblue" stroke="midnightblue" points="199.21,-25.38 208.07,-19.57 197.52,-18.59 199.21,-25.38"/>
</g>
<!-- Node4 -->
<g id="node4" class="node">
<title>Node4</title>
<g id="a_node4"><a xlink:href="classTFT__eSPIDisplay.html#afcbf3673396a684fd540bc75214719a3" target="_top" xlink:title="Get the X/Y coordinates to draw the specified row, starting at the specified column.">
<polygon fill="white" stroke="black" points="551,-71 551,-101 695,-101 695,-71 551,-71"/>
<text text-anchor="start" x="559" y="-89" font-family="Helvetica,sans-Serif" font-size="10.00">TFT_eSPIDisplay::_getRow</text>
<text text-anchor="middle" x="623" y="-78" font-family="Helvetica,sans-Serif" font-size="10.00">Position</text>
</a>
</g>
</g>
<!-- Node3&#45;&gt;Node4 -->
<g id="edge3" class="edge">
<title>Node3&#45;&gt;Node4</title>
<path fill="none" stroke="midnightblue" d="M331.65,-86C393.09,-86 478.4,-86 540.65,-86"/>
<polygon fill="midnightblue" stroke="midnightblue" points="540.83,-89.5 550.83,-86 540.83,-82.5 540.83,-89.5"/>
</g>
<!-- Node5 -->
<g id="node5" class="node">
<title>Node5</title>
<g id="a_node5"><a xlink:href="classTFT__eSPIDisplay.html#a0d8317643dddb535369abd48de8bdbda" target="_top" xlink:title="Clear the specified row.">
<polygon fill="white" stroke="black" points="368,-57.5 368,-76.5 515,-76.5 515,-57.5 368,-57.5"/>
<text text-anchor="middle" x="441.5" y="-64.5" font-family="Helvetica,sans-Serif" font-size="10.00">TFT_eSPIDisplay::clearRow</text>
</a>
</g>
</g>
<!-- Node3&#45;&gt;Node5 -->
<g id="edge4" class="edge">
<title>Node3&#45;&gt;Node5</title>
<path fill="none" stroke="midnightblue" d="M331.72,-78.05C340.35,-77.18 349.16,-76.28 357.85,-75.4"/>
<polygon fill="midnightblue" stroke="midnightblue" points="358.37,-78.86 367.97,-74.37 357.66,-71.9 358.37,-78.86"/>
</g>
<!-- Node5&#45;&gt;Node4 -->
<g id="edge5" class="edge">
<title>Node5&#45;&gt;Node4</title>
<path fill="none" stroke="midnightblue" d="M515.25,-74.7C523.7,-75.6 532.36,-76.51 540.92,-77.42"/>
<polygon fill="midnightblue" stroke="midnightblue" points="540.58,-80.9 550.89,-78.47 541.32,-73.94 540.58,-80.9"/>
</g>
</g>
</svg>
