<?xml version="1.0" encoding="UTF-8" standalone="no"?>
<!DOCTYPE svg PUBLIC "-//W3C//DTD SVG 1.1//EN"
 "http://www.w3.org/Graphics/SVG/1.1/DTD/svg11.dtd">
<!-- Generated by graphviz version 2.43.0 (0)
 -->
<!-- Title: InputInterface Pages: 1 -->
<svg width="328pt" height="225pt"
 viewBox="0.00 0.00 327.77 225.00" xmlns="http://www.w3.org/2000/svg" xmlns:xlink="http://www.w3.org/1999/xlink">
<g id="graph0" class="graph" transform="scale(1 1) rotate(0) translate(4 221)">
<title>InputInterface</title>
<!-- Node1 -->
<g id="Node000001" class="node">
<title>Node1</title>
<g id="a_Node000001"><a xlink:title="Class to abstract away all physical input implementatio to enable multiple input types Default return...">
<polygon fill="#999999" stroke="#666666" points="146.77,-19 61.77,-19 61.77,0 146.77,0 146.77,-19"/>
<text text-anchor="middle" x="104.27" y="-7" font-family="Helvetica,sans-Serif" font-size="10.00">InputInterface</text>
</a>
</g>
</g>
<!-- Node2 -->
<g id="Node000002" class="node">
<title>Node2</title>
<g id="a_Node000002"><a xlink:href="classCallbackInterface.html" target="_top" xlink:title="Interface class to use for callbacks.">
<polygon fill="white" stroke="#666666" points="155.27,-85 53.27,-85 53.27,-66 155.27,-66 155.27,-85"/>
<text text-anchor="middle" x="104.27" y="-73" font-family="Helvetica,sans-Serif" font-size="10.00">CallbackInterface</text>
</a>
</g>
</g>
<!-- Node2&#45;&gt;Node1 -->
<g id="edge1_Node000001_Node000002" class="edge">
<title>Node2&#45;&gt;Node1</title>
<g id="a_edge1_Node000001_Node000002"><a xlink:title=" ">
<path fill="none" stroke="#9a32cd" stroke-dasharray="5,2" d="M104.27,-55.58C104.27,-43.63 104.27,-28.72 104.27,-19.41"/>
<polygon fill="#9a32cd" stroke="#9a32cd" points="100.77,-55.87 104.27,-65.87 107.77,-55.87 100.77,-55.87"/>
</a>
</g>
<text text-anchor="middle" x="128.77" y="-40" font-family="Helvetica,sans-Serif" font-size="10.00" fill="grey"> _callback</text>
</g>
<!-- Node3 -->
<g id="Node000003" class="node">
<title>Node3</title>
<g id="a_Node000003"><a xlink:href="classLogger.html" target="_top" xlink:title="Class to enable simple logging to a Stream object with different log levels This enables embedding pe...">
<polygon fill="white" stroke="#666666" points="129.27,-151 79.27,-151 79.27,-132 129.27,-132 129.27,-151"/>
<text text-anchor="middle" x="104.27" y="-139" font-family="Helvetica,sans-Serif" font-size="10.00">Logger</text>
</a>
</g>
</g>
<!-- Node3&#45;&gt;Node1 -->
<g id="edge4_Node000001_Node000003" class="edge">
<title>Node3&#45;&gt;Node1</title>
<g id="a_edge4_Node000001_Node000003"><a xlink:title=" ">
<path fill="none" stroke="#9a32cd" stroke-dasharray="5,2" d="M69.23,-131.14C46.35,-123 18.23,-108.7 4.27,-85 -14.56,-53 36.72,-30.44 72.62,-19.03"/>
<polygon fill="#9a32cd" stroke="#9a32cd" points="68.39,-134.54 78.98,-134.35 70.58,-127.89 68.39,-134.54"/>
</a>
</g>
<text text-anchor="middle" x="24.27" y="-73" font-family="Helvetica,sans-Serif" font-size="10.00" fill="grey"> _logger</text>
</g>
<!-- Node3&#45;&gt;Node2 -->
<g id="edge2_Node000002_Node000003" class="edge">
<title>Node3&#45;&gt;Node2</title>
<g id="a_edge2_Node000002_Node000003"><a xlink:title=" ">
<path fill="none" stroke="#9a32cd" stroke-dasharray="5,2" d="M104.27,-121.58C104.27,-109.63 104.27,-94.72 104.27,-85.41"/>
<polygon fill="#9a32cd" stroke="#9a32cd" points="100.77,-121.87 104.27,-131.87 107.77,-121.87 100.77,-121.87"/>
</a>
</g>
<text text-anchor="middle" x="124.27" y="-106" font-family="Helvetica,sans-Serif" font-size="10.00" fill="grey"> _logger</text>
</g>
<!-- Node5 -->
<g id="Node000005" class="node">
<title>Node5</title>
<g id="a_Node000005"><a xlink:href="classDisplayInterface.html" target="_top" xlink:title="Class to abstract away all physical display implementation to enable multiple display types.">
<polygon fill="white" stroke="#666666" points="270.77,-85 173.77,-85 173.77,-66 270.77,-66 270.77,-85"/>
<text text-anchor="middle" x="222.27" y="-73" font-family="Helvetica,sans-Serif" font-size="10.00">DisplayInterface</text>
</a>
</g>
</g>
<!-- Node3&#45;&gt;Node5 -->
<g id="edge7_Node000005_Node000003" class="edge">
<title>Node3&#45;&gt;Node5</title>
<g id="a_edge7_Node000005_Node000003"><a xlink:title=" ">
<path fill="none" stroke="#9a32cd" stroke-dasharray="5,2" d="M129.11,-127.03C152.35,-114.42 186.38,-95.97 206.24,-85.2"/>
<polygon fill="#9a32cd" stroke="#9a32cd" points="127.31,-124.02 120.19,-131.87 130.65,-130.18 127.31,-124.02"/>
</a>
</g>
<text text-anchor="middle" x="191.27" y="-106" font-family="Helvetica,sans-Serif" font-size="10.00" fill="grey"> _logger</text>
</g>
<!-- Node4 -->
<g id="Node000004" class="node">
<title>Node4</title>
<g id="a_Node000004"><a xlink:href="classStream.html" target="_top" xlink:title="Class to mock the basic Stream function equivalent of the Arduino framework.">
<polygon fill="white" stroke="#666666" points="130.27,-217 78.27,-217 78.27,-198 130.27,-198 130.27,-217"/>
<text text-anchor="middle" x="104.27" y="-205" font-family="Helvetica,sans-Serif" font-size="10.00">Stream</text>
</a>
</g>
</g>
<!-- Node4&#45;&gt;Node3 -->
<g id="edge3_Node000003_Node000004" class="edge">
<title>Node4&#45;&gt;Node3</title>
<g id="a_edge3_Node000003_Node000004"><a xlink:title=" ">
<path fill="none" stroke="#9a32cd" stroke-dasharray="5,2" d="M104.27,-187.58C104.27,-175.63 104.27,-160.72 104.27,-151.41"/>
<polygon fill="#9a32cd" stroke="#9a32cd" points="100.77,-187.87 104.27,-197.87 107.77,-187.87 100.77,-187.87"/>
</a>
</g>
<text text-anchor="middle" x="142.27" y="-172" font-family="Helvetica,sans-Serif" font-size="10.00" fill="grey"> _outputStream</text>
</g>
<!-- Node5&#45;&gt;Node1 -->
<g id="edge5_Node000001_Node000005" class="edge">
<title>Node5&#45;&gt;Node1</title>
<g id="a_edge5_Node000001_Node000005"><a xlink:title=" ">
<path fill="none" stroke="#9a32cd" stroke-dasharray="5,2" d="M199.21,-60.75C186.87,-53.5 171.35,-44.57 157.27,-37 145.68,-30.76 132.43,-24.14 122.08,-19.07"/>
<polygon fill="#9a32cd" stroke="#9a32cd" points="197.56,-63.84 207.96,-65.91 201.12,-57.81 197.56,-63.84"/>
</a>
</g>
<text text-anchor="middle" x="199.27" y="-40" font-family="Helvetica,sans-Serif" font-size="10.00" fill="grey"> _display</text>
</g>
<!-- Node5&#45;&gt;Node5 -->
<g id="edge6_Node000005_Node000005" class="edge">
<title>Node5&#45;&gt;Node5</title>
<g id="a_edge6_Node000005_Node000005"><a xlink:title=" ">
<path fill="none" stroke="#9a32cd" stroke-dasharray="5,2" d="M281.15,-80.08C285.86,-79.08 288.77,-77.55 288.77,-75.5 288.77,-72.22 281.32,-70.28 270.99,-69.69"/>
<polygon fill="#9a32cd" stroke="#9a32cd" points="280.49,-76.63 270.99,-81.31 281.34,-83.58 280.49,-76.63"/>
</a>
</g>
<text text-anchor="middle" x="304.27" y="-73" font-family="Helvetica,sans-Serif" font-size="10.00" fill="grey"> _next</text>
</g>
</g>
</svg>
