<?xml version="1.0" encoding="UTF-8" standalone="no"?>
<!DOCTYPE svg PUBLIC "-//W3C//DTD SVG 1.1//EN"
 "http://www.w3.org/Graphics/SVG/1.1/DTD/svg11.dtd">
<!-- Generated by graphviz version 2.43.0 (0)
 -->
<!-- Title: TFT_eSPITouch::_displayCalibrationError Pages: 1 -->
<svg width="754pt" height="123pt"
 viewBox="0.00 0.00 754.00 123.00" xmlns="http://www.w3.org/2000/svg" xmlns:xlink="http://www.w3.org/1999/xlink">
<g id="graph0" class="graph" transform="scale(1 1) rotate(0) translate(4 119)">
<title>TFT_eSPITouch::_displayCalibrationError</title>
<polygon fill="white" stroke="transparent" points="-4,4 -4,-119 750,-119 750,4 -4,4"/>
<!-- Node1 -->
<g id="node1" class="node">
<title>Node1</title>
<g id="a_node1"><a xlink:title="Display calibration error on screen and pause for 5 seconds.">
<polygon fill="#bfbfbf" stroke="black" points="0,-52 0,-82 188,-82 188,-52 0,-52"/>
<text text-anchor="start" x="8" y="-70" font-family="Helvetica,sans-Serif" font-size="10.00">TFT_eSPITouch::_displayCalibration</text>
<text text-anchor="middle" x="94" y="-59" font-family="Helvetica,sans-Serif" font-size="10.00">Error</text>
</a>
</g>
</g>
<!-- Node2 -->
<g id="node2" class="node">
<title>Node2</title>
<g id="a_node2"><a xlink:href="classTFT__eSPIDisplay.html#af7bbb772e597d3431656ccd32d73bdf5" target="_top" xlink:title="Clear the entire screen.">
<polygon fill="white" stroke="black" points="224,-95.5 224,-114.5 383,-114.5 383,-95.5 224,-95.5"/>
<text text-anchor="middle" x="303.5" y="-102.5" font-family="Helvetica,sans-Serif" font-size="10.00">TFT_eSPIDisplay::clearScreen</text>
</a>
</g>
</g>
<!-- Node1&#45;&gt;Node2 -->
<g id="edge1" class="edge">
<title>Node1&#45;&gt;Node2</title>
<path fill="none" stroke="midnightblue" d="M177.01,-82.02C198.23,-85.91 220.73,-90.02 240.72,-93.69"/>
<polygon fill="midnightblue" stroke="midnightblue" points="240.15,-97.14 250.62,-95.5 241.41,-90.25 240.15,-97.14"/>
</g>
<!-- Node3 -->
<g id="node3" class="node">
<title>Node3</title>
<g id="a_node3"><a xlink:href="Arduino_8h.html#a6bc5f943544a887f8b23cadfb26a5e30" target="_top" xlink:title=" ">
<polygon fill="white" stroke="black" points="281.5,-57.5 281.5,-76.5 325.5,-76.5 325.5,-57.5 281.5,-57.5"/>
<text text-anchor="middle" x="303.5" y="-64.5" font-family="Helvetica,sans-Serif" font-size="10.00">delay</text>
</a>
</g>
</g>
<!-- Node1&#45;&gt;Node3 -->
<g id="edge2" class="edge">
<title>Node1&#45;&gt;Node3</title>
<path fill="none" stroke="midnightblue" d="M188.13,-67C217.94,-67 248.94,-67 271.13,-67"/>
<polygon fill="midnightblue" stroke="midnightblue" points="271.27,-70.5 281.27,-67 271.27,-63.5 271.27,-70.5"/>
</g>
<!-- Node4 -->
<g id="node4" class="node">
<title>Node4</title>
<g id="a_node4"><a xlink:href="classTFT__eSPIDisplay.html#a18b84c77677d72c6515d0cd45e9c65ae" target="_top" xlink:title="Display a row of text on the display.">
<polygon fill="white" stroke="black" points="224.5,-19.5 224.5,-38.5 382.5,-38.5 382.5,-19.5 224.5,-19.5"/>
<text text-anchor="middle" x="303.5" y="-26.5" font-family="Helvetica,sans-Serif" font-size="10.00">TFT_eSPIDisplay::displayRow</text>
</a>
</g>
</g>
<!-- Node1&#45;&gt;Node4 -->
<g id="edge3" class="edge">
<title>Node1&#45;&gt;Node4</title>
<path fill="none" stroke="midnightblue" d="M177.01,-51.98C198.23,-48.09 220.73,-43.98 240.72,-40.31"/>
<polygon fill="midnightblue" stroke="midnightblue" points="241.41,-43.75 250.62,-38.5 240.15,-36.86 241.41,-43.75"/>
</g>
<!-- Node5 -->
<g id="node5" class="node">
<title>Node5</title>
<g id="a_node5"><a xlink:href="classTFT__eSPIDisplay.html#afcbf3673396a684fd540bc75214719a3" target="_top" xlink:title="Get the X/Y coordinates to draw the specified row, starting at the specified column.">
<polygon fill="white" stroke="black" points="602,-14 602,-44 746,-44 746,-14 602,-14"/>
<text text-anchor="start" x="610" y="-32" font-family="Helvetica,sans-Serif" font-size="10.00">TFT_eSPIDisplay::_getRow</text>
<text text-anchor="middle" x="674" y="-21" font-family="Helvetica,sans-Serif" font-size="10.00">Position</text>
</a>
</g>
</g>
<!-- Node4&#45;&gt;Node5 -->
<g id="edge4" class="edge">
<title>Node4&#45;&gt;Node5</title>
<path fill="none" stroke="midnightblue" d="M382.65,-29C444.09,-29 529.4,-29 591.65,-29"/>
<polygon fill="midnightblue" stroke="midnightblue" points="591.83,-32.5 601.83,-29 591.83,-25.5 591.83,-32.5"/>
</g>
<!-- Node6 -->
<g id="node6" class="node">
<title>Node6</title>
<g id="a_node6"><a xlink:href="classTFT__eSPIDisplay.html#a0d8317643dddb535369abd48de8bdbda" target="_top" xlink:title="Clear the specified row.">
<polygon fill="white" stroke="black" points="419,-0.5 419,-19.5 566,-19.5 566,-0.5 419,-0.5"/>
<text text-anchor="middle" x="492.5" y="-7.5" font-family="Helvetica,sans-Serif" font-size="10.00">TFT_eSPIDisplay::clearRow</text>
</a>
</g>
</g>
<!-- Node4&#45;&gt;Node6 -->
<g id="edge5" class="edge">
<title>Node4&#45;&gt;Node6</title>
<path fill="none" stroke="midnightblue" d="M382.72,-21.05C391.35,-20.18 400.16,-19.28 408.85,-18.4"/>
<polygon fill="midnightblue" stroke="midnightblue" points="409.37,-21.86 418.97,-17.37 408.66,-14.9 409.37,-21.86"/>
</g>
<!-- Node6&#45;&gt;Node5 -->
<g id="edge6" class="edge">
<title>Node6&#45;&gt;Node5</title>
<path fill="none" stroke="midnightblue" d="M566.25,-17.7C574.7,-18.6 583.36,-19.51 591.92,-20.42"/>
<polygon fill="midnightblue" stroke="midnightblue" points="591.58,-23.9 601.89,-21.47 592.32,-16.94 591.58,-23.9"/>
</g>
</g>
</svg>
