<?xml version="1.0" encoding="UTF-8" standalone="no"?>
<!DOCTYPE svg PUBLIC "-//W3C//DTD SVG 1.1//EN"
 "http://www.w3.org/Graphics/SVG/1.1/DTD/svg11.dtd">
<!-- Generated by graphviz version 2.43.0 (0)
 -->
<!-- Title: Stream::clear Pages: 1 -->
<svg width="269pt" height="78pt"
 viewBox="0.00 0.00 269.00 77.50" xmlns="http://www.w3.org/2000/svg" xmlns:xlink="http://www.w3.org/1999/xlink">
<g id="graph0" class="graph" transform="scale(1 1) rotate(0) translate(4 73.5)">
<title>Stream::clear</title>
<polygon fill="white" stroke="transparent" points="-4,4 -4,-73.5 265,-73.5 265,4 -4,4"/>
<!-- Node1 -->
<g id="node1" class="node">
<title>Node1</title>
<g id="a_node1"><a xlink:title="Clear the buffer.">
<polygon fill="#bfbfbf" stroke="black" points="179,-22.5 179,-41.5 261,-41.5 261,-22.5 179,-22.5"/>
<text text-anchor="middle" x="220" y="-29.5" font-family="Helvetica,sans-Serif" font-size="10.00">Stream::clear</text>
</a>
</g>
</g>
<!-- Node2 -->
<g id="node2" class="node">
<title>Node2</title>
<g id="a_node2"><a xlink:href="classAtFinderLoggerIntegrationTests.html#ad4b780edabdbf2d905412419ef04ac77" target="_top" xlink:title=" ">
<polygon fill="white" stroke="black" points="0,-39 0,-69 143,-69 143,-39 0,-39"/>
<text text-anchor="start" x="8" y="-57" font-family="Helvetica,sans-Serif" font-size="10.00">AtFinderLoggerIntegration</text>
<text text-anchor="middle" x="71.5" y="-46" font-family="Helvetica,sans-Serif" font-size="10.00">Tests::SetUp</text>
</a>
</g>
</g>
<!-- Node1&#45;&gt;Node2 -->
<g id="edge1" class="edge">
<title>Node1&#45;&gt;Node2</title>
<path fill="none" stroke="midnightblue" d="M169.05,-39.5C160.72,-40.75 151.93,-42.07 143.19,-43.38"/>
<polygon fill="midnightblue" stroke="midnightblue" points="169.6,-42.96 178.97,-38.01 168.56,-36.04 169.6,-42.96"/>
</g>
<!-- Node3 -->
<g id="node3" class="node">
<title>Node3</title>
<g id="a_node3"><a xlink:href="classLoggerTests.html#ad6cbbc8a5d3d6b60bac72be26ea69b6f" target="_top" xlink:title=" ">
<polygon fill="white" stroke="black" points="16.5,-0.5 16.5,-19.5 126.5,-19.5 126.5,-0.5 16.5,-0.5"/>
<text text-anchor="middle" x="71.5" y="-7.5" font-family="Helvetica,sans-Serif" font-size="10.00">LoggerTests::SetUp</text>
</a>
</g>
</g>
<!-- Node1&#45;&gt;Node3 -->
<g id="edge2" class="edge">
<title>Node1&#45;&gt;Node3</title>
<path fill="none" stroke="midnightblue" d="M168.86,-24.47C155.29,-22.43 140.55,-20.22 126.76,-18.15"/>
<polygon fill="midnightblue" stroke="midnightblue" points="168.56,-27.96 178.97,-25.99 169.6,-21.04 168.56,-27.96"/>
</g>
</g>
</svg>
