<?xml version="1.0" encoding="UTF-8" standalone="no"?>
<!DOCTYPE svg PUBLIC "-//W3C//DTD SVG 1.1//EN"
 "http://www.w3.org/Graphics/SVG/1.1/DTD/svg11.dtd">
<!-- Generated by graphviz version 2.43.0 (0)
 -->
<!-- Title: TFT_eSPIDisplay::_getRowPosition Pages: 1 -->
<svg width="753pt" height="127pt"
 viewBox="0.00 0.00 753.00 127.00" xmlns="http://www.w3.org/2000/svg" xmlns:xlink="http://www.w3.org/1999/xlink">
<g id="graph0" class="graph" transform="scale(1 1) rotate(0) translate(4 123)">
<title>TFT_eSPIDisplay::_getRowPosition</title>
<polygon fill="white" stroke="transparent" points="-4,4 -4,-123 749,-123 749,4 -4,4"/>
<!-- Node1 -->
<g id="node1" class="node">
<title>Node1</title>
<g id="a_node1"><a xlink:title="Get the X/Y coordinates to draw the specified row, starting at the specified column.">
<polygon fill="#bfbfbf" stroke="black" points="601,-44.5 601,-74.5 745,-74.5 745,-44.5 601,-44.5"/>
<text text-anchor="start" x="609" y="-62.5" font-family="Helvetica,sans-Serif" font-size="10.00">TFT_eSPIDisplay::_getRow</text>
<text text-anchor="middle" x="673" y="-51.5" font-family="Helvetica,sans-Serif" font-size="10.00">Position</text>
</a>
</g>
</g>
<!-- Node2 -->
<g id="node2" class="node">
<title>Node2</title>
<g id="a_node2"><a xlink:href="classTFT__eSPIDisplay.html#a0d8317643dddb535369abd48de8bdbda" target="_top" xlink:title="Clear the specified row.">
<polygon fill="white" stroke="black" points="418,-88 418,-107 565,-107 565,-88 418,-88"/>
<text text-anchor="middle" x="491.5" y="-95" font-family="Helvetica,sans-Serif" font-size="10.00">TFT_eSPIDisplay::clearRow</text>
</a>
</g>
</g>
<!-- Node1&#45;&gt;Node2 -->
<g id="edge1" class="edge">
<title>Node1&#45;&gt;Node2</title>
<path fill="none" stroke="midnightblue" d="M591.16,-76.61C572.69,-80.52 553.7,-84.54 537.38,-88"/>
<polygon fill="midnightblue" stroke="midnightblue" points="592,-80.01 601.06,-74.52 590.55,-73.17 592,-80.01"/>
</g>
<!-- Node3 -->
<g id="node3" class="node">
<title>Node3</title>
<g id="a_node3"><a xlink:href="classTFT__eSPIDisplay.html#a18b84c77677d72c6515d0cd45e9c65ae" target="_top" xlink:title="Display a row of text on the display.">
<polygon fill="white" stroke="black" points="224,-69 224,-88 382,-88 382,-69 224,-69"/>
<text text-anchor="middle" x="303" y="-76" font-family="Helvetica,sans-Serif" font-size="10.00">TFT_eSPIDisplay::displayRow</text>
</a>
</g>
</g>
<!-- Node1&#45;&gt;Node3 -->
<g id="edge5" class="edge">
<title>Node1&#45;&gt;Node3</title>
<path fill="none" stroke="midnightblue" d="M590.46,-63.71C528.37,-66.92 443.44,-71.3 382.19,-74.46"/>
<polygon fill="midnightblue" stroke="midnightblue" points="590.8,-67.2 600.61,-63.19 590.44,-60.21 590.8,-67.2"/>
</g>
<!-- Node7 -->
<g id="node6" class="node">
<title>Node7</title>
<g id="a_node6"><a xlink:href="classTFT__eSPIDisplay.html#aa1f86437ebb95745bdf69be9142ef26b" target="_top" xlink:title="Display the startup screen with software version.">
<polygon fill="white" stroke="black" points="423,-0.5 423,-30.5 560,-30.5 560,-0.5 423,-0.5"/>
<text text-anchor="start" x="431" y="-18.5" font-family="Helvetica,sans-Serif" font-size="10.00">TFT_eSPIDisplay::display</text>
<text text-anchor="middle" x="491.5" y="-7.5" font-family="Helvetica,sans-Serif" font-size="10.00">StartupInfo</text>
</a>
</g>
</g>
<!-- Node1&#45;&gt;Node7 -->
<g id="edge6" class="edge">
<title>Node1&#45;&gt;Node7</title>
<path fill="none" stroke="midnightblue" d="M600.67,-42.01C585.16,-38.21 568.88,-34.22 553.8,-30.53"/>
<polygon fill="midnightblue" stroke="midnightblue" points="600.18,-45.5 610.73,-44.48 601.85,-38.7 600.18,-45.5"/>
</g>
<!-- Node2&#45;&gt;Node3 -->
<g id="edge2" class="edge">
<title>Node2&#45;&gt;Node3</title>
<path fill="none" stroke="midnightblue" d="M407.65,-89.06C399.23,-88.2 390.68,-87.33 382.3,-86.48"/>
<polygon fill="midnightblue" stroke="midnightblue" points="407.56,-92.57 417.86,-90.1 408.27,-85.6 407.56,-92.57"/>
</g>
<!-- Node4 -->
<g id="node4" class="node">
<title>Node4</title>
<g id="a_node4"><a xlink:href="classTFT__eSPITouch.html#ad71507c11a328924064e703daef05ada" target="_top" xlink:title="Display calibration error on screen and pause for 5 seconds.">
<polygon fill="white" stroke="red" points="0,-88.5 0,-118.5 188,-118.5 188,-88.5 0,-88.5"/>
<text text-anchor="start" x="8" y="-106.5" font-family="Helvetica,sans-Serif" font-size="10.00">TFT_eSPITouch::_displayCalibration</text>
<text text-anchor="middle" x="94" y="-95.5" font-family="Helvetica,sans-Serif" font-size="10.00">Error</text>
</a>
</g>
</g>
<!-- Node3&#45;&gt;Node4 -->
<g id="edge3" class="edge">
<title>Node3&#45;&gt;Node4</title>
<path fill="none" stroke="midnightblue" d="M213.62,-89.17C205.25,-90.18 196.75,-91.21 188.34,-92.23"/>
<polygon fill="midnightblue" stroke="midnightblue" points="214.23,-92.63 223.74,-87.95 213.39,-85.68 214.23,-92.63"/>
</g>
<!-- Node6 -->
<g id="node5" class="node">
<title>Node6</title>
<g id="a_node5"><a xlink:href="classTFT__eSPIDisplay.html#ac4c657d18bcd4dae193f5fd906411dcf" target="_top" xlink:title="Display the specified Screen on this display.">
<polygon fill="white" stroke="black" points="25.5,-39.5 25.5,-69.5 162.5,-69.5 162.5,-39.5 25.5,-39.5"/>
<text text-anchor="start" x="33.5" y="-57.5" font-family="Helvetica,sans-Serif" font-size="10.00">TFT_eSPIDisplay::display</text>
<text text-anchor="middle" x="94" y="-46.5" font-family="Helvetica,sans-Serif" font-size="10.00">Screen</text>
</a>
</g>
</g>
<!-- Node3&#45;&gt;Node6 -->
<g id="edge4" class="edge">
<title>Node3&#45;&gt;Node6</title>
<path fill="none" stroke="midnightblue" d="M213.73,-68.27C196.59,-66.28 178.87,-64.22 162.53,-62.33"/>
<polygon fill="midnightblue" stroke="midnightblue" points="213.41,-71.75 223.74,-69.43 214.21,-64.8 213.41,-71.75"/>
</g>
</g>
</svg>
