<?xml version="1.0" encoding="UTF-8" standalone="no"?>
<!DOCTYPE svg PUBLIC "-//W3C//DTD SVG 1.1//EN"
 "http://www.w3.org/Graphics/SVG/1.1/DTD/svg11.dtd">
<!-- Generated by graphviz version 2.43.0 (0)
 -->
<!-- Title: Controller::onInputAction Pages: 1 -->
<!--zoomable 369 -->
<svg id="main" version="1.1" xmlns="http://www.w3.org/2000/svg" xmlns:xlink="http://www.w3.org/1999/xlink" xml:space="preserve" onload="init(evt)">
<style type="text/css"><![CDATA[
.edge:hover path { stroke: red; }
.edge:hover polygon { stroke: red; fill: red; }
]]></style>
<script type="text/javascript"><![CDATA[
var edges = document.getElementsByTagName('g');
if (edges && edges.length) {
  for (var i=0;i<edges.length;i++) {
    if (edges[i].id.substr(0,4)=='edge') {
      edges[i].setAttribute('class','edge');
    }
  }
}
]]></script>
        <defs>
                <circle id="rim" cx="0" cy="0" r="7"/>
                <circle id="rim2" cx="0" cy="0" r="3.5"/>
                <g id="zoomPlus">
                        <use xlink:href="#rim" fill="#404040">
                                <set attributeName="fill" to="#808080" begin="zoomplus.mouseover" end="zoomplus.mouseout"/>
                        </use>
                        <path d="M-4,0h8M0,-4v8" fill="none" stroke="white" stroke-width="1.5" pointer-events="none"/>
                </g>
                <g id="zoomMin">
                        <use xlink:href="#rim" fill="#404040">
                                <set attributeName="fill" to="#808080" begin="zoomminus.mouseover" end="zoomminus.mouseout"/>
                        </use>
                        <path d="M-4,0h8" fill="none" stroke="white" stroke-width="1.5" pointer-events="none"/>
                </g>
                <g id="dirArrow">
                        <path fill="none" stroke="white" stroke-width="1.5" d="M0,-3.0v7 M-2.5,-0.5L0,-3.0L2.5,-0.5"/>
                </g>
               <g id="resetDef">
                       <use xlink:href="#rim2" fill="#404040">
                               <set attributeName="fill" to="#808080" begin="reset.mouseover" end="reset.mouseout"/>
                       </use>
               </g>
        </defs>

<script type="text/javascript">
var viewWidth = 893;
var viewHeight = 369;
var sectionId = 'dynsection-8';
</script>
<script xlink:href="svgpan.js"/>
<svg id="graph" class="graph">
<g id="viewport">
<title>Controller::onInputAction</title>
<polygon fill="white" stroke="transparent" points="-4,4 -4,-364.8 889,-364.8 889,4 -4,4"/>
<!-- Node1 -->
<g id="node1" class="node">
<title>Node1</title>
<g id="a_node1"><a xlink:title="Method to implement to respond to an input action.">
<polygon fill="#bfbfbf" stroke="black" points="0,-118.75 0,-137.75 138,-137.75 138,-118.75 0,-118.75"/>
<text text-anchor="middle" x="69" y="-125.75" font-family="Helvetica,sans-Serif" font-size="10.00">Controller::onInputAction</text>
</a>
</g>
</g>
<!-- Node2 -->
<g id="node2" class="node">
<title>Node2</title>
<g id="a_node2"><a xlink:href="classController.html#aa981e303ca83593ffb34db49c7d73cc6" target="_top" xlink:title="Selects the next screen for the selected display.">
<polygon fill="white" stroke="black" points="174,-200.75 174,-219.75 335,-219.75 335,-200.75 174,-200.75"/>
<text text-anchor="middle" x="254.5" y="-207.75" font-family="Helvetica,sans-Serif" font-size="10.00">Controller::_selectNextScreen</text>
</a>
</g>
</g>
<!-- Node1&#45;&gt;Node2 -->
<g id="edge1" class="edge">
<title>Node1&#45;&gt;Node2</title>
<path fill="none" stroke="midnightblue" d="M91.09,-137.85C112.08,-147.39 145.23,-162.42 174,-175.25 189.93,-182.36 207.69,-190.19 222.38,-196.64"/>
<polygon fill="midnightblue" stroke="midnightblue" points="220.98,-199.84 231.54,-200.65 223.79,-193.43 220.98,-199.84"/>
</g>
<!-- Node3 -->
<g id="node3" class="node">
<title>Node3</title>
<g id="a_node3"><a xlink:href="classScreenManager.html#a110a39ff303b98b6d308518a9d6da8ff" target="_top" xlink:title="Get the first Screen instance in the list.">
<polygon fill="white" stroke="black" points="372,-102.75 372,-121.75 540,-121.75 540,-102.75 372,-102.75"/>
<text text-anchor="middle" x="456" y="-109.75" font-family="Helvetica,sans-Serif" font-size="10.00">ScreenManager::getFirstScreen</text>
</a>
</g>
</g>
<!-- Node1&#45;&gt;Node3 -->
<g id="edge33" class="edge">
<title>Node1&#45;&gt;Node3</title>
<path fill="none" stroke="midnightblue" d="M138.39,-125.41C200.58,-122.82 292.92,-118.99 361.84,-116.12"/>
<polygon fill="midnightblue" stroke="midnightblue" points="361.99,-119.62 371.84,-115.71 361.7,-112.63 361.99,-119.62"/>
</g>
<!-- Node13 -->
<g id="node13" class="node">
<title>Node13</title>
<g id="a_node13"><a xlink:href="classController.html#a3e02f73e534a929849f981ec892b4f54" target="_top" xlink:title="Selects the previous screen for the selected display.">
<polygon fill="white" stroke="black" points="181,-135.25 181,-165.25 328,-165.25 328,-135.25 181,-135.25"/>
<text text-anchor="start" x="189" y="-153.25" font-family="Helvetica,sans-Serif" font-size="10.00">Controller::_selectPrevious</text>
<text text-anchor="middle" x="254.5" y="-142.25" font-family="Helvetica,sans-Serif" font-size="10.00">Screen</text>
</a>
</g>
</g>
<!-- Node1&#45;&gt;Node13 -->
<g id="edge19" class="edge">
<title>Node1&#45;&gt;Node13</title>
<path fill="none" stroke="midnightblue" d="M138.07,-136.41C148.77,-137.69 159.93,-139.03 170.91,-140.35"/>
<polygon fill="midnightblue" stroke="midnightblue" points="170.58,-143.84 180.93,-141.55 171.41,-136.88 170.58,-143.84"/>
</g>
<!-- Node15 -->
<g id="node15" class="node">
<title>Node15</title>
<g id="a_node15"><a xlink:href="classDisplayManager.html#a6ba13ae541760736e37f1f85477985a7" target="_top" xlink:title="Get the first DisplayInterface derived instance in the list of displays.">
<polygon fill="white" stroke="black" points="185,-47.25 185,-77.25 324,-77.25 324,-47.25 185,-47.25"/>
<text text-anchor="start" x="193" y="-65.25" font-family="Helvetica,sans-Serif" font-size="10.00">DisplayManager::getFirst</text>
<text text-anchor="middle" x="254.5" y="-54.25" font-family="Helvetica,sans-Serif" font-size="10.00">Display</text>
</a>
</g>
</g>
<!-- Node1&#45;&gt;Node15 -->
<g id="edge32" class="edge">
<title>Node1&#45;&gt;Node15</title>
<path fill="none" stroke="midnightblue" d="M96.68,-118.65C124.1,-108.79 167.47,-93.19 201.66,-80.9"/>
<polygon fill="midnightblue" stroke="midnightblue" points="203.27,-84.04 211.5,-77.36 200.9,-77.45 203.27,-84.04"/>
</g>
<!-- Node2&#45;&gt;Node3 -->
<g id="edge2" class="edge">
<title>Node2&#45;&gt;Node3</title>
<path fill="none" stroke="midnightblue" d="M286,-200.67C301.61,-194.85 320.35,-186.38 335,-175.25 355.12,-159.96 349.51,-144.54 371,-131.25 374.41,-129.14 378.02,-127.27 381.76,-125.6"/>
<polygon fill="midnightblue" stroke="midnightblue" points="383.25,-128.78 391.28,-121.87 380.69,-122.27 383.25,-128.78"/>
</g>
<!-- Node4 -->
<g id="node4" class="node">
<title>Node4</title>
<g id="a_node4"><a xlink:href="classDisplayInterface.html#a3649a768b8ca59c3070f56aed1fe42c2" target="_top" xlink:title="Get the ID of this display instance.">
<polygon fill="white" stroke="black" points="392,-178.75 392,-197.75 520,-197.75 520,-178.75 392,-178.75"/>
<text text-anchor="middle" x="456" y="-185.75" font-family="Helvetica,sans-Serif" font-size="10.00">DisplayInterface::getId</text>
</a>
</g>
</g>
<!-- Node2&#45;&gt;Node4 -->
<g id="edge3" class="edge">
<title>Node2&#45;&gt;Node4</title>
<path fill="none" stroke="midnightblue" d="M335.21,-201.46C350.55,-199.77 366.56,-198 381.68,-196.34"/>
<polygon fill="midnightblue" stroke="midnightblue" points="382.44,-199.77 392,-195.2 381.68,-192.82 382.44,-199.77"/>
</g>
<!-- Node5 -->
<g id="node5" class="node">
<title>Node5</title>
<g id="a_node5"><a xlink:href="classScreen.html#ad70000886e796b4444e3cdf5e38f6169" target="_top" xlink:title="Get the ID for this screen instance.">
<polygon fill="white" stroke="black" points="797.5,-231.75 797.5,-250.75 877.5,-250.75 877.5,-231.75 797.5,-231.75"/>
<text text-anchor="middle" x="837.5" y="-238.75" font-family="Helvetica,sans-Serif" font-size="10.00">Screen::getId</text>
</a>
</g>
</g>
<!-- Node2&#45;&gt;Node5 -->
<g id="edge4" class="edge">
<title>Node2&#45;&gt;Node5</title>
<path fill="none" stroke="midnightblue" d="M261.57,-219.84C276.69,-242.72 318.63,-300.17 371,-321.25 529.06,-384.89 594.89,-365.22 754,-304.25 780.08,-294.26 804.82,-273.27 820.28,-258.27"/>
<polygon fill="midnightblue" stroke="midnightblue" points="822.89,-260.61 827.48,-251.06 817.94,-255.66 822.89,-260.61"/>
</g>
<!-- Node6 -->
<g id="node6" class="node">
<title>Node6</title>
<g id="a_node6"><a xlink:href="classScreenManager.html#a38890def1478514514341039b83299ef" target="_top" xlink:title="Get the next screen in the list (sorted by ID)">
<polygon fill="white" stroke="black" points="371,-292.75 371,-311.75 541,-311.75 541,-292.75 371,-292.75"/>
<text text-anchor="middle" x="456" y="-299.75" font-family="Helvetica,sans-Serif" font-size="10.00">ScreenManager::getNextScreen</text>
</a>
</g>
</g>
<!-- Node2&#45;&gt;Node6 -->
<g id="edge5" class="edge">
<title>Node2&#45;&gt;Node6</title>
<path fill="none" stroke="midnightblue" d="M269.12,-219.83C290.12,-234.23 332.08,-261.56 371,-278.25 381.35,-282.69 392.77,-286.58 403.76,-289.85"/>
<polygon fill="midnightblue" stroke="midnightblue" points="403.11,-293.31 413.69,-292.69 405.03,-286.58 403.11,-293.31"/>
</g>
<!-- Node10 -->
<g id="node10" class="node">
<title>Node10</title>
<g id="a_node10"><a xlink:href="classScreenManager.html#a0cc1c81b131b3441fd808299c63b409b" target="_top" xlink:title="Get the Screen with the specified ID.">
<polygon fill="white" stroke="black" points="581,-98.75 581,-117.75 750,-117.75 750,-98.75 581,-98.75"/>
<text text-anchor="middle" x="665.5" y="-105.75" font-family="Helvetica,sans-Serif" font-size="10.00">ScreenManager::getScreenById</text>
</a>
</g>
</g>
<!-- Node2&#45;&gt;Node10 -->
<g id="edge16" class="edge">
<title>Node2&#45;&gt;Node10</title>
<path fill="none" stroke="midnightblue" d="M272.66,-219.76C320.42,-244.84 456.94,-306.69 541,-245.25 583.55,-214.15 538.98,-168.76 577,-132.25 581.12,-128.3 585.83,-124.98 590.87,-122.2"/>
<polygon fill="midnightblue" stroke="midnightblue" points="592.72,-125.2 600.27,-117.76 589.73,-118.87 592.72,-125.2"/>
</g>
<!-- Node11 -->
<g id="node11" class="node">
<title>Node11</title>
<g id="a_node11"><a xlink:href="classDisplayInterface.html#a080200cc5dfe54b0d05fde5a4cb041fc" target="_top" xlink:title="Get the Screen ID this display is currently displaing.">
<polygon fill="white" stroke="black" points="375.5,-140.75 375.5,-159.75 536.5,-159.75 536.5,-140.75 375.5,-140.75"/>
<text text-anchor="middle" x="456" y="-147.75" font-family="Helvetica,sans-Serif" font-size="10.00">DisplayInterface::getScreenId</text>
</a>
</g>
</g>
<!-- Node2&#45;&gt;Node11 -->
<g id="edge17" class="edge">
<title>Node2&#45;&gt;Node11</title>
<path fill="none" stroke="midnightblue" d="M280.01,-200.6C303.2,-191.69 339.12,-178.48 371,-169.25 379.75,-166.72 389.1,-164.31 398.26,-162.12"/>
<polygon fill="midnightblue" stroke="midnightblue" points="399.15,-165.51 408.1,-159.83 397.56,-158.69 399.15,-165.51"/>
</g>
<!-- Node12 -->
<g id="node12" class="node">
<title>Node12</title>
<g id="a_node12"><a xlink:href="classDisplayInterface.html#a10b7691f495e4044e71e12caf6985d9a" target="_top" xlink:title="Set the Screen ID this display is currently displaying.">
<polygon fill="white" stroke="black" points="376,-216.75 376,-235.75 536,-235.75 536,-216.75 376,-216.75"/>
<text text-anchor="middle" x="456" y="-223.75" font-family="Helvetica,sans-Serif" font-size="10.00">DisplayInterface::setScreenId</text>
</a>
</g>
</g>
<!-- Node2&#45;&gt;Node12 -->
<g id="edge18" class="edge">
<title>Node2&#45;&gt;Node12</title>
<path fill="none" stroke="midnightblue" d="M335.21,-216.64C345.22,-217.45 355.51,-218.27 365.66,-219.09"/>
<polygon fill="midnightblue" stroke="midnightblue" points="365.5,-222.58 375.74,-219.9 366.06,-215.61 365.5,-222.58"/>
</g>
<!-- Node6&#45;&gt;Node5 -->
<g id="edge6" class="edge">
<title>Node6&#45;&gt;Node5</title>
<path fill="none" stroke="midnightblue" d="M541.19,-303.6C601.38,-302.67 683.8,-297.51 754,-279.25 774.1,-274.02 795.34,-264.12 811.24,-255.74"/>
<polygon fill="midnightblue" stroke="midnightblue" points="813.28,-258.61 820.39,-250.77 809.94,-252.46 813.28,-258.61"/>
</g>
<!-- Node7 -->
<g id="node7" class="node">
<title>Node7</title>
<g id="a_node7"><a xlink:href="classScreenManager.html#a6cc01abb59037b653ca45f130c83c9b3" target="_top" xlink:title="Get the highest Screen ID in the list.">
<polygon fill="white" stroke="black" points="577,-250.75 577,-269.75 754,-269.75 754,-250.75 577,-250.75"/>
<text text-anchor="middle" x="665.5" y="-257.75" font-family="Helvetica,sans-Serif" font-size="10.00">ScreenManager::getMaxScreenId</text>
</a>
</g>
</g>
<!-- Node6&#45;&gt;Node7 -->
<g id="edge7" class="edge">
<title>Node6&#45;&gt;Node7</title>
<path fill="none" stroke="midnightblue" d="M504.08,-292.72C534.75,-286.51 574.95,-278.38 607.43,-271.8"/>
<polygon fill="midnightblue" stroke="midnightblue" points="608.14,-275.23 617.24,-269.82 606.75,-268.37 608.14,-275.23"/>
</g>
<!-- Node8 -->
<g id="node8" class="node">
<title>Node8</title>
<g id="a_node8"><a xlink:href="classScreen.html#af743df653d024c7571e596772009216d" target="_top" xlink:title="Get the next Screen instance in the list.">
<polygon fill="white" stroke="black" points="790,-136.75 790,-155.75 885,-155.75 885,-136.75 790,-136.75"/>
<text text-anchor="middle" x="837.5" y="-143.75" font-family="Helvetica,sans-Serif" font-size="10.00">Screen::getNext</text>
</a>
</g>
</g>
<!-- Node6&#45;&gt;Node8 -->
<g id="edge13" class="edge">
<title>Node6&#45;&gt;Node8</title>
<path fill="none" stroke="midnightblue" d="M506.59,-292.71C519.13,-288.26 531.67,-281.75 541,-272.25 576.15,-236.45 537.35,-196 577,-165.25 636.94,-118.76 729.89,-125.09 786.77,-134.94"/>
<polygon fill="midnightblue" stroke="midnightblue" points="786.14,-138.38 796.6,-136.74 787.4,-131.5 786.14,-138.38"/>
</g>
<!-- Node9 -->
<g id="node9" class="node">
<title>Node9</title>
<g id="a_node9"><a xlink:href="classScreenManager.html#acd4f0a92975819547a21bfc7d6320f6d" target="_top" xlink:title="Get the lowest Screen ID in the list.">
<polygon fill="white" stroke="black" points="578.5,-174.75 578.5,-193.75 752.5,-193.75 752.5,-174.75 578.5,-174.75"/>
<text text-anchor="middle" x="665.5" y="-181.75" font-family="Helvetica,sans-Serif" font-size="10.00">ScreenManager::getMinScreenId</text>
</a>
</g>
</g>
<!-- Node6&#45;&gt;Node9 -->
<g id="edge10" class="edge">
<title>Node6&#45;&gt;Node9</title>
<path fill="none" stroke="midnightblue" d="M506.75,-292.64C518.48,-289.15 530.58,-284.48 541,-278.25 560.69,-266.48 559.28,-255.82 577,-241.25 596.44,-225.27 620.52,-209.86 638.5,-199.1"/>
<polygon fill="midnightblue" stroke="midnightblue" points="640.45,-202.02 647.28,-193.92 636.89,-195.98 640.45,-202.02"/>
</g>
<!-- Node6&#45;&gt;Node10 -->
<g id="edge14" class="edge">
<title>Node6&#45;&gt;Node10</title>
<path fill="none" stroke="midnightblue" d="M519.48,-292.57C527.51,-289.12 535,-284.48 541,-278.25 587.39,-230.14 530.36,-180.12 577,-132.25 580.68,-128.47 584.9,-125.27 589.45,-122.56"/>
<polygon fill="midnightblue" stroke="midnightblue" points="591.23,-125.58 598.56,-117.93 588.06,-119.34 591.23,-125.58"/>
</g>
<!-- Node7&#45;&gt;Node5 -->
<g id="edge8" class="edge">
<title>Node7&#45;&gt;Node5</title>
<path fill="none" stroke="midnightblue" d="M752,-250.7C764.03,-249.35 776.05,-248.01 787.08,-246.77"/>
<polygon fill="midnightblue" stroke="midnightblue" points="787.79,-250.22 797.34,-245.63 787.01,-243.26 787.79,-250.22"/>
</g>
<!-- Node7&#45;&gt;Node8 -->
<g id="edge9" class="edge">
<title>Node7&#45;&gt;Node8</title>
<path fill="none" stroke="midnightblue" d="M681.44,-250.69C698.93,-239.47 728.71,-220.22 754,-203.25 774.61,-189.42 797.86,-173.31 814.41,-161.76"/>
<polygon fill="midnightblue" stroke="midnightblue" points="816.67,-164.45 822.86,-155.85 812.66,-158.71 816.67,-164.45"/>
</g>
<!-- Node9&#45;&gt;Node5 -->
<g id="edge11" class="edge">
<title>Node9&#45;&gt;Node5</title>
<path fill="none" stroke="midnightblue" d="M705.12,-193.84C720.45,-197.91 738.17,-202.93 754,-208.25 771.15,-214.01 789.91,-221.42 805.2,-227.76"/>
<polygon fill="midnightblue" stroke="midnightblue" points="804.12,-231.1 814.69,-231.74 806.82,-224.65 804.12,-231.1"/>
</g>
<!-- Node9&#45;&gt;Node8 -->
<g id="edge12" class="edge">
<title>Node9&#45;&gt;Node8</title>
<path fill="none" stroke="midnightblue" d="M709.4,-174.66C732.03,-169.6 760,-163.35 783.93,-158"/>
<polygon fill="midnightblue" stroke="midnightblue" points="784.91,-161.37 793.91,-155.77 783.39,-154.54 784.91,-161.37"/>
</g>
<!-- Node10&#45;&gt;Node8 -->
<g id="edge15" class="edge">
<title>Node10&#45;&gt;Node8</title>
<path fill="none" stroke="midnightblue" d="M709.4,-117.84C732.03,-122.9 760,-129.15 783.93,-134.5"/>
<polygon fill="midnightblue" stroke="midnightblue" points="783.39,-137.97 793.91,-136.73 784.91,-131.13 783.39,-137.97"/>
</g>
<!-- Node13&#45;&gt;Node3 -->
<g id="edge20" class="edge">
<title>Node13&#45;&gt;Node3</title>
<path fill="none" stroke="midnightblue" d="M328.09,-136.43C350.01,-132.25 373.83,-127.71 394.85,-123.71"/>
<polygon fill="midnightblue" stroke="midnightblue" points="395.76,-127.1 404.93,-121.79 394.45,-120.22 395.76,-127.1"/>
</g>
<!-- Node13&#45;&gt;Node4 -->
<g id="edge21" class="edge">
<title>Node13&#45;&gt;Node4</title>
<path fill="none" stroke="midnightblue" d="M328.09,-164.08C350.01,-168.25 373.83,-172.79 394.85,-176.79"/>
<polygon fill="midnightblue" stroke="midnightblue" points="394.45,-180.28 404.93,-178.71 395.76,-173.4 394.45,-180.28"/>
</g>
<!-- Node13&#45;&gt;Node5 -->
<g id="edge22" class="edge">
<title>Node13&#45;&gt;Node5</title>
<path fill="none" stroke="midnightblue" d="M279.57,-135.06C296.56,-123.47 319.06,-106.29 335,-87.25 356.7,-61.33 341.99,-37.6 371,-20.25 435.85,18.52 466.37,-8.46 541,-20.25 639.29,-35.77 679.24,-23.57 754,-89.25 782.08,-113.92 772.22,-132.37 790,-165.25 800.97,-185.53 814.93,-207.96 824.68,-223.16"/>
<polygon fill="midnightblue" stroke="midnightblue" points="821.77,-225.11 830.14,-231.61 827.65,-221.31 821.77,-225.11"/>
</g>
<!-- Node13&#45;&gt;Node10 -->
<g id="edge29" class="edge">
<title>Node13&#45;&gt;Node10</title>
<path fill="none" stroke="midnightblue" d="M277.11,-135.09C293.72,-123 316.8,-105.17 335,-87.25 353.01,-69.52 348.17,-54.07 371,-43.25 439.28,-10.9 467.65,-25.13 541,-43.25 579.59,-52.79 619.43,-76.79 643.08,-92.81"/>
<polygon fill="midnightblue" stroke="midnightblue" points="641.1,-95.69 651.31,-98.51 645.08,-89.94 641.1,-95.69"/>
</g>
<!-- Node13&#45;&gt;Node11 -->
<g id="edge30" class="edge">
<title>Node13&#45;&gt;Node11</title>
<path fill="none" stroke="midnightblue" d="M328.09,-150.25C340.1,-150.25 352.68,-150.25 365.06,-150.25"/>
<polygon fill="midnightblue" stroke="midnightblue" points="365.39,-153.75 375.39,-150.25 365.39,-146.75 365.39,-153.75"/>
</g>
<!-- Node13&#45;&gt;Node12 -->
<g id="edge31" class="edge">
<title>Node13&#45;&gt;Node12</title>
<path fill="none" stroke="midnightblue" d="M284.14,-165.35C312.47,-180.12 353.98,-201.22 371,-207.25 378.33,-209.85 386.16,-212.18 393.96,-214.23"/>
<polygon fill="midnightblue" stroke="midnightblue" points="393.26,-217.67 403.81,-216.7 394.96,-210.88 393.26,-217.67"/>
</g>
<!-- Node14 -->
<g id="node14" class="node">
<title>Node14</title>
<g id="a_node14"><a xlink:href="classScreenManager.html#a64ecbfb9232d4051a75ff5abea58ba6d" target="_top" xlink:title="Get the previous screen in the list (sorted by ID)">
<polygon fill="white" stroke="black" points="378,-53.25 378,-83.25 534,-83.25 534,-53.25 378,-53.25"/>
<text text-anchor="start" x="386" y="-71.25" font-family="Helvetica,sans-Serif" font-size="10.00">ScreenManager::getPrevious</text>
<text text-anchor="middle" x="456" y="-60.25" font-family="Helvetica,sans-Serif" font-size="10.00">Screen</text>
</a>
</g>
</g>
<!-- Node13&#45;&gt;Node14 -->
<g id="edge23" class="edge">
<title>Node13&#45;&gt;Node14</title>
<path fill="none" stroke="midnightblue" d="M282.91,-135.08C305.95,-122.73 339.98,-105.42 371,-93.25 376.95,-90.92 383.21,-88.68 389.51,-86.56"/>
<polygon fill="midnightblue" stroke="midnightblue" points="390.99,-89.76 399.42,-83.34 388.83,-83.1 390.99,-89.76"/>
</g>
<!-- Node14&#45;&gt;Node5 -->
<g id="edge24" class="edge">
<title>Node14&#45;&gt;Node5</title>
<path fill="none" stroke="midnightblue" d="M527.79,-83.44C532.59,-86.19 537.07,-89.43 541,-93.25 577.86,-129.13 537.65,-170.11 577,-203.25 607.95,-229.32 721.02,-237.51 787.25,-240.08"/>
<polygon fill="midnightblue" stroke="midnightblue" points="787.34,-243.58 797.46,-240.44 787.59,-236.59 787.34,-243.58"/>
</g>
<!-- Node14&#45;&gt;Node7 -->
<g id="edge25" class="edge">
<title>Node14&#45;&gt;Node7</title>
<path fill="none" stroke="midnightblue" d="M528.48,-83.38C533.07,-86.15 537.32,-89.41 541,-93.25 586.34,-140.57 531.15,-189.42 577,-236.25 580.76,-240.09 585.07,-243.34 589.72,-246.07"/>
<polygon fill="midnightblue" stroke="midnightblue" points="588.52,-249.38 599.03,-250.74 591.66,-243.13 588.52,-249.38"/>
</g>
<!-- Node14&#45;&gt;Node8 -->
<g id="edge27" class="edge">
<title>Node14&#45;&gt;Node8</title>
<path fill="none" stroke="midnightblue" d="M534.31,-62.72C595.61,-60.92 682.55,-64.17 754,-89.25 778.67,-97.91 802.79,-116.03 818.51,-129.53"/>
<polygon fill="midnightblue" stroke="midnightblue" points="816.53,-132.45 826.33,-136.46 821.17,-127.21 816.53,-132.45"/>
</g>
<!-- Node14&#45;&gt;Node9 -->
<g id="edge26" class="edge">
<title>Node14&#45;&gt;Node9</title>
<path fill="none" stroke="midnightblue" d="M519.84,-83.38C527.19,-86.18 534.41,-89.45 541,-93.25 560.07,-104.24 559.71,-113.63 577,-127.25 596.89,-142.92 621.12,-158.45 639.03,-169.34"/>
<polygon fill="midnightblue" stroke="midnightblue" points="637.4,-172.44 647.77,-174.59 641,-166.44 637.4,-172.44"/>
</g>
<!-- Node14&#45;&gt;Node10 -->
<g id="edge28" class="edge">
<title>Node14&#45;&gt;Node10</title>
<path fill="none" stroke="midnightblue" d="M534.27,-83.15C557.75,-87.67 583.17,-92.57 605.27,-96.83"/>
<polygon fill="midnightblue" stroke="midnightblue" points="604.68,-100.28 615.17,-98.74 606.01,-93.41 604.68,-100.28"/>
</g>
</g>
</svg>
        <g id="navigator" transform="translate(0 0)" fill="#404254">
                <rect fill="#f2f5e9" fill-opacity="0.5" stroke="#606060" stroke-width=".5" x="0" y="0" width="60" height="60"/>
                <use id="zoomplus" xlink:href="#zoomPlus" x="17" y="9" onmousedown="handleZoom(evt,'in')"/>
                <use id="zoomminus" xlink:href="#zoomMin" x="42" y="9" onmousedown="handleZoom(evt,'out')"/>
                <use id="reset" xlink:href="#resetDef" x="30" y="36" onmousedown="handleReset()"/>
                <g id="arrowUp" xlink:href="#dirArrow" transform="translate(30 24)" onmousedown="handlePan(0,-1)">
                  <use xlink:href="#rim" fill="#404040">
                        <set attributeName="fill" to="#808080" begin="arrowUp.mouseover" end="arrowUp.mouseout"/>
                  </use>
                  <path fill="none" stroke="white" stroke-width="1.5" d="M0,-3.0v7 M-2.5,-0.5L0,-3.0L2.5,-0.5"/>
                </g>
                <g id="arrowRight" xlink:href="#dirArrow" transform="rotate(90) translate(36 -43)" onmousedown="handlePan(1,0)">
                  <use xlink:href="#rim" fill="#404040">
                        <set attributeName="fill" to="#808080" begin="arrowRight.mouseover" end="arrowRight.mouseout"/>
                  </use>
                  <path fill="none" stroke="white" stroke-width="1.5" d="M0,-3.0v7 M-2.5,-0.5L0,-3.0L2.5,-0.5"/>
                </g>
                <g id="arrowDown" xlink:href="#dirArrow" transform="rotate(180) translate(-30 -48)" onmousedown="handlePan(0,1)">
                  <use xlink:href="#rim" fill="#404040">
                        <set attributeName="fill" to="#808080" begin="arrowDown.mouseover" end="arrowDown.mouseout"/>
                  </use>
                  <path fill="none" stroke="white" stroke-width="1.5" d="M0,-3.0v7 M-2.5,-0.5L0,-3.0L2.5,-0.5"/>
                </g>
                <g id="arrowLeft" xlink:href="#dirArrow" transform="rotate(270) translate(-36 17)" onmousedown="handlePan(-1,0)">
                  <use xlink:href="#rim" fill="#404040">
                        <set attributeName="fill" to="#808080" begin="arrowLeft.mouseover" end="arrowLeft.mouseout"/>
                  </use>
                  <path fill="none" stroke="white" stroke-width="1.5" d="M0,-3.0v7 M-2.5,-0.5L0,-3.0L2.5,-0.5"/>
                </g>
        </g>
        <svg viewBox="0 0 15 15" width="100%" height="30px" preserveAspectRatio="xMaxYMin meet">
         <g id="arrow_out" transform="scale(0.3 0.3)">
          <a xlink:href="classController_af9c9f10320fb7770553156da4d164e64_cgraph_org.svg" target="_base">
           <rect id="button" ry="5" rx="5" y="6" x="6" height="38" width="38"
                fill="#f2f5e9" fill-opacity="0.5" stroke="#606060" stroke-width="1.0"/>
           <path id="arrow"
             d="M 11.500037,31.436501 C 11.940474,20.09759 22.043105,11.32322 32.158766,21.979434 L 37.068811,17.246167 C 37.068811,17.246167 37.088388,32 37.088388,32 L 22.160133,31.978069 C 22.160133,31.978069 26.997745,27.140456 26.997745,27.140456 C 18.528582,18.264221 13.291696,25.230495 11.500037,31.436501 z"
             style="fill:#404040;"/>
          </a>
         </g>
        </svg>
</svg>
