<?xml version="1.0" encoding="UTF-8" standalone="no"?>
<!DOCTYPE svg PUBLIC "-//W3C//DTD SVG 1.1//EN"
 "http://www.w3.org/Graphics/SVG/1.1/DTD/svg11.dtd">
<!-- Generated by graphviz version 2.43.0 (0)
 -->
<!-- Title: DebounceHoldInputTests Pages: 1 -->
<svg width="396pt" height="305pt"
 viewBox="0.00 0.00 395.50 305.00" xmlns="http://www.w3.org/2000/svg" xmlns:xlink="http://www.w3.org/1999/xlink">
<g id="graph0" class="graph" transform="scale(1 1) rotate(0) translate(4 301)">
<title>DebounceHoldInputTests</title>
<polygon fill="white" stroke="transparent" points="-4,4 -4,-301 391.5,-301 391.5,4 -4,4"/>
<!-- Node1 -->
<g id="node1" class="node">
<title>Node1</title>
<g id="a_node1"><a xlink:title="Test harness for inputs utilising debounce and hold options.">
<polygon fill="#bfbfbf" stroke="black" points="3.5,-0.5 3.5,-19.5 140.5,-19.5 140.5,-0.5 3.5,-0.5"/>
<text text-anchor="middle" x="72" y="-7.5" font-family="Helvetica,sans-Serif" font-size="10.00">DebounceHoldInputTests</text>
</a>
</g>
</g>
<!-- Node2 -->
<g id="node2" class="node">
<title>Node2</title>
<g id="a_node2"><a xlink:title=" ">
<polygon fill="white" stroke="#bfbfbf" points="0,-67.5 0,-86.5 36,-86.5 36,-67.5 0,-67.5"/>
<text text-anchor="middle" x="18" y="-74.5" font-family="Helvetica,sans-Serif" font-size="10.00">Test</text>
</a>
</g>
</g>
<!-- Node2&#45;&gt;Node1 -->
<g id="edge1" class="edge">
<title>Node2&#45;&gt;Node1</title>
<path fill="none" stroke="midnightblue" d="M31.9,-59.27C42.43,-46.6 56.46,-29.7 64.83,-19.63"/>
<polygon fill="midnightblue" stroke="midnightblue" points="28.98,-57.31 25.28,-67.23 34.37,-61.78 28.98,-57.31"/>
</g>
<!-- Node3 -->
<g id="node3" class="node">
<title>Node3</title>
<g id="a_node3"><a xlink:href="classMockCallback.html" target="_top" xlink:title="Mock class to test callbacks.">
<polygon fill="white" stroke="black" points="33.5,-105.5 33.5,-124.5 118.5,-124.5 118.5,-105.5 33.5,-105.5"/>
<text text-anchor="middle" x="76" y="-112.5" font-family="Helvetica,sans-Serif" font-size="10.00">MockCallback</text>
</a>
</g>
</g>
<!-- Node3&#45;&gt;Node1 -->
<g id="edge2" class="edge">
<title>Node3&#45;&gt;Node1</title>
<path fill="none" stroke="#9a32cd" stroke-dasharray="5,2" d="M75.26,-94.94C74.39,-72.53 72.98,-36.31 72.34,-19.76"/>
<polygon fill="#9a32cd" stroke="#9a32cd" points="71.77,-95.36 75.66,-105.22 78.77,-95.09 71.77,-95.36"/>
<text text-anchor="middle" x="97" y="-74.5" font-family="Helvetica,sans-Serif" font-size="10.00"> callback</text>
</g>
<!-- Node4 -->
<g id="node4" class="node">
<title>Node4</title>
<g id="a_node4"><a xlink:href="classCallbackInterface.html" target="_top" xlink:title="Interface class to use for callbacks.">
<polygon fill="white" stroke="black" points="45,-210.5 45,-229.5 147,-229.5 147,-210.5 45,-210.5"/>
<text text-anchor="middle" x="96" y="-217.5" font-family="Helvetica,sans-Serif" font-size="10.00">CallbackInterface</text>
</a>
</g>
</g>
<!-- Node4&#45;&gt;Node3 -->
<g id="edge3" class="edge">
<title>Node4&#45;&gt;Node3</title>
<path fill="none" stroke="midnightblue" d="M92.36,-200.25C88.01,-177.87 80.93,-141.39 77.7,-124.76"/>
<polygon fill="midnightblue" stroke="midnightblue" points="88.95,-201.07 94.29,-210.22 95.82,-199.73 88.95,-201.07"/>
</g>
<!-- Node8 -->
<g id="node7" class="node">
<title>Node8</title>
<g id="a_node7"><a xlink:href="classInputInterface.html" target="_top" xlink:title="Class to abstract away all physical input implementatio to enable multiple input types Default return...">
<polygon fill="white" stroke="black" points="140.5,-143.5 140.5,-162.5 225.5,-162.5 225.5,-143.5 140.5,-143.5"/>
<text text-anchor="middle" x="183" y="-150.5" font-family="Helvetica,sans-Serif" font-size="10.00">InputInterface</text>
</a>
</g>
</g>
<!-- Node4&#45;&gt;Node8 -->
<g id="edge7" class="edge">
<title>Node4&#45;&gt;Node8</title>
<path fill="none" stroke="#9a32cd" stroke-dasharray="5,2" d="M104.14,-201.45C108.12,-194.37 113.47,-186.57 120,-181 129.6,-172.81 142.05,-166.78 153.34,-162.52"/>
<polygon fill="#9a32cd" stroke="#9a32cd" points="101.01,-199.9 99.59,-210.39 107.25,-203.07 101.01,-199.9"/>
<text text-anchor="middle" x="144.5" y="-184" font-family="Helvetica,sans-Serif" font-size="10.00"> _callback</text>
</g>
<!-- Node5 -->
<g id="node5" class="node">
<title>Node5</title>
<g id="a_node5"><a xlink:href="classLogger.html" target="_top" xlink:title="Class to enable simple logging to a Stream object with different log levels This enables embedding pe...">
<polygon fill="white" stroke="red" points="158,-277.5 158,-296.5 208,-296.5 208,-277.5 158,-277.5"/>
<text text-anchor="middle" x="183" y="-284.5" font-family="Helvetica,sans-Serif" font-size="10.00">Logger</text>
</a>
</g>
</g>
<!-- Node5&#45;&gt;Node4 -->
<g id="edge4" class="edge">
<title>Node5&#45;&gt;Node4</title>
<path fill="none" stroke="#9a32cd" stroke-dasharray="5,2" d="M151.82,-273C144,-269.06 135.89,-264.34 129,-259 118.09,-250.54 108.08,-238.05 102.01,-229.72"/>
<polygon fill="#9a32cd" stroke="#9a32cd" points="150.56,-276.28 161.1,-277.41 153.57,-269.96 150.56,-276.28"/>
<text text-anchor="middle" x="149" y="-251" font-family="Helvetica,sans-Serif" font-size="10.00"> _logger</text>
</g>
<!-- Node5&#45;&gt;Node8 -->
<g id="edge8" class="edge">
<title>Node5&#45;&gt;Node8</title>
<path fill="none" stroke="#9a32cd" stroke-dasharray="5,2" d="M183,-267.28C183,-238.25 183,-183.54 183,-162.52"/>
<polygon fill="#9a32cd" stroke="#9a32cd" points="179.5,-267.34 183,-277.34 186.5,-267.34 179.5,-267.34"/>
<text text-anchor="middle" x="203" y="-217.5" font-family="Helvetica,sans-Serif" font-size="10.00"> _logger</text>
</g>
<!-- Node9 -->
<g id="node8" class="node">
<title>Node9</title>
<g id="a_node8"><a xlink:href="classDisplayInterface.html" target="_top" xlink:title="Class to abstract away all physical display implementation to enable multiple display types.">
<polygon fill="white" stroke="black" points="241.5,-210.5 241.5,-229.5 338.5,-229.5 338.5,-210.5 241.5,-210.5"/>
<text text-anchor="middle" x="290" y="-217.5" font-family="Helvetica,sans-Serif" font-size="10.00">DisplayInterface</text>
</a>
</g>
</g>
<!-- Node5&#45;&gt;Node9 -->
<g id="edge10" class="edge">
<title>Node5&#45;&gt;Node9</title>
<path fill="none" stroke="#9a32cd" stroke-dasharray="5,2" d="M206.14,-271.94C227.33,-259.07 258.02,-240.43 275.8,-229.63"/>
<polygon fill="#9a32cd" stroke="#9a32cd" points="204.16,-269.05 197.43,-277.23 207.79,-275.03 204.16,-269.05"/>
<text text-anchor="middle" x="262" y="-251" font-family="Helvetica,sans-Serif" font-size="10.00"> _logger</text>
</g>
<!-- Node7 -->
<g id="node6" class="node">
<title>Node7</title>
<g id="a_node6"><a xlink:href="classMockButtonInput.html" target="_top" xlink:title="Mock button input class using debounce and hold methods Use setRawAction() to simulate what a button ...">
<polygon fill="white" stroke="black" points="134,-67.5 134,-86.5 234,-86.5 234,-67.5 134,-67.5"/>
<text text-anchor="middle" x="184" y="-74.5" font-family="Helvetica,sans-Serif" font-size="10.00">MockButtonInput</text>
</a>
</g>
</g>
<!-- Node7&#45;&gt;Node1 -->
<g id="edge5" class="edge">
<title>Node7&#45;&gt;Node1</title>
<path fill="none" stroke="#9a32cd" stroke-dasharray="5,2" d="M160.08,-62.12C137.89,-49.24 105.56,-30.48 86.87,-19.63"/>
<polygon fill="#9a32cd" stroke="#9a32cd" points="158.49,-65.24 168.9,-67.23 162,-59.19 158.49,-65.24"/>
<text text-anchor="middle" x="149" y="-41" font-family="Helvetica,sans-Serif" font-size="10.00"> input</text>
</g>
<!-- Node8&#45;&gt;Node7 -->
<g id="edge6" class="edge">
<title>Node8&#45;&gt;Node7</title>
<path fill="none" stroke="midnightblue" d="M183.26,-133.07C183.46,-118.18 183.73,-98.11 183.88,-86.77"/>
<polygon fill="midnightblue" stroke="midnightblue" points="179.75,-133.17 183.12,-143.22 186.75,-133.27 179.75,-133.17"/>
</g>
<!-- Node9&#45;&gt;Node8 -->
<g id="edge9" class="edge">
<title>Node9&#45;&gt;Node8</title>
<path fill="none" stroke="#9a32cd" stroke-dasharray="5,2" d="M266.86,-204.94C245.67,-192.07 214.98,-173.43 197.2,-162.63"/>
<polygon fill="#9a32cd" stroke="#9a32cd" points="265.21,-208.03 275.57,-210.23 268.84,-202.05 265.21,-208.03"/>
<text text-anchor="middle" x="264" y="-184" font-family="Helvetica,sans-Serif" font-size="10.00"> _display</text>
</g>
<!-- Node9&#45;&gt;Node9 -->
<g id="edge11" class="edge">
<title>Node9&#45;&gt;Node9</title>
<path fill="none" stroke="#9a32cd" stroke-dasharray="5,2" d="M348.88,-224.58C353.59,-223.58 356.5,-222.05 356.5,-220 356.5,-216.72 349.04,-214.78 338.71,-214.19"/>
<polygon fill="#9a32cd" stroke="#9a32cd" points="348.22,-221.13 338.71,-225.81 349.06,-228.08 348.22,-221.13"/>
<text text-anchor="middle" x="372" y="-217.5" font-family="Helvetica,sans-Serif" font-size="10.00"> _next</text>
</g>
</g>
</svg>
