<?xml version="1.0" encoding="UTF-8" standalone="no"?>
<!DOCTYPE svg PUBLIC "-//W3C//DTD SVG 1.1//EN"
 "http://www.w3.org/Graphics/SVG/1.1/DTD/svg11.dtd">
<!-- Generated by graphviz version 2.43.0 (0)
 -->
<!-- Title: DisplayManager::startDisplays Pages: 1 -->
<svg width="760pt" height="142pt"
 viewBox="0.00 0.00 760.00 142.00" xmlns="http://www.w3.org/2000/svg" xmlns:xlink="http://www.w3.org/1999/xlink">
<g id="graph0" class="graph" transform="scale(1 1) rotate(0) translate(4 138)">
<title>DisplayManager::startDisplays</title>
<polygon fill="white" stroke="transparent" points="-4,4 -4,-138 756,-138 756,4 -4,4"/>
<!-- Node1 -->
<g id="node1" class="node">
<title>Node1</title>
<g id="a_node1"><a xlink:title="Call the begin() method for all associated Display instances.">
<polygon fill="#bfbfbf" stroke="black" points="0,-76.5 0,-95.5 167,-95.5 167,-76.5 0,-76.5"/>
<text text-anchor="middle" x="83.5" y="-83.5" font-family="Helvetica,sans-Serif" font-size="10.00">DisplayManager::startDisplays</text>
</a>
</g>
</g>
<!-- Node2 -->
<g id="node2" class="node">
<title>Node2</title>
<g id="a_node2"><a xlink:href="classDisplayManager.html#abcac9213f163018979f2a226ecf53882" target="_top" xlink:title="Manually selects SPI displays that require manual selecting via the CS pin &#45; sets pin low.">
<polygon fill="white" stroke="black" points="203,-76.5 203,-95.5 391,-95.5 391,-76.5 203,-76.5"/>
<text text-anchor="middle" x="297" y="-83.5" font-family="Helvetica,sans-Serif" font-size="10.00">DisplayManager::_selectSPIDisplay</text>
</a>
</g>
</g>
<!-- Node1&#45;&gt;Node2 -->
<g id="edge1" class="edge">
<title>Node1&#45;&gt;Node2</title>
<path fill="none" stroke="midnightblue" d="M167.18,-86C175.59,-86 184.21,-86 192.8,-86"/>
<polygon fill="midnightblue" stroke="midnightblue" points="192.86,-89.5 202.86,-86 192.86,-82.5 192.86,-89.5"/>
</g>
<!-- Node6 -->
<g id="node6" class="node">
<title>Node6</title>
<g id="a_node6"><a xlink:href="classDisplayInterface.html#aa869afa166e1d7f231549e3b93f7bef5" target="_top" xlink:title="Get the next DisplayInterface derived instance in the list.">
<polygon fill="white" stroke="black" points="429,-114.5 429,-133.5 571,-133.5 571,-114.5 429,-114.5"/>
<text text-anchor="middle" x="500" y="-121.5" font-family="Helvetica,sans-Serif" font-size="10.00">DisplayInterface::getNext</text>
</a>
</g>
</g>
<!-- Node1&#45;&gt;Node6 -->
<g id="edge10" class="edge">
<title>Node1&#45;&gt;Node6</title>
<path fill="none" stroke="midnightblue" d="M137.15,-95.54C157.64,-98.97 181.36,-102.58 203,-105 275.81,-113.15 359.11,-118.11 418.75,-120.91"/>
<polygon fill="midnightblue" stroke="midnightblue" points="418.71,-124.41 428.86,-121.37 419.03,-117.42 418.71,-124.41"/>
</g>
<!-- Node7 -->
<g id="node7" class="node">
<title>Node7</title>
<g id="a_node7"><a xlink:href="classDisplayManager.html#aac782a88d4d491444b6eb7b6fa30645d" target="_top" xlink:title="Set the chip select pin state for any display that has it set.">
<polygon fill="white" stroke="black" points="210,-27 210,-57 384,-57 384,-27 210,-27"/>
<text text-anchor="start" x="218" y="-45" font-family="Helvetica,sans-Serif" font-size="10.00">DisplayManager::_setSPIDisplay</text>
<text text-anchor="middle" x="297" y="-34" font-family="Helvetica,sans-Serif" font-size="10.00">CSPin</text>
</a>
</g>
</g>
<!-- Node1&#45;&gt;Node7 -->
<g id="edge6" class="edge">
<title>Node1&#45;&gt;Node7</title>
<path fill="none" stroke="midnightblue" d="M130.39,-76.45C154.74,-71.39 185.39,-65.01 213.69,-59.12"/>
<polygon fill="midnightblue" stroke="midnightblue" points="214.51,-62.53 223.58,-57.07 213.08,-55.68 214.51,-62.53"/>
</g>
<!-- Node3 -->
<g id="node3" class="node">
<title>Node3</title>
<g id="a_node3"><a xlink:href="Arduino_8h.html#ae9647a9a056bb33fd1206da70c83bde3" target="_top" xlink:title=" ">
<polygon fill="white" stroke="black" points="463,-76.5 463,-95.5 537,-95.5 537,-76.5 463,-76.5"/>
<text text-anchor="middle" x="500" y="-83.5" font-family="Helvetica,sans-Serif" font-size="10.00">digitalWrite</text>
</a>
</g>
</g>
<!-- Node2&#45;&gt;Node3 -->
<g id="edge2" class="edge">
<title>Node2&#45;&gt;Node3</title>
<path fill="none" stroke="midnightblue" d="M391.15,-86C412.53,-86 434.37,-86 452.75,-86"/>
<polygon fill="midnightblue" stroke="midnightblue" points="452.86,-89.5 462.86,-86 452.86,-82.5 452.86,-89.5"/>
</g>
<!-- Node5 -->
<g id="node5" class="node">
<title>Node5</title>
<g id="a_node5"><a xlink:href="classDisplayInterface.html#a99f118df7933707f23506e6c4138c8ac" target="_top" xlink:title="Get the defined CS pin for this display to see if it needs manual SPI switching.">
<polygon fill="white" stroke="black" points="427,-38.5 427,-57.5 573,-57.5 573,-38.5 427,-38.5"/>
<text text-anchor="middle" x="500" y="-45.5" font-family="Helvetica,sans-Serif" font-size="10.00">DisplayInterface::getCSPin</text>
</a>
</g>
</g>
<!-- Node2&#45;&gt;Node5 -->
<g id="edge4" class="edge">
<title>Node2&#45;&gt;Node5</title>
<path fill="none" stroke="midnightblue" d="M348.46,-76.46C375.82,-71.29 409.82,-64.86 438.58,-59.42"/>
<polygon fill="midnightblue" stroke="midnightblue" points="439.34,-62.84 448.52,-57.54 438.04,-55.96 439.34,-62.84"/>
</g>
<!-- Node2&#45;&gt;Node6 -->
<g id="edge5" class="edge">
<title>Node2&#45;&gt;Node6</title>
<path fill="none" stroke="midnightblue" d="M348.46,-95.54C375.82,-100.71 409.82,-107.14 438.58,-112.58"/>
<polygon fill="midnightblue" stroke="midnightblue" points="438.04,-116.04 448.52,-114.46 439.34,-109.16 438.04,-116.04"/>
</g>
<!-- Node4 -->
<g id="node4" class="node">
<title>Node4</title>
<g id="a_node4"><a xlink:href="classMockArduino.html#a31b8132fed4cf21517931e448ba515ea" target="_top" xlink:title=" ">
<polygon fill="white" stroke="black" points="609,-38.5 609,-57.5 752,-57.5 752,-38.5 609,-38.5"/>
<text text-anchor="middle" x="680.5" y="-45.5" font-family="Helvetica,sans-Serif" font-size="10.00">MockArduino::getInstance</text>
</a>
</g>
</g>
<!-- Node3&#45;&gt;Node4 -->
<g id="edge3" class="edge">
<title>Node3&#45;&gt;Node4</title>
<path fill="none" stroke="midnightblue" d="M537.12,-78.31C562.27,-72.96 596.27,-65.72 624.74,-59.66"/>
<polygon fill="midnightblue" stroke="midnightblue" points="625.51,-63.07 634.56,-57.57 624.05,-56.23 625.51,-63.07"/>
</g>
<!-- Node7&#45;&gt;Node5 -->
<g id="edge7" class="edge">
<title>Node7&#45;&gt;Node5</title>
<path fill="none" stroke="midnightblue" d="M384.12,-44.57C394.94,-44.89 405.98,-45.22 416.74,-45.54"/>
<polygon fill="midnightblue" stroke="midnightblue" points="416.85,-49.05 426.95,-45.85 417.06,-42.05 416.85,-49.05"/>
</g>
<!-- Node8 -->
<g id="node8" class="node">
<title>Node8</title>
<g id="a_node8"><a xlink:href="Arduino_8h.html#ac7bdb53335528ad073ca13eb2b1bdc00" target="_top" xlink:title=" ">
<polygon fill="white" stroke="black" points="470.5,-0.5 470.5,-19.5 529.5,-19.5 529.5,-0.5 470.5,-0.5"/>
<text text-anchor="middle" x="500" y="-7.5" font-family="Helvetica,sans-Serif" font-size="10.00">pinMode</text>
</a>
</g>
</g>
<!-- Node7&#45;&gt;Node8 -->
<g id="edge8" class="edge">
<title>Node7&#45;&gt;Node8</title>
<path fill="none" stroke="midnightblue" d="M384.12,-28.29C410.67,-24.06 438.59,-19.62 460.26,-16.17"/>
<polygon fill="midnightblue" stroke="midnightblue" points="461.04,-19.59 470.36,-14.56 459.94,-12.68 461.04,-19.59"/>
</g>
<!-- Node8&#45;&gt;Node4 -->
<g id="edge9" class="edge">
<title>Node8&#45;&gt;Node4</title>
<path fill="none" stroke="midnightblue" d="M529.68,-16.11C555.29,-21.56 593.5,-29.69 624.92,-36.38"/>
<polygon fill="midnightblue" stroke="midnightblue" points="624.35,-39.84 634.86,-38.5 625.81,-32.99 624.35,-39.84"/>
</g>
</g>
</svg>
