<?xml version="1.0" encoding="UTF-8" standalone="no"?>
<!DOCTYPE svg PUBLIC "-//W3C//DTD SVG 1.1//EN"
 "http://www.w3.org/Graphics/SVG/1.1/DTD/svg11.dtd">
<!-- Generated by graphviz version 2.43.0 (0)
 -->
<!-- Title: MockInput::create Pages: 1 -->
<svg width="305pt" height="64pt"
 viewBox="0.00 0.00 305.00 64.00" xmlns="http://www.w3.org/2000/svg" xmlns:xlink="http://www.w3.org/1999/xlink">
<g id="graph0" class="graph" transform="scale(1 1) rotate(0) translate(4 60)">
<title>MockInput::create</title>
<!-- Node1 -->
<g id="Node000001" class="node">
<title>Node1</title>
<g id="a_Node000001"><a xlink:title=" ">
<polygon fill="#999999" stroke="#666666" points="104,-37 0,-37 0,-18 104,-18 104,-37"/>
<text text-anchor="middle" x="52" y="-25" font-family="Helvetica,sans-Serif" font-size="10.00">MockInput::create</text>
</a>
</g>
</g>
<!-- Node2 -->
<g id="Node000002" class="node">
<title>Node2</title>
<g id="a_Node000002"><a xlink:href="classMockInput.html#a3ebbf83512bb943e4726281a2ecd42ca" target="_top" xlink:title=" ">
<polygon fill="white" stroke="#666666" points="281,-56 156,-56 156,-37 281,-37 281,-56"/>
<text text-anchor="middle" x="218.5" y="-44" font-family="Helvetica,sans-Serif" font-size="10.00">MockInput::MockInput</text>
</a>
</g>
</g>
<!-- Node1&#45;&gt;Node2 -->
<g id="edge1_Node000001_Node000002" class="edge">
<title>Node1&#45;&gt;Node2</title>
<g id="a_edge1_Node000001_Node000002"><a xlink:title=" ">
<path fill="none" stroke="#63b8ff" d="M104.15,-33.41C117.35,-34.93 131.81,-36.6 145.85,-38.22"/>
<polygon fill="#63b8ff" stroke="#63b8ff" points="145.64,-41.72 155.98,-39.39 146.45,-34.77 145.64,-41.72"/>
</a>
</g>
</g>
<!-- Node3 -->
<g id="Node000003" class="node">
<title>Node3</title>
<g id="a_Node000003"><a xlink:href="classInputInterface.html#a150a075ce0c5a95dc4fd15ccd1933d26" target="_top" xlink:title="Test if this InputInterface requires a display instance &#45; needed for TFT_eSPI as it shares the instan...">
<polygon fill="white" stroke="#666666" points="297,-19 140,-19 140,0 297,0 297,-19"/>
<text text-anchor="middle" x="218.5" y="-7" font-family="Helvetica,sans-Serif" font-size="10.00">InputInterface::needsDisplay</text>
</a>
</g>
</g>
<!-- Node1&#45;&gt;Node3 -->
<g id="edge2_Node000001_Node000003" class="edge">
<title>Node1&#45;&gt;Node3</title>
<g id="a_edge2_Node000001_Node000003"><a xlink:title=" ">
<path fill="none" stroke="#63b8ff" d="M104.15,-21.9C112.28,-21.01 120.89,-20.07 129.59,-19.12"/>
<polygon fill="#63b8ff" stroke="#63b8ff" points="130.25,-22.57 139.81,-18 129.49,-15.61 130.25,-22.57"/>
</a>
</g>
</g>
</g>
</svg>
