<?xml version="1.0" encoding="UTF-8" standalone="no"?>
<!DOCTYPE svg PUBLIC "-//W3C//DTD SVG 1.1//EN"
 "http://www.w3.org/Graphics/SVG/1.1/DTD/svg11.dtd">
<!-- Generated by graphviz version 2.43.0 (0)
 -->
<!-- Title: Configurator::initialise Pages: 1 -->
<!--zoomable 332 -->
<svg id="main" version="1.1" xmlns="http://www.w3.org/2000/svg" xmlns:xlink="http://www.w3.org/1999/xlink" xml:space="preserve" onload="init(evt)">
<style type="text/css"><![CDATA[
.edge:hover path { stroke: red; }
.edge:hover polygon { stroke: red; fill: red; }
]]></style>
<script type="text/javascript"><![CDATA[
var edges = document.getElementsByTagName('g');
if (edges && edges.length) {
  for (var i=0;i<edges.length;i++) {
    if (edges[i].id.substr(0,4)=='edge') {
      edges[i].setAttribute('class','edge');
    }
  }
}
]]></script>
        <defs>
                <circle id="rim" cx="0" cy="0" r="7"/>
                <circle id="rim2" cx="0" cy="0" r="3.5"/>
                <g id="zoomPlus">
                        <use xlink:href="#rim" fill="#404040">
                                <set attributeName="fill" to="#808080" begin="zoomplus.mouseover" end="zoomplus.mouseout"/>
                        </use>
                        <path d="M-4,0h8M0,-4v8" fill="none" stroke="white" stroke-width="1.5" pointer-events="none"/>
                </g>
                <g id="zoomMin">
                        <use xlink:href="#rim" fill="#404040">
                                <set attributeName="fill" to="#808080" begin="zoomminus.mouseover" end="zoomminus.mouseout"/>
                        </use>
                        <path d="M-4,0h8" fill="none" stroke="white" stroke-width="1.5" pointer-events="none"/>
                </g>
                <g id="dirArrow">
                        <path fill="none" stroke="white" stroke-width="1.5" d="M0,-3.0v7 M-2.5,-0.5L0,-3.0L2.5,-0.5"/>
                </g>
               <g id="resetDef">
                       <use xlink:href="#rim2" fill="#404040">
                               <set attributeName="fill" to="#808080" begin="reset.mouseover" end="reset.mouseout"/>
                       </use>
               </g>
        </defs>

<script type="text/javascript">
var viewWidth = 688;
var viewHeight = 332;
var sectionId = 'dynsection-10';
</script>
<script xlink:href="svgpan.js"/>
<svg id="graph" class="graph">
<g id="viewport">
<title>Configurator::initialise</title>
<polygon fill="white" stroke="transparent" points="-4,4 -4,-328 684,-328 684,4 -4,4"/>
<!-- Node1 -->
<g id="node1" class="node">
<title>Node1</title>
<g id="a_node1"><a xlink:title="Call all one&#45;shot initialisation or begin methods on startup.">
<polygon fill="#bfbfbf" stroke="black" points="0,-152.5 0,-171.5 125,-171.5 125,-152.5 0,-152.5"/>
<text text-anchor="middle" x="62.5" y="-159.5" font-family="Helvetica,sans-Serif" font-size="10.00">Configurator::initialise</text>
</a>
</g>
</g>
<!-- Node2 -->
<g id="node2" class="node">
<title>Node2</title>
<g id="a_node2"><a xlink:href="classDisplayManager.html#a9ade9b696372a53b8b716d29d7b53c70" target="_top" xlink:title="Parses the displays configured in myConfig.h and creates the list of displays (this is implemented in...">
<polygon fill="white" stroke="black" points="161.5,-304.5 161.5,-323.5 336.5,-323.5 336.5,-304.5 161.5,-304.5"/>
<text text-anchor="middle" x="249" y="-311.5" font-family="Helvetica,sans-Serif" font-size="10.00">DisplayManager::createDisplays</text>
</a>
</g>
</g>
<!-- Node1&#45;&gt;Node2 -->
<g id="edge1" class="edge">
<title>Node1&#45;&gt;Node2</title>
<path fill="none" stroke="midnightblue" d="M67.55,-171.56C78.55,-196.32 111.56,-262.85 161,-295 164.17,-297.06 167.52,-298.9 171,-300.54"/>
<polygon fill="midnightblue" stroke="midnightblue" points="169.87,-303.86 180.45,-304.45 172.55,-297.39 169.87,-303.86"/>
</g>
<!-- Node3 -->
<g id="node3" class="node">
<title>Node3</title>
<g id="a_node3"><a xlink:href="classInputManager.html#a3307bd524c644992394b1f74ad9c1433" target="_top" xlink:title="Call once to create the InputInterface derived input.">
<polygon fill="white" stroke="black" points="176,-266.5 176,-285.5 322,-285.5 322,-266.5 176,-266.5"/>
<text text-anchor="middle" x="249" y="-273.5" font-family="Helvetica,sans-Serif" font-size="10.00">InputManager::createInput</text>
</a>
</g>
</g>
<!-- Node1&#45;&gt;Node3 -->
<g id="edge2" class="edge">
<title>Node1&#45;&gt;Node3</title>
<path fill="none" stroke="midnightblue" d="M70.33,-171.59C84.73,-191.02 120.21,-235.05 161,-257 165.28,-259.31 169.83,-261.33 174.51,-263.11"/>
<polygon fill="midnightblue" stroke="midnightblue" points="173.66,-266.52 184.25,-266.43 175.92,-259.89 173.66,-266.52"/>
</g>
<!-- Node4 -->
<g id="node4" class="node">
<title>Node4</title>
<g id="a_node4"><a xlink:href="classDisplayManager.html#a0dcf69d16599029ba34bf31c0c666390" target="_top" xlink:title="Get a DisplayInterface derived instance by its ID.">
<polygon fill="white" stroke="black" points="161,-228.5 161,-247.5 337,-247.5 337,-228.5 161,-228.5"/>
<text text-anchor="middle" x="249" y="-235.5" font-family="Helvetica,sans-Serif" font-size="10.00">DisplayManager::getDisplayById</text>
</a>
</g>
</g>
<!-- Node1&#45;&gt;Node4 -->
<g id="edge3" class="edge">
<title>Node1&#45;&gt;Node4</title>
<path fill="none" stroke="midnightblue" d="M76.7,-171.55C94.82,-184.22 128.85,-206.46 161,-219 167.73,-221.63 174.91,-223.93 182.14,-225.94"/>
<polygon fill="midnightblue" stroke="midnightblue" points="181.44,-229.37 192,-228.49 183.2,-222.59 181.44,-229.37"/>
</g>
<!-- Node6 -->
<g id="node6" class="node">
<title>Node6</title>
<g id="a_node6"><a xlink:href="classInputManager.html#a2672882f95872798fd07d4d98f82063b" target="_top" xlink:title="Get the configured InputInterface.">
<polygon fill="white" stroke="black" points="183.5,-190.5 183.5,-209.5 314.5,-209.5 314.5,-190.5 183.5,-190.5"/>
<text text-anchor="middle" x="249" y="-197.5" font-family="Helvetica,sans-Serif" font-size="10.00">InputManager::getInput</text>
</a>
</g>
</g>
<!-- Node1&#45;&gt;Node6 -->
<g id="edge5" class="edge">
<title>Node1&#45;&gt;Node6</title>
<path fill="none" stroke="midnightblue" d="M110.06,-171.59C134.84,-176.69 165.52,-183.01 191.64,-188.39"/>
<polygon fill="midnightblue" stroke="midnightblue" points="191.28,-191.89 201.78,-190.48 192.69,-185.03 191.28,-191.89"/>
</g>
<!-- Node7 -->
<g id="node7" class="node">
<title>Node7</title>
<g id="a_node7"><a xlink:href="classInputInterface.html#a150a075ce0c5a95dc4fd15ccd1933d26" target="_top" xlink:title="Test if this InputInterface requires a display instance &#45; needed for TFT_eSPI as it shares the instan...">
<polygon fill="white" stroke="black" points="170.5,-152.5 170.5,-171.5 327.5,-171.5 327.5,-152.5 170.5,-152.5"/>
<text text-anchor="middle" x="249" y="-159.5" font-family="Helvetica,sans-Serif" font-size="10.00">InputInterface::needsDisplay</text>
</a>
</g>
</g>
<!-- Node1&#45;&gt;Node7 -->
<g id="edge6" class="edge">
<title>Node1&#45;&gt;Node7</title>
<path fill="none" stroke="midnightblue" d="M125.19,-162C136.37,-162 148.23,-162 159.99,-162"/>
<polygon fill="midnightblue" stroke="midnightblue" points="160.29,-165.5 170.29,-162 160.29,-158.5 160.29,-165.5"/>
</g>
<!-- Node8 -->
<g id="node8" class="node">
<title>Node8</title>
<g id="a_node8"><a xlink:href="classInputManager.html#a085a9206b827e9666b798cb8706c20c5" target="_top" xlink:title="Set the CallbackInterface derived instance for user input to use for callbacks.">
<polygon fill="white" stroke="black" points="175.5,-114.5 175.5,-133.5 322.5,-133.5 322.5,-114.5 175.5,-114.5"/>
<text text-anchor="middle" x="249" y="-121.5" font-family="Helvetica,sans-Serif" font-size="10.00">InputManager::setCallback</text>
</a>
</g>
</g>
<!-- Node1&#45;&gt;Node8 -->
<g id="edge7" class="edge">
<title>Node1&#45;&gt;Node8</title>
<path fill="none" stroke="midnightblue" d="M110.06,-152.41C134.84,-147.31 165.52,-140.99 191.64,-135.61"/>
<polygon fill="midnightblue" stroke="midnightblue" points="192.69,-138.97 201.78,-133.52 191.28,-132.11 192.69,-138.97"/>
</g>
<!-- Node9 -->
<g id="node9" class="node">
<title>Node9</title>
<g id="a_node9"><a xlink:href="classInputManager.html#a27c7bc043eb9fbb8c7700624852220f6" target="_top" xlink:title="Set the display interface to retrieve required attributes &#45; note this should only be required for TFT...">
<polygon fill="white" stroke="black" points="178,-76.5 178,-95.5 320,-95.5 320,-76.5 178,-76.5"/>
<text text-anchor="middle" x="249" y="-83.5" font-family="Helvetica,sans-Serif" font-size="10.00">InputManager::setDisplay</text>
</a>
</g>
</g>
<!-- Node1&#45;&gt;Node9 -->
<g id="edge8" class="edge">
<title>Node1&#45;&gt;Node9</title>
<path fill="none" stroke="midnightblue" d="M76.7,-152.45C94.82,-139.78 128.85,-117.54 161,-105 167.73,-102.37 174.91,-100.07 182.14,-98.06"/>
<polygon fill="midnightblue" stroke="midnightblue" points="183.2,-101.41 192,-95.51 181.44,-94.63 183.2,-101.41"/>
</g>
<!-- Node12 -->
<g id="node12" class="node">
<title>Node12</title>
<g id="a_node12"><a xlink:href="classAtFinder.html#ac50442f56c76cd6bd05da52db7ba8910" target="_top" xlink:title="Set the logger instance to use for diagnostic logging.">
<polygon fill="white" stroke="black" points="193.5,-38.5 193.5,-57.5 304.5,-57.5 304.5,-38.5 193.5,-38.5"/>
<text text-anchor="middle" x="249" y="-45.5" font-family="Helvetica,sans-Serif" font-size="10.00">AtFinder::setLogger</text>
</a>
</g>
</g>
<!-- Node1&#45;&gt;Node12 -->
<g id="edge12" class="edge">
<title>Node1&#45;&gt;Node12</title>
<path fill="none" stroke="midnightblue" d="M70.33,-152.41C84.73,-132.98 120.21,-88.95 161,-67 168.07,-63.2 175.84,-60.16 183.75,-57.72"/>
<polygon fill="midnightblue" stroke="midnightblue" points="184.72,-61.09 193.42,-55.05 182.85,-54.34 184.72,-61.09"/>
</g>
<!-- Node13 -->
<g id="node13" class="node">
<title>Node13</title>
<g id="a_node13"><a xlink:href="classAtFinder.html#abadf56235ed457d74fff16dfdcd6d693" target="_top" xlink:title="Setup the AtFinder parser.">
<polygon fill="white" stroke="black" points="204,-0.5 204,-19.5 294,-19.5 294,-0.5 204,-0.5"/>
<text text-anchor="middle" x="249" y="-7.5" font-family="Helvetica,sans-Serif" font-size="10.00">AtFinder::setup</text>
</a>
</g>
</g>
<!-- Node1&#45;&gt;Node13 -->
<g id="edge13" class="edge">
<title>Node1&#45;&gt;Node13</title>
<path fill="none" stroke="midnightblue" d="M67.55,-152.44C78.55,-127.68 111.56,-61.15 161,-29 170.72,-22.68 182.22,-18.43 193.61,-15.58"/>
<polygon fill="midnightblue" stroke="midnightblue" points="194.53,-18.96 203.56,-13.42 193.04,-12.12 194.53,-18.96"/>
</g>
<!-- Node5 -->
<g id="node5" class="node">
<title>Node5</title>
<g id="a_node5"><a xlink:href="classDisplayInterface.html#aa869afa166e1d7f231549e3b93f7bef5" target="_top" xlink:title="Get the next DisplayInterface derived instance in the list.">
<polygon fill="white" stroke="black" points="373.5,-228.5 373.5,-247.5 515.5,-247.5 515.5,-228.5 373.5,-228.5"/>
<text text-anchor="middle" x="444.5" y="-235.5" font-family="Helvetica,sans-Serif" font-size="10.00">DisplayInterface::getNext</text>
</a>
</g>
</g>
<!-- Node4&#45;&gt;Node5 -->
<g id="edge4" class="edge">
<title>Node4&#45;&gt;Node5</title>
<path fill="none" stroke="midnightblue" d="M337.13,-238C345.85,-238 354.68,-238 363.33,-238"/>
<polygon fill="midnightblue" stroke="midnightblue" points="363.38,-241.5 373.38,-238 363.38,-234.5 363.38,-241.5"/>
</g>
<!-- Node10 -->
<g id="node10" class="node">
<title>Node10</title>
<g id="a_node10"><a xlink:href="classDisplayInterface.html#a3649a768b8ca59c3070f56aed1fe42c2" target="_top" xlink:title="Get the ID of this display instance.">
<polygon fill="white" stroke="black" points="552,-76.5 552,-95.5 680,-95.5 680,-76.5 552,-76.5"/>
<text text-anchor="middle" x="616" y="-83.5" font-family="Helvetica,sans-Serif" font-size="10.00">DisplayInterface::getId</text>
</a>
</g>
</g>
<!-- Node9&#45;&gt;Node10 -->
<g id="edge9" class="edge">
<title>Node9&#45;&gt;Node10</title>
<path fill="none" stroke="midnightblue" d="M320.38,-86C383.99,-86 477.27,-86 541.76,-86"/>
<polygon fill="midnightblue" stroke="midnightblue" points="541.85,-89.5 551.85,-86 541.85,-82.5 541.85,-89.5"/>
</g>
<!-- Node11 -->
<g id="node11" class="node">
<title>Node11</title>
<g id="a_node11"><a xlink:href="classInputInterface.html#a8835a0d2c51926d4636f239d888a8e71" target="_top" xlink:title="Set the DisplayInterface for this input if required.">
<polygon fill="white" stroke="black" points="373,-57.5 373,-76.5 516,-76.5 516,-57.5 373,-57.5"/>
<text text-anchor="middle" x="444.5" y="-64.5" font-family="Helvetica,sans-Serif" font-size="10.00">InputInterface::setDisplay</text>
</a>
</g>
</g>
<!-- Node9&#45;&gt;Node11 -->
<g id="edge10" class="edge">
<title>Node9&#45;&gt;Node11</title>
<path fill="none" stroke="midnightblue" d="M320.13,-79.11C333.97,-77.75 348.6,-76.32 362.75,-74.93"/>
<polygon fill="midnightblue" stroke="midnightblue" points="363.35,-78.39 372.96,-73.93 362.66,-71.42 363.35,-78.39"/>
</g>
<!-- Node11&#45;&gt;Node10 -->
<g id="edge11" class="edge">
<title>Node11&#45;&gt;Node10</title>
<path fill="none" stroke="midnightblue" d="M516.4,-74.95C524.79,-75.89 533.36,-76.85 541.77,-77.79"/>
<polygon fill="midnightblue" stroke="midnightblue" points="541.61,-81.3 551.94,-78.93 542.39,-74.34 541.61,-81.3"/>
</g>
</g>
</svg>
        <g id="navigator" transform="translate(0 0)" fill="#404254">
                <rect fill="#f2f5e9" fill-opacity="0.5" stroke="#606060" stroke-width=".5" x="0" y="0" width="60" height="60"/>
                <use id="zoomplus" xlink:href="#zoomPlus" x="17" y="9" onmousedown="handleZoom(evt,'in')"/>
                <use id="zoomminus" xlink:href="#zoomMin" x="42" y="9" onmousedown="handleZoom(evt,'out')"/>
                <use id="reset" xlink:href="#resetDef" x="30" y="36" onmousedown="handleReset()"/>
                <g id="arrowUp" xlink:href="#dirArrow" transform="translate(30 24)" onmousedown="handlePan(0,-1)">
                  <use xlink:href="#rim" fill="#404040">
                        <set attributeName="fill" to="#808080" begin="arrowUp.mouseover" end="arrowUp.mouseout"/>
                  </use>
                  <path fill="none" stroke="white" stroke-width="1.5" d="M0,-3.0v7 M-2.5,-0.5L0,-3.0L2.5,-0.5"/>
                </g>
                <g id="arrowRight" xlink:href="#dirArrow" transform="rotate(90) translate(36 -43)" onmousedown="handlePan(1,0)">
                  <use xlink:href="#rim" fill="#404040">
                        <set attributeName="fill" to="#808080" begin="arrowRight.mouseover" end="arrowRight.mouseout"/>
                  </use>
                  <path fill="none" stroke="white" stroke-width="1.5" d="M0,-3.0v7 M-2.5,-0.5L0,-3.0L2.5,-0.5"/>
                </g>
                <g id="arrowDown" xlink:href="#dirArrow" transform="rotate(180) translate(-30 -48)" onmousedown="handlePan(0,1)">
                  <use xlink:href="#rim" fill="#404040">
                        <set attributeName="fill" to="#808080" begin="arrowDown.mouseover" end="arrowDown.mouseout"/>
                  </use>
                  <path fill="none" stroke="white" stroke-width="1.5" d="M0,-3.0v7 M-2.5,-0.5L0,-3.0L2.5,-0.5"/>
                </g>
                <g id="arrowLeft" xlink:href="#dirArrow" transform="rotate(270) translate(-36 17)" onmousedown="handlePan(-1,0)">
                  <use xlink:href="#rim" fill="#404040">
                        <set attributeName="fill" to="#808080" begin="arrowLeft.mouseover" end="arrowLeft.mouseout"/>
                  </use>
                  <path fill="none" stroke="white" stroke-width="1.5" d="M0,-3.0v7 M-2.5,-0.5L0,-3.0L2.5,-0.5"/>
                </g>
        </g>
        <svg viewBox="0 0 15 15" width="100%" height="30px" preserveAspectRatio="xMaxYMin meet">
         <g id="arrow_out" transform="scale(0.3 0.3)">
          <a xlink:href="classConfigurator_a25ee5e1b0a64d971232d6ecaaadd5d61_cgraph_org.svg" target="_base">
           <rect id="button" ry="5" rx="5" y="6" x="6" height="38" width="38"
                fill="#f2f5e9" fill-opacity="0.5" stroke="#606060" stroke-width="1.0"/>
           <path id="arrow"
             d="M 11.500037,31.436501 C 11.940474,20.09759 22.043105,11.32322 32.158766,21.979434 L 37.068811,17.246167 C 37.068811,17.246167 37.088388,32 37.088388,32 L 22.160133,31.978069 C 22.160133,31.978069 26.997745,27.140456 26.997745,27.140456 C 18.528582,18.264221 13.291696,25.230495 11.500037,31.436501 z"
             style="fill:#404040;"/>
          </a>
         </g>
        </svg>
</svg>
