<?xml version="1.0" encoding="UTF-8" standalone="no"?>
<!DOCTYPE svg PUBLIC "-//W3C//DTD SVG 1.1//EN"
 "http://www.w3.org/Graphics/SVG/1.1/DTD/svg11.dtd">
<!-- Generated by graphviz version 2.43.0 (0)
 -->
<!-- Title: TFT_eSPIDisplay::clearScreen Pages: 1 -->
<svg width="548pt" height="124pt"
 viewBox="0.00 0.00 548.00 124.00" xmlns="http://www.w3.org/2000/svg" xmlns:xlink="http://www.w3.org/1999/xlink">
<g id="graph0" class="graph" transform="scale(1 1) rotate(0) translate(4 120)">
<title>TFT_eSPIDisplay::clearScreen</title>
<!-- Node1 -->
<g id="Node000001" class="node">
<title>Node1</title>
<g id="a_Node000001"><a xlink:title="Clear the entire screen.">
<polygon fill="#999999" stroke="#666666" points="540,-67.5 381,-67.5 381,-48.5 540,-48.5 540,-67.5"/>
<text text-anchor="middle" x="460.5" y="-55.5" font-family="Helvetica,sans-Serif" font-size="10.00">TFT_eSPIDisplay::clearScreen</text>
</a>
</g>
</g>
<!-- Node2 -->
<g id="Node000002" class="node">
<title>Node2</title>
<g id="a_Node000002"><a xlink:href="classTFT__eSPITouch.html#ad71507c11a328924064e703daef05ada" target="_top" xlink:title="Display calibration error on screen and pause for 5 seconds.">
<polygon fill="white" stroke="#666666" points="345,-116 157,-116 157,-86 345,-86 345,-116"/>
<text text-anchor="start" x="165" y="-104" font-family="Helvetica,sans-Serif" font-size="10.00">TFT_eSPITouch::_displayCalibration</text>
<text text-anchor="middle" x="251" y="-93" font-family="Helvetica,sans-Serif" font-size="10.00">Error</text>
</a>
</g>
</g>
<!-- Node1&#45;&gt;Node2 -->
<g id="edge1_Node000001_Node000002" class="edge">
<title>Node1&#45;&gt;Node2</title>
<g id="a_edge1_Node000001_Node000002"><a xlink:title=" ">
<path fill="none" stroke="#63b8ff" d="M403.65,-69.57C379.29,-74.62 350.4,-80.61 324.41,-85.99"/>
<polygon fill="#63b8ff" stroke="#63b8ff" points="404.37,-73 413.45,-67.54 402.95,-66.15 404.37,-73"/>
</a>
</g>
</g>
<!-- Node3 -->
<g id="Node000003" class="node">
<title>Node3</title>
<g id="a_Node000003"><a xlink:href="classTFT__eSPITouch.html#aaf01840eb32016de879566883287b9c3" target="_top" xlink:title="Perform any initial once off setup or configuration here and call only once.">
<polygon fill="white" stroke="#666666" points="121,-88.5 0,-88.5 0,-69.5 121,-69.5 121,-88.5"/>
<text text-anchor="middle" x="60.5" y="-76.5" font-family="Helvetica,sans-Serif" font-size="10.00">TFT_eSPITouch::begin</text>
</a>
</g>
</g>
<!-- Node1&#45;&gt;Node3 -->
<g id="edge3_Node000001_Node000003" class="edge">
<title>Node1&#45;&gt;Node3</title>
<g id="a_edge3_Node000001_Node000003"><a xlink:title=" ">
<path fill="none" stroke="#63b8ff" d="M370.82,-62.68C294.79,-66.69 187.35,-72.36 121.17,-75.85"/>
<polygon fill="#63b8ff" stroke="#63b8ff" points="371.07,-66.17 380.87,-62.15 370.7,-59.18 371.07,-66.17"/>
</a>
</g>
</g>
<!-- Node4 -->
<g id="Node000004" class="node">
<title>Node4</title>
<g id="a_Node000004"><a xlink:href="classTFT__eSPIDisplay.html#ac4c657d18bcd4dae193f5fd906411dcf" target="_top" xlink:title="Display the specified Screen on this display.">
<polygon fill="white" stroke="#666666" points="319.5,-30 182.5,-30 182.5,0 319.5,0 319.5,-30"/>
<text text-anchor="start" x="190.5" y="-18" font-family="Helvetica,sans-Serif" font-size="10.00">TFT_eSPIDisplay::display</text>
<text text-anchor="middle" x="251" y="-7" font-family="Helvetica,sans-Serif" font-size="10.00">Screen</text>
</a>
</g>
</g>
<!-- Node1&#45;&gt;Node4 -->
<g id="edge4_Node000001_Node000004" class="edge">
<title>Node1&#45;&gt;Node4</title>
<g id="a_edge4_Node000001_Node000004"><a xlink:title=" ">
<path fill="none" stroke="#63b8ff" d="M403.44,-46.38C377.6,-41.03 346.71,-34.63 319.59,-29.01"/>
<polygon fill="#63b8ff" stroke="#63b8ff" points="402.95,-49.85 413.45,-48.46 404.37,-43 402.95,-49.85"/>
</a>
</g>
</g>
<!-- Node2&#45;&gt;Node3 -->
<g id="edge2_Node000002_Node000003" class="edge">
<title>Node2&#45;&gt;Node3</title>
<g id="a_edge2_Node000002_Node000003"><a xlink:title=" ">
<path fill="none" stroke="#63b8ff" d="M146.9,-88.97C138.1,-87.94 129.41,-86.93 121.14,-85.96"/>
<polygon fill="#63b8ff" stroke="#63b8ff" points="146.52,-92.45 156.85,-90.13 147.33,-85.49 146.52,-92.45"/>
</a>
</g>
</g>
</g>
</svg>
