<?xml version="1.0" encoding="UTF-8" standalone="no"?>
<!DOCTYPE svg PUBLIC "-//W3C//DTD SVG 1.1//EN"
 "http://www.w3.org/Graphics/SVG/1.1/DTD/svg11.dtd">
<!-- Generated by graphviz version 2.43.0 (0)
 -->
<!-- Title: ControllerInputActionTests::SetUp Pages: 1 -->
<!--zoomable 192 -->
<svg id="main" version="1.1" xmlns="http://www.w3.org/2000/svg" xmlns:xlink="http://www.w3.org/1999/xlink" xml:space="preserve" onload="init(evt)">
<style type="text/css"><![CDATA[
.edge:hover path { stroke: red; }
.edge:hover polygon { stroke: red; fill: red; }
]]></style>
<script type="text/javascript"><![CDATA[
var edges = document.getElementsByTagName('g');
if (edges && edges.length) {
  for (var i=0;i<edges.length;i++) {
    if (edges[i].id.substr(0,4)=='edge') {
      edges[i].setAttribute('class','edge');
    }
  }
}
]]></script>
        <defs>
                <circle id="rim" cx="0" cy="0" r="7"/>
                <circle id="rim2" cx="0" cy="0" r="3.5"/>
                <g id="zoomPlus">
                        <use xlink:href="#rim" fill="#404040">
                                <set attributeName="fill" to="#808080" begin="zoomplus.mouseover" end="zoomplus.mouseout"/>
                        </use>
                        <path d="M-4,0h8M0,-4v8" fill="none" stroke="white" stroke-width="1.5" pointer-events="none"/>
                </g>
                <g id="zoomMin">
                        <use xlink:href="#rim" fill="#404040">
                                <set attributeName="fill" to="#808080" begin="zoomminus.mouseover" end="zoomminus.mouseout"/>
                        </use>
                        <path d="M-4,0h8" fill="none" stroke="white" stroke-width="1.5" pointer-events="none"/>
                </g>
                <g id="dirArrow">
                        <path fill="none" stroke="white" stroke-width="1.5" d="M0,-3.0v7 M-2.5,-0.5L0,-3.0L2.5,-0.5"/>
                </g>
               <g id="resetDef">
                       <use xlink:href="#rim2" fill="#404040">
                               <set attributeName="fill" to="#808080" begin="reset.mouseover" end="reset.mouseout"/>
                       </use>
               </g>
        </defs>

<script type="text/javascript">
var viewWidth = 614;
var viewHeight = 192;
var sectionId = 'dynsection-2';
</script>
<script xlink:href="svgpan.js"/>
<svg id="graph" class="graph">
<g id="viewport">
<title>ControllerInputActionTests::SetUp</title>
<polygon fill="white" stroke="transparent" points="-4,4 -4,-188 610,-188 610,4 -4,4"/>
<!-- Node1 -->
<g id="node1" class="node">
<title>Node1</title>
<g id="a_node1"><a xlink:title=" ">
<polygon fill="#bfbfbf" stroke="black" points="0,-77 0,-107 145,-107 145,-77 0,-77"/>
<text text-anchor="start" x="8" y="-95" font-family="Helvetica,sans-Serif" font-size="10.00">ControllerInputActionTests</text>
<text text-anchor="middle" x="72.5" y="-84" font-family="Helvetica,sans-Serif" font-size="10.00">::SetUp</text>
</a>
</g>
</g>
<!-- Node2 -->
<g id="node2" class="node">
<title>Node2</title>
<g id="a_node2"><a xlink:href="classInputManager.html#a46a2124eddfd8617124bc16670f09633" target="_top" xlink:title="Set the InputInterface.">
<polygon fill="white" stroke="black" points="181,-82.5 181,-101.5 314,-101.5 314,-82.5 181,-82.5"/>
<text text-anchor="middle" x="247.5" y="-89.5" font-family="Helvetica,sans-Serif" font-size="10.00">InputManager::addInput</text>
</a>
</g>
</g>
<!-- Node1&#45;&gt;Node2 -->
<g id="edge1" class="edge">
<title>Node1&#45;&gt;Node2</title>
<path fill="none" stroke="midnightblue" d="M145.11,-92C153.51,-92 162.09,-92 170.54,-92"/>
<polygon fill="midnightblue" stroke="midnightblue" points="170.76,-95.5 180.76,-92 170.76,-88.5 170.76,-95.5"/>
</g>
<!-- Node3 -->
<g id="node3" class="node">
<title>Node3</title>
<g id="a_node3"><a xlink:href="classInputInterface.html#a82a2a78aaac60b714145da645febe052" target="_top" xlink:title="Force a touch screen into calibration mode, even if existing calibration is valid.">
<polygon fill="white" stroke="black" points="353.5,-164.5 353.5,-183.5 522.5,-183.5 522.5,-164.5 353.5,-164.5"/>
<text text-anchor="middle" x="438" y="-171.5" font-family="Helvetica,sans-Serif" font-size="10.00">InputInterface::forceCalibration</text>
</a>
</g>
</g>
<!-- Node2&#45;&gt;Node3 -->
<g id="edge2" class="edge">
<title>Node2&#45;&gt;Node3</title>
<path fill="none" stroke="midnightblue" d="M260.88,-101.65C279.28,-115.52 315.4,-140.97 350,-155 356.35,-157.58 363.12,-159.83 369.96,-161.8"/>
<polygon fill="midnightblue" stroke="midnightblue" points="369.43,-165.28 379.99,-164.47 371.23,-158.51 369.43,-165.28"/>
</g>
<!-- Node4 -->
<g id="node4" class="node">
<title>Node4</title>
<g id="a_node4"><a xlink:href="classInputInterface.html#abae89c99e802186c05e97750e473dac1" target="_top" xlink:title="Set the instance for callbacks when users trigger an input action.">
<polygon fill="white" stroke="black" points="364,-126.5 364,-145.5 512,-145.5 512,-126.5 364,-126.5"/>
<text text-anchor="middle" x="438" y="-133.5" font-family="Helvetica,sans-Serif" font-size="10.00">InputInterface::setCallback</text>
</a>
</g>
</g>
<!-- Node2&#45;&gt;Node4 -->
<g id="edge3" class="edge">
<title>Node2&#45;&gt;Node4</title>
<path fill="none" stroke="midnightblue" d="M286.52,-101.62C305.55,-106.37 328.96,-112.11 350,-117 360.38,-119.41 371.49,-121.9 382.17,-124.26"/>
<polygon fill="midnightblue" stroke="midnightblue" points="381.73,-127.74 392.24,-126.46 383.22,-120.9 381.73,-127.74"/>
</g>
<!-- Node5 -->
<g id="node5" class="node">
<title>Node5</title>
<g id="a_node5"><a xlink:href="classInputInterface.html#a496b20fc72c9b458bc5b7b29bebfe672" target="_top" xlink:title="Set the debounce delay.">
<polygon fill="white" stroke="black" points="360.5,-77 360.5,-107 515.5,-107 515.5,-77 360.5,-77"/>
<text text-anchor="start" x="368.5" y="-95" font-family="Helvetica,sans-Serif" font-size="10.00">InputInterface::setDebounce</text>
<text text-anchor="middle" x="438" y="-84" font-family="Helvetica,sans-Serif" font-size="10.00">Delay</text>
</a>
</g>
</g>
<!-- Node2&#45;&gt;Node5 -->
<g id="edge4" class="edge">
<title>Node2&#45;&gt;Node5</title>
<path fill="none" stroke="midnightblue" d="M314.16,-92C325.78,-92 338.05,-92 350.14,-92"/>
<polygon fill="midnightblue" stroke="midnightblue" points="350.25,-95.5 360.25,-92 350.25,-88.5 350.25,-95.5"/>
</g>
<!-- Node7 -->
<g id="node7" class="node">
<title>Node7</title>
<g id="a_node7"><a xlink:href="classInputInterface.html#a9880a65f1358aa4f7880cddadf3ff846" target="_top" xlink:title="Set the threshold for detecting an input is held.">
<polygon fill="white" stroke="black" points="350,-38.5 350,-57.5 526,-57.5 526,-38.5 350,-38.5"/>
<text text-anchor="middle" x="438" y="-45.5" font-family="Helvetica,sans-Serif" font-size="10.00">InputInterface::setHoldThreshold</text>
</a>
</g>
</g>
<!-- Node2&#45;&gt;Node7 -->
<g id="edge6" class="edge">
<title>Node2&#45;&gt;Node7</title>
<path fill="none" stroke="midnightblue" d="M288.5,-82.48C307.18,-78.05 329.72,-72.73 350,-68 361.44,-65.33 373.73,-62.49 385.37,-59.81"/>
<polygon fill="midnightblue" stroke="midnightblue" points="386.43,-63.16 395.39,-57.51 384.86,-56.34 386.43,-63.16"/>
</g>
<!-- Node8 -->
<g id="node8" class="node">
<title>Node8</title>
<g id="a_node8"><a xlink:href="classInputInterface.html#add815941c23f1e6fe831a13738ed626c" target="_top" xlink:title="Set the logger instance to use for diagnostic logging.">
<polygon fill="white" stroke="black" points="368.5,-0.5 368.5,-19.5 507.5,-19.5 507.5,-0.5 368.5,-0.5"/>
<text text-anchor="middle" x="438" y="-7.5" font-family="Helvetica,sans-Serif" font-size="10.00">InputInterface::setLogger</text>
</a>
</g>
</g>
<!-- Node2&#45;&gt;Node8 -->
<g id="edge7" class="edge">
<title>Node2&#45;&gt;Node8</title>
<path fill="none" stroke="midnightblue" d="M260.88,-82.35C279.28,-68.48 315.4,-43.03 350,-29 356.35,-26.42 363.12,-24.17 369.96,-22.2"/>
<polygon fill="midnightblue" stroke="midnightblue" points="371.23,-25.49 379.99,-19.53 369.43,-18.72 371.23,-25.49"/>
</g>
<!-- Node6 -->
<g id="node6" class="node">
<title>Node6</title>
<g id="a_node6"><a xlink:href="Arduino_8h.html#a6bc5f943544a887f8b23cadfb26a5e30" target="_top" xlink:title=" ">
<polygon fill="white" stroke="black" points="562,-82.5 562,-101.5 606,-101.5 606,-82.5 562,-82.5"/>
<text text-anchor="middle" x="584" y="-89.5" font-family="Helvetica,sans-Serif" font-size="10.00">delay</text>
</a>
</g>
</g>
<!-- Node5&#45;&gt;Node6 -->
<g id="edge5" class="edge">
<title>Node5&#45;&gt;Node6</title>
<path fill="none" stroke="midnightblue" d="M515.64,-92C528.43,-92 541.03,-92 551.81,-92"/>
<polygon fill="midnightblue" stroke="midnightblue" points="551.92,-95.5 561.92,-92 551.92,-88.5 551.92,-95.5"/>
</g>
</g>
</svg>
        <g id="navigator" transform="translate(0 0)" fill="#404254">
                <rect fill="#f2f5e9" fill-opacity="0.5" stroke="#606060" stroke-width=".5" x="0" y="0" width="60" height="60"/>
                <use id="zoomplus" xlink:href="#zoomPlus" x="17" y="9" onmousedown="handleZoom(evt,'in')"/>
                <use id="zoomminus" xlink:href="#zoomMin" x="42" y="9" onmousedown="handleZoom(evt,'out')"/>
                <use id="reset" xlink:href="#resetDef" x="30" y="36" onmousedown="handleReset()"/>
                <g id="arrowUp" xlink:href="#dirArrow" transform="translate(30 24)" onmousedown="handlePan(0,-1)">
                  <use xlink:href="#rim" fill="#404040">
                        <set attributeName="fill" to="#808080" begin="arrowUp.mouseover" end="arrowUp.mouseout"/>
                  </use>
                  <path fill="none" stroke="white" stroke-width="1.5" d="M0,-3.0v7 M-2.5,-0.5L0,-3.0L2.5,-0.5"/>
                </g>
                <g id="arrowRight" xlink:href="#dirArrow" transform="rotate(90) translate(36 -43)" onmousedown="handlePan(1,0)">
                  <use xlink:href="#rim" fill="#404040">
                        <set attributeName="fill" to="#808080" begin="arrowRight.mouseover" end="arrowRight.mouseout"/>
                  </use>
                  <path fill="none" stroke="white" stroke-width="1.5" d="M0,-3.0v7 M-2.5,-0.5L0,-3.0L2.5,-0.5"/>
                </g>
                <g id="arrowDown" xlink:href="#dirArrow" transform="rotate(180) translate(-30 -48)" onmousedown="handlePan(0,1)">
                  <use xlink:href="#rim" fill="#404040">
                        <set attributeName="fill" to="#808080" begin="arrowDown.mouseover" end="arrowDown.mouseout"/>
                  </use>
                  <path fill="none" stroke="white" stroke-width="1.5" d="M0,-3.0v7 M-2.5,-0.5L0,-3.0L2.5,-0.5"/>
                </g>
                <g id="arrowLeft" xlink:href="#dirArrow" transform="rotate(270) translate(-36 17)" onmousedown="handlePan(-1,0)">
                  <use xlink:href="#rim" fill="#404040">
                        <set attributeName="fill" to="#808080" begin="arrowLeft.mouseover" end="arrowLeft.mouseout"/>
                  </use>
                  <path fill="none" stroke="white" stroke-width="1.5" d="M0,-3.0v7 M-2.5,-0.5L0,-3.0L2.5,-0.5"/>
                </g>
        </g>
        <svg viewBox="0 0 15 15" width="100%" height="30px" preserveAspectRatio="xMaxYMin meet">
         <g id="arrow_out" transform="scale(0.3 0.3)">
          <a xlink:href="classControllerInputActionTests_afb639f110e387a10897f635bdd329a4a_cgraph_org.svg" target="_base">
           <rect id="button" ry="5" rx="5" y="6" x="6" height="38" width="38"
                fill="#f2f5e9" fill-opacity="0.5" stroke="#606060" stroke-width="1.0"/>
           <path id="arrow"
             d="M 11.500037,31.436501 C 11.940474,20.09759 22.043105,11.32322 32.158766,21.979434 L 37.068811,17.246167 C 37.068811,17.246167 37.088388,32 37.088388,32 L 22.160133,31.978069 C 22.160133,31.978069 26.997745,27.140456 26.997745,27.140456 C 18.528582,18.264221 13.291696,25.230495 11.500037,31.436501 z"
             style="fill:#404040;"/>
          </a>
         </g>
        </svg>
</svg>
