<?xml version="1.0" encoding="UTF-8" standalone="no"?>
<!DOCTYPE svg PUBLIC "-//W3C//DTD SVG 1.1//EN"
 "http://www.w3.org/Graphics/SVG/1.1/DTD/svg11.dtd">
<!-- Generated by graphviz version 2.43.0 (0)
 -->
<!-- Title: AtFinder Pages: 1 -->
<svg width="181pt" height="225pt"
 viewBox="0.00 0.00 180.50 225.00" xmlns="http://www.w3.org/2000/svg" xmlns:xlink="http://www.w3.org/1999/xlink">
<g id="graph0" class="graph" transform="scale(1 1) rotate(0) translate(4 221)">
<title>AtFinder</title>
<!-- Node1 -->
<g id="Node000001" class="node">
<title>Node1</title>
<g id="a_Node000001"><a xlink:title="Class to monitor input stream for EXRAIL SCREEN commands Format: &lt;@ screen row &quot;Text&quot;&gt;">
<polygon fill="#999999" stroke="#666666" points="57,-19 0,-19 0,0 57,0 57,-19"/>
<text text-anchor="middle" x="28.5" y="-7" font-family="Helvetica,sans-Serif" font-size="10.00">AtFinder</text>
</a>
</g>
</g>
<!-- Node2 -->
<g id="Node000002" class="node">
<title>Node2</title>
<g id="a_Node000002"><a xlink:href="classCallbackInterface.html" target="_top" xlink:title="Interface class to use for callbacks.">
<polygon fill="white" stroke="#666666" points="172.5,-85 70.5,-85 70.5,-66 172.5,-66 172.5,-85"/>
<text text-anchor="middle" x="121.5" y="-73" font-family="Helvetica,sans-Serif" font-size="10.00">CallbackInterface</text>
</a>
</g>
</g>
<!-- Node2&#45;&gt;Node1 -->
<g id="edge1_Node000001_Node000002" class="edge">
<title>Node2&#45;&gt;Node1</title>
<g id="a_edge1_Node000001_Node000002"><a xlink:title=" ">
<path fill="none" stroke="#9a32cd" stroke-dasharray="5,2" d="M100.69,-60.18C82.42,-47.61 56.44,-29.73 41.14,-19.2"/>
<polygon fill="#9a32cd" stroke="#9a32cd" points="98.74,-63.08 108.96,-65.87 102.7,-57.32 98.74,-63.08"/>
</a>
</g>
<text text-anchor="middle" x="105" y="-40" font-family="Helvetica,sans-Serif" font-size="10.00" fill="grey"> _callback</text>
</g>
<!-- Node3 -->
<g id="Node000003" class="node">
<title>Node3</title>
<g id="a_Node000003"><a xlink:href="classLogger.html" target="_top" xlink:title="Class to enable simple logging to a Stream object with different log levels This enables embedding pe...">
<polygon fill="white" stroke="#666666" points="53.5,-151 3.5,-151 3.5,-132 53.5,-132 53.5,-151"/>
<text text-anchor="middle" x="28.5" y="-139" font-family="Helvetica,sans-Serif" font-size="10.00">Logger</text>
</a>
</g>
</g>
<!-- Node3&#45;&gt;Node1 -->
<g id="edge4_Node000001_Node000003" class="edge">
<title>Node3&#45;&gt;Node1</title>
<g id="a_edge4_Node000001_Node000003"><a xlink:title=" ">
<path fill="none" stroke="#9a32cd" stroke-dasharray="5,2" d="M25.1,-121.73C22.78,-106.68 20.31,-85.01 21.5,-66 22.55,-49.33 25.35,-30.01 27.07,-19.12"/>
<polygon fill="#9a32cd" stroke="#9a32cd" points="21.69,-122.51 26.79,-131.8 28.59,-121.36 21.69,-122.51"/>
</a>
</g>
<text text-anchor="middle" x="41.5" y="-73" font-family="Helvetica,sans-Serif" font-size="10.00" fill="grey"> _logger</text>
</g>
<!-- Node3&#45;&gt;Node2 -->
<g id="edge2_Node000002_Node000003" class="edge">
<title>Node3&#45;&gt;Node2</title>
<g id="a_edge2_Node000002_Node000003"><a xlink:title=" ">
<path fill="none" stroke="#9a32cd" stroke-dasharray="5,2" d="M49.31,-126.18C67.58,-113.61 93.56,-95.73 108.86,-85.2"/>
<polygon fill="#9a32cd" stroke="#9a32cd" points="47.3,-123.32 41.04,-131.87 51.26,-129.08 47.3,-123.32"/>
</a>
</g>
<text text-anchor="middle" x="100.5" y="-106" font-family="Helvetica,sans-Serif" font-size="10.00" fill="grey"> _logger</text>
</g>
<!-- Node4 -->
<g id="Node000004" class="node">
<title>Node4</title>
<g id="a_Node000004"><a xlink:href="classStream.html" target="_top" xlink:title="Class to mock the basic Stream function equivalent of the Arduino framework.">
<polygon fill="white" stroke="#666666" points="54.5,-217 2.5,-217 2.5,-198 54.5,-198 54.5,-217"/>
<text text-anchor="middle" x="28.5" y="-205" font-family="Helvetica,sans-Serif" font-size="10.00">Stream</text>
</a>
</g>
</g>
<!-- Node4&#45;&gt;Node3 -->
<g id="edge3_Node000003_Node000004" class="edge">
<title>Node4&#45;&gt;Node3</title>
<g id="a_edge3_Node000003_Node000004"><a xlink:title=" ">
<path fill="none" stroke="#9a32cd" stroke-dasharray="5,2" d="M28.5,-187.58C28.5,-175.63 28.5,-160.72 28.5,-151.41"/>
<polygon fill="#9a32cd" stroke="#9a32cd" points="25,-187.87 28.5,-197.87 32,-187.87 25,-187.87"/>
</a>
</g>
<text text-anchor="middle" x="66.5" y="-172" font-family="Helvetica,sans-Serif" font-size="10.00" fill="grey"> _outputStream</text>
</g>
</g>
</svg>
