<?xml version="1.0" encoding="UTF-8" standalone="no"?>
<!DOCTYPE svg PUBLIC "-//W3C//DTD SVG 1.1//EN"
 "http://www.w3.org/Graphics/SVG/1.1/DTD/svg11.dtd">
<!-- Generated by graphviz version 2.43.0 (0)
 -->
<!-- Title: ScreenManager::getFirstScreen Pages: 1 -->
<!--zoomable 211 -->
<svg id="main" version="1.1" xmlns="http://www.w3.org/2000/svg" xmlns:xlink="http://www.w3.org/1999/xlink" xml:space="preserve" onload="init(evt)">
<style type="text/css"><![CDATA[
.edge:hover path { stroke: red; }
.edge:hover polygon { stroke: red; fill: red; }
]]></style>
<script type="text/javascript"><![CDATA[
var edges = document.getElementsByTagName('g');
if (edges && edges.length) {
  for (var i=0;i<edges.length;i++) {
    if (edges[i].id.substr(0,4)=='edge') {
      edges[i].setAttribute('class','edge');
    }
  }
}
]]></script>
        <defs>
                <circle id="rim" cx="0" cy="0" r="7"/>
                <circle id="rim2" cx="0" cy="0" r="3.5"/>
                <g id="zoomPlus">
                        <use xlink:href="#rim" fill="#404040">
                                <set attributeName="fill" to="#808080" begin="zoomplus.mouseover" end="zoomplus.mouseout"/>
                        </use>
                        <path d="M-4,0h8M0,-4v8" fill="none" stroke="white" stroke-width="1.5" pointer-events="none"/>
                </g>
                <g id="zoomMin">
                        <use xlink:href="#rim" fill="#404040">
                                <set attributeName="fill" to="#808080" begin="zoomminus.mouseover" end="zoomminus.mouseout"/>
                        </use>
                        <path d="M-4,0h8" fill="none" stroke="white" stroke-width="1.5" pointer-events="none"/>
                </g>
                <g id="dirArrow">
                        <path fill="none" stroke="white" stroke-width="1.5" d="M0,-3.0v7 M-2.5,-0.5L0,-3.0L2.5,-0.5"/>
                </g>
               <g id="resetDef">
                       <use xlink:href="#rim2" fill="#404040">
                               <set attributeName="fill" to="#808080" begin="reset.mouseover" end="reset.mouseout"/>
                       </use>
               </g>
        </defs>

<script type="text/javascript">
var viewWidth = 547;
var viewHeight = 211;
var sectionId = 'dynsection-2';
</script>
<script xlink:href="svgpan.js"/>
<svg id="graph" class="graph">
<g id="viewport">
<title>ScreenManager::getFirstScreen</title>
<polygon fill="white" stroke="transparent" points="-4,4 -4,-207 543,-207 543,4 -4,4"/>
<!-- Node1 -->
<g id="node1" class="node">
<title>Node1</title>
<g id="a_node1"><a xlink:title="Get the first Screen instance in the list.">
<polygon fill="#bfbfbf" stroke="black" points="371,-101.5 371,-120.5 539,-120.5 539,-101.5 371,-101.5"/>
<text text-anchor="middle" x="455" y="-108.5" font-family="Helvetica,sans-Serif" font-size="10.00">ScreenManager::getFirstScreen</text>
</a>
</g>
</g>
<!-- Node2 -->
<g id="node2" class="node">
<title>Node2</title>
<g id="a_node2"><a xlink:href="classController.html#aa981e303ca83593ffb34db49c7d73cc6" target="_top" xlink:title="Selects the next screen for the selected display.">
<polygon fill="white" stroke="black" points="174,-183.5 174,-202.5 335,-202.5 335,-183.5 174,-183.5"/>
<text text-anchor="middle" x="254.5" y="-190.5" font-family="Helvetica,sans-Serif" font-size="10.00">Controller::_selectNextScreen</text>
</a>
</g>
</g>
<!-- Node1&#45;&gt;Node2 -->
<g id="edge1" class="edge">
<title>Node1&#45;&gt;Node2</title>
<path fill="none" stroke="midnightblue" d="M427.58,-125.4C403.82,-137.98 367.73,-156.18 335,-169 321.04,-174.47 305.3,-179.46 291.53,-183.45"/>
<polygon fill="midnightblue" stroke="midnightblue" points="429.48,-128.35 436.65,-120.55 426.19,-122.18 429.48,-128.35"/>
</g>
<!-- Node3 -->
<g id="node3" class="node">
<title>Node3</title>
<g id="a_node3"><a xlink:href="classController.html#af9c9f10320fb7770553156da4d164e64" target="_top" xlink:title="Method to implement to respond to an input action.">
<polygon fill="white" stroke="black" points="0,-145.5 0,-164.5 138,-164.5 138,-145.5 0,-145.5"/>
<text text-anchor="middle" x="69" y="-152.5" font-family="Helvetica,sans-Serif" font-size="10.00">Controller::onInputAction</text>
</a>
</g>
</g>
<!-- Node1&#45;&gt;Node3 -->
<g id="edge5" class="edge">
<title>Node1&#45;&gt;Node3</title>
<path fill="none" stroke="midnightblue" d="M405.26,-122.8C383.83,-127.58 358.28,-132.74 335,-136 268.42,-145.34 191.76,-150.2 138.07,-152.66"/>
<polygon fill="midnightblue" stroke="midnightblue" points="406.13,-126.19 415.11,-120.56 404.58,-119.36 406.13,-126.19"/>
</g>
<!-- Node4 -->
<g id="node4" class="node">
<title>Node4</title>
<g id="a_node4"><a xlink:href="classController.html#a3e02f73e534a929849f981ec892b4f54" target="_top" xlink:title="Selects the previous screen for the selected display.">
<polygon fill="white" stroke="black" points="181,-96 181,-126 328,-126 328,-96 181,-96"/>
<text text-anchor="start" x="189" y="-114" font-family="Helvetica,sans-Serif" font-size="10.00">Controller::_selectPrevious</text>
<text text-anchor="middle" x="254.5" y="-103" font-family="Helvetica,sans-Serif" font-size="10.00">Screen</text>
</a>
</g>
</g>
<!-- Node1&#45;&gt;Node4 -->
<g id="edge3" class="edge">
<title>Node1&#45;&gt;Node4</title>
<path fill="none" stroke="midnightblue" d="M360.9,-111C349.89,-111 338.77,-111 328.1,-111"/>
<polygon fill="midnightblue" stroke="midnightblue" points="360.97,-114.5 370.97,-111 360.97,-107.5 360.97,-114.5"/>
</g>
<!-- Node5 -->
<g id="node5" class="node">
<title>Node5</title>
<g id="a_node5"><a xlink:href="test__ScreenManager_8cpp.html#ae55072e56d85f84bd4a955ec7340bdd1" target="_top" xlink:title="Create a ScreenManager.">
<polygon fill="white" stroke="black" points="228.5,-57.5 228.5,-76.5 280.5,-76.5 280.5,-57.5 228.5,-57.5"/>
<text text-anchor="middle" x="254.5" y="-64.5" font-family="Helvetica,sans-Serif" font-size="10.00">TEST_F</text>
</a>
</g>
</g>
<!-- Node1&#45;&gt;Node5 -->
<g id="edge6" class="edge">
<title>Node1&#45;&gt;Node5</title>
<path fill="none" stroke="midnightblue" d="M400.8,-99.21C361.83,-90.57 310.69,-79.23 280.63,-72.57"/>
<polygon fill="midnightblue" stroke="midnightblue" points="400.41,-102.71 410.93,-101.45 401.92,-95.87 400.41,-102.71"/>
</g>
<!-- Node6 -->
<g id="node6" class="node">
<title>Node6</title>
<g id="a_node6"><a xlink:href="classController.html#a7d04c17913f04f99429aa29fa8505484" target="_top" xlink:title="Processes all ongoing activities, monitoring streams, receiving user input, updates displays,...">
<polygon fill="white" stroke="black" points="202.5,-19.5 202.5,-38.5 306.5,-38.5 306.5,-19.5 202.5,-19.5"/>
<text text-anchor="middle" x="254.5" y="-26.5" font-family="Helvetica,sans-Serif" font-size="10.00">Controller::update</text>
</a>
</g>
</g>
<!-- Node1&#45;&gt;Node6 -->
<g id="edge7" class="edge">
<title>Node1&#45;&gt;Node6</title>
<path fill="none" stroke="midnightblue" d="M430.24,-96.11C406.8,-81.99 369.56,-61.04 335,-48 325.17,-44.29 314.39,-41.14 304.01,-38.53"/>
<polygon fill="midnightblue" stroke="midnightblue" points="428.45,-99.12 438.8,-101.34 432.09,-93.14 428.45,-99.12"/>
</g>
<!-- Node2&#45;&gt;Node3 -->
<g id="edge2" class="edge">
<title>Node2&#45;&gt;Node3</title>
<path fill="none" stroke="midnightblue" d="M197.09,-181.32C171.07,-175.93 140.57,-169.61 115.97,-164.52"/>
<polygon fill="midnightblue" stroke="midnightblue" points="196.69,-184.81 207.2,-183.41 198.11,-177.96 196.69,-184.81"/>
</g>
<!-- Node4&#45;&gt;Node3 -->
<g id="edge4" class="edge">
<title>Node4&#45;&gt;Node3</title>
<path fill="none" stroke="midnightblue" d="M180.95,-128.4C156.66,-134.22 130.49,-140.5 109.67,-145.49"/>
<polygon fill="midnightblue" stroke="midnightblue" points="181.95,-131.75 190.86,-126.02 180.32,-124.95 181.95,-131.75"/>
</g>
<!-- Node7 -->
<g id="node7" class="node">
<title>Node7</title>
<g id="a_node7"><a xlink:href="EX-Display_8ino.html#afe461d27b9c48d5921c00d521181f12f" target="_top" xlink:title="Main loop, simply calls controller&#45;&gt;update() to manage all interactions.">
<polygon fill="white" stroke="black" points="50,-38.5 50,-57.5 88,-57.5 88,-38.5 50,-38.5"/>
<text text-anchor="middle" x="69" y="-45.5" font-family="Helvetica,sans-Serif" font-size="10.00">loop</text>
</a>
</g>
</g>
<!-- Node6&#45;&gt;Node7 -->
<g id="edge8" class="edge">
<title>Node6&#45;&gt;Node7</title>
<path fill="none" stroke="midnightblue" d="M192.36,-35.33C156.07,-39.09 112.55,-43.59 88.42,-46.09"/>
<polygon fill="midnightblue" stroke="midnightblue" points="192.8,-38.8 202.39,-34.29 192.08,-31.84 192.8,-38.8"/>
</g>
<!-- Node8 -->
<g id="node8" class="node">
<title>Node8</title>
<g id="a_node8"><a xlink:href="test__Controller_8cpp.html#abb9ca06c0e9bafef1a891dd9d22bd84d" target="_top" xlink:title="Ensure update() method correctly calls the mock callback.">
<polygon fill="white" stroke="black" points="43,-0.5 43,-19.5 95,-19.5 95,-0.5 43,-0.5"/>
<text text-anchor="middle" x="69" y="-7.5" font-family="Helvetica,sans-Serif" font-size="10.00">TEST_F</text>
</a>
</g>
</g>
<!-- Node6&#45;&gt;Node8 -->
<g id="edge9" class="edge">
<title>Node6&#45;&gt;Node8</title>
<path fill="none" stroke="midnightblue" d="M192.3,-22.66C159.13,-19.23 119.93,-15.17 95.03,-12.59"/>
<polygon fill="midnightblue" stroke="midnightblue" points="192.08,-26.16 202.39,-23.71 192.8,-19.2 192.08,-26.16"/>
</g>
</g>
</svg>
        <g id="navigator" transform="translate(0 0)" fill="#404254">
                <rect fill="#f2f5e9" fill-opacity="0.5" stroke="#606060" stroke-width=".5" x="0" y="0" width="60" height="60"/>
                <use id="zoomplus" xlink:href="#zoomPlus" x="17" y="9" onmousedown="handleZoom(evt,'in')"/>
                <use id="zoomminus" xlink:href="#zoomMin" x="42" y="9" onmousedown="handleZoom(evt,'out')"/>
                <use id="reset" xlink:href="#resetDef" x="30" y="36" onmousedown="handleReset()"/>
                <g id="arrowUp" xlink:href="#dirArrow" transform="translate(30 24)" onmousedown="handlePan(0,-1)">
                  <use xlink:href="#rim" fill="#404040">
                        <set attributeName="fill" to="#808080" begin="arrowUp.mouseover" end="arrowUp.mouseout"/>
                  </use>
                  <path fill="none" stroke="white" stroke-width="1.5" d="M0,-3.0v7 M-2.5,-0.5L0,-3.0L2.5,-0.5"/>
                </g>
                <g id="arrowRight" xlink:href="#dirArrow" transform="rotate(90) translate(36 -43)" onmousedown="handlePan(1,0)">
                  <use xlink:href="#rim" fill="#404040">
                        <set attributeName="fill" to="#808080" begin="arrowRight.mouseover" end="arrowRight.mouseout"/>
                  </use>
                  <path fill="none" stroke="white" stroke-width="1.5" d="M0,-3.0v7 M-2.5,-0.5L0,-3.0L2.5,-0.5"/>
                </g>
                <g id="arrowDown" xlink:href="#dirArrow" transform="rotate(180) translate(-30 -48)" onmousedown="handlePan(0,1)">
                  <use xlink:href="#rim" fill="#404040">
                        <set attributeName="fill" to="#808080" begin="arrowDown.mouseover" end="arrowDown.mouseout"/>
                  </use>
                  <path fill="none" stroke="white" stroke-width="1.5" d="M0,-3.0v7 M-2.5,-0.5L0,-3.0L2.5,-0.5"/>
                </g>
                <g id="arrowLeft" xlink:href="#dirArrow" transform="rotate(270) translate(-36 17)" onmousedown="handlePan(-1,0)">
                  <use xlink:href="#rim" fill="#404040">
                        <set attributeName="fill" to="#808080" begin="arrowLeft.mouseover" end="arrowLeft.mouseout"/>
                  </use>
                  <path fill="none" stroke="white" stroke-width="1.5" d="M0,-3.0v7 M-2.5,-0.5L0,-3.0L2.5,-0.5"/>
                </g>
        </g>
        <svg viewBox="0 0 15 15" width="100%" height="30px" preserveAspectRatio="xMaxYMin meet">
         <g id="arrow_out" transform="scale(0.3 0.3)">
          <a xlink:href="classScreenManager_a110a39ff303b98b6d308518a9d6da8ff_icgraph_org.svg" target="_base">
           <rect id="button" ry="5" rx="5" y="6" x="6" height="38" width="38"
                fill="#f2f5e9" fill-opacity="0.5" stroke="#606060" stroke-width="1.0"/>
           <path id="arrow"
             d="M 11.500037,31.436501 C 11.940474,20.09759 22.043105,11.32322 32.158766,21.979434 L 37.068811,17.246167 C 37.068811,17.246167 37.088388,32 37.088388,32 L 22.160133,31.978069 C 22.160133,31.978069 26.997745,27.140456 26.997745,27.140456 C 18.528582,18.264221 13.291696,25.230495 11.500037,31.436501 z"
             style="fill:#404040;"/>
          </a>
         </g>
        </svg>
</svg>
