<?xml version="1.0" encoding="UTF-8" standalone="no"?>
<!DOCTYPE svg PUBLIC "-//W3C//DTD SVG 1.1//EN"
 "http://www.w3.org/Graphics/SVG/1.1/DTD/svg11.dtd">
<!-- Generated by graphviz version 2.43.0 (0)
 -->
<!-- Title: ScreenRow Pages: 1 -->
<svg width="128pt" height="162pt"
 viewBox="0.00 0.00 128.00 162.00" xmlns="http://www.w3.org/2000/svg" xmlns:xlink="http://www.w3.org/1999/xlink">
<g id="graph0" class="graph" transform="scale(1 1) rotate(0) translate(4 158)">
<title>ScreenRow</title>
<polygon fill="white" stroke="transparent" points="-4,4 -4,-158 124,-158 124,4 -4,4"/>
<!-- Node1 -->
<g id="node1" class="node">
<title>Node1</title>
<g id="a_node1"><a xlink:title=" ">
<polygon fill="#bfbfbf" stroke="black" points="0,-0.5 0,-19.5 71,-19.5 71,-0.5 0,-0.5"/>
<text text-anchor="middle" x="35.5" y="-7.5" font-family="Helvetica,sans-Serif" font-size="10.00">ScreenRow</text>
</a>
</g>
</g>
<!-- Node1&#45;&gt;Node1 -->
<g id="edge1" class="edge">
<title>Node1&#45;&gt;Node1</title>
<path fill="none" stroke="#9a32cd" stroke-dasharray="5,2" d="M81.28,-14.95C85.99,-13.97 89,-12.32 89,-10 89,-6.28 81.29,-4.29 71.25,-4.03"/>
<polygon fill="#9a32cd" stroke="#9a32cd" points="80.85,-11.47 71.25,-15.97 81.56,-18.44 80.85,-11.47"/>
<text text-anchor="middle" x="104.5" y="-7.5" font-family="Helvetica,sans-Serif" font-size="10.00"> _next</text>
</g>
<!-- Node2 -->
<g id="node2" class="node">
<title>Node2</title>
<g id="a_node2"><a xlink:href="classLogger.html" target="_top" xlink:title="Class to enable simple logging to a Stream object with different log levels This enables embedding pe...">
<polygon fill="white" stroke="black" points="10.5,-67.5 10.5,-86.5 60.5,-86.5 60.5,-67.5 10.5,-67.5"/>
<text text-anchor="middle" x="35.5" y="-74.5" font-family="Helvetica,sans-Serif" font-size="10.00">Logger</text>
</a>
</g>
</g>
<!-- Node2&#45;&gt;Node1 -->
<g id="edge2" class="edge">
<title>Node2&#45;&gt;Node1</title>
<path fill="none" stroke="#9a32cd" stroke-dasharray="5,2" d="M35.5,-57.04C35.5,-44.67 35.5,-29.12 35.5,-19.63"/>
<polygon fill="#9a32cd" stroke="#9a32cd" points="32,-57.23 35.5,-67.23 39,-57.23 32,-57.23"/>
<text text-anchor="middle" x="55.5" y="-41" font-family="Helvetica,sans-Serif" font-size="10.00"> _logger</text>
</g>
<!-- Node3 -->
<g id="node3" class="node">
<title>Node3</title>
<g id="a_node3"><a xlink:href="classStream.html" target="_top" xlink:title="Class to mock the basic Stream function equivalent of the Arduino framework.">
<polygon fill="white" stroke="black" points="9.5,-134.5 9.5,-153.5 61.5,-153.5 61.5,-134.5 9.5,-134.5"/>
<text text-anchor="middle" x="35.5" y="-141.5" font-family="Helvetica,sans-Serif" font-size="10.00">Stream</text>
</a>
</g>
</g>
<!-- Node3&#45;&gt;Node2 -->
<g id="edge3" class="edge">
<title>Node3&#45;&gt;Node2</title>
<path fill="none" stroke="#9a32cd" stroke-dasharray="5,2" d="M35.5,-124.04C35.5,-111.67 35.5,-96.12 35.5,-86.63"/>
<polygon fill="#9a32cd" stroke="#9a32cd" points="32,-124.23 35.5,-134.23 39,-124.23 32,-124.23"/>
<text text-anchor="middle" x="73.5" y="-108" font-family="Helvetica,sans-Serif" font-size="10.00"> _outputStream</text>
</g>
</g>
</svg>
