<?xml version="1.0" encoding="UTF-8" standalone="no"?>
<!DOCTYPE svg PUBLIC "-//W3C//DTD SVG 1.1//EN"
 "http://www.w3.org/Graphics/SVG/1.1/DTD/svg11.dtd">
<!-- Generated by graphviz version 2.43.0 (0)
 -->
<!-- Title: Screen::_deleteScreenRow Pages: 1 -->
<svg width="594pt" height="175pt"
 viewBox="0.00 0.00 594.00 175.00" xmlns="http://www.w3.org/2000/svg" xmlns:xlink="http://www.w3.org/1999/xlink">
<g id="graph0" class="graph" transform="scale(1 1) rotate(0) translate(4 171)">
<title>Screen::_deleteScreenRow</title>
<!-- Node1 -->
<g id="Node000001" class="node">
<title>Node1</title>
<g id="a_Node000001"><a xlink:title="Delete the specified ScreenRow and update the list accordingly.">
<polygon fill="#999999" stroke="#666666" points="586,-93 440,-93 440,-74 586,-74 586,-93"/>
<text text-anchor="middle" x="513" y="-81" font-family="Helvetica,sans-Serif" font-size="10.00">Screen::_deleteScreenRow</text>
</a>
</g>
</g>
<!-- Node2 -->
<g id="Node000002" class="node">
<title>Node2</title>
<g id="a_Node000002"><a xlink:href="classScreen.html#a0a9a3a713a63ef55e854841d07630556" target="_top" xlink:title="Update the specified ScreenRow, or create it if it doesn&#39;t exist This will automatically maintain the...">
<polygon fill="white" stroke="#666666" points="404,-93 261,-93 261,-74 404,-74 404,-93"/>
<text text-anchor="middle" x="332.5" y="-81" font-family="Helvetica,sans-Serif" font-size="10.00">Screen::updateScreenRow</text>
</a>
</g>
</g>
<!-- Node1&#45;&gt;Node2 -->
<g id="edge1_Node000001_Node000002" class="edge">
<title>Node1&#45;&gt;Node2</title>
<g id="a_edge1_Node000001_Node000002"><a xlink:title=" ">
<path fill="none" stroke="#63b8ff" d="M429.87,-83.5C421.27,-83.5 412.58,-83.5 404.12,-83.5"/>
<polygon fill="#63b8ff" stroke="#63b8ff" points="429.91,-87 439.91,-83.5 429.91,-80 429.91,-87"/>
</a>
</g>
</g>
<!-- Node3 -->
<g id="Node000003" class="node">
<title>Node3</title>
<g id="a_Node000003"><a xlink:href="test__Screen_8cpp.html#a1803655bda263555436ec633fd3297da" target="_top" xlink:title="Create a screen with associated row list and check all attributes are valid.">
<polygon fill="white" stroke="#666666" points="182.5,-167 130.5,-167 130.5,-148 182.5,-148 182.5,-167"/>
<text text-anchor="middle" x="156.5" y="-155" font-family="Helvetica,sans-Serif" font-size="10.00">TEST_F</text>
</a>
</g>
</g>
<!-- Node2&#45;&gt;Node3 -->
<g id="edge2_Node000002_Node000003" class="edge">
<title>Node2&#45;&gt;Node3</title>
<g id="a_edge2_Node000002_Node000003"><a xlink:title=" ">
<path fill="none" stroke="#63b8ff" d="M307.15,-98.32C286.03,-110.67 254.32,-128.05 225,-139.5 211.33,-144.84 195.5,-149.15 182.61,-152.22"/>
<polygon fill="#63b8ff" stroke="#63b8ff" points="308.97,-101.31 315.79,-93.2 305.4,-95.28 308.97,-101.31"/>
</a>
</g>
</g>
<!-- Node4 -->
<g id="Node000004" class="node">
<title>Node4</title>
<g id="a_Node000004"><a xlink:href="test__Screen_8cpp.html#aa85ee31e3fe94a4539ca065e4d9f412c" target="_top" xlink:title="Validate rows are deleted when setting text to &quot;&quot;.">
<polygon fill="white" stroke="#666666" points="182.5,-130 130.5,-130 130.5,-111 182.5,-111 182.5,-130"/>
<text text-anchor="middle" x="156.5" y="-118" font-family="Helvetica,sans-Serif" font-size="10.00">TEST_F</text>
</a>
</g>
</g>
<!-- Node2&#45;&gt;Node4 -->
<g id="edge3_Node000002_Node000004" class="edge">
<title>Node2&#45;&gt;Node4</title>
<g id="a_edge3_Node000002_Node000004"><a xlink:title=" ">
<path fill="none" stroke="#63b8ff" d="M276.73,-95.15C245.28,-101.83 207.28,-109.91 182.77,-115.13"/>
<polygon fill="#63b8ff" stroke="#63b8ff" points="277.64,-98.53 286.69,-93.03 276.18,-91.68 277.64,-98.53"/>
</a>
</g>
</g>
<!-- Node5 -->
<g id="Node000005" class="node">
<title>Node5</title>
<g id="a_Node000005"><a xlink:href="test__Screen_8cpp.html#a9da657726211d6af0e63eaab94ad162f" target="_top" xlink:title="Create a screen with associated row list and ensure rows are accessible by ID.">
<polygon fill="white" stroke="#666666" points="182.5,-93 130.5,-93 130.5,-74 182.5,-74 182.5,-93"/>
<text text-anchor="middle" x="156.5" y="-81" font-family="Helvetica,sans-Serif" font-size="10.00">TEST_F</text>
</a>
</g>
</g>
<!-- Node2&#45;&gt;Node5 -->
<g id="edge4_Node000002_Node000005" class="edge">
<title>Node2&#45;&gt;Node5</title>
<g id="a_edge4_Node000002_Node000005"><a xlink:title=" ">
<path fill="none" stroke="#63b8ff" d="M250.84,-83.5C226.15,-83.5 200.79,-83.5 182.74,-83.5"/>
<polygon fill="#63b8ff" stroke="#63b8ff" points="250.98,-87 260.98,-83.5 250.98,-80 250.98,-87"/>
</a>
</g>
</g>
<!-- Node6 -->
<g id="Node000006" class="node">
<title>Node6</title>
<g id="a_Node000006"><a xlink:href="test__Screen_8cpp.html#af450f2926aeb50c83ec7af1fe7d97a15" target="_top" xlink:title="Validate that rows are to be redrawn by default, and not after retrieving text.">
<polygon fill="white" stroke="#666666" points="182.5,-56 130.5,-56 130.5,-37 182.5,-37 182.5,-56"/>
<text text-anchor="middle" x="156.5" y="-44" font-family="Helvetica,sans-Serif" font-size="10.00">TEST_F</text>
</a>
</g>
</g>
<!-- Node2&#45;&gt;Node6 -->
<g id="edge5_Node000002_Node000006" class="edge">
<title>Node2&#45;&gt;Node6</title>
<g id="a_edge5_Node000002_Node000006"><a xlink:title=" ">
<path fill="none" stroke="#63b8ff" d="M276.73,-71.85C245.28,-65.17 207.28,-57.09 182.77,-51.87"/>
<polygon fill="#63b8ff" stroke="#63b8ff" points="276.18,-75.32 286.69,-73.97 277.64,-68.47 276.18,-75.32"/>
</a>
</g>
</g>
<!-- Node7 -->
<g id="Node000007" class="node">
<title>Node7</title>
<g id="a_Node000007"><a xlink:href="classController.html#a908f5f6c24239286e29d4761da509963" target="_top" xlink:title="Method to implement updating a screen.">
<polygon fill="white" stroke="#666666" points="225,-19 88,-19 88,0 225,0 225,-19"/>
<text text-anchor="middle" x="156.5" y="-7" font-family="Helvetica,sans-Serif" font-size="10.00">Controller::updateScreen</text>
</a>
</g>
</g>
<!-- Node2&#45;&gt;Node7 -->
<g id="edge6_Node000002_Node000007" class="edge">
<title>Node2&#45;&gt;Node7</title>
<g id="a_edge6_Node000002_Node000007"><a xlink:title=" ">
<path fill="none" stroke="#63b8ff" d="M306.71,-68.87C285.54,-56.83 254.01,-39.94 225,-28.5 215.94,-24.93 205.95,-21.73 196.5,-19.03"/>
<polygon fill="#63b8ff" stroke="#63b8ff" points="304.97,-71.9 315.38,-73.86 308.46,-65.84 304.97,-71.9"/>
</a>
</g>
</g>
<!-- Node8 -->
<g id="Node000008" class="node">
<title>Node8</title>
<g id="a_Node000008"><a xlink:href="test__ControllerScreenCreation_8cpp.html#a9b3c4848f918df987352646ef615b8bb" target="_top" xlink:title="Validates that the Controller&#45;&gt;updateScreen() method creates a screen and updates rows correctly.">
<polygon fill="white" stroke="#666666" points="52,-19 0,-19 0,0 52,0 52,-19"/>
<text text-anchor="middle" x="26" y="-7" font-family="Helvetica,sans-Serif" font-size="10.00">TEST_F</text>
</a>
</g>
</g>
<!-- Node7&#45;&gt;Node8 -->
<g id="edge7_Node000007_Node000008" class="edge">
<title>Node7&#45;&gt;Node8</title>
<g id="a_edge7_Node000007_Node000008"><a xlink:title=" ">
<path fill="none" stroke="#63b8ff" d="M77.82,-9.5C68.67,-9.5 59.9,-9.5 52.29,-9.5"/>
<polygon fill="#63b8ff" stroke="#63b8ff" points="77.86,-13 87.86,-9.5 77.86,-6 77.86,-13"/>
</a>
</g>
</g>
</g>
</svg>
