<?xml version="1.0" encoding="UTF-8" standalone="no"?>
<!DOCTYPE svg PUBLIC "-//W3C//DTD SVG 1.1//EN"
 "http://www.w3.org/Graphics/SVG/1.1/DTD/svg11.dtd">
<!-- Generated by graphviz version 2.43.0 (0)
 -->
<!-- Title: InputInterfaceTests Pages: 1 -->
<svg width="382pt" height="299pt"
 viewBox="0.00 0.00 381.50 299.00" xmlns="http://www.w3.org/2000/svg" xmlns:xlink="http://www.w3.org/1999/xlink">

<svg id="main" version="1.1" xmlns="http://www.w3.org/2000/svg" xmlns:xlink="http://www.w3.org/1999/xlink" xml:space="preserve" onload="init(evt)">
<style type="text/css"><![CDATA[
.node, .edge {opacity: 0.7;}
.node.selected, .edge.selected {opacity: 1;}
.edge:hover path { stroke: red; }
.edge:hover polygon { stroke: red; fill: red; }
]]></style>
<script type="application/ecmascript" xlink:href="svg.min.js"/>
<svg id="graph" class="graph">
<g id="graph0" class="graph" transform="scale(1 1) rotate(0) translate(4 295)">
<title>InputInterfaceTests</title>
<!-- Node1 -->
<g id="Node000001" class="node">
<title>Node1</title>
<g id="a_Node000001"><a xlink:title="Test harness for input interface tests.">
<polygon fill="#999999" stroke="#666666" points="127,-19 17,-19 17,0 127,0 127,-19"/>
<text text-anchor="middle" x="72" y="-7" font-family="Helvetica,sans-Serif" font-size="10.00">InputInterfaceTests</text>
</a>
</g>
</g>
<!-- Node2 -->
<g id="Node000002" class="node">
<title>Node2</title>
<g id="a_Node000002"><a xlink:title=" ">
<polygon fill="white" stroke="#666666" points="36,-85 0,-85 0,-66 36,-66 36,-85"/>
<text text-anchor="middle" x="18" y="-73" font-family="Helvetica,sans-Serif" font-size="10.00">Test</text>
</a>
</g>
</g>
<!-- Node2&#45;&gt;Node1 -->
<g id="edge1_Node000001_Node000002" class="edge">
<title>Node2&#45;&gt;Node1</title>
<g id="a_edge1_Node000001_Node000002"><a xlink:title=" ">
<path fill="none" stroke="#63b8ff" d="M31.82,-58.12C42.21,-45.81 56.06,-29.39 64.49,-19.41"/>
<polygon fill="#63b8ff" stroke="#63b8ff" points="29.06,-55.97 25.28,-65.87 34.41,-60.48 29.06,-55.97"/>
</a>
</g>
</g>
<!-- Node3 -->
<g id="Node000003" class="node">
<title>Node3</title>
<g id="a_Node000003"><a xlink:href="classMockInput.html" target="_top" xlink:title="Mock physical input class.">
<polygon fill="white" stroke="#666666" points="202,-85 134,-85 134,-66 202,-66 202,-85"/>
<text text-anchor="middle" x="168" y="-73" font-family="Helvetica,sans-Serif" font-size="10.00">MockInput</text>
</a>
</g>
</g>
<!-- Node3&#45;&gt;Node1 -->
<g id="edge2_Node000001_Node000003" class="edge">
<title>Node3&#45;&gt;Node1</title>
<g id="a_edge2_Node000001_Node000003"><a xlink:title=" ">
<path fill="none" stroke="#9a32cd" stroke-dasharray="5,2" d="M146.52,-60.18C127.66,-47.61 100.84,-29.73 85.05,-19.2"/>
<polygon fill="#9a32cd" stroke="#9a32cd" points="144.79,-63.23 155.05,-65.87 148.67,-57.41 144.79,-63.23"/>
</a>
</g>
<text text-anchor="middle" x="140" y="-40" font-family="Helvetica,sans-Serif" font-size="10.00" fill="grey"> input</text>
</g>
<!-- Node4 -->
<g id="Node000004" class="node">
<title>Node4</title>
<g id="a_Node000004"><a xlink:href="classInputInterface.html" target="_top" xlink:title="Class to abstract away all physical input implementatio to enable multiple input types Default return...">
<polygon fill="white" stroke="#666666" points="210.5,-159 125.5,-159 125.5,-140 210.5,-140 210.5,-159"/>
<text text-anchor="middle" x="168" y="-147" font-family="Helvetica,sans-Serif" font-size="10.00">InputInterface</text>
</a>
</g>
</g>
<!-- Node4&#45;&gt;Node3 -->
<g id="edge3_Node000003_Node000004" class="edge">
<title>Node4&#45;&gt;Node3</title>
<g id="a_edge3_Node000003_Node000004"><a xlink:title=" ">
<path fill="none" stroke="#63b8ff" d="M168,-129.66C168,-115.21 168,-95.96 168,-85.03"/>
<polygon fill="#63b8ff" stroke="#63b8ff" points="164.5,-129.96 168,-139.96 171.5,-129.96 164.5,-129.96"/>
</a>
</g>
</g>
<!-- Node5 -->
<g id="Node000005" class="node">
<title>Node5</title>
<g id="a_Node000005"><a xlink:href="classCallbackInterface.html" target="_top" xlink:title="Interface class to use for callbacks.">
<polygon fill="white" stroke="#666666" points="133,-225 31,-225 31,-206 133,-206 133,-225"/>
<text text-anchor="middle" x="82" y="-213" font-family="Helvetica,sans-Serif" font-size="10.00">CallbackInterface</text>
</a>
</g>
</g>
<!-- Node5&#45;&gt;Node4 -->
<g id="edge4_Node000004_Node000005" class="edge">
<title>Node5&#45;&gt;Node4</title>
<g id="a_edge4_Node000004_Node000005"><a xlink:title=" ">
<path fill="none" stroke="#9a32cd" stroke-dasharray="5,2" d="M90.61,-196.45C94.54,-189.66 99.74,-182.3 106,-177 115.29,-169.13 127.26,-163.28 138.21,-159.11"/>
<polygon fill="#9a32cd" stroke="#9a32cd" points="87.3,-195.21 85.76,-205.69 93.5,-198.46 87.3,-195.21"/>
</a>
</g>
<text text-anchor="middle" x="130.5" y="-180" font-family="Helvetica,sans-Serif" font-size="10.00" fill="grey"> _callback</text>
</g>
<!-- Node9 -->
<g id="Node000009" class="node">
<title>Node9</title>
<g id="a_Node000009"><a xlink:href="classMockCallback.html" target="_top" xlink:title="Mock class to test callbacks.">
<polygon fill="white" stroke="#666666" points="114.5,-122 29.5,-122 29.5,-103 114.5,-103 114.5,-122"/>
<text text-anchor="middle" x="72" y="-110" font-family="Helvetica,sans-Serif" font-size="10.00">MockCallback</text>
</a>
</g>
</g>
<!-- Node5&#45;&gt;Node9 -->
<g id="edge11_Node000009_Node000005" class="edge">
<title>Node5&#45;&gt;Node9</title>
<g id="a_edge11_Node000009_Node000005"><a xlink:title=" ">
<path fill="none" stroke="#63b8ff" d="M80.15,-195.81C77.97,-173.84 74.46,-138.32 72.85,-122.09"/>
<polygon fill="#63b8ff" stroke="#63b8ff" points="76.68,-196.28 81.15,-205.89 83.65,-195.59 76.68,-196.28"/>
</a>
</g>
</g>
<!-- Node6 -->
<g id="Node000006" class="node">
<title>Node6</title>
<g id="a_Node000006"><a xlink:href="classLogger.html" target="_top" xlink:title="Class to enable simple logging to a Stream object with different log levels This enables embedding pe...">
<polygon fill="#fff0f0" stroke="red" points="194,-291 144,-291 144,-272 194,-272 194,-291"/>
<text text-anchor="middle" x="169" y="-279" font-family="Helvetica,sans-Serif" font-size="10.00">Logger</text>
</a>
</g>
</g>
<!-- Node6&#45;&gt;Node4 -->
<g id="edge6_Node000004_Node000006" class="edge">
<title>Node6&#45;&gt;Node4</title>
<g id="a_edge6_Node000004_Node000006"><a xlink:title=" ">
<path fill="none" stroke="#9a32cd" stroke-dasharray="5,2" d="M168.86,-261.73C168.64,-233.22 168.23,-180.09 168.07,-159.23"/>
<polygon fill="#9a32cd" stroke="#9a32cd" points="165.36,-262 168.93,-271.97 172.36,-261.94 165.36,-262"/>
</a>
</g>
<text text-anchor="middle" x="189" y="-213" font-family="Helvetica,sans-Serif" font-size="10.00" fill="grey"> _logger</text>
</g>
<!-- Node6&#45;&gt;Node5 -->
<g id="edge5_Node000005_Node000006" class="edge">
<title>Node6&#45;&gt;Node5</title>
<g id="a_edge5_Node000005_Node000006"><a xlink:title=" ">
<path fill="none" stroke="#9a32cd" stroke-dasharray="5,2" d="M137.63,-267.69C129.88,-263.84 121.84,-259.23 115,-254 104.11,-245.68 94.1,-233.34 88.02,-225.12"/>
<polygon fill="#9a32cd" stroke="#9a32cd" points="136.31,-270.93 146.85,-271.99 139.27,-264.59 136.31,-270.93"/>
</a>
</g>
<text text-anchor="middle" x="135" y="-246" font-family="Helvetica,sans-Serif" font-size="10.00" fill="grey"> _logger</text>
</g>
<!-- Node8 -->
<g id="Node000008" class="node">
<title>Node8</title>
<g id="a_Node000008"><a xlink:href="classDisplayInterface.html" target="_top" xlink:title="Class to abstract away all physical display implementation to enable multiple display types.">
<polygon fill="white" stroke="#666666" points="324.5,-225 227.5,-225 227.5,-206 324.5,-206 324.5,-225"/>
<text text-anchor="middle" x="276" y="-213" font-family="Helvetica,sans-Serif" font-size="10.00">DisplayInterface</text>
</a>
</g>
</g>
<!-- Node6&#45;&gt;Node8 -->
<g id="edge9_Node000008_Node000006" class="edge">
<title>Node6&#45;&gt;Node8</title>
<g id="a_edge9_Node000008_Node000006"><a xlink:title=" ">
<path fill="none" stroke="#9a32cd" stroke-dasharray="5,2" d="M192.09,-266.69C213.15,-254.09 243.61,-235.87 261.46,-225.2"/>
<polygon fill="#9a32cd" stroke="#9a32cd" points="190.22,-263.73 183.43,-271.87 193.81,-269.74 190.22,-263.73"/>
</a>
</g>
<text text-anchor="middle" x="248" y="-246" font-family="Helvetica,sans-Serif" font-size="10.00" fill="grey"> _logger</text>
</g>
<!-- Node8&#45;&gt;Node4 -->
<g id="edge7_Node000004_Node000008" class="edge">
<title>Node8&#45;&gt;Node4</title>
<g id="a_edge7_Node000004_Node000008"><a xlink:title=" ">
<path fill="none" stroke="#9a32cd" stroke-dasharray="5,2" d="M252.7,-200.69C231.44,-188.09 200.69,-169.87 182.68,-159.2"/>
<polygon fill="#9a32cd" stroke="#9a32cd" points="251.05,-203.78 261.43,-205.87 254.62,-197.76 251.05,-203.78"/>
</a>
</g>
<text text-anchor="middle" x="250" y="-180" font-family="Helvetica,sans-Serif" font-size="10.00" fill="grey"> _display</text>
</g>
<!-- Node8&#45;&gt;Node8 -->
<g id="edge8_Node000008_Node000008" class="edge">
<title>Node8&#45;&gt;Node8</title>
<g id="a_edge8_Node000008_Node000008"><a xlink:title=" ">
<path fill="none" stroke="#9a32cd" stroke-dasharray="5,2" d="M334.88,-220.08C339.59,-219.08 342.5,-217.55 342.5,-215.5 342.5,-212.22 335.04,-210.28 324.71,-209.69"/>
<polygon fill="#9a32cd" stroke="#9a32cd" points="334.22,-216.63 324.71,-221.31 335.06,-223.58 334.22,-216.63"/>
</a>
</g>
<text text-anchor="middle" x="358" y="-213" font-family="Helvetica,sans-Serif" font-size="10.00" fill="grey"> _next</text>
</g>
<!-- Node9&#45;&gt;Node1 -->
<g id="edge10_Node000001_Node000009" class="edge">
<title>Node9&#45;&gt;Node1</title>
<g id="a_edge10_Node000001_Node000009"><a xlink:title=" ">
<path fill="none" stroke="#9a32cd" stroke-dasharray="5,2" d="M72,-92.81C72,-70.84 72,-35.32 72,-19.09"/>
<polygon fill="#9a32cd" stroke="#9a32cd" points="68.5,-92.89 72,-102.89 75.5,-92.89 68.5,-92.89"/>
</a>
</g>
<text text-anchor="middle" x="94" y="-73" font-family="Helvetica,sans-Serif" font-size="10.00" fill="grey"> callback</text>
</g>
</g>
</svg>
</svg>

<style type='text/css'>
<![CDATA[
[data-mouse-over-selected='false'] { opacity: 0.7; }
[data-mouse-over-selected='true']  { opacity: 1.0; }
]]>
</style>
<script type="application/ecmascript"><![CDATA[
document.addEventListener('DOMContentLoaded', (event) => {
  highlightEdges();
  highlightAdjacentNodes();
});
]]></script>
</svg>
