<?xml version="1.0" encoding="UTF-8" standalone="no"?>
<!DOCTYPE svg PUBLIC "-//W3C//DTD SVG 1.1//EN"
 "http://www.w3.org/Graphics/SVG/1.1/DTD/svg11.dtd">
<!-- Generated by graphviz version 2.43.0 (0)
 -->
<!-- Title: ControllerScreenCreation Pages: 1 -->
<!--zoomable 437 -->

<svg id="main" version="1.1" xmlns="http://www.w3.org/2000/svg" xmlns:xlink="http://www.w3.org/1999/xlink" xml:space="preserve" onload="init(evt)">
<style type="text/css"><![CDATA[
.node, .edge {opacity: 0.7;}
.node.selected, .edge.selected {opacity: 1;}
.edge:hover path { stroke: red; }
.edge:hover polygon { stroke: red; fill: red; }
]]></style>

<defs>
  <circle id="rim" cx="0" cy="0" r="7"/>
  <circle id="rim2" cx="0" cy="0" r="3.5"/>
  <g id="zoomPlus">
    <use xlink:href="#rim" fill="#404040"><set attributeName="fill" to="#808080" begin="zoomplus.mouseover" end="zoomplus.mouseout"/></use>
    <path d="M-4,0h8M0,-4v8" fill="none" stroke="white" stroke-width="1.5" pointer-events="none"/>
  </g>
  <g id="zoomMin">
    <use xlink:href="#rim" fill="#404040"><set attributeName="fill" to="#808080" begin="zoomminus.mouseover" end="zoomminus.mouseout"/></use>
    <path d="M-4,0h8" fill="none" stroke="white" stroke-width="1.5" pointer-events="none"/>
  </g>
  <g id="arrowUp" transform="translate(30 24)">
    <use xlink:href="#rim"/>
    <path pointer-events="none" fill="none" stroke="white" stroke-width="1.5" d="M0,-3.0v7 M-2.5,-0.5L0,-3.0L2.5,-0.5"/>
  </g>
  <g id="arrowRight" transform="rotate(90) translate(36 -43)">
    <use xlink:href="#rim"/>
    <path pointer-events="none" fill="none" stroke="white" stroke-width="1.5" d="M0,-3.0v7 M-2.5,-0.5L0,-3.0L2.5,-0.5"/>
  </g>
  <g id="arrowDown" transform="rotate(180) translate(-30 -48)">
    <use xlink:href="#rim"/>
    <path pointer-events="none" fill="none" stroke="white" stroke-width="1.5" d="M0,-3.0v7 M-2.5,-0.5L0,-3.0L2.5,-0.5"/>
  </g>
  <g id="arrowLeft" transform="rotate(270) translate(-36 17)">
    <use xlink:href="#rim"/>
    <path pointer-events="none" fill="none" stroke="white" stroke-width="1.5" d="M0,-3.0v7 M-2.5,-0.5L0,-3.0L2.5,-0.5"/>
  </g>
  <g id="resetDef">
    <use xlink:href="#rim2" fill="#404040"><set attributeName="fill" to="#808080" begin="reset.mouseover" end="reset.mouseout"/></use>
  </g>
</defs>
<script type="application/ecmascript">
var viewWidth = 967;
var viewHeight = 437;
var sectionId = 'dynsection-1';
</script>
<script type="application/ecmascript" xlink:href="svg.min.js"/>
<svg id="graph" class="graph">
<g id="viewport">
<title>ControllerScreenCreation</title>
<!-- Node1 -->
<g id="Node000001" class="node">
<title>Node1</title>
<g id="a_Node000001"><a xlink:title="Test harness for ensuring displays are updated when screen updates are received.">
<polygon fill="#999999" stroke="#666666" points="224.5,-19 85.5,-19 85.5,0 224.5,0 224.5,-19"/>
<text text-anchor="middle" x="155" y="-7" font-family="Helvetica,sans-Serif" font-size="10.00">ControllerScreenCreation</text>
</a>
</g>
</g>
<!-- Node2 -->
<g id="Node000002" class="node">
<title>Node2</title>
<g id="a_Node000002"><a xlink:title=" ">
<polygon fill="white" stroke="#666666" points="36,-85 0,-85 0,-66 36,-66 36,-85"/>
<text text-anchor="middle" x="18" y="-73" font-family="Helvetica,sans-Serif" font-size="10.00">Test</text>
</a>
</g>
</g>
<!-- Node2&#45;&gt;Node1 -->
<g id="edge1_Node000001_Node000002" class="edge">
<title>Node2&#45;&gt;Node1</title>
<g id="a_edge1_Node000001_Node000002"><a xlink:title=" ">
<path fill="none" stroke="#63b8ff" d="M29.18,-57.15C34.65,-49.94 41.82,-42.08 50,-37 63.42,-28.67 79.33,-22.95 94.66,-19.03"/>
<polygon fill="#63b8ff" stroke="#63b8ff" points="26.08,-55.48 23.22,-65.68 31.82,-59.49 26.08,-55.48"/>
</a>
</g>
</g>
<!-- Node3 -->
<g id="Node000003" class="node">
<title>Node3</title>
<g id="a_Node000003"><a xlink:href="classStream.html" target="_top" xlink:title="Class to mock the basic Stream function equivalent of the Arduino framework.">
<polygon fill="white" stroke="#666666" points="166,-429 114,-429 114,-410 166,-410 166,-429"/>
<text text-anchor="middle" x="140" y="-417" font-family="Helvetica,sans-Serif" font-size="10.00">Stream</text>
</a>
</g>
</g>
<!-- Node3&#45;&gt;Node1 -->
<g id="edge2_Node000001_Node000003" class="edge">
<title>Node3&#45;&gt;Node1</title>
<g id="a_edge2_Node000001_Node000003"><a xlink:title=" ">
<path fill="none" stroke="#9a32cd" stroke-dasharray="5,2" d="M106.78,-405.58C86.33,-395.22 64,-378.43 64,-354.5 64,-354.5 64,-354.5 64,-74.5 64,-45.14 96.08,-28.08 122.15,-19.07"/>
<polygon fill="#9a32cd" stroke="#9a32cd" points="105.41,-408.81 115.95,-409.89 108.39,-402.47 105.41,-408.81"/>
</a>
</g>
<text text-anchor="middle" x="107.5" y="-212" font-family="Helvetica,sans-Serif" font-size="10.00" fill="grey"> commandStation</text>
<text text-anchor="middle" x="107.5" y="-201" font-family="Helvetica,sans-Serif" font-size="10.00" fill="grey">console</text>
</g>
<!-- Node7 -->
<g id="Node000007" class="node">
<title>Node7</title>
<g id="a_Node000007"><a xlink:href="classLogger.html" target="_top" xlink:title="Class to enable simple logging to a Stream object with different log levels This enables embedding pe...">
<polygon fill="white" stroke="#666666" points="581,-363 531,-363 531,-344 581,-344 581,-363"/>
<text text-anchor="middle" x="556" y="-351" font-family="Helvetica,sans-Serif" font-size="10.00">Logger</text>
</a>
</g>
</g>
<!-- Node3&#45;&gt;Node7 -->
<g id="edge9_Node000007_Node000003" class="edge">
<title>Node3&#45;&gt;Node7</title>
<g id="a_edge9_Node000007_Node000003"><a xlink:title=" ">
<path fill="none" stroke="#9a32cd" stroke-dasharray="5,2" d="M175.94,-412.97C258.46,-400.27 459.86,-369.29 530.78,-358.38"/>
<polygon fill="#9a32cd" stroke="#9a32cd" points="175.37,-409.52 166.02,-414.5 176.44,-416.44 175.37,-409.52"/>
</a>
</g>
<text text-anchor="middle" x="411" y="-384" font-family="Helvetica,sans-Serif" font-size="10.00" fill="grey"> _outputStream</text>
</g>
<!-- Node8 -->
<g id="Node000008" class="node">
<title>Node8</title>
<g id="a_Node000008"><a xlink:href="classController.html" target="_top" xlink:title="Class for the central controller for EX&#45;Display. All application activities are controlled through th...">
<polygon fill="white" stroke="#666666" points="512.5,-85 447.5,-85 447.5,-66 512.5,-66 512.5,-85"/>
<text text-anchor="middle" x="480" y="-73" font-family="Helvetica,sans-Serif" font-size="10.00">Controller</text>
</a>
</g>
</g>
<!-- Node3&#45;&gt;Node8 -->
<g id="edge15_Node000008_Node000003" class="edge">
<title>Node3&#45;&gt;Node8</title>
<g id="a_edge15_Node000008_Node000003"><a xlink:title=" ">
<path fill="none" stroke="#9a32cd" stroke-dasharray="5,2" d="M136.54,-399.77C131.13,-364.63 124.55,-287.84 159,-238 228.7,-137.16 380.52,-95.97 447.33,-82.27"/>
<polygon fill="#9a32cd" stroke="#9a32cd" points="133.15,-400.72 138.27,-410 140.05,-399.55 133.15,-400.72"/>
</a>
</g>
<text text-anchor="middle" x="222.5" y="-252" font-family="Helvetica,sans-Serif" font-size="10.00" fill="grey"> _commandStationStream</text>
<text text-anchor="middle" x="222.5" y="-241" font-family="Helvetica,sans-Serif" font-size="10.00" fill="grey">_consoleStream</text>
</g>
<!-- Node4 -->
<g id="Node000004" class="node">
<title>Node4</title>
<g id="a_Node000004"><a xlink:href="classScreenManager.html" target="_top" xlink:title="Class to manage all EX&#45;Display screens.">
<polygon fill="white" stroke="#666666" points="802,-151 710,-151 710,-132 802,-132 802,-151"/>
<text text-anchor="middle" x="756" y="-139" font-family="Helvetica,sans-Serif" font-size="10.00">ScreenManager</text>
</a>
</g>
</g>
<!-- Node4&#45;&gt;Node1 -->
<g id="edge3_Node000001_Node000004" class="edge">
<title>Node4&#45;&gt;Node1</title>
<g id="a_edge3_Node000001_Node000004"><a xlink:title=" ">
<path fill="none" stroke="#9a32cd" stroke-dasharray="5,2" d="M752,-121.87C749.62,-114.98 745.86,-107.72 740,-103 616.98,-4.08 547.1,-60.49 391,-37 335.25,-28.61 271.72,-21.62 224.63,-16.93"/>
<polygon fill="#9a32cd" stroke="#9a32cd" points="748.74,-123.21 754.73,-131.95 755.5,-121.38 748.74,-123.21"/>
</a>
</g>
<text text-anchor="middle" x="752.5" y="-73" font-family="Helvetica,sans-Serif" font-size="10.00" fill="grey"> screenManager</text>
</g>
<!-- Node4&#45;&gt;Node8 -->
<g id="edge29_Node000008_Node000004" class="edge">
<title>Node4&#45;&gt;Node8</title>
<g id="a_edge29_Node000008_Node000004"><a xlink:title=" ">
<path fill="none" stroke="#9a32cd" stroke-dasharray="5,2" d="M713.5,-129.27C695.73,-124.56 674.86,-119.03 656,-114 637.77,-109.14 633.38,-107.26 615,-103 580.22,-94.93 540.02,-87.25 512.59,-82.25"/>
<polygon fill="#9a32cd" stroke="#9a32cd" points="713,-132.76 723.57,-131.93 714.8,-125.99 713,-132.76"/>
</a>
</g>
<text text-anchor="middle" x="698" y="-106" font-family="Helvetica,sans-Serif" font-size="10.00" fill="grey"> _screenManager</text>
</g>
<!-- Node5 -->
<g id="Node000005" class="node">
<title>Node5</title>
<g id="a_Node000005"><a xlink:href="classScreen.html" target="_top" xlink:title="Class for each screen as received from the EXRAIL SCREEN() command Each Screen instance contains a li...">
<polygon fill="white" stroke="#666666" points="847,-218.5 797,-218.5 797,-199.5 847,-199.5 847,-218.5"/>
<text text-anchor="middle" x="822" y="-206.5" font-family="Helvetica,sans-Serif" font-size="10.00">Screen</text>
</a>
</g>
</g>
<!-- Node5&#45;&gt;Node4 -->
<g id="edge4_Node000004_Node000005" class="edge">
<title>Node5&#45;&gt;Node4</title>
<g id="a_edge4_Node000004_Node000005"><a xlink:title=" ">
<path fill="none" stroke="#9a32cd" stroke-dasharray="5,2" d="M806.05,-192.17C793.11,-179.33 775.36,-161.71 764.84,-151.27"/>
<polygon fill="#9a32cd" stroke="#9a32cd" points="803.81,-194.88 813.37,-199.44 808.74,-189.91 803.81,-194.88"/>
</a>
</g>
<text text-anchor="middle" x="823.5" y="-172" font-family="Helvetica,sans-Serif" font-size="10.00" fill="grey"> _firstScreen</text>
</g>
<!-- Node5&#45;&gt;Node5 -->
<g id="edge5_Node000005_Node000005" class="edge">
<title>Node5&#45;&gt;Node5</title>
<g id="a_edge5_Node000005_Node000005"><a xlink:title=" ">
<path fill="none" stroke="#9a32cd" stroke-dasharray="5,2" d="M857.45,-214.58C862,-213.61 865,-211.75 865,-209 865,-204.48 856.91,-202.37 847.18,-202.65"/>
<polygon fill="#9a32cd" stroke="#9a32cd" points="856.89,-211.11 847.18,-215.35 857.41,-218.1 856.89,-211.11"/>
</a>
</g>
<text text-anchor="middle" x="880.5" y="-206.5" font-family="Helvetica,sans-Serif" font-size="10.00" fill="grey"> _next</text>
</g>
<!-- Node6 -->
<g id="Node000006" class="node">
<title>Node6</title>
<g id="a_Node000006"><a xlink:href="classScreenRow.html" target="_top" xlink:title=" ">
<polygon fill="white" stroke="#666666" points="857.5,-297 786.5,-297 786.5,-278 857.5,-278 857.5,-297"/>
<text text-anchor="middle" x="822" y="-285" font-family="Helvetica,sans-Serif" font-size="10.00">ScreenRow</text>
</a>
</g>
</g>
<!-- Node6&#45;&gt;Node5 -->
<g id="edge6_Node000005_Node000006" class="edge">
<title>Node6&#45;&gt;Node5</title>
<g id="a_edge6_Node000005_Node000006"><a xlink:title=" ">
<path fill="none" stroke="#9a32cd" stroke-dasharray="5,2" d="M822,-267.6C822,-251.97 822,-230.49 822,-218.67"/>
<polygon fill="#9a32cd" stroke="#9a32cd" points="818.5,-267.72 822,-277.72 825.5,-267.72 818.5,-267.72"/>
</a>
</g>
<text text-anchor="middle" x="863" y="-246.5" font-family="Helvetica,sans-Serif" font-size="10.00" fill="grey"> _firstScreenRow</text>
</g>
<!-- Node6&#45;&gt;Node6 -->
<g id="edge7_Node000006_Node000006" class="edge">
<title>Node6&#45;&gt;Node6</title>
<g id="a_edge7_Node000006_Node000006"><a xlink:title=" ">
<path fill="none" stroke="#9a32cd" stroke-dasharray="5,2" d="M867.78,-292.45C872.49,-291.47 875.5,-289.82 875.5,-287.5 875.5,-283.78 867.79,-281.79 857.75,-281.53"/>
<polygon fill="#9a32cd" stroke="#9a32cd" points="867.35,-288.97 857.75,-293.47 868.06,-295.94 867.35,-288.97"/>
</a>
</g>
<text text-anchor="middle" x="891" y="-285" font-family="Helvetica,sans-Serif" font-size="10.00" fill="grey"> _next</text>
</g>
<!-- Node7&#45;&gt;Node4 -->
<g id="edge11_Node000004_Node000007" class="edge">
<title>Node7&#45;&gt;Node4</title>
<g id="a_edge11_Node000004_Node000007"><a xlink:title=" ">
<path fill="none" stroke="#9a32cd" stroke-dasharray="5,2" d="M591.63,-350.24C628.72,-345.92 685.8,-333.37 718,-297 756.63,-253.36 757.4,-176.7 756.47,-151.1"/>
<polygon fill="#9a32cd" stroke="#9a32cd" points="590.87,-346.8 581.28,-351.3 591.58,-353.77 590.87,-346.8"/>
</a>
</g>
<text text-anchor="middle" x="768" y="-246.5" font-family="Helvetica,sans-Serif" font-size="10.00" fill="grey"> _logger</text>
</g>
<!-- Node7&#45;&gt;Node5 -->
<g id="edge10_Node000005_Node000007" class="edge">
<title>Node7&#45;&gt;Node5</title>
<g id="a_edge10_Node000005_Node000007"><a xlink:title=" ">
<path fill="none" stroke="#9a32cd" stroke-dasharray="5,2" d="M591.25,-353.1C674.37,-353.63 878.38,-349.45 915,-297 922.87,-285.72 914.04,-244.96 908,-238 892.87,-220.57 866.76,-213.92 847.27,-211.42"/>
<polygon fill="#9a32cd" stroke="#9a32cd" points="591.08,-349.6 581.04,-353.01 591.01,-356.6 591.08,-349.6"/>
</a>
</g>
<text text-anchor="middle" x="939" y="-285" font-family="Helvetica,sans-Serif" font-size="10.00" fill="grey"> _logger</text>
</g>
<!-- Node7&#45;&gt;Node6 -->
<g id="edge8_Node000006_Node000007" class="edge">
<title>Node7&#45;&gt;Node6</title>
<g id="a_edge8_Node000006_Node000007"><a xlink:title=" ">
<path fill="none" stroke="#9a32cd" stroke-dasharray="5,2" d="M591.34,-350.38C643.93,-346.86 740.03,-338.87 772,-326 788.31,-319.43 804,-306.16 813.32,-297.3"/>
<polygon fill="#9a32cd" stroke="#9a32cd" points="590.88,-346.9 581.13,-351.05 591.33,-353.89 590.88,-346.9"/>
</a>
</g>
<text text-anchor="middle" x="812" y="-318" font-family="Helvetica,sans-Serif" font-size="10.00" fill="grey"> _logger</text>
</g>
<!-- Node9 -->
<g id="Node000009" class="node">
<title>Node9</title>
<g id="a_Node000009"><a xlink:href="classCallbackInterface.html" target="_top" xlink:title="Interface class to use for callbacks.">
<polygon fill="white" stroke="#666666" points="413,-297 311,-297 311,-278 413,-278 413,-297"/>
<text text-anchor="middle" x="362" y="-285" font-family="Helvetica,sans-Serif" font-size="10.00">CallbackInterface</text>
</a>
</g>
</g>
<!-- Node7&#45;&gt;Node9 -->
<g id="edge14_Node000009_Node000007" class="edge">
<title>Node7&#45;&gt;Node9</title>
<g id="a_edge14_Node000009_Node000007"><a xlink:title=" ">
<path fill="none" stroke="#9a32cd" stroke-dasharray="5,2" d="M520.43,-353.36C486.24,-352.7 434.12,-347.69 395,-326 382.71,-319.19 372.76,-305.98 367.11,-297.2"/>
<polygon fill="#9a32cd" stroke="#9a32cd" points="520.84,-356.86 530.87,-353.44 520.89,-349.86 520.84,-356.86"/>
</a>
</g>
<text text-anchor="middle" x="415" y="-318" font-family="Helvetica,sans-Serif" font-size="10.00" fill="grey"> _logger</text>
</g>
<!-- Node10 -->
<g id="Node000010" class="node">
<title>Node10</title>
<g id="a_Node000010"><a xlink:href="classDisplayManager.html" target="_top" xlink:title="Manages all physical displays.">
<polygon fill="white" stroke="#666666" points="730,-218.5 634,-218.5 634,-199.5 730,-199.5 730,-218.5"/>
<text text-anchor="middle" x="682" y="-206.5" font-family="Helvetica,sans-Serif" font-size="10.00">DisplayManager</text>
</a>
</g>
</g>
<!-- Node7&#45;&gt;Node10 -->
<g id="edge20_Node000010_Node000007" class="edge">
<title>Node7&#45;&gt;Node10</title>
<g id="a_edge20_Node000010_Node000007"><a xlink:title=" ">
<path fill="none" stroke="#9a32cd" stroke-dasharray="5,2" d="M590.56,-341.72C613.57,-332.96 642.95,-318.49 662,-297 682.04,-274.38 683.16,-235.74 682.55,-218.61"/>
<polygon fill="#9a32cd" stroke="#9a32cd" points="589.35,-338.43 581.14,-345.13 591.73,-345.02 589.35,-338.43"/>
</a>
</g>
<text text-anchor="middle" x="694" y="-285" font-family="Helvetica,sans-Serif" font-size="10.00" fill="grey"> _logger</text>
</g>
<!-- Node11 -->
<g id="Node000011" class="node">
<title>Node11</title>
<g id="a_Node000011"><a xlink:href="classDisplayInterface.html" target="_top" xlink:title="Class to abstract away all physical display implementation to enable multiple display types.">
<polygon fill="white" stroke="#666666" points="604.5,-297 507.5,-297 507.5,-278 604.5,-278 604.5,-297"/>
<text text-anchor="middle" x="556" y="-285" font-family="Helvetica,sans-Serif" font-size="10.00">DisplayInterface</text>
</a>
</g>
</g>
<!-- Node7&#45;&gt;Node11 -->
<g id="edge19_Node000011_Node000007" class="edge">
<title>Node7&#45;&gt;Node11</title>
<g id="a_edge19_Node000011_Node000007"><a xlink:title=" ">
<path fill="none" stroke="#9a32cd" stroke-dasharray="5,2" d="M556,-333.58C556,-321.63 556,-306.72 556,-297.41"/>
<polygon fill="#9a32cd" stroke="#9a32cd" points="552.5,-333.87 556,-343.87 559.5,-333.87 552.5,-333.87"/>
</a>
</g>
<text text-anchor="middle" x="576" y="-318" font-family="Helvetica,sans-Serif" font-size="10.00" fill="grey"> _logger</text>
</g>
<!-- Node12 -->
<g id="Node000012" class="node">
<title>Node12</title>
<g id="a_Node000012"><a xlink:href="classInputManager.html" target="_top" xlink:title=" ">
<polygon fill="white" stroke="#666666" points="477,-151 393,-151 393,-132 477,-132 477,-151"/>
<text text-anchor="middle" x="435" y="-139" font-family="Helvetica,sans-Serif" font-size="10.00">InputManager</text>
</a>
</g>
</g>
<!-- Node7&#45;&gt;Node12 -->
<g id="edge27_Node000012_Node000007" class="edge">
<title>Node7&#45;&gt;Node12</title>
<g id="a_edge27_Node000012_Node000007"><a xlink:title=" ">
<path fill="none" stroke="#9a32cd" stroke-dasharray="5,2" d="M520.74,-350.51C456.92,-346.04 326.56,-332.65 302,-297 266.03,-244.78 312.97,-205.24 365,-169 376.3,-161.13 390.25,-155.23 402.71,-151.02"/>
<polygon fill="#9a32cd" stroke="#9a32cd" points="520.54,-354 530.75,-351.17 521.01,-347.02 520.54,-354"/>
</a>
</g>
<text text-anchor="middle" x="315" y="-246.5" font-family="Helvetica,sans-Serif" font-size="10.00" fill="grey"> _logger</text>
</g>
<!-- Node13 -->
<g id="Node000013" class="node">
<title>Node13</title>
<g id="a_Node000013"><a xlink:href="classInputInterface.html" target="_top" xlink:title="Class to abstract away all physical input implementatio to enable multiple input types Default return...">
<polygon fill="white" stroke="#666666" points="497.5,-218.5 412.5,-218.5 412.5,-199.5 497.5,-199.5 497.5,-218.5"/>
<text text-anchor="middle" x="455" y="-206.5" font-family="Helvetica,sans-Serif" font-size="10.00">InputInterface</text>
</a>
</g>
</g>
<!-- Node7&#45;&gt;Node13 -->
<g id="edge25_Node000013_Node000007" class="edge">
<title>Node7&#45;&gt;Node13</title>
<g id="a_edge25_Node000013_Node000007"><a xlink:title=" ">
<path fill="none" stroke="#9a32cd" stroke-dasharray="5,2" d="M521.47,-342.64C499.23,-334.32 471.95,-320.01 458,-297 442.88,-272.06 448.85,-235.27 452.71,-218.68"/>
<polygon fill="#9a32cd" stroke="#9a32cd" points="520.36,-345.96 530.95,-345.94 522.66,-339.35 520.36,-345.96"/>
</a>
</g>
<text text-anchor="middle" x="478" y="-285" font-family="Helvetica,sans-Serif" font-size="10.00" fill="grey"> _logger</text>
</g>
<!-- Node8&#45;&gt;Node1 -->
<g id="edge12_Node000001_Node000008" class="edge">
<title>Node8&#45;&gt;Node1</title>
<g id="a_edge12_Node000001_Node000008"><a xlink:title=" ">
<path fill="none" stroke="#9a32cd" stroke-dasharray="5,2" d="M437.5,-66.13C375.51,-53.92 260.88,-31.35 198.39,-19.04"/>
<polygon fill="#9a32cd" stroke="#9a32cd" points="436.86,-69.57 447.35,-68.07 438.21,-62.7 436.86,-69.57"/>
</a>
</g>
<text text-anchor="middle" x="362" y="-40" font-family="Helvetica,sans-Serif" font-size="10.00" fill="grey"> controller</text>
</g>
<!-- Node9&#45;&gt;Node8 -->
<g id="edge13_Node000008_Node000009" class="edge">
<title>Node9&#45;&gt;Node8</title>
<g id="a_edge13_Node000008_Node000009"><a xlink:title=" ">
<path fill="none" stroke="#63b8ff" d="M422.98,-280.41C466.4,-275.43 518.24,-267.95 525,-260 530.26,-253.81 539.86,-155.54 512,-103 508.15,-95.74 501.38,-89.69 495.06,-85.21"/>
<polygon fill="#63b8ff" stroke="#63b8ff" points="422.55,-276.93 413.01,-281.52 423.33,-283.89 422.55,-276.93"/>
</a>
</g>
</g>
<!-- Node9&#45;&gt;Node12 -->
<g id="edge28_Node000012_Node000009" class="edge">
<title>Node9&#45;&gt;Node12</title>
<g id="a_edge28_Node000012_Node000009"><a xlink:title=" ">
<path fill="none" stroke="#9a32cd" stroke-dasharray="5,2" d="M354.85,-268.44C348.65,-249.71 342.34,-220.12 354,-198 366.16,-174.93 392.72,-159.61 412.12,-151.02"/>
<polygon fill="#9a32cd" stroke="#9a32cd" points="351.56,-269.64 358.26,-277.84 358.14,-267.25 351.56,-269.64"/>
</a>
</g>
<text text-anchor="middle" x="378.5" y="-206.5" font-family="Helvetica,sans-Serif" font-size="10.00" fill="grey"> _callback</text>
</g>
<!-- Node9&#45;&gt;Node13 -->
<g id="edge24_Node000013_Node000009" class="edge">
<title>Node9&#45;&gt;Node13</title>
<g id="a_edge24_Node000013_Node000009"><a xlink:title=" ">
<path fill="none" stroke="#9a32cd" stroke-dasharray="5,2" d="M366.7,-267.97C370.07,-257.96 375.54,-246.05 384,-238 393.41,-229.05 406.02,-222.85 418,-218.61"/>
<polygon fill="#9a32cd" stroke="#9a32cd" points="363.27,-267.22 363.83,-277.8 369.99,-269.18 363.27,-267.22"/>
</a>
</g>
<text text-anchor="middle" x="408.5" y="-246.5" font-family="Helvetica,sans-Serif" font-size="10.00" fill="grey"> _callback</text>
</g>
<!-- Node10&#45;&gt;Node8 -->
<g id="edge16_Node000008_Node000010" class="edge">
<title>Node10&#45;&gt;Node8</title>
<g id="a_edge16_Node000008_Node000010"><a xlink:title=" ">
<path fill="none" stroke="#9a32cd" stroke-dasharray="5,2" d="M663.98,-192.62C637.85,-170.82 587.4,-130.54 540,-103 528.09,-96.08 514.03,-89.78 502.52,-85.06"/>
<polygon fill="#9a32cd" stroke="#9a32cd" points="661.96,-195.5 671.86,-199.26 666.47,-190.14 661.96,-195.5"/>
</a>
</g>
<text text-anchor="middle" x="655.5" y="-139" font-family="Helvetica,sans-Serif" font-size="10.00" fill="grey"> _displayManager</text>
</g>
<!-- Node11&#45;&gt;Node10 -->
<g id="edge17_Node000010_Node000011" class="edge">
<title>Node11&#45;&gt;Node10</title>
<g id="a_edge17_Node000010_Node000011"><a xlink:title=" ">
<path fill="none" stroke="#9a32cd" stroke-dasharray="5,2" d="M573.27,-271.3C588.9,-257.58 609.83,-239.32 612,-238 625.3,-229.9 641.36,-223.28 654.74,-218.51"/>
<polygon fill="#9a32cd" stroke="#9a32cd" points="570.9,-268.72 565.7,-277.95 575.52,-273.98 570.9,-268.72"/>
</a>
</g>
<text text-anchor="middle" x="644" y="-246.5" font-family="Helvetica,sans-Serif" font-size="10.00" fill="grey"> _firstDisplay</text>
</g>
<!-- Node11&#45;&gt;Node11 -->
<g id="edge18_Node000011_Node000011" class="edge">
<title>Node11&#45;&gt;Node11</title>
<g id="a_edge18_Node000011_Node000011"><a xlink:title=" ">
<path fill="none" stroke="#9a32cd" stroke-dasharray="5,2" d="M614.88,-292.08C619.59,-291.08 622.5,-289.55 622.5,-287.5 622.5,-284.22 615.04,-282.28 604.71,-281.69"/>
<polygon fill="#9a32cd" stroke="#9a32cd" points="614.22,-288.63 604.71,-293.31 615.06,-295.58 614.22,-288.63"/>
</a>
</g>
<text text-anchor="middle" x="638" y="-285" font-family="Helvetica,sans-Serif" font-size="10.00" fill="grey"> _next</text>
</g>
<!-- Node11&#45;&gt;Node12 -->
<g id="edge22_Node000012_Node000011" class="edge">
<title>Node11&#45;&gt;Node12</title>
<g id="a_edge22_Node000012_Node000011"><a xlink:title=" ">
<path fill="none" stroke="#9a32cd" stroke-dasharray="5,2" d="M557.86,-267.67C558.04,-258.37 557.11,-247.2 553,-238 533.55,-194.44 482.62,-164.74 454.44,-151.07"/>
<polygon fill="#9a32cd" stroke="#9a32cd" points="554.35,-267.64 557.23,-277.83 561.34,-268.07 554.35,-267.64"/>
</a>
</g>
<text text-anchor="middle" x="564" y="-206.5" font-family="Helvetica,sans-Serif" font-size="10.00" fill="grey"> _display</text>
</g>
<!-- Node11&#45;&gt;Node13 -->
<g id="edge26_Node000013_Node000011" class="edge">
<title>Node11&#45;&gt;Node13</title>
<g id="a_edge26_Node000013_Node000011"><a xlink:title=" ">
<path fill="none" stroke="#9a32cd" stroke-dasharray="5,2" d="M532.65,-272.58C526.47,-268.68 519.89,-264.32 514,-260 495.6,-246.5 475.62,-228.88 464.27,-218.57"/>
<polygon fill="#9a32cd" stroke="#9a32cd" points="530.94,-275.63 541.28,-277.91 534.61,-269.68 530.94,-275.63"/>
</a>
</g>
<text text-anchor="middle" x="536" y="-246.5" font-family="Helvetica,sans-Serif" font-size="10.00" fill="grey"> _display</text>
</g>
<!-- Node12&#45;&gt;Node8 -->
<g id="edge21_Node000008_Node000012" class="edge">
<title>Node12&#45;&gt;Node8</title>
<g id="a_edge21_Node000008_Node000012"><a xlink:title=" ">
<path fill="none" stroke="#9a32cd" stroke-dasharray="5,2" d="M432,-121.48C431.9,-115.23 432.8,-108.49 436,-103 440.58,-95.14 448.5,-89.34 456.36,-85.2"/>
<polygon fill="#9a32cd" stroke="#9a32cd" points="428.55,-122.21 433,-131.82 435.52,-121.53 428.55,-122.21"/>
</a>
</g>
<text text-anchor="middle" x="474" y="-106" font-family="Helvetica,sans-Serif" font-size="10.00" fill="grey"> _inputManager</text>
</g>
<!-- Node13&#45;&gt;Node12 -->
<g id="edge23_Node000012_Node000013" class="edge">
<title>Node13&#45;&gt;Node12</title>
<g id="a_edge23_Node000012_Node000013"><a xlink:title=" ">
<path fill="none" stroke="#9a32cd" stroke-dasharray="5,2" d="M449.37,-189.57C445.54,-177.03 440.66,-161.02 437.68,-151.27"/>
<polygon fill="#9a32cd" stroke="#9a32cd" points="446.12,-190.9 452.39,-199.44 452.81,-188.85 446.12,-190.9"/>
</a>
</g>
<text text-anchor="middle" x="464" y="-172" font-family="Helvetica,sans-Serif" font-size="10.00" fill="grey"> _input</text>
</g>
</g>
</svg>

<g id="navigator" transform="translate(0 0)" fill="#404254">
  <rect fill="#f2f5e9" fill-opacity="0.5" stroke="#606060" stroke-width=".5" x="0" y="0" width="60" height="60"/>
  <use id="zoomplus" xlink:href="#zoomPlus" x="17" y="9" onmousedown="handleZoom(evt,'in')"/>
  <use id="zoomminus" xlink:href="#zoomMin" x="42" y="9" onmousedown="handleZoom(evt,'out')"/>
  <use id="reset" xlink:href="#resetDef" x="30" y="36" onmousedown="handleReset()"/>
   <use id="arrowup" xlink:href="#arrowUp" x="0" y="0" onmousedown="handlePan(0,-1)"/>
  <use id="arrowright" xlink:href="#arrowRight" x="0" y="0" onmousedown="handlePan(1,0)"/>
  <use id="arrowdown" xlink:href="#arrowDown" x="0" y="0" onmousedown="handlePan(0,1)"/>
  <use id="arrowleft" xlink:href="#arrowLeft" x="0" y="0" onmousedown="handlePan(-1,0)"/>
</g>
<svg viewBox="0 0 15 15" width="100%" height="30px" preserveAspectRatio="xMaxYMin meet">
 <g id="arrow_out" transform="scale(0.3 0.3)">
  <a xlink:href="classControllerScreenCreation__coll__graph_org.svg" target="_base">
   <rect id="button" ry="5" rx="5" y="6" x="6" height="38" width="38"
        fill="#f2f5e9" fill-opacity="0.5" stroke="#606060" stroke-width="1.0"/>
   <path id="arrow"
     d="M 11.500037,31.436501 C 11.940474,20.09759 22.043105,11.32322 32.158766,21.979434 L 37.068811,17.246167 C 37.068811,17.246167 37.088388,32 37.088388,32 L 22.160133,31.978069 C 22.160133,31.978069 26.997745,27.140456 26.997745,27.140456 C 18.528582,18.264221 13.291696,25.230495 11.500037,31.436501 z"
     style="fill:#404040;"/>
  </a>
 </g>
</svg>

<style type='text/css'>
<![CDATA[
[data-mouse-over-selected='false'] { opacity: 0.7; }
[data-mouse-over-selected='true']  { opacity: 1.0; }
]]>
</style>
<script type="application/ecmascript"><![CDATA[
document.addEventListener('DOMContentLoaded', (event) => {
  highlightEdges();
  highlightAdjacentNodes();
});
]]></script>
</svg>
