<?xml version="1.0" encoding="UTF-8" standalone="no"?>
<!DOCTYPE svg PUBLIC "-//W3C//DTD SVG 1.1//EN"
 "http://www.w3.org/Graphics/SVG/1.1/DTD/svg11.dtd">
<!-- Generated by graphviz version 2.43.0 (0)
 -->
<!-- Title: AtFinderTests Pages: 1 -->
<svg width="163pt" height="219pt"
 viewBox="0.00 0.00 163.00 219.00" xmlns="http://www.w3.org/2000/svg" xmlns:xlink="http://www.w3.org/1999/xlink">
<g id="graph0" class="graph" transform="scale(1 1) rotate(0) translate(4 215)">
<title>AtFinderTests</title>
<polygon fill="white" stroke="transparent" points="-4,4 -4,-215 159,-215 159,4 -4,4"/>
<!-- Node1 -->
<g id="node1" class="node">
<title>Node1</title>
<g id="a_node1"><a xlink:title=" ">
<polygon fill="#bfbfbf" stroke="black" points="0,-0.5 0,-19.5 82,-19.5 82,-0.5 0,-0.5"/>
<text text-anchor="middle" x="41" y="-7.5" font-family="Helvetica,sans-Serif" font-size="10.00">AtFinderTests</text>
</a>
</g>
</g>
<!-- Node2 -->
<g id="node2" class="node">
<title>Node2</title>
<g id="a_node2"><a xlink:title=" ">
<polygon fill="white" stroke="#bfbfbf" points="7,-67.5 7,-86.5 43,-86.5 43,-67.5 7,-67.5"/>
<text text-anchor="middle" x="25" y="-74.5" font-family="Helvetica,sans-Serif" font-size="10.00">Test</text>
</a>
</g>
</g>
<!-- Node2&#45;&gt;Node1 -->
<g id="edge1" class="edge">
<title>Node2&#45;&gt;Node1</title>
<path fill="none" stroke="midnightblue" d="M29.57,-57.41C32.63,-44.99 36.52,-29.22 38.88,-19.63"/>
<polygon fill="midnightblue" stroke="midnightblue" points="26.15,-56.69 27.16,-67.23 32.95,-58.36 26.15,-56.69"/>
</g>
<!-- Node3 -->
<g id="node3" class="node">
<title>Node3</title>
<g id="a_node3"><a xlink:href="classMockCallback.html" target="_top" xlink:title="Mock class to test callbacks.">
<polygon fill="white" stroke="black" points="61.5,-67.5 61.5,-86.5 146.5,-86.5 146.5,-67.5 61.5,-67.5"/>
<text text-anchor="middle" x="104" y="-74.5" font-family="Helvetica,sans-Serif" font-size="10.00">MockCallback</text>
</a>
</g>
</g>
<!-- Node3&#45;&gt;Node1 -->
<g id="edge2" class="edge">
<title>Node3&#45;&gt;Node1</title>
<path fill="none" stroke="#9a32cd" stroke-dasharray="5,2" d="M88.49,-60C76.13,-47.25 59.31,-29.89 49.36,-19.63"/>
<polygon fill="#9a32cd" stroke="#9a32cd" points="86.03,-62.49 95.5,-67.23 91.06,-57.62 86.03,-62.49"/>
<text text-anchor="middle" x="98" y="-41" font-family="Helvetica,sans-Serif" font-size="10.00"> callback</text>
</g>
<!-- Node4 -->
<g id="node4" class="node">
<title>Node4</title>
<g id="a_node4"><a xlink:href="classCallbackInterface.html" target="_top" xlink:title="Interface class to use for callbacks.">
<polygon fill="white" stroke="black" points="53,-124.5 53,-143.5 155,-143.5 155,-124.5 53,-124.5"/>
<text text-anchor="middle" x="104" y="-131.5" font-family="Helvetica,sans-Serif" font-size="10.00">CallbackInterface</text>
</a>
</g>
</g>
<!-- Node4&#45;&gt;Node3 -->
<g id="edge3" class="edge">
<title>Node4&#45;&gt;Node3</title>
<path fill="none" stroke="midnightblue" d="M104,-114.12C104,-104.82 104,-94.06 104,-86.71"/>
<polygon fill="midnightblue" stroke="midnightblue" points="100.5,-114.41 104,-124.41 107.5,-114.41 100.5,-114.41"/>
</g>
<!-- Node5 -->
<g id="node5" class="node">
<title>Node5</title>
<g id="a_node5"><a xlink:href="classLogger.html" target="_top" xlink:title="Class to enable simple logging to a Stream object with different log levels This enables embedding pe...">
<polygon fill="white" stroke="red" points="79,-191.5 79,-210.5 129,-210.5 129,-191.5 79,-191.5"/>
<text text-anchor="middle" x="104" y="-198.5" font-family="Helvetica,sans-Serif" font-size="10.00">Logger</text>
</a>
</g>
</g>
<!-- Node5&#45;&gt;Node4 -->
<g id="edge4" class="edge">
<title>Node5&#45;&gt;Node4</title>
<path fill="none" stroke="#9a32cd" stroke-dasharray="5,2" d="M104,-181.04C104,-168.67 104,-153.12 104,-143.63"/>
<polygon fill="#9a32cd" stroke="#9a32cd" points="100.5,-181.23 104,-191.23 107.5,-181.23 100.5,-181.23"/>
<text text-anchor="middle" x="124" y="-165" font-family="Helvetica,sans-Serif" font-size="10.00"> _logger</text>
</g>
</g>
</svg>
