<?xml version="1.0" encoding="UTF-8" standalone="no"?>
<!DOCTYPE svg PUBLIC "-//W3C//DTD SVG 1.1//EN"
 "http://www.w3.org/Graphics/SVG/1.1/DTD/svg11.dtd">
<!-- Generated by graphviz version 2.43.0 (0)
 -->
<!-- Title: InputInterface::setCallback Pages: 1 -->
<!--zoomable 220 -->
<svg id="main" version="1.1" xmlns="http://www.w3.org/2000/svg" xmlns:xlink="http://www.w3.org/1999/xlink" xml:space="preserve" onload="init(evt)">
<style type="text/css"><![CDATA[
.edge:hover path { stroke: red; }
.edge:hover polygon { stroke: red; fill: red; }
]]></style>
<script type="text/javascript"><![CDATA[
var edges = document.getElementsByTagName('g');
if (edges && edges.length) {
  for (var i=0;i<edges.length;i++) {
    if (edges[i].id.substr(0,4)=='edge') {
      edges[i].setAttribute('class','edge');
    }
  }
}
]]></script>
        <defs>
                <circle id="rim" cx="0" cy="0" r="7"/>
                <circle id="rim2" cx="0" cy="0" r="3.5"/>
                <g id="zoomPlus">
                        <use xlink:href="#rim" fill="#404040">
                                <set attributeName="fill" to="#808080" begin="zoomplus.mouseover" end="zoomplus.mouseout"/>
                        </use>
                        <path d="M-4,0h8M0,-4v8" fill="none" stroke="white" stroke-width="1.5" pointer-events="none"/>
                </g>
                <g id="zoomMin">
                        <use xlink:href="#rim" fill="#404040">
                                <set attributeName="fill" to="#808080" begin="zoomminus.mouseover" end="zoomminus.mouseout"/>
                        </use>
                        <path d="M-4,0h8" fill="none" stroke="white" stroke-width="1.5" pointer-events="none"/>
                </g>
                <g id="dirArrow">
                        <path fill="none" stroke="white" stroke-width="1.5" d="M0,-3.0v7 M-2.5,-0.5L0,-3.0L2.5,-0.5"/>
                </g>
               <g id="resetDef">
                       <use xlink:href="#rim2" fill="#404040">
                               <set attributeName="fill" to="#808080" begin="reset.mouseover" end="reset.mouseout"/>
                       </use>
               </g>
        </defs>

<script type="text/javascript">
var viewWidth = 672;
var viewHeight = 220;
var sectionId = 'dynsection-8';
</script>
<script xlink:href="svgpan.js"/>
<svg id="graph" class="graph">
<g id="viewport">
<title>InputInterface::setCallback</title>
<polygon fill="white" stroke="transparent" points="-4,4 -4,-215.5 668,-215.5 668,4 -4,4"/>
<!-- Node1 -->
<g id="node1" class="node">
<title>Node1</title>
<g id="a_node1"><a xlink:title="Set the instance for callbacks when users trigger an input action.">
<polygon fill="#bfbfbf" stroke="black" points="516,-79 516,-98 664,-98 664,-79 516,-79"/>
<text text-anchor="middle" x="590" y="-86" font-family="Helvetica,sans-Serif" font-size="10.00">InputInterface::setCallback</text>
</a>
</g>
</g>
<!-- Node2 -->
<g id="node2" class="node">
<title>Node2</title>
<g id="a_node2"><a xlink:href="classInputManager.html#a3579aef6a242289012e5819b4be15e52" target="_top" xlink:title="Set the InputInterface.">
<polygon fill="white" stroke="black" points="345,-148 345,-167 478,-167 478,-148 345,-148"/>
<text text-anchor="middle" x="411.5" y="-155" font-family="Helvetica,sans-Serif" font-size="10.00">InputManager::addInput</text>
</a>
</g>
</g>
<!-- Node1&#45;&gt;Node2 -->
<g id="edge1" class="edge">
<title>Node1&#45;&gt;Node2</title>
<path fill="none" stroke="midnightblue" d="M561.49,-102.57C539.74,-113.33 508.43,-128.05 480,-138.5 470.52,-141.99 460.09,-145.21 450.32,-147.97"/>
<polygon fill="midnightblue" stroke="midnightblue" points="563.09,-105.68 570.47,-98.08 559.96,-99.42 563.09,-105.68"/>
</g>
<!-- Node11 -->
<g id="node7" class="node">
<title>Node11</title>
<g id="a_node7"><a xlink:href="classDebounceHoldInputTests.html#ac1f9bed57fb4e12ac48e79385ff321dd" target="_top" xlink:title=" ">
<polygon fill="white" stroke="black" points="343,-98.5 343,-128.5 480,-128.5 480,-98.5 343,-98.5"/>
<text text-anchor="start" x="351" y="-116.5" font-family="Helvetica,sans-Serif" font-size="10.00">DebounceHoldInputTests</text>
<text text-anchor="middle" x="411.5" y="-105.5" font-family="Helvetica,sans-Serif" font-size="10.00">::SetUp</text>
</a>
</g>
</g>
<!-- Node1&#45;&gt;Node11 -->
<g id="edge6" class="edge">
<title>Node1&#45;&gt;Node11</title>
<path fill="none" stroke="midnightblue" d="M511.75,-99.44C501.22,-100.93 490.47,-102.46 480.13,-103.92"/>
<polygon fill="midnightblue" stroke="midnightblue" points="512.36,-102.89 521.77,-98.02 511.38,-95.96 512.36,-102.89"/>
</g>
<!-- Node12 -->
<g id="node8" class="node">
<title>Node12</title>
<g id="a_node8"><a xlink:href="classInputInterfaceTests.html#ae2ea7ef1af24dceda678e3cc8953d006" target="_top" xlink:title=" ">
<polygon fill="white" stroke="black" points="356.5,-49.5 356.5,-79.5 466.5,-79.5 466.5,-49.5 356.5,-49.5"/>
<text text-anchor="start" x="364.5" y="-67.5" font-family="Helvetica,sans-Serif" font-size="10.00">InputInterfaceTests</text>
<text text-anchor="middle" x="411.5" y="-56.5" font-family="Helvetica,sans-Serif" font-size="10.00">::SetUp</text>
</a>
</g>
</g>
<!-- Node1&#45;&gt;Node12 -->
<g id="edge7" class="edge">
<title>Node1&#45;&gt;Node12</title>
<path fill="none" stroke="midnightblue" d="M508.69,-77.58C494.45,-75.64 479.93,-73.67 466.63,-71.86"/>
<polygon fill="midnightblue" stroke="midnightblue" points="508.61,-81.1 518.99,-78.98 509.55,-74.16 508.61,-81.1"/>
</g>
<!-- Node13 -->
<g id="node9" class="node">
<title>Node13</title>
<g id="a_node9"><a xlink:href="classTouchScreenInputTests.html#af56a96900180dde47c024979d931cf2e" target="_top" xlink:title=" ">
<polygon fill="white" stroke="black" points="348,-0.5 348,-30.5 475,-30.5 475,-0.5 348,-0.5"/>
<text text-anchor="start" x="356" y="-18.5" font-family="Helvetica,sans-Serif" font-size="10.00">TouchScreenInputTests</text>
<text text-anchor="middle" x="411.5" y="-7.5" font-family="Helvetica,sans-Serif" font-size="10.00">::SetUp</text>
</a>
</g>
</g>
<!-- Node1&#45;&gt;Node13 -->
<g id="edge8" class="edge">
<title>Node1&#45;&gt;Node13</title>
<path fill="none" stroke="midnightblue" d="M560.06,-74.72C538.25,-64.53 507.5,-50.55 480,-39.5 472.5,-36.49 464.45,-33.46 456.63,-30.61"/>
<polygon fill="midnightblue" stroke="midnightblue" points="558.58,-77.89 569.12,-78.98 561.56,-71.56 558.58,-77.89"/>
</g>
<!-- Node3 -->
<g id="node3" class="node">
<title>Node3</title>
<g id="a_node3"><a xlink:href="classInputManager.html#af956225a4057143bf0704781e036be09" target="_top" xlink:title="Call once to create the InputInterface derived input.">
<polygon fill="white" stroke="black" points="161,-192 161,-211 307,-211 307,-192 161,-192"/>
<text text-anchor="middle" x="234" y="-199" font-family="Helvetica,sans-Serif" font-size="10.00">InputManager::createInput</text>
</a>
</g>
</g>
<!-- Node2&#45;&gt;Node3 -->
<g id="edge2" class="edge">
<title>Node2&#45;&gt;Node3</title>
<path fill="none" stroke="midnightblue" d="M362.39,-169.56C334.24,-176.62 299.21,-185.4 273.01,-191.97"/>
<polygon fill="midnightblue" stroke="midnightblue" points="363.57,-172.87 372.42,-167.05 361.87,-166.08 363.57,-172.87"/>
</g>
<!-- Node9 -->
<g id="node5" class="node">
<title>Node9</title>
<g id="a_node5"><a xlink:href="classControllerInputActionTests.html#afb639f110e387a10897f635bdd329a4a" target="_top" xlink:title=" ">
<polygon fill="white" stroke="black" points="161.5,-142.5 161.5,-172.5 306.5,-172.5 306.5,-142.5 161.5,-142.5"/>
<text text-anchor="start" x="169.5" y="-160.5" font-family="Helvetica,sans-Serif" font-size="10.00">ControllerInputActionTests</text>
<text text-anchor="middle" x="234" y="-149.5" font-family="Helvetica,sans-Serif" font-size="10.00">::SetUp</text>
</a>
</g>
</g>
<!-- Node2&#45;&gt;Node9 -->
<g id="edge4" class="edge">
<title>Node2&#45;&gt;Node9</title>
<path fill="none" stroke="midnightblue" d="M334.62,-157.5C325.29,-157.5 315.77,-157.5 306.51,-157.5"/>
<polygon fill="midnightblue" stroke="midnightblue" points="334.65,-161 344.65,-157.5 334.65,-154 334.65,-161"/>
</g>
<!-- Node10 -->
<g id="node6" class="node">
<title>Node10</title>
<g id="a_node6"><a xlink:href="test__InputManager_8cpp.html#ae61e78914c3beb26e21559280269fc47" target="_top" xlink:title="Test to ensure an input can be set, retrieved, and started with the InputManager.">
<polygon fill="white" stroke="black" points="208,-104 208,-123 260,-123 260,-104 208,-104"/>
<text text-anchor="middle" x="234" y="-111" font-family="Helvetica,sans-Serif" font-size="10.00">TEST_F</text>
</a>
</g>
</g>
<!-- Node2&#45;&gt;Node10 -->
<g id="edge5" class="edge">
<title>Node2&#45;&gt;Node10</title>
<path fill="none" stroke="midnightblue" d="M362.47,-145.46C329.33,-137.15 286.62,-126.44 260.02,-119.77"/>
<polygon fill="midnightblue" stroke="midnightblue" points="361.87,-148.92 372.42,-147.95 363.57,-142.13 361.87,-148.92"/>
</g>
<!-- Node4 -->
<g id="node4" class="node">
<title>Node4</title>
<g id="a_node4"><a xlink:href="classConfigurator.html#a25ee5e1b0a64d971232d6ecaaadd5d61" target="_top" xlink:title="Call all one&#45;shot initialisation or begin methods on startup.">
<polygon fill="white" stroke="red" points="0,-192 0,-211 125,-211 125,-192 0,-192"/>
<text text-anchor="middle" x="62.5" y="-199" font-family="Helvetica,sans-Serif" font-size="10.00">Configurator::initialise</text>
</a>
</g>
</g>
<!-- Node3&#45;&gt;Node4 -->
<g id="edge3" class="edge">
<title>Node3&#45;&gt;Node4</title>
<path fill="none" stroke="midnightblue" d="M150.62,-201.5C142.07,-201.5 133.49,-201.5 125.22,-201.5"/>
<polygon fill="midnightblue" stroke="midnightblue" points="150.63,-205 160.63,-201.5 150.63,-198 150.63,-205"/>
</g>
</g>
</svg>
        <g id="navigator" transform="translate(0 0)" fill="#404254">
                <rect fill="#f2f5e9" fill-opacity="0.5" stroke="#606060" stroke-width=".5" x="0" y="0" width="60" height="60"/>
                <use id="zoomplus" xlink:href="#zoomPlus" x="17" y="9" onmousedown="handleZoom(evt,'in')"/>
                <use id="zoomminus" xlink:href="#zoomMin" x="42" y="9" onmousedown="handleZoom(evt,'out')"/>
                <use id="reset" xlink:href="#resetDef" x="30" y="36" onmousedown="handleReset()"/>
                <g id="arrowUp" xlink:href="#dirArrow" transform="translate(30 24)" onmousedown="handlePan(0,-1)">
                  <use xlink:href="#rim" fill="#404040">
                        <set attributeName="fill" to="#808080" begin="arrowUp.mouseover" end="arrowUp.mouseout"/>
                  </use>
                  <path fill="none" stroke="white" stroke-width="1.5" d="M0,-3.0v7 M-2.5,-0.5L0,-3.0L2.5,-0.5"/>
                </g>
                <g id="arrowRight" xlink:href="#dirArrow" transform="rotate(90) translate(36 -43)" onmousedown="handlePan(1,0)">
                  <use xlink:href="#rim" fill="#404040">
                        <set attributeName="fill" to="#808080" begin="arrowRight.mouseover" end="arrowRight.mouseout"/>
                  </use>
                  <path fill="none" stroke="white" stroke-width="1.5" d="M0,-3.0v7 M-2.5,-0.5L0,-3.0L2.5,-0.5"/>
                </g>
                <g id="arrowDown" xlink:href="#dirArrow" transform="rotate(180) translate(-30 -48)" onmousedown="handlePan(0,1)">
                  <use xlink:href="#rim" fill="#404040">
                        <set attributeName="fill" to="#808080" begin="arrowDown.mouseover" end="arrowDown.mouseout"/>
                  </use>
                  <path fill="none" stroke="white" stroke-width="1.5" d="M0,-3.0v7 M-2.5,-0.5L0,-3.0L2.5,-0.5"/>
                </g>
                <g id="arrowLeft" xlink:href="#dirArrow" transform="rotate(270) translate(-36 17)" onmousedown="handlePan(-1,0)">
                  <use xlink:href="#rim" fill="#404040">
                        <set attributeName="fill" to="#808080" begin="arrowLeft.mouseover" end="arrowLeft.mouseout"/>
                  </use>
                  <path fill="none" stroke="white" stroke-width="1.5" d="M0,-3.0v7 M-2.5,-0.5L0,-3.0L2.5,-0.5"/>
                </g>
        </g>
        <svg viewBox="0 0 15 15" width="100%" height="30px" preserveAspectRatio="xMaxYMin meet">
         <g id="arrow_out" transform="scale(0.3 0.3)">
          <a xlink:href="classInputInterface_abae89c99e802186c05e97750e473dac1_icgraph_org.svg" target="_base">
           <rect id="button" ry="5" rx="5" y="6" x="6" height="38" width="38"
                fill="#f2f5e9" fill-opacity="0.5" stroke="#606060" stroke-width="1.0"/>
           <path id="arrow"
             d="M 11.500037,31.436501 C 11.940474,20.09759 22.043105,11.32322 32.158766,21.979434 L 37.068811,17.246167 C 37.068811,17.246167 37.088388,32 37.088388,32 L 22.160133,31.978069 C 22.160133,31.978069 26.997745,27.140456 26.997745,27.140456 C 18.528582,18.264221 13.291696,25.230495 11.500037,31.436501 z"
             style="fill:#404040;"/>
          </a>
         </g>
        </svg>
</svg>
