<?xml version="1.0" encoding="UTF-8" standalone="no"?>
<!DOCTYPE svg PUBLIC "-//W3C//DTD SVG 1.1//EN"
 "http://www.w3.org/Graphics/SVG/1.1/DTD/svg11.dtd">
<!-- Generated by graphviz version 2.43.0 (0)
 -->
<!-- Title: ScreenRow::setText Pages: 1 -->
<svg width="640pt" height="213pt"
 viewBox="0.00 0.00 640.00 213.00" xmlns="http://www.w3.org/2000/svg" xmlns:xlink="http://www.w3.org/1999/xlink">
<g id="graph0" class="graph" transform="scale(1 1) rotate(0) translate(4 209)">
<title>ScreenRow::setText</title>
<!-- Node1 -->
<g id="Node000001" class="node">
<title>Node1</title>
<g id="a_Node000001"><a xlink:title="Set the text associated with this ScreenRow.">
<polygon fill="#999999" stroke="#666666" points="632,-76 521,-76 521,-57 632,-57 632,-76"/>
<text text-anchor="middle" x="576.5" y="-64" font-family="Helvetica,sans-Serif" font-size="10.00">ScreenRow::setText</text>
</a>
</g>
</g>
<!-- Node2 -->
<g id="Node000002" class="node">
<title>Node2</title>
<g id="a_Node000002"><a xlink:href="classScreen.html#a1a1f735d2c573b460813e1ba0667b649" target="_top" xlink:title="Add a new ScreenRow to the list.">
<polygon fill="white" stroke="#666666" points="485,-133 352,-133 352,-114 485,-114 485,-133"/>
<text text-anchor="middle" x="418.5" y="-121" font-family="Helvetica,sans-Serif" font-size="10.00">Screen::_addScreenRow</text>
</a>
</g>
</g>
<!-- Node1&#45;&gt;Node2 -->
<g id="edge1_Node000001_Node000002" class="edge">
<title>Node1&#45;&gt;Node2</title>
<g id="a_edge1_Node000001_Node000002"><a xlink:title=" ">
<path fill="none" stroke="#63b8ff" d="M539.74,-79.57C511.07,-90.04 471.49,-104.51 445.7,-113.93"/>
<polygon fill="#63b8ff" stroke="#63b8ff" points="541.2,-82.76 549.39,-76.04 538.8,-76.19 541.2,-82.76"/>
</a>
</g>
</g>
<!-- Node3 -->
<g id="Node000003" class="node">
<title>Node3</title>
<g id="a_Node000003"><a xlink:href="classScreen.html#a0a9a3a713a63ef55e854841d07630556" target="_top" xlink:title="Update the specified ScreenRow, or create it if it doesn&#39;t exist This will automatically maintain the...">
<polygon fill="white" stroke="#666666" points="316,-131 173,-131 173,-112 316,-112 316,-131"/>
<text text-anchor="middle" x="244.5" y="-119" font-family="Helvetica,sans-Serif" font-size="10.00">Screen::updateScreenRow</text>
</a>
</g>
</g>
<!-- Node1&#45;&gt;Node3 -->
<g id="edge10_Node000001_Node000003" class="edge">
<title>Node1&#45;&gt;Node3</title>
<g id="a_edge10_Node000001_Node000003"><a xlink:title=" ">
<path fill="none" stroke="#63b8ff" d="M510.43,-77.34C449.9,-87.43 360.58,-102.32 302.71,-111.96"/>
<polygon fill="#63b8ff" stroke="#63b8ff" points="511.35,-80.74 520.64,-75.64 510.2,-73.84 511.35,-80.74"/>
</a>
</g>
</g>
<!-- Node7 -->
<g id="Node000007" class="node">
<title>Node7</title>
<g id="a_Node000007"><a xlink:href="test__Screen_8cpp.html#af450f2926aeb50c83ec7af1fe7d97a15" target="_top" xlink:title="Validate that rows are to be redrawn by default, and not after retrieving text.">
<polygon fill="white" stroke="#666666" points="94.5,-57 42.5,-57 42.5,-38 94.5,-38 94.5,-57"/>
<text text-anchor="middle" x="68.5" y="-45" font-family="Helvetica,sans-Serif" font-size="10.00">TEST_F</text>
</a>
</g>
</g>
<!-- Node1&#45;&gt;Node7 -->
<g id="edge9_Node000001_Node000007" class="edge">
<title>Node1&#45;&gt;Node7</title>
<g id="a_edge9_Node000001_Node000007"><a xlink:title=" ">
<path fill="none" stroke="#63b8ff" d="M510.65,-64.07C397.92,-59.83 170.59,-51.3 94.76,-48.45"/>
<polygon fill="#63b8ff" stroke="#63b8ff" points="510.74,-67.57 520.87,-64.45 511.01,-60.58 510.74,-67.57"/>
</a>
</g>
</g>
<!-- Node10 -->
<g id="Node000010" class="node">
<title>Node10</title>
<g id="a_Node000010"><a xlink:href="test__Screen_8cpp.html#ad93d273cb56a1558983e815333e2bbf7" target="_top" xlink:title="Create a ScreenRow and check all attributes are valid.">
<polygon fill="white" stroke="#666666" points="444.5,-19 392.5,-19 392.5,0 444.5,0 444.5,-19"/>
<text text-anchor="middle" x="418.5" y="-7" font-family="Helvetica,sans-Serif" font-size="10.00">TEST_F</text>
</a>
</g>
</g>
<!-- Node1&#45;&gt;Node10 -->
<g id="edge8_Node000001_Node000010" class="edge">
<title>Node1&#45;&gt;Node10</title>
<g id="a_edge8_Node000001_Node000010"><a xlink:title=" ">
<path fill="none" stroke="#63b8ff" d="M539.62,-53.39C510.57,-42.77 470.38,-28.09 444.66,-18.69"/>
<polygon fill="#63b8ff" stroke="#63b8ff" points="538.8,-56.81 549.39,-56.96 541.2,-50.24 538.8,-56.81"/>
</a>
</g>
</g>
<!-- Node2&#45;&gt;Node3 -->
<g id="edge2_Node000002_Node000003" class="edge">
<title>Node2&#45;&gt;Node3</title>
<g id="a_edge2_Node000002_Node000003"><a xlink:title=" ">
<path fill="none" stroke="#63b8ff" d="M341.75,-122.62C333.28,-122.52 324.68,-122.42 316.28,-122.32"/>
<polygon fill="#63b8ff" stroke="#63b8ff" points="341.94,-126.12 351.98,-122.74 342.02,-119.12 341.94,-126.12"/>
</a>
</g>
</g>
<!-- Node4 -->
<g id="Node000004" class="node">
<title>Node4</title>
<g id="a_Node000004"><a xlink:href="test__Screen_8cpp.html#a1803655bda263555436ec633fd3297da" target="_top" xlink:title="Create a screen with associated row list and check all attributes are valid.">
<polygon fill="white" stroke="#666666" points="94.5,-205 42.5,-205 42.5,-186 94.5,-186 94.5,-205"/>
<text text-anchor="middle" x="68.5" y="-193" font-family="Helvetica,sans-Serif" font-size="10.00">TEST_F</text>
</a>
</g>
</g>
<!-- Node3&#45;&gt;Node4 -->
<g id="edge3_Node000003_Node000004" class="edge">
<title>Node3&#45;&gt;Node4</title>
<g id="a_edge3_Node000003_Node000004"><a xlink:title=" ">
<path fill="none" stroke="#63b8ff" d="M219.15,-136.32C198.03,-148.67 166.32,-166.05 137,-177.5 123.33,-182.84 107.5,-187.15 94.61,-190.22"/>
<polygon fill="#63b8ff" stroke="#63b8ff" points="220.97,-139.31 227.79,-131.2 217.4,-133.28 220.97,-139.31"/>
</a>
</g>
</g>
<!-- Node5 -->
<g id="Node000005" class="node">
<title>Node5</title>
<g id="a_Node000005"><a xlink:href="test__Screen_8cpp.html#aa85ee31e3fe94a4539ca065e4d9f412c" target="_top" xlink:title="Validate rows are deleted when setting text to &quot;&quot;.">
<polygon fill="white" stroke="#666666" points="94.5,-168 42.5,-168 42.5,-149 94.5,-149 94.5,-168"/>
<text text-anchor="middle" x="68.5" y="-156" font-family="Helvetica,sans-Serif" font-size="10.00">TEST_F</text>
</a>
</g>
</g>
<!-- Node3&#45;&gt;Node5 -->
<g id="edge4_Node000003_Node000005" class="edge">
<title>Node3&#45;&gt;Node5</title>
<g id="a_edge4_Node000003_Node000005"><a xlink:title=" ">
<path fill="none" stroke="#63b8ff" d="M188.73,-133.15C157.28,-139.83 119.28,-147.91 94.77,-153.13"/>
<polygon fill="#63b8ff" stroke="#63b8ff" points="189.64,-136.53 198.69,-131.03 188.18,-129.68 189.64,-136.53"/>
</a>
</g>
</g>
<!-- Node6 -->
<g id="Node000006" class="node">
<title>Node6</title>
<g id="a_Node000006"><a xlink:href="test__Screen_8cpp.html#a9da657726211d6af0e63eaab94ad162f" target="_top" xlink:title="Create a screen with associated row list and ensure rows are accessible by ID.">
<polygon fill="white" stroke="#666666" points="94.5,-131 42.5,-131 42.5,-112 94.5,-112 94.5,-131"/>
<text text-anchor="middle" x="68.5" y="-119" font-family="Helvetica,sans-Serif" font-size="10.00">TEST_F</text>
</a>
</g>
</g>
<!-- Node3&#45;&gt;Node6 -->
<g id="edge5_Node000003_Node000006" class="edge">
<title>Node3&#45;&gt;Node6</title>
<g id="a_edge5_Node000003_Node000006"><a xlink:title=" ">
<path fill="none" stroke="#63b8ff" d="M162.84,-121.5C138.15,-121.5 112.79,-121.5 94.74,-121.5"/>
<polygon fill="#63b8ff" stroke="#63b8ff" points="162.98,-125 172.98,-121.5 162.98,-118 162.98,-125"/>
</a>
</g>
</g>
<!-- Node3&#45;&gt;Node7 -->
<g id="edge6_Node000003_Node000007" class="edge">
<title>Node3&#45;&gt;Node7</title>
<g id="a_edge6_Node000003_Node000007"><a xlink:title=" ">
<path fill="none" stroke="#63b8ff" d="M218.71,-106.87C197.54,-94.83 166.01,-77.94 137,-66.5 123.3,-61.1 107.47,-56.56 94.58,-53.27"/>
<polygon fill="#63b8ff" stroke="#63b8ff" points="216.97,-109.9 227.38,-111.86 220.46,-103.84 216.97,-109.9"/>
</a>
</g>
</g>
<!-- Node8 -->
<g id="Node000008" class="node">
<title>Node8</title>
<g id="a_Node000008"><a xlink:href="classController.html#a908f5f6c24239286e29d4761da509963" target="_top" xlink:title="Method to implement updating a screen.">
<polygon fill="#fff0f0" stroke="red" points="137,-94 0,-94 0,-75 137,-75 137,-94"/>
<text text-anchor="middle" x="68.5" y="-82" font-family="Helvetica,sans-Serif" font-size="10.00">Controller::updateScreen</text>
</a>
</g>
</g>
<!-- Node3&#45;&gt;Node8 -->
<g id="edge7_Node000003_Node000008" class="edge">
<title>Node3&#45;&gt;Node8</title>
<g id="a_edge7_Node000003_Node000008"><a xlink:title=" ">
<path fill="none" stroke="#63b8ff" d="M188.7,-109.85C164.8,-104.77 137.13,-98.88 114.46,-94.06"/>
<polygon fill="#63b8ff" stroke="#63b8ff" points="188.18,-113.32 198.69,-111.97 189.64,-106.47 188.18,-113.32"/>
</a>
</g>
</g>
</g>
</svg>
