<?xml version="1.0" encoding="UTF-8" standalone="no"?>
<!DOCTYPE svg PUBLIC "-//W3C//DTD SVG 1.1//EN"
 "http://www.w3.org/Graphics/SVG/1.1/DTD/svg11.dtd">
<!-- Generated by graphviz version 2.43.0 (0)
 -->
<!-- Title: DisplayManager::getDisplayById Pages: 1 -->
<svg width="627pt" height="85pt"
 viewBox="0.00 0.00 627.00 85.00" xmlns="http://www.w3.org/2000/svg" xmlns:xlink="http://www.w3.org/1999/xlink">
<g id="graph0" class="graph" transform="scale(1 1) rotate(0) translate(4 81)">
<title>DisplayManager::getDisplayById</title>
<polygon fill="white" stroke="transparent" points="-4,4 -4,-81 623,-81 623,4 -4,4"/>
<!-- Node1 -->
<g id="node1" class="node">
<title>Node1</title>
<g id="a_node1"><a xlink:title="Get a DisplayInterface derived instance by its ID.">
<polygon fill="#bfbfbf" stroke="black" points="443,-19.5 443,-38.5 619,-38.5 619,-19.5 443,-19.5"/>
<text text-anchor="middle" x="531" y="-26.5" font-family="Helvetica,sans-Serif" font-size="10.00">DisplayManager::getDisplayById</text>
</a>
</g>
</g>
<!-- Node2 -->
<g id="node2" class="node">
<title>Node2</title>
<g id="a_node2"><a xlink:href="classConfigurator.html#a25ee5e1b0a64d971232d6ecaaadd5d61" target="_top" xlink:title="Call all one&#45;shot initialisation or begin methods on startup.">
<polygon fill="white" stroke="black" points="282,-38.5 282,-57.5 407,-57.5 407,-38.5 282,-38.5"/>
<text text-anchor="middle" x="344.5" y="-45.5" font-family="Helvetica,sans-Serif" font-size="10.00">Configurator::initialise</text>
</a>
</g>
</g>
<!-- Node1&#45;&gt;Node2 -->
<g id="edge1" class="edge">
<title>Node1&#45;&gt;Node2</title>
<path fill="none" stroke="midnightblue" d="M432.72,-39.02C424.07,-39.91 415.47,-40.79 407.25,-41.64"/>
<polygon fill="midnightblue" stroke="midnightblue" points="433.29,-42.48 442.88,-37.97 432.58,-35.51 433.29,-42.48"/>
</g>
<!-- Node7 -->
<g id="node6" class="node">
<title>Node7</title>
<g id="a_node6"><a xlink:href="test__DisplayManager_8cpp.html#a086adee0e0e3565707e01f5b61e29dff" target="_top" xlink:title=" ">
<polygon fill="white" stroke="black" points="318.5,-0.5 318.5,-19.5 370.5,-19.5 370.5,-0.5 318.5,-0.5"/>
<text text-anchor="middle" x="344.5" y="-7.5" font-family="Helvetica,sans-Serif" font-size="10.00">TEST_F</text>
</a>
</g>
</g>
<!-- Node1&#45;&gt;Node7 -->
<g id="edge5" class="edge">
<title>Node1&#45;&gt;Node7</title>
<path fill="none" stroke="midnightblue" d="M432.7,-18.98C409.78,-16.62 387.27,-14.3 370.87,-12.61"/>
<polygon fill="midnightblue" stroke="midnightblue" points="432.58,-22.49 442.88,-20.03 433.29,-15.52 432.58,-22.49"/>
</g>
<!-- Node3 -->
<g id="node3" class="node">
<title>Node3</title>
<g id="a_node3"><a xlink:href="EX-Display_8ino.html#a4fc01d736fe50cf5b977f755b675f11d" target="_top" xlink:title="Main setup method, initialise Configurator here.">
<polygon fill="white" stroke="black" points="198,-57.5 198,-76.5 242,-76.5 242,-57.5 198,-57.5"/>
<text text-anchor="middle" x="220" y="-64.5" font-family="Helvetica,sans-Serif" font-size="10.00">setup</text>
</a>
</g>
</g>
<!-- Node2&#45;&gt;Node3 -->
<g id="edge2" class="edge">
<title>Node2&#45;&gt;Node3</title>
<path fill="none" stroke="midnightblue" d="M271.88,-59.11C261.07,-60.78 250.71,-62.39 242.19,-63.71"/>
<polygon fill="midnightblue" stroke="midnightblue" points="272.55,-62.55 281.89,-57.56 271.47,-55.63 272.55,-62.55"/>
</g>
<!-- Node6 -->
<g id="node5" class="node">
<title>Node6</title>
<g id="a_node5"><a xlink:href="test__Configurator_8cpp.html#a90ba0264a5f676876816cf7411508ac9" target="_top" xlink:title="Ensure the Configurator is created and all attributes are as expected.">
<polygon fill="white" stroke="black" points="194,-19.5 194,-38.5 246,-38.5 246,-19.5 194,-19.5"/>
<text text-anchor="middle" x="220" y="-26.5" font-family="Helvetica,sans-Serif" font-size="10.00">TEST_F</text>
</a>
</g>
</g>
<!-- Node2&#45;&gt;Node6 -->
<g id="edge4" class="edge">
<title>Node2&#45;&gt;Node6</title>
<path fill="none" stroke="midnightblue" d="M271.87,-36.89C262.71,-35.47 253.88,-34.1 246.21,-32.91"/>
<polygon fill="midnightblue" stroke="midnightblue" points="271.47,-40.37 281.89,-38.44 272.55,-33.45 271.47,-40.37"/>
</g>
<!-- Node4 -->
<g id="node4" class="node">
<title>Node4</title>
<g id="a_node4"><a xlink:href="classTFT__eSPITouch.html#a06e34fd9e1c12e99c40070bdb5fc1779" target="_top" xlink:title="Ensure SPIFFS filesystem is up and running.">
<polygon fill="white" stroke="red" points="0,-57.5 0,-76.5 158,-76.5 158,-57.5 0,-57.5"/>
<text text-anchor="middle" x="79" y="-64.5" font-family="Helvetica,sans-Serif" font-size="10.00">TFT_eSPITouch::_setupSPIFFS</text>
</a>
</g>
</g>
<!-- Node3&#45;&gt;Node4 -->
<g id="edge3" class="edge">
<title>Node3&#45;&gt;Node4</title>
<path fill="none" stroke="midnightblue" d="M187.67,-67C178.75,-67 168.61,-67 158.21,-67"/>
<polygon fill="midnightblue" stroke="midnightblue" points="187.89,-70.5 197.89,-67 187.89,-63.5 187.89,-70.5"/>
</g>
</g>
</svg>
