<?xml version="1.0" encoding="UTF-8" standalone="no"?>
<!DOCTYPE svg PUBLIC "-//W3C//DTD SVG 1.1//EN"
 "http://www.w3.org/Graphics/SVG/1.1/DTD/svg11.dtd">
<!-- Generated by graphviz version 2.43.0 (0)
 -->
<!-- Title: InputInterface::isCalibrating Pages: 1 -->
<svg width="466pt" height="187pt"
 viewBox="0.00 0.00 466.00 187.00" xmlns="http://www.w3.org/2000/svg" xmlns:xlink="http://www.w3.org/1999/xlink">

<svg id="main" version="1.1" xmlns="http://www.w3.org/2000/svg" xmlns:xlink="http://www.w3.org/1999/xlink" xml:space="preserve" onload="init(evt)">
<style type="text/css"><![CDATA[
.node, .edge {opacity: 0.7;}
.node.selected, .edge.selected {opacity: 1;}
.edge:hover path { stroke: red; }
.edge:hover polygon { stroke: red; fill: red; }
]]></style>
<script type="application/ecmascript" xlink:href="svg.min.js"/>
<svg id="graph" class="graph">
<g id="graph0" class="graph" transform="scale(1 1) rotate(0) translate(4 183)">
<title>InputInterface::isCalibrating</title>
<!-- Node1 -->
<g id="Node000001" class="node">
<title>Node1</title>
<g id="a_Node000001"><a xlink:title="Test if this InputInterface is undergoing calibration as required by touch screens.">
<polygon fill="#999999" stroke="#666666" points="458,-120 306,-120 306,-101 458,-101 458,-120"/>
<text text-anchor="middle" x="382" y="-108" font-family="Helvetica,sans-Serif" font-size="10.00">InputInterface::isCalibrating</text>
</a>
</g>
</g>
<!-- Node2 -->
<g id="Node000002" class="node">
<title>Node2</title>
<g id="a_Node000002"><a xlink:href="classMockButtonInput.html#a42ad0da1019fdaffafdb802110e4b8c5" target="_top" xlink:title=" ">
<polygon fill="white" stroke="#666666" points="270,-179 88,-179 88,-160 270,-160 270,-179"/>
<text text-anchor="middle" x="179" y="-167" font-family="Helvetica,sans-Serif" font-size="10.00">MockButtonInput::setIsCalibrating</text>
</a>
</g>
</g>
<!-- Node1&#45;&gt;Node2 -->
<g id="edge1_Node000001_Node000002" class="edge">
<title>Node1&#45;&gt;Node2</title>
<g id="a_edge1_Node000001_Node000002"><a xlink:title=" ">
<path fill="none" stroke="#63b8ff" d="M348.91,-123.87C326.97,-132.63 297.09,-143.84 270,-151.5 258.81,-154.67 246.68,-157.49 235.06,-159.91"/>
<polygon fill="#63b8ff" stroke="#63b8ff" points="350.43,-127.03 358.39,-120.04 347.8,-120.54 350.43,-127.03"/>
</a>
</g>
</g>
<!-- Node3 -->
<g id="Node000003" class="node">
<title>Node3</title>
<g id="a_Node000003"><a xlink:href="classMockInput.html#a76b4c4850d8774d3e988df775177b847" target="_top" xlink:title=" ">
<polygon fill="white" stroke="#666666" points="254,-142 104,-142 104,-123 254,-123 254,-142"/>
<text text-anchor="middle" x="179" y="-130" font-family="Helvetica,sans-Serif" font-size="10.00">MockInput::setIsCalibrating</text>
</a>
</g>
</g>
<!-- Node1&#45;&gt;Node3 -->
<g id="edge2_Node000001_Node000003" class="edge">
<title>Node1&#45;&gt;Node3</title>
<g id="a_edge2_Node000001_Node000003"><a xlink:title=" ">
<path fill="none" stroke="#63b8ff" d="M295.84,-119.82C281.94,-121.34 267.64,-122.91 254.04,-124.4"/>
<polygon fill="#63b8ff" stroke="#63b8ff" points="296.31,-123.29 305.87,-118.72 295.55,-116.33 296.31,-123.29"/>
</a>
</g>
</g>
<!-- Node4 -->
<g id="Node000004" class="node">
<title>Node4</title>
<g id="a_Node000004"><a xlink:href="classMockTouchScreenInput.html#aa1695790ef58c9a3681df59eaae9a522" target="_top" xlink:title=" ">
<polygon fill="white" stroke="#666666" points="243,-104.5 115,-104.5 115,-74.5 243,-74.5 243,-104.5"/>
<text text-anchor="start" x="123" y="-92.5" font-family="Helvetica,sans-Serif" font-size="10.00">MockTouchScreenInput</text>
<text text-anchor="middle" x="179" y="-81.5" font-family="Helvetica,sans-Serif" font-size="10.00">::setIsCalibrating</text>
</a>
</g>
</g>
<!-- Node1&#45;&gt;Node4 -->
<g id="edge3_Node000001_Node000004" class="edge">
<title>Node1&#45;&gt;Node4</title>
<g id="a_edge3_Node000001_Node000004"><a xlink:title=" ">
<path fill="none" stroke="#63b8ff" d="M295.61,-101.58C278.03,-99.74 259.82,-97.84 243.2,-96.1"/>
<polygon fill="#63b8ff" stroke="#63b8ff" points="295.56,-105.09 305.87,-102.65 296.29,-98.13 295.56,-105.09"/>
</a>
</g>
</g>
<!-- Node5 -->
<g id="Node000005" class="node">
<title>Node5</title>
<g id="a_Node000005"><a xlink:href="classController.html#a7d04c17913f04f99429aa29fa8505484" target="_top" xlink:title="Processes all ongoing activities, monitoring streams, receiving user input, updates displays,...">
<polygon fill="white" stroke="#666666" points="231,-56 127,-56 127,-37 231,-37 231,-56"/>
<text text-anchor="middle" x="179" y="-44" font-family="Helvetica,sans-Serif" font-size="10.00">Controller::update</text>
</a>
</g>
</g>
<!-- Node1&#45;&gt;Node5 -->
<g id="edge4_Node000001_Node000005" class="edge">
<title>Node1&#45;&gt;Node5</title>
<g id="a_edge4_Node000001_Node000005"><a xlink:title=" ">
<path fill="none" stroke="#63b8ff" d="M351.36,-96.81C329.3,-87.03 298.24,-74.13 270,-65.5 257.63,-61.72 244.08,-58.43 231.33,-55.7"/>
<polygon fill="#63b8ff" stroke="#63b8ff" points="349.97,-100.02 360.53,-100.92 352.84,-93.63 349.97,-100.02"/>
</a>
</g>
</g>
<!-- Node6 -->
<g id="Node000006" class="node">
<title>Node6</title>
<g id="a_Node000006"><a xlink:href="EX-Display_8ino.html#afe461d27b9c48d5921c00d521181f12f" target="_top" xlink:title="Main loop, simply calls controller&#45;&gt;update() to manage all interactions.">
<polygon fill="white" stroke="#666666" points="45,-93 7,-93 7,-74 45,-74 45,-93"/>
<text text-anchor="middle" x="26" y="-81" font-family="Helvetica,sans-Serif" font-size="10.00">loop</text>
</a>
</g>
</g>
<!-- Node5&#45;&gt;Node6 -->
<g id="edge5_Node000005_Node000006" class="edge">
<title>Node5&#45;&gt;Node6</title>
<g id="a_edge5_Node000005_Node000006"><a xlink:title=" ">
<path fill="none" stroke="#63b8ff" d="M119.35,-58.18C108.88,-60.47 98.09,-62.95 88,-65.5 73.44,-69.18 57.13,-74.03 45.05,-77.77"/>
<polygon fill="#63b8ff" stroke="#63b8ff" points="120.22,-61.58 129.26,-56.06 118.75,-54.73 120.22,-61.58"/>
</a>
</g>
</g>
<!-- Node7 -->
<g id="Node000007" class="node">
<title>Node7</title>
<g id="a_Node000007"><a xlink:href="test__Controller_8cpp.html#a75631fe386e9be5e2118adf3f01653ee" target="_top" xlink:title="Ensure update() method correctly ignores an invalid stream input.">
<polygon fill="white" stroke="#666666" points="52,-56 0,-56 0,-37 52,-37 52,-56"/>
<text text-anchor="middle" x="26" y="-44" font-family="Helvetica,sans-Serif" font-size="10.00">TEST_F</text>
</a>
</g>
</g>
<!-- Node5&#45;&gt;Node7 -->
<g id="edge6_Node000005_Node000007" class="edge">
<title>Node5&#45;&gt;Node7</title>
<g id="a_edge6_Node000005_Node000007"><a xlink:title=" ">
<path fill="none" stroke="#63b8ff" d="M116.67,-46.5C94.12,-46.5 69.83,-46.5 52.22,-46.5"/>
<polygon fill="#63b8ff" stroke="#63b8ff" points="116.88,-50 126.88,-46.5 116.88,-43 116.88,-50"/>
</a>
</g>
</g>
<!-- Node8 -->
<g id="Node000008" class="node">
<title>Node8</title>
<g id="a_Node000008"><a xlink:href="test__Controller_8cpp.html#abb9ca06c0e9bafef1a891dd9d22bd84d" target="_top" xlink:title="Ensure update() method correctly calls the mock callback.">
<polygon fill="white" stroke="#666666" points="52,-19 0,-19 0,0 52,0 52,-19"/>
<text text-anchor="middle" x="26" y="-7" font-family="Helvetica,sans-Serif" font-size="10.00">TEST_F</text>
</a>
</g>
</g>
<!-- Node5&#45;&gt;Node8 -->
<g id="edge7_Node000005_Node000008" class="edge">
<title>Node5&#45;&gt;Node8</title>
<g id="a_edge7_Node000005_Node000008"><a xlink:title=" ">
<path fill="none" stroke="#63b8ff" d="M129.15,-34.53C103.42,-28.22 72.95,-20.76 52.02,-15.63"/>
<polygon fill="#63b8ff" stroke="#63b8ff" points="128.57,-37.99 139.11,-36.97 130.23,-31.19 128.57,-37.99"/>
</a>
</g>
</g>
</g>
</svg>
</svg>

<style type='text/css'>
<![CDATA[
[data-mouse-over-selected='false'] { opacity: 0.7; }
[data-mouse-over-selected='true']  { opacity: 1.0; }
]]>
</style>
<script type="application/ecmascript"><![CDATA[
document.addEventListener('DOMContentLoaded', (event) => {
  highlightEdges();
  highlightAdjacentNodes();
});
]]></script>
</svg>
