<?xml version="1.0" encoding="UTF-8" standalone="no"?>
<!DOCTYPE svg PUBLIC "-//W3C//DTD SVG 1.1//EN"
 "http://www.w3.org/Graphics/SVG/1.1/DTD/svg11.dtd">
<!-- Generated by graphviz version 2.43.0 (0)
 -->
<!-- Title: ScreenRow::setNext Pages: 1 -->
<svg width="656pt" height="66pt"
 viewBox="0.00 0.00 656.00 66.00" xmlns="http://www.w3.org/2000/svg" xmlns:xlink="http://www.w3.org/1999/xlink">
<g id="graph0" class="graph" transform="scale(1 1) rotate(0) translate(4 62)">
<title>ScreenRow::setNext</title>
<polygon fill="white" stroke="transparent" points="-4,4 -4,-62 652,-62 652,4 -4,4"/>
<!-- Node1 -->
<g id="node1" class="node">
<title>Node1</title>
<g id="a_node1"><a xlink:title="Set the next ScreenRow instance in the list.">
<polygon fill="#bfbfbf" stroke="black" points="534,-19.5 534,-38.5 648,-38.5 648,-19.5 534,-19.5"/>
<text text-anchor="middle" x="591" y="-26.5" font-family="Helvetica,sans-Serif" font-size="10.00">ScreenRow::setNext</text>
</a>
</g>
</g>
<!-- Node2 -->
<g id="node2" class="node">
<title>Node2</title>
<g id="a_node2"><a xlink:href="classScreen.html#a1a1f735d2c573b460813e1ba0667b649" target="_top" xlink:title="Add a new ScreenRow to the list.">
<polygon fill="white" stroke="black" points="358.5,-38.5 358.5,-57.5 491.5,-57.5 491.5,-38.5 358.5,-38.5"/>
<text text-anchor="middle" x="425" y="-45.5" font-family="Helvetica,sans-Serif" font-size="10.00">Screen::_addScreenRow</text>
</a>
</g>
</g>
<!-- Node1&#45;&gt;Node2 -->
<g id="edge1" class="edge">
<title>Node1&#45;&gt;Node2</title>
<path fill="none" stroke="midnightblue" d="M523.57,-36.7C513.02,-37.92 502.11,-39.18 491.57,-40.4"/>
<polygon fill="midnightblue" stroke="midnightblue" points="524.03,-40.17 533.56,-35.54 523.22,-33.21 524.03,-40.17"/>
</g>
<!-- Node6 -->
<g id="node6" class="node">
<title>Node6</title>
<g id="a_node6"><a xlink:href="classScreen.html#a43263117dfffa210ccd83b6cd12e0732" target="_top" xlink:title="Delete the specified ScreenRow and update the list accordingly.">
<polygon fill="white" stroke="black" points="352,-0.5 352,-19.5 498,-19.5 498,-0.5 352,-0.5"/>
<text text-anchor="middle" x="425" y="-7.5" font-family="Helvetica,sans-Serif" font-size="10.00">Screen::_deleteScreenRow</text>
</a>
</g>
</g>
<!-- Node1&#45;&gt;Node6 -->
<g id="edge5" class="edge">
<title>Node1&#45;&gt;Node6</title>
<path fill="none" stroke="midnightblue" d="M523.52,-21.3C515.18,-20.33 506.61,-19.34 498.18,-18.36"/>
<polygon fill="midnightblue" stroke="midnightblue" points="523.22,-24.79 533.56,-22.46 524.03,-17.83 523.22,-24.79"/>
</g>
<!-- Node3 -->
<g id="node3" class="node">
<title>Node3</title>
<g id="a_node3"><a xlink:href="classScreen.html#a0a9a3a713a63ef55e854841d07630556" target="_top" xlink:title="Update the specified ScreenRow, or create it if it doesn&#39;t exist This will automatically maintain the...">
<polygon fill="white" stroke="black" points="173,-19.5 173,-38.5 316,-38.5 316,-19.5 173,-19.5"/>
<text text-anchor="middle" x="244.5" y="-26.5" font-family="Helvetica,sans-Serif" font-size="10.00">Screen::updateScreenRow</text>
</a>
</g>
</g>
<!-- Node2&#45;&gt;Node3 -->
<g id="edge2" class="edge">
<title>Node2&#45;&gt;Node3</title>
<path fill="none" stroke="midnightblue" d="M348.21,-39.93C337.58,-38.8 326.69,-37.64 316.17,-36.52"/>
<polygon fill="midnightblue" stroke="midnightblue" points="347.98,-43.43 358.29,-41.01 348.72,-36.47 347.98,-43.43"/>
</g>
<!-- Node4 -->
<g id="node4" class="node">
<title>Node4</title>
<g id="a_node4"><a xlink:href="test__Screen_8cpp.html#a9da657726211d6af0e63eaab94ad162f" target="_top" xlink:title="Create a screen with associated row list and ensure rows are accessible by ID.">
<polygon fill="white" stroke="black" points="42.5,-38.5 42.5,-57.5 94.5,-57.5 94.5,-38.5 42.5,-38.5"/>
<text text-anchor="middle" x="68.5" y="-45.5" font-family="Helvetica,sans-Serif" font-size="10.00">TEST_F</text>
</a>
</g>
</g>
<!-- Node3&#45;&gt;Node4 -->
<g id="edge3" class="edge">
<title>Node3&#45;&gt;Node4</title>
<path fill="none" stroke="midnightblue" d="M162.84,-37.81C138.15,-40.5 112.79,-43.27 94.74,-45.24"/>
<polygon fill="midnightblue" stroke="midnightblue" points="163.42,-41.27 172.98,-36.7 162.66,-34.31 163.42,-41.27"/>
</g>
<!-- Node5 -->
<g id="node5" class="node">
<title>Node5</title>
<g id="a_node5"><a xlink:href="classController.html#a908f5f6c24239286e29d4761da509963" target="_top" xlink:title="Method to implement updating a screen.">
<polygon fill="white" stroke="black" points="0,-0.5 0,-19.5 137,-19.5 137,-0.5 0,-0.5"/>
<text text-anchor="middle" x="68.5" y="-7.5" font-family="Helvetica,sans-Serif" font-size="10.00">Controller::updateScreen</text>
</a>
</g>
</g>
<!-- Node3&#45;&gt;Node5 -->
<g id="edge4" class="edge">
<title>Node3&#45;&gt;Node5</title>
<path fill="none" stroke="midnightblue" d="M162.88,-20.2C154.23,-19.25 145.5,-18.3 137.02,-17.37"/>
<polygon fill="midnightblue" stroke="midnightblue" points="162.66,-23.69 172.98,-21.3 163.42,-16.73 162.66,-23.69"/>
</g>
<!-- Node6&#45;&gt;Node3 -->
<g id="edge6" class="edge">
<title>Node6&#45;&gt;Node3</title>
<path fill="none" stroke="midnightblue" d="M341.87,-18.74C333.27,-19.66 324.58,-20.58 316.12,-21.48"/>
<polygon fill="midnightblue" stroke="midnightblue" points="342.34,-22.21 351.91,-17.67 341.6,-15.25 342.34,-22.21"/>
</g>
</g>
</svg>
