<?xml version="1.0" encoding="UTF-8" standalone="no"?>
<!DOCTYPE svg PUBLIC "-//W3C//DTD SVG 1.1//EN"
 "http://www.w3.org/Graphics/SVG/1.1/DTD/svg11.dtd">
<!-- Generated by graphviz version 2.43.0 (0)
 -->
<!-- Title: DisplayInterface::getNext Pages: 1 -->
<!--zoomable 430 -->

<svg id="main" version="1.1" xmlns="http://www.w3.org/2000/svg" xmlns:xlink="http://www.w3.org/1999/xlink" xml:space="preserve" onload="init(evt)">
<style type="text/css"><![CDATA[
.node, .edge {opacity: 0.7;}
.node.selected, .edge.selected {opacity: 1;}
.edge:hover path { stroke: red; }
.edge:hover polygon { stroke: red; fill: red; }
]]></style>

<defs>
  <circle id="rim" cx="0" cy="0" r="7"/>
  <circle id="rim2" cx="0" cy="0" r="3.5"/>
  <g id="zoomPlus">
    <use xlink:href="#rim" fill="#404040"><set attributeName="fill" to="#808080" begin="zoomplus.mouseover" end="zoomplus.mouseout"/></use>
    <path d="M-4,0h8M0,-4v8" fill="none" stroke="white" stroke-width="1.5" pointer-events="none"/>
  </g>
  <g id="zoomMin">
    <use xlink:href="#rim" fill="#404040"><set attributeName="fill" to="#808080" begin="zoomminus.mouseover" end="zoomminus.mouseout"/></use>
    <path d="M-4,0h8" fill="none" stroke="white" stroke-width="1.5" pointer-events="none"/>
  </g>
  <g id="arrowUp" transform="translate(30 24)">
    <use xlink:href="#rim"/>
    <path pointer-events="none" fill="none" stroke="white" stroke-width="1.5" d="M0,-3.0v7 M-2.5,-0.5L0,-3.0L2.5,-0.5"/>
  </g>
  <g id="arrowRight" transform="rotate(90) translate(36 -43)">
    <use xlink:href="#rim"/>
    <path pointer-events="none" fill="none" stroke="white" stroke-width="1.5" d="M0,-3.0v7 M-2.5,-0.5L0,-3.0L2.5,-0.5"/>
  </g>
  <g id="arrowDown" transform="rotate(180) translate(-30 -48)">
    <use xlink:href="#rim"/>
    <path pointer-events="none" fill="none" stroke="white" stroke-width="1.5" d="M0,-3.0v7 M-2.5,-0.5L0,-3.0L2.5,-0.5"/>
  </g>
  <g id="arrowLeft" transform="rotate(270) translate(-36 17)">
    <use xlink:href="#rim"/>
    <path pointer-events="none" fill="none" stroke="white" stroke-width="1.5" d="M0,-3.0v7 M-2.5,-0.5L0,-3.0L2.5,-0.5"/>
  </g>
  <g id="resetDef">
    <use xlink:href="#rim2" fill="#404040"><set attributeName="fill" to="#808080" begin="reset.mouseover" end="reset.mouseout"/></use>
  </g>
</defs>
<script type="application/ecmascript">
var viewWidth = 850;
var viewHeight = 430;
var sectionId = 'dynsection-14';
</script>
<script type="application/ecmascript" xlink:href="svg.min.js"/>
<svg id="graph" class="graph">
<g id="viewport">
<title>DisplayInterface::getNext</title>
<!-- Node1 -->
<g id="Node000001" class="node">
<title>Node1</title>
<g id="a_Node000001"><a xlink:title="Get the next DisplayInterface derived instance in the list.">
<polygon fill="#999999" stroke="#666666" points="842,-224.5 700,-224.5 700,-205.5 842,-205.5 842,-224.5"/>
<text text-anchor="middle" x="771" y="-212.5" font-family="Helvetica,sans-Serif" font-size="10.00">DisplayInterface::getNext</text>
</a>
</g>
</g>
<!-- Node2 -->
<g id="Node000002" class="node">
<title>Node2</title>
<g id="a_Node000002"><a xlink:href="classDisplayManager.html#abcac9213f163018979f2a226ecf53882" target="_top" xlink:title="Manually selects SPI displays that require manual selecting via the CS pin &#45; sets pin low.">
<polygon fill="white" stroke="#666666" points="664,-343.5 476,-343.5 476,-324.5 664,-324.5 664,-343.5"/>
<text text-anchor="middle" x="570" y="-331.5" font-family="Helvetica,sans-Serif" font-size="10.00">DisplayManager::_selectSPIDisplay</text>
</a>
</g>
</g>
<!-- Node1&#45;&gt;Node2 -->
<g id="edge1_Node000001_Node000002" class="edge">
<title>Node1&#45;&gt;Node2</title>
<g id="a_edge1_Node000001_Node000002"><a xlink:title=" ">
<path fill="none" stroke="#63b8ff" d="M755.4,-232.44C736.5,-253.89 701.5,-289.92 664,-310 652.24,-316.3 638.75,-321 625.76,-324.5"/>
<polygon fill="#63b8ff" stroke="#63b8ff" points="758.16,-234.59 762.05,-224.74 752.87,-230.02 758.16,-234.59"/>
</a>
</g>
</g>
<!-- Node3 -->
<g id="Node000003" class="node">
<title>Node3</title>
<g id="a_Node000003"><a xlink:href="classDisplayManager.html#ac007625bc3dc91b4a7f22238226f37ea" target="_top" xlink:title="Clear all displays.">
<polygon fill="white" stroke="#666666" points="414,-419 275,-419 275,-389 414,-389 414,-419"/>
<text text-anchor="start" x="283" y="-407" font-family="Helvetica,sans-Serif" font-size="10.00">DisplayManager::clearAll</text>
<text text-anchor="middle" x="344.5" y="-396" font-family="Helvetica,sans-Serif" font-size="10.00">Displays</text>
</a>
</g>
</g>
<!-- Node1&#45;&gt;Node3 -->
<g id="edge22_Node000001_Node000003" class="edge">
<title>Node1&#45;&gt;Node3</title>
<g id="a_edge22_Node000001_Node000003"><a xlink:title=" ">
<path fill="none" stroke="#63b8ff" d="M764.08,-234.7C751.99,-271.09 720.69,-348.24 664,-382 587.8,-427.37 482.44,-424.62 414.13,-416.18"/>
<polygon fill="#63b8ff" stroke="#63b8ff" points="767.53,-235.39 767.23,-224.8 760.86,-233.27 767.53,-235.39"/>
</a>
</g>
</g>
<!-- Node8 -->
<g id="Node000008" class="node">
<title>Node8</title>
<g id="a_Node000008"><a xlink:href="classDisplayManager.html#aa0e0e26134a34beeb30e27c00b8e829f" target="_top" xlink:title="Calls the displayStartupInfo of all Display instances to display the version.">
<polygon fill="white" stroke="#666666" points="440,-328.5 249,-328.5 249,-309.5 440,-309.5 440,-328.5"/>
<text text-anchor="middle" x="344.5" y="-316.5" font-family="Helvetica,sans-Serif" font-size="10.00">DisplayManager::displayStartupInfo</text>
</a>
</g>
</g>
<!-- Node1&#45;&gt;Node8 -->
<g id="edge23_Node000001_Node000008" class="edge">
<title>Node1&#45;&gt;Node8</title>
<g id="a_edge23_Node000001_Node000008"><a xlink:title=" ">
<path fill="none" stroke="#63b8ff" d="M741.22,-228.86C720.23,-238.49 690.87,-250.99 664,-259 581.91,-283.48 484.8,-300.07 419.58,-309.49"/>
<polygon fill="#63b8ff" stroke="#63b8ff" points="742.93,-231.92 750.52,-224.53 739.98,-225.58 742.93,-231.92"/>
</a>
</g>
</g>
<!-- Node15 -->
<g id="Node000015" class="node">
<title>Node15</title>
<g id="a_Node000015"><a xlink:href="classDisplayManager.html#ad53dcac2e939893727d27187524733c6" target="_top" xlink:title="Call this routinely to ensure all displays are updated with screens.">
<polygon fill="white" stroke="#666666" points="412.5,-370.5 276.5,-370.5 276.5,-351.5 412.5,-351.5 412.5,-370.5"/>
<text text-anchor="middle" x="344.5" y="-358.5" font-family="Helvetica,sans-Serif" font-size="10.00">DisplayManager::update</text>
</a>
</g>
</g>
<!-- Node1&#45;&gt;Node15 -->
<g id="edge33_Node000001_Node000015" class="edge">
<title>Node1&#45;&gt;Node15</title>
<g id="a_edge33_Node000001_Node000015"><a xlink:title=" ">
<path fill="none" stroke="#63b8ff" d="M762,-234.15C747.66,-265.64 714.32,-327.41 664,-353 573.53,-399.01 449.11,-383.17 385.9,-370.51"/>
<polygon fill="#63b8ff" stroke="#63b8ff" points="765.32,-235.3 766.13,-224.73 758.91,-232.49 765.32,-235.3"/>
</a>
</g>
</g>
<!-- Node16 -->
<g id="Node000016" class="node">
<title>Node16</title>
<g id="a_Node000016"><a xlink:href="classDisplayManager.html#a33f6184fa8292c66a6cd2f05f264ef0f" target="_top" xlink:title="Set the chip select pin state for all displays that have it set and select them.">
<polygon fill="white" stroke="#666666" points="643.5,-230 496.5,-230 496.5,-200 643.5,-200 643.5,-230"/>
<text text-anchor="start" x="504.5" y="-218" font-family="Helvetica,sans-Serif" font-size="10.00">DisplayManager::_setupAll</text>
<text text-anchor="middle" x="570" y="-207" font-family="Helvetica,sans-Serif" font-size="10.00">SPICSPins</text>
</a>
</g>
</g>
<!-- Node1&#45;&gt;Node16 -->
<g id="edge11_Node000001_Node000016" class="edge">
<title>Node1&#45;&gt;Node16</title>
<g id="a_edge11_Node000001_Node000016"><a xlink:title=" ">
<path fill="none" stroke="#63b8ff" d="M689.45,-215C674.27,-215 658.47,-215 643.56,-215"/>
<polygon fill="#63b8ff" stroke="#63b8ff" points="689.84,-218.5 699.84,-215 689.84,-211.5 689.84,-218.5"/>
</a>
</g>
</g>
<!-- Node17 -->
<g id="Node000017" class="node">
<title>Node17</title>
<g id="a_Node000017"><a xlink:href="classDisplayManager.html#a270daf83b6af22558fde42034254b351" target="_top" xlink:title="Call the begin() method for all associated Display instances.">
<polygon fill="white" stroke="#666666" points="428,-217.5 261,-217.5 261,-198.5 428,-198.5 428,-217.5"/>
<text text-anchor="middle" x="344.5" y="-205.5" font-family="Helvetica,sans-Serif" font-size="10.00">DisplayManager::startDisplays</text>
</a>
</g>
</g>
<!-- Node1&#45;&gt;Node17 -->
<g id="edge30_Node000001_Node000017" class="edge">
<title>Node1&#45;&gt;Node17</title>
<g id="a_edge30_Node000001_Node000017"><a xlink:title=" ">
<path fill="none" stroke="#63b8ff" d="M726.56,-202.87C707.52,-198.15 684.82,-193.33 664,-191 580.96,-181.72 559.38,-185.59 476,-191 452.97,-192.49 427.8,-195.45 405.76,-198.49"/>
<polygon fill="#63b8ff" stroke="#63b8ff" points="725.88,-206.31 736.43,-205.39 727.61,-199.52 725.88,-206.31"/>
</a>
</g>
</g>
<!-- Node18 -->
<g id="Node000018" class="node">
<title>Node18</title>
<g id="a_Node000018"><a xlink:href="test__CompilerCreation_8cpp.html#a484c00ac396e82066ad78a3641a34a4f" target="_top" xlink:title="Ensure devices are created and all attributes are valid.">
<polygon fill="white" stroke="#666666" points="176.5,-106.5 124.5,-106.5 124.5,-87.5 176.5,-87.5 176.5,-106.5"/>
<text text-anchor="middle" x="150.5" y="-94.5" font-family="Helvetica,sans-Serif" font-size="10.00">TEST_F</text>
</a>
</g>
</g>
<!-- Node1&#45;&gt;Node18 -->
<g id="edge31_Node000001_Node000018" class="edge">
<title>Node1&#45;&gt;Node18</title>
<g id="a_edge31_Node000001_Node000018"><a xlink:title=" ">
<path fill="none" stroke="#63b8ff" d="M751.05,-198.92C730.87,-182.73 697.3,-158.43 664,-146 486.9,-79.89 252.62,-89.57 176.52,-94.93"/>
<polygon fill="#63b8ff" stroke="#63b8ff" points="748.89,-201.67 758.84,-205.3 753.33,-196.26 748.89,-201.67"/>
</a>
</g>
</g>
<!-- Node20 -->
<g id="Node000020" class="node">
<title>Node20</title>
<g id="a_Node000020"><a xlink:href="classDisplayManager.html#a14afc225d393f7224bfa0474338d39f3" target="_top" xlink:title="Add a DisplayInterface derived instance to the list of displays.">
<polygon fill="white" stroke="#666666" points="423,-260.5 266,-260.5 266,-241.5 423,-241.5 423,-260.5"/>
<text text-anchor="middle" x="344.5" y="-248.5" font-family="Helvetica,sans-Serif" font-size="10.00">DisplayManager::addDisplay</text>
</a>
</g>
</g>
<!-- Node1&#45;&gt;Node20 -->
<g id="edge16_Node000001_Node000020" class="edge">
<title>Node1&#45;&gt;Node20</title>
<g id="a_edge16_Node000001_Node000020"><a xlink:title=" ">
<path fill="none" stroke="#63b8ff" d="M725.64,-226.97C706.78,-231.55 684.46,-236.32 664,-239 582.25,-249.7 487.77,-252.01 423.07,-252.07"/>
<polygon fill="#63b8ff" stroke="#63b8ff" points="726.58,-230.34 735.44,-224.53 724.89,-223.55 726.58,-230.34"/>
</a>
</g>
</g>
<!-- Node23 -->
<g id="Node000023" class="node">
<title>Node23</title>
<g id="a_Node000023"><a xlink:href="classDisplayManager.html#a0dcf69d16599029ba34bf31c0c666390" target="_top" xlink:title="Get a DisplayInterface derived instance by its ID.">
<polygon fill="white" stroke="#666666" points="432.5,-143.5 256.5,-143.5 256.5,-124.5 432.5,-124.5 432.5,-143.5"/>
<text text-anchor="middle" x="344.5" y="-131.5" font-family="Helvetica,sans-Serif" font-size="10.00">DisplayManager::getDisplayById</text>
</a>
</g>
</g>
<!-- Node1&#45;&gt;Node23 -->
<g id="edge24_Node000001_Node000023" class="edge">
<title>Node1&#45;&gt;Node23</title>
<g id="a_edge24_Node000001_Node000023"><a xlink:title=" ">
<path fill="none" stroke="#63b8ff" d="M734.68,-202.07C714.26,-194.99 687.94,-186.57 664,-181 586.69,-163.03 497.15,-150.53 432.74,-142.97"/>
<polygon fill="#63b8ff" stroke="#63b8ff" points="733.6,-205.4 744.2,-205.41 735.92,-198.79 733.6,-205.4"/>
</a>
</g>
</g>
<!-- Node26 -->
<g id="Node000026" class="node">
<title>Node26</title>
<g id="a_Node000026"><a xlink:href="test__DisplayInterface_8cpp.html#aa023f143e38a3052f9e71534ff19f5f9" target="_top" xlink:title="Test a second display can be accessed via the first in a list.">
<polygon fill="white" stroke="#666666" points="596,-67.5 544,-67.5 544,-48.5 596,-48.5 596,-67.5"/>
<text text-anchor="middle" x="570" y="-55.5" font-family="Helvetica,sans-Serif" font-size="10.00">TEST_F</text>
</a>
</g>
</g>
<!-- Node1&#45;&gt;Node26 -->
<g id="edge32_Node000001_Node000026" class="edge">
<title>Node1&#45;&gt;Node26</title>
<g id="a_edge32_Node000001_Node000026"><a xlink:title=" ">
<path fill="none" stroke="#63b8ff" d="M760.22,-196.08C744.17,-166.96 709.43,-111.46 664,-82 643.43,-68.66 615.82,-62.73 596.04,-60.1"/>
<polygon fill="#63b8ff" stroke="#63b8ff" points="757.29,-198.03 765.1,-205.19 763.46,-194.72 757.29,-198.03"/>
</a>
</g>
</g>
<!-- Node27 -->
<g id="Node000027" class="node">
<title>Node27</title>
<g id="a_Node000027"><a xlink:href="classDisplayManager.html#ae4c9d79e08490e64602cf562a16d8834" target="_top" xlink:title="Destructor for the DisplayManager.">
<polygon fill="white" stroke="#666666" points="643.5,-30 496.5,-30 496.5,0 643.5,0 643.5,-30"/>
<text text-anchor="start" x="504.5" y="-18" font-family="Helvetica,sans-Serif" font-size="10.00">DisplayManager::~Display</text>
<text text-anchor="middle" x="570" y="-7" font-family="Helvetica,sans-Serif" font-size="10.00">Manager</text>
</a>
</g>
</g>
<!-- Node1&#45;&gt;Node27 -->
<g id="edge34_Node000001_Node000027" class="edge">
<title>Node1&#45;&gt;Node27</title>
<g id="a_edge34_Node000001_Node000027"><a xlink:title=" ">
<path fill="none" stroke="#63b8ff" d="M763.76,-195.25C751.12,-158.57 718.94,-79.96 664,-39 657.85,-34.42 650.91,-30.7 643.66,-27.7"/>
<polygon fill="#63b8ff" stroke="#63b8ff" points="760.59,-196.8 767.06,-205.2 767.23,-194.6 760.59,-196.8"/>
</a>
</g>
</g>
<!-- Node2&#45;&gt;Node3 -->
<g id="edge2_Node000002_Node000003" class="edge">
<title>Node2&#45;&gt;Node3</title>
<g id="a_edge2_Node000002_Node000003"><a xlink:title=" ">
<path fill="none" stroke="#63b8ff" d="M534.81,-347.18C508.97,-356.9 472.53,-370.09 440,-380 429.8,-383.11 418.89,-386.14 408.25,-388.94"/>
<polygon fill="#63b8ff" stroke="#63b8ff" points="536.39,-350.33 544.5,-343.51 533.91,-343.78 536.39,-350.33"/>
</a>
</g>
</g>
<!-- Node2&#45;&gt;Node8 -->
<g id="edge4_Node000002_Node000008" class="edge">
<title>Node2&#45;&gt;Node8</title>
<g id="a_edge4_Node000002_Node000008"><a xlink:title=" ">
<path fill="none" stroke="#63b8ff" d="M465.6,-327.06C457.17,-326.49 448.68,-325.92 440.31,-325.36"/>
<polygon fill="#63b8ff" stroke="#63b8ff" points="465.62,-330.57 475.83,-327.75 466.09,-323.59 465.62,-330.57"/>
</a>
</g>
</g>
<!-- Node2&#45;&gt;Node15 -->
<g id="edge9_Node000002_Node000015" class="edge">
<title>Node2&#45;&gt;Node15</title>
<g id="a_edge9_Node000002_Node000015"><a xlink:title=" ">
<path fill="none" stroke="#63b8ff" d="M480.02,-344.75C457.64,-347.45 433.98,-350.31 412.85,-352.86"/>
<polygon fill="#63b8ff" stroke="#63b8ff" points="480.69,-348.19 490.2,-343.52 479.85,-341.24 480.69,-348.19"/>
</a>
</g>
</g>
<!-- Node4 -->
<g id="Node000004" class="node">
<title>Node4</title>
<g id="a_Node000004"><a xlink:href="classController.html#a7d04c17913f04f99429aa29fa8505484" target="_top" xlink:title="Processes all ongoing activities, monitoring streams, receiving user input, updates displays,...">
<polygon fill="#fff0f0" stroke="red" points="202.5,-408.5 98.5,-408.5 98.5,-389.5 202.5,-389.5 202.5,-408.5"/>
<text text-anchor="middle" x="150.5" y="-396.5" font-family="Helvetica,sans-Serif" font-size="10.00">Controller::update</text>
</a>
</g>
</g>
<!-- Node3&#45;&gt;Node4 -->
<g id="edge3_Node000003_Node000004" class="edge">
<title>Node3&#45;&gt;Node4</title>
<g id="a_edge3_Node000003_Node000004"><a xlink:title=" ">
<path fill="none" stroke="#63b8ff" d="M264.83,-401.95C243.89,-401.41 221.82,-400.83 202.77,-400.34"/>
<polygon fill="#63b8ff" stroke="#63b8ff" points="264.91,-405.45 275,-402.22 265.09,-398.46 264.91,-405.45"/>
</a>
</g>
</g>
<!-- Node9 -->
<g id="Node000009" class="node">
<title>Node9</title>
<g id="a_Node000009"><a xlink:href="classController.html#a1cc0b87ab9e07d21ab47d294aa5bf607" target="_top" xlink:title="Call once to start displays and input.">
<polygon fill="white" stroke="#666666" points="199.5,-291.5 101.5,-291.5 101.5,-272.5 199.5,-272.5 199.5,-291.5"/>
<text text-anchor="middle" x="150.5" y="-279.5" font-family="Helvetica,sans-Serif" font-size="10.00">Controller::begin</text>
</a>
</g>
</g>
<!-- Node8&#45;&gt;Node9 -->
<g id="edge5_Node000008_Node000009" class="edge">
<title>Node8&#45;&gt;Node9</title>
<g id="a_edge5_Node000008_Node000009"><a xlink:title=" ">
<path fill="none" stroke="#63b8ff" d="M283.93,-307.52C256.89,-302.31 225.32,-296.22 199.78,-291.3"/>
<polygon fill="#63b8ff" stroke="#63b8ff" points="283.57,-311.02 294.06,-309.47 284.9,-304.14 283.57,-311.02"/>
</a>
</g>
</g>
<!-- Node13 -->
<g id="Node000013" class="node">
<title>Node13</title>
<g id="a_Node000013"><a xlink:href="test__DisplayManager_8cpp.html#ad108e01a79b7f75a831a955e93bb9176" target="_top" xlink:title="Validate the displayStartupInfo() method correct calls all display methods.">
<polygon fill="white" stroke="#666666" points="176.5,-365.5 124.5,-365.5 124.5,-346.5 176.5,-346.5 176.5,-365.5"/>
<text text-anchor="middle" x="150.5" y="-353.5" font-family="Helvetica,sans-Serif" font-size="10.00">TEST_F</text>
</a>
</g>
</g>
<!-- Node8&#45;&gt;Node13 -->
<g id="edge7_Node000008_Node000013" class="edge">
<title>Node8&#45;&gt;Node13</title>
<g id="a_edge7_Node000008_Node000013"><a xlink:title=" ">
<path fill="none" stroke="#63b8ff" d="M284.12,-330.44C248.04,-337.4 203.85,-345.91 176.69,-351.15"/>
<polygon fill="#63b8ff" stroke="#63b8ff" points="284.9,-333.86 294.06,-328.53 283.57,-326.98 284.9,-333.86"/>
</a>
</g>
</g>
<!-- Node14 -->
<g id="Node000014" class="node">
<title>Node14</title>
<g id="a_Node000014"><a xlink:href="test__DisplayManualSPISwitching_8cpp.html#a928ab800b1e1899f185fb572718ec014" target="_top" xlink:title="Test that SPI displays can be switched manually if their library doesn&#39;t support it (eg....">
<polygon fill="white" stroke="#666666" points="176.5,-328.5 124.5,-328.5 124.5,-309.5 176.5,-309.5 176.5,-328.5"/>
<text text-anchor="middle" x="150.5" y="-316.5" font-family="Helvetica,sans-Serif" font-size="10.00">TEST_F</text>
</a>
</g>
</g>
<!-- Node8&#45;&gt;Node14 -->
<g id="edge8_Node000008_Node000014" class="edge">
<title>Node8&#45;&gt;Node14</title>
<g id="a_edge8_Node000008_Node000014"><a xlink:title=" ">
<path fill="none" stroke="#63b8ff" d="M238.91,-319C215.63,-319 193.03,-319 176.65,-319"/>
<polygon fill="#63b8ff" stroke="#63b8ff" points="238.91,-322.5 248.91,-319 238.91,-315.5 238.91,-322.5"/>
</a>
</g>
</g>
<!-- Node10 -->
<g id="Node000010" class="node">
<title>Node10</title>
<g id="a_Node000010"><a xlink:href="EX-Display_8ino.html#a4fc01d736fe50cf5b977f755b675f11d" target="_top" xlink:title="Main setup method, initialise Configurator here.">
<polygon fill="#fff0f0" stroke="red" points="48,-235.5 4,-235.5 4,-216.5 48,-216.5 48,-235.5"/>
<text text-anchor="middle" x="26" y="-223.5" font-family="Helvetica,sans-Serif" font-size="10.00">setup</text>
</a>
</g>
</g>
<!-- Node9&#45;&gt;Node10 -->
<g id="edge6_Node000009_Node000010" class="edge">
<title>Node9&#45;&gt;Node10</title>
<g id="a_edge6_Node000009_Node000010"><a xlink:title=" ">
<path fill="none" stroke="#63b8ff" d="M101.05,-269.19C96.58,-267.6 92.17,-265.87 88,-264 70.46,-256.15 51.95,-243.99 39.98,-235.55"/>
<polygon fill="#63b8ff" stroke="#63b8ff" points="100.27,-272.61 110.86,-272.44 102.47,-265.97 100.27,-272.61"/>
</a>
</g>
</g>
<!-- Node15&#45;&gt;Node4 -->
<g id="edge10_Node000015_Node000004" class="edge">
<title>Node15&#45;&gt;Node4</title>
<g id="a_edge10_Node000015_Node000004"><a xlink:title=" ">
<path fill="none" stroke="#63b8ff" d="M285.2,-372.54C257.82,-377.96 225.57,-384.34 199.6,-389.48"/>
<polygon fill="#63b8ff" stroke="#63b8ff" points="285.92,-375.96 295.05,-370.59 284.56,-369.1 285.92,-375.96"/>
</a>
</g>
</g>
<!-- Node16&#45;&gt;Node17 -->
<g id="edge12_Node000016_Node000017" class="edge">
<title>Node16&#45;&gt;Node17</title>
<g id="a_edge12_Node000016_Node000017"><a xlink:title=" ">
<path fill="none" stroke="#63b8ff" d="M486.33,-212.41C467.34,-211.82 447.15,-211.18 428.17,-210.59"/>
<polygon fill="#63b8ff" stroke="#63b8ff" points="486.33,-215.91 496.44,-212.73 486.55,-208.92 486.33,-215.91"/>
</a>
</g>
</g>
<!-- Node17&#45;&gt;Node9 -->
<g id="edge13_Node000017_Node000009" class="edge">
<title>Node17&#45;&gt;Node9</title>
<g id="a_edge13_Node000017_Node000009"><a xlink:title=" ">
<path fill="none" stroke="#63b8ff" d="M280.52,-220.39C269.68,-223.71 258.77,-227.85 249,-233 230.32,-242.84 231.55,-253.92 213,-264 206.84,-267.35 199.99,-270.14 193.16,-272.44"/>
<polygon fill="#63b8ff" stroke="#63b8ff" points="281.76,-223.67 290.42,-217.56 279.84,-216.94 281.76,-223.67"/>
</a>
</g>
</g>
<!-- Node17&#45;&gt;Node18 -->
<g id="edge14_Node000017_Node000018" class="edge">
<title>Node17&#45;&gt;Node18</title>
<g id="a_edge14_Node000017_Node000018"><a xlink:title=" ">
<path fill="none" stroke="#63b8ff" d="M315.11,-193.73C295.66,-183.36 269.73,-168.32 249,-152 230.97,-137.81 232.66,-126.83 213,-115 201.94,-108.34 188.28,-104.02 176.64,-101.29"/>
<polygon fill="#63b8ff" stroke="#63b8ff" points="313.6,-196.9 324.08,-198.44 316.85,-190.69 313.6,-196.9"/>
</a>
</g>
</g>
<!-- Node19 -->
<g id="Node000019" class="node">
<title>Node19</title>
<g id="a_Node000019"><a xlink:href="test__DisplayManager_8cpp.html#a95f97074a82f0e3d901808635e654d9a" target="_top" xlink:title="Validate the startDisplays() method correctly calls all display begin() methods.">
<polygon fill="white" stroke="#666666" points="176.5,-217.5 124.5,-217.5 124.5,-198.5 176.5,-198.5 176.5,-217.5"/>
<text text-anchor="middle" x="150.5" y="-205.5" font-family="Helvetica,sans-Serif" font-size="10.00">TEST_F</text>
</a>
</g>
</g>
<!-- Node17&#45;&gt;Node19 -->
<g id="edge15_Node000017_Node000019" class="edge">
<title>Node17&#45;&gt;Node19</title>
<g id="a_edge15_Node000017_Node000019"><a xlink:title=" ">
<path fill="none" stroke="#63b8ff" d="M250.91,-208C223.52,-208 195.77,-208 176.58,-208"/>
<polygon fill="#63b8ff" stroke="#63b8ff" points="250.96,-211.5 260.96,-208 250.96,-204.5 250.96,-211.5"/>
</a>
</g>
</g>
<!-- Node20&#45;&gt;Node13 -->
<g id="edge18_Node000020_Node000013" class="edge">
<title>Node20&#45;&gt;Node13</title>
<g id="a_edge18_Node000020_Node000013"><a xlink:title=" ">
<path fill="none" stroke="#63b8ff" d="M311.78,-264.72C292.71,-273.69 268.44,-286.44 249,-301 230.64,-314.75 232.66,-326.17 213,-338 201.94,-344.66 188.28,-348.98 176.64,-351.71"/>
<polygon fill="#63b8ff" stroke="#63b8ff" points="313.33,-267.86 320.96,-260.5 310.41,-261.5 313.33,-267.86"/>
</a>
</g>
</g>
<!-- Node20&#45;&gt;Node14 -->
<g id="edge21_Node000020_Node000014" class="edge">
<title>Node20&#45;&gt;Node14</title>
<g id="a_edge21_Node000020_Node000014"><a xlink:title=" ">
<path fill="none" stroke="#63b8ff" d="M310.68,-264.42C284.45,-274.95 246.64,-289.65 213,-301 201.19,-304.98 187.95,-308.93 176.78,-312.1"/>
<polygon fill="#63b8ff" stroke="#63b8ff" points="312.17,-267.6 320.13,-260.61 309.55,-261.11 312.17,-267.6"/>
</a>
</g>
</g>
<!-- Node20&#45;&gt;Node19 -->
<g id="edge20_Node000020_Node000019" class="edge">
<title>Node20&#45;&gt;Node19</title>
<g id="a_edge20_Node000020_Node000019"><a xlink:title=" ">
<path fill="none" stroke="#63b8ff" d="M290.72,-239.18C253.56,-230.86 205.48,-220.09 176.65,-213.63"/>
<polygon fill="#63b8ff" stroke="#63b8ff" points="290.37,-242.69 300.89,-241.46 291.9,-235.86 290.37,-242.69"/>
</a>
</g>
</g>
<!-- Node21 -->
<g id="Node000021" class="node">
<title>Node21</title>
<g id="a_Node000021"><a xlink:href="test__DisplayManager_8cpp.html#a8db4cc07d4e89d899e0a75ca521f9229" target="_top" xlink:title="Create a list of mock displays and validate they are created and operate correctly.">
<polygon fill="white" stroke="#666666" points="176.5,-254.5 124.5,-254.5 124.5,-235.5 176.5,-235.5 176.5,-254.5"/>
<text text-anchor="middle" x="150.5" y="-242.5" font-family="Helvetica,sans-Serif" font-size="10.00">TEST_F</text>
</a>
</g>
</g>
<!-- Node20&#45;&gt;Node21 -->
<g id="edge17_Node000020_Node000021" class="edge">
<title>Node20&#45;&gt;Node21</title>
<g id="a_edge17_Node000020_Node000021"><a xlink:title=" ">
<path fill="none" stroke="#63b8ff" d="M255.81,-248.26C226.93,-247.36 197.05,-246.42 176.71,-245.79"/>
<polygon fill="#63b8ff" stroke="#63b8ff" points="255.86,-251.76 265.96,-248.58 256.07,-244.77 255.86,-251.76"/>
</a>
</g>
</g>
<!-- Node22 -->
<g id="Node000022" class="node">
<title>Node22</title>
<g id="a_Node000022"><a xlink:href="test__DisplayManager_8cpp.html#a086adee0e0e3565707e01f5b61e29dff" target="_top" xlink:title="Validate displays can be retrieved by their ID.">
<polygon fill="white" stroke="#666666" points="176.5,-180.5 124.5,-180.5 124.5,-161.5 176.5,-161.5 176.5,-180.5"/>
<text text-anchor="middle" x="150.5" y="-168.5" font-family="Helvetica,sans-Serif" font-size="10.00">TEST_F</text>
</a>
</g>
</g>
<!-- Node20&#45;&gt;Node22 -->
<g id="edge19_Node000020_Node000022" class="edge">
<title>Node20&#45;&gt;Node22</title>
<g id="a_edge19_Node000020_Node000022"><a xlink:title=" ">
<path fill="none" stroke="#63b8ff" d="M275.45,-238.57C266.24,-235.51 257.16,-231.71 249,-227 229.13,-215.52 232.57,-201.98 213,-190 201.94,-183.23 188.28,-178.7 176.64,-175.76"/>
<polygon fill="#63b8ff" stroke="#63b8ff" points="274.48,-241.93 285.07,-241.5 276.52,-235.24 274.48,-241.93"/>
</a>
</g>
</g>
<!-- Node23&#45;&gt;Node18 -->
<g id="edge28_Node000023_Node000018" class="edge">
<title>Node23&#45;&gt;Node18</title>
<g id="a_edge28_Node000023_Node000018"><a xlink:title=" ">
<path fill="none" stroke="#63b8ff" d="M284.12,-122.56C248.04,-115.6 203.85,-107.09 176.69,-101.85"/>
<polygon fill="#63b8ff" stroke="#63b8ff" points="283.57,-126.02 294.06,-124.47 284.9,-119.14 283.57,-126.02"/>
</a>
</g>
</g>
<!-- Node23&#45;&gt;Node22 -->
<g id="edge29_Node000023_Node000022" class="edge">
<title>Node23&#45;&gt;Node22</title>
<g id="a_edge29_Node000023_Node000022"><a xlink:title=" ">
<path fill="none" stroke="#63b8ff" d="M284.12,-145.44C248.04,-152.4 203.85,-160.91 176.69,-166.15"/>
<polygon fill="#63b8ff" stroke="#63b8ff" points="284.9,-148.86 294.06,-143.53 283.57,-141.98 284.9,-148.86"/>
</a>
</g>
</g>
<!-- Node24 -->
<g id="Node000024" class="node">
<title>Node24</title>
<g id="a_Node000024"><a xlink:href="classConfigurator.html#a25ee5e1b0a64d971232d6ecaaadd5d61" target="_top" xlink:title="Call all one&#45;shot initialisation or begin methods on startup.">
<polygon fill="white" stroke="#666666" points="213,-143.5 88,-143.5 88,-124.5 213,-124.5 213,-143.5"/>
<text text-anchor="middle" x="150.5" y="-131.5" font-family="Helvetica,sans-Serif" font-size="10.00">Configurator::initialise</text>
</a>
</g>
</g>
<!-- Node23&#45;&gt;Node24 -->
<g id="edge25_Node000023_Node000024" class="edge">
<title>Node23&#45;&gt;Node24</title>
<g id="a_edge25_Node000023_Node000024"><a xlink:title=" ">
<path fill="none" stroke="#63b8ff" d="M246.2,-134C234.99,-134 223.81,-134 213.26,-134"/>
<polygon fill="#63b8ff" stroke="#63b8ff" points="246.49,-137.5 256.49,-134 246.49,-130.5 246.49,-137.5"/>
</a>
</g>
</g>
<!-- Node24&#45;&gt;Node10 -->
<g id="edge26_Node000024_Node000010" class="edge">
<title>Node24&#45;&gt;Node10</title>
<g id="a_edge26_Node000024_Node000010"><a xlink:title=" ">
<path fill="none" stroke="#63b8ff" d="M95.7,-147.59C93.02,-148.92 90.44,-150.39 88,-152 62.15,-169.05 41.66,-200.39 32.39,-216.25"/>
<polygon fill="#63b8ff" stroke="#63b8ff" points="97.29,-150.71 105.06,-143.51 94.5,-144.29 97.29,-150.71"/>
</a>
</g>
</g>
<!-- Node25 -->
<g id="Node000025" class="node">
<title>Node25</title>
<g id="a_Node000025"><a xlink:href="test__Configurator_8cpp.html#a90ba0264a5f676876816cf7411508ac9" target="_top" xlink:title="Ensure the Configurator is created and all attributes are as expected.">
<polygon fill="white" stroke="#666666" points="52,-143.5 0,-143.5 0,-124.5 52,-124.5 52,-143.5"/>
<text text-anchor="middle" x="26" y="-131.5" font-family="Helvetica,sans-Serif" font-size="10.00">TEST_F</text>
</a>
</g>
</g>
<!-- Node24&#45;&gt;Node25 -->
<g id="edge27_Node000024_Node000025" class="edge">
<title>Node24&#45;&gt;Node25</title>
<g id="a_edge27_Node000024_Node000025"><a xlink:title=" ">
<path fill="none" stroke="#63b8ff" d="M77.87,-134C68.71,-134 59.88,-134 52.21,-134"/>
<polygon fill="#63b8ff" stroke="#63b8ff" points="77.89,-137.5 87.89,-134 77.89,-130.5 77.89,-137.5"/>
</a>
</g>
</g>
</g>
</svg>

<g id="navigator" transform="translate(0 0)" fill="#404254">
  <rect fill="#f2f5e9" fill-opacity="0.5" stroke="#606060" stroke-width=".5" x="0" y="0" width="60" height="60"/>
  <use id="zoomplus" xlink:href="#zoomPlus" x="17" y="9" onmousedown="handleZoom(evt,'in')"/>
  <use id="zoomminus" xlink:href="#zoomMin" x="42" y="9" onmousedown="handleZoom(evt,'out')"/>
  <use id="reset" xlink:href="#resetDef" x="30" y="36" onmousedown="handleReset()"/>
   <use id="arrowup" xlink:href="#arrowUp" x="0" y="0" onmousedown="handlePan(0,-1)"/>
  <use id="arrowright" xlink:href="#arrowRight" x="0" y="0" onmousedown="handlePan(1,0)"/>
  <use id="arrowdown" xlink:href="#arrowDown" x="0" y="0" onmousedown="handlePan(0,1)"/>
  <use id="arrowleft" xlink:href="#arrowLeft" x="0" y="0" onmousedown="handlePan(-1,0)"/>
</g>
<svg viewBox="0 0 15 15" width="100%" height="30px" preserveAspectRatio="xMaxYMin meet">
 <g id="arrow_out" transform="scale(0.3 0.3)">
  <a xlink:href="classDisplayInterface_aedd1018ddee5891bee744cdeac36fe96_icgraph_org.svg" target="_base">
   <rect id="button" ry="5" rx="5" y="6" x="6" height="38" width="38"
        fill="#f2f5e9" fill-opacity="0.5" stroke="#606060" stroke-width="1.0"/>
   <path id="arrow"
     d="M 11.500037,31.436501 C 11.940474,20.09759 22.043105,11.32322 32.158766,21.979434 L 37.068811,17.246167 C 37.068811,17.246167 37.088388,32 37.088388,32 L 22.160133,31.978069 C 22.160133,31.978069 26.997745,27.140456 26.997745,27.140456 C 18.528582,18.264221 13.291696,25.230495 11.500037,31.436501 z"
     style="fill:#404040;"/>
  </a>
 </g>
</svg>

<style type='text/css'>
<![CDATA[
[data-mouse-over-selected='false'] { opacity: 0.7; }
[data-mouse-over-selected='true']  { opacity: 1.0; }
]]>
</style>
<script type="application/ecmascript"><![CDATA[
document.addEventListener('DOMContentLoaded', (event) => {
  highlightEdges();
  highlightAdjacentNodes();
});
]]></script>
</svg>
