<?xml version="1.0" encoding="UTF-8" standalone="no"?>
<!DOCTYPE svg PUBLIC "-//W3C//DTD SVG 1.1//EN"
 "http://www.w3.org/Graphics/SVG/1.1/DTD/svg11.dtd">
<!-- Generated by graphviz version 2.43.0 (0)
 -->
<!-- Title: Controller Pages: 1 -->
<svg width="868pt" height="374pt"
 viewBox="0.00 0.00 868.00 374.00" xmlns="http://www.w3.org/2000/svg" xmlns:xlink="http://www.w3.org/1999/xlink">
<g id="graph0" class="graph" transform="scale(1 1) rotate(0) translate(4 370)">
<title>Controller</title>
<polygon fill="white" stroke="transparent" points="-4,4 -4,-370 864,-370 864,4 -4,4"/>
<!-- Node1 -->
<g id="node1" class="node">
<title>Node1</title>
<g id="a_node1"><a xlink:title="Class for the central controller for EX&#45;Display All application activities are controlled through thi...">
<polygon fill="#bfbfbf" stroke="black" points="397.5,-0.5 397.5,-19.5 462.5,-19.5 462.5,-0.5 397.5,-0.5"/>
<text text-anchor="middle" x="430" y="-7.5" font-family="Helvetica,sans-Serif" font-size="10.00">Controller</text>
</a>
</g>
</g>
<!-- Node2 -->
<g id="node2" class="node">
<title>Node2</title>
<g id="a_node2"><a xlink:href="classCallbackInterface.html" target="_top" xlink:title="Interface class to use for callbacks.">
<polygon fill="white" stroke="black" points="758,-212.5 758,-231.5 860,-231.5 860,-212.5 758,-212.5"/>
<text text-anchor="middle" x="809" y="-219.5" font-family="Helvetica,sans-Serif" font-size="10.00">CallbackInterface</text>
</a>
</g>
</g>
<!-- Node2&#45;&gt;Node1 -->
<g id="edge1" class="edge">
<title>Node2&#45;&gt;Node1</title>
<path fill="none" stroke="midnightblue" d="M804.4,-202.79C798.71,-183.54 787.33,-153.34 768,-134 710.18,-76.16 688.31,-64.7 611,-38 561,-20.73 499.47,-14.5 462.57,-12.26"/>
<polygon fill="midnightblue" stroke="midnightblue" points="801.03,-203.74 807.05,-212.46 807.78,-201.89 801.03,-203.74"/>
</g>
<!-- Node11 -->
<g id="node11" class="node">
<title>Node11</title>
<g id="a_node11"><a xlink:href="classInputInterface.html" target="_top" xlink:title="Class to abstract away all physical input implementatio to enable multiple input types Default return...">
<polygon fill="white" stroke="black" points="673.5,-134.5 673.5,-153.5 758.5,-153.5 758.5,-134.5 673.5,-134.5"/>
<text text-anchor="middle" x="716" y="-141.5" font-family="Helvetica,sans-Serif" font-size="10.00">InputInterface</text>
</a>
</g>
</g>
<!-- Node2&#45;&gt;Node11 -->
<g id="edge19" class="edge">
<title>Node2&#45;&gt;Node11</title>
<path fill="none" stroke="#9a32cd" stroke-dasharray="5,2" d="M766.52,-208.61C758.1,-204.84 749.78,-200.04 743,-194 730.53,-182.89 722.63,-164.59 718.78,-153.78"/>
<polygon fill="#9a32cd" stroke="#9a32cd" points="765.4,-211.93 775.98,-212.44 768.02,-205.44 765.4,-211.93"/>
<text text-anchor="middle" x="767.5" y="-180.5" font-family="Helvetica,sans-Serif" font-size="10.00"> _callback</text>
</g>
<!-- Node3 -->
<g id="node3" class="node">
<title>Node3</title>
<g id="a_node3"><a xlink:href="classLogger.html" target="_top" xlink:title="Class to enable simple logging to a Stream object with different log levels This enables embedding pe...">
<polygon fill="white" stroke="black" points="396,-279.5 396,-298.5 446,-298.5 446,-279.5 396,-279.5"/>
<text text-anchor="middle" x="421" y="-286.5" font-family="Helvetica,sans-Serif" font-size="10.00">Logger</text>
</a>
</g>
</g>
<!-- Node3&#45;&gt;Node2 -->
<g id="edge2" class="edge">
<title>Node3&#45;&gt;Node2</title>
<path fill="none" stroke="#9a32cd" stroke-dasharray="5,2" d="M456.11,-288.01C511.64,-287.3 622.78,-282.96 714,-261 742.32,-254.18 773.35,-240.5 791.98,-231.55"/>
<polygon fill="#9a32cd" stroke="#9a32cd" points="456.06,-284.51 446.09,-288.1 456.12,-291.51 456.06,-284.51"/>
<text text-anchor="middle" x="768" y="-253" font-family="Helvetica,sans-Serif" font-size="10.00"> _logger</text>
</g>
<!-- Node5 -->
<g id="node5" class="node">
<title>Node5</title>
<g id="a_node5"><a xlink:href="classScreenManager.html" target="_top" xlink:title="Class to manage all EX&#45;Display screens.">
<polygon fill="white" stroke="black" points="223,-67.5 223,-86.5 315,-86.5 315,-67.5 223,-67.5"/>
<text text-anchor="middle" x="269" y="-74.5" font-family="Helvetica,sans-Serif" font-size="10.00">ScreenManager</text>
</a>
</g>
</g>
<!-- Node3&#45;&gt;Node5 -->
<g id="edge11" class="edge">
<title>Node3&#45;&gt;Node5</title>
<path fill="none" stroke="#9a32cd" stroke-dasharray="5,2" d="M385.84,-288.58C347.91,-287.92 286.55,-283.04 239,-261 201.08,-243.42 187.63,-233.16 173,-194 155.25,-146.49 219.53,-104.37 251.71,-86.76"/>
<polygon fill="#9a32cd" stroke="#9a32cd" points="385.86,-292.08 395.89,-288.67 385.92,-285.08 385.86,-292.08"/>
<text text-anchor="middle" x="193" y="-180.5" font-family="Helvetica,sans-Serif" font-size="10.00"> _logger</text>
</g>
<!-- Node6 -->
<g id="node6" class="node">
<title>Node6</title>
<g id="a_node6"><a xlink:href="classScreen.html" target="_top" xlink:title="Class for each screen as received from the EXRAIL SCREEN() command Each Screen instance contains a li...">
<polygon fill="white" stroke="black" points="244,-134.5 244,-153.5 294,-153.5 294,-134.5 244,-134.5"/>
<text text-anchor="middle" x="269" y="-141.5" font-family="Helvetica,sans-Serif" font-size="10.00">Screen</text>
</a>
</g>
</g>
<!-- Node3&#45;&gt;Node6 -->
<g id="edge10" class="edge">
<title>Node3&#45;&gt;Node6</title>
<path fill="none" stroke="#9a32cd" stroke-dasharray="5,2" d="M385.74,-283.52C332.73,-275.97 236.52,-258.87 216,-232 195.39,-205.01 235.51,-169.57 256.86,-153.53"/>
<polygon fill="#9a32cd" stroke="#9a32cd" points="385.34,-287 395.73,-284.9 386.3,-280.06 385.34,-287"/>
<text text-anchor="middle" x="236" y="-219.5" font-family="Helvetica,sans-Serif" font-size="10.00"> _logger</text>
</g>
<!-- Node7 -->
<g id="node7" class="node">
<title>Node7</title>
<g id="a_node7"><a xlink:href="classScreenRow.html" target="_top" xlink:title=" ">
<polygon fill="white" stroke="black" points="264.5,-212.5 264.5,-231.5 335.5,-231.5 335.5,-212.5 264.5,-212.5"/>
<text text-anchor="middle" x="300" y="-219.5" font-family="Helvetica,sans-Serif" font-size="10.00">ScreenRow</text>
</a>
</g>
</g>
<!-- Node3&#45;&gt;Node7 -->
<g id="edge8" class="edge">
<title>Node3&#45;&gt;Node7</title>
<path fill="none" stroke="#9a32cd" stroke-dasharray="5,2" d="M394.35,-275.02C385.58,-270.66 375.83,-265.71 367,-261 348.71,-251.25 328.01,-239.38 314.52,-231.52"/>
<polygon fill="#9a32cd" stroke="#9a32cd" points="392.86,-278.19 403.37,-279.47 395.95,-271.91 392.86,-278.19"/>
<text text-anchor="middle" x="387" y="-253" font-family="Helvetica,sans-Serif" font-size="10.00"> _logger</text>
</g>
<!-- Node8 -->
<g id="node8" class="node">
<title>Node8</title>
<g id="a_node8"><a xlink:href="classDisplayManager.html" target="_top" xlink:title="Manages all physical displays.">
<polygon fill="white" stroke="black" points="382,-134.5 382,-153.5 478,-153.5 478,-134.5 382,-134.5"/>
<text text-anchor="middle" x="430" y="-141.5" font-family="Helvetica,sans-Serif" font-size="10.00">DisplayManager</text>
</a>
</g>
</g>
<!-- Node3&#45;&gt;Node8 -->
<g id="edge13" class="edge">
<title>Node3&#45;&gt;Node8</title>
<path fill="none" stroke="#9a32cd" stroke-dasharray="5,2" d="M422.19,-269.1C424.16,-237.77 428.03,-176.31 429.46,-153.65"/>
<polygon fill="#9a32cd" stroke="#9a32cd" points="418.67,-269.28 421.54,-279.48 425.66,-269.72 418.67,-269.28"/>
<text text-anchor="middle" x="445" y="-219.5" font-family="Helvetica,sans-Serif" font-size="10.00"> _logger</text>
</g>
<!-- Node9 -->
<g id="node9" class="node">
<title>Node9</title>
<g id="a_node9"><a xlink:href="classDisplayInterface.html" target="_top" xlink:title="Class to abstract away all physical display implementation to enable multiple display types.">
<polygon fill="white" stroke="black" points="479.5,-212.5 479.5,-231.5 576.5,-231.5 576.5,-212.5 479.5,-212.5"/>
<text text-anchor="middle" x="528" y="-219.5" font-family="Helvetica,sans-Serif" font-size="10.00">DisplayInterface</text>
</a>
</g>
</g>
<!-- Node3&#45;&gt;Node9 -->
<g id="edge15" class="edge">
<title>Node3&#45;&gt;Node9</title>
<path fill="none" stroke="#9a32cd" stroke-dasharray="5,2" d="M444.14,-273.94C465.33,-261.07 496.02,-242.43 513.8,-231.63"/>
<polygon fill="#9a32cd" stroke="#9a32cd" points="442.16,-271.05 435.43,-279.23 445.79,-277.03 442.16,-271.05"/>
<text text-anchor="middle" x="500" y="-253" font-family="Helvetica,sans-Serif" font-size="10.00"> _logger</text>
</g>
<!-- Node10 -->
<g id="node10" class="node">
<title>Node10</title>
<g id="a_node10"><a xlink:href="classInputManager.html" target="_top" xlink:title=" ">
<polygon fill="white" stroke="black" points="569,-67.5 569,-86.5 653,-86.5 653,-67.5 569,-67.5"/>
<text text-anchor="middle" x="611" y="-74.5" font-family="Helvetica,sans-Serif" font-size="10.00">InputManager</text>
</a>
</g>
</g>
<!-- Node3&#45;&gt;Node10 -->
<g id="edge22" class="edge">
<title>Node3&#45;&gt;Node10</title>
<path fill="none" stroke="#9a32cd" stroke-dasharray="5,2" d="M456.18,-283.96C511.12,-276.86 613.28,-260.13 635,-232 669.72,-187.02 631.33,-112.21 616.41,-86.77"/>
<polygon fill="#9a32cd" stroke="#9a32cd" points="455.66,-280.5 446.18,-285.22 456.54,-287.45 455.66,-280.5"/>
<text text-anchor="middle" x="669" y="-180.5" font-family="Helvetica,sans-Serif" font-size="10.00"> _logger</text>
</g>
<!-- Node3&#45;&gt;Node11 -->
<g id="edge20" class="edge">
<title>Node3&#45;&gt;Node11</title>
<path fill="none" stroke="#9a32cd" stroke-dasharray="5,2" d="M456.51,-288.45C516.72,-288.51 635.45,-285.42 668,-261 703.74,-234.19 713.02,-175.93 715.3,-153.78"/>
<polygon fill="#9a32cd" stroke="#9a32cd" points="456.35,-284.95 446.33,-288.41 456.32,-291.95 456.35,-284.95"/>
<text text-anchor="middle" x="721" y="-219.5" font-family="Helvetica,sans-Serif" font-size="10.00"> _logger</text>
</g>
<!-- Node4 -->
<g id="node4" class="node">
<title>Node4</title>
<g id="a_node4"><a xlink:href="classStream.html" target="_top" xlink:title="Class to mock the basic Stream function equivalent of the Arduino framework.">
<polygon fill="white" stroke="black" points="0,-346.5 0,-365.5 52,-365.5 52,-346.5 0,-346.5"/>
<text text-anchor="middle" x="26" y="-353.5" font-family="Helvetica,sans-Serif" font-size="10.00">Stream</text>
</a>
</g>
</g>
<!-- Node4&#45;&gt;Node1 -->
<g id="edge24" class="edge">
<title>Node4&#45;&gt;Node1</title>
<path fill="none" stroke="#9a32cd" stroke-dasharray="5,2" d="M19.03,-336.82C14.72,-323.94 10,-306.16 10,-290 10,-290 10,-290 10,-76 10,-36.85 298.71,-17.94 397.39,-12.62"/>
<polygon fill="#9a32cd" stroke="#9a32cd" points="15.78,-338.11 22.45,-346.34 22.37,-335.74 15.78,-338.11"/>
<text text-anchor="middle" x="73.5" y="-186" font-family="Helvetica,sans-Serif" font-size="10.00"> _commandStationStream</text>
<text text-anchor="middle" x="73.5" y="-175" font-family="Helvetica,sans-Serif" font-size="10.00">_consoleStream</text>
</g>
<!-- Node4&#45;&gt;Node3 -->
<g id="edge3" class="edge">
<title>Node4&#45;&gt;Node3</title>
<path fill="none" stroke="#9a32cd" stroke-dasharray="5,2" d="M62.21,-349.04C141.33,-336.02 327.99,-305.31 395.81,-294.14"/>
<polygon fill="#9a32cd" stroke="#9a32cd" points="61.52,-345.61 52.22,-350.68 62.66,-352.51 61.52,-345.61"/>
<text text-anchor="middle" x="285" y="-320" font-family="Helvetica,sans-Serif" font-size="10.00"> _outputStream</text>
</g>
<!-- Node5&#45;&gt;Node1 -->
<g id="edge4" class="edge">
<title>Node5&#45;&gt;Node1</title>
<path fill="none" stroke="#9a32cd" stroke-dasharray="5,2" d="M289.37,-61.75C301.35,-53.88 317.04,-44.43 332,-38 353.08,-28.94 378.02,-22.12 397.47,-17.6"/>
<polygon fill="#9a32cd" stroke="#9a32cd" points="287.35,-58.89 281.01,-67.38 291.26,-64.7 287.35,-58.89"/>
<text text-anchor="middle" x="374" y="-41" font-family="Helvetica,sans-Serif" font-size="10.00"> _screenManager</text>
</g>
<!-- Node6&#45;&gt;Node5 -->
<g id="edge5" class="edge">
<title>Node6&#45;&gt;Node5</title>
<path fill="none" stroke="#9a32cd" stroke-dasharray="5,2" d="M269,-124.04C269,-111.67 269,-96.12 269,-86.63"/>
<polygon fill="#9a32cd" stroke="#9a32cd" points="265.5,-124.23 269,-134.23 272.5,-124.23 265.5,-124.23"/>
<text text-anchor="middle" x="299.5" y="-108" font-family="Helvetica,sans-Serif" font-size="10.00"> _firstScreen</text>
</g>
<!-- Node6&#45;&gt;Node6 -->
<g id="edge9" class="edge">
<title>Node6&#45;&gt;Node6</title>
<path fill="none" stroke="#9a32cd" stroke-dasharray="5,2" d="M304.45,-149.25C309,-148.34 312,-146.59 312,-144 312,-139.75 303.91,-137.76 294.18,-138.02"/>
<polygon fill="#9a32cd" stroke="#9a32cd" points="303.91,-145.78 294.18,-149.98 304.4,-152.77 303.91,-145.78"/>
<text text-anchor="middle" x="327.5" y="-141.5" font-family="Helvetica,sans-Serif" font-size="10.00"> _next</text>
</g>
<!-- Node7&#45;&gt;Node6 -->
<g id="edge6" class="edge">
<title>Node7&#45;&gt;Node6</title>
<path fill="none" stroke="#9a32cd" stroke-dasharray="5,2" d="M292.53,-202.67C286.18,-187.11 277.35,-165.47 272.51,-153.62"/>
<polygon fill="#9a32cd" stroke="#9a32cd" points="289.43,-204.34 296.44,-212.28 295.91,-201.7 289.43,-204.34"/>
<text text-anchor="middle" x="329" y="-180.5" font-family="Helvetica,sans-Serif" font-size="10.00"> _firstScreenRow</text>
</g>
<!-- Node7&#45;&gt;Node7 -->
<g id="edge7" class="edge">
<title>Node7&#45;&gt;Node7</title>
<path fill="none" stroke="#9a32cd" stroke-dasharray="5,2" d="M345.78,-226.95C350.49,-225.97 353.5,-224.32 353.5,-222 353.5,-218.28 345.79,-216.29 335.75,-216.03"/>
<polygon fill="#9a32cd" stroke="#9a32cd" points="345.35,-223.47 335.75,-227.97 346.06,-230.44 345.35,-223.47"/>
<text text-anchor="middle" x="369" y="-219.5" font-family="Helvetica,sans-Serif" font-size="10.00"> _next</text>
</g>
<!-- Node8&#45;&gt;Node1 -->
<g id="edge12" class="edge">
<title>Node8&#45;&gt;Node1</title>
<path fill="none" stroke="#9a32cd" stroke-dasharray="5,2" d="M430,-124.28C430,-95.25 430,-40.54 430,-19.52"/>
<polygon fill="#9a32cd" stroke="#9a32cd" points="426.5,-124.34 430,-134.34 433.5,-124.34 426.5,-124.34"/>
<text text-anchor="middle" x="473.5" y="-74.5" font-family="Helvetica,sans-Serif" font-size="10.00"> _displayManager</text>
</g>
<!-- Node9&#45;&gt;Node8 -->
<g id="edge14" class="edge">
<title>Node9&#45;&gt;Node8</title>
<path fill="none" stroke="#9a32cd" stroke-dasharray="5,2" d="M487.82,-208.62C479.09,-204.79 470.29,-199.97 463,-194 449.35,-182.83 439.14,-164.55 433.92,-153.76"/>
<polygon fill="#9a32cd" stroke="#9a32cd" points="486.61,-211.9 497.2,-212.38 489.22,-205.41 486.61,-211.9"/>
<text text-anchor="middle" x="495" y="-180.5" font-family="Helvetica,sans-Serif" font-size="10.00"> _firstDisplay</text>
</g>
<!-- Node9&#45;&gt;Node9 -->
<g id="edge16" class="edge">
<title>Node9&#45;&gt;Node9</title>
<path fill="none" stroke="#9a32cd" stroke-dasharray="5,2" d="M586.88,-226.58C591.59,-225.58 594.5,-224.05 594.5,-222 594.5,-218.72 587.04,-216.78 576.71,-216.19"/>
<polygon fill="#9a32cd" stroke="#9a32cd" points="586.22,-223.13 576.71,-227.81 587.06,-230.08 586.22,-223.13"/>
<text text-anchor="middle" x="610" y="-219.5" font-family="Helvetica,sans-Serif" font-size="10.00"> _next</text>
</g>
<!-- Node9&#45;&gt;Node10 -->
<g id="edge23" class="edge">
<title>Node9&#45;&gt;Node10</title>
<path fill="none" stroke="#9a32cd" stroke-dasharray="5,2" d="M537.62,-203.21C542.71,-193.87 549.11,-182.27 555,-172 573.14,-140.36 595.57,-103.3 605.65,-86.75"/>
<polygon fill="#9a32cd" stroke="#9a32cd" points="534.39,-201.82 532.69,-212.28 540.54,-205.16 534.39,-201.82"/>
<text text-anchor="middle" x="598" y="-141.5" font-family="Helvetica,sans-Serif" font-size="10.00"> _display</text>
</g>
<!-- Node9&#45;&gt;Node11 -->
<g id="edge21" class="edge">
<title>Node9&#45;&gt;Node11</title>
<path fill="none" stroke="#9a32cd" stroke-dasharray="5,2" d="M544.04,-205.17C558.18,-191.28 576.86,-173.11 579,-172 608.24,-156.78 645.08,-150.11 673.19,-147.2"/>
<polygon fill="#9a32cd" stroke="#9a32cd" points="541.46,-202.8 536.79,-212.31 546.37,-207.79 541.46,-202.8"/>
<text text-anchor="middle" x="601" y="-180.5" font-family="Helvetica,sans-Serif" font-size="10.00"> _display</text>
</g>
<!-- Node10&#45;&gt;Node1 -->
<g id="edge17" class="edge">
<title>Node10&#45;&gt;Node1</title>
<path fill="none" stroke="#9a32cd" stroke-dasharray="5,2" d="M577.41,-63.94C541.5,-51.04 485.48,-30.92 453.85,-19.56"/>
<polygon fill="#9a32cd" stroke="#9a32cd" points="576.37,-67.28 586.96,-67.37 578.74,-60.69 576.37,-67.28"/>
<text text-anchor="middle" x="569" y="-41" font-family="Helvetica,sans-Serif" font-size="10.00"> _inputManager</text>
</g>
<!-- Node11&#45;&gt;Node10 -->
<g id="edge18" class="edge">
<title>Node11&#45;&gt;Node10</title>
<path fill="none" stroke="#9a32cd" stroke-dasharray="5,2" d="M695.22,-128.6C684.52,-121.32 671.2,-112.48 659,-105 648.57,-98.6 636.57,-91.85 627.18,-86.7"/>
<polygon fill="#9a32cd" stroke="#9a32cd" points="693.27,-131.51 703.5,-134.27 697.23,-125.73 693.27,-131.51"/>
<text text-anchor="middle" x="691" y="-108" font-family="Helvetica,sans-Serif" font-size="10.00"> _input</text>
</g>
</g>
</svg>
