<?xml version="1.0" encoding="UTF-8" standalone="no"?>
<!DOCTYPE svg PUBLIC "-//W3C//DTD SVG 1.1//EN"
 "http://www.w3.org/Graphics/SVG/1.1/DTD/svg11.dtd">
<!-- Generated by graphviz version 2.43.0 (0)
 -->
<!-- Title: InputManager::startInput Pages: 1 -->
<svg width="553pt" height="66pt"
 viewBox="0.00 0.00 553.00 66.00" xmlns="http://www.w3.org/2000/svg" xmlns:xlink="http://www.w3.org/1999/xlink">
<g id="graph0" class="graph" transform="scale(1 1) rotate(0) translate(4 62)">
<title>InputManager::startInput</title>
<polygon fill="white" stroke="transparent" points="-4,4 -4,-62 549,-62 549,4 -4,4"/>
<!-- Node1 -->
<g id="node1" class="node">
<title>Node1</title>
<g id="a_node1"><a xlink:title="Start the configured input &#45; calls the InputInterface::begin() method.">
<polygon fill="#bfbfbf" stroke="black" points="408,-19.5 408,-38.5 545,-38.5 545,-19.5 408,-19.5"/>
<text text-anchor="middle" x="476.5" y="-26.5" font-family="Helvetica,sans-Serif" font-size="10.00">InputManager::startInput</text>
</a>
</g>
</g>
<!-- Node2 -->
<g id="node2" class="node">
<title>Node2</title>
<g id="a_node2"><a xlink:href="classController.html#a1cc0b87ab9e07d21ab47d294aa5bf607" target="_top" xlink:title="Call once to start displays and input.">
<polygon fill="white" stroke="black" points="274,-38.5 274,-57.5 372,-57.5 372,-38.5 274,-38.5"/>
<text text-anchor="middle" x="323" y="-45.5" font-family="Helvetica,sans-Serif" font-size="10.00">Controller::begin</text>
</a>
</g>
</g>
<!-- Node1&#45;&gt;Node2 -->
<g id="edge1" class="edge">
<title>Node1&#45;&gt;Node2</title>
<path fill="none" stroke="midnightblue" d="M397.59,-38.77C388.94,-39.86 380.33,-40.94 372.21,-41.95"/>
<polygon fill="midnightblue" stroke="midnightblue" points="398.24,-42.22 407.73,-37.5 397.37,-35.27 398.24,-42.22"/>
</g>
<!-- Node6 -->
<g id="node5" class="node">
<title>Node6</title>
<g id="a_node5"><a xlink:href="test__InputManager_8cpp.html#ae61e78914c3beb26e21559280269fc47" target="_top" xlink:title="Test to ensure an input can be set, retrieved, and started with the InputManager.">
<polygon fill="white" stroke="black" points="297,-0.5 297,-19.5 349,-19.5 349,-0.5 297,-0.5"/>
<text text-anchor="middle" x="323" y="-7.5" font-family="Helvetica,sans-Serif" font-size="10.00">TEST_F</text>
</a>
</g>
</g>
<!-- Node1&#45;&gt;Node6 -->
<g id="edge4" class="edge">
<title>Node1&#45;&gt;Node6</title>
<path fill="none" stroke="midnightblue" d="M397.45,-19.21C379.99,-17.02 362.68,-14.85 349.26,-13.17"/>
<polygon fill="midnightblue" stroke="midnightblue" points="397.37,-22.73 407.73,-20.5 398.24,-15.78 397.37,-22.73"/>
</g>
<!-- Node3 -->
<g id="node3" class="node">
<title>Node3</title>
<g id="a_node3"><a xlink:href="EX-Display_8ino.html#a4fc01d736fe50cf5b977f755b675f11d" target="_top" xlink:title="Main setup method, initialise Configurator here.">
<polygon fill="white" stroke="black" points="194,-38.5 194,-57.5 238,-57.5 238,-38.5 194,-38.5"/>
<text text-anchor="middle" x="216" y="-45.5" font-family="Helvetica,sans-Serif" font-size="10.00">setup</text>
</a>
</g>
</g>
<!-- Node2&#45;&gt;Node3 -->
<g id="edge2" class="edge">
<title>Node2&#45;&gt;Node3</title>
<path fill="none" stroke="midnightblue" d="M263.53,-48C254.47,-48 245.64,-48 238.16,-48"/>
<polygon fill="midnightblue" stroke="midnightblue" points="263.8,-51.5 273.8,-48 263.8,-44.5 263.8,-51.5"/>
</g>
<!-- Node4 -->
<g id="node4" class="node">
<title>Node4</title>
<g id="a_node4"><a xlink:href="classTFT__eSPITouch.html#a06e34fd9e1c12e99c40070bdb5fc1779" target="_top" xlink:title="Ensure SPIFFS filesystem is up and running.">
<polygon fill="white" stroke="red" points="0,-38.5 0,-57.5 158,-57.5 158,-38.5 0,-38.5"/>
<text text-anchor="middle" x="79" y="-45.5" font-family="Helvetica,sans-Serif" font-size="10.00">TFT_eSPITouch::_setupSPIFFS</text>
</a>
</g>
</g>
<!-- Node3&#45;&gt;Node4 -->
<g id="edge3" class="edge">
<title>Node3&#45;&gt;Node4</title>
<path fill="none" stroke="midnightblue" d="M183.81,-48C175.93,-48 167.12,-48 158.04,-48"/>
<polygon fill="midnightblue" stroke="midnightblue" points="183.91,-51.5 193.91,-48 183.91,-44.5 183.91,-51.5"/>
</g>
</g>
</svg>
