<?xml version="1.0" encoding="UTF-8" standalone="no"?>
<!DOCTYPE svg PUBLIC "-//W3C//DTD SVG 1.1//EN"
 "http://www.w3.org/Graphics/SVG/1.1/DTD/svg11.dtd">
<!-- Generated by graphviz version 2.43.0 (0)
 -->
<!-- Title: DisplayManager::getDisplayById Pages: 1 -->
<svg width="627pt" height="119pt"
 viewBox="0.00 0.00 627.00 119.00" xmlns="http://www.w3.org/2000/svg" xmlns:xlink="http://www.w3.org/1999/xlink">
<g id="graph0" class="graph" transform="scale(1 1) rotate(0) translate(4 115)">
<title>DisplayManager::getDisplayById</title>
<!-- Node1 -->
<g id="Node000001" class="node">
<title>Node1</title>
<g id="a_Node000001"><a xlink:title="Get a DisplayInterface derived instance by its ID.">
<polygon fill="#999999" stroke="#666666" points="619,-56 443,-56 443,-37 619,-37 619,-56"/>
<text text-anchor="middle" x="531" y="-44" font-family="Helvetica,sans-Serif" font-size="10.00">DisplayManager::getDisplayById</text>
</a>
</g>
</g>
<!-- Node2 -->
<g id="Node000002" class="node">
<title>Node2</title>
<g id="a_Node000002"><a xlink:href="classConfigurator.html#a25ee5e1b0a64d971232d6ecaaadd5d61" target="_top" xlink:title="Call all one&#45;shot initialisation or begin methods on startup.">
<polygon fill="white" stroke="#666666" points="407,-93 282,-93 282,-74 407,-74 407,-93"/>
<text text-anchor="middle" x="344.5" y="-81" font-family="Helvetica,sans-Serif" font-size="10.00">Configurator::initialise</text>
</a>
</g>
</g>
<!-- Node1&#45;&gt;Node2 -->
<g id="edge1_Node000001_Node000002" class="edge">
<title>Node1&#45;&gt;Node2</title>
<g id="a_edge1_Node000001_Node000002"><a xlink:title=" ">
<path fill="none" stroke="#63b8ff" d="M472.58,-58.02C447.08,-63.13 417.42,-69.08 393.17,-73.94"/>
<polygon fill="#63b8ff" stroke="#63b8ff" points="473.37,-61.43 482.49,-56.03 471.99,-54.56 473.37,-61.43"/>
</a>
</g>
</g>
<!-- Node7 -->
<g id="Node000007" class="node">
<title>Node7</title>
<g id="a_Node000007"><a xlink:href="test__CompilerCreation_8cpp.html#a484c00ac396e82066ad78a3641a34a4f" target="_top" xlink:title="Ensure devices are created and all attributes are valid.">
<polygon fill="white" stroke="#666666" points="370.5,-56 318.5,-56 318.5,-37 370.5,-37 370.5,-56"/>
<text text-anchor="middle" x="344.5" y="-44" font-family="Helvetica,sans-Serif" font-size="10.00">TEST_F</text>
</a>
</g>
</g>
<!-- Node1&#45;&gt;Node7 -->
<g id="edge5_Node000001_Node000007" class="edge">
<title>Node1&#45;&gt;Node7</title>
<g id="a_edge5_Node000001_Node000007"><a xlink:title=" ">
<path fill="none" stroke="#63b8ff" d="M432.7,-46.5C409.78,-46.5 387.27,-46.5 370.87,-46.5"/>
<polygon fill="#63b8ff" stroke="#63b8ff" points="432.88,-50 442.88,-46.5 432.88,-43 432.88,-50"/>
</a>
</g>
</g>
<!-- Node8 -->
<g id="Node000008" class="node">
<title>Node8</title>
<g id="a_Node000008"><a xlink:href="test__DisplayManager_8cpp.html#a086adee0e0e3565707e01f5b61e29dff" target="_top" xlink:title="Validate displays can be retrieved by their ID.">
<polygon fill="white" stroke="#666666" points="370.5,-19 318.5,-19 318.5,0 370.5,0 370.5,-19"/>
<text text-anchor="middle" x="344.5" y="-7" font-family="Helvetica,sans-Serif" font-size="10.00">TEST_F</text>
</a>
</g>
</g>
<!-- Node1&#45;&gt;Node8 -->
<g id="edge6_Node000001_Node000008" class="edge">
<title>Node1&#45;&gt;Node8</title>
<g id="a_edge6_Node000001_Node000008"><a xlink:title=" ">
<path fill="none" stroke="#63b8ff" d="M472.61,-34.99C438.45,-28.14 396.82,-19.79 370.73,-14.56"/>
<polygon fill="#63b8ff" stroke="#63b8ff" points="471.99,-38.44 482.49,-36.97 473.37,-31.57 471.99,-38.44"/>
</a>
</g>
</g>
<!-- Node3 -->
<g id="Node000003" class="node">
<title>Node3</title>
<g id="a_Node000003"><a xlink:href="EX-Display_8ino.html#a4fc01d736fe50cf5b977f755b675f11d" target="_top" xlink:title="Main setup method, initialise Configurator here.">
<polygon fill="white" stroke="#666666" points="242,-111 198,-111 198,-92 242,-92 242,-111"/>
<text text-anchor="middle" x="220" y="-99" font-family="Helvetica,sans-Serif" font-size="10.00">setup</text>
</a>
</g>
</g>
<!-- Node2&#45;&gt;Node3 -->
<g id="edge2_Node000002_Node000003" class="edge">
<title>Node2&#45;&gt;Node3</title>
<g id="a_edge2_Node000002_Node000003"><a xlink:title=" ">
<path fill="none" stroke="#63b8ff" d="M271.88,-94.02C261.07,-95.61 250.71,-97.13 242.19,-98.39"/>
<polygon fill="#63b8ff" stroke="#63b8ff" points="272.51,-97.47 281.89,-92.55 271.49,-90.54 272.51,-97.47"/>
</a>
</g>
</g>
<!-- Node6 -->
<g id="Node000006" class="node">
<title>Node6</title>
<g id="a_Node000006"><a xlink:href="test__Configurator_8cpp.html#a90ba0264a5f676876816cf7411508ac9" target="_top" xlink:title="Ensure the Configurator is created and all attributes are as expected.">
<polygon fill="white" stroke="#666666" points="246,-74 194,-74 194,-55 246,-55 246,-74"/>
<text text-anchor="middle" x="220" y="-62" font-family="Helvetica,sans-Serif" font-size="10.00">TEST_F</text>
</a>
</g>
</g>
<!-- Node2&#45;&gt;Node6 -->
<g id="edge4_Node000002_Node000006" class="edge">
<title>Node2&#45;&gt;Node6</title>
<g id="a_edge4_Node000002_Node000006"><a xlink:title=" ">
<path fill="none" stroke="#63b8ff" d="M271.87,-72.39C262.71,-70.97 253.88,-69.6 246.21,-68.41"/>
<polygon fill="#63b8ff" stroke="#63b8ff" points="271.47,-75.87 281.89,-73.94 272.55,-68.95 271.47,-75.87"/>
</a>
</g>
</g>
<!-- Node4 -->
<g id="Node000004" class="node">
<title>Node4</title>
<g id="a_Node000004"><a xlink:href="classTFT__eSPITouch.html#a06e34fd9e1c12e99c40070bdb5fc1779" target="_top" xlink:title="Ensure SPIFFS filesystem is up and running.">
<polygon fill="#fff0f0" stroke="red" points="158,-111 0,-111 0,-92 158,-92 158,-111"/>
<text text-anchor="middle" x="79" y="-99" font-family="Helvetica,sans-Serif" font-size="10.00">TFT_eSPITouch::_setupSPIFFS</text>
</a>
</g>
</g>
<!-- Node3&#45;&gt;Node4 -->
<g id="edge3_Node000003_Node000004" class="edge">
<title>Node3&#45;&gt;Node4</title>
<g id="a_edge3_Node000003_Node000004"><a xlink:title=" ">
<path fill="none" stroke="#63b8ff" d="M187.67,-101.5C178.75,-101.5 168.61,-101.5 158.21,-101.5"/>
<polygon fill="#63b8ff" stroke="#63b8ff" points="187.89,-105 197.89,-101.5 187.89,-98 187.89,-105"/>
</a>
</g>
</g>
</g>
</svg>
