<?xml version="1.0" encoding="UTF-8" standalone="no"?>
<!DOCTYPE svg PUBLIC "-//W3C//DTD SVG 1.1//EN"
 "http://www.w3.org/Graphics/SVG/1.1/DTD/svg11.dtd">
<!-- Generated by graphviz version 2.43.0 (0)
 -->
<!-- Title: TFT_eSPIDisplay::displayFormattedRow Pages: 1 -->
<svg width="508pt" height="52pt"
 viewBox="0.00 0.00 508.00 51.50" xmlns="http://www.w3.org/2000/svg" xmlns:xlink="http://www.w3.org/1999/xlink">
<g id="graph0" class="graph" transform="scale(1 1) rotate(0) translate(4 47.5)">
<title>TFT_eSPIDisplay::displayFormattedRow</title>
<!-- Node1 -->
<g id="Node000001" class="node">
<title>Node1</title>
<g id="a_Node000001"><a xlink:title="Display a row using formatting modifiers.">
<polygon fill="#999999" stroke="#666666" points="137,-43.5 0,-43.5 0,-13.5 137,-13.5 137,-43.5"/>
<text text-anchor="start" x="8" y="-31.5" font-family="Helvetica,sans-Serif" font-size="10.00">TFT_eSPIDisplay::display</text>
<text text-anchor="middle" x="68.5" y="-20.5" font-family="Helvetica,sans-Serif" font-size="10.00">FormattedRow</text>
</a>
</g>
</g>
<!-- Node2 -->
<g id="Node000002" class="node">
<title>Node2</title>
<g id="a_Node000002"><a xlink:href="classTFT__eSPIDisplay.html#afcbf3673396a684fd540bc75214719a3" target="_top" xlink:title="Get the X/Y coordinates to draw the specified row, starting at the specified column.">
<polygon fill="white" stroke="#666666" points="500,-43.5 356,-43.5 356,-13.5 500,-13.5 500,-43.5"/>
<text text-anchor="start" x="364" y="-31.5" font-family="Helvetica,sans-Serif" font-size="10.00">TFT_eSPIDisplay::_getRow</text>
<text text-anchor="middle" x="428" y="-20.5" font-family="Helvetica,sans-Serif" font-size="10.00">Position</text>
</a>
</g>
</g>
<!-- Node1&#45;&gt;Node2 -->
<g id="edge1_Node000001_Node000002" class="edge">
<title>Node1&#45;&gt;Node2</title>
<g id="a_edge1_Node000001_Node000002"><a xlink:title=" ">
<path fill="none" stroke="#63b8ff" d="M137.16,-28.5C196.41,-28.5 282.65,-28.5 345.64,-28.5"/>
<polygon fill="#63b8ff" stroke="#63b8ff" points="345.94,-32 355.94,-28.5 345.94,-25 345.94,-32"/>
</a>
</g>
</g>
<!-- Node3 -->
<g id="Node000003" class="node">
<title>Node3</title>
<g id="a_Node000003"><a xlink:href="classTFT__eSPIDisplay.html#a0d8317643dddb535369abd48de8bdbda" target="_top" xlink:title="Clear the specified row.">
<polygon fill="white" stroke="#666666" points="320,-19 173,-19 173,0 320,0 320,-19"/>
<text text-anchor="middle" x="246.5" y="-7" font-family="Helvetica,sans-Serif" font-size="10.00">TFT_eSPIDisplay::clearRow</text>
</a>
</g>
</g>
<!-- Node1&#45;&gt;Node3 -->
<g id="edge2_Node000001_Node000003" class="edge">
<title>Node1&#45;&gt;Node3</title>
<g id="a_edge2_Node000001_Node000003"><a xlink:title=" ">
<path fill="none" stroke="#63b8ff" d="M137.04,-21.21C145.47,-20.3 154.17,-19.36 162.8,-18.43"/>
<polygon fill="#63b8ff" stroke="#63b8ff" points="163.31,-21.89 172.87,-17.34 162.56,-14.93 163.31,-21.89"/>
</a>
</g>
</g>
<!-- Node3&#45;&gt;Node2 -->
<g id="edge3_Node000003_Node000002" class="edge">
<title>Node3&#45;&gt;Node2</title>
<g id="a_edge3_Node000003_Node000002"><a xlink:title=" ">
<path fill="none" stroke="#63b8ff" d="M320.25,-17.2C328.7,-18.1 337.36,-19.01 345.92,-19.92"/>
<polygon fill="#63b8ff" stroke="#63b8ff" points="345.58,-23.4 355.89,-20.97 346.32,-16.44 345.58,-23.4"/>
</a>
</g>
</g>
</g>
</svg>
