<?xml version="1.0" encoding="UTF-8" standalone="no"?>
<!DOCTYPE svg PUBLIC "-//W3C//DTD SVG 1.1//EN"
 "http://www.w3.org/Graphics/SVG/1.1/DTD/svg11.dtd">
<!-- Generated by graphviz version 2.43.0 (0)
 -->
<!-- Title: DisplayManager::_selectSPIDisplay Pages: 1 -->
<svg width="651pt" height="208pt"
 viewBox="0.00 0.00 651.00 208.00" xmlns="http://www.w3.org/2000/svg" xmlns:xlink="http://www.w3.org/1999/xlink">
<g id="graph0" class="graph" transform="scale(1 1) rotate(0) translate(4 204)">
<title>DisplayManager::_selectSPIDisplay</title>
<!-- Node1 -->
<g id="Node000001" class="node">
<title>Node1</title>
<g id="a_Node000001"><a xlink:title="Manually selects SPI displays that require manual selecting via the CS pin &#45; sets pin low.">
<polygon fill="#999999" stroke="#666666" points="643,-116 455,-116 455,-97 643,-97 643,-116"/>
<text text-anchor="middle" x="549" y="-104" font-family="Helvetica,sans-Serif" font-size="10.00">DisplayManager::_selectSPIDisplay</text>
</a>
</g>
</g>
<!-- Node2 -->
<g id="Node000002" class="node">
<title>Node2</title>
<g id="a_Node000002"><a xlink:href="classDisplayManager.html#ac007625bc3dc91b4a7f22238226f37ea" target="_top" xlink:title="Clear all displays.">
<polygon fill="white" stroke="#666666" points="393,-164.5 254,-164.5 254,-134.5 393,-134.5 393,-164.5"/>
<text text-anchor="start" x="262" y="-152.5" font-family="Helvetica,sans-Serif" font-size="10.00">DisplayManager::clearAll</text>
<text text-anchor="middle" x="323.5" y="-141.5" font-family="Helvetica,sans-Serif" font-size="10.00">Displays</text>
</a>
</g>
</g>
<!-- Node1&#45;&gt;Node2 -->
<g id="edge1_Node000001_Node000002" class="edge">
<title>Node1&#45;&gt;Node2</title>
<g id="a_edge1_Node000001_Node000002"><a xlink:title=" ">
<path fill="none" stroke="#63b8ff" d="M488.3,-117.99C458.96,-123.63 423.47,-130.46 393.03,-136.31"/>
<polygon fill="#63b8ff" stroke="#63b8ff" points="489.24,-121.37 498.4,-116.04 487.92,-114.5 489.24,-121.37"/>
</a>
</g>
</g>
<!-- Node7 -->
<g id="Node000007" class="node">
<title>Node7</title>
<g id="a_Node000007"><a xlink:href="classDisplayManager.html#aa0e0e26134a34beeb30e27c00b8e829f" target="_top" xlink:title="Calls the displayStartupInfo of all Display instances to display the version.">
<polygon fill="white" stroke="#666666" points="419,-71 228,-71 228,-52 419,-52 419,-71"/>
<text text-anchor="middle" x="323.5" y="-59" font-family="Helvetica,sans-Serif" font-size="10.00">DisplayManager::displayStartupInfo</text>
</a>
</g>
</g>
<!-- Node1&#45;&gt;Node7 -->
<g id="edge6_Node000001_Node000007" class="edge">
<title>Node1&#45;&gt;Node7</title>
<g id="a_edge6_Node000001_Node000007"><a xlink:title=" ">
<path fill="none" stroke="#63b8ff" d="M490.51,-94.92C453.69,-87.51 406.48,-78.01 371.83,-71.03"/>
<polygon fill="#63b8ff" stroke="#63b8ff" points="490.11,-98.41 500.6,-96.96 491.49,-91.55 490.11,-98.41"/>
</a>
</g>
</g>
<!-- Node14 -->
<g id="Node000014" class="node">
<title>Node14</title>
<g id="a_Node000014"><a xlink:href="classDisplayManager.html#ad53dcac2e939893727d27187524733c6" target="_top" xlink:title="Call this routinely to ensure all displays are updated with screens.">
<polygon fill="white" stroke="#666666" points="391.5,-116 255.5,-116 255.5,-97 391.5,-97 391.5,-116"/>
<text text-anchor="middle" x="323.5" y="-104" font-family="Helvetica,sans-Serif" font-size="10.00">DisplayManager::update</text>
</a>
</g>
</g>
<!-- Node1&#45;&gt;Node14 -->
<g id="edge11_Node000001_Node000014" class="edge">
<title>Node1&#45;&gt;Node14</title>
<g id="a_edge11_Node000001_Node000014"><a xlink:title=" ">
<path fill="none" stroke="#63b8ff" d="M444.59,-106.5C426.61,-106.5 408.33,-106.5 391.65,-106.5"/>
<polygon fill="#63b8ff" stroke="#63b8ff" points="444.83,-110 454.83,-106.5 444.83,-103 444.83,-110"/>
</a>
</g>
</g>
<!-- Node3 -->
<g id="Node000003" class="node">
<title>Node3</title>
<g id="a_Node000003"><a xlink:href="classController.html#a7d04c17913f04f99429aa29fa8505484" target="_top" xlink:title="Processes all ongoing activities, monitoring streams, receiving user input, updates displays,...">
<polygon fill="white" stroke="#666666" points="192,-159 88,-159 88,-140 192,-140 192,-159"/>
<text text-anchor="middle" x="140" y="-147" font-family="Helvetica,sans-Serif" font-size="10.00">Controller::update</text>
</a>
</g>
</g>
<!-- Node2&#45;&gt;Node3 -->
<g id="edge2_Node000002_Node000003" class="edge">
<title>Node2&#45;&gt;Node3</title>
<g id="a_edge2_Node000002_Node000003"><a xlink:title=" ">
<path fill="none" stroke="#63b8ff" d="M243.69,-149.5C226.24,-149.5 208.18,-149.5 192.17,-149.5"/>
<polygon fill="#63b8ff" stroke="#63b8ff" points="243.88,-153 253.88,-149.5 243.88,-146 243.88,-153"/>
</a>
</g>
</g>
<!-- Node4 -->
<g id="Node000004" class="node">
<title>Node4</title>
<g id="a_Node000004"><a xlink:href="EX-Display_8ino.html#afe461d27b9c48d5921c00d521181f12f" target="_top" xlink:title="Main loop, simply calls controller&#45;&gt;update() to manage all interactions.">
<polygon fill="white" stroke="#666666" points="45,-200 7,-200 7,-181 45,-181 45,-200"/>
<text text-anchor="middle" x="26" y="-188" font-family="Helvetica,sans-Serif" font-size="10.00">loop</text>
</a>
</g>
</g>
<!-- Node3&#45;&gt;Node4 -->
<g id="edge3_Node000003_Node000004" class="edge">
<title>Node3&#45;&gt;Node4</title>
<g id="a_edge3_Node000003_Node000004"><a xlink:title=" ">
<path fill="none" stroke="#63b8ff" d="M103.56,-162.47C84.15,-169.58 60.9,-178.09 45.15,-183.86"/>
<polygon fill="#63b8ff" stroke="#63b8ff" points="104.84,-165.73 113.02,-159.01 102.43,-159.16 104.84,-165.73"/>
</a>
</g>
</g>
<!-- Node5 -->
<g id="Node000005" class="node">
<title>Node5</title>
<g id="a_Node000005"><a xlink:href="test__Controller_8cpp.html#a75631fe386e9be5e2118adf3f01653ee" target="_top" xlink:title="Ensure update() method correctly ignores an invalid stream input.">
<polygon fill="white" stroke="#666666" points="52,-163 0,-163 0,-144 52,-144 52,-163"/>
<text text-anchor="middle" x="26" y="-151" font-family="Helvetica,sans-Serif" font-size="10.00">TEST_F</text>
</a>
</g>
</g>
<!-- Node3&#45;&gt;Node5 -->
<g id="edge4_Node000003_Node000005" class="edge">
<title>Node3&#45;&gt;Node5</title>
<g id="a_edge4_Node000003_Node000005"><a xlink:title=" ">
<path fill="none" stroke="#63b8ff" d="M77.67,-151.69C68.62,-152.01 59.76,-152.33 52.04,-152.61"/>
<polygon fill="#63b8ff" stroke="#63b8ff" points="78.05,-155.18 87.92,-151.32 77.8,-148.18 78.05,-155.18"/>
</a>
</g>
</g>
<!-- Node6 -->
<g id="Node000006" class="node">
<title>Node6</title>
<g id="a_Node000006"><a xlink:href="test__Controller_8cpp.html#abb9ca06c0e9bafef1a891dd9d22bd84d" target="_top" xlink:title="Ensure update() method correctly calls the mock callback.">
<polygon fill="white" stroke="#666666" points="52,-126 0,-126 0,-107 52,-107 52,-126"/>
<text text-anchor="middle" x="26" y="-114" font-family="Helvetica,sans-Serif" font-size="10.00">TEST_F</text>
</a>
</g>
</g>
<!-- Node3&#45;&gt;Node6 -->
<g id="edge5_Node000003_Node000006" class="edge">
<title>Node3&#45;&gt;Node6</title>
<g id="a_edge5_Node000003_Node000006"><a xlink:title=" ">
<path fill="none" stroke="#63b8ff" d="M96.96,-137.11C81.9,-132.68 65.4,-127.81 52.21,-123.93"/>
<polygon fill="#63b8ff" stroke="#63b8ff" points="96.02,-140.49 106.6,-139.96 98,-133.77 96.02,-140.49"/>
</a>
</g>
</g>
<!-- Node8 -->
<g id="Node000008" class="node">
<title>Node8</title>
<g id="a_Node000008"><a xlink:href="classController.html#a1cc0b87ab9e07d21ab47d294aa5bf607" target="_top" xlink:title="Call once to start displays and input.">
<polygon fill="white" stroke="#666666" points="189,-93 91,-93 91,-74 189,-74 189,-93"/>
<text text-anchor="middle" x="140" y="-81" font-family="Helvetica,sans-Serif" font-size="10.00">Controller::begin</text>
</a>
</g>
</g>
<!-- Node7&#45;&gt;Node8 -->
<g id="edge7_Node000007_Node000008" class="edge">
<title>Node7&#45;&gt;Node8</title>
<g id="a_edge7_Node000007_Node000008"><a xlink:title=" ">
<path fill="none" stroke="#63b8ff" d="M233.83,-72.25C218.38,-74.12 202.85,-76 189.04,-77.68"/>
<polygon fill="#63b8ff" stroke="#63b8ff" points="234.44,-75.7 243.95,-71.02 233.6,-68.75 234.44,-75.7"/>
</a>
</g>
</g>
<!-- Node12 -->
<g id="Node000012" class="node">
<title>Node12</title>
<g id="a_Node000012"><a xlink:href="test__DisplayManager_8cpp.html#ad108e01a79b7f75a831a955e93bb9176" target="_top" xlink:title="Validate the displayStartupInfo() method correct calls all display methods.">
<polygon fill="white" stroke="#666666" points="166,-56 114,-56 114,-37 166,-37 166,-56"/>
<text text-anchor="middle" x="140" y="-44" font-family="Helvetica,sans-Serif" font-size="10.00">TEST_F</text>
</a>
</g>
</g>
<!-- Node7&#45;&gt;Node12 -->
<g id="edge9_Node000007_Node000012" class="edge">
<title>Node7&#45;&gt;Node12</title>
<g id="a_edge9_Node000007_Node000012"><a xlink:title=" ">
<path fill="none" stroke="#63b8ff" d="M217.62,-52.83C198.35,-51.24 179.94,-49.72 166.01,-48.57"/>
<polygon fill="#63b8ff" stroke="#63b8ff" points="217.51,-56.33 227.76,-53.67 218.09,-49.36 217.51,-56.33"/>
</a>
</g>
</g>
<!-- Node13 -->
<g id="Node000013" class="node">
<title>Node13</title>
<g id="a_Node000013"><a xlink:href="test__DisplayManualSPISwitching_8cpp.html#a928ab800b1e1899f185fb572718ec014" target="_top" xlink:title="Test that SPI displays can be switched manually if their library doesn&#39;t support it (eg....">
<polygon fill="white" stroke="#666666" points="166,-19 114,-19 114,0 166,0 166,-19"/>
<text text-anchor="middle" x="140" y="-7" font-family="Helvetica,sans-Serif" font-size="10.00">TEST_F</text>
</a>
</g>
</g>
<!-- Node7&#45;&gt;Node13 -->
<g id="edge10_Node000007_Node000013" class="edge">
<title>Node7&#45;&gt;Node13</title>
<g id="a_edge10_Node000007_Node000013"><a xlink:title=" ">
<path fill="none" stroke="#63b8ff" d="M279.19,-49.09C243.92,-38.99 195.37,-25.08 166.19,-16.72"/>
<polygon fill="#63b8ff" stroke="#63b8ff" points="278.63,-52.57 289.21,-51.96 280.56,-45.84 278.63,-52.57"/>
</a>
</g>
</g>
<!-- Node9 -->
<g id="Node000009" class="node">
<title>Node9</title>
<g id="a_Node000009"><a xlink:href="EX-Display_8ino.html#a4fc01d736fe50cf5b977f755b675f11d" target="_top" xlink:title="Main setup method, initialise Configurator here.">
<polygon fill="#fff0f0" stroke="red" points="48,-89 4,-89 4,-70 48,-70 48,-89"/>
<text text-anchor="middle" x="26" y="-77" font-family="Helvetica,sans-Serif" font-size="10.00">setup</text>
</a>
</g>
</g>
<!-- Node8&#45;&gt;Node9 -->
<g id="edge8_Node000008_Node000009" class="edge">
<title>Node8&#45;&gt;Node9</title>
<g id="a_edge8_Node000008_Node000009"><a xlink:title=" ">
<path fill="none" stroke="#63b8ff" d="M80.63,-81.42C68.98,-81 57.47,-80.59 48.12,-80.25"/>
<polygon fill="#63b8ff" stroke="#63b8ff" points="80.73,-84.92 90.85,-81.78 80.98,-77.93 80.73,-84.92"/>
</a>
</g>
</g>
<!-- Node14&#45;&gt;Node3 -->
<g id="edge12_Node000014_Node000003" class="edge">
<title>Node14&#45;&gt;Node3</title>
<g id="a_edge12_Node000014_Node000003"><a xlink:title=" ">
<path fill="none" stroke="#63b8ff" d="M261.28,-118.15C250.18,-120.45 238.72,-122.95 228,-125.5 209.86,-129.82 189.79,-135.31 173.5,-139.95"/>
<polygon fill="#63b8ff" stroke="#63b8ff" points="262.25,-121.52 271.35,-116.1 260.85,-114.67 262.25,-121.52"/>
</a>
</g>
</g>
</g>
</svg>
