<?xml version="1.0" encoding="UTF-8" standalone="no"?>
<!DOCTYPE svg PUBLIC "-//W3C//DTD SVG 1.1//EN"
 "http://www.w3.org/Graphics/SVG/1.1/DTD/svg11.dtd">
<!-- Generated by graphviz version 2.43.0 (0)
 -->
<!-- Title: ScreenManager::getMinScreenId Pages: 1 -->
<svg width="313pt" height="66pt"
 viewBox="0.00 0.00 313.00 66.00" xmlns="http://www.w3.org/2000/svg" xmlns:xlink="http://www.w3.org/1999/xlink">
<g id="graph0" class="graph" transform="scale(1 1) rotate(0) translate(4 62)">
<title>ScreenManager::getMinScreenId</title>
<polygon fill="white" stroke="transparent" points="-4,4 -4,-62 309,-62 309,4 -4,4"/>
<!-- Node1 -->
<g id="node1" class="node">
<title>Node1</title>
<g id="a_node1"><a xlink:title="Get the lowest Screen ID in the list.">
<polygon fill="#bfbfbf" stroke="black" points="0,-19.5 0,-38.5 174,-38.5 174,-19.5 0,-19.5"/>
<text text-anchor="middle" x="87" y="-26.5" font-family="Helvetica,sans-Serif" font-size="10.00">ScreenManager::getMinScreenId</text>
</a>
</g>
</g>
<!-- Node2 -->
<g id="node2" class="node">
<title>Node2</title>
<g id="a_node2"><a xlink:href="classScreen.html#ad70000886e796b4444e3cdf5e38f6169" target="_top" xlink:title="Get the ID for this screen instance.">
<polygon fill="white" stroke="black" points="217.5,-38.5 217.5,-57.5 297.5,-57.5 297.5,-38.5 217.5,-38.5"/>
<text text-anchor="middle" x="257.5" y="-45.5" font-family="Helvetica,sans-Serif" font-size="10.00">Screen::getId</text>
</a>
</g>
</g>
<!-- Node1&#45;&gt;Node2 -->
<g id="edge1" class="edge">
<title>Node1&#45;&gt;Node2</title>
<path fill="none" stroke="midnightblue" d="M172.74,-38.56C184.54,-39.89 196.33,-41.22 207.18,-42.44"/>
<polygon fill="midnightblue" stroke="midnightblue" points="206.93,-45.93 217.26,-43.58 207.72,-38.98 206.93,-45.93"/>
</g>
<!-- Node3 -->
<g id="node3" class="node">
<title>Node3</title>
<g id="a_node3"><a xlink:href="classScreen.html#af743df653d024c7571e596772009216d" target="_top" xlink:title="Get the next Screen instance in the list.">
<polygon fill="white" stroke="black" points="210,-0.5 210,-19.5 305,-19.5 305,-0.5 210,-0.5"/>
<text text-anchor="middle" x="257.5" y="-7.5" font-family="Helvetica,sans-Serif" font-size="10.00">Screen::getNext</text>
</a>
</g>
</g>
<!-- Node1&#45;&gt;Node3 -->
<g id="edge2" class="edge">
<title>Node1&#45;&gt;Node3</title>
<path fill="none" stroke="midnightblue" d="M172.74,-19.44C181.93,-18.41 191.11,-17.37 199.85,-16.39"/>
<polygon fill="midnightblue" stroke="midnightblue" points="200.33,-19.86 209.87,-15.26 199.55,-12.9 200.33,-19.86"/>
</g>
</g>
</svg>
