<?xml version="1.0" encoding="UTF-8" standalone="no"?>
<!DOCTYPE svg PUBLIC "-//W3C//DTD SVG 1.1//EN"
 "http://www.w3.org/Graphics/SVG/1.1/DTD/svg11.dtd">
<!-- Generated by graphviz version 2.43.0 (0)
 -->
<!-- Title: DisplayInterface::getNext Pages: 1 -->
<svg width="829pt" height="344pt"
 viewBox="0.00 0.00 829.00 343.50" xmlns="http://www.w3.org/2000/svg" xmlns:xlink="http://www.w3.org/1999/xlink">
<g id="graph0" class="graph" transform="scale(1 1) rotate(0) translate(4 339.5)">
<title>DisplayInterface::getNext</title>
<polygon fill="white" stroke="transparent" points="-4,4 -4,-339.5 825,-339.5 825,4 -4,4"/>
<!-- Node1 -->
<g id="node1" class="node">
<title>Node1</title>
<g id="a_node1"><a xlink:title="Get the next DisplayInterface derived instance in the list.">
<polygon fill="#bfbfbf" stroke="black" points="679,-126 679,-145 821,-145 821,-126 679,-126"/>
<text text-anchor="middle" x="750" y="-133" font-family="Helvetica,sans-Serif" font-size="10.00">DisplayInterface::getNext</text>
</a>
</g>
</g>
<!-- Node2 -->
<g id="node2" class="node">
<title>Node2</title>
<g id="a_node2"><a xlink:href="classDisplayManager.html#a14afc225d393f7224bfa0474338d39f3" target="_top" xlink:title="Add a DisplayInterface derived instance to the list of displays.">
<polygon fill="white" stroke="black" points="469,-278 469,-297 626,-297 626,-278 469,-278"/>
<text text-anchor="middle" x="547.5" y="-285" font-family="Helvetica,sans-Serif" font-size="10.00">DisplayManager::addDisplay</text>
</a>
</g>
</g>
<!-- Node1&#45;&gt;Node2 -->
<g id="edge1" class="edge">
<title>Node1&#45;&gt;Node2</title>
<path fill="none" stroke="midnightblue" d="M732.41,-152.18C712.23,-172.02 676.68,-205.6 643,-230.5 617.74,-249.18 586.06,-267.32 566.55,-277.95"/>
<polygon fill="midnightblue" stroke="midnightblue" points="734.96,-154.58 739.59,-145.05 730.03,-149.61 734.96,-154.58"/>
</g>
<!-- Node10 -->
<g id="node7" class="node">
<title>Node10</title>
<g id="a_node7"><a xlink:href="classDisplayManager.html#aa0e0e26134a34beeb30e27c00b8e829f" target="_top" xlink:title="Calls the displayStartupInfo of all Display instances to display the version.">
<polygon fill="white" stroke="black" points="452,-164 452,-183 643,-183 643,-164 452,-164"/>
<text text-anchor="middle" x="547.5" y="-171" font-family="Helvetica,sans-Serif" font-size="10.00">DisplayManager::displayStartupInfo</text>
</a>
</g>
</g>
<!-- Node1&#45;&gt;Node10 -->
<g id="edge6" class="edge">
<title>Node1&#45;&gt;Node10</title>
<path fill="none" stroke="midnightblue" d="M688.75,-146.92C660.07,-152.36 626.15,-158.78 598.86,-163.96"/>
<polygon fill="midnightblue" stroke="midnightblue" points="689.49,-150.34 698.66,-145.04 688.19,-143.46 689.49,-150.34"/>
</g>
<!-- Node13 -->
<g id="node10" class="node">
<title>Node13</title>
<g id="a_node10"><a xlink:href="classDisplayManager.html#a0dcf69d16599029ba34bf31c0c666390" target="_top" xlink:title="Get a DisplayInterface derived instance by its ID.">
<polygon fill="white" stroke="black" points="459.5,-202 459.5,-221 635.5,-221 635.5,-202 459.5,-202"/>
<text text-anchor="middle" x="547.5" y="-209" font-family="Helvetica,sans-Serif" font-size="10.00">DisplayManager::getDisplayById</text>
</a>
</g>
</g>
<!-- Node1&#45;&gt;Node13 -->
<g id="edge10" class="edge">
<title>Node1&#45;&gt;Node13</title>
<path fill="none" stroke="midnightblue" d="M726.06,-150.41C705.19,-163.34 673.14,-181.64 643,-192.5 632.37,-196.33 620.78,-199.46 609.47,-202"/>
<polygon fill="midnightblue" stroke="midnightblue" points="727.95,-153.36 734.55,-145.07 724.22,-147.44 727.95,-153.36"/>
</g>
<!-- Node15 -->
<g id="node12" class="node">
<title>Node15</title>
<g id="a_node12"><a xlink:href="classDisplayManager.html#a270daf83b6af22558fde42034254b351" target="_top" xlink:title="Call the begin() method for all associated Display instances.">
<polygon fill="white" stroke="black" points="464,-126 464,-145 631,-145 631,-126 464,-126"/>
<text text-anchor="middle" x="547.5" y="-133" font-family="Helvetica,sans-Serif" font-size="10.00">DisplayManager::startDisplays</text>
</a>
</g>
</g>
<!-- Node1&#45;&gt;Node15 -->
<g id="edge13" class="edge">
<title>Node1&#45;&gt;Node15</title>
<path fill="none" stroke="midnightblue" d="M668.66,-135.5C656.37,-135.5 643.66,-135.5 631.32,-135.5"/>
<polygon fill="midnightblue" stroke="midnightblue" points="668.87,-139 678.87,-135.5 668.87,-132 668.87,-139"/>
</g>
<!-- Node17 -->
<g id="node14" class="node">
<title>Node17</title>
<g id="a_node14"><a xlink:href="test__DisplayInterface_8cpp.html#aa023f143e38a3052f9e71534ff19f5f9" target="_top" xlink:title="Test a second display can be accessed via the first in a list.">
<polygon fill="white" stroke="black" points="521.5,-88 521.5,-107 573.5,-107 573.5,-88 521.5,-88"/>
<text text-anchor="middle" x="547.5" y="-95" font-family="Helvetica,sans-Serif" font-size="10.00">TEST_F</text>
</a>
</g>
</g>
<!-- Node1&#45;&gt;Node17 -->
<g id="edge16" class="edge">
<title>Node1&#45;&gt;Node17</title>
<path fill="none" stroke="midnightblue" d="M688.58,-124.05C650.04,-116.75 602.13,-107.66 573.5,-102.24"/>
<polygon fill="midnightblue" stroke="midnightblue" points="688.19,-127.54 698.66,-125.96 689.49,-120.66 688.19,-127.54"/>
</g>
<!-- Node18 -->
<g id="node15" class="node">
<title>Node18</title>
<g id="a_node15"><a xlink:href="classController.html#a7d04c17913f04f99429aa29fa8505484" target="_top" xlink:title="Processes all ongoing activities, monitoring streams, receiving user input, updates displays,...">
<polygon fill="white" stroke="black" points="495.5,-50 495.5,-69 599.5,-69 599.5,-50 495.5,-50"/>
<text text-anchor="middle" x="547.5" y="-57" font-family="Helvetica,sans-Serif" font-size="10.00">Controller::update</text>
</a>
</g>
</g>
<!-- Node1&#45;&gt;Node18 -->
<g id="edge17" class="edge">
<title>Node1&#45;&gt;Node18</title>
<path fill="none" stroke="midnightblue" d="M726.06,-120.59C705.19,-107.66 673.14,-89.36 643,-78.5 629.3,-73.56 614,-69.79 599.77,-66.95"/>
<polygon fill="midnightblue" stroke="midnightblue" points="724.22,-123.56 734.55,-125.93 727.95,-117.64 724.22,-123.56"/>
</g>
<!-- Node21 -->
<g id="node18" class="node">
<title>Node21</title>
<g id="a_node18"><a xlink:href="classDisplayManager.html#ae4c9d79e08490e64602cf562a16d8834" target="_top" xlink:title="Destructor for the DisplayManager.">
<polygon fill="white" stroke="black" points="474,-0.5 474,-30.5 621,-30.5 621,-0.5 474,-0.5"/>
<text text-anchor="start" x="482" y="-18.5" font-family="Helvetica,sans-Serif" font-size="10.00">DisplayManager::~Display</text>
<text text-anchor="middle" x="547.5" y="-7.5" font-family="Helvetica,sans-Serif" font-size="10.00">Manager</text>
</a>
</g>
</g>
<!-- Node1&#45;&gt;Node21 -->
<g id="edge20" class="edge">
<title>Node1&#45;&gt;Node21</title>
<path fill="none" stroke="midnightblue" d="M734.38,-118.1C715.46,-96.69 680.44,-60.7 643,-40.5 635.83,-36.63 628.03,-33.34 620.08,-30.53"/>
<polygon fill="midnightblue" stroke="midnightblue" points="731.85,-120.52 741.04,-125.79 737.14,-115.93 731.85,-120.52"/>
</g>
<!-- Node3 -->
<g id="node3" class="node">
<title>Node3</title>
<g id="a_node3"><a xlink:href="classDisplayManager.html#a9ade9b696372a53b8b716d29d7b53c70" target="_top" xlink:title="Parses the displays configured in myConfig.h and creates the list of displays.">
<polygon fill="white" stroke="black" points="241,-278 241,-297 416,-297 416,-278 241,-278"/>
<text text-anchor="middle" x="328.5" y="-285" font-family="Helvetica,sans-Serif" font-size="10.00">DisplayManager::createDisplays</text>
</a>
</g>
</g>
<!-- Node2&#45;&gt;Node3 -->
<g id="edge2" class="edge">
<title>Node2&#45;&gt;Node3</title>
<path fill="none" stroke="midnightblue" d="M458.68,-287.5C444.69,-287.5 430.23,-287.5 416.26,-287.5"/>
<polygon fill="midnightblue" stroke="midnightblue" points="458.77,-291 468.77,-287.5 458.77,-284 458.77,-291"/>
</g>
<!-- Node9 -->
<g id="node6" class="node">
<title>Node9</title>
<g id="a_node6"><a xlink:href="test__DisplayManager_8cpp.html#a8db4cc07d4e89d899e0a75ca521f9229" target="_top" xlink:title="Create a list of mock displays and validate they are created and operate correctly.">
<polygon fill="white" stroke="black" points="302.5,-316 302.5,-335 354.5,-335 354.5,-316 302.5,-316"/>
<text text-anchor="middle" x="328.5" y="-323" font-family="Helvetica,sans-Serif" font-size="10.00">TEST_F</text>
</a>
</g>
</g>
<!-- Node2&#45;&gt;Node9 -->
<g id="edge5" class="edge">
<title>Node2&#45;&gt;Node9</title>
<path fill="none" stroke="midnightblue" d="M481.96,-298.8C439.19,-306.29 385.45,-315.7 354.53,-321.12"/>
<polygon fill="midnightblue" stroke="midnightblue" points="482.78,-302.21 492.02,-297.04 481.57,-295.32 482.78,-302.21"/>
</g>
<!-- Node4 -->
<g id="node4" class="node">
<title>Node4</title>
<g id="a_node4"><a xlink:href="classConfigurator.html#a25ee5e1b0a64d971232d6ecaaadd5d61" target="_top" xlink:title="Call all one&#45;shot initialisation or begin methods on startup.">
<polygon fill="white" stroke="red" points="80,-240 80,-259 205,-259 205,-240 80,-240"/>
<text text-anchor="middle" x="142.5" y="-247" font-family="Helvetica,sans-Serif" font-size="10.00">Configurator::initialise</text>
</a>
</g>
</g>
<!-- Node3&#45;&gt;Node4 -->
<g id="edge3" class="edge">
<title>Node3&#45;&gt;Node4</title>
<path fill="none" stroke="midnightblue" d="M270.94,-275.82C244.85,-270.43 214.26,-264.11 189.6,-259.02"/>
<polygon fill="midnightblue" stroke="midnightblue" points="270.57,-279.32 281.07,-277.91 271.98,-272.46 270.57,-279.32"/>
</g>
<!-- Node5 -->
<g id="node5" class="node">
<title>Node5</title>
<g id="a_node5"><a xlink:href="EX-Display_8ino.html#a4fc01d736fe50cf5b977f755b675f11d" target="_top" xlink:title="Main setup method, initialise Configurator here.">
<polygon fill="white" stroke="red" points="0,-183 0,-202 44,-202 44,-183 0,-183"/>
<text text-anchor="middle" x="22" y="-190" font-family="Helvetica,sans-Serif" font-size="10.00">setup</text>
</a>
</g>
</g>
<!-- Node4&#45;&gt;Node5 -->
<g id="edge4" class="edge">
<title>Node4&#45;&gt;Node5</title>
<path fill="none" stroke="midnightblue" d="M112.61,-235.6C90.99,-225.2 61.98,-211.25 42.9,-202.07"/>
<polygon fill="midnightblue" stroke="midnightblue" points="111.14,-238.78 121.67,-239.96 114.17,-232.47 111.14,-238.78"/>
</g>
<!-- Node11 -->
<g id="node8" class="node">
<title>Node11</title>
<g id="a_node8"><a xlink:href="classController.html#a1cc0b87ab9e07d21ab47d294aa5bf607" target="_top" xlink:title="Call once to start displays and input.">
<polygon fill="white" stroke="black" points="279.5,-126 279.5,-145 377.5,-145 377.5,-126 279.5,-126"/>
<text text-anchor="middle" x="328.5" y="-133" font-family="Helvetica,sans-Serif" font-size="10.00">Controller::begin</text>
</a>
</g>
</g>
<!-- Node10&#45;&gt;Node11 -->
<g id="edge7" class="edge">
<title>Node10&#45;&gt;Node11</title>
<path fill="none" stroke="midnightblue" d="M481.89,-162.18C448.47,-156.33 408.39,-149.31 377.71,-143.94"/>
<polygon fill="midnightblue" stroke="midnightblue" points="481.57,-165.68 492.02,-163.96 482.78,-158.79 481.57,-165.68"/>
</g>
<!-- Node12 -->
<g id="node9" class="node">
<title>Node12</title>
<g id="a_node9"><a xlink:href="test__DisplayManager_8cpp.html#ad108e01a79b7f75a831a955e93bb9176" target="_top" xlink:title="Validate the displayStartupInfo() method correct calls all display methods.">
<polygon fill="white" stroke="black" points="302.5,-164 302.5,-183 354.5,-183 354.5,-164 302.5,-164"/>
<text text-anchor="middle" x="328.5" y="-171" font-family="Helvetica,sans-Serif" font-size="10.00">TEST_F</text>
</a>
</g>
</g>
<!-- Node10&#45;&gt;Node12 -->
<g id="edge9" class="edge">
<title>Node10&#45;&gt;Node12</title>
<path fill="none" stroke="midnightblue" d="M441.89,-173.5C409.37,-173.5 376.39,-173.5 354.64,-173.5"/>
<polygon fill="midnightblue" stroke="midnightblue" points="441.95,-177 451.95,-173.5 441.95,-170 441.95,-177"/>
</g>
<!-- Node11&#45;&gt;Node5 -->
<g id="edge8" class="edge">
<title>Node11&#45;&gt;Node5</title>
<path fill="none" stroke="midnightblue" d="M269.02,-146.45C200.33,-159.3 89.96,-179.97 44.07,-188.56"/>
<polygon fill="midnightblue" stroke="midnightblue" points="270.07,-149.81 279.25,-144.53 268.78,-142.93 270.07,-149.81"/>
</g>
<!-- Node13&#45;&gt;Node4 -->
<g id="edge11" class="edge">
<title>Node13&#45;&gt;Node4</title>
<path fill="none" stroke="midnightblue" d="M477.35,-222.55C457.57,-225.45 435.97,-228.35 416,-230.5 343.74,-238.27 260.34,-243.54 205.03,-246.53"/>
<polygon fill="midnightblue" stroke="midnightblue" points="478.12,-225.98 487.5,-221.05 477.1,-219.05 478.12,-225.98"/>
</g>
<!-- Node14 -->
<g id="node11" class="node">
<title>Node14</title>
<g id="a_node11"><a xlink:href="test__DisplayManager_8cpp.html#a086adee0e0e3565707e01f5b61e29dff" target="_top" xlink:title=" ">
<polygon fill="white" stroke="black" points="302.5,-202 302.5,-221 354.5,-221 354.5,-202 302.5,-202"/>
<text text-anchor="middle" x="328.5" y="-209" font-family="Helvetica,sans-Serif" font-size="10.00">TEST_F</text>
</a>
</g>
</g>
<!-- Node13&#45;&gt;Node14 -->
<g id="edge12" class="edge">
<title>Node13&#45;&gt;Node14</title>
<path fill="none" stroke="midnightblue" d="M449.24,-211.5C414.45,-211.5 378.1,-211.5 354.71,-211.5"/>
<polygon fill="midnightblue" stroke="midnightblue" points="449.49,-215 459.49,-211.5 449.49,-208 449.49,-215"/>
</g>
<!-- Node15&#45;&gt;Node11 -->
<g id="edge14" class="edge">
<title>Node15&#45;&gt;Node11</title>
<path fill="none" stroke="midnightblue" d="M453.52,-135.5C427.39,-135.5 400.03,-135.5 377.68,-135.5"/>
<polygon fill="midnightblue" stroke="midnightblue" points="453.84,-139 463.84,-135.5 453.84,-132 453.84,-139"/>
</g>
<!-- Node16 -->
<g id="node13" class="node">
<title>Node16</title>
<g id="a_node13"><a xlink:href="test__DisplayManager_8cpp.html#a95f97074a82f0e3d901808635e654d9a" target="_top" xlink:title="Validate the startDisplays() method correctly calls all display begin() methods.">
<polygon fill="white" stroke="black" points="302.5,-88 302.5,-107 354.5,-107 354.5,-88 302.5,-88"/>
<text text-anchor="middle" x="328.5" y="-95" font-family="Helvetica,sans-Serif" font-size="10.00">TEST_F</text>
</a>
</g>
</g>
<!-- Node15&#45;&gt;Node16 -->
<g id="edge15" class="edge">
<title>Node15&#45;&gt;Node16</title>
<path fill="none" stroke="midnightblue" d="M481.96,-124.2C439.19,-116.71 385.45,-107.3 354.53,-101.88"/>
<polygon fill="midnightblue" stroke="midnightblue" points="481.57,-127.68 492.02,-125.96 482.78,-120.79 481.57,-127.68"/>
</g>
<!-- Node19 -->
<g id="node16" class="node">
<title>Node19</title>
<g id="a_node16"><a xlink:href="EX-Display_8ino.html#afe461d27b9c48d5921c00d521181f12f" target="_top" xlink:title="Main loop, simply calls controller&#45;&gt;update() to manage all interactions.">
<polygon fill="white" stroke="black" points="309.5,-12 309.5,-31 347.5,-31 347.5,-12 309.5,-12"/>
<text text-anchor="middle" x="328.5" y="-19" font-family="Helvetica,sans-Serif" font-size="10.00">loop</text>
</a>
</g>
</g>
<!-- Node18&#45;&gt;Node19 -->
<g id="edge18" class="edge">
<title>Node18&#45;&gt;Node19</title>
<path fill="none" stroke="midnightblue" d="M485.34,-48.79C438.72,-40.63 377.6,-29.92 347.65,-24.68"/>
<polygon fill="midnightblue" stroke="midnightblue" points="484.89,-52.27 495.35,-50.54 486.1,-45.37 484.89,-52.27"/>
</g>
<!-- Node20 -->
<g id="node17" class="node">
<title>Node20</title>
<g id="a_node17"><a xlink:href="test__Controller_8cpp.html#abb9ca06c0e9bafef1a891dd9d22bd84d" target="_top" xlink:title="Ensure update() method correctly calls the mock callback.">
<polygon fill="white" stroke="black" points="302.5,-50 302.5,-69 354.5,-69 354.5,-50 302.5,-50"/>
<text text-anchor="middle" x="328.5" y="-57" font-family="Helvetica,sans-Serif" font-size="10.00">TEST_F</text>
</a>
</g>
</g>
<!-- Node18&#45;&gt;Node20 -->
<g id="edge19" class="edge">
<title>Node18&#45;&gt;Node20</title>
<path fill="none" stroke="midnightblue" d="M485.22,-59.5C442.06,-59.5 386.5,-59.5 354.75,-59.5"/>
<polygon fill="midnightblue" stroke="midnightblue" points="485.35,-63 495.35,-59.5 485.35,-56 485.35,-63"/>
</g>
</g>
</svg>
