<?xml version="1.0" encoding="UTF-8" standalone="no"?>
<!DOCTYPE svg PUBLIC "-//W3C//DTD SVG 1.1//EN"
 "http://www.w3.org/Graphics/SVG/1.1/DTD/svg11.dtd">
<!-- Generated by graphviz version 2.43.0 (0)
 -->
<!-- Title: ScreenManager::getNextScreen Pages: 1 -->
<svg width="522pt" height="143pt"
 viewBox="0.00 0.00 522.00 142.95" xmlns="http://www.w3.org/2000/svg" xmlns:xlink="http://www.w3.org/1999/xlink">
<g id="graph0" class="graph" transform="scale(1 1) rotate(0) translate(4 138.95)">
<title>ScreenManager::getNextScreen</title>
<!-- Node1 -->
<g id="Node000001" class="node">
<title>Node1</title>
<g id="a_Node000001"><a xlink:title="Get the next screen in the list (sorted by ID)">
<polygon fill="#999999" stroke="#666666" points="170,-78.22 0,-78.22 0,-59.22 170,-59.22 170,-78.22"/>
<text text-anchor="middle" x="85" y="-66.22" font-family="Helvetica,sans-Serif" font-size="10.00">ScreenManager::getNextScreen</text>
</a>
</g>
</g>
<!-- Node2 -->
<g id="Node000002" class="node">
<title>Node2</title>
<g id="a_Node000002"><a xlink:href="classScreen.html#ad70000886e796b4444e3cdf5e38f6169" target="_top" xlink:title="Get the ID for this screen instance.">
<polygon fill="white" stroke="#666666" points="506.5,-115.22 426.5,-115.22 426.5,-96.22 506.5,-96.22 506.5,-115.22"/>
<text text-anchor="middle" x="466.5" y="-103.22" font-family="Helvetica,sans-Serif" font-size="10.00">Screen::getId</text>
</a>
</g>
</g>
<!-- Node1&#45;&gt;Node2 -->
<g id="edge1_Node000001_Node000002" class="edge">
<title>Node1&#45;&gt;Node2</title>
<g id="a_edge1_Node000001_Node000002"><a xlink:title=" ">
<path fill="none" stroke="#63b8ff" d="M100.77,-78.22C122.69,-91.71 165.6,-115.76 206,-124.72 282.8,-141.76 304.84,-133.6 383,-124.72 395.91,-123.25 409.73,-120.53 422.31,-117.6"/>
<polygon fill="#63b8ff" stroke="#63b8ff" points="423.19,-120.99 432.08,-115.23 421.54,-114.19 423.19,-120.99"/>
</a>
</g>
</g>
<!-- Node3 -->
<g id="Node000003" class="node">
<title>Node3</title>
<g id="a_Node000003"><a xlink:href="classScreenManager.html#a6cc01abb59037b653ca45f130c83c9b3" target="_top" xlink:title="Get the highest Screen ID in the list.">
<polygon fill="white" stroke="#666666" points="383,-78.22 206,-78.22 206,-59.22 383,-59.22 383,-78.22"/>
<text text-anchor="middle" x="294.5" y="-66.22" font-family="Helvetica,sans-Serif" font-size="10.00">ScreenManager::getMaxScreenId</text>
</a>
</g>
</g>
<!-- Node1&#45;&gt;Node3 -->
<g id="edge2_Node000001_Node000003" class="edge">
<title>Node1&#45;&gt;Node3</title>
<g id="a_edge2_Node000001_Node000003"><a xlink:title=" ">
<path fill="none" stroke="#63b8ff" d="M170.1,-68.72C178.58,-68.72 187.24,-68.72 195.84,-68.72"/>
<polygon fill="#63b8ff" stroke="#63b8ff" points="195.9,-72.22 205.9,-68.72 195.9,-65.22 195.9,-72.22"/>
</a>
</g>
</g>
<!-- Node4 -->
<g id="Node000004" class="node">
<title>Node4</title>
<g id="a_Node000004"><a xlink:href="classScreen.html#af743df653d024c7571e596772009216d" target="_top" xlink:title="Get the next Screen instance in the list.">
<polygon fill="white" stroke="#666666" points="514,-60.22 419,-60.22 419,-41.22 514,-41.22 514,-60.22"/>
<text text-anchor="middle" x="466.5" y="-48.22" font-family="Helvetica,sans-Serif" font-size="10.00">Screen::getNext</text>
</a>
</g>
</g>
<!-- Node1&#45;&gt;Node4 -->
<g id="edge8_Node000001_Node000004" class="edge">
<title>Node1&#45;&gt;Node4</title>
<g id="a_edge8_Node000001_Node000004"><a xlink:title=" ">
<path fill="none" stroke="#63b8ff" d="M100.77,-59.21C122.69,-45.73 165.6,-21.68 206,-12.72 282.8,4.32 306.16,4.13 383,-12.72 403.54,-17.22 425.06,-27.34 440.97,-36.01"/>
<polygon fill="#63b8ff" stroke="#63b8ff" points="439.66,-39.29 450.09,-41.15 443.1,-33.19 439.66,-39.29"/>
</a>
</g>
</g>
<!-- Node5 -->
<g id="Node000005" class="node">
<title>Node5</title>
<g id="a_Node000005"><a xlink:href="classScreenManager.html#acd4f0a92975819547a21bfc7d6320f6d" target="_top" xlink:title="Get the lowest Screen ID in the list.">
<polygon fill="white" stroke="#666666" points="381.5,-115.22 207.5,-115.22 207.5,-96.22 381.5,-96.22 381.5,-115.22"/>
<text text-anchor="middle" x="294.5" y="-103.22" font-family="Helvetica,sans-Serif" font-size="10.00">ScreenManager::getMinScreenId</text>
</a>
</g>
</g>
<!-- Node1&#45;&gt;Node5 -->
<g id="edge5_Node000001_Node000005" class="edge">
<title>Node1&#45;&gt;Node5</title>
<g id="a_edge5_Node000001_Node000005"><a xlink:title=" ">
<path fill="none" stroke="#63b8ff" d="M139.44,-78.25C167.04,-83.17 200.92,-89.21 229.87,-94.37"/>
<polygon fill="#63b8ff" stroke="#63b8ff" points="229.43,-97.85 239.88,-96.16 230.65,-90.96 229.43,-97.85"/>
</a>
</g>
</g>
<!-- Node6 -->
<g id="Node000006" class="node">
<title>Node6</title>
<g id="a_Node000006"><a xlink:href="classScreenManager.html#a0cc1c81b131b3441fd808299c63b409b" target="_top" xlink:title="Get the Screen with the specified ID.">
<polygon fill="white" stroke="#666666" points="379,-41.22 210,-41.22 210,-22.22 379,-22.22 379,-41.22"/>
<text text-anchor="middle" x="294.5" y="-29.22" font-family="Helvetica,sans-Serif" font-size="10.00">ScreenManager::getScreenById</text>
</a>
</g>
</g>
<!-- Node1&#45;&gt;Node6 -->
<g id="edge9_Node000001_Node000006" class="edge">
<title>Node1&#45;&gt;Node6</title>
<g id="a_edge9_Node000001_Node000006"><a xlink:title=" ">
<path fill="none" stroke="#63b8ff" d="M139.44,-59.19C167.04,-54.27 200.92,-48.23 229.87,-43.06"/>
<polygon fill="#63b8ff" stroke="#63b8ff" points="230.65,-46.48 239.88,-41.28 229.43,-39.59 230.65,-46.48"/>
</a>
</g>
</g>
<!-- Node3&#45;&gt;Node2 -->
<g id="edge3_Node000003_Node000002" class="edge">
<title>Node3&#45;&gt;Node2</title>
<g id="a_edge3_Node000003_Node000002"><a xlink:title=" ">
<path fill="none" stroke="#63b8ff" d="M339.57,-78.28C353.46,-81.3 368.87,-84.64 383,-87.72 393.86,-90.08 405.52,-92.62 416.55,-95.03"/>
<polygon fill="#63b8ff" stroke="#63b8ff" points="415.96,-98.48 426.47,-97.2 417.45,-91.64 415.96,-98.48"/>
</a>
</g>
</g>
<!-- Node3&#45;&gt;Node4 -->
<g id="edge4_Node000003_Node000004" class="edge">
<title>Node3&#45;&gt;Node4</title>
<g id="a_edge4_Node000003_Node000004"><a xlink:title=" ">
<path fill="none" stroke="#63b8ff" d="M383.49,-59.4C392.03,-58.5 400.54,-57.6 408.66,-56.74"/>
<polygon fill="#63b8ff" stroke="#63b8ff" points="409.13,-60.21 418.71,-55.67 408.39,-53.25 409.13,-60.21"/>
</a>
</g>
</g>
<!-- Node5&#45;&gt;Node2 -->
<g id="edge6_Node000005_Node000002" class="edge">
<title>Node5&#45;&gt;Node2</title>
<g id="a_edge6_Node000005_Node000002"><a xlink:title=" ">
<path fill="none" stroke="#63b8ff" d="M381.99,-105.72C393.8,-105.72 405.58,-105.72 416.4,-105.72"/>
<polygon fill="#63b8ff" stroke="#63b8ff" points="416.45,-109.22 426.45,-105.72 416.45,-102.22 416.45,-109.22"/>
</a>
</g>
</g>
<!-- Node5&#45;&gt;Node4 -->
<g id="edge7_Node000005_Node000004" class="edge">
<title>Node5&#45;&gt;Node4</title>
<g id="a_edge7_Node000005_Node000004"><a xlink:title=" ">
<path fill="none" stroke="#63b8ff" d="M351.05,-96.2C361.77,-93.83 372.82,-91.01 383,-87.72 401.93,-81.61 422.33,-72.48 438.11,-64.82"/>
<polygon fill="#63b8ff" stroke="#63b8ff" points="439.87,-67.86 447.28,-60.28 436.77,-61.58 439.87,-67.86"/>
</a>
</g>
</g>
<!-- Node6&#45;&gt;Node4 -->
<g id="edge10_Node000006_Node000004" class="edge">
<title>Node6&#45;&gt;Node4</title>
<g id="a_edge10_Node000006_Node000004"><a xlink:title=" ">
<path fill="none" stroke="#63b8ff" d="M379.01,-41.05C389,-42.17 399.01,-43.29 408.51,-44.35"/>
<polygon fill="#63b8ff" stroke="#63b8ff" points="408.25,-47.84 418.57,-45.47 409.02,-40.88 408.25,-47.84"/>
</a>
</g>
</g>
</g>
</svg>
