<?xml version="1.0" encoding="UTF-8" standalone="no"?>
<!DOCTYPE svg PUBLIC "-//W3C//DTD SVG 1.1//EN"
 "http://www.w3.org/Graphics/SVG/1.1/DTD/svg11.dtd">
<!-- Generated by graphviz version 2.43.0 (0)
 -->
<!-- Title: ScreenManager::updateScreen Pages: 1 -->
<svg width="434pt" height="101pt"
 viewBox="0.00 0.00 434.00 101.00" xmlns="http://www.w3.org/2000/svg" xmlns:xlink="http://www.w3.org/1999/xlink">
<g id="graph0" class="graph" transform="scale(1 1) rotate(0) translate(4 97)">
<title>ScreenManager::updateScreen</title>
<!-- Node1 -->
<g id="Node000001" class="node">
<title>Node1</title>
<g id="a_Node000001"><a xlink:title="Update a Screen, adds a new one if it doesn&#39;t exist.">
<polygon fill="#999999" stroke="#666666" points="426,-56 261,-56 261,-37 426,-37 426,-56"/>
<text text-anchor="middle" x="343.5" y="-44" font-family="Helvetica,sans-Serif" font-size="10.00">ScreenManager::updateScreen</text>
</a>
</g>
</g>
<!-- Node2 -->
<g id="Node000002" class="node">
<title>Node2</title>
<g id="a_Node000002"><a xlink:href="test__ScreenManager_8cpp.html#ab5ada86d9042a1a62ed2251d66d84ef3" target="_top" xlink:title="Create a list of Screens with ScreenManager.">
<polygon fill="white" stroke="#666666" points="182.5,-93 130.5,-93 130.5,-74 182.5,-74 182.5,-93"/>
<text text-anchor="middle" x="156.5" y="-81" font-family="Helvetica,sans-Serif" font-size="10.00">TEST_F</text>
</a>
</g>
</g>
<!-- Node1&#45;&gt;Node2 -->
<g id="edge1_Node000001_Node000002" class="edge">
<title>Node1&#45;&gt;Node2</title>
<g id="a_edge1_Node000001_Node000002"><a xlink:title=" ">
<path fill="none" stroke="#63b8ff" d="M284.93,-58.01C250.57,-64.89 208.68,-73.26 182.54,-78.49"/>
<polygon fill="#63b8ff" stroke="#63b8ff" points="285.74,-61.42 294.86,-56.03 284.37,-54.56 285.74,-61.42"/>
</a>
</g>
</g>
<!-- Node3 -->
<g id="Node000003" class="node">
<title>Node3</title>
<g id="a_Node000003"><a xlink:href="test__ScreenManager_8cpp.html#a339218e57c67512f1332ef94ac1b9fb8" target="_top" xlink:title="Validate that previous screen is a lower ID, and next is a higher ID, wrapping around the list.">
<polygon fill="white" stroke="#666666" points="182.5,-56 130.5,-56 130.5,-37 182.5,-37 182.5,-56"/>
<text text-anchor="middle" x="156.5" y="-44" font-family="Helvetica,sans-Serif" font-size="10.00">TEST_F</text>
</a>
</g>
</g>
<!-- Node1&#45;&gt;Node3 -->
<g id="edge2_Node000001_Node000003" class="edge">
<title>Node1&#45;&gt;Node3</title>
<g id="a_edge2_Node000001_Node000003"><a xlink:title=" ">
<path fill="none" stroke="#63b8ff" d="M250.51,-46.5C225.52,-46.5 200.47,-46.5 182.68,-46.5"/>
<polygon fill="#63b8ff" stroke="#63b8ff" points="250.82,-50 260.82,-46.5 250.82,-43 250.82,-50"/>
</a>
</g>
</g>
<!-- Node4 -->
<g id="Node000004" class="node">
<title>Node4</title>
<g id="a_Node000004"><a xlink:href="classController.html#a908f5f6c24239286e29d4761da509963" target="_top" xlink:title="Method to implement updating a screen.">
<polygon fill="white" stroke="#666666" points="225,-19 88,-19 88,0 225,0 225,-19"/>
<text text-anchor="middle" x="156.5" y="-7" font-family="Helvetica,sans-Serif" font-size="10.00">Controller::updateScreen</text>
</a>
</g>
</g>
<!-- Node1&#45;&gt;Node4 -->
<g id="edge3_Node000001_Node000004" class="edge">
<title>Node1&#45;&gt;Node4</title>
<g id="a_edge3_Node000001_Node000004"><a xlink:title=" ">
<path fill="none" stroke="#63b8ff" d="M284.92,-34.98C259.35,-29.87 229.62,-23.92 205.3,-19.06"/>
<polygon fill="#63b8ff" stroke="#63b8ff" points="284.37,-38.44 294.86,-36.97 285.74,-31.58 284.37,-38.44"/>
</a>
</g>
</g>
<!-- Node5 -->
<g id="Node000005" class="node">
<title>Node5</title>
<g id="a_Node000005"><a xlink:href="test__ControllerScreenCreation_8cpp.html#a9b3c4848f918df987352646ef615b8bb" target="_top" xlink:title="Validates that the Controller&#45;&gt;updateScreen() method creates a screen and updates rows correctly.">
<polygon fill="white" stroke="#666666" points="52,-19 0,-19 0,0 52,0 52,-19"/>
<text text-anchor="middle" x="26" y="-7" font-family="Helvetica,sans-Serif" font-size="10.00">TEST_F</text>
</a>
</g>
</g>
<!-- Node4&#45;&gt;Node5 -->
<g id="edge4_Node000004_Node000005" class="edge">
<title>Node4&#45;&gt;Node5</title>
<g id="a_edge4_Node000004_Node000005"><a xlink:title=" ">
<path fill="none" stroke="#63b8ff" d="M77.82,-9.5C68.67,-9.5 59.9,-9.5 52.29,-9.5"/>
<polygon fill="#63b8ff" stroke="#63b8ff" points="77.86,-13 87.86,-9.5 77.86,-6 77.86,-13"/>
</a>
</g>
</g>
</g>
</svg>
