<?xml version="1.0" encoding="UTF-8" standalone="no"?>
<!DOCTYPE svg PUBLIC "-//W3C//DTD SVG 1.1//EN"
 "http://www.w3.org/Graphics/SVG/1.1/DTD/svg11.dtd">
<!-- Generated by graphviz version 2.43.0 (0)
 -->
<!-- Title: ScreenManager::getPreviousScreen Pages: 1 -->
<!--zoomable 144 -->

<svg id="main" version="1.1" xmlns="http://www.w3.org/2000/svg" xmlns:xlink="http://www.w3.org/1999/xlink" xml:space="preserve" onload="init(evt)">
<style type="text/css"><![CDATA[
.node, .edge {opacity: 0.7;}
.node.selected, .edge.selected {opacity: 1;}
.edge:hover path { stroke: red; }
.edge:hover polygon { stroke: red; fill: red; }
]]></style>

<defs>
  <circle id="rim" cx="0" cy="0" r="7"/>
  <circle id="rim2" cx="0" cy="0" r="3.5"/>
  <g id="zoomPlus">
    <use xlink:href="#rim" fill="#404040"><set attributeName="fill" to="#808080" begin="zoomplus.mouseover" end="zoomplus.mouseout"/></use>
    <path d="M-4,0h8M0,-4v8" fill="none" stroke="white" stroke-width="1.5" pointer-events="none"/>
  </g>
  <g id="zoomMin">
    <use xlink:href="#rim" fill="#404040"><set attributeName="fill" to="#808080" begin="zoomminus.mouseover" end="zoomminus.mouseout"/></use>
    <path d="M-4,0h8" fill="none" stroke="white" stroke-width="1.5" pointer-events="none"/>
  </g>
  <g id="arrowUp" transform="translate(30 24)">
    <use xlink:href="#rim"/>
    <path pointer-events="none" fill="none" stroke="white" stroke-width="1.5" d="M0,-3.0v7 M-2.5,-0.5L0,-3.0L2.5,-0.5"/>
  </g>
  <g id="arrowRight" transform="rotate(90) translate(36 -43)">
    <use xlink:href="#rim"/>
    <path pointer-events="none" fill="none" stroke="white" stroke-width="1.5" d="M0,-3.0v7 M-2.5,-0.5L0,-3.0L2.5,-0.5"/>
  </g>
  <g id="arrowDown" transform="rotate(180) translate(-30 -48)">
    <use xlink:href="#rim"/>
    <path pointer-events="none" fill="none" stroke="white" stroke-width="1.5" d="M0,-3.0v7 M-2.5,-0.5L0,-3.0L2.5,-0.5"/>
  </g>
  <g id="arrowLeft" transform="rotate(270) translate(-36 17)">
    <use xlink:href="#rim"/>
    <path pointer-events="none" fill="none" stroke="white" stroke-width="1.5" d="M0,-3.0v7 M-2.5,-0.5L0,-3.0L2.5,-0.5"/>
  </g>
  <g id="resetDef">
    <use xlink:href="#rim2" fill="#404040"><set attributeName="fill" to="#808080" begin="reset.mouseover" end="reset.mouseout"/></use>
  </g>
</defs>
<script type="application/ecmascript">
var viewWidth = 508;
var viewHeight = 144;
var sectionId = 'dynsection-9';
</script>
<script type="application/ecmascript" xlink:href="svg.min.js"/>
<svg id="graph" class="graph">
<g id="viewport">
<title>ScreenManager::getPreviousScreen</title>
<!-- Node1 -->
<g id="Node000001" class="node">
<title>Node1</title>
<g id="a_Node000001"><a xlink:title="Get the previous screen in the list (sorted by ID)">
<polygon fill="#999999" stroke="#666666" points="156,-84.11 0,-84.11 0,-54.11 156,-54.11 156,-84.11"/>
<text text-anchor="start" x="8" y="-72.11" font-family="Helvetica,sans-Serif" font-size="10.00">ScreenManager::getPrevious</text>
<text text-anchor="middle" x="78" y="-61.11" font-family="Helvetica,sans-Serif" font-size="10.00">Screen</text>
</a>
</g>
</g>
<!-- Node2 -->
<g id="Node000002" class="node">
<title>Node2</title>
<g id="a_Node000002"><a xlink:href="classScreen.html#ad70000886e796b4444e3cdf5e38f6169" target="_top" xlink:title="Get the ID for this screen instance.">
<polygon fill="white" stroke="#666666" points="492.5,-115.61 412.5,-115.61 412.5,-96.61 492.5,-96.61 492.5,-115.61"/>
<text text-anchor="middle" x="452.5" y="-103.61" font-family="Helvetica,sans-Serif" font-size="10.00">Screen::getId</text>
</a>
</g>
</g>
<!-- Node1&#45;&gt;Node2 -->
<g id="edge1_Node000001_Node000002" class="edge">
<title>Node1&#45;&gt;Node2</title>
<g id="a_edge1_Node000001_Node000002"><a xlink:title=" ">
<path fill="none" stroke="#63b8ff" d="M101.61,-84.24C123.61,-97.99 158.53,-117.27 192,-125.11 268.59,-143.05 290.84,-134 369,-125.11 381.91,-123.65 395.73,-120.93 408.31,-118"/>
<polygon fill="#63b8ff" stroke="#63b8ff" points="409.19,-121.38 418.08,-115.62 407.54,-114.58 409.19,-121.38"/>
</a>
</g>
</g>
<!-- Node3 -->
<g id="Node000003" class="node">
<title>Node3</title>
<g id="a_Node000003"><a xlink:href="classScreenManager.html#a6cc01abb59037b653ca45f130c83c9b3" target="_top" xlink:title="Get the highest Screen ID in the list.">
<polygon fill="white" stroke="#666666" points="369,-78.61 192,-78.61 192,-59.61 369,-59.61 369,-78.61"/>
<text text-anchor="middle" x="280.5" y="-66.61" font-family="Helvetica,sans-Serif" font-size="10.00">ScreenManager::getMaxScreenId</text>
</a>
</g>
</g>
<!-- Node1&#45;&gt;Node3 -->
<g id="edge2_Node000001_Node000003" class="edge">
<title>Node1&#45;&gt;Node3</title>
<g id="a_edge2_Node000001_Node000003"><a xlink:title=" ">
<path fill="none" stroke="#63b8ff" d="M156.23,-69.11C164.64,-69.11 173.27,-69.11 181.88,-69.11"/>
<polygon fill="#63b8ff" stroke="#63b8ff" points="181.95,-72.61 191.95,-69.11 181.95,-65.61 181.95,-72.61"/>
</a>
</g>
</g>
<!-- Node4 -->
<g id="Node000004" class="node">
<title>Node4</title>
<g id="a_Node000004"><a xlink:href="classScreen.html#af743df653d024c7571e596772009216d" target="_top" xlink:title="Get the next Screen instance in the list.">
<polygon fill="white" stroke="#666666" points="500,-60.61 405,-60.61 405,-41.61 500,-41.61 500,-60.61"/>
<text text-anchor="middle" x="452.5" y="-48.61" font-family="Helvetica,sans-Serif" font-size="10.00">Screen::getNext</text>
</a>
</g>
</g>
<!-- Node1&#45;&gt;Node4 -->
<g id="edge8_Node000001_Node000004" class="edge">
<title>Node1&#45;&gt;Node4</title>
<g id="a_edge8_Node000001_Node000004"><a xlink:title=" ">
<path fill="none" stroke="#63b8ff" d="M101.61,-53.98C123.61,-40.24 158.53,-20.95 192,-13.11 268.59,4.83 292.16,3.73 369,-13.11 389.54,-17.61 411.06,-27.73 426.97,-36.4"/>
<polygon fill="#63b8ff" stroke="#63b8ff" points="425.66,-39.68 436.09,-41.54 429.1,-33.58 425.66,-39.68"/>
</a>
</g>
</g>
<!-- Node5 -->
<g id="Node000005" class="node">
<title>Node5</title>
<g id="a_Node000005"><a xlink:href="classScreenManager.html#acd4f0a92975819547a21bfc7d6320f6d" target="_top" xlink:title="Get the lowest Screen ID in the list.">
<polygon fill="white" stroke="#666666" points="367.5,-115.61 193.5,-115.61 193.5,-96.61 367.5,-96.61 367.5,-115.61"/>
<text text-anchor="middle" x="280.5" y="-103.61" font-family="Helvetica,sans-Serif" font-size="10.00">ScreenManager::getMinScreenId</text>
</a>
</g>
</g>
<!-- Node1&#45;&gt;Node5 -->
<g id="edge5_Node000001_Node000005" class="edge">
<title>Node1&#45;&gt;Node5</title>
<g id="a_edge5_Node000001_Node000005"><a xlink:title=" ">
<path fill="none" stroke="#63b8ff" d="M156.23,-83.36C176.62,-87.13 198.34,-91.14 217.79,-94.72"/>
<polygon fill="#63b8ff" stroke="#63b8ff" points="217.26,-98.19 227.73,-96.56 218.53,-91.3 217.26,-98.19"/>
</a>
</g>
</g>
<!-- Node6 -->
<g id="Node000006" class="node">
<title>Node6</title>
<g id="a_Node000006"><a xlink:href="classScreenManager.html#a0cc1c81b131b3441fd808299c63b409b" target="_top" xlink:title="Get the Screen with the specified ID.">
<polygon fill="white" stroke="#666666" points="365,-41.61 196,-41.61 196,-22.61 365,-22.61 365,-41.61"/>
<text text-anchor="middle" x="280.5" y="-29.61" font-family="Helvetica,sans-Serif" font-size="10.00">ScreenManager::getScreenById</text>
</a>
</g>
</g>
<!-- Node1&#45;&gt;Node6 -->
<g id="edge9_Node000001_Node000006" class="edge">
<title>Node1&#45;&gt;Node6</title>
<g id="a_edge9_Node000001_Node000006"><a xlink:title=" ">
<path fill="none" stroke="#63b8ff" d="M156.23,-54.86C176.62,-51.1 198.34,-47.09 217.79,-43.5"/>
<polygon fill="#63b8ff" stroke="#63b8ff" points="218.53,-46.92 227.73,-41.67 217.26,-40.04 218.53,-46.92"/>
</a>
</g>
</g>
<!-- Node3&#45;&gt;Node2 -->
<g id="edge3_Node000003_Node000002" class="edge">
<title>Node3&#45;&gt;Node2</title>
<g id="a_edge3_Node000003_Node000002"><a xlink:title=" ">
<path fill="none" stroke="#63b8ff" d="M325.57,-78.67C339.46,-81.69 354.87,-85.04 369,-88.11 379.86,-90.48 391.52,-93.02 402.55,-95.42"/>
<polygon fill="#63b8ff" stroke="#63b8ff" points="401.96,-98.88 412.47,-97.59 403.45,-92.04 401.96,-98.88"/>
</a>
</g>
</g>
<!-- Node3&#45;&gt;Node4 -->
<g id="edge4_Node000003_Node000004" class="edge">
<title>Node3&#45;&gt;Node4</title>
<g id="a_edge4_Node000003_Node000004"><a xlink:title=" ">
<path fill="none" stroke="#63b8ff" d="M369.49,-59.8C378.03,-58.89 386.54,-57.99 394.66,-57.13"/>
<polygon fill="#63b8ff" stroke="#63b8ff" points="395.13,-60.6 404.71,-56.07 394.39,-53.64 395.13,-60.6"/>
</a>
</g>
</g>
<!-- Node5&#45;&gt;Node2 -->
<g id="edge6_Node000005_Node000002" class="edge">
<title>Node5&#45;&gt;Node2</title>
<g id="a_edge6_Node000005_Node000002"><a xlink:title=" ">
<path fill="none" stroke="#63b8ff" d="M367.99,-106.11C379.8,-106.11 391.58,-106.11 402.4,-106.11"/>
<polygon fill="#63b8ff" stroke="#63b8ff" points="402.45,-109.61 412.45,-106.11 402.45,-102.61 402.45,-109.61"/>
</a>
</g>
</g>
<!-- Node5&#45;&gt;Node4 -->
<g id="edge7_Node000005_Node000004" class="edge">
<title>Node5&#45;&gt;Node4</title>
<g id="a_edge7_Node000005_Node000004"><a xlink:title=" ">
<path fill="none" stroke="#63b8ff" d="M337.05,-96.59C347.77,-94.22 358.82,-91.4 369,-88.11 387.93,-82 408.33,-72.88 424.11,-65.22"/>
<polygon fill="#63b8ff" stroke="#63b8ff" points="425.87,-68.25 433.28,-60.68 422.77,-61.98 425.87,-68.25"/>
</a>
</g>
</g>
<!-- Node6&#45;&gt;Node4 -->
<g id="edge10_Node000006_Node000004" class="edge">
<title>Node6&#45;&gt;Node4</title>
<g id="a_edge10_Node000006_Node000004"><a xlink:title=" ">
<path fill="none" stroke="#63b8ff" d="M365.01,-41.45C375,-42.56 385.01,-43.68 394.51,-44.74"/>
<polygon fill="#63b8ff" stroke="#63b8ff" points="394.25,-48.24 404.57,-45.87 395.02,-41.28 394.25,-48.24"/>
</a>
</g>
</g>
</g>
</svg>

<g id="navigator" transform="translate(0 0)" fill="#404254">
  <rect fill="#f2f5e9" fill-opacity="0.5" stroke="#606060" stroke-width=".5" x="0" y="0" width="60" height="60"/>
  <use id="zoomplus" xlink:href="#zoomPlus" x="17" y="9" onmousedown="handleZoom(evt,'in')"/>
  <use id="zoomminus" xlink:href="#zoomMin" x="42" y="9" onmousedown="handleZoom(evt,'out')"/>
  <use id="reset" xlink:href="#resetDef" x="30" y="36" onmousedown="handleReset()"/>
   <use id="arrowup" xlink:href="#arrowUp" x="0" y="0" onmousedown="handlePan(0,-1)"/>
  <use id="arrowright" xlink:href="#arrowRight" x="0" y="0" onmousedown="handlePan(1,0)"/>
  <use id="arrowdown" xlink:href="#arrowDown" x="0" y="0" onmousedown="handlePan(0,1)"/>
  <use id="arrowleft" xlink:href="#arrowLeft" x="0" y="0" onmousedown="handlePan(-1,0)"/>
</g>
<svg viewBox="0 0 15 15" width="100%" height="30px" preserveAspectRatio="xMaxYMin meet">
 <g id="arrow_out" transform="scale(0.3 0.3)">
  <a xlink:href="classScreenManager_a64ecbfb9232d4051a75ff5abea58ba6d_cgraph_org.svg" target="_base">
   <rect id="button" ry="5" rx="5" y="6" x="6" height="38" width="38"
        fill="#f2f5e9" fill-opacity="0.5" stroke="#606060" stroke-width="1.0"/>
   <path id="arrow"
     d="M 11.500037,31.436501 C 11.940474,20.09759 22.043105,11.32322 32.158766,21.979434 L 37.068811,17.246167 C 37.068811,17.246167 37.088388,32 37.088388,32 L 22.160133,31.978069 C 22.160133,31.978069 26.997745,27.140456 26.997745,27.140456 C 18.528582,18.264221 13.291696,25.230495 11.500037,31.436501 z"
     style="fill:#404040;"/>
  </a>
 </g>
</svg>

<style type='text/css'>
<![CDATA[
[data-mouse-over-selected='false'] { opacity: 0.7; }
[data-mouse-over-selected='true']  { opacity: 1.0; }
]]>
</style>
<script type="application/ecmascript"><![CDATA[
document.addEventListener('DOMContentLoaded', (event) => {
  highlightEdges();
  highlightAdjacentNodes();
});
]]></script>
</svg>
