<?xml version="1.0" encoding="UTF-8" standalone="no"?>
<!DOCTYPE svg PUBLIC "-//W3C//DTD SVG 1.1//EN"
 "http://www.w3.org/Graphics/SVG/1.1/DTD/svg11.dtd">
<!-- Generated by graphviz version 2.43.0 (0)
 -->
<!-- Title: ScreenRow::getId Pages: 1 -->
<!--zoomable 288 -->

<svg id="main" version="1.1" xmlns="http://www.w3.org/2000/svg" xmlns:xlink="http://www.w3.org/1999/xlink" xml:space="preserve" onload="init(evt)">
<style type="text/css"><![CDATA[
.node, .edge {opacity: 0.7;}
.node.selected, .edge.selected {opacity: 1;}
.edge:hover path { stroke: red; }
.edge:hover polygon { stroke: red; fill: red; }
]]></style>

<defs>
  <circle id="rim" cx="0" cy="0" r="7"/>
  <circle id="rim2" cx="0" cy="0" r="3.5"/>
  <g id="zoomPlus">
    <use xlink:href="#rim" fill="#404040"><set attributeName="fill" to="#808080" begin="zoomplus.mouseover" end="zoomplus.mouseout"/></use>
    <path d="M-4,0h8M0,-4v8" fill="none" stroke="white" stroke-width="1.5" pointer-events="none"/>
  </g>
  <g id="zoomMin">
    <use xlink:href="#rim" fill="#404040"><set attributeName="fill" to="#808080" begin="zoomminus.mouseover" end="zoomminus.mouseout"/></use>
    <path d="M-4,0h8" fill="none" stroke="white" stroke-width="1.5" pointer-events="none"/>
  </g>
  <g id="arrowUp" transform="translate(30 24)">
    <use xlink:href="#rim"/>
    <path pointer-events="none" fill="none" stroke="white" stroke-width="1.5" d="M0,-3.0v7 M-2.5,-0.5L0,-3.0L2.5,-0.5"/>
  </g>
  <g id="arrowRight" transform="rotate(90) translate(36 -43)">
    <use xlink:href="#rim"/>
    <path pointer-events="none" fill="none" stroke="white" stroke-width="1.5" d="M0,-3.0v7 M-2.5,-0.5L0,-3.0L2.5,-0.5"/>
  </g>
  <g id="arrowDown" transform="rotate(180) translate(-30 -48)">
    <use xlink:href="#rim"/>
    <path pointer-events="none" fill="none" stroke="white" stroke-width="1.5" d="M0,-3.0v7 M-2.5,-0.5L0,-3.0L2.5,-0.5"/>
  </g>
  <g id="arrowLeft" transform="rotate(270) translate(-36 17)">
    <use xlink:href="#rim"/>
    <path pointer-events="none" fill="none" stroke="white" stroke-width="1.5" d="M0,-3.0v7 M-2.5,-0.5L0,-3.0L2.5,-0.5"/>
  </g>
  <g id="resetDef">
    <use xlink:href="#rim2" fill="#404040"><set attributeName="fill" to="#808080" begin="reset.mouseover" end="reset.mouseout"/></use>
  </g>
</defs>
<script type="application/ecmascript">
var viewWidth = 731;
var viewHeight = 288;
var sectionId = 'dynsection-1';
</script>
<script type="application/ecmascript" xlink:href="svg.min.js"/>
<svg id="graph" class="graph">
<g id="viewport">
<title>ScreenRow::getId</title>
<!-- Node1 -->
<g id="Node000001" class="node">
<title>Node1</title>
<g id="a_Node000001"><a xlink:title="Get the ID of this ScreenRow.">
<polygon fill="#999999" stroke="#666666" points="723,-132 622,-132 622,-113 723,-113 723,-132"/>
<text text-anchor="middle" x="672.5" y="-120" font-family="Helvetica,sans-Serif" font-size="10.00">ScreenRow::getId</text>
</a>
</g>
</g>
<!-- Node2 -->
<g id="Node000002" class="node">
<title>Node2</title>
<g id="a_Node000002"><a xlink:href="classScreen.html#a43263117dfffa210ccd83b6cd12e0732" target="_top" xlink:title="Delete the specified ScreenRow and update the list accordingly.">
<polygon fill="white" stroke="#666666" points="586,-179 440,-179 440,-160 586,-160 586,-179"/>
<text text-anchor="middle" x="513" y="-167" font-family="Helvetica,sans-Serif" font-size="10.00">Screen::_deleteScreenRow</text>
</a>
</g>
</g>
<!-- Node1&#45;&gt;Node2 -->
<g id="edge1_Node000001_Node000002" class="edge">
<title>Node1&#45;&gt;Node2</title>
<g id="a_edge1_Node000001_Node000002"><a xlink:title=" ">
<path fill="none" stroke="#63b8ff" d="M629.95,-134.9C603.71,-142.73 570.3,-152.7 546.09,-159.92"/>
<polygon fill="#63b8ff" stroke="#63b8ff" points="631.05,-138.22 639.63,-132.01 629.04,-131.52 631.05,-138.22"/>
</a>
</g>
</g>
<!-- Node4 -->
<g id="Node000004" class="node">
<title>Node4</title>
<g id="a_Node000004"><a xlink:href="test__Screen_8cpp.html#a1803655bda263555436ec633fd3297da" target="_top" xlink:title="Create a screen with associated row list and check all attributes are valid.">
<polygon fill="white" stroke="#666666" points="182.5,-280 130.5,-280 130.5,-261 182.5,-261 182.5,-280"/>
<text text-anchor="middle" x="156.5" y="-268" font-family="Helvetica,sans-Serif" font-size="10.00">TEST_F</text>
</a>
</g>
</g>
<!-- Node1&#45;&gt;Node4 -->
<g id="edge12_Node000001_Node000004" class="edge">
<title>Node1&#45;&gt;Node4</title>
<g id="a_edge12_Node000001_Node000004"><a xlink:title=" ">
<path fill="none" stroke="#63b8ff" d="M661.23,-140.72C647.35,-163.48 620.32,-201.73 586,-220.5 449.31,-295.23 251.86,-281.53 182.63,-273.77"/>
<polygon fill="#63b8ff" stroke="#63b8ff" points="664.3,-142.4 666.36,-132.01 658.27,-138.85 664.3,-142.4"/>
</a>
</g>
</g>
<!-- Node5 -->
<g id="Node000005" class="node">
<title>Node5</title>
<g id="a_Node000005"><a xlink:href="test__Screen_8cpp.html#aa85ee31e3fe94a4539ca065e4d9f412c" target="_top" xlink:title="Validate rows are deleted when setting text to &quot;&quot;.">
<polygon fill="white" stroke="#666666" points="182.5,-243 130.5,-243 130.5,-224 182.5,-224 182.5,-243"/>
<text text-anchor="middle" x="156.5" y="-231" font-family="Helvetica,sans-Serif" font-size="10.00">TEST_F</text>
</a>
</g>
</g>
<!-- Node1&#45;&gt;Node5 -->
<g id="edge13_Node000001_Node000005" class="edge">
<title>Node1&#45;&gt;Node5</title>
<g id="a_edge13_Node000001_Node000005"><a xlink:title=" ">
<path fill="none" stroke="#63b8ff" d="M655.2,-139.66C639.19,-155.3 613.27,-177.57 586,-188.5 442.26,-246.08 250.81,-239.96 182.79,-235.51"/>
<polygon fill="#63b8ff" stroke="#63b8ff" points="658.06,-141.74 662.62,-132.18 653.09,-136.81 658.06,-141.74"/>
</a>
</g>
</g>
<!-- Node6 -->
<g id="Node000006" class="node">
<title>Node6</title>
<g id="a_Node000006"><a xlink:href="test__Screen_8cpp.html#a9da657726211d6af0e63eaab94ad162f" target="_top" xlink:title="Create a screen with associated row list and ensure rows are accessible by ID.">
<polygon fill="white" stroke="#666666" points="182.5,-132 130.5,-132 130.5,-113 182.5,-113 182.5,-132"/>
<text text-anchor="middle" x="156.5" y="-120" font-family="Helvetica,sans-Serif" font-size="10.00">TEST_F</text>
</a>
</g>
</g>
<!-- Node1&#45;&gt;Node6 -->
<g id="edge14_Node000001_Node000006" class="edge">
<title>Node1&#45;&gt;Node6</title>
<g id="a_edge14_Node000001_Node000006"><a xlink:title=" ">
<path fill="none" stroke="#63b8ff" d="M611.59,-122.5C499.13,-122.5 260.7,-122.5 182.74,-122.5"/>
<polygon fill="#63b8ff" stroke="#63b8ff" points="611.75,-126 621.75,-122.5 611.75,-119 611.75,-126"/>
</a>
</g>
</g>
<!-- Node9 -->
<g id="Node000009" class="node">
<title>Node9</title>
<g id="a_Node000009"><a xlink:href="test__ControllerScreenCreation_8cpp.html#a9b3c4848f918df987352646ef615b8bb" target="_top" xlink:title="Validates that the Controller&#45;&gt;updateScreen() method creates a screen and updates rows correctly.">
<polygon fill="white" stroke="#666666" points="52,-131 0,-131 0,-112 52,-112 52,-131"/>
<text text-anchor="middle" x="26" y="-119" font-family="Helvetica,sans-Serif" font-size="10.00">TEST_F</text>
</a>
</g>
</g>
<!-- Node1&#45;&gt;Node9 -->
<g id="edge10_Node000001_Node000009" class="edge">
<title>Node1&#45;&gt;Node9</title>
<g id="a_edge10_Node000001_Node000009"><a xlink:title=" ">
<path fill="none" stroke="#63b8ff" d="M611.74,-119.66C603.1,-119.27 594.32,-118.87 586,-118.5 425.57,-111.41 385.55,-106.83 225,-103.5 164.12,-102.24 148.26,-94.79 88,-103.5 75.98,-105.24 63.03,-108.8 52.16,-112.31"/>
<polygon fill="#63b8ff" stroke="#63b8ff" points="611.62,-123.16 621.77,-120.13 611.94,-116.17 611.62,-123.16"/>
</a>
</g>
</g>
<!-- Node10 -->
<g id="Node000010" class="node">
<title>Node10</title>
<g id="a_Node000010"><a xlink:href="test__ControllerDisplayUpdate_8cpp.html#af7a73dc328bc3f14a231b3d577180628" target="_top" xlink:title="Test to ensure a mock display correctly receives screen updates from the Controller.">
<polygon fill="white" stroke="#666666" points="539,-56 487,-56 487,-37 539,-37 539,-56"/>
<text text-anchor="middle" x="513" y="-44" font-family="Helvetica,sans-Serif" font-size="10.00">TEST_F</text>
</a>
</g>
</g>
<!-- Node1&#45;&gt;Node10 -->
<g id="edge9_Node000001_Node000010" class="edge">
<title>Node1&#45;&gt;Node10</title>
<g id="a_edge9_Node000001_Node000010"><a xlink:title=" ">
<path fill="none" stroke="#63b8ff" d="M649.26,-107.06C632.44,-95.86 608.48,-80.92 586,-70.5 570.94,-63.52 553.26,-57.59 539.19,-53.38"/>
<polygon fill="#63b8ff" stroke="#63b8ff" points="647.57,-110.14 657.82,-112.84 651.49,-104.34 647.57,-110.14"/>
</a>
</g>
</g>
<!-- Node11 -->
<g id="Node000011" class="node">
<title>Node11</title>
<g id="a_Node000011"><a xlink:href="test__Screen_8cpp.html#ad93d273cb56a1558983e815333e2bbf7" target="_top" xlink:title="Create a ScreenRow and check all attributes are valid.">
<polygon fill="white" stroke="#666666" points="539,-19 487,-19 487,0 539,0 539,-19"/>
<text text-anchor="middle" x="513" y="-7" font-family="Helvetica,sans-Serif" font-size="10.00">TEST_F</text>
</a>
</g>
</g>
<!-- Node1&#45;&gt;Node11 -->
<g id="edge11_Node000001_Node000011" class="edge">
<title>Node1&#45;&gt;Node11</title>
<g id="a_edge11_Node000001_Node000011"><a xlink:title=" ">
<path fill="none" stroke="#63b8ff" d="M660.17,-104.4C645.66,-82.76 618.46,-47.03 586,-27.5 571.76,-18.93 553.59,-14.43 539.06,-12.07"/>
<polygon fill="#63b8ff" stroke="#63b8ff" points="657.37,-106.51 665.75,-112.98 663.23,-102.69 657.37,-106.51"/>
</a>
</g>
</g>
<!-- Node3 -->
<g id="Node000003" class="node">
<title>Node3</title>
<g id="a_Node000003"><a xlink:href="classScreen.html#a0a9a3a713a63ef55e854841d07630556" target="_top" xlink:title="Update the specified ScreenRow, or create it if it doesn&#39;t exist This will automatically maintain the...">
<polygon fill="white" stroke="#666666" points="404,-187 261,-187 261,-168 404,-168 404,-187"/>
<text text-anchor="middle" x="332.5" y="-175" font-family="Helvetica,sans-Serif" font-size="10.00">Screen::updateScreenRow</text>
</a>
</g>
</g>
<!-- Node2&#45;&gt;Node3 -->
<g id="edge2_Node000002_Node000003" class="edge">
<title>Node2&#45;&gt;Node3</title>
<g id="a_edge2_Node000002_Node000003"><a xlink:title=" ">
<path fill="none" stroke="#63b8ff" d="M429.87,-173.18C421.27,-173.57 412.58,-173.96 404.12,-174.34"/>
<polygon fill="#63b8ff" stroke="#63b8ff" points="430.08,-176.68 439.91,-172.73 429.77,-169.68 430.08,-176.68"/>
</a>
</g>
</g>
<!-- Node3&#45;&gt;Node4 -->
<g id="edge3_Node000003_Node000004" class="edge">
<title>Node3&#45;&gt;Node4</title>
<g id="a_edge3_Node000003_Node000004"><a xlink:title=" ">
<path fill="none" stroke="#63b8ff" d="M313,-193.63C292.7,-210.56 258.52,-236.84 225,-252.5 211.59,-258.76 195.64,-263.14 182.6,-266.02"/>
<polygon fill="#63b8ff" stroke="#63b8ff" points="315.45,-196.15 320.81,-187.01 310.92,-190.81 315.45,-196.15"/>
</a>
</g>
</g>
<!-- Node3&#45;&gt;Node5 -->
<g id="edge4_Node000003_Node000005" class="edge">
<title>Node3&#45;&gt;Node5</title>
<g id="a_edge4_Node000003_Node000005"><a xlink:title=" ">
<path fill="none" stroke="#63b8ff" d="M292.93,-190.3C282.53,-193.84 271.31,-197.74 261,-201.5 244.87,-207.38 241.32,-210.17 225,-215.5 211.17,-220.02 195.47,-224.26 182.7,-227.48"/>
<polygon fill="#63b8ff" stroke="#63b8ff" points="294.24,-193.55 302.59,-187.03 292,-186.92 294.24,-193.55"/>
</a>
</g>
</g>
<!-- Node3&#45;&gt;Node6 -->
<g id="edge5_Node000003_Node000006" class="edge">
<title>Node3&#45;&gt;Node6</title>
<g id="a_edge5_Node000003_Node000006"><a xlink:title=" ">
<path fill="none" stroke="#63b8ff" d="M294.92,-164.61C274.44,-157.53 248.39,-148.74 225,-141.5 211.04,-137.18 195.34,-132.74 182.59,-129.23"/>
<polygon fill="#63b8ff" stroke="#63b8ff" points="293.89,-167.96 304.49,-167.94 296.19,-161.35 293.89,-167.96"/>
</a>
</g>
</g>
<!-- Node7 -->
<g id="Node000007" class="node">
<title>Node7</title>
<g id="a_Node000007"><a xlink:href="test__Screen_8cpp.html#af450f2926aeb50c83ec7af1fe7d97a15" target="_top" xlink:title="Validate that rows are to be redrawn by default, and not after retrieving text.">
<polygon fill="white" stroke="#666666" points="182.5,-206 130.5,-206 130.5,-187 182.5,-187 182.5,-206"/>
<text text-anchor="middle" x="156.5" y="-194" font-family="Helvetica,sans-Serif" font-size="10.00">TEST_F</text>
</a>
</g>
</g>
<!-- Node3&#45;&gt;Node7 -->
<g id="edge6_Node000003_Node000007" class="edge">
<title>Node3&#45;&gt;Node7</title>
<g id="a_edge6_Node000003_Node000007"><a xlink:title=" ">
<path fill="none" stroke="#63b8ff" d="M250.84,-186.31C226.15,-189 200.79,-191.77 182.74,-193.74"/>
<polygon fill="#63b8ff" stroke="#63b8ff" points="251.42,-189.77 260.98,-185.2 250.66,-182.81 251.42,-189.77"/>
</a>
</g>
</g>
<!-- Node8 -->
<g id="Node000008" class="node">
<title>Node8</title>
<g id="a_Node000008"><a xlink:href="classController.html#a908f5f6c24239286e29d4761da509963" target="_top" xlink:title="Method to implement updating a screen.">
<polygon fill="white" stroke="#666666" points="225,-169 88,-169 88,-150 225,-150 225,-169"/>
<text text-anchor="middle" x="156.5" y="-157" font-family="Helvetica,sans-Serif" font-size="10.00">Controller::updateScreen</text>
</a>
</g>
</g>
<!-- Node3&#45;&gt;Node8 -->
<g id="edge7_Node000003_Node000008" class="edge">
<title>Node3&#45;&gt;Node8</title>
<g id="a_edge7_Node000003_Node000008"><a xlink:title=" ">
<path fill="none" stroke="#63b8ff" d="M250.88,-169.16C242.23,-168.27 233.5,-167.36 225.02,-166.49"/>
<polygon fill="#63b8ff" stroke="#63b8ff" points="250.67,-172.66 260.98,-170.2 251.39,-165.69 250.67,-172.66"/>
</a>
</g>
</g>
<!-- Node8&#45;&gt;Node9 -->
<g id="edge8_Node000008_Node000009" class="edge">
<title>Node8&#45;&gt;Node9</title>
<g id="a_edge8_Node000008_Node000009"><a xlink:title=" ">
<path fill="none" stroke="#63b8ff" d="M108.36,-147.29C101.51,-145.41 94.56,-143.45 88,-141.5 76.14,-137.98 63.1,-133.75 52.13,-130.09"/>
<polygon fill="#63b8ff" stroke="#63b8ff" points="107.69,-150.74 118.26,-149.97 109.52,-143.98 107.69,-150.74"/>
</a>
</g>
</g>
</g>
</svg>

<g id="navigator" transform="translate(0 0)" fill="#404254">
  <rect fill="#f2f5e9" fill-opacity="0.5" stroke="#606060" stroke-width=".5" x="0" y="0" width="60" height="60"/>
  <use id="zoomplus" xlink:href="#zoomPlus" x="17" y="9" onmousedown="handleZoom(evt,'in')"/>
  <use id="zoomminus" xlink:href="#zoomMin" x="42" y="9" onmousedown="handleZoom(evt,'out')"/>
  <use id="reset" xlink:href="#resetDef" x="30" y="36" onmousedown="handleReset()"/>
   <use id="arrowup" xlink:href="#arrowUp" x="0" y="0" onmousedown="handlePan(0,-1)"/>
  <use id="arrowright" xlink:href="#arrowRight" x="0" y="0" onmousedown="handlePan(1,0)"/>
  <use id="arrowdown" xlink:href="#arrowDown" x="0" y="0" onmousedown="handlePan(0,1)"/>
  <use id="arrowleft" xlink:href="#arrowLeft" x="0" y="0" onmousedown="handlePan(-1,0)"/>
</g>
<svg viewBox="0 0 15 15" width="100%" height="30px" preserveAspectRatio="xMaxYMin meet">
 <g id="arrow_out" transform="scale(0.3 0.3)">
  <a xlink:href="classScreenRow_a4c72ef81c0dde9c008c946625fdce36b_icgraph_org.svg" target="_base">
   <rect id="button" ry="5" rx="5" y="6" x="6" height="38" width="38"
        fill="#f2f5e9" fill-opacity="0.5" stroke="#606060" stroke-width="1.0"/>
   <path id="arrow"
     d="M 11.500037,31.436501 C 11.940474,20.09759 22.043105,11.32322 32.158766,21.979434 L 37.068811,17.246167 C 37.068811,17.246167 37.088388,32 37.088388,32 L 22.160133,31.978069 C 22.160133,31.978069 26.997745,27.140456 26.997745,27.140456 C 18.528582,18.264221 13.291696,25.230495 11.500037,31.436501 z"
     style="fill:#404040;"/>
  </a>
 </g>
</svg>

<style type='text/css'>
<![CDATA[
[data-mouse-over-selected='false'] { opacity: 0.7; }
[data-mouse-over-selected='true']  { opacity: 1.0; }
]]>
</style>
<script type="application/ecmascript"><![CDATA[
document.addEventListener('DOMContentLoaded', (event) => {
  highlightEdges();
  highlightAdjacentNodes();
});
]]></script>
</svg>
