<?xml version="1.0" encoding="UTF-8" standalone="no"?>
<!DOCTYPE svg PUBLIC "-//W3C//DTD SVG 1.1//EN"
 "http://www.w3.org/Graphics/SVG/1.1/DTD/svg11.dtd">
<!-- Generated by graphviz version 2.43.0 (0)
 -->
<!-- Title: Configurator::getDisplayManager Pages: 1 -->
<svg width="231pt" height="64pt"
 viewBox="0.00 0.00 231.00 64.00" xmlns="http://www.w3.org/2000/svg" xmlns:xlink="http://www.w3.org/1999/xlink">
<g id="graph0" class="graph" transform="scale(1 1) rotate(0) translate(4 60)">
<title>Configurator::getDisplayManager</title>
<!-- Node1 -->
<g id="Node000001" class="node">
<title>Node1</title>
<g id="a_Node000001"><a xlink:title="Get the DisplayManager instance for this Configurator.">
<polygon fill="#999999" stroke="#666666" points="223,-42.5 88,-42.5 88,-12.5 223,-12.5 223,-42.5"/>
<text text-anchor="start" x="96" y="-30.5" font-family="Helvetica,sans-Serif" font-size="10.00">Configurator::getDisplay</text>
<text text-anchor="middle" x="155.5" y="-19.5" font-family="Helvetica,sans-Serif" font-size="10.00">Manager</text>
</a>
</g>
</g>
<!-- Node2 -->
<g id="Node000002" class="node">
<title>Node2</title>
<g id="a_Node000002"><a xlink:href="test__Configurator_8cpp.html#a57e2feb5a9ed2c994f9c9ff550fa6c75" target="_top" xlink:title="Ensure the Configurator can be created successfully.">
<polygon fill="white" stroke="#666666" points="52,-56 0,-56 0,-37 52,-37 52,-56"/>
<text text-anchor="middle" x="26" y="-44" font-family="Helvetica,sans-Serif" font-size="10.00">TEST_F</text>
</a>
</g>
</g>
<!-- Node1&#45;&gt;Node2 -->
<g id="edge1_Node000001_Node000002" class="edge">
<title>Node1&#45;&gt;Node2</title>
<g id="a_edge1_Node000001_Node000002"><a xlink:title=" ">
<path fill="none" stroke="#63b8ff" d="M77.75,-38.94C68.62,-40.3 59.87,-41.6 52.28,-42.73"/>
<polygon fill="#63b8ff" stroke="#63b8ff" points="78.39,-42.38 87.76,-37.45 77.36,-35.46 78.39,-42.38"/>
</a>
</g>
</g>
<!-- Node3 -->
<g id="Node000003" class="node">
<title>Node3</title>
<g id="a_Node000003"><a xlink:href="test__Configurator_8cpp.html#a90ba0264a5f676876816cf7411508ac9" target="_top" xlink:title="Ensure the Configurator is created and all attributes are as expected.">
<polygon fill="white" stroke="#666666" points="52,-19 0,-19 0,0 52,0 52,-19"/>
<text text-anchor="middle" x="26" y="-7" font-family="Helvetica,sans-Serif" font-size="10.00">TEST_F</text>
</a>
</g>
</g>
<!-- Node1&#45;&gt;Node3 -->
<g id="edge2_Node000001_Node000003" class="edge">
<title>Node1&#45;&gt;Node3</title>
<g id="a_edge2_Node000001_Node000003"><a xlink:title=" ">
<path fill="none" stroke="#63b8ff" d="M77.75,-16.66C68.62,-15.38 59.87,-14.14 52.28,-13.07"/>
<polygon fill="#63b8ff" stroke="#63b8ff" points="77.37,-20.15 87.76,-18.08 78.35,-13.21 77.37,-20.15"/>
</a>
</g>
</g>
</g>
</svg>
