<?xml version="1.0" encoding="UTF-8" standalone="no"?>
<!DOCTYPE svg PUBLIC "-//W3C//DTD SVG 1.1//EN"
 "http://www.w3.org/Graphics/SVG/1.1/DTD/svg11.dtd">
<!-- Generated by graphviz version 2.43.0 (0)
 -->
<!-- Title: InputInterface::setHoldThreshold Pages: 1 -->
<svg width="696pt" height="116pt"
 viewBox="0.00 0.00 696.00 116.00" xmlns="http://www.w3.org/2000/svg" xmlns:xlink="http://www.w3.org/1999/xlink">
<g id="graph0" class="graph" transform="scale(1 1) rotate(0) translate(4 112)">
<title>InputInterface::setHoldThreshold</title>
<polygon fill="white" stroke="transparent" points="-4,4 -4,-112 692,-112 692,4 -4,4"/>
<!-- Node1 -->
<g id="node1" class="node">
<title>Node1</title>
<g id="a_node1"><a xlink:title="Set the threshold for detecting an input is held.">
<polygon fill="#bfbfbf" stroke="black" points="512,-44.5 512,-63.5 688,-63.5 688,-44.5 512,-44.5"/>
<text text-anchor="middle" x="600" y="-51.5" font-family="Helvetica,sans-Serif" font-size="10.00">InputInterface::setHoldThreshold</text>
</a>
</g>
</g>
<!-- Node2 -->
<g id="node2" class="node">
<title>Node2</title>
<g id="a_node2"><a xlink:href="classInputManager.html#a3579aef6a242289012e5819b4be15e52" target="_top" xlink:title="Set the InputInterface.">
<polygon fill="white" stroke="black" points="343,-44.5 343,-63.5 476,-63.5 476,-44.5 343,-44.5"/>
<text text-anchor="middle" x="409.5" y="-51.5" font-family="Helvetica,sans-Serif" font-size="10.00">InputManager::addInput</text>
</a>
</g>
</g>
<!-- Node1&#45;&gt;Node2 -->
<g id="edge1" class="edge">
<title>Node1&#45;&gt;Node2</title>
<path fill="none" stroke="midnightblue" d="M501.73,-54C493.04,-54 484.39,-54 476.07,-54"/>
<polygon fill="midnightblue" stroke="midnightblue" points="501.92,-57.5 511.92,-54 501.92,-50.5 501.92,-57.5"/>
</g>
<!-- Node3 -->
<g id="node3" class="node">
<title>Node3</title>
<g id="a_node3"><a xlink:href="classInputManager.html#af956225a4057143bf0704781e036be09" target="_top" xlink:title="Call once to create the InputInterface derived input.">
<polygon fill="white" stroke="black" points="161,-88.5 161,-107.5 307,-107.5 307,-88.5 161,-88.5"/>
<text text-anchor="middle" x="234" y="-95.5" font-family="Helvetica,sans-Serif" font-size="10.00">InputManager::createInput</text>
</a>
</g>
</g>
<!-- Node2&#45;&gt;Node3 -->
<g id="edge2" class="edge">
<title>Node2&#45;&gt;Node3</title>
<path fill="none" stroke="midnightblue" d="M360.94,-66.06C333.11,-73.12 298.48,-81.9 272.57,-88.47"/>
<polygon fill="midnightblue" stroke="midnightblue" points="362.02,-69.4 370.85,-63.55 360.3,-62.61 362.02,-69.4"/>
</g>
<!-- Node9 -->
<g id="node5" class="node">
<title>Node9</title>
<g id="a_node5"><a xlink:href="classControllerInputActionTests.html#afb639f110e387a10897f635bdd329a4a" target="_top" xlink:title=" ">
<polygon fill="white" stroke="black" points="161.5,-39 161.5,-69 306.5,-69 306.5,-39 161.5,-39"/>
<text text-anchor="start" x="169.5" y="-57" font-family="Helvetica,sans-Serif" font-size="10.00">ControllerInputActionTests</text>
<text text-anchor="middle" x="234" y="-46" font-family="Helvetica,sans-Serif" font-size="10.00">::SetUp</text>
</a>
</g>
</g>
<!-- Node2&#45;&gt;Node9 -->
<g id="edge4" class="edge">
<title>Node2&#45;&gt;Node9</title>
<path fill="none" stroke="midnightblue" d="M332.84,-54C324.18,-54 315.38,-54 306.78,-54"/>
<polygon fill="midnightblue" stroke="midnightblue" points="332.91,-57.5 342.91,-54 332.91,-50.5 332.91,-57.5"/>
</g>
<!-- Node10 -->
<g id="node6" class="node">
<title>Node10</title>
<g id="a_node6"><a xlink:href="test__InputManager_8cpp.html#ae61e78914c3beb26e21559280269fc47" target="_top" xlink:title="Test to ensure an input can be set, retrieved, and started with the InputManager.">
<polygon fill="white" stroke="black" points="208,-0.5 208,-19.5 260,-19.5 260,-0.5 208,-0.5"/>
<text text-anchor="middle" x="234" y="-7.5" font-family="Helvetica,sans-Serif" font-size="10.00">TEST_F</text>
</a>
</g>
</g>
<!-- Node2&#45;&gt;Node10 -->
<g id="edge5" class="edge">
<title>Node2&#45;&gt;Node10</title>
<path fill="none" stroke="midnightblue" d="M361.08,-41.97C328.52,-33.72 286.6,-23.09 260.25,-16.4"/>
<polygon fill="midnightblue" stroke="midnightblue" points="360.3,-45.39 370.85,-44.45 362.02,-38.6 360.3,-45.39"/>
</g>
<!-- Node4 -->
<g id="node4" class="node">
<title>Node4</title>
<g id="a_node4"><a xlink:href="classConfigurator.html#a25ee5e1b0a64d971232d6ecaaadd5d61" target="_top" xlink:title="Call all one&#45;shot initialisation or begin methods on startup.">
<polygon fill="white" stroke="red" points="0,-88.5 0,-107.5 125,-107.5 125,-88.5 0,-88.5"/>
<text text-anchor="middle" x="62.5" y="-95.5" font-family="Helvetica,sans-Serif" font-size="10.00">Configurator::initialise</text>
</a>
</g>
</g>
<!-- Node3&#45;&gt;Node4 -->
<g id="edge3" class="edge">
<title>Node3&#45;&gt;Node4</title>
<path fill="none" stroke="midnightblue" d="M150.62,-98C142.07,-98 133.49,-98 125.22,-98"/>
<polygon fill="midnightblue" stroke="midnightblue" points="150.63,-101.5 160.63,-98 150.63,-94.5 150.63,-101.5"/>
</g>
</g>
</svg>
