<?xml version="1.0" encoding="UTF-8" standalone="no"?>
<!DOCTYPE svg PUBLIC "-//W3C//DTD SVG 1.1//EN"
 "http://www.w3.org/Graphics/SVG/1.1/DTD/svg11.dtd">
<!-- Generated by graphviz version 2.43.0 (0)
 -->
<!-- Title: TFT_eSPIDisplay::clearRow Pages: 1 -->
<svg width="730pt" height="88pt"
 viewBox="0.00 0.00 730.00 88.00" xmlns="http://www.w3.org/2000/svg" xmlns:xlink="http://www.w3.org/1999/xlink">
<g id="graph0" class="graph" transform="scale(1 1) rotate(0) translate(4 84)">
<title>TFT_eSPIDisplay::clearRow</title>
<polygon fill="white" stroke="transparent" points="-4,4 -4,-84 726,-84 726,4 -4,4"/>
<!-- Node1 -->
<g id="node1" class="node">
<title>Node1</title>
<g id="a_node1"><a xlink:title="Clear the specified row.">
<polygon fill="#bfbfbf" stroke="black" points="575,-30 575,-49 722,-49 722,-30 575,-30"/>
<text text-anchor="middle" x="648.5" y="-37" font-family="Helvetica,sans-Serif" font-size="10.00">TFT_eSPIDisplay::clearRow</text>
</a>
</g>
</g>
<!-- Node2 -->
<g id="node2" class="node">
<title>Node2</title>
<g id="a_node2"><a xlink:href="classTFT__eSPIDisplay.html#a18b84c77677d72c6515d0cd45e9c65ae" target="_top" xlink:title="Display a row of text on the display.">
<polygon fill="white" stroke="black" points="381,-30 381,-49 539,-49 539,-30 381,-30"/>
<text text-anchor="middle" x="460" y="-37" font-family="Helvetica,sans-Serif" font-size="10.00">TFT_eSPIDisplay::displayRow</text>
</a>
</g>
</g>
<!-- Node1&#45;&gt;Node2 -->
<g id="edge1" class="edge">
<title>Node1&#45;&gt;Node2</title>
<path fill="none" stroke="midnightblue" d="M564.65,-39.5C556.23,-39.5 547.68,-39.5 539.3,-39.5"/>
<polygon fill="midnightblue" stroke="midnightblue" points="564.86,-43 574.86,-39.5 564.86,-36 564.86,-43"/>
</g>
<!-- Node3 -->
<g id="node3" class="node">
<title>Node3</title>
<g id="a_node3"><a xlink:href="classTFT__eSPITouch.html#ad71507c11a328924064e703daef05ada" target="_top" xlink:title="Display calibration error on screen and pause for 5 seconds.">
<polygon fill="white" stroke="black" points="157,-49.5 157,-79.5 345,-79.5 345,-49.5 157,-49.5"/>
<text text-anchor="start" x="165" y="-67.5" font-family="Helvetica,sans-Serif" font-size="10.00">TFT_eSPITouch::_displayCalibration</text>
<text text-anchor="middle" x="251" y="-56.5" font-family="Helvetica,sans-Serif" font-size="10.00">Error</text>
</a>
</g>
</g>
<!-- Node2&#45;&gt;Node3 -->
<g id="edge2" class="edge">
<title>Node2&#45;&gt;Node3</title>
<path fill="none" stroke="midnightblue" d="M370.62,-50.17C362.25,-51.18 353.75,-52.21 345.34,-53.23"/>
<polygon fill="midnightblue" stroke="midnightblue" points="371.23,-53.63 380.74,-48.95 370.39,-46.68 371.23,-53.63"/>
</g>
<!-- Node5 -->
<g id="node5" class="node">
<title>Node5</title>
<g id="a_node5"><a xlink:href="classTFT__eSPIDisplay.html#ac4c657d18bcd4dae193f5fd906411dcf" target="_top" xlink:title="Display the specified Screen on this display.">
<polygon fill="white" stroke="black" points="182.5,-0.5 182.5,-30.5 319.5,-30.5 319.5,-0.5 182.5,-0.5"/>
<text text-anchor="start" x="190.5" y="-18.5" font-family="Helvetica,sans-Serif" font-size="10.00">TFT_eSPIDisplay::display</text>
<text text-anchor="middle" x="251" y="-7.5" font-family="Helvetica,sans-Serif" font-size="10.00">Screen</text>
</a>
</g>
</g>
<!-- Node2&#45;&gt;Node5 -->
<g id="edge4" class="edge">
<title>Node2&#45;&gt;Node5</title>
<path fill="none" stroke="midnightblue" d="M370.73,-29.27C353.59,-27.28 335.87,-25.22 319.53,-23.33"/>
<polygon fill="midnightblue" stroke="midnightblue" points="370.41,-32.75 380.74,-30.43 371.21,-25.8 370.41,-32.75"/>
</g>
<!-- Node4 -->
<g id="node4" class="node">
<title>Node4</title>
<g id="a_node4"><a xlink:href="classTFT__eSPITouch.html#aaf01840eb32016de879566883287b9c3" target="_top" xlink:title="Perform any initial once off setup or configuration here and call only once.">
<polygon fill="white" stroke="black" points="0,-55 0,-74 121,-74 121,-55 0,-55"/>
<text text-anchor="middle" x="60.5" y="-62" font-family="Helvetica,sans-Serif" font-size="10.00">TFT_eSPITouch::begin</text>
</a>
</g>
</g>
<!-- Node3&#45;&gt;Node4 -->
<g id="edge3" class="edge">
<title>Node3&#45;&gt;Node4</title>
<path fill="none" stroke="midnightblue" d="M146.61,-64.5C137.92,-64.5 129.32,-64.5 121.14,-64.5"/>
<polygon fill="midnightblue" stroke="midnightblue" points="146.85,-68 156.85,-64.5 146.85,-61 146.85,-68"/>
</g>
</g>
</svg>
