<?xml version="1.0" encoding="UTF-8" standalone="no"?>
<!DOCTYPE svg PUBLIC "-//W3C//DTD SVG 1.1//EN"
 "http://www.w3.org/Graphics/SVG/1.1/DTD/svg11.dtd">
<!-- Generated by graphviz version 2.43.0 (0)
 -->
<!-- Title: InputInterface::forceCalibration Pages: 1 -->
<svg width="527pt" height="78pt"
 viewBox="0.00 0.00 527.00 77.50" xmlns="http://www.w3.org/2000/svg" xmlns:xlink="http://www.w3.org/1999/xlink">
<g id="graph0" class="graph" transform="scale(1 1) rotate(0) translate(4 73.5)">
<title>InputInterface::forceCalibration</title>
<polygon fill="white" stroke="transparent" points="-4,4 -4,-73.5 523,-73.5 523,4 -4,4"/>
<!-- Node1 -->
<g id="node1" class="node">
<title>Node1</title>
<g id="a_node1"><a xlink:title="Force a touch screen into calibration mode, even if existing calibration is valid.">
<polygon fill="#bfbfbf" stroke="black" points="350,-22.5 350,-41.5 519,-41.5 519,-22.5 350,-22.5"/>
<text text-anchor="middle" x="434.5" y="-29.5" font-family="Helvetica,sans-Serif" font-size="10.00">InputInterface::forceCalibration</text>
</a>
</g>
</g>
<!-- Node2 -->
<g id="node2" class="node">
<title>Node2</title>
<g id="a_node2"><a xlink:href="classInputManager.html#a46a2124eddfd8617124bc16670f09633" target="_top" xlink:title="Set the InputInterface.">
<polygon fill="white" stroke="black" points="181,-22.5 181,-41.5 314,-41.5 314,-22.5 181,-22.5"/>
<text text-anchor="middle" x="247.5" y="-29.5" font-family="Helvetica,sans-Serif" font-size="10.00">InputManager::addInput</text>
</a>
</g>
</g>
<!-- Node1&#45;&gt;Node2 -->
<g id="edge1" class="edge">
<title>Node1&#45;&gt;Node2</title>
<path fill="none" stroke="midnightblue" d="M339.8,-32C331.16,-32 322.54,-32 314.23,-32"/>
<polygon fill="midnightblue" stroke="midnightblue" points="339.93,-35.5 349.93,-32 339.93,-28.5 339.93,-35.5"/>
</g>
<!-- Node3 -->
<g id="node3" class="node">
<title>Node3</title>
<g id="a_node3"><a xlink:href="classControllerInputActionTests.html#afb639f110e387a10897f635bdd329a4a" target="_top" xlink:title=" ">
<polygon fill="white" stroke="black" points="0,-39 0,-69 145,-69 145,-39 0,-39"/>
<text text-anchor="start" x="8" y="-57" font-family="Helvetica,sans-Serif" font-size="10.00">ControllerInputActionTests</text>
<text text-anchor="middle" x="72.5" y="-46" font-family="Helvetica,sans-Serif" font-size="10.00">::SetUp</text>
</a>
</g>
</g>
<!-- Node2&#45;&gt;Node3 -->
<g id="edge2" class="edge">
<title>Node2&#45;&gt;Node3</title>
<path fill="none" stroke="midnightblue" d="M170.47,-41.67C162.1,-42.73 153.59,-43.82 145.27,-44.87"/>
<polygon fill="midnightblue" stroke="midnightblue" points="171.12,-45.11 180.6,-40.38 170.24,-38.17 171.12,-45.11"/>
</g>
<!-- Node4 -->
<g id="node4" class="node">
<title>Node4</title>
<g id="a_node4"><a xlink:href="test__InputManager_8cpp.html#ae61e78914c3beb26e21559280269fc47" target="_top" xlink:title="Test to ensure an input can be set, retrieved, and started with the InputManager.">
<polygon fill="white" stroke="black" points="46.5,-0.5 46.5,-19.5 98.5,-19.5 98.5,-0.5 46.5,-0.5"/>
<text text-anchor="middle" x="72.5" y="-7.5" font-family="Helvetica,sans-Serif" font-size="10.00">TEST_F</text>
</a>
</g>
</g>
<!-- Node2&#45;&gt;Node4 -->
<g id="edge3" class="edge">
<title>Node2&#45;&gt;Node4</title>
<path fill="none" stroke="midnightblue" d="M170.42,-22.33C144.63,-19.05 117.59,-15.61 98.65,-13.2"/>
<polygon fill="midnightblue" stroke="midnightblue" points="170.24,-25.83 180.6,-23.62 171.12,-18.89 170.24,-25.83"/>
</g>
</g>
</svg>
