<?xml version="1.0" encoding="UTF-8" standalone="no"?>
<!DOCTYPE svg PUBLIC "-//W3C//DTD SVG 1.1//EN"
 "http://www.w3.org/Graphics/SVG/1.1/DTD/svg11.dtd">
<!-- Generated by graphviz version 2.43.0 (0)
 -->
<!-- Title: DisplayInterface::getId Pages: 1 -->
<svg width="672pt" height="300pt"
 viewBox="0.00 0.00 672.00 300.00" xmlns="http://www.w3.org/2000/svg" xmlns:xlink="http://www.w3.org/1999/xlink">
<g id="graph0" class="graph" transform="scale(1 1) rotate(0) translate(4 296)">
<title>DisplayInterface::getId</title>
<!-- Node1 -->
<g id="Node000001" class="node">
<title>Node1</title>
<g id="a_Node000001"><a xlink:title="Get the ID of this display instance.">
<polygon fill="#999999" stroke="#666666" points="664,-150 536,-150 536,-131 664,-131 664,-150"/>
<text text-anchor="middle" x="600" y="-138" font-family="Helvetica,sans-Serif" font-size="10.00">DisplayInterface::getId</text>
</a>
</g>
</g>
<!-- Node2 -->
<g id="Node000002" class="node">
<title>Node2</title>
<g id="a_Node000002"><a xlink:href="classController.html#aa981e303ca83593ffb34db49c7d73cc6" target="_top" xlink:title="Selects the next screen for the selected display.">
<polygon fill="white" stroke="#666666" points="500,-292 339,-292 339,-273 500,-273 500,-292"/>
<text text-anchor="middle" x="419.5" y="-280" font-family="Helvetica,sans-Serif" font-size="10.00">Controller::_selectNextScreen</text>
</a>
</g>
</g>
<!-- Node1&#45;&gt;Node2 -->
<g id="edge1_Node000001_Node000002" class="edge">
<title>Node1&#45;&gt;Node2</title>
<g id="a_edge1_Node000001_Node000002"><a xlink:title=" ">
<path fill="none" stroke="#63b8ff" d="M589.23,-159.25C573.99,-186.59 541.89,-237.01 500,-263.5 493.88,-267.37 487.05,-270.45 480.02,-272.9"/>
<polygon fill="#63b8ff" stroke="#63b8ff" points="592.39,-160.77 594.07,-150.31 586.24,-157.44 592.39,-160.77"/>
</a>
</g>
</g>
<!-- Node4 -->
<g id="Node000004" class="node">
<title>Node4</title>
<g id="a_Node000004"><a xlink:href="classController.html#a3e02f73e534a929849f981ec892b4f54" target="_top" xlink:title="Selects the previous screen for the selected display.">
<polygon fill="white" stroke="#666666" points="493,-254.5 346,-254.5 346,-224.5 493,-224.5 493,-254.5"/>
<text text-anchor="start" x="354" y="-242.5" font-family="Helvetica,sans-Serif" font-size="10.00">Controller::_selectPrevious</text>
<text text-anchor="middle" x="419.5" y="-231.5" font-family="Helvetica,sans-Serif" font-size="10.00">Screen</text>
</a>
</g>
</g>
<!-- Node1&#45;&gt;Node4 -->
<g id="edge3_Node000001_Node000004" class="edge">
<title>Node1&#45;&gt;Node4</title>
<g id="a_edge3_Node000001_Node000004"><a xlink:title=" ">
<path fill="none" stroke="#63b8ff" d="M581.36,-156.99C562.52,-173.82 531.14,-199.65 500,-215.5 493.45,-218.83 486.35,-221.79 479.19,-224.39"/>
<polygon fill="#63b8ff" stroke="#63b8ff" points="583.81,-159.49 588.86,-150.18 579.11,-154.31 583.81,-159.49"/>
</a>
</g>
</g>
<!-- Node5 -->
<g id="Node000005" class="node">
<title>Node5</title>
<g id="a_Node000005"><a xlink:href="classTFT__eSPITouch.html#aaf01840eb32016de879566883287b9c3" target="_top" xlink:title="Perform any initial once off setup or configuration here and call only once.">
<polygon fill="white" stroke="#666666" points="480,-206 359,-206 359,-187 480,-187 480,-206"/>
<text text-anchor="middle" x="419.5" y="-194" font-family="Helvetica,sans-Serif" font-size="10.00">TFT_eSPITouch::begin</text>
</a>
</g>
</g>
<!-- Node1&#45;&gt;Node5 -->
<g id="edge5_Node000001_Node000005" class="edge">
<title>Node1&#45;&gt;Node5</title>
<g id="a_edge5_Node000001_Node000005"><a xlink:title=" ">
<path fill="none" stroke="#63b8ff" d="M567.43,-153.95C548.19,-161.82 522.95,-171.54 500,-178.5 489.71,-181.62 478.52,-184.48 467.88,-186.95"/>
<polygon fill="#63b8ff" stroke="#63b8ff" points="569,-157.09 576.91,-150.03 566.33,-150.62 569,-157.09"/>
</a>
</g>
</g>
<!-- Node6 -->
<g id="Node000006" class="node">
<title>Node6</title>
<g id="a_Node000006"><a xlink:href="classInputInterface.html#a8835a0d2c51926d4636f239d888a8e71" target="_top" xlink:title="Set the DisplayInterface for this input if required.">
<polygon fill="white" stroke="#666666" points="491,-169 348,-169 348,-150 491,-150 491,-169"/>
<text text-anchor="middle" x="419.5" y="-157" font-family="Helvetica,sans-Serif" font-size="10.00">InputInterface::setDisplay</text>
</a>
</g>
</g>
<!-- Node1&#45;&gt;Node6 -->
<g id="edge6_Node000001_Node000006" class="edge">
<title>Node1&#45;&gt;Node6</title>
<g id="a_edge6_Node000001_Node000006"><a xlink:title=" ">
<path fill="none" stroke="#63b8ff" d="M525.87,-148.28C514.41,-149.5 502.6,-150.76 491.2,-151.97"/>
<polygon fill="#63b8ff" stroke="#63b8ff" points="526.24,-151.76 535.82,-147.23 525.5,-144.8 526.24,-151.76"/>
</a>
</g>
</g>
<!-- Node7 -->
<g id="Node000007" class="node">
<title>Node7</title>
<g id="a_Node000007"><a xlink:href="classInputManager.html#a27c7bc043eb9fbb8c7700624852220f6" target="_top" xlink:title="Set the display interface to retrieve required attributes &#45; note this should only be required for TFT...">
<polygon fill="white" stroke="#666666" points="303,-150 161,-150 161,-131 303,-131 303,-150"/>
<text text-anchor="middle" x="232" y="-138" font-family="Helvetica,sans-Serif" font-size="10.00">InputManager::setDisplay</text>
</a>
</g>
</g>
<!-- Node1&#45;&gt;Node7 -->
<g id="edge9_Node000001_Node000007" class="edge">
<title>Node1&#45;&gt;Node7</title>
<g id="a_edge9_Node000001_Node000007"><a xlink:title=" ">
<path fill="none" stroke="#63b8ff" d="M525.52,-140.5C460.68,-140.5 366.83,-140.5 303.04,-140.5"/>
<polygon fill="#63b8ff" stroke="#63b8ff" points="525.67,-144 535.67,-140.5 525.67,-137 525.67,-144"/>
</a>
</g>
</g>
<!-- Node12 -->
<g id="Node000012" class="node">
<title>Node12</title>
<g id="a_Node000012"><a xlink:href="test__CompilerCreation_8cpp.html#a484c00ac396e82066ad78a3641a34a4f" target="_top" xlink:title="Ensure devices are created and all attributes are valid.">
<polygon fill="white" stroke="#666666" points="445.5,-93 393.5,-93 393.5,-74 445.5,-74 445.5,-93"/>
<text text-anchor="middle" x="419.5" y="-81" font-family="Helvetica,sans-Serif" font-size="10.00">TEST_F</text>
</a>
</g>
</g>
<!-- Node1&#45;&gt;Node12 -->
<g id="edge10_Node000001_Node000012" class="edge">
<title>Node1&#45;&gt;Node12</title>
<g id="a_edge10_Node000001_Node000012"><a xlink:title=" ">
<path fill="none" stroke="#63b8ff" d="M561.39,-127.68C542.93,-121.46 520.35,-113.96 500,-107.5 481.86,-101.74 461.29,-95.54 445.62,-90.88"/>
<polygon fill="#63b8ff" stroke="#63b8ff" points="560.31,-131.01 570.91,-130.9 562.55,-124.38 560.31,-131.01"/>
</a>
</g>
</g>
<!-- Node13 -->
<g id="Node000013" class="node">
<title>Node13</title>
<g id="a_Node000013"><a xlink:href="test__DisplayInterface_8cpp.html#aa023f143e38a3052f9e71534ff19f5f9" target="_top" xlink:title="Test a second display can be accessed via the first in a list.">
<polygon fill="white" stroke="#666666" points="445.5,-56 393.5,-56 393.5,-37 445.5,-37 445.5,-56"/>
<text text-anchor="middle" x="419.5" y="-44" font-family="Helvetica,sans-Serif" font-size="10.00">TEST_F</text>
</a>
</g>
</g>
<!-- Node1&#45;&gt;Node13 -->
<g id="edge11_Node000001_Node000013" class="edge">
<title>Node1&#45;&gt;Node13</title>
<g id="a_edge11_Node000001_Node000013"><a xlink:title=" ">
<path fill="none" stroke="#63b8ff" d="M582.22,-123.88C563.66,-106.46 532.12,-79.57 500,-64.5 482.83,-56.45 461.86,-51.89 445.76,-49.38"/>
<polygon fill="#63b8ff" stroke="#63b8ff" points="579.92,-126.53 589.56,-130.92 584.77,-121.48 579.92,-126.53"/>
</a>
</g>
</g>
<!-- Node14 -->
<g id="Node000014" class="node">
<title>Node14</title>
<g id="a_Node000014"><a xlink:href="test__DisplayManager_8cpp.html#a8db4cc07d4e89d899e0a75ca521f9229" target="_top" xlink:title="Create a list of mock displays and validate they are created and operate correctly.">
<polygon fill="white" stroke="#666666" points="445.5,-19 393.5,-19 393.5,0 445.5,0 445.5,-19"/>
<text text-anchor="middle" x="419.5" y="-7" font-family="Helvetica,sans-Serif" font-size="10.00">TEST_F</text>
</a>
</g>
</g>
<!-- Node1&#45;&gt;Node14 -->
<g id="edge12_Node000001_Node000014" class="edge">
<title>Node1&#45;&gt;Node14</title>
<g id="a_edge12_Node000001_Node000014"><a xlink:title=" ">
<path fill="none" stroke="#63b8ff" d="M588.2,-122.13C572.25,-96.72 539.94,-51.28 500,-27.5 483.46,-17.65 462.06,-13.19 445.63,-11.17"/>
<polygon fill="#63b8ff" stroke="#63b8ff" points="585.3,-124.09 593.49,-130.81 591.27,-120.45 585.3,-124.09"/>
</a>
</g>
</g>
<!-- Node3 -->
<g id="Node000003" class="node">
<title>Node3</title>
<g id="a_Node000003"><a xlink:href="classController.html#af9c9f10320fb7770553156da4d164e64" target="_top" xlink:title="Method to implement to respond to an input action.">
<polygon fill="white" stroke="#666666" points="301,-270 163,-270 163,-251 301,-251 301,-270"/>
<text text-anchor="middle" x="232" y="-258" font-family="Helvetica,sans-Serif" font-size="10.00">Controller::onInputAction</text>
</a>
</g>
</g>
<!-- Node2&#45;&gt;Node3 -->
<g id="edge2_Node000002_Node000003" class="edge">
<title>Node2&#45;&gt;Node3</title>
<g id="a_edge2_Node000002_Node000003"><a xlink:title=" ">
<path fill="none" stroke="#63b8ff" d="M328.69,-271.85C319.38,-270.74 310.03,-269.64 301.02,-268.57"/>
<polygon fill="#63b8ff" stroke="#63b8ff" points="328.41,-275.34 338.75,-273.04 329.24,-268.39 328.41,-275.34"/>
</a>
</g>
</g>
<!-- Node4&#45;&gt;Node3 -->
<g id="edge4_Node000004_Node000003" class="edge">
<title>Node4&#45;&gt;Node3</title>
<g id="a_edge4_Node000004_Node000003"><a xlink:title=" ">
<path fill="none" stroke="#63b8ff" d="M335.88,-248.85C324.29,-250.16 312.5,-251.5 301.22,-252.78"/>
<polygon fill="#63b8ff" stroke="#63b8ff" points="336.44,-252.31 345.98,-247.71 335.65,-245.36 336.44,-252.31"/>
</a>
</g>
</g>
<!-- Node6&#45;&gt;Node7 -->
<g id="edge7_Node000006_Node000007" class="edge">
<title>Node6&#45;&gt;Node7</title>
<g id="a_edge7_Node000006_Node000007"><a xlink:title=" ">
<path fill="none" stroke="#63b8ff" d="M337.79,-151.23C326.25,-150.05 314.47,-148.84 303.16,-147.69"/>
<polygon fill="#63b8ff" stroke="#63b8ff" points="337.54,-154.73 347.84,-152.26 338.25,-147.76 337.54,-154.73"/>
</a>
</g>
</g>
<!-- Node8 -->
<g id="Node000008" class="node">
<title>Node8</title>
<g id="a_Node000008"><a xlink:href="classConfigurator.html#a25ee5e1b0a64d971232d6ecaaadd5d61" target="_top" xlink:title="Call all one&#45;shot initialisation or begin methods on startup.">
<polygon fill="#fff0f0" stroke="red" points="125,-150 0,-150 0,-131 125,-131 125,-150"/>
<text text-anchor="middle" x="62.5" y="-138" font-family="Helvetica,sans-Serif" font-size="10.00">Configurator::initialise</text>
</a>
</g>
</g>
<!-- Node7&#45;&gt;Node8 -->
<g id="edge8_Node000007_Node000008" class="edge">
<title>Node7&#45;&gt;Node8</title>
<g id="a_edge8_Node000007_Node000008"><a xlink:title=" ">
<path fill="none" stroke="#63b8ff" d="M150.81,-140.5C142.14,-140.5 133.42,-140.5 125.03,-140.5"/>
<polygon fill="#63b8ff" stroke="#63b8ff" points="150.94,-144 160.94,-140.5 150.94,-137 150.94,-144"/>
</a>
</g>
</g>
</g>
</svg>
