<?xml version="1.0" encoding="UTF-8" standalone="no"?>
<!DOCTYPE svg PUBLIC "-//W3C//DTD SVG 1.1//EN"
 "http://www.w3.org/Graphics/SVG/1.1/DTD/svg11.dtd">
<!-- Generated by graphviz version 2.43.0 (0)
 -->
<!-- Title: MockCallback Pages: 1 -->
<svg width="135pt" height="215pt"
 viewBox="0.00 0.00 135.00 215.00" xmlns="http://www.w3.org/2000/svg" xmlns:xlink="http://www.w3.org/1999/xlink">
<g id="graph0" class="graph" transform="scale(1 1) rotate(0) translate(4 211)">
<title>MockCallback</title>
<!-- Node1 -->
<g id="Node000001" class="node">
<title>Node1</title>
<g id="a_Node000001"><a xlink:title="Mock class to test callbacks.">
<polygon fill="#999999" stroke="#666666" points="93.5,-19 8.5,-19 8.5,0 93.5,0 93.5,-19"/>
<text text-anchor="middle" x="51" y="-7" font-family="Helvetica,sans-Serif" font-size="10.00">MockCallback</text>
</a>
</g>
</g>
<!-- Node2 -->
<g id="Node000002" class="node">
<title>Node2</title>
<g id="a_Node000002"><a xlink:href="classCallbackInterface.html" target="_top" xlink:title="Interface class to use for callbacks.">
<polygon fill="white" stroke="#666666" points="102,-75 0,-75 0,-56 102,-56 102,-75"/>
<text text-anchor="middle" x="51" y="-63" font-family="Helvetica,sans-Serif" font-size="10.00">CallbackInterface</text>
</a>
</g>
</g>
<!-- Node2&#45;&gt;Node1 -->
<g id="edge1_Node000001_Node000002" class="edge">
<title>Node2&#45;&gt;Node1</title>
<g id="a_edge1_Node000001_Node000002"><a xlink:title=" ">
<path fill="none" stroke="#63b8ff" d="M51,-45.3C51,-36.41 51,-26.28 51,-19.25"/>
<polygon fill="#63b8ff" stroke="#63b8ff" points="47.5,-45.58 51,-55.58 54.5,-45.58 47.5,-45.58"/>
</a>
</g>
</g>
<!-- Node3 -->
<g id="Node000003" class="node">
<title>Node3</title>
<g id="a_Node000003"><a xlink:href="classLogger.html" target="_top" xlink:title="Class to enable simple logging to a Stream object with different log levels This enables embedding pe...">
<polygon fill="white" stroke="#666666" points="76,-141 26,-141 26,-122 76,-122 76,-141"/>
<text text-anchor="middle" x="51" y="-129" font-family="Helvetica,sans-Serif" font-size="10.00">Logger</text>
</a>
</g>
</g>
<!-- Node3&#45;&gt;Node2 -->
<g id="edge2_Node000002_Node000003" class="edge">
<title>Node3&#45;&gt;Node2</title>
<g id="a_edge2_Node000002_Node000003"><a xlink:title=" ">
<path fill="none" stroke="#9a32cd" stroke-dasharray="5,2" d="M51,-111.58C51,-99.63 51,-84.72 51,-75.41"/>
<polygon fill="#9a32cd" stroke="#9a32cd" points="47.5,-111.87 51,-121.87 54.5,-111.87 47.5,-111.87"/>
</a>
</g>
<text text-anchor="middle" x="71" y="-96" font-family="Helvetica,sans-Serif" font-size="10.00" fill="grey"> _logger</text>
</g>
<!-- Node4 -->
<g id="Node000004" class="node">
<title>Node4</title>
<g id="a_Node000004"><a xlink:href="classStream.html" target="_top" xlink:title="Class to mock the basic Stream function equivalent of the Arduino framework.">
<polygon fill="white" stroke="#666666" points="77,-207 25,-207 25,-188 77,-188 77,-207"/>
<text text-anchor="middle" x="51" y="-195" font-family="Helvetica,sans-Serif" font-size="10.00">Stream</text>
</a>
</g>
</g>
<!-- Node4&#45;&gt;Node3 -->
<g id="edge3_Node000003_Node000004" class="edge">
<title>Node4&#45;&gt;Node3</title>
<g id="a_edge3_Node000003_Node000004"><a xlink:title=" ">
<path fill="none" stroke="#9a32cd" stroke-dasharray="5,2" d="M51,-177.58C51,-165.63 51,-150.72 51,-141.41"/>
<polygon fill="#9a32cd" stroke="#9a32cd" points="47.5,-177.87 51,-187.87 54.5,-177.87 47.5,-177.87"/>
</a>
</g>
<text text-anchor="middle" x="89" y="-162" font-family="Helvetica,sans-Serif" font-size="10.00" fill="grey"> _outputStream</text>
</g>
</g>
</svg>
