<?xml version="1.0" encoding="UTF-8" standalone="no"?>
<!DOCTYPE svg PUBLIC "-//W3C//DTD SVG 1.1//EN"
 "http://www.w3.org/Graphics/SVG/1.1/DTD/svg11.dtd">
<!-- Generated by graphviz version 2.43.0 (0)
 -->
<!-- Title: DisplayInterface::getCSPin Pages: 1 -->
<svg width="745pt" height="142pt"
 viewBox="0.00 0.00 745.00 142.00" xmlns="http://www.w3.org/2000/svg" xmlns:xlink="http://www.w3.org/1999/xlink">
<g id="graph0" class="graph" transform="scale(1 1) rotate(0) translate(4 138)">
<title>DisplayInterface::getCSPin</title>
<polygon fill="white" stroke="transparent" points="-4,4 -4,-138 741,-138 741,4 -4,4"/>
<!-- Node1 -->
<g id="node1" class="node">
<title>Node1</title>
<g id="a_node1"><a xlink:title="Get the defined CS pin for this display to see if it needs manual SPI switching.">
<polygon fill="#bfbfbf" stroke="black" points="591,-44.5 591,-63.5 737,-63.5 737,-44.5 591,-44.5"/>
<text text-anchor="middle" x="664" y="-51.5" font-family="Helvetica,sans-Serif" font-size="10.00">DisplayInterface::getCSPin</text>
</a>
</g>
</g>
<!-- Node2 -->
<g id="node2" class="node">
<title>Node2</title>
<g id="a_node2"><a xlink:href="classDisplayManager.html#ab5225aac5f432dd65258e1d568bde88d" target="_top" xlink:title="Manually deselects SPI displays that require manual selecting via the CS pin &#45; sets pin high.">
<polygon fill="white" stroke="black" points="386.5,-39 386.5,-69 535.5,-69 535.5,-39 386.5,-39"/>
<text text-anchor="start" x="394.5" y="-57" font-family="Helvetica,sans-Serif" font-size="10.00">DisplayManager::_deselect</text>
<text text-anchor="middle" x="461" y="-46" font-family="Helvetica,sans-Serif" font-size="10.00">SPIDisplay</text>
</a>
</g>
</g>
<!-- Node1&#45;&gt;Node2 -->
<g id="edge1" class="edge">
<title>Node1&#45;&gt;Node2</title>
<path fill="none" stroke="midnightblue" d="M580.53,-54C565.67,-54 550.26,-54 535.67,-54"/>
<polygon fill="midnightblue" stroke="midnightblue" points="580.72,-57.5 590.72,-54 580.72,-50.5 580.72,-57.5"/>
</g>
<!-- Node10 -->
<g id="node7" class="node">
<title>Node10</title>
<g id="a_node7"><a xlink:href="test__CompilerCreation_8cpp.html#a484c00ac396e82066ad78a3641a34a4f" target="_top" xlink:title="Ensure devices are created and all attributes are valid.">
<polygon fill="white" stroke="black" points="26,-0.5 26,-19.5 78,-19.5 78,-0.5 26,-0.5"/>
<text text-anchor="middle" x="52" y="-7.5" font-family="Helvetica,sans-Serif" font-size="10.00">TEST_F</text>
</a>
</g>
</g>
<!-- Node1&#45;&gt;Node10 -->
<g id="edge14" class="edge">
<title>Node1&#45;&gt;Node10</title>
<path fill="none" stroke="midnightblue" d="M619.42,-41.93C599.88,-37.03 576.44,-31.86 555,-29 373.46,-4.78 151.96,-7.51 78.22,-9.27"/>
<polygon fill="midnightblue" stroke="midnightblue" points="618.7,-45.36 629.25,-44.45 620.44,-38.58 618.7,-45.36"/>
</g>
<!-- Node15 -->
<g id="node10" class="node">
<title>Node15</title>
<g id="a_node10"><a xlink:href="classDisplayManager.html#abcac9213f163018979f2a226ecf53882" target="_top" xlink:title="Manually selects SPI displays that require manual selecting via the CS pin &#45; sets pin low.">
<polygon fill="white" stroke="black" points="367,-88.5 367,-107.5 555,-107.5 555,-88.5 367,-88.5"/>
<text text-anchor="middle" x="461" y="-95.5" font-family="Helvetica,sans-Serif" font-size="10.00">DisplayManager::_selectSPIDisplay</text>
</a>
</g>
</g>
<!-- Node1&#45;&gt;Node15 -->
<g id="edge10" class="edge">
<title>Node1&#45;&gt;Node15</title>
<path fill="none" stroke="midnightblue" d="M610.35,-65.77C592.76,-69.69 573.04,-74.06 555,-78 539.19,-81.46 521.85,-85.2 506.48,-88.5"/>
<polygon fill="midnightblue" stroke="midnightblue" points="611.44,-69.12 620.44,-63.53 609.92,-62.29 611.44,-69.12"/>
</g>
<!-- Node3 -->
<g id="node3" class="node">
<title>Node3</title>
<g id="a_node3"><a xlink:href="classDisplayManager.html#aa0e0e26134a34beeb30e27c00b8e829f" target="_top" xlink:title="Calls the displayStartupInfo of all Display instances to display the version.">
<polygon fill="white" stroke="black" points="140,-76.5 140,-95.5 331,-95.5 331,-76.5 140,-76.5"/>
<text text-anchor="middle" x="235.5" y="-83.5" font-family="Helvetica,sans-Serif" font-size="10.00">DisplayManager::displayStartupInfo</text>
</a>
</g>
</g>
<!-- Node2&#45;&gt;Node3 -->
<g id="edge2" class="edge">
<title>Node2&#45;&gt;Node3</title>
<path fill="none" stroke="midnightblue" d="M376,-66.03C351.9,-69.48 325.96,-73.19 303.06,-76.47"/>
<polygon fill="midnightblue" stroke="midnightblue" points="376.8,-69.45 386.2,-64.57 375.8,-62.52 376.8,-69.45"/>
</g>
<!-- Node9 -->
<g id="node6" class="node">
<title>Node9</title>
<g id="a_node6"><a xlink:href="classDisplayManager.html#a270daf83b6af22558fde42034254b351" target="_top" xlink:title="Call the begin() method for all associated Display instances.">
<polygon fill="white" stroke="black" points="152,-38.5 152,-57.5 319,-57.5 319,-38.5 152,-38.5"/>
<text text-anchor="middle" x="235.5" y="-45.5" font-family="Helvetica,sans-Serif" font-size="10.00">DisplayManager::startDisplays</text>
</a>
</g>
</g>
<!-- Node2&#45;&gt;Node9 -->
<g id="edge5" class="edge">
<title>Node2&#45;&gt;Node9</title>
<path fill="none" stroke="midnightblue" d="M375.98,-51.74C357.37,-51.24 337.66,-50.72 319.1,-50.22"/>
<polygon fill="midnightblue" stroke="midnightblue" points="376.11,-55.25 386.2,-52.02 376.3,-48.25 376.11,-55.25"/>
</g>
<!-- Node11 -->
<g id="node8" class="node">
<title>Node11</title>
<g id="a_node8"><a xlink:href="classDisplayManager.html#ad53dcac2e939893727d27187524733c6" target="_top" xlink:title="Call this routinely to ensure all displays are updated with screens.">
<polygon fill="white" stroke="black" points="167.5,-114.5 167.5,-133.5 303.5,-133.5 303.5,-114.5 167.5,-114.5"/>
<text text-anchor="middle" x="235.5" y="-121.5" font-family="Helvetica,sans-Serif" font-size="10.00">DisplayManager::update</text>
</a>
</g>
</g>
<!-- Node2&#45;&gt;Node11 -->
<g id="edge8" class="edge">
<title>Node2&#45;&gt;Node11</title>
<path fill="none" stroke="midnightblue" d="M382.64,-72.44C377.27,-74.44 372,-76.62 367,-79 349.18,-87.48 349.09,-97.1 331,-105 322.11,-108.89 312.39,-111.99 302.68,-114.46"/>
<polygon fill="midnightblue" stroke="midnightblue" points="384.11,-75.64 392.4,-69.05 381.81,-69.03 384.11,-75.64"/>
</g>
<!-- Node4 -->
<g id="node4" class="node">
<title>Node4</title>
<g id="a_node4"><a xlink:href="classController.html#a1cc0b87ab9e07d21ab47d294aa5bf607" target="_top" xlink:title="Call once to start displays and input.">
<polygon fill="white" stroke="red" points="3,-38.5 3,-57.5 101,-57.5 101,-38.5 3,-38.5"/>
<text text-anchor="middle" x="52" y="-45.5" font-family="Helvetica,sans-Serif" font-size="10.00">Controller::begin</text>
</a>
</g>
</g>
<!-- Node3&#45;&gt;Node4 -->
<g id="edge3" class="edge">
<title>Node3&#45;&gt;Node4</title>
<path fill="none" stroke="midnightblue" d="M176.43,-74.48C164.38,-72.05 151.77,-69.47 140,-67 125.63,-63.99 109.94,-60.59 95.89,-57.52"/>
<polygon fill="midnightblue" stroke="midnightblue" points="175.9,-77.95 186.39,-76.49 177.28,-71.08 175.9,-77.95"/>
</g>
<!-- Node8 -->
<g id="node5" class="node">
<title>Node8</title>
<g id="a_node5"><a xlink:href="test__DisplayManager_8cpp.html#ad108e01a79b7f75a831a955e93bb9176" target="_top" xlink:title="Validate the displayStartupInfo() method correct calls all display methods.">
<polygon fill="white" stroke="black" points="26,-76.5 26,-95.5 78,-95.5 78,-76.5 26,-76.5"/>
<text text-anchor="middle" x="52" y="-83.5" font-family="Helvetica,sans-Serif" font-size="10.00">TEST_F</text>
</a>
</g>
</g>
<!-- Node3&#45;&gt;Node8 -->
<g id="edge4" class="edge">
<title>Node3&#45;&gt;Node8</title>
<path fill="none" stroke="midnightblue" d="M129.62,-86C110.35,-86 91.94,-86 78.01,-86"/>
<polygon fill="midnightblue" stroke="midnightblue" points="129.76,-89.5 139.76,-86 129.76,-82.5 129.76,-89.5"/>
</g>
<!-- Node9&#45;&gt;Node4 -->
<g id="edge6" class="edge">
<title>Node9&#45;&gt;Node4</title>
<path fill="none" stroke="midnightblue" d="M141.75,-48C127.68,-48 113.68,-48 101.1,-48"/>
<polygon fill="midnightblue" stroke="midnightblue" points="141.98,-51.5 151.98,-48 141.98,-44.5 141.98,-51.5"/>
</g>
<!-- Node9&#45;&gt;Node10 -->
<g id="edge7" class="edge">
<title>Node9&#45;&gt;Node10</title>
<path fill="none" stroke="midnightblue" d="M178.54,-36.28C144.96,-29.25 103.89,-20.66 78.08,-15.25"/>
<polygon fill="midnightblue" stroke="midnightblue" points="178.19,-39.79 188.7,-38.41 179.63,-32.94 178.19,-39.79"/>
</g>
<!-- Node12 -->
<g id="node9" class="node">
<title>Node12</title>
<g id="a_node9"><a xlink:href="classController.html#a7d04c17913f04f99429aa29fa8505484" target="_top" xlink:title="Processes all ongoing activities, monitoring streams, receiving user input, updates displays,...">
<polygon fill="white" stroke="red" points="0,-114.5 0,-133.5 104,-133.5 104,-114.5 0,-114.5"/>
<text text-anchor="middle" x="52" y="-121.5" font-family="Helvetica,sans-Serif" font-size="10.00">Controller::update</text>
</a>
</g>
</g>
<!-- Node11&#45;&gt;Node12 -->
<g id="edge9" class="edge">
<title>Node11&#45;&gt;Node12</title>
<path fill="none" stroke="midnightblue" d="M157.27,-124C139.33,-124 120.68,-124 104.19,-124"/>
<polygon fill="midnightblue" stroke="midnightblue" points="157.43,-127.5 167.43,-124 157.43,-120.5 157.43,-127.5"/>
</g>
<!-- Node15&#45;&gt;Node3 -->
<g id="edge11" class="edge">
<title>Node15&#45;&gt;Node3</title>
<path fill="none" stroke="midnightblue" d="M356.6,-92.45C348.17,-92 339.68,-91.54 331.31,-91.09"/>
<polygon fill="midnightblue" stroke="midnightblue" points="356.66,-95.96 366.83,-93 357.04,-88.97 356.66,-95.96"/>
</g>
<!-- Node15&#45;&gt;Node9 -->
<g id="edge12" class="edge">
<title>Node15&#45;&gt;Node9</title>
<path fill="none" stroke="midnightblue" d="M401.97,-86.31C390.34,-83.75 378.25,-80.92 367,-78 350.81,-73.79 347.22,-71.1 331,-67 317.37,-63.56 302.51,-60.33 288.7,-57.54"/>
<polygon fill="midnightblue" stroke="midnightblue" points="401.51,-89.8 412.03,-88.49 403,-82.96 401.51,-89.8"/>
</g>
<!-- Node15&#45;&gt;Node11 -->
<g id="edge13" class="edge">
<title>Node15&#45;&gt;Node11</title>
<path fill="none" stroke="midnightblue" d="M367.93,-108.71C346.45,-111.21 323.97,-113.82 303.79,-116.17"/>
<polygon fill="midnightblue" stroke="midnightblue" points="368.52,-112.17 378.05,-107.53 367.71,-105.21 368.52,-112.17"/>
</g>
</g>
</svg>
