<?xml version="1.0" encoding="UTF-8" standalone="no"?>
<!DOCTYPE svg PUBLIC "-//W3C//DTD SVG 1.1//EN"
 "http://www.w3.org/Graphics/SVG/1.1/DTD/svg11.dtd">
<!-- Generated by graphviz version 2.43.0 (0)
 -->
<!-- Title: TFT_eSPITouch::begin Pages: 1 -->
<svg width="911pt" height="356pt"
 viewBox="0.00 0.00 911.00 356.00" xmlns="http://www.w3.org/2000/svg" xmlns:xlink="http://www.w3.org/1999/xlink">
<g id="graph0" class="graph" transform="scale(1 1) rotate(0) translate(4 352)">
<title>TFT_eSPITouch::begin</title>
<polygon fill="white" stroke="transparent" points="-4,4 -4,-352 907,-352 907,4 -4,4"/>
<!-- Node1 -->
<g id="node1" class="node">
<title>Node1</title>
<g id="a_node1"><a xlink:title="Perform any initial once off setup or configuration here and call only once.">
<polygon fill="#bfbfbf" stroke="black" points="0,-164.5 0,-183.5 121,-183.5 121,-164.5 0,-164.5"/>
<text text-anchor="middle" x="60.5" y="-171.5" font-family="Helvetica,sans-Serif" font-size="10.00">TFT_eSPITouch::begin</text>
</a>
</g>
</g>
<!-- Node2 -->
<g id="node2" class="node">
<title>Node2</title>
<g id="a_node2"><a xlink:href="classTFT__eSPITouch.html#a30285f08f51221839e884ccdd9679105" target="_top" xlink:title="Test if valid calibration data is available for this touch interface.">
<polygon fill="white" stroke="black" points="177,-328.5 177,-347.5 325,-347.5 325,-328.5 177,-328.5"/>
<text text-anchor="middle" x="251" y="-335.5" font-family="Helvetica,sans-Serif" font-size="10.00">TFT_eSPITouch::_calibrated</text>
</a>
</g>
</g>
<!-- Node1&#45;&gt;Node2 -->
<g id="edge1" class="edge">
<title>Node1&#45;&gt;Node2</title>
<path fill="none" stroke="midnightblue" d="M65.18,-183.58C75.48,-209.06 107.16,-278.99 157,-314 163.33,-318.45 170.42,-322.07 177.79,-325.02"/>
<polygon fill="midnightblue" stroke="midnightblue" points="176.64,-328.33 187.24,-328.42 179.01,-321.74 176.64,-328.33"/>
</g>
<!-- Node3 -->
<g id="node3" class="node">
<title>Node3</title>
<g id="a_node3"><a xlink:href="classTFT__eSPITouch.html#ad71507c11a328924064e703daef05ada" target="_top" xlink:title="Display calibration error on screen and pause for 5 seconds.">
<polygon fill="white" stroke="black" points="157,-241 157,-271 345,-271 345,-241 157,-241"/>
<text text-anchor="start" x="165" y="-259" font-family="Helvetica,sans-Serif" font-size="10.00">TFT_eSPITouch::_displayCalibration</text>
<text text-anchor="middle" x="251" y="-248" font-family="Helvetica,sans-Serif" font-size="10.00">Error</text>
</a>
</g>
</g>
<!-- Node1&#45;&gt;Node3 -->
<g id="edge2" class="edge">
<title>Node1&#45;&gt;Node3</title>
<path fill="none" stroke="midnightblue" d="M74.79,-183.55C92.68,-196.03 125.88,-217.83 157,-231 162.76,-233.44 168.82,-235.7 174.97,-237.78"/>
<polygon fill="midnightblue" stroke="midnightblue" points="174.1,-241.17 184.69,-240.9 176.24,-234.51 174.1,-241.17"/>
</g>
<!-- Node4 -->
<g id="node4" class="node">
<title>Node4</title>
<g id="a_node4"><a xlink:href="classTFT__eSPIDisplay.html#af7bbb772e597d3431656ccd32d73bdf5" target="_top" xlink:title="Clear the entire screen.">
<polygon fill="white" stroke="black" points="381,-290.5 381,-309.5 540,-309.5 540,-290.5 381,-290.5"/>
<text text-anchor="middle" x="460.5" y="-297.5" font-family="Helvetica,sans-Serif" font-size="10.00">TFT_eSPIDisplay::clearScreen</text>
</a>
</g>
</g>
<!-- Node1&#45;&gt;Node4 -->
<g id="edge16" class="edge">
<title>Node1&#45;&gt;Node4</title>
<path fill="none" stroke="midnightblue" d="M66.6,-183.66C78.79,-205.64 111.99,-259.12 157,-281 228.88,-315.94 321.94,-316.11 385.75,-310.47"/>
<polygon fill="midnightblue" stroke="midnightblue" points="386.11,-313.95 395.73,-309.52 385.45,-306.98 386.11,-313.95"/>
</g>
<!-- Node9 -->
<g id="node9" class="node">
<title>Node9</title>
<g id="a_node9"><a xlink:href="classTFT__eSPITouch.html#a68e426669d88922d6c9e761b53558257" target="_top" xlink:title="Run the TFT_eSPI calibration sequence.">
<polygon fill="white" stroke="black" points="169,-202.5 169,-221.5 333,-221.5 333,-202.5 169,-202.5"/>
<text text-anchor="middle" x="251" y="-209.5" font-family="Helvetica,sans-Serif" font-size="10.00">TFT_eSPITouch::_doCalibration</text>
</a>
</g>
</g>
<!-- Node1&#45;&gt;Node9 -->
<g id="edge9" class="edge">
<title>Node1&#45;&gt;Node9</title>
<path fill="none" stroke="midnightblue" d="M109.07,-183.59C134.5,-188.72 166,-195.07 192.77,-200.46"/>
<polygon fill="midnightblue" stroke="midnightblue" points="192.28,-203.93 202.78,-202.48 193.66,-197.07 192.28,-203.93"/>
</g>
<!-- Node10 -->
<g id="node10" class="node">
<title>Node10</title>
<g id="a_node10"><a xlink:href="classTFT__eSPITouch.html#a06e34fd9e1c12e99c40070bdb5fc1779" target="_top" xlink:title="Ensure SPIFFS filesystem is up and running.">
<polygon fill="white" stroke="black" points="172,-164.5 172,-183.5 330,-183.5 330,-164.5 172,-164.5"/>
<text text-anchor="middle" x="251" y="-171.5" font-family="Helvetica,sans-Serif" font-size="10.00">TFT_eSPITouch::_setupSPIFFS</text>
</a>
</g>
</g>
<!-- Node1&#45;&gt;Node10 -->
<g id="edge10" class="edge">
<title>Node1&#45;&gt;Node10</title>
<path fill="none" stroke="midnightblue" d="M121.14,-174C133.95,-174 147.75,-174 161.38,-174"/>
<polygon fill="midnightblue" stroke="midnightblue" points="161.76,-177.5 171.76,-174 161.76,-170.5 161.76,-177.5"/>
</g>
<!-- Node36 -->
<g id="node15" class="node">
<title>Node36</title>
<g id="a_node15"><a xlink:href="classTFT__eSPIDisplay.html#ab7db81e0c696ad849833528a4e1212df" target="_top" xlink:title="Perform any initial once off setup or configuration here and call only once.">
<polygon fill="white" stroke="black" points="186.5,-126.5 186.5,-145.5 315.5,-145.5 315.5,-126.5 186.5,-126.5"/>
<text text-anchor="middle" x="251" y="-133.5" font-family="Helvetica,sans-Serif" font-size="10.00">TFT_eSPIDisplay::begin</text>
</a>
</g>
</g>
<!-- Node1&#45;&gt;Node36 -->
<g id="edge15" class="edge">
<title>Node1&#45;&gt;Node36</title>
<path fill="none" stroke="midnightblue" d="M109.07,-164.41C134.5,-159.28 166,-152.93 192.77,-147.54"/>
<polygon fill="midnightblue" stroke="midnightblue" points="193.66,-150.93 202.78,-145.52 192.28,-144.07 193.66,-150.93"/>
</g>
<!-- Node32 -->
<g id="node16" class="node">
<title>Node32</title>
<g id="a_node16"><a xlink:href="classDisplayInterface.html#a3649a768b8ca59c3070f56aed1fe42c2" target="_top" xlink:title="Get the ID of this display instance.">
<polygon fill="white" stroke="black" points="187,-88.5 187,-107.5 315,-107.5 315,-88.5 187,-88.5"/>
<text text-anchor="middle" x="251" y="-95.5" font-family="Helvetica,sans-Serif" font-size="10.00">DisplayInterface::getId</text>
</a>
</g>
</g>
<!-- Node1&#45;&gt;Node32 -->
<g id="edge17" class="edge">
<title>Node1&#45;&gt;Node32</title>
<path fill="none" stroke="midnightblue" d="M74.37,-164.38C92.06,-151.62 125.31,-129.28 157,-117 163.76,-114.38 170.94,-112.1 178.21,-110.12"/>
<polygon fill="midnightblue" stroke="midnightblue" points="179.29,-113.45 188.13,-107.6 177.57,-106.67 179.29,-113.45"/>
</g>
<!-- Node37 -->
<g id="node17" class="node">
<title>Node37</title>
<g id="a_node17"><a xlink:href="classTFT__eSPIDisplay.html#ab3084ef6b927bc9dbc0991088dda2c6c" target="_top" xlink:title="Get the TFT_eSPI instance created by this instance &#45; needed for the touch interface.">
<polygon fill="white" stroke="black" points="183.5,-39 183.5,-69 318.5,-69 318.5,-39 183.5,-39"/>
<text text-anchor="start" x="191.5" y="-57" font-family="Helvetica,sans-Serif" font-size="10.00">TFT_eSPIDisplay::getTFT</text>
<text text-anchor="middle" x="251" y="-46" font-family="Helvetica,sans-Serif" font-size="10.00">_eSPIInstance</text>
</a>
</g>
</g>
<!-- Node1&#45;&gt;Node37 -->
<g id="edge18" class="edge">
<title>Node1&#45;&gt;Node37</title>
<path fill="none" stroke="midnightblue" d="M68.45,-164.27C82.76,-144.97 117.49,-101.77 157,-79 162.2,-76.01 167.76,-73.36 173.49,-71.02"/>
<polygon fill="midnightblue" stroke="midnightblue" points="175.12,-74.15 183.26,-67.38 172.67,-67.6 175.12,-74.15"/>
</g>
<!-- Node38 -->
<g id="node18" class="node">
<title>Node38</title>
<g id="a_node18"><a xlink:href="classTFT__eSPIDisplay.html#ad4f7da2ea80e0fd0206c84f4a787bfb2" target="_top" xlink:title="Test if the TFT_eSPI instance has been initialised &#45; needed for the touch interface.">
<polygon fill="white" stroke="black" points="170.5,-0.5 170.5,-19.5 331.5,-19.5 331.5,-0.5 170.5,-0.5"/>
<text text-anchor="middle" x="251" y="-7.5" font-family="Helvetica,sans-Serif" font-size="10.00">TFT_eSPIDisplay::tftInitialised</text>
</a>
</g>
</g>
<!-- Node1&#45;&gt;Node38 -->
<g id="edge19" class="edge">
<title>Node1&#45;&gt;Node38</title>
<path fill="none" stroke="midnightblue" d="M64.84,-164.32C74.48,-137.9 105.08,-64.14 157,-29 159.96,-27 163.08,-25.2 166.31,-23.59"/>
<polygon fill="midnightblue" stroke="midnightblue" points="167.93,-26.7 175.7,-19.5 165.14,-20.28 167.93,-26.7"/>
</g>
<!-- Node3&#45;&gt;Node4 -->
<g id="edge3" class="edge">
<title>Node3&#45;&gt;Node4</title>
<path fill="none" stroke="midnightblue" d="M322.83,-271.02C349.55,-276.69 379.53,-283.04 404.59,-288.36"/>
<polygon fill="midnightblue" stroke="midnightblue" points="404.13,-291.84 414.64,-290.49 405.58,-284.99 404.13,-291.84"/>
</g>
<!-- Node5 -->
<g id="node5" class="node">
<title>Node5</title>
<g id="a_node5"><a xlink:href="Arduino_8h.html#a6bc5f943544a887f8b23cadfb26a5e30" target="_top" xlink:title=" ">
<polygon fill="white" stroke="black" points="438.5,-252.5 438.5,-271.5 482.5,-271.5 482.5,-252.5 438.5,-252.5"/>
<text text-anchor="middle" x="460.5" y="-259.5" font-family="Helvetica,sans-Serif" font-size="10.00">delay</text>
</a>
</g>
</g>
<!-- Node3&#45;&gt;Node5 -->
<g id="edge4" class="edge">
<title>Node3&#45;&gt;Node5</title>
<path fill="none" stroke="midnightblue" d="M345.13,-258.69C374.94,-259.55 405.94,-260.45 428.13,-261.09"/>
<polygon fill="midnightblue" stroke="midnightblue" points="428.17,-264.6 438.27,-261.39 428.38,-257.6 428.17,-264.6"/>
</g>
<!-- Node6 -->
<g id="node6" class="node">
<title>Node6</title>
<g id="a_node6"><a xlink:href="classTFT__eSPIDisplay.html#a89e4a05e804059583a6d07f2efadc839" target="_top" xlink:title="Display a row of text on the display.">
<polygon fill="white" stroke="black" points="381.5,-214.5 381.5,-233.5 539.5,-233.5 539.5,-214.5 381.5,-214.5"/>
<text text-anchor="middle" x="460.5" y="-221.5" font-family="Helvetica,sans-Serif" font-size="10.00">TFT_eSPIDisplay::displayRow</text>
</a>
</g>
</g>
<!-- Node3&#45;&gt;Node6 -->
<g id="edge5" class="edge">
<title>Node3&#45;&gt;Node6</title>
<path fill="none" stroke="midnightblue" d="M345.13,-241.64C359.29,-239.45 373.73,-237.23 387.36,-235.13"/>
<polygon fill="midnightblue" stroke="midnightblue" points="388.25,-238.53 397.6,-233.55 387.19,-231.61 388.25,-238.53"/>
</g>
<!-- Node7 -->
<g id="node7" class="node">
<title>Node7</title>
<g id="a_node7"><a xlink:href="classTFT__eSPIDisplay.html#afcbf3673396a684fd540bc75214719a3" target="_top" xlink:title="Get the X/Y coordinates to draw the specified row, starting at the specified column.">
<polygon fill="white" stroke="black" points="759,-228 759,-258 903,-258 903,-228 759,-228"/>
<text text-anchor="start" x="767" y="-246" font-family="Helvetica,sans-Serif" font-size="10.00">TFT_eSPIDisplay::_getRow</text>
<text text-anchor="middle" x="831" y="-235" font-family="Helvetica,sans-Serif" font-size="10.00">Position</text>
</a>
</g>
</g>
<!-- Node6&#45;&gt;Node7 -->
<g id="edge6" class="edge">
<title>Node6&#45;&gt;Node7</title>
<path fill="none" stroke="midnightblue" d="M508.08,-233.51C528.78,-237.28 553.51,-241.15 576,-243 633.66,-247.75 698.94,-247.63 748.88,-246.39"/>
<polygon fill="midnightblue" stroke="midnightblue" points="749.08,-249.88 758.98,-246.12 748.89,-242.89 749.08,-249.88"/>
</g>
<!-- Node8 -->
<g id="node8" class="node">
<title>Node8</title>
<g id="a_node8"><a xlink:href="classTFT__eSPIDisplay.html#aac207d0a3d33da4ad5989d1f63d87a9f" target="_top" xlink:title="Clear the specified row.">
<polygon fill="white" stroke="black" points="576,-214.5 576,-233.5 723,-233.5 723,-214.5 576,-214.5"/>
<text text-anchor="middle" x="649.5" y="-221.5" font-family="Helvetica,sans-Serif" font-size="10.00">TFT_eSPIDisplay::clearRow</text>
</a>
</g>
</g>
<!-- Node6&#45;&gt;Node8 -->
<g id="edge7" class="edge">
<title>Node6&#45;&gt;Node8</title>
<path fill="none" stroke="midnightblue" d="M539.72,-224C548.35,-224 557.16,-224 565.85,-224"/>
<polygon fill="midnightblue" stroke="midnightblue" points="565.97,-227.5 575.97,-224 565.97,-220.5 565.97,-227.5"/>
</g>
<!-- Node8&#45;&gt;Node7 -->
<g id="edge8" class="edge">
<title>Node8&#45;&gt;Node7</title>
<path fill="none" stroke="midnightblue" d="M723.25,-231.7C731.7,-232.6 740.36,-233.51 748.92,-234.42"/>
<polygon fill="midnightblue" stroke="midnightblue" points="748.58,-237.9 758.89,-235.47 749.32,-230.94 748.58,-237.9"/>
</g>
<!-- Node11 -->
<g id="node11" class="node">
<title>Node11</title>
<g id="a_node11"><a xlink:href="EX-Display_8ino.html#a4fc01d736fe50cf5b977f755b675f11d" target="_top" xlink:title="Main setup method, initialise Configurator here.">
<polygon fill="white" stroke="black" points="438.5,-151.5 438.5,-170.5 482.5,-170.5 482.5,-151.5 438.5,-151.5"/>
<text text-anchor="middle" x="460.5" y="-158.5" font-family="Helvetica,sans-Serif" font-size="10.00">setup</text>
</a>
</g>
</g>
<!-- Node10&#45;&gt;Node11 -->
<g id="edge11" class="edge">
<title>Node10&#45;&gt;Node11</title>
<path fill="none" stroke="midnightblue" d="M330.15,-169.1C364.28,-166.97 402.35,-164.58 428.3,-162.95"/>
<polygon fill="midnightblue" stroke="midnightblue" points="428.53,-166.45 438.29,-162.33 428.09,-159.46 428.53,-166.45"/>
</g>
<!-- Node12 -->
<g id="node12" class="node">
<title>Node12</title>
<g id="a_node12"><a xlink:href="classController.html#a1cc0b87ab9e07d21ab47d294aa5bf607" target="_top" xlink:title="Call once to start displays and input.">
<polygon fill="white" stroke="red" points="600.5,-176.5 600.5,-195.5 698.5,-195.5 698.5,-176.5 600.5,-176.5"/>
<text text-anchor="middle" x="649.5" y="-183.5" font-family="Helvetica,sans-Serif" font-size="10.00">Controller::begin</text>
</a>
</g>
</g>
<!-- Node11&#45;&gt;Node12 -->
<g id="edge12" class="edge">
<title>Node11&#45;&gt;Node12</title>
<path fill="none" stroke="midnightblue" d="M482.59,-163.82C508.52,-167.29 553.6,-173.31 590.23,-178.21"/>
<polygon fill="midnightblue" stroke="midnightblue" points="589.93,-181.7 600.31,-179.56 590.86,-174.76 589.93,-181.7"/>
</g>
<!-- Node23 -->
<g id="node13" class="node">
<title>Node23</title>
<g id="a_node13"><a xlink:href="classConfigurator.html#a82c65d6d040b717d64520903c788dd79" target="_top" xlink:title="Get the Controller instance for this Configurator.">
<polygon fill="white" stroke="black" points="576.5,-138.5 576.5,-157.5 722.5,-157.5 722.5,-138.5 576.5,-138.5"/>
<text text-anchor="middle" x="649.5" y="-145.5" font-family="Helvetica,sans-Serif" font-size="10.00">Configurator::getController</text>
</a>
</g>
</g>
<!-- Node11&#45;&gt;Node23 -->
<g id="edge13" class="edge">
<title>Node11&#45;&gt;Node23</title>
<path fill="none" stroke="midnightblue" d="M482.59,-159.53C503.01,-158.11 535.31,-155.87 566.01,-153.73"/>
<polygon fill="midnightblue" stroke="midnightblue" points="566.61,-157.2 576.34,-153.02 566.12,-150.22 566.61,-157.2"/>
</g>
<!-- Node24 -->
<g id="node14" class="node">
<title>Node24</title>
<g id="a_node14"><a xlink:href="classConfigurator.html#a25ee5e1b0a64d971232d6ecaaadd5d61" target="_top" xlink:title="Call all one&#45;shot initialisation or begin methods on startup.">
<polygon fill="white" stroke="red" points="587,-100.5 587,-119.5 712,-119.5 712,-100.5 587,-100.5"/>
<text text-anchor="middle" x="649.5" y="-107.5" font-family="Helvetica,sans-Serif" font-size="10.00">Configurator::initialise</text>
</a>
</g>
</g>
<!-- Node11&#45;&gt;Node24 -->
<g id="edge14" class="edge">
<title>Node11&#45;&gt;Node24</title>
<path fill="none" stroke="midnightblue" d="M482.58,-155C505.53,-148.49 543.33,-137.85 576,-129 584.31,-126.75 593.16,-124.4 601.72,-122.14"/>
<polygon fill="midnightblue" stroke="midnightblue" points="602.8,-125.47 611.59,-119.55 601.03,-118.7 602.8,-125.47"/>
</g>
</g>
</svg>
