<?xml version="1.0" encoding="UTF-8" standalone="no"?>
<!DOCTYPE svg PUBLIC "-//W3C//DTD SVG 1.1//EN"
 "http://www.w3.org/Graphics/SVG/1.1/DTD/svg11.dtd">
<!-- Generated by graphviz version 2.43.0 (0)
 -->
<!-- Title: Controller::begin Pages: 1 -->
<svg width="739pt" height="154pt"
 viewBox="0.00 0.00 739.00 153.50" xmlns="http://www.w3.org/2000/svg" xmlns:xlink="http://www.w3.org/1999/xlink">
<g id="graph0" class="graph" transform="scale(1 1) rotate(0) translate(4 149.5)">
<title>Controller::begin</title>
<polygon fill="white" stroke="transparent" points="-4,4 -4,-149.5 735,-149.5 735,4 -4,4"/>
<!-- Node1 -->
<g id="node1" class="node">
<title>Node1</title>
<g id="a_node1"><a xlink:title="Call once to start displays and input.">
<polygon fill="#bfbfbf" stroke="black" points="0,-38.5 0,-57.5 98,-57.5 98,-38.5 0,-38.5"/>
<text text-anchor="middle" x="49" y="-45.5" font-family="Helvetica,sans-Serif" font-size="10.00">Controller::begin</text>
</a>
</g>
</g>
<!-- Node2 -->
<g id="node2" class="node">
<title>Node2</title>
<g id="a_node2"><a xlink:href="classDisplayManager.html#aa0e0e26134a34beeb30e27c00b8e829f" target="_top" xlink:title="Calls the displayStartupInfo of all Display instances to display the version.">
<polygon fill="white" stroke="black" points="134,-38.5 134,-57.5 325,-57.5 325,-38.5 134,-38.5"/>
<text text-anchor="middle" x="229.5" y="-45.5" font-family="Helvetica,sans-Serif" font-size="10.00">DisplayManager::displayStartupInfo</text>
</a>
</g>
</g>
<!-- Node1&#45;&gt;Node2 -->
<g id="edge1" class="edge">
<title>Node1&#45;&gt;Node2</title>
<path fill="none" stroke="midnightblue" d="M98.3,-48C106.33,-48 114.92,-48 123.72,-48"/>
<polygon fill="midnightblue" stroke="midnightblue" points="123.72,-51.5 133.72,-48 123.72,-44.5 123.72,-51.5"/>
</g>
<!-- Node9 -->
<g id="node8" class="node">
<title>Node9</title>
<g id="a_node8"><a xlink:href="classDisplayManager.html#a270daf83b6af22558fde42034254b351" target="_top" xlink:title="Call the begin() method for all associated Display instances.">
<polygon fill="white" stroke="black" points="146,-76.5 146,-95.5 313,-95.5 313,-76.5 146,-76.5"/>
<text text-anchor="middle" x="229.5" y="-83.5" font-family="Helvetica,sans-Serif" font-size="10.00">DisplayManager::startDisplays</text>
</a>
</g>
</g>
<!-- Node1&#45;&gt;Node9 -->
<g id="edge9" class="edge">
<title>Node1&#45;&gt;Node9</title>
<path fill="none" stroke="midnightblue" d="M91.4,-57.57C104.96,-60.65 120.11,-64.03 134,-67 145.63,-69.49 158.1,-72.06 170.03,-74.47"/>
<polygon fill="midnightblue" stroke="midnightblue" points="169.4,-77.92 179.89,-76.46 170.78,-71.05 169.4,-77.92"/>
</g>
<!-- Node10 -->
<g id="node9" class="node">
<title>Node10</title>
<g id="a_node9"><a xlink:href="classInputManager.html#aa180ec01ef4c17f0f9a3d681dc99817c" target="_top" xlink:title="Start the configured input &#45; calls the InputInterface::begin() method.">
<polygon fill="white" stroke="black" points="161,-0.5 161,-19.5 298,-19.5 298,-0.5 161,-0.5"/>
<text text-anchor="middle" x="229.5" y="-7.5" font-family="Helvetica,sans-Serif" font-size="10.00">InputManager::startInput</text>
</a>
</g>
</g>
<!-- Node1&#45;&gt;Node10 -->
<g id="edge13" class="edge">
<title>Node1&#45;&gt;Node10</title>
<path fill="none" stroke="midnightblue" d="M91.4,-38.43C104.96,-35.35 120.11,-31.97 134,-29 145.63,-26.51 158.1,-23.94 170.03,-21.53"/>
<polygon fill="midnightblue" stroke="midnightblue" points="170.78,-24.95 179.89,-19.54 169.4,-18.08 170.78,-24.95"/>
</g>
<!-- Node3 -->
<g id="node3" class="node">
<title>Node3</title>
<g id="a_node3"><a xlink:href="classDisplayManager.html#ab5225aac5f432dd65258e1d568bde88d" target="_top" xlink:title="Manually deselects SPI displays that require manual selecting via the CS pin &#45; sets pin high.">
<polygon fill="white" stroke="black" points="380.5,-115 380.5,-145 529.5,-145 529.5,-115 380.5,-115"/>
<text text-anchor="start" x="388.5" y="-133" font-family="Helvetica,sans-Serif" font-size="10.00">DisplayManager::_deselect</text>
<text text-anchor="middle" x="455" y="-122" font-family="Helvetica,sans-Serif" font-size="10.00">SPIDisplay</text>
</a>
</g>
</g>
<!-- Node2&#45;&gt;Node3 -->
<g id="edge2" class="edge">
<title>Node2&#45;&gt;Node3</title>
<path fill="none" stroke="midnightblue" d="M302.36,-57.54C310.26,-60.01 317.97,-63.11 325,-67 345.36,-78.26 341.02,-93.09 361,-105 364.64,-107.17 368.46,-109.15 372.4,-110.96"/>
<polygon fill="midnightblue" stroke="midnightblue" points="371.21,-114.26 381.78,-114.9 373.91,-107.8 371.21,-114.26"/>
</g>
<!-- Node7 -->
<g id="node6" class="node">
<title>Node7</title>
<g id="a_node6"><a xlink:href="classDisplayManager.html#abcac9213f163018979f2a226ecf53882" target="_top" xlink:title="Manually selects SPI displays that require manual selecting via the CS pin &#45; sets pin low.">
<polygon fill="white" stroke="black" points="361,-76.5 361,-95.5 549,-95.5 549,-76.5 361,-76.5"/>
<text text-anchor="middle" x="455" y="-83.5" font-family="Helvetica,sans-Serif" font-size="10.00">DisplayManager::_selectSPIDisplay</text>
</a>
</g>
</g>
<!-- Node2&#45;&gt;Node7 -->
<g id="edge5" class="edge">
<title>Node2&#45;&gt;Node7</title>
<path fill="none" stroke="midnightblue" d="M286.61,-57.54C317.3,-62.76 355.5,-69.25 387.66,-74.72"/>
<polygon fill="midnightblue" stroke="midnightblue" points="387.42,-78.23 397.87,-76.46 388.6,-71.33 387.42,-78.23"/>
</g>
<!-- Node8 -->
<g id="node7" class="node">
<title>Node8</title>
<g id="a_node7"><a xlink:href="classDisplayInterface.html#aa869afa166e1d7f231549e3b93f7bef5" target="_top" xlink:title="Get the next DisplayInterface derived instance in the list.">
<polygon fill="white" stroke="black" points="384,-38.5 384,-57.5 526,-57.5 526,-38.5 384,-38.5"/>
<text text-anchor="middle" x="455" y="-45.5" font-family="Helvetica,sans-Serif" font-size="10.00">DisplayInterface::getNext</text>
</a>
</g>
</g>
<!-- Node2&#45;&gt;Node8 -->
<g id="edge8" class="edge">
<title>Node2&#45;&gt;Node8</title>
<path fill="none" stroke="midnightblue" d="M325.28,-48C341.39,-48 357.97,-48 373.66,-48"/>
<polygon fill="midnightblue" stroke="midnightblue" points="373.82,-51.5 383.82,-48 373.82,-44.5 373.82,-51.5"/>
</g>
<!-- Node4 -->
<g id="node4" class="node">
<title>Node4</title>
<g id="a_node4"><a xlink:href="Arduino_8h.html#ae9647a9a056bb33fd1206da70c83bde3" target="_top" xlink:title=" ">
<polygon fill="white" stroke="red" points="621,-118.5 621,-137.5 695,-137.5 695,-118.5 621,-118.5"/>
<text text-anchor="middle" x="658" y="-125.5" font-family="Helvetica,sans-Serif" font-size="10.00">digitalWrite</text>
</a>
</g>
</g>
<!-- Node3&#45;&gt;Node4 -->
<g id="edge3" class="edge">
<title>Node3&#45;&gt;Node4</title>
<path fill="none" stroke="midnightblue" d="M529.7,-129.27C556.74,-129 586.56,-128.7 610.55,-128.46"/>
<polygon fill="midnightblue" stroke="midnightblue" points="610.82,-131.96 620.78,-128.36 610.75,-124.96 610.82,-131.96"/>
</g>
<!-- Node6 -->
<g id="node5" class="node">
<title>Node6</title>
<g id="a_node5"><a xlink:href="classDisplayInterface.html#a99f118df7933707f23506e6c4138c8ac" target="_top" xlink:title="Get the defined CS pin for this display to see if it needs manual SPI switching.">
<polygon fill="white" stroke="black" points="585,-79.5 585,-98.5 731,-98.5 731,-79.5 585,-79.5"/>
<text text-anchor="middle" x="658" y="-86.5" font-family="Helvetica,sans-Serif" font-size="10.00">DisplayInterface::getCSPin</text>
</a>
</g>
</g>
<!-- Node3&#45;&gt;Node6 -->
<g id="edge4" class="edge">
<title>Node3&#45;&gt;Node6</title>
<path fill="none" stroke="midnightblue" d="M529.7,-114.97C553.02,-110.21 578.42,-105.03 600.35,-100.56"/>
<polygon fill="midnightblue" stroke="midnightblue" points="601.06,-103.98 610.16,-98.55 599.66,-97.12 601.06,-103.98"/>
</g>
<!-- Node7&#45;&gt;Node4 -->
<g id="edge6" class="edge">
<title>Node7&#45;&gt;Node4</title>
<path fill="none" stroke="midnightblue" d="M501.61,-95.53C534.36,-102.37 578.33,-111.56 611.14,-118.42"/>
<polygon fill="midnightblue" stroke="midnightblue" points="610.43,-121.84 620.93,-120.46 611.86,-114.99 610.43,-121.84"/>
</g>
<!-- Node7&#45;&gt;Node6 -->
<g id="edge7" class="edge">
<title>Node7&#45;&gt;Node6</title>
<path fill="none" stroke="midnightblue" d="M549.15,-87.39C557.69,-87.52 566.3,-87.65 574.74,-87.77"/>
<polygon fill="midnightblue" stroke="midnightblue" points="574.87,-91.27 584.92,-87.92 574.97,-84.28 574.87,-91.27"/>
</g>
<!-- Node9&#45;&gt;Node3 -->
<g id="edge10" class="edge">
<title>Node9&#45;&gt;Node3</title>
<path fill="none" stroke="midnightblue" d="M279,-95.55C305.64,-100.79 339.44,-107.45 370.21,-113.51"/>
<polygon fill="midnightblue" stroke="midnightblue" points="369.6,-116.95 380.09,-115.45 370.95,-110.08 369.6,-116.95"/>
</g>
<!-- Node9&#45;&gt;Node7 -->
<g id="edge11" class="edge">
<title>Node9&#45;&gt;Node7</title>
<path fill="none" stroke="midnightblue" d="M313.09,-86C325.35,-86 338.12,-86 350.75,-86"/>
<polygon fill="midnightblue" stroke="midnightblue" points="350.83,-89.5 360.83,-86 350.83,-82.5 350.83,-89.5"/>
</g>
<!-- Node9&#45;&gt;Node8 -->
<g id="edge12" class="edge">
<title>Node9&#45;&gt;Node8</title>
<path fill="none" stroke="midnightblue" d="M286.61,-76.46C317.3,-71.24 355.5,-64.75 387.66,-59.28"/>
<polygon fill="midnightblue" stroke="midnightblue" points="388.6,-62.67 397.87,-57.54 387.42,-55.77 388.6,-62.67"/>
</g>
<!-- Node11 -->
<g id="node10" class="node">
<title>Node11</title>
<g id="a_node10"><a xlink:href="classInputInterface.html#a3a54545cc1cd9a852ed6b598aea53b11" target="_top" xlink:title="Perform any initial once off setup or configuration here and call only once.">
<polygon fill="white" stroke="black" points="396,-0.5 396,-19.5 514,-19.5 514,-0.5 396,-0.5"/>
<text text-anchor="middle" x="455" y="-7.5" font-family="Helvetica,sans-Serif" font-size="10.00">InputInterface::begin</text>
</a>
</g>
</g>
<!-- Node10&#45;&gt;Node11 -->
<g id="edge14" class="edge">
<title>Node10&#45;&gt;Node11</title>
<path fill="none" stroke="midnightblue" d="M298.16,-10C325.86,-10 357.85,-10 385.61,-10"/>
<polygon fill="midnightblue" stroke="midnightblue" points="385.64,-13.5 395.64,-10 385.64,-6.5 385.64,-13.5"/>
</g>
</g>
</svg>
