<?xml version="1.0" encoding="UTF-8" standalone="no"?>
<!DOCTYPE svg PUBLIC "-//W3C//DTD SVG 1.1//EN"
 "http://www.w3.org/Graphics/SVG/1.1/DTD/svg11.dtd">
<!-- Generated by graphviz version 2.43.0 (0)
 -->
<!-- Title: ControllerScreenCreation Pages: 1 -->
<!--zoomable 452 -->
<svg id="main" version="1.1" xmlns="http://www.w3.org/2000/svg" xmlns:xlink="http://www.w3.org/1999/xlink" xml:space="preserve" onload="init(evt)">
<style type="text/css"><![CDATA[
.edge:hover path { stroke: red; }
.edge:hover polygon { stroke: red; fill: red; }
]]></style>
<script type="text/javascript"><![CDATA[
var edges = document.getElementsByTagName('g');
if (edges && edges.length) {
  for (var i=0;i<edges.length;i++) {
    if (edges[i].id.substr(0,4)=='edge') {
      edges[i].setAttribute('class','edge');
    }
  }
}
]]></script>
        <defs>
                <circle id="rim" cx="0" cy="0" r="7"/>
                <circle id="rim2" cx="0" cy="0" r="3.5"/>
                <g id="zoomPlus">
                        <use xlink:href="#rim" fill="#404040">
                                <set attributeName="fill" to="#808080" begin="zoomplus.mouseover" end="zoomplus.mouseout"/>
                        </use>
                        <path d="M-4,0h8M0,-4v8" fill="none" stroke="white" stroke-width="1.5" pointer-events="none"/>
                </g>
                <g id="zoomMin">
                        <use xlink:href="#rim" fill="#404040">
                                <set attributeName="fill" to="#808080" begin="zoomminus.mouseover" end="zoomminus.mouseout"/>
                        </use>
                        <path d="M-4,0h8" fill="none" stroke="white" stroke-width="1.5" pointer-events="none"/>
                </g>
                <g id="dirArrow">
                        <path fill="none" stroke="white" stroke-width="1.5" d="M0,-3.0v7 M-2.5,-0.5L0,-3.0L2.5,-0.5"/>
                </g>
               <g id="resetDef">
                       <use xlink:href="#rim2" fill="#404040">
                               <set attributeName="fill" to="#808080" begin="reset.mouseover" end="reset.mouseout"/>
                       </use>
               </g>
        </defs>

<script type="text/javascript">
var viewWidth = 926;
var viewHeight = 452;
var sectionId = 'dynsection-1';
</script>
<script xlink:href="svgpan.js"/>
<svg id="graph" class="graph">
<g id="viewport">
<title>ControllerScreenCreation</title>
<polygon fill="white" stroke="transparent" points="-4,4 -4,-448 922,-448 922,4 -4,4"/>
<!-- Node1 -->
<g id="node1" class="node">
<title>Node1</title>
<g id="a_node1"><a xlink:title="Test harness for ensuring displays are updated when screen updates are received.">
<polygon fill="#bfbfbf" stroke="black" points="481.5,-0.5 481.5,-19.5 620.5,-19.5 620.5,-0.5 481.5,-0.5"/>
<text text-anchor="middle" x="551" y="-7.5" font-family="Helvetica,sans-Serif" font-size="10.00">ControllerScreenCreation</text>
</a>
</g>
</g>
<!-- Node2 -->
<g id="node2" class="node">
<title>Node2</title>
<g id="a_node2"><a xlink:title=" ">
<polygon fill="white" stroke="#bfbfbf" points="418,-67.5 418,-86.5 454,-86.5 454,-67.5 418,-67.5"/>
<text text-anchor="middle" x="436" y="-74.5" font-family="Helvetica,sans-Serif" font-size="10.00">Test</text>
</a>
</g>
</g>
<!-- Node2&#45;&gt;Node1 -->
<g id="edge1" class="edge">
<title>Node2&#45;&gt;Node1</title>
<path fill="none" stroke="midnightblue" d="M460.26,-62.29C483.05,-49.4 516.46,-30.52 535.74,-19.63"/>
<polygon fill="midnightblue" stroke="midnightblue" points="458.49,-59.27 451.51,-67.23 461.94,-65.36 458.49,-59.27"/>
</g>
<!-- Node3 -->
<g id="node3" class="node">
<title>Node3</title>
<g id="a_node3"><a xlink:href="classController.html" target="_top" xlink:title="Class for the central controller for EX&#45;Display All application activities are controlled through thi...">
<polygon fill="white" stroke="black" points="472.5,-67.5 472.5,-86.5 537.5,-86.5 537.5,-67.5 472.5,-67.5"/>
<text text-anchor="middle" x="505" y="-74.5" font-family="Helvetica,sans-Serif" font-size="10.00">Controller</text>
</a>
</g>
</g>
<!-- Node3&#45;&gt;Node1 -->
<g id="edge2" class="edge">
<title>Node3&#45;&gt;Node1</title>
<path fill="none" stroke="#9a32cd" stroke-dasharray="5,2" d="M516.58,-58.78C521.04,-52.24 526.2,-44.74 531,-38 535.33,-31.92 540.33,-25.17 544.25,-19.94"/>
<polygon fill="#9a32cd" stroke="#9a32cd" points="513.4,-57.24 510.69,-67.49 519.2,-61.16 513.4,-57.24"/>
<text text-anchor="middle" x="556" y="-41" font-family="Helvetica,sans-Serif" font-size="10.00"> controller</text>
</g>
<!-- Node4 -->
<g id="node4" class="node">
<title>Node4</title>
<g id="a_node4"><a xlink:href="classCallbackInterface.html" target="_top" xlink:title="Interface class to use for callbacks.">
<polygon fill="white" stroke="black" points="345,-290.5 345,-309.5 447,-309.5 447,-290.5 345,-290.5"/>
<text text-anchor="middle" x="396" y="-297.5" font-family="Helvetica,sans-Serif" font-size="10.00">CallbackInterface</text>
</a>
</g>
</g>
<!-- Node4&#45;&gt;Node3 -->
<g id="edge3" class="edge">
<title>Node4&#45;&gt;Node3</title>
<path fill="none" stroke="midnightblue" d="M404.76,-281.24C426.87,-236.4 484.35,-119.87 500.64,-86.84"/>
<polygon fill="midnightblue" stroke="midnightblue" points="401.56,-279.82 400.27,-290.34 407.84,-282.92 401.56,-279.82"/>
</g>
<!-- Node12 -->
<g id="node11" class="node">
<title>Node12</title>
<g id="a_node11"><a xlink:href="classInputManager.html" target="_top" xlink:title=" ">
<polygon fill="white" stroke="black" points="261,-134.5 261,-153.5 345,-153.5 345,-134.5 261,-134.5"/>
<text text-anchor="middle" x="303" y="-141.5" font-family="Helvetica,sans-Serif" font-size="10.00">InputManager</text>
</a>
</g>
</g>
<!-- Node4&#45;&gt;Node12 -->
<g id="edge17" class="edge">
<title>Node4&#45;&gt;Node12</title>
<path fill="none" stroke="#9a32cd" stroke-dasharray="5,2" d="M391.46,-280.68C384.24,-254.4 368.13,-205.49 341,-172 334.99,-164.58 326.45,-158.26 318.98,-153.61"/>
<polygon fill="#9a32cd" stroke="#9a32cd" points="388.1,-281.65 394.01,-290.44 394.87,-279.88 388.1,-281.65"/>
<text text-anchor="middle" x="399.5" y="-218.5" font-family="Helvetica,sans-Serif" font-size="10.00"> _callback</text>
</g>
<!-- Node13 -->
<g id="node12" class="node">
<title>Node13</title>
<g id="a_node12"><a xlink:href="classInputInterface.html" target="_top" xlink:title="Class to abstract away all physical input implementatio to enable multiple input types Default return...">
<polygon fill="white" stroke="black" points="260.5,-211.5 260.5,-230.5 345.5,-230.5 345.5,-211.5 260.5,-211.5"/>
<text text-anchor="middle" x="303" y="-218.5" font-family="Helvetica,sans-Serif" font-size="10.00">InputInterface</text>
</a>
</g>
</g>
<!-- Node4&#45;&gt;Node13 -->
<g id="edge19" class="edge">
<title>Node4&#45;&gt;Node13</title>
<path fill="none" stroke="#9a32cd" stroke-dasharray="5,2" d="M342.72,-286.53C334.72,-282.86 327.12,-278.12 321,-272 309.65,-260.65 305.41,-241.63 303.86,-230.61"/>
<polygon fill="#9a32cd" stroke="#9a32cd" points="341.65,-289.87 352.23,-290.37 344.27,-283.38 341.65,-289.87"/>
<text text-anchor="middle" x="345.5" y="-258.5" font-family="Helvetica,sans-Serif" font-size="10.00"> _callback</text>
</g>
<!-- Node5 -->
<g id="node5" class="node">
<title>Node5</title>
<g id="a_node5"><a xlink:href="classLogger.html" target="_top" xlink:title="Class to enable simple logging to a Stream object with different log levels This enables embedding pe...">
<polygon fill="white" stroke="black" points="297,-357.5 297,-376.5 347,-376.5 347,-357.5 297,-357.5"/>
<text text-anchor="middle" x="322" y="-364.5" font-family="Helvetica,sans-Serif" font-size="10.00">Logger</text>
</a>
</g>
</g>
<!-- Node5&#45;&gt;Node4 -->
<g id="edge4" class="edge">
<title>Node5&#45;&gt;Node4</title>
<path fill="none" stroke="#9a32cd" stroke-dasharray="5,2" d="M339.81,-350.36C354.36,-337.58 374.38,-319.99 386.18,-309.63"/>
<polygon fill="#9a32cd" stroke="#9a32cd" points="337.18,-348 331.98,-357.23 341.8,-353.26 337.18,-348"/>
<text text-anchor="middle" x="384" y="-331" font-family="Helvetica,sans-Serif" font-size="10.00"> _logger</text>
</g>
<!-- Node7 -->
<g id="node7" class="node">
<title>Node7</title>
<g id="a_node7"><a xlink:href="classScreenManager.html" target="_top" xlink:title="Class to manage all EX&#45;Display screens.">
<polygon fill="white" stroke="black" points="515,-172.5 515,-191.5 607,-191.5 607,-172.5 515,-172.5"/>
<text text-anchor="middle" x="561" y="-179.5" font-family="Helvetica,sans-Serif" font-size="10.00">ScreenManager</text>
</a>
</g>
</g>
<!-- Node5&#45;&gt;Node7 -->
<g id="edge10" class="edge">
<title>Node5&#45;&gt;Node7</title>
<path fill="none" stroke="#9a32cd" stroke-dasharray="5,2" d="M357.43,-362.71C419.19,-356.24 542.86,-339.85 573,-310 605.57,-277.74 577.62,-214.61 565.73,-191.63"/>
<polygon fill="#9a32cd" stroke="#9a32cd" points="356.96,-359.24 347.36,-363.73 357.67,-366.2 356.96,-359.24"/>
<text text-anchor="middle" x="606" y="-297.5" font-family="Helvetica,sans-Serif" font-size="10.00"> _logger</text>
</g>
<!-- Node8 -->
<g id="node8" class="node">
<title>Node8</title>
<g id="a_node8"><a xlink:href="classScreen.html" target="_top" xlink:title="Class for each screen as received from the EXRAIL SCREEN() command Each Screen instance contains a li...">
<polygon fill="white" stroke="red" points="465,-290.5 465,-309.5 515,-309.5 515,-290.5 465,-290.5"/>
<text text-anchor="middle" x="490" y="-297.5" font-family="Helvetica,sans-Serif" font-size="10.00">Screen</text>
</a>
</g>
</g>
<!-- Node5&#45;&gt;Node8 -->
<g id="edge9" class="edge">
<title>Node5&#45;&gt;Node8</title>
<path fill="none" stroke="#9a32cd" stroke-dasharray="5,2" d="M357,-356.13C372.75,-351.41 391.48,-345.39 408,-339 431.12,-330.06 456.94,-317.68 473.32,-309.51"/>
<polygon fill="#9a32cd" stroke="#9a32cd" points="355.73,-352.86 347.13,-359.04 357.71,-359.57 355.73,-352.86"/>
<text text-anchor="middle" x="454" y="-331" font-family="Helvetica,sans-Serif" font-size="10.00"> _logger</text>
</g>
<!-- Node10 -->
<g id="node9" class="node">
<title>Node10</title>
<g id="a_node9"><a xlink:href="classDisplayManager.html" target="_top" xlink:title="Manages all physical displays.">
<polygon fill="white" stroke="black" points="0,-211.5 0,-230.5 96,-230.5 96,-211.5 0,-211.5"/>
<text text-anchor="middle" x="48" y="-218.5" font-family="Helvetica,sans-Serif" font-size="10.00">DisplayManager</text>
</a>
</g>
</g>
<!-- Node5&#45;&gt;Node10 -->
<g id="edge12" class="edge">
<title>Node5&#45;&gt;Node10</title>
<path fill="none" stroke="#9a32cd" stroke-dasharray="5,2" d="M286.54,-365.01C213.56,-362.13 50.59,-351.14 17,-310 -2.87,-285.66 25.18,-247.67 39.93,-230.7"/>
<polygon fill="#9a32cd" stroke="#9a32cd" points="286.51,-368.51 296.63,-365.37 286.76,-361.51 286.51,-368.51"/>
<text text-anchor="middle" x="37" y="-297.5" font-family="Helvetica,sans-Serif" font-size="10.00"> _logger</text>
</g>
<!-- Node11 -->
<g id="node10" class="node">
<title>Node11</title>
<g id="a_node10"><a xlink:href="classDisplayInterface.html" target="_top" xlink:title="Class to abstract away all physical display implementation to enable multiple display types.">
<polygon fill="white" stroke="black" points="66.5,-290.5 66.5,-309.5 163.5,-309.5 163.5,-290.5 66.5,-290.5"/>
<text text-anchor="middle" x="115" y="-297.5" font-family="Helvetica,sans-Serif" font-size="10.00">DisplayInterface</text>
</a>
</g>
</g>
<!-- Node5&#45;&gt;Node11 -->
<g id="edge14" class="edge">
<title>Node5&#45;&gt;Node11</title>
<path fill="none" stroke="#9a32cd" stroke-dasharray="5,2" d="M286.53,-361.75C258.86,-357.77 219.75,-350.64 187,-339 165.43,-331.33 142.32,-318.15 128.27,-309.51"/>
<polygon fill="#9a32cd" stroke="#9a32cd" points="286.15,-365.24 296.54,-363.13 287.11,-358.3 286.15,-365.24"/>
<text text-anchor="middle" x="207" y="-331" font-family="Helvetica,sans-Serif" font-size="10.00"> _logger</text>
</g>
<!-- Node5&#45;&gt;Node12 -->
<g id="edge22" class="edge">
<title>Node5&#45;&gt;Node12</title>
<path fill="none" stroke="#9a32cd" stroke-dasharray="5,2" d="M304.53,-350.42C286.76,-333.26 260.41,-303.86 250,-272 247.45,-264.19 247.94,-218.39 251,-210 259.52,-186.65 280.07,-165.33 292.63,-153.86"/>
<polygon fill="#9a32cd" stroke="#9a32cd" points="302.3,-353.13 312,-357.4 307.08,-348.02 302.3,-353.13"/>
<text text-anchor="middle" x="270" y="-258.5" font-family="Helvetica,sans-Serif" font-size="10.00"> _logger</text>
</g>
<!-- Node5&#45;&gt;Node13 -->
<g id="edge20" class="edge">
<title>Node5&#45;&gt;Node13</title>
<path fill="none" stroke="#9a32cd" stroke-dasharray="5,2" d="M311.51,-348.58C305.68,-337.87 299.01,-323.62 296,-310 289.69,-281.42 296.69,-246.5 300.65,-230.61"/>
<polygon fill="#9a32cd" stroke="#9a32cd" points="308.5,-350.37 316.5,-357.31 314.57,-346.89 308.5,-350.37"/>
<text text-anchor="middle" x="316" y="-297.5" font-family="Helvetica,sans-Serif" font-size="10.00"> _logger</text>
</g>
<!-- Node6 -->
<g id="node6" class="node">
<title>Node6</title>
<g id="a_node6"><a xlink:href="classStream.html" target="_top" xlink:title="Class to mock the basic Stream function equivalent of the Arduino framework.">
<polygon fill="white" stroke="black" points="663,-424.5 663,-443.5 715,-443.5 715,-424.5 663,-424.5"/>
<text text-anchor="middle" x="689" y="-431.5" font-family="Helvetica,sans-Serif" font-size="10.00">Stream</text>
</a>
</g>
</g>
<!-- Node6&#45;&gt;Node1 -->
<g id="edge26" class="edge">
<title>Node6&#45;&gt;Node1</title>
<path fill="none" stroke="#9a32cd" stroke-dasharray="5,2" d="M725.22,-431.63C767.29,-427.86 831,-414.49 831,-368 831,-368 831,-368 831,-76 831,-32.9 703.5,-18.37 620.57,-13.48"/>
<polygon fill="#9a32cd" stroke="#9a32cd" points="724.75,-428.15 715.04,-432.39 725.28,-435.13 724.75,-428.15"/>
<text text-anchor="middle" x="874.5" y="-224" font-family="Helvetica,sans-Serif" font-size="10.00"> commandStation</text>
<text text-anchor="middle" x="874.5" y="-213" font-family="Helvetica,sans-Serif" font-size="10.00">console</text>
</g>
<!-- Node6&#45;&gt;Node3 -->
<g id="edge24" class="edge">
<title>Node6&#45;&gt;Node3</title>
<path fill="none" stroke="#9a32cd" stroke-dasharray="5,2" d="M689,-414.13C689,-401.16 689,-383.54 689,-368 689,-368 689,-368 689,-143 689,-125 688.91,-116.42 675,-105 654.56,-88.21 581.12,-81.73 537.74,-79.33"/>
<polygon fill="#9a32cd" stroke="#9a32cd" points="685.5,-414.17 689,-424.17 692.5,-414.17 685.5,-414.17"/>
<text text-anchor="middle" x="752.5" y="-264" font-family="Helvetica,sans-Serif" font-size="10.00"> _commandStationStream</text>
<text text-anchor="middle" x="752.5" y="-253" font-family="Helvetica,sans-Serif" font-size="10.00">_consoleStream</text>
</g>
<!-- Node6&#45;&gt;Node5 -->
<g id="edge5" class="edge">
<title>Node6&#45;&gt;Node5</title>
<path fill="none" stroke="#9a32cd" stroke-dasharray="5,2" d="M652.64,-426.56C578.38,-413.41 410.93,-383.75 347.24,-372.47"/>
<polygon fill="#9a32cd" stroke="#9a32cd" points="652.44,-430.08 662.9,-428.38 653.66,-423.19 652.44,-430.08"/>
<text text-anchor="middle" x="566" y="-398" font-family="Helvetica,sans-Serif" font-size="10.00"> _outputStream</text>
</g>
<!-- Node7&#45;&gt;Node1 -->
<g id="edge25" class="edge">
<title>Node7&#45;&gt;Node1</title>
<path fill="none" stroke="#9a32cd" stroke-dasharray="5,2" d="M591.48,-166.8C596.11,-163.28 600.25,-159.04 603,-154 607.26,-146.2 604,-142.83 603,-134 598.08,-90.5 603.19,-75.73 581,-38 576.74,-30.75 569.88,-24.37 563.8,-19.63"/>
<polygon fill="#9a32cd" stroke="#9a32cd" points="589.35,-164.01 582.83,-172.36 593.13,-169.9 589.35,-164.01"/>
<text text-anchor="middle" x="641.5" y="-108" font-family="Helvetica,sans-Serif" font-size="10.00"> screenManager</text>
</g>
<!-- Node7&#45;&gt;Node3 -->
<g id="edge6" class="edge">
<title>Node7&#45;&gt;Node3</title>
<path fill="none" stroke="#9a32cd" stroke-dasharray="5,2" d="M532.16,-167C527.11,-163.4 522.4,-159.07 519,-154 504.95,-133.05 503.99,-101.88 504.46,-86.8"/>
<polygon fill="#9a32cd" stroke="#9a32cd" points="530.45,-170.06 540.78,-172.4 534.16,-164.13 530.45,-170.06"/>
<text text-anchor="middle" x="561" y="-141.5" font-family="Helvetica,sans-Serif" font-size="10.00"> _screenManager</text>
</g>
<!-- Node8&#45;&gt;Node7 -->
<g id="edge7" class="edge">
<title>Node8&#45;&gt;Node7</title>
<path fill="none" stroke="#9a32cd" stroke-dasharray="5,2" d="M500.57,-281.72C516.03,-256.48 544.19,-210.46 555.79,-191.5"/>
<polygon fill="#9a32cd" stroke="#9a32cd" points="497.57,-279.92 495.34,-290.28 503.54,-283.58 497.57,-279.92"/>
<text text-anchor="middle" x="550.5" y="-258.5" font-family="Helvetica,sans-Serif" font-size="10.00"> _firstScreen</text>
</g>
<!-- Node8&#45;&gt;Node8 -->
<g id="edge8" class="edge">
<title>Node8&#45;&gt;Node8</title>
<path fill="none" stroke="#9a32cd" stroke-dasharray="5,2" d="M525.45,-305.25C530,-304.34 533,-302.59 533,-300 533,-295.75 524.91,-293.76 515.18,-294.02"/>
<polygon fill="#9a32cd" stroke="#9a32cd" points="524.91,-301.78 515.18,-305.98 525.4,-308.77 524.91,-301.78"/>
<text text-anchor="middle" x="548.5" y="-297.5" font-family="Helvetica,sans-Serif" font-size="10.00"> _next</text>
</g>
<!-- Node10&#45;&gt;Node3 -->
<g id="edge11" class="edge">
<title>Node10&#45;&gt;Node3</title>
<path fill="none" stroke="#9a32cd" stroke-dasharray="5,2" d="M63.91,-204.38C85.08,-184.58 124.58,-150.98 165,-134 288.62,-82.07 331.08,-111 463,-87 466.08,-86.44 469.28,-85.82 472.48,-85.18"/>
<polygon fill="#9a32cd" stroke="#9a32cd" points="61.3,-202.03 56.48,-211.47 66.13,-207.09 61.3,-202.03"/>
<text text-anchor="middle" x="208.5" y="-141.5" font-family="Helvetica,sans-Serif" font-size="10.00"> _displayManager</text>
</g>
<!-- Node11&#45;&gt;Node10 -->
<g id="edge13" class="edge">
<title>Node11&#45;&gt;Node10</title>
<path fill="none" stroke="#9a32cd" stroke-dasharray="5,2" d="M70.09,-285.78C63.89,-282.21 58.21,-277.69 54,-272 45.06,-259.91 45.42,-241.49 46.63,-230.71"/>
<polygon fill="#9a32cd" stroke="#9a32cd" points="68.93,-289.11 79.45,-290.37 72.02,-282.82 68.93,-289.11"/>
<text text-anchor="middle" x="86" y="-258.5" font-family="Helvetica,sans-Serif" font-size="10.00"> _firstDisplay</text>
</g>
<!-- Node11&#45;&gt;Node11 -->
<g id="edge15" class="edge">
<title>Node11&#45;&gt;Node11</title>
<path fill="none" stroke="#9a32cd" stroke-dasharray="5,2" d="M173.88,-304.58C178.59,-303.58 181.5,-302.05 181.5,-300 181.5,-296.72 174.04,-294.78 163.71,-294.19"/>
<polygon fill="#9a32cd" stroke="#9a32cd" points="173.22,-301.13 163.71,-305.81 174.06,-308.08 173.22,-301.13"/>
<text text-anchor="middle" x="197" y="-297.5" font-family="Helvetica,sans-Serif" font-size="10.00"> _next</text>
</g>
<!-- Node11&#45;&gt;Node12 -->
<g id="edge23" class="edge">
<title>Node11&#45;&gt;Node12</title>
<path fill="none" stroke="#9a32cd" stroke-dasharray="5,2" d="M123.74,-281.14C138.7,-252.69 172.1,-197.67 218,-172 232.46,-163.91 249.68,-157.87 264.83,-153.57"/>
<polygon fill="#9a32cd" stroke="#9a32cd" points="120.48,-279.82 119.07,-290.32 126.72,-282.99 120.48,-279.82"/>
<text text-anchor="middle" x="194" y="-218.5" font-family="Helvetica,sans-Serif" font-size="10.00"> _display</text>
</g>
<!-- Node11&#45;&gt;Node13 -->
<g id="edge21" class="edge">
<title>Node11&#45;&gt;Node13</title>
<path fill="none" stroke="#9a32cd" stroke-dasharray="5,2" d="M131.88,-282.73C146.63,-268.52 165.73,-250.14 166,-250 195.34,-234.6 232.34,-227.66 260.49,-224.54"/>
<polygon fill="#9a32cd" stroke="#9a32cd" points="129.06,-280.59 124.28,-290.05 133.91,-285.63 129.06,-280.59"/>
<text text-anchor="middle" x="188" y="-258.5" font-family="Helvetica,sans-Serif" font-size="10.00"> _display</text>
</g>
<!-- Node12&#45;&gt;Node3 -->
<g id="edge16" class="edge">
<title>Node12&#45;&gt;Node3</title>
<path fill="none" stroke="#9a32cd" stroke-dasharray="5,2" d="M323.41,-128.86C336.03,-120.75 352.84,-111 369,-105 408.87,-90.18 421.31,-95.46 463,-87 466.07,-86.38 469.26,-85.72 472.46,-85.05"/>
<polygon fill="#9a32cd" stroke="#9a32cd" points="321.44,-125.97 315.04,-134.41 325.31,-131.81 321.44,-125.97"/>
<text text-anchor="middle" x="407" y="-108" font-family="Helvetica,sans-Serif" font-size="10.00"> _inputManager</text>
</g>
<!-- Node13&#45;&gt;Node12 -->
<g id="edge18" class="edge">
<title>Node13&#45;&gt;Node12</title>
<path fill="none" stroke="#9a32cd" stroke-dasharray="5,2" d="M303,-201.02C303,-185.74 303,-164.98 303,-153.5"/>
<polygon fill="#9a32cd" stroke="#9a32cd" points="299.5,-201.4 303,-211.4 306.5,-201.4 299.5,-201.4"/>
<text text-anchor="middle" x="320" y="-179.5" font-family="Helvetica,sans-Serif" font-size="10.00"> _input</text>
</g>
</g>
</svg>
        <g id="navigator" transform="translate(0 0)" fill="#404254">
                <rect fill="#f2f5e9" fill-opacity="0.5" stroke="#606060" stroke-width=".5" x="0" y="0" width="60" height="60"/>
                <use id="zoomplus" xlink:href="#zoomPlus" x="17" y="9" onmousedown="handleZoom(evt,'in')"/>
                <use id="zoomminus" xlink:href="#zoomMin" x="42" y="9" onmousedown="handleZoom(evt,'out')"/>
                <use id="reset" xlink:href="#resetDef" x="30" y="36" onmousedown="handleReset()"/>
                <g id="arrowUp" xlink:href="#dirArrow" transform="translate(30 24)" onmousedown="handlePan(0,-1)">
                  <use xlink:href="#rim" fill="#404040">
                        <set attributeName="fill" to="#808080" begin="arrowUp.mouseover" end="arrowUp.mouseout"/>
                  </use>
                  <path fill="none" stroke="white" stroke-width="1.5" d="M0,-3.0v7 M-2.5,-0.5L0,-3.0L2.5,-0.5"/>
                </g>
                <g id="arrowRight" xlink:href="#dirArrow" transform="rotate(90) translate(36 -43)" onmousedown="handlePan(1,0)">
                  <use xlink:href="#rim" fill="#404040">
                        <set attributeName="fill" to="#808080" begin="arrowRight.mouseover" end="arrowRight.mouseout"/>
                  </use>
                  <path fill="none" stroke="white" stroke-width="1.5" d="M0,-3.0v7 M-2.5,-0.5L0,-3.0L2.5,-0.5"/>
                </g>
                <g id="arrowDown" xlink:href="#dirArrow" transform="rotate(180) translate(-30 -48)" onmousedown="handlePan(0,1)">
                  <use xlink:href="#rim" fill="#404040">
                        <set attributeName="fill" to="#808080" begin="arrowDown.mouseover" end="arrowDown.mouseout"/>
                  </use>
                  <path fill="none" stroke="white" stroke-width="1.5" d="M0,-3.0v7 M-2.5,-0.5L0,-3.0L2.5,-0.5"/>
                </g>
                <g id="arrowLeft" xlink:href="#dirArrow" transform="rotate(270) translate(-36 17)" onmousedown="handlePan(-1,0)">
                  <use xlink:href="#rim" fill="#404040">
                        <set attributeName="fill" to="#808080" begin="arrowLeft.mouseover" end="arrowLeft.mouseout"/>
                  </use>
                  <path fill="none" stroke="white" stroke-width="1.5" d="M0,-3.0v7 M-2.5,-0.5L0,-3.0L2.5,-0.5"/>
                </g>
        </g>
        <svg viewBox="0 0 15 15" width="100%" height="30px" preserveAspectRatio="xMaxYMin meet">
         <g id="arrow_out" transform="scale(0.3 0.3)">
          <a xlink:href="classControllerScreenCreation__coll__graph_org.svg" target="_base">
           <rect id="button" ry="5" rx="5" y="6" x="6" height="38" width="38"
                fill="#f2f5e9" fill-opacity="0.5" stroke="#606060" stroke-width="1.0"/>
           <path id="arrow"
             d="M 11.500037,31.436501 C 11.940474,20.09759 22.043105,11.32322 32.158766,21.979434 L 37.068811,17.246167 C 37.068811,17.246167 37.088388,32 37.088388,32 L 22.160133,31.978069 C 22.160133,31.978069 26.997745,27.140456 26.997745,27.140456 C 18.528582,18.264221 13.291696,25.230495 11.500037,31.436501 z"
             style="fill:#404040;"/>
          </a>
         </g>
        </svg>
</svg>
