<?xml version="1.0" encoding="UTF-8" standalone="no"?>
<!DOCTYPE svg PUBLIC "-//W3C//DTD SVG 1.1//EN"
 "http://www.w3.org/Graphics/SVG/1.1/DTD/svg11.dtd">
<!-- Generated by graphviz version 2.43.0 (0)
 -->
<!-- Title: TFT_eSPIDisplay::displayRow Pages: 1 -->
<svg width="529pt" height="53pt"
 viewBox="0.00 0.00 529.00 52.50" xmlns="http://www.w3.org/2000/svg" xmlns:xlink="http://www.w3.org/1999/xlink">
<g id="graph0" class="graph" transform="scale(1 1) rotate(0) translate(4 48.5)">
<title>TFT_eSPIDisplay::displayRow</title>
<polygon fill="white" stroke="transparent" points="-4,4 -4,-48.5 525,-48.5 525,4 -4,4"/>
<!-- Node1 -->
<g id="node1" class="node">
<title>Node1</title>
<g id="a_node1"><a xlink:title="Display a row of text on the display.">
<polygon fill="#bfbfbf" stroke="black" points="0,-19.5 0,-38.5 158,-38.5 158,-19.5 0,-19.5"/>
<text text-anchor="middle" x="79" y="-26.5" font-family="Helvetica,sans-Serif" font-size="10.00">TFT_eSPIDisplay::displayRow</text>
</a>
</g>
</g>
<!-- Node2 -->
<g id="node2" class="node">
<title>Node2</title>
<g id="a_node2"><a xlink:href="classTFT__eSPIDisplay.html#afcbf3673396a684fd540bc75214719a3" target="_top" xlink:title="Get the X/Y coordinates to draw the specified row, starting at the specified column.">
<polygon fill="white" stroke="black" points="377,-14 377,-44 521,-44 521,-14 377,-14"/>
<text text-anchor="start" x="385" y="-32" font-family="Helvetica,sans-Serif" font-size="10.00">TFT_eSPIDisplay::_getRow</text>
<text text-anchor="middle" x="449" y="-21" font-family="Helvetica,sans-Serif" font-size="10.00">Position</text>
</a>
</g>
</g>
<!-- Node1&#45;&gt;Node2 -->
<g id="edge1" class="edge">
<title>Node1&#45;&gt;Node2</title>
<path fill="none" stroke="midnightblue" d="M158.04,-29C219.4,-29 304.6,-29 366.76,-29"/>
<polygon fill="midnightblue" stroke="midnightblue" points="366.92,-32.5 376.92,-29 366.92,-25.5 366.92,-32.5"/>
</g>
<!-- Node3 -->
<g id="node3" class="node">
<title>Node3</title>
<g id="a_node3"><a xlink:href="classTFT__eSPIDisplay.html#aac207d0a3d33da4ad5989d1f63d87a9f" target="_top" xlink:title="Clear the specified row.">
<polygon fill="white" stroke="black" points="194,-0.5 194,-19.5 341,-19.5 341,-0.5 194,-0.5"/>
<text text-anchor="middle" x="267.5" y="-7.5" font-family="Helvetica,sans-Serif" font-size="10.00">TFT_eSPIDisplay::clearRow</text>
</a>
</g>
</g>
<!-- Node1&#45;&gt;Node3 -->
<g id="edge2" class="edge">
<title>Node1&#45;&gt;Node3</title>
<path fill="none" stroke="midnightblue" d="M158.01,-21.05C166.55,-20.18 175.26,-19.3 183.85,-18.42"/>
<polygon fill="midnightblue" stroke="midnightblue" points="184.27,-21.9 193.86,-17.4 183.56,-14.93 184.27,-21.9"/>
</g>
<!-- Node3&#45;&gt;Node2 -->
<g id="edge3" class="edge">
<title>Node3&#45;&gt;Node2</title>
<path fill="none" stroke="midnightblue" d="M341.25,-17.7C349.7,-18.6 358.36,-19.51 366.92,-20.42"/>
<polygon fill="midnightblue" stroke="midnightblue" points="366.58,-23.9 376.89,-21.47 367.32,-16.94 366.58,-23.9"/>
</g>
</g>
</svg>
