<?xml version="1.0" encoding="UTF-8" standalone="no"?>
<!DOCTYPE svg PUBLIC "-//W3C//DTD SVG 1.1//EN"
 "http://www.w3.org/Graphics/SVG/1.1/DTD/svg11.dtd">
<!-- Generated by graphviz version 2.43.0 (0)
 -->
<!-- Title: ScreenRow::setNext Pages: 1 -->
<svg width="656pt" height="175pt"
 viewBox="0.00 0.00 656.00 175.00" xmlns="http://www.w3.org/2000/svg" xmlns:xlink="http://www.w3.org/1999/xlink">
<g id="graph0" class="graph" transform="scale(1 1) rotate(0) translate(4 171)">
<title>ScreenRow::setNext</title>
<!-- Node1 -->
<g id="Node000001" class="node">
<title>Node1</title>
<g id="a_Node000001"><a xlink:title="Set the next ScreenRow instance in the list.">
<polygon fill="#999999" stroke="#666666" points="648,-93 534,-93 534,-74 648,-74 648,-93"/>
<text text-anchor="middle" x="591" y="-81" font-family="Helvetica,sans-Serif" font-size="10.00">ScreenRow::setNext</text>
</a>
</g>
</g>
<!-- Node2 -->
<g id="Node000002" class="node">
<title>Node2</title>
<g id="a_Node000002"><a xlink:href="classScreen.html#a1a1f735d2c573b460813e1ba0667b649" target="_top" xlink:title="Add a new ScreenRow to the list.">
<polygon fill="white" stroke="#666666" points="491.5,-112 358.5,-112 358.5,-93 491.5,-93 491.5,-112"/>
<text text-anchor="middle" x="425" y="-100" font-family="Helvetica,sans-Serif" font-size="10.00">Screen::_addScreenRow</text>
</a>
</g>
</g>
<!-- Node1&#45;&gt;Node2 -->
<g id="edge1_Node000001_Node000002" class="edge">
<title>Node1&#45;&gt;Node2</title>
<g id="a_edge1_Node000001_Node000002"><a xlink:title=" ">
<path fill="none" stroke="#63b8ff" d="M523.57,-91.2C513.02,-92.42 502.11,-93.68 491.57,-94.9"/>
<polygon fill="#63b8ff" stroke="#63b8ff" points="524.03,-94.67 533.56,-90.04 523.22,-87.71 524.03,-94.67"/>
</a>
</g>
</g>
<!-- Node10 -->
<g id="Node000010" class="node">
<title>Node10</title>
<g id="a_Node000010"><a xlink:href="classScreen.html#a43263117dfffa210ccd83b6cd12e0732" target="_top" xlink:title="Delete the specified ScreenRow and update the list accordingly.">
<polygon fill="white" stroke="#666666" points="498,-75 352,-75 352,-56 498,-56 498,-75"/>
<text text-anchor="middle" x="425" y="-63" font-family="Helvetica,sans-Serif" font-size="10.00">Screen::_deleteScreenRow</text>
</a>
</g>
</g>
<!-- Node1&#45;&gt;Node10 -->
<g id="edge8_Node000001_Node000010" class="edge">
<title>Node1&#45;&gt;Node10</title>
<g id="a_edge8_Node000001_Node000010"><a xlink:title=" ">
<path fill="none" stroke="#63b8ff" d="M523.52,-76.2C515.18,-75.29 506.61,-74.35 498.18,-73.42"/>
<polygon fill="#63b8ff" stroke="#63b8ff" points="523.24,-79.69 533.56,-77.31 524,-72.74 523.24,-79.69"/>
</a>
</g>
</g>
<!-- Node3 -->
<g id="Node000003" class="node">
<title>Node3</title>
<g id="a_Node000003"><a xlink:href="classScreen.html#a0a9a3a713a63ef55e854841d07630556" target="_top" xlink:title="Update the specified ScreenRow, or create it if it doesn&#39;t exist This will automatically maintain the...">
<polygon fill="white" stroke="#666666" points="316,-93 173,-93 173,-74 316,-74 316,-93"/>
<text text-anchor="middle" x="244.5" y="-81" font-family="Helvetica,sans-Serif" font-size="10.00">Screen::updateScreenRow</text>
</a>
</g>
</g>
<!-- Node2&#45;&gt;Node3 -->
<g id="edge2_Node000002_Node000003" class="edge">
<title>Node2&#45;&gt;Node3</title>
<g id="a_edge2_Node000002_Node000003"><a xlink:title=" ">
<path fill="none" stroke="#63b8ff" d="M348.21,-94.43C337.58,-93.3 326.69,-92.14 316.17,-91.02"/>
<polygon fill="#63b8ff" stroke="#63b8ff" points="347.98,-97.93 358.29,-95.51 348.72,-90.97 347.98,-97.93"/>
</a>
</g>
</g>
<!-- Node4 -->
<g id="Node000004" class="node">
<title>Node4</title>
<g id="a_Node000004"><a xlink:href="test__Screen_8cpp.html#a1803655bda263555436ec633fd3297da" target="_top" xlink:title="Create a screen with associated row list and check all attributes are valid.">
<polygon fill="white" stroke="#666666" points="94.5,-167 42.5,-167 42.5,-148 94.5,-148 94.5,-167"/>
<text text-anchor="middle" x="68.5" y="-155" font-family="Helvetica,sans-Serif" font-size="10.00">TEST_F</text>
</a>
</g>
</g>
<!-- Node3&#45;&gt;Node4 -->
<g id="edge3_Node000003_Node000004" class="edge">
<title>Node3&#45;&gt;Node4</title>
<g id="a_edge3_Node000003_Node000004"><a xlink:title=" ">
<path fill="none" stroke="#63b8ff" d="M219.15,-98.32C198.03,-110.67 166.32,-128.05 137,-139.5 123.33,-144.84 107.5,-149.15 94.61,-152.22"/>
<polygon fill="#63b8ff" stroke="#63b8ff" points="220.97,-101.31 227.79,-93.2 217.4,-95.28 220.97,-101.31"/>
</a>
</g>
</g>
<!-- Node5 -->
<g id="Node000005" class="node">
<title>Node5</title>
<g id="a_Node000005"><a xlink:href="test__Screen_8cpp.html#aa85ee31e3fe94a4539ca065e4d9f412c" target="_top" xlink:title="Validate rows are deleted when setting text to &quot;&quot;.">
<polygon fill="white" stroke="#666666" points="94.5,-130 42.5,-130 42.5,-111 94.5,-111 94.5,-130"/>
<text text-anchor="middle" x="68.5" y="-118" font-family="Helvetica,sans-Serif" font-size="10.00">TEST_F</text>
</a>
</g>
</g>
<!-- Node3&#45;&gt;Node5 -->
<g id="edge4_Node000003_Node000005" class="edge">
<title>Node3&#45;&gt;Node5</title>
<g id="a_edge4_Node000003_Node000005"><a xlink:title=" ">
<path fill="none" stroke="#63b8ff" d="M188.73,-95.15C157.28,-101.83 119.28,-109.91 94.77,-115.13"/>
<polygon fill="#63b8ff" stroke="#63b8ff" points="189.64,-98.53 198.69,-93.03 188.18,-91.68 189.64,-98.53"/>
</a>
</g>
</g>
<!-- Node6 -->
<g id="Node000006" class="node">
<title>Node6</title>
<g id="a_Node000006"><a xlink:href="test__Screen_8cpp.html#a9da657726211d6af0e63eaab94ad162f" target="_top" xlink:title="Create a screen with associated row list and ensure rows are accessible by ID.">
<polygon fill="white" stroke="#666666" points="94.5,-93 42.5,-93 42.5,-74 94.5,-74 94.5,-93"/>
<text text-anchor="middle" x="68.5" y="-81" font-family="Helvetica,sans-Serif" font-size="10.00">TEST_F</text>
</a>
</g>
</g>
<!-- Node3&#45;&gt;Node6 -->
<g id="edge5_Node000003_Node000006" class="edge">
<title>Node3&#45;&gt;Node6</title>
<g id="a_edge5_Node000003_Node000006"><a xlink:title=" ">
<path fill="none" stroke="#63b8ff" d="M162.84,-83.5C138.15,-83.5 112.79,-83.5 94.74,-83.5"/>
<polygon fill="#63b8ff" stroke="#63b8ff" points="162.98,-87 172.98,-83.5 162.98,-80 162.98,-87"/>
</a>
</g>
</g>
<!-- Node7 -->
<g id="Node000007" class="node">
<title>Node7</title>
<g id="a_Node000007"><a xlink:href="test__Screen_8cpp.html#af450f2926aeb50c83ec7af1fe7d97a15" target="_top" xlink:title="Validate that rows are to be redrawn by default, and not after retrieving text.">
<polygon fill="white" stroke="#666666" points="94.5,-56 42.5,-56 42.5,-37 94.5,-37 94.5,-56"/>
<text text-anchor="middle" x="68.5" y="-44" font-family="Helvetica,sans-Serif" font-size="10.00">TEST_F</text>
</a>
</g>
</g>
<!-- Node3&#45;&gt;Node7 -->
<g id="edge6_Node000003_Node000007" class="edge">
<title>Node3&#45;&gt;Node7</title>
<g id="a_edge6_Node000003_Node000007"><a xlink:title=" ">
<path fill="none" stroke="#63b8ff" d="M188.73,-71.85C157.28,-65.17 119.28,-57.09 94.77,-51.87"/>
<polygon fill="#63b8ff" stroke="#63b8ff" points="188.18,-75.32 198.69,-73.97 189.64,-68.47 188.18,-75.32"/>
</a>
</g>
</g>
<!-- Node8 -->
<g id="Node000008" class="node">
<title>Node8</title>
<g id="a_Node000008"><a xlink:href="classController.html#a908f5f6c24239286e29d4761da509963" target="_top" xlink:title="Method to implement updating a screen.">
<polygon fill="#fff0f0" stroke="red" points="137,-19 0,-19 0,0 137,0 137,-19"/>
<text text-anchor="middle" x="68.5" y="-7" font-family="Helvetica,sans-Serif" font-size="10.00">Controller::updateScreen</text>
</a>
</g>
</g>
<!-- Node3&#45;&gt;Node8 -->
<g id="edge7_Node000003_Node000008" class="edge">
<title>Node3&#45;&gt;Node8</title>
<g id="a_edge7_Node000003_Node000008"><a xlink:title=" ">
<path fill="none" stroke="#63b8ff" d="M219.15,-68.68C198.03,-56.33 166.32,-38.95 137,-27.5 128.75,-24.28 119.72,-21.43 111.02,-19.01"/>
<polygon fill="#63b8ff" stroke="#63b8ff" points="217.4,-71.72 227.79,-73.8 220.97,-65.69 217.4,-71.72"/>
</a>
</g>
</g>
<!-- Node10&#45;&gt;Node3 -->
<g id="edge9_Node000010_Node000003" class="edge">
<title>Node10&#45;&gt;Node3</title>
<g id="a_edge9_Node000010_Node000003"><a xlink:title=" ">
<path fill="none" stroke="#63b8ff" d="M341.87,-73.78C333.27,-74.65 324.58,-75.53 316.12,-76.38"/>
<polygon fill="#63b8ff" stroke="#63b8ff" points="342.31,-77.26 351.91,-72.77 341.61,-70.29 342.31,-77.26"/>
</a>
</g>
</g>
</g>
</svg>
