<?xml version="1.0" encoding="UTF-8" standalone="no"?>
<!DOCTYPE svg PUBLIC "-//W3C//DTD SVG 1.1//EN"
 "http://www.w3.org/Graphics/SVG/1.1/DTD/svg11.dtd">
<!-- Generated by graphviz version 2.43.0 (0)
 -->
<!-- Title: InputInterfaceTests Pages: 1 -->
<svg width="382pt" height="305pt"
 viewBox="0.00 0.00 381.50 305.00" xmlns="http://www.w3.org/2000/svg" xmlns:xlink="http://www.w3.org/1999/xlink">
<g id="graph0" class="graph" transform="scale(1 1) rotate(0) translate(4 301)">
<title>InputInterfaceTests</title>
<polygon fill="white" stroke="transparent" points="-4,4 -4,-301 377.5,-301 377.5,4 -4,4"/>
<!-- Node1 -->
<g id="node1" class="node">
<title>Node1</title>
<g id="a_node1"><a xlink:title="Test harness for input interface tests.">
<polygon fill="#bfbfbf" stroke="black" points="17,-0.5 17,-19.5 127,-19.5 127,-0.5 17,-0.5"/>
<text text-anchor="middle" x="72" y="-7.5" font-family="Helvetica,sans-Serif" font-size="10.00">InputInterfaceTests</text>
</a>
</g>
</g>
<!-- Node2 -->
<g id="node2" class="node">
<title>Node2</title>
<g id="a_node2"><a xlink:title=" ">
<polygon fill="white" stroke="#bfbfbf" points="0,-67.5 0,-86.5 36,-86.5 36,-67.5 0,-67.5"/>
<text text-anchor="middle" x="18" y="-74.5" font-family="Helvetica,sans-Serif" font-size="10.00">Test</text>
</a>
</g>
</g>
<!-- Node2&#45;&gt;Node1 -->
<g id="edge1" class="edge">
<title>Node2&#45;&gt;Node1</title>
<path fill="none" stroke="midnightblue" d="M31.9,-59.27C42.43,-46.6 56.46,-29.7 64.83,-19.63"/>
<polygon fill="midnightblue" stroke="midnightblue" points="28.98,-57.31 25.28,-67.23 34.37,-61.78 28.98,-57.31"/>
</g>
<!-- Node3 -->
<g id="node3" class="node">
<title>Node3</title>
<g id="a_node3"><a xlink:href="classMockCallback.html" target="_top" xlink:title="Mock class to test callbacks.">
<polygon fill="white" stroke="black" points="29.5,-105.5 29.5,-124.5 114.5,-124.5 114.5,-105.5 29.5,-105.5"/>
<text text-anchor="middle" x="72" y="-112.5" font-family="Helvetica,sans-Serif" font-size="10.00">MockCallback</text>
</a>
</g>
</g>
<!-- Node3&#45;&gt;Node1 -->
<g id="edge2" class="edge">
<title>Node3&#45;&gt;Node1</title>
<path fill="none" stroke="#9a32cd" stroke-dasharray="5,2" d="M72,-94.94C72,-72.53 72,-36.31 72,-19.76"/>
<polygon fill="#9a32cd" stroke="#9a32cd" points="68.5,-95.22 72,-105.22 75.5,-95.22 68.5,-95.22"/>
<text text-anchor="middle" x="94" y="-74.5" font-family="Helvetica,sans-Serif" font-size="10.00"> callback</text>
</g>
<!-- Node4 -->
<g id="node4" class="node">
<title>Node4</title>
<g id="a_node4"><a xlink:href="classCallbackInterface.html" target="_top" xlink:title="Interface class to use for callbacks.">
<polygon fill="white" stroke="black" points="31,-210.5 31,-229.5 133,-229.5 133,-210.5 31,-210.5"/>
<text text-anchor="middle" x="82" y="-217.5" font-family="Helvetica,sans-Serif" font-size="10.00">CallbackInterface</text>
</a>
</g>
</g>
<!-- Node4&#45;&gt;Node3 -->
<g id="edge3" class="edge">
<title>Node4&#45;&gt;Node3</title>
<path fill="none" stroke="midnightblue" d="M80.18,-200.25C78.01,-177.87 74.46,-141.39 72.85,-124.76"/>
<polygon fill="midnightblue" stroke="midnightblue" points="76.7,-200.6 81.15,-210.22 83.66,-199.93 76.7,-200.6"/>
</g>
<!-- Node8 -->
<g id="node7" class="node">
<title>Node8</title>
<g id="a_node7"><a xlink:href="classInputInterface.html" target="_top" xlink:title="Class to abstract away all physical input implementatio to enable multiple input types Default return...">
<polygon fill="white" stroke="black" points="125.5,-143.5 125.5,-162.5 210.5,-162.5 210.5,-143.5 125.5,-143.5"/>
<text text-anchor="middle" x="168" y="-150.5" font-family="Helvetica,sans-Serif" font-size="10.00">InputInterface</text>
</a>
</g>
</g>
<!-- Node4&#45;&gt;Node8 -->
<g id="edge7" class="edge">
<title>Node4&#45;&gt;Node8</title>
<path fill="none" stroke="#9a32cd" stroke-dasharray="5,2" d="M90.16,-201.47C94.14,-194.39 99.49,-186.59 106,-181 115.44,-172.9 127.7,-166.87 138.81,-162.6"/>
<polygon fill="#9a32cd" stroke="#9a32cd" points="87.03,-199.91 85.6,-210.41 93.26,-203.09 87.03,-199.91"/>
<text text-anchor="middle" x="130.5" y="-184" font-family="Helvetica,sans-Serif" font-size="10.00"> _callback</text>
</g>
<!-- Node5 -->
<g id="node5" class="node">
<title>Node5</title>
<g id="a_node5"><a xlink:href="classLogger.html" target="_top" xlink:title="Class to enable simple logging to a Stream object with different log levels This enables embedding pe...">
<polygon fill="white" stroke="red" points="144,-277.5 144,-296.5 194,-296.5 194,-277.5 144,-277.5"/>
<text text-anchor="middle" x="169" y="-284.5" font-family="Helvetica,sans-Serif" font-size="10.00">Logger</text>
</a>
</g>
</g>
<!-- Node5&#45;&gt;Node4 -->
<g id="edge4" class="edge">
<title>Node5&#45;&gt;Node4</title>
<path fill="none" stroke="#9a32cd" stroke-dasharray="5,2" d="M137.82,-273C130,-269.06 121.89,-264.34 115,-259 104.09,-250.54 94.08,-238.05 88.01,-229.72"/>
<polygon fill="#9a32cd" stroke="#9a32cd" points="136.56,-276.28 147.1,-277.41 139.57,-269.96 136.56,-276.28"/>
<text text-anchor="middle" x="135" y="-251" font-family="Helvetica,sans-Serif" font-size="10.00"> _logger</text>
</g>
<!-- Node5&#45;&gt;Node8 -->
<g id="edge8" class="edge">
<title>Node5&#45;&gt;Node8</title>
<path fill="none" stroke="#9a32cd" stroke-dasharray="5,2" d="M168.86,-267.28C168.64,-238.25 168.22,-183.54 168.06,-162.52"/>
<polygon fill="#9a32cd" stroke="#9a32cd" points="165.36,-267.37 168.93,-277.34 172.36,-267.31 165.36,-267.37"/>
<text text-anchor="middle" x="189" y="-217.5" font-family="Helvetica,sans-Serif" font-size="10.00"> _logger</text>
</g>
<!-- Node9 -->
<g id="node8" class="node">
<title>Node9</title>
<g id="a_node8"><a xlink:href="classDisplayInterface.html" target="_top" xlink:title="Class to abstract away all physical display implementation to enable multiple display types.">
<polygon fill="white" stroke="black" points="227.5,-210.5 227.5,-229.5 324.5,-229.5 324.5,-210.5 227.5,-210.5"/>
<text text-anchor="middle" x="276" y="-217.5" font-family="Helvetica,sans-Serif" font-size="10.00">DisplayInterface</text>
</a>
</g>
</g>
<!-- Node5&#45;&gt;Node9 -->
<g id="edge10" class="edge">
<title>Node5&#45;&gt;Node9</title>
<path fill="none" stroke="#9a32cd" stroke-dasharray="5,2" d="M192.14,-271.94C213.33,-259.07 244.02,-240.43 261.8,-229.63"/>
<polygon fill="#9a32cd" stroke="#9a32cd" points="190.16,-269.05 183.43,-277.23 193.79,-275.03 190.16,-269.05"/>
<text text-anchor="middle" x="248" y="-251" font-family="Helvetica,sans-Serif" font-size="10.00"> _logger</text>
</g>
<!-- Node7 -->
<g id="node6" class="node">
<title>Node7</title>
<g id="a_node6"><a xlink:href="classMockInput.html" target="_top" xlink:title="Mock physical input class.">
<polygon fill="white" stroke="black" points="134,-67.5 134,-86.5 202,-86.5 202,-67.5 134,-67.5"/>
<text text-anchor="middle" x="168" y="-74.5" font-family="Helvetica,sans-Serif" font-size="10.00">MockInput</text>
</a>
</g>
</g>
<!-- Node7&#45;&gt;Node1 -->
<g id="edge5" class="edge">
<title>Node7&#45;&gt;Node1</title>
<path fill="none" stroke="#9a32cd" stroke-dasharray="5,2" d="M146.72,-61.59C127.73,-48.74 100.55,-30.33 84.74,-19.63"/>
<polygon fill="#9a32cd" stroke="#9a32cd" points="144.81,-64.53 155.05,-67.23 148.73,-58.73 144.81,-64.53"/>
<text text-anchor="middle" x="140" y="-41" font-family="Helvetica,sans-Serif" font-size="10.00"> input</text>
</g>
<!-- Node8&#45;&gt;Node7 -->
<g id="edge6" class="edge">
<title>Node8&#45;&gt;Node7</title>
<path fill="none" stroke="midnightblue" d="M168,-133.07C168,-118.18 168,-98.11 168,-86.77"/>
<polygon fill="midnightblue" stroke="midnightblue" points="164.5,-133.22 168,-143.22 171.5,-133.22 164.5,-133.22"/>
</g>
<!-- Node9&#45;&gt;Node8 -->
<g id="edge9" class="edge">
<title>Node9&#45;&gt;Node8</title>
<path fill="none" stroke="#9a32cd" stroke-dasharray="5,2" d="M252.64,-204.94C231.25,-192.07 200.28,-173.43 182.33,-162.63"/>
<polygon fill="#9a32cd" stroke="#9a32cd" points="251.06,-208.08 261.43,-210.23 254.67,-202.08 251.06,-208.08"/>
<text text-anchor="middle" x="250" y="-184" font-family="Helvetica,sans-Serif" font-size="10.00"> _display</text>
</g>
<!-- Node9&#45;&gt;Node9 -->
<g id="edge11" class="edge">
<title>Node9&#45;&gt;Node9</title>
<path fill="none" stroke="#9a32cd" stroke-dasharray="5,2" d="M334.88,-224.58C339.59,-223.58 342.5,-222.05 342.5,-220 342.5,-216.72 335.04,-214.78 324.71,-214.19"/>
<polygon fill="#9a32cd" stroke="#9a32cd" points="334.22,-221.13 324.71,-225.81 335.06,-228.08 334.22,-221.13"/>
<text text-anchor="middle" x="358" y="-217.5" font-family="Helvetica,sans-Serif" font-size="10.00"> _next</text>
</g>
</g>
</svg>
