<?xml version="1.0" encoding="UTF-8" standalone="no"?>
<!DOCTYPE svg PUBLIC "-//W3C//DTD SVG 1.1//EN"
 "http://www.w3.org/Graphics/SVG/1.1/DTD/svg11.dtd">
<!-- Generated by graphviz version 2.43.0 (0)
 -->
<!-- Title: CallbackInterface::updateScreen Pages: 1 -->
<svg width="528pt" height="85pt"
 viewBox="0.00 0.00 528.00 85.00" xmlns="http://www.w3.org/2000/svg" xmlns:xlink="http://www.w3.org/1999/xlink">
<g id="graph0" class="graph" transform="scale(1 1) rotate(0) translate(4 81)">
<title>CallbackInterface::updateScreen</title>
<polygon fill="white" stroke="transparent" points="-4,4 -4,-81 524,-81 524,4 -4,4"/>
<!-- Node1 -->
<g id="node1" class="node">
<title>Node1</title>
<g id="a_node1"><a xlink:title="Method to implement updating a screen.">
<polygon fill="#bfbfbf" stroke="black" points="412,-33 412,-63 520,-63 520,-33 412,-33"/>
<text text-anchor="start" x="420" y="-51" font-family="Helvetica,sans-Serif" font-size="10.00">CallbackInterface::</text>
<text text-anchor="middle" x="466" y="-40" font-family="Helvetica,sans-Serif" font-size="10.00">updateScreen</text>
</a>
</g>
</g>
<!-- Node2 -->
<g id="node2" class="node">
<title>Node2</title>
<g id="a_node2"><a xlink:href="classAtFinder.html#a76f0a4563646bfdcd04820845d440c01" target="_top" xlink:title="Call this as often as possible with a streaming input (eg. Serial.read())">
<polygon fill="white" stroke="black" points="228,-38.5 228,-57.5 376,-57.5 376,-38.5 228,-38.5"/>
<text text-anchor="middle" x="302" y="-45.5" font-family="Helvetica,sans-Serif" font-size="10.00">AtFinder::processInputChar</text>
</a>
</g>
</g>
<!-- Node1&#45;&gt;Node2 -->
<g id="edge1" class="edge">
<title>Node1&#45;&gt;Node2</title>
<path fill="none" stroke="midnightblue" d="M401.85,-48C393.43,-48 384.74,-48 376.17,-48"/>
<polygon fill="midnightblue" stroke="midnightblue" points="401.96,-51.5 411.96,-48 401.96,-44.5 401.96,-51.5"/>
</g>
<!-- Node3 -->
<g id="node3" class="node">
<title>Node3</title>
<g id="a_node3"><a xlink:href="test__AtFinder_8cpp.html#ac066b1d7fc9dcc0efc8d8f2ab1f78f81" target="_top" xlink:title=" ">
<polygon fill="white" stroke="black" points="114,-57.5 114,-76.5 166,-76.5 166,-57.5 114,-57.5"/>
<text text-anchor="middle" x="140" y="-64.5" font-family="Helvetica,sans-Serif" font-size="10.00">TEST_F</text>
</a>
</g>
</g>
<!-- Node2&#45;&gt;Node3 -->
<g id="edge2" class="edge">
<title>Node2&#45;&gt;Node3</title>
<path fill="none" stroke="midnightblue" d="M217.47,-57.92C198.77,-60.14 180.32,-62.33 166.24,-64"/>
<polygon fill="midnightblue" stroke="midnightblue" points="218.04,-61.38 227.56,-56.72 217.21,-54.43 218.04,-61.38"/>
</g>
<!-- Node4 -->
<g id="node4" class="node">
<title>Node4</title>
<g id="a_node4"><a xlink:href="classController.html#a7d04c17913f04f99429aa29fa8505484" target="_top" xlink:title="Processes all ongoing activities, monitoring streams, receiving user input, updates displays,...">
<polygon fill="white" stroke="black" points="88,-19.5 88,-38.5 192,-38.5 192,-19.5 88,-19.5"/>
<text text-anchor="middle" x="140" y="-26.5" font-family="Helvetica,sans-Serif" font-size="10.00">Controller::update</text>
</a>
</g>
</g>
<!-- Node2&#45;&gt;Node4 -->
<g id="edge3" class="edge">
<title>Node2&#45;&gt;Node4</title>
<path fill="none" stroke="midnightblue" d="M217.41,-38.07C208.77,-37.05 200.19,-36.03 192.07,-35.06"/>
<polygon fill="midnightblue" stroke="midnightblue" points="217.21,-41.57 227.56,-39.28 218.04,-34.62 217.21,-41.57"/>
</g>
<!-- Node5 -->
<g id="node5" class="node">
<title>Node5</title>
<g id="a_node5"><a xlink:href="EX-Display_8ino.html#afe461d27b9c48d5921c00d521181f12f" target="_top" xlink:title="Main loop, simply calls controller&#45;&gt;update() to manage all interactions.">
<polygon fill="white" stroke="black" points="7,-38.5 7,-57.5 45,-57.5 45,-38.5 7,-38.5"/>
<text text-anchor="middle" x="26" y="-45.5" font-family="Helvetica,sans-Serif" font-size="10.00">loop</text>
</a>
</g>
</g>
<!-- Node4&#45;&gt;Node5 -->
<g id="edge4" class="edge">
<title>Node4&#45;&gt;Node5</title>
<path fill="none" stroke="midnightblue" d="M77.82,-39.38C65.84,-41.41 54.17,-43.39 45.05,-44.94"/>
<polygon fill="midnightblue" stroke="midnightblue" points="78.64,-42.79 87.92,-37.67 77.47,-35.89 78.64,-42.79"/>
</g>
<!-- Node6 -->
<g id="node6" class="node">
<title>Node6</title>
<g id="a_node6"><a xlink:href="test__Controller_8cpp.html#abb9ca06c0e9bafef1a891dd9d22bd84d" target="_top" xlink:title="Ensure update() method correctly calls the mock callback.">
<polygon fill="white" stroke="black" points="0,-0.5 0,-19.5 52,-19.5 52,-0.5 0,-0.5"/>
<text text-anchor="middle" x="26" y="-7.5" font-family="Helvetica,sans-Serif" font-size="10.00">TEST_F</text>
</a>
</g>
</g>
<!-- Node4&#45;&gt;Node6 -->
<g id="edge5" class="edge">
<title>Node4&#45;&gt;Node6</title>
<path fill="none" stroke="midnightblue" d="M77.96,-18.65C68.81,-17.09 59.84,-15.57 52.04,-14.25"/>
<polygon fill="midnightblue" stroke="midnightblue" points="77.47,-22.11 87.92,-20.33 78.64,-15.21 77.47,-22.11"/>
</g>
</g>
</svg>
