<?xml version="1.0" encoding="UTF-8" standalone="no"?>
<!DOCTYPE svg PUBLIC "-//W3C//DTD SVG 1.1//EN"
 "http://www.w3.org/Graphics/SVG/1.1/DTD/svg11.dtd">
<!-- Generated by graphviz version 2.43.0 (0)
 -->
<!-- Title: Screen Pages: 1 -->
<svg width="197pt" height="229pt"
 viewBox="0.00 0.00 196.50 229.00" xmlns="http://www.w3.org/2000/svg" xmlns:xlink="http://www.w3.org/1999/xlink">
<g id="graph0" class="graph" transform="scale(1 1) rotate(0) translate(4 225)">
<title>Screen</title>
<polygon fill="white" stroke="transparent" points="-4,4 -4,-225 192.5,-225 192.5,4 -4,4"/>
<!-- Node1 -->
<g id="node1" class="node">
<title>Node1</title>
<g id="a_node1"><a xlink:title="Class for each screen as received from the EXRAIL SCREEN() command Each Screen instance contains a li...">
<polygon fill="#bfbfbf" stroke="black" points="1,-0.5 1,-19.5 51,-19.5 51,-0.5 1,-0.5"/>
<text text-anchor="middle" x="26" y="-7.5" font-family="Helvetica,sans-Serif" font-size="10.00">Screen</text>
</a>
</g>
</g>
<!-- Node1&#45;&gt;Node1 -->
<g id="edge5" class="edge">
<title>Node1&#45;&gt;Node1</title>
<path fill="none" stroke="#9a32cd" stroke-dasharray="5,2" d="M61.45,-15.25C66,-14.34 69,-12.59 69,-10 69,-5.75 60.91,-3.76 51.18,-4.02"/>
<polygon fill="#9a32cd" stroke="#9a32cd" points="60.91,-11.78 51.18,-15.98 61.4,-18.77 60.91,-11.78"/>
<text text-anchor="middle" x="84.5" y="-7.5" font-family="Helvetica,sans-Serif" font-size="10.00"> _next</text>
</g>
<!-- Node2 -->
<g id="node2" class="node">
<title>Node2</title>
<g id="a_node2"><a xlink:href="classScreenRow.html" target="_top" xlink:title=" ">
<polygon fill="white" stroke="black" points="68.5,-67.5 68.5,-86.5 139.5,-86.5 139.5,-67.5 68.5,-67.5"/>
<text text-anchor="middle" x="104" y="-74.5" font-family="Helvetica,sans-Serif" font-size="10.00">ScreenRow</text>
</a>
</g>
</g>
<!-- Node2&#45;&gt;Node1 -->
<g id="edge1" class="edge">
<title>Node2&#45;&gt;Node1</title>
<path fill="none" stroke="#9a32cd" stroke-dasharray="5,2" d="M85.66,-60.71C70.29,-47.91 48.91,-30.09 36.35,-19.63"/>
<polygon fill="#9a32cd" stroke="#9a32cd" points="83.56,-63.52 93.48,-67.23 88.04,-58.14 83.56,-63.52"/>
<text text-anchor="middle" x="110" y="-41" font-family="Helvetica,sans-Serif" font-size="10.00"> _firstScreenRow</text>
</g>
<!-- Node2&#45;&gt;Node2 -->
<g id="edge2" class="edge">
<title>Node2&#45;&gt;Node2</title>
<path fill="none" stroke="#9a32cd" stroke-dasharray="5,2" d="M149.78,-81.95C154.49,-80.97 157.5,-79.32 157.5,-77 157.5,-73.28 149.79,-71.29 139.75,-71.03"/>
<polygon fill="#9a32cd" stroke="#9a32cd" points="149.35,-78.47 139.75,-82.97 150.06,-85.44 149.35,-78.47"/>
<text text-anchor="middle" x="173" y="-74.5" font-family="Helvetica,sans-Serif" font-size="10.00"> _next</text>
</g>
<!-- Node3 -->
<g id="node3" class="node">
<title>Node3</title>
<g id="a_node3"><a xlink:href="classLogger.html" target="_top" xlink:title="Class to enable simple logging to a Stream object with different log levels This enables embedding pe...">
<polygon fill="white" stroke="black" points="1,-134.5 1,-153.5 51,-153.5 51,-134.5 1,-134.5"/>
<text text-anchor="middle" x="26" y="-141.5" font-family="Helvetica,sans-Serif" font-size="10.00">Logger</text>
</a>
</g>
</g>
<!-- Node3&#45;&gt;Node1 -->
<g id="edge6" class="edge">
<title>Node3&#45;&gt;Node1</title>
<path fill="none" stroke="#9a32cd" stroke-dasharray="5,2" d="M23.08,-123.85C21.08,-108.49 18.96,-86.38 20,-67 20.9,-50.21 23.3,-30.7 24.78,-19.71"/>
<polygon fill="#9a32cd" stroke="#9a32cd" points="19.67,-124.71 24.53,-134.12 26.6,-123.73 19.67,-124.71"/>
<text text-anchor="middle" x="40" y="-74.5" font-family="Helvetica,sans-Serif" font-size="10.00"> _logger</text>
</g>
<!-- Node3&#45;&gt;Node2 -->
<g id="edge3" class="edge">
<title>Node3&#45;&gt;Node2</title>
<path fill="none" stroke="#9a32cd" stroke-dasharray="5,2" d="M44.34,-127.71C59.71,-114.91 81.09,-97.09 93.65,-86.63"/>
<polygon fill="#9a32cd" stroke="#9a32cd" points="41.96,-125.14 36.52,-134.23 46.44,-130.52 41.96,-125.14"/>
<text text-anchor="middle" x="89" y="-108" font-family="Helvetica,sans-Serif" font-size="10.00"> _logger</text>
</g>
<!-- Node4 -->
<g id="node4" class="node">
<title>Node4</title>
<g id="a_node4"><a xlink:href="classStream.html" target="_top" xlink:title="Class to mock the basic Stream function equivalent of the Arduino framework.">
<polygon fill="white" stroke="black" points="0,-201.5 0,-220.5 52,-220.5 52,-201.5 0,-201.5"/>
<text text-anchor="middle" x="26" y="-208.5" font-family="Helvetica,sans-Serif" font-size="10.00">Stream</text>
</a>
</g>
</g>
<!-- Node4&#45;&gt;Node3 -->
<g id="edge4" class="edge">
<title>Node4&#45;&gt;Node3</title>
<path fill="none" stroke="#9a32cd" stroke-dasharray="5,2" d="M26,-191.04C26,-178.67 26,-163.12 26,-153.63"/>
<polygon fill="#9a32cd" stroke="#9a32cd" points="22.5,-191.23 26,-201.23 29.5,-191.23 22.5,-191.23"/>
<text text-anchor="middle" x="64" y="-175" font-family="Helvetica,sans-Serif" font-size="10.00"> _outputStream</text>
</g>
</g>
</svg>
