<?xml version="1.0" encoding="UTF-8" standalone="no"?>
<!DOCTYPE svg PUBLIC "-//W3C//DTD SVG 1.1//EN"
 "http://www.w3.org/Graphics/SVG/1.1/DTD/svg11.dtd">
<!-- Generated by graphviz version 2.43.0 (0)
 -->
<!-- Title: InputManager::getInput Pages: 1 -->
<svg width="582pt" height="151pt"
 viewBox="0.00 0.00 582.00 151.00" xmlns="http://www.w3.org/2000/svg" xmlns:xlink="http://www.w3.org/1999/xlink">
<g id="graph0" class="graph" transform="scale(1 1) rotate(0) translate(4 147)">
<title>InputManager::getInput</title>
<polygon fill="white" stroke="transparent" points="-4,4 -4,-147 578,-147 578,4 -4,4"/>
<!-- Node1 -->
<g id="node1" class="node">
<title>Node1</title>
<g id="a_node1"><a xlink:title="Get the configured InputInterface.">
<polygon fill="#bfbfbf" stroke="black" points="443,-57.5 443,-76.5 574,-76.5 574,-57.5 443,-57.5"/>
<text text-anchor="middle" x="508.5" y="-64.5" font-family="Helvetica,sans-Serif" font-size="10.00">InputManager::getInput</text>
</a>
</g>
</g>
<!-- Node2 -->
<g id="node2" class="node">
<title>Node2</title>
<g id="a_node2"><a xlink:href="classConfigurator.html#a25ee5e1b0a64d971232d6ecaaadd5d61" target="_top" xlink:title="Call all one&#45;shot initialisation or begin methods on startup.">
<polygon fill="white" stroke="black" points="282,-95.5 282,-114.5 407,-114.5 407,-95.5 282,-95.5"/>
<text text-anchor="middle" x="344.5" y="-102.5" font-family="Helvetica,sans-Serif" font-size="10.00">Configurator::initialise</text>
</a>
</g>
</g>
<!-- Node1&#45;&gt;Node2 -->
<g id="edge1" class="edge">
<title>Node1&#45;&gt;Node2</title>
<path fill="none" stroke="midnightblue" d="M456.79,-78.9C434.01,-84.24 407.51,-90.45 386.09,-95.48"/>
<polygon fill="midnightblue" stroke="midnightblue" points="457.68,-82.28 466.62,-76.59 456.09,-75.47 457.68,-82.28"/>
</g>
<!-- Node7 -->
<g id="node6" class="node">
<title>Node7</title>
<g id="a_node6"><a xlink:href="test__InputManager_8cpp.html#a27bbde065b428d0be138c73ae6cc27a4" target="_top" xlink:title="Test to ensure the InputManager can be created.">
<polygon fill="white" stroke="black" points="318.5,-57.5 318.5,-76.5 370.5,-76.5 370.5,-57.5 318.5,-57.5"/>
<text text-anchor="middle" x="344.5" y="-64.5" font-family="Helvetica,sans-Serif" font-size="10.00">TEST_F</text>
</a>
</g>
</g>
<!-- Node1&#45;&gt;Node7 -->
<g id="edge5" class="edge">
<title>Node1&#45;&gt;Node7</title>
<path fill="none" stroke="midnightblue" d="M432.42,-67C410.25,-67 387.48,-67 370.82,-67"/>
<polygon fill="midnightblue" stroke="midnightblue" points="432.54,-70.5 442.54,-67 432.54,-63.5 432.54,-70.5"/>
</g>
<!-- Node8 -->
<g id="node7" class="node">
<title>Node8</title>
<g id="a_node7"><a xlink:href="classController.html#a7d04c17913f04f99429aa29fa8505484" target="_top" xlink:title="Processes all ongoing activities, monitoring streams, receiving user input, updates displays,...">
<polygon fill="white" stroke="black" points="292.5,-19.5 292.5,-38.5 396.5,-38.5 396.5,-19.5 292.5,-19.5"/>
<text text-anchor="middle" x="344.5" y="-26.5" font-family="Helvetica,sans-Serif" font-size="10.00">Controller::update</text>
</a>
</g>
</g>
<!-- Node1&#45;&gt;Node8 -->
<g id="edge6" class="edge">
<title>Node1&#45;&gt;Node8</title>
<path fill="none" stroke="midnightblue" d="M456.79,-55.1C434.01,-49.76 407.51,-43.55 386.09,-38.52"/>
<polygon fill="midnightblue" stroke="midnightblue" points="456.09,-58.53 466.62,-57.41 457.68,-51.72 456.09,-58.53"/>
</g>
<!-- Node3 -->
<g id="node3" class="node">
<title>Node3</title>
<g id="a_node3"><a xlink:href="EX-Display_8ino.html#a4fc01d736fe50cf5b977f755b675f11d" target="_top" xlink:title="Main setup method, initialise Configurator here.">
<polygon fill="white" stroke="black" points="198,-123.5 198,-142.5 242,-142.5 242,-123.5 198,-123.5"/>
<text text-anchor="middle" x="220" y="-130.5" font-family="Helvetica,sans-Serif" font-size="10.00">setup</text>
</a>
</g>
</g>
<!-- Node2&#45;&gt;Node3 -->
<g id="edge2" class="edge">
<title>Node2&#45;&gt;Node3</title>
<path fill="none" stroke="midnightblue" d="M291.58,-116.87C274.15,-120.85 255.69,-125.07 242.02,-128.2"/>
<polygon fill="midnightblue" stroke="midnightblue" points="292.72,-120.2 301.69,-114.56 291.16,-113.37 292.72,-120.2"/>
</g>
<!-- Node6 -->
<g id="node5" class="node">
<title>Node6</title>
<g id="a_node5"><a xlink:href="test__Configurator_8cpp.html#a90ba0264a5f676876816cf7411508ac9" target="_top" xlink:title="Ensure the Configurator is created and all attributes are as expected.">
<polygon fill="white" stroke="black" points="194,-85.5 194,-104.5 246,-104.5 246,-85.5 194,-85.5"/>
<text text-anchor="middle" x="220" y="-92.5" font-family="Helvetica,sans-Serif" font-size="10.00">TEST_F</text>
</a>
</g>
</g>
<!-- Node2&#45;&gt;Node6 -->
<g id="edge4" class="edge">
<title>Node2&#45;&gt;Node6</title>
<path fill="none" stroke="midnightblue" d="M271.87,-99.15C262.71,-98.41 253.88,-97.68 246.21,-97.06"/>
<polygon fill="midnightblue" stroke="midnightblue" points="271.64,-102.65 281.89,-99.97 272.21,-95.67 271.64,-102.65"/>
</g>
<!-- Node4 -->
<g id="node4" class="node">
<title>Node4</title>
<g id="a_node4"><a xlink:href="classTFT__eSPITouch.html#a06e34fd9e1c12e99c40070bdb5fc1779" target="_top" xlink:title="Ensure SPIFFS filesystem is up and running.">
<polygon fill="white" stroke="red" points="0,-123.5 0,-142.5 158,-142.5 158,-123.5 0,-123.5"/>
<text text-anchor="middle" x="79" y="-130.5" font-family="Helvetica,sans-Serif" font-size="10.00">TFT_eSPITouch::_setupSPIFFS</text>
</a>
</g>
</g>
<!-- Node3&#45;&gt;Node4 -->
<g id="edge3" class="edge">
<title>Node3&#45;&gt;Node4</title>
<path fill="none" stroke="midnightblue" d="M187.67,-133C178.75,-133 168.61,-133 158.21,-133"/>
<polygon fill="midnightblue" stroke="midnightblue" points="187.89,-136.5 197.89,-133 187.89,-129.5 187.89,-136.5"/>
</g>
<!-- Node9 -->
<g id="node8" class="node">
<title>Node9</title>
<g id="a_node8"><a xlink:href="EX-Display_8ino.html#afe461d27b9c48d5921c00d521181f12f" target="_top" xlink:title="Main loop, simply calls controller&#45;&gt;update() to manage all interactions.">
<polygon fill="white" stroke="black" points="201,-38.5 201,-57.5 239,-57.5 239,-38.5 201,-38.5"/>
<text text-anchor="middle" x="220" y="-45.5" font-family="Helvetica,sans-Serif" font-size="10.00">loop</text>
</a>
</g>
</g>
<!-- Node8&#45;&gt;Node9 -->
<g id="edge7" class="edge">
<title>Node8&#45;&gt;Node9</title>
<path fill="none" stroke="midnightblue" d="M282,-38.54C266.32,-40.97 250.67,-43.4 239.14,-45.19"/>
<polygon fill="midnightblue" stroke="midnightblue" points="282.91,-41.94 292.26,-36.95 281.84,-35.02 282.91,-41.94"/>
</g>
<!-- Node10 -->
<g id="node9" class="node">
<title>Node10</title>
<g id="a_node9"><a xlink:href="test__Controller_8cpp.html#abb9ca06c0e9bafef1a891dd9d22bd84d" target="_top" xlink:title="Ensure update() method correctly calls the mock callback.">
<polygon fill="white" stroke="black" points="194,-0.5 194,-19.5 246,-19.5 246,-0.5 194,-0.5"/>
<text text-anchor="middle" x="220" y="-7.5" font-family="Helvetica,sans-Serif" font-size="10.00">TEST_F</text>
</a>
</g>
</g>
<!-- Node8&#45;&gt;Node10 -->
<g id="edge8" class="edge">
<title>Node8&#45;&gt;Node10</title>
<path fill="none" stroke="midnightblue" d="M282.14,-19.48C269.47,-17.52 256.8,-15.55 246.31,-13.93"/>
<polygon fill="midnightblue" stroke="midnightblue" points="281.84,-22.98 292.26,-21.05 282.91,-16.06 281.84,-22.98"/>
</g>
</g>
</svg>
