<?xml version="1.0" encoding="UTF-8" standalone="no"?>
<!DOCTYPE svg PUBLIC "-//W3C//DTD SVG 1.1//EN"
 "http://www.w3.org/Graphics/SVG/1.1/DTD/svg11.dtd">
<!-- Generated by graphviz version 2.43.0 (0)
 -->
<!-- Title: AtFinder::setup Pages: 1 -->
<svg width="541pt" height="267pt"
 viewBox="0.00 0.00 541.00 267.00" xmlns="http://www.w3.org/2000/svg" xmlns:xlink="http://www.w3.org/1999/xlink">
<g id="graph0" class="graph" transform="scale(1 1) rotate(0) translate(4 263)">
<title>AtFinder::setup</title>
<!-- Node1 -->
<g id="Node000001" class="node">
<title>Node1</title>
<g id="a_Node000001"><a xlink:title="Setup the AtFinder parser.">
<polygon fill="#999999" stroke="#666666" points="533,-130 443,-130 443,-111 533,-111 533,-130"/>
<text text-anchor="middle" x="488" y="-118" font-family="Helvetica,sans-Serif" font-size="10.00">AtFinder::setup</text>
</a>
</g>
</g>
<!-- Node2 -->
<g id="Node000002" class="node">
<title>Node2</title>
<g id="a_Node000002"><a xlink:href="classConfigurator.html#a25ee5e1b0a64d971232d6ecaaadd5d61" target="_top" xlink:title="Call all one&#45;shot initialisation or begin methods on startup.">
<polygon fill="white" stroke="#666666" points="407,-241 282,-241 282,-222 407,-222 407,-241"/>
<text text-anchor="middle" x="344.5" y="-229" font-family="Helvetica,sans-Serif" font-size="10.00">Configurator::initialise</text>
</a>
</g>
</g>
<!-- Node1&#45;&gt;Node2 -->
<g id="edge1_Node000001_Node000002" class="edge">
<title>Node1&#45;&gt;Node2</title>
<g id="a_edge1_Node000001_Node000002"><a xlink:title=" ">
<path fill="none" stroke="#63b8ff" d="M475.86,-138.95C462.2,-160.03 437.12,-194.09 407,-213.5 401.76,-216.88 395.88,-219.64 389.87,-221.89"/>
<polygon fill="#63b8ff" stroke="#63b8ff" points="478.95,-140.61 481.31,-130.28 473.02,-136.89 478.95,-140.61"/>
</a>
</g>
</g>
<!-- Node7 -->
<g id="Node000007" class="node">
<title>Node7</title>
<g id="a_Node000007"><a xlink:href="test__AtFinder__Logger_8cpp.html#a3d5173d99541d49d8f78c0815d09ae95" target="_top" xlink:title=" ">
<polygon fill="white" stroke="#666666" points="370.5,-204 318.5,-204 318.5,-185 370.5,-185 370.5,-204"/>
<text text-anchor="middle" x="344.5" y="-192" font-family="Helvetica,sans-Serif" font-size="10.00">TEST_F</text>
</a>
</g>
</g>
<!-- Node1&#45;&gt;Node7 -->
<g id="edge5_Node000001_Node000007" class="edge">
<title>Node1&#45;&gt;Node7</title>
<g id="a_edge5_Node000001_Node000007"><a xlink:title=" ">
<path fill="none" stroke="#63b8ff" d="M467.64,-136.3C452.04,-148.4 429.14,-164.78 407,-175.5 395.53,-181.05 382.08,-185.43 370.69,-188.57"/>
<polygon fill="#63b8ff" stroke="#63b8ff" points="469.83,-139.04 475.5,-130.09 465.49,-133.55 469.83,-139.04"/>
</a>
</g>
</g>
<!-- Node8 -->
<g id="Node000008" class="node">
<title>Node8</title>
<g id="a_Node000008"><a xlink:href="test__AtFinder_8cpp.html#ac066b1d7fc9dcc0efc8d8f2ab1f78f81" target="_top" xlink:title=" ">
<polygon fill="white" stroke="#666666" points="370.5,-167 318.5,-167 318.5,-148 370.5,-148 370.5,-167"/>
<text text-anchor="middle" x="344.5" y="-155" font-family="Helvetica,sans-Serif" font-size="10.00">TEST_F</text>
</a>
</g>
</g>
<!-- Node1&#45;&gt;Node8 -->
<g id="edge6_Node000001_Node000008" class="edge">
<title>Node1&#45;&gt;Node8</title>
<g id="a_edge6_Node000001_Node000008"><a xlink:title=" ">
<path fill="none" stroke="#63b8ff" d="M440.84,-132.57C417.51,-138.67 390.1,-145.84 370.67,-150.92"/>
<polygon fill="#63b8ff" stroke="#63b8ff" points="441.77,-135.94 450.56,-130.03 440,-129.17 441.77,-135.94"/>
</a>
</g>
</g>
<!-- Node9 -->
<g id="Node000009" class="node">
<title>Node9</title>
<g id="a_Node000009"><a xlink:href="test__AtFinder_8cpp.html#a6e3a6f9f055cce99e71f21132466245e" target="_top" xlink:title=" ">
<polygon fill="white" stroke="#666666" points="370.5,-130 318.5,-130 318.5,-111 370.5,-111 370.5,-130"/>
<text text-anchor="middle" x="344.5" y="-118" font-family="Helvetica,sans-Serif" font-size="10.00">TEST_F</text>
</a>
</g>
</g>
<!-- Node1&#45;&gt;Node9 -->
<g id="edge7_Node000001_Node000009" class="edge">
<title>Node1&#45;&gt;Node9</title>
<g id="a_edge7_Node000001_Node000009"><a xlink:title=" ">
<path fill="none" stroke="#63b8ff" d="M432.4,-120.5C411.17,-120.5 387.89,-120.5 370.77,-120.5"/>
<polygon fill="#63b8ff" stroke="#63b8ff" points="432.62,-124 442.62,-120.5 432.62,-117 432.62,-124"/>
</a>
</g>
</g>
<!-- Node10 -->
<g id="Node000010" class="node">
<title>Node10</title>
<g id="a_Node000010"><a xlink:href="test__ControllerDisplayUpdate_8cpp.html#af7a73dc328bc3f14a231b3d577180628" target="_top" xlink:title="Test to ensure a mock display correctly receives screen updates from the Controller.">
<polygon fill="white" stroke="#666666" points="370.5,-93 318.5,-93 318.5,-74 370.5,-74 370.5,-93"/>
<text text-anchor="middle" x="344.5" y="-81" font-family="Helvetica,sans-Serif" font-size="10.00">TEST_F</text>
</a>
</g>
</g>
<!-- Node1&#45;&gt;Node10 -->
<g id="edge8_Node000001_Node000010" class="edge">
<title>Node1&#45;&gt;Node10</title>
<g id="a_edge8_Node000001_Node000010"><a xlink:title=" ">
<path fill="none" stroke="#63b8ff" d="M440.84,-108.43C417.51,-102.33 390.1,-95.16 370.67,-90.08"/>
<polygon fill="#63b8ff" stroke="#63b8ff" points="440,-111.83 450.56,-110.97 441.77,-105.06 440,-111.83"/>
</a>
</g>
</g>
<!-- Node11 -->
<g id="Node000011" class="node">
<title>Node11</title>
<g id="a_Node000011"><a xlink:href="test__Controller_8cpp.html#a75631fe386e9be5e2118adf3f01653ee" target="_top" xlink:title="Ensure update() method correctly ignores an invalid stream input.">
<polygon fill="white" stroke="#666666" points="370.5,-56 318.5,-56 318.5,-37 370.5,-37 370.5,-56"/>
<text text-anchor="middle" x="344.5" y="-44" font-family="Helvetica,sans-Serif" font-size="10.00">TEST_F</text>
</a>
</g>
</g>
<!-- Node1&#45;&gt;Node11 -->
<g id="edge9_Node000001_Node000011" class="edge">
<title>Node1&#45;&gt;Node11</title>
<g id="a_edge9_Node000001_Node000011"><a xlink:title=" ">
<path fill="none" stroke="#63b8ff" d="M468,-104.51C452.45,-92.11 429.44,-75.28 407,-64.5 395.57,-59.01 382.12,-54.84 370.72,-51.9"/>
<polygon fill="#63b8ff" stroke="#63b8ff" points="465.85,-107.28 475.82,-110.87 470.27,-101.85 465.85,-107.28"/>
</a>
</g>
</g>
<!-- Node12 -->
<g id="Node000012" class="node">
<title>Node12</title>
<g id="a_Node000012"><a xlink:href="test__Controller_8cpp.html#abb9ca06c0e9bafef1a891dd9d22bd84d" target="_top" xlink:title="Ensure update() method correctly calls the mock callback.">
<polygon fill="white" stroke="#666666" points="370.5,-19 318.5,-19 318.5,0 370.5,0 370.5,-19"/>
<text text-anchor="middle" x="344.5" y="-7" font-family="Helvetica,sans-Serif" font-size="10.00">TEST_F</text>
</a>
</g>
</g>
<!-- Node1&#45;&gt;Node12 -->
<g id="edge10_Node000001_Node000012" class="edge">
<title>Node1&#45;&gt;Node12</title>
<g id="a_edge10_Node000001_Node000012"><a xlink:title=" ">
<path fill="none" stroke="#63b8ff" d="M475.86,-102.05C462.2,-80.97 437.12,-46.91 407,-27.5 396.06,-20.45 382.27,-16.08 370.53,-13.42"/>
<polygon fill="#63b8ff" stroke="#63b8ff" points="473.02,-104.11 481.31,-110.72 478.95,-100.39 473.02,-104.11"/>
</a>
</g>
</g>
<!-- Node3 -->
<g id="Node000003" class="node">
<title>Node3</title>
<g id="a_Node000003"><a xlink:href="EX-Display_8ino.html#a4fc01d736fe50cf5b977f755b675f11d" target="_top" xlink:title="Main setup method, initialise Configurator here.">
<polygon fill="white" stroke="#666666" points="242,-259 198,-259 198,-240 242,-240 242,-259"/>
<text text-anchor="middle" x="220" y="-247" font-family="Helvetica,sans-Serif" font-size="10.00">setup</text>
</a>
</g>
</g>
<!-- Node2&#45;&gt;Node3 -->
<g id="edge2_Node000002_Node000003" class="edge">
<title>Node2&#45;&gt;Node3</title>
<g id="a_edge2_Node000002_Node000003"><a xlink:title=" ">
<path fill="none" stroke="#63b8ff" d="M271.88,-242.02C261.07,-243.61 250.71,-245.13 242.19,-246.39"/>
<polygon fill="#63b8ff" stroke="#63b8ff" points="272.51,-245.47 281.89,-240.55 271.49,-238.54 272.51,-245.47"/>
</a>
</g>
</g>
<!-- Node6 -->
<g id="Node000006" class="node">
<title>Node6</title>
<g id="a_Node000006"><a xlink:href="test__Configurator_8cpp.html#a90ba0264a5f676876816cf7411508ac9" target="_top" xlink:title="Ensure the Configurator is created and all attributes are as expected.">
<polygon fill="white" stroke="#666666" points="246,-222 194,-222 194,-203 246,-203 246,-222"/>
<text text-anchor="middle" x="220" y="-210" font-family="Helvetica,sans-Serif" font-size="10.00">TEST_F</text>
</a>
</g>
</g>
<!-- Node2&#45;&gt;Node6 -->
<g id="edge4_Node000002_Node000006" class="edge">
<title>Node2&#45;&gt;Node6</title>
<g id="a_edge4_Node000002_Node000006"><a xlink:title=" ">
<path fill="none" stroke="#63b8ff" d="M271.87,-220.39C262.71,-218.97 253.88,-217.6 246.21,-216.41"/>
<polygon fill="#63b8ff" stroke="#63b8ff" points="271.47,-223.87 281.89,-221.94 272.55,-216.95 271.47,-223.87"/>
</a>
</g>
</g>
<!-- Node4 -->
<g id="Node000004" class="node">
<title>Node4</title>
<g id="a_Node000004"><a xlink:href="classTFT__eSPITouch.html#a06e34fd9e1c12e99c40070bdb5fc1779" target="_top" xlink:title="Ensure SPIFFS filesystem is up and running.">
<polygon fill="#fff0f0" stroke="red" points="158,-259 0,-259 0,-240 158,-240 158,-259"/>
<text text-anchor="middle" x="79" y="-247" font-family="Helvetica,sans-Serif" font-size="10.00">TFT_eSPITouch::_setupSPIFFS</text>
</a>
</g>
</g>
<!-- Node3&#45;&gt;Node4 -->
<g id="edge3_Node000003_Node000004" class="edge">
<title>Node3&#45;&gt;Node4</title>
<g id="a_edge3_Node000003_Node000004"><a xlink:title=" ">
<path fill="none" stroke="#63b8ff" d="M187.67,-249.5C178.75,-249.5 168.61,-249.5 158.21,-249.5"/>
<polygon fill="#63b8ff" stroke="#63b8ff" points="187.89,-253 197.89,-249.5 187.89,-246 187.89,-253"/>
</a>
</g>
</g>
</g>
</svg>
