<?xml version="1.0" encoding="UTF-8" standalone="no"?>
<!DOCTYPE svg PUBLIC "-//W3C//DTD SVG 1.1//EN"
 "http://www.w3.org/Graphics/SVG/1.1/DTD/svg11.dtd">
<!-- Generated by graphviz version 2.43.0 (0)
 -->
<!-- Title: ScreenManager::getFirstScreen Pages: 1 -->
<svg width="547pt" height="154pt"
 viewBox="0.00 0.00 547.00 154.00" xmlns="http://www.w3.org/2000/svg" xmlns:xlink="http://www.w3.org/1999/xlink">
<g id="graph0" class="graph" transform="scale(1 1) rotate(0) translate(4 150)">
<title>ScreenManager::getFirstScreen</title>
<polygon fill="white" stroke="transparent" points="-4,4 -4,-150 543,-150 543,4 -4,4"/>
<!-- Node1 -->
<g id="node1" class="node">
<title>Node1</title>
<g id="a_node1"><a xlink:title="Get the first Screen instance in the list.">
<polygon fill="#bfbfbf" stroke="black" points="371,-66.5 371,-85.5 539,-85.5 539,-66.5 371,-66.5"/>
<text text-anchor="middle" x="455" y="-73.5" font-family="Helvetica,sans-Serif" font-size="10.00">ScreenManager::getFirstScreen</text>
</a>
</g>
</g>
<!-- Node2 -->
<g id="node2" class="node">
<title>Node2</title>
<g id="a_node2"><a xlink:href="classController.html#aa981e303ca83593ffb34db49c7d73cc6" target="_top" xlink:title="Selects the next screen for the selected display.">
<polygon fill="white" stroke="black" points="174,-126.5 174,-145.5 335,-145.5 335,-126.5 174,-126.5"/>
<text text-anchor="middle" x="254.5" y="-133.5" font-family="Helvetica,sans-Serif" font-size="10.00">Controller::_selectNextScreen</text>
</a>
</g>
</g>
<!-- Node1&#45;&gt;Node2 -->
<g id="edge1" class="edge">
<title>Node1&#45;&gt;Node2</title>
<path fill="none" stroke="midnightblue" d="M412.7,-88.5C389.8,-95.43 360.83,-104.19 335,-112 319.27,-116.75 301.78,-122.03 287.22,-126.43"/>
<polygon fill="midnightblue" stroke="midnightblue" points="413.87,-91.8 422.43,-85.56 411.85,-85.1 413.87,-91.8"/>
</g>
<!-- Node3 -->
<g id="node3" class="node">
<title>Node3</title>
<g id="a_node3"><a xlink:href="classController.html#af9c9f10320fb7770553156da4d164e64" target="_top" xlink:title="Method to implement to respond to an input action.">
<polygon fill="white" stroke="black" points="0,-88.5 0,-107.5 138,-107.5 138,-88.5 0,-88.5"/>
<text text-anchor="middle" x="69" y="-95.5" font-family="Helvetica,sans-Serif" font-size="10.00">Controller::onInputAction</text>
</a>
</g>
</g>
<!-- Node1&#45;&gt;Node3 -->
<g id="edge5" class="edge">
<title>Node1&#45;&gt;Node3</title>
<path fill="none" stroke="midnightblue" d="M360.29,-81.37C291.59,-85.3 199.91,-90.56 138.12,-94.1"/>
<polygon fill="midnightblue" stroke="midnightblue" points="360.89,-84.84 370.68,-80.77 360.49,-77.85 360.89,-84.84"/>
</g>
<!-- Node4 -->
<g id="node4" class="node">
<title>Node4</title>
<g id="a_node4"><a xlink:href="classController.html#a3e02f73e534a929849f981ec892b4f54" target="_top" xlink:title="Selects the previous screen for the selected display.">
<polygon fill="white" stroke="black" points="181,-39 181,-69 328,-69 328,-39 181,-39"/>
<text text-anchor="start" x="189" y="-57" font-family="Helvetica,sans-Serif" font-size="10.00">Controller::_selectPrevious</text>
<text text-anchor="middle" x="254.5" y="-46" font-family="Helvetica,sans-Serif" font-size="10.00">Screen</text>
</a>
</g>
</g>
<!-- Node1&#45;&gt;Node4 -->
<g id="edge3" class="edge">
<title>Node1&#45;&gt;Node4</title>
<path fill="none" stroke="midnightblue" d="M360.9,-65.68C349.89,-64.46 338.77,-63.23 328.1,-62.05"/>
<polygon fill="midnightblue" stroke="midnightblue" points="360.64,-69.17 370.97,-66.8 361.41,-62.22 360.64,-69.17"/>
</g>
<!-- Node5 -->
<g id="node5" class="node">
<title>Node5</title>
<g id="a_node5"><a xlink:href="test__ScreenManager_8cpp.html#ae55072e56d85f84bd4a955ec7340bdd1" target="_top" xlink:title="Create a ScreenManager.">
<polygon fill="white" stroke="black" points="228.5,-0.5 228.5,-19.5 280.5,-19.5 280.5,-0.5 228.5,-0.5"/>
<text text-anchor="middle" x="254.5" y="-7.5" font-family="Helvetica,sans-Serif" font-size="10.00">TEST_F</text>
</a>
</g>
</g>
<!-- Node1&#45;&gt;Node5 -->
<g id="edge6" class="edge">
<title>Node1&#45;&gt;Node5</title>
<path fill="none" stroke="midnightblue" d="M422.25,-62.5C398.49,-52.71 365.06,-39.55 335,-30 317.1,-24.31 296.52,-19.17 280.79,-15.53"/>
<polygon fill="midnightblue" stroke="midnightblue" points="420.9,-65.74 431.48,-66.34 423.59,-59.27 420.9,-65.74"/>
</g>
<!-- Node2&#45;&gt;Node3 -->
<g id="edge2" class="edge">
<title>Node2&#45;&gt;Node3</title>
<path fill="none" stroke="midnightblue" d="M197.09,-124.32C171.07,-118.93 140.57,-112.61 115.97,-107.52"/>
<polygon fill="midnightblue" stroke="midnightblue" points="196.69,-127.81 207.2,-126.41 198.11,-120.96 196.69,-127.81"/>
</g>
<!-- Node4&#45;&gt;Node3 -->
<g id="edge4" class="edge">
<title>Node4&#45;&gt;Node3</title>
<path fill="none" stroke="midnightblue" d="M180.95,-71.4C156.66,-77.22 130.49,-83.5 109.67,-88.49"/>
<polygon fill="midnightblue" stroke="midnightblue" points="181.95,-74.75 190.86,-69.02 180.32,-67.95 181.95,-74.75"/>
</g>
</g>
</svg>
