<?xml version="1.0" encoding="UTF-8" standalone="no"?>
<!DOCTYPE svg PUBLIC "-//W3C//DTD SVG 1.1//EN"
 "http://www.w3.org/Graphics/SVG/1.1/DTD/svg11.dtd">
<!-- Generated by graphviz version 2.43.0 (0)
 -->
<!-- Title: AtFinderLoggerIntegrationTests Pages: 1 -->
<svg width="268pt" height="307pt"
 viewBox="0.00 0.00 268.00 307.00" xmlns="http://www.w3.org/2000/svg" xmlns:xlink="http://www.w3.org/1999/xlink">
<g id="graph0" class="graph" transform="scale(1 1) rotate(0) translate(4 303)">
<title>AtFinderLoggerIntegrationTests</title>
<polygon fill="white" stroke="transparent" points="-4,4 -4,-303 264,-303 264,4 -4,4"/>
<!-- Node1 -->
<g id="node1" class="node">
<title>Node1</title>
<g id="a_node1"><a xlink:title="Test harness integration testing of ConsoleInput and Logger classes.">
<polygon fill="#bfbfbf" stroke="black" points="25.5,-0.5 25.5,-30.5 168.5,-30.5 168.5,-0.5 25.5,-0.5"/>
<text text-anchor="start" x="33.5" y="-18.5" font-family="Helvetica,sans-Serif" font-size="10.00">AtFinderLoggerIntegration</text>
<text text-anchor="middle" x="97" y="-7.5" font-family="Helvetica,sans-Serif" font-size="10.00">Tests</text>
</a>
</g>
</g>
<!-- Node2 -->
<g id="node2" class="node">
<title>Node2</title>
<g id="a_node2"><a xlink:title=" ">
<polygon fill="white" stroke="#bfbfbf" points="0,-78.5 0,-97.5 36,-97.5 36,-78.5 0,-78.5"/>
<text text-anchor="middle" x="18" y="-85.5" font-family="Helvetica,sans-Serif" font-size="10.00">Test</text>
</a>
</g>
</g>
<!-- Node2&#45;&gt;Node1 -->
<g id="edge1" class="edge">
<title>Node2&#45;&gt;Node1</title>
<path fill="none" stroke="midnightblue" d="M30.55,-70.19C36.12,-63.25 43,-55.36 50,-49 57.34,-42.33 66.12,-35.91 74.09,-30.56"/>
<polygon fill="midnightblue" stroke="midnightblue" points="27.64,-68.23 24.28,-78.28 33.17,-72.52 27.64,-68.23"/>
</g>
<!-- Node3 -->
<g id="node3" class="node">
<title>Node3</title>
<g id="a_node3"><a xlink:href="classMockCallback.html" target="_top" xlink:title="Mock class to test callbacks.">
<polygon fill="white" stroke="black" points="162.5,-78.5 162.5,-97.5 247.5,-97.5 247.5,-78.5 162.5,-78.5"/>
<text text-anchor="middle" x="205" y="-85.5" font-family="Helvetica,sans-Serif" font-size="10.00">MockCallback</text>
</a>
</g>
</g>
<!-- Node3&#45;&gt;Node1 -->
<g id="edge2" class="edge">
<title>Node3&#45;&gt;Node1</title>
<path fill="none" stroke="#9a32cd" stroke-dasharray="5,2" d="M183.25,-72.8C164.42,-60.51 137.34,-42.83 118.56,-30.58"/>
<polygon fill="#9a32cd" stroke="#9a32cd" points="181.47,-75.82 191.76,-78.36 185.3,-69.96 181.47,-75.82"/>
<text text-anchor="middle" x="182" y="-52" font-family="Helvetica,sans-Serif" font-size="10.00"> callback</text>
</g>
<!-- Node4 -->
<g id="node4" class="node">
<title>Node4</title>
<g id="a_node4"><a xlink:href="classCallbackInterface.html" target="_top" xlink:title="Interface class to use for callbacks.">
<polygon fill="white" stroke="black" points="158,-145.5 158,-164.5 260,-164.5 260,-145.5 158,-145.5"/>
<text text-anchor="middle" x="209" y="-152.5" font-family="Helvetica,sans-Serif" font-size="10.00">CallbackInterface</text>
</a>
</g>
</g>
<!-- Node4&#45;&gt;Node3 -->
<g id="edge3" class="edge">
<title>Node4&#45;&gt;Node3</title>
<path fill="none" stroke="midnightblue" d="M207.83,-135.04C207.07,-122.67 206.12,-107.12 205.53,-97.63"/>
<polygon fill="midnightblue" stroke="midnightblue" points="204.35,-135.47 208.46,-145.23 211.34,-135.04 204.35,-135.47"/>
</g>
<!-- Node5 -->
<g id="node5" class="node">
<title>Node5</title>
<g id="a_node5"><a xlink:href="classLogger.html" target="_top" xlink:title="Class to enable simple logging to a Stream object with different log levels This enables embedding pe...">
<polygon fill="white" stroke="black" points="105,-212.5 105,-231.5 155,-231.5 155,-212.5 105,-212.5"/>
<text text-anchor="middle" x="130" y="-219.5" font-family="Helvetica,sans-Serif" font-size="10.00">Logger</text>
</a>
</g>
</g>
<!-- Node5&#45;&gt;Node1 -->
<g id="edge6" class="edge">
<title>Node5&#45;&gt;Node1</title>
<path fill="none" stroke="#9a32cd" stroke-dasharray="5,2" d="M127,-202.41C120.48,-161.98 105.11,-66.77 99.29,-30.7"/>
<polygon fill="#9a32cd" stroke="#9a32cd" points="123.58,-203.16 128.62,-212.47 130.49,-202.04 123.58,-203.16"/>
<text text-anchor="middle" x="131" y="-119" font-family="Helvetica,sans-Serif" font-size="10.00"> logger</text>
</g>
<!-- Node5&#45;&gt;Node4 -->
<g id="edge4" class="edge">
<title>Node5&#45;&gt;Node4</title>
<path fill="none" stroke="#9a32cd" stroke-dasharray="5,2" d="M148.58,-205.71C164.14,-192.91 185.8,-175.09 198.51,-164.63"/>
<polygon fill="#9a32cd" stroke="#9a32cd" points="146.15,-203.18 140.65,-212.23 150.6,-208.58 146.15,-203.18"/>
<text text-anchor="middle" x="194" y="-186" font-family="Helvetica,sans-Serif" font-size="10.00"> _logger</text>
</g>
<!-- Node6 -->
<g id="node6" class="node">
<title>Node6</title>
<g id="a_node6"><a xlink:href="classStream.html" target="_top" xlink:title="Class to mock the basic Stream function equivalent of the Arduino framework.">
<polygon fill="white" stroke="black" points="54,-279.5 54,-298.5 106,-298.5 106,-279.5 54,-279.5"/>
<text text-anchor="middle" x="80" y="-286.5" font-family="Helvetica,sans-Serif" font-size="10.00">Stream</text>
</a>
</g>
</g>
<!-- Node6&#45;&gt;Node1 -->
<g id="edge7" class="edge">
<title>Node6&#45;&gt;Node1</title>
<path fill="none" stroke="#9a32cd" stroke-dasharray="5,2" d="M73.03,-269.82C68.72,-256.94 64,-239.16 64,-223 64,-223 64,-223 64,-87 64,-65.92 76.25,-44.35 85.83,-30.72"/>
<polygon fill="#9a32cd" stroke="#9a32cd" points="69.78,-271.11 76.45,-279.34 76.37,-268.74 69.78,-271.11"/>
<text text-anchor="middle" x="83" y="-152.5" font-family="Helvetica,sans-Serif" font-size="10.00"> stream</text>
</g>
<!-- Node6&#45;&gt;Node5 -->
<g id="edge5" class="edge">
<title>Node6&#45;&gt;Node5</title>
<path fill="none" stroke="#9a32cd" stroke-dasharray="5,2" d="M92.87,-271.27C102.62,-258.6 115.61,-241.7 123.36,-231.63"/>
<polygon fill="#9a32cd" stroke="#9a32cd" points="90.07,-269.17 86.74,-279.23 95.61,-273.44 90.07,-269.17"/>
<text text-anchor="middle" x="145" y="-253" font-family="Helvetica,sans-Serif" font-size="10.00"> _outputStream</text>
</g>
</g>
</svg>
