<?xml version="1.0" encoding="UTF-8" standalone="no"?>
<!DOCTYPE svg PUBLIC "-//W3C//DTD SVG 1.1//EN"
 "http://www.w3.org/Graphics/SVG/1.1/DTD/svg11.dtd">
<!-- Generated by graphviz version 2.43.0 (0)
 -->
<!-- Title: ControllerTests Pages: 1 -->
<svg width="803pt" height="374pt"
 viewBox="0.00 0.00 803.00 374.00" xmlns="http://www.w3.org/2000/svg" xmlns:xlink="http://www.w3.org/1999/xlink">
<g id="graph0" class="graph" transform="scale(1 1) rotate(0) translate(4 370)">
<title>ControllerTests</title>
<polygon fill="white" stroke="transparent" points="-4,4 -4,-370 799,-370 799,4 -4,4"/>
<!-- Node1 -->
<g id="node1" class="node">
<title>Node1</title>
<g id="a_node1"><a xlink:title=" ">
<polygon fill="#bfbfbf" stroke="black" points="201.5,-0.5 201.5,-19.5 290.5,-19.5 290.5,-0.5 201.5,-0.5"/>
<text text-anchor="middle" x="246" y="-7.5" font-family="Helvetica,sans-Serif" font-size="10.00">ControllerTests</text>
</a>
</g>
</g>
<!-- Node2 -->
<g id="node2" class="node">
<title>Node2</title>
<g id="a_node2"><a xlink:title=" ">
<polygon fill="white" stroke="#bfbfbf" points="0,-67.5 0,-86.5 36,-86.5 36,-67.5 0,-67.5"/>
<text text-anchor="middle" x="18" y="-74.5" font-family="Helvetica,sans-Serif" font-size="10.00">Test</text>
</a>
</g>
</g>
<!-- Node2&#45;&gt;Node1 -->
<g id="edge1" class="edge">
<title>Node2&#45;&gt;Node1</title>
<path fill="none" stroke="midnightblue" d="M28.12,-59.04C33.61,-51.35 41.1,-42.91 50,-38 75.27,-24.07 151.78,-16.79 201.4,-13.44"/>
<polygon fill="midnightblue" stroke="midnightblue" points="25.16,-57.16 22.63,-67.45 31.03,-60.99 25.16,-57.16"/>
</g>
<!-- Node3 -->
<g id="node3" class="node">
<title>Node3</title>
<g id="a_node3"><a xlink:href="classScreenManager.html" target="_top" xlink:title="Class to manage all EX&#45;Display screens.">
<polygon fill="white" stroke="black" points="200,-67.5 200,-86.5 292,-86.5 292,-67.5 200,-67.5"/>
<text text-anchor="middle" x="246" y="-74.5" font-family="Helvetica,sans-Serif" font-size="10.00">ScreenManager</text>
</a>
</g>
</g>
<!-- Node3&#45;&gt;Node1 -->
<g id="edge2" class="edge">
<title>Node3&#45;&gt;Node1</title>
<path fill="none" stroke="#9a32cd" stroke-dasharray="5,2" d="M246,-57.04C246,-44.67 246,-29.12 246,-19.63"/>
<polygon fill="#9a32cd" stroke="#9a32cd" points="242.5,-57.23 246,-67.23 249.5,-57.23 242.5,-57.23"/>
<text text-anchor="middle" x="285.5" y="-41" font-family="Helvetica,sans-Serif" font-size="10.00"> screenManager</text>
</g>
<!-- Node4 -->
<g id="node4" class="node">
<title>Node4</title>
<g id="a_node4"><a xlink:href="classScreen.html" target="_top" xlink:title="Class for each screen as received from the EXRAIL SCREEN() command Each Screen instance contains a li...">
<polygon fill="white" stroke="black" points="177,-134.5 177,-153.5 227,-153.5 227,-134.5 177,-134.5"/>
<text text-anchor="middle" x="202" y="-141.5" font-family="Helvetica,sans-Serif" font-size="10.00">Screen</text>
</a>
</g>
</g>
<!-- Node4&#45;&gt;Node3 -->
<g id="edge3" class="edge">
<title>Node4&#45;&gt;Node3</title>
<path fill="none" stroke="#9a32cd" stroke-dasharray="5,2" d="M213.57,-125.9C222.12,-113.27 233.41,-96.6 240.16,-86.63"/>
<polygon fill="#9a32cd" stroke="#9a32cd" points="210.64,-123.99 207.93,-134.23 216.44,-127.91 210.64,-123.99"/>
<text text-anchor="middle" x="256.5" y="-108" font-family="Helvetica,sans-Serif" font-size="10.00"> _firstScreen</text>
</g>
<!-- Node4&#45;&gt;Node4 -->
<g id="edge8" class="edge">
<title>Node4&#45;&gt;Node4</title>
<path fill="none" stroke="#9a32cd" stroke-dasharray="5,2" d="M237.45,-149.25C242,-148.34 245,-146.59 245,-144 245,-139.75 236.91,-137.76 227.18,-138.02"/>
<polygon fill="#9a32cd" stroke="#9a32cd" points="236.91,-145.78 227.18,-149.98 237.4,-152.77 236.91,-145.78"/>
<text text-anchor="middle" x="260.5" y="-141.5" font-family="Helvetica,sans-Serif" font-size="10.00"> _next</text>
</g>
<!-- Node5 -->
<g id="node5" class="node">
<title>Node5</title>
<g id="a_node5"><a xlink:href="classScreenRow.html" target="_top" xlink:title=" ">
<polygon fill="white" stroke="black" points="173.5,-212.5 173.5,-231.5 244.5,-231.5 244.5,-212.5 173.5,-212.5"/>
<text text-anchor="middle" x="209" y="-219.5" font-family="Helvetica,sans-Serif" font-size="10.00">ScreenRow</text>
</a>
</g>
</g>
<!-- Node5&#45;&gt;Node4 -->
<g id="edge4" class="edge">
<title>Node5&#45;&gt;Node4</title>
<path fill="none" stroke="#9a32cd" stroke-dasharray="5,2" d="M204.32,-202.2C203.79,-199.46 203.32,-196.67 203,-194 201.32,-179.98 201.4,-163.54 201.66,-153.71"/>
<polygon fill="#9a32cd" stroke="#9a32cd" points="200.94,-203.09 206.55,-212.08 207.76,-201.55 200.94,-203.09"/>
<text text-anchor="middle" x="244" y="-180.5" font-family="Helvetica,sans-Serif" font-size="10.00"> _firstScreenRow</text>
</g>
<!-- Node5&#45;&gt;Node5 -->
<g id="edge5" class="edge">
<title>Node5&#45;&gt;Node5</title>
<path fill="none" stroke="#9a32cd" stroke-dasharray="5,2" d="M254.78,-226.95C259.49,-225.97 262.5,-224.32 262.5,-222 262.5,-218.28 254.79,-216.29 244.75,-216.03"/>
<polygon fill="#9a32cd" stroke="#9a32cd" points="254.35,-223.47 244.75,-227.97 255.06,-230.44 254.35,-223.47"/>
<text text-anchor="middle" x="278" y="-219.5" font-family="Helvetica,sans-Serif" font-size="10.00"> _next</text>
</g>
<!-- Node6 -->
<g id="node6" class="node">
<title>Node6</title>
<g id="a_node6"><a xlink:href="classLogger.html" target="_top" xlink:title="Class to enable simple logging to a Stream object with different log levels This enables embedding pe...">
<polygon fill="white" stroke="black" points="335,-279.5 335,-298.5 385,-298.5 385,-279.5 335,-279.5"/>
<text text-anchor="middle" x="360" y="-286.5" font-family="Helvetica,sans-Serif" font-size="10.00">Logger</text>
</a>
</g>
</g>
<!-- Node6&#45;&gt;Node3 -->
<g id="edge10" class="edge">
<title>Node6&#45;&gt;Node3</title>
<path fill="none" stroke="#9a32cd" stroke-dasharray="5,2" d="M357.16,-269.4C350.9,-233.86 333.01,-155.34 291,-105 284.46,-97.17 275.03,-91.02 266.49,-86.58"/>
<polygon fill="#9a32cd" stroke="#9a32cd" points="353.72,-270.05 358.8,-279.34 360.62,-268.91 353.72,-270.05"/>
<text text-anchor="middle" x="357" y="-180.5" font-family="Helvetica,sans-Serif" font-size="10.00"> _logger</text>
</g>
<!-- Node6&#45;&gt;Node4 -->
<g id="edge9" class="edge">
<title>Node6&#45;&gt;Node4</title>
<path fill="none" stroke="#9a32cd" stroke-dasharray="5,2" d="M324.85,-284.88C265.48,-278.8 149.41,-263.14 125,-232 119.52,-225 120.81,-219.84 125,-212 131.81,-199.28 140.8,-203.09 152,-194 167.86,-181.13 184.43,-164.05 193.96,-153.83"/>
<polygon fill="#9a32cd" stroke="#9a32cd" points="324.6,-288.37 334.9,-285.87 325.29,-281.4 324.6,-288.37"/>
<text text-anchor="middle" x="145" y="-219.5" font-family="Helvetica,sans-Serif" font-size="10.00"> _logger</text>
</g>
<!-- Node6&#45;&gt;Node5 -->
<g id="edge6" class="edge">
<title>Node6&#45;&gt;Node5</title>
<path fill="none" stroke="#9a32cd" stroke-dasharray="5,2" d="M324.87,-280.22C307.35,-275.71 286.1,-269.27 268,-261 250.27,-252.89 231.66,-240.08 220.19,-231.6"/>
<polygon fill="#9a32cd" stroke="#9a32cd" points="324.15,-283.64 334.7,-282.65 325.84,-276.85 324.15,-283.64"/>
<text text-anchor="middle" x="288" y="-253" font-family="Helvetica,sans-Serif" font-size="10.00"> _logger</text>
</g>
<!-- Node8 -->
<g id="node8" class="node">
<title>Node8</title>
<g id="a_node8"><a xlink:href="classDisplayManager.html" target="_top" xlink:title="Manages all physical displays.">
<polygon fill="white" stroke="black" points="680,-134.5 680,-153.5 776,-153.5 776,-134.5 680,-134.5"/>
<text text-anchor="middle" x="728" y="-141.5" font-family="Helvetica,sans-Serif" font-size="10.00">DisplayManager</text>
</a>
</g>
</g>
<!-- Node6&#45;&gt;Node8 -->
<g id="edge12" class="edge">
<title>Node6&#45;&gt;Node8</title>
<path fill="none" stroke="#9a32cd" stroke-dasharray="5,2" d="M395.28,-287.63C479.63,-286.02 689.69,-277.44 740,-232 760.25,-213.71 762.96,-197.4 753,-172 750.2,-164.86 744.54,-158.48 739.3,-153.72"/>
<polygon fill="#9a32cd" stroke="#9a32cd" points="395.11,-284.14 385.17,-287.8 395.23,-291.14 395.11,-284.14"/>
<text text-anchor="middle" x="775" y="-219.5" font-family="Helvetica,sans-Serif" font-size="10.00"> _logger</text>
</g>
<!-- Node9 -->
<g id="node9" class="node">
<title>Node9</title>
<g id="a_node9"><a xlink:href="classDisplayInterface.html" target="_top" xlink:title="Class to abstract away all physical display implementation to enable multiple display types.">
<polygon fill="white" stroke="black" points="584.5,-212.5 584.5,-231.5 681.5,-231.5 681.5,-212.5 584.5,-212.5"/>
<text text-anchor="middle" x="633" y="-219.5" font-family="Helvetica,sans-Serif" font-size="10.00">DisplayInterface</text>
</a>
</g>
</g>
<!-- Node6&#45;&gt;Node9 -->
<g id="edge14" class="edge">
<title>Node6&#45;&gt;Node9</title>
<path fill="none" stroke="#9a32cd" stroke-dasharray="5,2" d="M395.32,-285.21C432,-281.74 490.78,-274.54 540,-261 567.24,-253.51 597.25,-240.28 615.61,-231.58"/>
<polygon fill="#9a32cd" stroke="#9a32cd" points="394.78,-281.75 385.14,-286.14 395.41,-288.72 394.78,-281.75"/>
<text text-anchor="middle" x="591" y="-253" font-family="Helvetica,sans-Serif" font-size="10.00"> _logger</text>
</g>
<!-- Node10 -->
<g id="node10" class="node">
<title>Node10</title>
<g id="a_node10"><a xlink:href="classInputManager.html" target="_top" xlink:title=" ">
<polygon fill="white" stroke="black" points="383,-67.5 383,-86.5 467,-86.5 467,-67.5 383,-67.5"/>
<text text-anchor="middle" x="425" y="-74.5" font-family="Helvetica,sans-Serif" font-size="10.00">InputManager</text>
</a>
</g>
</g>
<!-- Node6&#45;&gt;Node10 -->
<g id="edge23" class="edge">
<title>Node6&#45;&gt;Node10</title>
<path fill="none" stroke="#9a32cd" stroke-dasharray="5,2" d="M364.56,-269.25C368.33,-253.85 373.89,-231.48 379,-212 383.68,-194.17 384.33,-189.55 390,-172 400.28,-140.18 414.83,-103.22 421.46,-86.72"/>
<polygon fill="#9a32cd" stroke="#9a32cd" points="361.13,-268.55 362.16,-279.09 367.93,-270.21 361.13,-268.55"/>
<text text-anchor="middle" x="410" y="-180.5" font-family="Helvetica,sans-Serif" font-size="10.00"> _logger</text>
</g>
<!-- Node11 -->
<g id="node11" class="node">
<title>Node11</title>
<g id="a_node11"><a xlink:href="classCallbackInterface.html" target="_top" xlink:title="Interface class to use for callbacks.">
<polygon fill="white" stroke="black" points="388,-212.5 388,-231.5 490,-231.5 490,-212.5 388,-212.5"/>
<text text-anchor="middle" x="439" y="-219.5" font-family="Helvetica,sans-Serif" font-size="10.00">CallbackInterface</text>
</a>
</g>
</g>
<!-- Node6&#45;&gt;Node11 -->
<g id="edge18" class="edge">
<title>Node6&#45;&gt;Node11</title>
<path fill="none" stroke="#9a32cd" stroke-dasharray="5,2" d="M378.58,-272.71C394.14,-259.91 415.8,-242.09 428.51,-231.63"/>
<polygon fill="#9a32cd" stroke="#9a32cd" points="376.15,-270.18 370.65,-279.23 380.6,-275.58 376.15,-270.18"/>
<text text-anchor="middle" x="424" y="-253" font-family="Helvetica,sans-Serif" font-size="10.00"> _logger</text>
</g>
<!-- Node12 -->
<g id="node12" class="node">
<title>Node12</title>
<g id="a_node12"><a xlink:href="classInputInterface.html" target="_top" xlink:title="Class to abstract away all physical input implementatio to enable multiple input types Default return...">
<polygon fill="white" stroke="black" points="492.5,-134.5 492.5,-153.5 577.5,-153.5 577.5,-134.5 492.5,-134.5"/>
<text text-anchor="middle" x="535" y="-141.5" font-family="Helvetica,sans-Serif" font-size="10.00">InputInterface</text>
</a>
</g>
</g>
<!-- Node6&#45;&gt;Node12 -->
<g id="edge21" class="edge">
<title>Node6&#45;&gt;Node12</title>
<path fill="none" stroke="#9a32cd" stroke-dasharray="5,2" d="M395.39,-282.84C427,-276.38 472.32,-262.23 499,-232 519.98,-208.22 529.84,-170.52 533.38,-153.65"/>
<polygon fill="#9a32cd" stroke="#9a32cd" points="394.42,-279.47 385.24,-284.75 395.71,-286.34 394.42,-279.47"/>
<text text-anchor="middle" x="532" y="-219.5" font-family="Helvetica,sans-Serif" font-size="10.00"> _logger</text>
</g>
<!-- Node7 -->
<g id="node7" class="node">
<title>Node7</title>
<g id="a_node7"><a xlink:href="classStream.html" target="_top" xlink:title="Class to mock the basic Stream function equivalent of the Arduino framework.">
<polygon fill="white" stroke="black" points="54,-346.5 54,-365.5 106,-365.5 106,-346.5 54,-346.5"/>
<text text-anchor="middle" x="80" y="-353.5" font-family="Helvetica,sans-Serif" font-size="10.00">Stream</text>
</a>
</g>
</g>
<!-- Node7&#45;&gt;Node1 -->
<g id="edge25" class="edge">
<title>Node7&#45;&gt;Node1</title>
<path fill="none" stroke="#9a32cd" stroke-dasharray="5,2" d="M73.03,-336.82C68.72,-323.94 64,-306.16 64,-290 64,-290 64,-290 64,-76 64,-46.89 147.6,-27.38 201.48,-17.83"/>
<polygon fill="#9a32cd" stroke="#9a32cd" points="69.78,-338.11 76.45,-346.34 76.37,-335.74 69.78,-338.11"/>
<text text-anchor="middle" x="107.5" y="-186" font-family="Helvetica,sans-Serif" font-size="10.00"> commandStation</text>
<text text-anchor="middle" x="107.5" y="-175" font-family="Helvetica,sans-Serif" font-size="10.00">console</text>
</g>
<!-- Node7&#45;&gt;Node6 -->
<g id="edge7" class="edge">
<title>Node7&#45;&gt;Node6</title>
<path fill="none" stroke="#9a32cd" stroke-dasharray="5,2" d="M115.84,-346.68C173.32,-333.34 284.72,-307.48 334.68,-295.88"/>
<polygon fill="#9a32cd" stroke="#9a32cd" points="115.04,-343.27 106.09,-348.94 116.62,-350.09 115.04,-343.27"/>
<text text-anchor="middle" x="274" y="-320" font-family="Helvetica,sans-Serif" font-size="10.00"> _outputStream</text>
</g>
<!-- Node8&#45;&gt;Node1 -->
<g id="edge11" class="edge">
<title>Node8&#45;&gt;Node1</title>
<path fill="none" stroke="#9a32cd" stroke-dasharray="5,2" d="M699.09,-130.53C646.92,-108.53 533.14,-62.79 433,-38 385.08,-26.14 328.87,-18.89 290.69,-14.93"/>
<polygon fill="#9a32cd" stroke="#9a32cd" points="697.82,-133.79 708.39,-134.48 700.55,-127.35 697.82,-133.79"/>
<text text-anchor="middle" x="627" y="-74.5" font-family="Helvetica,sans-Serif" font-size="10.00"> displayManager</text>
</g>
<!-- Node9&#45;&gt;Node8 -->
<g id="edge13" class="edge">
<title>Node9&#45;&gt;Node8</title>
<path fill="none" stroke="#9a32cd" stroke-dasharray="5,2" d="M649.76,-205.45C660.67,-195.55 675.36,-182.63 689,-172 697.31,-165.52 707.06,-158.77 714.73,-153.64"/>
<polygon fill="#9a32cd" stroke="#9a32cd" points="647.24,-203.01 642.23,-212.34 651.97,-208.17 647.24,-203.01"/>
<text text-anchor="middle" x="721" y="-180.5" font-family="Helvetica,sans-Serif" font-size="10.00"> _firstDisplay</text>
</g>
<!-- Node9&#45;&gt;Node9 -->
<g id="edge15" class="edge">
<title>Node9&#45;&gt;Node9</title>
<path fill="none" stroke="#9a32cd" stroke-dasharray="5,2" d="M691.88,-226.58C696.59,-225.58 699.5,-224.05 699.5,-222 699.5,-218.72 692.04,-216.78 681.71,-216.19"/>
<polygon fill="#9a32cd" stroke="#9a32cd" points="691.22,-223.13 681.71,-227.81 692.06,-230.08 691.22,-223.13"/>
<text text-anchor="middle" x="715" y="-219.5" font-family="Helvetica,sans-Serif" font-size="10.00"> _next</text>
</g>
<!-- Node9&#45;&gt;Node10 -->
<g id="edge24" class="edge">
<title>Node9&#45;&gt;Node10</title>
<path fill="none" stroke="#9a32cd" stroke-dasharray="5,2" d="M627.3,-202.75C620.47,-183.46 607.32,-153.23 587,-134 554.15,-102.91 503.2,-88.99 467.22,-82.82"/>
<polygon fill="#9a32cd" stroke="#9a32cd" points="624.05,-204.06 630.53,-212.44 630.69,-201.84 624.05,-204.06"/>
<text text-anchor="middle" x="625" y="-141.5" font-family="Helvetica,sans-Serif" font-size="10.00"> _display</text>
</g>
<!-- Node9&#45;&gt;Node12 -->
<g id="edge22" class="edge">
<title>Node9&#45;&gt;Node12</title>
<path fill="none" stroke="#9a32cd" stroke-dasharray="5,2" d="M584.22,-208.75C575.49,-205.02 566.97,-200.2 560,-194 547.72,-183.09 540.66,-164.72 537.34,-153.84"/>
<polygon fill="#9a32cd" stroke="#9a32cd" points="583.11,-212.07 593.7,-212.39 585.62,-205.54 583.11,-212.07"/>
<text text-anchor="middle" x="582" y="-180.5" font-family="Helvetica,sans-Serif" font-size="10.00"> _display</text>
</g>
<!-- Node10&#45;&gt;Node1 -->
<g id="edge16" class="edge">
<title>Node10&#45;&gt;Node1</title>
<path fill="none" stroke="#9a32cd" stroke-dasharray="5,2" d="M395.28,-63.68C376.41,-56 351.4,-46.07 329,-38 310.75,-31.43 290,-24.68 273.81,-19.57"/>
<polygon fill="#9a32cd" stroke="#9a32cd" points="393.96,-66.92 404.54,-67.47 396.61,-60.44 393.96,-66.92"/>
<text text-anchor="middle" x="393.5" y="-41" font-family="Helvetica,sans-Serif" font-size="10.00"> inputManager</text>
</g>
<!-- Node11&#45;&gt;Node10 -->
<g id="edge17" class="edge">
<title>Node11&#45;&gt;Node10</title>
<path fill="none" stroke="#9a32cd" stroke-dasharray="5,2" d="M437.19,-202.51C434.14,-171.31 428.07,-109.41 425.85,-86.65"/>
<polygon fill="#9a32cd" stroke="#9a32cd" points="433.71,-202.87 438.17,-212.48 440.68,-202.19 433.71,-202.87"/>
<text text-anchor="middle" x="456.5" y="-141.5" font-family="Helvetica,sans-Serif" font-size="10.00"> _callback</text>
</g>
<!-- Node11&#45;&gt;Node12 -->
<g id="edge20" class="edge">
<title>Node11&#45;&gt;Node12</title>
<path fill="none" stroke="#9a32cd" stroke-dasharray="5,2" d="M444.3,-202.53C448.05,-192.33 454.05,-180.13 463,-172 472.29,-163.57 484.47,-157.68 496.16,-153.62"/>
<polygon fill="#9a32cd" stroke="#9a32cd" points="440.93,-201.58 441.16,-212.17 447.58,-203.75 440.93,-201.58"/>
<text text-anchor="middle" x="487.5" y="-180.5" font-family="Helvetica,sans-Serif" font-size="10.00"> _callback</text>
</g>
<!-- Node12&#45;&gt;Node10 -->
<g id="edge19" class="edge">
<title>Node12&#45;&gt;Node10</title>
<path fill="none" stroke="#9a32cd" stroke-dasharray="5,2" d="M511.5,-129.12C489.71,-116.24 457.96,-97.48 439.6,-86.63"/>
<polygon fill="#9a32cd" stroke="#9a32cd" points="509.78,-132.16 520.16,-134.23 513.34,-126.13 509.78,-132.16"/>
<text text-anchor="middle" x="503" y="-108" font-family="Helvetica,sans-Serif" font-size="10.00"> _input</text>
</g>
</g>
</svg>
