<?xml version="1.0" encoding="UTF-8" standalone="no"?>
<!DOCTYPE svg PUBLIC "-//W3C//DTD SVG 1.1//EN"
 "http://www.w3.org/Graphics/SVG/1.1/DTD/svg11.dtd">
<!-- Generated by graphviz version 2.43.0 (0)
 -->
<!-- Title: DisplayInterface::getScreenId Pages: 1 -->
<svg width="540pt" height="116pt"
 viewBox="0.00 0.00 540.00 116.00" xmlns="http://www.w3.org/2000/svg" xmlns:xlink="http://www.w3.org/1999/xlink">
<g id="graph0" class="graph" transform="scale(1 1) rotate(0) translate(4 112)">
<title>DisplayInterface::getScreenId</title>
<polygon fill="white" stroke="transparent" points="-4,4 -4,-112 536,-112 536,4 -4,4"/>
<!-- Node1 -->
<g id="node1" class="node">
<title>Node1</title>
<g id="a_node1"><a xlink:title="Get the Screen ID this display is currently displaing.">
<polygon fill="#bfbfbf" stroke="black" points="371,-44.5 371,-63.5 532,-63.5 532,-44.5 371,-44.5"/>
<text text-anchor="middle" x="451.5" y="-51.5" font-family="Helvetica,sans-Serif" font-size="10.00">DisplayInterface::getScreenId</text>
</a>
</g>
</g>
<!-- Node2 -->
<g id="node2" class="node">
<title>Node2</title>
<g id="a_node2"><a xlink:href="classController.html#aa981e303ca83593ffb34db49c7d73cc6" target="_top" xlink:title="Selects the next screen for the selected display.">
<polygon fill="white" stroke="black" points="174,-88.5 174,-107.5 335,-107.5 335,-88.5 174,-88.5"/>
<text text-anchor="middle" x="254.5" y="-95.5" font-family="Helvetica,sans-Serif" font-size="10.00">Controller::_selectNextScreen</text>
</a>
</g>
</g>
<!-- Node1&#45;&gt;Node2 -->
<g id="edge1" class="edge">
<title>Node1&#45;&gt;Node2</title>
<path fill="none" stroke="midnightblue" d="M398.28,-65.78C366.8,-72.89 327.22,-81.82 297.73,-88.47"/>
<polygon fill="midnightblue" stroke="midnightblue" points="399.2,-69.16 408.19,-63.55 397.66,-62.33 399.2,-69.16"/>
</g>
<!-- Node4 -->
<g id="node4" class="node">
<title>Node4</title>
<g id="a_node4"><a xlink:href="classController.html#a3e02f73e534a929849f981ec892b4f54" target="_top" xlink:title="Selects the previous screen for the selected display.">
<polygon fill="white" stroke="black" points="181,-39 181,-69 328,-69 328,-39 181,-39"/>
<text text-anchor="start" x="189" y="-57" font-family="Helvetica,sans-Serif" font-size="10.00">Controller::_selectPrevious</text>
<text text-anchor="middle" x="254.5" y="-46" font-family="Helvetica,sans-Serif" font-size="10.00">Screen</text>
</a>
</g>
</g>
<!-- Node1&#45;&gt;Node4 -->
<g id="edge3" class="edge">
<title>Node1&#45;&gt;Node4</title>
<path fill="none" stroke="midnightblue" d="M360.58,-54C349.75,-54 338.79,-54 328.25,-54"/>
<polygon fill="midnightblue" stroke="midnightblue" points="360.9,-57.5 370.9,-54 360.9,-50.5 360.9,-57.5"/>
</g>
<!-- Node5 -->
<g id="node5" class="node">
<title>Node5</title>
<g id="a_node5"><a xlink:href="test__ControllerInputAction_8cpp.html#a8f23663971c4dff626cd0d8c765fd290" target="_top" xlink:title="This test ensures left/right buttons or touches switch the active screen.">
<polygon fill="white" stroke="black" points="228.5,-0.5 228.5,-19.5 280.5,-19.5 280.5,-0.5 228.5,-0.5"/>
<text text-anchor="middle" x="254.5" y="-7.5" font-family="Helvetica,sans-Serif" font-size="10.00">TEST_F</text>
</a>
</g>
</g>
<!-- Node1&#45;&gt;Node5 -->
<g id="edge5" class="edge">
<title>Node1&#45;&gt;Node5</title>
<path fill="none" stroke="midnightblue" d="M398.29,-42.22C360.24,-33.63 310.36,-22.38 280.74,-15.7"/>
<polygon fill="midnightblue" stroke="midnightblue" points="397.66,-45.67 408.19,-44.45 399.2,-38.84 397.66,-45.67"/>
</g>
<!-- Node3 -->
<g id="node3" class="node">
<title>Node3</title>
<g id="a_node3"><a xlink:href="classController.html#af9c9f10320fb7770553156da4d164e64" target="_top" xlink:title="Method to implement to respond to an input action.">
<polygon fill="white" stroke="black" points="0,-66.5 0,-85.5 138,-85.5 138,-66.5 0,-66.5"/>
<text text-anchor="middle" x="69" y="-73.5" font-family="Helvetica,sans-Serif" font-size="10.00">Controller::onInputAction</text>
</a>
</g>
</g>
<!-- Node2&#45;&gt;Node3 -->
<g id="edge2" class="edge">
<title>Node2&#45;&gt;Node3</title>
<path fill="none" stroke="midnightblue" d="M163.9,-87.26C155.2,-86.21 146.47,-85.17 138.03,-84.16"/>
<polygon fill="midnightblue" stroke="midnightblue" points="163.74,-90.76 174.08,-88.48 164.57,-83.81 163.74,-90.76"/>
</g>
<!-- Node4&#45;&gt;Node3 -->
<g id="edge4" class="edge">
<title>Node4&#45;&gt;Node3</title>
<path fill="none" stroke="midnightblue" d="M170.96,-63.9C159.97,-65.21 148.81,-66.55 138.11,-67.83"/>
<polygon fill="midnightblue" stroke="midnightblue" points="171.46,-67.36 180.98,-62.69 170.63,-60.41 171.46,-67.36"/>
</g>
</g>
</svg>
