<?xml version="1.0" encoding="UTF-8" standalone="no"?>
<!DOCTYPE svg PUBLIC "-//W3C//DTD SVG 1.1//EN"
 "http://www.w3.org/Graphics/SVG/1.1/DTD/svg11.dtd">
<!-- Generated by graphviz version 2.43.0 (0)
 -->
<!-- Title: MockColourDisplay::displayRow Pages: 1 -->
<svg width="491pt" height="278pt"
 viewBox="0.00 0.00 491.00 278.00" xmlns="http://www.w3.org/2000/svg" xmlns:xlink="http://www.w3.org/1999/xlink">

<svg id="main" version="1.1" xmlns="http://www.w3.org/2000/svg" xmlns:xlink="http://www.w3.org/1999/xlink" xml:space="preserve" onload="init(evt)">
<style type="text/css"><![CDATA[
.node, .edge {opacity: 0.7;}
.node.selected, .edge.selected {opacity: 1;}
.edge:hover path { stroke: red; }
.edge:hover polygon { stroke: red; fill: red; }
]]></style>
<script type="application/ecmascript" xlink:href="svg.min.js"/>
<svg id="graph" class="graph">
<g id="graph0" class="graph" transform="scale(1 1) rotate(0) translate(4 274)">
<title>MockColourDisplay::displayRow</title>
<!-- Node1 -->
<g id="Node000001" class="node">
<title>Node1</title>
<g id="a_Node000001"><a xlink:title=" ">
<polygon fill="#999999" stroke="#666666" points="116,-150 0,-150 0,-120 116,-120 116,-150"/>
<text text-anchor="start" x="8" y="-138" font-family="Helvetica,sans-Serif" font-size="10.00">MockColourDisplay::</text>
<text text-anchor="middle" x="58" y="-127" font-family="Helvetica,sans-Serif" font-size="10.00">displayRow</text>
</a>
</g>
</g>
<!-- Node2 -->
<g id="Node000002" class="node">
<title>Node2</title>
<g id="a_Node000002"><a xlink:href="classDisplayInterface.html#a1bc192c6854bae554c9aa09cd7122cdc" target="_top" xlink:title="Static method to enable calling back to a derived class with a formatted row.">
<polygon fill="white" stroke="#666666" points="309,-144.5 152,-144.5 152,-125.5 309,-125.5 309,-144.5"/>
<text text-anchor="middle" x="230.5" y="-132.5" font-family="Helvetica,sans-Serif" font-size="10.00">DisplayInterface::formatRow</text>
</a>
</g>
</g>
<!-- Node1&#45;&gt;Node2 -->
<g id="edge1_Node000001_Node000002" class="edge">
<title>Node1&#45;&gt;Node2</title>
<g id="a_edge1_Node000001_Node000002"><a xlink:title=" ">
<path fill="none" stroke="#63b8ff" d="M116.25,-135C124.45,-135 133.05,-135 141.68,-135"/>
<polygon fill="#63b8ff" stroke="#63b8ff" points="141.8,-138.5 151.8,-135 141.8,-131.5 141.8,-138.5"/>
</a>
</g>
</g>
<!-- Node3 -->
<g id="Node000003" class="node">
<title>Node3</title>
<g id="a_Node000003"><a xlink:href="classDisplayInterface.html#acde7922833a368ce3233fe4d721f838a" target="_top" xlink:title="Convert the provided RGB colour code string constant to a uint16_t RGB565 colour.">
<polygon fill="white" stroke="#666666" points="478,-270 350,-270 350,-240 478,-240 478,-270"/>
<text text-anchor="start" x="358" y="-258" font-family="Helvetica,sans-Serif" font-size="10.00">DisplayInterface::</text>
<text text-anchor="middle" x="414" y="-247" font-family="Helvetica,sans-Serif" font-size="10.00">_convertRGBtoRGB565</text>
</a>
</g>
</g>
<!-- Node2&#45;&gt;Node3 -->
<g id="edge2_Node000002_Node000003" class="edge">
<title>Node2&#45;&gt;Node3</title>
<g id="a_edge2_Node000002_Node000003"><a xlink:title=" ">
<path fill="none" stroke="#63b8ff" d="M240.6,-144.78C258.78,-163.8 301.57,-206.09 345,-231 347.88,-232.65 350.89,-234.22 353.97,-235.7"/>
<polygon fill="#63b8ff" stroke="#63b8ff" points="352.84,-239.02 363.39,-239.89 355.68,-232.63 352.84,-239.02"/>
</a>
</g>
</g>
<!-- Node4 -->
<g id="Node000004" class="node">
<title>Node4</title>
<g id="a_Node000004"><a xlink:href="classDisplayInterface.html#ad8da5e63e3775f8f02b04636a9482d97" target="_top" xlink:title="Validates the provided char is a valid modifier.">
<polygon fill="white" stroke="#666666" points="465.5,-222 362.5,-222 362.5,-192 465.5,-192 465.5,-222"/>
<text text-anchor="start" x="370.5" y="-210" font-family="Helvetica,sans-Serif" font-size="10.00">DisplayInterface::</text>
<text text-anchor="middle" x="414" y="-199" font-family="Helvetica,sans-Serif" font-size="10.00">_isModifier</text>
</a>
</g>
</g>
<!-- Node2&#45;&gt;Node4 -->
<g id="edge3_Node000002_Node000004" class="edge">
<title>Node2&#45;&gt;Node4</title>
<g id="a_edge3_Node000002_Node000004"><a xlink:title=" ">
<path fill="none" stroke="#63b8ff" d="M253.1,-144.6C275.82,-154.58 312.68,-170.48 345,-183 349.69,-184.82 354.59,-186.66 359.51,-188.47"/>
<polygon fill="#63b8ff" stroke="#63b8ff" points="358.37,-191.78 368.96,-191.9 360.75,-185.2 358.37,-191.78"/>
</a>
</g>
</g>
<!-- Node5 -->
<g id="Node000005" class="node">
<title>Node5</title>
<g id="a_Node000005"><a xlink:href="classDisplayInterface.html#ac5cc108ca1c1410a8321078b3868ed78" target="_top" xlink:title="Check if the provided string constant translates to a valid RGB colour code.">
<polygon fill="white" stroke="#666666" points="465.5,-174 362.5,-174 362.5,-144 465.5,-144 465.5,-174"/>
<text text-anchor="start" x="370.5" y="-162" font-family="Helvetica,sans-Serif" font-size="10.00">DisplayInterface::</text>
<text text-anchor="middle" x="414" y="-151" font-family="Helvetica,sans-Serif" font-size="10.00">_isRGB</text>
</a>
</g>
</g>
<!-- Node2&#45;&gt;Node5 -->
<g id="edge4_Node000002_Node000005" class="edge">
<title>Node2&#45;&gt;Node5</title>
<g id="a_edge4_Node000002_Node000005"><a xlink:title=" ">
<path fill="none" stroke="#63b8ff" d="M303.49,-144.52C319.65,-146.66 336.64,-148.9 352.28,-150.97"/>
<polygon fill="#63b8ff" stroke="#63b8ff" points="351.97,-154.46 362.34,-152.3 352.89,-147.52 351.97,-154.46"/>
</a>
</g>
</g>
<!-- Node6 -->
<g id="Node000006" class="node">
<title>Node6</title>
<g id="a_Node000006"><a xlink:href="classDisplayInterface.html#a96f1a22d4566a22aefd3b652808d9441" target="_top" xlink:title="Sanitise the provided struct of RowAttributes.">
<polygon fill="white" stroke="#666666" points="468,-126 360,-126 360,-96 468,-96 468,-126"/>
<text text-anchor="start" x="368" y="-114" font-family="Helvetica,sans-Serif" font-size="10.00">DisplayInterface::</text>
<text text-anchor="middle" x="414" y="-103" font-family="Helvetica,sans-Serif" font-size="10.00">_sanitiseAttributes</text>
</a>
</g>
</g>
<!-- Node2&#45;&gt;Node6 -->
<g id="edge5_Node000002_Node000006" class="edge">
<title>Node2&#45;&gt;Node6</title>
<g id="a_edge5_Node000002_Node000006"><a xlink:title=" ">
<path fill="none" stroke="#63b8ff" d="M303.49,-125.48C318.77,-123.46 334.79,-121.34 349.72,-119.37"/>
<polygon fill="#63b8ff" stroke="#63b8ff" points="350.4,-122.81 359.86,-118.03 349.48,-115.87 350.4,-122.81"/>
</a>
</g>
</g>
<!-- Node7 -->
<g id="Node000007" class="node">
<title>Node7</title>
<g id="a_Node000007"><a xlink:href="classDisplayInterface.html#a652c6ce102531b9dd02fb960946987c8" target="_top" xlink:title="Update the provided RowAttributes struct according to the provided modifier.">
<polygon fill="white" stroke="#666666" points="465.5,-78 362.5,-78 362.5,-48 465.5,-48 465.5,-78"/>
<text text-anchor="start" x="370.5" y="-66" font-family="Helvetica,sans-Serif" font-size="10.00">DisplayInterface::</text>
<text text-anchor="middle" x="414" y="-55" font-family="Helvetica,sans-Serif" font-size="10.00">_setAttribute</text>
</a>
</g>
</g>
<!-- Node2&#45;&gt;Node7 -->
<g id="edge6_Node000002_Node000007" class="edge">
<title>Node2&#45;&gt;Node7</title>
<g id="a_edge6_Node000002_Node000007"><a xlink:title=" ">
<path fill="none" stroke="#63b8ff" d="M253.1,-125.4C275.82,-115.42 312.68,-99.52 345,-87 349.69,-85.18 354.59,-83.34 359.51,-81.53"/>
<polygon fill="#63b8ff" stroke="#63b8ff" points="360.75,-84.8 368.96,-78.1 358.37,-78.22 360.75,-84.8"/>
</a>
</g>
</g>
<!-- Node8 -->
<g id="Node000008" class="node">
<title>Node8</title>
<g id="a_Node000008"><a xlink:href="classDisplayInterface.html#a8e1258fa3f32baf1587b80354c8afdb3" target="_top" xlink:title="Display a row using formatting modifiers.">
<polygon fill="white" stroke="#666666" points="483,-30 345,-30 345,0 483,0 483,-30"/>
<text text-anchor="start" x="353" y="-18" font-family="Helvetica,sans-Serif" font-size="10.00">DisplayInterface::display</text>
<text text-anchor="middle" x="414" y="-7" font-family="Helvetica,sans-Serif" font-size="10.00">FormattedRow</text>
</a>
</g>
</g>
<!-- Node2&#45;&gt;Node8 -->
<g id="edge7_Node000002_Node000008" class="edge">
<title>Node2&#45;&gt;Node8</title>
<g id="a_edge7_Node000002_Node000008"><a xlink:title=" ">
<path fill="none" stroke="#63b8ff" d="M240.6,-125.22C258.78,-106.2 301.57,-63.91 345,-39 347.88,-37.35 350.89,-35.78 353.97,-34.3"/>
<polygon fill="#63b8ff" stroke="#63b8ff" points="355.68,-37.37 363.39,-30.11 352.84,-30.98 355.68,-37.37"/>
</a>
</g>
</g>
</g>
</svg>
</svg>

<style type='text/css'>
<![CDATA[
[data-mouse-over-selected='false'] { opacity: 0.7; }
[data-mouse-over-selected='true']  { opacity: 1.0; }
]]>
</style>
<script type="application/ecmascript"><![CDATA[
document.addEventListener('DOMContentLoaded', (event) => {
  highlightEdges();
  highlightAdjacentNodes();
});
]]></script>
</svg>
