<?xml version="1.0" encoding="UTF-8" standalone="no"?>
<!DOCTYPE svg PUBLIC "-//W3C//DTD SVG 1.1//EN"
 "http://www.w3.org/Graphics/SVG/1.1/DTD/svg11.dtd">
<!-- Generated by graphviz version 2.43.0 (0)
 -->
<!-- Title: DisplayScreenTests Pages: 1 -->
<svg width="498pt" height="296pt"
 viewBox="0.00 0.00 497.50 296.00" xmlns="http://www.w3.org/2000/svg" xmlns:xlink="http://www.w3.org/1999/xlink">
<g id="graph0" class="graph" transform="scale(1 1) rotate(0) translate(4 292)">
<title>DisplayScreenTests</title>
<polygon fill="white" stroke="transparent" points="-4,4 -4,-292 493.5,-292 493.5,4 -4,4"/>
<!-- Node1 -->
<g id="node1" class="node">
<title>Node1</title>
<g id="a_node1"><a xlink:title="Test harness for testing DisplayManager.">
<polygon fill="#bfbfbf" stroke="black" points="44.5,-0.5 44.5,-19.5 155.5,-19.5 155.5,-0.5 44.5,-0.5"/>
<text text-anchor="middle" x="100" y="-7.5" font-family="Helvetica,sans-Serif" font-size="10.00">DisplayScreenTests</text>
</a>
</g>
</g>
<!-- Node2 -->
<g id="node2" class="node">
<title>Node2</title>
<g id="a_node2"><a xlink:title=" ">
<polygon fill="white" stroke="#bfbfbf" points="0,-67.5 0,-86.5 36,-86.5 36,-67.5 0,-67.5"/>
<text text-anchor="middle" x="18" y="-74.5" font-family="Helvetica,sans-Serif" font-size="10.00">Test</text>
</a>
</g>
</g>
<!-- Node2&#45;&gt;Node1 -->
<g id="edge1" class="edge">
<title>Node2&#45;&gt;Node1</title>
<path fill="none" stroke="midnightblue" d="M37.28,-60.71C53.44,-47.91 75.92,-30.09 89.12,-19.63"/>
<polygon fill="midnightblue" stroke="midnightblue" points="34.72,-58.28 29.06,-67.23 39.07,-63.76 34.72,-58.28"/>
</g>
<!-- Node3 -->
<g id="node3" class="node">
<title>Node3</title>
<g id="a_node3"><a xlink:href="classScreenManager.html" target="_top" xlink:title="Class to manage all EX&#45;Display screens.">
<polygon fill="white" stroke="black" points="54,-67.5 54,-86.5 146,-86.5 146,-67.5 54,-67.5"/>
<text text-anchor="middle" x="100" y="-74.5" font-family="Helvetica,sans-Serif" font-size="10.00">ScreenManager</text>
</a>
</g>
</g>
<!-- Node3&#45;&gt;Node1 -->
<g id="edge2" class="edge">
<title>Node3&#45;&gt;Node1</title>
<path fill="none" stroke="#9a32cd" stroke-dasharray="5,2" d="M100,-57.04C100,-44.67 100,-29.12 100,-19.63"/>
<polygon fill="#9a32cd" stroke="#9a32cd" points="96.5,-57.23 100,-67.23 103.5,-57.23 96.5,-57.23"/>
<text text-anchor="middle" x="139.5" y="-41" font-family="Helvetica,sans-Serif" font-size="10.00"> screenManager</text>
</g>
<!-- Node4 -->
<g id="node4" class="node">
<title>Node4</title>
<g id="a_node4"><a xlink:href="classScreen.html" target="_top" xlink:title="Class for each screen as received from the EXRAIL SCREEN() command Each Screen instance contains a li...">
<polygon fill="white" stroke="black" points="75,-134.5 75,-153.5 125,-153.5 125,-134.5 75,-134.5"/>
<text text-anchor="middle" x="100" y="-141.5" font-family="Helvetica,sans-Serif" font-size="10.00">Screen</text>
</a>
</g>
</g>
<!-- Node4&#45;&gt;Node3 -->
<g id="edge3" class="edge">
<title>Node4&#45;&gt;Node3</title>
<path fill="none" stroke="#9a32cd" stroke-dasharray="5,2" d="M100,-124.04C100,-111.67 100,-96.12 100,-86.63"/>
<polygon fill="#9a32cd" stroke="#9a32cd" points="96.5,-124.23 100,-134.23 103.5,-124.23 96.5,-124.23"/>
<text text-anchor="middle" x="130.5" y="-108" font-family="Helvetica,sans-Serif" font-size="10.00"> _firstScreen</text>
</g>
<!-- Node4&#45;&gt;Node4 -->
<g id="edge7" class="edge">
<title>Node4&#45;&gt;Node4</title>
<path fill="none" stroke="#9a32cd" stroke-dasharray="5,2" d="M135.45,-149.25C140,-148.34 143,-146.59 143,-144 143,-139.75 134.91,-137.76 125.18,-138.02"/>
<polygon fill="#9a32cd" stroke="#9a32cd" points="134.91,-145.78 125.18,-149.98 135.4,-152.77 134.91,-145.78"/>
<text text-anchor="middle" x="158.5" y="-141.5" font-family="Helvetica,sans-Serif" font-size="10.00"> _next</text>
</g>
<!-- Node5 -->
<g id="node5" class="node">
<title>Node5</title>
<g id="a_node5"><a xlink:href="classScreenRow.html" target="_top" xlink:title=" ">
<polygon fill="white" stroke="black" points="128.5,-201.5 128.5,-220.5 199.5,-220.5 199.5,-201.5 128.5,-201.5"/>
<text text-anchor="middle" x="164" y="-208.5" font-family="Helvetica,sans-Serif" font-size="10.00">ScreenRow</text>
</a>
</g>
</g>
<!-- Node5&#45;&gt;Node4 -->
<g id="edge4" class="edge">
<title>Node5&#45;&gt;Node4</title>
<path fill="none" stroke="#9a32cd" stroke-dasharray="5,2" d="M148.24,-194C135.69,-181.25 118.6,-163.89 108.49,-153.63"/>
<polygon fill="#9a32cd" stroke="#9a32cd" points="145.86,-196.56 155.37,-201.23 150.85,-191.65 145.86,-196.56"/>
<text text-anchor="middle" x="177" y="-175" font-family="Helvetica,sans-Serif" font-size="10.00"> _firstScreenRow</text>
</g>
<!-- Node5&#45;&gt;Node5 -->
<g id="edge5" class="edge">
<title>Node5&#45;&gt;Node5</title>
<path fill="none" stroke="#9a32cd" stroke-dasharray="5,2" d="M209.78,-215.95C214.49,-214.97 217.5,-213.32 217.5,-211 217.5,-207.28 209.79,-205.29 199.75,-205.03"/>
<polygon fill="#9a32cd" stroke="#9a32cd" points="209.35,-212.47 199.75,-216.97 210.06,-219.44 209.35,-212.47"/>
<text text-anchor="middle" x="233" y="-208.5" font-family="Helvetica,sans-Serif" font-size="10.00"> _next</text>
</g>
<!-- Node6 -->
<g id="node6" class="node">
<title>Node6</title>
<g id="a_node6"><a xlink:href="classLogger.html" target="_top" xlink:title="Class to enable simple logging to a Stream object with different log levels This enables embedding pe...">
<polygon fill="white" stroke="red" points="139,-268.5 139,-287.5 189,-287.5 189,-268.5 139,-268.5"/>
<text text-anchor="middle" x="164" y="-275.5" font-family="Helvetica,sans-Serif" font-size="10.00">Logger</text>
</a>
</g>
</g>
<!-- Node6&#45;&gt;Node3 -->
<g id="edge9" class="edge">
<title>Node6&#45;&gt;Node3</title>
<path fill="none" stroke="#9a32cd" stroke-dasharray="5,2" d="M129.13,-268.49C116.1,-264.27 101.65,-258.26 90,-250 58.57,-227.72 47.98,-219.27 35,-183 20.99,-143.84 65.54,-103.73 87.94,-86.6"/>
<polygon fill="#9a32cd" stroke="#9a32cd" points="128.17,-271.86 138.75,-271.38 130.18,-265.16 128.17,-271.86"/>
<text text-anchor="middle" x="55" y="-175" font-family="Helvetica,sans-Serif" font-size="10.00"> _logger</text>
</g>
<!-- Node6&#45;&gt;Node4 -->
<g id="edge8" class="edge">
<title>Node6&#45;&gt;Node4</title>
<path fill="none" stroke="#9a32cd" stroke-dasharray="5,2" d="M130.43,-264.36C111.65,-255.36 89.9,-241.23 79,-221 66.92,-198.58 83.48,-168.62 93.44,-153.91"/>
<polygon fill="#9a32cd" stroke="#9a32cd" points="129.06,-267.59 139.62,-268.49 131.93,-261.2 129.06,-267.59"/>
<text text-anchor="middle" x="99" y="-208.5" font-family="Helvetica,sans-Serif" font-size="10.00"> _logger</text>
</g>
<!-- Node6&#45;&gt;Node5 -->
<g id="edge6" class="edge">
<title>Node6&#45;&gt;Node5</title>
<path fill="none" stroke="#9a32cd" stroke-dasharray="5,2" d="M164,-258.04C164,-245.67 164,-230.12 164,-220.63"/>
<polygon fill="#9a32cd" stroke="#9a32cd" points="160.5,-258.23 164,-268.23 167.5,-258.23 160.5,-258.23"/>
<text text-anchor="middle" x="184" y="-242" font-family="Helvetica,sans-Serif" font-size="10.00"> _logger</text>
</g>
<!-- Node8 -->
<g id="node7" class="node">
<title>Node8</title>
<g id="a_node7"><a xlink:href="classDisplayManager.html" target="_top" xlink:title="Manages all physical displays.">
<polygon fill="white" stroke="black" points="237,-134.5 237,-153.5 333,-153.5 333,-134.5 237,-134.5"/>
<text text-anchor="middle" x="285" y="-141.5" font-family="Helvetica,sans-Serif" font-size="10.00">DisplayManager</text>
</a>
</g>
</g>
<!-- Node6&#45;&gt;Node8 -->
<g id="edge11" class="edge">
<title>Node6&#45;&gt;Node8</title>
<path fill="none" stroke="#9a32cd" stroke-dasharray="5,2" d="M196.24,-264.24C216.16,-254.91 240.9,-240.47 257,-221 273.85,-200.63 281.05,-169.19 283.69,-153.93"/>
<polygon fill="#9a32cd" stroke="#9a32cd" points="194.61,-261.14 186.91,-268.41 197.47,-267.53 194.61,-261.14"/>
<text text-anchor="middle" x="290" y="-208.5" font-family="Helvetica,sans-Serif" font-size="10.00"> _logger</text>
</g>
<!-- Node9 -->
<g id="node8" class="node">
<title>Node9</title>
<g id="a_node8"><a xlink:href="classDisplayInterface.html" target="_top" xlink:title="Class to abstract away all physical display implementation to enable multiple display types.">
<polygon fill="white" stroke="black" points="343.5,-201.5 343.5,-220.5 440.5,-220.5 440.5,-201.5 343.5,-201.5"/>
<text text-anchor="middle" x="392" y="-208.5" font-family="Helvetica,sans-Serif" font-size="10.00">DisplayInterface</text>
</a>
</g>
</g>
<!-- Node6&#45;&gt;Node9 -->
<g id="edge13" class="edge">
<title>Node6&#45;&gt;Node9</title>
<path fill="none" stroke="#9a32cd" stroke-dasharray="5,2" d="M199.18,-271.85C226.69,-267.38 265.72,-260.03 299,-250 325.72,-241.95 355.37,-229.12 373.85,-220.63"/>
<polygon fill="#9a32cd" stroke="#9a32cd" points="198.56,-268.41 189.23,-273.43 199.66,-275.32 198.56,-268.41"/>
<text text-anchor="middle" x="351" y="-242" font-family="Helvetica,sans-Serif" font-size="10.00"> _logger</text>
</g>
<!-- Node8&#45;&gt;Node1 -->
<g id="edge10" class="edge">
<title>Node8&#45;&gt;Node1</title>
<path fill="none" stroke="#9a32cd" stroke-dasharray="5,2" d="M272.89,-126.14C255.5,-103.08 221.28,-61.85 183,-38 169.75,-29.75 153.73,-23.76 139.31,-19.56"/>
<polygon fill="#9a32cd" stroke="#9a32cd" points="270.15,-128.32 278.9,-134.28 275.78,-124.16 270.15,-128.32"/>
<text text-anchor="middle" x="281" y="-74.5" font-family="Helvetica,sans-Serif" font-size="10.00"> displayManager</text>
</g>
<!-- Node9&#45;&gt;Node8 -->
<g id="edge12" class="edge">
<title>Node9&#45;&gt;Node8</title>
<path fill="none" stroke="#9a32cd" stroke-dasharray="5,2" d="M368.86,-195.94C347.67,-183.07 316.98,-164.43 299.2,-153.63"/>
<polygon fill="#9a32cd" stroke="#9a32cd" points="367.21,-199.03 377.57,-201.23 370.84,-193.05 367.21,-199.03"/>
<text text-anchor="middle" x="377" y="-175" font-family="Helvetica,sans-Serif" font-size="10.00"> _firstDisplay</text>
</g>
<!-- Node9&#45;&gt;Node9 -->
<g id="edge14" class="edge">
<title>Node9&#45;&gt;Node9</title>
<path fill="none" stroke="#9a32cd" stroke-dasharray="5,2" d="M450.88,-215.58C455.59,-214.58 458.5,-213.05 458.5,-211 458.5,-207.72 451.04,-205.78 440.71,-205.19"/>
<polygon fill="#9a32cd" stroke="#9a32cd" points="450.22,-212.13 440.71,-216.81 451.06,-219.08 450.22,-212.13"/>
<text text-anchor="middle" x="474" y="-208.5" font-family="Helvetica,sans-Serif" font-size="10.00"> _next</text>
</g>
</g>
</svg>
