<?xml version="1.0" encoding="UTF-8" standalone="no"?>
<!DOCTYPE svg PUBLIC "-//W3C//DTD SVG 1.1//EN"
 "http://www.w3.org/Graphics/SVG/1.1/DTD/svg11.dtd">
<!-- Generated by graphviz version 2.43.0 (0)
 -->
<!-- Title: Screen::getNext Pages: 1 -->
<!--zoomable 331 -->
<svg id="main" version="1.1" xmlns="http://www.w3.org/2000/svg" xmlns:xlink="http://www.w3.org/1999/xlink" xml:space="preserve" onload="init(evt)">
<style type="text/css"><![CDATA[
.edge:hover path { stroke: red; }
.edge:hover polygon { stroke: red; fill: red; }
]]></style>
<script type="text/javascript"><![CDATA[
var edges = document.getElementsByTagName('g');
if (edges && edges.length) {
  for (var i=0;i<edges.length;i++) {
    if (edges[i].id.substr(0,4)=='edge') {
      edges[i].setAttribute('class','edge');
    }
  }
}
]]></script>
        <defs>
                <circle id="rim" cx="0" cy="0" r="7"/>
                <circle id="rim2" cx="0" cy="0" r="3.5"/>
                <g id="zoomPlus">
                        <use xlink:href="#rim" fill="#404040">
                                <set attributeName="fill" to="#808080" begin="zoomplus.mouseover" end="zoomplus.mouseout"/>
                        </use>
                        <path d="M-4,0h8M0,-4v8" fill="none" stroke="white" stroke-width="1.5" pointer-events="none"/>
                </g>
                <g id="zoomMin">
                        <use xlink:href="#rim" fill="#404040">
                                <set attributeName="fill" to="#808080" begin="zoomminus.mouseover" end="zoomminus.mouseout"/>
                        </use>
                        <path d="M-4,0h8" fill="none" stroke="white" stroke-width="1.5" pointer-events="none"/>
                </g>
                <g id="dirArrow">
                        <path fill="none" stroke="white" stroke-width="1.5" d="M0,-3.0v7 M-2.5,-0.5L0,-3.0L2.5,-0.5"/>
                </g>
               <g id="resetDef">
                       <use xlink:href="#rim2" fill="#404040">
                               <set attributeName="fill" to="#808080" begin="reset.mouseover" end="reset.mouseout"/>
                       </use>
               </g>
        </defs>

<script type="text/javascript">
var viewWidth = 724;
var viewHeight = 331;
var sectionId = 'dynsection-8';
</script>
<script xlink:href="svgpan.js"/>
<svg id="graph" class="graph">
<g id="viewport">
<title>Screen::getNext</title>
<polygon fill="white" stroke="transparent" points="-4,4 -4,-326.94 720,-326.94 720,4 -4,4"/>
<!-- Node1 -->
<g id="node1" class="node">
<title>Node1</title>
<g id="a_node1"><a xlink:title="Get the next Screen instance in the list.">
<polygon fill="#bfbfbf" stroke="black" points="621,-174.5 621,-193.5 716,-193.5 716,-174.5 621,-174.5"/>
<text text-anchor="middle" x="668.5" y="-181.5" font-family="Helvetica,sans-Serif" font-size="10.00">Screen::getNext</text>
</a>
</g>
</g>
<!-- Node2 -->
<g id="node2" class="node">
<title>Node2</title>
<g id="a_node2"><a xlink:href="classScreenManager.html#a6cc01abb59037b653ca45f130c83c9b3" target="_top" xlink:title="Get the highest Screen ID in the list.">
<polygon fill="white" stroke="black" points="405.5,-193.5 405.5,-212.5 582.5,-212.5 582.5,-193.5 405.5,-193.5"/>
<text text-anchor="middle" x="494" y="-200.5" font-family="Helvetica,sans-Serif" font-size="10.00">ScreenManager::getMaxScreenId</text>
</a>
</g>
</g>
<!-- Node1&#45;&gt;Node2 -->
<g id="edge1" class="edge">
<title>Node1&#45;&gt;Node2</title>
<path fill="none" stroke="midnightblue" d="M610.78,-190.25C601.3,-191.29 591.29,-192.39 581.27,-193.5"/>
<polygon fill="midnightblue" stroke="midnightblue" points="611.26,-193.72 620.82,-189.14 610.5,-186.76 611.26,-193.72"/>
</g>
<!-- Node3 -->
<g id="node3" class="node">
<title>Node3</title>
<g id="a_node3"><a xlink:href="classScreenManager.html#a38890def1478514514341039b83299ef" target="_top" xlink:title="Get the next screen in the list (sorted by ID)">
<polygon fill="white" stroke="black" points="197,-278.5 197,-297.5 367,-297.5 367,-278.5 197,-278.5"/>
<text text-anchor="middle" x="282" y="-285.5" font-family="Helvetica,sans-Serif" font-size="10.00">ScreenManager::getNextScreen</text>
</a>
</g>
</g>
<!-- Node1&#45;&gt;Node3 -->
<g id="edge13" class="edge">
<title>Node1&#45;&gt;Node3</title>
<path fill="none" stroke="midnightblue" d="M660.21,-203.24C648.82,-230.19 623.99,-278.09 585,-298 494.36,-344.29 367.67,-314.68 311.61,-297.62"/>
<polygon fill="midnightblue" stroke="midnightblue" points="663.55,-204.32 664.04,-193.74 657.05,-201.71 663.55,-204.32"/>
</g>
<!-- Node7 -->
<g id="node6" class="node">
<title>Node7</title>
<g id="a_node6"><a xlink:href="classScreenManager.html#a64ecbfb9232d4051a75ff5abea58ba6d" target="_top" xlink:title="Get the previous screen in the list (sorted by ID)">
<polygon fill="white" stroke="black" points="204,-229 204,-259 360,-259 360,-229 204,-229"/>
<text text-anchor="start" x="212" y="-247" font-family="Helvetica,sans-Serif" font-size="10.00">ScreenManager::getPrevious</text>
<text text-anchor="middle" x="282" y="-236" font-family="Helvetica,sans-Serif" font-size="10.00">Screen</text>
</a>
</g>
</g>
<!-- Node1&#45;&gt;Node7 -->
<g id="edge14" class="edge">
<title>Node1&#45;&gt;Node7</title>
<path fill="none" stroke="midnightblue" d="M642.25,-198.52C626.36,-206.91 605.11,-216.82 585,-222 510.29,-241.25 422,-245.66 360.24,-245.92"/>
<polygon fill="midnightblue" stroke="midnightblue" points="644.29,-201.39 651.4,-193.54 640.94,-195.24 644.29,-201.39"/>
</g>
<!-- Node10 -->
<g id="node9" class="node">
<title>Node10</title>
<g id="a_node9"><a xlink:href="classScreenManager.html#acd4f0a92975819547a21bfc7d6320f6d" target="_top" xlink:title="Get the lowest Screen ID in the list.">
<polygon fill="white" stroke="black" points="407,-269.5 407,-288.5 581,-288.5 581,-269.5 407,-269.5"/>
<text text-anchor="middle" x="494" y="-276.5" font-family="Helvetica,sans-Serif" font-size="10.00">ScreenManager::getMinScreenId</text>
</a>
</g>
</g>
<!-- Node1&#45;&gt;Node10 -->
<g id="edge9" class="edge">
<title>Node1&#45;&gt;Node10</title>
<path fill="none" stroke="midnightblue" d="M651.71,-201.53C636.22,-217.68 611.19,-241.18 585,-255 573.27,-261.19 559.82,-265.88 546.96,-269.39"/>
<polygon fill="midnightblue" stroke="midnightblue" points="654.62,-203.53 658.89,-193.84 649.51,-198.76 654.62,-203.53"/>
</g>
<!-- Node11 -->
<g id="node10" class="node">
<title>Node11</title>
<g id="a_node10"><a xlink:href="classScreenManager.html#a0cc1c81b131b3441fd808299c63b409b" target="_top" xlink:title="Get the Screen with the specified ID.">
<polygon fill="white" stroke="black" points="409.5,-155.5 409.5,-174.5 578.5,-174.5 578.5,-155.5 409.5,-155.5"/>
<text text-anchor="middle" x="494" y="-162.5" font-family="Helvetica,sans-Serif" font-size="10.00">ScreenManager::getScreenById</text>
</a>
</g>
</g>
<!-- Node1&#45;&gt;Node11 -->
<g id="edge15" class="edge">
<title>Node1&#45;&gt;Node11</title>
<path fill="none" stroke="midnightblue" d="M610.75,-177.75C600.44,-176.61 589.5,-175.41 578.61,-174.21"/>
<polygon fill="midnightblue" stroke="midnightblue" points="610.5,-181.24 620.82,-178.86 611.26,-174.28 610.5,-181.24"/>
</g>
<!-- Node15 -->
<g id="node14" class="node">
<title>Node15</title>
<g id="a_node14"><a xlink:href="classScreenManager.html#a760f0b958985e3c29f5a3efc81367f89" target="_top" xlink:title="Update a Screen, adds a new one if it doesn&#39;t exist.">
<polygon fill="white" stroke="black" points="199.5,-0.5 199.5,-19.5 364.5,-19.5 364.5,-0.5 199.5,-0.5"/>
<text text-anchor="middle" x="282" y="-7.5" font-family="Helvetica,sans-Serif" font-size="10.00">ScreenManager::updateScreen</text>
</a>
</g>
</g>
<!-- Node1&#45;&gt;Node15 -->
<g id="edge28" class="edge">
<title>Node1&#45;&gt;Node15</title>
<path fill="none" stroke="midnightblue" d="M640.76,-169.81C624.91,-161.88 604.22,-152.34 585,-146 506.53,-120.11 467.54,-159.61 403,-108 372.87,-83.9 396.93,-53.35 367,-29 362.24,-25.13 356.86,-22.02 351.16,-19.51"/>
<polygon fill="midnightblue" stroke="midnightblue" points="639.45,-173.07 649.95,-174.5 642.63,-166.84 639.45,-173.07"/>
</g>
<!-- Node17 -->
<g id="node16" class="node">
<title>Node17</title>
<g id="a_node16"><a xlink:href="test__Screen_8cpp.html#a680e2c57d51963c79048644663f58770" target="_top" xlink:title="Create a Screen and check all attributes are valid.">
<polygon fill="white" stroke="black" points="468,-79.5 468,-98.5 520,-98.5 520,-79.5 468,-79.5"/>
<text text-anchor="middle" x="494" y="-86.5" font-family="Helvetica,sans-Serif" font-size="10.00">TEST_F</text>
</a>
</g>
</g>
<!-- Node1&#45;&gt;Node17 -->
<g id="edge27" class="edge">
<title>Node1&#45;&gt;Node17</title>
<path fill="none" stroke="midnightblue" d="M651.71,-166.47C636.22,-150.32 611.19,-126.82 585,-113 564.55,-102.21 538.86,-95.98 520.17,-92.59"/>
<polygon fill="midnightblue" stroke="midnightblue" points="649.51,-169.24 658.89,-174.16 654.62,-164.47 649.51,-169.24"/>
</g>
<!-- Node18 -->
<g id="node17" class="node">
<title>Node18</title>
<g id="a_node17"><a xlink:href="classScreenManager.html#a515ec6aabc9fefe3c1cfbe734877da1e" target="_top" xlink:title="Destructor for the ScreenManager.">
<polygon fill="white" stroke="black" points="403,-41.5 403,-60.5 585,-60.5 585,-41.5 403,-41.5"/>
<text text-anchor="middle" x="494" y="-48.5" font-family="Helvetica,sans-Serif" font-size="10.00">ScreenManager::~ScreenManager</text>
</a>
</g>
</g>
<!-- Node1&#45;&gt;Node18 -->
<g id="edge29" class="edge">
<title>Node1&#45;&gt;Node18</title>
<path fill="none" stroke="midnightblue" d="M659.23,-165.06C646.95,-139.27 621.35,-93.62 585,-70 579.11,-66.17 572.58,-63.1 565.82,-60.63"/>
<polygon fill="midnightblue" stroke="midnightblue" points="656.06,-166.55 663.41,-174.18 662.43,-163.63 656.06,-166.55"/>
</g>
<!-- Node2&#45;&gt;Node3 -->
<g id="edge2" class="edge">
<title>Node2&#45;&gt;Node3</title>
<path fill="none" stroke="midnightblue" d="M469.01,-217.99C444.28,-232.85 404.2,-255.32 367,-269 356.9,-272.72 345.83,-275.85 335.15,-278.42"/>
<polygon fill="midnightblue" stroke="midnightblue" points="470.97,-220.89 477.69,-212.7 467.33,-214.91 470.97,-220.89"/>
</g>
<!-- Node2&#45;&gt;Node7 -->
<g id="edge5" class="edge">
<title>Node2&#45;&gt;Node7</title>
<path fill="none" stroke="midnightblue" d="M434.36,-214.45C411.39,-218.93 384.72,-224.14 360.23,-228.92"/>
<polygon fill="midnightblue" stroke="midnightblue" points="435.15,-217.86 444.29,-212.51 433.81,-210.99 435.15,-217.86"/>
</g>
<!-- Node9 -->
<g id="node8" class="node">
<title>Node9</title>
<g id="a_node8"><a xlink:href="test__ScreenManager_8cpp.html#ab5ada86d9042a1a62ed2251d66d84ef3" target="_top" xlink:title="Create a list of Screens with ScreenManager.">
<polygon fill="white" stroke="black" points="54.5,-38.5 54.5,-57.5 106.5,-57.5 106.5,-38.5 54.5,-38.5"/>
<text text-anchor="middle" x="80.5" y="-45.5" font-family="Helvetica,sans-Serif" font-size="10.00">TEST_F</text>
</a>
</g>
</g>
<!-- Node2&#45;&gt;Node9 -->
<g id="edge8" class="edge">
<title>Node2&#45;&gt;Node9</title>
<path fill="none" stroke="midnightblue" d="M409.52,-188.59C407.25,-187.19 405.07,-185.66 403,-184 372.89,-159.87 397.24,-128.96 367,-105 356.7,-96.84 174.66,-64.31 106.76,-52.4"/>
<polygon fill="midnightblue" stroke="midnightblue" points="408.18,-191.83 418.66,-193.39 411.44,-185.64 408.18,-191.83"/>
</g>
<!-- Node4 -->
<g id="node4" class="node">
<title>Node4</title>
<g id="a_node4"><a xlink:href="classController.html#aa981e303ca83593ffb34db49c7d73cc6" target="_top" xlink:title="Selects the next screen for the selected display.">
<polygon fill="white" stroke="red" points="0,-231.5 0,-250.5 161,-250.5 161,-231.5 0,-231.5"/>
<text text-anchor="middle" x="80.5" y="-238.5" font-family="Helvetica,sans-Serif" font-size="10.00">Controller::_selectNextScreen</text>
</a>
</g>
</g>
<!-- Node3&#45;&gt;Node4 -->
<g id="edge3" class="edge">
<title>Node3&#45;&gt;Node4</title>
<path fill="none" stroke="midnightblue" d="M228.42,-276.24C218,-273.87 207.15,-271.38 197,-269 171.39,-263 142.64,-256.03 120.23,-250.55"/>
<polygon fill="midnightblue" stroke="midnightblue" points="227.71,-279.67 238.24,-278.46 229.26,-272.84 227.71,-279.67"/>
</g>
<!-- Node6 -->
<g id="node5" class="node">
<title>Node6</title>
<g id="a_node5"><a xlink:href="test__ScreenManager_8cpp.html#a339218e57c67512f1332ef94ac1b9fb8" target="_top" xlink:title="Validate that previous screen is a lower ID, and next is a higher ID, wrapping around the list.">
<polygon fill="white" stroke="black" points="54.5,-278.5 54.5,-297.5 106.5,-297.5 106.5,-278.5 54.5,-278.5"/>
<text text-anchor="middle" x="80.5" y="-285.5" font-family="Helvetica,sans-Serif" font-size="10.00">TEST_F</text>
</a>
</g>
</g>
<!-- Node3&#45;&gt;Node6 -->
<g id="edge4" class="edge">
<title>Node3&#45;&gt;Node6</title>
<path fill="none" stroke="midnightblue" d="M186.6,-288C157.16,-288 127.1,-288 106.71,-288"/>
<polygon fill="midnightblue" stroke="midnightblue" points="186.97,-291.5 196.97,-288 186.97,-284.5 186.97,-291.5"/>
</g>
<!-- Node7&#45;&gt;Node6 -->
<g id="edge7" class="edge">
<title>Node7&#45;&gt;Node6</title>
<path fill="none" stroke="midnightblue" d="M202.91,-261.22C168.75,-268.76 131.04,-277.07 106.85,-282.41"/>
<polygon fill="midnightblue" stroke="midnightblue" points="203.89,-264.59 212.9,-259.02 202.38,-257.76 203.89,-264.59"/>
</g>
<!-- Node8 -->
<g id="node7" class="node">
<title>Node8</title>
<g id="a_node7"><a xlink:href="classController.html#a3e02f73e534a929849f981ec892b4f54" target="_top" xlink:title="Selects the previous screen for the selected display.">
<polygon fill="white" stroke="red" points="7,-163 7,-193 154,-193 154,-163 7,-163"/>
<text text-anchor="start" x="15" y="-181" font-family="Helvetica,sans-Serif" font-size="10.00">Controller::_selectPrevious</text>
<text text-anchor="middle" x="80.5" y="-170" font-family="Helvetica,sans-Serif" font-size="10.00">Screen</text>
</a>
</g>
</g>
<!-- Node7&#45;&gt;Node8 -->
<g id="edge6" class="edge">
<title>Node7&#45;&gt;Node8</title>
<path fill="none" stroke="midnightblue" d="M225.44,-225.62C194.43,-215.36 156.29,-202.74 127.06,-193.07"/>
<polygon fill="midnightblue" stroke="midnightblue" points="224.64,-229.04 235.23,-228.86 226.84,-222.39 224.64,-229.04"/>
</g>
<!-- Node10&#45;&gt;Node3 -->
<g id="edge10" class="edge">
<title>Node10&#45;&gt;Node3</title>
<path fill="none" stroke="midnightblue" d="M396.75,-283.13C386.88,-283.55 376.91,-283.98 367.19,-284.39"/>
<polygon fill="midnightblue" stroke="midnightblue" points="397.14,-286.61 406.98,-282.69 396.84,-279.62 397.14,-286.61"/>
</g>
<!-- Node10&#45;&gt;Node6 -->
<g id="edge12" class="edge">
<title>Node10&#45;&gt;Node6</title>
<path fill="none" stroke="midnightblue" d="M449.73,-291.07C425.6,-297.18 394.87,-303.94 367,-307 291.9,-315.24 272.3,-313.15 197,-307 165.61,-304.44 129.89,-298.01 106.59,-293.34"/>
<polygon fill="midnightblue" stroke="midnightblue" points="450.84,-294.4 459.64,-288.51 449.08,-287.62 450.84,-294.4"/>
</g>
<!-- Node10&#45;&gt;Node7 -->
<g id="edge11" class="edge">
<title>Node10&#45;&gt;Node7</title>
<path fill="none" stroke="midnightblue" d="M425.84,-267.81C404.93,-264.32 381.72,-260.45 360.19,-256.86"/>
<polygon fill="midnightblue" stroke="midnightblue" points="425.45,-271.29 435.89,-269.48 426.61,-264.39 425.45,-271.29"/>
</g>
<!-- Node11&#45;&gt;Node3 -->
<g id="edge18" class="edge">
<title>Node11&#45;&gt;Node3</title>
<path fill="none" stroke="midnightblue" d="M409.29,-179.45C407.1,-180.84 405,-182.36 403,-184 371.34,-210.09 398.48,-242.69 367,-269 362.41,-272.84 357.21,-275.94 351.69,-278.44"/>
<polygon fill="midnightblue" stroke="midnightblue" points="410.98,-182.52 418.11,-174.68 407.65,-176.36 410.98,-182.52"/>
</g>
<!-- Node11&#45;&gt;Node4 -->
<g id="edge16" class="edge">
<title>Node11&#45;&gt;Node4</title>
<path fill="none" stroke="midnightblue" d="M431.22,-176.41C349.98,-191.41 208.73,-217.5 132.99,-231.49"/>
<polygon fill="midnightblue" stroke="midnightblue" points="432.1,-179.81 441.3,-174.55 430.83,-172.92 432.1,-179.81"/>
</g>
<!-- Node11&#45;&gt;Node7 -->
<g id="edge19" class="edge">
<title>Node11&#45;&gt;Node7</title>
<path fill="none" stroke="midnightblue" d="M418.83,-177.58C413.37,-179.44 408.03,-181.56 403,-184 384.26,-193.09 385.09,-203.67 367,-214 356.91,-219.76 345.53,-224.72 334.47,-228.85"/>
<polygon fill="midnightblue" stroke="midnightblue" points="420.24,-180.81 428.77,-174.53 418.18,-174.12 420.24,-180.81"/>
</g>
<!-- Node11&#45;&gt;Node8 -->
<g id="edge17" class="edge">
<title>Node11&#45;&gt;Node8</title>
<path fill="none" stroke="midnightblue" d="M398.93,-167.97C324.57,-170.32 222.29,-173.55 154.14,-175.71"/>
<polygon fill="midnightblue" stroke="midnightblue" points="399.35,-171.46 409.23,-167.65 399.13,-164.46 399.35,-171.46"/>
</g>
<!-- Node11&#45;&gt;Node9 -->
<g id="edge20" class="edge">
<title>Node11&#45;&gt;Node9</title>
<path fill="none" stroke="midnightblue" d="M420.43,-151.56C414.19,-148.69 408.26,-145.21 403,-141 376,-119.38 395.8,-91.15 367,-72 285.2,-17.6 159.69,-32.85 106.6,-42.66"/>
<polygon fill="midnightblue" stroke="midnightblue" points="419.18,-154.82 429.76,-155.34 421.81,-148.34 419.18,-154.82"/>
</g>
<!-- Node12 -->
<g id="node11" class="node">
<title>Node12</title>
<g id="a_node11"><a xlink:href="classController.html#a7d04c17913f04f99429aa29fa8505484" target="_top" xlink:title="Processes all ongoing activities, monitoring streams, receiving user input, updates displays,...">
<polygon fill="white" stroke="black" points="230,-114.5 230,-133.5 334,-133.5 334,-114.5 230,-114.5"/>
<text text-anchor="middle" x="282" y="-121.5" font-family="Helvetica,sans-Serif" font-size="10.00">Controller::update</text>
</a>
</g>
</g>
<!-- Node11&#45;&gt;Node12 -->
<g id="edge21" class="edge">
<title>Node11&#45;&gt;Node12</title>
<path fill="none" stroke="midnightblue" d="M434.09,-153.5C401.83,-147.2 362.33,-139.49 331.81,-133.53"/>
<polygon fill="midnightblue" stroke="midnightblue" points="433.81,-157.01 444.29,-155.49 435.15,-150.14 433.81,-157.01"/>
</g>
<!-- Node11&#45;&gt;Node15 -->
<g id="edge24" class="edge">
<title>Node11&#45;&gt;Node15</title>
<path fill="none" stroke="midnightblue" d="M417.47,-151.23C412.22,-148.42 407.31,-145.04 403,-141 366.4,-106.67 403.29,-68.65 367,-34 360.42,-27.72 352.31,-23.06 343.75,-19.61"/>
<polygon fill="midnightblue" stroke="midnightblue" points="416.04,-154.43 426.59,-155.47 418.99,-148.08 416.04,-154.43"/>
</g>
<!-- Node13 -->
<g id="node12" class="node">
<title>Node13</title>
<g id="a_node12"><a xlink:href="EX-Display_8ino.html#afe461d27b9c48d5921c00d521181f12f" target="_top" xlink:title="Main loop, simply calls controller&#45;&gt;update() to manage all interactions.">
<polygon fill="white" stroke="black" points="61.5,-81.5 61.5,-100.5 99.5,-100.5 99.5,-81.5 61.5,-81.5"/>
<text text-anchor="middle" x="80.5" y="-88.5" font-family="Helvetica,sans-Serif" font-size="10.00">loop</text>
</a>
</g>
</g>
<!-- Node12&#45;&gt;Node13 -->
<g id="edge22" class="edge">
<title>Node12&#45;&gt;Node13</title>
<path fill="none" stroke="midnightblue" d="M219.87,-113.89C178.43,-107.03 126.48,-98.44 99.55,-93.99"/>
<polygon fill="midnightblue" stroke="midnightblue" points="219.45,-117.37 229.88,-115.54 220.59,-110.46 219.45,-117.37"/>
</g>
<!-- Node14 -->
<g id="node13" class="node">
<title>Node14</title>
<g id="a_node13"><a xlink:href="test__Controller_8cpp.html#abb9ca06c0e9bafef1a891dd9d22bd84d" target="_top" xlink:title="Ensure update() method correctly calls the mock callback.">
<polygon fill="white" stroke="black" points="54.5,-119.5 54.5,-138.5 106.5,-138.5 106.5,-119.5 54.5,-119.5"/>
<text text-anchor="middle" x="80.5" y="-126.5" font-family="Helvetica,sans-Serif" font-size="10.00">TEST_F</text>
</a>
</g>
</g>
<!-- Node12&#45;&gt;Node14 -->
<g id="edge23" class="edge">
<title>Node12&#45;&gt;Node14</title>
<path fill="none" stroke="midnightblue" d="M219.43,-125.54C181.46,-126.49 134.81,-127.66 106.65,-128.37"/>
<polygon fill="midnightblue" stroke="midnightblue" points="219.97,-129.03 229.88,-125.28 219.8,-122.03 219.97,-129.03"/>
</g>
<!-- Node15&#45;&gt;Node9 -->
<g id="edge25" class="edge">
<title>Node15&#45;&gt;Node9</title>
<path fill="none" stroke="midnightblue" d="M220.91,-21.45C182.68,-28.73 135.17,-37.78 106.65,-43.21"/>
<polygon fill="midnightblue" stroke="midnightblue" points="221.75,-24.85 230.92,-19.54 220.44,-17.97 221.75,-24.85"/>
</g>
<!-- Node16 -->
<g id="node15" class="node">
<title>Node16</title>
<g id="a_node15"><a xlink:href="classController.html#a908f5f6c24239286e29d4761da509963" target="_top" xlink:title="Method to implement updating a screen.">
<polygon fill="white" stroke="black" points="12,-0.5 12,-19.5 149,-19.5 149,-0.5 12,-0.5"/>
<text text-anchor="middle" x="80.5" y="-7.5" font-family="Helvetica,sans-Serif" font-size="10.00">Controller::updateScreen</text>
</a>
</g>
</g>
<!-- Node15&#45;&gt;Node16 -->
<g id="edge26" class="edge">
<title>Node15&#45;&gt;Node16</title>
<path fill="none" stroke="midnightblue" d="M189.05,-10C175.59,-10 161.95,-10 149.11,-10"/>
<polygon fill="midnightblue" stroke="midnightblue" points="189.28,-13.5 199.28,-10 189.28,-6.5 189.28,-13.5"/>
</g>
</g>
</svg>
        <g id="navigator" transform="translate(0 0)" fill="#404254">
                <rect fill="#f2f5e9" fill-opacity="0.5" stroke="#606060" stroke-width=".5" x="0" y="0" width="60" height="60"/>
                <use id="zoomplus" xlink:href="#zoomPlus" x="17" y="9" onmousedown="handleZoom(evt,'in')"/>
                <use id="zoomminus" xlink:href="#zoomMin" x="42" y="9" onmousedown="handleZoom(evt,'out')"/>
                <use id="reset" xlink:href="#resetDef" x="30" y="36" onmousedown="handleReset()"/>
                <g id="arrowUp" xlink:href="#dirArrow" transform="translate(30 24)" onmousedown="handlePan(0,-1)">
                  <use xlink:href="#rim" fill="#404040">
                        <set attributeName="fill" to="#808080" begin="arrowUp.mouseover" end="arrowUp.mouseout"/>
                  </use>
                  <path fill="none" stroke="white" stroke-width="1.5" d="M0,-3.0v7 M-2.5,-0.5L0,-3.0L2.5,-0.5"/>
                </g>
                <g id="arrowRight" xlink:href="#dirArrow" transform="rotate(90) translate(36 -43)" onmousedown="handlePan(1,0)">
                  <use xlink:href="#rim" fill="#404040">
                        <set attributeName="fill" to="#808080" begin="arrowRight.mouseover" end="arrowRight.mouseout"/>
                  </use>
                  <path fill="none" stroke="white" stroke-width="1.5" d="M0,-3.0v7 M-2.5,-0.5L0,-3.0L2.5,-0.5"/>
                </g>
                <g id="arrowDown" xlink:href="#dirArrow" transform="rotate(180) translate(-30 -48)" onmousedown="handlePan(0,1)">
                  <use xlink:href="#rim" fill="#404040">
                        <set attributeName="fill" to="#808080" begin="arrowDown.mouseover" end="arrowDown.mouseout"/>
                  </use>
                  <path fill="none" stroke="white" stroke-width="1.5" d="M0,-3.0v7 M-2.5,-0.5L0,-3.0L2.5,-0.5"/>
                </g>
                <g id="arrowLeft" xlink:href="#dirArrow" transform="rotate(270) translate(-36 17)" onmousedown="handlePan(-1,0)">
                  <use xlink:href="#rim" fill="#404040">
                        <set attributeName="fill" to="#808080" begin="arrowLeft.mouseover" end="arrowLeft.mouseout"/>
                  </use>
                  <path fill="none" stroke="white" stroke-width="1.5" d="M0,-3.0v7 M-2.5,-0.5L0,-3.0L2.5,-0.5"/>
                </g>
        </g>
        <svg viewBox="0 0 15 15" width="100%" height="30px" preserveAspectRatio="xMaxYMin meet">
         <g id="arrow_out" transform="scale(0.3 0.3)">
          <a xlink:href="classScreen_af743df653d024c7571e596772009216d_icgraph_org.svg" target="_base">
           <rect id="button" ry="5" rx="5" y="6" x="6" height="38" width="38"
                fill="#f2f5e9" fill-opacity="0.5" stroke="#606060" stroke-width="1.0"/>
           <path id="arrow"
             d="M 11.500037,31.436501 C 11.940474,20.09759 22.043105,11.32322 32.158766,21.979434 L 37.068811,17.246167 C 37.068811,17.246167 37.088388,32 37.088388,32 L 22.160133,31.978069 C 22.160133,31.978069 26.997745,27.140456 26.997745,27.140456 C 18.528582,18.264221 13.291696,25.230495 11.500037,31.436501 z"
             style="fill:#404040;"/>
          </a>
         </g>
        </svg>
</svg>
