<?xml version="1.0" encoding="UTF-8" standalone="no"?>
<!DOCTYPE svg PUBLIC "-//W3C//DTD SVG 1.1//EN"
 "http://www.w3.org/Graphics/SVG/1.1/DTD/svg11.dtd">
<!-- Generated by graphviz version 2.43.0 (0)
 -->
<!-- Title: InputInterface::setCallback Pages: 1 -->
<svg width="510pt" height="203pt"
 viewBox="0.00 0.00 510.00 203.00" xmlns="http://www.w3.org/2000/svg" xmlns:xlink="http://www.w3.org/1999/xlink">
<g id="graph0" class="graph" transform="scale(1 1) rotate(0) translate(4 199)">
<title>InputInterface::setCallback</title>
<polygon fill="white" stroke="transparent" points="-4,4 -4,-199 506,-199 506,4 -4,4"/>
<!-- Node1 -->
<g id="node1" class="node">
<title>Node1</title>
<g id="a_node1"><a xlink:title="Set the instance for callbacks when users trigger an input action.">
<polygon fill="#bfbfbf" stroke="black" points="354,-79 354,-98 502,-98 502,-79 354,-79"/>
<text text-anchor="middle" x="428" y="-86" font-family="Helvetica,sans-Serif" font-size="10.00">InputInterface::setCallback</text>
</a>
</g>
</g>
<!-- Node2 -->
<g id="node2" class="node">
<title>Node2</title>
<g id="a_node2"><a xlink:href="classInputManager.html#a46a2124eddfd8617124bc16670f09633" target="_top" xlink:title="Set the InputInterface.">
<polygon fill="white" stroke="black" points="183,-148 183,-167 316,-167 316,-148 183,-148"/>
<text text-anchor="middle" x="249.5" y="-155" font-family="Helvetica,sans-Serif" font-size="10.00">InputManager::addInput</text>
</a>
</g>
</g>
<!-- Node1&#45;&gt;Node2 -->
<g id="edge1" class="edge">
<title>Node1&#45;&gt;Node2</title>
<path fill="none" stroke="midnightblue" d="M398.63,-102.52C376.88,-112.96 345.96,-127.13 318,-137.5 307.8,-141.28 296.54,-144.85 286.18,-147.9"/>
<polygon fill="midnightblue" stroke="midnightblue" points="400.16,-105.67 407.64,-98.16 397.11,-99.37 400.16,-105.67"/>
</g>
<!-- Node5 -->
<g id="node5" class="node">
<title>Node5</title>
<g id="a_node5"><a xlink:href="classDebounceHoldInputTests.html#ac1f9bed57fb4e12ac48e79385ff321dd" target="_top" xlink:title=" ">
<polygon fill="white" stroke="black" points="181,-98.5 181,-128.5 318,-128.5 318,-98.5 181,-98.5"/>
<text text-anchor="start" x="189" y="-116.5" font-family="Helvetica,sans-Serif" font-size="10.00">DebounceHoldInputTests</text>
<text text-anchor="middle" x="249.5" y="-105.5" font-family="Helvetica,sans-Serif" font-size="10.00">::SetUp</text>
</a>
</g>
</g>
<!-- Node1&#45;&gt;Node5 -->
<g id="edge4" class="edge">
<title>Node1&#45;&gt;Node5</title>
<path fill="none" stroke="midnightblue" d="M349.75,-99.44C339.22,-100.93 328.47,-102.46 318.13,-103.92"/>
<polygon fill="midnightblue" stroke="midnightblue" points="350.36,-102.89 359.77,-98.02 349.38,-95.96 350.36,-102.89"/>
</g>
<!-- Node6 -->
<g id="node6" class="node">
<title>Node6</title>
<g id="a_node6"><a xlink:href="classInputInterfaceTests.html#ae2ea7ef1af24dceda678e3cc8953d006" target="_top" xlink:title=" ">
<polygon fill="white" stroke="black" points="194.5,-49.5 194.5,-79.5 304.5,-79.5 304.5,-49.5 194.5,-49.5"/>
<text text-anchor="start" x="202.5" y="-67.5" font-family="Helvetica,sans-Serif" font-size="10.00">InputInterfaceTests</text>
<text text-anchor="middle" x="249.5" y="-56.5" font-family="Helvetica,sans-Serif" font-size="10.00">::SetUp</text>
</a>
</g>
</g>
<!-- Node1&#45;&gt;Node6 -->
<g id="edge5" class="edge">
<title>Node1&#45;&gt;Node6</title>
<path fill="none" stroke="midnightblue" d="M346.69,-77.58C332.45,-75.64 317.93,-73.67 304.63,-71.86"/>
<polygon fill="midnightblue" stroke="midnightblue" points="346.61,-81.1 356.99,-78.98 347.55,-74.16 346.61,-81.1"/>
</g>
<!-- Node7 -->
<g id="node7" class="node">
<title>Node7</title>
<g id="a_node7"><a xlink:href="classTouchScreenInputTests.html#af56a96900180dde47c024979d931cf2e" target="_top" xlink:title=" ">
<polygon fill="white" stroke="black" points="186,-0.5 186,-30.5 313,-30.5 313,-0.5 186,-0.5"/>
<text text-anchor="start" x="194" y="-18.5" font-family="Helvetica,sans-Serif" font-size="10.00">TouchScreenInputTests</text>
<text text-anchor="middle" x="249.5" y="-7.5" font-family="Helvetica,sans-Serif" font-size="10.00">::SetUp</text>
</a>
</g>
</g>
<!-- Node1&#45;&gt;Node7 -->
<g id="edge6" class="edge">
<title>Node1&#45;&gt;Node7</title>
<path fill="none" stroke="midnightblue" d="M398.06,-74.72C376.25,-64.53 345.5,-50.55 318,-39.5 310.5,-36.49 302.45,-33.46 294.63,-30.61"/>
<polygon fill="midnightblue" stroke="midnightblue" points="396.58,-77.89 407.12,-78.98 399.56,-71.56 396.58,-77.89"/>
</g>
<!-- Node3 -->
<g id="node3" class="node">
<title>Node3</title>
<g id="a_node3"><a xlink:href="classControllerInputActionTests.html#afb639f110e387a10897f635bdd329a4a" target="_top" xlink:title=" ">
<polygon fill="white" stroke="black" points="0,-164.5 0,-194.5 145,-194.5 145,-164.5 0,-164.5"/>
<text text-anchor="start" x="8" y="-182.5" font-family="Helvetica,sans-Serif" font-size="10.00">ControllerInputActionTests</text>
<text text-anchor="middle" x="72.5" y="-171.5" font-family="Helvetica,sans-Serif" font-size="10.00">::SetUp</text>
</a>
</g>
</g>
<!-- Node2&#45;&gt;Node3 -->
<g id="edge2" class="edge">
<title>Node2&#45;&gt;Node3</title>
<path fill="none" stroke="midnightblue" d="M172.91,-167C163.68,-168.16 154.27,-169.35 145.1,-170.5"/>
<polygon fill="midnightblue" stroke="midnightblue" points="173.35,-170.47 182.84,-165.75 172.48,-163.53 173.35,-170.47"/>
</g>
<!-- Node4 -->
<g id="node4" class="node">
<title>Node4</title>
<g id="a_node4"><a xlink:href="test__InputManager_8cpp.html#ae61e78914c3beb26e21559280269fc47" target="_top" xlink:title="Test to ensure an input can be set, retrieved, and started with the InputManager.">
<polygon fill="white" stroke="black" points="46.5,-126 46.5,-145 98.5,-145 98.5,-126 46.5,-126"/>
<text text-anchor="middle" x="72.5" y="-133" font-family="Helvetica,sans-Serif" font-size="10.00">TEST_F</text>
</a>
</g>
</g>
<!-- Node2&#45;&gt;Node4 -->
<g id="edge3" class="edge">
<title>Node2&#45;&gt;Node4</title>
<path fill="none" stroke="midnightblue" d="M172.77,-147.98C146.26,-144.65 118.28,-141.13 98.81,-138.68"/>
<polygon fill="midnightblue" stroke="midnightblue" points="172.48,-151.47 182.84,-149.25 173.35,-144.53 172.48,-151.47"/>
</g>
</g>
</svg>
