<?xml version="1.0" encoding="UTF-8" standalone="no"?>
<!DOCTYPE svg PUBLIC "-//W3C//DTD SVG 1.1//EN"
 "http://www.w3.org/Graphics/SVG/1.1/DTD/svg11.dtd">
<!-- Generated by graphviz version 2.43.0 (0)
 -->
<!-- Title: InputManager::addInput Pages: 1 -->
<svg width="433pt" height="192pt"
 viewBox="0.00 0.00 433.00 192.00" xmlns="http://www.w3.org/2000/svg" xmlns:xlink="http://www.w3.org/1999/xlink">
<g id="graph0" class="graph" transform="scale(1 1) rotate(0) translate(4 188)">
<title>InputManager::addInput</title>
<polygon fill="white" stroke="transparent" points="-4,4 -4,-188 429,-188 429,4 -4,4"/>
<!-- Node1 -->
<g id="node1" class="node">
<title>Node1</title>
<g id="a_node1"><a xlink:title="Set the InputInterface.">
<polygon fill="#bfbfbf" stroke="black" points="0,-82.5 0,-101.5 133,-101.5 133,-82.5 0,-82.5"/>
<text text-anchor="middle" x="66.5" y="-89.5" font-family="Helvetica,sans-Serif" font-size="10.00">InputManager::addInput</text>
</a>
</g>
</g>
<!-- Node2 -->
<g id="node2" class="node">
<title>Node2</title>
<g id="a_node2"><a xlink:href="classInputInterface.html#a82a2a78aaac60b714145da645febe052" target="_top" xlink:title="Force a touch screen into calibration mode, even if existing calibration is valid.">
<polygon fill="white" stroke="black" points="172.5,-164.5 172.5,-183.5 341.5,-183.5 341.5,-164.5 172.5,-164.5"/>
<text text-anchor="middle" x="257" y="-171.5" font-family="Helvetica,sans-Serif" font-size="10.00">InputInterface::forceCalibration</text>
</a>
</g>
</g>
<!-- Node1&#45;&gt;Node2 -->
<g id="edge1" class="edge">
<title>Node1&#45;&gt;Node2</title>
<path fill="none" stroke="midnightblue" d="M79.88,-101.65C98.28,-115.52 134.4,-140.97 169,-155 175.35,-157.58 182.12,-159.83 188.96,-161.8"/>
<polygon fill="midnightblue" stroke="midnightblue" points="188.43,-165.28 198.99,-164.47 190.23,-158.51 188.43,-165.28"/>
</g>
<!-- Node3 -->
<g id="node3" class="node">
<title>Node3</title>
<g id="a_node3"><a xlink:href="classInputInterface.html#abae89c99e802186c05e97750e473dac1" target="_top" xlink:title="Set the instance for callbacks when users trigger an input action.">
<polygon fill="white" stroke="black" points="183,-126.5 183,-145.5 331,-145.5 331,-126.5 183,-126.5"/>
<text text-anchor="middle" x="257" y="-133.5" font-family="Helvetica,sans-Serif" font-size="10.00">InputInterface::setCallback</text>
</a>
</g>
</g>
<!-- Node1&#45;&gt;Node3 -->
<g id="edge2" class="edge">
<title>Node1&#45;&gt;Node3</title>
<path fill="none" stroke="midnightblue" d="M105.52,-101.62C124.55,-106.37 147.96,-112.11 169,-117 179.38,-119.41 190.49,-121.9 201.17,-124.26"/>
<polygon fill="midnightblue" stroke="midnightblue" points="200.73,-127.74 211.24,-126.46 202.22,-120.9 200.73,-127.74"/>
</g>
<!-- Node4 -->
<g id="node4" class="node">
<title>Node4</title>
<g id="a_node4"><a xlink:href="classInputInterface.html#a496b20fc72c9b458bc5b7b29bebfe672" target="_top" xlink:title="Set the debounce delay.">
<polygon fill="white" stroke="black" points="179.5,-77 179.5,-107 334.5,-107 334.5,-77 179.5,-77"/>
<text text-anchor="start" x="187.5" y="-95" font-family="Helvetica,sans-Serif" font-size="10.00">InputInterface::setDebounce</text>
<text text-anchor="middle" x="257" y="-84" font-family="Helvetica,sans-Serif" font-size="10.00">Delay</text>
</a>
</g>
</g>
<!-- Node1&#45;&gt;Node4 -->
<g id="edge3" class="edge">
<title>Node1&#45;&gt;Node4</title>
<path fill="none" stroke="midnightblue" d="M133.16,-92C144.78,-92 157.05,-92 169.14,-92"/>
<polygon fill="midnightblue" stroke="midnightblue" points="169.25,-95.5 179.25,-92 169.25,-88.5 169.25,-95.5"/>
</g>
<!-- Node6 -->
<g id="node6" class="node">
<title>Node6</title>
<g id="a_node6"><a xlink:href="classInputInterface.html#a9880a65f1358aa4f7880cddadf3ff846" target="_top" xlink:title="Set the threshold for detecting an input is held.">
<polygon fill="white" stroke="black" points="169,-38.5 169,-57.5 345,-57.5 345,-38.5 169,-38.5"/>
<text text-anchor="middle" x="257" y="-45.5" font-family="Helvetica,sans-Serif" font-size="10.00">InputInterface::setHoldThreshold</text>
</a>
</g>
</g>
<!-- Node1&#45;&gt;Node6 -->
<g id="edge5" class="edge">
<title>Node1&#45;&gt;Node6</title>
<path fill="none" stroke="midnightblue" d="M107.5,-82.48C126.18,-78.05 148.72,-72.73 169,-68 180.44,-65.33 192.73,-62.49 204.37,-59.81"/>
<polygon fill="midnightblue" stroke="midnightblue" points="205.43,-63.16 214.39,-57.51 203.86,-56.34 205.43,-63.16"/>
</g>
<!-- Node7 -->
<g id="node7" class="node">
<title>Node7</title>
<g id="a_node7"><a xlink:href="classInputInterface.html#add815941c23f1e6fe831a13738ed626c" target="_top" xlink:title="Set the logger instance to use for diagnostic logging.">
<polygon fill="white" stroke="black" points="187.5,-0.5 187.5,-19.5 326.5,-19.5 326.5,-0.5 187.5,-0.5"/>
<text text-anchor="middle" x="257" y="-7.5" font-family="Helvetica,sans-Serif" font-size="10.00">InputInterface::setLogger</text>
</a>
</g>
</g>
<!-- Node1&#45;&gt;Node7 -->
<g id="edge6" class="edge">
<title>Node1&#45;&gt;Node7</title>
<path fill="none" stroke="midnightblue" d="M79.88,-82.35C98.28,-68.48 134.4,-43.03 169,-29 175.35,-26.42 182.12,-24.17 188.96,-22.2"/>
<polygon fill="midnightblue" stroke="midnightblue" points="190.23,-25.49 198.99,-19.53 188.43,-18.72 190.23,-25.49"/>
</g>
<!-- Node5 -->
<g id="node5" class="node">
<title>Node5</title>
<g id="a_node5"><a xlink:href="Arduino_8h.html#a6bc5f943544a887f8b23cadfb26a5e30" target="_top" xlink:title=" ">
<polygon fill="white" stroke="black" points="381,-82.5 381,-101.5 425,-101.5 425,-82.5 381,-82.5"/>
<text text-anchor="middle" x="403" y="-89.5" font-family="Helvetica,sans-Serif" font-size="10.00">delay</text>
</a>
</g>
</g>
<!-- Node4&#45;&gt;Node5 -->
<g id="edge4" class="edge">
<title>Node4&#45;&gt;Node5</title>
<path fill="none" stroke="midnightblue" d="M334.64,-92C347.43,-92 360.03,-92 370.81,-92"/>
<polygon fill="midnightblue" stroke="midnightblue" points="370.92,-95.5 380.92,-92 370.92,-88.5 370.92,-95.5"/>
</g>
</g>
</svg>
