<?xml version="1.0" encoding="UTF-8" standalone="no"?>
<!DOCTYPE svg PUBLIC "-//W3C//DTD SVG 1.1//EN"
 "http://www.w3.org/Graphics/SVG/1.1/DTD/svg11.dtd">
<!-- Generated by graphviz version 2.43.0 (0)
 -->
<!-- Title: TFT_eSPITouch::begin Pages: 1 -->
<svg width="730pt" height="390pt"
 viewBox="0.00 0.00 730.00 389.50" xmlns="http://www.w3.org/2000/svg" xmlns:xlink="http://www.w3.org/1999/xlink">
<g id="graph0" class="graph" transform="scale(1 1) rotate(0) translate(4 385.5)">
<title>TFT_eSPITouch::begin</title>
<!-- Node1 -->
<g id="Node000001" class="node">
<title>Node1</title>
<g id="a_Node000001"><a xlink:title="Perform any initial once off setup or configuration here and call only once.">
<polygon fill="#999999" stroke="#666666" points="121,-183 0,-183 0,-164 121,-164 121,-183"/>
<text text-anchor="middle" x="60.5" y="-171" font-family="Helvetica,sans-Serif" font-size="10.00">TFT_eSPITouch::begin</text>
</a>
</g>
</g>
<!-- Node2 -->
<g id="Node000002" class="node">
<title>Node2</title>
<g id="a_Node000002"><a xlink:href="classTFT__eSPITouch.html#a30285f08f51221839e884ccdd9679105" target="_top" xlink:title="Test if valid calibration data is available for this touch interface.">
<polygon fill="white" stroke="#666666" points="325,-344 177,-344 177,-325 325,-325 325,-344"/>
<text text-anchor="middle" x="251" y="-332" font-family="Helvetica,sans-Serif" font-size="10.00">TFT_eSPITouch::_calibrated</text>
</a>
</g>
</g>
<!-- Node1&#45;&gt;Node2 -->
<g id="edge1_Node000001_Node000002" class="edge">
<title>Node1&#45;&gt;Node2</title>
<g id="a_edge1_Node000001_Node000002"><a xlink:title=" ">
<path fill="none" stroke="#63b8ff" d="M65.39,-183.24C76,-208.48 107.95,-276.42 157,-310.5 163.45,-314.98 170.68,-318.63 178.17,-321.59"/>
<polygon fill="#63b8ff" stroke="#63b8ff" points="177.18,-324.96 187.78,-325 179.52,-318.36 177.18,-324.96"/>
</a>
</g>
</g>
<!-- Node3 -->
<g id="Node000003" class="node">
<title>Node3</title>
<g id="a_Node000003"><a xlink:href="classTFT__eSPITouch.html#ad71507c11a328924064e703daef05ada" target="_top" xlink:title="Display calibration error on screen and pause for 5 seconds.">
<polygon fill="white" stroke="#666666" points="345,-268.5 157,-268.5 157,-238.5 345,-238.5 345,-268.5"/>
<text text-anchor="start" x="165" y="-256.5" font-family="Helvetica,sans-Serif" font-size="10.00">TFT_eSPITouch::_displayCalibration</text>
<text text-anchor="middle" x="251" y="-245.5" font-family="Helvetica,sans-Serif" font-size="10.00">Error</text>
</a>
</g>
</g>
<!-- Node1&#45;&gt;Node3 -->
<g id="edge2_Node000001_Node000003" class="edge">
<title>Node1&#45;&gt;Node3</title>
<g id="a_edge2_Node000001_Node000003"><a xlink:title=" ">
<path fill="none" stroke="#63b8ff" d="M75.1,-183.13C93.08,-195.46 126.09,-216.74 157,-229.5 162.01,-231.57 167.25,-233.5 172.57,-235.29"/>
<polygon fill="#63b8ff" stroke="#63b8ff" points="171.63,-238.66 182.22,-238.37 173.76,-232 171.63,-238.66"/>
</a>
</g>
</g>
<!-- Node4 -->
<g id="Node000004" class="node">
<title>Node4</title>
<g id="a_Node000004"><a xlink:href="classTFT__eSPIDisplay.html#af7bbb772e597d3431656ccd32d73bdf5" target="_top" xlink:title="Clear the entire screen.">
<polygon fill="white" stroke="#666666" points="540,-306 381,-306 381,-287 540,-287 540,-306"/>
<text text-anchor="middle" x="460.5" y="-294" font-family="Helvetica,sans-Serif" font-size="10.00">TFT_eSPIDisplay::clearScreen</text>
</a>
</g>
</g>
<!-- Node1&#45;&gt;Node4 -->
<g id="edge19_Node000001_Node000004" class="edge">
<title>Node1&#45;&gt;Node4</title>
<g id="a_edge19_Node000001_Node000004"><a xlink:title=" ">
<path fill="none" stroke="#63b8ff" d="M66.86,-183.22C79.35,-204.78 112.76,-256.38 157,-277.5 228.22,-311.5 319.82,-312.18 383.47,-306.92"/>
<polygon fill="#63b8ff" stroke="#63b8ff" points="383.79,-310.4 393.44,-306.02 383.16,-303.43 383.79,-310.4"/>
</a>
</g>
</g>
<!-- Node13 -->
<g id="Node000013" class="node">
<title>Node13</title>
<g id="a_Node000013"><a xlink:href="classTFT__eSPITouch.html#a68e426669d88922d6c9e761b53558257" target="_top" xlink:title="Run the TFT_eSPI calibration sequence.">
<polygon fill="white" stroke="#666666" points="333,-220 169,-220 169,-201 333,-201 333,-220"/>
<text text-anchor="middle" x="251" y="-208" font-family="Helvetica,sans-Serif" font-size="10.00">TFT_eSPITouch::_doCalibration</text>
</a>
</g>
</g>
<!-- Node1&#45;&gt;Node13 -->
<g id="edge12_Node000001_Node000013" class="edge">
<title>Node1&#45;&gt;Node13</title>
<g id="a_edge12_Node000001_Node000013"><a xlink:title=" ">
<path fill="none" stroke="#63b8ff" d="M109.1,-183.02C124.39,-186.07 141.41,-189.44 157,-192.5 167.75,-194.61 179.2,-196.84 190.26,-198.99"/>
<polygon fill="#63b8ff" stroke="#63b8ff" points="189.79,-202.46 200.28,-200.93 191.13,-195.59 189.79,-202.46"/>
</a>
</g>
</g>
<!-- Node14 -->
<g id="Node000014" class="node">
<title>Node14</title>
<g id="a_Node000014"><a xlink:href="classTFT__eSPITouch.html#a06e34fd9e1c12e99c40070bdb5fc1779" target="_top" xlink:title="Ensure SPIFFS filesystem is up and running.">
<polygon fill="white" stroke="#666666" points="330,-183 172,-183 172,-164 330,-164 330,-183"/>
<text text-anchor="middle" x="251" y="-171" font-family="Helvetica,sans-Serif" font-size="10.00">TFT_eSPITouch::_setupSPIFFS</text>
</a>
</g>
</g>
<!-- Node1&#45;&gt;Node14 -->
<g id="edge13_Node000001_Node000014" class="edge">
<title>Node1&#45;&gt;Node14</title>
<g id="a_edge13_Node000001_Node000014"><a xlink:title=" ">
<path fill="none" stroke="#63b8ff" d="M121.14,-173.5C133.95,-173.5 147.75,-173.5 161.38,-173.5"/>
<polygon fill="#63b8ff" stroke="#63b8ff" points="161.76,-177 171.76,-173.5 161.76,-170 161.76,-177"/>
</a>
</g>
</g>
<!-- Node41 -->
<g id="Node000041" class="node">
<title>Node41</title>
<g id="a_Node000041"><a xlink:href="classTFT__eSPIDisplay.html#ab7db81e0c696ad849833528a4e1212df" target="_top" xlink:title="Perform any initial once off setup or configuration here and call only once.">
<polygon fill="white" stroke="#666666" points="315.5,-146 186.5,-146 186.5,-127 315.5,-127 315.5,-146"/>
<text text-anchor="middle" x="251" y="-134" font-family="Helvetica,sans-Serif" font-size="10.00">TFT_eSPIDisplay::begin</text>
</a>
</g>
</g>
<!-- Node1&#45;&gt;Node41 -->
<g id="edge18_Node000001_Node000041" class="edge">
<title>Node1&#45;&gt;Node41</title>
<g id="a_edge18_Node000001_Node000041"><a xlink:title=" ">
<path fill="none" stroke="#63b8ff" d="M110.04,-163.97C134.79,-159.11 165.09,-153.17 191.16,-148.05"/>
<polygon fill="#63b8ff" stroke="#63b8ff" points="192.16,-151.42 201.29,-146.06 190.81,-144.55 192.16,-151.42"/>
</a>
</g>
</g>
<!-- Node37 -->
<g id="Node000037" class="node">
<title>Node37</title>
<g id="a_Node000037"><a xlink:href="classDisplayInterface.html#a3649a768b8ca59c3070f56aed1fe42c2" target="_top" xlink:title="Get the ID of this display instance.">
<polygon fill="white" stroke="#666666" points="315,-109 187,-109 187,-90 315,-90 315,-109"/>
<text text-anchor="middle" x="251" y="-97" font-family="Helvetica,sans-Serif" font-size="10.00">DisplayInterface::getId</text>
</a>
</g>
</g>
<!-- Node1&#45;&gt;Node37 -->
<g id="edge20_Node000001_Node000037" class="edge">
<title>Node1&#45;&gt;Node37</title>
<g id="a_edge20_Node000001_Node000037"><a xlink:title=" ">
<path fill="none" stroke="#63b8ff" d="M75.04,-163.82C92.94,-151.46 125.87,-130.29 157,-118.5 163.97,-115.86 171.37,-113.56 178.84,-111.57"/>
<polygon fill="#63b8ff" stroke="#63b8ff" points="179.82,-114.93 188.67,-109.11 178.12,-108.14 179.82,-114.93"/>
</a>
</g>
</g>
<!-- Node42 -->
<g id="Node000042" class="node">
<title>Node42</title>
<g id="a_Node000042"><a xlink:href="classTFT__eSPIDisplay.html#ab3084ef6b927bc9dbc0991088dda2c6c" target="_top" xlink:title="Get the TFT_eSPI instance created by this instance &#45; needed for the touch interface.">
<polygon fill="white" stroke="#666666" points="318.5,-71.5 183.5,-71.5 183.5,-41.5 318.5,-41.5 318.5,-71.5"/>
<text text-anchor="start" x="191.5" y="-59.5" font-family="Helvetica,sans-Serif" font-size="10.00">TFT_eSPIDisplay::getTFT</text>
<text text-anchor="middle" x="251" y="-48.5" font-family="Helvetica,sans-Serif" font-size="10.00">_eSPIInstance</text>
</a>
</g>
</g>
<!-- Node1&#45;&gt;Node42 -->
<g id="edge21_Node000001_Node000042" class="edge">
<title>Node1&#45;&gt;Node42</title>
<g id="a_edge21_Node000001_Node000042"><a xlink:title=" ">
<path fill="none" stroke="#63b8ff" d="M68.75,-163.79C83.33,-144.98 118.12,-103.48 157,-81.5 162.22,-78.55 167.8,-75.93 173.55,-73.62"/>
<polygon fill="#63b8ff" stroke="#63b8ff" points="175.16,-76.75 183.33,-70 172.73,-70.19 175.16,-76.75"/>
</a>
</g>
</g>
<!-- Node43 -->
<g id="Node000043" class="node">
<title>Node43</title>
<g id="a_Node000043"><a xlink:href="classTFT__eSPIDisplay.html#ad4f7da2ea80e0fd0206c84f4a787bfb2" target="_top" xlink:title="Test if the TFT_eSPI instance has been initialised &#45; needed for the touch interface.">
<polygon fill="white" stroke="#666666" points="331.5,-23 170.5,-23 170.5,-4 331.5,-4 331.5,-23"/>
<text text-anchor="middle" x="251" y="-11" font-family="Helvetica,sans-Serif" font-size="10.00">TFT_eSPIDisplay::tftInitialised</text>
</a>
</g>
</g>
<!-- Node1&#45;&gt;Node43 -->
<g id="edge22_Node000001_Node000043" class="edge">
<title>Node1&#45;&gt;Node43</title>
<g id="a_edge22_Node000001_Node000043"><a xlink:title=" ">
<path fill="none" stroke="#63b8ff" d="M65.06,-163.71C75.07,-137.69 106.09,-66.47 157,-32.5 159.97,-30.52 163.1,-28.74 166.35,-27.13"/>
<polygon fill="#63b8ff" stroke="#63b8ff" points="167.96,-30.25 175.76,-23.08 165.19,-23.82 167.96,-30.25"/>
</a>
</g>
</g>
<!-- Node3&#45;&gt;Node4 -->
<g id="edge3_Node000003_Node000004" class="edge">
<title>Node3&#45;&gt;Node4</title>
<g id="a_edge3_Node000003_Node000004"><a xlink:title=" ">
<path fill="none" stroke="#63b8ff" d="M324.57,-268.54C350.45,-273.9 379.17,-279.85 403.44,-284.88"/>
<polygon fill="#63b8ff" stroke="#63b8ff" points="403.05,-288.38 413.55,-286.98 404.47,-281.52 403.05,-288.38"/>
</a>
</g>
</g>
<!-- Node5 -->
<g id="Node000005" class="node">
<title>Node5</title>
<g id="a_Node000005"><a xlink:href="Arduino_8h.html#a6bc5f943544a887f8b23cadfb26a5e30" target="_top" xlink:title=" ">
<polygon fill="white" stroke="#666666" points="482.5,-269 438.5,-269 438.5,-250 482.5,-250 482.5,-269"/>
<text text-anchor="middle" x="460.5" y="-257" font-family="Helvetica,sans-Serif" font-size="10.00">delay</text>
</a>
</g>
</g>
<!-- Node3&#45;&gt;Node5 -->
<g id="edge4_Node000003_Node000005" class="edge">
<title>Node3&#45;&gt;Node5</title>
<g id="a_edge4_Node000003_Node000005"><a xlink:title=" ">
<path fill="none" stroke="#63b8ff" d="M345.13,-256.19C374.94,-257.05 405.94,-257.95 428.13,-258.59"/>
<polygon fill="#63b8ff" stroke="#63b8ff" points="428.17,-262.1 438.27,-258.89 428.38,-255.1 428.17,-262.1"/>
</a>
</g>
</g>
<!-- Node6 -->
<g id="Node000006" class="node">
<title>Node6</title>
<g id="a_Node000006"><a xlink:href="classDisplayInterface.html#a1bc192c6854bae554c9aa09cd7122cdc" target="_top" xlink:title="Static method to enable calling back to a derived class with a formatted row.">
<polygon fill="white" stroke="#666666" points="539,-232 382,-232 382,-213 539,-213 539,-232"/>
<text text-anchor="middle" x="460.5" y="-220" font-family="Helvetica,sans-Serif" font-size="10.00">DisplayInterface::formatRow</text>
</a>
</g>
</g>
<!-- Node3&#45;&gt;Node6 -->
<g id="edge5_Node000003_Node000006" class="edge">
<title>Node3&#45;&gt;Node6</title>
<g id="a_edge5_Node000003_Node000006"><a xlink:title=" ">
<path fill="none" stroke="#63b8ff" d="M345.13,-239.59C358.78,-237.55 372.68,-235.47 385.87,-233.5"/>
<polygon fill="#63b8ff" stroke="#63b8ff" points="386.42,-236.96 395.8,-232.02 385.39,-230.03 386.42,-236.96"/>
</a>
</g>
</g>
<!-- Node7 -->
<g id="Node000007" class="node">
<title>Node7</title>
<g id="a_Node000007"><a xlink:href="classDisplayInterface.html#acde7922833a368ce3233fe4d721f838a" target="_top" xlink:title="Convert the provided RGB colour code string constant to a uint16_t RGB565 colour.">
<polygon fill="white" stroke="#666666" points="713,-381.5 585,-381.5 585,-351.5 713,-351.5 713,-381.5"/>
<text text-anchor="start" x="593" y="-369.5" font-family="Helvetica,sans-Serif" font-size="10.00">DisplayInterface::</text>
<text text-anchor="middle" x="649" y="-358.5" font-family="Helvetica,sans-Serif" font-size="10.00">_convertRGBtoRGB565</text>
</a>
</g>
</g>
<!-- Node6&#45;&gt;Node7 -->
<g id="edge6_Node000006_Node000007" class="edge">
<title>Node6&#45;&gt;Node7</title>
<g id="a_edge6_Node000006_Node000007"><a xlink:title=" ">
<path fill="none" stroke="#63b8ff" d="M525.56,-232.06C530.81,-234.55 535.73,-237.65 540,-241.5 575.42,-273.38 541.96,-309.15 576,-342.5 577.09,-343.57 578.23,-344.58 579.4,-345.56"/>
<polygon fill="#63b8ff" stroke="#63b8ff" points="577.52,-348.51 587.72,-351.35 581.52,-342.76 577.52,-348.51"/>
</a>
</g>
</g>
<!-- Node8 -->
<g id="Node000008" class="node">
<title>Node8</title>
<g id="a_Node000008"><a xlink:href="classDisplayInterface.html#ad8da5e63e3775f8f02b04636a9482d97" target="_top" xlink:title="Validates the provided char is a valid modifier.">
<polygon fill="white" stroke="#666666" points="700.5,-333.5 597.5,-333.5 597.5,-303.5 700.5,-303.5 700.5,-333.5"/>
<text text-anchor="start" x="605.5" y="-321.5" font-family="Helvetica,sans-Serif" font-size="10.00">DisplayInterface::</text>
<text text-anchor="middle" x="649" y="-310.5" font-family="Helvetica,sans-Serif" font-size="10.00">_isModifier</text>
</a>
</g>
</g>
<!-- Node6&#45;&gt;Node8 -->
<g id="edge7_Node000006_Node000008" class="edge">
<title>Node6&#45;&gt;Node8</title>
<g id="a_edge7_Node000006_Node000008"><a xlink:title=" ">
<path fill="none" stroke="#63b8ff" d="M521.39,-232C527.99,-234.48 534.35,-237.59 540,-241.5 563.41,-257.71 553.3,-277.31 576,-294.5 579.81,-297.38 583.97,-299.93 588.33,-302.17"/>
<polygon fill="#63b8ff" stroke="#63b8ff" points="586.92,-305.38 597.47,-306.38 589.85,-299.02 586.92,-305.38"/>
</a>
</g>
</g>
<!-- Node9 -->
<g id="Node000009" class="node">
<title>Node9</title>
<g id="a_Node000009"><a xlink:href="classDisplayInterface.html#ac5cc108ca1c1410a8321078b3868ed78" target="_top" xlink:title="Check if the provided string constant translates to a valid RGB colour code.">
<polygon fill="white" stroke="#666666" points="700.5,-285.5 597.5,-285.5 597.5,-255.5 700.5,-255.5 700.5,-285.5"/>
<text text-anchor="start" x="605.5" y="-273.5" font-family="Helvetica,sans-Serif" font-size="10.00">DisplayInterface::</text>
<text text-anchor="middle" x="649" y="-262.5" font-family="Helvetica,sans-Serif" font-size="10.00">_isRGB</text>
</a>
</g>
</g>
<!-- Node6&#45;&gt;Node9 -->
<g id="edge8_Node000006_Node000009" class="edge">
<title>Node6&#45;&gt;Node9</title>
<g id="a_edge8_Node000006_Node000009"><a xlink:title=" ">
<path fill="none" stroke="#63b8ff" d="M501.89,-232.07C514.14,-235.03 527.64,-238.34 540,-241.5 555.35,-245.42 571.9,-249.79 587.31,-253.92"/>
<polygon fill="#63b8ff" stroke="#63b8ff" points="586.68,-257.38 597.25,-256.59 588.5,-250.62 586.68,-257.38"/>
</a>
</g>
</g>
<!-- Node10 -->
<g id="Node000010" class="node">
<title>Node10</title>
<g id="a_Node000010"><a xlink:href="classDisplayInterface.html#a96f1a22d4566a22aefd3b652808d9441" target="_top" xlink:title="Sanitise the provided struct of RowAttributes.">
<polygon fill="white" stroke="#666666" points="703,-237.5 595,-237.5 595,-207.5 703,-207.5 703,-237.5"/>
<text text-anchor="start" x="603" y="-225.5" font-family="Helvetica,sans-Serif" font-size="10.00">DisplayInterface::</text>
<text text-anchor="middle" x="649" y="-214.5" font-family="Helvetica,sans-Serif" font-size="10.00">_sanitiseAttributes</text>
</a>
</g>
</g>
<!-- Node6&#45;&gt;Node10 -->
<g id="edge9_Node000006_Node000010" class="edge">
<title>Node6&#45;&gt;Node10</title>
<g id="a_edge9_Node000006_Node000010"><a xlink:title=" ">
<path fill="none" stroke="#63b8ff" d="M539.24,-222.5C554.28,-222.5 569.88,-222.5 584.4,-222.5"/>
<polygon fill="#63b8ff" stroke="#63b8ff" points="584.76,-226 594.76,-222.5 584.76,-219 584.76,-226"/>
</a>
</g>
</g>
<!-- Node11 -->
<g id="Node000011" class="node">
<title>Node11</title>
<g id="a_Node000011"><a xlink:href="classDisplayInterface.html#a652c6ce102531b9dd02fb960946987c8" target="_top" xlink:title="Update the provided RowAttributes struct according to the provided modifier.">
<polygon fill="white" stroke="#666666" points="700.5,-189.5 597.5,-189.5 597.5,-159.5 700.5,-159.5 700.5,-189.5"/>
<text text-anchor="start" x="605.5" y="-177.5" font-family="Helvetica,sans-Serif" font-size="10.00">DisplayInterface::</text>
<text text-anchor="middle" x="649" y="-166.5" font-family="Helvetica,sans-Serif" font-size="10.00">_setAttribute</text>
</a>
</g>
</g>
<!-- Node6&#45;&gt;Node11 -->
<g id="edge10_Node000006_Node000011" class="edge">
<title>Node6&#45;&gt;Node11</title>
<g id="a_edge10_Node000006_Node000011"><a xlink:title=" ">
<path fill="none" stroke="#63b8ff" d="M498.79,-212.9C524.2,-206.36 558.39,-197.56 587.64,-190.04"/>
<polygon fill="#63b8ff" stroke="#63b8ff" points="588.54,-193.42 597.35,-187.54 586.79,-186.64 588.54,-193.42"/>
</a>
</g>
</g>
<!-- Node12 -->
<g id="Node000012" class="node">
<title>Node12</title>
<g id="a_Node000012"><a xlink:href="classDisplayInterface.html#a8e1258fa3f32baf1587b80354c8afdb3" target="_top" xlink:title="Display a row using formatting modifiers.">
<polygon fill="white" stroke="#666666" points="718,-141.5 580,-141.5 580,-111.5 718,-111.5 718,-141.5"/>
<text text-anchor="start" x="588" y="-129.5" font-family="Helvetica,sans-Serif" font-size="10.00">DisplayInterface::display</text>
<text text-anchor="middle" x="649" y="-118.5" font-family="Helvetica,sans-Serif" font-size="10.00">FormattedRow</text>
</a>
</g>
</g>
<!-- Node6&#45;&gt;Node12 -->
<g id="edge11_Node000006_Node000012" class="edge">
<title>Node6&#45;&gt;Node12</title>
<g id="a_edge11_Node000006_Node000012"><a xlink:title=" ">
<path fill="none" stroke="#63b8ff" d="M474.31,-213C494.88,-198.08 536.94,-168.96 576,-150.5 579.99,-148.61 584.18,-146.81 588.43,-145.1"/>
<polygon fill="#63b8ff" stroke="#63b8ff" points="589.73,-148.35 597.81,-141.5 587.22,-141.81 589.73,-148.35"/>
</a>
</g>
</g>
<!-- Node15 -->
<g id="Node000015" class="node">
<title>Node15</title>
<g id="a_Node000015"><a xlink:href="EX-Display_8ino.html#a4fc01d736fe50cf5b977f755b675f11d" target="_top" xlink:title="Main setup method, initialise Configurator here.">
<polygon fill="white" stroke="#666666" points="482.5,-75 438.5,-75 438.5,-56 482.5,-56 482.5,-75"/>
<text text-anchor="middle" x="460.5" y="-63" font-family="Helvetica,sans-Serif" font-size="10.00">setup</text>
</a>
</g>
</g>
<!-- Node14&#45;&gt;Node15 -->
<g id="edge14_Node000014_Node000015" class="edge">
<title>Node14&#45;&gt;Node15</title>
<g id="a_edge14_Node000014_Node000015"><a xlink:title=" ">
<path fill="none" stroke="#63b8ff" d="M321.21,-163.93C329.42,-161.69 337.52,-158.92 345,-155.5 384.56,-137.42 422.65,-103 443.39,-82.36"/>
<polygon fill="#63b8ff" stroke="#63b8ff" points="445.93,-84.77 450.46,-75.19 440.94,-79.86 445.93,-84.77"/>
</a>
</g>
</g>
<!-- Node16 -->
<g id="Node000016" class="node">
<title>Node16</title>
<g id="a_Node000016"><a xlink:href="classController.html#a1cc0b87ab9e07d21ab47d294aa5bf607" target="_top" xlink:title="Call once to start displays and input.">
<polygon fill="#fff0f0" stroke="red" points="698,-93 600,-93 600,-74 698,-74 698,-93"/>
<text text-anchor="middle" x="649" y="-81" font-family="Helvetica,sans-Serif" font-size="10.00">Controller::begin</text>
</a>
</g>
</g>
<!-- Node15&#45;&gt;Node16 -->
<g id="edge15_Node000015_Node000016" class="edge">
<title>Node15&#45;&gt;Node16</title>
<g id="a_edge15_Node000015_Node000016"><a xlink:title=" ">
<path fill="none" stroke="#63b8ff" d="M482.53,-67.53C508.39,-70.03 553.35,-74.36 589.88,-77.89"/>
<polygon fill="#63b8ff" stroke="#63b8ff" points="589.65,-81.38 599.94,-78.86 590.32,-74.42 589.65,-81.38"/>
</a>
</g>
</g>
<!-- Node28 -->
<g id="Node000028" class="node">
<title>Node28</title>
<g id="a_Node000028"><a xlink:href="classConfigurator.html#a82c65d6d040b717d64520903c788dd79" target="_top" xlink:title="Get the Controller instance for this Configurator.">
<polygon fill="white" stroke="#666666" points="722,-56 576,-56 576,-37 722,-37 722,-56"/>
<text text-anchor="middle" x="649" y="-44" font-family="Helvetica,sans-Serif" font-size="10.00">Configurator::getController</text>
</a>
</g>
</g>
<!-- Node15&#45;&gt;Node28 -->
<g id="edge16_Node000015_Node000028" class="edge">
<title>Node15&#45;&gt;Node28</title>
<g id="a_edge16_Node000015_Node000028"><a xlink:title=" ">
<path fill="none" stroke="#63b8ff" d="M482.53,-63.36C502.82,-61.29 534.85,-58.03 565.35,-54.92"/>
<polygon fill="#63b8ff" stroke="#63b8ff" points="566.02,-58.37 575.61,-53.87 565.31,-51.41 566.02,-58.37"/>
</a>
</g>
</g>
<!-- Node29 -->
<g id="Node000029" class="node">
<title>Node29</title>
<g id="a_Node000029"><a xlink:href="classConfigurator.html#a25ee5e1b0a64d971232d6ecaaadd5d61" target="_top" xlink:title="Call all one&#45;shot initialisation or begin methods on startup.">
<polygon fill="#fff0f0" stroke="red" points="711.5,-19 586.5,-19 586.5,0 711.5,0 711.5,-19"/>
<text text-anchor="middle" x="649" y="-7" font-family="Helvetica,sans-Serif" font-size="10.00">Configurator::initialise</text>
</a>
</g>
</g>
<!-- Node15&#45;&gt;Node29 -->
<g id="edge17_Node000015_Node000029" class="edge">
<title>Node15&#45;&gt;Node29</title>
<g id="a_edge17_Node000015_Node000029"><a xlink:title=" ">
<path fill="none" stroke="#63b8ff" d="M482.87,-57.87C505.76,-49.83 543.22,-37.02 576,-27.5 582.98,-25.47 590.37,-23.47 597.66,-21.57"/>
<polygon fill="#63b8ff" stroke="#63b8ff" points="598.67,-24.92 607.49,-19.06 596.94,-18.14 598.67,-24.92"/>
</a>
</g>
</g>
</g>
</svg>
