<?xml version="1.0" encoding="UTF-8" standalone="no"?>
<!DOCTYPE svg PUBLIC "-//W3C//DTD SVG 1.1//EN"
 "http://www.w3.org/Graphics/SVG/1.1/DTD/svg11.dtd">
<!-- Generated by graphviz version 2.43.0 (0)
 -->
<!-- Title: ControllerInputActionTests Pages: 1 -->
<!--zoomable 461 -->
<svg id="main" version="1.1" xmlns="http://www.w3.org/2000/svg" xmlns:xlink="http://www.w3.org/1999/xlink" xml:space="preserve" onload="init(evt)">
<style type="text/css"><![CDATA[
.edge:hover path { stroke: red; }
.edge:hover polygon { stroke: red; fill: red; }
]]></style>
<script type="text/javascript"><![CDATA[
var edges = document.getElementsByTagName('g');
if (edges && edges.length) {
  for (var i=0;i<edges.length;i++) {
    if (edges[i].id.substr(0,4)=='edge') {
      edges[i].setAttribute('class','edge');
    }
  }
}
]]></script>
        <defs>
                <circle id="rim" cx="0" cy="0" r="7"/>
                <circle id="rim2" cx="0" cy="0" r="3.5"/>
                <g id="zoomPlus">
                        <use xlink:href="#rim" fill="#404040">
                                <set attributeName="fill" to="#808080" begin="zoomplus.mouseover" end="zoomplus.mouseout"/>
                        </use>
                        <path d="M-4,0h8M0,-4v8" fill="none" stroke="white" stroke-width="1.5" pointer-events="none"/>
                </g>
                <g id="zoomMin">
                        <use xlink:href="#rim" fill="#404040">
                                <set attributeName="fill" to="#808080" begin="zoomminus.mouseover" end="zoomminus.mouseout"/>
                        </use>
                        <path d="M-4,0h8" fill="none" stroke="white" stroke-width="1.5" pointer-events="none"/>
                </g>
                <g id="dirArrow">
                        <path fill="none" stroke="white" stroke-width="1.5" d="M0,-3.0v7 M-2.5,-0.5L0,-3.0L2.5,-0.5"/>
                </g>
               <g id="resetDef">
                       <use xlink:href="#rim2" fill="#404040">
                               <set attributeName="fill" to="#808080" begin="reset.mouseover" end="reset.mouseout"/>
                       </use>
               </g>
        </defs>

<script type="text/javascript">
var viewWidth = 895;
var viewHeight = 461;
var sectionId = 'dynsection-1';
</script>
<script xlink:href="svgpan.js"/>
<svg id="graph" class="graph">
<g id="viewport">
<title>ControllerInputActionTests</title>
<polygon fill="white" stroke="transparent" points="-4,4 -4,-457 891,-457 891,4 -4,4"/>
<!-- Node1 -->
<g id="node1" class="node">
<title>Node1</title>
<g id="a_node1"><a xlink:title="Test harness for input actions interacting with the Controller.">
<polygon fill="#bfbfbf" stroke="black" points="162.5,-0.5 162.5,-19.5 307.5,-19.5 307.5,-0.5 162.5,-0.5"/>
<text text-anchor="middle" x="235" y="-7.5" font-family="Helvetica,sans-Serif" font-size="10.00">ControllerInputActionTests</text>
</a>
</g>
</g>
<!-- Node2 -->
<g id="node2" class="node">
<title>Node2</title>
<g id="a_node2"><a xlink:title=" ">
<polygon fill="white" stroke="#bfbfbf" points="0,-67.5 0,-86.5 36,-86.5 36,-67.5 0,-67.5"/>
<text text-anchor="middle" x="18" y="-74.5" font-family="Helvetica,sans-Serif" font-size="10.00">Test</text>
</a>
</g>
</g>
<!-- Node2&#45;&gt;Node1 -->
<g id="edge1" class="edge">
<title>Node2&#45;&gt;Node1</title>
<path fill="none" stroke="midnightblue" d="M31.06,-59.59C38.18,-51.79 47.64,-43.08 58,-38 90.1,-22.27 129.08,-15.23 162.28,-12.24"/>
<polygon fill="midnightblue" stroke="midnightblue" points="28.15,-57.6 24.32,-67.48 33.47,-62.15 28.15,-57.6"/>
</g>
<!-- Node3 -->
<g id="node3" class="node">
<title>Node3</title>
<g id="a_node3"><a xlink:href="classMockInput.html" target="_top" xlink:title="Mock physical input class.">
<polygon fill="white" stroke="black" points="2,-105.5 2,-124.5 70,-124.5 70,-105.5 2,-105.5"/>
<text text-anchor="middle" x="36" y="-112.5" font-family="Helvetica,sans-Serif" font-size="10.00">MockInput</text>
</a>
</g>
</g>
<!-- Node3&#45;&gt;Node1 -->
<g id="edge2" class="edge">
<title>Node3&#45;&gt;Node1</title>
<path fill="none" stroke="#9a32cd" stroke-dasharray="5,2" d="M49.69,-97.51C65.29,-79.87 92.49,-52.49 122,-38 139.29,-29.51 159.41,-23.6 177.83,-19.52"/>
<polygon fill="#9a32cd" stroke="#9a32cd" points="46.87,-95.42 43,-105.29 52.17,-99.99 46.87,-95.42"/>
<text text-anchor="middle" x="94" y="-74.5" font-family="Helvetica,sans-Serif" font-size="10.00"> input</text>
</g>
<!-- Node4 -->
<g id="node4" class="node">
<title>Node4</title>
<g id="a_node4"><a xlink:href="classInputInterface.html" target="_top" xlink:title="Class to abstract away all physical input implementatio to enable multiple input types Default return...">
<polygon fill="white" stroke="black" points="75.5,-220.5 75.5,-239.5 160.5,-239.5 160.5,-220.5 75.5,-220.5"/>
<text text-anchor="middle" x="118" y="-227.5" font-family="Helvetica,sans-Serif" font-size="10.00">InputInterface</text>
</a>
</g>
</g>
<!-- Node4&#45;&gt;Node3 -->
<g id="edge3" class="edge">
<title>Node4&#45;&gt;Node3</title>
<path fill="none" stroke="midnightblue" d="M105.5,-211.77C87.67,-187.2 55.61,-143.02 42.18,-124.52"/>
<polygon fill="midnightblue" stroke="midnightblue" points="102.86,-214.1 111.57,-220.13 108.53,-209.98 102.86,-214.1"/>
</g>
<!-- Node14 -->
<g id="node13" class="node">
<title>Node14</title>
<g id="a_node13"><a xlink:href="classInputManager.html" target="_top" xlink:title=" ">
<polygon fill="white" stroke="black" points="94,-143.5 94,-162.5 178,-162.5 178,-143.5 94,-143.5"/>
<text text-anchor="middle" x="136" y="-150.5" font-family="Helvetica,sans-Serif" font-size="10.00">InputManager</text>
</a>
</g>
</g>
<!-- Node4&#45;&gt;Node14 -->
<g id="edge22" class="edge">
<title>Node4&#45;&gt;Node14</title>
<path fill="none" stroke="#9a32cd" stroke-dasharray="5,2" d="M122.45,-210.47C126.12,-195.15 131.18,-174.09 133.96,-162.5"/>
<polygon fill="#9a32cd" stroke="#9a32cd" points="119,-209.86 120.06,-220.4 125.8,-211.49 119,-209.86"/>
<text text-anchor="middle" x="147" y="-188.5" font-family="Helvetica,sans-Serif" font-size="10.00"> _input</text>
</g>
<!-- Node5 -->
<g id="node5" class="node">
<title>Node5</title>
<g id="a_node5"><a xlink:href="classCallbackInterface.html" target="_top" xlink:title="Interface class to use for callbacks.">
<polygon fill="white" stroke="black" points="313,-299.5 313,-318.5 415,-318.5 415,-299.5 313,-299.5"/>
<text text-anchor="middle" x="364" y="-306.5" font-family="Helvetica,sans-Serif" font-size="10.00">CallbackInterface</text>
</a>
</g>
</g>
<!-- Node5&#45;&gt;Node4 -->
<g id="edge4" class="edge">
<title>Node5&#45;&gt;Node4</title>
<path fill="none" stroke="#9a32cd" stroke-dasharray="5,2" d="M318.77,-296.81C300.99,-292.21 280.45,-286.64 262,-281 218.72,-267.78 169.01,-249.91 140.77,-239.5"/>
<polygon fill="#9a32cd" stroke="#9a32cd" points="318.33,-300.31 328.88,-299.4 320.06,-293.53 318.33,-300.31"/>
<text text-anchor="middle" x="286.5" y="-267.5" font-family="Helvetica,sans-Serif" font-size="10.00"> _callback</text>
</g>
<!-- Node9 -->
<g id="node9" class="node">
<title>Node9</title>
<g id="a_node9"><a xlink:href="classController.html" target="_top" xlink:title="Class for the central controller for EX&#45;Display All application activities are controlled through thi...">
<polygon fill="white" stroke="black" points="414.5,-67.5 414.5,-86.5 479.5,-86.5 479.5,-67.5 414.5,-67.5"/>
<text text-anchor="middle" x="447" y="-74.5" font-family="Helvetica,sans-Serif" font-size="10.00">Controller</text>
</a>
</g>
</g>
<!-- Node5&#45;&gt;Node9 -->
<g id="edge12" class="edge">
<title>Node5&#45;&gt;Node9</title>
<path fill="none" stroke="midnightblue" d="M384.21,-292.67C388.1,-289.12 391.92,-285.15 395,-281 429.25,-234.82 435.95,-219.22 448,-163 453.87,-135.58 450.48,-102.04 448.34,-86.57"/>
<polygon fill="midnightblue" stroke="midnightblue" points="381.72,-290.18 376.33,-299.3 386.23,-295.54 381.72,-290.18"/>
</g>
<!-- Node6 -->
<g id="node6" class="node">
<title>Node6</title>
<g id="a_node6"><a xlink:href="classLogger.html" target="_top" xlink:title="Class to enable simple logging to a Stream object with different log levels This enables embedding pe...">
<polygon fill="white" stroke="black" points="382,-366.5 382,-385.5 432,-385.5 432,-366.5 382,-366.5"/>
<text text-anchor="middle" x="407" y="-373.5" font-family="Helvetica,sans-Serif" font-size="10.00">Logger</text>
</a>
</g>
</g>
<!-- Node6&#45;&gt;Node4 -->
<g id="edge7" class="edge">
<title>Node6&#45;&gt;Node4</title>
<path fill="none" stroke="#9a32cd" stroke-dasharray="5,2" d="M371.79,-374.03C298.49,-371.19 133.44,-360.26 99,-319 79.47,-295.6 100.72,-256.79 111.95,-239.62"/>
<polygon fill="#9a32cd" stroke="#9a32cd" points="371.8,-377.53 381.91,-374.39 372.05,-370.54 371.8,-377.53"/>
<text text-anchor="middle" x="119" y="-306.5" font-family="Helvetica,sans-Serif" font-size="10.00"> _logger</text>
</g>
<!-- Node6&#45;&gt;Node5 -->
<g id="edge5" class="edge">
<title>Node6&#45;&gt;Node5</title>
<path fill="none" stroke="#9a32cd" stroke-dasharray="5,2" d="M395.45,-357.53C387.12,-344.95 376.24,-328.51 369.71,-318.63"/>
<polygon fill="#9a32cd" stroke="#9a32cd" points="392.76,-359.82 401.2,-366.23 398.6,-355.96 392.76,-359.82"/>
<text text-anchor="middle" x="409" y="-340" font-family="Helvetica,sans-Serif" font-size="10.00"> _logger</text>
</g>
<!-- Node8 -->
<g id="node8" class="node">
<title>Node8</title>
<g id="a_node8"><a xlink:href="classDisplayInterface.html" target="_top" xlink:title="Class to abstract away all physical display implementation to enable multiple display types.">
<polygon fill="white" stroke="black" points="148.5,-299.5 148.5,-318.5 245.5,-318.5 245.5,-299.5 148.5,-299.5"/>
<text text-anchor="middle" x="197" y="-306.5" font-family="Helvetica,sans-Serif" font-size="10.00">DisplayInterface</text>
</a>
</g>
</g>
<!-- Node6&#45;&gt;Node8 -->
<g id="edge9" class="edge">
<title>Node6&#45;&gt;Node8</title>
<path fill="none" stroke="#9a32cd" stroke-dasharray="5,2" d="M372.01,-364.17C330.65,-351.37 262.67,-330.33 224.76,-318.59"/>
<polygon fill="#9a32cd" stroke="#9a32cd" points="371.08,-367.55 381.67,-367.16 373.15,-360.86 371.08,-367.55"/>
<text text-anchor="middle" x="335" y="-340" font-family="Helvetica,sans-Serif" font-size="10.00"> _logger</text>
</g>
<!-- Node10 -->
<g id="node10" class="node">
<title>Node10</title>
<g id="a_node10"><a xlink:href="classScreenManager.html" target="_top" xlink:title="Class to manage all EX&#45;Display screens.">
<polygon fill="white" stroke="black" points="503,-181.5 503,-200.5 595,-200.5 595,-181.5 503,-181.5"/>
<text text-anchor="middle" x="549" y="-188.5" font-family="Helvetica,sans-Serif" font-size="10.00">ScreenManager</text>
</a>
</g>
</g>
<!-- Node6&#45;&gt;Node10 -->
<g id="edge17" class="edge">
<title>Node6&#45;&gt;Node10</title>
<path fill="none" stroke="#9a32cd" stroke-dasharray="5,2" d="M430.05,-361.1C436.08,-357.12 442.45,-352.61 448,-348 500.39,-304.53 535.03,-226.74 545.59,-200.74"/>
<polygon fill="#9a32cd" stroke="#9a32cd" points="428.14,-358.16 421.59,-366.49 431.9,-364.07 428.14,-358.16"/>
<text text-anchor="middle" x="512" y="-306.5" font-family="Helvetica,sans-Serif" font-size="10.00"> _logger</text>
</g>
<!-- Node11 -->
<g id="node11" class="node">
<title>Node11</title>
<g id="a_node11"><a xlink:href="classScreen.html" target="_top" xlink:title="Class for each screen as received from the EXRAIL SCREEN() command Each Screen instance contains a li...">
<polygon fill="white" stroke="red" points="585,-299.5 585,-318.5 635,-318.5 635,-299.5 585,-299.5"/>
<text text-anchor="middle" x="610" y="-306.5" font-family="Helvetica,sans-Serif" font-size="10.00">Screen</text>
</a>
</g>
</g>
<!-- Node6&#45;&gt;Node11 -->
<g id="edge16" class="edge">
<title>Node6&#45;&gt;Node11</title>
<path fill="none" stroke="#9a32cd" stroke-dasharray="5,2" d="M442.27,-370.88C469.77,-366.97 508.59,-359.87 541,-348 561.8,-340.38 583.91,-327.19 597.34,-318.53"/>
<polygon fill="#9a32cd" stroke="#9a32cd" points="441.76,-367.42 432.32,-372.23 442.7,-374.36 441.76,-367.42"/>
<text text-anchor="middle" x="584" y="-340" font-family="Helvetica,sans-Serif" font-size="10.00"> _logger</text>
</g>
<!-- Node13 -->
<g id="node12" class="node">
<title>Node13</title>
<g id="a_node12"><a xlink:href="classDisplayManager.html" target="_top" xlink:title="Manages all physical displays.">
<polygon fill="white" stroke="black" points="292,-181.5 292,-200.5 388,-200.5 388,-181.5 292,-181.5"/>
<text text-anchor="middle" x="340" y="-188.5" font-family="Helvetica,sans-Serif" font-size="10.00">DisplayManager</text>
</a>
</g>
</g>
<!-- Node6&#45;&gt;Node13 -->
<g id="edge19" class="edge">
<title>Node6&#45;&gt;Node13</title>
<path fill="none" stroke="#9a32cd" stroke-dasharray="5,2" d="M425.86,-359.27C428.77,-355.88 431.36,-352.07 433,-348 438.25,-334.98 429.51,-311.03 424,-299 405,-257.57 366.91,-217.79 349.31,-200.72"/>
<polygon fill="#9a32cd" stroke="#9a32cd" points="423.35,-356.83 418.74,-366.37 428.3,-361.78 423.35,-356.83"/>
<text text-anchor="middle" x="452" y="-306.5" font-family="Helvetica,sans-Serif" font-size="10.00"> _logger</text>
</g>
<!-- Node6&#45;&gt;Node14 -->
<g id="edge23" class="edge">
<title>Node6&#45;&gt;Node14</title>
<path fill="none" stroke="#9a32cd" stroke-dasharray="5,2" d="M371.31,-374.14C305.55,-372.14 167.95,-365.89 124,-348 104.97,-340.25 103.29,-332.73 88,-319 70.23,-303.04 59.14,-303.07 50,-281 46.26,-271.97 48.15,-268.6 50,-259 53.62,-240.2 55.17,-234.79 66,-219 82.23,-195.34 108.49,-173.98 123.82,-162.61"/>
<polygon fill="#9a32cd" stroke="#9a32cd" points="371.5,-377.65 381.6,-374.44 371.7,-370.65 371.5,-377.65"/>
<text text-anchor="middle" x="70" y="-267.5" font-family="Helvetica,sans-Serif" font-size="10.00"> _logger</text>
</g>
<!-- Node7 -->
<g id="node7" class="node">
<title>Node7</title>
<g id="a_node7"><a xlink:href="classStream.html" target="_top" xlink:title="Class to mock the basic Stream function equivalent of the Arduino framework.">
<polygon fill="white" stroke="black" points="686,-433.5 686,-452.5 738,-452.5 738,-433.5 686,-433.5"/>
<text text-anchor="middle" x="712" y="-440.5" font-family="Helvetica,sans-Serif" font-size="10.00">Stream</text>
</a>
</g>
</g>
<!-- Node7&#45;&gt;Node1 -->
<g id="edge29" class="edge">
<title>Node7&#45;&gt;Node1</title>
<path fill="none" stroke="#9a32cd" stroke-dasharray="5,2" d="M747.84,-431.25C772.2,-421.47 800,-404.33 800,-377 800,-377 800,-377 800,-76 800,-27 460.3,-14.91 307.71,-11.95"/>
<polygon fill="#9a32cd" stroke="#9a32cd" points="746.56,-427.99 738.4,-434.76 749,-434.55 746.56,-427.99"/>
<text text-anchor="middle" x="843.5" y="-233" font-family="Helvetica,sans-Serif" font-size="10.00"> commandStation</text>
<text text-anchor="middle" x="843.5" y="-222" font-family="Helvetica,sans-Serif" font-size="10.00">console</text>
</g>
<!-- Node7&#45;&gt;Node6 -->
<g id="edge6" class="edge">
<title>Node7&#45;&gt;Node6</title>
<path fill="none" stroke="#9a32cd" stroke-dasharray="5,2" d="M676.18,-434.37C613.66,-421.04 486.11,-393.86 432.08,-382.35"/>
<polygon fill="#9a32cd" stroke="#9a32cd" points="675.49,-437.8 686,-436.46 676.95,-430.95 675.49,-437.8"/>
<text text-anchor="middle" x="615" y="-407" font-family="Helvetica,sans-Serif" font-size="10.00"> _outputStream</text>
</g>
<!-- Node7&#45;&gt;Node9 -->
<g id="edge25" class="edge">
<title>Node7&#45;&gt;Node9</title>
<path fill="none" stroke="#9a32cd" stroke-dasharray="5,2" d="M714.6,-423.22C717.63,-393.92 719.27,-336.75 693,-299 683.23,-284.97 670.18,-293.94 659,-281 616.45,-231.75 655.13,-189.89 610,-143 574.72,-106.34 516.1,-89.85 479.61,-82.81"/>
<polygon fill="#9a32cd" stroke="#9a32cd" points="711.11,-422.97 713.38,-433.31 718.06,-423.8 711.11,-422.97"/>
<text text-anchor="middle" x="722.5" y="-273" font-family="Helvetica,sans-Serif" font-size="10.00"> _commandStationStream</text>
<text text-anchor="middle" x="722.5" y="-262" font-family="Helvetica,sans-Serif" font-size="10.00">_consoleStream</text>
</g>
<!-- Node8&#45;&gt;Node4 -->
<g id="edge8" class="edge">
<title>Node8&#45;&gt;Node4</title>
<path fill="none" stroke="#9a32cd" stroke-dasharray="5,2" d="M158.91,-295.2C151.64,-291.47 144.58,-286.8 139,-281 127.77,-269.33 122.15,-250.77 119.67,-239.85"/>
<polygon fill="#9a32cd" stroke="#9a32cd" points="157.57,-298.44 168.11,-299.43 160.49,-292.07 157.57,-298.44"/>
<text text-anchor="middle" x="161" y="-267.5" font-family="Helvetica,sans-Serif" font-size="10.00"> _display</text>
</g>
<!-- Node8&#45;&gt;Node8 -->
<g id="edge10" class="edge">
<title>Node8&#45;&gt;Node8</title>
<path fill="none" stroke="#9a32cd" stroke-dasharray="5,2" d="M255.88,-313.58C260.59,-312.58 263.5,-311.05 263.5,-309 263.5,-305.72 256.04,-303.78 245.71,-303.19"/>
<polygon fill="#9a32cd" stroke="#9a32cd" points="255.22,-310.13 245.71,-314.81 256.06,-317.08 255.22,-310.13"/>
<text text-anchor="middle" x="279" y="-306.5" font-family="Helvetica,sans-Serif" font-size="10.00"> _next</text>
</g>
<!-- Node8&#45;&gt;Node13 -->
<g id="edge20" class="edge">
<title>Node8&#45;&gt;Node13</title>
<path fill="none" stroke="#9a32cd" stroke-dasharray="5,2" d="M255.7,-305.5C275.35,-301.92 296.03,-294.79 311,-281 334.55,-259.31 339.03,-218.3 339.84,-200.55"/>
<polygon fill="#9a32cd" stroke="#9a32cd" points="254.91,-302.08 245.56,-307.06 255.98,-308.99 254.91,-302.08"/>
<text text-anchor="middle" x="359" y="-267.5" font-family="Helvetica,sans-Serif" font-size="10.00"> _firstDisplay</text>
</g>
<!-- Node8&#45;&gt;Node14 -->
<g id="edge24" class="edge">
<title>Node8&#45;&gt;Node14</title>
<path fill="none" stroke="#9a32cd" stroke-dasharray="5,2" d="M196.39,-289.26C194.76,-263.19 188.91,-215.32 168,-181 163.54,-173.68 156.39,-167.37 149.98,-162.69"/>
<polygon fill="#9a32cd" stroke="#9a32cd" points="192.9,-289.46 196.87,-299.29 199.89,-289.13 192.9,-289.46"/>
<text text-anchor="middle" x="212" y="-227.5" font-family="Helvetica,sans-Serif" font-size="10.00"> _display</text>
</g>
<!-- Node9&#45;&gt;Node1 -->
<g id="edge11" class="edge">
<title>Node9&#45;&gt;Node1</title>
<path fill="none" stroke="#9a32cd" stroke-dasharray="5,2" d="M409.26,-64.43C367.28,-51.56 300.46,-31.07 262.93,-19.56"/>
<polygon fill="#9a32cd" stroke="#9a32cd" points="408.26,-67.78 418.85,-67.37 410.31,-61.09 408.26,-67.78"/>
<text text-anchor="middle" x="379" y="-41" font-family="Helvetica,sans-Serif" font-size="10.00"> controller</text>
</g>
<!-- Node10&#45;&gt;Node1 -->
<g id="edge26" class="edge">
<title>Node10&#45;&gt;Node1</title>
<path fill="none" stroke="#9a32cd" stroke-dasharray="5,2" d="M591.79,-176.58C597.43,-173.04 602.46,-168.59 606,-163 610.75,-155.49 610.26,-150.8 606,-143 576.13,-88.23 543.9,-94.69 488,-67 431.06,-38.79 359.93,-24.66 307.61,-17.66"/>
<polygon fill="#9a32cd" stroke="#9a32cd" points="589.79,-173.68 582.57,-181.44 593.05,-179.87 589.79,-173.68"/>
<text text-anchor="middle" x="633.5" y="-112.5" font-family="Helvetica,sans-Serif" font-size="10.00"> screenManager</text>
</g>
<!-- Node10&#45;&gt;Node9 -->
<g id="edge13" class="edge">
<title>Node10&#45;&gt;Node9</title>
<path fill="none" stroke="#9a32cd" stroke-dasharray="5,2" d="M532.41,-174.02C528.9,-170.46 525.26,-166.66 522,-163 500.11,-138.44 498.33,-129.17 476,-105 470.03,-98.53 462.78,-91.78 457.02,-86.65"/>
<polygon fill="#9a32cd" stroke="#9a32cd" points="530.16,-176.71 539.73,-181.25 535.08,-171.73 530.16,-176.71"/>
<text text-anchor="middle" x="564" y="-150.5" font-family="Helvetica,sans-Serif" font-size="10.00"> _screenManager</text>
</g>
<!-- Node11&#45;&gt;Node10 -->
<g id="edge14" class="edge">
<title>Node11&#45;&gt;Node10</title>
<path fill="none" stroke="#9a32cd" stroke-dasharray="5,2" d="M586.56,-293.26C582.24,-289.69 578.11,-285.56 575,-281 557.39,-255.21 551.54,-217.4 549.74,-200.59"/>
<polygon fill="#9a32cd" stroke="#9a32cd" points="584.78,-296.31 594.9,-299.44 588.95,-290.68 584.78,-296.31"/>
<text text-anchor="middle" x="605.5" y="-267.5" font-family="Helvetica,sans-Serif" font-size="10.00"> _firstScreen</text>
</g>
<!-- Node11&#45;&gt;Node11 -->
<g id="edge15" class="edge">
<title>Node11&#45;&gt;Node11</title>
<path fill="none" stroke="#9a32cd" stroke-dasharray="5,2" d="M645.45,-314.25C650,-313.34 653,-311.59 653,-309 653,-304.75 644.91,-302.76 635.18,-303.02"/>
<polygon fill="#9a32cd" stroke="#9a32cd" points="644.91,-310.78 635.18,-314.98 645.4,-317.77 644.91,-310.78"/>
<text text-anchor="middle" x="668.5" y="-306.5" font-family="Helvetica,sans-Serif" font-size="10.00"> _next</text>
</g>
<!-- Node13&#45;&gt;Node1 -->
<g id="edge27" class="edge">
<title>Node13&#45;&gt;Node1</title>
<path fill="none" stroke="#9a32cd" stroke-dasharray="5,2" d="M301.16,-177.81C276.58,-167.84 246.74,-151.07 232,-125 212.42,-90.36 225.43,-39.84 231.93,-19.73"/>
<polygon fill="#9a32cd" stroke="#9a32cd" points="300.04,-181.12 310.63,-181.42 302.53,-174.58 300.04,-181.12"/>
<text text-anchor="middle" x="273" y="-112.5" font-family="Helvetica,sans-Serif" font-size="10.00"> displayManager</text>
</g>
<!-- Node13&#45;&gt;Node9 -->
<g id="edge18" class="edge">
<title>Node13&#45;&gt;Node9</title>
<path fill="none" stroke="#9a32cd" stroke-dasharray="5,2" d="M344.34,-171.52C347.48,-161.83 352.68,-150.45 361,-143 380.47,-125.55 396.3,-140.96 417,-125 430.19,-114.83 439.2,-97.11 443.69,-86.58"/>
<polygon fill="#9a32cd" stroke="#9a32cd" points="340.88,-170.88 341.6,-181.45 347.63,-172.74 340.88,-170.88"/>
<text text-anchor="middle" x="404.5" y="-150.5" font-family="Helvetica,sans-Serif" font-size="10.00"> _displayManager</text>
</g>
<!-- Node14&#45;&gt;Node1 -->
<g id="edge28" class="edge">
<title>Node14&#45;&gt;Node1</title>
<path fill="none" stroke="#9a32cd" stroke-dasharray="5,2" d="M134.93,-133.23C134.79,-114.9 137.05,-86.95 150,-67 164.91,-44.02 192.93,-28.34 212.71,-19.54"/>
<polygon fill="#9a32cd" stroke="#9a32cd" points="131.43,-133.35 135.26,-143.23 138.43,-133.13 131.43,-133.35"/>
<text text-anchor="middle" x="185.5" y="-74.5" font-family="Helvetica,sans-Serif" font-size="10.00"> inputManager</text>
</g>
<!-- Node14&#45;&gt;Node9 -->
<g id="edge21" class="edge">
<title>Node14&#45;&gt;Node9</title>
<path fill="none" stroke="#9a32cd" stroke-dasharray="5,2" d="M188.24,-151.96C225.87,-150.13 277.02,-143.87 318,-125 330.3,-119.33 329,-111.29 341,-105 363.88,-93.01 392.36,-86.14 414.04,-82.34"/>
<polygon fill="#9a32cd" stroke="#9a32cd" points="187.86,-148.47 178,-152.37 188.13,-155.47 187.86,-148.47"/>
<text text-anchor="middle" x="379" y="-112.5" font-family="Helvetica,sans-Serif" font-size="10.00"> _inputManager</text>
</g>
</g>
</svg>
        <g id="navigator" transform="translate(0 0)" fill="#404254">
                <rect fill="#f2f5e9" fill-opacity="0.5" stroke="#606060" stroke-width=".5" x="0" y="0" width="60" height="60"/>
                <use id="zoomplus" xlink:href="#zoomPlus" x="17" y="9" onmousedown="handleZoom(evt,'in')"/>
                <use id="zoomminus" xlink:href="#zoomMin" x="42" y="9" onmousedown="handleZoom(evt,'out')"/>
                <use id="reset" xlink:href="#resetDef" x="30" y="36" onmousedown="handleReset()"/>
                <g id="arrowUp" xlink:href="#dirArrow" transform="translate(30 24)" onmousedown="handlePan(0,-1)">
                  <use xlink:href="#rim" fill="#404040">
                        <set attributeName="fill" to="#808080" begin="arrowUp.mouseover" end="arrowUp.mouseout"/>
                  </use>
                  <path fill="none" stroke="white" stroke-width="1.5" d="M0,-3.0v7 M-2.5,-0.5L0,-3.0L2.5,-0.5"/>
                </g>
                <g id="arrowRight" xlink:href="#dirArrow" transform="rotate(90) translate(36 -43)" onmousedown="handlePan(1,0)">
                  <use xlink:href="#rim" fill="#404040">
                        <set attributeName="fill" to="#808080" begin="arrowRight.mouseover" end="arrowRight.mouseout"/>
                  </use>
                  <path fill="none" stroke="white" stroke-width="1.5" d="M0,-3.0v7 M-2.5,-0.5L0,-3.0L2.5,-0.5"/>
                </g>
                <g id="arrowDown" xlink:href="#dirArrow" transform="rotate(180) translate(-30 -48)" onmousedown="handlePan(0,1)">
                  <use xlink:href="#rim" fill="#404040">
                        <set attributeName="fill" to="#808080" begin="arrowDown.mouseover" end="arrowDown.mouseout"/>
                  </use>
                  <path fill="none" stroke="white" stroke-width="1.5" d="M0,-3.0v7 M-2.5,-0.5L0,-3.0L2.5,-0.5"/>
                </g>
                <g id="arrowLeft" xlink:href="#dirArrow" transform="rotate(270) translate(-36 17)" onmousedown="handlePan(-1,0)">
                  <use xlink:href="#rim" fill="#404040">
                        <set attributeName="fill" to="#808080" begin="arrowLeft.mouseover" end="arrowLeft.mouseout"/>
                  </use>
                  <path fill="none" stroke="white" stroke-width="1.5" d="M0,-3.0v7 M-2.5,-0.5L0,-3.0L2.5,-0.5"/>
                </g>
        </g>
        <svg viewBox="0 0 15 15" width="100%" height="30px" preserveAspectRatio="xMaxYMin meet">
         <g id="arrow_out" transform="scale(0.3 0.3)">
          <a xlink:href="classControllerInputActionTests__coll__graph_org.svg" target="_base">
           <rect id="button" ry="5" rx="5" y="6" x="6" height="38" width="38"
                fill="#f2f5e9" fill-opacity="0.5" stroke="#606060" stroke-width="1.0"/>
           <path id="arrow"
             d="M 11.500037,31.436501 C 11.940474,20.09759 22.043105,11.32322 32.158766,21.979434 L 37.068811,17.246167 C 37.068811,17.246167 37.088388,32 37.088388,32 L 22.160133,31.978069 C 22.160133,31.978069 26.997745,27.140456 26.997745,27.140456 C 18.528582,18.264221 13.291696,25.230495 11.500037,31.436501 z"
             style="fill:#404040;"/>
          </a>
         </g>
        </svg>
</svg>
