<?xml version="1.0" encoding="UTF-8" standalone="no"?>
<!DOCTYPE svg PUBLIC "-//W3C//DTD SVG 1.1//EN"
 "http://www.w3.org/Graphics/SVG/1.1/DTD/svg11.dtd">
<!-- Generated by graphviz version 2.43.0 (0)
 -->
<!-- Title: CallbackInterface::onInputAction Pages: 1 -->
<svg width="286pt" height="150pt"
 viewBox="0.00 0.00 286.00 150.00" xmlns="http://www.w3.org/2000/svg" xmlns:xlink="http://www.w3.org/1999/xlink">
<g id="graph0" class="graph" transform="scale(1 1) rotate(0) translate(4 146)">
<title>CallbackInterface::onInputAction</title>
<!-- Node1 -->
<g id="Node000001" class="node">
<title>Node1</title>
<g id="a_Node000001"><a xlink:title="Method to implement to respond to an input action.">
<polygon fill="#999999" stroke="#666666" points="278,-82.5 170,-82.5 170,-52.5 278,-52.5 278,-82.5"/>
<text text-anchor="start" x="178" y="-70.5" font-family="Helvetica,sans-Serif" font-size="10.00">CallbackInterface::</text>
<text text-anchor="middle" x="224" y="-59.5" font-family="Helvetica,sans-Serif" font-size="10.00">onInputAction</text>
</a>
</g>
</g>
<!-- Node2 -->
<g id="Node000002" class="node">
<title>Node2</title>
<g id="a_Node000002"><a xlink:href="classMockButtonInput.html#aff7bf3f4782dc8dd912f94be30b006e8" target="_top" xlink:title="Call this method at least once per main loop to monitor for input actions Any actions should call the...">
<polygon fill="white" stroke="#666666" points="134,-142 0,-142 0,-123 134,-123 134,-142"/>
<text text-anchor="middle" x="67" y="-130" font-family="Helvetica,sans-Serif" font-size="10.00">MockButtonInput::check</text>
</a>
</g>
</g>
<!-- Node1&#45;&gt;Node2 -->
<g id="edge1_Node000001_Node000002" class="edge">
<title>Node1&#45;&gt;Node2</title>
<g id="a_edge1_Node000001_Node000002"><a xlink:title=" ">
<path fill="none" stroke="#63b8ff" d="M188.1,-87.56C171.98,-96.3 152.37,-106.19 134,-113.5 125.14,-117.03 115.37,-120.2 106.12,-122.91"/>
<polygon fill="#63b8ff" stroke="#63b8ff" points="190.08,-90.47 197.15,-82.58 186.71,-84.34 190.08,-90.47"/>
</a>
</g>
</g>
<!-- Node3 -->
<g id="Node000003" class="node">
<title>Node3</title>
<g id="a_Node000003"><a xlink:href="classMockTouchScreenInput.html#afd6a598f9008cc810597db1db68aa6c0" target="_top" xlink:title="Call this method at least once per main loop to monitor for input actions Any actions should call the...">
<polygon fill="white" stroke="#666666" points="131,-104.5 3,-104.5 3,-74.5 131,-74.5 131,-104.5"/>
<text text-anchor="start" x="11" y="-92.5" font-family="Helvetica,sans-Serif" font-size="10.00">MockTouchScreenInput</text>
<text text-anchor="middle" x="67" y="-81.5" font-family="Helvetica,sans-Serif" font-size="10.00">::check</text>
</a>
</g>
</g>
<!-- Node1&#45;&gt;Node3 -->
<g id="edge2_Node000001_Node000003" class="edge">
<title>Node1&#45;&gt;Node3</title>
<g id="a_edge2_Node000001_Node000003"><a xlink:title=" ">
<path fill="none" stroke="#63b8ff" d="M159.58,-76.5C150.17,-77.84 140.46,-79.21 131.05,-80.55"/>
<polygon fill="#63b8ff" stroke="#63b8ff" points="160.25,-79.94 169.66,-75.07 159.27,-73.01 160.25,-79.94"/>
</a>
</g>
</g>
<!-- Node4 -->
<g id="Node000004" class="node">
<title>Node4</title>
<g id="a_Node000004"><a xlink:href="classTFT__eSPITouch.html#afd86f481b8789120fe1fa9357f183741" target="_top" xlink:title="Call this method at least once per main loop to monitor for input actions Any actions should call the...">
<polygon fill="white" stroke="#666666" points="128,-56 6,-56 6,-37 128,-37 128,-56"/>
<text text-anchor="middle" x="67" y="-44" font-family="Helvetica,sans-Serif" font-size="10.00">TFT_eSPITouch::check</text>
</a>
</g>
</g>
<!-- Node1&#45;&gt;Node4 -->
<g id="edge3_Node000001_Node000004" class="edge">
<title>Node1&#45;&gt;Node4</title>
<g id="a_edge3_Node000001_Node000004"><a xlink:title=" ">
<path fill="none" stroke="#63b8ff" d="M159.44,-58.89C149.07,-57.48 138.37,-56.03 128.09,-54.64"/>
<polygon fill="#63b8ff" stroke="#63b8ff" points="159.28,-62.4 169.66,-60.27 160.22,-55.46 159.28,-62.4"/>
</a>
</g>
</g>
<!-- Node5 -->
<g id="Node000005" class="node">
<title>Node5</title>
<g id="a_Node000005"><a xlink:href="test__CompilerCreation_8cpp.html#a484c00ac396e82066ad78a3641a34a4f" target="_top" xlink:title="Ensure devices are created and all attributes are valid.">
<polygon fill="white" stroke="#666666" points="93,-19 41,-19 41,0 93,0 93,-19"/>
<text text-anchor="middle" x="67" y="-7" font-family="Helvetica,sans-Serif" font-size="10.00">TEST_F</text>
</a>
</g>
</g>
<!-- Node1&#45;&gt;Node5 -->
<g id="edge4_Node000001_Node000005" class="edge">
<title>Node1&#45;&gt;Node5</title>
<g id="a_edge4_Node000001_Node000005"><a xlink:title=" ">
<path fill="none" stroke="#63b8ff" d="M181.84,-48.1C166.94,-41.45 149.88,-34.24 134,-28.5 120.65,-23.68 105.46,-19.23 93.01,-15.86"/>
<polygon fill="#63b8ff" stroke="#63b8ff" points="180.73,-51.44 191.28,-52.38 183.62,-45.07 180.73,-51.44"/>
</a>
</g>
</g>
</g>
</svg>
