<?xml version="1.0" encoding="UTF-8" standalone="no"?>
<!DOCTYPE svg PUBLIC "-//W3C//DTD SVG 1.1//EN"
 "http://www.w3.org/Graphics/SVG/1.1/DTD/svg11.dtd">
<!-- Generated by graphviz version 2.43.0 (0)
 -->
<!-- Title: /home/runner/work/EX&#45;Display/EX&#45;Display/Configurator.h Pages: 1 -->
<!--zoomable 375 -->
<svg id="main" version="1.1" xmlns="http://www.w3.org/2000/svg" xmlns:xlink="http://www.w3.org/1999/xlink" xml:space="preserve" onload="init(evt)">
<style type="text/css"><![CDATA[
.edge:hover path { stroke: red; }
.edge:hover polygon { stroke: red; fill: red; }
]]></style>
<script type="text/javascript"><![CDATA[
var edges = document.getElementsByTagName('g');
if (edges && edges.length) {
  for (var i=0;i<edges.length;i++) {
    if (edges[i].id.substr(0,4)=='edge') {
      edges[i].setAttribute('class','edge');
    }
  }
}
]]></script>
        <defs>
                <circle id="rim" cx="0" cy="0" r="7"/>
                <circle id="rim2" cx="0" cy="0" r="3.5"/>
                <g id="zoomPlus">
                        <use xlink:href="#rim" fill="#404040">
                                <set attributeName="fill" to="#808080" begin="zoomplus.mouseover" end="zoomplus.mouseout"/>
                        </use>
                        <path d="M-4,0h8M0,-4v8" fill="none" stroke="white" stroke-width="1.5" pointer-events="none"/>
                </g>
                <g id="zoomMin">
                        <use xlink:href="#rim" fill="#404040">
                                <set attributeName="fill" to="#808080" begin="zoomminus.mouseover" end="zoomminus.mouseout"/>
                        </use>
                        <path d="M-4,0h8" fill="none" stroke="white" stroke-width="1.5" pointer-events="none"/>
                </g>
                <g id="dirArrow">
                        <path fill="none" stroke="white" stroke-width="1.5" d="M0,-3.0v7 M-2.5,-0.5L0,-3.0L2.5,-0.5"/>
                </g>
               <g id="resetDef">
                       <use xlink:href="#rim2" fill="#404040">
                               <set attributeName="fill" to="#808080" begin="reset.mouseover" end="reset.mouseout"/>
                       </use>
               </g>
        </defs>

<script type="text/javascript">
var viewWidth = 677;
var viewHeight = 375;
var sectionId = 'dynsection-0';
</script>
<script xlink:href="svgpan.js"/>
<svg id="graph" class="graph">
<g id="viewport">
<title>/home/runner/work/EX&#45;Display/EX&#45;Display/Configurator.h</title>
<polygon fill="white" stroke="transparent" points="-4,4 -4,-371 672.5,-371 672.5,4 -4,4"/>
<!-- Node1 -->
<g id="node1" class="node">
<title>Node1</title>
<g id="a_node1"><a xlink:title=" ">
<polygon fill="#bfbfbf" stroke="black" points="227.5,-336.5 227.5,-366.5 411.5,-366.5 411.5,-336.5 227.5,-336.5"/>
<text text-anchor="start" x="235.5" y="-354.5" font-family="Helvetica,sans-Serif" font-size="10.00">/home/runner/work/EX</text>
<text text-anchor="middle" x="319.5" y="-343.5" font-family="Helvetica,sans-Serif" font-size="10.00">&#45;Display/EX&#45;Display/Configurator.h</text>
</a>
</g>
</g>
<!-- Node2 -->
<g id="node2" class="node">
<title>Node2</title>
<g id="a_node2"><a xlink:href="Controller_8h.html" target="_top" xlink:title=" ">
<polygon fill="white" stroke="black" points="212,-280.5 212,-299.5 285,-299.5 285,-280.5 212,-280.5"/>
<text text-anchor="middle" x="248.5" y="-287.5" font-family="Helvetica,sans-Serif" font-size="10.00">Controller.h</text>
</a>
</g>
</g>
<!-- Node1&#45;&gt;Node2 -->
<g id="edge1" class="edge">
<title>Node1&#45;&gt;Node2</title>
<path fill="none" stroke="midnightblue" d="M302.67,-336.4C291.83,-327.31 277.72,-315.49 266.63,-306.19"/>
<polygon fill="midnightblue" stroke="midnightblue" points="268.74,-303.4 258.83,-299.66 264.25,-308.76 268.74,-303.4"/>
</g>
<!-- Node5 -->
<g id="node5" class="node">
<title>Node5</title>
<g id="a_node5"><a xlink:href="Logger_8h.html" target="_top" xlink:title=" ">
<polygon fill="white" stroke="black" points="416.5,-56.5 416.5,-75.5 474.5,-75.5 474.5,-56.5 416.5,-56.5"/>
<text text-anchor="middle" x="445.5" y="-63.5" font-family="Helvetica,sans-Serif" font-size="10.00">Logger.h</text>
</a>
</g>
</g>
<!-- Node1&#45;&gt;Node5 -->
<g id="edge29" class="edge">
<title>Node1&#45;&gt;Node5</title>
<path fill="none" stroke="midnightblue" d="M411.54,-346.04C485.99,-336.87 578.5,-310.33 578.5,-235 578.5,-235 578.5,-235 578.5,-177 578.5,-126.73 521.37,-95.1 482,-79.27"/>
<polygon fill="midnightblue" stroke="midnightblue" points="483,-75.91 472.41,-75.59 480.49,-82.45 483,-75.91"/>
</g>
<!-- Node12 -->
<g id="node7" class="node">
<title>Node12</title>
<g id="a_node7"><a xlink:href="DisplayManager_8h.html" target="_top" xlink:title=" ">
<polygon fill="white" stroke="black" points="78.5,-224.5 78.5,-243.5 182.5,-243.5 182.5,-224.5 78.5,-224.5"/>
<text text-anchor="middle" x="130.5" y="-231.5" font-family="Helvetica,sans-Serif" font-size="10.00">DisplayManager.h</text>
</a>
</g>
</g>
<!-- Node1&#45;&gt;Node12 -->
<g id="edge27" class="edge">
<title>Node1&#45;&gt;Node12</title>
<path fill="none" stroke="midnightblue" d="M278.72,-336.4C255.73,-327.58 227,-315.03 203.5,-300 181.51,-285.94 159.59,-265.31 145.6,-251.08"/>
<polygon fill="midnightblue" stroke="midnightblue" points="147.79,-248.31 138.33,-243.54 142.75,-253.17 147.79,-248.31"/>
</g>
<!-- Node14 -->
<g id="node9" class="node">
<title>Node14</title>
<g id="a_node9"><a xlink:href="ScreenManager_8h.html" target="_top" xlink:title=" ">
<polygon fill="white" stroke="red" points="0,-168.5 0,-187.5 101,-187.5 101,-168.5 0,-168.5"/>
<text text-anchor="middle" x="50.5" y="-175.5" font-family="Helvetica,sans-Serif" font-size="10.00">ScreenManager.h</text>
</a>
</g>
</g>
<!-- Node1&#45;&gt;Node14 -->
<g id="edge30" class="edge">
<title>Node1&#45;&gt;Node14</title>
<path fill="none" stroke="midnightblue" d="M227.39,-340.03C166.82,-327.82 91.91,-301.35 53.5,-244 44.47,-230.52 44.63,-211.71 46.51,-197.79"/>
<polygon fill="midnightblue" stroke="midnightblue" points="49.97,-198.32 48.24,-187.87 43.07,-197.12 49.97,-198.32"/>
</g>
<!-- Node17 -->
<g id="node10" class="node">
<title>Node17</title>
<g id="a_node10"><a xlink:href="InputManager_8h.html" target="_top" xlink:title=" ">
<polygon fill="white" stroke="black" points="341.5,-224.5 341.5,-243.5 433.5,-243.5 433.5,-224.5 341.5,-224.5"/>
<text text-anchor="middle" x="387.5" y="-231.5" font-family="Helvetica,sans-Serif" font-size="10.00">InputManager.h</text>
</a>
</g>
</g>
<!-- Node1&#45;&gt;Node17 -->
<g id="edge28" class="edge">
<title>Node1&#45;&gt;Node17</title>
<path fill="none" stroke="midnightblue" d="M327.84,-336.34C340.31,-315.15 363.81,-275.24 377.29,-252.34"/>
<polygon fill="midnightblue" stroke="midnightblue" points="380.34,-254.06 382.4,-243.67 374.31,-250.51 380.34,-254.06"/>
</g>
<!-- Node18 -->
<g id="node11" class="node">
<title>Node18</title>
<g id="a_node11"><a xlink:href="Defines_8h.html" target="_top" xlink:title=" ">
<polygon fill="white" stroke="black" points="606.5,-168.5 606.5,-187.5 668.5,-187.5 668.5,-168.5 606.5,-168.5"/>
<text text-anchor="middle" x="637.5" y="-175.5" font-family="Helvetica,sans-Serif" font-size="10.00">Defines.h</text>
</a>
</g>
</g>
<!-- Node1&#45;&gt;Node18 -->
<g id="edge26" class="edge">
<title>Node1&#45;&gt;Node18</title>
<path fill="none" stroke="midnightblue" d="M411.78,-343.15C479.97,-335.97 565.47,-322.71 592.5,-300 623.43,-274.01 633.11,-224.63 636.14,-197.69"/>
<polygon fill="midnightblue" stroke="midnightblue" points="639.63,-197.93 637.07,-187.65 632.66,-197.28 639.63,-197.93"/>
</g>
<!-- Node3 -->
<g id="node3" class="node">
<title>Node3</title>
<g id="a_node3"><a xlink:href="CallbackInterface_8h.html" target="_top" xlink:title=" ">
<polygon fill="white" stroke="black" points="363,-112.5 363,-131.5 474,-131.5 474,-112.5 363,-112.5"/>
<text text-anchor="middle" x="418.5" y="-119.5" font-family="Helvetica,sans-Serif" font-size="10.00">CallbackInterface.h</text>
</a>
</g>
</g>
<!-- Node2&#45;&gt;Node3 -->
<g id="edge2" class="edge">
<title>Node2&#45;&gt;Node3</title>
<path fill="none" stroke="midnightblue" d="M257.64,-280.08C285.09,-253.27 367.1,-173.19 402.23,-138.89"/>
<polygon fill="midnightblue" stroke="midnightblue" points="405.02,-141.06 409.73,-131.57 400.13,-136.05 405.02,-141.06"/>
</g>
<!-- Node2&#45;&gt;Node5 -->
<g id="edge23" class="edge">
<title>Node2&#45;&gt;Node5</title>
<path fill="none" stroke="midnightblue" d="M245.96,-280.19C236.97,-248.11 208.25,-138.14 229.5,-112 251.3,-85.2 349.61,-73.82 405.79,-69.44"/>
<polygon fill="midnightblue" stroke="midnightblue" points="406.39,-72.91 416.1,-68.68 405.87,-65.93 406.39,-72.91"/>
</g>
<!-- Node6 -->
<g id="node6" class="node">
<title>Node6</title>
<g id="a_node6"><a xlink:href="Arduino_8h.html" target="_top" xlink:title=" ">
<polygon fill="white" stroke="red" points="357,-0.5 357,-19.5 420,-19.5 420,-0.5 357,-0.5"/>
<text text-anchor="middle" x="388.5" y="-7.5" font-family="Helvetica,sans-Serif" font-size="10.00">Arduino.h</text>
</a>
</g>
</g>
<!-- Node2&#45;&gt;Node6 -->
<g id="edge25" class="edge">
<title>Node2&#45;&gt;Node6</title>
<path fill="none" stroke="midnightblue" d="M243.25,-280.2C227.84,-253.13 185.82,-169.43 218.5,-112 245.87,-63.9 306.18,-36.33 347.09,-22.5"/>
<polygon fill="midnightblue" stroke="midnightblue" points="348.36,-25.77 356.79,-19.36 346.2,-19.12 348.36,-25.77"/>
</g>
<!-- Node2&#45;&gt;Node12 -->
<g id="edge7" class="edge">
<title>Node2&#45;&gt;Node12</title>
<path fill="none" stroke="midnightblue" d="M229.8,-280.44C210.56,-271.64 180.35,-257.81 158.3,-247.72"/>
<polygon fill="midnightblue" stroke="midnightblue" points="159.66,-244.5 149.11,-243.52 156.75,-250.86 159.66,-244.5"/>
</g>
<!-- Node2&#45;&gt;Node14 -->
<g id="edge24" class="edge">
<title>Node2&#45;&gt;Node14</title>
<path fill="none" stroke="midnightblue" d="M211.75,-284.12C165.49,-277.25 89.64,-263.39 69.5,-244 57.07,-232.03 52.65,-212.42 51.14,-197.87"/>
<polygon fill="midnightblue" stroke="midnightblue" points="54.6,-197.27 50.45,-187.52 47.62,-197.73 54.6,-197.27"/>
</g>
<!-- Node2&#45;&gt;Node17 -->
<g id="edge12" class="edge">
<title>Node2&#45;&gt;Node17</title>
<path fill="none" stroke="midnightblue" d="M270.52,-280.44C293.6,-271.48 330.06,-257.31 356.14,-247.18"/>
<polygon fill="midnightblue" stroke="midnightblue" points="357.52,-250.4 365.58,-243.52 354.99,-243.88 357.52,-250.4"/>
</g>
<!-- Node4 -->
<g id="node4" class="node">
<title>Node4</title>
<g id="a_node4"><a xlink:href="InputActions_8h.html" target="_top" xlink:title=" ">
<polygon fill="white" stroke="black" points="546.5,-56.5 546.5,-75.5 632.5,-75.5 632.5,-56.5 546.5,-56.5"/>
<text text-anchor="middle" x="589.5" y="-63.5" font-family="Helvetica,sans-Serif" font-size="10.00">InputActions.h</text>
</a>
</g>
</g>
<!-- Node3&#45;&gt;Node4 -->
<g id="edge3" class="edge">
<title>Node3&#45;&gt;Node4</title>
<path fill="none" stroke="midnightblue" d="M445.6,-112.44C474.49,-103.32 520.42,-88.81 552.61,-78.65"/>
<polygon fill="midnightblue" stroke="midnightblue" points="554.05,-81.87 562.53,-75.52 551.94,-75.19 554.05,-81.87"/>
</g>
<!-- Node3&#45;&gt;Node5 -->
<g id="edge4" class="edge">
<title>Node3&#45;&gt;Node5</title>
<path fill="none" stroke="midnightblue" d="M422.96,-112.08C426.65,-104.69 432.02,-93.95 436.59,-84.81"/>
<polygon fill="midnightblue" stroke="midnightblue" points="439.78,-86.26 441.12,-75.75 433.52,-83.13 439.78,-86.26"/>
</g>
<!-- Node3&#45;&gt;Node6 -->
<g id="edge6" class="edge">
<title>Node3&#45;&gt;Node6</title>
<path fill="none" stroke="midnightblue" d="M416.15,-112.37C411.28,-94.54 400.04,-53.3 393.48,-29.27"/>
<polygon fill="midnightblue" stroke="midnightblue" points="396.85,-28.32 390.84,-19.59 390.1,-30.16 396.85,-28.32"/>
</g>
<!-- Node5&#45;&gt;Node6 -->
<g id="edge5" class="edge">
<title>Node5&#45;&gt;Node6</title>
<path fill="none" stroke="midnightblue" d="M436.34,-56.32C428,-48.42 415.47,-36.55 405.32,-26.94"/>
<polygon fill="midnightblue" stroke="midnightblue" points="407.49,-24.17 397.82,-19.83 402.68,-29.25 407.49,-24.17"/>
</g>
<!-- Node12&#45;&gt;Node5 -->
<g id="edge10" class="edge">
<title>Node12&#45;&gt;Node5</title>
<path fill="none" stroke="midnightblue" d="M132.5,-224.26C138.15,-201.62 156.53,-140.85 196.5,-112 229.42,-88.25 344.57,-75.34 406.08,-69.99"/>
<polygon fill="midnightblue" stroke="midnightblue" points="406.52,-73.47 416.19,-69.14 405.93,-66.49 406.52,-73.47"/>
</g>
<!-- Node13 -->
<g id="node8" class="node">
<title>Node13</title>
<g id="a_node8"><a xlink:href="DisplayInterface_8h.html" target="_top" xlink:title=" ">
<polygon fill="white" stroke="black" points="238.5,-112.5 238.5,-131.5 344.5,-131.5 344.5,-112.5 238.5,-112.5"/>
<text text-anchor="middle" x="291.5" y="-119.5" font-family="Helvetica,sans-Serif" font-size="10.00">DisplayInterface.h</text>
</a>
</g>
</g>
<!-- Node12&#45;&gt;Node13 -->
<g id="edge8" class="edge">
<title>Node12&#45;&gt;Node13</title>
<path fill="none" stroke="midnightblue" d="M143.13,-224.37C170.76,-205.49 236.78,-160.38 270.66,-137.24"/>
<polygon fill="midnightblue" stroke="midnightblue" points="272.64,-140.12 278.93,-131.59 268.69,-134.34 272.64,-140.12"/>
</g>
<!-- Node12&#45;&gt;Node14 -->
<g id="edge11" class="edge">
<title>Node12&#45;&gt;Node14</title>
<path fill="none" stroke="midnightblue" d="M117.65,-224.32C105.28,-215.98 86.37,-203.21 71.76,-193.35"/>
<polygon fill="midnightblue" stroke="midnightblue" points="73.57,-190.35 63.32,-187.65 69.65,-196.15 73.57,-190.35"/>
</g>
<!-- Node13&#45;&gt;Node5 -->
<g id="edge9" class="edge">
<title>Node13&#45;&gt;Node5</title>
<path fill="none" stroke="midnightblue" d="M315.9,-112.44C341.7,-103.4 382.58,-89.06 411.52,-78.92"/>
<polygon fill="midnightblue" stroke="midnightblue" points="412.93,-82.13 421.21,-75.52 410.62,-75.52 412.93,-82.13"/>
</g>
<!-- Node17&#45;&gt;Node3 -->
<g id="edge13" class="edge">
<title>Node17&#45;&gt;Node3</title>
<path fill="none" stroke="midnightblue" d="M389.93,-224.37C394.96,-206.54 406.58,-165.3 413.35,-141.27"/>
<polygon fill="midnightblue" stroke="midnightblue" points="416.73,-142.17 416.08,-131.59 410,-140.27 416.73,-142.17"/>
</g>
<!-- Node17&#45;&gt;Node5 -->
<g id="edge22" class="edge">
<title>Node17&#45;&gt;Node5</title>
<path fill="none" stroke="midnightblue" d="M433.7,-230.25C463.19,-225.82 499.36,-214.81 518.5,-188 544.58,-151.47 496.1,-105.36 466.31,-82.01"/>
<polygon fill="midnightblue" stroke="midnightblue" points="468.21,-79.06 458.13,-75.8 463.98,-84.63 468.21,-79.06"/>
</g>
<!-- Node17&#45;&gt;Node13 -->
<g id="edge16" class="edge">
<title>Node17&#45;&gt;Node13</title>
<path fill="none" stroke="midnightblue" d="M379.97,-224.37C363.98,-206.05 326.45,-163.05 305.78,-139.36"/>
<polygon fill="midnightblue" stroke="midnightblue" points="308.21,-136.82 299,-131.59 302.94,-141.43 308.21,-136.82"/>
</g>
<!-- Node17&#45;&gt;Node18 -->
<g id="edge14" class="edge">
<title>Node17&#45;&gt;Node18</title>
<path fill="none" stroke="midnightblue" d="M427.11,-224.44C473.42,-214.44 549.67,-197.97 596.54,-187.85"/>
<polygon fill="midnightblue" stroke="midnightblue" points="597.33,-191.26 606.37,-185.73 595.85,-184.42 597.33,-191.26"/>
</g>
<!-- Node19 -->
<g id="node12" class="node">
<title>Node19</title>
<g id="a_node12"><a xlink:href="InputInterface_8h.html" target="_top" xlink:title=" ">
<polygon fill="white" stroke="black" points="415.5,-168.5 415.5,-187.5 509.5,-187.5 509.5,-168.5 415.5,-168.5"/>
<text text-anchor="middle" x="462.5" y="-175.5" font-family="Helvetica,sans-Serif" font-size="10.00">InputInterface.h</text>
</a>
</g>
</g>
<!-- Node17&#45;&gt;Node19 -->
<g id="edge17" class="edge">
<title>Node17&#45;&gt;Node19</title>
<path fill="none" stroke="midnightblue" d="M399.55,-224.32C410.96,-216.11 428.33,-203.6 441.93,-193.81"/>
<polygon fill="midnightblue" stroke="midnightblue" points="444.16,-196.52 450.23,-187.83 440.07,-190.84 444.16,-196.52"/>
</g>
<!-- Node18&#45;&gt;Node5 -->
<g id="edge15" class="edge">
<title>Node18&#45;&gt;Node5</title>
<path fill="none" stroke="midnightblue" d="M633.87,-168.46C627.53,-154.55 613.11,-127.06 592.5,-112 560.56,-88.65 516.32,-77.26 484.73,-71.8"/>
<polygon fill="midnightblue" stroke="midnightblue" points="484.97,-68.29 474.54,-70.17 483.86,-75.2 484.97,-68.29"/>
</g>
<!-- Node19&#45;&gt;Node3 -->
<g id="edge18" class="edge">
<title>Node19&#45;&gt;Node3</title>
<path fill="none" stroke="midnightblue" d="M455.23,-168.08C448.96,-160.38 439.71,-149.03 432.07,-139.65"/>
<polygon fill="midnightblue" stroke="midnightblue" points="434.66,-137.29 425.63,-131.75 429.23,-141.71 434.66,-137.29"/>
</g>
<!-- Node19&#45;&gt;Node4 -->
<g id="edge20" class="edge">
<title>Node19&#45;&gt;Node4</title>
<path fill="none" stroke="midnightblue" d="M472.47,-168.37C493.89,-149.81 544.57,-105.91 571.68,-82.44"/>
<polygon fill="midnightblue" stroke="midnightblue" points="574.31,-84.78 579.58,-75.59 569.73,-79.49 574.31,-84.78"/>
</g>
<!-- Node19&#45;&gt;Node5 -->
<g id="edge21" class="edge">
<title>Node19&#45;&gt;Node5</title>
<path fill="none" stroke="midnightblue" d="M469.18,-168.1C477.77,-155.51 490.75,-131.82 483.5,-112 479.44,-100.91 471.31,-90.67 463.61,-82.76"/>
<polygon fill="midnightblue" stroke="midnightblue" points="465.86,-80.07 456.21,-75.7 461.03,-85.14 465.86,-80.07"/>
</g>
<!-- Node19&#45;&gt;Node13 -->
<g id="edge19" class="edge">
<title>Node19&#45;&gt;Node13</title>
<path fill="none" stroke="midnightblue" d="M435.4,-168.44C406.51,-159.32 360.58,-144.81 328.39,-134.65"/>
<polygon fill="midnightblue" stroke="midnightblue" points="329.06,-131.19 318.47,-131.52 326.95,-137.87 329.06,-131.19"/>
</g>
</g>
</svg>
        <g id="navigator" transform="translate(0 0)" fill="#404254">
                <rect fill="#f2f5e9" fill-opacity="0.5" stroke="#606060" stroke-width=".5" x="0" y="0" width="60" height="60"/>
                <use id="zoomplus" xlink:href="#zoomPlus" x="17" y="9" onmousedown="handleZoom(evt,'in')"/>
                <use id="zoomminus" xlink:href="#zoomMin" x="42" y="9" onmousedown="handleZoom(evt,'out')"/>
                <use id="reset" xlink:href="#resetDef" x="30" y="36" onmousedown="handleReset()"/>
                <g id="arrowUp" xlink:href="#dirArrow" transform="translate(30 24)" onmousedown="handlePan(0,-1)">
                  <use xlink:href="#rim" fill="#404040">
                        <set attributeName="fill" to="#808080" begin="arrowUp.mouseover" end="arrowUp.mouseout"/>
                  </use>
                  <path fill="none" stroke="white" stroke-width="1.5" d="M0,-3.0v7 M-2.5,-0.5L0,-3.0L2.5,-0.5"/>
                </g>
                <g id="arrowRight" xlink:href="#dirArrow" transform="rotate(90) translate(36 -43)" onmousedown="handlePan(1,0)">
                  <use xlink:href="#rim" fill="#404040">
                        <set attributeName="fill" to="#808080" begin="arrowRight.mouseover" end="arrowRight.mouseout"/>
                  </use>
                  <path fill="none" stroke="white" stroke-width="1.5" d="M0,-3.0v7 M-2.5,-0.5L0,-3.0L2.5,-0.5"/>
                </g>
                <g id="arrowDown" xlink:href="#dirArrow" transform="rotate(180) translate(-30 -48)" onmousedown="handlePan(0,1)">
                  <use xlink:href="#rim" fill="#404040">
                        <set attributeName="fill" to="#808080" begin="arrowDown.mouseover" end="arrowDown.mouseout"/>
                  </use>
                  <path fill="none" stroke="white" stroke-width="1.5" d="M0,-3.0v7 M-2.5,-0.5L0,-3.0L2.5,-0.5"/>
                </g>
                <g id="arrowLeft" xlink:href="#dirArrow" transform="rotate(270) translate(-36 17)" onmousedown="handlePan(-1,0)">
                  <use xlink:href="#rim" fill="#404040">
                        <set attributeName="fill" to="#808080" begin="arrowLeft.mouseover" end="arrowLeft.mouseout"/>
                  </use>
                  <path fill="none" stroke="white" stroke-width="1.5" d="M0,-3.0v7 M-2.5,-0.5L0,-3.0L2.5,-0.5"/>
                </g>
        </g>
        <svg viewBox="0 0 15 15" width="100%" height="30px" preserveAspectRatio="xMaxYMin meet">
         <g id="arrow_out" transform="scale(0.3 0.3)">
          <a xlink:href="Configurator_8h__incl_org.svg" target="_base">
           <rect id="button" ry="5" rx="5" y="6" x="6" height="38" width="38"
                fill="#f2f5e9" fill-opacity="0.5" stroke="#606060" stroke-width="1.0"/>
           <path id="arrow"
             d="M 11.500037,31.436501 C 11.940474,20.09759 22.043105,11.32322 32.158766,21.979434 L 37.068811,17.246167 C 37.068811,17.246167 37.088388,32 37.088388,32 L 22.160133,31.978069 C 22.160133,31.978069 26.997745,27.140456 26.997745,27.140456 C 18.528582,18.264221 13.291696,25.230495 11.500037,31.436501 z"
             style="fill:#404040;"/>
          </a>
         </g>
        </svg>
</svg>
