<?xml version="1.0" encoding="UTF-8" standalone="no"?>
<!DOCTYPE svg PUBLIC "-//W3C//DTD SVG 1.1//EN"
 "http://www.w3.org/Graphics/SVG/1.1/DTD/svg11.dtd">
<!-- Generated by graphviz version 2.43.0 (0)
 -->
<!-- Title: /home/runner/work/EX&#45;Display/EX&#45;Display/Configurator.cpp Pages: 1 -->
<svg width="567pt" height="375pt"
 viewBox="0.00 0.00 566.60 375.00" xmlns="http://www.w3.org/2000/svg" xmlns:xlink="http://www.w3.org/1999/xlink">
<g id="graph0" class="graph" transform="scale(1 1) rotate(0) translate(4 371)">
<title>/home/runner/work/EX&#45;Display/EX&#45;Display/Configurator.cpp</title>
<polygon fill="white" stroke="transparent" points="-4,4 -4,-371 562.6,-371 562.6,4 -4,4"/>
<!-- Node1 -->
<g id="node1" class="node">
<title>Node1</title>
<g id="a_node1"><a xlink:title=" ">
<polygon fill="#bfbfbf" stroke="black" points="59,-336.5 59,-366.5 254,-366.5 254,-336.5 59,-336.5"/>
<text text-anchor="start" x="67" y="-354.5" font-family="Helvetica,sans-Serif" font-size="10.00">/home/runner/work/EX</text>
<text text-anchor="middle" x="156.5" y="-343.5" font-family="Helvetica,sans-Serif" font-size="10.00">&#45;Display/EX&#45;Display/Configurator.cpp</text>
</a>
</g>
</g>
<!-- Node2 -->
<g id="node2" class="node">
<title>Node2</title>
<g id="a_node2"><a xlink:href="Configurator_8h.html" target="_top" xlink:title=" ">
<polygon fill="white" stroke="black" points="288,-280.5 288,-299.5 373,-299.5 373,-280.5 288,-280.5"/>
<text text-anchor="middle" x="330.5" y="-287.5" font-family="Helvetica,sans-Serif" font-size="10.00">Configurator.h</text>
</a>
</g>
</g>
<!-- Node1&#45;&gt;Node2 -->
<g id="edge1" class="edge">
<title>Node1&#45;&gt;Node2</title>
<path fill="none" stroke="midnightblue" d="M197.74,-336.4C227.67,-326.16 267.71,-312.47 295.97,-302.81"/>
<polygon fill="midnightblue" stroke="midnightblue" points="297.11,-306.12 305.44,-299.57 294.84,-299.49 297.11,-306.12"/>
</g>
<!-- Node21 -->
<g id="node11" class="node">
<title>Node21</title>
<g id="a_node11"><a xlink:href="AtFinder_8h.html" target="_top" xlink:title=" ">
<polygon fill="white" stroke="black" points="0,-168.5 0,-187.5 65,-187.5 65,-168.5 0,-168.5"/>
<text text-anchor="middle" x="32.5" y="-175.5" font-family="Helvetica,sans-Serif" font-size="10.00">AtFinder.h</text>
</a>
</g>
</g>
<!-- Node1&#45;&gt;Node21 -->
<g id="edge23" class="edge">
<title>Node1&#45;&gt;Node21</title>
<path fill="none" stroke="midnightblue" d="M146.35,-336.47C123.72,-305.17 69.2,-229.76 44.74,-195.93"/>
<polygon fill="midnightblue" stroke="midnightblue" points="47.38,-193.61 38.69,-187.56 41.71,-197.71 47.38,-193.61"/>
</g>
<!-- Node3 -->
<g id="node3" class="node">
<title>Node3</title>
<g id="a_node3"><a xlink:href="Controller_8h.html" target="_top" xlink:title=" ">
<polygon fill="white" stroke="black" points="294,-224.5 294,-243.5 367,-243.5 367,-224.5 294,-224.5"/>
<text text-anchor="middle" x="330.5" y="-231.5" font-family="Helvetica,sans-Serif" font-size="10.00">Controller.h</text>
</a>
</g>
</g>
<!-- Node2&#45;&gt;Node3 -->
<g id="edge2" class="edge">
<title>Node2&#45;&gt;Node3</title>
<path fill="none" stroke="midnightblue" d="M330.5,-280.08C330.5,-273.01 330.5,-262.86 330.5,-253.99"/>
<polygon fill="midnightblue" stroke="midnightblue" points="334,-253.75 330.5,-243.75 327,-253.75 334,-253.75"/>
</g>
<!-- Node6 -->
<g id="node5" class="node">
<title>Node6</title>
<g id="a_node5"><a xlink:href="Logger_8h.html" target="_top" xlink:title=" ">
<polygon fill="white" stroke="black" points="180.5,-56.5 180.5,-75.5 238.5,-75.5 238.5,-56.5 180.5,-56.5"/>
<text text-anchor="middle" x="209.5" y="-63.5" font-family="Helvetica,sans-Serif" font-size="10.00">Logger.h</text>
</a>
</g>
</g>
<!-- Node2&#45;&gt;Node6 -->
<g id="edge21" class="edge">
<title>Node2&#45;&gt;Node6</title>
<path fill="none" stroke="midnightblue" d="M373.26,-284.46C446.79,-274.53 586.29,-245.24 553.5,-168 539.5,-135.02 527.58,-127.97 495.5,-112 452.9,-90.79 316.83,-76.33 248.88,-70.25"/>
<polygon fill="midnightblue" stroke="midnightblue" points="248.85,-66.73 238.59,-69.34 248.24,-73.7 248.85,-66.73"/>
</g>
<!-- Node13 -->
<g id="node7" class="node">
<title>Node13</title>
<g id="a_node7"><a xlink:href="DisplayManager_8h.html" target="_top" xlink:title=" ">
<polygon fill="white" stroke="red" points="440.5,-168.5 440.5,-187.5 544.5,-187.5 544.5,-168.5 440.5,-168.5"/>
<text text-anchor="middle" x="492.5" y="-175.5" font-family="Helvetica,sans-Serif" font-size="10.00">DisplayManager.h</text>
</a>
</g>
</g>
<!-- Node2&#45;&gt;Node13 -->
<g id="edge19" class="edge">
<title>Node2&#45;&gt;Node13</title>
<path fill="none" stroke="midnightblue" d="M354.59,-280.36C374.77,-272.51 403.84,-259.77 426.5,-244 446.61,-230 466.17,-209.64 478.7,-195.45"/>
<polygon fill="midnightblue" stroke="midnightblue" points="481.66,-197.38 485.54,-187.52 476.36,-192.81 481.66,-197.38"/>
</g>
<!-- Node15 -->
<g id="node8" class="node">
<title>Node15</title>
<g id="a_node8"><a xlink:href="ScreenManager_8h.html" target="_top" xlink:title=" ">
<polygon fill="white" stroke="red" points="365,-112.5 365,-131.5 466,-131.5 466,-112.5 365,-112.5"/>
<text text-anchor="middle" x="415.5" y="-119.5" font-family="Helvetica,sans-Serif" font-size="10.00">ScreenManager.h</text>
</a>
</g>
</g>
<!-- Node2&#45;&gt;Node15 -->
<g id="edge22" class="edge">
<title>Node2&#45;&gt;Node15</title>
<path fill="none" stroke="midnightblue" d="M342.28,-280.23C352.64,-271.94 367.45,-258.63 376.5,-244 396.94,-210.96 407.71,-166.14 412.45,-141.37"/>
<polygon fill="midnightblue" stroke="midnightblue" points="415.89,-141.97 414.21,-131.51 409,-140.74 415.89,-141.97"/>
</g>
<!-- Node18 -->
<g id="node9" class="node">
<title>Node18</title>
<g id="a_node9"><a xlink:href="InputManager_8h.html" target="_top" xlink:title=" ">
<polygon fill="white" stroke="red" points="140.5,-168.5 140.5,-187.5 232.5,-187.5 232.5,-168.5 140.5,-168.5"/>
<text text-anchor="middle" x="186.5" y="-175.5" font-family="Helvetica,sans-Serif" font-size="10.00">InputManager.h</text>
</a>
</g>
</g>
<!-- Node2&#45;&gt;Node18 -->
<g id="edge20" class="edge">
<title>Node2&#45;&gt;Node18</title>
<path fill="none" stroke="midnightblue" d="M310.02,-280.37C292.27,-272.37 266.39,-259.39 246.5,-244 228.19,-229.83 210.65,-209.82 199.31,-195.75"/>
<polygon fill="midnightblue" stroke="midnightblue" points="202.04,-193.56 193.1,-187.87 196.54,-197.89 202.04,-193.56"/>
</g>
<!-- Node19 -->
<g id="node10" class="node">
<title>Node19</title>
<g id="a_node10"><a xlink:href="Defines_8h.html" target="_top" xlink:title=" ">
<polygon fill="white" stroke="black" points="208.5,-112.5 208.5,-131.5 270.5,-131.5 270.5,-112.5 208.5,-112.5"/>
<text text-anchor="middle" x="239.5" y="-119.5" font-family="Helvetica,sans-Serif" font-size="10.00">Defines.h</text>
</a>
</g>
</g>
<!-- Node2&#45;&gt;Node19 -->
<g id="edge18" class="edge">
<title>Node2&#45;&gt;Node19</title>
<path fill="none" stroke="midnightblue" d="M319.55,-280.39C309.53,-272.02 294.86,-258.47 285.5,-244 264.11,-210.95 250.46,-166.47 243.96,-141.69"/>
<polygon fill="midnightblue" stroke="midnightblue" points="247.31,-140.64 241.48,-131.79 240.52,-142.34 247.31,-140.64"/>
</g>
<!-- Node4 -->
<g id="node4" class="node">
<title>Node4</title>
<g id="a_node4"><a xlink:href="CallbackInterface_8h.html" target="_top" xlink:title=" ">
<polygon fill="white" stroke="red" points="41,-112.5 41,-131.5 152,-131.5 152,-112.5 41,-112.5"/>
<text text-anchor="middle" x="96.5" y="-119.5" font-family="Helvetica,sans-Serif" font-size="10.00">CallbackInterface.h</text>
</a>
</g>
</g>
<!-- Node3&#45;&gt;Node4 -->
<g id="edge3" class="edge">
<title>Node3&#45;&gt;Node4</title>
<path fill="none" stroke="midnightblue" d="M293.69,-233.49C250.63,-232.22 179.17,-224.21 131.5,-188 116.22,-176.4 106.85,-156.14 101.69,-141.32"/>
<polygon fill="midnightblue" stroke="midnightblue" points="105,-140.18 98.66,-131.69 98.32,-142.28 105,-140.18"/>
</g>
<!-- Node3&#45;&gt;Node6 -->
<g id="edge15" class="edge">
<title>Node3&#45;&gt;Node6</title>
<path fill="none" stroke="midnightblue" d="M328.75,-224.46C324.04,-203.3 309.43,-147.59 279.5,-112 268.32,-98.7 252.2,-87.97 238.24,-80.32"/>
<polygon fill="midnightblue" stroke="midnightblue" points="239.5,-77.04 229.02,-75.53 236.28,-83.25 239.5,-77.04"/>
</g>
<!-- Node7 -->
<g id="node6" class="node">
<title>Node7</title>
<g id="a_node6"><a xlink:href="Arduino_8h.html" target="_top" xlink:title=" ">
<polygon fill="white" stroke="red" points="120,-0.5 120,-19.5 183,-19.5 183,-0.5 120,-0.5"/>
<text text-anchor="middle" x="151.5" y="-7.5" font-family="Helvetica,sans-Serif" font-size="10.00">Arduino.h</text>
</a>
</g>
</g>
<!-- Node3&#45;&gt;Node7 -->
<g id="edge17" class="edge">
<title>Node3&#45;&gt;Node7</title>
<path fill="none" stroke="midnightblue" d="M330.17,-224.45C329.53,-211.89 327.68,-187.8 322.5,-168 315.68,-141.97 314,-134.67 299.5,-112 281.2,-83.39 274.94,-76.02 247.5,-56 228.63,-42.23 204.89,-31.06 185.73,-23.29"/>
<polygon fill="midnightblue" stroke="midnightblue" points="186.77,-19.94 176.18,-19.54 184.21,-26.45 186.77,-19.94"/>
</g>
<!-- Node3&#45;&gt;Node13 -->
<g id="edge7" class="edge">
<title>Node3&#45;&gt;Node13</title>
<path fill="none" stroke="midnightblue" d="M356.17,-224.44C383.42,-215.36 426.68,-200.94 457.15,-190.78"/>
<polygon fill="midnightblue" stroke="midnightblue" points="458.57,-194 466.95,-187.52 456.36,-187.36 458.57,-194"/>
</g>
<!-- Node3&#45;&gt;Node15 -->
<g id="edge16" class="edge">
<title>Node3&#45;&gt;Node15</title>
<path fill="none" stroke="midnightblue" d="M337.17,-224.37C351.26,-206.14 384.26,-163.43 402.61,-139.68"/>
<polygon fill="midnightblue" stroke="midnightblue" points="405.52,-141.64 408.86,-131.59 399.98,-137.36 405.52,-141.64"/>
</g>
<!-- Node3&#45;&gt;Node18 -->
<g id="edge10" class="edge">
<title>Node3&#45;&gt;Node18</title>
<path fill="none" stroke="midnightblue" d="M307.68,-224.44C283.67,-215.44 245.67,-201.19 218.63,-191.05"/>
<polygon fill="midnightblue" stroke="midnightblue" points="219.8,-187.75 209.21,-187.52 217.34,-194.3 219.8,-187.75"/>
</g>
<!-- Node4&#45;&gt;Node6 -->
<g id="edge4" class="edge">
<title>Node4&#45;&gt;Node6</title>
<path fill="none" stroke="midnightblue" d="M114.41,-112.44C132.75,-103.68 161.51,-89.94 182.59,-79.86"/>
<polygon fill="midnightblue" stroke="midnightblue" points="184.17,-82.99 191.68,-75.52 181.15,-76.67 184.17,-82.99"/>
</g>
<!-- Node4&#45;&gt;Node7 -->
<g id="edge6" class="edge">
<title>Node4&#45;&gt;Node7</title>
<path fill="none" stroke="midnightblue" d="M100.82,-112.37C109.81,-94.38 130.72,-52.55 142.69,-28.63"/>
<polygon fill="midnightblue" stroke="midnightblue" points="145.86,-30.1 147.2,-19.59 139.6,-26.97 145.86,-30.1"/>
</g>
<!-- Node6&#45;&gt;Node7 -->
<g id="edge5" class="edge">
<title>Node6&#45;&gt;Node7</title>
<path fill="none" stroke="midnightblue" d="M200.18,-56.32C191.61,-48.34 178.69,-36.31 168.31,-26.65"/>
<polygon fill="midnightblue" stroke="midnightblue" points="170.69,-24.09 160.99,-19.83 165.92,-29.21 170.69,-24.09"/>
</g>
<!-- Node13&#45;&gt;Node6 -->
<g id="edge8" class="edge">
<title>Node13&#45;&gt;Node6</title>
<path fill="none" stroke="midnightblue" d="M492.97,-168.36C493.23,-154.32 491.5,-126.65 475.5,-112 443.02,-82.27 314.75,-71.93 248.93,-68.54"/>
<polygon fill="midnightblue" stroke="midnightblue" points="248.7,-65.03 238.54,-68.04 248.36,-72.02 248.7,-65.03"/>
</g>
<!-- Node13&#45;&gt;Node15 -->
<g id="edge9" class="edge">
<title>Node13&#45;&gt;Node15</title>
<path fill="none" stroke="midnightblue" d="M480.13,-168.32C468.34,-160.06 450.37,-147.45 436.36,-137.63"/>
<polygon fill="midnightblue" stroke="midnightblue" points="438.04,-134.53 427.84,-131.65 434.02,-140.26 438.04,-134.53"/>
</g>
<!-- Node18&#45;&gt;Node4 -->
<g id="edge11" class="edge">
<title>Node18&#45;&gt;Node4</title>
<path fill="none" stroke="midnightblue" d="M172.04,-168.32C158,-159.9 136.45,-146.97 119.96,-137.07"/>
<polygon fill="midnightblue" stroke="midnightblue" points="121.3,-133.8 110.92,-131.65 117.7,-139.8 121.3,-133.8"/>
</g>
<!-- Node18&#45;&gt;Node6 -->
<g id="edge14" class="edge">
<title>Node18&#45;&gt;Node6</title>
<path fill="none" stroke="midnightblue" d="M188.21,-168.16C190.64,-155.64 195.27,-132.04 199.5,-112 201.34,-103.28 203.47,-93.63 205.29,-85.51"/>
<polygon fill="midnightblue" stroke="midnightblue" points="208.74,-86.14 207.53,-75.61 201.91,-84.6 208.74,-86.14"/>
</g>
<!-- Node18&#45;&gt;Node19 -->
<g id="edge12" class="edge">
<title>Node18&#45;&gt;Node19</title>
<path fill="none" stroke="midnightblue" d="M195.25,-168.08C202.97,-160.22 214.4,-148.57 223.72,-139.08"/>
<polygon fill="midnightblue" stroke="midnightblue" points="226.4,-141.34 230.91,-131.75 221.41,-136.44 226.4,-141.34"/>
</g>
<!-- Node19&#45;&gt;Node6 -->
<g id="edge13" class="edge">
<title>Node19&#45;&gt;Node6</title>
<path fill="none" stroke="midnightblue" d="M234.55,-112.08C230.4,-104.61 224.35,-93.72 219.23,-84.52"/>
<polygon fill="midnightblue" stroke="midnightblue" points="222.28,-82.79 214.36,-75.75 216.16,-86.19 222.28,-82.79"/>
</g>
<!-- Node21&#45;&gt;Node4 -->
<g id="edge24" class="edge">
<title>Node21&#45;&gt;Node4</title>
<path fill="none" stroke="midnightblue" d="M42.78,-168.32C52.34,-160.26 66.78,-148.08 78.28,-138.37"/>
<polygon fill="midnightblue" stroke="midnightblue" points="80.64,-140.96 86.03,-131.83 76.13,-135.61 80.64,-140.96"/>
</g>
<!-- Node21&#45;&gt;Node6 -->
<g id="edge25" class="edge">
<title>Node21&#45;&gt;Node6</title>
<path fill="none" stroke="midnightblue" d="M29.28,-168.36C24.84,-154.8 18.74,-128.39 31.5,-112 48.34,-90.37 122.9,-77.49 170.02,-71.37"/>
<polygon fill="midnightblue" stroke="midnightblue" points="170.71,-74.81 180.2,-70.1 169.84,-67.86 170.71,-74.81"/>
</g>
<!-- Node21&#45;&gt;Node7 -->
<g id="edge26" class="edge">
<title>Node21&#45;&gt;Node7</title>
<path fill="none" stroke="midnightblue" d="M27.55,-168.12C21.02,-155.14 11.39,-130.54 20.5,-112 41.46,-69.38 90.01,-39.67 121.76,-23.98"/>
<polygon fill="midnightblue" stroke="midnightblue" points="123.5,-27.03 131.02,-19.57 120.49,-20.71 123.5,-27.03"/>
</g>
</g>
</svg>
