<?xml version="1.0" encoding="UTF-8" standalone="no"?>
<!DOCTYPE svg PUBLIC "-//W3C//DTD SVG 1.1//EN"
 "http://www.w3.org/Graphics/SVG/1.1/DTD/svg11.dtd">
<!-- Generated by graphviz version 2.43.0 (0)
 -->
<!-- Title: /home/runner/work/EX&#45;Display/EX&#45;Display/Configurator.cpp Pages: 1 -->
<svg width="1117pt" height="431pt"
 viewBox="0.00 0.00 1116.50 431.00" xmlns="http://www.w3.org/2000/svg" xmlns:xlink="http://www.w3.org/1999/xlink">
<g id="graph0" class="graph" transform="scale(1 1) rotate(0) translate(4 427)">
<title>/home/runner/work/EX&#45;Display/EX&#45;Display/Configurator.cpp</title>
<polygon fill="white" stroke="transparent" points="-4,4 -4,-427 1112.5,-427 1112.5,4 -4,4"/>
<!-- Node1 -->
<g id="node1" class="node">
<title>Node1</title>
<g id="a_node1"><a xlink:title=" ">
<polygon fill="#bfbfbf" stroke="black" points="598.5,-392.5 598.5,-422.5 793.5,-422.5 793.5,-392.5 598.5,-392.5"/>
<text text-anchor="start" x="606.5" y="-410.5" font-family="Helvetica,sans-Serif" font-size="10.00">/home/runner/work/EX</text>
<text text-anchor="middle" x="696" y="-399.5" font-family="Helvetica,sans-Serif" font-size="10.00">&#45;Display/EX&#45;Display/Configurator.cpp</text>
</a>
</g>
</g>
<!-- Node2 -->
<g id="node2" class="node">
<title>Node2</title>
<g id="a_node2"><a xlink:href="Configurator_8h.html" target="_top" xlink:title=" ">
<polygon fill="white" stroke="black" points="352.5,-336.5 352.5,-355.5 437.5,-355.5 437.5,-336.5 352.5,-336.5"/>
<text text-anchor="middle" x="395" y="-343.5" font-family="Helvetica,sans-Serif" font-size="10.00">Configurator.h</text>
</a>
</g>
</g>
<!-- Node1&#45;&gt;Node2 -->
<g id="edge1" class="edge">
<title>Node1&#45;&gt;Node2</title>
<path fill="none" stroke="midnightblue" d="M625.05,-392.47C570.69,-381.73 496.9,-367.14 447.7,-357.42"/>
<polygon fill="midnightblue" stroke="midnightblue" points="448.08,-353.93 437.6,-355.42 446.73,-360.79 448.08,-353.93"/>
</g>
<!-- Node21 -->
<g id="node13" class="node">
<title>Node21</title>
<g id="a_node13"><a xlink:href="AtFinder_8h.html" target="_top" xlink:title=" ">
<polygon fill="white" stroke="black" points="564.5,-168.5 564.5,-187.5 629.5,-187.5 629.5,-168.5 564.5,-168.5"/>
<text text-anchor="middle" x="597" y="-175.5" font-family="Helvetica,sans-Serif" font-size="10.00">AtFinder.h</text>
</a>
</g>
</g>
<!-- Node1&#45;&gt;Node21 -->
<g id="edge30" class="edge">
<title>Node1&#45;&gt;Node21</title>
<path fill="none" stroke="midnightblue" d="M689.81,-392.27C672.56,-352.64 624.01,-241.08 604.89,-197.12"/>
<polygon fill="midnightblue" stroke="midnightblue" points="608.08,-195.7 600.88,-187.93 601.67,-198.49 608.08,-195.7"/>
</g>
<!-- Node22 -->
<g id="node14" class="node">
<title>Node22</title>
<g id="a_node14"><a xlink:href="CreateUserDevices_8h.html" target="_top" xlink:title=" ">
<polygon fill="white" stroke="black" points="724.5,-280.5 724.5,-299.5 843.5,-299.5 843.5,-280.5 724.5,-280.5"/>
<text text-anchor="middle" x="784" y="-287.5" font-family="Helvetica,sans-Serif" font-size="10.00">CreateUserDevices.h</text>
</a>
</g>
</g>
<!-- Node1&#45;&gt;Node22 -->
<g id="edge34" class="edge">
<title>Node1&#45;&gt;Node22</title>
<path fill="none" stroke="midnightblue" d="M706.79,-392.34C723.08,-370.96 753.88,-330.53 771.25,-307.73"/>
<polygon fill="midnightblue" stroke="midnightblue" points="774.12,-309.74 777.39,-299.67 768.55,-305.5 774.12,-309.74"/>
</g>
<!-- Node3 -->
<g id="node3" class="node">
<title>Node3</title>
<g id="a_node3"><a xlink:href="Controller_8h.html" target="_top" xlink:title=" ">
<polygon fill="white" stroke="black" points="97.5,-280.5 97.5,-299.5 170.5,-299.5 170.5,-280.5 97.5,-280.5"/>
<text text-anchor="middle" x="134" y="-287.5" font-family="Helvetica,sans-Serif" font-size="10.00">Controller.h</text>
</a>
</g>
</g>
<!-- Node2&#45;&gt;Node3 -->
<g id="edge2" class="edge">
<title>Node2&#45;&gt;Node3</title>
<path fill="none" stroke="midnightblue" d="M353.64,-336.44C306.54,-326.7 229.76,-310.81 180.58,-300.64"/>
<polygon fill="midnightblue" stroke="midnightblue" points="181.03,-297.16 170.53,-298.56 179.61,-304.01 181.03,-297.16"/>
</g>
<!-- Node6 -->
<g id="node5" class="node">
<title>Node6</title>
<g id="a_node5"><a xlink:href="Logger_8h.html" target="_top" xlink:title=" ">
<polygon fill="white" stroke="black" points="394,-56.5 394,-75.5 452,-75.5 452,-56.5 394,-56.5"/>
<text text-anchor="middle" x="423" y="-63.5" font-family="Helvetica,sans-Serif" font-size="10.00">Logger.h</text>
</a>
</g>
</g>
<!-- Node2&#45;&gt;Node6 -->
<g id="edge28" class="edge">
<title>Node2&#45;&gt;Node6</title>
<path fill="none" stroke="midnightblue" d="M405.16,-336.42C430.01,-314.67 493.57,-254.41 517,-188 528.24,-156.14 536.06,-140.55 518,-112 505.67,-92.52 482.38,-81.31 461.94,-74.95"/>
<polygon fill="midnightblue" stroke="midnightblue" points="462.77,-71.54 452.2,-72.2 460.87,-78.28 462.77,-71.54"/>
</g>
<!-- Node13 -->
<g id="node7" class="node">
<title>Node13</title>
<g id="a_node7"><a xlink:href="DisplayManager_8h.html" target="_top" xlink:title=" ">
<polygon fill="white" stroke="black" points="227,-224.5 227,-243.5 331,-243.5 331,-224.5 227,-224.5"/>
<text text-anchor="middle" x="279" y="-231.5" font-family="Helvetica,sans-Serif" font-size="10.00">DisplayManager.h</text>
</a>
</g>
</g>
<!-- Node2&#45;&gt;Node13 -->
<g id="edge26" class="edge">
<title>Node2&#45;&gt;Node13</title>
<path fill="none" stroke="midnightblue" d="M385.9,-336.37C366.42,-317.89 320.44,-274.29 295.6,-250.74"/>
<polygon fill="midnightblue" stroke="midnightblue" points="297.72,-247.93 288.06,-243.59 292.91,-253.01 297.72,-247.93"/>
</g>
<!-- Node17 -->
<g id="node9" class="node">
<title>Node17</title>
<g id="a_node9"><a xlink:href="ScreenManager_8h.html" target="_top" xlink:title=" ">
<polygon fill="white" stroke="red" points="104.5,-168.5 104.5,-187.5 205.5,-187.5 205.5,-168.5 104.5,-168.5"/>
<text text-anchor="middle" x="155" y="-175.5" font-family="Helvetica,sans-Serif" font-size="10.00">ScreenManager.h</text>
</a>
</g>
</g>
<!-- Node2&#45;&gt;Node17 -->
<g id="edge29" class="edge">
<title>Node2&#45;&gt;Node17</title>
<path fill="none" stroke="midnightblue" d="M376.1,-336.41C342.51,-320.69 270.97,-285.09 218,-244 199.28,-229.48 180.77,-209.53 168.71,-195.57"/>
<polygon fill="midnightblue" stroke="midnightblue" points="171.22,-193.12 162.08,-187.76 165.88,-197.65 171.22,-193.12"/>
</g>
<!-- Node18 -->
<g id="node10" class="node">
<title>Node18</title>
<g id="a_node10"><a xlink:href="InputManager_8h.html" target="_top" xlink:title=" ">
<polygon fill="white" stroke="black" points="349,-224.5 349,-243.5 441,-243.5 441,-224.5 349,-224.5"/>
<text text-anchor="middle" x="395" y="-231.5" font-family="Helvetica,sans-Serif" font-size="10.00">InputManager.h</text>
</a>
</g>
</g>
<!-- Node2&#45;&gt;Node18 -->
<g id="edge27" class="edge">
<title>Node2&#45;&gt;Node18</title>
<path fill="none" stroke="midnightblue" d="M395,-336.37C395,-318.62 395,-277.67 395,-253.6"/>
<polygon fill="midnightblue" stroke="midnightblue" points="398.5,-253.59 395,-243.59 391.5,-253.59 398.5,-253.59"/>
</g>
<!-- Node19 -->
<g id="node11" class="node">
<title>Node19</title>
<g id="a_node11"><a xlink:href="Defines_8h.html" target="_top" xlink:title=" ">
<polygon fill="white" stroke="black" points="665,-112.5 665,-131.5 727,-131.5 727,-112.5 665,-112.5"/>
<text text-anchor="middle" x="696" y="-119.5" font-family="Helvetica,sans-Serif" font-size="10.00">Defines.h</text>
</a>
</g>
</g>
<!-- Node2&#45;&gt;Node19 -->
<g id="edge25" class="edge">
<title>Node2&#45;&gt;Node19</title>
<path fill="none" stroke="midnightblue" d="M437.71,-338.47C470.18,-332.15 515.06,-320.45 550,-300 611.3,-264.12 622.39,-245.57 664,-188 674.58,-173.36 683.36,-154.69 689.03,-141.12"/>
<polygon fill="midnightblue" stroke="midnightblue" points="692.41,-142.09 692.89,-131.5 685.92,-139.48 692.41,-142.09"/>
</g>
<!-- Node4 -->
<g id="node4" class="node">
<title>Node4</title>
<g id="a_node4"><a xlink:href="CallbackInterface_8h.html" target="_top" xlink:title=" ">
<polygon fill="white" stroke="red" points="258.5,-112.5 258.5,-131.5 369.5,-131.5 369.5,-112.5 258.5,-112.5"/>
<text text-anchor="middle" x="314" y="-119.5" font-family="Helvetica,sans-Serif" font-size="10.00">CallbackInterface.h</text>
</a>
</g>
</g>
<!-- Node3&#45;&gt;Node4 -->
<g id="edge3" class="edge">
<title>Node3&#45;&gt;Node4</title>
<path fill="none" stroke="midnightblue" d="M126.3,-280.37C108.21,-259.01 66.55,-202.89 95,-168 114.09,-144.59 190.93,-133.01 248.23,-127.53"/>
<polygon fill="midnightblue" stroke="midnightblue" points="248.69,-131 258.33,-126.61 248.05,-124.03 248.69,-131"/>
</g>
<!-- Node3&#45;&gt;Node6 -->
<g id="edge22" class="edge">
<title>Node3&#45;&gt;Node6</title>
<path fill="none" stroke="midnightblue" d="M120.99,-280.35C110.13,-272.33 95.27,-259.34 88,-244 73.5,-213.41 63.92,-195.96 83,-168 117.36,-117.64 302.02,-84.75 383.88,-72.44"/>
<polygon fill="midnightblue" stroke="midnightblue" points="384.42,-75.9 393.8,-70.98 383.4,-68.98 384.42,-75.9"/>
</g>
<!-- Node7 -->
<g id="node6" class="node">
<title>Node7</title>
<g id="a_node6"><a xlink:href="Arduino_8h.html" target="_top" xlink:title=" ">
<polygon fill="white" stroke="red" points="345.5,-0.5 345.5,-19.5 408.5,-19.5 408.5,-0.5 345.5,-0.5"/>
<text text-anchor="middle" x="377" y="-7.5" font-family="Helvetica,sans-Serif" font-size="10.00">Arduino.h</text>
</a>
</g>
</g>
<!-- Node3&#45;&gt;Node7 -->
<g id="edge24" class="edge">
<title>Node3&#45;&gt;Node7</title>
<path fill="none" stroke="midnightblue" d="M106.88,-280.47C67.73,-266.27 0,-233.78 0,-179 0,-179 0,-179 0,-121 0,-51.85 236.73,-23.22 335.01,-14.31"/>
<polygon fill="midnightblue" stroke="midnightblue" points="335.53,-17.78 345.18,-13.42 334.91,-10.81 335.53,-17.78"/>
</g>
<!-- Node3&#45;&gt;Node13 -->
<g id="edge7" class="edge">
<title>Node3&#45;&gt;Node13</title>
<path fill="none" stroke="midnightblue" d="M156.98,-280.44C181.16,-271.44 219.42,-257.19 246.65,-247.05"/>
<polygon fill="midnightblue" stroke="midnightblue" points="247.98,-250.29 256.13,-243.52 245.54,-243.73 247.98,-250.29"/>
</g>
<!-- Node3&#45;&gt;Node17 -->
<g id="edge23" class="edge">
<title>Node3&#45;&gt;Node17</title>
<path fill="none" stroke="midnightblue" d="M135.65,-280.37C139.04,-262.62 146.85,-221.67 151.45,-197.6"/>
<polygon fill="midnightblue" stroke="midnightblue" points="154.92,-198.07 153.36,-187.59 148.05,-196.76 154.92,-198.07"/>
</g>
<!-- Node3&#45;&gt;Node18 -->
<g id="edge12" class="edge">
<title>Node3&#45;&gt;Node18</title>
<path fill="none" stroke="midnightblue" d="M170.57,-281.43C215.68,-272.1 292.65,-256.18 343.67,-245.62"/>
<polygon fill="midnightblue" stroke="midnightblue" points="344.43,-249.04 353.51,-243.58 343.01,-242.18 344.43,-249.04"/>
</g>
<!-- Node4&#45;&gt;Node6 -->
<g id="edge4" class="edge">
<title>Node4&#45;&gt;Node6</title>
<path fill="none" stroke="midnightblue" d="M331.51,-112.32C349.07,-103.62 376.33,-90.12 396.53,-80.11"/>
<polygon fill="midnightblue" stroke="midnightblue" points="398.12,-83.23 405.53,-75.65 395.02,-76.96 398.12,-83.23"/>
</g>
<!-- Node4&#45;&gt;Node7 -->
<g id="edge6" class="edge">
<title>Node4&#45;&gt;Node7</title>
<path fill="none" stroke="midnightblue" d="M318.94,-112.37C329.29,-94.3 353.42,-52.18 367.09,-28.31"/>
<polygon fill="midnightblue" stroke="midnightblue" points="370.15,-30.01 372.08,-19.59 364.07,-26.53 370.15,-30.01"/>
</g>
<!-- Node6&#45;&gt;Node7 -->
<g id="edge5" class="edge">
<title>Node6&#45;&gt;Node7</title>
<path fill="none" stroke="midnightblue" d="M415.4,-56.08C408.77,-48.3 398.98,-36.8 390.94,-27.37"/>
<polygon fill="midnightblue" stroke="midnightblue" points="393.6,-25.09 384.45,-19.75 388.27,-29.63 393.6,-25.09"/>
</g>
<!-- Node13&#45;&gt;Node6 -->
<g id="edge10" class="edge">
<title>Node13&#45;&gt;Node6</title>
<path fill="none" stroke="midnightblue" d="M271.15,-224.45C252.68,-203.29 210.04,-147.58 238,-112 255.74,-89.42 334.62,-76.76 383.48,-70.96"/>
<polygon fill="midnightblue" stroke="midnightblue" points="384.17,-74.4 393.71,-69.79 383.38,-67.45 384.17,-74.4"/>
</g>
<!-- Node14 -->
<g id="node8" class="node">
<title>Node14</title>
<g id="a_node8"><a xlink:href="DisplayInterface_8h.html" target="_top" xlink:title=" ">
<polygon fill="white" stroke="red" points="388,-112.5 388,-131.5 494,-131.5 494,-112.5 388,-112.5"/>
<text text-anchor="middle" x="441" y="-119.5" font-family="Helvetica,sans-Serif" font-size="10.00">DisplayInterface.h</text>
</a>
</g>
</g>
<!-- Node13&#45;&gt;Node14 -->
<g id="edge8" class="edge">
<title>Node13&#45;&gt;Node14</title>
<path fill="none" stroke="midnightblue" d="M291.71,-224.37C319.51,-205.49 385.94,-160.38 420.03,-137.24"/>
<polygon fill="midnightblue" stroke="midnightblue" points="422.04,-140.1 428.35,-131.59 418.11,-134.31 422.04,-140.1"/>
</g>
<!-- Node13&#45;&gt;Node17 -->
<g id="edge11" class="edge">
<title>Node13&#45;&gt;Node17</title>
<path fill="none" stroke="midnightblue" d="M259.35,-224.44C239.04,-215.6 207.1,-201.69 183.9,-191.59"/>
<polygon fill="midnightblue" stroke="midnightblue" points="185.12,-188.3 174.56,-187.52 182.33,-194.72 185.12,-188.3"/>
</g>
<!-- Node14&#45;&gt;Node6 -->
<g id="edge9" class="edge">
<title>Node14&#45;&gt;Node6</title>
<path fill="none" stroke="midnightblue" d="M438.03,-112.08C435.62,-104.85 432.14,-94.41 429.13,-85.4"/>
<polygon fill="midnightblue" stroke="midnightblue" points="432.4,-84.13 425.92,-75.75 425.76,-86.34 432.4,-84.13"/>
</g>
<!-- Node18&#45;&gt;Node4 -->
<g id="edge13" class="edge">
<title>Node18&#45;&gt;Node4</title>
<path fill="none" stroke="midnightblue" d="M388.64,-224.37C375.22,-206.14 343.77,-163.43 326.28,-139.68"/>
<polygon fill="midnightblue" stroke="midnightblue" points="329.07,-137.57 320.33,-131.59 323.44,-141.72 329.07,-137.57"/>
</g>
<!-- Node18&#45;&gt;Node6 -->
<g id="edge21" class="edge">
<title>Node18&#45;&gt;Node6</title>
<path fill="none" stroke="midnightblue" d="M367.96,-224.42C316.03,-206.53 210.79,-162.71 250,-112 266.24,-91 338.02,-77.97 383.87,-71.64"/>
<polygon fill="midnightblue" stroke="midnightblue" points="384.34,-75.11 393.79,-70.32 383.41,-68.17 384.34,-75.11"/>
</g>
<!-- Node18&#45;&gt;Node14 -->
<g id="edge16" class="edge">
<title>Node18&#45;&gt;Node14</title>
<path fill="none" stroke="midnightblue" d="M394.94,-224.19C395.15,-211.31 396.74,-186.82 405,-168 409.66,-157.39 417.46,-147.18 424.62,-139.17"/>
<polygon fill="midnightblue" stroke="midnightblue" points="427.36,-141.36 431.68,-131.69 422.27,-136.56 427.36,-141.36"/>
</g>
<!-- Node18&#45;&gt;Node19 -->
<g id="edge14" class="edge">
<title>Node18&#45;&gt;Node19</title>
<path fill="none" stroke="midnightblue" d="M441.21,-233.32C492.69,-231.76 576.83,-223.32 639,-188 659.1,-176.58 675.65,-155.37 685.64,-140.29"/>
<polygon fill="midnightblue" stroke="midnightblue" points="688.6,-142.15 690.99,-131.83 682.69,-138.41 688.6,-142.15"/>
</g>
<!-- Node20 -->
<g id="node12" class="node">
<title>Node20</title>
<g id="a_node12"><a xlink:href="InputInterface_8h.html" target="_top" xlink:title=" ">
<polygon fill="white" stroke="red" points="414,-168.5 414,-187.5 508,-187.5 508,-168.5 414,-168.5"/>
<text text-anchor="middle" x="461" y="-175.5" font-family="Helvetica,sans-Serif" font-size="10.00">InputInterface.h</text>
</a>
</g>
</g>
<!-- Node18&#45;&gt;Node20 -->
<g id="edge17" class="edge">
<title>Node18&#45;&gt;Node20</title>
<path fill="none" stroke="midnightblue" d="M405.6,-224.32C415.46,-216.26 430.35,-204.08 442.22,-194.37"/>
<polygon fill="midnightblue" stroke="midnightblue" points="444.68,-196.88 450.2,-187.83 440.25,-191.46 444.68,-196.88"/>
</g>
<!-- Node19&#45;&gt;Node6 -->
<g id="edge15" class="edge">
<title>Node19&#45;&gt;Node6</title>
<path fill="none" stroke="midnightblue" d="M664.95,-114.86C615.06,-104.99 517.12,-85.62 462.38,-74.79"/>
<polygon fill="midnightblue" stroke="midnightblue" points="462.85,-71.32 452.36,-72.81 461.49,-78.18 462.85,-71.32"/>
</g>
<!-- Node20&#45;&gt;Node4 -->
<g id="edge18" class="edge">
<title>Node20&#45;&gt;Node4</title>
<path fill="none" stroke="midnightblue" d="M437.71,-168.44C413.19,-159.44 374.4,-145.19 346.8,-135.05"/>
<polygon fill="midnightblue" stroke="midnightblue" points="347.78,-131.68 337.18,-131.52 345.36,-138.25 347.78,-131.68"/>
</g>
<!-- Node20&#45;&gt;Node6 -->
<g id="edge20" class="edge">
<title>Node20&#45;&gt;Node6</title>
<path fill="none" stroke="midnightblue" d="M473.68,-168.32C490.05,-156 515.07,-132.64 503,-112 493.94,-96.51 477.37,-85.94 461.65,-78.96"/>
<polygon fill="midnightblue" stroke="midnightblue" points="462.63,-75.58 452.04,-75.06 459.99,-82.06 462.63,-75.58"/>
</g>
<!-- Node20&#45;&gt;Node14 -->
<g id="edge19" class="edge">
<title>Node20&#45;&gt;Node14</title>
<path fill="none" stroke="midnightblue" d="M457.7,-168.08C455.02,-160.85 451.15,-150.41 447.81,-141.4"/>
<polygon fill="midnightblue" stroke="midnightblue" points="451,-139.91 444.24,-131.75 444.43,-142.34 451,-139.91"/>
</g>
<!-- Node21&#45;&gt;Node4 -->
<g id="edge31" class="edge">
<title>Node21&#45;&gt;Node4</title>
<path fill="none" stroke="midnightblue" d="M564.26,-170.75C516.49,-161.64 427.09,-144.58 369.09,-133.51"/>
<polygon fill="midnightblue" stroke="midnightblue" points="369.47,-130.02 359,-131.59 368.16,-136.9 369.47,-130.02"/>
</g>
<!-- Node21&#45;&gt;Node6 -->
<g id="edge32" class="edge">
<title>Node21&#45;&gt;Node6</title>
<path fill="none" stroke="midnightblue" d="M596.35,-168.07C594.86,-154.12 589.96,-127.18 574,-112 543.73,-83.22 495.84,-72.76 462.13,-69.01"/>
<polygon fill="midnightblue" stroke="midnightblue" points="462.45,-65.52 452.16,-68.05 461.77,-72.49 462.45,-65.52"/>
</g>
<!-- Node21&#45;&gt;Node7 -->
<g id="edge33" class="edge">
<title>Node21&#45;&gt;Node7</title>
<path fill="none" stroke="midnightblue" d="M599.26,-168.13C602.14,-154.73 605.45,-129.08 594,-112 554.16,-52.59 469.78,-27.41 418.78,-17.29"/>
<polygon fill="midnightblue" stroke="midnightblue" points="419.21,-13.81 408.74,-15.4 417.92,-20.69 419.21,-13.81"/>
</g>
<!-- Node22&#45;&gt;Node13 -->
<g id="edge35" class="edge">
<title>Node22&#45;&gt;Node13</title>
<path fill="none" stroke="midnightblue" d="M724.3,-283.82C640.96,-276.39 484.78,-261.78 341.51,-244.14"/>
<polygon fill="midnightblue" stroke="midnightblue" points="341.58,-240.62 331.22,-242.86 340.72,-247.57 341.58,-240.62"/>
</g>
<!-- Node22&#45;&gt;Node18 -->
<g id="edge36" class="edge">
<title>Node22&#45;&gt;Node18</title>
<path fill="none" stroke="midnightblue" d="M724.5,-280.74C650.25,-270.43 524.22,-252.94 451.44,-242.83"/>
<polygon fill="midnightblue" stroke="midnightblue" points="451.48,-239.31 441.1,-241.4 450.52,-246.24 451.48,-239.31"/>
</g>
<!-- Node23 -->
<g id="node15" class="node">
<title>Node23</title>
<g id="a_node15"><a xlink:href="TFT__eSPIDisplay_8h.html" target="_top" xlink:title=" ">
<polygon fill="white" stroke="black" points="762,-168.5 762,-187.5 866,-187.5 866,-168.5 762,-168.5"/>
<text text-anchor="middle" x="814" y="-175.5" font-family="Helvetica,sans-Serif" font-size="10.00">TFT_eSPIDisplay.h</text>
</a>
</g>
</g>
<!-- Node22&#45;&gt;Node23 -->
<g id="edge37" class="edge">
<title>Node22&#45;&gt;Node23</title>
<path fill="none" stroke="midnightblue" d="M781.19,-280.31C777.55,-267.58 772.39,-243.27 779,-224 782.72,-213.16 790.23,-202.92 797.35,-194.96"/>
<polygon fill="midnightblue" stroke="midnightblue" points="800.05,-197.19 804.44,-187.55 795,-192.35 800.05,-197.19"/>
</g>
<!-- Node26 -->
<g id="node18" class="node">
<title>Node26</title>
<g id="a_node18"><a xlink:href="TFT__eSPITouch_8h.html" target="_top" xlink:title=" ">
<polygon fill="white" stroke="black" points="787.5,-224.5 787.5,-243.5 884.5,-243.5 884.5,-224.5 787.5,-224.5"/>
<text text-anchor="middle" x="836" y="-231.5" font-family="Helvetica,sans-Serif" font-size="10.00">TFT_eSPITouch.h</text>
</a>
</g>
</g>
<!-- Node22&#45;&gt;Node26 -->
<g id="edge42" class="edge">
<title>Node22&#45;&gt;Node26</title>
<path fill="none" stroke="midnightblue" d="M792.59,-280.08C800.16,-272.22 811.38,-260.57 820.51,-251.08"/>
<polygon fill="midnightblue" stroke="midnightblue" points="823.16,-253.38 827.57,-243.75 818.12,-248.53 823.16,-253.38"/>
</g>
<!-- Node27 -->
<g id="node19" class="node">
<title>Node27</title>
<g id="a_node19"><a xlink:href="CreateDeviceMacros_8h.html" target="_top" xlink:title=" ">
<polygon fill="white" stroke="black" points="947.5,-224.5 947.5,-243.5 1074.5,-243.5 1074.5,-224.5 947.5,-224.5"/>
<text text-anchor="middle" x="1011" y="-231.5" font-family="Helvetica,sans-Serif" font-size="10.00">CreateDeviceMacros.h</text>
</a>
</g>
</g>
<!-- Node22&#45;&gt;Node27 -->
<g id="edge48" class="edge">
<title>Node22&#45;&gt;Node27</title>
<path fill="none" stroke="midnightblue" d="M819.97,-280.44C859.32,-271.08 922.49,-256.06 965.31,-245.87"/>
<polygon fill="midnightblue" stroke="midnightblue" points="966.28,-249.24 975.2,-243.52 964.66,-242.43 966.28,-249.24"/>
</g>
<!-- Node23&#45;&gt;Node14 -->
<g id="edge39" class="edge">
<title>Node23&#45;&gt;Node14</title>
<path fill="none" stroke="midnightblue" d="M761.74,-169.43C694.15,-159.65 576.5,-142.62 504.02,-132.12"/>
<polygon fill="midnightblue" stroke="midnightblue" points="504.51,-128.66 494.11,-130.69 503.5,-135.59 504.51,-128.66"/>
</g>
<!-- Node23&#45;&gt;Node19 -->
<g id="edge38" class="edge">
<title>Node23&#45;&gt;Node19</title>
<path fill="none" stroke="midnightblue" d="M795.3,-168.44C776.06,-159.64 745.85,-145.81 723.8,-135.72"/>
<polygon fill="midnightblue" stroke="midnightblue" points="725.16,-132.5 714.61,-131.52 722.25,-138.86 725.16,-132.5"/>
</g>
<!-- Node24 -->
<g id="node16" class="node">
<title>Node24</title>
<g id="a_node16"><a xlink:title=" ">
<polygon fill="white" stroke="#bfbfbf" points="804.5,-112.5 804.5,-131.5 845.5,-131.5 845.5,-112.5 804.5,-112.5"/>
<text text-anchor="middle" x="825" y="-119.5" font-family="Helvetica,sans-Serif" font-size="10.00">SPI.h</text>
</a>
</g>
</g>
<!-- Node23&#45;&gt;Node24 -->
<g id="edge40" class="edge">
<title>Node23&#45;&gt;Node24</title>
<path fill="none" stroke="midnightblue" d="M815.82,-168.08C817.27,-160.93 819.37,-150.64 821.19,-141.69"/>
<polygon fill="midnightblue" stroke="midnightblue" points="824.65,-142.25 823.22,-131.75 817.79,-140.85 824.65,-142.25"/>
</g>
<!-- Node25 -->
<g id="node17" class="node">
<title>Node25</title>
<g id="a_node17"><a xlink:title=" ">
<polygon fill="white" stroke="#bfbfbf" points="885.5,-112.5 885.5,-131.5 954.5,-131.5 954.5,-112.5 885.5,-112.5"/>
<text text-anchor="middle" x="920" y="-119.5" font-family="Helvetica,sans-Serif" font-size="10.00">TFT_eSPI.h</text>
</a>
</g>
</g>
<!-- Node23&#45;&gt;Node25 -->
<g id="edge41" class="edge">
<title>Node23&#45;&gt;Node25</title>
<path fill="none" stroke="midnightblue" d="M831.03,-168.32C848.03,-159.66 874.38,-146.24 893.99,-136.25"/>
<polygon fill="midnightblue" stroke="midnightblue" points="895.69,-139.31 903.01,-131.65 892.51,-133.08 895.69,-139.31"/>
</g>
<!-- Node26&#45;&gt;Node19 -->
<g id="edge43" class="edge">
<title>Node26&#45;&gt;Node19</title>
<path fill="none" stroke="midnightblue" d="M815.67,-224.45C798.08,-216.5 772.47,-203.55 753,-188 735.49,-174.02 719.02,-154.24 708.33,-140.18"/>
<polygon fill="midnightblue" stroke="midnightblue" points="710.95,-137.83 702.18,-131.88 705.32,-142 710.95,-137.83"/>
</g>
<!-- Node26&#45;&gt;Node20 -->
<g id="edge44" class="edge">
<title>Node26&#45;&gt;Node20</title>
<path fill="none" stroke="midnightblue" d="M787.36,-226C718.18,-216.03 591.63,-197.81 518.09,-187.22"/>
<polygon fill="midnightblue" stroke="midnightblue" points="518.47,-183.74 508.08,-185.78 517.48,-190.67 518.47,-183.74"/>
</g>
<!-- Node26&#45;&gt;Node23 -->
<g id="edge45" class="edge">
<title>Node26&#45;&gt;Node23</title>
<path fill="none" stroke="midnightblue" d="M832.37,-224.08C829.39,-216.77 825.07,-206.18 821.38,-197.1"/>
<polygon fill="midnightblue" stroke="midnightblue" points="824.58,-195.69 817.57,-187.75 818.1,-198.33 824.58,-195.69"/>
</g>
<!-- Node26&#45;&gt;Node24 -->
<g id="edge46" class="edge">
<title>Node26&#45;&gt;Node24</title>
<path fill="none" stroke="midnightblue" d="M847.81,-224.12C862.46,-211.95 884.42,-189.16 875,-168 869.43,-155.5 858.48,-145.01 848.25,-137.32"/>
<polygon fill="midnightblue" stroke="midnightblue" points="850.16,-134.38 839.95,-131.53 846.15,-140.12 850.16,-134.38"/>
</g>
<!-- Node26&#45;&gt;Node25 -->
<g id="edge47" class="edge">
<title>Node26&#45;&gt;Node25</title>
<path fill="none" stroke="midnightblue" d="M849.44,-224.36C861.34,-216.17 878.56,-202.91 890,-188 900.86,-173.84 908.98,-155.11 914.01,-141.39"/>
<polygon fill="midnightblue" stroke="midnightblue" points="917.42,-142.25 917.38,-131.65 910.8,-139.96 917.42,-142.25"/>
</g>
<!-- Node28 -->
<g id="node20" class="node">
<title>Node28</title>
<g id="a_node20"><a xlink:href="CreateDeviceMacroReset_8h.html" target="_top" xlink:title=" ">
<polygon fill="white" stroke="black" points="959.5,-168.5 959.5,-187.5 1108.5,-187.5 1108.5,-168.5 959.5,-168.5"/>
<text text-anchor="middle" x="1034" y="-175.5" font-family="Helvetica,sans-Serif" font-size="10.00">CreateDeviceMacroReset.h</text>
</a>
</g>
</g>
<!-- Node27&#45;&gt;Node28 -->
<g id="edge49" class="edge">
<title>Node27&#45;&gt;Node28</title>
<path fill="none" stroke="midnightblue" d="M1014.8,-224.08C1017.91,-216.77 1022.42,-206.18 1026.29,-197.1"/>
<polygon fill="midnightblue" stroke="midnightblue" points="1029.57,-198.32 1030.27,-187.75 1023.13,-195.58 1029.57,-198.32"/>
</g>
</g>
</svg>
