<?xml version="1.0" encoding="UTF-8" standalone="no"?>
<!DOCTYPE svg PUBLIC "-//W3C//DTD SVG 1.1//EN"
 "http://www.w3.org/Graphics/SVG/1.1/DTD/svg11.dtd">
<!-- Generated by graphviz version 2.43.0 (0)
 -->
<!-- Title: /home/runner/work/EX&#45;Display/EX&#45;Display/Configurator.cpp Pages: 1 -->
<!--zoomable 375 -->
<svg id="main" version="1.1" xmlns="http://www.w3.org/2000/svg" xmlns:xlink="http://www.w3.org/1999/xlink" xml:space="preserve" onload="init(evt)">
<style type="text/css"><![CDATA[
.edge:hover path { stroke: red; }
.edge:hover polygon { stroke: red; fill: red; }
]]></style>
<script type="text/javascript"><![CDATA[
var edges = document.getElementsByTagName('g');
if (edges && edges.length) {
  for (var i=0;i<edges.length;i++) {
    if (edges[i].id.substr(0,4)=='edge') {
      edges[i].setAttribute('class','edge');
    }
  }
}
]]></script>
        <defs>
                <circle id="rim" cx="0" cy="0" r="7"/>
                <circle id="rim2" cx="0" cy="0" r="3.5"/>
                <g id="zoomPlus">
                        <use xlink:href="#rim" fill="#404040">
                                <set attributeName="fill" to="#808080" begin="zoomplus.mouseover" end="zoomplus.mouseout"/>
                        </use>
                        <path d="M-4,0h8M0,-4v8" fill="none" stroke="white" stroke-width="1.5" pointer-events="none"/>
                </g>
                <g id="zoomMin">
                        <use xlink:href="#rim" fill="#404040">
                                <set attributeName="fill" to="#808080" begin="zoomminus.mouseover" end="zoomminus.mouseout"/>
                        </use>
                        <path d="M-4,0h8" fill="none" stroke="white" stroke-width="1.5" pointer-events="none"/>
                </g>
                <g id="dirArrow">
                        <path fill="none" stroke="white" stroke-width="1.5" d="M0,-3.0v7 M-2.5,-0.5L0,-3.0L2.5,-0.5"/>
                </g>
               <g id="resetDef">
                       <use xlink:href="#rim2" fill="#404040">
                               <set attributeName="fill" to="#808080" begin="reset.mouseover" end="reset.mouseout"/>
                       </use>
               </g>
        </defs>

<script type="text/javascript">
var viewWidth = 558;
var viewHeight = 375;
var sectionId = 'dynsection-0';
</script>
<script xlink:href="svgpan.js"/>
<svg id="graph" class="graph">
<g id="viewport">
<title>/home/runner/work/EX&#45;Display/EX&#45;Display/Configurator.cpp</title>
<polygon fill="white" stroke="transparent" points="-4,4 -4,-371 554.14,-371 554.14,4 -4,4"/>
<!-- Node1 -->
<g id="node1" class="node">
<title>Node1</title>
<g id="a_node1"><a xlink:title=" ">
<polygon fill="#bfbfbf" stroke="black" points="98.27,-336.5 98.27,-366.5 293.27,-366.5 293.27,-336.5 98.27,-336.5"/>
<text text-anchor="start" x="106.27" y="-354.5" font-family="Helvetica,sans-Serif" font-size="10.00">/home/runner/work/EX</text>
<text text-anchor="middle" x="195.77" y="-343.5" font-family="Helvetica,sans-Serif" font-size="10.00">&#45;Display/EX&#45;Display/Configurator.cpp</text>
</a>
</g>
</g>
<!-- Node2 -->
<g id="node2" class="node">
<title>Node2</title>
<g id="a_node2"><a xlink:href="Configurator_8h.html" target="_top" xlink:title=" ">
<polygon fill="white" stroke="black" points="308.27,-280.5 308.27,-299.5 393.27,-299.5 393.27,-280.5 308.27,-280.5"/>
<text text-anchor="middle" x="350.77" y="-287.5" font-family="Helvetica,sans-Serif" font-size="10.00">Configurator.h</text>
</a>
</g>
</g>
<!-- Node1&#45;&gt;Node2 -->
<g id="edge1" class="edge">
<title>Node1&#45;&gt;Node2</title>
<path fill="none" stroke="midnightblue" d="M232.51,-336.4C258.74,-326.33 293.7,-312.91 318.79,-303.28"/>
<polygon fill="midnightblue" stroke="midnightblue" points="320.14,-306.51 328.22,-299.66 317.63,-299.97 320.14,-306.51"/>
</g>
<!-- Node21 -->
<g id="node11" class="node">
<title>Node21</title>
<g id="a_node11"><a xlink:href="AtFinder_8h.html" target="_top" xlink:title=" ">
<polygon fill="white" stroke="black" points="23.27,-168.5 23.27,-187.5 88.27,-187.5 88.27,-168.5 23.27,-168.5"/>
<text text-anchor="middle" x="55.77" y="-175.5" font-family="Helvetica,sans-Serif" font-size="10.00">AtFinder.h</text>
</a>
</g>
</g>
<!-- Node1&#45;&gt;Node21 -->
<g id="edge22" class="edge">
<title>Node1&#45;&gt;Node21</title>
<path fill="none" stroke="midnightblue" d="M184.32,-336.47C158.66,-305.03 96.69,-229.12 69.24,-195.5"/>
<polygon fill="midnightblue" stroke="midnightblue" points="71.8,-193.09 62.76,-187.56 66.37,-197.52 71.8,-193.09"/>
</g>
<!-- Node3 -->
<g id="node3" class="node">
<title>Node3</title>
<g id="a_node3"><a xlink:href="Controller_8h.html" target="_top" xlink:title=" ">
<polygon fill="white" stroke="black" points="240.27,-224.5 240.27,-243.5 313.27,-243.5 313.27,-224.5 240.27,-224.5"/>
<text text-anchor="middle" x="276.77" y="-231.5" font-family="Helvetica,sans-Serif" font-size="10.00">Controller.h</text>
</a>
</g>
</g>
<!-- Node2&#45;&gt;Node3 -->
<g id="edge2" class="edge">
<title>Node2&#45;&gt;Node3</title>
<path fill="none" stroke="midnightblue" d="M338.88,-280.32C327.62,-272.11 310.49,-259.6 297.06,-249.81"/>
<polygon fill="midnightblue" stroke="midnightblue" points="299.02,-246.9 288.88,-243.83 294.89,-252.56 299.02,-246.9"/>
</g>
<!-- Node6 -->
<g id="node5" class="node">
<title>Node6</title>
<g id="a_node5"><a xlink:href="Logger_8h.html" target="_top" xlink:title=" ">
<polygon fill="white" stroke="black" points="228.77,-56.5 228.77,-75.5 286.77,-75.5 286.77,-56.5 228.77,-56.5"/>
<text text-anchor="middle" x="257.77" y="-63.5" font-family="Helvetica,sans-Serif" font-size="10.00">Logger.h</text>
</a>
</g>
</g>
<!-- Node2&#45;&gt;Node6 -->
<g id="edge20" class="edge">
<title>Node2&#45;&gt;Node6</title>
<path fill="none" stroke="midnightblue" d="M393.41,-280.82C461.2,-265.78 582.01,-229.51 541.77,-168 488.32,-86.27 361.89,-70.03 297.28,-67.23"/>
<polygon fill="midnightblue" stroke="midnightblue" points="297.2,-63.72 287.08,-66.87 296.96,-70.72 297.2,-63.72"/>
</g>
<!-- Node13 -->
<g id="node7" class="node">
<title>Node13</title>
<g id="a_node7"><a xlink:href="DisplayManager_8h.html" target="_top" xlink:title=" ">
<polygon fill="white" stroke="red" points="144.77,-168.5 144.77,-187.5 248.77,-187.5 248.77,-168.5 144.77,-168.5"/>
<text text-anchor="middle" x="196.77" y="-175.5" font-family="Helvetica,sans-Serif" font-size="10.00">DisplayManager.h</text>
</a>
</g>
</g>
<!-- Node2&#45;&gt;Node13 -->
<g id="edge18" class="edge">
<title>Node2&#45;&gt;Node13</title>
<path fill="none" stroke="midnightblue" d="M308.22,-281.02C283.29,-274.55 252.53,-263.23 230.77,-244 216.78,-231.63 207.66,-212.11 202.43,-197.68"/>
<polygon fill="midnightblue" stroke="midnightblue" points="205.64,-196.24 199.16,-187.85 198.99,-198.44 205.64,-196.24"/>
</g>
<!-- Node15 -->
<g id="node8" class="node">
<title>Node15</title>
<g id="a_node8"><a xlink:href="InputManager_8h.html" target="_top" xlink:title=" ">
<polygon fill="white" stroke="red" points="304.77,-168.5 304.77,-187.5 396.77,-187.5 396.77,-168.5 304.77,-168.5"/>
<text text-anchor="middle" x="350.77" y="-175.5" font-family="Helvetica,sans-Serif" font-size="10.00">InputManager.h</text>
</a>
</g>
</g>
<!-- Node2&#45;&gt;Node15 -->
<g id="edge19" class="edge">
<title>Node2&#45;&gt;Node15</title>
<path fill="none" stroke="midnightblue" d="M350.77,-280.37C350.77,-262.62 350.77,-221.67 350.77,-197.6"/>
<polygon fill="midnightblue" stroke="midnightblue" points="354.27,-197.59 350.77,-187.59 347.27,-197.59 354.27,-197.59"/>
</g>
<!-- Node16 -->
<g id="node9" class="node">
<title>Node16</title>
<g id="a_node9"><a xlink:href="Defines_8h.html" target="_top" xlink:title=" ">
<polygon fill="white" stroke="black" points="342.77,-112.5 342.77,-131.5 404.77,-131.5 404.77,-112.5 342.77,-112.5"/>
<text text-anchor="middle" x="373.77" y="-119.5" font-family="Helvetica,sans-Serif" font-size="10.00">Defines.h</text>
</a>
</g>
</g>
<!-- Node2&#45;&gt;Node16 -->
<g id="edge17" class="edge">
<title>Node2&#45;&gt;Node16</title>
<path fill="none" stroke="midnightblue" d="M384.82,-280.5C426.58,-268.04 495.51,-240.4 525.77,-188 551.2,-143.96 468.62,-129.75 415.35,-125.17"/>
<polygon fill="midnightblue" stroke="midnightblue" points="415.37,-121.66 405.13,-124.37 414.83,-128.64 415.37,-121.66"/>
</g>
<!-- Node18 -->
<g id="node10" class="node">
<title>Node18</title>
<g id="a_node10"><a xlink:href="ScreenManager_8h.html" target="_top" xlink:title=" ">
<polygon fill="white" stroke="red" points="415.27,-168.5 415.27,-187.5 516.27,-187.5 516.27,-168.5 415.27,-168.5"/>
<text text-anchor="middle" x="465.77" y="-175.5" font-family="Helvetica,sans-Serif" font-size="10.00">ScreenManager.h</text>
</a>
</g>
</g>
<!-- Node2&#45;&gt;Node18 -->
<g id="edge21" class="edge">
<title>Node2&#45;&gt;Node18</title>
<path fill="none" stroke="midnightblue" d="M359.8,-280.37C379.11,-261.89 424.7,-218.29 449.31,-194.74"/>
<polygon fill="midnightblue" stroke="midnightblue" points="451.98,-197.03 456.79,-187.59 447.15,-191.97 451.98,-197.03"/>
</g>
<!-- Node4 -->
<g id="node4" class="node">
<title>Node4</title>
<g id="a_node4"><a xlink:href="CallbackInterface_8h.html" target="_top" xlink:title=" ">
<polygon fill="white" stroke="red" points="99.27,-112.5 99.27,-131.5 210.27,-131.5 210.27,-112.5 99.27,-112.5"/>
<text text-anchor="middle" x="154.77" y="-119.5" font-family="Helvetica,sans-Serif" font-size="10.00">CallbackInterface.h</text>
</a>
</g>
</g>
<!-- Node3&#45;&gt;Node4 -->
<g id="edge3" class="edge">
<title>Node3&#45;&gt;Node4</title>
<path fill="none" stroke="midnightblue" d="M240.18,-232.61C206.91,-230.06 159.5,-220.47 135.77,-188 125.52,-173.96 133.45,-154.45 141.98,-140.48"/>
<polygon fill="midnightblue" stroke="midnightblue" points="145.12,-142.08 147.76,-131.82 139.3,-138.19 145.12,-142.08"/>
</g>
<!-- Node3&#45;&gt;Node6 -->
<g id="edge14" class="edge">
<title>Node3&#45;&gt;Node6</title>
<path fill="none" stroke="midnightblue" d="M275.75,-224.08C272.76,-197.95 263.98,-121.21 259.9,-85.58"/>
<polygon fill="midnightblue" stroke="midnightblue" points="263.37,-85.11 258.75,-75.57 256.41,-85.9 263.37,-85.11"/>
</g>
<!-- Node7 -->
<g id="node6" class="node">
<title>Node7</title>
<g id="a_node6"><a xlink:href="Arduino_8h.html" target="_top" xlink:title=" ">
<polygon fill="white" stroke="red" points="62.27,-0.5 62.27,-19.5 125.27,-19.5 125.27,-0.5 62.27,-0.5"/>
<text text-anchor="middle" x="93.77" y="-7.5" font-family="Helvetica,sans-Serif" font-size="10.00">Arduino.h</text>
</a>
</g>
</g>
<!-- Node3&#45;&gt;Node7 -->
<g id="edge16" class="edge">
<title>Node3&#45;&gt;Node7</title>
<path fill="none" stroke="midnightblue" d="M240.03,-232.31C174.66,-230.22 42.3,-221.82 13.77,-188 -29.1,-137.17 41.54,-59.63 76.26,-26.68"/>
<polygon fill="midnightblue" stroke="midnightblue" points="78.89,-29.02 83.84,-19.66 74.13,-23.89 78.89,-29.02"/>
</g>
<!-- Node3&#45;&gt;Node13 -->
<g id="edge7" class="edge">
<title>Node3&#45;&gt;Node13</title>
<path fill="none" stroke="midnightblue" d="M263.92,-224.32C251.56,-215.98 232.64,-203.21 218.04,-193.35"/>
<polygon fill="midnightblue" stroke="midnightblue" points="219.84,-190.35 209.6,-187.65 215.93,-196.15 219.84,-190.35"/>
</g>
<!-- Node3&#45;&gt;Node15 -->
<g id="edge9" class="edge">
<title>Node3&#45;&gt;Node15</title>
<path fill="none" stroke="midnightblue" d="M288.66,-224.32C299.92,-216.11 317.06,-203.6 330.48,-193.81"/>
<polygon fill="midnightblue" stroke="midnightblue" points="332.65,-196.56 338.67,-187.83 328.53,-190.9 332.65,-196.56"/>
</g>
<!-- Node3&#45;&gt;Node18 -->
<g id="edge15" class="edge">
<title>Node3&#45;&gt;Node18</title>
<path fill="none" stroke="midnightblue" d="M306.72,-224.44C338.93,-215.24 390.31,-200.56 425.92,-190.39"/>
<polygon fill="midnightblue" stroke="midnightblue" points="427.31,-193.63 435.97,-187.52 425.39,-186.9 427.31,-193.63"/>
</g>
<!-- Node4&#45;&gt;Node6 -->
<g id="edge4" class="edge">
<title>Node4&#45;&gt;Node6</title>
<path fill="none" stroke="midnightblue" d="M171.32,-112.32C187.77,-103.7 213.21,-90.36 232.24,-80.39"/>
<polygon fill="midnightblue" stroke="midnightblue" points="234.03,-83.4 241.27,-75.65 230.78,-77.2 234.03,-83.4"/>
</g>
<!-- Node4&#45;&gt;Node7 -->
<g id="edge6" class="edge">
<title>Node4&#45;&gt;Node7</title>
<path fill="none" stroke="midnightblue" d="M149.99,-112.37C140.01,-94.38 116.82,-52.55 103.55,-28.63"/>
<polygon fill="midnightblue" stroke="midnightblue" points="106.45,-26.64 98.54,-19.59 100.33,-30.03 106.45,-26.64"/>
</g>
<!-- Node6&#45;&gt;Node7 -->
<g id="edge5" class="edge">
<title>Node6&#45;&gt;Node7</title>
<path fill="none" stroke="midnightblue" d="M231.79,-56.44C204.08,-47.32 160.02,-32.81 129.16,-22.65"/>
<polygon fill="midnightblue" stroke="midnightblue" points="130.23,-19.32 119.64,-19.52 128.04,-25.97 130.23,-19.32"/>
</g>
<!-- Node13&#45;&gt;Node6 -->
<g id="edge8" class="edge">
<title>Node13&#45;&gt;Node6</title>
<path fill="none" stroke="midnightblue" d="M201.56,-168.37C211.54,-150.38 234.73,-108.55 248,-84.63"/>
<polygon fill="midnightblue" stroke="midnightblue" points="251.22,-86.03 253.01,-75.59 245.1,-82.64 251.22,-86.03"/>
</g>
<!-- Node15&#45;&gt;Node4 -->
<g id="edge10" class="edge">
<title>Node15&#45;&gt;Node4</title>
<path fill="none" stroke="midnightblue" d="M319.72,-168.44C286.17,-159.2 232.58,-144.44 195.63,-134.26"/>
<polygon fill="midnightblue" stroke="midnightblue" points="196.26,-130.8 185.69,-131.52 194.4,-137.55 196.26,-130.8"/>
</g>
<!-- Node15&#45;&gt;Node6 -->
<g id="edge13" class="edge">
<title>Node15&#45;&gt;Node6</title>
<path fill="none" stroke="midnightblue" d="M343.48,-168.37C327.99,-150.05 291.63,-107.05 271.61,-83.36"/>
<polygon fill="midnightblue" stroke="midnightblue" points="274.17,-80.97 265.04,-75.59 268.82,-85.49 274.17,-80.97"/>
</g>
<!-- Node15&#45;&gt;Node16 -->
<g id="edge11" class="edge">
<title>Node15&#45;&gt;Node16</title>
<path fill="none" stroke="midnightblue" d="M354.57,-168.08C357.69,-160.77 362.2,-150.18 366.06,-141.1"/>
<polygon fill="midnightblue" stroke="midnightblue" points="369.35,-142.32 370.05,-131.75 362.91,-139.58 369.35,-142.32"/>
</g>
<!-- Node16&#45;&gt;Node6 -->
<g id="edge12" class="edge">
<title>Node16&#45;&gt;Node6</title>
<path fill="none" stroke="midnightblue" d="M355.39,-112.44C336.56,-103.68 307.04,-89.94 285.39,-79.86"/>
<polygon fill="midnightblue" stroke="midnightblue" points="286.61,-76.56 276.07,-75.52 283.66,-82.91 286.61,-76.56"/>
</g>
<!-- Node21&#45;&gt;Node4 -->
<g id="edge23" class="edge">
<title>Node21&#45;&gt;Node4</title>
<path fill="none" stroke="midnightblue" d="M71.68,-168.32C87.41,-159.74 111.72,-146.49 129.98,-136.52"/>
<polygon fill="midnightblue" stroke="midnightblue" points="131.8,-139.52 138.91,-131.65 128.45,-133.37 131.8,-139.52"/>
</g>
<!-- Node21&#45;&gt;Node6 -->
<g id="edge24" class="edge">
<title>Node21&#45;&gt;Node6</title>
<path fill="none" stroke="midnightblue" d="M57.86,-168.4C61.71,-154.41 71.28,-126.81 89.77,-112 126.67,-82.45 181.26,-72.21 218.11,-68.72"/>
<polygon fill="midnightblue" stroke="midnightblue" points="218.79,-72.18 228.47,-67.87 218.22,-65.2 218.79,-72.18"/>
</g>
<!-- Node21&#45;&gt;Node7 -->
<g id="edge25" class="edge">
<title>Node21&#45;&gt;Node7</title>
<path fill="none" stroke="midnightblue" d="M57.62,-168.16C60.24,-155.64 65.23,-132.04 69.77,-112 76.32,-83.08 84.37,-49.61 89.28,-29.39"/>
<polygon fill="midnightblue" stroke="midnightblue" points="92.69,-30.18 91.66,-19.63 85.89,-28.52 92.69,-30.18"/>
</g>
</g>
</svg>
        <g id="navigator" transform="translate(0 0)" fill="#404254">
                <rect fill="#f2f5e9" fill-opacity="0.5" stroke="#606060" stroke-width=".5" x="0" y="0" width="60" height="60"/>
                <use id="zoomplus" xlink:href="#zoomPlus" x="17" y="9" onmousedown="handleZoom(evt,'in')"/>
                <use id="zoomminus" xlink:href="#zoomMin" x="42" y="9" onmousedown="handleZoom(evt,'out')"/>
                <use id="reset" xlink:href="#resetDef" x="30" y="36" onmousedown="handleReset()"/>
                <g id="arrowUp" xlink:href="#dirArrow" transform="translate(30 24)" onmousedown="handlePan(0,-1)">
                  <use xlink:href="#rim" fill="#404040">
                        <set attributeName="fill" to="#808080" begin="arrowUp.mouseover" end="arrowUp.mouseout"/>
                  </use>
                  <path fill="none" stroke="white" stroke-width="1.5" d="M0,-3.0v7 M-2.5,-0.5L0,-3.0L2.5,-0.5"/>
                </g>
                <g id="arrowRight" xlink:href="#dirArrow" transform="rotate(90) translate(36 -43)" onmousedown="handlePan(1,0)">
                  <use xlink:href="#rim" fill="#404040">
                        <set attributeName="fill" to="#808080" begin="arrowRight.mouseover" end="arrowRight.mouseout"/>
                  </use>
                  <path fill="none" stroke="white" stroke-width="1.5" d="M0,-3.0v7 M-2.5,-0.5L0,-3.0L2.5,-0.5"/>
                </g>
                <g id="arrowDown" xlink:href="#dirArrow" transform="rotate(180) translate(-30 -48)" onmousedown="handlePan(0,1)">
                  <use xlink:href="#rim" fill="#404040">
                        <set attributeName="fill" to="#808080" begin="arrowDown.mouseover" end="arrowDown.mouseout"/>
                  </use>
                  <path fill="none" stroke="white" stroke-width="1.5" d="M0,-3.0v7 M-2.5,-0.5L0,-3.0L2.5,-0.5"/>
                </g>
                <g id="arrowLeft" xlink:href="#dirArrow" transform="rotate(270) translate(-36 17)" onmousedown="handlePan(-1,0)">
                  <use xlink:href="#rim" fill="#404040">
                        <set attributeName="fill" to="#808080" begin="arrowLeft.mouseover" end="arrowLeft.mouseout"/>
                  </use>
                  <path fill="none" stroke="white" stroke-width="1.5" d="M0,-3.0v7 M-2.5,-0.5L0,-3.0L2.5,-0.5"/>
                </g>
        </g>
        <svg viewBox="0 0 15 15" width="100%" height="30px" preserveAspectRatio="xMaxYMin meet">
         <g id="arrow_out" transform="scale(0.3 0.3)">
          <a xlink:href="Configurator_8cpp__incl_org.svg" target="_base">
           <rect id="button" ry="5" rx="5" y="6" x="6" height="38" width="38"
                fill="#f2f5e9" fill-opacity="0.5" stroke="#606060" stroke-width="1.0"/>
           <path id="arrow"
             d="M 11.500037,31.436501 C 11.940474,20.09759 22.043105,11.32322 32.158766,21.979434 L 37.068811,17.246167 C 37.068811,17.246167 37.088388,32 37.088388,32 L 22.160133,31.978069 C 22.160133,31.978069 26.997745,27.140456 26.997745,27.140456 C 18.528582,18.264221 13.291696,25.230495 11.500037,31.436501 z"
             style="fill:#404040;"/>
          </a>
         </g>
        </svg>
</svg>
