<?xml version="1.0" encoding="UTF-8" standalone="no"?>
<!DOCTYPE svg PUBLIC "-//W3C//DTD SVG 1.1//EN"
 "http://www.w3.org/Graphics/SVG/1.1/DTD/svg11.dtd">
<!-- Generated by graphviz version 2.43.0 (0)
 -->
<!-- Title: /home/runner/work/EX&#45;Display/EX&#45;Display/Configurator.h Pages: 1 -->
<svg width="502pt" height="126pt"
 viewBox="0.00 0.00 501.50 126.00" xmlns="http://www.w3.org/2000/svg" xmlns:xlink="http://www.w3.org/1999/xlink">
<g id="graph0" class="graph" transform="scale(1 1) rotate(0) translate(4 122)">
<title>/home/runner/work/EX&#45;Display/EX&#45;Display/Configurator.h</title>
<!-- Node1 -->
<g id="Node000001" class="node">
<title>Node1</title>
<g id="a_Node000001"><a xlink:title=" ">
<polygon fill="#999999" stroke="#666666" points="369.5,-118 185.5,-118 185.5,-88 369.5,-88 369.5,-118"/>
<text text-anchor="start" x="193.5" y="-106" font-family="Helvetica,sans-Serif" font-size="10.00">/home/runner/work/EX</text>
<text text-anchor="middle" x="277.5" y="-95" font-family="Helvetica,sans-Serif" font-size="10.00">&#45;Display/EX&#45;Display/Configurator.h</text>
</a>
</g>
</g>
<!-- Node2 -->
<g id="Node000002" class="node">
<title>Node2</title>
<g id="a_Node000002"><a xlink:href="Configurator_8cpp.html" target="_top" xlink:title=" ">
<polygon fill="white" stroke="#666666" points="195,-41 0,-41 0,-11 195,-11 195,-41"/>
<text text-anchor="start" x="8" y="-29" font-family="Helvetica,sans-Serif" font-size="10.00">/home/runner/work/EX</text>
<text text-anchor="middle" x="97.5" y="-18" font-family="Helvetica,sans-Serif" font-size="10.00">&#45;Display/EX&#45;Display/Configurator.cpp</text>
</a>
</g>
</g>
<!-- Node1&#45;&gt;Node2 -->
<g id="edge1_Node000001_Node000002" class="edge">
<title>Node1&#45;&gt;Node2</title>
<g id="a_edge1_Node000001_Node000002"><a xlink:title=" ">
<path fill="none" stroke="#63b8ff" d="M234.2,-83.96C202.58,-70.78 160.32,-53.18 131.2,-41.04"/>
<polygon fill="#63b8ff" stroke="#63b8ff" points="233.07,-87.28 243.64,-87.89 235.76,-80.82 233.07,-87.28"/>
</a>
</g>
</g>
<!-- Node3 -->
<g id="Node000003" class="node">
<title>Node3</title>
<g id="a_Node000003"><a xlink:href="EX-Display_8ino.html" target="_top" xlink:title=" ">
<polygon fill="white" stroke="#666666" points="341.5,-46.5 213.5,-46.5 213.5,-5.5 341.5,-5.5 341.5,-46.5"/>
<text text-anchor="start" x="221.5" y="-34.5" font-family="Helvetica,sans-Serif" font-size="10.00">/home/runner/work/EX</text>
<text text-anchor="start" x="221.5" y="-23.5" font-family="Helvetica,sans-Serif" font-size="10.00">&#45;Display/EX&#45;Display/EX</text>
<text text-anchor="middle" x="277.5" y="-12.5" font-family="Helvetica,sans-Serif" font-size="10.00">&#45;Display.ino</text>
</a>
</g>
</g>
<!-- Node1&#45;&gt;Node3 -->
<g id="edge2_Node000001_Node000003" class="edge">
<title>Node1&#45;&gt;Node3</title>
<g id="a_edge2_Node000001_Node000003"><a xlink:title=" ">
<path fill="none" stroke="#63b8ff" d="M277.5,-77.73C277.5,-67.7 277.5,-56.21 277.5,-46.7"/>
<polygon fill="#63b8ff" stroke="#63b8ff" points="274,-77.89 277.5,-87.89 281,-77.89 274,-77.89"/>
</a>
</g>
</g>
<!-- Node4 -->
<g id="Node000004" class="node">
<title>Node4</title>
<g id="a_Node000004"><a xlink:href="test__Configurator_8cpp.html" target="_top" xlink:title=" ">
<polygon fill="white" stroke="#666666" points="493.5,-52 359.5,-52 359.5,0 493.5,0 493.5,-52"/>
<text text-anchor="start" x="367.5" y="-40" font-family="Helvetica,sans-Serif" font-size="10.00">/home/runner/work/EX</text>
<text text-anchor="start" x="367.5" y="-29" font-family="Helvetica,sans-Serif" font-size="10.00">&#45;Display/EX&#45;Display/test</text>
<text text-anchor="start" x="367.5" y="-18" font-family="Helvetica,sans-Serif" font-size="10.00">/unit/test_Configurator</text>
<text text-anchor="middle" x="426.5" y="-7" font-family="Helvetica,sans-Serif" font-size="10.00">/test_Configurator.cpp</text>
</a>
</g>
</g>
<!-- Node1&#45;&gt;Node4 -->
<g id="edge3_Node000001_Node000004" class="edge">
<title>Node1&#45;&gt;Node4</title>
<g id="a_edge3_Node000001_Node000004"><a xlink:title=" ">
<path fill="none" stroke="#63b8ff" d="M314.62,-83.32C333.35,-73.89 356.33,-62.32 376.58,-52.13"/>
<polygon fill="#63b8ff" stroke="#63b8ff" points="312.88,-80.27 305.53,-87.89 316.03,-86.52 312.88,-80.27"/>
</a>
</g>
</g>
</g>
</svg>
