<?xml version="1.0" encoding="UTF-8" standalone="no"?>
<!DOCTYPE svg PUBLIC "-//W3C//DTD SVG 1.1//EN"
 "http://www.w3.org/Graphics/SVG/1.1/DTD/svg11.dtd">
<!-- Generated by graphviz version 2.43.0 (0)
 -->
<!-- Title: /home/runner/work/EX&#45;Display/EX&#45;Display/Configurator.h Pages: 1 -->
<!--zoomable 368 -->

<svg id="main" version="1.1" xmlns="http://www.w3.org/2000/svg" xmlns:xlink="http://www.w3.org/1999/xlink" xml:space="preserve" onload="init(evt)">
<style type="text/css"><![CDATA[
.node, .edge {opacity: 0.7;}
.node.selected, .edge.selected {opacity: 1;}
.edge:hover path { stroke: red; }
.edge:hover polygon { stroke: red; fill: red; }
]]></style>

<defs>
  <circle id="rim" cx="0" cy="0" r="7"/>
  <circle id="rim2" cx="0" cy="0" r="3.5"/>
  <g id="zoomPlus">
    <use xlink:href="#rim" fill="#404040"><set attributeName="fill" to="#808080" begin="zoomplus.mouseover" end="zoomplus.mouseout"/></use>
    <path d="M-4,0h8M0,-4v8" fill="none" stroke="white" stroke-width="1.5" pointer-events="none"/>
  </g>
  <g id="zoomMin">
    <use xlink:href="#rim" fill="#404040"><set attributeName="fill" to="#808080" begin="zoomminus.mouseover" end="zoomminus.mouseout"/></use>
    <path d="M-4,0h8" fill="none" stroke="white" stroke-width="1.5" pointer-events="none"/>
  </g>
  <g id="arrowUp" transform="translate(30 24)">
    <use xlink:href="#rim"/>
    <path pointer-events="none" fill="none" stroke="white" stroke-width="1.5" d="M0,-3.0v7 M-2.5,-0.5L0,-3.0L2.5,-0.5"/>
  </g>
  <g id="arrowRight" transform="rotate(90) translate(36 -43)">
    <use xlink:href="#rim"/>
    <path pointer-events="none" fill="none" stroke="white" stroke-width="1.5" d="M0,-3.0v7 M-2.5,-0.5L0,-3.0L2.5,-0.5"/>
  </g>
  <g id="arrowDown" transform="rotate(180) translate(-30 -48)">
    <use xlink:href="#rim"/>
    <path pointer-events="none" fill="none" stroke="white" stroke-width="1.5" d="M0,-3.0v7 M-2.5,-0.5L0,-3.0L2.5,-0.5"/>
  </g>
  <g id="arrowLeft" transform="rotate(270) translate(-36 17)">
    <use xlink:href="#rim"/>
    <path pointer-events="none" fill="none" stroke="white" stroke-width="1.5" d="M0,-3.0v7 M-2.5,-0.5L0,-3.0L2.5,-0.5"/>
  </g>
  <g id="resetDef">
    <use xlink:href="#rim2" fill="#404040"><set attributeName="fill" to="#808080" begin="reset.mouseover" end="reset.mouseout"/></use>
  </g>
</defs>
<script type="application/ecmascript">
var viewWidth = 677;
var viewHeight = 368;
var sectionId = 'dynsection-0';
</script>
<script type="application/ecmascript" xlink:href="svg.min.js"/>
<svg id="graph" class="graph">
<g id="viewport">
<title>/home/runner/work/EX&#45;Display/EX&#45;Display/Configurator.h</title>
<!-- Node1 -->
<g id="Node000001" class="node">
<title>Node1</title>
<g id="a_Node000001"><a xlink:title=" ">
<polygon fill="#999999" stroke="#666666" points="411.5,-360 227.5,-360 227.5,-330 411.5,-330 411.5,-360"/>
<text text-anchor="start" x="235.5" y="-348" font-family="Helvetica,sans-Serif" font-size="10.00">/home/runner/work/EX</text>
<text text-anchor="middle" x="319.5" y="-337" font-family="Helvetica,sans-Serif" font-size="10.00">&#45;Display/EX&#45;Display/Configurator.h</text>
</a>
</g>
</g>
<!-- Node2 -->
<g id="Node000002" class="node">
<title>Node2</title>
<g id="a_Node000002"><a xlink:href="Controller_8h.html" target="_top" xlink:title=" ">
<polygon fill="white" stroke="#666666" points="285,-294 212,-294 212,-275 285,-275 285,-294"/>
<text text-anchor="middle" x="248.5" y="-282" font-family="Helvetica,sans-Serif" font-size="10.00">Controller.h</text>
</a>
</g>
</g>
<!-- Node1&#45;&gt;Node2 -->
<g id="edge1_Node000001_Node000002" class="edge">
<title>Node1&#45;&gt;Node2</title>
<g id="a_edge1_Node000001_Node000002"><a xlink:title=" ">
<path fill="none" stroke="#63b8ff" d="M302.31,-329.84C291.69,-321.09 278.06,-309.85 267.17,-300.88"/>
<polygon fill="#63b8ff" stroke="#63b8ff" points="269.08,-297.92 259.14,-294.27 264.63,-303.33 269.08,-297.92"/>
</a>
</g>
</g>
<!-- Node5 -->
<g id="Node000005" class="node">
<title>Node5</title>
<g id="a_Node000005"><a xlink:href="Logger_8h.html" target="_top" xlink:title=" ">
<polygon fill="white" stroke="#666666" points="474.5,-74 416.5,-74 416.5,-55 474.5,-55 474.5,-74"/>
<text text-anchor="middle" x="445.5" y="-62" font-family="Helvetica,sans-Serif" font-size="10.00">Logger.h</text>
</a>
</g>
</g>
<!-- Node1&#45;&gt;Node5 -->
<g id="edge29_Node000001_Node000005" class="edge">
<title>Node1&#45;&gt;Node5</title>
<g id="a_edge29_Node000001_Node000005"><a xlink:title=" ">
<path fill="none" stroke="#63b8ff" d="M411.54,-340.14C485.99,-331.48 578.5,-305.61 578.5,-230.5 578.5,-230.5 578.5,-230.5 578.5,-173.5 578.5,-123.87 522,-93.05 482.65,-77.61"/>
<polygon fill="#63b8ff" stroke="#63b8ff" points="483.65,-74.25 473.06,-74.02 481.19,-80.8 483.65,-74.25"/>
</a>
</g>
</g>
<!-- Node12 -->
<g id="Node000012" class="node">
<title>Node12</title>
<g id="a_Node000012"><a xlink:href="DisplayManager_8h.html" target="_top" xlink:title=" ">
<polygon fill="white" stroke="#666666" points="182.5,-239 78.5,-239 78.5,-220 182.5,-220 182.5,-239"/>
<text text-anchor="middle" x="130.5" y="-227" font-family="Helvetica,sans-Serif" font-size="10.00">DisplayManager.h</text>
</a>
</g>
</g>
<!-- Node1&#45;&gt;Node12 -->
<g id="edge27_Node000001_Node000012" class="edge">
<title>Node1&#45;&gt;Node12</title>
<g id="a_edge27_Node000001_Node000012"><a xlink:title=" ">
<path fill="none" stroke="#63b8ff" d="M278.51,-329.9C255.58,-321.15 226.98,-308.77 203.5,-294 181.87,-280.39 160.16,-260.53 146.11,-246.66"/>
<polygon fill="#63b8ff" stroke="#63b8ff" points="148.31,-243.9 138.79,-239.27 143.35,-248.83 148.31,-243.9"/>
</a>
</g>
</g>
<!-- Node16 -->
<g id="Node000016" class="node">
<title>Node16</title>
<g id="a_Node000016"><a xlink:href="ScreenManager_8h.html" target="_top" xlink:title=" ">
<polygon fill="#fff0f0" stroke="red" points="101,-184 0,-184 0,-165 101,-165 101,-184"/>
<text text-anchor="middle" x="50.5" y="-172" font-family="Helvetica,sans-Serif" font-size="10.00">ScreenManager.h</text>
</a>
</g>
</g>
<!-- Node1&#45;&gt;Node16 -->
<g id="edge30_Node000001_Node000016" class="edge">
<title>Node1&#45;&gt;Node16</title>
<g id="a_edge30_Node000001_Node000016"><a xlink:title=" ">
<path fill="none" stroke="#63b8ff" d="M227.41,-333.62C167.34,-321.55 93.15,-295.45 54.5,-239 45.63,-226.04 45.38,-207.89 46.91,-194.31"/>
<polygon fill="#63b8ff" stroke="#63b8ff" points="50.4,-194.61 48.46,-184.19 43.48,-193.54 50.4,-194.61"/>
</a>
</g>
</g>
<!-- Node17 -->
<g id="Node000017" class="node">
<title>Node17</title>
<g id="a_Node000017"><a xlink:href="InputManager_8h.html" target="_top" xlink:title=" ">
<polygon fill="white" stroke="#666666" points="433.5,-239 341.5,-239 341.5,-220 433.5,-220 433.5,-239"/>
<text text-anchor="middle" x="387.5" y="-227" font-family="Helvetica,sans-Serif" font-size="10.00">InputManager.h</text>
</a>
</g>
</g>
<!-- Node1&#45;&gt;Node17 -->
<g id="edge28_Node000001_Node000017" class="edge">
<title>Node1&#45;&gt;Node17</title>
<g id="a_edge28_Node000001_Node000017"><a xlink:title=" ">
<path fill="none" stroke="#63b8ff" d="M328.11,-329.63C340.56,-308.84 363.57,-270.44 377,-248.02"/>
<polygon fill="#63b8ff" stroke="#63b8ff" points="380.13,-249.61 382.27,-239.23 374.13,-246.01 380.13,-249.61"/>
</a>
</g>
</g>
<!-- Node18 -->
<g id="Node000018" class="node">
<title>Node18</title>
<g id="a_Node000018"><a xlink:href="Defines_8h.html" target="_top" xlink:title=" ">
<polygon fill="white" stroke="#666666" points="668.5,-184 606.5,-184 606.5,-165 668.5,-165 668.5,-184"/>
<text text-anchor="middle" x="637.5" y="-172" font-family="Helvetica,sans-Serif" font-size="10.00">Defines.h</text>
</a>
</g>
</g>
<!-- Node1&#45;&gt;Node18 -->
<g id="edge26_Node000001_Node000018" class="edge">
<title>Node1&#45;&gt;Node18</title>
<g id="a_edge26_Node000001_Node000018"><a xlink:title=" ">
<path fill="none" stroke="#63b8ff" d="M411.73,-336.78C479.9,-329.7 565.38,-316.59 592.5,-294 622.7,-268.85 632.66,-221.13 635.93,-194.56"/>
<polygon fill="#63b8ff" stroke="#63b8ff" points="639.44,-194.6 636.98,-184.3 632.48,-193.89 639.44,-194.6"/>
</a>
</g>
</g>
<!-- Node3 -->
<g id="Node000003" class="node">
<title>Node3</title>
<g id="a_Node000003"><a xlink:href="CallbackInterface_8h.html" target="_top" xlink:title=" ">
<polygon fill="white" stroke="#666666" points="474,-129 363,-129 363,-110 474,-110 474,-129"/>
<text text-anchor="middle" x="418.5" y="-117" font-family="Helvetica,sans-Serif" font-size="10.00">CallbackInterface.h</text>
</a>
</g>
</g>
<!-- Node2&#45;&gt;Node3 -->
<g id="edge2_Node000002_Node000003" class="edge">
<title>Node2&#45;&gt;Node3</title>
<g id="a_edge2_Node000002_Node000003"><a xlink:title=" ">
<path fill="none" stroke="#63b8ff" d="M257.64,-274.74C284.97,-248.53 366.34,-170.51 401.74,-136.57"/>
<polygon fill="#63b8ff" stroke="#63b8ff" points="404.52,-138.75 409.31,-129.31 399.67,-133.7 404.52,-138.75"/>
</a>
</g>
</g>
<!-- Node2&#45;&gt;Node5 -->
<g id="edge23_Node000002_Node000005" class="edge">
<title>Node2&#45;&gt;Node5</title>
<g id="a_edge23_Node000002_Node000005"><a xlink:title=" ">
<path fill="none" stroke="#63b8ff" d="M245.99,-274.86C237.08,-243.42 208.63,-135.6 229.5,-110 251.31,-83.23 349.62,-72.09 405.8,-67.85"/>
<polygon fill="#63b8ff" stroke="#63b8ff" points="406.38,-71.32 416.1,-67.11 405.88,-64.33 406.38,-71.32"/>
</a>
</g>
</g>
<!-- Node6 -->
<g id="Node000006" class="node">
<title>Node6</title>
<g id="a_Node000006"><a xlink:href="Arduino_8h.html" target="_top" xlink:title=" ">
<polygon fill="#fff0f0" stroke="red" points="420,-19 357,-19 357,0 420,0 420,-19"/>
<text text-anchor="middle" x="388.5" y="-7" font-family="Helvetica,sans-Serif" font-size="10.00">Arduino.h</text>
</a>
</g>
</g>
<!-- Node2&#45;&gt;Node6 -->
<g id="edge25_Node000002_Node000006" class="edge">
<title>Node2&#45;&gt;Node6</title>
<g id="a_edge25_Node000002_Node000006"><a xlink:title=" ">
<path fill="none" stroke="#63b8ff" d="M243.29,-274.87C227.99,-248.31 186.26,-166.22 218.5,-110 245.92,-62.18 306.22,-35.13 347.12,-21.65"/>
<polygon fill="#63b8ff" stroke="#63b8ff" points="348.32,-24.94 356.81,-18.59 346.22,-18.27 348.32,-24.94"/>
</a>
</g>
</g>
<!-- Node2&#45;&gt;Node12 -->
<g id="edge7_Node000002_Node000012" class="edge">
<title>Node2&#45;&gt;Node12</title>
<g id="a_edge7_Node000002_Node000012"><a xlink:title=" ">
<path fill="none" stroke="#63b8ff" d="M229.54,-274.98C210.47,-266.42 180.84,-253.11 158.95,-243.28"/>
<polygon fill="#63b8ff" stroke="#63b8ff" points="160.36,-240.07 149.8,-239.17 157.49,-246.46 160.36,-240.07"/>
</a>
</g>
</g>
<!-- Node2&#45;&gt;Node16 -->
<g id="edge24_Node000002_Node000016" class="edge">
<title>Node2&#45;&gt;Node16</title>
<g id="a_edge24_Node000002_Node000016"><a xlink:title=" ">
<path fill="none" stroke="#63b8ff" d="M211.77,-278.71C165.54,-271.96 89.72,-258.29 69.5,-239 57.41,-227.47 52.92,-208.59 51.3,-194.41"/>
<polygon fill="#63b8ff" stroke="#63b8ff" points="54.78,-193.98 50.53,-184.28 47.8,-194.51 54.78,-193.98"/>
</a>
</g>
</g>
<!-- Node2&#45;&gt;Node17 -->
<g id="edge12_Node000002_Node000017" class="edge">
<title>Node2&#45;&gt;Node17</title>
<g id="a_edge12_Node000002_Node000017"><a xlink:title=" ">
<path fill="none" stroke="#63b8ff" d="M270.83,-274.98C293.7,-266.27 329.46,-252.63 355.36,-242.75"/>
<polygon fill="#63b8ff" stroke="#63b8ff" points="356.66,-246 364.76,-239.17 354.17,-239.46 356.66,-246"/>
</a>
</g>
</g>
<!-- Node4 -->
<g id="Node000004" class="node">
<title>Node4</title>
<g id="a_Node000004"><a xlink:href="InputActions_8h.html" target="_top" xlink:title=" ">
<polygon fill="white" stroke="#666666" points="632.5,-74 546.5,-74 546.5,-55 632.5,-55 632.5,-74"/>
<text text-anchor="middle" x="589.5" y="-62" font-family="Helvetica,sans-Serif" font-size="10.00">InputActions.h</text>
</a>
</g>
</g>
<!-- Node3&#45;&gt;Node4 -->
<g id="edge3_Node000003_Node000004" class="edge">
<title>Node3&#45;&gt;Node4</title>
<g id="a_edge3_Node000003_Node000004"><a xlink:title=" ">
<path fill="none" stroke="#63b8ff" d="M445.97,-109.98C474.68,-101.09 519.92,-87.07 551.92,-77.15"/>
<polygon fill="#63b8ff" stroke="#63b8ff" points="553.3,-80.39 561.81,-74.08 551.22,-73.7 553.3,-80.39"/>
</a>
</g>
</g>
<!-- Node3&#45;&gt;Node5 -->
<g id="edge4_Node000003_Node000005" class="edge">
<title>Node3&#45;&gt;Node5</title>
<g id="a_edge4_Node000003_Node000005"><a xlink:title=" ">
<path fill="none" stroke="#63b8ff" d="M422.96,-109.75C426.62,-102.57 431.91,-92.18 436.45,-83.27"/>
<polygon fill="#63b8ff" stroke="#63b8ff" points="439.7,-84.59 441.12,-74.09 433.47,-81.41 439.7,-84.59"/>
</a>
</g>
</g>
<!-- Node3&#45;&gt;Node6 -->
<g id="edge6_Node000003_Node000006" class="edge">
<title>Node3&#45;&gt;Node6</title>
<g id="a_edge6_Node000003_Node000006"><a xlink:title=" ">
<path fill="none" stroke="#63b8ff" d="M416.04,-109.66C411.16,-92.09 400.15,-52.45 393.63,-28.95"/>
<polygon fill="#63b8ff" stroke="#63b8ff" points="396.95,-27.86 390.91,-19.16 390.21,-29.73 396.95,-27.86"/>
</a>
</g>
</g>
<!-- Node5&#45;&gt;Node6 -->
<g id="edge5_Node000005_Node000006" class="edge">
<title>Node5&#45;&gt;Node6</title>
<g id="a_edge5_Node000005_Node000006"><a xlink:title=" ">
<path fill="none" stroke="#63b8ff" d="M436.34,-54.98C428,-47.23 415.47,-35.58 405.32,-26.14"/>
<polygon fill="#63b8ff" stroke="#63b8ff" points="407.53,-23.42 397.82,-19.17 402.76,-28.54 407.53,-23.42"/>
</a>
</g>
</g>
<!-- Node12&#45;&gt;Node5 -->
<g id="edge10_Node000012_Node000005" class="edge">
<title>Node12&#45;&gt;Node5</title>
<g id="a_edge10_Node000012_Node000005"><a xlink:title=" ">
<path fill="none" stroke="#63b8ff" d="M132.55,-219.93C138.34,-197.74 157.01,-138.18 196.5,-110 229.53,-86.43 344.64,-73.7 406.1,-68.44"/>
<polygon fill="#63b8ff" stroke="#63b8ff" points="406.53,-71.92 416.21,-67.6 405.95,-64.94 406.53,-71.92"/>
</a>
</g>
</g>
<!-- Node13 -->
<g id="Node000013" class="node">
<title>Node13</title>
<g id="a_Node000013"><a xlink:href="DisplayInterface_8h.html" target="_top" xlink:title=" ">
<polygon fill="#fff0f0" stroke="red" points="344.5,-129 238.5,-129 238.5,-110 344.5,-110 344.5,-129"/>
<text text-anchor="middle" x="291.5" y="-117" font-family="Helvetica,sans-Serif" font-size="10.00">DisplayInterface.h</text>
</a>
</g>
</g>
<!-- Node12&#45;&gt;Node13 -->
<g id="edge8_Node000012_Node000013" class="edge">
<title>Node12&#45;&gt;Node13</title>
<g id="a_edge8_Node000012_Node000013"><a xlink:title=" ">
<path fill="none" stroke="#63b8ff" d="M143.4,-219.84C170.96,-201.36 235.81,-157.86 269.82,-135.05"/>
<polygon fill="#63b8ff" stroke="#63b8ff" points="272.18,-137.67 278.54,-129.2 268.28,-131.86 272.18,-137.67"/>
</a>
</g>
</g>
<!-- Node12&#45;&gt;Node16 -->
<g id="edge11_Node000012_Node000016" class="edge">
<title>Node12&#45;&gt;Node16</title>
<g id="a_edge11_Node000012_Node000016"><a xlink:title=" ">
<path fill="none" stroke="#63b8ff" d="M117.65,-219.98C105.36,-211.84 86.59,-199.41 72.02,-189.76"/>
<polygon fill="#63b8ff" stroke="#63b8ff" points="73.86,-186.78 63.59,-184.17 69.99,-192.61 73.86,-186.78"/>
</a>
</g>
</g>
<!-- Node13&#45;&gt;Node5 -->
<g id="edge9_Node000013_Node000005" class="edge">
<title>Node13&#45;&gt;Node5</title>
<g id="a_edge9_Node000013_Node000005"><a xlink:title=" ">
<path fill="none" stroke="#63b8ff" d="M316.24,-109.98C341.87,-101.16 382.13,-87.31 410.91,-77.41"/>
<polygon fill="#63b8ff" stroke="#63b8ff" points="412.25,-80.65 420.56,-74.08 409.97,-74.03 412.25,-80.65"/>
</a>
</g>
</g>
<!-- Node17&#45;&gt;Node3 -->
<g id="edge13_Node000017_Node000003" class="edge">
<title>Node17&#45;&gt;Node3</title>
<g id="a_edge13_Node000017_Node000003"><a xlink:title=" ">
<path fill="none" stroke="#63b8ff" d="M390.04,-219.66C395.08,-202.09 406.46,-162.45 413.2,-138.95"/>
<polygon fill="#63b8ff" stroke="#63b8ff" points="416.62,-139.74 416.01,-129.16 409.89,-137.8 416.62,-139.74"/>
</a>
</g>
</g>
<!-- Node17&#45;&gt;Node5 -->
<g id="edge22_Node000017_Node000005" class="edge">
<title>Node17&#45;&gt;Node5</title>
<g id="a_edge22_Node000017_Node000005"><a xlink:title=" ">
<path fill="none" stroke="#63b8ff" d="M433.68,-225.93C463.17,-221.61 499.34,-210.75 518.5,-184 544.24,-148.07 495.91,-102.97 466.23,-80.16"/>
<polygon fill="#63b8ff" stroke="#63b8ff" points="468.19,-77.26 458.08,-74.09 464.01,-82.87 468.19,-77.26"/>
</a>
</g>
</g>
<!-- Node17&#45;&gt;Node13 -->
<g id="edge16_Node000017_Node000013" class="edge">
<title>Node17&#45;&gt;Node13</title>
<g id="a_edge16_Node000017_Node000013"><a xlink:title=" ">
<path fill="none" stroke="#63b8ff" d="M379.64,-219.66C363.53,-201.54 326.53,-159.91 305.96,-136.77"/>
<polygon fill="#63b8ff" stroke="#63b8ff" points="308.46,-134.31 299.2,-129.16 303.22,-138.96 308.46,-134.31"/>
</a>
</g>
</g>
<!-- Node17&#45;&gt;Node18 -->
<g id="edge14_Node000017_Node000018" class="edge">
<title>Node17&#45;&gt;Node18</title>
<g id="a_edge14_Node000017_Node000018"><a xlink:title=" ">
<path fill="none" stroke="#63b8ff" d="M427.67,-219.98C473.96,-210.17 549.64,-194.13 596.35,-184.22"/>
<polygon fill="#63b8ff" stroke="#63b8ff" points="597.08,-187.65 606.14,-182.15 595.63,-180.8 597.08,-187.65"/>
</a>
</g>
</g>
<!-- Node19 -->
<g id="Node000019" class="node">
<title>Node19</title>
<g id="a_Node000019"><a xlink:href="InputInterface_8h.html" target="_top" xlink:title=" ">
<polygon fill="white" stroke="#666666" points="509.5,-184 415.5,-184 415.5,-165 509.5,-165 509.5,-184"/>
<text text-anchor="middle" x="462.5" y="-172" font-family="Helvetica,sans-Serif" font-size="10.00">InputInterface.h</text>
</a>
</g>
</g>
<!-- Node17&#45;&gt;Node19 -->
<g id="edge17_Node000017_Node000019" class="edge">
<title>Node17&#45;&gt;Node19</title>
<g id="a_edge17_Node000017_Node000019"><a xlink:title=" ">
<path fill="none" stroke="#63b8ff" d="M399.55,-219.98C410.96,-211.92 428.33,-199.65 441.93,-190.03"/>
<polygon fill="#63b8ff" stroke="#63b8ff" points="444.08,-192.8 450.23,-184.17 440.04,-187.08 444.08,-192.8"/>
</a>
</g>
</g>
<!-- Node18&#45;&gt;Node5 -->
<g id="edge15_Node000018_Node000005" class="edge">
<title>Node18&#45;&gt;Node5</title>
<g id="a_edge15_Node000018_Node000005"><a xlink:title=" ">
<path fill="none" stroke="#63b8ff" d="M633.61,-164.7C627.1,-150.98 612.67,-124.53 592.5,-110 560.52,-86.97 516.47,-75.7 484.95,-70.29"/>
<polygon fill="#63b8ff" stroke="#63b8ff" points="485.2,-66.78 474.77,-68.67 484.1,-73.7 485.2,-66.78"/>
</a>
</g>
</g>
<!-- Node19&#45;&gt;Node3 -->
<g id="edge18_Node000019_Node000003" class="edge">
<title>Node19&#45;&gt;Node3</title>
<g id="a_edge18_Node000019_Node000003"><a xlink:title=" ">
<path fill="none" stroke="#63b8ff" d="M455.23,-164.75C448.96,-157.18 439.71,-146.05 432.07,-136.84"/>
<polygon fill="#63b8ff" stroke="#63b8ff" points="434.71,-134.55 425.63,-129.09 429.33,-139.02 434.71,-134.55"/>
</a>
</g>
</g>
<!-- Node19&#45;&gt;Node4 -->
<g id="edge20_Node000019_Node000004" class="edge">
<title>Node19&#45;&gt;Node4</title>
<g id="a_edge20_Node000019_Node000004"><a xlink:title=" ">
<path fill="none" stroke="#63b8ff" d="M472.89,-164.66C494.49,-146.3 544.45,-103.81 571.43,-80.87"/>
<polygon fill="#63b8ff" stroke="#63b8ff" points="573.97,-83.3 579.32,-74.16 569.43,-77.97 573.97,-83.3"/>
</a>
</g>
</g>
<!-- Node19&#45;&gt;Node5 -->
<g id="edge21_Node000019_Node000005" class="edge">
<title>Node19&#45;&gt;Node5</title>
<g id="a_edge21_Node000019_Node000005"><a xlink:title=" ">
<path fill="none" stroke="#63b8ff" d="M469.15,-164.81C477.71,-152.52 490.65,-129.39 483.5,-110 479.44,-98.99 471.31,-88.86 463.6,-81.05"/>
<polygon fill="#63b8ff" stroke="#63b8ff" points="465.89,-78.39 456.21,-74.07 461.08,-83.48 465.89,-78.39"/>
</a>
</g>
</g>
<!-- Node19&#45;&gt;Node13 -->
<g id="edge19_Node000019_Node000013" class="edge">
<title>Node19&#45;&gt;Node13</title>
<g id="a_edge19_Node000019_Node000013"><a xlink:title=" ">
<path fill="none" stroke="#63b8ff" d="M435.03,-164.98C406.32,-156.09 361.08,-142.07 329.08,-132.15"/>
<polygon fill="#63b8ff" stroke="#63b8ff" points="329.78,-128.7 319.19,-129.08 327.7,-135.39 329.78,-128.7"/>
</a>
</g>
</g>
</g>
</svg>

<g id="navigator" transform="translate(0 0)" fill="#404254">
  <rect fill="#f2f5e9" fill-opacity="0.5" stroke="#606060" stroke-width=".5" x="0" y="0" width="60" height="60"/>
  <use id="zoomplus" xlink:href="#zoomPlus" x="17" y="9" onmousedown="handleZoom(evt,'in')"/>
  <use id="zoomminus" xlink:href="#zoomMin" x="42" y="9" onmousedown="handleZoom(evt,'out')"/>
  <use id="reset" xlink:href="#resetDef" x="30" y="36" onmousedown="handleReset()"/>
   <use id="arrowup" xlink:href="#arrowUp" x="0" y="0" onmousedown="handlePan(0,-1)"/>
  <use id="arrowright" xlink:href="#arrowRight" x="0" y="0" onmousedown="handlePan(1,0)"/>
  <use id="arrowdown" xlink:href="#arrowDown" x="0" y="0" onmousedown="handlePan(0,1)"/>
  <use id="arrowleft" xlink:href="#arrowLeft" x="0" y="0" onmousedown="handlePan(-1,0)"/>
</g>
<svg viewBox="0 0 15 15" width="100%" height="30px" preserveAspectRatio="xMaxYMin meet">
 <g id="arrow_out" transform="scale(0.3 0.3)">
  <a xlink:href="Configurator_8h__incl_org.svg" target="_base">
   <rect id="button" ry="5" rx="5" y="6" x="6" height="38" width="38"
        fill="#f2f5e9" fill-opacity="0.5" stroke="#606060" stroke-width="1.0"/>
   <path id="arrow"
     d="M 11.500037,31.436501 C 11.940474,20.09759 22.043105,11.32322 32.158766,21.979434 L 37.068811,17.246167 C 37.068811,17.246167 37.088388,32 37.088388,32 L 22.160133,31.978069 C 22.160133,31.978069 26.997745,27.140456 26.997745,27.140456 C 18.528582,18.264221 13.291696,25.230495 11.500037,31.436501 z"
     style="fill:#404040;"/>
  </a>
 </g>
</svg>

<style type='text/css'>
<![CDATA[
[data-mouse-over-selected='false'] { opacity: 0.7; }
[data-mouse-over-selected='true']  { opacity: 1.0; }
]]>
</style>
<script type="application/ecmascript"><![CDATA[
document.addEventListener('DOMContentLoaded', (event) => {
  highlightEdges();
  highlightAdjacentNodes();
});
]]></script>
</svg>
