<?xml version="1.0" encoding="UTF-8" standalone="no"?>
<!DOCTYPE svg PUBLIC "-//W3C//DTD SVG 1.1//EN"
 "http://www.w3.org/Graphics/SVG/1.1/DTD/svg11.dtd">
<!-- Generated by graphviz version 2.43.0 (0)
 -->
<!-- Title: /home/runner/work/EX&#45;Display/EX&#45;Display/Controller.cpp Pages: 1 -->
<!--zoomable 368 -->

<svg id="main" version="1.1" xmlns="http://www.w3.org/2000/svg" xmlns:xlink="http://www.w3.org/1999/xlink" xml:space="preserve" onload="init(evt)">
<style type="text/css"><![CDATA[
.node, .edge {opacity: 0.7;}
.node.selected, .edge.selected {opacity: 1;}
.edge:hover path { stroke: red; }
.edge:hover polygon { stroke: red; fill: red; }
]]></style>

<defs>
  <circle id="rim" cx="0" cy="0" r="7"/>
  <circle id="rim2" cx="0" cy="0" r="3.5"/>
  <g id="zoomPlus">
    <use xlink:href="#rim" fill="#404040"><set attributeName="fill" to="#808080" begin="zoomplus.mouseover" end="zoomplus.mouseout"/></use>
    <path d="M-4,0h8M0,-4v8" fill="none" stroke="white" stroke-width="1.5" pointer-events="none"/>
  </g>
  <g id="zoomMin">
    <use xlink:href="#rim" fill="#404040"><set attributeName="fill" to="#808080" begin="zoomminus.mouseover" end="zoomminus.mouseout"/></use>
    <path d="M-4,0h8" fill="none" stroke="white" stroke-width="1.5" pointer-events="none"/>
  </g>
  <g id="arrowUp" transform="translate(30 24)">
    <use xlink:href="#rim"/>
    <path pointer-events="none" fill="none" stroke="white" stroke-width="1.5" d="M0,-3.0v7 M-2.5,-0.5L0,-3.0L2.5,-0.5"/>
  </g>
  <g id="arrowRight" transform="rotate(90) translate(36 -43)">
    <use xlink:href="#rim"/>
    <path pointer-events="none" fill="none" stroke="white" stroke-width="1.5" d="M0,-3.0v7 M-2.5,-0.5L0,-3.0L2.5,-0.5"/>
  </g>
  <g id="arrowDown" transform="rotate(180) translate(-30 -48)">
    <use xlink:href="#rim"/>
    <path pointer-events="none" fill="none" stroke="white" stroke-width="1.5" d="M0,-3.0v7 M-2.5,-0.5L0,-3.0L2.5,-0.5"/>
  </g>
  <g id="arrowLeft" transform="rotate(270) translate(-36 17)">
    <use xlink:href="#rim"/>
    <path pointer-events="none" fill="none" stroke="white" stroke-width="1.5" d="M0,-3.0v7 M-2.5,-0.5L0,-3.0L2.5,-0.5"/>
  </g>
  <g id="resetDef">
    <use xlink:href="#rim2" fill="#404040"><set attributeName="fill" to="#808080" begin="reset.mouseover" end="reset.mouseout"/></use>
  </g>
</defs>
<script type="application/ecmascript">
var viewWidth = 713;
var viewHeight = 368;
var sectionId = 'dynsection-0';
</script>
<script type="application/ecmascript" xlink:href="svg.min.js"/>
<svg id="graph" class="graph">
<g id="viewport">
<title>/home/runner/work/EX&#45;Display/EX&#45;Display/Controller.cpp</title>
<!-- Node1 -->
<g id="Node000001" class="node">
<title>Node1</title>
<g id="a_Node000001"><a xlink:title=" ">
<polygon fill="#999999" stroke="#666666" points="599,-360 416,-360 416,-330 599,-330 599,-360"/>
<text text-anchor="start" x="424" y="-348" font-family="Helvetica,sans-Serif" font-size="10.00">/home/runner/work/EX</text>
<text text-anchor="middle" x="507.5" y="-337" font-family="Helvetica,sans-Serif" font-size="10.00">&#45;Display/EX&#45;Display/Controller.cpp</text>
</a>
</g>
</g>
<!-- Node2 -->
<g id="Node000002" class="node">
<title>Node2</title>
<g id="a_Node000002"><a xlink:href="Controller_8h.html" target="_top" xlink:title=" ">
<polygon fill="white" stroke="#666666" points="544,-294 471,-294 471,-275 544,-275 544,-294"/>
<text text-anchor="middle" x="507.5" y="-282" font-family="Helvetica,sans-Serif" font-size="10.00">Controller.h</text>
</a>
</g>
</g>
<!-- Node1&#45;&gt;Node2 -->
<g id="edge1_Node000001_Node000002" class="edge">
<title>Node1&#45;&gt;Node2</title>
<g id="a_edge1_Node000001_Node000002"><a xlink:title=" ">
<path fill="none" stroke="#63b8ff" d="M507.5,-329.84C507.5,-322.21 507.5,-312.7 507.5,-304.45"/>
<polygon fill="#63b8ff" stroke="#63b8ff" points="511,-304.27 507.5,-294.27 504,-304.27 511,-304.27"/>
</a>
</g>
</g>
<!-- Node20 -->
<g id="Node000020" class="node">
<title>Node20</title>
<g id="a_Node000020"><a xlink:href="AtFinder_8h.html" target="_top" xlink:title=" ">
<polygon fill="white" stroke="#666666" points="65,-184 0,-184 0,-165 65,-165 65,-184"/>
<text text-anchor="middle" x="32.5" y="-172" font-family="Helvetica,sans-Serif" font-size="10.00">AtFinder.h</text>
</a>
</g>
</g>
<!-- Node1&#45;&gt;Node20 -->
<g id="edge26_Node000001_Node000020" class="edge">
<title>Node1&#45;&gt;Node20</title>
<g id="a_edge26_Node000001_Node000020"><a xlink:title=" ">
<path fill="none" stroke="#63b8ff" d="M463.46,-329.99C402.65,-310.48 289.71,-273.61 194.5,-239 148.19,-222.17 95.12,-201 62.71,-187.86"/>
<polygon fill="#63b8ff" stroke="#63b8ff" points="63.93,-184.58 53.34,-184.06 61.29,-191.06 63.93,-184.58"/>
</a>
</g>
</g>
<!-- Node21 -->
<g id="Node000021" class="node">
<title>Node21</title>
<g id="a_Node000021"><a xlink:href="Version_8h.html" target="_top" xlink:title=" ">
<polygon fill="white" stroke="#666666" points="624.5,-294 562.5,-294 562.5,-275 624.5,-275 624.5,-294"/>
<text text-anchor="middle" x="593.5" y="-282" font-family="Helvetica,sans-Serif" font-size="10.00">Version.h</text>
</a>
</g>
</g>
<!-- Node1&#45;&gt;Node21 -->
<g id="edge30_Node000001_Node000021" class="edge">
<title>Node1&#45;&gt;Node21</title>
<g id="a_edge30_Node000001_Node000021"><a xlink:title=" ">
<path fill="none" stroke="#63b8ff" d="M528.32,-329.84C541.65,-320.77 558.89,-309.04 572.29,-299.92"/>
<polygon fill="#63b8ff" stroke="#63b8ff" points="574.57,-302.61 580.87,-294.09 570.63,-296.83 574.57,-302.61"/>
</a>
</g>
</g>
<!-- Node3 -->
<g id="Node000003" class="node">
<title>Node3</title>
<g id="a_Node000003"><a xlink:href="CallbackInterface_8h.html" target="_top" xlink:title=" ">
<polygon fill="white" stroke="#666666" points="162,-129 51,-129 51,-110 162,-110 162,-129"/>
<text text-anchor="middle" x="106.5" y="-117" font-family="Helvetica,sans-Serif" font-size="10.00">CallbackInterface.h</text>
</a>
</g>
</g>
<!-- Node2&#45;&gt;Node3 -->
<g id="edge2_Node000002_Node000003" class="edge">
<title>Node2&#45;&gt;Node3</title>
<g id="a_edge2_Node000002_Node000003"><a xlink:title=" ">
<path fill="none" stroke="#63b8ff" d="M470.97,-283.22C399.86,-280.78 241.32,-265.83 144.5,-184 130.11,-171.84 119.74,-152.78 113.5,-138.71"/>
<polygon fill="#63b8ff" stroke="#63b8ff" points="116.6,-137.03 109.54,-129.12 110.13,-139.7 116.6,-137.03"/>
</a>
</g>
</g>
<!-- Node5 -->
<g id="Node000005" class="node">
<title>Node5</title>
<g id="a_Node000005"><a xlink:href="Logger_8h.html" target="_top" xlink:title=" ">
<polygon fill="white" stroke="#666666" points="316.5,-74 258.5,-74 258.5,-55 316.5,-55 316.5,-74"/>
<text text-anchor="middle" x="287.5" y="-62" font-family="Helvetica,sans-Serif" font-size="10.00">Logger.h</text>
</a>
</g>
</g>
<!-- Node2&#45;&gt;Node5 -->
<g id="edge23_Node000002_Node000005" class="edge">
<title>Node2&#45;&gt;Node5</title>
<g id="a_edge23_Node000002_Node000005"><a xlink:title=" ">
<path fill="none" stroke="#63b8ff" d="M534.44,-274.89C584.39,-257.48 683.19,-215.42 647.5,-165 610.1,-112.16 412.04,-81.22 326.69,-70.16"/>
<polygon fill="#63b8ff" stroke="#63b8ff" points="326.98,-66.67 316.61,-68.88 326.09,-73.61 326.98,-66.67"/>
</a>
</g>
</g>
<!-- Node6 -->
<g id="Node000006" class="node">
<title>Node6</title>
<g id="a_Node000006"><a xlink:href="Arduino_8h.html" target="_top" xlink:title=" ">
<polygon fill="#fff0f0" stroke="red" points="231,-19 168,-19 168,0 231,0 231,-19"/>
<text text-anchor="middle" x="199.5" y="-7" font-family="Helvetica,sans-Serif" font-size="10.00">Arduino.h</text>
</a>
</g>
</g>
<!-- Node2&#45;&gt;Node6 -->
<g id="edge25_Node000002_Node000006" class="edge">
<title>Node2&#45;&gt;Node6</title>
<g id="a_edge25_Node000002_Node000006"><a xlink:title=" ">
<path fill="none" stroke="#63b8ff" d="M544.1,-275.65C571.46,-268.73 609.06,-256.92 638.5,-239 673.27,-217.84 704.5,-216.21 704.5,-175.5 704.5,-175.5 704.5,-175.5 704.5,-118.5 704.5,-24.07 362.6,-11.92 241.44,-10.58"/>
<polygon fill="#63b8ff" stroke="#63b8ff" points="241.12,-7.07 231.09,-10.48 241.06,-14.07 241.12,-7.07"/>
</a>
</g>
</g>
<!-- Node12 -->
<g id="Node000012" class="node">
<title>Node12</title>
<g id="a_Node000012"><a xlink:href="DisplayManager_8h.html" target="_top" xlink:title=" ">
<polygon fill="white" stroke="#666666" points="559.5,-239 455.5,-239 455.5,-220 559.5,-220 559.5,-239"/>
<text text-anchor="middle" x="507.5" y="-227" font-family="Helvetica,sans-Serif" font-size="10.00">DisplayManager.h</text>
</a>
</g>
</g>
<!-- Node2&#45;&gt;Node12 -->
<g id="edge7_Node000002_Node000012" class="edge">
<title>Node2&#45;&gt;Node12</title>
<g id="a_edge7_Node000002_Node000012"><a xlink:title=" ">
<path fill="none" stroke="#63b8ff" d="M507.5,-274.75C507.5,-267.8 507.5,-257.85 507.5,-249.13"/>
<polygon fill="#63b8ff" stroke="#63b8ff" points="511,-249.09 507.5,-239.09 504,-249.09 511,-249.09"/>
</a>
</g>
</g>
<!-- Node16 -->
<g id="Node000016" class="node">
<title>Node16</title>
<g id="a_Node000016"><a xlink:href="ScreenManager_8h.html" target="_top" xlink:title=" ">
<polygon fill="#fff0f0" stroke="red" points="638,-184 537,-184 537,-165 638,-165 638,-184"/>
<text text-anchor="middle" x="587.5" y="-172" font-family="Helvetica,sans-Serif" font-size="10.00">ScreenManager.h</text>
</a>
</g>
</g>
<!-- Node2&#45;&gt;Node16 -->
<g id="edge24_Node000002_Node000016" class="edge">
<title>Node2&#45;&gt;Node16</title>
<g id="a_edge24_Node000002_Node000016"><a xlink:title=" ">
<path fill="none" stroke="#63b8ff" d="M524.93,-274.88C538.66,-267.24 557.3,-254.84 568.5,-239 577.95,-225.64 582.76,-207.53 585.18,-194.07"/>
<polygon fill="#63b8ff" stroke="#63b8ff" points="588.65,-194.47 586.69,-184.06 581.73,-193.43 588.65,-194.47"/>
</a>
</g>
</g>
<!-- Node17 -->
<g id="Node000017" class="node">
<title>Node17</title>
<g id="a_Node000017"><a xlink:href="InputManager_8h.html" target="_top" xlink:title=" ">
<polygon fill="white" stroke="#666666" points="386.5,-239 294.5,-239 294.5,-220 386.5,-220 386.5,-239"/>
<text text-anchor="middle" x="340.5" y="-227" font-family="Helvetica,sans-Serif" font-size="10.00">InputManager.h</text>
</a>
</g>
</g>
<!-- Node2&#45;&gt;Node17 -->
<g id="edge12_Node000002_Node000017" class="edge">
<title>Node2&#45;&gt;Node17</title>
<g id="a_edge12_Node000002_Node000017"><a xlink:title=" ">
<path fill="none" stroke="#63b8ff" d="M480.67,-274.98C452.63,-266.09 408.45,-252.07 377.2,-242.15"/>
<polygon fill="#63b8ff" stroke="#63b8ff" points="378.13,-238.77 367.54,-239.08 376.01,-245.44 378.13,-238.77"/>
</a>
</g>
</g>
<!-- Node4 -->
<g id="Node000004" class="node">
<title>Node4</title>
<g id="a_Node000004"><a xlink:href="InputActions_8h.html" target="_top" xlink:title=" ">
<polygon fill="white" stroke="#666666" points="229.5,-74 143.5,-74 143.5,-55 229.5,-55 229.5,-74"/>
<text text-anchor="middle" x="186.5" y="-62" font-family="Helvetica,sans-Serif" font-size="10.00">InputActions.h</text>
</a>
</g>
</g>
<!-- Node3&#45;&gt;Node4 -->
<g id="edge3_Node000003_Node000004" class="edge">
<title>Node3&#45;&gt;Node4</title>
<g id="a_edge3_Node000003_Node000004"><a xlink:title=" ">
<path fill="none" stroke="#63b8ff" d="M119.35,-109.98C131.64,-101.84 150.41,-89.41 164.98,-79.76"/>
<polygon fill="#63b8ff" stroke="#63b8ff" points="167.01,-82.61 173.41,-74.17 163.14,-76.78 167.01,-82.61"/>
</a>
</g>
</g>
<!-- Node3&#45;&gt;Node5 -->
<g id="edge4_Node000003_Node000005" class="edge">
<title>Node3&#45;&gt;Node5</title>
<g id="a_edge4_Node000003_Node000005"><a xlink:title=" ">
<path fill="none" stroke="#63b8ff" d="M135.58,-109.98C166.19,-101.02 214.55,-86.86 248.47,-76.93"/>
<polygon fill="#63b8ff" stroke="#63b8ff" points="249.88,-80.16 258.49,-73.99 247.91,-73.45 249.88,-80.16"/>
</a>
</g>
</g>
<!-- Node3&#45;&gt;Node6 -->
<g id="edge6_Node000003_Node000006" class="edge">
<title>Node3&#45;&gt;Node6</title>
<g id="a_edge6_Node000003_Node000006"><a xlink:title=" ">
<path fill="none" stroke="#63b8ff" d="M108.66,-109.88C112.25,-96.85 120.49,-71.87 134.5,-55 144.97,-42.38 159.89,-31.82 172.8,-24.16"/>
<polygon fill="#63b8ff" stroke="#63b8ff" points="174.76,-27.07 181.75,-19.11 171.32,-20.98 174.76,-27.07"/>
</a>
</g>
</g>
<!-- Node5&#45;&gt;Node6 -->
<g id="edge5_Node000005_Node000006" class="edge">
<title>Node5&#45;&gt;Node6</title>
<g id="a_edge5_Node000005_Node000006"><a xlink:title=" ">
<path fill="none" stroke="#63b8ff" d="M273.36,-54.98C259.71,-46.77 238.81,-34.18 222.72,-24.49"/>
<polygon fill="#63b8ff" stroke="#63b8ff" points="224.27,-21.33 213.9,-19.17 220.66,-27.33 224.27,-21.33"/>
</a>
</g>
</g>
<!-- Node12&#45;&gt;Node5 -->
<g id="edge10_Node000012_Node000005" class="edge">
<title>Node12&#45;&gt;Node5</title>
<g id="a_edge10_Node000012_Node000005"><a xlink:title=" ">
<path fill="none" stroke="#63b8ff" d="M507.43,-219.86C506.78,-198.02 501.9,-140.19 469.5,-110 449.04,-90.93 373.92,-77.4 326.82,-70.57"/>
<polygon fill="#63b8ff" stroke="#63b8ff" points="327.04,-67.07 316.65,-69.14 326.07,-74 327.04,-67.07"/>
</a>
</g>
</g>
<!-- Node13 -->
<g id="Node000013" class="node">
<title>Node13</title>
<g id="a_Node000013"><a xlink:href="DisplayInterface_8h.html" target="_top" xlink:title=" ">
<polygon fill="#fff0f0" stroke="red" points="442.5,-129 336.5,-129 336.5,-110 442.5,-110 442.5,-129"/>
<text text-anchor="middle" x="389.5" y="-117" font-family="Helvetica,sans-Serif" font-size="10.00">DisplayInterface.h</text>
</a>
</g>
</g>
<!-- Node12&#45;&gt;Node13 -->
<g id="edge8_Node000012_Node000013" class="edge">
<title>Node12&#45;&gt;Node13</title>
<g id="a_edge8_Node000012_Node000013"><a xlink:title=" ">
<path fill="none" stroke="#63b8ff" d="M497.84,-219.66C477.86,-201.38 431.76,-159.18 406.62,-136.17"/>
<polygon fill="#63b8ff" stroke="#63b8ff" points="408.7,-133.33 398.96,-129.16 403.97,-138.49 408.7,-133.33"/>
</a>
</g>
</g>
<!-- Node12&#45;&gt;Node16 -->
<g id="edge11_Node000012_Node000016" class="edge">
<title>Node12&#45;&gt;Node16</title>
<g id="a_edge11_Node000012_Node000016"><a xlink:title=" ">
<path fill="none" stroke="#63b8ff" d="M520.35,-219.98C532.64,-211.84 551.41,-199.41 565.98,-189.76"/>
<polygon fill="#63b8ff" stroke="#63b8ff" points="568.01,-192.61 574.41,-184.17 564.14,-186.78 568.01,-192.61"/>
</a>
</g>
</g>
<!-- Node13&#45;&gt;Node5 -->
<g id="edge9_Node000013_Node000005" class="edge">
<title>Node13&#45;&gt;Node5</title>
<g id="a_edge9_Node000013_Node000005"><a xlink:title=" ">
<path fill="none" stroke="#63b8ff" d="M373.11,-109.98C356.93,-101.57 331.93,-88.59 313.12,-78.81"/>
<polygon fill="#63b8ff" stroke="#63b8ff" points="314.67,-75.68 304.19,-74.17 311.45,-81.89 314.67,-75.68"/>
</a>
</g>
</g>
<!-- Node17&#45;&gt;Node3 -->
<g id="edge13_Node000017_Node000003" class="edge">
<title>Node17&#45;&gt;Node3</title>
<g id="a_edge13_Node000017_Node000003"><a xlink:title=" ">
<path fill="none" stroke="#63b8ff" d="M294.28,-222.7C259.13,-216.8 210.5,-205.38 172.5,-184 151.38,-172.12 132.02,-151.88 119.81,-137.45"/>
<polygon fill="#63b8ff" stroke="#63b8ff" points="122.21,-134.86 113.17,-129.34 116.8,-139.3 122.21,-134.86"/>
</a>
</g>
</g>
<!-- Node17&#45;&gt;Node5 -->
<g id="edge22_Node000017_Node000005" class="edge">
<title>Node17&#45;&gt;Node5</title>
<g id="a_edge22_Node000017_Node000005"><a xlink:title=" ">
<path fill="none" stroke="#63b8ff" d="M359.93,-219.98C400.03,-201.21 485.49,-154.45 451.5,-110 436.4,-90.26 370.13,-77.23 326.59,-70.62"/>
<polygon fill="#63b8ff" stroke="#63b8ff" points="327,-67.15 316.6,-69.16 325.99,-74.07 327,-67.15"/>
</a>
</g>
</g>
<!-- Node17&#45;&gt;Node13 -->
<g id="edge16_Node000017_Node000013" class="edge">
<title>Node17&#45;&gt;Node13</title>
<g id="a_edge16_Node000017_Node000013"><a xlink:title=" ">
<path fill="none" stroke="#63b8ff" d="M344.51,-219.66C352.55,-201.93 370.8,-161.73 381.42,-138.32"/>
<polygon fill="#63b8ff" stroke="#63b8ff" points="384.63,-139.71 385.57,-129.16 378.25,-136.82 384.63,-139.71"/>
</a>
</g>
</g>
<!-- Node18 -->
<g id="Node000018" class="node">
<title>Node18</title>
<g id="a_Node000018"><a xlink:href="Defines_8h.html" target="_top" xlink:title=" ">
<polygon fill="white" stroke="#666666" points="318.5,-129 256.5,-129 256.5,-110 318.5,-110 318.5,-129"/>
<text text-anchor="middle" x="287.5" y="-117" font-family="Helvetica,sans-Serif" font-size="10.00">Defines.h</text>
</a>
</g>
</g>
<!-- Node17&#45;&gt;Node18 -->
<g id="edge14_Node000017_Node000018" class="edge">
<title>Node17&#45;&gt;Node18</title>
<g id="a_edge14_Node000017_Node000018"><a xlink:title=" ">
<path fill="none" stroke="#63b8ff" d="M336.16,-219.66C327.46,-201.93 307.73,-161.73 296.24,-138.32"/>
<polygon fill="#63b8ff" stroke="#63b8ff" points="299.3,-136.59 291.75,-129.16 293.01,-139.68 299.3,-136.59"/>
</a>
</g>
</g>
<!-- Node19 -->
<g id="Node000019" class="node">
<title>Node19</title>
<g id="a_Node000019"><a xlink:href="InputInterface_8h.html" target="_top" xlink:title=" ">
<polygon fill="white" stroke="#666666" points="275.5,-184 181.5,-184 181.5,-165 275.5,-165 275.5,-184"/>
<text text-anchor="middle" x="228.5" y="-172" font-family="Helvetica,sans-Serif" font-size="10.00">InputInterface.h</text>
</a>
</g>
</g>
<!-- Node17&#45;&gt;Node19 -->
<g id="edge17_Node000017_Node000019" class="edge">
<title>Node17&#45;&gt;Node19</title>
<g id="a_edge17_Node000017_Node000019"><a xlink:title=" ">
<path fill="none" stroke="#63b8ff" d="M322.51,-219.98C304.57,-211.5 276.78,-198.35 256.07,-188.54"/>
<polygon fill="#63b8ff" stroke="#63b8ff" points="257.36,-185.28 246.82,-184.17 254.36,-191.61 257.36,-185.28"/>
</a>
</g>
</g>
<!-- Node18&#45;&gt;Node5 -->
<g id="edge15_Node000018_Node000005" class="edge">
<title>Node18&#45;&gt;Node5</title>
<g id="a_edge15_Node000018_Node000005"><a xlink:title=" ">
<path fill="none" stroke="#63b8ff" d="M287.5,-109.75C287.5,-102.8 287.5,-92.85 287.5,-84.13"/>
<polygon fill="#63b8ff" stroke="#63b8ff" points="291,-84.09 287.5,-74.09 284,-84.09 291,-84.09"/>
</a>
</g>
</g>
<!-- Node19&#45;&gt;Node3 -->
<g id="edge18_Node000019_Node000003" class="edge">
<title>Node19&#45;&gt;Node3</title>
<g id="a_edge18_Node000019_Node000003"><a xlink:title=" ">
<path fill="none" stroke="#63b8ff" d="M208.9,-164.98C189.18,-156.42 158.55,-143.11 135.92,-133.28"/>
<polygon fill="#63b8ff" stroke="#63b8ff" points="137.02,-129.94 126.46,-129.17 134.24,-136.37 137.02,-129.94"/>
</a>
</g>
</g>
<!-- Node19&#45;&gt;Node4 -->
<g id="edge20_Node000019_Node000004" class="edge">
<title>Node19&#45;&gt;Node4</title>
<g id="a_edge20_Node000019_Node000004"><a xlink:title=" ">
<path fill="none" stroke="#63b8ff" d="M225.06,-164.66C218.2,-147.01 202.67,-107.09 193.55,-83.64"/>
<polygon fill="#63b8ff" stroke="#63b8ff" points="196.75,-82.21 189.87,-74.16 190.23,-84.75 196.75,-82.21"/>
</a>
</g>
</g>
<!-- Node19&#45;&gt;Node5 -->
<g id="edge21_Node000019_Node000005" class="edge">
<title>Node19&#45;&gt;Node5</title>
<g id="a_edge21_Node000019_Node000005"><a xlink:title=" ">
<path fill="none" stroke="#63b8ff" d="M229.85,-164.81C232.09,-152.12 237.36,-128.06 247.5,-110 253.45,-99.4 262.32,-89.2 270.19,-81.24"/>
<polygon fill="#63b8ff" stroke="#63b8ff" points="272.82,-83.56 277.59,-74.1 267.96,-78.52 272.82,-83.56"/>
</a>
</g>
</g>
<!-- Node19&#45;&gt;Node13 -->
<g id="edge19_Node000019_Node000013" class="edge">
<title>Node19&#45;&gt;Node13</title>
<g id="a_edge19_Node000019_Node000013"><a xlink:title=" ">
<path fill="none" stroke="#63b8ff" d="M254.37,-164.98C281.28,-156.13 323.62,-142.19 353.73,-132.28"/>
<polygon fill="#63b8ff" stroke="#63b8ff" points="355.03,-135.53 363.43,-129.08 352.84,-128.88 355.03,-135.53"/>
</a>
</g>
</g>
<!-- Node20&#45;&gt;Node3 -->
<g id="edge27_Node000020_Node000003" class="edge">
<title>Node20&#45;&gt;Node3</title>
<g id="a_edge27_Node000020_Node000003"><a xlink:title=" ">
<path fill="none" stroke="#63b8ff" d="M44.39,-164.98C55.65,-156.92 72.79,-144.65 86.21,-135.03"/>
<polygon fill="#63b8ff" stroke="#63b8ff" points="88.3,-137.84 94.39,-129.17 84.23,-132.15 88.3,-137.84"/>
</a>
</g>
</g>
<!-- Node20&#45;&gt;Node5 -->
<g id="edge28_Node000020_Node000005" class="edge">
<title>Node20&#45;&gt;Node5</title>
<g id="a_edge28_Node000020_Node000005"><a xlink:title=" ">
<path fill="none" stroke="#63b8ff" d="M30.86,-164.76C28.86,-151.11 27.29,-124.76 41.5,-110 43.29,-108.14 178.94,-84.35 248.01,-72.34"/>
<polygon fill="#63b8ff" stroke="#63b8ff" points="248.84,-75.75 258.09,-70.59 247.64,-68.85 248.84,-75.75"/>
</a>
</g>
</g>
<!-- Node20&#45;&gt;Node6 -->
<g id="edge29_Node000020_Node000006" class="edge">
<title>Node20&#45;&gt;Node6</title>
<g id="a_edge29_Node000020_Node000006"><a xlink:title=" ">
<path fill="none" stroke="#63b8ff" d="M29.07,-164.61C24.68,-151.68 18.73,-127.32 28.5,-110 55.78,-61.63 116.8,-34.67 158.07,-21.37"/>
<polygon fill="#63b8ff" stroke="#63b8ff" points="159.32,-24.65 167.84,-18.36 157.26,-17.96 159.32,-24.65"/>
</a>
</g>
</g>
</g>
</svg>

<g id="navigator" transform="translate(0 0)" fill="#404254">
  <rect fill="#f2f5e9" fill-opacity="0.5" stroke="#606060" stroke-width=".5" x="0" y="0" width="60" height="60"/>
  <use id="zoomplus" xlink:href="#zoomPlus" x="17" y="9" onmousedown="handleZoom(evt,'in')"/>
  <use id="zoomminus" xlink:href="#zoomMin" x="42" y="9" onmousedown="handleZoom(evt,'out')"/>
  <use id="reset" xlink:href="#resetDef" x="30" y="36" onmousedown="handleReset()"/>
   <use id="arrowup" xlink:href="#arrowUp" x="0" y="0" onmousedown="handlePan(0,-1)"/>
  <use id="arrowright" xlink:href="#arrowRight" x="0" y="0" onmousedown="handlePan(1,0)"/>
  <use id="arrowdown" xlink:href="#arrowDown" x="0" y="0" onmousedown="handlePan(0,1)"/>
  <use id="arrowleft" xlink:href="#arrowLeft" x="0" y="0" onmousedown="handlePan(-1,0)"/>
</g>
<svg viewBox="0 0 15 15" width="100%" height="30px" preserveAspectRatio="xMaxYMin meet">
 <g id="arrow_out" transform="scale(0.3 0.3)">
  <a xlink:href="Controller_8cpp__incl_org.svg" target="_base">
   <rect id="button" ry="5" rx="5" y="6" x="6" height="38" width="38"
        fill="#f2f5e9" fill-opacity="0.5" stroke="#606060" stroke-width="1.0"/>
   <path id="arrow"
     d="M 11.500037,31.436501 C 11.940474,20.09759 22.043105,11.32322 32.158766,21.979434 L 37.068811,17.246167 C 37.068811,17.246167 37.088388,32 37.088388,32 L 22.160133,31.978069 C 22.160133,31.978069 26.997745,27.140456 26.997745,27.140456 C 18.528582,18.264221 13.291696,25.230495 11.500037,31.436501 z"
     style="fill:#404040;"/>
  </a>
 </g>
</svg>

<style type='text/css'>
<![CDATA[
[data-mouse-over-selected='false'] { opacity: 0.7; }
[data-mouse-over-selected='true']  { opacity: 1.0; }
]]>
</style>
<script type="application/ecmascript"><![CDATA[
document.addEventListener('DOMContentLoaded', (event) => {
  highlightEdges();
  highlightAdjacentNodes();
});
]]></script>
</svg>
