<?xml version="1.0" encoding="UTF-8" standalone="no"?>
<!DOCTYPE svg PUBLIC "-//W3C//DTD SVG 1.1//EN"
 "http://www.w3.org/Graphics/SVG/1.1/DTD/svg11.dtd">
<!-- Generated by graphviz version 2.43.0 (0)
 -->
<!-- Title: /home/runner/work/EX&#45;Display/EX&#45;Display/Controller.h Pages: 1 -->
<svg width="620pt" height="319pt"
 viewBox="0.00 0.00 619.50 319.00" xmlns="http://www.w3.org/2000/svg" xmlns:xlink="http://www.w3.org/1999/xlink">
<g id="graph0" class="graph" transform="scale(1 1) rotate(0) translate(4 315)">
<title>/home/runner/work/EX&#45;Display/EX&#45;Display/Controller.h</title>
<polygon fill="white" stroke="transparent" points="-4,4 -4,-315 615.5,-315 615.5,4 -4,4"/>
<!-- Node1 -->
<g id="node1" class="node">
<title>Node1</title>
<g id="a_node1"><a xlink:title=" ">
<polygon fill="#bfbfbf" stroke="black" points="349.5,-280.5 349.5,-310.5 521.5,-310.5 521.5,-280.5 349.5,-280.5"/>
<text text-anchor="start" x="357.5" y="-298.5" font-family="Helvetica,sans-Serif" font-size="10.00">/home/runner/work/EX</text>
<text text-anchor="middle" x="435.5" y="-287.5" font-family="Helvetica,sans-Serif" font-size="10.00">&#45;Display/EX&#45;Display/Controller.h</text>
</a>
</g>
</g>
<!-- Node2 -->
<g id="node2" class="node">
<title>Node2</title>
<g id="a_node2"><a xlink:href="CallbackInterface_8h.html" target="_top" xlink:title=" ">
<polygon fill="white" stroke="black" points="472,-112.5 472,-131.5 583,-131.5 583,-112.5 472,-112.5"/>
<text text-anchor="middle" x="527.5" y="-119.5" font-family="Helvetica,sans-Serif" font-size="10.00">CallbackInterface.h</text>
</a>
</g>
</g>
<!-- Node1&#45;&gt;Node2 -->
<g id="edge1" class="edge">
<title>Node1&#45;&gt;Node2</title>
<path fill="none" stroke="midnightblue" d="M456.66,-280.4C468.76,-271.32 483.32,-258.53 492.5,-244 513.07,-211.46 521.9,-166.46 525.41,-141.52"/>
<polygon fill="midnightblue" stroke="midnightblue" points="528.88,-141.95 526.67,-131.59 521.94,-141.07 528.88,-141.95"/>
</g>
<!-- Node4 -->
<g id="node4" class="node">
<title>Node4</title>
<g id="a_node4"><a xlink:href="Logger_8h.html" target="_top" xlink:title=" ">
<polygon fill="white" stroke="black" points="313.5,-56.5 313.5,-75.5 371.5,-75.5 371.5,-56.5 313.5,-56.5"/>
<text text-anchor="middle" x="342.5" y="-63.5" font-family="Helvetica,sans-Serif" font-size="10.00">Logger.h</text>
</a>
</g>
</g>
<!-- Node1&#45;&gt;Node4 -->
<g id="edge25" class="edge">
<title>Node1&#45;&gt;Node4</title>
<path fill="none" stroke="midnightblue" d="M443.58,-280.17C456.07,-255.99 476.9,-206.01 459.5,-168 440.93,-127.45 397.16,-96.98 368.73,-80.59"/>
<polygon fill="midnightblue" stroke="midnightblue" points="370.18,-77.39 359.74,-75.58 366.77,-83.51 370.18,-77.39"/>
</g>
<!-- Node5 -->
<g id="node5" class="node">
<title>Node5</title>
<g id="a_node5"><a xlink:href="Arduino_8h.html" target="_top" xlink:title=" ">
<polygon fill="white" stroke="red" points="410,-0.5 410,-19.5 473,-19.5 473,-0.5 410,-0.5"/>
<text text-anchor="middle" x="441.5" y="-7.5" font-family="Helvetica,sans-Serif" font-size="10.00">Arduino.h</text>
</a>
</g>
</g>
<!-- Node1&#45;&gt;Node5 -->
<g id="edge27" class="edge">
<title>Node1&#45;&gt;Node5</title>
<path fill="none" stroke="midnightblue" d="M498.54,-280.46C549.04,-265.05 611.5,-234.74 611.5,-179 611.5,-179 611.5,-179 611.5,-121 611.5,-59.99 533.38,-31.15 483.05,-18.9"/>
<polygon fill="midnightblue" stroke="midnightblue" points="483.61,-15.43 473.08,-16.6 482.03,-22.25 483.61,-15.43"/>
</g>
<!-- Node11 -->
<g id="node6" class="node">
<title>Node11</title>
<g id="a_node6"><a xlink:href="DisplayManager_8h.html" target="_top" xlink:title=" ">
<polygon fill="white" stroke="black" points="78.5,-168.5 78.5,-187.5 182.5,-187.5 182.5,-168.5 78.5,-168.5"/>
<text text-anchor="middle" x="130.5" y="-175.5" font-family="Helvetica,sans-Serif" font-size="10.00">DisplayManager.h</text>
</a>
</g>
</g>
<!-- Node1&#45;&gt;Node11 -->
<g id="edge6" class="edge">
<title>Node1&#45;&gt;Node11</title>
<path fill="none" stroke="midnightblue" d="M395.56,-280.44C367.49,-270.48 329.1,-256.68 295.5,-244 248.38,-226.22 194.11,-204.63 161.06,-191.35"/>
<polygon fill="midnightblue" stroke="midnightblue" points="162.11,-187.99 151.52,-187.51 159.49,-194.49 162.11,-187.99"/>
</g>
<!-- Node15 -->
<g id="node9" class="node">
<title>Node15</title>
<g id="a_node9"><a xlink:href="ScreenManager_8h.html" target="_top" xlink:title=" ">
<polygon fill="white" stroke="black" points="0,-112.5 0,-131.5 101,-131.5 101,-112.5 0,-112.5"/>
<text text-anchor="middle" x="50.5" y="-119.5" font-family="Helvetica,sans-Serif" font-size="10.00">ScreenManager.h</text>
</a>
</g>
</g>
<!-- Node1&#45;&gt;Node15 -->
<g id="edge26" class="edge">
<title>Node1&#45;&gt;Node15</title>
<path fill="none" stroke="midnightblue" d="M349.24,-292.75C266.21,-286.32 142.76,-263.52 69.5,-188 57.61,-175.75 53.1,-156.49 51.42,-142.11"/>
<polygon fill="midnightblue" stroke="midnightblue" points="54.88,-141.53 50.59,-131.85 47.91,-142.1 54.88,-141.53"/>
</g>
<!-- Node16 -->
<g id="node10" class="node">
<title>Node16</title>
<g id="a_node10"><a xlink:href="InputManager_8h.html" target="_top" xlink:title=" ">
<polygon fill="white" stroke="black" points="304.5,-224.5 304.5,-243.5 396.5,-243.5 396.5,-224.5 304.5,-224.5"/>
<text text-anchor="middle" x="350.5" y="-231.5" font-family="Helvetica,sans-Serif" font-size="10.00">InputManager.h</text>
</a>
</g>
</g>
<!-- Node1&#45;&gt;Node16 -->
<g id="edge14" class="edge">
<title>Node1&#45;&gt;Node16</title>
<path fill="none" stroke="midnightblue" d="M415.36,-280.4C402.11,-271.13 384.82,-259.03 371.42,-249.65"/>
<polygon fill="midnightblue" stroke="midnightblue" points="373.07,-246.53 362.87,-243.66 369.05,-252.26 373.07,-246.53"/>
</g>
<!-- Node3 -->
<g id="node3" class="node">
<title>Node3</title>
<g id="a_node3"><a xlink:href="InputActions_8h.html" target="_top" xlink:title=" ">
<polygon fill="white" stroke="black" points="403.5,-56.5 403.5,-75.5 489.5,-75.5 489.5,-56.5 403.5,-56.5"/>
<text text-anchor="middle" x="446.5" y="-63.5" font-family="Helvetica,sans-Serif" font-size="10.00">InputActions.h</text>
</a>
</g>
</g>
<!-- Node2&#45;&gt;Node3 -->
<g id="edge2" class="edge">
<title>Node2&#45;&gt;Node3</title>
<path fill="none" stroke="midnightblue" d="M514.49,-112.32C501.97,-103.98 482.82,-91.21 468.03,-81.35"/>
<polygon fill="midnightblue" stroke="midnightblue" points="469.74,-78.29 459.48,-75.65 465.86,-84.11 469.74,-78.29"/>
</g>
<!-- Node2&#45;&gt;Node4 -->
<g id="edge3" class="edge">
<title>Node2&#45;&gt;Node4</title>
<path fill="none" stroke="midnightblue" d="M498.19,-112.44C466.66,-103.24 416.37,-88.56 381.51,-78.39"/>
<polygon fill="midnightblue" stroke="midnightblue" points="382.26,-74.96 371.68,-75.52 380.3,-81.68 382.26,-74.96"/>
</g>
<!-- Node2&#45;&gt;Node5 -->
<g id="edge5" class="edge">
<title>Node2&#45;&gt;Node5</title>
<path fill="none" stroke="midnightblue" d="M525.09,-112.3C521.14,-99.12 512.31,-73.75 498.5,-56 489.22,-44.06 476.12,-33.43 464.82,-25.51"/>
<polygon fill="midnightblue" stroke="midnightblue" points="466.51,-22.42 456.25,-19.76 462.61,-28.24 466.51,-22.42"/>
</g>
<!-- Node4&#45;&gt;Node5 -->
<g id="edge4" class="edge">
<title>Node4&#45;&gt;Node5</title>
<path fill="none" stroke="midnightblue" d="M358.41,-56.32C374.14,-47.74 398.44,-34.49 416.71,-24.52"/>
<polygon fill="midnightblue" stroke="midnightblue" points="418.53,-27.52 425.63,-19.65 415.18,-21.37 418.53,-27.52"/>
</g>
<!-- Node11&#45;&gt;Node4 -->
<g id="edge11" class="edge">
<title>Node11&#45;&gt;Node4</title>
<path fill="none" stroke="midnightblue" d="M130.27,-168.46C130.4,-154.56 132.78,-127.07 148.5,-112 170.34,-91.06 253.02,-77.72 303.13,-71.37"/>
<polygon fill="midnightblue" stroke="midnightblue" points="303.79,-74.82 313.29,-70.12 302.94,-67.87 303.79,-74.82"/>
</g>
<!-- Node12 -->
<g id="node7" class="node">
<title>Node12</title>
<g id="a_node7"><a xlink:href="DisplayInterface_8h.html" target="_top" xlink:title=" ">
<polygon fill="white" stroke="black" points="157.5,-112.5 157.5,-131.5 263.5,-131.5 263.5,-112.5 157.5,-112.5"/>
<text text-anchor="middle" x="210.5" y="-119.5" font-family="Helvetica,sans-Serif" font-size="10.00">DisplayInterface.h</text>
</a>
</g>
</g>
<!-- Node11&#45;&gt;Node12 -->
<g id="edge7" class="edge">
<title>Node11&#45;&gt;Node12</title>
<path fill="none" stroke="midnightblue" d="M143.35,-168.32C155.72,-159.98 174.63,-147.21 189.24,-137.35"/>
<polygon fill="midnightblue" stroke="midnightblue" points="191.35,-140.15 197.68,-131.65 187.43,-134.35 191.35,-140.15"/>
</g>
<!-- Node11&#45;&gt;Node15 -->
<g id="edge12" class="edge">
<title>Node11&#45;&gt;Node15</title>
<path fill="none" stroke="midnightblue" d="M117.65,-168.32C105.28,-159.98 86.37,-147.21 71.76,-137.35"/>
<polygon fill="midnightblue" stroke="midnightblue" points="73.57,-134.35 63.32,-131.65 69.65,-140.15 73.57,-134.35"/>
</g>
<!-- Node12&#45;&gt;Node4 -->
<g id="edge8" class="edge">
<title>Node12&#45;&gt;Node4</title>
<path fill="none" stroke="midnightblue" d="M231.42,-112.44C253.24,-103.52 287.65,-89.44 312.39,-79.32"/>
<polygon fill="midnightblue" stroke="midnightblue" points="313.75,-82.54 321.68,-75.52 311.1,-76.06 313.75,-82.54"/>
</g>
<!-- Node13 -->
<g id="node8" class="node">
<title>Node13</title>
<g id="a_node8"><a xlink:href="Screen_8h.html" target="_top" xlink:title=" ">
<polygon fill="white" stroke="red" points="181,-56.5 181,-75.5 240,-75.5 240,-56.5 181,-56.5"/>
<text text-anchor="middle" x="210.5" y="-63.5" font-family="Helvetica,sans-Serif" font-size="10.00">Screen.h</text>
</a>
</g>
</g>
<!-- Node12&#45;&gt;Node13 -->
<g id="edge9" class="edge">
<title>Node12&#45;&gt;Node13</title>
<path fill="none" stroke="midnightblue" d="M210.5,-112.08C210.5,-105.01 210.5,-94.86 210.5,-85.99"/>
<polygon fill="midnightblue" stroke="midnightblue" points="214,-85.75 210.5,-75.75 207,-85.75 214,-85.75"/>
</g>
<!-- Node13&#45;&gt;Node5 -->
<g id="edge10" class="edge">
<title>Node13&#45;&gt;Node5</title>
<path fill="none" stroke="midnightblue" d="M240.23,-58.05C280.78,-48.57 353.66,-31.53 399.71,-20.77"/>
<polygon fill="midnightblue" stroke="midnightblue" points="400.73,-24.13 409.67,-18.44 399.13,-17.31 400.73,-24.13"/>
</g>
<!-- Node15&#45;&gt;Node13 -->
<g id="edge13" class="edge">
<title>Node15&#45;&gt;Node13</title>
<path fill="none" stroke="midnightblue" d="M75.85,-112.44C102.77,-103.36 145.5,-88.94 175.59,-78.78"/>
<polygon fill="midnightblue" stroke="midnightblue" points="176.91,-82.03 185.27,-75.52 174.67,-75.4 176.91,-82.03"/>
</g>
<!-- Node16&#45;&gt;Node2 -->
<g id="edge15" class="edge">
<title>Node16&#45;&gt;Node2</title>
<path fill="none" stroke="midnightblue" d="M379.24,-224.4C402.08,-216.82 434.28,-204.42 459.5,-188 480.55,-174.29 500.85,-153.59 513.71,-139.25"/>
<polygon fill="midnightblue" stroke="midnightblue" points="516.41,-141.47 520.36,-131.64 511.15,-136.86 516.41,-141.47"/>
</g>
<!-- Node16&#45;&gt;Node4 -->
<g id="edge24" class="edge">
<title>Node16&#45;&gt;Node4</title>
<path fill="none" stroke="midnightblue" d="M318.32,-224.49C299.96,-217.8 278.48,-206.45 267.5,-188 244.49,-149.34 292.12,-104.48 321.57,-81.79"/>
<polygon fill="midnightblue" stroke="midnightblue" points="323.75,-84.53 329.67,-75.74 319.57,-78.91 323.75,-84.53"/>
</g>
<!-- Node16&#45;&gt;Node12 -->
<g id="edge18" class="edge">
<title>Node16&#45;&gt;Node12</title>
<path fill="none" stroke="midnightblue" d="M304.48,-224.6C280.86,-218.16 253.21,-207.02 234.5,-188 222.25,-175.55 216.18,-156.31 213.21,-141.99"/>
<polygon fill="midnightblue" stroke="midnightblue" points="216.6,-141.04 211.44,-131.79 209.7,-142.24 216.6,-141.04"/>
</g>
<!-- Node17 -->
<g id="node11" class="node">
<title>Node17</title>
<g id="a_node11"><a xlink:href="Defines_8h.html" target="_top" xlink:title=" ">
<polygon fill="white" stroke="black" points="276.5,-168.5 276.5,-187.5 338.5,-187.5 338.5,-168.5 276.5,-168.5"/>
<text text-anchor="middle" x="307.5" y="-175.5" font-family="Helvetica,sans-Serif" font-size="10.00">Defines.h</text>
</a>
</g>
</g>
<!-- Node16&#45;&gt;Node17 -->
<g id="edge16" class="edge">
<title>Node16&#45;&gt;Node17</title>
<path fill="none" stroke="midnightblue" d="M343.4,-224.08C337.26,-216.38 328.23,-205.03 320.76,-195.65"/>
<polygon fill="midnightblue" stroke="midnightblue" points="323.44,-193.39 314.47,-187.75 317.96,-197.75 323.44,-193.39"/>
</g>
<!-- Node18 -->
<g id="node12" class="node">
<title>Node18</title>
<g id="a_node12"><a xlink:href="InputInterface_8h.html" target="_top" xlink:title=" ">
<polygon fill="white" stroke="black" points="356.5,-168.5 356.5,-187.5 450.5,-187.5 450.5,-168.5 356.5,-168.5"/>
<text text-anchor="middle" x="403.5" y="-175.5" font-family="Helvetica,sans-Serif" font-size="10.00">InputInterface.h</text>
</a>
</g>
</g>
<!-- Node16&#45;&gt;Node18 -->
<g id="edge19" class="edge">
<title>Node16&#45;&gt;Node18</title>
<path fill="none" stroke="midnightblue" d="M359.25,-224.08C366.97,-216.22 378.4,-204.57 387.72,-195.08"/>
<polygon fill="midnightblue" stroke="midnightblue" points="390.4,-197.34 394.91,-187.75 385.41,-192.44 390.4,-197.34"/>
</g>
<!-- Node17&#45;&gt;Node4 -->
<g id="edge17" class="edge">
<title>Node17&#45;&gt;Node4</title>
<path fill="none" stroke="midnightblue" d="M310.25,-168.37C315.92,-150.54 329.04,-109.3 336.69,-85.27"/>
<polygon fill="midnightblue" stroke="midnightblue" points="340.07,-86.18 339.77,-75.59 333.4,-84.06 340.07,-86.18"/>
</g>
<!-- Node18&#45;&gt;Node2 -->
<g id="edge20" class="edge">
<title>Node18&#45;&gt;Node2</title>
<path fill="none" stroke="midnightblue" d="M423.15,-168.44C443.46,-159.6 475.4,-145.69 498.6,-135.59"/>
<polygon fill="midnightblue" stroke="midnightblue" points="500.17,-138.72 507.94,-131.52 497.38,-132.3 500.17,-138.72"/>
</g>
<!-- Node18&#45;&gt;Node3 -->
<g id="edge22" class="edge">
<title>Node18&#45;&gt;Node3</title>
<path fill="none" stroke="midnightblue" d="M406.87,-168.37C413.88,-150.46 430.11,-108.92 439.48,-84.95"/>
<polygon fill="midnightblue" stroke="midnightblue" points="442.76,-86.18 443.14,-75.59 436.24,-83.63 442.76,-86.18"/>
</g>
<!-- Node18&#45;&gt;Node4 -->
<g id="edge23" class="edge">
<title>Node18&#45;&gt;Node4</title>
<path fill="none" stroke="midnightblue" d="M398.71,-168.37C388.74,-150.38 365.54,-108.55 352.27,-84.63"/>
<polygon fill="midnightblue" stroke="midnightblue" points="355.17,-82.64 347.26,-75.59 349.05,-86.03 355.17,-82.64"/>
</g>
<!-- Node18&#45;&gt;Node12 -->
<g id="edge21" class="edge">
<title>Node18&#45;&gt;Node12</title>
<path fill="none" stroke="midnightblue" d="M372.92,-168.44C339.89,-159.2 287.11,-144.44 250.73,-134.26"/>
<polygon fill="midnightblue" stroke="midnightblue" points="251.51,-130.84 240.94,-131.52 249.63,-137.58 251.51,-130.84"/>
</g>
</g>
</svg>
