<?xml version="1.0" encoding="UTF-8" standalone="no"?>
<!DOCTYPE svg PUBLIC "-//W3C//DTD SVG 1.1//EN"
 "http://www.w3.org/Graphics/SVG/1.1/DTD/svg11.dtd">
<!-- Generated by graphviz version 2.43.0 (0)
 -->
<!-- Title: /home/runner/work/EX&#45;Display/EX&#45;Display/Controller.h Pages: 1 -->
<!--zoomable 313 -->

<svg id="main" version="1.1" xmlns="http://www.w3.org/2000/svg" xmlns:xlink="http://www.w3.org/1999/xlink" xml:space="preserve" onload="init(evt)">
<style type="text/css"><![CDATA[
.node, .edge {opacity: 0.7;}
.node.selected, .edge.selected {opacity: 1;}
.edge:hover path { stroke: red; }
.edge:hover polygon { stroke: red; fill: red; }
]]></style>

<defs>
  <circle id="rim" cx="0" cy="0" r="7"/>
  <circle id="rim2" cx="0" cy="0" r="3.5"/>
  <g id="zoomPlus">
    <use xlink:href="#rim" fill="#404040"><set attributeName="fill" to="#808080" begin="zoomplus.mouseover" end="zoomplus.mouseout"/></use>
    <path d="M-4,0h8M0,-4v8" fill="none" stroke="white" stroke-width="1.5" pointer-events="none"/>
  </g>
  <g id="zoomMin">
    <use xlink:href="#rim" fill="#404040"><set attributeName="fill" to="#808080" begin="zoomminus.mouseover" end="zoomminus.mouseout"/></use>
    <path d="M-4,0h8" fill="none" stroke="white" stroke-width="1.5" pointer-events="none"/>
  </g>
  <g id="arrowUp" transform="translate(30 24)">
    <use xlink:href="#rim"/>
    <path pointer-events="none" fill="none" stroke="white" stroke-width="1.5" d="M0,-3.0v7 M-2.5,-0.5L0,-3.0L2.5,-0.5"/>
  </g>
  <g id="arrowRight" transform="rotate(90) translate(36 -43)">
    <use xlink:href="#rim"/>
    <path pointer-events="none" fill="none" stroke="white" stroke-width="1.5" d="M0,-3.0v7 M-2.5,-0.5L0,-3.0L2.5,-0.5"/>
  </g>
  <g id="arrowDown" transform="rotate(180) translate(-30 -48)">
    <use xlink:href="#rim"/>
    <path pointer-events="none" fill="none" stroke="white" stroke-width="1.5" d="M0,-3.0v7 M-2.5,-0.5L0,-3.0L2.5,-0.5"/>
  </g>
  <g id="arrowLeft" transform="rotate(270) translate(-36 17)">
    <use xlink:href="#rim"/>
    <path pointer-events="none" fill="none" stroke="white" stroke-width="1.5" d="M0,-3.0v7 M-2.5,-0.5L0,-3.0L2.5,-0.5"/>
  </g>
  <g id="resetDef">
    <use xlink:href="#rim2" fill="#404040"><set attributeName="fill" to="#808080" begin="reset.mouseover" end="reset.mouseout"/></use>
  </g>
</defs>
<script type="application/ecmascript">
var viewWidth = 620;
var viewHeight = 313;
var sectionId = 'dynsection-0';
</script>
<script type="application/ecmascript" xlink:href="svg.min.js"/>
<svg id="graph" class="graph">
<g id="viewport">
<title>/home/runner/work/EX&#45;Display/EX&#45;Display/Controller.h</title>
<!-- Node1 -->
<g id="Node000001" class="node">
<title>Node1</title>
<g id="a_Node000001"><a xlink:title=" ">
<polygon fill="#999999" stroke="#666666" points="521.5,-305 349.5,-305 349.5,-275 521.5,-275 521.5,-305"/>
<text text-anchor="start" x="357.5" y="-293" font-family="Helvetica,sans-Serif" font-size="10.00">/home/runner/work/EX</text>
<text text-anchor="middle" x="435.5" y="-282" font-family="Helvetica,sans-Serif" font-size="10.00">&#45;Display/EX&#45;Display/Controller.h</text>
</a>
</g>
</g>
<!-- Node2 -->
<g id="Node000002" class="node">
<title>Node2</title>
<g id="a_Node000002"><a xlink:href="CallbackInterface_8h.html" target="_top" xlink:title=" ">
<polygon fill="white" stroke="#666666" points="583,-129 472,-129 472,-110 583,-110 583,-129"/>
<text text-anchor="middle" x="527.5" y="-117" font-family="Helvetica,sans-Serif" font-size="10.00">CallbackInterface.h</text>
</a>
</g>
</g>
<!-- Node1&#45;&gt;Node2 -->
<g id="edge1_Node000001_Node000002" class="edge">
<title>Node1&#45;&gt;Node2</title>
<g id="a_edge1_Node000001_Node000002"><a xlink:title=" ">
<path fill="none" stroke="#63b8ff" d="M456.91,-274.86C468.95,-265.89 483.35,-253.31 492.5,-239 512.65,-207.49 521.59,-163.92 525.24,-139.34"/>
<polygon fill="#63b8ff" stroke="#63b8ff" points="528.74,-139.6 526.6,-129.22 521.8,-138.67 528.74,-139.6"/>
</a>
</g>
</g>
<!-- Node4 -->
<g id="Node000004" class="node">
<title>Node4</title>
<g id="a_Node000004"><a xlink:href="Logger_8h.html" target="_top" xlink:title=" ">
<polygon fill="white" stroke="#666666" points="371.5,-74 313.5,-74 313.5,-55 371.5,-55 371.5,-74"/>
<text text-anchor="middle" x="342.5" y="-62" font-family="Helvetica,sans-Serif" font-size="10.00">Logger.h</text>
</a>
</g>
</g>
<!-- Node1&#45;&gt;Node4 -->
<g id="edge25_Node000001_Node000004" class="edge">
<title>Node1&#45;&gt;Node4</title>
<g id="a_edge25_Node000001_Node000004"><a xlink:title=" ">
<path fill="none" stroke="#63b8ff" d="M443.54,-274.94C455.97,-251.23 476.71,-202.22 459.5,-165 441,-124.99 397.61,-95.16 369.18,-79.05"/>
<polygon fill="#63b8ff" stroke="#63b8ff" points="370.63,-75.85 360.17,-74.12 367.26,-81.99 370.63,-75.85"/>
</a>
</g>
</g>
<!-- Node5 -->
<g id="Node000005" class="node">
<title>Node5</title>
<g id="a_Node000005"><a xlink:href="Arduino_8h.html" target="_top" xlink:title=" ">
<polygon fill="#fff0f0" stroke="red" points="473,-19 410,-19 410,0 473,0 473,-19"/>
<text text-anchor="middle" x="441.5" y="-7" font-family="Helvetica,sans-Serif" font-size="10.00">Arduino.h</text>
</a>
</g>
</g>
<!-- Node1&#45;&gt;Node5 -->
<g id="edge27_Node000001_Node000005" class="edge">
<title>Node1&#45;&gt;Node5</title>
<g id="a_edge27_Node000001_Node000005"><a xlink:title=" ">
<path fill="none" stroke="#63b8ff" d="M500.54,-274.94C550.67,-259.83 611.5,-230.22 611.5,-175.5 611.5,-175.5 611.5,-175.5 611.5,-118.5 611.5,-57.82 533.38,-29.78 483.05,-18.01"/>
<polygon fill="#63b8ff" stroke="#63b8ff" points="483.6,-14.55 473.08,-15.8 482.09,-21.38 483.6,-14.55"/>
</a>
</g>
</g>
<!-- Node11 -->
<g id="Node000011" class="node">
<title>Node11</title>
<g id="a_Node000011"><a xlink:href="DisplayManager_8h.html" target="_top" xlink:title=" ">
<polygon fill="white" stroke="#666666" points="182.5,-184 78.5,-184 78.5,-165 182.5,-165 182.5,-184"/>
<text text-anchor="middle" x="130.5" y="-172" font-family="Helvetica,sans-Serif" font-size="10.00">DisplayManager.h</text>
</a>
</g>
</g>
<!-- Node1&#45;&gt;Node11 -->
<g id="edge6_Node000001_Node000011" class="edge">
<title>Node1&#45;&gt;Node11</title>
<g id="a_edge6_Node000001_Node000011"><a xlink:title=" ">
<path fill="none" stroke="#63b8ff" d="M395.28,-274.93C367.24,-265.05 329.01,-251.43 295.5,-239 248.82,-221.68 195.04,-200.82 161.91,-187.85"/>
<polygon fill="#63b8ff" stroke="#63b8ff" points="162.91,-184.48 152.32,-184.09 160.36,-191 162.91,-184.48"/>
</a>
</g>
</g>
<!-- Node15 -->
<g id="Node000015" class="node">
<title>Node15</title>
<g id="a_Node000015"><a xlink:href="ScreenManager_8h.html" target="_top" xlink:title=" ">
<polygon fill="white" stroke="#666666" points="101,-129 0,-129 0,-110 101,-110 101,-129"/>
<text text-anchor="middle" x="50.5" y="-117" font-family="Helvetica,sans-Serif" font-size="10.00">ScreenManager.h</text>
</a>
</g>
</g>
<!-- Node1&#45;&gt;Node15 -->
<g id="edge26_Node000001_Node000015" class="edge">
<title>Node1&#45;&gt;Node15</title>
<g id="a_edge26_Node000001_Node000015"><a xlink:title=" ">
<path fill="none" stroke="#63b8ff" d="M349.39,-287.51C266.48,-281.35 143.12,-259.02 69.5,-184 57.8,-172.08 53.26,-153.25 51.52,-139.19"/>
<polygon fill="#63b8ff" stroke="#63b8ff" points="55,-138.82 50.64,-129.16 48.03,-139.42 55,-138.82"/>
</a>
</g>
</g>
<!-- Node16 -->
<g id="Node000016" class="node">
<title>Node16</title>
<g id="a_Node000016"><a xlink:href="InputManager_8h.html" target="_top" xlink:title=" ">
<polygon fill="white" stroke="#666666" points="396.5,-239 304.5,-239 304.5,-220 396.5,-220 396.5,-239"/>
<text text-anchor="middle" x="350.5" y="-227" font-family="Helvetica,sans-Serif" font-size="10.00">InputManager.h</text>
</a>
</g>
</g>
<!-- Node1&#45;&gt;Node16 -->
<g id="edge14_Node000001_Node000016" class="edge">
<title>Node1&#45;&gt;Node16</title>
<g id="a_edge14_Node000001_Node000016"><a xlink:title=" ">
<path fill="none" stroke="#63b8ff" d="M414.92,-274.84C401.83,-265.83 384.91,-254.18 371.7,-245.09"/>
<polygon fill="#63b8ff" stroke="#63b8ff" points="373.46,-242.05 363.24,-239.27 369.49,-247.82 373.46,-242.05"/>
</a>
</g>
</g>
<!-- Node3 -->
<g id="Node000003" class="node">
<title>Node3</title>
<g id="a_Node000003"><a xlink:href="InputActions_8h.html" target="_top" xlink:title=" ">
<polygon fill="white" stroke="#666666" points="489.5,-74 403.5,-74 403.5,-55 489.5,-55 489.5,-74"/>
<text text-anchor="middle" x="446.5" y="-62" font-family="Helvetica,sans-Serif" font-size="10.00">InputActions.h</text>
</a>
</g>
</g>
<!-- Node2&#45;&gt;Node3 -->
<g id="edge2_Node000002_Node000003" class="edge">
<title>Node2&#45;&gt;Node3</title>
<g id="a_edge2_Node000002_Node000003"><a xlink:title=" ">
<path fill="none" stroke="#63b8ff" d="M514.49,-109.98C502.04,-101.84 483.04,-89.41 468.29,-79.76"/>
<polygon fill="#63b8ff" stroke="#63b8ff" points="470.04,-76.72 459.75,-74.17 466.2,-82.57 470.04,-76.72"/>
</a>
</g>
</g>
<!-- Node2&#45;&gt;Node4 -->
<g id="edge3_Node000002_Node000004" class="edge">
<title>Node2&#45;&gt;Node4</title>
<g id="a_edge3_Node000002_Node000004"><a xlink:title=" ">
<path fill="none" stroke="#63b8ff" d="M497.78,-109.98C466.17,-100.93 416.05,-86.57 381.34,-76.63"/>
<polygon fill="#63b8ff" stroke="#63b8ff" points="382.12,-73.21 371.54,-73.82 380.19,-79.94 382.12,-73.21"/>
</a>
</g>
</g>
<!-- Node2&#45;&gt;Node5 -->
<g id="edge5_Node000002_Node000005" class="edge">
<title>Node2&#45;&gt;Node5</title>
<g id="a_edge5_Node000002_Node000005"><a xlink:title=" ">
<path fill="none" stroke="#63b8ff" d="M525.06,-109.99C521.06,-97.1 512.17,-72.31 498.5,-55 489.17,-43.18 476.07,-32.67 464.78,-24.83"/>
<polygon fill="#63b8ff" stroke="#63b8ff" points="466.49,-21.77 456.22,-19.15 462.62,-27.6 466.49,-21.77"/>
</a>
</g>
</g>
<!-- Node4&#45;&gt;Node5 -->
<g id="edge4_Node000004_Node000005" class="edge">
<title>Node4&#45;&gt;Node5</title>
<g id="a_edge4_Node000004_Node000005"><a xlink:title=" ">
<path fill="none" stroke="#63b8ff" d="M358.41,-54.98C374.05,-46.61 398.16,-33.7 416.38,-23.95"/>
<polygon fill="#63b8ff" stroke="#63b8ff" points="418.14,-26.98 425.3,-19.17 414.84,-20.8 418.14,-26.98"/>
</a>
</g>
</g>
<!-- Node11&#45;&gt;Node4 -->
<g id="edge11_Node000011_Node000004" class="edge">
<title>Node11&#45;&gt;Node4</title>
<g id="a_edge11_Node000011_Node000004"><a xlink:title=" ">
<path fill="none" stroke="#63b8ff" d="M130.34,-164.7C130.61,-150.97 133.22,-124.53 148.5,-110 170.42,-89.16 253.07,-76.02 303.15,-69.78"/>
<polygon fill="#63b8ff" stroke="#63b8ff" points="303.8,-73.23 313.31,-68.56 302.96,-66.28 303.8,-73.23"/>
</a>
</g>
</g>
<!-- Node12 -->
<g id="Node000012" class="node">
<title>Node12</title>
<g id="a_Node000012"><a xlink:href="DisplayInterface_8h.html" target="_top" xlink:title=" ">
<polygon fill="white" stroke="#666666" points="263.5,-129 157.5,-129 157.5,-110 263.5,-110 263.5,-129"/>
<text text-anchor="middle" x="210.5" y="-117" font-family="Helvetica,sans-Serif" font-size="10.00">DisplayInterface.h</text>
</a>
</g>
</g>
<!-- Node11&#45;&gt;Node12 -->
<g id="edge7_Node000011_Node000012" class="edge">
<title>Node11&#45;&gt;Node12</title>
<g id="a_edge7_Node000011_Node000012"><a xlink:title=" ">
<path fill="none" stroke="#63b8ff" d="M143.35,-164.98C155.64,-156.84 174.41,-144.41 188.98,-134.76"/>
<polygon fill="#63b8ff" stroke="#63b8ff" points="191.01,-137.61 197.41,-129.17 187.14,-131.78 191.01,-137.61"/>
</a>
</g>
</g>
<!-- Node11&#45;&gt;Node15 -->
<g id="edge12_Node000011_Node000015" class="edge">
<title>Node11&#45;&gt;Node15</title>
<g id="a_edge12_Node000011_Node000015"><a xlink:title=" ">
<path fill="none" stroke="#63b8ff" d="M117.65,-164.98C105.36,-156.84 86.59,-144.41 72.02,-134.76"/>
<polygon fill="#63b8ff" stroke="#63b8ff" points="73.86,-131.78 63.59,-129.17 69.99,-137.61 73.86,-131.78"/>
</a>
</g>
</g>
<!-- Node12&#45;&gt;Node4 -->
<g id="edge8_Node000012_Node000004" class="edge">
<title>Node12&#45;&gt;Node4</title>
<g id="a_edge8_Node000012_Node000004"><a xlink:title=" ">
<path fill="none" stroke="#63b8ff" d="M231.71,-109.98C253.23,-101.34 286.78,-87.87 311.33,-78.02"/>
<polygon fill="#63b8ff" stroke="#63b8ff" points="312.93,-81.14 320.91,-74.17 310.32,-74.65 312.93,-81.14"/>
</a>
</g>
</g>
<!-- Node13 -->
<g id="Node000013" class="node">
<title>Node13</title>
<g id="a_Node000013"><a xlink:href="Screen_8h.html" target="_top" xlink:title=" ">
<polygon fill="#fff0f0" stroke="red" points="240,-74 181,-74 181,-55 240,-55 240,-74"/>
<text text-anchor="middle" x="210.5" y="-62" font-family="Helvetica,sans-Serif" font-size="10.00">Screen.h</text>
</a>
</g>
</g>
<!-- Node12&#45;&gt;Node13 -->
<g id="edge9_Node000012_Node000013" class="edge">
<title>Node12&#45;&gt;Node13</title>
<g id="a_edge9_Node000012_Node000013"><a xlink:title=" ">
<path fill="none" stroke="#63b8ff" d="M210.5,-109.75C210.5,-102.8 210.5,-92.85 210.5,-84.13"/>
<polygon fill="#63b8ff" stroke="#63b8ff" points="214,-84.09 210.5,-74.09 207,-84.09 214,-84.09"/>
</a>
</g>
</g>
<!-- Node13&#45;&gt;Node5 -->
<g id="edge10_Node000013_Node000005" class="edge">
<title>Node13&#45;&gt;Node5</title>
<g id="a_edge10_Node000013_Node000005"><a xlink:title=" ">
<path fill="none" stroke="#63b8ff" d="M240.23,-56.68C280.78,-47.37 353.66,-30.65 399.71,-20.09"/>
<polygon fill="#63b8ff" stroke="#63b8ff" points="400.7,-23.45 409.67,-17.8 399.14,-16.63 400.7,-23.45"/>
</a>
</g>
</g>
<!-- Node15&#45;&gt;Node13 -->
<g id="edge13_Node000015_Node000013" class="edge">
<title>Node15&#45;&gt;Node13</title>
<g id="a_edge13_Node000015_Node000013"><a xlink:title=" ">
<path fill="none" stroke="#63b8ff" d="M76.21,-109.98C102.95,-101.13 145.03,-87.19 174.95,-77.28"/>
<polygon fill="#63b8ff" stroke="#63b8ff" points="176.2,-80.55 184.59,-74.08 174,-73.9 176.2,-80.55"/>
</a>
</g>
</g>
<!-- Node16&#45;&gt;Node2 -->
<g id="edge15_Node000016_Node000002" class="edge">
<title>Node16&#45;&gt;Node2</title>
<g id="a_edge15_Node000016_Node000002"><a xlink:title=" ">
<path fill="none" stroke="#63b8ff" d="M379.19,-219.98C402.01,-212.47 434.19,-200.2 459.5,-184 480.2,-170.75 500.31,-150.82 513.22,-136.83"/>
<polygon fill="#63b8ff" stroke="#63b8ff" points="515.85,-139.15 519.95,-129.38 510.65,-134.46 515.85,-139.15"/>
</a>
</g>
</g>
<!-- Node16&#45;&gt;Node4 -->
<g id="edge24_Node000016_Node000004" class="edge">
<title>Node16&#45;&gt;Node4</title>
<g id="a_edge24_Node000016_Node000004"><a xlink:title=" ">
<path fill="none" stroke="#63b8ff" d="M317.48,-219.87C299.32,-213.26 278.33,-202.1 267.5,-184 244.74,-145.97 292.27,-102.11 321.63,-79.94"/>
<polygon fill="#63b8ff" stroke="#63b8ff" points="323.71,-82.76 329.71,-74.03 319.57,-77.11 323.71,-82.76"/>
</a>
</g>
</g>
<!-- Node16&#45;&gt;Node12 -->
<g id="edge18_Node000016_Node000012" class="edge">
<title>Node16&#45;&gt;Node12</title>
<g id="a_edge18_Node000016_Node000012"><a xlink:title=" ">
<path fill="none" stroke="#63b8ff" d="M304.26,-220.18C280.72,-213.81 253.21,-202.81 234.5,-184 222.43,-171.87 216.33,-153.07 213.31,-139.08"/>
<polygon fill="#63b8ff" stroke="#63b8ff" points="216.73,-138.31 211.5,-129.1 209.84,-139.56 216.73,-138.31"/>
</a>
</g>
</g>
<!-- Node17 -->
<g id="Node000017" class="node">
<title>Node17</title>
<g id="a_Node000017"><a xlink:href="Defines_8h.html" target="_top" xlink:title=" ">
<polygon fill="white" stroke="#666666" points="338.5,-184 276.5,-184 276.5,-165 338.5,-165 338.5,-184"/>
<text text-anchor="middle" x="307.5" y="-172" font-family="Helvetica,sans-Serif" font-size="10.00">Defines.h</text>
</a>
</g>
</g>
<!-- Node16&#45;&gt;Node17 -->
<g id="edge16_Node000016_Node000017" class="edge">
<title>Node16&#45;&gt;Node17</title>
<g id="a_edge16_Node000016_Node000017"><a xlink:title=" ">
<path fill="none" stroke="#63b8ff" d="M343.4,-219.75C337.33,-212.26 328.41,-201.28 320.99,-192.13"/>
<polygon fill="#63b8ff" stroke="#63b8ff" points="323.49,-189.65 314.47,-184.09 318.05,-194.06 323.49,-189.65"/>
</a>
</g>
</g>
<!-- Node18 -->
<g id="Node000018" class="node">
<title>Node18</title>
<g id="a_Node000018"><a xlink:href="InputInterface_8h.html" target="_top" xlink:title=" ">
<polygon fill="white" stroke="#666666" points="450.5,-184 356.5,-184 356.5,-165 450.5,-165 450.5,-184"/>
<text text-anchor="middle" x="403.5" y="-172" font-family="Helvetica,sans-Serif" font-size="10.00">InputInterface.h</text>
</a>
</g>
</g>
<!-- Node16&#45;&gt;Node18 -->
<g id="edge19_Node000016_Node000018" class="edge">
<title>Node16&#45;&gt;Node18</title>
<g id="a_edge19_Node000016_Node000018"><a xlink:title=" ">
<path fill="none" stroke="#63b8ff" d="M359.25,-219.75C366.97,-212.03 378.4,-200.6 387.72,-191.28"/>
<polygon fill="#63b8ff" stroke="#63b8ff" points="390.31,-193.64 394.91,-184.09 385.36,-188.69 390.31,-193.64"/>
</a>
</g>
</g>
<!-- Node17&#45;&gt;Node4 -->
<g id="edge17_Node000017_Node000004" class="edge">
<title>Node17&#45;&gt;Node4</title>
<g id="a_edge17_Node000017_Node000004"><a xlink:title=" ">
<path fill="none" stroke="#63b8ff" d="M310.36,-164.66C316.06,-147.09 328.91,-107.45 336.52,-83.95"/>
<polygon fill="#63b8ff" stroke="#63b8ff" points="339.94,-84.75 339.69,-74.16 333.28,-82.59 339.94,-84.75"/>
</a>
</g>
</g>
<!-- Node18&#45;&gt;Node2 -->
<g id="edge20_Node000018_Node000002" class="edge">
<title>Node18&#45;&gt;Node2</title>
<g id="a_edge20_Node000018_Node000002"><a xlink:title=" ">
<path fill="none" stroke="#63b8ff" d="M423.42,-164.98C443.55,-156.38 474.88,-142.99 497.91,-133.15"/>
<polygon fill="#63b8ff" stroke="#63b8ff" points="499.4,-136.32 507.21,-129.17 496.64,-129.88 499.4,-136.32"/>
</a>
</g>
</g>
<!-- Node18&#45;&gt;Node3 -->
<g id="edge22_Node000018_Node000003" class="edge">
<title>Node18&#45;&gt;Node3</title>
<g id="a_edge22_Node000018_Node000003"><a xlink:title=" ">
<path fill="none" stroke="#63b8ff" d="M407.02,-164.66C414.05,-147.01 429.94,-107.09 439.28,-83.64"/>
<polygon fill="#63b8ff" stroke="#63b8ff" points="442.61,-84.74 443.05,-74.16 436.1,-82.15 442.61,-84.74"/>
</a>
</g>
</g>
<!-- Node18&#45;&gt;Node4 -->
<g id="edge23_Node000018_Node000004" class="edge">
<title>Node18&#45;&gt;Node4</title>
<g id="a_edge23_Node000018_Node000004"><a xlink:title=" ">
<path fill="none" stroke="#63b8ff" d="M398.51,-164.66C388.45,-146.85 365.58,-106.37 352.39,-83.01"/>
<polygon fill="#63b8ff" stroke="#63b8ff" points="355.36,-81.14 347.39,-74.16 349.26,-84.59 355.36,-81.14"/>
</a>
</g>
</g>
<!-- Node18&#45;&gt;Node12 -->
<g id="edge21_Node000018_Node000012" class="edge">
<title>Node18&#45;&gt;Node12</title>
<g id="a_edge21_Node000018_Node000012"><a xlink:title=" ">
<path fill="none" stroke="#63b8ff" d="M372.49,-164.98C339.67,-155.97 287.7,-141.7 251.51,-131.76"/>
<polygon fill="#63b8ff" stroke="#63b8ff" points="252.32,-128.36 241.75,-129.08 250.47,-135.11 252.32,-128.36"/>
</a>
</g>
</g>
</g>
</svg>

<g id="navigator" transform="translate(0 0)" fill="#404254">
  <rect fill="#f2f5e9" fill-opacity="0.5" stroke="#606060" stroke-width=".5" x="0" y="0" width="60" height="60"/>
  <use id="zoomplus" xlink:href="#zoomPlus" x="17" y="9" onmousedown="handleZoom(evt,'in')"/>
  <use id="zoomminus" xlink:href="#zoomMin" x="42" y="9" onmousedown="handleZoom(evt,'out')"/>
  <use id="reset" xlink:href="#resetDef" x="30" y="36" onmousedown="handleReset()"/>
   <use id="arrowup" xlink:href="#arrowUp" x="0" y="0" onmousedown="handlePan(0,-1)"/>
  <use id="arrowright" xlink:href="#arrowRight" x="0" y="0" onmousedown="handlePan(1,0)"/>
  <use id="arrowdown" xlink:href="#arrowDown" x="0" y="0" onmousedown="handlePan(0,1)"/>
  <use id="arrowleft" xlink:href="#arrowLeft" x="0" y="0" onmousedown="handlePan(-1,0)"/>
</g>
<svg viewBox="0 0 15 15" width="100%" height="30px" preserveAspectRatio="xMaxYMin meet">
 <g id="arrow_out" transform="scale(0.3 0.3)">
  <a xlink:href="Controller_8h__incl_org.svg" target="_base">
   <rect id="button" ry="5" rx="5" y="6" x="6" height="38" width="38"
        fill="#f2f5e9" fill-opacity="0.5" stroke="#606060" stroke-width="1.0"/>
   <path id="arrow"
     d="M 11.500037,31.436501 C 11.940474,20.09759 22.043105,11.32322 32.158766,21.979434 L 37.068811,17.246167 C 37.068811,17.246167 37.088388,32 37.088388,32 L 22.160133,31.978069 C 22.160133,31.978069 26.997745,27.140456 26.997745,27.140456 C 18.528582,18.264221 13.291696,25.230495 11.500037,31.436501 z"
     style="fill:#404040;"/>
  </a>
 </g>
</svg>

<style type='text/css'>
<![CDATA[
[data-mouse-over-selected='false'] { opacity: 0.7; }
[data-mouse-over-selected='true']  { opacity: 1.0; }
]]>
</style>
<script type="application/ecmascript"><![CDATA[
document.addEventListener('DOMContentLoaded', (event) => {
  highlightEdges();
  highlightAdjacentNodes();
});
]]></script>
</svg>
