<?xml version="1.0" encoding="UTF-8" standalone="no"?>
<!DOCTYPE svg PUBLIC "-//W3C//DTD SVG 1.1//EN"
 "http://www.w3.org/Graphics/SVG/1.1/DTD/svg11.dtd">
<!-- Generated by graphviz version 2.43.0 (0)
 -->
<!-- Title: /home/runner/work/EX&#45;Display/EX&#45;Display/Controller.h Pages: 1 -->
<!--zoomable 319 -->
<svg id="main" version="1.1" xmlns="http://www.w3.org/2000/svg" xmlns:xlink="http://www.w3.org/1999/xlink" xml:space="preserve" onload="init(evt)">
<style type="text/css"><![CDATA[
.edge:hover path { stroke: red; }
.edge:hover polygon { stroke: red; fill: red; }
]]></style>
<script type="text/javascript"><![CDATA[
var edges = document.getElementsByTagName('g');
if (edges && edges.length) {
  for (var i=0;i<edges.length;i++) {
    if (edges[i].id.substr(0,4)=='edge') {
      edges[i].setAttribute('class','edge');
    }
  }
}
]]></script>
        <defs>
                <circle id="rim" cx="0" cy="0" r="7"/>
                <circle id="rim2" cx="0" cy="0" r="3.5"/>
                <g id="zoomPlus">
                        <use xlink:href="#rim" fill="#404040">
                                <set attributeName="fill" to="#808080" begin="zoomplus.mouseover" end="zoomplus.mouseout"/>
                        </use>
                        <path d="M-4,0h8M0,-4v8" fill="none" stroke="white" stroke-width="1.5" pointer-events="none"/>
                </g>
                <g id="zoomMin">
                        <use xlink:href="#rim" fill="#404040">
                                <set attributeName="fill" to="#808080" begin="zoomminus.mouseover" end="zoomminus.mouseout"/>
                        </use>
                        <path d="M-4,0h8" fill="none" stroke="white" stroke-width="1.5" pointer-events="none"/>
                </g>
                <g id="dirArrow">
                        <path fill="none" stroke="white" stroke-width="1.5" d="M0,-3.0v7 M-2.5,-0.5L0,-3.0L2.5,-0.5"/>
                </g>
               <g id="resetDef">
                       <use xlink:href="#rim2" fill="#404040">
                               <set attributeName="fill" to="#808080" begin="reset.mouseover" end="reset.mouseout"/>
                       </use>
               </g>
        </defs>

<script type="text/javascript">
var viewWidth = 678;
var viewHeight = 319;
var sectionId = 'dynsection-0';
</script>
<script xlink:href="svgpan.js"/>
<svg id="graph" class="graph">
<g id="viewport">
<title>/home/runner/work/EX&#45;Display/EX&#45;Display/Controller.h</title>
<polygon fill="white" stroke="transparent" points="-4,4 -4,-315 673.5,-315 673.5,4 -4,4"/>
<!-- Node1 -->
<g id="node1" class="node">
<title>Node1</title>
<g id="a_node1"><a xlink:title=" ">
<polygon fill="#bfbfbf" stroke="black" points="389.5,-280.5 389.5,-310.5 561.5,-310.5 561.5,-280.5 389.5,-280.5"/>
<text text-anchor="start" x="397.5" y="-298.5" font-family="Helvetica,sans-Serif" font-size="10.00">/home/runner/work/EX</text>
<text text-anchor="middle" x="475.5" y="-287.5" font-family="Helvetica,sans-Serif" font-size="10.00">&#45;Display/EX&#45;Display/Controller.h</text>
</a>
</g>
</g>
<!-- Node2 -->
<g id="node2" class="node">
<title>Node2</title>
<g id="a_node2"><a xlink:href="CallbackInterface_8h.html" target="_top" xlink:title=" ">
<polygon fill="white" stroke="black" points="0,-112.5 0,-131.5 111,-131.5 111,-112.5 0,-112.5"/>
<text text-anchor="middle" x="55.5" y="-119.5" font-family="Helvetica,sans-Serif" font-size="10.00">CallbackInterface.h</text>
</a>
</g>
</g>
<!-- Node1&#45;&gt;Node2 -->
<g id="edge1" class="edge">
<title>Node1&#45;&gt;Node2</title>
<path fill="none" stroke="midnightblue" d="M389.1,-292.09C303.6,-285.23 173.88,-262.19 91.5,-188 77.44,-175.34 67.68,-155.86 61.9,-141.53"/>
<polygon fill="midnightblue" stroke="midnightblue" points="65.03,-139.91 58.26,-131.76 58.48,-142.36 65.03,-139.91"/>
</g>
<!-- Node4 -->
<g id="node4" class="node">
<title>Node4</title>
<g id="a_node4"><a xlink:href="Logger_8h.html" target="_top" xlink:title=" ">
<polygon fill="white" stroke="black" points="369.5,-56.5 369.5,-75.5 427.5,-75.5 427.5,-56.5 369.5,-56.5"/>
<text text-anchor="middle" x="398.5" y="-63.5" font-family="Helvetica,sans-Serif" font-size="10.00">Logger.h</text>
</a>
</g>
</g>
<!-- Node1&#45;&gt;Node4 -->
<g id="edge21" class="edge">
<title>Node1&#45;&gt;Node4</title>
<path fill="none" stroke="midnightblue" d="M477.46,-280.29C480.3,-256.7 484.41,-208.08 476.5,-168 471.29,-141.6 469.51,-133.62 453.5,-112 444.69,-100.11 432.07,-89.48 421.13,-81.55"/>
<polygon fill="midnightblue" stroke="midnightblue" points="423.04,-78.61 412.83,-75.78 419.05,-84.36 423.04,-78.61"/>
</g>
<!-- Node5 -->
<g id="node5" class="node">
<title>Node5</title>
<g id="a_node5"><a xlink:href="Arduino_8h.html" target="_top" xlink:title=" ">
<polygon fill="white" stroke="red" points="532,-0.5 532,-19.5 595,-19.5 595,-0.5 532,-0.5"/>
<text text-anchor="middle" x="563.5" y="-7.5" font-family="Helvetica,sans-Serif" font-size="10.00">Arduino.h</text>
</a>
</g>
</g>
<!-- Node1&#45;&gt;Node5 -->
<g id="edge28" class="edge">
<title>Node1&#45;&gt;Node5</title>
<path fill="none" stroke="midnightblue" d="M560.34,-280.42C586.25,-272.92 613.43,-261.47 634.5,-244 659.76,-223.06 669.5,-211.81 669.5,-179 669.5,-179 669.5,-179 669.5,-121 669.5,-75.81 622.55,-42.05 591.14,-24.52"/>
<polygon fill="midnightblue" stroke="midnightblue" points="592.43,-21.24 581.96,-19.61 589.13,-27.41 592.43,-21.24"/>
</g>
<!-- Node11 -->
<g id="node6" class="node">
<title>Node11</title>
<g id="a_node6"><a xlink:href="DisplayManager_8h.html" target="_top" xlink:title=" ">
<polygon fill="white" stroke="black" points="363.5,-168.5 363.5,-187.5 467.5,-187.5 467.5,-168.5 363.5,-168.5"/>
<text text-anchor="middle" x="415.5" y="-175.5" font-family="Helvetica,sans-Serif" font-size="10.00">DisplayManager.h</text>
</a>
</g>
</g>
<!-- Node1&#45;&gt;Node11 -->
<g id="edge6" class="edge">
<title>Node1&#45;&gt;Node11</title>
<path fill="none" stroke="midnightblue" d="M468.14,-280.34C457.18,-259.24 436.59,-219.6 424.67,-196.65"/>
<polygon fill="midnightblue" stroke="midnightblue" points="427.72,-194.93 420,-187.67 421.51,-198.16 427.72,-194.93"/>
</g>
<!-- Node13 -->
<g id="node8" class="node">
<title>Node13</title>
<g id="a_node8"><a xlink:href="InputManager_8h.html" target="_top" xlink:title=" ">
<polygon fill="white" stroke="black" points="232.5,-224.5 232.5,-243.5 324.5,-243.5 324.5,-224.5 232.5,-224.5"/>
<text text-anchor="middle" x="278.5" y="-231.5" font-family="Helvetica,sans-Serif" font-size="10.00">InputManager.h</text>
</a>
</g>
</g>
<!-- Node1&#45;&gt;Node13 -->
<g id="edge10" class="edge">
<title>Node1&#45;&gt;Node13</title>
<path fill="none" stroke="midnightblue" d="M428.81,-280.4C394.62,-270.07 348.79,-256.23 316.76,-246.56"/>
<polygon fill="midnightblue" stroke="midnightblue" points="317.46,-243.11 306.88,-243.57 315.44,-249.81 317.46,-243.11"/>
</g>
<!-- Node16 -->
<g id="node11" class="node">
<title>Node16</title>
<g id="a_node11"><a xlink:href="ScreenManager_8h.html" target="_top" xlink:title=" ">
<polygon fill="white" stroke="black" points="524,-224.5 524,-243.5 625,-243.5 625,-224.5 524,-224.5"/>
<text text-anchor="middle" x="574.5" y="-231.5" font-family="Helvetica,sans-Serif" font-size="10.00">ScreenManager.h</text>
</a>
</g>
</g>
<!-- Node1&#45;&gt;Node16 -->
<g id="edge22" class="edge">
<title>Node1&#45;&gt;Node16</title>
<path fill="none" stroke="midnightblue" d="M498.96,-280.4C514.83,-270.86 535.69,-258.32 551.47,-248.84"/>
<polygon fill="midnightblue" stroke="midnightblue" points="553.33,-251.81 560.09,-243.66 549.72,-245.81 553.33,-251.81"/>
</g>
<!-- Node3 -->
<g id="node3" class="node">
<title>Node3</title>
<g id="a_node3"><a xlink:href="InputActions_8h.html" target="_top" xlink:title=" ">
<polygon fill="white" stroke="black" points="90.5,-56.5 90.5,-75.5 176.5,-75.5 176.5,-56.5 90.5,-56.5"/>
<text text-anchor="middle" x="133.5" y="-63.5" font-family="Helvetica,sans-Serif" font-size="10.00">InputActions.h</text>
</a>
</g>
</g>
<!-- Node2&#45;&gt;Node3 -->
<g id="edge2" class="edge">
<title>Node2&#45;&gt;Node3</title>
<path fill="none" stroke="midnightblue" d="M68.03,-112.32C80.09,-103.98 98.53,-91.21 112.77,-81.35"/>
<polygon fill="midnightblue" stroke="midnightblue" points="114.77,-84.22 121,-75.65 110.78,-78.47 114.77,-84.22"/>
</g>
<!-- Node2&#45;&gt;Node4 -->
<g id="edge3" class="edge">
<title>Node2&#45;&gt;Node4</title>
<path fill="none" stroke="midnightblue" d="M109.85,-112.44C179.31,-101.51 297.89,-82.84 359.2,-73.19"/>
<polygon fill="midnightblue" stroke="midnightblue" points="359.92,-76.62 369.25,-71.6 358.83,-69.7 359.92,-76.62"/>
</g>
<!-- Node2&#45;&gt;Node5 -->
<g id="edge5" class="edge">
<title>Node2&#45;&gt;Node5</title>
<path fill="none" stroke="midnightblue" d="M56.21,-112.11C57.87,-97.71 63.39,-69.53 81.5,-56 116.39,-29.93 410.87,-16.57 521.62,-12.43"/>
<polygon fill="midnightblue" stroke="midnightblue" points="521.88,-15.93 531.74,-12.06 521.62,-8.93 521.88,-15.93"/>
</g>
<!-- Node4&#45;&gt;Node5 -->
<g id="edge4" class="edge">
<title>Node4&#45;&gt;Node5</title>
<path fill="none" stroke="midnightblue" d="M424.64,-56.44C452.52,-47.32 496.85,-32.81 527.9,-22.65"/>
<polygon fill="midnightblue" stroke="midnightblue" points="529.06,-25.95 537.48,-19.52 526.88,-19.3 529.06,-25.95"/>
</g>
<!-- Node11&#45;&gt;Node4 -->
<g id="edge9" class="edge">
<title>Node11&#45;&gt;Node4</title>
<path fill="none" stroke="midnightblue" d="M422.71,-168.12C431.99,-155.56 446.07,-131.92 438.5,-112 434.16,-100.6 425.47,-90.24 417.29,-82.34"/>
<polygon fill="midnightblue" stroke="midnightblue" points="419.54,-79.66 409.77,-75.57 414.86,-84.86 419.54,-79.66"/>
</g>
<!-- Node12 -->
<g id="node7" class="node">
<title>Node12</title>
<g id="a_node7"><a xlink:href="DisplayInterface_8h.html" target="_top" xlink:title=" ">
<polygon fill="white" stroke="black" points="205.5,-112.5 205.5,-131.5 311.5,-131.5 311.5,-112.5 205.5,-112.5"/>
<text text-anchor="middle" x="258.5" y="-119.5" font-family="Helvetica,sans-Serif" font-size="10.00">DisplayInterface.h</text>
</a>
</g>
</g>
<!-- Node11&#45;&gt;Node12 -->
<g id="edge7" class="edge">
<title>Node11&#45;&gt;Node12</title>
<path fill="none" stroke="midnightblue" d="M390.62,-168.44C364.21,-159.36 322.28,-144.94 292.76,-134.78"/>
<polygon fill="midnightblue" stroke="midnightblue" points="293.86,-131.46 283.26,-131.52 291.58,-138.08 293.86,-131.46"/>
</g>
<!-- Node12&#45;&gt;Node4 -->
<g id="edge8" class="edge">
<title>Node12&#45;&gt;Node4</title>
<path fill="none" stroke="midnightblue" d="M280.68,-112.44C303.93,-103.48 340.65,-89.31 366.92,-79.18"/>
<polygon fill="midnightblue" stroke="midnightblue" points="368.35,-82.38 376.42,-75.52 365.83,-75.85 368.35,-82.38"/>
</g>
<!-- Node13&#45;&gt;Node2 -->
<g id="edge11" class="edge">
<title>Node13&#45;&gt;Node2</title>
<path fill="none" stroke="midnightblue" d="M232.47,-226.05C199.83,-219.68 155.9,-208.09 121.5,-188 99.91,-175.39 80.2,-154.12 68.05,-139.36"/>
<polygon fill="midnightblue" stroke="midnightblue" points="70.78,-137.18 61.81,-131.54 65.31,-141.54 70.78,-137.18"/>
</g>
<!-- Node13&#45;&gt;Node4 -->
<g id="edge20" class="edge">
<title>Node13&#45;&gt;Node4</title>
<path fill="none" stroke="midnightblue" d="M283.72,-224.2C295.93,-203.84 327.65,-152.13 358.5,-112 366.14,-102.06 375.41,-91.55 383.1,-83.19"/>
<polygon fill="midnightblue" stroke="midnightblue" points="385.88,-85.34 390.14,-75.64 380.76,-80.56 385.88,-85.34"/>
</g>
<!-- Node13&#45;&gt;Node12 -->
<g id="edge14" class="edge">
<title>Node13&#45;&gt;Node12</title>
<path fill="none" stroke="midnightblue" d="M276.93,-224.37C273.7,-206.62 266.26,-165.67 261.88,-141.6"/>
<polygon fill="midnightblue" stroke="midnightblue" points="265.29,-140.8 260.06,-131.59 258.41,-142.06 265.29,-140.8"/>
</g>
<!-- Node14 -->
<g id="node9" class="node">
<title>Node14</title>
<g id="a_node9"><a xlink:href="Defines_8h.html" target="_top" xlink:title=" ">
<polygon fill="white" stroke="black" points="367.5,-112.5 367.5,-131.5 429.5,-131.5 429.5,-112.5 367.5,-112.5"/>
<text text-anchor="middle" x="398.5" y="-119.5" font-family="Helvetica,sans-Serif" font-size="10.00">Defines.h</text>
</a>
</g>
</g>
<!-- Node13&#45;&gt;Node14 -->
<g id="edge12" class="edge">
<title>Node13&#45;&gt;Node14</title>
<path fill="none" stroke="midnightblue" d="M287.92,-224.37C308.16,-205.81 356.05,-161.91 381.66,-138.44"/>
<polygon fill="midnightblue" stroke="midnightblue" points="384.12,-140.93 389.13,-131.59 379.39,-135.77 384.12,-140.93"/>
</g>
<!-- Node15 -->
<g id="node10" class="node">
<title>Node15</title>
<g id="a_node10"><a xlink:href="InputInterface_8h.html" target="_top" xlink:title=" ">
<polygon fill="white" stroke="black" points="130.5,-168.5 130.5,-187.5 224.5,-187.5 224.5,-168.5 130.5,-168.5"/>
<text text-anchor="middle" x="177.5" y="-175.5" font-family="Helvetica,sans-Serif" font-size="10.00">InputInterface.h</text>
</a>
</g>
</g>
<!-- Node13&#45;&gt;Node15 -->
<g id="edge15" class="edge">
<title>Node13&#45;&gt;Node15</title>
<path fill="none" stroke="midnightblue" d="M262.27,-224.32C246.15,-215.7 221.2,-202.36 202.54,-192.39"/>
<polygon fill="midnightblue" stroke="midnightblue" points="204.16,-189.28 193.69,-187.65 200.86,-195.46 204.16,-189.28"/>
</g>
<!-- Node14&#45;&gt;Node4 -->
<g id="edge13" class="edge">
<title>Node14&#45;&gt;Node4</title>
<path fill="none" stroke="midnightblue" d="M398.5,-112.08C398.5,-105.01 398.5,-94.86 398.5,-85.99"/>
<polygon fill="midnightblue" stroke="midnightblue" points="402,-85.75 398.5,-75.75 395,-85.75 402,-85.75"/>
</g>
<!-- Node15&#45;&gt;Node2 -->
<g id="edge16" class="edge">
<title>Node15&#45;&gt;Node2</title>
<path fill="none" stroke="midnightblue" d="M158.17,-168.44C138.18,-159.6 106.76,-145.69 83.94,-135.59"/>
<polygon fill="midnightblue" stroke="midnightblue" points="85.3,-132.36 74.74,-131.52 82.47,-138.76 85.3,-132.36"/>
</g>
<!-- Node15&#45;&gt;Node3 -->
<g id="edge18" class="edge">
<title>Node15&#45;&gt;Node3</title>
<path fill="none" stroke="midnightblue" d="M174.05,-168.37C166.88,-150.46 150.27,-108.92 140.68,-84.95"/>
<polygon fill="midnightblue" stroke="midnightblue" points="143.9,-83.58 136.94,-75.59 137.4,-86.18 143.9,-83.58"/>
</g>
<!-- Node15&#45;&gt;Node4 -->
<g id="edge19" class="edge">
<title>Node15&#45;&gt;Node4</title>
<path fill="none" stroke="midnightblue" d="M177.41,-168.43C177.74,-154.49 180.54,-126.95 196.5,-112 219.68,-90.28 307.21,-77.1 359.13,-71.02"/>
<polygon fill="midnightblue" stroke="midnightblue" points="359.78,-74.47 369.33,-69.86 358.99,-67.51 359.78,-74.47"/>
</g>
<!-- Node15&#45;&gt;Node12 -->
<g id="edge17" class="edge">
<title>Node15&#45;&gt;Node12</title>
<path fill="none" stroke="midnightblue" d="M190.51,-168.32C203.03,-159.98 222.18,-147.21 236.97,-137.35"/>
<polygon fill="midnightblue" stroke="midnightblue" points="239.14,-140.11 245.52,-131.65 235.26,-134.29 239.14,-140.11"/>
</g>
<!-- Node17 -->
<g id="node12" class="node">
<title>Node17</title>
<g id="a_node12"><a xlink:href="Screen_8h.html" target="_top" xlink:title=" ">
<polygon fill="white" stroke="black" points="545,-168.5 545,-187.5 604,-187.5 604,-168.5 545,-168.5"/>
<text text-anchor="middle" x="574.5" y="-175.5" font-family="Helvetica,sans-Serif" font-size="10.00">Screen.h</text>
</a>
</g>
</g>
<!-- Node16&#45;&gt;Node17 -->
<g id="edge23" class="edge">
<title>Node16&#45;&gt;Node17</title>
<path fill="none" stroke="midnightblue" d="M574.5,-224.08C574.5,-217.01 574.5,-206.86 574.5,-197.99"/>
<polygon fill="midnightblue" stroke="midnightblue" points="578,-197.75 574.5,-187.75 571,-197.75 578,-197.75"/>
</g>
<!-- Node17&#45;&gt;Node5 -->
<g id="edge27" class="edge">
<title>Node17&#45;&gt;Node5</title>
<path fill="none" stroke="midnightblue" d="M585.21,-168.3C594.44,-160.07 607.09,-146.79 612.5,-132 615.55,-123.65 614.49,-120.66 612.5,-112 605.29,-80.64 587,-47.72 574.92,-28.3"/>
<polygon fill="midnightblue" stroke="midnightblue" points="577.75,-26.22 569.41,-19.68 571.85,-29.99 577.75,-26.22"/>
</g>
<!-- Node18 -->
<g id="node13" class="node">
<title>Node18</title>
<g id="a_node13"><a xlink:href="ScreenRow_8h.html" target="_top" xlink:title=" ">
<polygon fill="white" stroke="black" points="524,-112.5 524,-131.5 603,-131.5 603,-112.5 524,-112.5"/>
<text text-anchor="middle" x="563.5" y="-119.5" font-family="Helvetica,sans-Serif" font-size="10.00">ScreenRow.h</text>
</a>
</g>
</g>
<!-- Node17&#45;&gt;Node18 -->
<g id="edge24" class="edge">
<title>Node17&#45;&gt;Node18</title>
<path fill="none" stroke="midnightblue" d="M572.68,-168.08C571.23,-160.93 569.13,-150.64 567.31,-141.69"/>
<polygon fill="midnightblue" stroke="midnightblue" points="570.71,-140.85 565.28,-131.75 563.85,-142.25 570.71,-140.85"/>
</g>
<!-- Node18&#45;&gt;Node4 -->
<g id="edge25" class="edge">
<title>Node18&#45;&gt;Node4</title>
<path fill="none" stroke="midnightblue" d="M537.36,-112.44C509.48,-103.32 465.15,-88.81 434.1,-78.65"/>
<polygon fill="midnightblue" stroke="midnightblue" points="435.12,-75.3 424.52,-75.52 432.94,-81.95 435.12,-75.3"/>
</g>
<!-- Node18&#45;&gt;Node5 -->
<g id="edge26" class="edge">
<title>Node18&#45;&gt;Node5</title>
<path fill="none" stroke="midnightblue" d="M563.5,-112.37C563.5,-94.62 563.5,-53.67 563.5,-29.6"/>
<polygon fill="midnightblue" stroke="midnightblue" points="567,-29.59 563.5,-19.59 560,-29.59 567,-29.59"/>
</g>
</g>
</svg>
        <g id="navigator" transform="translate(0 0)" fill="#404254">
                <rect fill="#f2f5e9" fill-opacity="0.5" stroke="#606060" stroke-width=".5" x="0" y="0" width="60" height="60"/>
                <use id="zoomplus" xlink:href="#zoomPlus" x="17" y="9" onmousedown="handleZoom(evt,'in')"/>
                <use id="zoomminus" xlink:href="#zoomMin" x="42" y="9" onmousedown="handleZoom(evt,'out')"/>
                <use id="reset" xlink:href="#resetDef" x="30" y="36" onmousedown="handleReset()"/>
                <g id="arrowUp" xlink:href="#dirArrow" transform="translate(30 24)" onmousedown="handlePan(0,-1)">
                  <use xlink:href="#rim" fill="#404040">
                        <set attributeName="fill" to="#808080" begin="arrowUp.mouseover" end="arrowUp.mouseout"/>
                  </use>
                  <path fill="none" stroke="white" stroke-width="1.5" d="M0,-3.0v7 M-2.5,-0.5L0,-3.0L2.5,-0.5"/>
                </g>
                <g id="arrowRight" xlink:href="#dirArrow" transform="rotate(90) translate(36 -43)" onmousedown="handlePan(1,0)">
                  <use xlink:href="#rim" fill="#404040">
                        <set attributeName="fill" to="#808080" begin="arrowRight.mouseover" end="arrowRight.mouseout"/>
                  </use>
                  <path fill="none" stroke="white" stroke-width="1.5" d="M0,-3.0v7 M-2.5,-0.5L0,-3.0L2.5,-0.5"/>
                </g>
                <g id="arrowDown" xlink:href="#dirArrow" transform="rotate(180) translate(-30 -48)" onmousedown="handlePan(0,1)">
                  <use xlink:href="#rim" fill="#404040">
                        <set attributeName="fill" to="#808080" begin="arrowDown.mouseover" end="arrowDown.mouseout"/>
                  </use>
                  <path fill="none" stroke="white" stroke-width="1.5" d="M0,-3.0v7 M-2.5,-0.5L0,-3.0L2.5,-0.5"/>
                </g>
                <g id="arrowLeft" xlink:href="#dirArrow" transform="rotate(270) translate(-36 17)" onmousedown="handlePan(-1,0)">
                  <use xlink:href="#rim" fill="#404040">
                        <set attributeName="fill" to="#808080" begin="arrowLeft.mouseover" end="arrowLeft.mouseout"/>
                  </use>
                  <path fill="none" stroke="white" stroke-width="1.5" d="M0,-3.0v7 M-2.5,-0.5L0,-3.0L2.5,-0.5"/>
                </g>
        </g>
        <svg viewBox="0 0 15 15" width="100%" height="30px" preserveAspectRatio="xMaxYMin meet">
         <g id="arrow_out" transform="scale(0.3 0.3)">
          <a xlink:href="Controller_8h__incl_org.svg" target="_base">
           <rect id="button" ry="5" rx="5" y="6" x="6" height="38" width="38"
                fill="#f2f5e9" fill-opacity="0.5" stroke="#606060" stroke-width="1.0"/>
           <path id="arrow"
             d="M 11.500037,31.436501 C 11.940474,20.09759 22.043105,11.32322 32.158766,21.979434 L 37.068811,17.246167 C 37.068811,17.246167 37.088388,32 37.088388,32 L 22.160133,31.978069 C 22.160133,31.978069 26.997745,27.140456 26.997745,27.140456 C 18.528582,18.264221 13.291696,25.230495 11.500037,31.436501 z"
             style="fill:#404040;"/>
          </a>
         </g>
        </svg>
</svg>
