<?xml version="1.0" encoding="UTF-8" standalone="no"?>
<!DOCTYPE svg PUBLIC "-//W3C//DTD SVG 1.1//EN"
 "http://www.w3.org/Graphics/SVG/1.1/DTD/svg11.dtd">
<!-- Generated by graphviz version 2.43.0 (0)
 -->
<!-- Title: /home/runner/work/EX&#45;Display/EX&#45;Display/Controller.cpp Pages: 1 -->
<svg width="713pt" height="375pt"
 viewBox="0.00 0.00 712.50 375.00" xmlns="http://www.w3.org/2000/svg" xmlns:xlink="http://www.w3.org/1999/xlink">
<g id="graph0" class="graph" transform="scale(1 1) rotate(0) translate(4 371)">
<title>/home/runner/work/EX&#45;Display/EX&#45;Display/Controller.cpp</title>
<polygon fill="white" stroke="transparent" points="-4,4 -4,-371 708.5,-371 708.5,4 -4,4"/>
<!-- Node1 -->
<g id="node1" class="node">
<title>Node1</title>
<g id="a_node1"><a xlink:title=" ">
<polygon fill="#bfbfbf" stroke="black" points="416,-336.5 416,-366.5 599,-366.5 599,-336.5 416,-336.5"/>
<text text-anchor="start" x="424" y="-354.5" font-family="Helvetica,sans-Serif" font-size="10.00">/home/runner/work/EX</text>
<text text-anchor="middle" x="507.5" y="-343.5" font-family="Helvetica,sans-Serif" font-size="10.00">&#45;Display/EX&#45;Display/Controller.cpp</text>
</a>
</g>
</g>
<!-- Node2 -->
<g id="node2" class="node">
<title>Node2</title>
<g id="a_node2"><a xlink:href="Controller_8h.html" target="_top" xlink:title=" ">
<polygon fill="white" stroke="black" points="471,-280.5 471,-299.5 544,-299.5 544,-280.5 471,-280.5"/>
<text text-anchor="middle" x="507.5" y="-287.5" font-family="Helvetica,sans-Serif" font-size="10.00">Controller.h</text>
</a>
</g>
</g>
<!-- Node1&#45;&gt;Node2 -->
<g id="edge1" class="edge">
<title>Node1&#45;&gt;Node2</title>
<path fill="none" stroke="midnightblue" d="M507.5,-336.4C507.5,-328.47 507.5,-318.46 507.5,-309.86"/>
<polygon fill="midnightblue" stroke="midnightblue" points="511,-309.66 507.5,-299.66 504,-309.66 511,-309.66"/>
</g>
<!-- Node20 -->
<g id="node13" class="node">
<title>Node20</title>
<g id="a_node13"><a xlink:href="AtFinder_8h.html" target="_top" xlink:title=" ">
<polygon fill="white" stroke="black" points="0,-168.5 0,-187.5 65,-187.5 65,-168.5 0,-168.5"/>
<text text-anchor="middle" x="32.5" y="-175.5" font-family="Helvetica,sans-Serif" font-size="10.00">AtFinder.h</text>
</a>
</g>
</g>
<!-- Node1&#45;&gt;Node20 -->
<g id="edge26" class="edge">
<title>Node1&#45;&gt;Node20</title>
<path fill="none" stroke="midnightblue" d="M463.12,-336.42C401.87,-316.78 288.14,-279.56 192.5,-244 146.4,-226.86 93.69,-205 61.76,-191.5"/>
<polygon fill="midnightblue" stroke="midnightblue" points="63.13,-188.28 52.55,-187.6 60.39,-194.72 63.13,-188.28"/>
</g>
<!-- Node21 -->
<g id="node14" class="node">
<title>Node21</title>
<g id="a_node14"><a xlink:href="Version_8h.html" target="_top" xlink:title=" ">
<polygon fill="white" stroke="black" points="562.5,-280.5 562.5,-299.5 624.5,-299.5 624.5,-280.5 562.5,-280.5"/>
<text text-anchor="middle" x="593.5" y="-287.5" font-family="Helvetica,sans-Serif" font-size="10.00">Version.h</text>
</a>
</g>
</g>
<!-- Node1&#45;&gt;Node21 -->
<g id="edge30" class="edge">
<title>Node1&#45;&gt;Node21</title>
<path fill="none" stroke="midnightblue" d="M527.88,-336.4C541.41,-327.04 559.11,-314.79 572.72,-305.38"/>
<polygon fill="midnightblue" stroke="midnightblue" points="574.75,-308.23 580.99,-299.66 570.77,-302.47 574.75,-308.23"/>
</g>
<!-- Node3 -->
<g id="node3" class="node">
<title>Node3</title>
<g id="a_node3"><a xlink:href="CallbackInterface_8h.html" target="_top" xlink:title=" ">
<polygon fill="white" stroke="black" points="51,-112.5 51,-131.5 162,-131.5 162,-112.5 51,-112.5"/>
<text text-anchor="middle" x="106.5" y="-119.5" font-family="Helvetica,sans-Serif" font-size="10.00">CallbackInterface.h</text>
</a>
</g>
</g>
<!-- Node2&#45;&gt;Node3 -->
<g id="edge2" class="edge">
<title>Node2&#45;&gt;Node3</title>
<path fill="none" stroke="midnightblue" d="M470.81,-288.89C399.01,-286.74 238.59,-272.13 142.5,-188 128.27,-175.54 118.53,-156.03 112.81,-141.63"/>
<polygon fill="midnightblue" stroke="midnightblue" points="115.94,-140 109.2,-131.82 109.36,-142.42 115.94,-140"/>
</g>
<!-- Node5 -->
<g id="node5" class="node">
<title>Node5</title>
<g id="a_node5"><a xlink:href="Logger_8h.html" target="_top" xlink:title=" ">
<polygon fill="white" stroke="black" points="258.5,-56.5 258.5,-75.5 316.5,-75.5 316.5,-56.5 258.5,-56.5"/>
<text text-anchor="middle" x="287.5" y="-63.5" font-family="Helvetica,sans-Serif" font-size="10.00">Logger.h</text>
</a>
</g>
</g>
<!-- Node2&#45;&gt;Node5 -->
<g id="edge23" class="edge">
<title>Node2&#45;&gt;Node5</title>
<path fill="none" stroke="midnightblue" d="M533.7,-280.39C583.45,-262.62 683.54,-219.24 647.5,-168 610.21,-115 412.08,-83.23 326.7,-71.82"/>
<polygon fill="midnightblue" stroke="midnightblue" points="327,-68.33 316.63,-70.5 326.09,-75.27 327,-68.33"/>
</g>
<!-- Node6 -->
<g id="node6" class="node">
<title>Node6</title>
<g id="a_node6"><a xlink:href="Arduino_8h.html" target="_top" xlink:title=" ">
<polygon fill="white" stroke="red" points="168,-0.5 168,-19.5 231,-19.5 231,-0.5 168,-0.5"/>
<text text-anchor="middle" x="199.5" y="-7.5" font-family="Helvetica,sans-Serif" font-size="10.00">Arduino.h</text>
</a>
</g>
</g>
<!-- Node2&#45;&gt;Node6 -->
<g id="edge25" class="edge">
<title>Node2&#45;&gt;Node6</title>
<path fill="none" stroke="midnightblue" d="M544.16,-281.09C571.55,-274.1 609.16,-262.16 638.5,-244 673.51,-222.33 704.5,-220.17 704.5,-179 704.5,-179 704.5,-179 704.5,-121 704.5,-26.5 362.6,-13.04 241.44,-11.24"/>
<polygon fill="midnightblue" stroke="midnightblue" points="241.13,-7.73 231.09,-11.1 241.04,-14.73 241.13,-7.73"/>
</g>
<!-- Node12 -->
<g id="node7" class="node">
<title>Node12</title>
<g id="a_node7"><a xlink:href="DisplayManager_8h.html" target="_top" xlink:title=" ">
<polygon fill="white" stroke="black" points="455.5,-224.5 455.5,-243.5 559.5,-243.5 559.5,-224.5 455.5,-224.5"/>
<text text-anchor="middle" x="507.5" y="-231.5" font-family="Helvetica,sans-Serif" font-size="10.00">DisplayManager.h</text>
</a>
</g>
</g>
<!-- Node2&#45;&gt;Node12 -->
<g id="edge7" class="edge">
<title>Node2&#45;&gt;Node12</title>
<path fill="none" stroke="midnightblue" d="M507.5,-280.08C507.5,-273.01 507.5,-262.86 507.5,-253.99"/>
<polygon fill="midnightblue" stroke="midnightblue" points="511,-253.75 507.5,-243.75 504,-253.75 511,-253.75"/>
</g>
<!-- Node16 -->
<g id="node9" class="node">
<title>Node16</title>
<g id="a_node9"><a xlink:href="ScreenManager_8h.html" target="_top" xlink:title=" ">
<polygon fill="white" stroke="red" points="537,-168.5 537,-187.5 638,-187.5 638,-168.5 537,-168.5"/>
<text text-anchor="middle" x="587.5" y="-175.5" font-family="Helvetica,sans-Serif" font-size="10.00">ScreenManager.h</text>
</a>
</g>
</g>
<!-- Node2&#45;&gt;Node16 -->
<g id="edge24" class="edge">
<title>Node2&#45;&gt;Node16</title>
<path fill="none" stroke="midnightblue" d="M524.68,-280.41C538.45,-272.68 557.27,-260.07 568.5,-244 578.07,-230.3 582.87,-211.76 585.25,-197.99"/>
<polygon fill="midnightblue" stroke="midnightblue" points="588.76,-198.15 586.73,-187.76 581.83,-197.15 588.76,-198.15"/>
</g>
<!-- Node17 -->
<g id="node10" class="node">
<title>Node17</title>
<g id="a_node10"><a xlink:href="InputManager_8h.html" target="_top" xlink:title=" ">
<polygon fill="white" stroke="black" points="294.5,-224.5 294.5,-243.5 386.5,-243.5 386.5,-224.5 294.5,-224.5"/>
<text text-anchor="middle" x="340.5" y="-231.5" font-family="Helvetica,sans-Serif" font-size="10.00">InputManager.h</text>
</a>
</g>
</g>
<!-- Node2&#45;&gt;Node17 -->
<g id="edge12" class="edge">
<title>Node2&#45;&gt;Node17</title>
<path fill="none" stroke="midnightblue" d="M481.04,-280.44C452.82,-271.32 407.96,-256.81 376.53,-246.65"/>
<polygon fill="midnightblue" stroke="midnightblue" points="377.43,-243.26 366.84,-243.52 375.28,-249.92 377.43,-243.26"/>
</g>
<!-- Node4 -->
<g id="node4" class="node">
<title>Node4</title>
<g id="a_node4"><a xlink:href="InputActions_8h.html" target="_top" xlink:title=" ">
<polygon fill="white" stroke="black" points="143.5,-56.5 143.5,-75.5 229.5,-75.5 229.5,-56.5 143.5,-56.5"/>
<text text-anchor="middle" x="186.5" y="-63.5" font-family="Helvetica,sans-Serif" font-size="10.00">InputActions.h</text>
</a>
</g>
</g>
<!-- Node3&#45;&gt;Node4 -->
<g id="edge3" class="edge">
<title>Node3&#45;&gt;Node4</title>
<path fill="none" stroke="midnightblue" d="M119.35,-112.32C131.72,-103.98 150.63,-91.21 165.24,-81.35"/>
<polygon fill="midnightblue" stroke="midnightblue" points="167.35,-84.15 173.68,-75.65 163.43,-78.35 167.35,-84.15"/>
</g>
<!-- Node3&#45;&gt;Node5 -->
<g id="edge4" class="edge">
<title>Node3&#45;&gt;Node5</title>
<path fill="none" stroke="midnightblue" d="M135.18,-112.44C166.03,-103.24 215.23,-88.56 249.33,-78.39"/>
<polygon fill="midnightblue" stroke="midnightblue" points="250.37,-81.73 258.95,-75.52 248.37,-75.02 250.37,-81.73"/>
</g>
<!-- Node3&#45;&gt;Node6 -->
<g id="edge6" class="edge">
<title>Node3&#45;&gt;Node6</title>
<path fill="none" stroke="midnightblue" d="M108.62,-112.18C112.16,-98.86 120.33,-73.3 134.5,-56 144.99,-43.18 160.04,-32.45 173.02,-24.68"/>
<polygon fill="midnightblue" stroke="midnightblue" points="175.05,-27.55 182,-19.56 171.58,-21.47 175.05,-27.55"/>
</g>
<!-- Node5&#45;&gt;Node6 -->
<g id="edge5" class="edge">
<title>Node5&#45;&gt;Node6</title>
<path fill="none" stroke="midnightblue" d="M273.36,-56.32C259.63,-47.9 238.56,-34.97 222.44,-25.07"/>
<polygon fill="midnightblue" stroke="midnightblue" points="223.96,-21.9 213.6,-19.65 220.3,-27.87 223.96,-21.9"/>
</g>
<!-- Node12&#45;&gt;Node5 -->
<g id="edge10" class="edge">
<title>Node12&#45;&gt;Node5</title>
<path fill="none" stroke="midnightblue" d="M507.49,-224.19C506.97,-201.91 502.39,-142.91 469.5,-112 449.1,-92.83 373.96,-79.11 326.84,-72.16"/>
<polygon fill="midnightblue" stroke="midnightblue" points="327.07,-68.66 316.67,-70.71 326.07,-75.59 327.07,-68.66"/>
</g>
<!-- Node13 -->
<g id="node8" class="node">
<title>Node13</title>
<g id="a_node8"><a xlink:href="DisplayInterface_8h.html" target="_top" xlink:title=" ">
<polygon fill="white" stroke="red" points="336.5,-112.5 336.5,-131.5 442.5,-131.5 442.5,-112.5 336.5,-112.5"/>
<text text-anchor="middle" x="389.5" y="-119.5" font-family="Helvetica,sans-Serif" font-size="10.00">DisplayInterface.h</text>
</a>
</g>
</g>
<!-- Node12&#45;&gt;Node13 -->
<g id="edge8" class="edge">
<title>Node12&#45;&gt;Node13</title>
<path fill="none" stroke="midnightblue" d="M498.24,-224.37C478.34,-205.81 431.24,-161.91 406.06,-138.44"/>
<polygon fill="midnightblue" stroke="midnightblue" points="408.42,-135.85 398.72,-131.59 403.64,-140.97 408.42,-135.85"/>
</g>
<!-- Node12&#45;&gt;Node16 -->
<g id="edge11" class="edge">
<title>Node12&#45;&gt;Node16</title>
<path fill="none" stroke="midnightblue" d="M520.35,-224.32C532.72,-215.98 551.63,-203.21 566.24,-193.35"/>
<polygon fill="midnightblue" stroke="midnightblue" points="568.35,-196.15 574.68,-187.65 564.43,-190.35 568.35,-196.15"/>
</g>
<!-- Node13&#45;&gt;Node5 -->
<g id="edge9" class="edge">
<title>Node13&#45;&gt;Node5</title>
<path fill="none" stroke="midnightblue" d="M373.11,-112.32C356.83,-103.7 331.63,-90.36 312.78,-80.39"/>
<polygon fill="midnightblue" stroke="midnightblue" points="314.32,-77.24 303.85,-75.65 311.05,-83.43 314.32,-77.24"/>
</g>
<!-- Node17&#45;&gt;Node3 -->
<g id="edge13" class="edge">
<title>Node17&#45;&gt;Node3</title>
<path fill="none" stroke="midnightblue" d="M294.2,-227.16C259.01,-221.21 210.37,-209.67 172.5,-188 150.8,-175.58 131.11,-154.27 119,-139.45"/>
<polygon fill="midnightblue" stroke="midnightblue" points="121.73,-137.26 112.78,-131.59 116.24,-141.6 121.73,-137.26"/>
</g>
<!-- Node17&#45;&gt;Node5 -->
<g id="edge22" class="edge">
<title>Node17&#45;&gt;Node5</title>
<path fill="none" stroke="midnightblue" d="M359.67,-224.38C399.75,-205.2 485.9,-157.11 451.5,-112 436.42,-92.22 370.15,-78.98 326.6,-72.25"/>
<polygon fill="midnightblue" stroke="midnightblue" points="327.01,-68.77 316.6,-70.75 325.98,-75.69 327.01,-68.77"/>
</g>
<!-- Node17&#45;&gt;Node13 -->
<g id="edge16" class="edge">
<title>Node17&#45;&gt;Node13</title>
<path fill="none" stroke="midnightblue" d="M344.34,-224.37C352.32,-206.46 370.83,-164.92 381.5,-140.95"/>
<polygon fill="midnightblue" stroke="midnightblue" points="384.8,-142.15 385.67,-131.59 378.41,-139.3 384.8,-142.15"/>
</g>
<!-- Node18 -->
<g id="node11" class="node">
<title>Node18</title>
<g id="a_node11"><a xlink:href="Defines_8h.html" target="_top" xlink:title=" ">
<polygon fill="white" stroke="black" points="256.5,-112.5 256.5,-131.5 318.5,-131.5 318.5,-112.5 256.5,-112.5"/>
<text text-anchor="middle" x="287.5" y="-119.5" font-family="Helvetica,sans-Serif" font-size="10.00">Defines.h</text>
</a>
</g>
</g>
<!-- Node17&#45;&gt;Node18 -->
<g id="edge14" class="edge">
<title>Node17&#45;&gt;Node18</title>
<path fill="none" stroke="midnightblue" d="M336.34,-224.37C327.67,-206.38 307.52,-164.55 295.99,-140.63"/>
<polygon fill="midnightblue" stroke="midnightblue" points="299.13,-139.08 291.64,-131.59 292.83,-142.12 299.13,-139.08"/>
</g>
<!-- Node19 -->
<g id="node12" class="node">
<title>Node19</title>
<g id="a_node12"><a xlink:href="InputInterface_8h.html" target="_top" xlink:title=" ">
<polygon fill="white" stroke="black" points="181.5,-168.5 181.5,-187.5 275.5,-187.5 275.5,-168.5 181.5,-168.5"/>
<text text-anchor="middle" x="228.5" y="-175.5" font-family="Helvetica,sans-Serif" font-size="10.00">InputInterface.h</text>
</a>
</g>
</g>
<!-- Node17&#45;&gt;Node19 -->
<g id="edge17" class="edge">
<title>Node17&#45;&gt;Node19</title>
<path fill="none" stroke="midnightblue" d="M322.51,-224.32C304.46,-215.62 276.45,-202.12 255.7,-192.11"/>
<polygon fill="midnightblue" stroke="midnightblue" points="256.98,-188.84 246.45,-187.65 253.94,-195.15 256.98,-188.84"/>
</g>
<!-- Node18&#45;&gt;Node5 -->
<g id="edge15" class="edge">
<title>Node18&#45;&gt;Node5</title>
<path fill="none" stroke="midnightblue" d="M287.5,-112.08C287.5,-105.01 287.5,-94.86 287.5,-85.99"/>
<polygon fill="midnightblue" stroke="midnightblue" points="291,-85.75 287.5,-75.75 284,-85.75 291,-85.75"/>
</g>
<!-- Node19&#45;&gt;Node3 -->
<g id="edge18" class="edge">
<title>Node19&#45;&gt;Node3</title>
<path fill="none" stroke="midnightblue" d="M209.17,-168.44C189.18,-159.6 157.76,-145.69 134.94,-135.59"/>
<polygon fill="midnightblue" stroke="midnightblue" points="136.3,-132.36 125.74,-131.52 133.47,-138.76 136.3,-132.36"/>
</g>
<!-- Node19&#45;&gt;Node4 -->
<g id="edge20" class="edge">
<title>Node19&#45;&gt;Node4</title>
<path fill="none" stroke="midnightblue" d="M225.2,-168.37C218.37,-150.46 202.51,-108.92 193.35,-84.95"/>
<polygon fill="midnightblue" stroke="midnightblue" points="196.62,-83.69 189.78,-75.59 190.08,-86.18 196.62,-83.69"/>
</g>
<!-- Node19&#45;&gt;Node5 -->
<g id="edge21" class="edge">
<title>Node19&#45;&gt;Node5</title>
<path fill="none" stroke="midnightblue" d="M229.82,-168.11C232.02,-155.13 237.25,-130.52 247.5,-112 253.42,-101.3 262.29,-90.98 270.17,-82.93"/>
<polygon fill="midnightblue" stroke="midnightblue" points="272.86,-85.19 277.57,-75.7 267.97,-80.18 272.86,-85.19"/>
</g>
<!-- Node19&#45;&gt;Node13 -->
<g id="edge19" class="edge">
<title>Node19&#45;&gt;Node13</title>
<path fill="none" stroke="midnightblue" d="M254.01,-168.44C281.1,-159.36 324.09,-144.94 354.37,-134.78"/>
<polygon fill="midnightblue" stroke="midnightblue" points="355.74,-138.01 364.11,-131.52 353.51,-131.38 355.74,-138.01"/>
</g>
<!-- Node20&#45;&gt;Node3 -->
<g id="edge27" class="edge">
<title>Node20&#45;&gt;Node3</title>
<path fill="none" stroke="midnightblue" d="M44.39,-168.32C55.65,-160.11 72.79,-147.6 86.21,-137.81"/>
<polygon fill="midnightblue" stroke="midnightblue" points="88.38,-140.56 94.39,-131.83 84.25,-134.9 88.38,-140.56"/>
</g>
<!-- Node20&#45;&gt;Node5 -->
<g id="edge28" class="edge">
<title>Node20&#45;&gt;Node5</title>
<path fill="none" stroke="midnightblue" d="M30.79,-168.06C28.69,-154.09 27,-127.14 41.5,-112 72.28,-79.86 194.73,-84.02 238.5,-76 241.73,-75.41 245.09,-74.79 248.45,-74.18"/>
<polygon fill="midnightblue" stroke="midnightblue" points="249.28,-77.58 258.48,-72.33 248.01,-70.7 249.28,-77.58"/>
</g>
<!-- Node20&#45;&gt;Node6 -->
<g id="edge29" class="edge">
<title>Node20&#45;&gt;Node6</title>
<path fill="none" stroke="midnightblue" d="M28.97,-168.35C24.22,-155.25 17.45,-129.98 27.5,-112 54.95,-62.89 116.84,-35.43 158.39,-21.93"/>
<polygon fill="midnightblue" stroke="midnightblue" points="159.46,-25.26 167.97,-18.94 157.38,-18.58 159.46,-25.26"/>
</g>
</g>
</svg>
