<?xml version="1.0" encoding="UTF-8" standalone="no"?>
<!DOCTYPE svg PUBLIC "-//W3C//DTD SVG 1.1//EN"
 "http://www.w3.org/Graphics/SVG/1.1/DTD/svg11.dtd">
<!-- Generated by graphviz version 2.43.0 (0)
 -->
<!-- Title: /home/runner/work/EX&#45;Display/EX&#45;Display/Defines.h Pages: 1 -->
<svg width="3677pt" height="379pt"
 viewBox="0.00 0.00 3677.00 379.00" xmlns="http://www.w3.org/2000/svg" xmlns:xlink="http://www.w3.org/1999/xlink">
<g id="graph0" class="graph" transform="scale(1 1) rotate(0) translate(4 375)">
<title>/home/runner/work/EX&#45;Display/EX&#45;Display/Defines.h</title>
<!-- Node1 -->
<g id="Node000001" class="node">
<title>Node1</title>
<g id="a_Node000001"><a xlink:title=" ">
<polygon fill="#999999" stroke="#666666" points="2941,-371 2780,-371 2780,-341 2941,-341 2941,-371"/>
<text text-anchor="start" x="2788" y="-359" font-family="Helvetica,sans-Serif" font-size="10.00">/home/runner/work/EX</text>
<text text-anchor="middle" x="2860.5" y="-348" font-family="Helvetica,sans-Serif" font-size="10.00">&#45;Display/EX&#45;Display/Defines.h</text>
</a>
</g>
</g>
<!-- Node2 -->
<g id="Node000002" class="node">
<title>Node2</title>
<g id="a_Node000002"><a xlink:href="Configurator_8h.html" target="_top" xlink:title=" ">
<polygon fill="white" stroke="#666666" points="2162.5,-129 1978.5,-129 1978.5,-99 2162.5,-99 2162.5,-129"/>
<text text-anchor="start" x="1986.5" y="-117" font-family="Helvetica,sans-Serif" font-size="10.00">/home/runner/work/EX</text>
<text text-anchor="middle" x="2070.5" y="-106" font-family="Helvetica,sans-Serif" font-size="10.00">&#45;Display/EX&#45;Display/Configurator.h</text>
</a>
</g>
</g>
<!-- Node1&#45;&gt;Node2 -->
<g id="edge1_Node000001_Node000002" class="edge">
<title>Node1&#45;&gt;Node2</title>
<g id="a_edge1_Node000001_Node000002"><a xlink:title=" ">
<path fill="none" stroke="#63b8ff" d="M2769.69,-346.28C2701.34,-338.57 2605.69,-325.35 2523.5,-305 2423.35,-280.21 2399.77,-267.61 2304.5,-228 2227.64,-196.05 2140.02,-151.46 2097.08,-129.04"/>
<polygon fill="#63b8ff" stroke="#63b8ff" points="2769.67,-349.8 2780,-347.42 2770.44,-342.84 2769.67,-349.8"/>
</a>
</g>
</g>
<!-- Node6 -->
<g id="Node000006" class="node">
<title>Node6</title>
<g id="a_Node000006"><a xlink:href="InputManager_8h.html" target="_top" xlink:title=" ">
<polygon fill="white" stroke="#666666" points="2723,-299.5 2532,-299.5 2532,-269.5 2723,-269.5 2723,-299.5"/>
<text text-anchor="start" x="2540" y="-287.5" font-family="Helvetica,sans-Serif" font-size="10.00">/home/runner/work/EX</text>
<text text-anchor="middle" x="2627.5" y="-276.5" font-family="Helvetica,sans-Serif" font-size="10.00">&#45;Display/EX&#45;Display/InputManager.h</text>
</a>
</g>
</g>
<!-- Node1&#45;&gt;Node6 -->
<g id="edge5_Node000001_Node000006" class="edge">
<title>Node1&#45;&gt;Node6</title>
<g id="a_edge5_Node000001_Node000006"><a xlink:title=" ">
<path fill="none" stroke="#63b8ff" d="M2803.57,-338.02C2763.98,-326.21 2711.83,-310.65 2674.58,-299.54"/>
<polygon fill="#63b8ff" stroke="#63b8ff" points="2802.77,-341.43 2813.35,-340.94 2804.77,-334.72 2802.77,-341.43"/>
</a>
</g>
</g>
<!-- Node30 -->
<g id="Node000030" class="node">
<title>Node30</title>
<g id="a_Node000030"><a xlink:href="TFT__eSPIDisplay_8h.html" target="_top" xlink:title=" ">
<polygon fill="white" stroke="#666666" points="3161,-305 3028,-305 3028,-264 3161,-264 3161,-305"/>
<text text-anchor="start" x="3036" y="-293" font-family="Helvetica,sans-Serif" font-size="10.00">/home/runner/work/EX</text>
<text text-anchor="start" x="3036" y="-282" font-family="Helvetica,sans-Serif" font-size="10.00">&#45;Display/EX&#45;Display/TFT</text>
<text text-anchor="middle" x="3094.5" y="-271" font-family="Helvetica,sans-Serif" font-size="10.00">_eSPIDisplay.h</text>
</a>
</g>
</g>
<!-- Node1&#45;&gt;Node30 -->
<g id="edge34_Node000001_Node000030" class="edge">
<title>Node1&#45;&gt;Node30</title>
<g id="a_edge34_Node000001_Node000030"><a xlink:title=" ">
<path fill="none" stroke="#63b8ff" d="M2917.51,-338.07C2951.05,-328.11 2993.62,-315.46 3028.6,-305.07"/>
<polygon fill="#63b8ff" stroke="#63b8ff" points="2916.44,-334.73 2907.85,-340.94 2918.44,-341.44 2916.44,-334.73"/>
</a>
</g>
</g>
<!-- Node33 -->
<g id="Node000033" class="node">
<title>Node33</title>
<g id="a_Node000033"><a xlink:href="TFT__eSPITouch_8h.html" target="_top" xlink:title=" ">
<polygon fill="white" stroke="#666666" points="3473,-222.5 3340,-222.5 3340,-181.5 3473,-181.5 3473,-222.5"/>
<text text-anchor="start" x="3348" y="-210.5" font-family="Helvetica,sans-Serif" font-size="10.00">/home/runner/work/EX</text>
<text text-anchor="start" x="3348" y="-199.5" font-family="Helvetica,sans-Serif" font-size="10.00">&#45;Display/EX&#45;Display/TFT</text>
<text text-anchor="middle" x="3406.5" y="-188.5" font-family="Helvetica,sans-Serif" font-size="10.00">_eSPITouch.h</text>
</a>
</g>
</g>
<!-- Node1&#45;&gt;Node33 -->
<g id="edge42_Node000001_Node000033" class="edge">
<title>Node1&#45;&gt;Node33</title>
<g id="a_edge42_Node000001_Node000033"><a xlink:title=" ">
<path fill="none" stroke="#63b8ff" d="M2951.25,-346.37C3013.76,-338.97 3098.25,-326.08 3170.5,-305 3243.34,-283.74 3323.51,-245.74 3369.16,-222.6"/>
<polygon fill="#63b8ff" stroke="#63b8ff" points="2950.56,-342.92 2941.03,-347.55 2951.36,-349.88 2950.56,-342.92"/>
</a>
</g>
</g>
<!-- Node3 -->
<g id="Node000003" class="node">
<title>Node3</title>
<g id="a_Node000003"><a xlink:href="Configurator_8cpp.html" target="_top" xlink:title=" ">
<polygon fill="white" stroke="#666666" points="2726,-41 2531,-41 2531,-11 2726,-11 2726,-41"/>
<text text-anchor="start" x="2539" y="-29" font-family="Helvetica,sans-Serif" font-size="10.00">/home/runner/work/EX</text>
<text text-anchor="middle" x="2628.5" y="-18" font-family="Helvetica,sans-Serif" font-size="10.00">&#45;Display/EX&#45;Display/Configurator.cpp</text>
</a>
</g>
</g>
<!-- Node2&#45;&gt;Node3 -->
<g id="edge2_Node000002_Node000003" class="edge">
<title>Node2&#45;&gt;Node3</title>
<g id="a_edge2_Node000002_Node000003"><a xlink:title=" ">
<path fill="none" stroke="#63b8ff" d="M2132.99,-96.56C2146,-93.46 2159.65,-90.43 2172.5,-88 2295.13,-64.84 2437.94,-47.23 2530.61,-37.02"/>
<polygon fill="#63b8ff" stroke="#63b8ff" points="2132.1,-93.18 2123.2,-98.94 2133.75,-99.98 2132.1,-93.18"/>
</a>
</g>
</g>
<!-- Node4 -->
<g id="Node000004" class="node">
<title>Node4</title>
<g id="a_Node000004"><a xlink:href="EX-Display_8ino.html" target="_top" xlink:title=" ">
<polygon fill="white" stroke="#666666" points="2059.5,-46.5 1931.5,-46.5 1931.5,-5.5 2059.5,-5.5 2059.5,-46.5"/>
<text text-anchor="start" x="1939.5" y="-34.5" font-family="Helvetica,sans-Serif" font-size="10.00">/home/runner/work/EX</text>
<text text-anchor="start" x="1939.5" y="-23.5" font-family="Helvetica,sans-Serif" font-size="10.00">&#45;Display/EX&#45;Display/EX</text>
<text text-anchor="middle" x="1995.5" y="-12.5" font-family="Helvetica,sans-Serif" font-size="10.00">&#45;Display.ino</text>
</a>
</g>
</g>
<!-- Node2&#45;&gt;Node4 -->
<g id="edge3_Node000002_Node000004" class="edge">
<title>Node2&#45;&gt;Node4</title>
<g id="a_edge3_Node000002_Node000004"><a xlink:title=" ">
<path fill="none" stroke="#63b8ff" d="M2051.52,-91.23C2039.57,-77.53 2024.26,-59.98 2012.67,-46.69"/>
<polygon fill="#63b8ff" stroke="#63b8ff" points="2048.9,-93.56 2058.12,-98.8 2054.18,-88.96 2048.9,-93.56"/>
</a>
</g>
</g>
<!-- Node5 -->
<g id="Node000005" class="node">
<title>Node5</title>
<g id="a_Node000005"><a xlink:href="test__Configurator_8cpp.html" target="_top" xlink:title=" ">
<polygon fill="white" stroke="#666666" points="2211.5,-52 2077.5,-52 2077.5,0 2211.5,0 2211.5,-52"/>
<text text-anchor="start" x="2085.5" y="-40" font-family="Helvetica,sans-Serif" font-size="10.00">/home/runner/work/EX</text>
<text text-anchor="start" x="2085.5" y="-29" font-family="Helvetica,sans-Serif" font-size="10.00">&#45;Display/EX&#45;Display/test</text>
<text text-anchor="start" x="2085.5" y="-18" font-family="Helvetica,sans-Serif" font-size="10.00">/unit/test_Configurator</text>
<text text-anchor="middle" x="2144.5" y="-7" font-family="Helvetica,sans-Serif" font-size="10.00">/test_Configurator.cpp</text>
</a>
</g>
</g>
<!-- Node2&#45;&gt;Node5 -->
<g id="edge4_Node000002_Node000005" class="edge">
<title>Node2&#45;&gt;Node5</title>
<g id="a_edge4_Node000002_Node000005"><a xlink:title=" ">
<path fill="none" stroke="#63b8ff" d="M2089.37,-91.07C2099.62,-79.16 2112.34,-64.37 2122.98,-52.01"/>
<polygon fill="#63b8ff" stroke="#63b8ff" points="2086.59,-88.94 2082.72,-98.8 2091.9,-93.5 2086.59,-88.94"/>
</a>
</g>
</g>
<!-- Node6&#45;&gt;Node2 -->
<g id="edge6_Node000006_Node000002" class="edge">
<title>Node6&#45;&gt;Node2</title>
<g id="a_edge6_Node000006_Node000002"><a xlink:title=" ">
<path fill="none" stroke="#63b8ff" d="M2561.28,-266.24C2536.88,-257.6 2510.18,-245.2 2489.5,-228 2468.46,-210.5 2479.61,-190.67 2456.5,-176 2349.09,-107.8 2297.6,-163.18 2172.5,-140 2156.19,-136.98 2138.58,-132.94 2122.67,-129"/>
<polygon fill="#63b8ff" stroke="#63b8ff" points="2560.26,-269.59 2570.85,-269.49 2562.51,-262.96 2560.26,-269.59"/>
</a>
</g>
</g>
<!-- Node7 -->
<g id="Node000007" class="node">
<title>Node7</title>
<g id="a_Node000007"><a xlink:href="Controller_8h.html" target="_top" xlink:title=" ">
<polygon fill="white" stroke="#666666" points="2713.5,-217 2541.5,-217 2541.5,-187 2713.5,-187 2713.5,-217"/>
<text text-anchor="start" x="2549.5" y="-205" font-family="Helvetica,sans-Serif" font-size="10.00">/home/runner/work/EX</text>
<text text-anchor="middle" x="2627.5" y="-194" font-family="Helvetica,sans-Serif" font-size="10.00">&#45;Display/EX&#45;Display/Controller.h</text>
</a>
</g>
</g>
<!-- Node6&#45;&gt;Node7 -->
<g id="edge7_Node000006_Node000007" class="edge">
<title>Node6&#45;&gt;Node7</title>
<g id="a_edge7_Node000006_Node000007"><a xlink:title=" ">
<path fill="none" stroke="#63b8ff" d="M2627.5,-259.24C2627.5,-245.48 2627.5,-228.75 2627.5,-217.13"/>
<polygon fill="#63b8ff" stroke="#63b8ff" points="2624,-259.48 2627.5,-269.48 2631,-259.48 2624,-259.48"/>
</a>
</g>
</g>
<!-- Node10 -->
<g id="Node000010" class="node">
<title>Node10</title>
<g id="a_Node000010"><a xlink:href="test__ControllerInputAction_8cpp.html" target="_top" xlink:title=" ">
<polygon fill="white" stroke="#666666" points="3108,-140 2941,-140 2941,-88 3108,-88 3108,-140"/>
<text text-anchor="start" x="2949" y="-128" font-family="Helvetica,sans-Serif" font-size="10.00">/home/runner/work/EX</text>
<text text-anchor="start" x="2949" y="-117" font-family="Helvetica,sans-Serif" font-size="10.00">&#45;Display/EX&#45;Display/test</text>
<text text-anchor="start" x="2949" y="-106" font-family="Helvetica,sans-Serif" font-size="10.00">/integration/test_Controller</text>
<text text-anchor="middle" x="3024.5" y="-95" font-family="Helvetica,sans-Serif" font-size="10.00">/test_ControllerInputAction.cpp</text>
</a>
</g>
</g>
<!-- Node6&#45;&gt;Node10 -->
<g id="edge18_Node000006_Node000010" class="edge">
<title>Node6&#45;&gt;Node10</title>
<g id="a_edge18_Node000006_Node000010"><a xlink:title=" ">
<path fill="none" stroke="#63b8ff" d="M2668.08,-265.35C2716.72,-243.69 2800.79,-206.56 2873.5,-176 2902.17,-163.95 2934.08,-150.99 2961.16,-140.13"/>
<polygon fill="#63b8ff" stroke="#63b8ff" points="2666.54,-262.2 2658.83,-269.47 2669.39,-268.6 2666.54,-262.2"/>
</a>
</g>
</g>
<!-- Node12 -->
<g id="Node000012" class="node">
<title>Node12</title>
<g id="a_Node000012"><a xlink:href="test__Controller_8cpp.html" target="_top" xlink:title=" ">
<polygon fill="white" stroke="#666666" points="2316,-140 2181,-140 2181,-88 2316,-88 2316,-140"/>
<text text-anchor="start" x="2189" y="-128" font-family="Helvetica,sans-Serif" font-size="10.00">/home/runner/work/EX</text>
<text text-anchor="start" x="2189" y="-117" font-family="Helvetica,sans-Serif" font-size="10.00">&#45;Display/EX&#45;Display/test</text>
<text text-anchor="start" x="2189" y="-106" font-family="Helvetica,sans-Serif" font-size="10.00">/unit/test_Controller/test</text>
<text text-anchor="middle" x="2248.5" y="-95" font-family="Helvetica,sans-Serif" font-size="10.00">_Controller.cpp</text>
</a>
</g>
</g>
<!-- Node6&#45;&gt;Node12 -->
<g id="edge32_Node000006_Node000012" class="edge">
<title>Node6&#45;&gt;Node12</title>
<g id="a_edge32_Node000006_Node000012"><a xlink:title=" ">
<path fill="none" stroke="#63b8ff" d="M2588.4,-264.68C2570.41,-255.05 2549.36,-242.32 2532.5,-228 2509.65,-208.58 2515.1,-191.62 2489.5,-176 2425.8,-137.12 2397.52,-159.55 2325.5,-140 2322.52,-139.19 2319.48,-138.33 2316.41,-137.45"/>
<polygon fill="#63b8ff" stroke="#63b8ff" points="2587.01,-267.91 2597.5,-269.44 2590.25,-261.7 2587.01,-267.91"/>
</a>
</g>
</g>
<!-- Node13 -->
<g id="Node000013" class="node">
<title>Node13</title>
<g id="a_Node000013"><a xlink:href="CreateUserDevices_8h.html" target="_top" xlink:title=" ">
<polygon fill="white" stroke="#666666" points="3296.5,-134.5 3126.5,-134.5 3126.5,-93.5 3296.5,-93.5 3296.5,-134.5"/>
<text text-anchor="start" x="3134.5" y="-122.5" font-family="Helvetica,sans-Serif" font-size="10.00">/home/runner/work/EX</text>
<text text-anchor="start" x="3134.5" y="-111.5" font-family="Helvetica,sans-Serif" font-size="10.00">&#45;Display/EX&#45;Display/CreateUser</text>
<text text-anchor="middle" x="3211.5" y="-100.5" font-family="Helvetica,sans-Serif" font-size="10.00">Devices.h</text>
</a>
</g>
</g>
<!-- Node6&#45;&gt;Node13 -->
<g id="edge14_Node000006_Node000013" class="edge">
<title>Node6&#45;&gt;Node13</title>
<g id="a_edge14_Node000006_Node000013"><a xlink:title=" ">
<path fill="none" stroke="#63b8ff" d="M2702,-267.03C2740.67,-257.49 2788.32,-244.15 2829.5,-228 2876.13,-209.71 2882.18,-192.44 2929.5,-176 3009.86,-148.08 3034.56,-158.94 3117.5,-140 3124.91,-138.31 3132.62,-136.44 3140.29,-134.51"/>
<polygon fill="#63b8ff" stroke="#63b8ff" points="2700.74,-263.73 2691.85,-269.5 2702.4,-270.54 2700.74,-263.73"/>
</a>
</g>
</g>
<!-- Node15 -->
<g id="Node000015" class="node">
<title>Node15</title>
<g id="a_Node000015"><a xlink:href="InputManager_8cpp.html" target="_top" xlink:title=" ">
<polygon fill="white" stroke="#666666" points="3518,-129 3315,-129 3315,-99 3518,-99 3518,-129"/>
<text text-anchor="start" x="3323" y="-117" font-family="Helvetica,sans-Serif" font-size="10.00">/home/runner/work/EX</text>
<text text-anchor="middle" x="3416.5" y="-106" font-family="Helvetica,sans-Serif" font-size="10.00">&#45;Display/EX&#45;Display/InputManager.cpp</text>
</a>
</g>
</g>
<!-- Node6&#45;&gt;Node15 -->
<g id="edge17_Node000006_Node000015" class="edge">
<title>Node6&#45;&gt;Node15</title>
<g id="a_edge17_Node000006_Node000015"><a xlink:title=" ">
<path fill="none" stroke="#63b8ff" d="M2728.84,-267.67C2779.04,-258.49 2840.18,-245.29 2893.5,-228 2947.24,-210.57 2955.07,-191.14 3009.5,-176 3137.18,-140.5 3174.91,-162.59 3305.5,-140 3323.12,-136.95 3342.15,-132.94 3359.39,-129.02"/>
<polygon fill="#63b8ff" stroke="#63b8ff" points="2728.17,-264.23 2718.95,-269.45 2729.41,-271.12 2728.17,-264.23"/>
</a>
</g>
</g>
<!-- Node16 -->
<g id="Node000016" class="node">
<title>Node16</title>
<g id="a_Node000016"><a xlink:href="MockDisplayInputMethods_8h.html" target="_top" xlink:title=" ">
<polygon fill="white" stroke="#666666" points="1166.5,-222.5 972.5,-222.5 972.5,-181.5 1166.5,-181.5 1166.5,-222.5"/>
<text text-anchor="start" x="980.5" y="-210.5" font-family="Helvetica,sans-Serif" font-size="10.00">/home/runner/work/EX</text>
<text text-anchor="start" x="980.5" y="-199.5" font-family="Helvetica,sans-Serif" font-size="10.00">&#45;Display/EX&#45;Display/test</text>
<text text-anchor="middle" x="1069.5" y="-188.5" font-family="Helvetica,sans-Serif" font-size="10.00">/mocks/MockDisplayInputMethods.h</text>
</a>
</g>
</g>
<!-- Node6&#45;&gt;Node16 -->
<g id="edge19_Node000006_Node000016" class="edge">
<title>Node6&#45;&gt;Node16</title>
<g id="a_edge19_Node000006_Node000016"><a xlink:title=" ">
<path fill="none" stroke="#63b8ff" d="M2521.8,-278.04C2234.74,-263.21 1443.63,-222.33 1166.74,-208.02"/>
<polygon fill="#63b8ff" stroke="#63b8ff" points="2521.63,-281.53 2531.8,-278.56 2522,-274.54 2521.63,-281.53"/>
</a>
</g>
</g>
<!-- Node29 -->
<g id="Node000029" class="node">
<title>Node29</title>
<g id="a_Node000029"><a xlink:href="test__InputManager_8cpp.html" target="_top" xlink:title=" ">
<polygon fill="white" stroke="#666666" points="2447.5,-228 2313.5,-228 2313.5,-176 2447.5,-176 2447.5,-228"/>
<text text-anchor="start" x="2321.5" y="-216" font-family="Helvetica,sans-Serif" font-size="10.00">/home/runner/work/EX</text>
<text text-anchor="start" x="2321.5" y="-205" font-family="Helvetica,sans-Serif" font-size="10.00">&#45;Display/EX&#45;Display/test</text>
<text text-anchor="start" x="2321.5" y="-194" font-family="Helvetica,sans-Serif" font-size="10.00">/unit/test_InputManager</text>
<text text-anchor="middle" x="2380.5" y="-183" font-family="Helvetica,sans-Serif" font-size="10.00">/test_InputManager.cpp</text>
</a>
</g>
</g>
<!-- Node6&#45;&gt;Node29 -->
<g id="edge33_Node000006_Node000029" class="edge">
<title>Node6&#45;&gt;Node29</title>
<g id="a_edge33_Node000006_Node000029"><a xlink:title=" ">
<path fill="none" stroke="#63b8ff" d="M2574.85,-266.34C2537.72,-254.24 2487.68,-237.93 2447.68,-224.89"/>
<polygon fill="#63b8ff" stroke="#63b8ff" points="2573.88,-269.71 2584.48,-269.48 2576.05,-263.05 2573.88,-269.71"/>
</a>
</g>
</g>
<!-- Node7&#45;&gt;Node2 -->
<g id="edge8_Node000007_Node000002" class="edge">
<title>Node7&#45;&gt;Node2</title>
<g id="a_edge8_Node000007_Node000002"><a xlink:title=" ">
<path fill="none" stroke="#63b8ff" d="M2545.26,-185.18C2526.94,-181.91 2507.59,-178.66 2489.5,-176 2349.22,-155.35 2312.09,-164.93 2172.5,-140 2155.99,-137.05 2138.17,-132.99 2122.12,-129"/>
<polygon fill="#63b8ff" stroke="#63b8ff" points="2544.85,-188.66 2555.31,-186.99 2546.09,-181.77 2544.85,-188.66"/>
</a>
</g>
</g>
<!-- Node8 -->
<g id="Node000008" class="node">
<title>Node8</title>
<g id="a_Node000008"><a xlink:href="Controller_8cpp.html" target="_top" xlink:title=" ">
<polygon fill="white" stroke="#666666" points="2517,-129 2334,-129 2334,-99 2517,-99 2517,-129"/>
<text text-anchor="start" x="2342" y="-117" font-family="Helvetica,sans-Serif" font-size="10.00">/home/runner/work/EX</text>
<text text-anchor="middle" x="2425.5" y="-106" font-family="Helvetica,sans-Serif" font-size="10.00">&#45;Display/EX&#45;Display/Controller.cpp</text>
</a>
</g>
</g>
<!-- Node7&#45;&gt;Node8 -->
<g id="edge9_Node000007_Node000008" class="edge">
<title>Node7&#45;&gt;Node8</title>
<g id="a_edge9_Node000007_Node000008"><a xlink:title=" ">
<path fill="none" stroke="#63b8ff" d="M2585.38,-183.07C2547.63,-167 2493.01,-143.74 2458.39,-129"/>
<polygon fill="#63b8ff" stroke="#63b8ff" points="2584.02,-186.29 2594.6,-186.99 2586.77,-179.85 2584.02,-186.29"/>
</a>
</g>
</g>
<!-- Node9 -->
<g id="Node000009" class="node">
<title>Node9</title>
<g id="a_Node000009"><a xlink:href="test__ControllerDisplayUpdate_8cpp.html" target="_top" xlink:title=" ">
<polygon fill="white" stroke="#666666" points="2719.5,-140 2535.5,-140 2535.5,-88 2719.5,-88 2719.5,-140"/>
<text text-anchor="start" x="2543.5" y="-128" font-family="Helvetica,sans-Serif" font-size="10.00">/home/runner/work/EX</text>
<text text-anchor="start" x="2543.5" y="-117" font-family="Helvetica,sans-Serif" font-size="10.00">&#45;Display/EX&#45;Display/test</text>
<text text-anchor="start" x="2543.5" y="-106" font-family="Helvetica,sans-Serif" font-size="10.00">/integration/test_Controller</text>
<text text-anchor="middle" x="2627.5" y="-95" font-family="Helvetica,sans-Serif" font-size="10.00">/test_ControllerDisplayUpdate.cpp</text>
</a>
</g>
</g>
<!-- Node7&#45;&gt;Node9 -->
<g id="edge10_Node000007_Node000009" class="edge">
<title>Node7&#45;&gt;Node9</title>
<g id="a_edge10_Node000007_Node000009"><a xlink:title=" ">
<path fill="none" stroke="#63b8ff" d="M2627.5,-176.63C2627.5,-165.18 2627.5,-151.54 2627.5,-140.01"/>
<polygon fill="#63b8ff" stroke="#63b8ff" points="2624,-176.8 2627.5,-186.8 2631,-176.8 2624,-176.8"/>
</a>
</g>
</g>
<!-- Node7&#45;&gt;Node10 -->
<g id="edge11_Node000007_Node000010" class="edge">
<title>Node7&#45;&gt;Node10</title>
<g id="a_edge11_Node000007_Node000010"><a xlink:title=" ">
<path fill="none" stroke="#63b8ff" d="M2715.22,-185.09C2776.36,-173.61 2859.68,-157.15 2932.5,-140 2935.24,-139.35 2938.02,-138.69 2940.82,-138"/>
<polygon fill="#63b8ff" stroke="#63b8ff" points="2714.41,-181.68 2705.22,-186.96 2715.69,-188.56 2714.41,-181.68"/>
</a>
</g>
</g>
<!-- Node11 -->
<g id="Node000011" class="node">
<title>Node11</title>
<g id="a_Node000011"><a xlink:href="test__ControllerScreenCreation_8cpp.html" target="_top" xlink:title=" ">
<polygon fill="white" stroke="#666666" points="2923.5,-140 2737.5,-140 2737.5,-88 2923.5,-88 2923.5,-140"/>
<text text-anchor="start" x="2745.5" y="-128" font-family="Helvetica,sans-Serif" font-size="10.00">/home/runner/work/EX</text>
<text text-anchor="start" x="2745.5" y="-117" font-family="Helvetica,sans-Serif" font-size="10.00">&#45;Display/EX&#45;Display/test</text>
<text text-anchor="start" x="2745.5" y="-106" font-family="Helvetica,sans-Serif" font-size="10.00">/integration/test_Controller</text>
<text text-anchor="middle" x="2830.5" y="-95" font-family="Helvetica,sans-Serif" font-size="10.00">/test_ControllerScreenCreation.cpp</text>
</a>
</g>
</g>
<!-- Node7&#45;&gt;Node11 -->
<g id="edge12_Node000007_Node000011" class="edge">
<title>Node7&#45;&gt;Node11</title>
<g id="a_edge12_Node000007_Node000011"><a xlink:title=" ">
<path fill="none" stroke="#63b8ff" d="M2670.11,-182.95C2699.44,-170.52 2738.81,-153.84 2771.21,-140.12"/>
<polygon fill="#63b8ff" stroke="#63b8ff" points="2668.41,-179.87 2660.57,-186.99 2671.14,-186.31 2668.41,-179.87"/>
</a>
</g>
</g>
<!-- Node7&#45;&gt;Node12 -->
<g id="edge13_Node000007_Node000012" class="edge">
<title>Node7&#45;&gt;Node12</title>
<g id="a_edge13_Node000007_Node000012"><a xlink:title=" ">
<path fill="none" stroke="#63b8ff" d="M2564.15,-184.47C2552.02,-181.5 2539.39,-178.54 2527.5,-176 2438.32,-156.93 2413.97,-162.13 2325.5,-140 2322.5,-139.25 2319.45,-138.44 2316.37,-137.6"/>
<polygon fill="#63b8ff" stroke="#63b8ff" points="2563.66,-187.95 2574.2,-186.96 2565.34,-181.15 2563.66,-187.95"/>
</a>
</g>
</g>
<!-- Node13&#45;&gt;Node3 -->
<g id="edge15_Node000013_Node000003" class="edge">
<title>Node13&#45;&gt;Node3</title>
<g id="a_edge15_Node000013_Node000003"><a xlink:title=" ">
<path fill="none" stroke="#63b8ff" d="M3132.63,-91.19C3127.52,-90.04 3122.45,-88.96 3117.5,-88 2982.92,-61.84 2825.21,-44.52 2726.07,-35.24"/>
<polygon fill="#63b8ff" stroke="#63b8ff" points="3131.91,-94.62 3142.45,-93.49 3133.51,-87.81 3131.91,-94.62"/>
</a>
</g>
</g>
<!-- Node14 -->
<g id="Node000014" class="node">
<title>Node14</title>
<g id="a_Node000014"><a xlink:href="test__CompilerCreation_8cpp.html" target="_top" xlink:title=" ">
<polygon fill="white" stroke="#666666" points="3304,-52 3119,-52 3119,0 3304,0 3304,-52"/>
<text text-anchor="start" x="3127" y="-40" font-family="Helvetica,sans-Serif" font-size="10.00">/home/runner/work/EX</text>
<text text-anchor="start" x="3127" y="-29" font-family="Helvetica,sans-Serif" font-size="10.00">&#45;Display/EX&#45;Display/test</text>
<text text-anchor="start" x="3127" y="-18" font-family="Helvetica,sans-Serif" font-size="10.00">/integration/test_CompilerCreation</text>
<text text-anchor="middle" x="3211.5" y="-7" font-family="Helvetica,sans-Serif" font-size="10.00">/test_CompilerCreation.cpp</text>
</a>
</g>
</g>
<!-- Node13&#45;&gt;Node14 -->
<g id="edge16_Node000013_Node000014" class="edge">
<title>Node13&#45;&gt;Node14</title>
<g id="a_edge16_Node000013_Node000014"><a xlink:title=" ">
<path fill="none" stroke="#63b8ff" d="M3211.5,-83.44C3211.5,-73.31 3211.5,-62.08 3211.5,-52.32"/>
<polygon fill="#63b8ff" stroke="#63b8ff" points="3208,-83.49 3211.5,-93.49 3215,-83.49 3208,-83.49"/>
</a>
</g>
</g>
<!-- Node17 -->
<g id="Node000017" class="node">
<title>Node17</title>
<g id="a_Node000017"><a xlink:href="integration_2test__Controller_2test__main_8cpp.html" target="_top" xlink:title=" ">
<polygon fill="white" stroke="#666666" points="1143.5,-140 995.5,-140 995.5,-88 1143.5,-88 1143.5,-140"/>
<text text-anchor="start" x="1003.5" y="-128" font-family="Helvetica,sans-Serif" font-size="10.00">/home/runner/work/EX</text>
<text text-anchor="start" x="1003.5" y="-117" font-family="Helvetica,sans-Serif" font-size="10.00">&#45;Display/EX&#45;Display/test</text>
<text text-anchor="start" x="1003.5" y="-106" font-family="Helvetica,sans-Serif" font-size="10.00">/integration/test_Controller</text>
<text text-anchor="middle" x="1069.5" y="-95" font-family="Helvetica,sans-Serif" font-size="10.00">/test_main.cpp</text>
</a>
</g>
</g>
<!-- Node16&#45;&gt;Node17 -->
<g id="edge20_Node000016_Node000017" class="edge">
<title>Node16&#45;&gt;Node17</title>
<g id="a_edge20_Node000016_Node000017"><a xlink:title=" ">
<path fill="none" stroke="#63b8ff" d="M1069.5,-171.44C1069.5,-161.31 1069.5,-150.08 1069.5,-140.32"/>
<polygon fill="#63b8ff" stroke="#63b8ff" points="1066,-171.49 1069.5,-181.49 1073,-171.49 1066,-171.49"/>
</a>
</g>
</g>
<!-- Node18 -->
<g id="Node000018" class="node">
<title>Node18</title>
<g id="a_Node000018"><a xlink:href="integration_2test__Display_2test__main_8cpp.html" target="_top" xlink:title=" ">
<polygon fill="white" stroke="#666666" points="1299,-140 1162,-140 1162,-88 1299,-88 1299,-140"/>
<text text-anchor="start" x="1170" y="-128" font-family="Helvetica,sans-Serif" font-size="10.00">/home/runner/work/EX</text>
<text text-anchor="start" x="1170" y="-117" font-family="Helvetica,sans-Serif" font-size="10.00">&#45;Display/EX&#45;Display/test</text>
<text text-anchor="start" x="1170" y="-106" font-family="Helvetica,sans-Serif" font-size="10.00">/integration/test_Display</text>
<text text-anchor="middle" x="1230.5" y="-95" font-family="Helvetica,sans-Serif" font-size="10.00">/test_main.cpp</text>
</a>
</g>
</g>
<!-- Node16&#45;&gt;Node18 -->
<g id="edge21_Node000016_Node000018" class="edge">
<title>Node16&#45;&gt;Node18</title>
<g id="a_edge21_Node000016_Node000018"><a xlink:title=" ">
<path fill="none" stroke="#63b8ff" d="M1114.92,-176.74C1136.31,-165.31 1161.81,-151.69 1183.4,-140.16"/>
<polygon fill="#63b8ff" stroke="#63b8ff" points="1113.2,-173.69 1106.03,-181.49 1116.5,-179.86 1113.2,-173.69"/>
</a>
</g>
</g>
<!-- Node19 -->
<g id="Node000019" class="node">
<title>Node19</title>
<g id="a_Node000019"><a xlink:href="integration_2test__InteractiveLogger_2test__main_8cpp.html" target="_top" xlink:title=" ">
<polygon fill="white" stroke="#666666" points="1502,-140 1317,-140 1317,-88 1502,-88 1502,-140"/>
<text text-anchor="start" x="1325" y="-128" font-family="Helvetica,sans-Serif" font-size="10.00">/home/runner/work/EX</text>
<text text-anchor="start" x="1325" y="-117" font-family="Helvetica,sans-Serif" font-size="10.00">&#45;Display/EX&#45;Display/test</text>
<text text-anchor="start" x="1325" y="-106" font-family="Helvetica,sans-Serif" font-size="10.00">/integration/test_InteractiveLogger</text>
<text text-anchor="middle" x="1409.5" y="-95" font-family="Helvetica,sans-Serif" font-size="10.00">/test_main.cpp</text>
</a>
</g>
</g>
<!-- Node16&#45;&gt;Node19 -->
<g id="edge22_Node000016_Node000019" class="edge">
<title>Node16&#45;&gt;Node19</title>
<g id="a_edge22_Node000016_Node000019"><a xlink:title=" ">
<path fill="none" stroke="#63b8ff" d="M1156.61,-178.97C1205.7,-166.55 1266.99,-151.05 1316.94,-138.41"/>
<polygon fill="#63b8ff" stroke="#63b8ff" points="1155.49,-175.64 1146.65,-181.49 1157.2,-182.43 1155.49,-175.64"/>
</a>
</g>
</g>
<!-- Node20 -->
<g id="Node000020" class="node">
<title>Node20</title>
<g id="a_Node000020"><a xlink:href="unit_2test__Configurator_2test__main_8cpp.html" target="_top" xlink:title=" ">
<polygon fill="white" stroke="#666666" points="1654.5,-140 1520.5,-140 1520.5,-88 1654.5,-88 1654.5,-140"/>
<text text-anchor="start" x="1528.5" y="-128" font-family="Helvetica,sans-Serif" font-size="10.00">/home/runner/work/EX</text>
<text text-anchor="start" x="1528.5" y="-117" font-family="Helvetica,sans-Serif" font-size="10.00">&#45;Display/EX&#45;Display/test</text>
<text text-anchor="start" x="1528.5" y="-106" font-family="Helvetica,sans-Serif" font-size="10.00">/unit/test_Configurator</text>
<text text-anchor="middle" x="1587.5" y="-95" font-family="Helvetica,sans-Serif" font-size="10.00">/test_main.cpp</text>
</a>
</g>
</g>
<!-- Node16&#45;&gt;Node20 -->
<g id="edge23_Node000016_Node000020" class="edge">
<title>Node16&#45;&gt;Node20</title>
<g id="a_edge23_Node000016_Node000020"><a xlink:title=" ">
<path fill="none" stroke="#63b8ff" d="M1176.95,-191.49C1266.84,-182.26 1398.07,-165.81 1510.5,-140 1513.65,-139.28 1516.86,-138.48 1520.08,-137.63"/>
<polygon fill="#63b8ff" stroke="#63b8ff" points="1176.34,-188.04 1166.74,-192.53 1177.04,-195 1176.34,-188.04"/>
</a>
</g>
</g>
<!-- Node21 -->
<g id="Node000021" class="node">
<title>Node21</title>
<g id="a_Node000021"><a xlink:href="unit_2test__Controller_2test__main_8cpp.html" target="_top" xlink:title=" ">
<polygon fill="white" stroke="#666666" points="1808,-140 1673,-140 1673,-88 1808,-88 1808,-140"/>
<text text-anchor="start" x="1681" y="-128" font-family="Helvetica,sans-Serif" font-size="10.00">/home/runner/work/EX</text>
<text text-anchor="start" x="1681" y="-117" font-family="Helvetica,sans-Serif" font-size="10.00">&#45;Display/EX&#45;Display/test</text>
<text text-anchor="start" x="1681" y="-106" font-family="Helvetica,sans-Serif" font-size="10.00">/unit/test_Controller/test</text>
<text text-anchor="middle" x="1740.5" y="-95" font-family="Helvetica,sans-Serif" font-size="10.00">_main.cpp</text>
</a>
</g>
</g>
<!-- Node16&#45;&gt;Node21 -->
<g id="edge24_Node000016_Node000021" class="edge">
<title>Node16&#45;&gt;Node21</title>
<g id="a_edge24_Node000016_Node000021"><a xlink:title=" ">
<path fill="none" stroke="#63b8ff" d="M1176.94,-196.8C1296.73,-190.55 1495.71,-175.44 1663.5,-140 1666.53,-139.36 1669.6,-138.65 1672.69,-137.88"/>
<polygon fill="#63b8ff" stroke="#63b8ff" points="1176.47,-193.32 1166.67,-197.33 1176.83,-200.31 1176.47,-193.32"/>
</a>
</g>
</g>
<!-- Node22 -->
<g id="Node000022" class="node">
<title>Node22</title>
<g id="a_Node000022"><a xlink:href="unit_2test__Display_2test__main_8cpp.html" target="_top" xlink:title=" ">
<polygon fill="white" stroke="#666666" points="1960.5,-140 1826.5,-140 1826.5,-88 1960.5,-88 1960.5,-140"/>
<text text-anchor="start" x="1834.5" y="-128" font-family="Helvetica,sans-Serif" font-size="10.00">/home/runner/work/EX</text>
<text text-anchor="start" x="1834.5" y="-117" font-family="Helvetica,sans-Serif" font-size="10.00">&#45;Display/EX&#45;Display/test</text>
<text text-anchor="start" x="1834.5" y="-106" font-family="Helvetica,sans-Serif" font-size="10.00">/unit/test_Display/test</text>
<text text-anchor="middle" x="1893.5" y="-95" font-family="Helvetica,sans-Serif" font-size="10.00">_main.cpp</text>
</a>
</g>
</g>
<!-- Node16&#45;&gt;Node22 -->
<g id="edge25_Node000016_Node000022" class="edge">
<title>Node16&#45;&gt;Node22</title>
<g id="a_edge25_Node000016_Node000022"><a xlink:title=" ">
<path fill="none" stroke="#63b8ff" d="M1177.07,-200.17C1323.4,-197.25 1592.71,-185.47 1817.5,-140 1820.36,-139.42 1823.26,-138.77 1826.18,-138.06"/>
<polygon fill="#63b8ff" stroke="#63b8ff" points="1176.69,-196.68 1166.75,-200.37 1176.82,-203.68 1176.69,-196.68"/>
</a>
</g>
</g>
<!-- Node23 -->
<g id="Node000023" class="node">
<title>Node23</title>
<g id="a_Node000023"><a xlink:href="unit_2test__DisplayManager_2test__main_8cpp.html" target="_top" xlink:title=" ">
<polygon fill="white" stroke="#666666" points="145,-140 0,-140 0,-88 145,-88 145,-140"/>
<text text-anchor="start" x="8" y="-128" font-family="Helvetica,sans-Serif" font-size="10.00">/home/runner/work/EX</text>
<text text-anchor="start" x="8" y="-117" font-family="Helvetica,sans-Serif" font-size="10.00">&#45;Display/EX&#45;Display/test</text>
<text text-anchor="start" x="8" y="-106" font-family="Helvetica,sans-Serif" font-size="10.00">/unit/test_DisplayManager</text>
<text text-anchor="middle" x="72.5" y="-95" font-family="Helvetica,sans-Serif" font-size="10.00">/test_main.cpp</text>
</a>
</g>
</g>
<!-- Node16&#45;&gt;Node23 -->
<g id="edge26_Node000016_Node000023" class="edge">
<title>Node16&#45;&gt;Node23</title>
<g id="a_edge26_Node000016_Node000023"><a xlink:title=" ">
<path fill="none" stroke="#63b8ff" d="M962.38,-201.77C790.51,-201.25 443.16,-192.9 154.5,-140 151.43,-139.44 148.3,-138.8 145.16,-138.1"/>
<polygon fill="#63b8ff" stroke="#63b8ff" points="962.43,-205.27 972.44,-201.79 962.44,-198.27 962.43,-205.27"/>
</a>
</g>
</g>
<!-- Node24 -->
<g id="Node000024" class="node">
<title>Node24</title>
<g id="a_Node000024"><a xlink:href="unit_2test__Infrastructure_2test__main_8cpp.html" target="_top" xlink:title=" ">
<polygon fill="white" stroke="#666666" points="297.5,-140 163.5,-140 163.5,-88 297.5,-88 297.5,-140"/>
<text text-anchor="start" x="171.5" y="-128" font-family="Helvetica,sans-Serif" font-size="10.00">/home/runner/work/EX</text>
<text text-anchor="start" x="171.5" y="-117" font-family="Helvetica,sans-Serif" font-size="10.00">&#45;Display/EX&#45;Display/test</text>
<text text-anchor="start" x="171.5" y="-106" font-family="Helvetica,sans-Serif" font-size="10.00">/unit/test_Infrastructure</text>
<text text-anchor="middle" x="230.5" y="-95" font-family="Helvetica,sans-Serif" font-size="10.00">/test_main.cpp</text>
</a>
</g>
</g>
<!-- Node16&#45;&gt;Node24 -->
<g id="edge27_Node000016_Node000024" class="edge">
<title>Node16&#45;&gt;Node24</title>
<g id="a_edge27_Node000016_Node000024"><a xlink:title=" ">
<path fill="none" stroke="#63b8ff" d="M962.38,-200.43C813.73,-197.84 537.15,-186.46 306.5,-140 303.64,-139.42 300.74,-138.77 297.82,-138.07"/>
<polygon fill="#63b8ff" stroke="#63b8ff" points="962.37,-203.93 972.42,-200.6 962.48,-196.93 962.37,-203.93"/>
</a>
</g>
</g>
<!-- Node25 -->
<g id="Node000025" class="node">
<title>Node25</title>
<g id="a_Node000025"><a xlink:href="unit_2test__Input_2test__main_8cpp.html" target="_top" xlink:title=" ">
<polygon fill="white" stroke="#666666" points="477.5,-134.5 315.5,-134.5 315.5,-93.5 477.5,-93.5 477.5,-134.5"/>
<text text-anchor="start" x="323.5" y="-122.5" font-family="Helvetica,sans-Serif" font-size="10.00">/home/runner/work/EX</text>
<text text-anchor="start" x="323.5" y="-111.5" font-family="Helvetica,sans-Serif" font-size="10.00">&#45;Display/EX&#45;Display/test</text>
<text text-anchor="middle" x="396.5" y="-100.5" font-family="Helvetica,sans-Serif" font-size="10.00">/unit/test_Input/test_main.cpp</text>
</a>
</g>
</g>
<!-- Node16&#45;&gt;Node25 -->
<g id="edge28_Node000016_Node000025" class="edge">
<title>Node16&#45;&gt;Node25</title>
<g id="a_edge28_Node000016_Node000025"><a xlink:title=" ">
<path fill="none" stroke="#63b8ff" d="M962.25,-195.15C844.69,-187.5 650.93,-171.21 486.5,-140 478.53,-138.49 470.25,-136.61 462.07,-134.57"/>
<polygon fill="#63b8ff" stroke="#63b8ff" points="962.12,-198.65 972.33,-195.8 962.57,-191.67 962.12,-198.65"/>
</a>
</g>
</g>
<!-- Node26 -->
<g id="Node000026" class="node">
<title>Node26</title>
<g id="a_Node000026"><a xlink:href="unit_2test__InputManager_2test__main_8cpp.html" target="_top" xlink:title=" ">
<polygon fill="white" stroke="#666666" points="629.5,-140 495.5,-140 495.5,-88 629.5,-88 629.5,-140"/>
<text text-anchor="start" x="503.5" y="-128" font-family="Helvetica,sans-Serif" font-size="10.00">/home/runner/work/EX</text>
<text text-anchor="start" x="503.5" y="-117" font-family="Helvetica,sans-Serif" font-size="10.00">&#45;Display/EX&#45;Display/test</text>
<text text-anchor="start" x="503.5" y="-106" font-family="Helvetica,sans-Serif" font-size="10.00">/unit/test_InputManager</text>
<text text-anchor="middle" x="562.5" y="-95" font-family="Helvetica,sans-Serif" font-size="10.00">/test_main.cpp</text>
</a>
</g>
</g>
<!-- Node16&#45;&gt;Node26 -->
<g id="edge29_Node000016_Node000026" class="edge">
<title>Node16&#45;&gt;Node26</title>
<g id="a_edge29_Node000016_Node000026"><a xlink:title=" ">
<path fill="none" stroke="#63b8ff" d="M962.33,-191.17C874.53,-181.84 747.45,-165.42 638.5,-140 635.66,-139.34 632.77,-138.62 629.87,-137.85"/>
<polygon fill="#63b8ff" stroke="#63b8ff" points="962,-194.65 972.31,-192.21 962.73,-187.69 962,-194.65"/>
</a>
</g>
</g>
<!-- Node27 -->
<g id="Node000027" class="node">
<title>Node27</title>
<g id="a_Node000027"><a xlink:href="unit_2test__Screen_2test__main_8cpp.html" target="_top" xlink:title=" ">
<polygon fill="white" stroke="#666666" points="817.5,-134.5 647.5,-134.5 647.5,-93.5 817.5,-93.5 817.5,-134.5"/>
<text text-anchor="start" x="655.5" y="-122.5" font-family="Helvetica,sans-Serif" font-size="10.00">/home/runner/work/EX</text>
<text text-anchor="start" x="655.5" y="-111.5" font-family="Helvetica,sans-Serif" font-size="10.00">&#45;Display/EX&#45;Display/test</text>
<text text-anchor="middle" x="732.5" y="-100.5" font-family="Helvetica,sans-Serif" font-size="10.00">/unit/test_Screen/test_main.cpp</text>
</a>
</g>
</g>
<!-- Node16&#45;&gt;Node27 -->
<g id="edge30_Node000016_Node000027" class="edge">
<title>Node16&#45;&gt;Node27</title>
<g id="a_edge30_Node000016_Node000027"><a xlink:title=" ">
<path fill="none" stroke="#63b8ff" d="M980.68,-179.02C934.64,-167.55 877.5,-153.18 826.5,-140 819.71,-138.25 812.66,-136.4 805.6,-134.55"/>
<polygon fill="#63b8ff" stroke="#63b8ff" points="980.08,-182.48 990.63,-181.5 981.78,-175.69 980.08,-182.48"/>
</a>
</g>
</g>
<!-- Node28 -->
<g id="Node000028" class="node">
<title>Node28</title>
<g id="a_Node000028"><a xlink:href="unit_2test__ScreenManager_2test__main_8cpp.html" target="_top" xlink:title=" ">
<polygon fill="white" stroke="#666666" points="977,-140 836,-140 836,-88 977,-88 977,-140"/>
<text text-anchor="start" x="844" y="-128" font-family="Helvetica,sans-Serif" font-size="10.00">/home/runner/work/EX</text>
<text text-anchor="start" x="844" y="-117" font-family="Helvetica,sans-Serif" font-size="10.00">&#45;Display/EX&#45;Display/test</text>
<text text-anchor="start" x="844" y="-106" font-family="Helvetica,sans-Serif" font-size="10.00">/unit/test_ScreenManager</text>
<text text-anchor="middle" x="906.5" y="-95" font-family="Helvetica,sans-Serif" font-size="10.00">/test_main.cpp</text>
</a>
</g>
</g>
<!-- Node16&#45;&gt;Node28 -->
<g id="edge31_Node000016_Node000028" class="edge">
<title>Node16&#45;&gt;Node28</title>
<g id="a_edge31_Node000016_Node000028"><a xlink:title=" ">
<path fill="none" stroke="#63b8ff" d="M1023.51,-176.74C1001.86,-165.31 976.05,-151.69 954.18,-140.16"/>
<polygon fill="#63b8ff" stroke="#63b8ff" points="1022.04,-179.91 1032.51,-181.49 1025.3,-173.72 1022.04,-179.91"/>
</a>
</g>
</g>
<!-- Node30&#45;&gt;Node13 -->
<g id="edge35_Node000030_Node000013" class="edge">
<title>Node30&#45;&gt;Node13</title>
<g id="a_edge35_Node000030_Node000013"><a xlink:title=" ">
<path fill="none" stroke="#63b8ff" d="M3038.58,-258.35C3026.94,-250.38 3016.18,-240.35 3009.5,-228 2998.5,-207.68 2995.72,-194.55 3009.5,-176 3013.62,-170.45 3083.16,-150.22 3139.51,-134.57"/>
<polygon fill="#63b8ff" stroke="#63b8ff" points="3036.86,-261.4 3047.18,-263.79 3040.6,-255.49 3036.86,-261.4"/>
</a>
</g>
</g>
<!-- Node31 -->
<g id="Node000031" class="node">
<title>Node31</title>
<g id="a_Node000031"><a xlink:href="DisplayManager_8cpp.html" target="_top" xlink:title=" ">
<polygon fill="white" stroke="#666666" points="3170.5,-222.5 3018.5,-222.5 3018.5,-181.5 3170.5,-181.5 3170.5,-222.5"/>
<text text-anchor="start" x="3026.5" y="-210.5" font-family="Helvetica,sans-Serif" font-size="10.00">/home/runner/work/EX</text>
<text text-anchor="start" x="3026.5" y="-199.5" font-family="Helvetica,sans-Serif" font-size="10.00">&#45;Display/EX&#45;Display/Display</text>
<text text-anchor="middle" x="3094.5" y="-188.5" font-family="Helvetica,sans-Serif" font-size="10.00">Manager.cpp</text>
</a>
</g>
</g>
<!-- Node30&#45;&gt;Node31 -->
<g id="edge36_Node000030_Node000031" class="edge">
<title>Node30&#45;&gt;Node31</title>
<g id="a_edge36_Node000030_Node000031"><a xlink:title=" ">
<path fill="none" stroke="#63b8ff" d="M3094.5,-253.37C3094.5,-243.1 3094.5,-231.9 3094.5,-222.67"/>
<polygon fill="#63b8ff" stroke="#63b8ff" points="3091,-253.6 3094.5,-263.6 3098,-253.6 3091,-253.6"/>
</a>
</g>
</g>
<!-- Node32 -->
<g id="Node000032" class="node">
<title>Node32</title>
<g id="a_Node000032"><a xlink:href="TFT__eSPIDisplay_8cpp.html" target="_top" xlink:title=" ">
<polygon fill="white" stroke="#666666" points="3322,-222.5 3189,-222.5 3189,-181.5 3322,-181.5 3322,-222.5"/>
<text text-anchor="start" x="3197" y="-210.5" font-family="Helvetica,sans-Serif" font-size="10.00">/home/runner/work/EX</text>
<text text-anchor="start" x="3197" y="-199.5" font-family="Helvetica,sans-Serif" font-size="10.00">&#45;Display/EX&#45;Display/TFT</text>
<text text-anchor="middle" x="3255.5" y="-188.5" font-family="Helvetica,sans-Serif" font-size="10.00">_eSPIDisplay.cpp</text>
</a>
</g>
</g>
<!-- Node30&#45;&gt;Node32 -->
<g id="edge37_Node000030_Node000032" class="edge">
<title>Node30&#45;&gt;Node32</title>
<g id="a_edge37_Node000030_Node000032"><a xlink:title=" ">
<path fill="none" stroke="#63b8ff" d="M3142.96,-259.27C3166.4,-247.55 3194.16,-233.67 3216.24,-222.63"/>
<polygon fill="#63b8ff" stroke="#63b8ff" points="3141.26,-256.2 3133.89,-263.81 3144.39,-262.47 3141.26,-256.2"/>
</a>
</g>
</g>
<!-- Node30&#45;&gt;Node33 -->
<g id="edge38_Node000030_Node000033" class="edge">
<title>Node30&#45;&gt;Node33</title>
<g id="a_edge38_Node000030_Node000033"><a xlink:title=" ">
<path fill="none" stroke="#63b8ff" d="M3171.1,-267.43C3217.74,-257.19 3278.37,-243.04 3331.5,-228 3337.44,-226.32 3343.61,-224.45 3349.75,-222.53"/>
<polygon fill="#63b8ff" stroke="#63b8ff" points="3170.09,-264.07 3161.07,-269.62 3171.58,-270.91 3170.09,-264.07"/>
</a>
</g>
</g>
<!-- Node33&#45;&gt;Node13 -->
<g id="edge39_Node000033_Node000013" class="edge">
<title>Node33&#45;&gt;Node13</title>
<g id="a_edge39_Node000033_Node000013"><a xlink:title=" ">
<path fill="none" stroke="#63b8ff" d="M3353.04,-177.42C3322.54,-163.97 3284.76,-147.31 3255.91,-134.59"/>
<polygon fill="#63b8ff" stroke="#63b8ff" points="3351.69,-180.65 3362.25,-181.49 3354.51,-174.25 3351.69,-180.65"/>
</a>
</g>
</g>
<!-- Node33&#45;&gt;Node15 -->
<g id="edge40_Node000033_Node000015" class="edge">
<title>Node33&#45;&gt;Node15</title>
<g id="a_edge40_Node000033_Node000015"><a xlink:title=" ">
<path fill="none" stroke="#63b8ff" d="M3409.93,-171.53C3411.6,-157.16 3413.53,-140.56 3414.86,-129.08"/>
<polygon fill="#63b8ff" stroke="#63b8ff" points="3406.45,-171.15 3408.77,-181.49 3413.4,-171.96 3406.45,-171.15"/>
</a>
</g>
</g>
<!-- Node34 -->
<g id="Node000034" class="node">
<title>Node34</title>
<g id="a_Node000034"><a xlink:href="TFT__eSPITouch_8cpp.html" target="_top" xlink:title=" ">
<polygon fill="white" stroke="#666666" points="3669,-134.5 3536,-134.5 3536,-93.5 3669,-93.5 3669,-134.5"/>
<text text-anchor="start" x="3544" y="-122.5" font-family="Helvetica,sans-Serif" font-size="10.00">/home/runner/work/EX</text>
<text text-anchor="start" x="3544" y="-111.5" font-family="Helvetica,sans-Serif" font-size="10.00">&#45;Display/EX&#45;Display/TFT</text>
<text text-anchor="middle" x="3602.5" y="-100.5" font-family="Helvetica,sans-Serif" font-size="10.00">_eSPITouch.cpp</text>
</a>
</g>
</g>
<!-- Node33&#45;&gt;Node34 -->
<g id="edge41_Node000033_Node000034" class="edge">
<title>Node33&#45;&gt;Node34</title>
<g id="a_edge41_Node000033_Node000034"><a xlink:title=" ">
<path fill="none" stroke="#63b8ff" d="M3460.24,-177.42C3490.89,-163.97 3528.86,-147.31 3557.86,-134.59"/>
<polygon fill="#63b8ff" stroke="#63b8ff" points="3458.73,-174.26 3450.98,-181.49 3461.54,-180.67 3458.73,-174.26"/>
</a>
</g>
</g>
</g>
</svg>
