<?xml version="1.0" encoding="UTF-8" standalone="no"?>
<!DOCTYPE svg PUBLIC "-//W3C//DTD SVG 1.1//EN"
 "http://www.w3.org/Graphics/SVG/1.1/DTD/svg11.dtd">
<!-- Generated by graphviz version 2.43.0 (0)
 -->
<!-- Title: /home/runner/work/EX&#45;Display/EX&#45;Display/test/integration/test_CompilerCreation Pages: 1 -->
<svg width="166pt" height="151pt"
 viewBox="0.00 0.00 166.00 151.00" xmlns="http://www.w3.org/2000/svg" xmlns:xlink="http://www.w3.org/1999/xlink">
<g id="graph0" class="graph" transform="scale(1 1) rotate(0) translate(4 147)">
<title>/home/runner/work/EX&#45;Display/EX&#45;Display/test/integration/test_CompilerCreation</title>
<polygon fill="white" stroke="transparent" points="-4,4 -4,-147 162,-147 162,4 -4,4"/>
<g id="clust1" class="cluster">
<title>clusterdir_bbf9f1b56ba6c621651be8934a24eced</title>
<g id="a_clust1"><a xlink:href="dir_bbf9f1b56ba6c621651be8934a24eced.html" target="_top" xlink:title="integration">
<polygon fill="#ddddee" stroke="black" points="8,-64 8,-135 150,-135 150,-64 8,-64"/>
<text text-anchor="middle" x="79" y="-123" font-family="Helvetica,sans-Serif" font-size="10.00">integration</text>
</a>
</g>
</g>
<!-- dir_3a18776946f10f5730fda556d0ef779a -->
<g id="node1" class="node">
<title>dir_3a18776946f10f5730fda556d0ef779a</title>
<g id="a_node1"><a xlink:href="dir_3a18776946f10f5730fda556d0ef779a.html" target="_top" xlink:title="test_CompilerCreation">
<polygon fill="#eeeeff" stroke="black" points="142,-108 16,-108 16,-72 142,-72 142,-108"/>
<text text-anchor="middle" x="79" y="-87.5" font-family="Helvetica,sans-Serif" font-size="10.00">test_CompilerCreation</text>
</a>
</g>
</g>
<!-- dir_cdf6d930f2dcd230c29757233293cb63 -->
<g id="node2" class="node">
<title>dir_cdf6d930f2dcd230c29757233293cb63</title>
<g id="a_node2"><a xlink:href="dir_cdf6d930f2dcd230c29757233293cb63.html" target="_top" xlink:title="mocks">
<polygon fill="none" stroke="black" points="106,-36 52,-36 52,0 106,0 106,-36"/>
<text text-anchor="middle" x="79" y="-15.5" font-family="Helvetica,sans-Serif" font-size="10.00">mocks</text>
</a>
</g>
</g>
<!-- dir_3a18776946f10f5730fda556d0ef779a&#45;&gt;dir_cdf6d930f2dcd230c29757233293cb63 -->
<g id="edge1" class="edge">
<title>dir_3a18776946f10f5730fda556d0ef779a&#45;&gt;dir_cdf6d930f2dcd230c29757233293cb63</title>
<path fill="none" stroke="black" d="M79,-71.7C79,-63.98 79,-54.71 79,-46.11"/>
<polygon fill="black" stroke="black" points="82.5,-46.1 79,-36.1 75.5,-46.1 82.5,-46.1"/>
<g id="a_edge1&#45;headlabel"><a xlink:href="dir_000002_000016.html" target="_top" xlink:title="1">
<text text-anchor="middle" x="85.34" y="-47.2" font-family="Helvetica,sans-Serif" font-size="10.00">1</text>
</a>
</g>
</g>
</g>
</svg>
