<?xml version="1.0" encoding="UTF-8" standalone="no"?>
<!DOCTYPE svg PUBLIC "-//W3C//DTD SVG 1.1//EN"
 "http://www.w3.org/Graphics/SVG/1.1/DTD/svg11.dtd">
<!-- Generated by graphviz version 2.43.0 (0)
 -->
<!-- Title: /home/runner/work/EX&#45;Display/EX&#45;Display/test/unit Pages: 1 -->
<svg width="1131pt" height="175pt"
 viewBox="0.00 0.00 1131.00 175.00" xmlns="http://www.w3.org/2000/svg" xmlns:xlink="http://www.w3.org/1999/xlink">
<g id="graph0" class="graph" transform="scale(1 1) rotate(0) translate(4 171)">
<title>/home/runner/work/EX&#45;Display/EX&#45;Display/test/unit</title>
<polygon fill="white" stroke="transparent" points="-4,4 -4,-171 1127,-171 1127,4 -4,4"/>
<g id="clust1" class="cluster">
<title>clusterdir_13e138d54eb8818da29c3992edef070a</title>
<g id="a_clust1"><a xlink:href="dir_13e138d54eb8818da29c3992edef070a.html" target="_top" xlink:title="test">
<polygon fill="#ddddee" stroke="black" points="8,-8 8,-159 1115,-159 1115,-8 8,-8"/>
<text text-anchor="middle" x="561.5" y="-147" font-family="Helvetica,sans-Serif" font-size="10.00">test</text>
</a>
</g>
</g>
<g id="clust2" class="cluster">
<title>clusterdir_6a07fdbc4b50e86806a88566ca8f66e4</title>
<g id="a_clust2"><a xlink:href="dir_6a07fdbc4b50e86806a88566ca8f66e4.html" target="_top">
<polygon fill="#eeeeff" stroke="black" points="16,-80 16,-132 1107,-132 1107,-80 16,-80"/>
</a>
</g>
</g>
<!-- dir_cdf6d930f2dcd230c29757233293cb63 -->
<g id="node1" class="node">
<title>dir_cdf6d930f2dcd230c29757233293cb63</title>
<g id="a_node1"><a xlink:href="dir_cdf6d930f2dcd230c29757233293cb63.html" target="_top" xlink:title="mocks">
<polygon fill="none" stroke="black" points="540,-52 486,-52 486,-16 540,-16 540,-52"/>
<text text-anchor="middle" x="513" y="-31.5" font-family="Helvetica,sans-Serif" font-size="10.00">mocks</text>
</a>
</g>
</g>
<!-- dir_6a07fdbc4b50e86806a88566ca8f66e4 -->
<g id="node2" class="node">
<title>dir_6a07fdbc4b50e86806a88566ca8f66e4</title>
<text text-anchor="middle" x="1072" y="-103.5" font-family="Helvetica,sans-Serif" font-size="10.00">unit</text>
</g>
<!-- dir_0737fc3edcd5e3d8c98723a7136df9d8 -->
<g id="node3" class="node">
<title>dir_0737fc3edcd5e3d8c98723a7136df9d8</title>
<g id="a_node3"><a xlink:href="dir_0737fc3edcd5e3d8c98723a7136df9d8.html" target="_top" xlink:title="test_Configurator">
<polygon fill="white" stroke="black" points="1026.5,-124 925.5,-124 925.5,-88 1026.5,-88 1026.5,-124"/>
<text text-anchor="middle" x="976" y="-103.5" font-family="Helvetica,sans-Serif" font-size="10.00">test_Configurator</text>
</a>
</g>
</g>
<!-- dir_0737fc3edcd5e3d8c98723a7136df9d8&#45;&gt;dir_cdf6d930f2dcd230c29757233293cb63 -->
<g id="edge7" class="edge">
<title>dir_0737fc3edcd5e3d8c98723a7136df9d8&#45;&gt;dir_cdf6d930f2dcd230c29757233293cb63</title>
<path fill="none" stroke="black" d="M940.39,-87.96C932.81,-84.89 924.75,-82.03 917,-80 785.49,-45.6 623.17,-37.49 550.85,-35.58"/>
<polygon fill="black" stroke="black" points="550.52,-32.07 540.44,-35.34 550.36,-39.07 550.52,-32.07"/>
<g id="a_edge7&#45;headlabel"><a xlink:href="dir_000007_000016.html" target="_top" xlink:title="2">
<text text-anchor="middle" x="554.19" y="-26.82" font-family="Helvetica,sans-Serif" font-size="10.00">2</text>
</a>
</g>
</g>
<!-- dir_d18ecea1db5c8a0cb2a2f078b0a61021 -->
<g id="node4" class="node">
<title>dir_d18ecea1db5c8a0cb2a2f078b0a61021</title>
<g id="a_node4"><a xlink:href="dir_d18ecea1db5c8a0cb2a2f078b0a61021.html" target="_top" xlink:title="test_Controller">
<polygon fill="white" stroke="black" points="907.5,-124 818.5,-124 818.5,-88 907.5,-88 907.5,-124"/>
<text text-anchor="middle" x="863" y="-103.5" font-family="Helvetica,sans-Serif" font-size="10.00">test_Controller</text>
</a>
</g>
</g>
<!-- dir_d18ecea1db5c8a0cb2a2f078b0a61021&#45;&gt;dir_cdf6d930f2dcd230c29757233293cb63 -->
<g id="edge6" class="edge">
<title>dir_d18ecea1db5c8a0cb2a2f078b0a61021&#45;&gt;dir_cdf6d930f2dcd230c29757233293cb63</title>
<path fill="none" stroke="black" d="M830.79,-88C824.06,-84.96 816.91,-82.1 810,-80 719.12,-52.33 607.19,-41.25 550.19,-37.17"/>
<polygon fill="black" stroke="black" points="550.42,-33.67 540.2,-36.48 549.94,-40.66 550.42,-33.67"/>
<g id="a_edge6&#45;headlabel"><a xlink:href="dir_000008_000016.html" target="_top" xlink:title="4">
<text text-anchor="middle" x="554.2" y="-28.59" font-family="Helvetica,sans-Serif" font-size="10.00">4</text>
</a>
</g>
</g>
<!-- dir_0c5825d3a08d0cb29e7c06bb7be82aa6 -->
<g id="node5" class="node">
<title>dir_0c5825d3a08d0cb29e7c06bb7be82aa6</title>
<g id="a_node5"><a xlink:href="dir_0c5825d3a08d0cb29e7c06bb7be82aa6.html" target="_top" xlink:title="test_Display">
<polygon fill="white" stroke="black" points="800.5,-124 723.5,-124 723.5,-88 800.5,-88 800.5,-124"/>
<text text-anchor="middle" x="762" y="-103.5" font-family="Helvetica,sans-Serif" font-size="10.00">test_Display</text>
</a>
</g>
</g>
<!-- dir_0c5825d3a08d0cb29e7c06bb7be82aa6&#45;&gt;dir_cdf6d930f2dcd230c29757233293cb63 -->
<g id="edge9" class="edge">
<title>dir_0c5825d3a08d0cb29e7c06bb7be82aa6&#45;&gt;dir_cdf6d930f2dcd230c29757233293cb63</title>
<path fill="none" stroke="black" d="M732.07,-87.9C726.2,-84.98 720,-82.19 714,-80 658.69,-59.8 591.37,-46.97 550.38,-40.38"/>
<polygon fill="black" stroke="black" points="550.72,-36.89 540.3,-38.8 549.63,-43.81 550.72,-36.89"/>
<g id="a_edge9&#45;headlabel"><a xlink:href="dir_000009_000016.html" target="_top" xlink:title="2">
<text text-anchor="middle" x="554.71" y="-32.14" font-family="Helvetica,sans-Serif" font-size="10.00">2</text>
</a>
</g>
</g>
<!-- dir_87de4f86c9604223b7c9d497cd5be270 -->
<g id="node6" class="node">
<title>dir_87de4f86c9604223b7c9d497cd5be270</title>
<g id="a_node6"><a xlink:href="dir_87de4f86c9604223b7c9d497cd5be270.html" target="_top" xlink:title="test_DisplayManager">
<polygon fill="white" stroke="black" points="705,-124 585,-124 585,-88 705,-88 705,-124"/>
<text text-anchor="middle" x="645" y="-103.5" font-family="Helvetica,sans-Serif" font-size="10.00">test_DisplayManager</text>
</a>
</g>
</g>
<!-- dir_87de4f86c9604223b7c9d497cd5be270&#45;&gt;dir_cdf6d930f2dcd230c29757233293cb63 -->
<g id="edge2" class="edge">
<title>dir_87de4f86c9604223b7c9d497cd5be270&#45;&gt;dir_cdf6d930f2dcd230c29757233293cb63</title>
<path fill="none" stroke="black" d="M612.71,-87.88C593.47,-77.67 569.01,-64.7 549.12,-54.16"/>
<polygon fill="black" stroke="black" points="550.54,-50.94 540.06,-49.35 547.26,-57.13 550.54,-50.94"/>
<g id="a_edge2&#45;headlabel"><a xlink:href="dir_000010_000016.html" target="_top" xlink:title="3">
<text text-anchor="middle" x="555.04" y="-47.62" font-family="Helvetica,sans-Serif" font-size="10.00">3</text>
</a>
</g>
</g>
<!-- dir_4b0424823a083ada0bb57abf6128890c -->
<g id="node7" class="node">
<title>dir_4b0424823a083ada0bb57abf6128890c</title>
<g id="a_node7"><a xlink:href="dir_4b0424823a083ada0bb57abf6128890c.html" target="_top" xlink:title="test_Infrastructure">
<polygon fill="white" stroke="black" points="566.5,-124 459.5,-124 459.5,-88 566.5,-88 566.5,-124"/>
<text text-anchor="middle" x="513" y="-103.5" font-family="Helvetica,sans-Serif" font-size="10.00">test_Infrastructure</text>
</a>
</g>
</g>
<!-- dir_4b0424823a083ada0bb57abf6128890c&#45;&gt;dir_cdf6d930f2dcd230c29757233293cb63 -->
<g id="edge5" class="edge">
<title>dir_4b0424823a083ada0bb57abf6128890c&#45;&gt;dir_cdf6d930f2dcd230c29757233293cb63</title>
<path fill="none" stroke="black" d="M513,-87.7C513,-79.98 513,-70.71 513,-62.11"/>
<polygon fill="black" stroke="black" points="516.5,-62.1 513,-52.1 509.5,-62.1 516.5,-62.1"/>
<g id="a_edge5&#45;headlabel"><a xlink:href="dir_000011_000016.html" target="_top" xlink:title="2">
<text text-anchor="middle" x="519.34" y="-63.2" font-family="Helvetica,sans-Serif" font-size="10.00">2</text>
</a>
</g>
</g>
<!-- dir_0f574f59922a3278009c00d480dfb4a4 -->
<g id="node8" class="node">
<title>dir_0f574f59922a3278009c00d480dfb4a4</title>
<g id="a_node8"><a xlink:href="dir_0f574f59922a3278009c00d480dfb4a4.html" target="_top" xlink:title="test_Input">
<polygon fill="white" stroke="black" points="441.5,-124 376.5,-124 376.5,-88 441.5,-88 441.5,-124"/>
<text text-anchor="middle" x="409" y="-103.5" font-family="Helvetica,sans-Serif" font-size="10.00">test_Input</text>
</a>
</g>
</g>
<!-- dir_0f574f59922a3278009c00d480dfb4a4&#45;&gt;dir_cdf6d930f2dcd230c29757233293cb63 -->
<g id="edge4" class="edge">
<title>dir_0f574f59922a3278009c00d480dfb4a4&#45;&gt;dir_cdf6d930f2dcd230c29757233293cb63</title>
<path fill="none" stroke="black" d="M434.44,-87.88C447.79,-78.89 464.32,-67.76 478.78,-58.03"/>
<polygon fill="black" stroke="black" points="481.12,-60.68 487.46,-52.19 477.21,-54.87 481.12,-60.68"/>
<g id="a_edge4&#45;headlabel"><a xlink:href="dir_000012_000016.html" target="_top" xlink:title="7">
<text text-anchor="middle" x="479.72" y="-62.54" font-family="Helvetica,sans-Serif" font-size="10.00">7</text>
</a>
</g>
</g>
<!-- dir_0dbc894253d3767ce13dd242c7eb95d7 -->
<g id="node9" class="node">
<title>dir_0dbc894253d3767ce13dd242c7eb95d7</title>
<g id="a_node9"><a xlink:href="dir_0dbc894253d3767ce13dd242c7eb95d7.html" target="_top" xlink:title="test_InputManager">
<polygon fill="white" stroke="black" points="358,-124 250,-124 250,-88 358,-88 358,-124"/>
<text text-anchor="middle" x="304" y="-103.5" font-family="Helvetica,sans-Serif" font-size="10.00">test_InputManager</text>
</a>
</g>
</g>
<!-- dir_0dbc894253d3767ce13dd242c7eb95d7&#45;&gt;dir_cdf6d930f2dcd230c29757233293cb63 -->
<g id="edge3" class="edge">
<title>dir_0dbc894253d3767ce13dd242c7eb95d7&#45;&gt;dir_cdf6d930f2dcd230c29757233293cb63</title>
<path fill="none" stroke="black" d="M346.53,-87.9C353.67,-85.17 361.02,-82.44 368,-80 404.39,-67.27 446.52,-54.39 475.97,-45.7"/>
<polygon fill="black" stroke="black" points="477.21,-48.98 485.82,-42.8 475.24,-42.26 477.21,-48.98"/>
<g id="a_edge3&#45;headlabel"><a xlink:href="dir_000013_000016.html" target="_top" xlink:title="2">
<text text-anchor="middle" x="474.56" y="-50.22" font-family="Helvetica,sans-Serif" font-size="10.00">2</text>
</a>
</g>
</g>
<!-- dir_c5590eab7fc0039fde0b4c38fbee3635 -->
<g id="node10" class="node">
<title>dir_c5590eab7fc0039fde0b4c38fbee3635</title>
<g id="a_node10"><a xlink:href="dir_c5590eab7fc0039fde0b4c38fbee3635.html" target="_top" xlink:title="test_Screen">
<polygon fill="white" stroke="black" points="232,-124 158,-124 158,-88 232,-88 232,-124"/>
<text text-anchor="middle" x="195" y="-103.5" font-family="Helvetica,sans-Serif" font-size="10.00">test_Screen</text>
</a>
</g>
</g>
<!-- dir_c5590eab7fc0039fde0b4c38fbee3635&#45;&gt;dir_cdf6d930f2dcd230c29757233293cb63 -->
<g id="edge8" class="edge">
<title>dir_c5590eab7fc0039fde0b4c38fbee3635&#45;&gt;dir_cdf6d930f2dcd230c29757233293cb63</title>
<path fill="none" stroke="black" d="M223.03,-87.86C228.82,-84.87 234.98,-82.07 241,-80 321.85,-52.23 422.27,-41.3 475.61,-37.24"/>
<polygon fill="black" stroke="black" points="475.91,-40.72 485.63,-36.51 475.4,-33.74 475.91,-40.72"/>
<g id="a_edge8&#45;headlabel"><a xlink:href="dir_000014_000016.html" target="_top" xlink:title="1">
<text text-anchor="middle" x="472.53" y="-41.32" font-family="Helvetica,sans-Serif" font-size="10.00">1</text>
</a>
</g>
</g>
<!-- dir_caadc6f8e359ca0fd92fd8cf834ab15b -->
<g id="node11" class="node">
<title>dir_caadc6f8e359ca0fd92fd8cf834ab15b</title>
<g id="a_node11"><a xlink:href="dir_caadc6f8e359ca0fd92fd8cf834ab15b.html" target="_top" xlink:title="test_ScreenManager">
<polygon fill="white" stroke="black" points="140,-124 24,-124 24,-88 140,-88 140,-124"/>
<text text-anchor="middle" x="82" y="-103.5" font-family="Helvetica,sans-Serif" font-size="10.00">test_ScreenManager</text>
</a>
</g>
</g>
<!-- dir_caadc6f8e359ca0fd92fd8cf834ab15b&#45;&gt;dir_cdf6d930f2dcd230c29757233293cb63 -->
<g id="edge1" class="edge">
<title>dir_caadc6f8e359ca0fd92fd8cf834ab15b&#45;&gt;dir_cdf6d930f2dcd230c29757233293cb63</title>
<path fill="none" stroke="black" d="M122.98,-87.99C131.47,-84.95 140.44,-82.1 149,-80 266.12,-51.33 409.15,-40.45 475.66,-36.73"/>
<polygon fill="black" stroke="black" points="475.87,-40.23 485.67,-36.19 475.49,-33.24 475.87,-40.23"/>
<g id="a_edge1&#45;headlabel"><a xlink:href="dir_000015_000016.html" target="_top" xlink:title="1">
<text text-anchor="middle" x="472.43" y="-40.75" font-family="Helvetica,sans-Serif" font-size="10.00">1</text>
</a>
</g>
</g>
</g>
</svg>
