<?xml version="1.0" encoding="UTF-8" standalone="no"?>
<!DOCTYPE svg PUBLIC "-//W3C//DTD SVG 1.1//EN"
 "http://www.w3.org/Graphics/SVG/1.1/DTD/svg11.dtd">
<!-- Generated by graphviz version 2.43.0 (0)
 -->
<!-- Title: /home/runner/work/EX&#45;Display/EX&#45;Display/test/unit/test_Display Pages: 1 -->
<svg width="118pt" height="151pt"
 viewBox="0.00 0.00 118.00 151.00" xmlns="http://www.w3.org/2000/svg" xmlns:xlink="http://www.w3.org/1999/xlink">
<g id="graph0" class="graph" transform="scale(1 1) rotate(0) translate(4 147)">
<title>/home/runner/work/EX&#45;Display/EX&#45;Display/test/unit/test_Display</title>
<polygon fill="white" stroke="transparent" points="-4,4 -4,-147 114,-147 114,4 -4,4"/>
<g id="clust1" class="cluster">
<title>clusterdir_6a07fdbc4b50e86806a88566ca8f66e4</title>
<g id="a_clust1"><a xlink:href="dir_6a07fdbc4b50e86806a88566ca8f66e4.html" target="_top" xlink:title="unit">
<polygon fill="#ddddee" stroke="black" points="8,-64 8,-135 102,-135 102,-64 8,-64"/>
<text text-anchor="middle" x="55" y="-123" font-family="Helvetica,sans-Serif" font-size="10.00">unit</text>
</a>
</g>
</g>
<!-- dir_0c5825d3a08d0cb29e7c06bb7be82aa6 -->
<g id="node1" class="node">
<title>dir_0c5825d3a08d0cb29e7c06bb7be82aa6</title>
<g id="a_node1"><a xlink:href="dir_0c5825d3a08d0cb29e7c06bb7be82aa6.html" target="_top" xlink:title="test_Display">
<polygon fill="#eeeeff" stroke="black" points="93.5,-108 16.5,-108 16.5,-72 93.5,-72 93.5,-108"/>
<text text-anchor="middle" x="55" y="-87.5" font-family="Helvetica,sans-Serif" font-size="10.00">test_Display</text>
</a>
</g>
</g>
<!-- dir_cdf6d930f2dcd230c29757233293cb63 -->
<g id="node2" class="node">
<title>dir_cdf6d930f2dcd230c29757233293cb63</title>
<g id="a_node2"><a xlink:href="dir_cdf6d930f2dcd230c29757233293cb63.html" target="_top" xlink:title="mocks">
<polygon fill="none" stroke="black" points="82,-36 28,-36 28,0 82,0 82,-36"/>
<text text-anchor="middle" x="55" y="-15.5" font-family="Helvetica,sans-Serif" font-size="10.00">mocks</text>
</a>
</g>
</g>
<!-- dir_0c5825d3a08d0cb29e7c06bb7be82aa6&#45;&gt;dir_cdf6d930f2dcd230c29757233293cb63 -->
<g id="edge1" class="edge">
<title>dir_0c5825d3a08d0cb29e7c06bb7be82aa6&#45;&gt;dir_cdf6d930f2dcd230c29757233293cb63</title>
<path fill="none" stroke="black" d="M55,-71.7C55,-63.98 55,-54.71 55,-46.11"/>
<polygon fill="black" stroke="black" points="58.5,-46.1 55,-36.1 51.5,-46.1 58.5,-46.1"/>
<g id="a_edge1&#45;headlabel"><a xlink:href="dir_000009_000016.html" target="_top" xlink:title="2">
<text text-anchor="middle" x="61.34" y="-47.2" font-family="Helvetica,sans-Serif" font-size="10.00">2</text>
</a>
</g>
</g>
</g>
</svg>
