<?xml version="1.0" encoding="UTF-8" standalone="no"?>
<!DOCTYPE svg PUBLIC "-//W3C//DTD SVG 1.1//EN"
 "http://www.w3.org/Graphics/SVG/1.1/DTD/svg11.dtd">
<!-- Generated by graphviz version 2.43.0 (0)
 -->
<!-- Title: /home/runner/work/EX&#45;Display/EX&#45;Display/test/unit Pages: 1 -->
<!--zoomable 141 -->

<svg id="main" version="1.1" xmlns="http://www.w3.org/2000/svg" xmlns:xlink="http://www.w3.org/1999/xlink" xml:space="preserve" onload="init(evt)">
<style type="text/css"><![CDATA[
.node, .edge {opacity: 0.7;}
.node.selected, .edge.selected {opacity: 1;}
.edge:hover path { stroke: red; }
.edge:hover polygon { stroke: red; fill: red; }
]]></style>

<defs>
  <circle id="rim" cx="0" cy="0" r="7"/>
  <circle id="rim2" cx="0" cy="0" r="3.5"/>
  <g id="zoomPlus">
    <use xlink:href="#rim" fill="#404040"><set attributeName="fill" to="#808080" begin="zoomplus.mouseover" end="zoomplus.mouseout"/></use>
    <path d="M-4,0h8M0,-4v8" fill="none" stroke="white" stroke-width="1.5" pointer-events="none"/>
  </g>
  <g id="zoomMin">
    <use xlink:href="#rim" fill="#404040"><set attributeName="fill" to="#808080" begin="zoomminus.mouseover" end="zoomminus.mouseout"/></use>
    <path d="M-4,0h8" fill="none" stroke="white" stroke-width="1.5" pointer-events="none"/>
  </g>
  <g id="arrowUp" transform="translate(30 24)">
    <use xlink:href="#rim"/>
    <path pointer-events="none" fill="none" stroke="white" stroke-width="1.5" d="M0,-3.0v7 M-2.5,-0.5L0,-3.0L2.5,-0.5"/>
  </g>
  <g id="arrowRight" transform="rotate(90) translate(36 -43)">
    <use xlink:href="#rim"/>
    <path pointer-events="none" fill="none" stroke="white" stroke-width="1.5" d="M0,-3.0v7 M-2.5,-0.5L0,-3.0L2.5,-0.5"/>
  </g>
  <g id="arrowDown" transform="rotate(180) translate(-30 -48)">
    <use xlink:href="#rim"/>
    <path pointer-events="none" fill="none" stroke="white" stroke-width="1.5" d="M0,-3.0v7 M-2.5,-0.5L0,-3.0L2.5,-0.5"/>
  </g>
  <g id="arrowLeft" transform="rotate(270) translate(-36 17)">
    <use xlink:href="#rim"/>
    <path pointer-events="none" fill="none" stroke="white" stroke-width="1.5" d="M0,-3.0v7 M-2.5,-0.5L0,-3.0L2.5,-0.5"/>
  </g>
  <g id="resetDef">
    <use xlink:href="#rim2" fill="#404040"><set attributeName="fill" to="#808080" begin="reset.mouseover" end="reset.mouseout"/></use>
  </g>
</defs>
<script type="application/ecmascript">
var viewWidth = 1112;
var viewHeight = 141;
var sectionId = 'dynsection-0';
</script>
<script type="application/ecmascript" xlink:href="svg.min.js"/>
<svg id="graph" class="graph">
<g id="viewport">
<title>/home/runner/work/EX&#45;Display/EX&#45;Display/test/unit</title>
<g id="clust1" class="cluster">
<title>clusterdir_13e138d54eb8818da29c3992edef070a</title>
<g id="a_clust1"><a xlink:href="dir_13e138d54eb8818da29c3992edef070a.html" target="_top" xlink:title="test">
<polygon fill="#edf0f7" stroke="#404040" stroke-dasharray="5,2" points="8,-8 8,-125 1096,-125 1096,-8 8,-8"/>
<text text-anchor="middle" x="552" y="-113" font-family="Helvetica,sans-Serif" font-size="10.00">test</text>
</a>
</g>
</g>
<g id="clust2" class="cluster">
<title>clusterdir_6a07fdbc4b50e86806a88566ca8f66e4</title>
<g id="a_clust2"><a xlink:href="dir_6a07fdbc4b50e86806a88566ca8f66e4.html" target="_top">
<polygon fill="#edf0f7" stroke="#404040" stroke-width="2" points="16,-63 16,-98 1088,-98 1088,-63 16,-63"/>
</a>
</g>
</g>
<!-- dir_cdf6d930f2dcd230c29757233293cb63 -->
<g id="node1" class="node">
<title>dir_cdf6d930f2dcd230c29757233293cb63</title>
<g id="a_node1"><a xlink:href="dir_cdf6d930f2dcd230c29757233293cb63.html" target="_top" xlink:title="mocks">
<polygon fill="#a2b4d6" stroke="#404040" points="537.5,-35 488.5,-35 488.5,-16 537.5,-16 537.5,-35"/>
<text text-anchor="middle" x="513" y="-23" font-family="Helvetica,sans-Serif" font-size="10.00">mocks</text>
</a>
</g>
</g>
<!-- dir_6a07fdbc4b50e86806a88566ca8f66e4 -->
<g id="node2" class="node">
<title>dir_6a07fdbc4b50e86806a88566ca8f66e4</title>
<text text-anchor="middle" x="1062" y="-78" font-family="Helvetica,sans-Serif" font-size="10.00">unit</text>
</g>
<!-- dir_0737fc3edcd5e3d8c98723a7136df9d8 -->
<g id="node3" class="node">
<title>dir_0737fc3edcd5e3d8c98723a7136df9d8</title>
<g id="a_node3"><a xlink:href="dir_0737fc3edcd5e3d8c98723a7136df9d8.html" target="_top" xlink:title="test_Configurator">
<polygon fill="#a2b4d6" stroke="#404040" points="1026.5,-90 925.5,-90 925.5,-71 1026.5,-71 1026.5,-90"/>
<text text-anchor="middle" x="976" y="-78" font-family="Helvetica,sans-Serif" font-size="10.00">test_Configurator</text>
</a>
</g>
</g>
<!-- dir_0737fc3edcd5e3d8c98723a7136df9d8&#45;&gt;dir_cdf6d930f2dcd230c29757233293cb63 -->
<g id="edge1" class="edge">
<title>dir_0737fc3edcd5e3d8c98723a7136df9d8&#45;&gt;dir_cdf6d930f2dcd230c29757233293cb63</title>
<g id="a_edge1"><a xlink:href="dir_000004_000001.html" target="_top">
<path fill="none" stroke="#63b8ff" d="M949.51,-70.98C939.43,-68.03 927.78,-64.98 917,-63 781.93,-38.23 618.24,-30.02 547.89,-27.51"/>
<polygon fill="#63b8ff" stroke="#63b8ff" points="547.92,-24.01 537.81,-27.17 547.68,-31.01 547.92,-24.01"/>
</a>
</g>
<g id="a_edge1&#45;headlabel"><a xlink:href="dir_000004_000001.html" target="_top" xlink:title="2">
<text text-anchor="middle" x="551.61" y="-18.79" font-family="Helvetica,sans-Serif" font-size="10.00" fill="#63b8ff">2</text>
</a>
</g>
</g>
<!-- dir_d18ecea1db5c8a0cb2a2f078b0a61021 -->
<g id="node4" class="node">
<title>dir_d18ecea1db5c8a0cb2a2f078b0a61021</title>
<g id="a_node4"><a xlink:href="dir_d18ecea1db5c8a0cb2a2f078b0a61021.html" target="_top" xlink:title="test_Controller">
<polygon fill="#a2b4d6" stroke="#404040" points="907.5,-90 818.5,-90 818.5,-71 907.5,-71 907.5,-90"/>
<text text-anchor="middle" x="863" y="-78" font-family="Helvetica,sans-Serif" font-size="10.00">test_Controller</text>
</a>
</g>
</g>
<!-- dir_d18ecea1db5c8a0cb2a2f078b0a61021&#45;&gt;dir_cdf6d930f2dcd230c29757233293cb63 -->
<g id="edge2" class="edge">
<title>dir_d18ecea1db5c8a0cb2a2f078b0a61021&#45;&gt;dir_cdf6d930f2dcd230c29757233293cb63</title>
<g id="a_edge2"><a xlink:href="dir_000006_000001.html" target="_top">
<path fill="none" stroke="#63b8ff" d="M838.7,-70.93C829.77,-68.05 819.52,-65.05 810,-63 716.25,-42.82 603.27,-32.76 547.54,-28.72"/>
<polygon fill="#63b8ff" stroke="#63b8ff" points="547.72,-25.23 537.5,-28.02 547.23,-32.21 547.72,-25.23"/>
</a>
</g>
<g id="a_edge2&#45;headlabel"><a xlink:href="dir_000006_000001.html" target="_top" xlink:title="4">
<text text-anchor="middle" x="551.51" y="-20.15" font-family="Helvetica,sans-Serif" font-size="10.00" fill="#63b8ff">4</text>
</a>
</g>
</g>
<!-- dir_0c5825d3a08d0cb29e7c06bb7be82aa6 -->
<g id="node5" class="node">
<title>dir_0c5825d3a08d0cb29e7c06bb7be82aa6</title>
<g id="a_node5"><a xlink:href="dir_0c5825d3a08d0cb29e7c06bb7be82aa6.html" target="_top" xlink:title="test_Display">
<polygon fill="#a2b4d6" stroke="#404040" points="800.5,-90 723.5,-90 723.5,-71 800.5,-71 800.5,-90"/>
<text text-anchor="middle" x="762" y="-78" font-family="Helvetica,sans-Serif" font-size="10.00">test_Display</text>
</a>
</g>
</g>
<!-- dir_0c5825d3a08d0cb29e7c06bb7be82aa6&#45;&gt;dir_cdf6d930f2dcd230c29757233293cb63 -->
<g id="edge3" class="edge">
<title>dir_0c5825d3a08d0cb29e7c06bb7be82aa6&#45;&gt;dir_cdf6d930f2dcd230c29757233293cb63</title>
<g id="a_edge3"><a xlink:href="dir_000008_000001.html" target="_top">
<path fill="none" stroke="#63b8ff" d="M739.27,-70.9C731.35,-68.11 722.36,-65.18 714,-63 656.51,-47.99 588.19,-37 547.83,-31.19"/>
<polygon fill="#63b8ff" stroke="#63b8ff" points="548.1,-27.69 537.7,-29.76 547.12,-34.62 548.1,-27.69"/>
</a>
</g>
<g id="a_edge3&#45;headlabel"><a xlink:href="dir_000008_000001.html" target="_top" xlink:title="3">
<text text-anchor="middle" x="552.05" y="-22.88" font-family="Helvetica,sans-Serif" font-size="10.00" fill="#63b8ff">3</text>
</a>
</g>
</g>
<!-- dir_87de4f86c9604223b7c9d497cd5be270 -->
<g id="node6" class="node">
<title>dir_87de4f86c9604223b7c9d497cd5be270</title>
<g id="a_node6"><a xlink:href="dir_87de4f86c9604223b7c9d497cd5be270.html" target="_top" xlink:title="test_DisplayManager">
<polygon fill="#a2b4d6" stroke="#404040" points="705,-90 585,-90 585,-71 705,-71 705,-90"/>
<text text-anchor="middle" x="645" y="-78" font-family="Helvetica,sans-Serif" font-size="10.00">test_DisplayManager</text>
</a>
</g>
</g>
<!-- dir_87de4f86c9604223b7c9d497cd5be270&#45;&gt;dir_cdf6d930f2dcd230c29757233293cb63 -->
<g id="edge4" class="edge">
<title>dir_87de4f86c9604223b7c9d497cd5be270&#45;&gt;dir_cdf6d930f2dcd230c29757233293cb63</title>
<g id="a_edge4"><a xlink:href="dir_000009_000001.html" target="_top">
<path fill="none" stroke="#63b8ff" d="M623.79,-70.98C602.27,-62.34 568.72,-48.87 544.17,-39.02"/>
<polygon fill="#63b8ff" stroke="#63b8ff" points="545.18,-35.65 534.59,-35.17 542.57,-42.14 545.18,-35.65"/>
</a>
</g>
<g id="a_edge4&#45;headlabel"><a xlink:href="dir_000009_000001.html" target="_top" xlink:title="3">
<text text-anchor="middle" x="549.57" y="-31.85" font-family="Helvetica,sans-Serif" font-size="10.00" fill="#63b8ff">3</text>
</a>
</g>
</g>
<!-- dir_4b0424823a083ada0bb57abf6128890c -->
<g id="node7" class="node">
<title>dir_4b0424823a083ada0bb57abf6128890c</title>
<g id="a_node7"><a xlink:href="dir_4b0424823a083ada0bb57abf6128890c.html" target="_top" xlink:title="test_Infrastructure">
<polygon fill="#a2b4d6" stroke="#404040" points="566.5,-90 459.5,-90 459.5,-71 566.5,-71 566.5,-90"/>
<text text-anchor="middle" x="513" y="-78" font-family="Helvetica,sans-Serif" font-size="10.00">test_Infrastructure</text>
</a>
</g>
</g>
<!-- dir_4b0424823a083ada0bb57abf6128890c&#45;&gt;dir_cdf6d930f2dcd230c29757233293cb63 -->
<g id="edge5" class="edge">
<title>dir_4b0424823a083ada0bb57abf6128890c&#45;&gt;dir_cdf6d930f2dcd230c29757233293cb63</title>
<g id="a_edge5"><a xlink:href="dir_000010_000001.html" target="_top">
<path fill="none" stroke="#63b8ff" d="M513,-70.75C513,-63.8 513,-53.85 513,-45.13"/>
<polygon fill="#63b8ff" stroke="#63b8ff" points="516.5,-45.09 513,-35.09 509.5,-45.09 516.5,-45.09"/>
</a>
</g>
<g id="a_edge5&#45;headlabel"><a xlink:href="dir_000010_000001.html" target="_top" xlink:title="2">
<text text-anchor="middle" x="519.34" y="-46.18" font-family="Helvetica,sans-Serif" font-size="10.00" fill="#63b8ff">2</text>
</a>
</g>
</g>
<!-- dir_0f574f59922a3278009c00d480dfb4a4 -->
<g id="node8" class="node">
<title>dir_0f574f59922a3278009c00d480dfb4a4</title>
<g id="a_node8"><a xlink:href="dir_0f574f59922a3278009c00d480dfb4a4.html" target="_top" xlink:title="test_Input">
<polygon fill="#a2b4d6" stroke="#404040" points="441.5,-90 376.5,-90 376.5,-71 441.5,-71 441.5,-90"/>
<text text-anchor="middle" x="409" y="-78" font-family="Helvetica,sans-Serif" font-size="10.00">test_Input</text>
</a>
</g>
</g>
<!-- dir_0f574f59922a3278009c00d480dfb4a4&#45;&gt;dir_cdf6d930f2dcd230c29757233293cb63 -->
<g id="edge6" class="edge">
<title>dir_0f574f59922a3278009c00d480dfb4a4&#45;&gt;dir_cdf6d930f2dcd230c29757233293cb63</title>
<g id="a_edge6"><a xlink:href="dir_000011_000001.html" target="_top">
<path fill="none" stroke="#63b8ff" d="M425.71,-70.98C442.21,-62.57 467.7,-49.59 486.88,-39.81"/>
<polygon fill="#63b8ff" stroke="#63b8ff" points="488.67,-42.83 495.99,-35.17 485.49,-36.59 488.67,-42.83"/>
</a>
</g>
<g id="a_edge6&#45;headlabel"><a xlink:href="dir_000011_000001.html" target="_top" xlink:title="7">
<text text-anchor="middle" x="486.75" y="-44.49" font-family="Helvetica,sans-Serif" font-size="10.00" fill="#63b8ff">7</text>
</a>
</g>
</g>
<!-- dir_0dbc894253d3767ce13dd242c7eb95d7 -->
<g id="node9" class="node">
<title>dir_0dbc894253d3767ce13dd242c7eb95d7</title>
<g id="a_node9"><a xlink:href="dir_0dbc894253d3767ce13dd242c7eb95d7.html" target="_top" xlink:title="test_InputManager">
<polygon fill="#a2b4d6" stroke="#404040" points="358,-90 250,-90 250,-71 358,-71 358,-90"/>
<text text-anchor="middle" x="304" y="-78" font-family="Helvetica,sans-Serif" font-size="10.00">test_InputManager</text>
</a>
</g>
</g>
<!-- dir_0dbc894253d3767ce13dd242c7eb95d7&#45;&gt;dir_cdf6d930f2dcd230c29757233293cb63 -->
<g id="edge7" class="edge">
<title>dir_0dbc894253d3767ce13dd242c7eb95d7&#45;&gt;dir_cdf6d930f2dcd230c29757233293cb63</title>
<g id="a_edge7"><a xlink:href="dir_000012_000001.html" target="_top">
<path fill="none" stroke="#63b8ff" d="M336.88,-70.99C346.87,-68.41 357.88,-65.58 368,-63 405.8,-53.37 449.19,-42.47 478.58,-35.11"/>
<polygon fill="#63b8ff" stroke="#63b8ff" points="479.51,-38.48 488.36,-32.66 477.81,-31.69 479.51,-38.48"/>
</a>
</g>
<g id="a_edge7&#45;headlabel"><a xlink:href="dir_000012_000001.html" target="_top" xlink:title="2">
<text text-anchor="middle" x="476.71" y="-39.61" font-family="Helvetica,sans-Serif" font-size="10.00" fill="#63b8ff">2</text>
</a>
</g>
</g>
<!-- dir_c5590eab7fc0039fde0b4c38fbee3635 -->
<g id="node10" class="node">
<title>dir_c5590eab7fc0039fde0b4c38fbee3635</title>
<g id="a_node10"><a xlink:href="dir_c5590eab7fc0039fde0b4c38fbee3635.html" target="_top" xlink:title="test_Screen">
<polygon fill="#a2b4d6" stroke="#404040" points="232,-90 158,-90 158,-71 232,-71 232,-90"/>
<text text-anchor="middle" x="195" y="-78" font-family="Helvetica,sans-Serif" font-size="10.00">test_Screen</text>
</a>
</g>
</g>
<!-- dir_c5590eab7fc0039fde0b4c38fbee3635&#45;&gt;dir_cdf6d930f2dcd230c29757233293cb63 -->
<g id="edge8" class="edge">
<title>dir_c5590eab7fc0039fde0b4c38fbee3635&#45;&gt;dir_cdf6d930f2dcd230c29757233293cb63</title>
<g id="a_edge8"><a xlink:href="dir_000014_000001.html" target="_top">
<path fill="none" stroke="#63b8ff" d="M215.78,-70.99C223.58,-68.08 232.59,-65.05 241,-63 324.8,-42.59 426.1,-32.79 478.24,-28.81"/>
<polygon fill="#63b8ff" stroke="#63b8ff" points="478.58,-32.29 488.3,-28.06 478.07,-25.31 478.58,-32.29"/>
</a>
</g>
<g id="a_edge8&#45;headlabel"><a xlink:href="dir_000014_000001.html" target="_top" xlink:title="1">
<text text-anchor="middle" x="475.21" y="-32.89" font-family="Helvetica,sans-Serif" font-size="10.00" fill="#63b8ff">1</text>
</a>
</g>
</g>
<!-- dir_caadc6f8e359ca0fd92fd8cf834ab15b -->
<g id="node11" class="node">
<title>dir_caadc6f8e359ca0fd92fd8cf834ab15b</title>
<g id="a_node11"><a xlink:href="dir_caadc6f8e359ca0fd92fd8cf834ab15b.html" target="_top" xlink:title="test_ScreenManager">
<polygon fill="#a2b4d6" stroke="#404040" points="140,-90 24,-90 24,-71 140,-71 140,-90"/>
<text text-anchor="middle" x="82" y="-78" font-family="Helvetica,sans-Serif" font-size="10.00">test_ScreenManager</text>
</a>
</g>
</g>
<!-- dir_caadc6f8e359ca0fd92fd8cf834ab15b&#45;&gt;dir_cdf6d930f2dcd230c29757233293cb63 -->
<g id="edge9" class="edge">
<title>dir_caadc6f8e359ca0fd92fd8cf834ab15b&#45;&gt;dir_cdf6d930f2dcd230c29757233293cb63</title>
<g id="a_edge9"><a xlink:href="dir_000015_000001.html" target="_top">
<path fill="none" stroke="#63b8ff" d="M112.83,-70.94C124.13,-68.06 137.08,-65.06 149,-63 268.76,-42.36 412.85,-32.18 477.99,-28.36"/>
<polygon fill="#63b8ff" stroke="#63b8ff" points="478.34,-31.84 488.12,-27.78 477.94,-24.86 478.34,-31.84"/>
</a>
</g>
<g id="a_edge9&#45;headlabel"><a xlink:href="dir_000015_000001.html" target="_top" xlink:title="1">
<text text-anchor="middle" x="474.91" y="-32.38" font-family="Helvetica,sans-Serif" font-size="10.00" fill="#63b8ff">1</text>
</a>
</g>
</g>
</g>
</svg>

<g id="navigator" transform="translate(0 0)" fill="#404254">
  <rect fill="#f2f5e9" fill-opacity="0.5" stroke="#606060" stroke-width=".5" x="0" y="0" width="60" height="60"/>
  <use id="zoomplus" xlink:href="#zoomPlus" x="17" y="9" onmousedown="handleZoom(evt,'in')"/>
  <use id="zoomminus" xlink:href="#zoomMin" x="42" y="9" onmousedown="handleZoom(evt,'out')"/>
  <use id="reset" xlink:href="#resetDef" x="30" y="36" onmousedown="handleReset()"/>
   <use id="arrowup" xlink:href="#arrowUp" x="0" y="0" onmousedown="handlePan(0,-1)"/>
  <use id="arrowright" xlink:href="#arrowRight" x="0" y="0" onmousedown="handlePan(1,0)"/>
  <use id="arrowdown" xlink:href="#arrowDown" x="0" y="0" onmousedown="handlePan(0,1)"/>
  <use id="arrowleft" xlink:href="#arrowLeft" x="0" y="0" onmousedown="handlePan(-1,0)"/>
</g>
<svg viewBox="0 0 15 15" width="100%" height="30px" preserveAspectRatio="xMaxYMin meet">
 <g id="arrow_out" transform="scale(0.3 0.3)">
  <a xlink:href="dir_6a07fdbc4b50e86806a88566ca8f66e4_dep_org.svg" target="_base">
   <rect id="button" ry="5" rx="5" y="6" x="6" height="38" width="38"
        fill="#f2f5e9" fill-opacity="0.5" stroke="#606060" stroke-width="1.0"/>
   <path id="arrow"
     d="M 11.500037,31.436501 C 11.940474,20.09759 22.043105,11.32322 32.158766,21.979434 L 37.068811,17.246167 C 37.068811,17.246167 37.088388,32 37.088388,32 L 22.160133,31.978069 C 22.160133,31.978069 26.997745,27.140456 26.997745,27.140456 C 18.528582,18.264221 13.291696,25.230495 11.500037,31.436501 z"
     style="fill:#404040;"/>
  </a>
 </g>
</svg>

<style type='text/css'>
<![CDATA[
[data-mouse-over-selected='false'] { opacity: 0.7; }
[data-mouse-over-selected='true']  { opacity: 1.0; }
]]>
</style>
<script type="application/ecmascript"><![CDATA[
document.addEventListener('DOMContentLoaded', (event) => {
  highlightEdges();
  highlightAdjacentNodes();
});
]]></script>
</svg>
