<?xml version="1.0" encoding="UTF-8" standalone="no"?>
<!DOCTYPE svg PUBLIC "-//W3C//DTD SVG 1.1//EN"
 "http://www.w3.org/Graphics/SVG/1.1/DTD/svg11.dtd">
<!-- Generated by graphviz version 2.43.0 (0)
 -->
<!-- Title: /home/runner/work/EX&#45;Display/EX&#45;Display/test/unit Pages: 1 -->
<!--zoomable 175 -->
<svg id="main" version="1.1" xmlns="http://www.w3.org/2000/svg" xmlns:xlink="http://www.w3.org/1999/xlink" xml:space="preserve" onload="init(evt)">
<style type="text/css"><![CDATA[
.edge:hover path { stroke: red; }
.edge:hover polygon { stroke: red; fill: red; }
]]></style>
<script type="text/javascript"><![CDATA[
var edges = document.getElementsByTagName('g');
if (edges && edges.length) {
  for (var i=0;i<edges.length;i++) {
    if (edges[i].id.substr(0,4)=='edge') {
      edges[i].setAttribute('class','edge');
    }
  }
}
]]></script>
        <defs>
                <circle id="rim" cx="0" cy="0" r="7"/>
                <circle id="rim2" cx="0" cy="0" r="3.5"/>
                <g id="zoomPlus">
                        <use xlink:href="#rim" fill="#404040">
                                <set attributeName="fill" to="#808080" begin="zoomplus.mouseover" end="zoomplus.mouseout"/>
                        </use>
                        <path d="M-4,0h8M0,-4v8" fill="none" stroke="white" stroke-width="1.5" pointer-events="none"/>
                </g>
                <g id="zoomMin">
                        <use xlink:href="#rim" fill="#404040">
                                <set attributeName="fill" to="#808080" begin="zoomminus.mouseover" end="zoomminus.mouseout"/>
                        </use>
                        <path d="M-4,0h8" fill="none" stroke="white" stroke-width="1.5" pointer-events="none"/>
                </g>
                <g id="dirArrow">
                        <path fill="none" stroke="white" stroke-width="1.5" d="M0,-3.0v7 M-2.5,-0.5L0,-3.0L2.5,-0.5"/>
                </g>
               <g id="resetDef">
                       <use xlink:href="#rim2" fill="#404040">
                               <set attributeName="fill" to="#808080" begin="reset.mouseover" end="reset.mouseout"/>
                       </use>
               </g>
        </defs>

<script type="text/javascript">
var viewWidth = 633;
var viewHeight = 175;
var sectionId = 'dynsection-0';
</script>
<script xlink:href="svgpan.js"/>
<svg id="graph" class="graph">
<g id="viewport">
<title>/home/runner/work/EX&#45;Display/EX&#45;Display/test/unit</title>
<polygon fill="white" stroke="transparent" points="-4,4 -4,-171 629,-171 629,4 -4,4"/>
<g id="clust1" class="cluster">
<title>clusterdir_13e138d54eb8818da29c3992edef070a</title>
<g id="a_clust1"><a xlink:href="dir_13e138d54eb8818da29c3992edef070a.html" target="_top" xlink:title="test">
<polygon fill="#ddddee" stroke="black" points="8,-8 8,-159 617,-159 617,-8 8,-8"/>
<text text-anchor="middle" x="312.5" y="-147" font-family="Helvetica,sans-Serif" font-size="10.00">test</text>
</a>
</g>
</g>
<g id="clust2" class="cluster">
<title>clusterdir_6a07fdbc4b50e86806a88566ca8f66e4</title>
<g id="a_clust2"><a xlink:href="dir_6a07fdbc4b50e86806a88566ca8f66e4.html" target="_top">
<polygon fill="#eeeeff" stroke="black" points="16,-80 16,-132 609,-132 609,-80 16,-80"/>
</a>
</g>
</g>
<!-- dir_cdf6d930f2dcd230c29757233293cb63 -->
<g id="node1" class="node">
<title>dir_cdf6d930f2dcd230c29757233293cb63</title>
<g id="a_node1"><a xlink:href="dir_cdf6d930f2dcd230c29757233293cb63.html" target="_top" xlink:title="mocks">
<polygon fill="none" stroke="black" points="346,-52 292,-52 292,-16 346,-16 346,-52"/>
<text text-anchor="middle" x="319" y="-31.5" font-family="Helvetica,sans-Serif" font-size="10.00">mocks</text>
</a>
</g>
</g>
<!-- dir_6a07fdbc4b50e86806a88566ca8f66e4 -->
<g id="node2" class="node">
<title>dir_6a07fdbc4b50e86806a88566ca8f66e4</title>
<text text-anchor="middle" x="574" y="-103.5" font-family="Helvetica,sans-Serif" font-size="10.00">unit</text>
</g>
<!-- dir_256ca8ce6352af908444a2dfb835c723 -->
<g id="node3" class="node">
<title>dir_256ca8ce6352af908444a2dfb835c723</title>
<g id="a_node3"><a xlink:href="dir_256ca8ce6352af908444a2dfb835c723.html" target="_top" xlink:title="test_application">
<polygon fill="white" stroke="black" points="528.5,-124 433.5,-124 433.5,-88 528.5,-88 528.5,-124"/>
<text text-anchor="middle" x="481" y="-103.5" font-family="Helvetica,sans-Serif" font-size="10.00">test_application</text>
</a>
</g>
</g>
<!-- dir_256ca8ce6352af908444a2dfb835c723&#45;&gt;dir_cdf6d930f2dcd230c29757233293cb63 -->
<g id="edge3" class="edge">
<title>dir_256ca8ce6352af908444a2dfb835c723&#45;&gt;dir_cdf6d930f2dcd230c29757233293cb63</title>
<path fill="none" stroke="black" d="M443.09,-87.96C437.04,-85.28 430.86,-82.55 425,-80 401.9,-69.94 375.85,-58.88 355.36,-50.24"/>
<polygon fill="black" stroke="black" points="356.65,-46.98 346.07,-46.33 353.93,-53.44 356.65,-46.98"/>
<g id="a_edge3&#45;headlabel"><a xlink:href="dir_000007_000005.html" target="_top" xlink:title="4">
<text text-anchor="middle" x="361.06" y="-43.26" font-family="Helvetica,sans-Serif" font-size="10.00">4</text>
</a>
</g>
</g>
<!-- dir_963c9146907de3a6f02150b2914a5942 -->
<g id="node4" class="node">
<title>dir_963c9146907de3a6f02150b2914a5942</title>
<g id="a_node4"><a xlink:href="dir_963c9146907de3a6f02150b2914a5942.html" target="_top" xlink:title="test_displays">
<polygon fill="white" stroke="black" points="415.5,-124 334.5,-124 334.5,-88 415.5,-88 415.5,-124"/>
<text text-anchor="middle" x="375" y="-103.5" font-family="Helvetica,sans-Serif" font-size="10.00">test_displays</text>
</a>
</g>
</g>
<!-- dir_963c9146907de3a6f02150b2914a5942&#45;&gt;dir_cdf6d930f2dcd230c29757233293cb63 -->
<g id="edge2" class="edge">
<title>dir_963c9146907de3a6f02150b2914a5942&#45;&gt;dir_cdf6d930f2dcd230c29757233293cb63</title>
<path fill="none" stroke="black" d="M361.16,-87.7C354.51,-79.39 346.42,-69.28 339.11,-60.14"/>
<polygon fill="black" stroke="black" points="341.66,-57.73 332.68,-52.1 336.2,-62.1 341.66,-57.73"/>
<g id="a_edge2&#45;headlabel"><a xlink:href="dir_000008_000005.html" target="_top" xlink:title="2">
<text text-anchor="middle" x="346.13" y="-56.26" font-family="Helvetica,sans-Serif" font-size="10.00">2</text>
</a>
</g>
</g>
<!-- dir_2f9a74c8bf97321b37ef9ea45485ad5e -->
<g id="node5" class="node">
<title>dir_2f9a74c8bf97321b37ef9ea45485ad5e</title>
<g id="a_node5"><a xlink:href="dir_2f9a74c8bf97321b37ef9ea45485ad5e.html" target="_top" xlink:title="test_infrastructure">
<polygon fill="white" stroke="black" points="316.5,-124 209.5,-124 209.5,-88 316.5,-88 316.5,-124"/>
<text text-anchor="middle" x="263" y="-103.5" font-family="Helvetica,sans-Serif" font-size="10.00">test_infrastructure</text>
</a>
</g>
</g>
<!-- dir_2f9a74c8bf97321b37ef9ea45485ad5e&#45;&gt;dir_cdf6d930f2dcd230c29757233293cb63 -->
<g id="edge1" class="edge">
<title>dir_2f9a74c8bf97321b37ef9ea45485ad5e&#45;&gt;dir_cdf6d930f2dcd230c29757233293cb63</title>
<path fill="none" stroke="black" d="M276.84,-87.7C283.49,-79.39 291.58,-69.28 298.89,-60.14"/>
<polygon fill="black" stroke="black" points="301.8,-62.1 305.32,-52.1 296.34,-57.73 301.8,-62.1"/>
<g id="a_edge1&#45;headlabel"><a xlink:href="dir_000009_000005.html" target="_top" xlink:title="1">
<text text-anchor="middle" x="301.77" y="-64.18" font-family="Helvetica,sans-Serif" font-size="10.00">1</text>
</a>
</g>
</g>
<!-- dir_6d4622947a2dd2dbb99f393eff72fadc -->
<g id="node6" class="node">
<title>dir_6d4622947a2dd2dbb99f393eff72fadc</title>
<g id="a_node6"><a xlink:href="dir_6d4622947a2dd2dbb99f393eff72fadc.html" target="_top" xlink:title="test_inputs">
<polygon fill="white" stroke="black" points="191.5,-124 120.5,-124 120.5,-88 191.5,-88 191.5,-124"/>
<text text-anchor="middle" x="156" y="-103.5" font-family="Helvetica,sans-Serif" font-size="10.00">test_inputs</text>
</a>
</g>
</g>
<!-- dir_6d4622947a2dd2dbb99f393eff72fadc&#45;&gt;dir_cdf6d930f2dcd230c29757233293cb63 -->
<g id="edge4" class="edge">
<title>dir_6d4622947a2dd2dbb99f393eff72fadc&#45;&gt;dir_cdf6d930f2dcd230c29757233293cb63</title>
<path fill="none" stroke="black" d="M185.22,-87.98C190.41,-85.18 195.81,-82.41 201,-80 227.61,-67.61 258.66,-55.87 282.23,-47.49"/>
<polygon fill="black" stroke="black" points="283.56,-50.73 291.83,-44.12 281.24,-44.13 283.56,-50.73"/>
<g id="a_edge4&#45;headlabel"><a xlink:href="dir_000010_000005.html" target="_top" xlink:title="7">
<text text-anchor="middle" x="281.11" y="-52.11" font-family="Helvetica,sans-Serif" font-size="10.00">7</text>
</a>
</g>
</g>
<!-- dir_ed67ada80e649d7a9b979f59334f868d -->
<g id="node7" class="node">
<title>dir_ed67ada80e649d7a9b979f59334f868d</title>
<g id="a_node7"><a xlink:href="dir_ed67ada80e649d7a9b979f59334f868d.html" target="_top" xlink:title="test_screens">
<polygon fill="white" stroke="black" points="102,-124 24,-124 24,-88 102,-88 102,-124"/>
<text text-anchor="middle" x="63" y="-103.5" font-family="Helvetica,sans-Serif" font-size="10.00">test_screens</text>
</a>
</g>
</g>
</g>
</svg>
        <g id="navigator" transform="translate(0 0)" fill="#404254">
                <rect fill="#f2f5e9" fill-opacity="0.5" stroke="#606060" stroke-width=".5" x="0" y="0" width="60" height="60"/>
                <use id="zoomplus" xlink:href="#zoomPlus" x="17" y="9" onmousedown="handleZoom(evt,'in')"/>
                <use id="zoomminus" xlink:href="#zoomMin" x="42" y="9" onmousedown="handleZoom(evt,'out')"/>
                <use id="reset" xlink:href="#resetDef" x="30" y="36" onmousedown="handleReset()"/>
                <g id="arrowUp" xlink:href="#dirArrow" transform="translate(30 24)" onmousedown="handlePan(0,-1)">
                  <use xlink:href="#rim" fill="#404040">
                        <set attributeName="fill" to="#808080" begin="arrowUp.mouseover" end="arrowUp.mouseout"/>
                  </use>
                  <path fill="none" stroke="white" stroke-width="1.5" d="M0,-3.0v7 M-2.5,-0.5L0,-3.0L2.5,-0.5"/>
                </g>
                <g id="arrowRight" xlink:href="#dirArrow" transform="rotate(90) translate(36 -43)" onmousedown="handlePan(1,0)">
                  <use xlink:href="#rim" fill="#404040">
                        <set attributeName="fill" to="#808080" begin="arrowRight.mouseover" end="arrowRight.mouseout"/>
                  </use>
                  <path fill="none" stroke="white" stroke-width="1.5" d="M0,-3.0v7 M-2.5,-0.5L0,-3.0L2.5,-0.5"/>
                </g>
                <g id="arrowDown" xlink:href="#dirArrow" transform="rotate(180) translate(-30 -48)" onmousedown="handlePan(0,1)">
                  <use xlink:href="#rim" fill="#404040">
                        <set attributeName="fill" to="#808080" begin="arrowDown.mouseover" end="arrowDown.mouseout"/>
                  </use>
                  <path fill="none" stroke="white" stroke-width="1.5" d="M0,-3.0v7 M-2.5,-0.5L0,-3.0L2.5,-0.5"/>
                </g>
                <g id="arrowLeft" xlink:href="#dirArrow" transform="rotate(270) translate(-36 17)" onmousedown="handlePan(-1,0)">
                  <use xlink:href="#rim" fill="#404040">
                        <set attributeName="fill" to="#808080" begin="arrowLeft.mouseover" end="arrowLeft.mouseout"/>
                  </use>
                  <path fill="none" stroke="white" stroke-width="1.5" d="M0,-3.0v7 M-2.5,-0.5L0,-3.0L2.5,-0.5"/>
                </g>
        </g>
        <svg viewBox="0 0 15 15" width="100%" height="30px" preserveAspectRatio="xMaxYMin meet">
         <g id="arrow_out" transform="scale(0.3 0.3)">
          <a xlink:href="dir_6a07fdbc4b50e86806a88566ca8f66e4_dep_org.svg" target="_base">
           <rect id="button" ry="5" rx="5" y="6" x="6" height="38" width="38"
                fill="#f2f5e9" fill-opacity="0.5" stroke="#606060" stroke-width="1.0"/>
           <path id="arrow"
             d="M 11.500037,31.436501 C 11.940474,20.09759 22.043105,11.32322 32.158766,21.979434 L 37.068811,17.246167 C 37.068811,17.246167 37.088388,32 37.088388,32 L 22.160133,31.978069 C 22.160133,31.978069 26.997745,27.140456 26.997745,27.140456 C 18.528582,18.264221 13.291696,25.230495 11.500037,31.436501 z"
             style="fill:#404040;"/>
          </a>
         </g>
        </svg>
</svg>
