<?xml version="1.0" encoding="UTF-8" standalone="no"?>
<!DOCTYPE svg PUBLIC "-//W3C//DTD SVG 1.1//EN"
 "http://www.w3.org/Graphics/SVG/1.1/DTD/svg11.dtd">
<!-- Generated by graphviz version 2.43.0 (0)
 -->
<!-- Title: /home/runner/work/EX&#45;Display/EX&#45;Display/test/integration Pages: 1 -->
<svg width="473pt" height="175pt"
 viewBox="0.00 0.00 473.00 175.00" xmlns="http://www.w3.org/2000/svg" xmlns:xlink="http://www.w3.org/1999/xlink">
<g id="graph0" class="graph" transform="scale(1 1) rotate(0) translate(4 171)">
<title>/home/runner/work/EX&#45;Display/EX&#45;Display/test/integration</title>
<polygon fill="white" stroke="transparent" points="-4,4 -4,-171 469,-171 469,4 -4,4"/>
<g id="clust1" class="cluster">
<title>clusterdir_13e138d54eb8818da29c3992edef070a</title>
<g id="a_clust1"><a xlink:href="dir_13e138d54eb8818da29c3992edef070a.html" target="_top" xlink:title="test">
<polygon fill="#ddddee" stroke="black" points="8,-8 8,-159 457,-159 457,-8 8,-8"/>
<text text-anchor="middle" x="232.5" y="-147" font-family="Helvetica,sans-Serif" font-size="10.00">test</text>
</a>
</g>
</g>
<g id="clust2" class="cluster">
<title>clusterdir_bbf9f1b56ba6c621651be8934a24eced</title>
<g id="a_clust2"><a xlink:href="dir_bbf9f1b56ba6c621651be8934a24eced.html" target="_top">
<polygon fill="#eeeeff" stroke="black" points="16,-80 16,-132 449,-132 449,-80 16,-80"/>
</a>
</g>
</g>
<!-- dir_cdf6d930f2dcd230c29757233293cb63 -->
<g id="node1" class="node">
<title>dir_cdf6d930f2dcd230c29757233293cb63</title>
<g id="a_node1"><a xlink:href="dir_cdf6d930f2dcd230c29757233293cb63.html" target="_top" xlink:title="mocks">
<polygon fill="none" stroke="black" points="234,-52 180,-52 180,-16 234,-16 234,-52"/>
<text text-anchor="middle" x="207" y="-31.5" font-family="Helvetica,sans-Serif" font-size="10.00">mocks</text>
</a>
</g>
</g>
<!-- dir_bbf9f1b56ba6c621651be8934a24eced -->
<g id="node2" class="node">
<title>dir_bbf9f1b56ba6c621651be8934a24eced</title>
<text text-anchor="middle" x="406" y="-103.5" font-family="Helvetica,sans-Serif" font-size="10.00">integration</text>
</g>
<!-- dir_4946b3de20701271c8460d21746c6b2d -->
<g id="node3" class="node">
<title>dir_4946b3de20701271c8460d21746c6b2d</title>
<g id="a_node3"><a xlink:href="dir_4946b3de20701271c8460d21746c6b2d.html" target="_top" xlink:title="test_Controller">
<polygon fill="white" stroke="black" points="352.5,-124 263.5,-124 263.5,-88 352.5,-88 352.5,-124"/>
<text text-anchor="middle" x="308" y="-103.5" font-family="Helvetica,sans-Serif" font-size="10.00">test_Controller</text>
</a>
</g>
</g>
<!-- dir_4946b3de20701271c8460d21746c6b2d&#45;&gt;dir_cdf6d930f2dcd230c29757233293cb63 -->
<g id="edge3" class="edge">
<title>dir_4946b3de20701271c8460d21746c6b2d&#45;&gt;dir_cdf6d930f2dcd230c29757233293cb63</title>
<path fill="none" stroke="black" d="M283.29,-87.88C270.33,-78.89 254.27,-67.76 240.23,-58.03"/>
<polygon fill="black" stroke="black" points="242.02,-55.01 231.8,-52.19 238.03,-60.76 242.02,-55.01"/>
<g id="a_edge3&#45;headlabel"><a xlink:href="dir_000002_000005.html" target="_top" xlink:title="5">
<text text-anchor="middle" x="246.59" y="-52.22" font-family="Helvetica,sans-Serif" font-size="10.00">5</text>
</a>
</g>
</g>
<!-- dir_d0eb96cb207de86fc6c3fe55463d4c4e -->
<g id="node4" class="node">
<title>dir_d0eb96cb207de86fc6c3fe55463d4c4e</title>
<g id="a_node4"><a xlink:href="dir_d0eb96cb207de86fc6c3fe55463d4c4e.html" target="_top" xlink:title="test_Display">
<polygon fill="white" stroke="black" points="245.5,-124 168.5,-124 168.5,-88 245.5,-88 245.5,-124"/>
<text text-anchor="middle" x="207" y="-103.5" font-family="Helvetica,sans-Serif" font-size="10.00">test_Display</text>
</a>
</g>
</g>
<!-- dir_d0eb96cb207de86fc6c3fe55463d4c4e&#45;&gt;dir_cdf6d930f2dcd230c29757233293cb63 -->
<g id="edge2" class="edge">
<title>dir_d0eb96cb207de86fc6c3fe55463d4c4e&#45;&gt;dir_cdf6d930f2dcd230c29757233293cb63</title>
<path fill="none" stroke="black" d="M207,-87.7C207,-79.98 207,-70.71 207,-62.11"/>
<polygon fill="black" stroke="black" points="210.5,-62.1 207,-52.1 203.5,-62.1 210.5,-62.1"/>
<g id="a_edge2&#45;headlabel"><a xlink:href="dir_000003_000005.html" target="_top" xlink:title="2">
<text text-anchor="middle" x="213.34" y="-63.2" font-family="Helvetica,sans-Serif" font-size="10.00">2</text>
</a>
</g>
</g>
<!-- dir_8a865a17dabe9b82fb7b31182a1401d9 -->
<g id="node5" class="node">
<title>dir_8a865a17dabe9b82fb7b31182a1401d9</title>
<g id="a_node5"><a xlink:href="dir_8a865a17dabe9b82fb7b31182a1401d9.html" target="_top" xlink:title="test_InteractiveLogger">
<polygon fill="white" stroke="black" points="150,-124 24,-124 24,-88 150,-88 150,-124"/>
<text text-anchor="middle" x="87" y="-103.5" font-family="Helvetica,sans-Serif" font-size="10.00">test_InteractiveLogger</text>
</a>
</g>
</g>
<!-- dir_8a865a17dabe9b82fb7b31182a1401d9&#45;&gt;dir_cdf6d930f2dcd230c29757233293cb63 -->
<g id="edge1" class="edge">
<title>dir_8a865a17dabe9b82fb7b31182a1401d9&#45;&gt;dir_cdf6d930f2dcd230c29757233293cb63</title>
<path fill="none" stroke="black" d="M116.36,-87.88C132.9,-78.23 153.69,-66.1 171.19,-55.89"/>
<polygon fill="black" stroke="black" points="173.13,-58.81 180,-50.75 169.6,-52.77 173.13,-58.81"/>
<g id="a_edge1&#45;headlabel"><a xlink:href="dir_000004_000005.html" target="_top" xlink:title="2">
<text text-anchor="middle" x="171.45" y="-60.58" font-family="Helvetica,sans-Serif" font-size="10.00">2</text>
</a>
</g>
</g>
</g>
</svg>
