<?xml version="1.0" encoding="UTF-8" standalone="no"?>
<!DOCTYPE svg PUBLIC "-//W3C//DTD SVG 1.1//EN"
 "http://www.w3.org/Graphics/SVG/1.1/DTD/svg11.dtd">
<!-- Generated by graphviz version 2.43.0 (0)
 -->
<!-- Title: /home/runner/work/EX&#45;Display/EX&#45;Display/test/unit Pages: 1 -->
<!--zoomable 175 -->
<svg id="main" version="1.1" xmlns="http://www.w3.org/2000/svg" xmlns:xlink="http://www.w3.org/1999/xlink" xml:space="preserve" onload="init(evt)">
<style type="text/css"><![CDATA[
.edge:hover path { stroke: red; }
.edge:hover polygon { stroke: red; fill: red; }
]]></style>
<script type="text/javascript"><![CDATA[
var edges = document.getElementsByTagName('g');
if (edges && edges.length) {
  for (var i=0;i<edges.length;i++) {
    if (edges[i].id.substr(0,4)=='edge') {
      edges[i].setAttribute('class','edge');
    }
  }
}
]]></script>
        <defs>
                <circle id="rim" cx="0" cy="0" r="7"/>
                <circle id="rim2" cx="0" cy="0" r="3.5"/>
                <g id="zoomPlus">
                        <use xlink:href="#rim" fill="#404040">
                                <set attributeName="fill" to="#808080" begin="zoomplus.mouseover" end="zoomplus.mouseout"/>
                        </use>
                        <path d="M-4,0h8M0,-4v8" fill="none" stroke="white" stroke-width="1.5" pointer-events="none"/>
                </g>
                <g id="zoomMin">
                        <use xlink:href="#rim" fill="#404040">
                                <set attributeName="fill" to="#808080" begin="zoomminus.mouseover" end="zoomminus.mouseout"/>
                        </use>
                        <path d="M-4,0h8" fill="none" stroke="white" stroke-width="1.5" pointer-events="none"/>
                </g>
                <g id="dirArrow">
                        <path fill="none" stroke="white" stroke-width="1.5" d="M0,-3.0v7 M-2.5,-0.5L0,-3.0L2.5,-0.5"/>
                </g>
               <g id="resetDef">
                       <use xlink:href="#rim2" fill="#404040">
                               <set attributeName="fill" to="#808080" begin="reset.mouseover" end="reset.mouseout"/>
                       </use>
               </g>
        </defs>

<script type="text/javascript">
var viewWidth = 1131;
var viewHeight = 175;
var sectionId = 'dynsection-0';
</script>
<script xlink:href="svgpan.js"/>
<svg id="graph" class="graph">
<g id="viewport">
<title>/home/runner/work/EX&#45;Display/EX&#45;Display/test/unit</title>
<polygon fill="white" stroke="transparent" points="-4,4 -4,-171 1127,-171 1127,4 -4,4"/>
<g id="clust1" class="cluster">
<title>clusterdir_13e138d54eb8818da29c3992edef070a</title>
<g id="a_clust1"><a xlink:href="dir_13e138d54eb8818da29c3992edef070a.html" target="_top" xlink:title="test">
<polygon fill="#ddddee" stroke="black" points="8,-8 8,-159 1115,-159 1115,-8 8,-8"/>
<text text-anchor="middle" x="561.5" y="-147" font-family="Helvetica,sans-Serif" font-size="10.00">test</text>
</a>
</g>
</g>
<g id="clust2" class="cluster">
<title>clusterdir_6a07fdbc4b50e86806a88566ca8f66e4</title>
<g id="a_clust2"><a xlink:href="dir_6a07fdbc4b50e86806a88566ca8f66e4.html" target="_top">
<polygon fill="#eeeeff" stroke="black" points="16,-80 16,-132 1107,-132 1107,-80 16,-80"/>
</a>
</g>
</g>
<!-- dir_cdf6d930f2dcd230c29757233293cb63 -->
<g id="node1" class="node">
<title>dir_cdf6d930f2dcd230c29757233293cb63</title>
<g id="a_node1"><a xlink:href="dir_cdf6d930f2dcd230c29757233293cb63.html" target="_top" xlink:title="mocks">
<polygon fill="none" stroke="black" points="672,-52 618,-52 618,-16 672,-16 672,-52"/>
<text text-anchor="middle" x="645" y="-31.5" font-family="Helvetica,sans-Serif" font-size="10.00">mocks</text>
</a>
</g>
</g>
<!-- dir_6a07fdbc4b50e86806a88566ca8f66e4 -->
<g id="node2" class="node">
<title>dir_6a07fdbc4b50e86806a88566ca8f66e4</title>
<text text-anchor="middle" x="1072" y="-103.5" font-family="Helvetica,sans-Serif" font-size="10.00">unit</text>
</g>
<!-- dir_0737fc3edcd5e3d8c98723a7136df9d8 -->
<g id="node3" class="node">
<title>dir_0737fc3edcd5e3d8c98723a7136df9d8</title>
<g id="a_node3"><a xlink:href="dir_0737fc3edcd5e3d8c98723a7136df9d8.html" target="_top" xlink:title="test_Configurator">
<polygon fill="white" stroke="black" points="1026.5,-124 925.5,-124 925.5,-88 1026.5,-88 1026.5,-124"/>
<text text-anchor="middle" x="976" y="-103.5" font-family="Helvetica,sans-Serif" font-size="10.00">test_Configurator</text>
</a>
</g>
</g>
<!-- dir_0737fc3edcd5e3d8c98723a7136df9d8&#45;&gt;dir_cdf6d930f2dcd230c29757233293cb63 -->
<g id="edge6" class="edge">
<title>dir_0737fc3edcd5e3d8c98723a7136df9d8&#45;&gt;dir_cdf6d930f2dcd230c29757233293cb63</title>
<path fill="none" stroke="black" d="M939.35,-87.89C932.06,-84.94 924.37,-82.14 917,-80 835.07,-56.23 735.39,-43.75 682.38,-38.36"/>
<polygon fill="black" stroke="black" points="682.4,-34.84 672.11,-37.34 681.72,-41.81 682.4,-34.84"/>
<g id="a_edge6&#45;headlabel"><a xlink:href="dir_000007_000005.html" target="_top" xlink:title="1">
<text text-anchor="middle" x="686.26" y="-29.87" font-family="Helvetica,sans-Serif" font-size="10.00">1</text>
</a>
</g>
</g>
<!-- dir_d18ecea1db5c8a0cb2a2f078b0a61021 -->
<g id="node4" class="node">
<title>dir_d18ecea1db5c8a0cb2a2f078b0a61021</title>
<g id="a_node4"><a xlink:href="dir_d18ecea1db5c8a0cb2a2f078b0a61021.html" target="_top" xlink:title="test_Controller">
<polygon fill="white" stroke="black" points="907.5,-124 818.5,-124 818.5,-88 907.5,-88 907.5,-124"/>
<text text-anchor="middle" x="863" y="-103.5" font-family="Helvetica,sans-Serif" font-size="10.00">test_Controller</text>
</a>
</g>
</g>
<!-- dir_d18ecea1db5c8a0cb2a2f078b0a61021&#45;&gt;dir_cdf6d930f2dcd230c29757233293cb63 -->
<g id="edge5" class="edge">
<title>dir_d18ecea1db5c8a0cb2a2f078b0a61021&#45;&gt;dir_cdf6d930f2dcd230c29757233293cb63</title>
<path fill="none" stroke="black" d="M829.16,-87.97C822.87,-85.11 816.3,-82.32 810,-80 766.96,-64.12 715.76,-51.01 681.94,-43.12"/>
<polygon fill="black" stroke="black" points="682.56,-39.67 672.03,-40.84 680.99,-46.49 682.56,-39.67"/>
<g id="a_edge5&#45;headlabel"><a xlink:href="dir_000008_000005.html" target="_top" xlink:title="3">
<text text-anchor="middle" x="686.7" y="-35.21" font-family="Helvetica,sans-Serif" font-size="10.00">3</text>
</a>
</g>
</g>
<!-- dir_0c5825d3a08d0cb29e7c06bb7be82aa6 -->
<g id="node5" class="node">
<title>dir_0c5825d3a08d0cb29e7c06bb7be82aa6</title>
<g id="a_node5"><a xlink:href="dir_0c5825d3a08d0cb29e7c06bb7be82aa6.html" target="_top" xlink:title="test_Display">
<polygon fill="white" stroke="black" points="800.5,-124 723.5,-124 723.5,-88 800.5,-88 800.5,-124"/>
<text text-anchor="middle" x="762" y="-103.5" font-family="Helvetica,sans-Serif" font-size="10.00">test_Display</text>
</a>
</g>
</g>
<!-- dir_0c5825d3a08d0cb29e7c06bb7be82aa6&#45;&gt;dir_cdf6d930f2dcd230c29757233293cb63 -->
<g id="edge7" class="edge">
<title>dir_0c5825d3a08d0cb29e7c06bb7be82aa6&#45;&gt;dir_cdf6d930f2dcd230c29757233293cb63</title>
<path fill="none" stroke="black" d="M733.38,-87.88C717.62,-78.45 697.92,-66.66 681.11,-56.61"/>
<polygon fill="black" stroke="black" points="682.5,-53.36 672.12,-51.23 678.9,-59.36 682.5,-53.36"/>
<g id="a_edge7&#45;headlabel"><a xlink:href="dir_000009_000005.html" target="_top" xlink:title="1">
<text text-anchor="middle" x="687.04" y="-50.27" font-family="Helvetica,sans-Serif" font-size="10.00">1</text>
</a>
</g>
</g>
<!-- dir_87de4f86c9604223b7c9d497cd5be270 -->
<g id="node6" class="node">
<title>dir_87de4f86c9604223b7c9d497cd5be270</title>
<g id="a_node6"><a xlink:href="dir_87de4f86c9604223b7c9d497cd5be270.html" target="_top" xlink:title="test_DisplayManager">
<polygon fill="white" stroke="black" points="705,-124 585,-124 585,-88 705,-88 705,-124"/>
<text text-anchor="middle" x="645" y="-103.5" font-family="Helvetica,sans-Serif" font-size="10.00">test_DisplayManager</text>
</a>
</g>
</g>
<!-- dir_87de4f86c9604223b7c9d497cd5be270&#45;&gt;dir_cdf6d930f2dcd230c29757233293cb63 -->
<g id="edge1" class="edge">
<title>dir_87de4f86c9604223b7c9d497cd5be270&#45;&gt;dir_cdf6d930f2dcd230c29757233293cb63</title>
<path fill="none" stroke="black" d="M645,-87.7C645,-79.98 645,-70.71 645,-62.11"/>
<polygon fill="black" stroke="black" points="648.5,-62.1 645,-52.1 641.5,-62.1 648.5,-62.1"/>
<g id="a_edge1&#45;headlabel"><a xlink:href="dir_000010_000005.html" target="_top" xlink:title="2">
<text text-anchor="middle" x="651.34" y="-63.2" font-family="Helvetica,sans-Serif" font-size="10.00">2</text>
</a>
</g>
</g>
<!-- dir_4b0424823a083ada0bb57abf6128890c -->
<g id="node7" class="node">
<title>dir_4b0424823a083ada0bb57abf6128890c</title>
<g id="a_node7"><a xlink:href="dir_4b0424823a083ada0bb57abf6128890c.html" target="_top" xlink:title="test_Infrastructure">
<polygon fill="white" stroke="black" points="566.5,-124 459.5,-124 459.5,-88 566.5,-88 566.5,-124"/>
<text text-anchor="middle" x="513" y="-103.5" font-family="Helvetica,sans-Serif" font-size="10.00">test_Infrastructure</text>
</a>
</g>
</g>
<!-- dir_4b0424823a083ada0bb57abf6128890c&#45;&gt;dir_cdf6d930f2dcd230c29757233293cb63 -->
<g id="edge4" class="edge">
<title>dir_4b0424823a083ada0bb57abf6128890c&#45;&gt;dir_cdf6d930f2dcd230c29757233293cb63</title>
<path fill="none" stroke="black" d="M545.29,-87.88C564.53,-77.67 588.99,-64.7 608.88,-54.16"/>
<polygon fill="black" stroke="black" points="610.74,-57.13 617.94,-49.35 607.46,-50.94 610.74,-57.13"/>
<g id="a_edge4&#45;headlabel"><a xlink:href="dir_000011_000005.html" target="_top" xlink:title="1">
<text text-anchor="middle" x="608.9" y="-58.82" font-family="Helvetica,sans-Serif" font-size="10.00">1</text>
</a>
</g>
</g>
<!-- dir_0f574f59922a3278009c00d480dfb4a4 -->
<g id="node8" class="node">
<title>dir_0f574f59922a3278009c00d480dfb4a4</title>
<g id="a_node8"><a xlink:href="dir_0f574f59922a3278009c00d480dfb4a4.html" target="_top" xlink:title="test_Input">
<polygon fill="white" stroke="black" points="441.5,-124 376.5,-124 376.5,-88 441.5,-88 441.5,-124"/>
<text text-anchor="middle" x="409" y="-103.5" font-family="Helvetica,sans-Serif" font-size="10.00">test_Input</text>
</a>
</g>
</g>
<!-- dir_0f574f59922a3278009c00d480dfb4a4&#45;&gt;dir_cdf6d930f2dcd230c29757233293cb63 -->
<g id="edge3" class="edge">
<title>dir_0f574f59922a3278009c00d480dfb4a4&#45;&gt;dir_cdf6d930f2dcd230c29757233293cb63</title>
<path fill="none" stroke="black" d="M435.02,-87.84C440.17,-84.93 445.65,-82.15 451,-80 503.41,-58.92 567.95,-46.42 607.79,-40.13"/>
<polygon fill="black" stroke="black" points="608.49,-43.56 617.85,-38.59 607.43,-36.64 608.49,-43.56"/>
<g id="a_edge3&#45;headlabel"><a xlink:href="dir_000012_000005.html" target="_top" xlink:title="6">
<text text-anchor="middle" x="605.37" y="-44.41" font-family="Helvetica,sans-Serif" font-size="10.00">6</text>
</a>
</g>
</g>
<!-- dir_0dbc894253d3767ce13dd242c7eb95d7 -->
<g id="node9" class="node">
<title>dir_0dbc894253d3767ce13dd242c7eb95d7</title>
<g id="a_node9"><a xlink:href="dir_0dbc894253d3767ce13dd242c7eb95d7.html" target="_top" xlink:title="test_InputManager">
<polygon fill="white" stroke="black" points="358,-124 250,-124 250,-88 358,-88 358,-124"/>
<text text-anchor="middle" x="304" y="-103.5" font-family="Helvetica,sans-Serif" font-size="10.00">test_InputManager</text>
</a>
</g>
</g>
<!-- dir_0dbc894253d3767ce13dd242c7eb95d7&#45;&gt;dir_cdf6d930f2dcd230c29757233293cb63 -->
<g id="edge2" class="edge">
<title>dir_0dbc894253d3767ce13dd242c7eb95d7&#45;&gt;dir_cdf6d930f2dcd230c29757233293cb63</title>
<path fill="none" stroke="black" d="M343.85,-87.94C351.75,-84.99 360.06,-82.17 368,-80 452.16,-57.01 554.11,-44.16 607.78,-38.52"/>
<polygon fill="black" stroke="black" points="608.27,-41.99 617.86,-37.49 607.55,-35.03 608.27,-41.99"/>
<g id="a_edge2&#45;headlabel"><a xlink:href="dir_000013_000005.html" target="_top" xlink:title="1">
<text text-anchor="middle" x="604.98" y="-42.68" font-family="Helvetica,sans-Serif" font-size="10.00">1</text>
</a>
</g>
</g>
<!-- dir_c5590eab7fc0039fde0b4c38fbee3635 -->
<g id="node10" class="node">
<title>dir_c5590eab7fc0039fde0b4c38fbee3635</title>
<g id="a_node10"><a xlink:href="dir_c5590eab7fc0039fde0b4c38fbee3635.html" target="_top" xlink:title="test_Screen">
<polygon fill="white" stroke="black" points="232,-124 158,-124 158,-88 232,-88 232,-124"/>
<text text-anchor="middle" x="195" y="-103.5" font-family="Helvetica,sans-Serif" font-size="10.00">test_Screen</text>
</a>
</g>
</g>
<!-- dir_caadc6f8e359ca0fd92fd8cf834ab15b -->
<g id="node11" class="node">
<title>dir_caadc6f8e359ca0fd92fd8cf834ab15b</title>
<g id="a_node11"><a xlink:href="dir_caadc6f8e359ca0fd92fd8cf834ab15b.html" target="_top" xlink:title="test_ScreenManager">
<polygon fill="white" stroke="black" points="140,-124 24,-124 24,-88 140,-88 140,-124"/>
<text text-anchor="middle" x="82" y="-103.5" font-family="Helvetica,sans-Serif" font-size="10.00">test_ScreenManager</text>
</a>
</g>
</g>
</g>
</svg>
        <g id="navigator" transform="translate(0 0)" fill="#404254">
                <rect fill="#f2f5e9" fill-opacity="0.5" stroke="#606060" stroke-width=".5" x="0" y="0" width="60" height="60"/>
                <use id="zoomplus" xlink:href="#zoomPlus" x="17" y="9" onmousedown="handleZoom(evt,'in')"/>
                <use id="zoomminus" xlink:href="#zoomMin" x="42" y="9" onmousedown="handleZoom(evt,'out')"/>
                <use id="reset" xlink:href="#resetDef" x="30" y="36" onmousedown="handleReset()"/>
                <g id="arrowUp" xlink:href="#dirArrow" transform="translate(30 24)" onmousedown="handlePan(0,-1)">
                  <use xlink:href="#rim" fill="#404040">
                        <set attributeName="fill" to="#808080" begin="arrowUp.mouseover" end="arrowUp.mouseout"/>
                  </use>
                  <path fill="none" stroke="white" stroke-width="1.5" d="M0,-3.0v7 M-2.5,-0.5L0,-3.0L2.5,-0.5"/>
                </g>
                <g id="arrowRight" xlink:href="#dirArrow" transform="rotate(90) translate(36 -43)" onmousedown="handlePan(1,0)">
                  <use xlink:href="#rim" fill="#404040">
                        <set attributeName="fill" to="#808080" begin="arrowRight.mouseover" end="arrowRight.mouseout"/>
                  </use>
                  <path fill="none" stroke="white" stroke-width="1.5" d="M0,-3.0v7 M-2.5,-0.5L0,-3.0L2.5,-0.5"/>
                </g>
                <g id="arrowDown" xlink:href="#dirArrow" transform="rotate(180) translate(-30 -48)" onmousedown="handlePan(0,1)">
                  <use xlink:href="#rim" fill="#404040">
                        <set attributeName="fill" to="#808080" begin="arrowDown.mouseover" end="arrowDown.mouseout"/>
                  </use>
                  <path fill="none" stroke="white" stroke-width="1.5" d="M0,-3.0v7 M-2.5,-0.5L0,-3.0L2.5,-0.5"/>
                </g>
                <g id="arrowLeft" xlink:href="#dirArrow" transform="rotate(270) translate(-36 17)" onmousedown="handlePan(-1,0)">
                  <use xlink:href="#rim" fill="#404040">
                        <set attributeName="fill" to="#808080" begin="arrowLeft.mouseover" end="arrowLeft.mouseout"/>
                  </use>
                  <path fill="none" stroke="white" stroke-width="1.5" d="M0,-3.0v7 M-2.5,-0.5L0,-3.0L2.5,-0.5"/>
                </g>
        </g>
        <svg viewBox="0 0 15 15" width="100%" height="30px" preserveAspectRatio="xMaxYMin meet">
         <g id="arrow_out" transform="scale(0.3 0.3)">
          <a xlink:href="dir_6a07fdbc4b50e86806a88566ca8f66e4_dep_org.svg" target="_base">
           <rect id="button" ry="5" rx="5" y="6" x="6" height="38" width="38"
                fill="#f2f5e9" fill-opacity="0.5" stroke="#606060" stroke-width="1.0"/>
           <path id="arrow"
             d="M 11.500037,31.436501 C 11.940474,20.09759 22.043105,11.32322 32.158766,21.979434 L 37.068811,17.246167 C 37.068811,17.246167 37.088388,32 37.088388,32 L 22.160133,31.978069 C 22.160133,31.978069 26.997745,27.140456 26.997745,27.140456 C 18.528582,18.264221 13.291696,25.230495 11.500037,31.436501 z"
             style="fill:#404040;"/>
          </a>
         </g>
        </svg>
</svg>
