<?xml version="1.0" encoding="UTF-8" standalone="no"?>
<!DOCTYPE svg PUBLIC "-//W3C//DTD SVG 1.1//EN"
 "http://www.w3.org/Graphics/SVG/1.1/DTD/svg11.dtd">
<!-- Generated by graphviz version 2.43.0 (0)
 -->
<!-- Title: /home/runner/work/EX&#45;Display/EX&#45;Display/test/unit/test_Configurator Pages: 1 -->
<svg width="142pt" height="151pt"
 viewBox="0.00 0.00 142.00 151.00" xmlns="http://www.w3.org/2000/svg" xmlns:xlink="http://www.w3.org/1999/xlink">
<g id="graph0" class="graph" transform="scale(1 1) rotate(0) translate(4 147)">
<title>/home/runner/work/EX&#45;Display/EX&#45;Display/test/unit/test_Configurator</title>
<polygon fill="white" stroke="transparent" points="-4,4 -4,-147 138,-147 138,4 -4,4"/>
<g id="clust1" class="cluster">
<title>clusterdir_6a07fdbc4b50e86806a88566ca8f66e4</title>
<g id="a_clust1"><a xlink:href="dir_6a07fdbc4b50e86806a88566ca8f66e4.html" target="_top" xlink:title="unit">
<polygon fill="#ddddee" stroke="black" points="8,-64 8,-135 126,-135 126,-64 8,-64"/>
<text text-anchor="middle" x="67" y="-123" font-family="Helvetica,sans-Serif" font-size="10.00">unit</text>
</a>
</g>
</g>
<!-- dir_0737fc3edcd5e3d8c98723a7136df9d8 -->
<g id="node1" class="node">
<title>dir_0737fc3edcd5e3d8c98723a7136df9d8</title>
<g id="a_node1"><a xlink:href="dir_0737fc3edcd5e3d8c98723a7136df9d8.html" target="_top" xlink:title="test_Configurator">
<polygon fill="#eeeeff" stroke="black" points="117.5,-108 16.5,-108 16.5,-72 117.5,-72 117.5,-108"/>
<text text-anchor="middle" x="67" y="-87.5" font-family="Helvetica,sans-Serif" font-size="10.00">test_Configurator</text>
</a>
</g>
</g>
<!-- dir_cdf6d930f2dcd230c29757233293cb63 -->
<g id="node2" class="node">
<title>dir_cdf6d930f2dcd230c29757233293cb63</title>
<g id="a_node2"><a xlink:href="dir_cdf6d930f2dcd230c29757233293cb63.html" target="_top" xlink:title="mocks">
<polygon fill="none" stroke="black" points="94,-36 40,-36 40,0 94,0 94,-36"/>
<text text-anchor="middle" x="67" y="-15.5" font-family="Helvetica,sans-Serif" font-size="10.00">mocks</text>
</a>
</g>
</g>
<!-- dir_0737fc3edcd5e3d8c98723a7136df9d8&#45;&gt;dir_cdf6d930f2dcd230c29757233293cb63 -->
<g id="edge1" class="edge">
<title>dir_0737fc3edcd5e3d8c98723a7136df9d8&#45;&gt;dir_cdf6d930f2dcd230c29757233293cb63</title>
<path fill="none" stroke="black" d="M67,-71.7C67,-63.98 67,-54.71 67,-46.11"/>
<polygon fill="black" stroke="black" points="70.5,-46.1 67,-36.1 63.5,-46.1 70.5,-46.1"/>
<g id="a_edge1&#45;headlabel"><a xlink:href="dir_000007_000016.html" target="_top" xlink:title="2">
<text text-anchor="middle" x="73.34" y="-47.2" font-family="Helvetica,sans-Serif" font-size="10.00">2</text>
</a>
</g>
</g>
</g>
</svg>
