<?xml version="1.0" encoding="UTF-8" standalone="no"?>
<!DOCTYPE svg PUBLIC "-//W3C//DTD SVG 1.1//EN"
 "http://www.w3.org/Graphics/SVG/1.1/DTD/svg11.dtd">
<!-- Generated by graphviz version 2.43.0 (0)
 -->
<!-- Title: /home/runner/work/EX&#45;Display/EX&#45;Display/DisplayManager.h Pages: 1 -->
<svg width="257pt" height="324pt"
 viewBox="0.00 0.00 256.50 324.00" xmlns="http://www.w3.org/2000/svg" xmlns:xlink="http://www.w3.org/1999/xlink">

<svg id="main" version="1.1" xmlns="http://www.w3.org/2000/svg" xmlns:xlink="http://www.w3.org/1999/xlink" xml:space="preserve" onload="init(evt)">
<style type="text/css"><![CDATA[
.node, .edge {opacity: 0.7;}
.node.selected, .edge.selected {opacity: 1;}
.edge:hover path { stroke: red; }
.edge:hover polygon { stroke: red; fill: red; }
]]></style>
<script type="application/ecmascript" xlink:href="svg.min.js"/>
<svg id="graph" class="graph">
<g id="graph0" class="graph" transform="scale(1 1) rotate(0) translate(4 320)">
<title>/home/runner/work/EX&#45;Display/EX&#45;Display/DisplayManager.h</title>
<!-- Node1 -->
<g id="Node000001" class="node">
<title>Node1</title>
<g id="a_Node000001"><a xlink:title=" ">
<polygon fill="#999999" stroke="#666666" points="248.5,-316 96.5,-316 96.5,-275 248.5,-275 248.5,-316"/>
<text text-anchor="start" x="104.5" y="-304" font-family="Helvetica,sans-Serif" font-size="10.00">/home/runner/work/EX</text>
<text text-anchor="start" x="104.5" y="-293" font-family="Helvetica,sans-Serif" font-size="10.00">&#45;Display/EX&#45;Display/Display</text>
<text text-anchor="middle" x="172.5" y="-282" font-family="Helvetica,sans-Serif" font-size="10.00">Manager.h</text>
</a>
</g>
</g>
<!-- Node2 -->
<g id="Node000002" class="node">
<title>Node2</title>
<g id="a_Node000002"><a xlink:href="DisplayInterface_8h.html" target="_top" xlink:title=" ">
<polygon fill="white" stroke="#666666" points="225.5,-239 119.5,-239 119.5,-220 225.5,-220 225.5,-239"/>
<text text-anchor="middle" x="172.5" y="-227" font-family="Helvetica,sans-Serif" font-size="10.00">DisplayInterface.h</text>
</a>
</g>
</g>
<!-- Node1&#45;&gt;Node2 -->
<g id="edge1_Node000001_Node000002" class="edge">
<title>Node1&#45;&gt;Node2</title>
<g id="a_edge1_Node000001_Node000002"><a xlink:title=" ">
<path fill="none" stroke="#63b8ff" d="M172.5,-274.95C172.5,-266.85 172.5,-257.5 172.5,-249.47"/>
<polygon fill="#63b8ff" stroke="#63b8ff" points="176,-249.26 172.5,-239.26 169,-249.26 176,-249.26"/>
</a>
</g>
</g>
<!-- Node3 -->
<g id="Node000003" class="node">
<title>Node3</title>
<g id="a_Node000003"><a xlink:href="Logger_8h.html" target="_top" xlink:title=" ">
<polygon fill="white" stroke="#666666" points="217.5,-74 159.5,-74 159.5,-55 217.5,-55 217.5,-74"/>
<text text-anchor="middle" x="188.5" y="-62" font-family="Helvetica,sans-Serif" font-size="10.00">Logger.h</text>
</a>
</g>
</g>
<!-- Node1&#45;&gt;Node3 -->
<g id="edge9_Node000001_Node000003" class="edge">
<title>Node1&#45;&gt;Node3</title>
<g id="a_edge9_Node000001_Node000003"><a xlink:title=" ">
<path fill="none" stroke="#63b8ff" d="M204,-274.84C215.88,-265.57 228.07,-253.38 234.5,-239 258.82,-184.6 221.14,-114.67 200.52,-82.76"/>
<polygon fill="#63b8ff" stroke="#63b8ff" points="203.22,-80.5 194.75,-74.13 197.4,-84.39 203.22,-80.5"/>
</a>
</g>
</g>
<!-- Node12 -->
<g id="Node000012" class="node">
<title>Node12</title>
<g id="a_Node000012"><a xlink:href="ScreenManager_8h.html" target="_top" xlink:title=" ">
<polygon fill="white" stroke="#666666" points="101,-239 0,-239 0,-220 101,-220 101,-239"/>
<text text-anchor="middle" x="50.5" y="-227" font-family="Helvetica,sans-Serif" font-size="10.00">ScreenManager.h</text>
</a>
</g>
</g>
<!-- Node1&#45;&gt;Node12 -->
<g id="edge10_Node000001_Node000012" class="edge">
<title>Node1&#45;&gt;Node12</title>
<g id="a_edge10_Node000001_Node000012"><a xlink:title=" ">
<path fill="none" stroke="#63b8ff" d="M135.23,-274.95C115.96,-264.84 92.94,-252.76 75.76,-243.75"/>
<polygon fill="#63b8ff" stroke="#63b8ff" points="77.36,-240.64 66.88,-239.09 74.11,-246.84 77.36,-240.64"/>
</a>
</g>
</g>
<!-- Node2&#45;&gt;Node3 -->
<g id="edge2_Node000002_Node000003" class="edge">
<title>Node2&#45;&gt;Node3</title>
<g id="a_edge2_Node000002_Node000003"><a xlink:title=" ">
<path fill="none" stroke="#63b8ff" d="M173.36,-219.74C175.86,-194.31 183.14,-120.08 186.62,-84.69"/>
<polygon fill="#63b8ff" stroke="#63b8ff" points="190.14,-84.6 187.64,-74.31 183.18,-83.92 190.14,-84.6"/>
</a>
</g>
</g>
<!-- Node10 -->
<g id="Node000010" class="node">
<title>Node10</title>
<g id="a_Node000010"><a xlink:href="Screen_8h.html" target="_top" xlink:title=" ">
<polygon fill="white" stroke="#666666" points="122,-184 63,-184 63,-165 122,-165 122,-184"/>
<text text-anchor="middle" x="92.5" y="-172" font-family="Helvetica,sans-Serif" font-size="10.00">Screen.h</text>
</a>
</g>
</g>
<!-- Node2&#45;&gt;Node10 -->
<g id="edge4_Node000002_Node000010" class="edge">
<title>Node2&#45;&gt;Node10</title>
<g id="a_edge4_Node000002_Node000010"><a xlink:title=" ">
<path fill="none" stroke="#63b8ff" d="M159.65,-219.98C147.36,-211.84 128.59,-199.41 114.02,-189.76"/>
<polygon fill="#63b8ff" stroke="#63b8ff" points="115.86,-186.78 105.59,-184.17 111.99,-192.61 115.86,-186.78"/>
</a>
</g>
</g>
<!-- Node4 -->
<g id="Node000004" class="node">
<title>Node4</title>
<g id="a_Node000004"><a xlink:href="Arduino_8h.html" target="_top" xlink:title=" ">
<polygon fill="#fff0f0" stroke="red" points="158,-19 95,-19 95,0 158,0 158,-19"/>
<text text-anchor="middle" x="126.5" y="-7" font-family="Helvetica,sans-Serif" font-size="10.00">Arduino.h</text>
</a>
</g>
</g>
<!-- Node3&#45;&gt;Node4 -->
<g id="edge3_Node000003_Node000004" class="edge">
<title>Node3&#45;&gt;Node4</title>
<g id="a_edge3_Node000003_Node000004"><a xlink:title=" ">
<path fill="none" stroke="#63b8ff" d="M178.54,-54.98C169.37,-47.15 155.56,-35.34 144.47,-25.86"/>
<polygon fill="#63b8ff" stroke="#63b8ff" points="146.52,-23.01 136.64,-19.17 141.97,-28.33 146.52,-23.01"/>
</a>
</g>
</g>
<!-- Node10&#45;&gt;Node4 -->
<g id="edge8_Node000010_Node000004" class="edge">
<title>Node10&#45;&gt;Node4</title>
<g id="a_edge8_Node000010_Node000004"><a xlink:title=" ">
<path fill="none" stroke="#63b8ff" d="M87.9,-164.88C81.97,-152.67 72.93,-129.64 77.5,-110 84.71,-79.04 103,-46.63 115.08,-27.51"/>
<polygon fill="#63b8ff" stroke="#63b8ff" points="118.08,-29.33 120.59,-19.04 112.21,-25.51 118.08,-29.33"/>
</a>
</g>
</g>
<!-- Node11 -->
<g id="Node000011" class="node">
<title>Node11</title>
<g id="a_Node000011"><a xlink:href="ScreenRow_8h.html" target="_top" xlink:title=" ">
<polygon fill="white" stroke="#666666" points="166,-129 87,-129 87,-110 166,-110 166,-129"/>
<text text-anchor="middle" x="126.5" y="-117" font-family="Helvetica,sans-Serif" font-size="10.00">ScreenRow.h</text>
</a>
</g>
</g>
<!-- Node10&#45;&gt;Node11 -->
<g id="edge5_Node000010_Node000011" class="edge">
<title>Node10&#45;&gt;Node11</title>
<g id="a_edge5_Node000010_Node000011"><a xlink:title=" ">
<path fill="none" stroke="#63b8ff" d="M98.11,-164.75C102.82,-157.42 109.67,-146.73 115.47,-137.7"/>
<polygon fill="#63b8ff" stroke="#63b8ff" points="118.54,-139.4 120.99,-129.09 112.64,-135.62 118.54,-139.4"/>
</a>
</g>
</g>
<!-- Node11&#45;&gt;Node3 -->
<g id="edge6_Node000011_Node000003" class="edge">
<title>Node11&#45;&gt;Node3</title>
<g id="a_edge6_Node000011_Node000003"><a xlink:title=" ">
<path fill="none" stroke="#63b8ff" d="M136.46,-109.98C145.63,-102.15 159.44,-90.34 170.53,-80.86"/>
<polygon fill="#63b8ff" stroke="#63b8ff" points="173.03,-83.33 178.36,-74.17 168.48,-78.01 173.03,-83.33"/>
</a>
</g>
</g>
<!-- Node11&#45;&gt;Node4 -->
<g id="edge7_Node000011_Node000004" class="edge">
<title>Node11&#45;&gt;Node4</title>
<g id="a_edge7_Node000011_Node000004"><a xlink:title=" ">
<path fill="none" stroke="#63b8ff" d="M126.5,-109.66C126.5,-92.17 126.5,-52.8 126.5,-29.27"/>
<polygon fill="#63b8ff" stroke="#63b8ff" points="130,-29.16 126.5,-19.16 123,-29.16 130,-29.16"/>
</a>
</g>
</g>
<!-- Node12&#45;&gt;Node10 -->
<g id="edge11_Node000012_Node000010" class="edge">
<title>Node12&#45;&gt;Node10</title>
<g id="a_edge11_Node000012_Node000010"><a xlink:title=" ">
<path fill="none" stroke="#63b8ff" d="M57.44,-219.75C63.37,-212.26 72.07,-201.28 79.32,-192.13"/>
<polygon fill="#63b8ff" stroke="#63b8ff" points="82.23,-194.1 85.69,-184.09 76.74,-189.75 82.23,-194.1"/>
</a>
</g>
</g>
</g>
</svg>
</svg>

<style type='text/css'>
<![CDATA[
[data-mouse-over-selected='false'] { opacity: 0.7; }
[data-mouse-over-selected='true']  { opacity: 1.0; }
]]>
</style>
<script type="application/ecmascript"><![CDATA[
document.addEventListener('DOMContentLoaded', (event) => {
  highlightEdges();
  highlightAdjacentNodes();
});
]]></script>
</svg>
