<?xml version="1.0" encoding="UTF-8" standalone="no"?>
<!DOCTYPE svg PUBLIC "-//W3C//DTD SVG 1.1//EN"
 "http://www.w3.org/Graphics/SVG/1.1/DTD/svg11.dtd">
<!-- Generated by graphviz version 2.43.0 (0)
 -->
<!-- Title: /home/runner/work/EX&#45;Display/EX&#45;Display/DisplayInterface.h Pages: 1 -->
<svg width="259pt" height="386pt"
 viewBox="0.00 0.00 258.50 386.00" xmlns="http://www.w3.org/2000/svg" xmlns:xlink="http://www.w3.org/1999/xlink">
<g id="graph0" class="graph" transform="scale(1 1) rotate(0) translate(4 382)">
<title>/home/runner/work/EX&#45;Display/EX&#45;Display/DisplayInterface.h</title>
<polygon fill="white" stroke="transparent" points="-4,4 -4,-382 254.5,-382 254.5,4 -4,4"/>
<!-- Node1 -->
<g id="node1" class="node">
<title>Node1</title>
<g id="a_node1"><a xlink:title=" ">
<polygon fill="#bfbfbf" stroke="black" points="0,-336.5 0,-377.5 152,-377.5 152,-336.5 0,-336.5"/>
<text text-anchor="start" x="8" y="-365.5" font-family="Helvetica,sans-Serif" font-size="10.00">/home/runner/work/EX</text>
<text text-anchor="start" x="8" y="-354.5" font-family="Helvetica,sans-Serif" font-size="10.00">&#45;Display/EX&#45;Display/Display</text>
<text text-anchor="middle" x="76" y="-343.5" font-family="Helvetica,sans-Serif" font-size="10.00">Interface.h</text>
</a>
</g>
</g>
<!-- Node2 -->
<g id="node2" class="node">
<title>Node2</title>
<g id="a_node2"><a xlink:href="Logger_8h.html" target="_top" xlink:title=" ">
<polygon fill="white" stroke="black" points="39,-168.5 39,-187.5 97,-187.5 97,-168.5 39,-168.5"/>
<text text-anchor="middle" x="68" y="-175.5" font-family="Helvetica,sans-Serif" font-size="10.00">Logger.h</text>
</a>
</g>
</g>
<!-- Node1&#45;&gt;Node2 -->
<g id="edge1" class="edge">
<title>Node1&#45;&gt;Node2</title>
<path fill="none" stroke="midnightblue" d="M71.42,-336.36C65.95,-310.61 57.91,-264.01 61,-224 61.68,-215.22 63.09,-205.56 64.47,-197.45"/>
<polygon fill="midnightblue" stroke="midnightblue" points="67.92,-198.04 66.26,-187.58 61.03,-196.8 67.92,-198.04"/>
</g>
<!-- Node9 -->
<g id="node8" class="node">
<title>Node9</title>
<g id="a_node8"><a xlink:href="Screen_8h.html" target="_top" xlink:title=" ">
<polygon fill="white" stroke="black" points="80.5,-280.5 80.5,-299.5 139.5,-299.5 139.5,-280.5 80.5,-280.5"/>
<text text-anchor="middle" x="110" y="-287.5" font-family="Helvetica,sans-Serif" font-size="10.00">Screen.h</text>
</a>
</g>
</g>
<!-- Node1&#45;&gt;Node9 -->
<g id="edge8" class="edge">
<title>Node1&#45;&gt;Node9</title>
<path fill="none" stroke="midnightblue" d="M86.2,-336.5C90.81,-327.68 96.22,-317.34 100.72,-308.74"/>
<polygon fill="midnightblue" stroke="midnightblue" points="103.94,-310.14 105.47,-299.65 97.74,-306.89 103.94,-310.14"/>
</g>
<!-- Node3 -->
<g id="node3" class="node">
<title>Node3</title>
<g id="a_node3"><a xlink:href="Arduino_8h.html" target="_top" xlink:title=" ">
<polygon fill="white" stroke="black" points="93.5,-112.5 93.5,-131.5 156.5,-131.5 156.5,-112.5 93.5,-112.5"/>
<text text-anchor="middle" x="125" y="-119.5" font-family="Helvetica,sans-Serif" font-size="10.00">Arduino.h</text>
</a>
</g>
</g>
<!-- Node2&#45;&gt;Node3 -->
<g id="edge2" class="edge">
<title>Node2&#45;&gt;Node3</title>
<path fill="none" stroke="midnightblue" d="M77.16,-168.32C85.5,-160.42 98.03,-148.55 108.18,-138.94"/>
<polygon fill="midnightblue" stroke="midnightblue" points="110.82,-141.25 115.68,-131.83 106.01,-136.17 110.82,-141.25"/>
</g>
<!-- Node4 -->
<g id="node4" class="node">
<title>Node4</title>
<g id="a_node4"><a xlink:href="Stream_8h.html" target="_top" xlink:title=" ">
<polygon fill="white" stroke="red" points="8.5,-56.5 8.5,-75.5 69.5,-75.5 69.5,-56.5 8.5,-56.5"/>
<text text-anchor="middle" x="39" y="-63.5" font-family="Helvetica,sans-Serif" font-size="10.00">Stream.h</text>
</a>
</g>
</g>
<!-- Node3&#45;&gt;Node4 -->
<g id="edge3" class="edge">
<title>Node3&#45;&gt;Node4</title>
<path fill="none" stroke="midnightblue" d="M111.18,-112.32C97.77,-103.9 77.18,-90.97 61.41,-81.07"/>
<polygon fill="midnightblue" stroke="midnightblue" points="63.11,-78.01 52.78,-75.65 59.39,-83.94 63.11,-78.01"/>
</g>
<!-- Node5 -->
<g id="node5" class="node">
<title>Node5</title>
<g id="a_node5"><a xlink:title=" ">
<polygon fill="white" stroke="#bfbfbf" points="20.5,-0.5 20.5,-19.5 115.5,-19.5 115.5,-0.5 20.5,-0.5"/>
<text text-anchor="middle" x="68" y="-7.5" font-family="Helvetica,sans-Serif" font-size="10.00">gmock/gmock.h</text>
</a>
</g>
</g>
<!-- Node3&#45;&gt;Node5 -->
<g id="edge6" class="edge">
<title>Node3&#45;&gt;Node5</title>
<path fill="none" stroke="midnightblue" d="M120.53,-112.37C111.2,-94.38 89.53,-52.55 77.13,-28.63"/>
<polygon fill="midnightblue" stroke="midnightblue" points="80.16,-26.86 72.45,-19.59 73.95,-30.08 80.16,-26.86"/>
</g>
<!-- Node7 -->
<g id="node6" class="node">
<title>Node7</title>
<g id="a_node6"><a xlink:title=" ">
<polygon fill="white" stroke="#bfbfbf" points="126.5,-56.5 126.5,-75.5 179.5,-75.5 179.5,-56.5 126.5,-56.5"/>
<text text-anchor="middle" x="153" y="-63.5" font-family="Helvetica,sans-Serif" font-size="10.00">cstdarg</text>
</a>
</g>
</g>
<!-- Node3&#45;&gt;Node7 -->
<g id="edge5" class="edge">
<title>Node3&#45;&gt;Node7</title>
<path fill="none" stroke="midnightblue" d="M129.62,-112.08C133.46,-104.69 139.02,-93.95 143.76,-84.81"/>
<polygon fill="midnightblue" stroke="midnightblue" points="146.97,-86.24 148.46,-75.75 140.75,-83.02 146.97,-86.24"/>
</g>
<!-- Node8 -->
<g id="node7" class="node">
<title>Node8</title>
<g id="a_node7"><a xlink:title=" ">
<polygon fill="white" stroke="#bfbfbf" points="197.5,-56.5 197.5,-75.5 250.5,-75.5 250.5,-56.5 197.5,-56.5"/>
<text text-anchor="middle" x="224" y="-63.5" font-family="Helvetica,sans-Serif" font-size="10.00">stdint.h</text>
</a>
</g>
</g>
<!-- Node3&#45;&gt;Node8 -->
<g id="edge7" class="edge">
<title>Node3&#45;&gt;Node8</title>
<path fill="none" stroke="midnightblue" d="M140.91,-112.32C156.64,-103.74 180.94,-90.49 199.21,-80.52"/>
<polygon fill="midnightblue" stroke="midnightblue" points="201.03,-83.52 208.13,-75.65 197.68,-77.37 201.03,-83.52"/>
</g>
<!-- Node4&#45;&gt;Node5 -->
<g id="edge4" class="edge">
<title>Node4&#45;&gt;Node5</title>
<path fill="none" stroke="midnightblue" d="M43.79,-56.08C47.76,-48.69 53.53,-37.95 58.43,-28.81"/>
<polygon fill="midnightblue" stroke="midnightblue" points="61.65,-30.22 63.3,-19.75 55.49,-26.91 61.65,-30.22"/>
</g>
<!-- Node9&#45;&gt;Node3 -->
<g id="edge12" class="edge">
<title>Node9&#45;&gt;Node3</title>
<path fill="none" stroke="midnightblue" d="M124.37,-280.33C135.88,-272.47 151.19,-259.72 158,-244 173.29,-208.7 151.76,-164.5 136.95,-140.49"/>
<polygon fill="midnightblue" stroke="midnightblue" points="139.69,-138.29 131.32,-131.79 133.82,-142.09 139.69,-138.29"/>
</g>
<!-- Node10 -->
<g id="node9" class="node">
<title>Node10</title>
<g id="a_node9"><a xlink:href="ScreenRow_8h.html" target="_top" xlink:title=" ">
<polygon fill="white" stroke="black" points="70.5,-224.5 70.5,-243.5 149.5,-243.5 149.5,-224.5 70.5,-224.5"/>
<text text-anchor="middle" x="110" y="-231.5" font-family="Helvetica,sans-Serif" font-size="10.00">ScreenRow.h</text>
</a>
</g>
</g>
<!-- Node9&#45;&gt;Node10 -->
<g id="edge9" class="edge">
<title>Node9&#45;&gt;Node10</title>
<path fill="none" stroke="midnightblue" d="M110,-280.08C110,-273.01 110,-262.86 110,-253.99"/>
<polygon fill="midnightblue" stroke="midnightblue" points="113.5,-253.75 110,-243.75 106.5,-253.75 113.5,-253.75"/>
</g>
<!-- Node10&#45;&gt;Node2 -->
<g id="edge10" class="edge">
<title>Node10&#45;&gt;Node2</title>
<path fill="none" stroke="midnightblue" d="M103.06,-224.08C97.07,-216.38 88.25,-205.03 80.95,-195.65"/>
<polygon fill="midnightblue" stroke="midnightblue" points="83.71,-193.5 74.81,-187.75 78.18,-197.79 83.71,-193.5"/>
</g>
<!-- Node10&#45;&gt;Node3 -->
<g id="edge11" class="edge">
<title>Node10&#45;&gt;Node3</title>
<path fill="none" stroke="midnightblue" d="M111.18,-224.37C113.6,-206.62 119.18,-165.67 122.46,-141.6"/>
<polygon fill="midnightblue" stroke="midnightblue" points="125.95,-141.97 123.83,-131.59 119.01,-141.03 125.95,-141.97"/>
</g>
</g>
</svg>
