<?xml version="1.0" encoding="UTF-8" standalone="no"?>
<!DOCTYPE svg PUBLIC "-//W3C//DTD SVG 1.1//EN"
 "http://www.w3.org/Graphics/SVG/1.1/DTD/svg11.dtd">
<!-- Generated by graphviz version 2.43.0 (0)
 -->
<!-- Title: /home/runner/work/EX&#45;Display/EX&#45;Display/DisplayManager.h Pages: 1 -->
<svg width="3388pt" height="313pt"
 viewBox="0.00 0.00 3388.00 313.00" xmlns="http://www.w3.org/2000/svg" xmlns:xlink="http://www.w3.org/1999/xlink">
<g id="graph0" class="graph" transform="scale(1 1) rotate(0) translate(4 309)">
<title>/home/runner/work/EX&#45;Display/EX&#45;Display/DisplayManager.h</title>
<!-- Node1 -->
<g id="Node000001" class="node">
<title>Node1</title>
<g id="a_Node000001"><a xlink:title=" ">
<polygon fill="#999999" stroke="#666666" points="1278.5,-305 1126.5,-305 1126.5,-264 1278.5,-264 1278.5,-305"/>
<text text-anchor="start" x="1134.5" y="-293" font-family="Helvetica,sans-Serif" font-size="10.00">/home/runner/work/EX</text>
<text text-anchor="start" x="1134.5" y="-282" font-family="Helvetica,sans-Serif" font-size="10.00">&#45;Display/EX&#45;Display/Display</text>
<text text-anchor="middle" x="1202.5" y="-271" font-family="Helvetica,sans-Serif" font-size="10.00">Manager.h</text>
</a>
</g>
</g>
<!-- Node2 -->
<g id="Node000002" class="node">
<title>Node2</title>
<g id="a_Node000002"><a xlink:href="Configurator_8h.html" target="_top" xlink:title=" ">
<polygon fill="white" stroke="#666666" points="455.5,-129 271.5,-129 271.5,-99 455.5,-99 455.5,-129"/>
<text text-anchor="start" x="279.5" y="-117" font-family="Helvetica,sans-Serif" font-size="10.00">/home/runner/work/EX</text>
<text text-anchor="middle" x="363.5" y="-106" font-family="Helvetica,sans-Serif" font-size="10.00">&#45;Display/EX&#45;Display/Configurator.h</text>
</a>
</g>
</g>
<!-- Node1&#45;&gt;Node2 -->
<g id="edge1_Node000001_Node000002" class="edge">
<title>Node1&#45;&gt;Node2</title>
<g id="a_edge1_Node000001_Node000002"><a xlink:title=" ">
<path fill="none" stroke="#63b8ff" d="M1116.03,-278.71C1018.38,-272.12 855.15,-257.55 717.5,-228 598.44,-202.44 462.51,-153.14 399.3,-129.01"/>
<polygon fill="#63b8ff" stroke="#63b8ff" points="1115.94,-282.21 1126.15,-279.38 1116.4,-275.22 1115.94,-282.21"/>
</a>
</g>
</g>
<!-- Node6 -->
<g id="Node000006" class="node">
<title>Node6</title>
<g id="a_Node000006"><a xlink:href="Controller_8h.html" target="_top" xlink:title=" ">
<polygon fill="white" stroke="#666666" points="1056.5,-217 884.5,-217 884.5,-187 1056.5,-187 1056.5,-217"/>
<text text-anchor="start" x="892.5" y="-205" font-family="Helvetica,sans-Serif" font-size="10.00">/home/runner/work/EX</text>
<text text-anchor="middle" x="970.5" y="-194" font-family="Helvetica,sans-Serif" font-size="10.00">&#45;Display/EX&#45;Display/Controller.h</text>
</a>
</g>
</g>
<!-- Node1&#45;&gt;Node6 -->
<g id="edge5_Node000001_Node000006" class="edge">
<title>Node1&#45;&gt;Node6</title>
<g id="a_edge5_Node000001_Node000006"><a xlink:title=" ">
<path fill="none" stroke="#63b8ff" d="M1136.54,-260.61C1096.15,-246.6 1045.75,-229.11 1011.13,-217.1"/>
<polygon fill="#63b8ff" stroke="#63b8ff" points="1135.45,-263.94 1146.04,-263.91 1137.74,-257.33 1135.45,-263.94"/>
</a>
</g>
</g>
<!-- Node8 -->
<g id="Node000008" class="node">
<title>Node8</title>
<g id="a_Node000008"><a xlink:href="test__ControllerDisplayUpdate_8cpp.html" target="_top" xlink:title=" ">
<polygon fill="white" stroke="#666666" points="657.5,-140 473.5,-140 473.5,-88 657.5,-88 657.5,-140"/>
<text text-anchor="start" x="481.5" y="-128" font-family="Helvetica,sans-Serif" font-size="10.00">/home/runner/work/EX</text>
<text text-anchor="start" x="481.5" y="-117" font-family="Helvetica,sans-Serif" font-size="10.00">&#45;Display/EX&#45;Display/test</text>
<text text-anchor="start" x="481.5" y="-106" font-family="Helvetica,sans-Serif" font-size="10.00">/integration/test_Controller</text>
<text text-anchor="middle" x="565.5" y="-95" font-family="Helvetica,sans-Serif" font-size="10.00">/test_ControllerDisplayUpdate.cpp</text>
</a>
</g>
</g>
<!-- Node1&#45;&gt;Node8 -->
<g id="edge16_Node000001_Node000008" class="edge">
<title>Node1&#45;&gt;Node8</title>
<g id="a_edge16_Node000001_Node000008"><a xlink:title=" ">
<path fill="none" stroke="#63b8ff" d="M1116.32,-273.22C1049.85,-264.25 955.98,-249.31 875.5,-228 785.93,-204.28 685.79,-165.43 624.19,-140.03"/>
<polygon fill="#63b8ff" stroke="#63b8ff" points="1115.96,-276.7 1126.34,-274.56 1116.89,-269.77 1115.96,-276.7"/>
</a>
</g>
</g>
<!-- Node9 -->
<g id="Node000009" class="node">
<title>Node9</title>
<g id="a_Node000009"><a xlink:href="test__ControllerInputAction_8cpp.html" target="_top" xlink:title=" ">
<polygon fill="white" stroke="#666666" points="1248,-140 1081,-140 1081,-88 1248,-88 1248,-140"/>
<text text-anchor="start" x="1089" y="-128" font-family="Helvetica,sans-Serif" font-size="10.00">/home/runner/work/EX</text>
<text text-anchor="start" x="1089" y="-117" font-family="Helvetica,sans-Serif" font-size="10.00">&#45;Display/EX&#45;Display/test</text>
<text text-anchor="start" x="1089" y="-106" font-family="Helvetica,sans-Serif" font-size="10.00">/integration/test_Controller</text>
<text text-anchor="middle" x="1164.5" y="-95" font-family="Helvetica,sans-Serif" font-size="10.00">/test_ControllerInputAction.cpp</text>
</a>
</g>
</g>
<!-- Node1&#45;&gt;Node9 -->
<g id="edge17_Node000001_Node000009" class="edge">
<title>Node1&#45;&gt;Node9</title>
<g id="a_edge17_Node000001_Node000009"><a xlink:title=" ">
<path fill="none" stroke="#63b8ff" d="M1194.84,-254.01C1192.72,-245.62 1190.47,-236.46 1188.5,-228 1181.51,-197.91 1174.25,-163.13 1169.57,-140.19"/>
<polygon fill="#63b8ff" stroke="#63b8ff" points="1191.47,-254.94 1197.33,-263.77 1198.25,-253.21 1191.47,-254.94"/>
</a>
</g>
</g>
<!-- Node11 -->
<g id="Node000011" class="node">
<title>Node11</title>
<g id="a_Node000011"><a xlink:href="test__Controller_8cpp.html" target="_top" xlink:title=" ">
<polygon fill="white" stroke="#666666" points="1401,-140 1266,-140 1266,-88 1401,-88 1401,-140"/>
<text text-anchor="start" x="1274" y="-128" font-family="Helvetica,sans-Serif" font-size="10.00">/home/runner/work/EX</text>
<text text-anchor="start" x="1274" y="-117" font-family="Helvetica,sans-Serif" font-size="10.00">&#45;Display/EX&#45;Display/test</text>
<text text-anchor="start" x="1274" y="-106" font-family="Helvetica,sans-Serif" font-size="10.00">/unit/test_Controller/test</text>
<text text-anchor="middle" x="1333.5" y="-95" font-family="Helvetica,sans-Serif" font-size="10.00">_Controller.cpp</text>
</a>
</g>
</g>
<!-- Node1&#45;&gt;Node11 -->
<g id="edge32_Node000001_Node000011" class="edge">
<title>Node1&#45;&gt;Node11</title>
<g id="a_edge32_Node000001_Node000011"><a xlink:title=" ">
<path fill="none" stroke="#63b8ff" d="M1201.06,-253.41C1201.44,-230.22 1205.36,-198.45 1221.5,-176 1232.68,-160.45 1249.1,-148.45 1265.93,-139.36"/>
<polygon fill="#63b8ff" stroke="#63b8ff" points="1197.56,-253.72 1201.11,-263.7 1204.56,-253.68 1197.56,-253.72"/>
</a>
</g>
</g>
<!-- Node12 -->
<g id="Node000012" class="node">
<title>Node12</title>
<g id="a_Node000012"><a xlink:href="CreateUserDevices_8h.html" target="_top" xlink:title=" ">
<polygon fill="white" stroke="#666666" points="297.5,-222.5 127.5,-222.5 127.5,-181.5 297.5,-181.5 297.5,-222.5"/>
<text text-anchor="start" x="135.5" y="-210.5" font-family="Helvetica,sans-Serif" font-size="10.00">/home/runner/work/EX</text>
<text text-anchor="start" x="135.5" y="-199.5" font-family="Helvetica,sans-Serif" font-size="10.00">&#45;Display/EX&#45;Display/CreateUser</text>
<text text-anchor="middle" x="212.5" y="-188.5" font-family="Helvetica,sans-Serif" font-size="10.00">Devices.h</text>
</a>
</g>
</g>
<!-- Node1&#45;&gt;Node12 -->
<g id="edge12_Node000001_Node000012" class="edge">
<title>Node1&#45;&gt;Node12</title>
<g id="a_edge12_Node000001_Node000012"><a xlink:title=" ">
<path fill="none" stroke="#63b8ff" d="M1116.3,-277.71C978.36,-268.29 699.52,-248.61 463.5,-228 408.2,-223.17 346.13,-216.99 297.55,-211.99"/>
<polygon fill="#63b8ff" stroke="#63b8ff" points="1116.17,-281.21 1126.39,-278.4 1116.65,-274.22 1116.17,-281.21"/>
</a>
</g>
</g>
<!-- Node14 -->
<g id="Node000014" class="node">
<title>Node14</title>
<g id="a_Node000014"><a xlink:href="DisplayManager_8cpp.html" target="_top" xlink:title=" ">
<polygon fill="white" stroke="#666666" points="1382.5,-222.5 1230.5,-222.5 1230.5,-181.5 1382.5,-181.5 1382.5,-222.5"/>
<text text-anchor="start" x="1238.5" y="-210.5" font-family="Helvetica,sans-Serif" font-size="10.00">/home/runner/work/EX</text>
<text text-anchor="start" x="1238.5" y="-199.5" font-family="Helvetica,sans-Serif" font-size="10.00">&#45;Display/EX&#45;Display/Display</text>
<text text-anchor="middle" x="1306.5" y="-188.5" font-family="Helvetica,sans-Serif" font-size="10.00">Manager.cpp</text>
</a>
</g>
</g>
<!-- Node1&#45;&gt;Node14 -->
<g id="edge15_Node000001_Node000014" class="edge">
<title>Node1&#45;&gt;Node14</title>
<g id="a_edge15_Node000001_Node000014"><a xlink:title=" ">
<path fill="none" stroke="#63b8ff" d="M1236.21,-257.41C1250.75,-246.15 1267.47,-233.21 1280.96,-222.77"/>
<polygon fill="#63b8ff" stroke="#63b8ff" points="1233.71,-254.92 1227.94,-263.81 1237.99,-260.45 1233.71,-254.92"/>
</a>
</g>
</g>
<!-- Node15 -->
<g id="Node000015" class="node">
<title>Node15</title>
<g id="a_Node000015"><a xlink:href="test__DisplayScreens_8cpp.html" target="_top" xlink:title=" ">
<polygon fill="white" stroke="#666666" points="1540,-228 1401,-228 1401,-176 1540,-176 1540,-228"/>
<text text-anchor="start" x="1409" y="-216" font-family="Helvetica,sans-Serif" font-size="10.00">/home/runner/work/EX</text>
<text text-anchor="start" x="1409" y="-205" font-family="Helvetica,sans-Serif" font-size="10.00">&#45;Display/EX&#45;Display/test</text>
<text text-anchor="start" x="1409" y="-194" font-family="Helvetica,sans-Serif" font-size="10.00">/integration/test_Display</text>
<text text-anchor="middle" x="1470.5" y="-183" font-family="Helvetica,sans-Serif" font-size="10.00">/test_DisplayScreens.cpp</text>
</a>
</g>
</g>
<!-- Node1&#45;&gt;Node15 -->
<g id="edge18_Node000001_Node000015" class="edge">
<title>Node1&#45;&gt;Node15</title>
<g id="a_edge18_Node000001_Node000015"><a xlink:title=" ">
<path fill="none" stroke="#63b8ff" d="M1280.32,-261.05C1314.48,-251.09 1355.03,-239.12 1391.5,-228 1394.53,-227.08 1397.62,-226.13 1400.74,-225.16"/>
<polygon fill="#63b8ff" stroke="#63b8ff" points="1279.02,-257.78 1270.4,-263.93 1280.98,-264.5 1279.02,-257.78"/>
</a>
</g>
</g>
<!-- Node16 -->
<g id="Node000016" class="node">
<title>Node16</title>
<g id="a_Node000016"><a xlink:href="MockDisplayInputMethods_8h.html" target="_top" xlink:title=" ">
<polygon fill="white" stroke="#666666" points="2261.5,-222.5 2067.5,-222.5 2067.5,-181.5 2261.5,-181.5 2261.5,-222.5"/>
<text text-anchor="start" x="2075.5" y="-210.5" font-family="Helvetica,sans-Serif" font-size="10.00">/home/runner/work/EX</text>
<text text-anchor="start" x="2075.5" y="-199.5" font-family="Helvetica,sans-Serif" font-size="10.00">&#45;Display/EX&#45;Display/test</text>
<text text-anchor="middle" x="2164.5" y="-188.5" font-family="Helvetica,sans-Serif" font-size="10.00">/mocks/MockDisplayInputMethods.h</text>
</a>
</g>
</g>
<!-- Node1&#45;&gt;Node16 -->
<g id="edge19_Node000001_Node000016" class="edge">
<title>Node1&#45;&gt;Node16</title>
<g id="a_edge19_Node000001_Node000016"><a xlink:title=" ">
<path fill="none" stroke="#63b8ff" d="M1288.97,-276.26C1468.27,-261.26 1879.48,-226.85 2067.49,-211.12"/>
<polygon fill="#63b8ff" stroke="#63b8ff" points="1288.46,-272.79 1278.79,-277.12 1289.05,-279.77 1288.46,-272.79"/>
</a>
</g>
</g>
<!-- Node29 -->
<g id="Node000029" class="node">
<title>Node29</title>
<g id="a_Node000029"><a xlink:href="test__DisplayManager_8cpp.html" target="_top" xlink:title=" ">
<polygon fill="white" stroke="#666666" points="2425,-228 2280,-228 2280,-176 2425,-176 2425,-228"/>
<text text-anchor="start" x="2288" y="-216" font-family="Helvetica,sans-Serif" font-size="10.00">/home/runner/work/EX</text>
<text text-anchor="start" x="2288" y="-205" font-family="Helvetica,sans-Serif" font-size="10.00">&#45;Display/EX&#45;Display/test</text>
<text text-anchor="start" x="2288" y="-194" font-family="Helvetica,sans-Serif" font-size="10.00">/unit/test_DisplayManager</text>
<text text-anchor="middle" x="2352.5" y="-183" font-family="Helvetica,sans-Serif" font-size="10.00">/test_DisplayManager.cpp</text>
</a>
</g>
</g>
<!-- Node1&#45;&gt;Node29 -->
<g id="edge33_Node000001_Node000029" class="edge">
<title>Node1&#45;&gt;Node29</title>
<g id="a_edge33_Node000001_Node000029"><a xlink:title=" ">
<path fill="none" stroke="#63b8ff" d="M1288.89,-281.73C1508.23,-276.79 2082.62,-261.01 2270.5,-228 2273.58,-227.46 2276.7,-226.84 2279.85,-226.16"/>
<polygon fill="#63b8ff" stroke="#63b8ff" points="1288.63,-278.23 1278.71,-281.95 1288.79,-285.23 1288.63,-278.23"/>
</a>
</g>
</g>
<!-- Node30 -->
<g id="Node000030" class="node">
<title>Node30</title>
<g id="a_Node000030"><a xlink:href="test__DisplayManualSPISwitching_8cpp.html" target="_top" xlink:title=" ">
<polygon fill="white" stroke="#666666" points="2642,-228 2443,-228 2443,-176 2642,-176 2642,-228"/>
<text text-anchor="start" x="2451" y="-216" font-family="Helvetica,sans-Serif" font-size="10.00">/home/runner/work/EX</text>
<text text-anchor="start" x="2451" y="-205" font-family="Helvetica,sans-Serif" font-size="10.00">&#45;Display/EX&#45;Display/test</text>
<text text-anchor="start" x="2451" y="-194" font-family="Helvetica,sans-Serif" font-size="10.00">/unit/test_DisplayManager</text>
<text text-anchor="middle" x="2542.5" y="-183" font-family="Helvetica,sans-Serif" font-size="10.00">/test_DisplayManualSPISwitching.cpp</text>
</a>
</g>
</g>
<!-- Node1&#45;&gt;Node30 -->
<g id="edge34_Node000001_Node000030" class="edge">
<title>Node1&#45;&gt;Node30</title>
<g id="a_edge34_Node000001_Node000030"><a xlink:title=" ">
<path fill="none" stroke="#63b8ff" d="M1289,-281.66C1531.16,-276.17 2212.7,-258.41 2434.5,-228 2437.26,-227.62 2440.06,-227.2 2442.88,-226.76"/>
<polygon fill="#63b8ff" stroke="#63b8ff" points="1288.75,-278.16 1278.83,-281.89 1288.91,-285.16 1288.75,-278.16"/>
</a>
</g>
</g>
<!-- Node3 -->
<g id="Node000003" class="node">
<title>Node3</title>
<g id="a_Node000003"><a xlink:href="Configurator_8cpp.html" target="_top" xlink:title=" ">
<polygon fill="white" stroke="#666666" points="294,-41 99,-41 99,-11 294,-11 294,-41"/>
<text text-anchor="start" x="107" y="-29" font-family="Helvetica,sans-Serif" font-size="10.00">/home/runner/work/EX</text>
<text text-anchor="middle" x="196.5" y="-18" font-family="Helvetica,sans-Serif" font-size="10.00">&#45;Display/EX&#45;Display/Configurator.cpp</text>
</a>
</g>
</g>
<!-- Node2&#45;&gt;Node3 -->
<g id="edge2_Node000002_Node000003" class="edge">
<title>Node2&#45;&gt;Node3</title>
<g id="a_edge2_Node000002_Node000003"><a xlink:title=" ">
<path fill="none" stroke="#63b8ff" d="M327.08,-94.25C295.94,-78.21 251.83,-55.49 223.69,-41"/>
<polygon fill="#63b8ff" stroke="#63b8ff" points="325.8,-97.52 336.3,-98.99 329.01,-91.3 325.8,-97.52"/>
</a>
</g>
</g>
<!-- Node4 -->
<g id="Node000004" class="node">
<title>Node4</title>
<g id="a_Node000004"><a xlink:href="EX-Display_8ino.html" target="_top" xlink:title=" ">
<polygon fill="white" stroke="#666666" points="592.5,-46.5 464.5,-46.5 464.5,-5.5 592.5,-5.5 592.5,-46.5"/>
<text text-anchor="start" x="472.5" y="-34.5" font-family="Helvetica,sans-Serif" font-size="10.00">/home/runner/work/EX</text>
<text text-anchor="start" x="472.5" y="-23.5" font-family="Helvetica,sans-Serif" font-size="10.00">&#45;Display/EX&#45;Display/EX</text>
<text text-anchor="middle" x="528.5" y="-12.5" font-family="Helvetica,sans-Serif" font-size="10.00">&#45;Display.ino</text>
</a>
</g>
</g>
<!-- Node2&#45;&gt;Node4 -->
<g id="edge3_Node000002_Node000004" class="edge">
<title>Node2&#45;&gt;Node4</title>
<g id="a_edge3_Node000002_Node000004"><a xlink:title=" ">
<path fill="none" stroke="#63b8ff" d="M399.49,-94.24C426.52,-80.15 463.43,-60.91 490.85,-46.62"/>
<polygon fill="#63b8ff" stroke="#63b8ff" points="397.63,-91.27 390.38,-98.99 400.86,-97.47 397.63,-91.27"/>
</a>
</g>
</g>
<!-- Node5 -->
<g id="Node000005" class="node">
<title>Node5</title>
<g id="a_Node000005"><a xlink:href="test__Configurator_8cpp.html" target="_top" xlink:title=" ">
<polygon fill="white" stroke="#666666" points="446.5,-52 312.5,-52 312.5,0 446.5,0 446.5,-52"/>
<text text-anchor="start" x="320.5" y="-40" font-family="Helvetica,sans-Serif" font-size="10.00">/home/runner/work/EX</text>
<text text-anchor="start" x="320.5" y="-29" font-family="Helvetica,sans-Serif" font-size="10.00">&#45;Display/EX&#45;Display/test</text>
<text text-anchor="start" x="320.5" y="-18" font-family="Helvetica,sans-Serif" font-size="10.00">/unit/test_Configurator</text>
<text text-anchor="middle" x="379.5" y="-7" font-family="Helvetica,sans-Serif" font-size="10.00">/test_Configurator.cpp</text>
</a>
</g>
</g>
<!-- Node2&#45;&gt;Node5 -->
<g id="edge4_Node000002_Node000005" class="edge">
<title>Node2&#45;&gt;Node5</title>
<g id="a_edge4_Node000002_Node000005"><a xlink:title=" ">
<path fill="none" stroke="#63b8ff" d="M368.03,-88.63C370.16,-77.18 372.7,-63.54 374.85,-52.01"/>
<polygon fill="#63b8ff" stroke="#63b8ff" points="364.53,-88.33 366.14,-98.8 371.41,-89.61 364.53,-88.33"/>
</a>
</g>
</g>
<!-- Node6&#45;&gt;Node2 -->
<g id="edge6_Node000006_Node000002" class="edge">
<title>Node6&#45;&gt;Node2</title>
<g id="a_edge6_Node000006_Node000002"><a xlink:title=" ">
<path fill="none" stroke="#63b8ff" d="M874.07,-192.92C771.87,-183.54 606,-165.94 464.5,-140 448.24,-137.02 430.7,-132.98 414.88,-129.01"/>
<polygon fill="#63b8ff" stroke="#63b8ff" points="873.79,-196.41 884.07,-193.83 874.42,-189.44 873.79,-196.41"/>
</a>
</g>
</g>
<!-- Node7 -->
<g id="Node000007" class="node">
<title>Node7</title>
<g id="a_Node000007"><a xlink:href="Controller_8cpp.html" target="_top" xlink:title=" ">
<polygon fill="white" stroke="#666666" points="859,-129 676,-129 676,-99 859,-99 859,-129"/>
<text text-anchor="start" x="684" y="-117" font-family="Helvetica,sans-Serif" font-size="10.00">/home/runner/work/EX</text>
<text text-anchor="middle" x="767.5" y="-106" font-family="Helvetica,sans-Serif" font-size="10.00">&#45;Display/EX&#45;Display/Controller.cpp</text>
</a>
</g>
</g>
<!-- Node6&#45;&gt;Node7 -->
<g id="edge7_Node000006_Node000007" class="edge">
<title>Node6&#45;&gt;Node7</title>
<g id="a_edge7_Node000006_Node000007"><a xlink:title=" ">
<path fill="none" stroke="#63b8ff" d="M928.18,-183.07C890.24,-167 835.35,-143.74 800.55,-129"/>
<polygon fill="#63b8ff" stroke="#63b8ff" points="926.86,-186.31 937.43,-186.99 929.59,-179.87 926.86,-186.31"/>
</a>
</g>
</g>
<!-- Node6&#45;&gt;Node8 -->
<g id="edge8_Node000006_Node000008" class="edge">
<title>Node6&#45;&gt;Node8</title>
<g id="a_edge8_Node000006_Node000008"><a xlink:title=" ">
<path fill="none" stroke="#63b8ff" d="M885.68,-185.03C824.58,-173.27 740.27,-156.52 666.5,-140 663.59,-139.35 660.64,-138.68 657.66,-137.99"/>
<polygon fill="#63b8ff" stroke="#63b8ff" points="885.18,-188.5 895.66,-186.95 886.5,-181.62 885.18,-188.5"/>
</a>
</g>
</g>
<!-- Node6&#45;&gt;Node9 -->
<g id="edge9_Node000006_Node000009" class="edge">
<title>Node6&#45;&gt;Node9</title>
<g id="a_edge9_Node000006_Node000009"><a xlink:title=" ">
<path fill="none" stroke="#63b8ff" d="M1011.58,-182.79C1039.58,-170.38 1077.01,-153.78 1107.84,-140.12"/>
<polygon fill="#63b8ff" stroke="#63b8ff" points="1009.82,-179.74 1002.1,-186.99 1012.66,-186.14 1009.82,-179.74"/>
</a>
</g>
</g>
<!-- Node10 -->
<g id="Node000010" class="node">
<title>Node10</title>
<g id="a_Node000010"><a xlink:href="test__ControllerScreenCreation_8cpp.html" target="_top" xlink:title=" ">
<polygon fill="white" stroke="#666666" points="1063.5,-140 877.5,-140 877.5,-88 1063.5,-88 1063.5,-140"/>
<text text-anchor="start" x="885.5" y="-128" font-family="Helvetica,sans-Serif" font-size="10.00">/home/runner/work/EX</text>
<text text-anchor="start" x="885.5" y="-117" font-family="Helvetica,sans-Serif" font-size="10.00">&#45;Display/EX&#45;Display/test</text>
<text text-anchor="start" x="885.5" y="-106" font-family="Helvetica,sans-Serif" font-size="10.00">/integration/test_Controller</text>
<text text-anchor="middle" x="970.5" y="-95" font-family="Helvetica,sans-Serif" font-size="10.00">/test_ControllerScreenCreation.cpp</text>
</a>
</g>
</g>
<!-- Node6&#45;&gt;Node10 -->
<g id="edge10_Node000006_Node000010" class="edge">
<title>Node6&#45;&gt;Node10</title>
<g id="a_edge10_Node000006_Node000010"><a xlink:title=" ">
<path fill="none" stroke="#63b8ff" d="M970.5,-176.63C970.5,-165.18 970.5,-151.54 970.5,-140.01"/>
<polygon fill="#63b8ff" stroke="#63b8ff" points="967,-176.8 970.5,-186.8 974,-176.8 967,-176.8"/>
</a>
</g>
</g>
<!-- Node6&#45;&gt;Node11 -->
<g id="edge11_Node000006_Node000011" class="edge">
<title>Node6&#45;&gt;Node11</title>
<g id="a_edge11_Node000006_Node000011"><a xlink:title=" ">
<path fill="none" stroke="#63b8ff" d="M1056.94,-184.99C1113.97,-173.84 1190.12,-157.8 1256.5,-140 1259.49,-139.2 1262.53,-138.35 1265.59,-137.47"/>
<polygon fill="#63b8ff" stroke="#63b8ff" points="1056.03,-181.6 1046.88,-186.95 1057.37,-188.47 1056.03,-181.6"/>
</a>
</g>
</g>
<!-- Node12&#45;&gt;Node3 -->
<g id="edge13_Node000012_Node000003" class="edge">
<title>Node12&#45;&gt;Node3</title>
<g id="a_edge13_Node000012_Node000003"><a xlink:title=" ">
<path fill="none" stroke="#63b8ff" d="M209.74,-170.98C206.26,-133.11 200.41,-69.55 197.81,-41.29"/>
<polygon fill="#63b8ff" stroke="#63b8ff" points="206.29,-171.74 210.7,-181.38 213.27,-171.1 206.29,-171.74"/>
</a>
</g>
</g>
<!-- Node13 -->
<g id="Node000013" class="node">
<title>Node13</title>
<g id="a_Node000013"><a xlink:href="test__CompilerCreation_8cpp.html" target="_top" xlink:title=" ">
<polygon fill="white" stroke="#666666" points="185,-140 0,-140 0,-88 185,-88 185,-140"/>
<text text-anchor="start" x="8" y="-128" font-family="Helvetica,sans-Serif" font-size="10.00">/home/runner/work/EX</text>
<text text-anchor="start" x="8" y="-117" font-family="Helvetica,sans-Serif" font-size="10.00">&#45;Display/EX&#45;Display/test</text>
<text text-anchor="start" x="8" y="-106" font-family="Helvetica,sans-Serif" font-size="10.00">/integration/test_CompilerCreation</text>
<text text-anchor="middle" x="92.5" y="-95" font-family="Helvetica,sans-Serif" font-size="10.00">/test_CompilerCreation.cpp</text>
</a>
</g>
</g>
<!-- Node12&#45;&gt;Node13 -->
<g id="edge14_Node000012_Node000013" class="edge">
<title>Node12&#45;&gt;Node13</title>
<g id="a_edge14_Node000012_Node000013"><a xlink:title=" ">
<path fill="none" stroke="#63b8ff" d="M176.96,-175.53C161.45,-164.41 143.31,-151.41 127.83,-140.32"/>
<polygon fill="#63b8ff" stroke="#63b8ff" points="175.1,-178.5 185.27,-181.49 179.18,-172.82 175.1,-178.5"/>
</a>
</g>
</g>
<!-- Node17 -->
<g id="Node000017" class="node">
<title>Node17</title>
<g id="a_Node000017"><a xlink:href="integration_2test__Controller_2test__main_8cpp.html" target="_top" xlink:title=" ">
<polygon fill="white" stroke="#666666" points="1567.5,-140 1419.5,-140 1419.5,-88 1567.5,-88 1567.5,-140"/>
<text text-anchor="start" x="1427.5" y="-128" font-family="Helvetica,sans-Serif" font-size="10.00">/home/runner/work/EX</text>
<text text-anchor="start" x="1427.5" y="-117" font-family="Helvetica,sans-Serif" font-size="10.00">&#45;Display/EX&#45;Display/test</text>
<text text-anchor="start" x="1427.5" y="-106" font-family="Helvetica,sans-Serif" font-size="10.00">/integration/test_Controller</text>
<text text-anchor="middle" x="1493.5" y="-95" font-family="Helvetica,sans-Serif" font-size="10.00">/test_main.cpp</text>
</a>
</g>
</g>
<!-- Node16&#45;&gt;Node17 -->
<g id="edge20_Node000016_Node000017" class="edge">
<title>Node16&#45;&gt;Node17</title>
<g id="a_edge20_Node000016_Node000017"><a xlink:title=" ">
<path fill="none" stroke="#63b8ff" d="M2057.24,-195.97C1938.67,-189.01 1742.48,-173.29 1576.5,-140 1573.55,-139.41 1570.55,-138.76 1567.54,-138.06"/>
<polygon fill="#63b8ff" stroke="#63b8ff" points="2057.22,-199.48 2067.41,-196.56 2057.63,-192.49 2057.22,-199.48"/>
</a>
</g>
</g>
<!-- Node18 -->
<g id="Node000018" class="node">
<title>Node18</title>
<g id="a_Node000018"><a xlink:href="integration_2test__Display_2test__main_8cpp.html" target="_top" xlink:title=" ">
<polygon fill="white" stroke="#666666" points="1723,-140 1586,-140 1586,-88 1723,-88 1723,-140"/>
<text text-anchor="start" x="1594" y="-128" font-family="Helvetica,sans-Serif" font-size="10.00">/home/runner/work/EX</text>
<text text-anchor="start" x="1594" y="-117" font-family="Helvetica,sans-Serif" font-size="10.00">&#45;Display/EX&#45;Display/test</text>
<text text-anchor="start" x="1594" y="-106" font-family="Helvetica,sans-Serif" font-size="10.00">/integration/test_Display</text>
<text text-anchor="middle" x="1654.5" y="-95" font-family="Helvetica,sans-Serif" font-size="10.00">/test_main.cpp</text>
</a>
</g>
</g>
<!-- Node16&#45;&gt;Node18 -->
<g id="edge21_Node000016_Node000018" class="edge">
<title>Node16&#45;&gt;Node18</title>
<g id="a_edge21_Node000016_Node000018"><a xlink:title=" ">
<path fill="none" stroke="#63b8ff" d="M2057.29,-191.14C1969.08,-181.78 1841.19,-165.33 1731.5,-140 1728.76,-139.37 1725.98,-138.68 1723.18,-137.95"/>
<polygon fill="#63b8ff" stroke="#63b8ff" points="2057,-194.63 2067.31,-192.19 2057.73,-187.67 2057,-194.63"/>
</a>
</g>
</g>
<!-- Node19 -->
<g id="Node000019" class="node">
<title>Node19</title>
<g id="a_Node000019"><a xlink:href="integration_2test__InteractiveLogger_2test__main_8cpp.html" target="_top" xlink:title=" ">
<polygon fill="white" stroke="#666666" points="1926,-140 1741,-140 1741,-88 1926,-88 1926,-140"/>
<text text-anchor="start" x="1749" y="-128" font-family="Helvetica,sans-Serif" font-size="10.00">/home/runner/work/EX</text>
<text text-anchor="start" x="1749" y="-117" font-family="Helvetica,sans-Serif" font-size="10.00">&#45;Display/EX&#45;Display/test</text>
<text text-anchor="start" x="1749" y="-106" font-family="Helvetica,sans-Serif" font-size="10.00">/integration/test_InteractiveLogger</text>
<text text-anchor="middle" x="1833.5" y="-95" font-family="Helvetica,sans-Serif" font-size="10.00">/test_main.cpp</text>
</a>
</g>
</g>
<!-- Node16&#45;&gt;Node19 -->
<g id="edge22_Node000016_Node000019" class="edge">
<title>Node16&#45;&gt;Node19</title>
<g id="a_edge22_Node000016_Node000019"><a xlink:title=" ">
<path fill="none" stroke="#63b8ff" d="M2079.55,-178.93C2032.58,-166.72 1974.16,-151.55 1926.04,-139.04"/>
<polygon fill="#63b8ff" stroke="#63b8ff" points="2078.83,-182.36 2089.39,-181.49 2080.59,-175.58 2078.83,-182.36"/>
</a>
</g>
</g>
<!-- Node20 -->
<g id="Node000020" class="node">
<title>Node20</title>
<g id="a_Node000020"><a xlink:href="unit_2test__Configurator_2test__main_8cpp.html" target="_top" xlink:title=" ">
<polygon fill="white" stroke="#666666" points="2078.5,-140 1944.5,-140 1944.5,-88 2078.5,-88 2078.5,-140"/>
<text text-anchor="start" x="1952.5" y="-128" font-family="Helvetica,sans-Serif" font-size="10.00">/home/runner/work/EX</text>
<text text-anchor="start" x="1952.5" y="-117" font-family="Helvetica,sans-Serif" font-size="10.00">&#45;Display/EX&#45;Display/test</text>
<text text-anchor="start" x="1952.5" y="-106" font-family="Helvetica,sans-Serif" font-size="10.00">/unit/test_Configurator</text>
<text text-anchor="middle" x="2011.5" y="-95" font-family="Helvetica,sans-Serif" font-size="10.00">/test_main.cpp</text>
</a>
</g>
</g>
<!-- Node16&#45;&gt;Node20 -->
<g id="edge23_Node000016_Node000020" class="edge">
<title>Node16&#45;&gt;Node20</title>
<g id="a_edge23_Node000016_Node000020"><a xlink:title=" ">
<path fill="none" stroke="#63b8ff" d="M2121.06,-176.58C2100.79,-165.19 2076.69,-151.64 2056.26,-140.16"/>
<polygon fill="#63b8ff" stroke="#63b8ff" points="2119.35,-179.64 2129.78,-181.49 2122.78,-173.53 2119.35,-179.64"/>
</a>
</g>
</g>
<!-- Node21 -->
<g id="Node000021" class="node">
<title>Node21</title>
<g id="a_Node000021"><a xlink:href="unit_2test__Controller_2test__main_8cpp.html" target="_top" xlink:title=" ">
<polygon fill="white" stroke="#666666" points="2232,-140 2097,-140 2097,-88 2232,-88 2232,-140"/>
<text text-anchor="start" x="2105" y="-128" font-family="Helvetica,sans-Serif" font-size="10.00">/home/runner/work/EX</text>
<text text-anchor="start" x="2105" y="-117" font-family="Helvetica,sans-Serif" font-size="10.00">&#45;Display/EX&#45;Display/test</text>
<text text-anchor="start" x="2105" y="-106" font-family="Helvetica,sans-Serif" font-size="10.00">/unit/test_Controller/test</text>
<text text-anchor="middle" x="2164.5" y="-95" font-family="Helvetica,sans-Serif" font-size="10.00">_main.cpp</text>
</a>
</g>
</g>
<!-- Node16&#45;&gt;Node21 -->
<g id="edge24_Node000016_Node000021" class="edge">
<title>Node16&#45;&gt;Node21</title>
<g id="a_edge24_Node000016_Node000021"><a xlink:title=" ">
<path fill="none" stroke="#63b8ff" d="M2164.5,-171.44C2164.5,-161.31 2164.5,-150.08 2164.5,-140.32"/>
<polygon fill="#63b8ff" stroke="#63b8ff" points="2161,-171.49 2164.5,-181.49 2168,-171.49 2161,-171.49"/>
</a>
</g>
</g>
<!-- Node22 -->
<g id="Node000022" class="node">
<title>Node22</title>
<g id="a_Node000022"><a xlink:href="unit_2test__Display_2test__main_8cpp.html" target="_top" xlink:title=" ">
<polygon fill="white" stroke="#666666" points="2384.5,-140 2250.5,-140 2250.5,-88 2384.5,-88 2384.5,-140"/>
<text text-anchor="start" x="2258.5" y="-128" font-family="Helvetica,sans-Serif" font-size="10.00">/home/runner/work/EX</text>
<text text-anchor="start" x="2258.5" y="-117" font-family="Helvetica,sans-Serif" font-size="10.00">&#45;Display/EX&#45;Display/test</text>
<text text-anchor="start" x="2258.5" y="-106" font-family="Helvetica,sans-Serif" font-size="10.00">/unit/test_Display/test</text>
<text text-anchor="middle" x="2317.5" y="-95" font-family="Helvetica,sans-Serif" font-size="10.00">_main.cpp</text>
</a>
</g>
</g>
<!-- Node16&#45;&gt;Node22 -->
<g id="edge25_Node000016_Node000022" class="edge">
<title>Node16&#45;&gt;Node22</title>
<g id="a_edge25_Node000016_Node000022"><a xlink:title=" ">
<path fill="none" stroke="#63b8ff" d="M2207.94,-176.58C2228.21,-165.19 2252.31,-151.64 2272.74,-140.16"/>
<polygon fill="#63b8ff" stroke="#63b8ff" points="2206.22,-173.53 2199.22,-181.49 2209.65,-179.64 2206.22,-173.53"/>
</a>
</g>
</g>
<!-- Node23 -->
<g id="Node000023" class="node">
<title>Node23</title>
<g id="a_Node000023"><a xlink:href="unit_2test__DisplayManager_2test__main_8cpp.html" target="_top" xlink:title=" ">
<polygon fill="white" stroke="#666666" points="2548,-140 2403,-140 2403,-88 2548,-88 2548,-140"/>
<text text-anchor="start" x="2411" y="-128" font-family="Helvetica,sans-Serif" font-size="10.00">/home/runner/work/EX</text>
<text text-anchor="start" x="2411" y="-117" font-family="Helvetica,sans-Serif" font-size="10.00">&#45;Display/EX&#45;Display/test</text>
<text text-anchor="start" x="2411" y="-106" font-family="Helvetica,sans-Serif" font-size="10.00">/unit/test_DisplayManager</text>
<text text-anchor="middle" x="2475.5" y="-95" font-family="Helvetica,sans-Serif" font-size="10.00">/test_main.cpp</text>
</a>
</g>
</g>
<!-- Node16&#45;&gt;Node23 -->
<g id="edge26_Node000016_Node000023" class="edge">
<title>Node16&#45;&gt;Node23</title>
<g id="a_edge26_Node000016_Node000023"><a xlink:title=" ">
<path fill="none" stroke="#63b8ff" d="M2250.38,-178.9C2293.44,-167.62 2346.34,-153.47 2393.5,-140 2396.51,-139.14 2399.57,-138.26 2402.66,-137.35"/>
<polygon fill="#63b8ff" stroke="#63b8ff" points="2249.29,-175.57 2240.5,-181.48 2251.06,-182.34 2249.29,-175.57"/>
</a>
</g>
</g>
<!-- Node24 -->
<g id="Node000024" class="node">
<title>Node24</title>
<g id="a_Node000024"><a xlink:href="unit_2test__Infrastructure_2test__main_8cpp.html" target="_top" xlink:title=" ">
<polygon fill="white" stroke="#666666" points="2700.5,-140 2566.5,-140 2566.5,-88 2700.5,-88 2700.5,-140"/>
<text text-anchor="start" x="2574.5" y="-128" font-family="Helvetica,sans-Serif" font-size="10.00">/home/runner/work/EX</text>
<text text-anchor="start" x="2574.5" y="-117" font-family="Helvetica,sans-Serif" font-size="10.00">&#45;Display/EX&#45;Display/test</text>
<text text-anchor="start" x="2574.5" y="-106" font-family="Helvetica,sans-Serif" font-size="10.00">/unit/test_Infrastructure</text>
<text text-anchor="middle" x="2633.5" y="-95" font-family="Helvetica,sans-Serif" font-size="10.00">/test_main.cpp</text>
</a>
</g>
</g>
<!-- Node16&#45;&gt;Node24 -->
<g id="edge27_Node000016_Node000024" class="edge">
<title>Node16&#45;&gt;Node24</title>
<g id="a_edge27_Node000016_Node000024"><a xlink:title=" ">
<path fill="none" stroke="#63b8ff" d="M2254.02,-179.36C2259.92,-178.16 2265.79,-177.02 2271.5,-176 2397.6,-153.4 2432.52,-168.15 2557.5,-140 2560.35,-139.36 2563.24,-138.66 2566.14,-137.9"/>
<polygon fill="#63b8ff" stroke="#63b8ff" points="2253.14,-175.97 2244.07,-181.44 2254.57,-182.82 2253.14,-175.97"/>
</a>
</g>
</g>
<!-- Node25 -->
<g id="Node000025" class="node">
<title>Node25</title>
<g id="a_Node000025"><a xlink:href="unit_2test__Input_2test__main_8cpp.html" target="_top" xlink:title=" ">
<polygon fill="white" stroke="#666666" points="2880.5,-134.5 2718.5,-134.5 2718.5,-93.5 2880.5,-93.5 2880.5,-134.5"/>
<text text-anchor="start" x="2726.5" y="-122.5" font-family="Helvetica,sans-Serif" font-size="10.00">/home/runner/work/EX</text>
<text text-anchor="start" x="2726.5" y="-111.5" font-family="Helvetica,sans-Serif" font-size="10.00">&#45;Display/EX&#45;Display/test</text>
<text text-anchor="middle" x="2799.5" y="-100.5" font-family="Helvetica,sans-Serif" font-size="10.00">/unit/test_Input/test_main.cpp</text>
</a>
</g>
</g>
<!-- Node16&#45;&gt;Node25 -->
<g id="edge28_Node000016_Node000025" class="edge">
<title>Node16&#45;&gt;Node25</title>
<g id="a_edge28_Node000016_Node000025"><a xlink:title=" ">
<path fill="none" stroke="#63b8ff" d="M2252.19,-179.42C2258.71,-178.15 2265.19,-176.99 2271.5,-176 2464.46,-145.7 2517.21,-174.29 2709.5,-140 2717.8,-138.52 2726.44,-136.61 2734.95,-134.5"/>
<polygon fill="#63b8ff" stroke="#63b8ff" points="2251.07,-176.07 2241.96,-181.48 2252.46,-182.93 2251.07,-176.07"/>
</a>
</g>
</g>
<!-- Node26 -->
<g id="Node000026" class="node">
<title>Node26</title>
<g id="a_Node000026"><a xlink:href="unit_2test__InputManager_2test__main_8cpp.html" target="_top" xlink:title=" ">
<polygon fill="white" stroke="#666666" points="3032.5,-140 2898.5,-140 2898.5,-88 3032.5,-88 3032.5,-140"/>
<text text-anchor="start" x="2906.5" y="-128" font-family="Helvetica,sans-Serif" font-size="10.00">/home/runner/work/EX</text>
<text text-anchor="start" x="2906.5" y="-117" font-family="Helvetica,sans-Serif" font-size="10.00">&#45;Display/EX&#45;Display/test</text>
<text text-anchor="start" x="2906.5" y="-106" font-family="Helvetica,sans-Serif" font-size="10.00">/unit/test_InputManager</text>
<text text-anchor="middle" x="2965.5" y="-95" font-family="Helvetica,sans-Serif" font-size="10.00">/test_main.cpp</text>
</a>
</g>
</g>
<!-- Node16&#45;&gt;Node26 -->
<g id="edge29_Node000016_Node000026" class="edge">
<title>Node16&#45;&gt;Node26</title>
<g id="a_edge29_Node000016_Node000026"><a xlink:title=" ">
<path fill="none" stroke="#63b8ff" d="M2251.11,-179.44C2257.98,-178.14 2264.84,-176.96 2271.5,-176 2543.79,-136.56 2619.22,-191.42 2889.5,-140 2892.37,-139.45 2895.27,-138.83 2898.19,-138.14"/>
<polygon fill="#63b8ff" stroke="#63b8ff" points="2250.18,-176.06 2241.06,-181.44 2251.55,-182.93 2250.18,-176.06"/>
</a>
</g>
</g>
<!-- Node27 -->
<g id="Node000027" class="node">
<title>Node27</title>
<g id="a_Node000027"><a xlink:href="unit_2test__Screen_2test__main_8cpp.html" target="_top" xlink:title=" ">
<polygon fill="white" stroke="#666666" points="3220.5,-134.5 3050.5,-134.5 3050.5,-93.5 3220.5,-93.5 3220.5,-134.5"/>
<text text-anchor="start" x="3058.5" y="-122.5" font-family="Helvetica,sans-Serif" font-size="10.00">/home/runner/work/EX</text>
<text text-anchor="start" x="3058.5" y="-111.5" font-family="Helvetica,sans-Serif" font-size="10.00">&#45;Display/EX&#45;Display/test</text>
<text text-anchor="middle" x="3135.5" y="-100.5" font-family="Helvetica,sans-Serif" font-size="10.00">/unit/test_Screen/test_main.cpp</text>
</a>
</g>
</g>
<!-- Node16&#45;&gt;Node27 -->
<g id="edge30_Node000016_Node000027" class="edge">
<title>Node16&#45;&gt;Node27</title>
<g id="a_edge30_Node000016_Node000027"><a xlink:title=" ">
<path fill="none" stroke="#63b8ff" d="M2250.71,-179.43C2257.71,-178.12 2264.71,-176.94 2271.5,-176 2610.83,-128.83 2702.92,-192.32 3041.5,-140 3050.51,-138.61 3059.9,-136.69 3069.12,-134.53"/>
<polygon fill="#63b8ff" stroke="#63b8ff" points="2249.59,-176.09 2240.46,-181.46 2250.95,-182.95 2249.59,-176.09"/>
</a>
</g>
</g>
<!-- Node28 -->
<g id="Node000028" class="node">
<title>Node28</title>
<g id="a_Node000028"><a xlink:href="unit_2test__ScreenManager_2test__main_8cpp.html" target="_top" xlink:title=" ">
<polygon fill="white" stroke="#666666" points="3380,-140 3239,-140 3239,-88 3380,-88 3380,-140"/>
<text text-anchor="start" x="3247" y="-128" font-family="Helvetica,sans-Serif" font-size="10.00">/home/runner/work/EX</text>
<text text-anchor="start" x="3247" y="-117" font-family="Helvetica,sans-Serif" font-size="10.00">&#45;Display/EX&#45;Display/test</text>
<text text-anchor="start" x="3247" y="-106" font-family="Helvetica,sans-Serif" font-size="10.00">/unit/test_ScreenManager</text>
<text text-anchor="middle" x="3309.5" y="-95" font-family="Helvetica,sans-Serif" font-size="10.00">/test_main.cpp</text>
</a>
</g>
</g>
<!-- Node16&#45;&gt;Node28 -->
<g id="edge31_Node000016_Node000028" class="edge">
<title>Node16&#45;&gt;Node28</title>
<g id="a_edge31_Node000016_Node000028"><a xlink:title=" ">
<path fill="none" stroke="#63b8ff" d="M2249.81,-179.53C2257.11,-178.16 2264.42,-176.95 2271.5,-176 2693.78,-119.27 2809.58,-212.18 3229.5,-140 3232.51,-139.48 3235.57,-138.88 3238.64,-138.21"/>
<polygon fill="#63b8ff" stroke="#63b8ff" points="2249,-176.12 2239.86,-181.49 2250.35,-182.99 2249,-176.12"/>
</a>
</g>
</g>
</g>
</svg>
