<?xml version="1.0" encoding="UTF-8" standalone="no"?>
<!DOCTYPE svg PUBLIC "-//W3C//DTD SVG 1.1//EN"
 "http://www.w3.org/Graphics/SVG/1.1/DTD/svg11.dtd">
<!-- Generated by graphviz version 2.43.0 (0)
 -->
<!-- Title: /home/runner/work/EX&#45;Display/EX&#45;Display/DisplayManager.h Pages: 1 -->
<!--zoomable 317 -->
<svg id="main" version="1.1" xmlns="http://www.w3.org/2000/svg" xmlns:xlink="http://www.w3.org/1999/xlink" xml:space="preserve" onload="init(evt)">
<style type="text/css"><![CDATA[
.edge:hover path { stroke: red; }
.edge:hover polygon { stroke: red; fill: red; }
]]></style>
<script type="text/javascript"><![CDATA[
var edges = document.getElementsByTagName('g');
if (edges && edges.length) {
  for (var i=0;i<edges.length;i++) {
    if (edges[i].id.substr(0,4)=='edge') {
      edges[i].setAttribute('class','edge');
    }
  }
}
]]></script>
        <defs>
                <circle id="rim" cx="0" cy="0" r="7"/>
                <circle id="rim2" cx="0" cy="0" r="3.5"/>
                <g id="zoomPlus">
                        <use xlink:href="#rim" fill="#404040">
                                <set attributeName="fill" to="#808080" begin="zoomplus.mouseover" end="zoomplus.mouseout"/>
                        </use>
                        <path d="M-4,0h8M0,-4v8" fill="none" stroke="white" stroke-width="1.5" pointer-events="none"/>
                </g>
                <g id="zoomMin">
                        <use xlink:href="#rim" fill="#404040">
                                <set attributeName="fill" to="#808080" begin="zoomminus.mouseover" end="zoomminus.mouseout"/>
                        </use>
                        <path d="M-4,0h8" fill="none" stroke="white" stroke-width="1.5" pointer-events="none"/>
                </g>
                <g id="dirArrow">
                        <path fill="none" stroke="white" stroke-width="1.5" d="M0,-3.0v7 M-2.5,-0.5L0,-3.0L2.5,-0.5"/>
                </g>
               <g id="resetDef">
                       <use xlink:href="#rim2" fill="#404040">
                               <set attributeName="fill" to="#808080" begin="reset.mouseover" end="reset.mouseout"/>
                       </use>
               </g>
        </defs>

<script type="text/javascript">
var viewWidth = 3388;
var viewHeight = 317;
var sectionId = 'dynsection-1';
</script>
<script xlink:href="svgpan.js"/>
<svg id="graph" class="graph">
<g id="viewport">
<title>/home/runner/work/EX&#45;Display/EX&#45;Display/DisplayManager.h</title>
<polygon fill="white" stroke="transparent" points="-4,4 -4,-313 3384,-313 3384,4 -4,4"/>
<!-- Node1 -->
<g id="node1" class="node">
<title>Node1</title>
<g id="a_node1"><a xlink:title=" ">
<polygon fill="#bfbfbf" stroke="black" points="1126.5,-267.5 1126.5,-308.5 1278.5,-308.5 1278.5,-267.5 1126.5,-267.5"/>
<text text-anchor="start" x="1134.5" y="-296.5" font-family="Helvetica,sans-Serif" font-size="10.00">/home/runner/work/EX</text>
<text text-anchor="start" x="1134.5" y="-285.5" font-family="Helvetica,sans-Serif" font-size="10.00">&#45;Display/EX&#45;Display/Display</text>
<text text-anchor="middle" x="1202.5" y="-274.5" font-family="Helvetica,sans-Serif" font-size="10.00">Manager.h</text>
</a>
</g>
</g>
<!-- Node2 -->
<g id="node2" class="node">
<title>Node2</title>
<g id="a_node2"><a xlink:href="Configurator_8h.html" target="_top" xlink:title=" ">
<polygon fill="white" stroke="black" points="271.5,-100.5 271.5,-130.5 455.5,-130.5 455.5,-100.5 271.5,-100.5"/>
<text text-anchor="start" x="279.5" y="-118.5" font-family="Helvetica,sans-Serif" font-size="10.00">/home/runner/work/EX</text>
<text text-anchor="middle" x="363.5" y="-107.5" font-family="Helvetica,sans-Serif" font-size="10.00">&#45;Display/EX&#45;Display/Configurator.h</text>
</a>
</g>
</g>
<!-- Node1&#45;&gt;Node2 -->
<g id="edge1" class="edge">
<title>Node1&#45;&gt;Node2</title>
<path fill="none" stroke="midnightblue" d="M1116.01,-282.19C1018.34,-275.57 855.1,-260.89 717.5,-231 598.2,-205.09 462.1,-155.03 399.04,-130.6"/>
<polygon fill="midnightblue" stroke="midnightblue" points="1115.92,-285.69 1126.13,-282.86 1116.38,-278.71 1115.92,-285.69"/>
</g>
<!-- Node6 -->
<g id="node6" class="node">
<title>Node6</title>
<g id="a_node6"><a xlink:href="Controller_8h.html" target="_top" xlink:title=" ">
<polygon fill="white" stroke="black" points="884.5,-189.5 884.5,-219.5 1056.5,-219.5 1056.5,-189.5 884.5,-189.5"/>
<text text-anchor="start" x="892.5" y="-207.5" font-family="Helvetica,sans-Serif" font-size="10.00">/home/runner/work/EX</text>
<text text-anchor="middle" x="970.5" y="-196.5" font-family="Helvetica,sans-Serif" font-size="10.00">&#45;Display/EX&#45;Display/Controller.h</text>
</a>
</g>
</g>
<!-- Node1&#45;&gt;Node6 -->
<g id="edge5" class="edge">
<title>Node1&#45;&gt;Node6</title>
<path fill="none" stroke="midnightblue" d="M1137.33,-264.11C1096.51,-249.77 1045.22,-231.75 1010.36,-219.5"/>
<polygon fill="midnightblue" stroke="midnightblue" points="1136.34,-267.47 1146.93,-267.48 1138.66,-260.86 1136.34,-267.47"/>
</g>
<!-- Node8 -->
<g id="node8" class="node">
<title>Node8</title>
<g id="a_node8"><a xlink:href="test__ControllerDisplayUpdate_8cpp.html" target="_top" xlink:title=" ">
<polygon fill="white" stroke="black" points="473.5,-89.5 473.5,-141.5 657.5,-141.5 657.5,-89.5 473.5,-89.5"/>
<text text-anchor="start" x="481.5" y="-129.5" font-family="Helvetica,sans-Serif" font-size="10.00">/home/runner/work/EX</text>
<text text-anchor="start" x="481.5" y="-118.5" font-family="Helvetica,sans-Serif" font-size="10.00">&#45;Display/EX&#45;Display/test</text>
<text text-anchor="start" x="481.5" y="-107.5" font-family="Helvetica,sans-Serif" font-size="10.00">/integration/test_Controller</text>
<text text-anchor="middle" x="565.5" y="-96.5" font-family="Helvetica,sans-Serif" font-size="10.00">/test_ControllerDisplayUpdate.cpp</text>
</a>
</g>
</g>
<!-- Node1&#45;&gt;Node8 -->
<g id="edge16" class="edge">
<title>Node1&#45;&gt;Node8</title>
<path fill="none" stroke="midnightblue" d="M1116.3,-276.65C1049.82,-267.62 955.94,-252.55 875.5,-231 785.44,-206.88 684.81,-167.24 623.31,-141.51"/>
<polygon fill="midnightblue" stroke="midnightblue" points="1115.94,-280.14 1126.32,-278 1116.87,-273.2 1115.94,-280.14"/>
</g>
<!-- Node9 -->
<g id="node9" class="node">
<title>Node9</title>
<g id="a_node9"><a xlink:href="test__ControllerInputAction_8cpp.html" target="_top" xlink:title=" ">
<polygon fill="white" stroke="black" points="1081,-89.5 1081,-141.5 1248,-141.5 1248,-89.5 1081,-89.5"/>
<text text-anchor="start" x="1089" y="-129.5" font-family="Helvetica,sans-Serif" font-size="10.00">/home/runner/work/EX</text>
<text text-anchor="start" x="1089" y="-118.5" font-family="Helvetica,sans-Serif" font-size="10.00">&#45;Display/EX&#45;Display/test</text>
<text text-anchor="start" x="1089" y="-107.5" font-family="Helvetica,sans-Serif" font-size="10.00">/integration/test_Controller</text>
<text text-anchor="middle" x="1164.5" y="-96.5" font-family="Helvetica,sans-Serif" font-size="10.00">/test_ControllerInputAction.cpp</text>
</a>
</g>
</g>
<!-- Node1&#45;&gt;Node9 -->
<g id="edge17" class="edge">
<title>Node1&#45;&gt;Node9</title>
<path fill="none" stroke="midnightblue" d="M1194.89,-257.45C1192.75,-248.93 1190.48,-239.61 1188.5,-231 1181.45,-200.32 1174.14,-164.82 1169.47,-141.58"/>
<polygon fill="midnightblue" stroke="midnightblue" points="1191.55,-258.51 1197.39,-267.35 1198.33,-256.79 1191.55,-258.51"/>
</g>
<!-- Node11 -->
<g id="node11" class="node">
<title>Node11</title>
<g id="a_node11"><a xlink:href="test__Controller_8cpp.html" target="_top" xlink:title=" ">
<polygon fill="white" stroke="black" points="1266,-89.5 1266,-141.5 1401,-141.5 1401,-89.5 1266,-89.5"/>
<text text-anchor="start" x="1274" y="-129.5" font-family="Helvetica,sans-Serif" font-size="10.00">/home/runner/work/EX</text>
<text text-anchor="start" x="1274" y="-118.5" font-family="Helvetica,sans-Serif" font-size="10.00">&#45;Display/EX&#45;Display/test</text>
<text text-anchor="start" x="1274" y="-107.5" font-family="Helvetica,sans-Serif" font-size="10.00">/unit/test_Controller/test</text>
<text text-anchor="middle" x="1333.5" y="-96.5" font-family="Helvetica,sans-Serif" font-size="10.00">_Controller.cpp</text>
</a>
</g>
</g>
<!-- Node1&#45;&gt;Node11 -->
<g id="edge32" class="edge">
<title>Node1&#45;&gt;Node11</title>
<path fill="none" stroke="midnightblue" d="M1200.97,-257.24C1201.23,-233.69 1205.03,-201.04 1221.5,-178 1232.66,-162.39 1249.06,-150.31 1265.9,-141.15"/>
<polygon fill="midnightblue" stroke="midnightblue" points="1197.47,-257.39 1201.06,-267.36 1204.47,-257.32 1197.47,-257.39"/>
</g>
<!-- Node12 -->
<g id="node12" class="node">
<title>Node12</title>
<g id="a_node12"><a xlink:href="CreateUserDevices_8h.html" target="_top" xlink:title=" ">
<polygon fill="white" stroke="black" points="127.5,-184 127.5,-225 297.5,-225 297.5,-184 127.5,-184"/>
<text text-anchor="start" x="135.5" y="-213" font-family="Helvetica,sans-Serif" font-size="10.00">/home/runner/work/EX</text>
<text text-anchor="start" x="135.5" y="-202" font-family="Helvetica,sans-Serif" font-size="10.00">&#45;Display/EX&#45;Display/CreateUser</text>
<text text-anchor="middle" x="212.5" y="-191" font-family="Helvetica,sans-Serif" font-size="10.00">Devices.h</text>
</a>
</g>
</g>
<!-- Node1&#45;&gt;Node12 -->
<g id="edge12" class="edge">
<title>Node1&#45;&gt;Node12</title>
<path fill="none" stroke="midnightblue" d="M1116.29,-281.19C978.35,-271.72 699.5,-251.93 463.5,-231 408.2,-226.1 346.13,-219.8 297.55,-214.69"/>
<polygon fill="midnightblue" stroke="midnightblue" points="1116.17,-284.69 1126.38,-281.88 1116.65,-277.7 1116.17,-284.69"/>
</g>
<!-- Node14 -->
<g id="node14" class="node">
<title>Node14</title>
<g id="a_node14"><a xlink:href="DisplayManager_8cpp.html" target="_top" xlink:title=" ">
<polygon fill="white" stroke="black" points="1230.5,-184 1230.5,-225 1382.5,-225 1382.5,-184 1230.5,-184"/>
<text text-anchor="start" x="1238.5" y="-213" font-family="Helvetica,sans-Serif" font-size="10.00">/home/runner/work/EX</text>
<text text-anchor="start" x="1238.5" y="-202" font-family="Helvetica,sans-Serif" font-size="10.00">&#45;Display/EX&#45;Display/Display</text>
<text text-anchor="middle" x="1306.5" y="-191" font-family="Helvetica,sans-Serif" font-size="10.00">Manager.cpp</text>
</a>
</g>
</g>
<!-- Node1&#45;&gt;Node14 -->
<g id="edge15" class="edge">
<title>Node1&#45;&gt;Node14</title>
<path fill="none" stroke="midnightblue" d="M1235.4,-261.22C1250.29,-249.55 1267.61,-235.97 1281.43,-225.14"/>
<polygon fill="midnightblue" stroke="midnightblue" points="1233.12,-258.56 1227.41,-267.48 1237.44,-264.07 1233.12,-258.56"/>
</g>
<!-- Node15 -->
<g id="node15" class="node">
<title>Node15</title>
<g id="a_node15"><a xlink:href="test__DisplayScreens_8cpp.html" target="_top" xlink:title=" ">
<polygon fill="white" stroke="black" points="1401,-178.5 1401,-230.5 1540,-230.5 1540,-178.5 1401,-178.5"/>
<text text-anchor="start" x="1409" y="-218.5" font-family="Helvetica,sans-Serif" font-size="10.00">/home/runner/work/EX</text>
<text text-anchor="start" x="1409" y="-207.5" font-family="Helvetica,sans-Serif" font-size="10.00">&#45;Display/EX&#45;Display/test</text>
<text text-anchor="start" x="1409" y="-196.5" font-family="Helvetica,sans-Serif" font-size="10.00">/integration/test_Display</text>
<text text-anchor="middle" x="1470.5" y="-185.5" font-family="Helvetica,sans-Serif" font-size="10.00">/test_DisplayScreens.cpp</text>
</a>
</g>
</g>
<!-- Node1&#45;&gt;Node15 -->
<g id="edge18" class="edge">
<title>Node1&#45;&gt;Node15</title>
<path fill="none" stroke="midnightblue" d="M1279.92,-264.52C1314.17,-254.46 1354.9,-242.33 1391.5,-231 1394.53,-230.06 1397.62,-229.1 1400.74,-228.12"/>
<polygon fill="midnightblue" stroke="midnightblue" points="1278.58,-261.26 1269.97,-267.44 1280.55,-267.98 1278.58,-261.26"/>
</g>
<!-- Node16 -->
<g id="node16" class="node">
<title>Node16</title>
<g id="a_node16"><a xlink:href="MockDisplayInputMethods_8h.html" target="_top" xlink:title=" ">
<polygon fill="white" stroke="black" points="2067.5,-184 2067.5,-225 2261.5,-225 2261.5,-184 2067.5,-184"/>
<text text-anchor="start" x="2075.5" y="-213" font-family="Helvetica,sans-Serif" font-size="10.00">/home/runner/work/EX</text>
<text text-anchor="start" x="2075.5" y="-202" font-family="Helvetica,sans-Serif" font-size="10.00">&#45;Display/EX&#45;Display/test</text>
<text text-anchor="middle" x="2164.5" y="-191" font-family="Helvetica,sans-Serif" font-size="10.00">/mocks/MockDisplayInputMethods.h</text>
</a>
</g>
</g>
<!-- Node1&#45;&gt;Node16 -->
<g id="edge19" class="edge">
<title>Node1&#45;&gt;Node16</title>
<path fill="none" stroke="midnightblue" d="M1288.97,-279.67C1468.27,-264.48 1879.48,-229.65 2067.49,-213.72"/>
<polygon fill="midnightblue" stroke="midnightblue" points="1288.46,-276.2 1278.79,-280.54 1289.05,-283.18 1288.46,-276.2"/>
</g>
<!-- Node29 -->
<g id="node29" class="node">
<title>Node29</title>
<g id="a_node29"><a xlink:href="test__DisplayManager_8cpp.html" target="_top" xlink:title=" ">
<polygon fill="white" stroke="black" points="2280,-178.5 2280,-230.5 2425,-230.5 2425,-178.5 2280,-178.5"/>
<text text-anchor="start" x="2288" y="-218.5" font-family="Helvetica,sans-Serif" font-size="10.00">/home/runner/work/EX</text>
<text text-anchor="start" x="2288" y="-207.5" font-family="Helvetica,sans-Serif" font-size="10.00">&#45;Display/EX&#45;Display/test</text>
<text text-anchor="start" x="2288" y="-196.5" font-family="Helvetica,sans-Serif" font-size="10.00">/unit/test_DisplayManager</text>
<text text-anchor="middle" x="2352.5" y="-185.5" font-family="Helvetica,sans-Serif" font-size="10.00">/test_DisplayManager.cpp</text>
</a>
</g>
</g>
<!-- Node1&#45;&gt;Node29 -->
<g id="edge33" class="edge">
<title>Node1&#45;&gt;Node29</title>
<path fill="none" stroke="midnightblue" d="M1288.9,-285.24C1508.27,-280.33 2082.71,-264.58 2270.5,-231 2273.58,-230.45 2276.71,-229.82 2279.86,-229.12"/>
<polygon fill="midnightblue" stroke="midnightblue" points="1288.64,-281.75 1278.72,-285.47 1288.8,-288.74 1288.64,-281.75"/>
</g>
<!-- Node30 -->
<g id="node30" class="node">
<title>Node30</title>
<g id="a_node30"><a xlink:href="test__DisplayManualSPISwitching_8cpp.html" target="_top" xlink:title=" ">
<polygon fill="white" stroke="black" points="2443,-178.5 2443,-230.5 2642,-230.5 2642,-178.5 2443,-178.5"/>
<text text-anchor="start" x="2451" y="-218.5" font-family="Helvetica,sans-Serif" font-size="10.00">/home/runner/work/EX</text>
<text text-anchor="start" x="2451" y="-207.5" font-family="Helvetica,sans-Serif" font-size="10.00">&#45;Display/EX&#45;Display/test</text>
<text text-anchor="start" x="2451" y="-196.5" font-family="Helvetica,sans-Serif" font-size="10.00">/unit/test_DisplayManager</text>
<text text-anchor="middle" x="2542.5" y="-185.5" font-family="Helvetica,sans-Serif" font-size="10.00">/test_DisplayManualSPISwitching.cpp</text>
</a>
</g>
</g>
<!-- Node1&#45;&gt;Node30 -->
<g id="edge34" class="edge">
<title>Node1&#45;&gt;Node30</title>
<path fill="none" stroke="midnightblue" d="M1289,-285.17C1531.19,-279.7 2212.77,-261.94 2434.5,-231 2437.27,-230.61 2440.07,-230.19 2442.89,-229.73"/>
<polygon fill="midnightblue" stroke="midnightblue" points="1288.76,-281.67 1278.84,-285.39 1288.92,-288.67 1288.76,-281.67"/>
</g>
<!-- Node3 -->
<g id="node3" class="node">
<title>Node3</title>
<g id="a_node3"><a xlink:href="Configurator_8cpp.html" target="_top" xlink:title=" ">
<polygon fill="white" stroke="black" points="99,-11.5 99,-41.5 294,-41.5 294,-11.5 99,-11.5"/>
<text text-anchor="start" x="107" y="-29.5" font-family="Helvetica,sans-Serif" font-size="10.00">/home/runner/work/EX</text>
<text text-anchor="middle" x="196.5" y="-18.5" font-family="Helvetica,sans-Serif" font-size="10.00">&#45;Display/EX&#45;Display/Configurator.cpp</text>
</a>
</g>
</g>
<!-- Node2&#45;&gt;Node3 -->
<g id="edge2" class="edge">
<title>Node2&#45;&gt;Node3</title>
<path fill="none" stroke="midnightblue" d="M327.05,-95.51C295.81,-79.24 251.53,-56.17 223.41,-41.52"/>
<polygon fill="midnightblue" stroke="midnightblue" points="325.81,-98.81 336.3,-100.33 329.05,-92.6 325.81,-98.81"/>
</g>
<!-- Node4 -->
<g id="node4" class="node">
<title>Node4</title>
<g id="a_node4"><a xlink:href="EX-Display_8ino.html" target="_top" xlink:title=" ">
<polygon fill="white" stroke="black" points="464.5,-6 464.5,-47 592.5,-47 592.5,-6 464.5,-6"/>
<text text-anchor="start" x="472.5" y="-35" font-family="Helvetica,sans-Serif" font-size="10.00">/home/runner/work/EX</text>
<text text-anchor="start" x="472.5" y="-24" font-family="Helvetica,sans-Serif" font-size="10.00">&#45;Display/EX&#45;Display/EX</text>
<text text-anchor="middle" x="528.5" y="-13" font-family="Helvetica,sans-Serif" font-size="10.00">&#45;Display.ino</text>
</a>
</g>
</g>
<!-- Node2&#45;&gt;Node4 -->
<g id="edge3" class="edge">
<title>Node2&#45;&gt;Node4</title>
<path fill="none" stroke="midnightblue" d="M399.56,-95.49C426.78,-81.13 464.01,-61.51 491.47,-47.03"/>
<polygon fill="midnightblue" stroke="midnightblue" points="397.59,-92.57 390.38,-100.33 400.86,-98.76 397.59,-92.57"/>
</g>
<!-- Node5 -->
<g id="node5" class="node">
<title>Node5</title>
<g id="a_node5"><a xlink:href="test__Configurator_8cpp.html" target="_top" xlink:title=" ">
<polygon fill="white" stroke="black" points="312.5,-0.5 312.5,-52.5 446.5,-52.5 446.5,-0.5 312.5,-0.5"/>
<text text-anchor="start" x="320.5" y="-40.5" font-family="Helvetica,sans-Serif" font-size="10.00">/home/runner/work/EX</text>
<text text-anchor="start" x="320.5" y="-29.5" font-family="Helvetica,sans-Serif" font-size="10.00">&#45;Display/EX&#45;Display/test</text>
<text text-anchor="start" x="320.5" y="-18.5" font-family="Helvetica,sans-Serif" font-size="10.00">/unit/test_Configurator</text>
<text text-anchor="middle" x="379.5" y="-7.5" font-family="Helvetica,sans-Serif" font-size="10.00">/test_Configurator.cpp</text>
</a>
</g>
</g>
<!-- Node2&#45;&gt;Node5 -->
<g id="edge4" class="edge">
<title>Node2&#45;&gt;Node5</title>
<path fill="none" stroke="midnightblue" d="M367.97,-90.2C370.11,-78.54 372.68,-64.58 374.85,-52.8"/>
<polygon fill="midnightblue" stroke="midnightblue" points="364.51,-89.67 366.14,-100.13 371.39,-90.93 364.51,-89.67"/>
</g>
<!-- Node6&#45;&gt;Node2 -->
<g id="edge6" class="edge">
<title>Node6&#45;&gt;Node2</title>
<path fill="none" stroke="midnightblue" d="M874.5,-195.47C772.32,-186.08 606.16,-168.38 464.5,-142 447.88,-138.9 429.92,-134.67 413.83,-130.54"/>
<polygon fill="midnightblue" stroke="midnightblue" points="874.22,-198.96 884.5,-196.38 874.85,-191.99 874.22,-198.96"/>
</g>
<!-- Node7 -->
<g id="node7" class="node">
<title>Node7</title>
<g id="a_node7"><a xlink:href="Controller_8cpp.html" target="_top" xlink:title=" ">
<polygon fill="white" stroke="black" points="676,-100.5 676,-130.5 859,-130.5 859,-100.5 676,-100.5"/>
<text text-anchor="start" x="684" y="-118.5" font-family="Helvetica,sans-Serif" font-size="10.00">/home/runner/work/EX</text>
<text text-anchor="middle" x="767.5" y="-107.5" font-family="Helvetica,sans-Serif" font-size="10.00">&#45;Display/EX&#45;Display/Controller.cpp</text>
</a>
</g>
</g>
<!-- Node6&#45;&gt;Node7 -->
<g id="edge7" class="edge">
<title>Node6&#45;&gt;Node7</title>
<path fill="none" stroke="midnightblue" d="M928.15,-185.35C890.09,-169.04 834.98,-145.42 800.22,-130.52"/>
<polygon fill="midnightblue" stroke="midnightblue" points="926.86,-188.61 937.43,-189.33 929.62,-182.17 926.86,-188.61"/>
</g>
<!-- Node6&#45;&gt;Node8 -->
<g id="edge8" class="edge">
<title>Node6&#45;&gt;Node8</title>
<path fill="none" stroke="midnightblue" d="M885.97,-187.52C824.84,-175.69 740.36,-158.79 666.5,-142 663.59,-141.34 660.64,-140.66 657.65,-139.96"/>
<polygon fill="midnightblue" stroke="midnightblue" points="885.47,-190.99 895.95,-189.45 886.8,-184.12 885.47,-190.99"/>
</g>
<!-- Node6&#45;&gt;Node9 -->
<g id="edge9" class="edge">
<title>Node6&#45;&gt;Node9</title>
<path fill="none" stroke="midnightblue" d="M1011.29,-185.21C1039.55,-172.53 1077.53,-155.5 1108.61,-141.56"/>
<polygon fill="midnightblue" stroke="midnightblue" points="1009.79,-182.04 1002.1,-189.33 1012.66,-188.43 1009.79,-182.04"/>
</g>
<!-- Node10 -->
<g id="node10" class="node">
<title>Node10</title>
<g id="a_node10"><a xlink:href="test__ControllerScreenCreation_8cpp.html" target="_top" xlink:title=" ">
<polygon fill="white" stroke="black" points="877.5,-89.5 877.5,-141.5 1063.5,-141.5 1063.5,-89.5 877.5,-89.5"/>
<text text-anchor="start" x="885.5" y="-129.5" font-family="Helvetica,sans-Serif" font-size="10.00">/home/runner/work/EX</text>
<text text-anchor="start" x="885.5" y="-118.5" font-family="Helvetica,sans-Serif" font-size="10.00">&#45;Display/EX&#45;Display/test</text>
<text text-anchor="start" x="885.5" y="-107.5" font-family="Helvetica,sans-Serif" font-size="10.00">/integration/test_Controller</text>
<text text-anchor="middle" x="970.5" y="-96.5" font-family="Helvetica,sans-Serif" font-size="10.00">/test_ControllerScreenCreation.cpp</text>
</a>
</g>
</g>
<!-- Node6&#45;&gt;Node10 -->
<g id="edge10" class="edge">
<title>Node6&#45;&gt;Node10</title>
<path fill="none" stroke="midnightblue" d="M970.5,-178.85C970.5,-167.26 970.5,-153.46 970.5,-141.8"/>
<polygon fill="midnightblue" stroke="midnightblue" points="967,-179.13 970.5,-189.13 974,-179.13 967,-179.13"/>
</g>
<!-- Node6&#45;&gt;Node11 -->
<g id="edge11" class="edge">
<title>Node6&#45;&gt;Node11</title>
<path fill="none" stroke="midnightblue" d="M1056.67,-187.49C1113.74,-176.27 1190.05,-160.09 1256.5,-142 1259.49,-141.19 1262.53,-140.32 1265.6,-139.43"/>
<polygon fill="midnightblue" stroke="midnightblue" points="1055.75,-184.11 1046.61,-189.46 1057.09,-190.98 1055.75,-184.11"/>
</g>
<!-- Node12&#45;&gt;Node3 -->
<g id="edge13" class="edge">
<title>Node12&#45;&gt;Node3</title>
<path fill="none" stroke="midnightblue" d="M209.81,-173.94C206.32,-135.56 200.38,-70.13 197.78,-41.55"/>
<polygon fill="midnightblue" stroke="midnightblue" points="206.34,-174.35 210.73,-183.99 213.31,-173.72 206.34,-174.35"/>
</g>
<!-- Node13 -->
<g id="node13" class="node">
<title>Node13</title>
<g id="a_node13"><a xlink:href="test__CompilerCreation_8cpp.html" target="_top" xlink:title=" ">
<polygon fill="white" stroke="black" points="0,-89.5 0,-141.5 185,-141.5 185,-89.5 0,-89.5"/>
<text text-anchor="start" x="8" y="-129.5" font-family="Helvetica,sans-Serif" font-size="10.00">/home/runner/work/EX</text>
<text text-anchor="start" x="8" y="-118.5" font-family="Helvetica,sans-Serif" font-size="10.00">&#45;Display/EX&#45;Display/test</text>
<text text-anchor="start" x="8" y="-107.5" font-family="Helvetica,sans-Serif" font-size="10.00">/integration/test_CompilerCreation</text>
<text text-anchor="middle" x="92.5" y="-96.5" font-family="Helvetica,sans-Serif" font-size="10.00">/test_CompilerCreation.cpp</text>
</a>
</g>
</g>
<!-- Node12&#45;&gt;Node13 -->
<g id="edge14" class="edge">
<title>Node12&#45;&gt;Node13</title>
<path fill="none" stroke="midnightblue" d="M177.12,-177.85C161.33,-166.4 142.79,-152.96 127.1,-141.58"/>
<polygon fill="midnightblue" stroke="midnightblue" points="175.42,-180.94 185.57,-183.98 179.53,-175.27 175.42,-180.94"/>
</g>
<!-- Node17 -->
<g id="node17" class="node">
<title>Node17</title>
<g id="a_node17"><a xlink:href="integration_2test__Controller_2test__main_8cpp.html" target="_top" xlink:title=" ">
<polygon fill="white" stroke="black" points="1419.5,-89.5 1419.5,-141.5 1567.5,-141.5 1567.5,-89.5 1419.5,-89.5"/>
<text text-anchor="start" x="1427.5" y="-129.5" font-family="Helvetica,sans-Serif" font-size="10.00">/home/runner/work/EX</text>
<text text-anchor="start" x="1427.5" y="-118.5" font-family="Helvetica,sans-Serif" font-size="10.00">&#45;Display/EX&#45;Display/test</text>
<text text-anchor="start" x="1427.5" y="-107.5" font-family="Helvetica,sans-Serif" font-size="10.00">/integration/test_Controller</text>
<text text-anchor="middle" x="1493.5" y="-96.5" font-family="Helvetica,sans-Serif" font-size="10.00">/test_main.cpp</text>
</a>
</g>
</g>
<!-- Node16&#45;&gt;Node17 -->
<g id="edge20" class="edge">
<title>Node16&#45;&gt;Node17</title>
<path fill="none" stroke="midnightblue" d="M2057.21,-198.53C1938.61,-191.59 1742.38,-175.82 1576.5,-142 1573.55,-141.4 1570.55,-140.73 1567.53,-140.02"/>
<polygon fill="midnightblue" stroke="midnightblue" points="2057.19,-202.04 2067.38,-199.12 2057.59,-195.05 2057.19,-202.04"/>
</g>
<!-- Node18 -->
<g id="node18" class="node">
<title>Node18</title>
<g id="a_node18"><a xlink:href="integration_2test__Display_2test__main_8cpp.html" target="_top" xlink:title=" ">
<polygon fill="white" stroke="black" points="1586,-89.5 1586,-141.5 1723,-141.5 1723,-89.5 1586,-89.5"/>
<text text-anchor="start" x="1594" y="-129.5" font-family="Helvetica,sans-Serif" font-size="10.00">/home/runner/work/EX</text>
<text text-anchor="start" x="1594" y="-118.5" font-family="Helvetica,sans-Serif" font-size="10.00">&#45;Display/EX&#45;Display/test</text>
<text text-anchor="start" x="1594" y="-107.5" font-family="Helvetica,sans-Serif" font-size="10.00">/integration/test_Display</text>
<text text-anchor="middle" x="1654.5" y="-96.5" font-family="Helvetica,sans-Serif" font-size="10.00">/test_main.cpp</text>
</a>
</g>
</g>
<!-- Node16&#45;&gt;Node18 -->
<g id="edge21" class="edge">
<title>Node16&#45;&gt;Node18</title>
<path fill="none" stroke="midnightblue" d="M2057.25,-193.66C1969.02,-184.28 1841.11,-167.72 1731.5,-142 1728.76,-141.36 1725.97,-140.66 1723.17,-139.92"/>
<polygon fill="midnightblue" stroke="midnightblue" points="2056.96,-197.15 2067.27,-194.71 2057.69,-190.18 2056.96,-197.15"/>
</g>
<!-- Node19 -->
<g id="node19" class="node">
<title>Node19</title>
<g id="a_node19"><a xlink:href="integration_2test__InteractiveLogger_2test__main_8cpp.html" target="_top" xlink:title=" ">
<polygon fill="white" stroke="black" points="1741,-89.5 1741,-141.5 1926,-141.5 1926,-89.5 1741,-89.5"/>
<text text-anchor="start" x="1749" y="-129.5" font-family="Helvetica,sans-Serif" font-size="10.00">/home/runner/work/EX</text>
<text text-anchor="start" x="1749" y="-118.5" font-family="Helvetica,sans-Serif" font-size="10.00">&#45;Display/EX&#45;Display/test</text>
<text text-anchor="start" x="1749" y="-107.5" font-family="Helvetica,sans-Serif" font-size="10.00">/integration/test_InteractiveLogger</text>
<text text-anchor="middle" x="1833.5" y="-96.5" font-family="Helvetica,sans-Serif" font-size="10.00">/test_main.cpp</text>
</a>
</g>
</g>
<!-- Node16&#45;&gt;Node19 -->
<g id="edge22" class="edge">
<title>Node16&#45;&gt;Node19</title>
<path fill="none" stroke="midnightblue" d="M2080.36,-181.38C2033.3,-169.02 1974.55,-153.57 1926.18,-140.86"/>
<polygon fill="midnightblue" stroke="midnightblue" points="2079.66,-184.82 2090.22,-183.98 2081.44,-178.05 2079.66,-184.82"/>
</g>
<!-- Node20 -->
<g id="node20" class="node">
<title>Node20</title>
<g id="a_node20"><a xlink:href="unit_2test__Configurator_2test__main_8cpp.html" target="_top" xlink:title=" ">
<polygon fill="white" stroke="black" points="1944.5,-89.5 1944.5,-141.5 2078.5,-141.5 2078.5,-89.5 1944.5,-89.5"/>
<text text-anchor="start" x="1952.5" y="-129.5" font-family="Helvetica,sans-Serif" font-size="10.00">/home/runner/work/EX</text>
<text text-anchor="start" x="1952.5" y="-118.5" font-family="Helvetica,sans-Serif" font-size="10.00">&#45;Display/EX&#45;Display/test</text>
<text text-anchor="start" x="1952.5" y="-107.5" font-family="Helvetica,sans-Serif" font-size="10.00">/unit/test_Configurator</text>
<text text-anchor="middle" x="2011.5" y="-96.5" font-family="Helvetica,sans-Serif" font-size="10.00">/test_main.cpp</text>
</a>
</g>
</g>
<!-- Node16&#45;&gt;Node20 -->
<g id="edge23" class="edge">
<title>Node16&#45;&gt;Node20</title>
<path fill="none" stroke="midnightblue" d="M2121.33,-178.95C2100.8,-167.28 2076.27,-153.33 2055.61,-141.58"/>
<polygon fill="midnightblue" stroke="midnightblue" points="2119.74,-182.07 2130.16,-183.98 2123.2,-175.99 2119.74,-182.07"/>
</g>
<!-- Node21 -->
<g id="node21" class="node">
<title>Node21</title>
<g id="a_node21"><a xlink:href="unit_2test__Controller_2test__main_8cpp.html" target="_top" xlink:title=" ">
<polygon fill="white" stroke="black" points="2097,-89.5 2097,-141.5 2232,-141.5 2232,-89.5 2097,-89.5"/>
<text text-anchor="start" x="2105" y="-129.5" font-family="Helvetica,sans-Serif" font-size="10.00">/home/runner/work/EX</text>
<text text-anchor="start" x="2105" y="-118.5" font-family="Helvetica,sans-Serif" font-size="10.00">&#45;Display/EX&#45;Display/test</text>
<text text-anchor="start" x="2105" y="-107.5" font-family="Helvetica,sans-Serif" font-size="10.00">/unit/test_Controller/test</text>
<text text-anchor="middle" x="2164.5" y="-96.5" font-family="Helvetica,sans-Serif" font-size="10.00">_main.cpp</text>
</a>
</g>
</g>
<!-- Node16&#45;&gt;Node21 -->
<g id="edge24" class="edge">
<title>Node16&#45;&gt;Node21</title>
<path fill="none" stroke="midnightblue" d="M2164.5,-173.51C2164.5,-163.17 2164.5,-151.71 2164.5,-141.79"/>
<polygon fill="midnightblue" stroke="midnightblue" points="2161,-173.76 2164.5,-183.76 2168,-173.76 2161,-173.76"/>
</g>
<!-- Node22 -->
<g id="node22" class="node">
<title>Node22</title>
<g id="a_node22"><a xlink:href="unit_2test__Display_2test__main_8cpp.html" target="_top" xlink:title=" ">
<polygon fill="white" stroke="black" points="2250.5,-89.5 2250.5,-141.5 2384.5,-141.5 2384.5,-89.5 2250.5,-89.5"/>
<text text-anchor="start" x="2258.5" y="-129.5" font-family="Helvetica,sans-Serif" font-size="10.00">/home/runner/work/EX</text>
<text text-anchor="start" x="2258.5" y="-118.5" font-family="Helvetica,sans-Serif" font-size="10.00">&#45;Display/EX&#45;Display/test</text>
<text text-anchor="start" x="2258.5" y="-107.5" font-family="Helvetica,sans-Serif" font-size="10.00">/unit/test_Display/test</text>
<text text-anchor="middle" x="2317.5" y="-96.5" font-family="Helvetica,sans-Serif" font-size="10.00">_main.cpp</text>
</a>
</g>
</g>
<!-- Node16&#45;&gt;Node22 -->
<g id="edge25" class="edge">
<title>Node16&#45;&gt;Node22</title>
<path fill="none" stroke="midnightblue" d="M2207.67,-178.95C2228.2,-167.28 2252.73,-153.33 2273.39,-141.58"/>
<polygon fill="midnightblue" stroke="midnightblue" points="2205.8,-175.99 2198.84,-183.98 2209.26,-182.07 2205.8,-175.99"/>
</g>
<!-- Node23 -->
<g id="node23" class="node">
<title>Node23</title>
<g id="a_node23"><a xlink:href="unit_2test__DisplayManager_2test__main_8cpp.html" target="_top" xlink:title=" ">
<polygon fill="white" stroke="black" points="2403,-89.5 2403,-141.5 2548,-141.5 2548,-89.5 2403,-89.5"/>
<text text-anchor="start" x="2411" y="-129.5" font-family="Helvetica,sans-Serif" font-size="10.00">/home/runner/work/EX</text>
<text text-anchor="start" x="2411" y="-118.5" font-family="Helvetica,sans-Serif" font-size="10.00">&#45;Display/EX&#45;Display/test</text>
<text text-anchor="start" x="2411" y="-107.5" font-family="Helvetica,sans-Serif" font-size="10.00">/unit/test_DisplayManager</text>
<text text-anchor="middle" x="2475.5" y="-96.5" font-family="Helvetica,sans-Serif" font-size="10.00">/test_main.cpp</text>
</a>
</g>
</g>
<!-- Node16&#45;&gt;Node23 -->
<g id="edge26" class="edge">
<title>Node16&#45;&gt;Node23</title>
<path fill="none" stroke="midnightblue" d="M2250.15,-181.35C2293.26,-169.98 2346.27,-155.68 2393.5,-142 2396.51,-141.13 2399.57,-140.23 2402.67,-139.31"/>
<polygon fill="midnightblue" stroke="midnightblue" points="2249.04,-178.02 2240.26,-183.95 2250.82,-184.79 2249.04,-178.02"/>
</g>
<!-- Node24 -->
<g id="node24" class="node">
<title>Node24</title>
<g id="a_node24"><a xlink:href="unit_2test__Infrastructure_2test__main_8cpp.html" target="_top" xlink:title=" ">
<polygon fill="white" stroke="black" points="2566.5,-89.5 2566.5,-141.5 2700.5,-141.5 2700.5,-89.5 2566.5,-89.5"/>
<text text-anchor="start" x="2574.5" y="-129.5" font-family="Helvetica,sans-Serif" font-size="10.00">/home/runner/work/EX</text>
<text text-anchor="start" x="2574.5" y="-118.5" font-family="Helvetica,sans-Serif" font-size="10.00">&#45;Display/EX&#45;Display/test</text>
<text text-anchor="start" x="2574.5" y="-107.5" font-family="Helvetica,sans-Serif" font-size="10.00">/unit/test_Infrastructure</text>
<text text-anchor="middle" x="2633.5" y="-96.5" font-family="Helvetica,sans-Serif" font-size="10.00">/test_main.cpp</text>
</a>
</g>
</g>
<!-- Node16&#45;&gt;Node24 -->
<g id="edge27" class="edge">
<title>Node16&#45;&gt;Node24</title>
<path fill="none" stroke="midnightblue" d="M2252.24,-181.78C2258.74,-180.42 2265.21,-179.14 2271.5,-178 2397.55,-155.12 2432.6,-170.52 2557.5,-142 2560.35,-141.35 2563.24,-140.63 2566.15,-139.87"/>
<polygon fill="midnightblue" stroke="midnightblue" points="2251.06,-178.45 2242.02,-183.98 2252.53,-185.3 2251.06,-178.45"/>
</g>
<!-- Node25 -->
<g id="node25" class="node">
<title>Node25</title>
<g id="a_node25"><a xlink:href="unit_2test__Input_2test__main_8cpp.html" target="_top" xlink:title=" ">
<polygon fill="white" stroke="black" points="2718.5,-95 2718.5,-136 2880.5,-136 2880.5,-95 2718.5,-95"/>
<text text-anchor="start" x="2726.5" y="-124" font-family="Helvetica,sans-Serif" font-size="10.00">/home/runner/work/EX</text>
<text text-anchor="start" x="2726.5" y="-113" font-family="Helvetica,sans-Serif" font-size="10.00">&#45;Display/EX&#45;Display/test</text>
<text text-anchor="middle" x="2799.5" y="-102" font-family="Helvetica,sans-Serif" font-size="10.00">/unit/test_Input/test_main.cpp</text>
</a>
</g>
</g>
<!-- Node16&#45;&gt;Node25 -->
<g id="edge28" class="edge">
<title>Node16&#45;&gt;Node25</title>
<path fill="none" stroke="midnightblue" d="M2250.05,-181.9C2257.28,-180.44 2264.5,-179.12 2271.5,-178 2464.39,-147.27 2517.3,-176.79 2709.5,-142 2718.29,-140.41 2727.46,-138.32 2736.43,-136.03"/>
<polygon fill="midnightblue" stroke="midnightblue" points="2249.28,-178.48 2240.2,-183.96 2250.71,-185.34 2249.28,-178.48"/>
</g>
<!-- Node26 -->
<g id="node26" class="node">
<title>Node26</title>
<g id="a_node26"><a xlink:href="unit_2test__InputManager_2test__main_8cpp.html" target="_top" xlink:title=" ">
<polygon fill="white" stroke="black" points="2898.5,-89.5 2898.5,-141.5 3032.5,-141.5 3032.5,-89.5 2898.5,-89.5"/>
<text text-anchor="start" x="2906.5" y="-129.5" font-family="Helvetica,sans-Serif" font-size="10.00">/home/runner/work/EX</text>
<text text-anchor="start" x="2906.5" y="-118.5" font-family="Helvetica,sans-Serif" font-size="10.00">&#45;Display/EX&#45;Display/test</text>
<text text-anchor="start" x="2906.5" y="-107.5" font-family="Helvetica,sans-Serif" font-size="10.00">/unit/test_InputManager</text>
<text text-anchor="middle" x="2965.5" y="-96.5" font-family="Helvetica,sans-Serif" font-size="10.00">/test_main.cpp</text>
</a>
</g>
</g>
<!-- Node16&#45;&gt;Node26 -->
<g id="edge29" class="edge">
<title>Node16&#45;&gt;Node26</title>
<path fill="none" stroke="midnightblue" d="M2248.96,-181.92C2256.55,-180.43 2264.14,-179.08 2271.5,-178 2543.7,-137.95 2619.37,-194.22 2889.5,-142 2892.37,-141.45 2895.28,-140.81 2898.2,-140.11"/>
<polygon fill="midnightblue" stroke="midnightblue" points="2248.09,-178.53 2239.01,-183.98 2249.51,-185.39 2248.09,-178.53"/>
</g>
<!-- Node27 -->
<g id="node27" class="node">
<title>Node27</title>
<g id="a_node27"><a xlink:href="unit_2test__Screen_2test__main_8cpp.html" target="_top" xlink:title=" ">
<polygon fill="white" stroke="black" points="3050.5,-95 3050.5,-136 3220.5,-136 3220.5,-95 3050.5,-95"/>
<text text-anchor="start" x="3058.5" y="-124" font-family="Helvetica,sans-Serif" font-size="10.00">/home/runner/work/EX</text>
<text text-anchor="start" x="3058.5" y="-113" font-family="Helvetica,sans-Serif" font-size="10.00">&#45;Display/EX&#45;Display/test</text>
<text text-anchor="middle" x="3135.5" y="-102" font-family="Helvetica,sans-Serif" font-size="10.00">/unit/test_Screen/test_main.cpp</text>
</a>
</g>
</g>
<!-- Node16&#45;&gt;Node27 -->
<g id="edge30" class="edge">
<title>Node16&#45;&gt;Node27</title>
<path fill="none" stroke="midnightblue" d="M2248.28,-181.96C2256.09,-180.43 2263.92,-179.07 2271.5,-178 2610.73,-130.08 2703.05,-195.16 3041.5,-142 3051.02,-140.5 3060.96,-138.41 3070.67,-136.06"/>
<polygon fill="midnightblue" stroke="midnightblue" points="2247.5,-178.55 2238.41,-183.99 2248.91,-185.41 2247.5,-178.55"/>
</g>
<!-- Node28 -->
<g id="node28" class="node">
<title>Node28</title>
<g id="a_node28"><a xlink:href="unit_2test__ScreenManager_2test__main_8cpp.html" target="_top" xlink:title=" ">
<polygon fill="white" stroke="black" points="3239,-89.5 3239,-141.5 3380,-141.5 3380,-89.5 3239,-89.5"/>
<text text-anchor="start" x="3247" y="-129.5" font-family="Helvetica,sans-Serif" font-size="10.00">/home/runner/work/EX</text>
<text text-anchor="start" x="3247" y="-118.5" font-family="Helvetica,sans-Serif" font-size="10.00">&#45;Display/EX&#45;Display/test</text>
<text text-anchor="start" x="3247" y="-107.5" font-family="Helvetica,sans-Serif" font-size="10.00">/unit/test_ScreenManager</text>
<text text-anchor="middle" x="3309.5" y="-96.5" font-family="Helvetica,sans-Serif" font-size="10.00">/test_main.cpp</text>
</a>
</g>
</g>
<!-- Node16&#45;&gt;Node28 -->
<g id="edge31" class="edge">
<title>Node16&#45;&gt;Node28</title>
<path fill="none" stroke="midnightblue" d="M2248.06,-181.93C2255.95,-180.4 2263.85,-179.04 2271.5,-178 2693.66,-120.33 2809.79,-215.37 3229.5,-142 3232.52,-141.47 3235.57,-140.86 3238.65,-140.18"/>
<polygon fill="midnightblue" stroke="midnightblue" points="2247.21,-178.53 2238.11,-183.96 2248.61,-185.39 2247.21,-178.53"/>
</g>
</g>
</svg>
        <g id="navigator" transform="translate(0 0)" fill="#404254">
                <rect fill="#f2f5e9" fill-opacity="0.5" stroke="#606060" stroke-width=".5" x="0" y="0" width="60" height="60"/>
                <use id="zoomplus" xlink:href="#zoomPlus" x="17" y="9" onmousedown="handleZoom(evt,'in')"/>
                <use id="zoomminus" xlink:href="#zoomMin" x="42" y="9" onmousedown="handleZoom(evt,'out')"/>
                <use id="reset" xlink:href="#resetDef" x="30" y="36" onmousedown="handleReset()"/>
                <g id="arrowUp" xlink:href="#dirArrow" transform="translate(30 24)" onmousedown="handlePan(0,-1)">
                  <use xlink:href="#rim" fill="#404040">
                        <set attributeName="fill" to="#808080" begin="arrowUp.mouseover" end="arrowUp.mouseout"/>
                  </use>
                  <path fill="none" stroke="white" stroke-width="1.5" d="M0,-3.0v7 M-2.5,-0.5L0,-3.0L2.5,-0.5"/>
                </g>
                <g id="arrowRight" xlink:href="#dirArrow" transform="rotate(90) translate(36 -43)" onmousedown="handlePan(1,0)">
                  <use xlink:href="#rim" fill="#404040">
                        <set attributeName="fill" to="#808080" begin="arrowRight.mouseover" end="arrowRight.mouseout"/>
                  </use>
                  <path fill="none" stroke="white" stroke-width="1.5" d="M0,-3.0v7 M-2.5,-0.5L0,-3.0L2.5,-0.5"/>
                </g>
                <g id="arrowDown" xlink:href="#dirArrow" transform="rotate(180) translate(-30 -48)" onmousedown="handlePan(0,1)">
                  <use xlink:href="#rim" fill="#404040">
                        <set attributeName="fill" to="#808080" begin="arrowDown.mouseover" end="arrowDown.mouseout"/>
                  </use>
                  <path fill="none" stroke="white" stroke-width="1.5" d="M0,-3.0v7 M-2.5,-0.5L0,-3.0L2.5,-0.5"/>
                </g>
                <g id="arrowLeft" xlink:href="#dirArrow" transform="rotate(270) translate(-36 17)" onmousedown="handlePan(-1,0)">
                  <use xlink:href="#rim" fill="#404040">
                        <set attributeName="fill" to="#808080" begin="arrowLeft.mouseover" end="arrowLeft.mouseout"/>
                  </use>
                  <path fill="none" stroke="white" stroke-width="1.5" d="M0,-3.0v7 M-2.5,-0.5L0,-3.0L2.5,-0.5"/>
                </g>
        </g>
        <svg viewBox="0 0 15 15" width="100%" height="30px" preserveAspectRatio="xMaxYMin meet">
         <g id="arrow_out" transform="scale(0.3 0.3)">
          <a xlink:href="DisplayManager_8h__dep__incl_org.svg" target="_base">
           <rect id="button" ry="5" rx="5" y="6" x="6" height="38" width="38"
                fill="#f2f5e9" fill-opacity="0.5" stroke="#606060" stroke-width="1.0"/>
           <path id="arrow"
             d="M 11.500037,31.436501 C 11.940474,20.09759 22.043105,11.32322 32.158766,21.979434 L 37.068811,17.246167 C 37.068811,17.246167 37.088388,32 37.088388,32 L 22.160133,31.978069 C 22.160133,31.978069 26.997745,27.140456 26.997745,27.140456 C 18.528582,18.264221 13.291696,25.230495 11.500037,31.436501 z"
             style="fill:#404040;"/>
          </a>
         </g>
        </svg>
</svg>
