<?xml version="1.0" encoding="UTF-8" standalone="no"?>
<!DOCTYPE svg PUBLIC "-//W3C//DTD SVG 1.1//EN"
 "http://www.w3.org/Graphics/SVG/1.1/DTD/svg11.dtd">
<!-- Generated by graphviz version 2.43.0 (0)
 -->
<!-- Title: /home/runner/work/EX&#45;Display/EX&#45;Display/DisplayInterface.h Pages: 1 -->
<svg width="3039pt" height="473pt"
 viewBox="0.00 0.00 3038.50 473.00" xmlns="http://www.w3.org/2000/svg" xmlns:xlink="http://www.w3.org/1999/xlink">
<g id="graph0" class="graph" transform="scale(1 1) rotate(0) translate(4 469)">
<title>/home/runner/work/EX&#45;Display/EX&#45;Display/DisplayInterface.h</title>
<polygon fill="white" stroke="transparent" points="-4,4 -4,-469 3034.5,-469 3034.5,4 -4,4"/>
<!-- Node1 -->
<g id="node1" class="node">
<title>Node1</title>
<g id="a_node1"><a xlink:title=" ">
<polygon fill="#bfbfbf" stroke="black" points="1169.5,-423.5 1169.5,-464.5 1321.5,-464.5 1321.5,-423.5 1169.5,-423.5"/>
<text text-anchor="start" x="1177.5" y="-452.5" font-family="Helvetica,sans-Serif" font-size="10.00">/home/runner/work/EX</text>
<text text-anchor="start" x="1177.5" y="-441.5" font-family="Helvetica,sans-Serif" font-size="10.00">&#45;Display/EX&#45;Display/Display</text>
<text text-anchor="middle" x="1245.5" y="-430.5" font-family="Helvetica,sans-Serif" font-size="10.00">Interface.h</text>
</a>
</g>
</g>
<!-- Node2 -->
<g id="node2" class="node">
<title>Node2</title>
<g id="a_node2"><a xlink:href="DisplayManager_8h.html" target="_top" xlink:title=" ">
<polygon fill="white" stroke="black" points="908.5,-267.5 908.5,-308.5 1060.5,-308.5 1060.5,-267.5 908.5,-267.5"/>
<text text-anchor="start" x="916.5" y="-296.5" font-family="Helvetica,sans-Serif" font-size="10.00">/home/runner/work/EX</text>
<text text-anchor="start" x="916.5" y="-285.5" font-family="Helvetica,sans-Serif" font-size="10.00">&#45;Display/EX&#45;Display/Display</text>
<text text-anchor="middle" x="984.5" y="-274.5" font-family="Helvetica,sans-Serif" font-size="10.00">Manager.h</text>
</a>
</g>
</g>
<!-- Node1&#45;&gt;Node2 -->
<g id="edge1" class="edge">
<title>Node1&#45;&gt;Node2</title>
<path fill="none" stroke="midnightblue" d="M1203.52,-418.23C1151.81,-387.72 1065.01,-336.5 1017.7,-308.59"/>
<polygon fill="midnightblue" stroke="midnightblue" points="1202.05,-421.43 1212.44,-423.5 1205.61,-415.4 1202.05,-421.43"/>
</g>
<!-- Node17 -->
<g id="node17" class="node">
<title>Node17</title>
<g id="a_node17"><a xlink:href="InputInterface_8h.html" target="_top" xlink:title=" ">
<polygon fill="white" stroke="black" points="1236,-351 1236,-381 1429,-381 1429,-351 1236,-351"/>
<text text-anchor="start" x="1244" y="-369" font-family="Helvetica,sans-Serif" font-size="10.00">/home/runner/work/EX</text>
<text text-anchor="middle" x="1332.5" y="-358" font-family="Helvetica,sans-Serif" font-size="10.00">&#45;Display/EX&#45;Display/InputInterface.h</text>
</a>
</g>
</g>
<!-- Node1&#45;&gt;Node17 -->
<g id="edge20" class="edge">
<title>Node1&#45;&gt;Node17</title>
<path fill="none" stroke="midnightblue" d="M1275.65,-416.66C1289.27,-404.76 1304.83,-391.18 1316.22,-381.23"/>
<polygon fill="midnightblue" stroke="midnightblue" points="1273.13,-414.21 1267.9,-423.43 1277.74,-419.49 1273.13,-414.21"/>
</g>
<!-- Node19 -->
<g id="node19" class="node">
<title>Node19</title>
<g id="a_node19"><a xlink:href="InputManager_8h.html" target="_top" xlink:title=" ">
<polygon fill="white" stroke="black" points="699,-273 699,-303 890,-303 890,-273 699,-273"/>
<text text-anchor="start" x="707" y="-291" font-family="Helvetica,sans-Serif" font-size="10.00">/home/runner/work/EX</text>
<text text-anchor="middle" x="794.5" y="-280" font-family="Helvetica,sans-Serif" font-size="10.00">&#45;Display/EX&#45;Display/InputManager.h</text>
</a>
</g>
</g>
<!-- Node1&#45;&gt;Node19 -->
<g id="edge41" class="edge">
<title>Node1&#45;&gt;Node19</title>
<path fill="none" stroke="midnightblue" d="M1178.32,-420.25C1148.38,-410.1 1112.67,-397.97 1080.5,-387 993.32,-357.27 891.26,-322.24 835.69,-303.16"/>
<polygon fill="midnightblue" stroke="midnightblue" points="1177.24,-423.58 1187.83,-423.47 1179.49,-416.95 1177.24,-423.58"/>
</g>
<!-- Node30 -->
<g id="node30" class="node">
<title>Node30</title>
<g id="a_node30"><a xlink:href="MockDisplay_8h.html" target="_top" xlink:title=" ">
<polygon fill="white" stroke="black" points="2603.5,-267.5 2603.5,-308.5 2737.5,-308.5 2737.5,-267.5 2603.5,-267.5"/>
<text text-anchor="start" x="2611.5" y="-296.5" font-family="Helvetica,sans-Serif" font-size="10.00">/home/runner/work/EX</text>
<text text-anchor="start" x="2611.5" y="-285.5" font-family="Helvetica,sans-Serif" font-size="10.00">&#45;Display/EX&#45;Display/test</text>
<text text-anchor="middle" x="2670.5" y="-274.5" font-family="Helvetica,sans-Serif" font-size="10.00">/mocks/MockDisplay.h</text>
</a>
</g>
</g>
<!-- Node1&#45;&gt;Node30 -->
<g id="edge42" class="edge">
<title>Node1&#45;&gt;Node30</title>
<path fill="none" stroke="midnightblue" d="M1331.98,-438.63C1472.77,-431.06 1760.17,-413.7 2002.5,-387 2223.28,-362.67 2483.23,-320.66 2603.39,-300.48"/>
<polygon fill="midnightblue" stroke="midnightblue" points="1331.48,-435.15 1321.68,-439.18 1331.86,-442.14 1331.48,-435.15"/>
</g>
<!-- Node33 -->
<g id="node33" class="node">
<title>Node33</title>
<g id="a_node33"><a xlink:href="MockSPIDisplay_8h.html" target="_top" xlink:title=" ">
<polygon fill="white" stroke="black" points="732.5,-345.5 732.5,-386.5 872.5,-386.5 872.5,-345.5 732.5,-345.5"/>
<text text-anchor="start" x="740.5" y="-374.5" font-family="Helvetica,sans-Serif" font-size="10.00">/home/runner/work/EX</text>
<text text-anchor="start" x="740.5" y="-363.5" font-family="Helvetica,sans-Serif" font-size="10.00">&#45;Display/EX&#45;Display/test</text>
<text text-anchor="middle" x="802.5" y="-352.5" font-family="Helvetica,sans-Serif" font-size="10.00">/mocks/MockSPIDisplay.h</text>
</a>
</g>
</g>
<!-- Node1&#45;&gt;Node33 -->
<g id="edge49" class="edge">
<title>Node1&#45;&gt;Node33</title>
<path fill="none" stroke="midnightblue" d="M1159.36,-428.22C1075.7,-413.87 950.27,-392.35 872.56,-379.02"/>
<polygon fill="midnightblue" stroke="midnightblue" points="1158.9,-431.69 1169.35,-429.94 1160.08,-424.79 1158.9,-431.69"/>
</g>
<!-- Node34 -->
<g id="node34" class="node">
<title>Node34</title>
<g id="a_node34"><a xlink:href="TFT__eSPIDisplay_8h.html" target="_top" xlink:title=" ">
<polygon fill="white" stroke="black" points="1860,-345.5 1860,-386.5 1993,-386.5 1993,-345.5 1860,-345.5"/>
<text text-anchor="start" x="1868" y="-374.5" font-family="Helvetica,sans-Serif" font-size="10.00">/home/runner/work/EX</text>
<text text-anchor="start" x="1868" y="-363.5" font-family="Helvetica,sans-Serif" font-size="10.00">&#45;Display/EX&#45;Display/TFT</text>
<text text-anchor="middle" x="1926.5" y="-352.5" font-family="Helvetica,sans-Serif" font-size="10.00">_eSPIDisplay.h</text>
</a>
</g>
</g>
<!-- Node1&#45;&gt;Node34 -->
<g id="edge51" class="edge">
<title>Node1&#45;&gt;Node34</title>
<path fill="none" stroke="midnightblue" d="M1331.73,-433.38C1469.39,-418.01 1735.9,-388.27 1859.96,-374.43"/>
<polygon fill="midnightblue" stroke="midnightblue" points="1331.19,-429.92 1321.64,-434.5 1331.96,-436.87 1331.19,-429.92"/>
</g>
<!-- Node3 -->
<g id="node3" class="node">
<title>Node3</title>
<g id="a_node3"><a xlink:href="Configurator_8h.html" target="_top" xlink:title=" ">
<polygon fill="white" stroke="black" points="185.5,-100.5 185.5,-130.5 369.5,-130.5 369.5,-100.5 185.5,-100.5"/>
<text text-anchor="start" x="193.5" y="-118.5" font-family="Helvetica,sans-Serif" font-size="10.00">/home/runner/work/EX</text>
<text text-anchor="middle" x="277.5" y="-107.5" font-family="Helvetica,sans-Serif" font-size="10.00">&#45;Display/EX&#45;Display/Configurator.h</text>
</a>
</g>
</g>
<!-- Node2&#45;&gt;Node3 -->
<g id="edge2" class="edge">
<title>Node2&#45;&gt;Node3</title>
<path fill="none" stroke="midnightblue" d="M898.08,-267.12C760.2,-245.95 706.87,-298.62 590.5,-231 565.21,-216.31 576.11,-193.8 551.5,-178 485.41,-135.57 455.03,-159.62 378.5,-142 363.17,-138.47 346.59,-134.4 331.39,-130.55"/>
<polygon fill="midnightblue" stroke="midnightblue" points="897.72,-270.61 908.16,-268.78 898.86,-263.7 897.72,-270.61"/>
</g>
<!-- Node7 -->
<g id="node7" class="node">
<title>Node7</title>
<g id="a_node7"><a xlink:href="Controller_8h.html" target="_top" xlink:title=" ">
<polygon fill="white" stroke="black" points="599.5,-189.5 599.5,-219.5 771.5,-219.5 771.5,-189.5 599.5,-189.5"/>
<text text-anchor="start" x="607.5" y="-207.5" font-family="Helvetica,sans-Serif" font-size="10.00">/home/runner/work/EX</text>
<text text-anchor="middle" x="685.5" y="-196.5" font-family="Helvetica,sans-Serif" font-size="10.00">&#45;Display/EX&#45;Display/Controller.h</text>
</a>
</g>
</g>
<!-- Node2&#45;&gt;Node7 -->
<g id="edge6" class="edge">
<title>Node2&#45;&gt;Node7</title>
<path fill="none" stroke="midnightblue" d="M903.16,-264.83C850.14,-250.38 782.56,-231.96 736.88,-219.5"/>
<polygon fill="midnightblue" stroke="midnightblue" points="902.31,-268.23 912.88,-267.48 904.15,-261.47 902.31,-268.23"/>
</g>
<!-- Node9 -->
<g id="node9" class="node">
<title>Node9</title>
<g id="a_node9"><a xlink:href="test__ControllerDisplayUpdate_8cpp.html" target="_top" xlink:title=" ">
<polygon fill="white" stroke="black" points="947.5,-89.5 947.5,-141.5 1131.5,-141.5 1131.5,-89.5 947.5,-89.5"/>
<text text-anchor="start" x="955.5" y="-129.5" font-family="Helvetica,sans-Serif" font-size="10.00">/home/runner/work/EX</text>
<text text-anchor="start" x="955.5" y="-118.5" font-family="Helvetica,sans-Serif" font-size="10.00">&#45;Display/EX&#45;Display/test</text>
<text text-anchor="start" x="955.5" y="-107.5" font-family="Helvetica,sans-Serif" font-size="10.00">/integration/test_Controller</text>
<text text-anchor="middle" x="1039.5" y="-96.5" font-family="Helvetica,sans-Serif" font-size="10.00">/test_ControllerDisplayUpdate.cpp</text>
</a>
</g>
</g>
<!-- Node2&#45;&gt;Node9 -->
<g id="edge14" class="edge">
<title>Node2&#45;&gt;Node9</title>
<path fill="none" stroke="midnightblue" d="M925.34,-262.12C913.01,-254.07 901.62,-243.81 894.5,-231 883.06,-210.41 881.5,-197.64 894.5,-178 902.76,-165.52 930.49,-152.46 959.51,-141.61"/>
<polygon fill="midnightblue" stroke="midnightblue" points="923.61,-265.17 933.98,-267.35 927.24,-259.18 923.61,-265.17"/>
</g>
<!-- Node10 -->
<g id="node10" class="node">
<title>Node10</title>
<g id="a_node10"><a xlink:href="test__ControllerInputAction_8cpp.html" target="_top" xlink:title=" ">
<polygon fill="white" stroke="black" points="1150,-89.5 1150,-141.5 1317,-141.5 1317,-89.5 1150,-89.5"/>
<text text-anchor="start" x="1158" y="-129.5" font-family="Helvetica,sans-Serif" font-size="10.00">/home/runner/work/EX</text>
<text text-anchor="start" x="1158" y="-118.5" font-family="Helvetica,sans-Serif" font-size="10.00">&#45;Display/EX&#45;Display/test</text>
<text text-anchor="start" x="1158" y="-107.5" font-family="Helvetica,sans-Serif" font-size="10.00">/integration/test_Controller</text>
<text text-anchor="middle" x="1233.5" y="-96.5" font-family="Helvetica,sans-Serif" font-size="10.00">/test_ControllerInputAction.cpp</text>
</a>
</g>
</g>
<!-- Node2&#45;&gt;Node10 -->
<g id="edge15" class="edge">
<title>Node2&#45;&gt;Node10</title>
<path fill="none" stroke="midnightblue" d="M1014.98,-260.85C1042.47,-237.82 1084.47,-203.99 1123.5,-178 1142.99,-165.03 1165.4,-152.15 1184.89,-141.56"/>
<polygon fill="midnightblue" stroke="midnightblue" points="1012.67,-258.22 1007.28,-267.34 1017.18,-263.57 1012.67,-258.22"/>
</g>
<!-- Node12 -->
<g id="node12" class="node">
<title>Node12</title>
<g id="a_node12"><a xlink:href="test__Controller_8cpp.html" target="_top" xlink:title=" ">
<polygon fill="white" stroke="black" points="794,-89.5 794,-141.5 929,-141.5 929,-89.5 794,-89.5"/>
<text text-anchor="start" x="802" y="-129.5" font-family="Helvetica,sans-Serif" font-size="10.00">/home/runner/work/EX</text>
<text text-anchor="start" x="802" y="-118.5" font-family="Helvetica,sans-Serif" font-size="10.00">&#45;Display/EX&#45;Display/test</text>
<text text-anchor="start" x="802" y="-107.5" font-family="Helvetica,sans-Serif" font-size="10.00">/unit/test_Controller/test</text>
<text text-anchor="middle" x="861.5" y="-96.5" font-family="Helvetica,sans-Serif" font-size="10.00">_Controller.cpp</text>
</a>
</g>
</g>
<!-- Node2&#45;&gt;Node12 -->
<g id="edge17" class="edge">
<title>Node2&#45;&gt;Node12</title>
<path fill="none" stroke="midnightblue" d="M918.81,-262.72C904.59,-254.63 890.99,-244.21 881.5,-231 862.66,-204.78 859.56,-166.61 859.88,-141.67"/>
<polygon fill="midnightblue" stroke="midnightblue" points="917.24,-265.85 927.72,-267.45 920.53,-259.67 917.24,-265.85"/>
</g>
<!-- Node13 -->
<g id="node13" class="node">
<title>Node13</title>
<g id="a_node13"><a xlink:href="DisplayManager_8cpp.html" target="_top" xlink:title=" ">
<polygon fill="white" stroke="black" points="1577.5,-184 1577.5,-225 1729.5,-225 1729.5,-184 1577.5,-184"/>
<text text-anchor="start" x="1585.5" y="-213" font-family="Helvetica,sans-Serif" font-size="10.00">/home/runner/work/EX</text>
<text text-anchor="start" x="1585.5" y="-202" font-family="Helvetica,sans-Serif" font-size="10.00">&#45;Display/EX&#45;Display/Display</text>
<text text-anchor="middle" x="1653.5" y="-191" font-family="Helvetica,sans-Serif" font-size="10.00">Manager.cpp</text>
</a>
</g>
</g>
<!-- Node2&#45;&gt;Node13 -->
<g id="edge13" class="edge">
<title>Node2&#45;&gt;Node13</title>
<path fill="none" stroke="midnightblue" d="M1070.78,-266.94C1291.11,-234.52 1353.01,-270.6 1568.5,-231 1576.99,-229.44 1585.83,-227.34 1594.46,-225.02"/>
<polygon fill="midnightblue" stroke="midnightblue" points="1070.21,-263.49 1060.84,-268.43 1071.25,-270.41 1070.21,-263.49"/>
</g>
<!-- Node14 -->
<g id="node14" class="node">
<title>Node14</title>
<g id="a_node14"><a xlink:href="test__DisplayScreens_8cpp.html" target="_top" xlink:title=" ">
<polygon fill="white" stroke="black" points="1911,-178.5 1911,-230.5 2050,-230.5 2050,-178.5 1911,-178.5"/>
<text text-anchor="start" x="1919" y="-218.5" font-family="Helvetica,sans-Serif" font-size="10.00">/home/runner/work/EX</text>
<text text-anchor="start" x="1919" y="-207.5" font-family="Helvetica,sans-Serif" font-size="10.00">&#45;Display/EX&#45;Display/test</text>
<text text-anchor="start" x="1919" y="-196.5" font-family="Helvetica,sans-Serif" font-size="10.00">/integration/test_Display</text>
<text text-anchor="middle" x="1980.5" y="-185.5" font-family="Helvetica,sans-Serif" font-size="10.00">/test_DisplayScreens.cpp</text>
</a>
</g>
</g>
<!-- Node2&#45;&gt;Node14 -->
<g id="edge16" class="edge">
<title>Node2&#45;&gt;Node14</title>
<path fill="none" stroke="midnightblue" d="M1070.94,-266.95C1438.44,-217.79 1541.18,-296.59 1902.5,-231 1905.16,-230.52 1907.86,-229.96 1910.57,-229.36"/>
<polygon fill="midnightblue" stroke="midnightblue" points="1070.27,-263.51 1060.83,-268.33 1071.21,-270.45 1070.27,-263.51"/>
</g>
<!-- Node15 -->
<g id="node15" class="node">
<title>Node15</title>
<g id="a_node15"><a xlink:href="test__DisplayManager_8cpp.html" target="_top" xlink:title=" ">
<polygon fill="white" stroke="black" points="1748,-178.5 1748,-230.5 1893,-230.5 1893,-178.5 1748,-178.5"/>
<text text-anchor="start" x="1756" y="-218.5" font-family="Helvetica,sans-Serif" font-size="10.00">/home/runner/work/EX</text>
<text text-anchor="start" x="1756" y="-207.5" font-family="Helvetica,sans-Serif" font-size="10.00">&#45;Display/EX&#45;Display/test</text>
<text text-anchor="start" x="1756" y="-196.5" font-family="Helvetica,sans-Serif" font-size="10.00">/unit/test_DisplayManager</text>
<text text-anchor="middle" x="1820.5" y="-185.5" font-family="Helvetica,sans-Serif" font-size="10.00">/test_DisplayManager.cpp</text>
</a>
</g>
</g>
<!-- Node2&#45;&gt;Node15 -->
<g id="edge18" class="edge">
<title>Node2&#45;&gt;Node15</title>
<path fill="none" stroke="midnightblue" d="M1070.97,-266.93C1366.1,-226.04 1448.71,-283.02 1738.5,-231 1741.58,-230.45 1744.71,-229.81 1747.85,-229.11"/>
<polygon fill="midnightblue" stroke="midnightblue" points="1070.25,-263.5 1060.83,-268.37 1071.22,-270.43 1070.25,-263.5"/>
</g>
<!-- Node16 -->
<g id="node16" class="node">
<title>Node16</title>
<g id="a_node16"><a xlink:href="test__DisplayManualSPISwitching_8cpp.html" target="_top" xlink:title=" ">
<polygon fill="white" stroke="black" points="344,-178.5 344,-230.5 543,-230.5 543,-178.5 344,-178.5"/>
<text text-anchor="start" x="352" y="-218.5" font-family="Helvetica,sans-Serif" font-size="10.00">/home/runner/work/EX</text>
<text text-anchor="start" x="352" y="-207.5" font-family="Helvetica,sans-Serif" font-size="10.00">&#45;Display/EX&#45;Display/test</text>
<text text-anchor="start" x="352" y="-196.5" font-family="Helvetica,sans-Serif" font-size="10.00">/unit/test_DisplayManager</text>
<text text-anchor="middle" x="443.5" y="-185.5" font-family="Helvetica,sans-Serif" font-size="10.00">/test_DisplayManualSPISwitching.cpp</text>
</a>
</g>
</g>
<!-- Node2&#45;&gt;Node16 -->
<g id="edge19" class="edge">
<title>Node2&#45;&gt;Node16</title>
<path fill="none" stroke="midnightblue" d="M898.02,-267.05C746.43,-242.27 704.66,-255.14 557.5,-231 552.8,-230.23 548,-229.38 543.16,-228.49"/>
<polygon fill="midnightblue" stroke="midnightblue" points="897.73,-270.55 908.17,-268.73 898.88,-263.64 897.73,-270.55"/>
</g>
<!-- Node4 -->
<g id="node4" class="node">
<title>Node4</title>
<g id="a_node4"><a xlink:href="Configurator_8cpp.html" target="_top" xlink:title=" ">
<polygon fill="white" stroke="black" points="0,-11.5 0,-41.5 195,-41.5 195,-11.5 0,-11.5"/>
<text text-anchor="start" x="8" y="-29.5" font-family="Helvetica,sans-Serif" font-size="10.00">/home/runner/work/EX</text>
<text text-anchor="middle" x="97.5" y="-18.5" font-family="Helvetica,sans-Serif" font-size="10.00">&#45;Display/EX&#45;Display/Configurator.cpp</text>
</a>
</g>
</g>
<!-- Node3&#45;&gt;Node4 -->
<g id="edge3" class="edge">
<title>Node3&#45;&gt;Node4</title>
<path fill="none" stroke="midnightblue" d="M239.08,-95.93C205.37,-79.64 157.08,-56.3 126.51,-41.52"/>
<polygon fill="midnightblue" stroke="midnightblue" points="237.65,-99.13 248.18,-100.33 240.7,-92.83 237.65,-99.13"/>
</g>
<!-- Node5 -->
<g id="node5" class="node">
<title>Node5</title>
<g id="a_node5"><a xlink:href="EX-Display_8ino.html" target="_top" xlink:title=" ">
<polygon fill="white" stroke="black" points="213.5,-6 213.5,-47 341.5,-47 341.5,-6 213.5,-6"/>
<text text-anchor="start" x="221.5" y="-35" font-family="Helvetica,sans-Serif" font-size="10.00">/home/runner/work/EX</text>
<text text-anchor="start" x="221.5" y="-24" font-family="Helvetica,sans-Serif" font-size="10.00">&#45;Display/EX&#45;Display/EX</text>
<text text-anchor="middle" x="277.5" y="-13" font-family="Helvetica,sans-Serif" font-size="10.00">&#45;Display.ino</text>
</a>
</g>
</g>
<!-- Node3&#45;&gt;Node5 -->
<g id="edge4" class="edge">
<title>Node3&#45;&gt;Node5</title>
<path fill="none" stroke="midnightblue" d="M277.5,-90.04C277.5,-76.47 277.5,-59.81 277.5,-47.1"/>
<polygon fill="midnightblue" stroke="midnightblue" points="274,-90.13 277.5,-100.13 281,-90.13 274,-90.13"/>
</g>
<!-- Node6 -->
<g id="node6" class="node">
<title>Node6</title>
<g id="a_node6"><a xlink:href="test__Configurator_8cpp.html" target="_top" xlink:title=" ">
<polygon fill="white" stroke="black" points="359.5,-0.5 359.5,-52.5 493.5,-52.5 493.5,-0.5 359.5,-0.5"/>
<text text-anchor="start" x="367.5" y="-40.5" font-family="Helvetica,sans-Serif" font-size="10.00">/home/runner/work/EX</text>
<text text-anchor="start" x="367.5" y="-29.5" font-family="Helvetica,sans-Serif" font-size="10.00">&#45;Display/EX&#45;Display/test</text>
<text text-anchor="start" x="367.5" y="-18.5" font-family="Helvetica,sans-Serif" font-size="10.00">/unit/test_Configurator</text>
<text text-anchor="middle" x="426.5" y="-7.5" font-family="Helvetica,sans-Serif" font-size="10.00">/test_Configurator.cpp</text>
</a>
</g>
</g>
<!-- Node3&#45;&gt;Node6 -->
<g id="edge5" class="edge">
<title>Node3&#45;&gt;Node6</title>
<path fill="none" stroke="midnightblue" d="M310.54,-95.21C332.05,-82.65 360.33,-66.14 383.57,-52.56"/>
<polygon fill="midnightblue" stroke="midnightblue" points="308.64,-92.26 301.77,-100.33 312.17,-98.31 308.64,-92.26"/>
</g>
<!-- Node7&#45;&gt;Node3 -->
<g id="edge7" class="edge">
<title>Node7&#45;&gt;Node3</title>
<path fill="none" stroke="midnightblue" d="M623.81,-186.97C611.18,-183.81 597.94,-180.66 585.5,-178 494.19,-158.45 469.83,-161.44 378.5,-142 362.67,-138.63 345.56,-134.5 330.01,-130.55"/>
<polygon fill="midnightblue" stroke="midnightblue" points="623.22,-190.43 633.78,-189.5 624.94,-183.65 623.22,-190.43"/>
</g>
<!-- Node8 -->
<g id="node8" class="node">
<title>Node8</title>
<g id="a_node8"><a xlink:href="Controller_8cpp.html" target="_top" xlink:title=" ">
<polygon fill="white" stroke="black" points="388,-100.5 388,-130.5 571,-130.5 571,-100.5 388,-100.5"/>
<text text-anchor="start" x="396" y="-118.5" font-family="Helvetica,sans-Serif" font-size="10.00">/home/runner/work/EX</text>
<text text-anchor="middle" x="479.5" y="-107.5" font-family="Helvetica,sans-Serif" font-size="10.00">&#45;Display/EX&#45;Display/Controller.cpp</text>
</a>
</g>
</g>
<!-- Node7&#45;&gt;Node8 -->
<g id="edge8" class="edge">
<title>Node7&#45;&gt;Node8</title>
<path fill="none" stroke="midnightblue" d="M642.52,-185.35C603.9,-169.04 547.98,-145.42 512.7,-130.52"/>
<polygon fill="midnightblue" stroke="midnightblue" points="641.37,-188.66 651.94,-189.33 644.09,-182.21 641.37,-188.66"/>
</g>
<!-- Node7&#45;&gt;Node9 -->
<g id="edge9" class="edge">
<title>Node7&#45;&gt;Node9</title>
<path fill="none" stroke="midnightblue" d="M753.19,-187.09C803.94,-174.76 875.1,-157.41 937.5,-142 940.78,-141.19 944.12,-140.36 947.49,-139.53"/>
<polygon fill="midnightblue" stroke="midnightblue" points="752.21,-183.72 743.32,-189.49 753.87,-190.53 752.21,-183.72"/>
</g>
<!-- Node7&#45;&gt;Node10 -->
<g id="edge10" class="edge">
<title>Node7&#45;&gt;Node10</title>
<path fill="none" stroke="midnightblue" d="M782.01,-189.24C807.82,-185.5 835.71,-181.53 861.5,-178 985.37,-161.04 1017.91,-166.59 1140.5,-142 1143.62,-141.37 1146.79,-140.7 1149.98,-139.99"/>
<polygon fill="midnightblue" stroke="midnightblue" points="781.24,-185.82 771.85,-190.72 782.25,-192.74 781.24,-185.82"/>
</g>
<!-- Node11 -->
<g id="node11" class="node">
<title>Node11</title>
<g id="a_node11"><a xlink:href="test__ControllerScreenCreation_8cpp.html" target="_top" xlink:title=" ">
<polygon fill="white" stroke="black" points="589.5,-89.5 589.5,-141.5 775.5,-141.5 775.5,-89.5 589.5,-89.5"/>
<text text-anchor="start" x="597.5" y="-129.5" font-family="Helvetica,sans-Serif" font-size="10.00">/home/runner/work/EX</text>
<text text-anchor="start" x="597.5" y="-118.5" font-family="Helvetica,sans-Serif" font-size="10.00">&#45;Display/EX&#45;Display/test</text>
<text text-anchor="start" x="597.5" y="-107.5" font-family="Helvetica,sans-Serif" font-size="10.00">/integration/test_Controller</text>
<text text-anchor="middle" x="682.5" y="-96.5" font-family="Helvetica,sans-Serif" font-size="10.00">/test_ControllerScreenCreation.cpp</text>
</a>
</g>
</g>
<!-- Node7&#45;&gt;Node11 -->
<g id="edge11" class="edge">
<title>Node7&#45;&gt;Node11</title>
<path fill="none" stroke="midnightblue" d="M684.65,-178.85C684.25,-167.26 683.77,-153.46 683.37,-141.8"/>
<polygon fill="midnightblue" stroke="midnightblue" points="681.16,-179.26 685,-189.13 688.16,-179.02 681.16,-179.26"/>
</g>
<!-- Node7&#45;&gt;Node12 -->
<g id="edge12" class="edge">
<title>Node7&#45;&gt;Node12</title>
<path fill="none" stroke="midnightblue" d="M723.18,-184.88C748.74,-172.24 782.85,-155.38 810.8,-141.56"/>
<polygon fill="midnightblue" stroke="midnightblue" points="721.58,-181.76 714.17,-189.33 724.68,-188.03 721.58,-181.76"/>
</g>
<!-- Node18 -->
<g id="node18" class="node">
<title>Node18</title>
<g id="a_node18"><a xlink:href="InputInterface_8cpp.html" target="_top" xlink:title=" ">
<polygon fill="white" stroke="black" points="1230.5,-273 1230.5,-303 1434.5,-303 1434.5,-273 1230.5,-273"/>
<text text-anchor="start" x="1238.5" y="-291" font-family="Helvetica,sans-Serif" font-size="10.00">/home/runner/work/EX</text>
<text text-anchor="middle" x="1332.5" y="-280" font-family="Helvetica,sans-Serif" font-size="10.00">&#45;Display/EX&#45;Display/InputInterface.cpp</text>
</a>
</g>
</g>
<!-- Node17&#45;&gt;Node18 -->
<g id="edge21" class="edge">
<title>Node17&#45;&gt;Node18</title>
<path fill="none" stroke="midnightblue" d="M1332.5,-340.59C1332.5,-328.26 1332.5,-313.72 1332.5,-303.23"/>
<polygon fill="midnightblue" stroke="midnightblue" points="1329,-340.7 1332.5,-350.7 1336,-340.71 1329,-340.7"/>
</g>
<!-- Node17&#45;&gt;Node19 -->
<g id="edge22" class="edge">
<title>Node17&#45;&gt;Node19</title>
<path fill="none" stroke="midnightblue" d="M1225.98,-353.02C1138.18,-342.71 1010.49,-326.73 899.5,-309 888.32,-307.21 876.51,-305.14 865,-303.03"/>
<polygon fill="midnightblue" stroke="midnightblue" points="1225.62,-356.5 1235.96,-354.18 1226.43,-349.55 1225.62,-356.5"/>
</g>
<!-- Node22 -->
<g id="node22" class="node">
<title>Node22</title>
<g id="a_node22"><a xlink:href="MockButtonInput_8h.html" target="_top" xlink:title=" ">
<polygon fill="white" stroke="black" points="1453,-267.5 1453,-308.5 1600,-308.5 1600,-267.5 1453,-267.5"/>
<text text-anchor="start" x="1461" y="-296.5" font-family="Helvetica,sans-Serif" font-size="10.00">/home/runner/work/EX</text>
<text text-anchor="start" x="1461" y="-285.5" font-family="Helvetica,sans-Serif" font-size="10.00">&#45;Display/EX&#45;Display/test</text>
<text text-anchor="middle" x="1526.5" y="-274.5" font-family="Helvetica,sans-Serif" font-size="10.00">/mocks/MockButtonInput.h</text>
</a>
</g>
</g>
<!-- Node17&#45;&gt;Node22 -->
<g id="edge29" class="edge">
<title>Node17&#45;&gt;Node22</title>
<path fill="none" stroke="midnightblue" d="M1378.17,-347.11C1407.67,-335.55 1446.06,-320.51 1476.4,-308.63"/>
<polygon fill="midnightblue" stroke="midnightblue" points="1376.57,-343.98 1368.54,-350.88 1379.12,-350.49 1376.57,-343.98"/>
</g>
<!-- Node24 -->
<g id="node24" class="node">
<title>Node24</title>
<g id="a_node24"><a xlink:href="MockInput_8h.html" target="_top" xlink:title=" ">
<polygon fill="white" stroke="black" points="1078.5,-267.5 1078.5,-308.5 1212.5,-308.5 1212.5,-267.5 1078.5,-267.5"/>
<text text-anchor="start" x="1086.5" y="-296.5" font-family="Helvetica,sans-Serif" font-size="10.00">/home/runner/work/EX</text>
<text text-anchor="start" x="1086.5" y="-285.5" font-family="Helvetica,sans-Serif" font-size="10.00">&#45;Display/EX&#45;Display/test</text>
<text text-anchor="middle" x="1145.5" y="-274.5" font-family="Helvetica,sans-Serif" font-size="10.00">/mocks/MockInput.h</text>
</a>
</g>
</g>
<!-- Node17&#45;&gt;Node24 -->
<g id="edge31" class="edge">
<title>Node17&#45;&gt;Node24</title>
<path fill="none" stroke="midnightblue" d="M1288.47,-347.11C1260.04,-335.55 1223.03,-320.51 1193.79,-308.63"/>
<polygon fill="midnightblue" stroke="midnightblue" points="1287.18,-350.36 1297.76,-350.88 1289.82,-343.88 1287.18,-350.36"/>
</g>
<!-- Node26 -->
<g id="node26" class="node">
<title>Node26</title>
<g id="a_node26"><a xlink:href="MockTouchScreenInput_8h.html" target="_top" xlink:title=" ">
<polygon fill="white" stroke="black" points="1618.5,-267.5 1618.5,-308.5 1794.5,-308.5 1794.5,-267.5 1618.5,-267.5"/>
<text text-anchor="start" x="1626.5" y="-296.5" font-family="Helvetica,sans-Serif" font-size="10.00">/home/runner/work/EX</text>
<text text-anchor="start" x="1626.5" y="-285.5" font-family="Helvetica,sans-Serif" font-size="10.00">&#45;Display/EX&#45;Display/test</text>
<text text-anchor="middle" x="1706.5" y="-274.5" font-family="Helvetica,sans-Serif" font-size="10.00">/mocks/MockTouchScreenInput.h</text>
</a>
</g>
</g>
<!-- Node17&#45;&gt;Node26 -->
<g id="edge36" class="edge">
<title>Node17&#45;&gt;Node26</title>
<path fill="none" stroke="midnightblue" d="M1412.34,-348.94C1467.69,-337.79 1543.09,-322.56 1609.5,-309 1612.45,-308.4 1615.45,-307.78 1618.47,-307.16"/>
<polygon fill="midnightblue" stroke="midnightblue" points="1411.35,-345.57 1402.24,-350.98 1412.74,-352.43 1411.35,-345.57"/>
</g>
<!-- Node28 -->
<g id="node28" class="node">
<title>Node28</title>
<g id="a_node28"><a xlink:href="TFT__eSPITouch_8h.html" target="_top" xlink:title=" ">
<polygon fill="white" stroke="black" points="1813,-267.5 1813,-308.5 1946,-308.5 1946,-267.5 1813,-267.5"/>
<text text-anchor="start" x="1821" y="-296.5" font-family="Helvetica,sans-Serif" font-size="10.00">/home/runner/work/EX</text>
<text text-anchor="start" x="1821" y="-285.5" font-family="Helvetica,sans-Serif" font-size="10.00">&#45;Display/EX&#45;Display/TFT</text>
<text text-anchor="middle" x="1879.5" y="-274.5" font-family="Helvetica,sans-Serif" font-size="10.00">_eSPITouch.h</text>
</a>
</g>
</g>
<!-- Node17&#45;&gt;Node28 -->
<g id="edge38" class="edge">
<title>Node17&#45;&gt;Node28</title>
<path fill="none" stroke="midnightblue" d="M1439.16,-356.58C1535.05,-348 1679.46,-332.58 1803.5,-309 1806.58,-308.41 1809.73,-307.77 1812.89,-307.09"/>
<polygon fill="midnightblue" stroke="midnightblue" points="1438.82,-353.1 1429.17,-357.46 1439.44,-360.07 1438.82,-353.1"/>
</g>
<!-- Node19&#45;&gt;Node3 -->
<g id="edge23" class="edge">
<title>Node19&#45;&gt;Node3</title>
<path fill="none" stroke="midnightblue" d="M688.66,-287.1C566.4,-285.09 374.93,-274.76 319.5,-231 288.09,-206.2 280.17,-155.61 278.17,-130.83"/>
<polygon fill="midnightblue" stroke="midnightblue" points="688.75,-290.6 698.8,-287.25 688.85,-283.6 688.75,-290.6"/>
</g>
<!-- Node19&#45;&gt;Node7 -->
<g id="edge24" class="edge">
<title>Node19&#45;&gt;Node7</title>
<path fill="none" stroke="midnightblue" d="M767.26,-266.63C747.62,-251.95 721.62,-232.51 704.27,-219.53"/>
<polygon fill="midnightblue" stroke="midnightblue" points="765.41,-269.62 775.51,-272.8 769.6,-264.01 765.41,-269.62"/>
</g>
<!-- Node19&#45;&gt;Node10 -->
<g id="edge26" class="edge">
<title>Node19&#45;&gt;Node10</title>
<path fill="none" stroke="midnightblue" d="M808.48,-264.11C825.43,-238.55 856.5,-198.12 894.5,-178 992.16,-126.3 1032.35,-164.65 1140.5,-142 1143.61,-141.35 1146.78,-140.65 1149.97,-139.92"/>
<polygon fill="midnightblue" stroke="midnightblue" points="805.36,-262.49 802.89,-272.79 811.24,-266.28 805.36,-262.49"/>
</g>
<!-- Node19&#45;&gt;Node12 -->
<g id="edge27" class="edge">
<title>Node19&#45;&gt;Node12</title>
<path fill="none" stroke="midnightblue" d="M688.48,-281.4C559.96,-273.5 357.59,-257.08 334.5,-231 318.88,-213.37 318.52,-195.31 334.5,-178 368.52,-141.14 735.34,-151.96 784.5,-142 787.54,-141.39 790.62,-140.69 793.72,-139.93"/>
<polygon fill="midnightblue" stroke="midnightblue" points="688.56,-284.91 698.75,-282.02 688.98,-277.92 688.56,-284.91"/>
</g>
<!-- Node20 -->
<g id="node20" class="node">
<title>Node20</title>
<g id="a_node20"><a xlink:href="InputManager_8cpp.html" target="_top" xlink:title=" ">
<polygon fill="white" stroke="black" points="1132,-189.5 1132,-219.5 1335,-219.5 1335,-189.5 1132,-189.5"/>
<text text-anchor="start" x="1140" y="-207.5" font-family="Helvetica,sans-Serif" font-size="10.00">/home/runner/work/EX</text>
<text text-anchor="middle" x="1233.5" y="-196.5" font-family="Helvetica,sans-Serif" font-size="10.00">&#45;Display/EX&#45;Display/InputManager.cpp</text>
</a>
</g>
</g>
<!-- Node19&#45;&gt;Node20 -->
<g id="edge25" class="edge">
<title>Node19&#45;&gt;Node20</title>
<path fill="none" stroke="midnightblue" d="M877.88,-271.07C885.19,-269.69 892.48,-268.32 899.5,-267 987.59,-250.5 1088.82,-231.91 1156.53,-219.53"/>
<polygon fill="midnightblue" stroke="midnightblue" points="877.1,-267.66 867.92,-272.96 878.4,-274.53 877.1,-267.66"/>
</g>
<!-- Node21 -->
<g id="node21" class="node">
<title>Node21</title>
<g id="a_node21"><a xlink:href="test__InputManager_8cpp.html" target="_top" xlink:title=" ">
<polygon fill="white" stroke="black" points="903.5,-178.5 903.5,-230.5 1037.5,-230.5 1037.5,-178.5 903.5,-178.5"/>
<text text-anchor="start" x="911.5" y="-218.5" font-family="Helvetica,sans-Serif" font-size="10.00">/home/runner/work/EX</text>
<text text-anchor="start" x="911.5" y="-207.5" font-family="Helvetica,sans-Serif" font-size="10.00">&#45;Display/EX&#45;Display/test</text>
<text text-anchor="start" x="911.5" y="-196.5" font-family="Helvetica,sans-Serif" font-size="10.00">/unit/test_InputManager</text>
<text text-anchor="middle" x="970.5" y="-185.5" font-family="Helvetica,sans-Serif" font-size="10.00">/test_InputManager.cpp</text>
</a>
</g>
</g>
<!-- Node19&#45;&gt;Node21 -->
<g id="edge28" class="edge">
<title>Node19&#45;&gt;Node21</title>
<path fill="none" stroke="midnightblue" d="M834.04,-268.69C858.37,-257.42 889.88,-242.83 916.5,-230.51"/>
<polygon fill="midnightblue" stroke="midnightblue" points="832.36,-265.61 824.76,-272.99 835.3,-271.96 832.36,-265.61"/>
</g>
<!-- Node23 -->
<g id="node23" class="node">
<title>Node23</title>
<g id="a_node23"><a xlink:href="test__DebounceHoldInput_8cpp.html" target="_top" xlink:title=" ">
<polygon fill="white" stroke="black" points="2106.5,-178.5 2106.5,-230.5 2294.5,-230.5 2294.5,-178.5 2106.5,-178.5"/>
<text text-anchor="start" x="2114.5" y="-218.5" font-family="Helvetica,sans-Serif" font-size="10.00">/home/runner/work/EX</text>
<text text-anchor="start" x="2114.5" y="-207.5" font-family="Helvetica,sans-Serif" font-size="10.00">&#45;Display/EX&#45;Display/test</text>
<text text-anchor="start" x="2114.5" y="-196.5" font-family="Helvetica,sans-Serif" font-size="10.00">/unit/test_Input/test_DebounceHold</text>
<text text-anchor="middle" x="2200.5" y="-185.5" font-family="Helvetica,sans-Serif" font-size="10.00">Input.cpp</text>
</a>
</g>
</g>
<!-- Node22&#45;&gt;Node23 -->
<g id="edge30" class="edge">
<title>Node22&#45;&gt;Node23</title>
<path fill="none" stroke="midnightblue" d="M1610.11,-267.06C1823.95,-234.58 1882.98,-263.34 2092.5,-231 2097.07,-230.29 2101.73,-229.5 2106.43,-228.63"/>
<polygon fill="midnightblue" stroke="midnightblue" points="1609.49,-263.61 1600.14,-268.6 1610.56,-270.53 1609.49,-263.61"/>
</g>
<!-- Node24&#45;&gt;Node10 -->
<g id="edge32" class="edge">
<title>Node24&#45;&gt;Node10</title>
<path fill="none" stroke="midnightblue" d="M1223.08,-267.49C1328.67,-260.35 2028.59,-263.27 2059.5,-231 2075.79,-213.99 2075.53,-195.26 2059.5,-178 2009.73,-124.38 1517.14,-117.15 1317.19,-116.43"/>
<polygon fill="midnightblue" stroke="midnightblue" points="1222.51,-264.03 1212.89,-268.46 1223.18,-271 1222.51,-264.03"/>
</g>
<!-- Node24&#45;&gt;Node12 -->
<g id="edge33" class="edge">
<title>Node24&#45;&gt;Node12</title>
<path fill="none" stroke="midnightblue" d="M1126.54,-259.04C1108.56,-234.5 1079.46,-199.46 1046.5,-178 1046.17,-177.78 981.86,-156.42 929.17,-138.94"/>
<polygon fill="midnightblue" stroke="midnightblue" points="1123.75,-261.16 1132.42,-267.24 1129.44,-257.08 1123.75,-261.16"/>
</g>
<!-- Node24&#45;&gt;Node21 -->
<g id="edge35" class="edge">
<title>Node24&#45;&gt;Node21</title>
<path fill="none" stroke="midnightblue" d="M1094.4,-263.2C1072.39,-252.95 1046.65,-240.96 1024.35,-230.58"/>
<polygon fill="midnightblue" stroke="midnightblue" points="1093.04,-266.43 1103.58,-267.48 1096,-260.08 1093.04,-266.43"/>
</g>
<!-- Node25 -->
<g id="node25" class="node">
<title>Node25</title>
<g id="a_node25"><a xlink:href="test__InputInterface_8cpp.html" target="_top" xlink:title=" ">
<polygon fill="white" stroke="black" points="1353.5,-184 1353.5,-225 1559.5,-225 1559.5,-184 1353.5,-184"/>
<text text-anchor="start" x="1361.5" y="-213" font-family="Helvetica,sans-Serif" font-size="10.00">/home/runner/work/EX</text>
<text text-anchor="start" x="1361.5" y="-202" font-family="Helvetica,sans-Serif" font-size="10.00">&#45;Display/EX&#45;Display/test</text>
<text text-anchor="middle" x="1456.5" y="-191" font-family="Helvetica,sans-Serif" font-size="10.00">/unit/test_Input/test_InputInterface.cpp</text>
</a>
</g>
</g>
<!-- Node24&#45;&gt;Node25 -->
<g id="edge34" class="edge">
<title>Node24&#45;&gt;Node25</title>
<path fill="none" stroke="midnightblue" d="M1222.51,-266.74C1281.49,-251.26 1338.12,-236.44 1381.88,-225"/>
<polygon fill="midnightblue" stroke="midnightblue" points="1221.42,-263.4 1212.64,-269.33 1223.2,-270.17 1221.42,-263.4"/>
</g>
<!-- Node27 -->
<g id="node27" class="node">
<title>Node27</title>
<g id="a_node27"><a xlink:href="test__TouchScreenInput_8cpp.html" target="_top" xlink:title=" ">
<polygon fill="white" stroke="black" points="2312.5,-178.5 2312.5,-230.5 2490.5,-230.5 2490.5,-178.5 2312.5,-178.5"/>
<text text-anchor="start" x="2320.5" y="-218.5" font-family="Helvetica,sans-Serif" font-size="10.00">/home/runner/work/EX</text>
<text text-anchor="start" x="2320.5" y="-207.5" font-family="Helvetica,sans-Serif" font-size="10.00">&#45;Display/EX&#45;Display/test</text>
<text text-anchor="start" x="2320.5" y="-196.5" font-family="Helvetica,sans-Serif" font-size="10.00">/unit/test_Input/test_TouchScreen</text>
<text text-anchor="middle" x="2401.5" y="-185.5" font-family="Helvetica,sans-Serif" font-size="10.00">Input.cpp</text>
</a>
</g>
</g>
<!-- Node26&#45;&gt;Node27 -->
<g id="edge37" class="edge">
<title>Node26&#45;&gt;Node27</title>
<path fill="none" stroke="midnightblue" d="M1804.19,-267.04C1804.3,-267.03 1804.4,-267.01 1804.5,-267 2024.78,-236.71 2084.1,-267.15 2303.5,-231 2306.45,-230.51 2309.44,-229.98 2312.45,-229.41"/>
<polygon fill="midnightblue" stroke="midnightblue" points="1803.94,-263.54 1794.56,-268.47 1804.96,-270.47 1803.94,-263.54"/>
</g>
<!-- Node28&#45;&gt;Node20 -->
<g id="edge39" class="edge">
<title>Node28&#45;&gt;Node20</title>
<path fill="none" stroke="midnightblue" d="M1802.83,-267.07C1599.94,-233.75 1543.51,-261.49 1344.5,-231 1325.74,-228.13 1305.44,-223.82 1287.39,-219.56"/>
<polygon fill="midnightblue" stroke="midnightblue" points="1802.48,-270.56 1812.92,-268.76 1803.63,-263.66 1802.48,-270.56"/>
</g>
<!-- Node29 -->
<g id="node29" class="node">
<title>Node29</title>
<g id="a_node29"><a xlink:href="TFT__eSPITouch_8cpp.html" target="_top" xlink:title=" ">
<polygon fill="white" stroke="black" points="2509,-184 2509,-225 2642,-225 2642,-184 2509,-184"/>
<text text-anchor="start" x="2517" y="-213" font-family="Helvetica,sans-Serif" font-size="10.00">/home/runner/work/EX</text>
<text text-anchor="start" x="2517" y="-202" font-family="Helvetica,sans-Serif" font-size="10.00">&#45;Display/EX&#45;Display/TFT</text>
<text text-anchor="middle" x="2575.5" y="-191" font-family="Helvetica,sans-Serif" font-size="10.00">_eSPITouch.cpp</text>
</a>
</g>
</g>
<!-- Node28&#45;&gt;Node29 -->
<g id="edge40" class="edge">
<title>Node28&#45;&gt;Node29</title>
<path fill="none" stroke="midnightblue" d="M1956.33,-272.53C1969.05,-270.46 1982.12,-268.51 1994.5,-267 2217.85,-239.69 2278.86,-275.14 2499.5,-231 2507.14,-229.47 2515.08,-227.39 2522.81,-225.07"/>
<polygon fill="midnightblue" stroke="midnightblue" points="1955.51,-269.12 1946.22,-274.22 1956.66,-276.02 1955.51,-269.12"/>
</g>
<!-- Node30&#45;&gt;Node9 -->
<g id="edge43" class="edge">
<title>Node30&#45;&gt;Node9</title>
<path fill="none" stroke="midnightblue" d="M2674.59,-257.21C2676.18,-232.02 2673.66,-197.09 2651.5,-178 2587.92,-123.24 1224.66,-153.24 1141.5,-142 1138.24,-141.56 1134.94,-141.06 1131.62,-140.5"/>
<polygon fill="midnightblue" stroke="midnightblue" points="2671.09,-257.06 2673.7,-267.33 2678.06,-257.67 2671.09,-257.06"/>
</g>
<!-- Node30&#45;&gt;Node10 -->
<g id="edge44" class="edge">
<title>Node30&#45;&gt;Node10</title>
<path fill="none" stroke="midnightblue" d="M2685.52,-257.94C2695.89,-233.37 2704.55,-198.91 2684.5,-178 2636.97,-128.41 1618.76,-118.68 1317.04,-116.89"/>
<polygon fill="midnightblue" stroke="midnightblue" points="2682.29,-256.59 2681.37,-267.15 2688.67,-259.47 2682.29,-256.59"/>
</g>
<!-- Node30&#45;&gt;Node14 -->
<g id="edge46" class="edge">
<title>Node30&#45;&gt;Node14</title>
<path fill="none" stroke="midnightblue" d="M2593.08,-282.32C2482.63,-275 2273.68,-258.71 2097.5,-231 2082.1,-228.58 2065.68,-225.39 2050.16,-222.08"/>
<polygon fill="midnightblue" stroke="midnightblue" points="2592.93,-285.82 2603.13,-282.98 2593.38,-278.84 2592.93,-285.82"/>
</g>
<!-- Node30&#45;&gt;Node15 -->
<g id="edge48" class="edge">
<title>Node30&#45;&gt;Node15</title>
<path fill="none" stroke="midnightblue" d="M2593.17,-287.17C2453.83,-286.2 2151.9,-278.23 1902.5,-231 1899.42,-230.42 1896.3,-229.76 1893.16,-229.04"/>
<polygon fill="midnightblue" stroke="midnightblue" points="2593.3,-290.67 2603.32,-287.23 2593.34,-283.68 2593.3,-290.67"/>
</g>
<!-- Node31 -->
<g id="node31" class="node">
<title>Node31</title>
<g id="a_node31"><a xlink:href="test__DisplayCreation_8cpp.html" target="_top" xlink:title=" ">
<polygon fill="white" stroke="black" points="2736.5,-178.5 2736.5,-230.5 2878.5,-230.5 2878.5,-178.5 2736.5,-178.5"/>
<text text-anchor="start" x="2744.5" y="-218.5" font-family="Helvetica,sans-Serif" font-size="10.00">/home/runner/work/EX</text>
<text text-anchor="start" x="2744.5" y="-207.5" font-family="Helvetica,sans-Serif" font-size="10.00">&#45;Display/EX&#45;Display/test</text>
<text text-anchor="start" x="2744.5" y="-196.5" font-family="Helvetica,sans-Serif" font-size="10.00">/integration/test_Display</text>
<text text-anchor="middle" x="2807.5" y="-185.5" font-family="Helvetica,sans-Serif" font-size="10.00">/test_DisplayCreation.cpp</text>
</a>
</g>
</g>
<!-- Node30&#45;&gt;Node31 -->
<g id="edge45" class="edge">
<title>Node30&#45;&gt;Node31</title>
<path fill="none" stroke="midnightblue" d="M2712.36,-262.1C2729.17,-252.1 2748.51,-240.59 2765.35,-230.58"/>
<polygon fill="midnightblue" stroke="midnightblue" points="2710.12,-259.36 2703.31,-267.48 2713.7,-265.37 2710.12,-259.36"/>
</g>
<!-- Node32 -->
<g id="node32" class="node">
<title>Node32</title>
<g id="a_node32"><a xlink:href="test__DisplayInterface_8cpp.html" target="_top" xlink:title=" ">
<polygon fill="white" stroke="black" points="2896.5,-178.5 2896.5,-230.5 3030.5,-230.5 3030.5,-178.5 2896.5,-178.5"/>
<text text-anchor="start" x="2904.5" y="-218.5" font-family="Helvetica,sans-Serif" font-size="10.00">/home/runner/work/EX</text>
<text text-anchor="start" x="2904.5" y="-207.5" font-family="Helvetica,sans-Serif" font-size="10.00">&#45;Display/EX&#45;Display/test</text>
<text text-anchor="start" x="2904.5" y="-196.5" font-family="Helvetica,sans-Serif" font-size="10.00">/unit/test_Display/test</text>
<text text-anchor="middle" x="2963.5" y="-185.5" font-family="Helvetica,sans-Serif" font-size="10.00">_DisplayInterface.cpp</text>
</a>
</g>
</g>
<!-- Node30&#45;&gt;Node32 -->
<g id="edge47" class="edge">
<title>Node30&#45;&gt;Node32</title>
<path fill="none" stroke="midnightblue" d="M2747.6,-268.52C2789.23,-258.19 2841.4,-244.66 2887.5,-231 2890.44,-230.13 2893.43,-229.22 2896.45,-228.29"/>
<polygon fill="midnightblue" stroke="midnightblue" points="2746.67,-265.15 2737.8,-270.94 2748.35,-271.94 2746.67,-265.15"/>
</g>
<!-- Node33&#45;&gt;Node16 -->
<g id="edge50" class="edge">
<title>Node33&#45;&gt;Node16</title>
<path fill="none" stroke="midnightblue" d="M748.97,-341.22C682.1,-311.51 568.22,-260.91 500,-230.6"/>
<polygon fill="midnightblue" stroke="midnightblue" points="747.92,-344.58 758.48,-345.44 750.76,-338.18 747.92,-344.58"/>
</g>
<!-- Node34&#45;&gt;Node13 -->
<g id="edge52" class="edge">
<title>Node34&#45;&gt;Node13</title>
<path fill="none" stroke="midnightblue" d="M1947.68,-336.5C1960.72,-315.22 1972.06,-286.55 1955.5,-267 1924.05,-229.87 1786.92,-241.94 1739.5,-231 1731.91,-229.25 1724.01,-227.21 1716.2,-225.06"/>
<polygon fill="midnightblue" stroke="midnightblue" points="1944.59,-334.83 1942.06,-345.12 1950.45,-338.65 1944.59,-334.83"/>
</g>
<!-- Node34&#45;&gt;Node28 -->
<g id="edge54" class="edge">
<title>Node34&#45;&gt;Node28</title>
<path fill="none" stroke="midnightblue" d="M1909.03,-336.76C1903.22,-327.35 1896.88,-317.1 1891.56,-308.51"/>
<polygon fill="midnightblue" stroke="midnightblue" points="1906.16,-338.76 1914.4,-345.43 1912.11,-335.08 1906.16,-338.76"/>
</g>
<!-- Node35 -->
<g id="node35" class="node">
<title>Node35</title>
<g id="a_node35"><a xlink:href="TFT__eSPIDisplay_8cpp.html" target="_top" xlink:title=" ">
<polygon fill="white" stroke="black" points="2003,-267.5 2003,-308.5 2136,-308.5 2136,-267.5 2003,-267.5"/>
<text text-anchor="start" x="2011" y="-296.5" font-family="Helvetica,sans-Serif" font-size="10.00">/home/runner/work/EX</text>
<text text-anchor="start" x="2011" y="-285.5" font-family="Helvetica,sans-Serif" font-size="10.00">&#45;Display/EX&#45;Display/TFT</text>
<text text-anchor="middle" x="2069.5" y="-274.5" font-family="Helvetica,sans-Serif" font-size="10.00">_eSPIDisplay.cpp</text>
</a>
</g>
</g>
<!-- Node34&#45;&gt;Node35 -->
<g id="edge53" class="edge">
<title>Node34&#45;&gt;Node35</title>
<path fill="none" stroke="midnightblue" d="M1972.36,-340.63C1991.9,-330.24 2014.39,-318.29 2032.8,-308.51"/>
<polygon fill="midnightblue" stroke="midnightblue" points="1970.51,-337.64 1963.33,-345.43 1973.8,-343.83 1970.51,-337.64"/>
</g>
</g>
</svg>
