<?xml version="1.0" encoding="UTF-8" standalone="no"?>
<!DOCTYPE svg PUBLIC "-//W3C//DTD SVG 1.1//EN"
 "http://www.w3.org/Graphics/SVG/1.1/DTD/svg11.dtd">
<!-- Generated by graphviz version 2.43.0 (0)
 -->
<!-- Title: /home/runner/work/EX&#45;Display/EX&#45;Display/EX&#45;Display.ino Pages: 1 -->
<svg width="443pt" height="386pt"
 viewBox="0.00 0.00 442.90 386.00" xmlns="http://www.w3.org/2000/svg" xmlns:xlink="http://www.w3.org/1999/xlink">
<g id="graph0" class="graph" transform="scale(1 1) rotate(0) translate(4 382)">
<title>/home/runner/work/EX&#45;Display/EX&#45;Display/EX&#45;Display.ino</title>
<polygon fill="white" stroke="transparent" points="-4,4 -4,-382 438.9,-382 438.9,4 -4,4"/>
<!-- Node1 -->
<g id="node1" class="node">
<title>Node1</title>
<g id="a_node1"><a xlink:title=" ">
<polygon fill="#bfbfbf" stroke="black" points="106.5,-336.5 106.5,-377.5 234.5,-377.5 234.5,-336.5 106.5,-336.5"/>
<text text-anchor="start" x="114.5" y="-365.5" font-family="Helvetica,sans-Serif" font-size="10.00">/home/runner/work/EX</text>
<text text-anchor="start" x="114.5" y="-354.5" font-family="Helvetica,sans-Serif" font-size="10.00">&#45;Display/EX&#45;Display/EX</text>
<text text-anchor="middle" x="170.5" y="-343.5" font-family="Helvetica,sans-Serif" font-size="10.00">&#45;Display.ino</text>
</a>
</g>
</g>
<!-- Node2 -->
<g id="node2" class="node">
<title>Node2</title>
<g id="a_node2"><a xlink:href="Configurator_8h.html" target="_top" xlink:title=" ">
<polygon fill="white" stroke="black" points="128,-280.5 128,-299.5 213,-299.5 213,-280.5 128,-280.5"/>
<text text-anchor="middle" x="170.5" y="-287.5" font-family="Helvetica,sans-Serif" font-size="10.00">Configurator.h</text>
</a>
</g>
</g>
<!-- Node1&#45;&gt;Node2 -->
<g id="edge1" class="edge">
<title>Node1&#45;&gt;Node2</title>
<path fill="none" stroke="midnightblue" d="M170.5,-336.5C170.5,-328.07 170.5,-318.24 170.5,-309.87"/>
<polygon fill="midnightblue" stroke="midnightblue" points="174,-309.65 170.5,-299.65 167,-309.65 174,-309.65"/>
</g>
<!-- Node3 -->
<g id="node3" class="node">
<title>Node3</title>
<g id="a_node3"><a xlink:href="Controller_8h.html" target="_top" xlink:title=" ">
<polygon fill="white" stroke="black" points="233,-224.5 233,-243.5 306,-243.5 306,-224.5 233,-224.5"/>
<text text-anchor="middle" x="269.5" y="-231.5" font-family="Helvetica,sans-Serif" font-size="10.00">Controller.h</text>
</a>
</g>
</g>
<!-- Node2&#45;&gt;Node3 -->
<g id="edge2" class="edge">
<title>Node2&#45;&gt;Node3</title>
<path fill="none" stroke="midnightblue" d="M186.4,-280.32C202.14,-271.74 226.44,-258.49 244.71,-248.52"/>
<polygon fill="midnightblue" stroke="midnightblue" points="246.53,-251.52 253.63,-243.65 243.18,-245.37 246.53,-251.52"/>
</g>
<!-- Node6 -->
<g id="node5" class="node">
<title>Node6</title>
<g id="a_node5"><a xlink:href="Logger_8h.html" target="_top" xlink:title=" ">
<polygon fill="white" stroke="black" points="127.5,-56.5 127.5,-75.5 185.5,-75.5 185.5,-56.5 127.5,-56.5"/>
<text text-anchor="middle" x="156.5" y="-63.5" font-family="Helvetica,sans-Serif" font-size="10.00">Logger.h</text>
</a>
</g>
</g>
<!-- Node2&#45;&gt;Node6 -->
<g id="edge21" class="edge">
<title>Node2&#45;&gt;Node6</title>
<path fill="none" stroke="midnightblue" d="M147.59,-280.41C129.19,-272.76 103.4,-260.26 84.5,-244 37.73,-203.77 21.67,-190.64 2.5,-132 -13.49,-83.1 66.52,-70.75 117.24,-67.79"/>
<polygon fill="midnightblue" stroke="midnightblue" points="117.44,-71.28 127.26,-67.3 117.1,-64.29 117.44,-71.28"/>
</g>
<!-- Node13 -->
<g id="node7" class="node">
<title>Node13</title>
<g id="a_node7"><a xlink:href="DisplayManager_8h.html" target="_top" xlink:title=" ">
<polygon fill="white" stroke="red" points="217.5,-168.5 217.5,-187.5 321.5,-187.5 321.5,-168.5 217.5,-168.5"/>
<text text-anchor="middle" x="269.5" y="-175.5" font-family="Helvetica,sans-Serif" font-size="10.00">DisplayManager.h</text>
</a>
</g>
</g>
<!-- Node2&#45;&gt;Node13 -->
<g id="edge19" class="edge">
<title>Node2&#45;&gt;Node13</title>
<path fill="none" stroke="midnightblue" d="M177.24,-280.37C187.24,-267.72 206.7,-243.51 224.5,-224 233.62,-214 244.31,-203.27 252.99,-194.79"/>
<polygon fill="midnightblue" stroke="midnightblue" points="255.53,-197.2 260.28,-187.73 250.66,-192.17 255.53,-197.2"/>
</g>
<!-- Node15 -->
<g id="node8" class="node">
<title>Node15</title>
<g id="a_node8"><a xlink:href="ScreenManager_8h.html" target="_top" xlink:title=" ">
<polygon fill="white" stroke="red" points="298,-112.5 298,-131.5 399,-131.5 399,-112.5 298,-112.5"/>
<text text-anchor="middle" x="348.5" y="-119.5" font-family="Helvetica,sans-Serif" font-size="10.00">ScreenManager.h</text>
</a>
</g>
</g>
<!-- Node2&#45;&gt;Node15 -->
<g id="edge22" class="edge">
<title>Node2&#45;&gt;Node15</title>
<path fill="none" stroke="midnightblue" d="M213.04,-284.11C244.16,-278.69 285.94,-267.39 315.5,-244 338.15,-226.07 340.9,-215.87 348.5,-188 352.63,-172.84 352.27,-154.95 351.08,-141.78"/>
<polygon fill="midnightblue" stroke="midnightblue" points="354.53,-141.14 349.91,-131.6 347.57,-141.94 354.53,-141.14"/>
</g>
<!-- Node18 -->
<g id="node9" class="node">
<title>Node18</title>
<g id="a_node9"><a xlink:href="InputManager_8h.html" target="_top" xlink:title=" ">
<polygon fill="white" stroke="red" points="69.5,-168.5 69.5,-187.5 161.5,-187.5 161.5,-168.5 69.5,-168.5"/>
<text text-anchor="middle" x="115.5" y="-175.5" font-family="Helvetica,sans-Serif" font-size="10.00">InputManager.h</text>
</a>
</g>
</g>
<!-- Node2&#45;&gt;Node18 -->
<g id="edge20" class="edge">
<title>Node2&#45;&gt;Node18</title>
<path fill="none" stroke="midnightblue" d="M166.18,-280.37C157.18,-262.38 136.27,-220.55 124.31,-196.63"/>
<polygon fill="midnightblue" stroke="midnightblue" points="127.4,-194.97 119.79,-187.59 121.13,-198.1 127.4,-194.97"/>
</g>
<!-- Node19 -->
<g id="node10" class="node">
<title>Node19</title>
<g id="a_node10"><a xlink:href="Defines_8h.html" target="_top" xlink:title=" ">
<polygon fill="white" stroke="black" points="11.5,-112.5 11.5,-131.5 73.5,-131.5 73.5,-112.5 11.5,-112.5"/>
<text text-anchor="middle" x="42.5" y="-119.5" font-family="Helvetica,sans-Serif" font-size="10.00">Defines.h</text>
</a>
</g>
</g>
<!-- Node2&#45;&gt;Node19 -->
<g id="edge18" class="edge">
<title>Node2&#45;&gt;Node19</title>
<path fill="none" stroke="midnightblue" d="M157.09,-280.46C133.84,-264.93 86.07,-229.8 60.5,-188 51.81,-173.8 47.22,-155.32 44.85,-141.7"/>
<polygon fill="midnightblue" stroke="midnightblue" points="48.29,-140.97 43.35,-131.6 41.36,-142 48.29,-140.97"/>
</g>
<!-- Node4 -->
<g id="node4" class="node">
<title>Node4</title>
<g id="a_node4"><a xlink:href="CallbackInterface_8h.html" target="_top" xlink:title=" ">
<polygon fill="white" stroke="red" points="130,-112.5 130,-131.5 241,-131.5 241,-112.5 130,-112.5"/>
<text text-anchor="middle" x="185.5" y="-119.5" font-family="Helvetica,sans-Serif" font-size="10.00">CallbackInterface.h</text>
</a>
</g>
</g>
<!-- Node3&#45;&gt;Node4 -->
<g id="edge3" class="edge">
<title>Node3&#45;&gt;Node4</title>
<path fill="none" stroke="midnightblue" d="M252.83,-224.4C239.17,-216.58 220.25,-203.86 208.5,-188 198.26,-174.19 192.27,-155.42 188.99,-141.6"/>
<polygon fill="midnightblue" stroke="midnightblue" points="192.4,-140.82 186.9,-131.77 185.55,-142.27 192.4,-140.82"/>
</g>
<!-- Node3&#45;&gt;Node6 -->
<g id="edge15" class="edge">
<title>Node3&#45;&gt;Node6</title>
<path fill="none" stroke="midnightblue" d="M294.69,-224.38C344.83,-205.93 448.96,-160.33 408.5,-112 381.81,-80.12 259.54,-70.81 195.65,-68.1"/>
<polygon fill="midnightblue" stroke="midnightblue" points="195.68,-64.6 185.55,-67.7 195.4,-71.59 195.68,-64.6"/>
</g>
<!-- Node7 -->
<g id="node6" class="node">
<title>Node7</title>
<g id="a_node6"><a xlink:href="Arduino_8h.html" target="_top" xlink:title=" ">
<polygon fill="white" stroke="red" points="182,-0.5 182,-19.5 245,-19.5 245,-0.5 182,-0.5"/>
<text text-anchor="middle" x="213.5" y="-7.5" font-family="Helvetica,sans-Serif" font-size="10.00">Arduino.h</text>
</a>
</g>
</g>
<!-- Node3&#45;&gt;Node7 -->
<g id="edge17" class="edge">
<title>Node3&#45;&gt;Node7</title>
<path fill="none" stroke="midnightblue" d="M306.02,-228.63C335.05,-223.42 375.03,-212.16 401.5,-188 427.76,-164.03 445.51,-142.05 426.5,-112 388.84,-52.46 305.51,-27.33 254.97,-17.25"/>
<polygon fill="midnightblue" stroke="midnightblue" points="255.49,-13.78 245.01,-15.37 254.19,-20.66 255.49,-13.78"/>
</g>
<!-- Node3&#45;&gt;Node13 -->
<g id="edge7" class="edge">
<title>Node3&#45;&gt;Node13</title>
<path fill="none" stroke="midnightblue" d="M269.5,-224.08C269.5,-217.01 269.5,-206.86 269.5,-197.99"/>
<polygon fill="midnightblue" stroke="midnightblue" points="273,-197.75 269.5,-187.75 266,-197.75 273,-197.75"/>
</g>
<!-- Node3&#45;&gt;Node15 -->
<g id="edge16" class="edge">
<title>Node3&#45;&gt;Node15</title>
<path fill="none" stroke="midnightblue" d="M286.73,-224.45C300.54,-216.75 319.38,-204.15 330.5,-188 339.93,-174.28 344.44,-155.75 346.58,-141.99"/>
<polygon fill="midnightblue" stroke="midnightblue" points="350.1,-142.11 347.88,-131.75 343.15,-141.23 350.1,-142.11"/>
</g>
<!-- Node3&#45;&gt;Node18 -->
<g id="edge10" class="edge">
<title>Node3&#45;&gt;Node18</title>
<path fill="none" stroke="midnightblue" d="M245.1,-224.44C219.3,-215.4 178.42,-201.06 149.48,-190.92"/>
<polygon fill="midnightblue" stroke="midnightblue" points="150.38,-187.52 139.78,-187.52 148.06,-194.13 150.38,-187.52"/>
</g>
<!-- Node4&#45;&gt;Node6 -->
<g id="edge4" class="edge">
<title>Node4&#45;&gt;Node6</title>
<path fill="none" stroke="midnightblue" d="M180.71,-112.08C176.74,-104.69 170.97,-93.95 166.06,-84.81"/>
<polygon fill="midnightblue" stroke="midnightblue" points="169.01,-82.91 161.2,-75.75 162.84,-86.22 169.01,-82.91"/>
</g>
<!-- Node4&#45;&gt;Node7 -->
<g id="edge6" class="edge">
<title>Node4&#45;&gt;Node7</title>
<path fill="none" stroke="midnightblue" d="M187.69,-112.37C192.21,-94.62 202.64,-53.67 208.76,-29.6"/>
<polygon fill="midnightblue" stroke="midnightblue" points="212.24,-30.15 211.31,-19.59 205.45,-28.42 212.24,-30.15"/>
</g>
<!-- Node6&#45;&gt;Node7 -->
<g id="edge5" class="edge">
<title>Node6&#45;&gt;Node7</title>
<path fill="none" stroke="midnightblue" d="M165.65,-56.32C174,-48.42 186.53,-36.55 196.67,-26.94"/>
<polygon fill="midnightblue" stroke="midnightblue" points="199.32,-29.25 204.17,-19.83 194.51,-24.17 199.32,-29.25"/>
</g>
<!-- Node13&#45;&gt;Node6 -->
<g id="edge8" class="edge">
<title>Node13&#45;&gt;Node6</title>
<path fill="none" stroke="midnightblue" d="M269.16,-168.38C268.19,-154.85 264.51,-128.48 250.5,-112 236.33,-95.33 214.57,-84.37 195.56,-77.44"/>
<polygon fill="midnightblue" stroke="midnightblue" points="196.51,-74.07 185.92,-74.18 194.27,-80.7 196.51,-74.07"/>
</g>
<!-- Node13&#45;&gt;Node15 -->
<g id="edge9" class="edge">
<title>Node13&#45;&gt;Node15</title>
<path fill="none" stroke="midnightblue" d="M282.19,-168.32C294.4,-159.98 313.08,-147.21 327.5,-137.35"/>
<polygon fill="midnightblue" stroke="midnightblue" points="329.56,-140.19 335.84,-131.65 325.6,-134.41 329.56,-140.19"/>
</g>
<!-- Node18&#45;&gt;Node4 -->
<g id="edge11" class="edge">
<title>Node18&#45;&gt;Node4</title>
<path fill="none" stroke="midnightblue" d="M126.74,-168.32C137.29,-160.18 153.3,-147.84 165.94,-138.09"/>
<polygon fill="midnightblue" stroke="midnightblue" points="168.27,-140.71 174.05,-131.83 163.99,-135.17 168.27,-140.71"/>
</g>
<!-- Node18&#45;&gt;Node6 -->
<g id="edge14" class="edge">
<title>Node18&#45;&gt;Node6</title>
<path fill="none" stroke="midnightblue" d="M114.79,-168.23C114.08,-155.4 114,-130.97 121.5,-112 125.71,-101.34 133.27,-91.12 140.29,-83.12"/>
<polygon fill="midnightblue" stroke="midnightblue" points="142.99,-85.36 147.25,-75.66 137.87,-80.59 142.99,-85.36"/>
</g>
<!-- Node18&#45;&gt;Node19 -->
<g id="edge12" class="edge">
<title>Node18&#45;&gt;Node19</title>
<path fill="none" stroke="midnightblue" d="M103.77,-168.32C92.66,-160.11 75.75,-147.6 62.51,-137.81"/>
<polygon fill="midnightblue" stroke="midnightblue" points="64.56,-134.97 54.44,-131.83 60.4,-140.59 64.56,-134.97"/>
</g>
<!-- Node19&#45;&gt;Node6 -->
<g id="edge13" class="edge">
<title>Node19&#45;&gt;Node6</title>
<path fill="none" stroke="midnightblue" d="M60.56,-112.44C79.07,-103.68 108.08,-89.94 129.35,-79.86"/>
<polygon fill="midnightblue" stroke="midnightblue" points="130.98,-82.96 138.52,-75.52 127.98,-76.63 130.98,-82.96"/>
</g>
</g>
</svg>
