<?xml version="1.0" encoding="UTF-8" standalone="no"?>
<!DOCTYPE svg PUBLIC "-//W3C//DTD SVG 1.1//EN"
 "http://www.w3.org/Graphics/SVG/1.1/DTD/svg11.dtd">
<!-- Generated by graphviz version 2.43.0 (0)
 -->
<!-- Title: setup Pages: 1 -->
<!--zoomable 475 -->

<svg id="main" version="1.1" xmlns="http://www.w3.org/2000/svg" xmlns:xlink="http://www.w3.org/1999/xlink" xml:space="preserve" onload="init(evt)">
<style type="text/css"><![CDATA[
.node, .edge {opacity: 0.7;}
.node.selected, .edge.selected {opacity: 1;}
.edge:hover path { stroke: red; }
.edge:hover polygon { stroke: red; fill: red; }
]]></style>

<defs>
  <circle id="rim" cx="0" cy="0" r="7"/>
  <circle id="rim2" cx="0" cy="0" r="3.5"/>
  <g id="zoomPlus">
    <use xlink:href="#rim" fill="#404040"><set attributeName="fill" to="#808080" begin="zoomplus.mouseover" end="zoomplus.mouseout"/></use>
    <path d="M-4,0h8M0,-4v8" fill="none" stroke="white" stroke-width="1.5" pointer-events="none"/>
  </g>
  <g id="zoomMin">
    <use xlink:href="#rim" fill="#404040"><set attributeName="fill" to="#808080" begin="zoomminus.mouseover" end="zoomminus.mouseout"/></use>
    <path d="M-4,0h8" fill="none" stroke="white" stroke-width="1.5" pointer-events="none"/>
  </g>
  <g id="arrowUp" transform="translate(30 24)">
    <use xlink:href="#rim"/>
    <path pointer-events="none" fill="none" stroke="white" stroke-width="1.5" d="M0,-3.0v7 M-2.5,-0.5L0,-3.0L2.5,-0.5"/>
  </g>
  <g id="arrowRight" transform="rotate(90) translate(36 -43)">
    <use xlink:href="#rim"/>
    <path pointer-events="none" fill="none" stroke="white" stroke-width="1.5" d="M0,-3.0v7 M-2.5,-0.5L0,-3.0L2.5,-0.5"/>
  </g>
  <g id="arrowDown" transform="rotate(180) translate(-30 -48)">
    <use xlink:href="#rim"/>
    <path pointer-events="none" fill="none" stroke="white" stroke-width="1.5" d="M0,-3.0v7 M-2.5,-0.5L0,-3.0L2.5,-0.5"/>
  </g>
  <g id="arrowLeft" transform="rotate(270) translate(-36 17)">
    <use xlink:href="#rim"/>
    <path pointer-events="none" fill="none" stroke="white" stroke-width="1.5" d="M0,-3.0v7 M-2.5,-0.5L0,-3.0L2.5,-0.5"/>
  </g>
  <g id="resetDef">
    <use xlink:href="#rim2" fill="#404040"><set attributeName="fill" to="#808080" begin="reset.mouseover" end="reset.mouseout"/></use>
  </g>
</defs>
<script type="application/ecmascript">
var viewWidth = 863;
var viewHeight = 475;
var sectionId = 'dynsection-1';
</script>
<script type="application/ecmascript" xlink:href="svg.min.js"/>
<svg id="graph" class="graph">
<g id="viewport">
<title>setup</title>
<!-- Node1 -->
<g id="Node000001" class="node">
<title>Node1</title>
<g id="a_Node000001"><a xlink:title="Main setup method, initialise Configurator here.">
<polygon fill="#999999" stroke="#666666" points="44,-270 0,-270 0,-251 44,-251 44,-270"/>
<text text-anchor="middle" x="22" y="-258" font-family="Helvetica,sans-Serif" font-size="10.00">setup</text>
</a>
</g>
</g>
<!-- Node2 -->
<g id="Node000002" class="node">
<title>Node2</title>
<g id="a_Node000002"><a xlink:href="classController.html#a1cc0b87ab9e07d21ab47d294aa5bf607" target="_top" xlink:title="Call once to start displays and input.">
<polygon fill="white" stroke="#666666" points="202,-372 104,-372 104,-353 202,-353 202,-372"/>
<text text-anchor="middle" x="153" y="-360" font-family="Helvetica,sans-Serif" font-size="10.00">Controller::begin</text>
</a>
</g>
</g>
<!-- Node1&#45;&gt;Node2 -->
<g id="edge1_Node000001_Node000002" class="edge">
<title>Node1&#45;&gt;Node2</title>
<g id="a_edge1_Node000001_Node000002"><a xlink:title=" ">
<path fill="none" stroke="#63b8ff" d="M35.37,-270.28C57.68,-287.92 104.83,-325.2 131.85,-346.57"/>
<polygon fill="#63b8ff" stroke="#63b8ff" points="129.84,-349.44 139.86,-352.9 134.18,-343.95 129.84,-349.44"/>
</a>
</g>
</g>
<!-- Node14 -->
<g id="Node000014" class="node">
<title>Node14</title>
<g id="a_Node000014"><a xlink:href="classConfigurator.html#a82c65d6d040b717d64520903c788dd79" target="_top" xlink:title="Get the Controller instance for this Configurator.">
<polygon fill="white" stroke="#666666" points="226,-270 80,-270 80,-251 226,-251 226,-270"/>
<text text-anchor="middle" x="153" y="-258" font-family="Helvetica,sans-Serif" font-size="10.00">Configurator::getController</text>
</a>
</g>
</g>
<!-- Node1&#45;&gt;Node14 -->
<g id="edge12_Node000001_Node000014" class="edge">
<title>Node1&#45;&gt;Node14</title>
<g id="a_edge12_Node000001_Node000014"><a xlink:title=" ">
<path fill="none" stroke="#63b8ff" d="M44.01,-260.5C51.48,-260.5 60.41,-260.5 69.89,-260.5"/>
<polygon fill="#63b8ff" stroke="#63b8ff" points="69.93,-264 79.93,-260.5 69.93,-257 69.93,-264"/>
</a>
</g>
</g>
<!-- Node15 -->
<g id="Node000015" class="node">
<title>Node15</title>
<g id="a_Node000015"><a xlink:href="classConfigurator.html#a25ee5e1b0a64d971232d6ecaaadd5d61" target="_top" xlink:title="Call all one&#45;shot initialisation or begin methods on startup.">
<polygon fill="white" stroke="#666666" points="215.5,-186 90.5,-186 90.5,-167 215.5,-167 215.5,-186"/>
<text text-anchor="middle" x="153" y="-174" font-family="Helvetica,sans-Serif" font-size="10.00">Configurator::initialise</text>
</a>
</g>
</g>
<!-- Node1&#45;&gt;Node15 -->
<g id="edge13_Node000001_Node000015" class="edge">
<title>Node1&#45;&gt;Node15</title>
<g id="a_edge13_Node000001_Node000015"><a xlink:title=" ">
<path fill="none" stroke="#63b8ff" d="M37.8,-250.86C60.06,-236.37 102.35,-208.83 128.76,-191.63"/>
<polygon fill="#63b8ff" stroke="#63b8ff" points="130.9,-194.41 137.37,-186.02 127.08,-188.55 130.9,-194.41"/>
</a>
</g>
</g>
<!-- Node3 -->
<g id="Node000003" class="node">
<title>Node3</title>
<g id="a_Node000003"><a xlink:href="classDisplayManager.html#aa0e0e26134a34beeb30e27c00b8e829f" target="_top" xlink:title="Calls the displayStartupInfo of all Display instances to display the version.">
<polygon fill="white" stroke="#666666" points="453,-429 262,-429 262,-410 453,-410 453,-429"/>
<text text-anchor="middle" x="357.5" y="-417" font-family="Helvetica,sans-Serif" font-size="10.00">DisplayManager::displayStartupInfo</text>
</a>
</g>
</g>
<!-- Node2&#45;&gt;Node3 -->
<g id="edge2_Node000002_Node000003" class="edge">
<title>Node2&#45;&gt;Node3</title>
<g id="a_edge2_Node000002_Node000003"><a xlink:title=" ">
<path fill="none" stroke="#63b8ff" d="M178.14,-372.09C199.83,-380.44 232.68,-392.44 262,-400.5 271.68,-403.16 282.02,-405.62 292.16,-407.82"/>
<polygon fill="#63b8ff" stroke="#63b8ff" points="291.72,-411.31 302.22,-409.94 293.16,-404.46 291.72,-411.31"/>
</a>
</g>
</g>
<!-- Node9 -->
<g id="Node000009" class="node">
<title>Node9</title>
<g id="a_Node000009"><a xlink:href="classDisplayManager.html#a270daf83b6af22558fde42034254b351" target="_top" xlink:title="Call the begin() method for all associated Display instances.">
<polygon fill="white" stroke="#666666" points="441,-391 274,-391 274,-372 441,-372 441,-391"/>
<text text-anchor="middle" x="357.5" y="-379" font-family="Helvetica,sans-Serif" font-size="10.00">DisplayManager::startDisplays</text>
</a>
</g>
</g>
<!-- Node2&#45;&gt;Node9 -->
<g id="edge6_Node000002_Node000009" class="edge">
<title>Node2&#45;&gt;Node9</title>
<g id="a_edge6_Node000002_Node000009"><a xlink:title=" ">
<path fill="none" stroke="#63b8ff" d="M202.25,-367.03C220.73,-368.76 242.49,-370.8 263.75,-372.8"/>
<polygon fill="#63b8ff" stroke="#63b8ff" points="263.51,-376.29 273.8,-373.74 264.17,-369.32 263.51,-376.29"/>
</a>
</g>
</g>
<!-- Node12 -->
<g id="Node000012" class="node">
<title>Node12</title>
<g id="a_Node000012"><a xlink:href="classInputManager.html#aa180ec01ef4c17f0f9a3d681dc99817c" target="_top" xlink:title="Start the configured input &#45; calls the InputInterface::begin() method.">
<polygon fill="white" stroke="#666666" points="426,-354 289,-354 289,-335 426,-335 426,-354"/>
<text text-anchor="middle" x="357.5" y="-342" font-family="Helvetica,sans-Serif" font-size="10.00">InputManager::startInput</text>
</a>
</g>
</g>
<!-- Node2&#45;&gt;Node12 -->
<g id="edge10_Node000002_Node000012" class="edge">
<title>Node2&#45;&gt;Node12</title>
<g id="a_edge10_Node000002_Node000012"><a xlink:title=" ">
<path fill="none" stroke="#63b8ff" d="M202.25,-358.21C225.07,-356.18 252.9,-353.71 278.6,-351.42"/>
<polygon fill="#63b8ff" stroke="#63b8ff" points="279.06,-354.9 288.71,-350.53 278.44,-347.93 279.06,-354.9"/>
</a>
</g>
</g>
<!-- Node4 -->
<g id="Node000004" class="node">
<title>Node4</title>
<g id="a_Node000004"><a xlink:href="classDisplayManager.html#abcac9213f163018979f2a226ecf53882" target="_top" xlink:title="Manually selects SPI displays that require manual selecting via the CS pin &#45; sets pin low.">
<polygon fill="#fff0f0" stroke="red" points="677,-467 489,-467 489,-448 677,-448 677,-467"/>
<text text-anchor="middle" x="583" y="-455" font-family="Helvetica,sans-Serif" font-size="10.00">DisplayManager::_selectSPIDisplay</text>
</a>
</g>
</g>
<!-- Node3&#45;&gt;Node4 -->
<g id="edge3_Node000003_Node000004" class="edge">
<title>Node3&#45;&gt;Node4</title>
<g id="a_edge3_Node000003_Node000004"><a xlink:title=" ">
<path fill="none" stroke="#63b8ff" d="M414.61,-429.04C445.3,-434.26 483.5,-440.75 515.66,-446.22"/>
<polygon fill="#63b8ff" stroke="#63b8ff" points="515.42,-449.73 525.87,-447.96 516.6,-442.83 515.42,-449.73"/>
</a>
</g>
</g>
<!-- Node8 -->
<g id="Node000008" class="node">
<title>Node8</title>
<g id="a_Node000008"><a xlink:href="classDisplayInterface.html#aedd1018ddee5891bee744cdeac36fe96" target="_top" xlink:title="Get the next DisplayInterface derived instance in the list.">
<polygon fill="white" stroke="#666666" points="855,-391 713,-391 713,-372 855,-372 855,-391"/>
<text text-anchor="middle" x="784" y="-379" font-family="Helvetica,sans-Serif" font-size="10.00">DisplayInterface::getNext</text>
</a>
</g>
</g>
<!-- Node3&#45;&gt;Node8 -->
<g id="edge5_Node000003_Node000008" class="edge">
<title>Node3&#45;&gt;Node8</title>
<g id="a_edge5_Node000003_Node000008"><a xlink:title=" ">
<path fill="none" stroke="#63b8ff" d="M453.04,-413.77C516.47,-409.58 601.85,-403.29 677,-395.5 686.08,-394.56 695.59,-393.46 705.03,-392.3"/>
<polygon fill="#63b8ff" stroke="#63b8ff" points="705.72,-395.74 715.21,-391.03 704.85,-388.8 705.72,-395.74"/>
</a>
</g>
</g>
<!-- Node4&#45;&gt;Node8 -->
<g id="edge4_Node000004_Node000008" class="edge">
<title>Node4&#45;&gt;Node8</title>
<g id="a_edge4_Node000004_Node000008"><a xlink:title=" ">
<path fill="none" stroke="#63b8ff" d="M628.56,-447.95C644.1,-444.11 661.52,-439.23 677,-433.5 705.34,-423.02 736.19,-407.36 757.27,-395.97"/>
<polygon fill="#63b8ff" stroke="#63b8ff" points="759.12,-398.94 766.21,-391.07 755.76,-392.8 759.12,-398.94"/>
</a>
</g>
</g>
<!-- Node9&#45;&gt;Node8 -->
<g id="edge9_Node000009_Node000008" class="edge">
<title>Node9&#45;&gt;Node8</title>
<g id="a_edge9_Node000009_Node000008"><a xlink:title=" ">
<path fill="none" stroke="#63b8ff" d="M441.1,-381.5C516.66,-381.5 627.75,-381.5 702.61,-381.5"/>
<polygon fill="#63b8ff" stroke="#63b8ff" points="702.92,-385 712.92,-381.5 702.92,-378 702.92,-385"/>
</a>
</g>
</g>
<!-- Node10 -->
<g id="Node000010" class="node">
<title>Node10</title>
<g id="a_Node000010"><a xlink:href="classDisplayManager.html#a33f6184fa8292c66a6cd2f05f264ef0f" target="_top" xlink:title="Set the chip select pin state for all displays that have it set and select them.">
<polygon fill="#fff0f0" stroke="red" points="656.5,-353.5 509.5,-353.5 509.5,-323.5 656.5,-323.5 656.5,-353.5"/>
<text text-anchor="start" x="517.5" y="-341.5" font-family="Helvetica,sans-Serif" font-size="10.00">DisplayManager::_setupAll</text>
<text text-anchor="middle" x="583" y="-330.5" font-family="Helvetica,sans-Serif" font-size="10.00">SPICSPins</text>
</a>
</g>
</g>
<!-- Node9&#45;&gt;Node10 -->
<g id="edge7_Node000009_Node000010" class="edge">
<title>Node9&#45;&gt;Node10</title>
<g id="a_edge7_Node000009_Node000010"><a xlink:title=" ">
<path fill="none" stroke="#63b8ff" d="M409.02,-371.91C423.25,-369.2 438.73,-366.24 453,-363.5 467.98,-360.62 483.93,-357.54 499.33,-354.56"/>
<polygon fill="#63b8ff" stroke="#63b8ff" points="500.2,-357.96 509.35,-352.62 498.87,-351.09 500.2,-357.96"/>
</a>
</g>
</g>
<!-- Node10&#45;&gt;Node8 -->
<g id="edge8_Node000010_Node000008" class="edge">
<title>Node10&#45;&gt;Node8</title>
<g id="a_edge8_Node000010_Node000008"><a xlink:title=" ">
<path fill="none" stroke="#63b8ff" d="M653.6,-353.54C678.3,-358.88 705.71,-364.8 728.93,-369.82"/>
<polygon fill="#63b8ff" stroke="#63b8ff" points="728.42,-373.29 738.93,-371.98 729.9,-366.44 728.42,-373.29"/>
</a>
</g>
</g>
<!-- Node13 -->
<g id="Node000013" class="node">
<title>Node13</title>
<g id="a_Node000013"><a xlink:href="classInputInterface.html#a3a54545cc1cd9a852ed6b598aea53b11" target="_top" xlink:title="Perform any initial once off setup or configuration here and call only once.">
<polygon fill="white" stroke="#666666" points="642,-305 524,-305 524,-286 642,-286 642,-305"/>
<text text-anchor="middle" x="583" y="-293" font-family="Helvetica,sans-Serif" font-size="10.00">InputInterface::begin</text>
</a>
</g>
</g>
<!-- Node12&#45;&gt;Node13 -->
<g id="edge11_Node000012_Node000013" class="edge">
<title>Node12&#45;&gt;Node13</title>
<g id="a_edge11_Node000012_Node000013"><a xlink:title=" ">
<path fill="none" stroke="#63b8ff" d="M415.24,-334.97C427.75,-332.51 440.88,-329.66 453,-326.5 469.32,-322.25 472.71,-318.86 489,-314.5 498.89,-311.85 509.46,-309.37 519.8,-307.13"/>
<polygon fill="#63b8ff" stroke="#63b8ff" points="520.54,-310.55 529.6,-305.06 519.1,-303.7 520.54,-310.55"/>
</a>
</g>
</g>
<!-- Node16 -->
<g id="Node000016" class="node">
<title>Node16</title>
<g id="a_Node000016"><a xlink:href="classDisplayManager.html#a9ade9b696372a53b8b716d29d7b53c70" target="_top" xlink:title="Parses the displays configured in myConfig.h and creates the list of displays (this is implemented in...">
<polygon fill="white" stroke="#666666" points="445,-317 270,-317 270,-298 445,-298 445,-317"/>
<text text-anchor="middle" x="357.5" y="-305" font-family="Helvetica,sans-Serif" font-size="10.00">DisplayManager::createDisplays</text>
</a>
</g>
</g>
<!-- Node15&#45;&gt;Node16 -->
<g id="edge14_Node000015_Node000016" class="edge">
<title>Node15&#45;&gt;Node16</title>
<g id="a_edge14_Node000015_Node000016"><a xlink:title=" ">
<path fill="none" stroke="#63b8ff" d="M166.12,-186.21C180.98,-198.38 206.58,-220.23 226,-241.5 243.98,-261.19 239.37,-275.39 262,-289.5 264.61,-291.13 267.33,-292.61 270.14,-293.97"/>
<polygon fill="#63b8ff" stroke="#63b8ff" points="268.77,-297.19 279.34,-297.88 271.51,-290.75 268.77,-297.19"/>
</a>
</g>
</g>
<!-- Node17 -->
<g id="Node000017" class="node">
<title>Node17</title>
<g id="a_Node000017"><a xlink:href="classInputManager.html#a3307bd524c644992394b1f74ad9c1433" target="_top" xlink:title="Call once to create the InputInterface derived input.">
<polygon fill="white" stroke="#666666" points="430.5,-280 284.5,-280 284.5,-261 430.5,-261 430.5,-280"/>
<text text-anchor="middle" x="357.5" y="-268" font-family="Helvetica,sans-Serif" font-size="10.00">InputManager::createInput</text>
</a>
</g>
</g>
<!-- Node15&#45;&gt;Node17 -->
<g id="edge15_Node000015_Node000017" class="edge">
<title>Node15&#45;&gt;Node17</title>
<g id="a_edge15_Node000015_Node000017"><a xlink:title=" ">
<path fill="none" stroke="#63b8ff" d="M165.88,-186.09C185.02,-201.08 224.33,-230.04 262,-246.5 272.68,-251.16 284.45,-255.06 295.95,-258.25"/>
<polygon fill="#63b8ff" stroke="#63b8ff" points="295.39,-261.72 305.95,-260.89 297.17,-254.96 295.39,-261.72"/>
</a>
</g>
</g>
<!-- Node18 -->
<g id="Node000018" class="node">
<title>Node18</title>
<g id="a_Node000018"><a xlink:href="classDisplayManager.html#a0dcf69d16599029ba34bf31c0c666390" target="_top" xlink:title="Get a DisplayInterface derived instance by its ID.">
<polygon fill="white" stroke="#666666" points="671,-255 495,-255 495,-236 671,-236 671,-255"/>
<text text-anchor="middle" x="583" y="-243" font-family="Helvetica,sans-Serif" font-size="10.00">DisplayManager::getDisplayById</text>
</a>
</g>
</g>
<!-- Node15&#45;&gt;Node18 -->
<g id="edge16_Node000015_Node000018" class="edge">
<title>Node15&#45;&gt;Node18</title>
<g id="a_edge16_Node000015_Node000018"><a xlink:title=" ">
<path fill="none" stroke="#63b8ff" d="M177.6,-186.04C199.21,-194.36 232.25,-206.09 262,-212.5 335.85,-228.41 421,-236.72 484.88,-241.02"/>
<polygon fill="#63b8ff" stroke="#63b8ff" points="484.74,-244.52 494.95,-241.68 485.2,-237.54 484.74,-244.52"/>
</a>
</g>
</g>
<!-- Node19 -->
<g id="Node000019" class="node">
<title>Node19</title>
<g id="a_Node000019"><a xlink:href="classInputManager.html#a2672882f95872798fd07d4d98f82063b" target="_top" xlink:title="Get the configured InputInterface.">
<polygon fill="white" stroke="#666666" points="423,-204 292,-204 292,-185 423,-185 423,-204"/>
<text text-anchor="middle" x="357.5" y="-192" font-family="Helvetica,sans-Serif" font-size="10.00">InputManager::getInput</text>
</a>
</g>
</g>
<!-- Node15&#45;&gt;Node19 -->
<g id="edge18_Node000015_Node000019" class="edge">
<title>Node15&#45;&gt;Node19</title>
<g id="a_edge18_Node000015_Node000019"><a xlink:title=" ">
<path fill="none" stroke="#63b8ff" d="M215.58,-181.97C236.37,-183.82 259.82,-185.91 281.53,-187.84"/>
<polygon fill="#63b8ff" stroke="#63b8ff" points="281.43,-191.34 291.7,-188.74 282.05,-184.37 281.43,-191.34"/>
</a>
</g>
</g>
<!-- Node20 -->
<g id="Node000020" class="node">
<title>Node20</title>
<g id="a_Node000020"><a xlink:href="classInputInterface.html#a150a075ce0c5a95dc4fd15ccd1933d26" target="_top" xlink:title="Test if this InputInterface requires a display instance &#45; needed for TFT_eSPI as it shares the instan...">
<polygon fill="white" stroke="#666666" points="436,-167 279,-167 279,-148 436,-148 436,-167"/>
<text text-anchor="middle" x="357.5" y="-155" font-family="Helvetica,sans-Serif" font-size="10.00">InputInterface::needsDisplay</text>
</a>
</g>
</g>
<!-- Node15&#45;&gt;Node20 -->
<g id="edge19_Node000015_Node000020" class="edge">
<title>Node15&#45;&gt;Node20</title>
<g id="a_edge19_Node000015_Node000020"><a xlink:title=" ">
<path fill="none" stroke="#63b8ff" d="M215.58,-170.72C232.21,-169.16 250.54,-167.44 268.33,-165.77"/>
<polygon fill="#63b8ff" stroke="#63b8ff" points="269.09,-169.22 278.72,-164.8 268.43,-162.25 269.09,-169.22"/>
</a>
</g>
</g>
<!-- Node21 -->
<g id="Node000021" class="node">
<title>Node21</title>
<g id="a_Node000021"><a xlink:href="classInputManager.html#a085a9206b827e9666b798cb8706c20c5" target="_top" xlink:title="Set the CallbackInterface derived instance for user input to use for callbacks.">
<polygon fill="white" stroke="#666666" points="431,-130 284,-130 284,-111 431,-111 431,-130"/>
<text text-anchor="middle" x="357.5" y="-118" font-family="Helvetica,sans-Serif" font-size="10.00">InputManager::setCallback</text>
</a>
</g>
</g>
<!-- Node15&#45;&gt;Node21 -->
<g id="edge20_Node000015_Node000021" class="edge">
<title>Node15&#45;&gt;Node21</title>
<g id="a_edge20_Node000015_Node000021"><a xlink:title=" ">
<path fill="none" stroke="#63b8ff" d="M178.12,-166.84C199.79,-158.44 232.64,-146.41 262,-138.5 270.7,-136.15 279.94,-134 289.09,-132.05"/>
<polygon fill="#63b8ff" stroke="#63b8ff" points="289.87,-135.47 298.97,-130.03 288.47,-128.61 289.87,-135.47"/>
</a>
</g>
</g>
<!-- Node22 -->
<g id="Node000022" class="node">
<title>Node22</title>
<g id="a_Node000022"><a xlink:href="classInputManager.html#a27c7bc043eb9fbb8c7700624852220f6" target="_top" xlink:title="Set the display interface to retrieve required attributes &#45; note this should only be required for TFT...">
<polygon fill="white" stroke="#666666" points="428.5,-93 286.5,-93 286.5,-74 428.5,-74 428.5,-93"/>
<text text-anchor="middle" x="357.5" y="-81" font-family="Helvetica,sans-Serif" font-size="10.00">InputManager::setDisplay</text>
</a>
</g>
</g>
<!-- Node15&#45;&gt;Node22 -->
<g id="edge21_Node000015_Node000022" class="edge">
<title>Node15&#45;&gt;Node22</title>
<g id="a_edge21_Node000015_Node000022"><a xlink:title=" ">
<path fill="none" stroke="#63b8ff" d="M164.44,-166.95C182.73,-150.78 222.43,-118.12 262,-101.5 267.1,-99.36 272.46,-97.47 277.94,-95.8"/>
<polygon fill="#63b8ff" stroke="#63b8ff" points="279.17,-99.09 287.87,-93.04 277.3,-92.35 279.17,-99.09"/>
</a>
</g>
</g>
<!-- Node25 -->
<g id="Node000025" class="node">
<title>Node25</title>
<g id="a_Node000025"><a xlink:href="classAtFinder.html#ac50442f56c76cd6bd05da52db7ba8910" target="_top" xlink:title="Set the logger instance to use for diagnostic logging.">
<polygon fill="white" stroke="#666666" points="413,-56 302,-56 302,-37 413,-37 413,-56"/>
<text text-anchor="middle" x="357.5" y="-44" font-family="Helvetica,sans-Serif" font-size="10.00">AtFinder::setLogger</text>
</a>
</g>
</g>
<!-- Node15&#45;&gt;Node25 -->
<g id="edge25_Node000015_Node000025" class="edge">
<title>Node15&#45;&gt;Node25</title>
<g id="a_edge25_Node000015_Node000025"><a xlink:title=" ">
<path fill="none" stroke="#63b8ff" d="M160.2,-166.79C174.9,-144.65 214.25,-90.33 262,-64.5 271.13,-59.56 281.39,-55.96 291.7,-53.34"/>
<polygon fill="#63b8ff" stroke="#63b8ff" points="292.59,-56.73 301.57,-51.11 291.04,-49.9 292.59,-56.73"/>
</a>
</g>
</g>
<!-- Node26 -->
<g id="Node000026" class="node">
<title>Node26</title>
<g id="a_Node000026"><a xlink:href="classAtFinder.html#abadf56235ed457d74fff16dfdcd6d693" target="_top" xlink:title="Setup the AtFinder parser.">
<polygon fill="white" stroke="#666666" points="402.5,-19 312.5,-19 312.5,0 402.5,0 402.5,-19"/>
<text text-anchor="middle" x="357.5" y="-7" font-family="Helvetica,sans-Serif" font-size="10.00">AtFinder::setup</text>
</a>
</g>
</g>
<!-- Node15&#45;&gt;Node26 -->
<g id="edge26_Node000015_Node000026" class="edge">
<title>Node15&#45;&gt;Node26</title>
<g id="a_edge26_Node000015_Node000026"><a xlink:title=" ">
<path fill="none" stroke="#63b8ff" d="M157.88,-166.9C169.32,-139.96 205.64,-63.3 262,-27.5 273.91,-19.93 288.25,-15.4 302.13,-12.72"/>
<polygon fill="#63b8ff" stroke="#63b8ff" points="302.8,-16.16 312.1,-11.09 301.67,-9.25 302.8,-16.16"/>
</a>
</g>
</g>
<!-- Node18&#45;&gt;Node8 -->
<g id="edge17_Node000018_Node000008" class="edge">
<title>Node18&#45;&gt;Node8</title>
<g id="a_edge17_Node000018_Node000008"><a xlink:title=" ">
<path fill="none" stroke="#63b8ff" d="M624.19,-255.08C641.25,-260.2 660.88,-267.53 677,-277.5 715.31,-301.18 750.69,-340.97 769.3,-363.85"/>
<polygon fill="#63b8ff" stroke="#63b8ff" points="766.62,-366.1 775.59,-371.73 772.09,-361.73 766.62,-366.1"/>
</a>
</g>
</g>
<!-- Node23 -->
<g id="Node000023" class="node">
<title>Node23</title>
<g id="a_Node000023"><a xlink:href="classDisplayInterface.html#a3649a768b8ca59c3070f56aed1fe42c2" target="_top" xlink:title="Get the ID of this display instance.">
<polygon fill="white" stroke="#666666" points="848,-93 720,-93 720,-74 848,-74 848,-93"/>
<text text-anchor="middle" x="784" y="-81" font-family="Helvetica,sans-Serif" font-size="10.00">DisplayInterface::getId</text>
</a>
</g>
</g>
<!-- Node22&#45;&gt;Node23 -->
<g id="edge22_Node000022_Node000023" class="edge">
<title>Node22&#45;&gt;Node23</title>
<g id="a_edge22_Node000022_Node000023"><a xlink:title=" ">
<path fill="none" stroke="#63b8ff" d="M428.6,-83.5C506.12,-83.5 630.48,-83.5 709.39,-83.5"/>
<polygon fill="#63b8ff" stroke="#63b8ff" points="709.73,-87 719.73,-83.5 709.73,-80 709.73,-87"/>
</a>
</g>
</g>
<!-- Node24 -->
<g id="Node000024" class="node">
<title>Node24</title>
<g id="a_Node000024"><a xlink:href="classInputInterface.html#a8835a0d2c51926d4636f239d888a8e71" target="_top" xlink:title="Set the DisplayInterface for this input if required.">
<polygon fill="white" stroke="#666666" points="654.5,-74 511.5,-74 511.5,-55 654.5,-55 654.5,-74"/>
<text text-anchor="middle" x="583" y="-62" font-family="Helvetica,sans-Serif" font-size="10.00">InputInterface::setDisplay</text>
</a>
</g>
</g>
<!-- Node22&#45;&gt;Node24 -->
<g id="edge23_Node000022_Node000024" class="edge">
<title>Node22&#45;&gt;Node24</title>
<g id="a_edge23_Node000022_Node000024"><a xlink:title=" ">
<path fill="none" stroke="#63b8ff" d="M428.6,-77.54C451.68,-75.58 477.52,-73.38 501.32,-71.36"/>
<polygon fill="#63b8ff" stroke="#63b8ff" points="501.71,-74.84 511.38,-70.5 501.12,-67.86 501.71,-74.84"/>
</a>
</g>
</g>
<!-- Node24&#45;&gt;Node23 -->
<g id="edge24_Node000024_Node000023" class="edge">
<title>Node24&#45;&gt;Node23</title>
<g id="a_edge24_Node000024_Node000023"><a xlink:title=" ">
<path fill="none" stroke="#63b8ff" d="M654.72,-71.25C672.55,-72.95 691.72,-74.78 709.67,-76.5"/>
<polygon fill="#63b8ff" stroke="#63b8ff" points="709.5,-80 719.79,-77.47 710.17,-73.03 709.5,-80"/>
</a>
</g>
</g>
</g>
</svg>

<g id="navigator" transform="translate(0 0)" fill="#404254">
  <rect fill="#f2f5e9" fill-opacity="0.5" stroke="#606060" stroke-width=".5" x="0" y="0" width="60" height="60"/>
  <use id="zoomplus" xlink:href="#zoomPlus" x="17" y="9" onmousedown="handleZoom(evt,'in')"/>
  <use id="zoomminus" xlink:href="#zoomMin" x="42" y="9" onmousedown="handleZoom(evt,'out')"/>
  <use id="reset" xlink:href="#resetDef" x="30" y="36" onmousedown="handleReset()"/>
   <use id="arrowup" xlink:href="#arrowUp" x="0" y="0" onmousedown="handlePan(0,-1)"/>
  <use id="arrowright" xlink:href="#arrowRight" x="0" y="0" onmousedown="handlePan(1,0)"/>
  <use id="arrowdown" xlink:href="#arrowDown" x="0" y="0" onmousedown="handlePan(0,1)"/>
  <use id="arrowleft" xlink:href="#arrowLeft" x="0" y="0" onmousedown="handlePan(-1,0)"/>
</g>
<svg viewBox="0 0 15 15" width="100%" height="30px" preserveAspectRatio="xMaxYMin meet">
 <g id="arrow_out" transform="scale(0.3 0.3)">
  <a xlink:href="EX-Display_8ino_a4fc01d736fe50cf5b977f755b675f11d_cgraph_org.svg" target="_base">
   <rect id="button" ry="5" rx="5" y="6" x="6" height="38" width="38"
        fill="#f2f5e9" fill-opacity="0.5" stroke="#606060" stroke-width="1.0"/>
   <path id="arrow"
     d="M 11.500037,31.436501 C 11.940474,20.09759 22.043105,11.32322 32.158766,21.979434 L 37.068811,17.246167 C 37.068811,17.246167 37.088388,32 37.088388,32 L 22.160133,31.978069 C 22.160133,31.978069 26.997745,27.140456 26.997745,27.140456 C 18.528582,18.264221 13.291696,25.230495 11.500037,31.436501 z"
     style="fill:#404040;"/>
  </a>
 </g>
</svg>

<style type='text/css'>
<![CDATA[
[data-mouse-over-selected='false'] { opacity: 0.7; }
[data-mouse-over-selected='true']  { opacity: 1.0; }
]]>
</style>
<script type="application/ecmascript"><![CDATA[
document.addEventListener('DOMContentLoaded', (event) => {
  highlightEdges();
  highlightAdjacentNodes();
});
]]></script>
</svg>
