<?xml version="1.0" encoding="UTF-8" standalone="no"?>
<!DOCTYPE svg PUBLIC "-//W3C//DTD SVG 1.1//EN"
 "http://www.w3.org/Graphics/SVG/1.1/DTD/svg11.dtd">
<!-- Generated by graphviz version 2.43.0 (0)
 -->
<!-- Title: loop Pages: 1 -->
<!--zoomable 420 -->
<svg id="main" version="1.1" xmlns="http://www.w3.org/2000/svg" xmlns:xlink="http://www.w3.org/1999/xlink" xml:space="preserve" onload="init(evt)">
<style type="text/css"><![CDATA[
.edge:hover path { stroke: red; }
.edge:hover polygon { stroke: red; fill: red; }
]]></style>
<script type="text/javascript"><![CDATA[
var edges = document.getElementsByTagName('g');
if (edges && edges.length) {
  for (var i=0;i<edges.length;i++) {
    if (edges[i].id.substr(0,4)=='edge') {
      edges[i].setAttribute('class','edge');
    }
  }
}
]]></script>
        <defs>
                <circle id="rim" cx="0" cy="0" r="7"/>
                <circle id="rim2" cx="0" cy="0" r="3.5"/>
                <g id="zoomPlus">
                        <use xlink:href="#rim" fill="#404040">
                                <set attributeName="fill" to="#808080" begin="zoomplus.mouseover" end="zoomplus.mouseout"/>
                        </use>
                        <path d="M-4,0h8M0,-4v8" fill="none" stroke="white" stroke-width="1.5" pointer-events="none"/>
                </g>
                <g id="zoomMin">
                        <use xlink:href="#rim" fill="#404040">
                                <set attributeName="fill" to="#808080" begin="zoomminus.mouseover" end="zoomminus.mouseout"/>
                        </use>
                        <path d="M-4,0h8" fill="none" stroke="white" stroke-width="1.5" pointer-events="none"/>
                </g>
                <g id="dirArrow">
                        <path fill="none" stroke="white" stroke-width="1.5" d="M0,-3.0v7 M-2.5,-0.5L0,-3.0L2.5,-0.5"/>
                </g>
               <g id="resetDef">
                       <use xlink:href="#rim2" fill="#404040">
                               <set attributeName="fill" to="#808080" begin="reset.mouseover" end="reset.mouseout"/>
                       </use>
               </g>
        </defs>

<script type="text/javascript">
var viewWidth = 818;
var viewHeight = 420;
var sectionId = 'dynsection-1';
</script>
<script xlink:href="svgpan.js"/>
<svg id="graph" class="graph">
<g id="viewport">
<title>loop</title>
<polygon fill="white" stroke="transparent" points="-4,4 -4,-416 814,-416 814,4 -4,4"/>
<!-- Node1 -->
<g id="node1" class="node">
<title>Node1</title>
<g id="a_node1"><a xlink:title="Main loop, simply calls controller&#45;&gt;update() to manage all interactions.">
<polygon fill="#bfbfbf" stroke="black" points="0,-247.5 0,-266.5 38,-266.5 38,-247.5 0,-247.5"/>
<text text-anchor="middle" x="19" y="-254.5" font-family="Helvetica,sans-Serif" font-size="10.00">loop</text>
</a>
</g>
</g>
<!-- Node2 -->
<g id="node2" class="node">
<title>Node2</title>
<g id="a_node2"><a xlink:href="classConfigurator.html#a82c65d6d040b717d64520903c788dd79" target="_top" xlink:title="Get the Controller instance for this Configurator.">
<polygon fill="white" stroke="black" points="74,-266.5 74,-285.5 220,-285.5 220,-266.5 74,-266.5"/>
<text text-anchor="middle" x="147" y="-273.5" font-family="Helvetica,sans-Serif" font-size="10.00">Configurator::getController</text>
</a>
</g>
</g>
<!-- Node1&#45;&gt;Node2 -->
<g id="edge1" class="edge">
<title>Node1&#45;&gt;Node2</title>
<path fill="none" stroke="midnightblue" d="M38.05,-259.72C47.54,-261.15 59.87,-263.01 72.79,-264.96"/>
<polygon fill="midnightblue" stroke="midnightblue" points="72.33,-268.43 82.74,-266.46 73.38,-261.51 72.33,-268.43"/>
</g>
<!-- Node3 -->
<g id="node3" class="node">
<title>Node3</title>
<g id="a_node3"><a xlink:href="classController.html#a7d04c17913f04f99429aa29fa8505484" target="_top" xlink:title="Processes all ongoing activities, monitoring streams, receiving user input, updates displays,...">
<polygon fill="white" stroke="black" points="95,-228.5 95,-247.5 199,-247.5 199,-228.5 95,-228.5"/>
<text text-anchor="middle" x="147" y="-235.5" font-family="Helvetica,sans-Serif" font-size="10.00">Controller::update</text>
</a>
</g>
</g>
<!-- Node1&#45;&gt;Node3 -->
<g id="edge2" class="edge">
<title>Node1&#45;&gt;Node3</title>
<path fill="none" stroke="midnightblue" d="M38.05,-254.28C50.45,-252.41 67.7,-249.81 84.78,-247.23"/>
<polygon fill="midnightblue" stroke="midnightblue" points="85.4,-250.68 94.77,-245.73 84.36,-243.76 85.4,-250.68"/>
</g>
<!-- Node4 -->
<g id="node4" class="node">
<title>Node4</title>
<g id="a_node4"><a xlink:href="classStream.html#a630f7c449a9674857fae9a7016d93dbe" target="_top" xlink:title="Check number of characters available in the buffer.">
<polygon fill="white" stroke="black" points="280.5,-392.5 280.5,-411.5 383.5,-411.5 383.5,-392.5 280.5,-392.5"/>
<text text-anchor="middle" x="332" y="-399.5" font-family="Helvetica,sans-Serif" font-size="10.00">Stream::available</text>
</a>
</g>
</g>
<!-- Node3&#45;&gt;Node4 -->
<g id="edge3" class="edge">
<title>Node3&#45;&gt;Node4</title>
<path fill="none" stroke="midnightblue" d="M199.15,-244.39C206.87,-247.25 214.18,-251.3 220,-257 261.6,-297.76 214.2,-342.44 256,-383 260.32,-387.19 265.43,-390.5 270.92,-393.11"/>
<polygon fill="midnightblue" stroke="midnightblue" points="269.86,-396.45 280.44,-396.85 272.42,-389.93 269.86,-396.45"/>
</g>
<!-- Node5 -->
<g id="node5" class="node">
<title>Node5</title>
<g id="a_node5"><a xlink:href="classDisplayManager.html#a6ba13ae541760736e37f1f85477985a7" target="_top" xlink:title="Get the first DisplayInterface derived instance in the list of displays.">
<polygon fill="white" stroke="black" points="262.5,-343 262.5,-373 401.5,-373 401.5,-343 262.5,-343"/>
<text text-anchor="start" x="270.5" y="-361" font-family="Helvetica,sans-Serif" font-size="10.00">DisplayManager::getFirst</text>
<text text-anchor="middle" x="332" y="-350" font-family="Helvetica,sans-Serif" font-size="10.00">Display</text>
</a>
</g>
</g>
<!-- Node3&#45;&gt;Node5 -->
<g id="edge4" class="edge">
<title>Node3&#45;&gt;Node5</title>
<path fill="none" stroke="midnightblue" d="M199.13,-245.51C206.67,-248.24 213.93,-251.96 220,-257 248.75,-280.88 228.03,-308.21 256,-333 257.75,-334.55 259.61,-336.01 261.54,-337.38"/>
<polygon fill="midnightblue" stroke="midnightblue" points="260.08,-340.59 270.44,-342.81 263.73,-334.61 260.08,-340.59"/>
</g>
<!-- Node6 -->
<g id="node6" class="node">
<title>Node6</title>
<g id="a_node6"><a xlink:href="classInputManager.html#a2672882f95872798fd07d4d98f82063b" target="_top" xlink:title="Get the configured InputInterface.">
<polygon fill="white" stroke="black" points="266.5,-304.5 266.5,-323.5 397.5,-323.5 397.5,-304.5 266.5,-304.5"/>
<text text-anchor="middle" x="332" y="-311.5" font-family="Helvetica,sans-Serif" font-size="10.00">InputManager::getInput</text>
</a>
</g>
</g>
<!-- Node3&#45;&gt;Node6 -->
<g id="edge5" class="edge">
<title>Node3&#45;&gt;Node6</title>
<path fill="none" stroke="midnightblue" d="M197.26,-247.58C205.12,-250.06 212.97,-253.16 220,-257 239.05,-267.41 237.23,-279.11 256,-290 263.65,-294.44 272.21,-298.16 280.75,-301.26"/>
<polygon fill="midnightblue" stroke="midnightblue" points="279.73,-304.61 290.33,-304.48 281.97,-297.97 279.73,-304.61"/>
</g>
<!-- Node7 -->
<g id="node7" class="node">
<title>Node7</title>
<g id="a_node7"><a xlink:href="classDisplayInterface.html#aa869afa166e1d7f231549e3b93f7bef5" target="_top" xlink:title="Get the next DisplayInterface derived instance in the list.">
<polygon fill="white" stroke="black" points="668,-152.5 668,-171.5 810,-171.5 810,-152.5 668,-152.5"/>
<text text-anchor="middle" x="739" y="-159.5" font-family="Helvetica,sans-Serif" font-size="10.00">DisplayInterface::getNext</text>
</a>
</g>
</g>
<!-- Node3&#45;&gt;Node7 -->
<g id="edge6" class="edge">
<title>Node3&#45;&gt;Node7</title>
<path fill="none" stroke="midnightblue" d="M191.91,-247.51C211.43,-251.28 234.76,-255.15 256,-257 422.88,-271.57 474.43,-287.86 632,-231 665.62,-218.87 699.33,-194.28 719.43,-177.97"/>
<polygon fill="midnightblue" stroke="midnightblue" points="721.71,-180.62 727.18,-171.55 717.24,-175.24 721.71,-180.62"/>
</g>
<!-- Node8 -->
<g id="node8" class="node">
<title>Node8</title>
<g id="a_node8"><a xlink:href="classInputInterface.html#af4e357d021d6ff950b6c8497734dcd75" target="_top" xlink:title="Test if this InputInterface is undergoing calibration as required by touch screens.">
<polygon fill="white" stroke="black" points="256,-228.5 256,-247.5 408,-247.5 408,-228.5 256,-228.5"/>
<text text-anchor="middle" x="332" y="-235.5" font-family="Helvetica,sans-Serif" font-size="10.00">InputInterface::isCalibrating</text>
</a>
</g>
</g>
<!-- Node3&#45;&gt;Node8 -->
<g id="edge7" class="edge">
<title>Node3&#45;&gt;Node8</title>
<path fill="none" stroke="midnightblue" d="M199.46,-238C213.77,-238 229.71,-238 245.41,-238"/>
<polygon fill="midnightblue" stroke="midnightblue" points="245.68,-241.5 255.68,-238 245.68,-234.5 245.68,-241.5"/>
</g>
<!-- Node9 -->
<g id="node9" class="node">
<title>Node9</title>
<g id="a_node9"><a xlink:href="Arduino_8h.html#a6ff7f2532a22366f0013bc41397129fd" target="_top" xlink:title=" ">
<polygon fill="white" stroke="black" points="310,-190.5 310,-209.5 354,-209.5 354,-190.5 310,-190.5"/>
<text text-anchor="middle" x="332" y="-197.5" font-family="Helvetica,sans-Serif" font-size="10.00">millis</text>
</a>
</g>
</g>
<!-- Node3&#45;&gt;Node9 -->
<g id="edge8" class="edge">
<title>Node3&#45;&gt;Node9</title>
<path fill="none" stroke="midnightblue" d="M194.18,-228.41C227.18,-221.56 270.72,-212.52 299.72,-206.49"/>
<polygon fill="midnightblue" stroke="midnightblue" points="300.63,-209.88 309.71,-204.42 299.2,-203.03 300.63,-209.88"/>
</g>
<!-- Node10 -->
<g id="node10" class="node">
<title>Node10</title>
<g id="a_node10"><a xlink:href="classAtFinder.html#a76f0a4563646bfdcd04820845d440c01" target="_top" xlink:title="Call this as often as possible with a streaming input (eg. Serial.read())">
<polygon fill="white" stroke="black" points="258,-152.5 258,-171.5 406,-171.5 406,-152.5 258,-152.5"/>
<text text-anchor="middle" x="332" y="-159.5" font-family="Helvetica,sans-Serif" font-size="10.00">AtFinder::processInputChar</text>
</a>
</g>
</g>
<!-- Node3&#45;&gt;Node10 -->
<g id="edge9" class="edge">
<title>Node3&#45;&gt;Node10</title>
<path fill="none" stroke="midnightblue" d="M163.19,-228.49C183.62,-216.06 221.37,-194.31 256,-181 262.4,-178.54 269.23,-176.31 276.07,-174.3"/>
<polygon fill="midnightblue" stroke="midnightblue" points="277.34,-177.58 286.04,-171.54 275.47,-170.84 277.34,-177.58"/>
</g>
<!-- Node12 -->
<g id="node12" class="node">
<title>Node12</title>
<g id="a_node12"><a xlink:href="classStream.html#a654017caec3e3feeba5feb346d83c7bb" target="_top" xlink:title="Read a character from the buffer.">
<polygon fill="white" stroke="black" points="292,-114.5 292,-133.5 372,-133.5 372,-114.5 292,-114.5"/>
<text text-anchor="middle" x="332" y="-121.5" font-family="Helvetica,sans-Serif" font-size="10.00">Stream::read</text>
</a>
</g>
</g>
<!-- Node3&#45;&gt;Node12 -->
<g id="edge11" class="edge">
<title>Node3&#45;&gt;Node12</title>
<path fill="none" stroke="midnightblue" d="M156.14,-228.25C172.8,-208.93 212.92,-165.69 256,-143 264.12,-138.72 273.24,-135.38 282.26,-132.77"/>
<polygon fill="midnightblue" stroke="midnightblue" points="283.17,-136.15 291.94,-130.22 281.38,-129.38 283.17,-136.15"/>
</g>
<!-- Node13 -->
<g id="node13" class="node">
<title>Node13</title>
<g id="a_node13"><a xlink:href="classDisplayManager.html#ad53dcac2e939893727d27187524733c6" target="_top" xlink:title="Call this routinely to ensure all displays are updated with screens.">
<polygon fill="white" stroke="black" points="264,-76.5 264,-95.5 400,-95.5 400,-76.5 264,-76.5"/>
<text text-anchor="middle" x="332" y="-83.5" font-family="Helvetica,sans-Serif" font-size="10.00">DisplayManager::update</text>
</a>
</g>
</g>
<!-- Node3&#45;&gt;Node13 -->
<g id="edge12" class="edge">
<title>Node3&#45;&gt;Node13</title>
<path fill="none" stroke="midnightblue" d="M153.03,-228.18C166.27,-203.36 204.61,-137.82 256,-105 259.34,-102.86 262.91,-100.97 266.61,-99.29"/>
<polygon fill="midnightblue" stroke="midnightblue" points="268.03,-102.49 276.02,-95.53 265.44,-95.99 268.03,-102.49"/>
</g>
<!-- Node11 -->
<g id="node11" class="node">
<title>Node11</title>
<g id="a_node11"><a xlink:href="classCallbackInterface.html#aba96f818abe5d19945217275bdbe6b67" target="_top" xlink:title="Method to implement updating a screen.">
<polygon fill="white" stroke="black" points="484,-191 484,-221 592,-221 592,-191 484,-191"/>
<text text-anchor="start" x="492" y="-209" font-family="Helvetica,sans-Serif" font-size="10.00">CallbackInterface::</text>
<text text-anchor="middle" x="538" y="-198" font-family="Helvetica,sans-Serif" font-size="10.00">updateScreen</text>
</a>
</g>
</g>
<!-- Node10&#45;&gt;Node11 -->
<g id="edge10" class="edge">
<title>Node10&#45;&gt;Node11</title>
<path fill="none" stroke="midnightblue" d="M377.26,-171.55C405.5,-177.64 442.53,-185.62 473.83,-192.37"/>
<polygon fill="midnightblue" stroke="midnightblue" points="473.26,-195.83 483.77,-194.52 474.73,-188.99 473.26,-195.83"/>
</g>
<!-- Node13&#45;&gt;Node7 -->
<g id="edge16" class="edge">
<title>Node13&#45;&gt;Node7</title>
<path fill="none" stroke="midnightblue" d="M386.53,-95.57C394.01,-98.04 401.4,-101.13 408,-105 428.07,-116.77 422.94,-133.12 444,-143 511.12,-174.47 596.47,-176.4 657.9,-172.15"/>
<polygon fill="midnightblue" stroke="midnightblue" points="658.22,-175.63 667.93,-171.38 657.69,-168.65 658.22,-175.63"/>
</g>
<!-- Node14 -->
<g id="node14" class="node">
<title>Node14</title>
<g id="a_node14"><a xlink:href="classDisplayManager.html#abcac9213f163018979f2a226ecf53882" target="_top" xlink:title="Manually selects SPI displays that require manual selecting via the CS pin &#45; sets pin low.">
<polygon fill="white" stroke="red" points="444,-114.5 444,-133.5 632,-133.5 632,-114.5 444,-114.5"/>
<text text-anchor="middle" x="538" y="-121.5" font-family="Helvetica,sans-Serif" font-size="10.00">DisplayManager::_selectSPIDisplay</text>
</a>
</g>
</g>
<!-- Node13&#45;&gt;Node14 -->
<g id="edge13" class="edge">
<title>Node13&#45;&gt;Node14</title>
<path fill="none" stroke="midnightblue" d="M384.21,-95.54C411.98,-100.71 446.49,-107.14 475.68,-112.58"/>
<polygon fill="midnightblue" stroke="midnightblue" points="475.29,-116.07 485.76,-114.46 476.57,-109.18 475.29,-116.07"/>
</g>
<!-- Node18 -->
<g id="node15" class="node">
<title>Node18</title>
<g id="a_node15"><a xlink:href="classScreen.html#a0bf66c3d7a47302ecb77113f3eacc422" target="_top" xlink:title="Get the first ScreenRow instance in the list.">
<polygon fill="white" stroke="black" points="465,-76.5 465,-95.5 611,-95.5 611,-76.5 465,-76.5"/>
<text text-anchor="middle" x="538" y="-83.5" font-family="Helvetica,sans-Serif" font-size="10.00">Screen::getFirstScreenRow</text>
</a>
</g>
</g>
<!-- Node13&#45;&gt;Node18 -->
<g id="edge15" class="edge">
<title>Node13&#45;&gt;Node18</title>
<path fill="none" stroke="midnightblue" d="M400.08,-86C417.62,-86 436.72,-86 454.95,-86"/>
<polygon fill="midnightblue" stroke="midnightblue" points="454.96,-89.5 464.96,-86 454.96,-82.5 454.96,-89.5"/>
</g>
<!-- Node19 -->
<g id="node16" class="node">
<title>Node19</title>
<g id="a_node16"><a xlink:href="classScreenRow.html#aa8df6843233ea45caf26773d140ce4b8" target="_top" xlink:title="Get the next ScreenRow instance in the list.">
<polygon fill="white" stroke="black" points="480.5,-38.5 480.5,-57.5 595.5,-57.5 595.5,-38.5 480.5,-38.5"/>
<text text-anchor="middle" x="538" y="-45.5" font-family="Helvetica,sans-Serif" font-size="10.00">ScreenRow::getNext</text>
</a>
</g>
</g>
<!-- Node13&#45;&gt;Node19 -->
<g id="edge17" class="edge">
<title>Node13&#45;&gt;Node19</title>
<path fill="none" stroke="midnightblue" d="M384.21,-76.46C411.98,-71.29 446.49,-64.86 475.68,-59.42"/>
<polygon fill="midnightblue" stroke="midnightblue" points="476.57,-62.82 485.76,-57.54 475.29,-55.93 476.57,-62.82"/>
</g>
<!-- Node20 -->
<g id="node17" class="node">
<title>Node20</title>
<g id="a_node17"><a xlink:href="classScreenManager.html#a0cc1c81b131b3441fd808299c63b409b" target="_top" xlink:title="Get the Screen with the specified ID.">
<polygon fill="white" stroke="red" points="453.5,-0.5 453.5,-19.5 622.5,-19.5 622.5,-0.5 453.5,-0.5"/>
<text text-anchor="middle" x="538" y="-7.5" font-family="Helvetica,sans-Serif" font-size="10.00">ScreenManager::getScreenById</text>
</a>
</g>
</g>
<!-- Node13&#45;&gt;Node20 -->
<g id="edge18" class="edge">
<title>Node13&#45;&gt;Node20</title>
<path fill="none" stroke="midnightblue" d="M348.21,-76.48C369.05,-63.84 408.03,-41.64 444,-29 451.63,-26.32 459.75,-23.97 467.89,-21.92"/>
<polygon fill="midnightblue" stroke="midnightblue" points="468.88,-25.28 477.8,-19.57 467.26,-18.47 468.88,-25.28"/>
</g>
<!-- Node14&#45;&gt;Node7 -->
<g id="edge14" class="edge">
<title>Node14&#45;&gt;Node7</title>
<path fill="none" stroke="midnightblue" d="M588.96,-133.54C616.05,-138.71 649.71,-145.14 678.18,-150.58"/>
<polygon fill="midnightblue" stroke="midnightblue" points="677.54,-154.02 688.02,-152.46 678.85,-147.14 677.54,-154.02"/>
</g>
</g>
</svg>
        <g id="navigator" transform="translate(0 0)" fill="#404254">
                <rect fill="#f2f5e9" fill-opacity="0.5" stroke="#606060" stroke-width=".5" x="0" y="0" width="60" height="60"/>
                <use id="zoomplus" xlink:href="#zoomPlus" x="17" y="9" onmousedown="handleZoom(evt,'in')"/>
                <use id="zoomminus" xlink:href="#zoomMin" x="42" y="9" onmousedown="handleZoom(evt,'out')"/>
                <use id="reset" xlink:href="#resetDef" x="30" y="36" onmousedown="handleReset()"/>
                <g id="arrowUp" xlink:href="#dirArrow" transform="translate(30 24)" onmousedown="handlePan(0,-1)">
                  <use xlink:href="#rim" fill="#404040">
                        <set attributeName="fill" to="#808080" begin="arrowUp.mouseover" end="arrowUp.mouseout"/>
                  </use>
                  <path fill="none" stroke="white" stroke-width="1.5" d="M0,-3.0v7 M-2.5,-0.5L0,-3.0L2.5,-0.5"/>
                </g>
                <g id="arrowRight" xlink:href="#dirArrow" transform="rotate(90) translate(36 -43)" onmousedown="handlePan(1,0)">
                  <use xlink:href="#rim" fill="#404040">
                        <set attributeName="fill" to="#808080" begin="arrowRight.mouseover" end="arrowRight.mouseout"/>
                  </use>
                  <path fill="none" stroke="white" stroke-width="1.5" d="M0,-3.0v7 M-2.5,-0.5L0,-3.0L2.5,-0.5"/>
                </g>
                <g id="arrowDown" xlink:href="#dirArrow" transform="rotate(180) translate(-30 -48)" onmousedown="handlePan(0,1)">
                  <use xlink:href="#rim" fill="#404040">
                        <set attributeName="fill" to="#808080" begin="arrowDown.mouseover" end="arrowDown.mouseout"/>
                  </use>
                  <path fill="none" stroke="white" stroke-width="1.5" d="M0,-3.0v7 M-2.5,-0.5L0,-3.0L2.5,-0.5"/>
                </g>
                <g id="arrowLeft" xlink:href="#dirArrow" transform="rotate(270) translate(-36 17)" onmousedown="handlePan(-1,0)">
                  <use xlink:href="#rim" fill="#404040">
                        <set attributeName="fill" to="#808080" begin="arrowLeft.mouseover" end="arrowLeft.mouseout"/>
                  </use>
                  <path fill="none" stroke="white" stroke-width="1.5" d="M0,-3.0v7 M-2.5,-0.5L0,-3.0L2.5,-0.5"/>
                </g>
        </g>
        <svg viewBox="0 0 15 15" width="100%" height="30px" preserveAspectRatio="xMaxYMin meet">
         <g id="arrow_out" transform="scale(0.3 0.3)">
          <a xlink:href="EX-Display_8ino_afe461d27b9c48d5921c00d521181f12f_cgraph_org.svg" target="_base">
           <rect id="button" ry="5" rx="5" y="6" x="6" height="38" width="38"
                fill="#f2f5e9" fill-opacity="0.5" stroke="#606060" stroke-width="1.0"/>
           <path id="arrow"
             d="M 11.500037,31.436501 C 11.940474,20.09759 22.043105,11.32322 32.158766,21.979434 L 37.068811,17.246167 C 37.068811,17.246167 37.088388,32 37.088388,32 L 22.160133,31.978069 C 22.160133,31.978069 26.997745,27.140456 26.997745,27.140456 C 18.528582,18.264221 13.291696,25.230495 11.500037,31.436501 z"
             style="fill:#404040;"/>
          </a>
         </g>
        </svg>
</svg>
