<?xml version="1.0" encoding="UTF-8" standalone="no"?>
<!DOCTYPE svg PUBLIC "-//W3C//DTD SVG 1.1//EN"
 "http://www.w3.org/Graphics/SVG/1.1/DTD/svg11.dtd">
<!-- Generated by graphviz version 2.43.0 (0)
 -->
<!-- Title: setup Pages: 1 -->
<svg width="896pt" height="382pt"
 viewBox="0.00 0.00 896.00 382.00" xmlns="http://www.w3.org/2000/svg" xmlns:xlink="http://www.w3.org/1999/xlink">
<g id="graph0" class="graph" transform="scale(1 1) rotate(0) translate(4 378)">
<title>setup</title>
<polygon fill="white" stroke="transparent" points="-4,4 -4,-378 892,-378 892,4 -4,4"/>
<!-- Node1 -->
<g id="node1" class="node">
<title>Node1</title>
<g id="a_node1"><a xlink:title="Main setup method, initialise Configurator here.">
<polygon fill="#bfbfbf" stroke="black" points="0,-228.5 0,-247.5 44,-247.5 44,-228.5 0,-228.5"/>
<text text-anchor="middle" x="22" y="-235.5" font-family="Helvetica,sans-Serif" font-size="10.00">setup</text>
</a>
</g>
</g>
<!-- Node2 -->
<g id="node2" class="node">
<title>Node2</title>
<g id="a_node2"><a xlink:href="classController.html#a1cc0b87ab9e07d21ab47d294aa5bf607" target="_top" xlink:title="Call once to start displays and input.">
<polygon fill="white" stroke="black" points="300.5,-304.5 300.5,-323.5 398.5,-323.5 398.5,-304.5 300.5,-304.5"/>
<text text-anchor="middle" x="349.5" y="-311.5" font-family="Helvetica,sans-Serif" font-size="10.00">Controller::begin</text>
</a>
</g>
</g>
<!-- Node1&#45;&gt;Node2 -->
<g id="edge1" class="edge">
<title>Node1&#45;&gt;Node2</title>
<path fill="none" stroke="midnightblue" d="M44.21,-245.7C54.86,-249.41 68.02,-253.74 80,-257 151.64,-276.48 235.53,-293.36 290.23,-303.59"/>
<polygon fill="midnightblue" stroke="midnightblue" points="289.62,-307.04 300.09,-305.42 290.9,-300.16 289.62,-307.04"/>
</g>
<!-- Node13 -->
<g id="node10" class="node">
<title>Node13</title>
<g id="a_node10"><a xlink:href="classConfigurator.html#a82c65d6d040b717d64520903c788dd79" target="_top" xlink:title="Get the Controller instance for this Configurator.">
<polygon fill="white" stroke="black" points="80,-228.5 80,-247.5 226,-247.5 226,-228.5 80,-228.5"/>
<text text-anchor="middle" x="153" y="-235.5" font-family="Helvetica,sans-Serif" font-size="10.00">Configurator::getController</text>
</a>
</g>
</g>
<!-- Node1&#45;&gt;Node13 -->
<g id="edge10" class="edge">
<title>Node1&#45;&gt;Node13</title>
<path fill="none" stroke="midnightblue" d="M44.01,-238C51.48,-238 60.41,-238 69.89,-238"/>
<polygon fill="midnightblue" stroke="midnightblue" points="69.93,-241.5 79.93,-238 69.93,-234.5 69.93,-241.5"/>
</g>
<!-- Node14 -->
<g id="node11" class="node">
<title>Node14</title>
<g id="a_node11"><a xlink:href="classConfigurator.html#a25ee5e1b0a64d971232d6ecaaadd5d61" target="_top" xlink:title="Call all one&#45;shot initialisation or begin methods on startup.">
<polygon fill="white" stroke="black" points="90.5,-152.5 90.5,-171.5 215.5,-171.5 215.5,-152.5 90.5,-152.5"/>
<text text-anchor="middle" x="153" y="-159.5" font-family="Helvetica,sans-Serif" font-size="10.00">Configurator::initialise</text>
</a>
</g>
</g>
<!-- Node1&#45;&gt;Node14 -->
<g id="edge11" class="edge">
<title>Node1&#45;&gt;Node14</title>
<path fill="none" stroke="midnightblue" d="M39.34,-228.37C61.44,-215.35 101.06,-192.01 126.94,-176.76"/>
<polygon fill="midnightblue" stroke="midnightblue" points="128.96,-179.64 135.79,-171.55 125.4,-173.61 128.96,-179.64"/>
</g>
<!-- Node3 -->
<g id="node3" class="node">
<title>Node3</title>
<g id="a_node3"><a xlink:href="classDisplayManager.html#aa0e0e26134a34beeb30e27c00b8e829f" target="_top" xlink:title="Calls the displayStartupInfo of all Display instances to display the version.">
<polygon fill="white" stroke="black" points="473,-304.5 473,-323.5 664,-323.5 664,-304.5 473,-304.5"/>
<text text-anchor="middle" x="568.5" y="-311.5" font-family="Helvetica,sans-Serif" font-size="10.00">DisplayManager::displayStartupInfo</text>
</a>
</g>
</g>
<!-- Node2&#45;&gt;Node3 -->
<g id="edge2" class="edge">
<title>Node2&#45;&gt;Node3</title>
<path fill="none" stroke="midnightblue" d="M398.66,-314C417.61,-314 440.16,-314 462.51,-314"/>
<polygon fill="midnightblue" stroke="midnightblue" points="462.75,-317.5 472.75,-314 462.75,-310.5 462.75,-317.5"/>
</g>
<!-- Node10 -->
<g id="node7" class="node">
<title>Node10</title>
<g id="a_node7"><a xlink:href="classDisplayManager.html#a270daf83b6af22558fde42034254b351" target="_top" xlink:title="Call the begin() method for all associated Display instances.">
<polygon fill="white" stroke="black" points="485,-266.5 485,-285.5 652,-285.5 652,-266.5 485,-266.5"/>
<text text-anchor="middle" x="568.5" y="-273.5" font-family="Helvetica,sans-Serif" font-size="10.00">DisplayManager::startDisplays</text>
</a>
</g>
</g>
<!-- Node2&#45;&gt;Node10 -->
<g id="edge6" class="edge">
<title>Node2&#45;&gt;Node10</title>
<path fill="none" stroke="midnightblue" d="M398.66,-305.57C429.32,-300.2 469.42,-293.18 502.84,-287.32"/>
<polygon fill="midnightblue" stroke="midnightblue" points="503.74,-290.72 512.98,-285.55 502.53,-283.82 503.74,-290.72"/>
</g>
<!-- Node11 -->
<g id="node8" class="node">
<title>Node11</title>
<g id="a_node8"><a xlink:href="classInputManager.html#aa180ec01ef4c17f0f9a3d681dc99817c" target="_top" xlink:title="Start the configured input &#45; calls the InputInterface::begin() method.">
<polygon fill="white" stroke="black" points="500,-348.5 500,-367.5 637,-367.5 637,-348.5 500,-348.5"/>
<text text-anchor="middle" x="568.5" y="-355.5" font-family="Helvetica,sans-Serif" font-size="10.00">InputManager::startInput</text>
</a>
</g>
</g>
<!-- Node2&#45;&gt;Node11 -->
<g id="edge8" class="edge">
<title>Node2&#45;&gt;Node11</title>
<path fill="none" stroke="midnightblue" d="M397.59,-323.55C430.71,-330.26 475.23,-339.29 510.39,-346.42"/>
<polygon fill="midnightblue" stroke="midnightblue" points="510.01,-349.91 520.51,-348.47 511.4,-343.05 510.01,-349.91"/>
</g>
<!-- Node4 -->
<g id="node4" class="node">
<title>Node4</title>
<g id="a_node4"><a xlink:href="classDisplayManager.html#ab5225aac5f432dd65258e1d568bde88d" target="_top" xlink:title="Manually deselects SPI displays that require manual selecting via the CS pin &#45; sets pin high.">
<polygon fill="white" stroke="red" points="719.5,-305 719.5,-335 868.5,-335 868.5,-305 719.5,-305"/>
<text text-anchor="start" x="727.5" y="-323" font-family="Helvetica,sans-Serif" font-size="10.00">DisplayManager::_deselect</text>
<text text-anchor="middle" x="794" y="-312" font-family="Helvetica,sans-Serif" font-size="10.00">SPIDisplay</text>
</a>
</g>
</g>
<!-- Node3&#45;&gt;Node4 -->
<g id="edge3" class="edge">
<title>Node3&#45;&gt;Node4</title>
<path fill="none" stroke="midnightblue" d="M664.28,-316.54C679.27,-316.95 694.67,-317.36 709.37,-317.75"/>
<polygon fill="midnightblue" stroke="midnightblue" points="709.34,-321.26 719.43,-318.02 709.53,-314.26 709.34,-321.26"/>
</g>
<!-- Node8 -->
<g id="node5" class="node">
<title>Node8</title>
<g id="a_node5"><a xlink:href="classDisplayManager.html#abcac9213f163018979f2a226ecf53882" target="_top" xlink:title="Manually selects SPI displays that require manual selecting via the CS pin &#45; sets pin low.">
<polygon fill="white" stroke="red" points="700,-266.5 700,-285.5 888,-285.5 888,-266.5 700,-266.5"/>
<text text-anchor="middle" x="794" y="-273.5" font-family="Helvetica,sans-Serif" font-size="10.00">DisplayManager::_selectSPIDisplay</text>
</a>
</g>
</g>
<!-- Node3&#45;&gt;Node8 -->
<g id="edge4" class="edge">
<title>Node3&#45;&gt;Node8</title>
<path fill="none" stroke="midnightblue" d="M625.61,-304.46C656.3,-299.24 694.5,-292.75 726.66,-287.28"/>
<polygon fill="midnightblue" stroke="midnightblue" points="727.6,-290.67 736.87,-285.54 726.42,-283.77 727.6,-290.67"/>
</g>
<!-- Node9 -->
<g id="node6" class="node">
<title>Node9</title>
<g id="a_node6"><a xlink:href="classDisplayInterface.html#aa869afa166e1d7f231549e3b93f7bef5" target="_top" xlink:title="Get the next DisplayInterface derived instance in the list.">
<polygon fill="white" stroke="black" points="723,-228.5 723,-247.5 865,-247.5 865,-228.5 723,-228.5"/>
<text text-anchor="middle" x="794" y="-235.5" font-family="Helvetica,sans-Serif" font-size="10.00">DisplayInterface::getNext</text>
</a>
</g>
</g>
<!-- Node3&#45;&gt;Node9 -->
<g id="edge5" class="edge">
<title>Node3&#45;&gt;Node9</title>
<path fill="none" stroke="midnightblue" d="M641.36,-304.46C649.26,-301.99 656.97,-298.89 664,-295 684.36,-283.74 679.66,-268.3 700,-257 704.19,-254.67 708.63,-252.63 713.21,-250.83"/>
<polygon fill="midnightblue" stroke="midnightblue" points="714.48,-254.1 722.76,-247.49 712.17,-247.49 714.48,-254.1"/>
</g>
<!-- Node10&#45;&gt;Node9 -->
<g id="edge7" class="edge">
<title>Node10&#45;&gt;Node9</title>
<path fill="none" stroke="midnightblue" d="M625.61,-266.46C656.3,-261.24 694.5,-254.75 726.66,-249.28"/>
<polygon fill="midnightblue" stroke="midnightblue" points="727.6,-252.67 736.87,-247.54 726.42,-245.77 727.6,-252.67"/>
</g>
<!-- Node12 -->
<g id="node9" class="node">
<title>Node12</title>
<g id="a_node9"><a xlink:href="classInputInterface.html#a3a54545cc1cd9a852ed6b598aea53b11" target="_top" xlink:title="Perform any initial once off setup or configuration here and call only once.">
<polygon fill="white" stroke="black" points="735,-354.5 735,-373.5 853,-373.5 853,-354.5 735,-354.5"/>
<text text-anchor="middle" x="794" y="-361.5" font-family="Helvetica,sans-Serif" font-size="10.00">InputInterface::begin</text>
</a>
</g>
</g>
<!-- Node11&#45;&gt;Node12 -->
<g id="edge9" class="edge">
<title>Node11&#45;&gt;Node12</title>
<path fill="none" stroke="midnightblue" d="M637.16,-359.82C664.86,-360.56 696.85,-361.42 724.61,-362.16"/>
<polygon fill="midnightblue" stroke="midnightblue" points="724.55,-365.66 734.64,-362.43 724.73,-358.67 724.55,-365.66"/>
</g>
<!-- Node15 -->
<g id="node12" class="node">
<title>Node15</title>
<g id="a_node12"><a xlink:href="classDisplayManager.html#a9ade9b696372a53b8b716d29d7b53c70" target="_top" xlink:title="Parses the displays configured in myConfig.h and creates the list of displays.">
<polygon fill="white" stroke="black" points="262,-228.5 262,-247.5 437,-247.5 437,-228.5 262,-228.5"/>
<text text-anchor="middle" x="349.5" y="-235.5" font-family="Helvetica,sans-Serif" font-size="10.00">DisplayManager::createDisplays</text>
</a>
</g>
</g>
<!-- Node14&#45;&gt;Node15 -->
<g id="edge12" class="edge">
<title>Node14&#45;&gt;Node15</title>
<path fill="none" stroke="midnightblue" d="M169.13,-171.68C189.48,-184.29 227.16,-206.25 262,-219 269.21,-221.64 276.89,-223.97 284.6,-226.02"/>
<polygon fill="midnightblue" stroke="midnightblue" points="283.78,-229.42 294.33,-228.45 285.48,-222.63 283.78,-229.42"/>
</g>
<!-- Node20 -->
<g id="node14" class="node">
<title>Node20</title>
<g id="a_node14"><a xlink:href="classInputManager.html#af956225a4057143bf0704781e036be09" target="_top" xlink:title="Call once to create the InputInterface derived input.">
<polygon fill="white" stroke="black" points="276.5,-190.5 276.5,-209.5 422.5,-209.5 422.5,-190.5 276.5,-190.5"/>
<text text-anchor="middle" x="349.5" y="-197.5" font-family="Helvetica,sans-Serif" font-size="10.00">InputManager::createInput</text>
</a>
</g>
</g>
<!-- Node14&#45;&gt;Node20 -->
<g id="edge15" class="edge">
<title>Node14&#45;&gt;Node20</title>
<path fill="none" stroke="midnightblue" d="M202.83,-171.54C229.19,-176.69 261.92,-183.08 289.67,-188.51"/>
<polygon fill="midnightblue" stroke="midnightblue" points="289.16,-191.97 299.65,-190.46 290.51,-185.1 289.16,-191.97"/>
</g>
<!-- Node27 -->
<g id="node16" class="node">
<title>Node27</title>
<g id="a_node16"><a xlink:href="classDisplayManager.html#a0dcf69d16599029ba34bf31c0c666390" target="_top" xlink:title="Get a DisplayInterface derived instance by its ID.">
<polygon fill="white" stroke="black" points="480.5,-152.5 480.5,-171.5 656.5,-171.5 656.5,-152.5 480.5,-152.5"/>
<text text-anchor="middle" x="568.5" y="-159.5" font-family="Helvetica,sans-Serif" font-size="10.00">DisplayManager::getDisplayById</text>
</a>
</g>
</g>
<!-- Node14&#45;&gt;Node27 -->
<g id="edge17" class="edge">
<title>Node14&#45;&gt;Node27</title>
<path fill="none" stroke="midnightblue" d="M215.91,-162C283.07,-162 391.22,-162 469.86,-162"/>
<polygon fill="midnightblue" stroke="midnightblue" points="470.26,-165.5 480.26,-162 470.26,-158.5 470.26,-165.5"/>
</g>
<!-- Node28 -->
<g id="node17" class="node">
<title>Node28</title>
<g id="a_node17"><a xlink:href="classInputManager.html#a2672882f95872798fd07d4d98f82063b" target="_top" xlink:title="Get the configured InputInterface.">
<polygon fill="white" stroke="black" points="284,-114.5 284,-133.5 415,-133.5 415,-114.5 284,-114.5"/>
<text text-anchor="middle" x="349.5" y="-121.5" font-family="Helvetica,sans-Serif" font-size="10.00">InputManager::getInput</text>
</a>
</g>
</g>
<!-- Node14&#45;&gt;Node28 -->
<g id="edge19" class="edge">
<title>Node14&#45;&gt;Node28</title>
<path fill="none" stroke="midnightblue" d="M202.83,-152.46C229.19,-147.31 261.92,-140.92 289.67,-135.49"/>
<polygon fill="midnightblue" stroke="midnightblue" points="290.51,-138.9 299.65,-133.54 289.16,-132.03 290.51,-138.9"/>
</g>
<!-- Node29 -->
<g id="node18" class="node">
<title>Node29</title>
<g id="a_node18"><a xlink:href="classInputInterface.html#a150a075ce0c5a95dc4fd15ccd1933d26" target="_top" xlink:title="Test if this InputInterface requires a display instance &#45; needed for TFT_eSPI as it shares the instan...">
<polygon fill="white" stroke="black" points="271,-76.5 271,-95.5 428,-95.5 428,-76.5 271,-76.5"/>
<text text-anchor="middle" x="349.5" y="-83.5" font-family="Helvetica,sans-Serif" font-size="10.00">InputInterface::needsDisplay</text>
</a>
</g>
</g>
<!-- Node14&#45;&gt;Node29 -->
<g id="edge20" class="edge">
<title>Node14&#45;&gt;Node29</title>
<path fill="none" stroke="midnightblue" d="M169.13,-152.32C189.48,-139.71 227.16,-117.75 262,-105 269.21,-102.36 276.89,-100.03 284.6,-97.98"/>
<polygon fill="midnightblue" stroke="midnightblue" points="285.48,-101.37 294.33,-95.55 283.78,-94.58 285.48,-101.37"/>
</g>
<!-- Node30 -->
<g id="node19" class="node">
<title>Node30</title>
<g id="a_node19"><a xlink:href="classInputManager.html#a27c7bc043eb9fbb8c7700624852220f6" target="_top" xlink:title="Set the display interface to retrieve required attributes &#45; note this should only be required for TFT...">
<polygon fill="white" stroke="black" points="278.5,-38.5 278.5,-57.5 420.5,-57.5 420.5,-38.5 278.5,-38.5"/>
<text text-anchor="middle" x="349.5" y="-45.5" font-family="Helvetica,sans-Serif" font-size="10.00">InputManager::setDisplay</text>
</a>
</g>
</g>
<!-- Node14&#45;&gt;Node30 -->
<g id="edge21" class="edge">
<title>Node14&#45;&gt;Node30</title>
<path fill="none" stroke="midnightblue" d="M161.82,-152.44C178.23,-133.05 218.34,-89.12 262,-67 266.8,-64.57 271.91,-62.45 277.14,-60.6"/>
<polygon fill="midnightblue" stroke="midnightblue" points="278.21,-63.93 286.67,-57.55 276.08,-57.26 278.21,-63.93"/>
</g>
<!-- Node33 -->
<g id="node22" class="node">
<title>Node33</title>
<g id="a_node22"><a xlink:href="classAtFinder.html#ac50442f56c76cd6bd05da52db7ba8910" target="_top" xlink:title="Set the logger instance to use for diagnostic logging.">
<polygon fill="white" stroke="black" points="294,-0.5 294,-19.5 405,-19.5 405,-0.5 294,-0.5"/>
<text text-anchor="middle" x="349.5" y="-7.5" font-family="Helvetica,sans-Serif" font-size="10.00">AtFinder::setLogger</text>
</a>
</g>
</g>
<!-- Node14&#45;&gt;Node33 -->
<g id="edge25" class="edge">
<title>Node14&#45;&gt;Node33</title>
<path fill="none" stroke="midnightblue" d="M158.78,-152.44C171.69,-127.68 209.84,-61.16 262,-29 268.72,-24.86 276.22,-21.61 283.92,-19.07"/>
<polygon fill="midnightblue" stroke="midnightblue" points="285.11,-22.37 293.74,-16.22 283.16,-15.65 285.11,-22.37"/>
</g>
<!-- Node34 -->
<g id="node23" class="node">
<title>Node34</title>
<g id="a_node23"><a xlink:href="classAtFinder.html#abadf56235ed457d74fff16dfdcd6d693" target="_top" xlink:title="Setup the AtFinder parser.">
<polygon fill="white" stroke="black" points="304.5,-266.5 304.5,-285.5 394.5,-285.5 394.5,-266.5 304.5,-266.5"/>
<text text-anchor="middle" x="349.5" y="-273.5" font-family="Helvetica,sans-Serif" font-size="10.00">AtFinder::setup</text>
</a>
</g>
</g>
<!-- Node14&#45;&gt;Node34 -->
<g id="edge26" class="edge">
<title>Node14&#45;&gt;Node34</title>
<path fill="none" stroke="midnightblue" d="M167.2,-171.56C182,-182.47 206.47,-201.13 226,-219 243.16,-234.7 241.75,-245.56 262,-257 271.94,-262.62 283.39,-266.57 294.64,-269.36"/>
<polygon fill="midnightblue" stroke="midnightblue" points="293.91,-272.78 304.43,-271.52 295.42,-265.95 293.91,-272.78"/>
</g>
<!-- Node16 -->
<g id="node13" class="node">
<title>Node16</title>
<g id="a_node13"><a xlink:href="classDisplayManager.html#a14afc225d393f7224bfa0474338d39f3" target="_top" xlink:title="Add a DisplayInterface derived instance to the list of displays.">
<polygon fill="white" stroke="red" points="490,-228.5 490,-247.5 647,-247.5 647,-228.5 490,-228.5"/>
<text text-anchor="middle" x="568.5" y="-235.5" font-family="Helvetica,sans-Serif" font-size="10.00">DisplayManager::addDisplay</text>
</a>
</g>
</g>
<!-- Node15&#45;&gt;Node16 -->
<g id="edge13" class="edge">
<title>Node15&#45;&gt;Node16</title>
<path fill="none" stroke="midnightblue" d="M437.2,-238C451.16,-238 465.63,-238 479.62,-238"/>
<polygon fill="midnightblue" stroke="midnightblue" points="479.71,-241.5 489.71,-238 479.71,-234.5 479.71,-241.5"/>
</g>
<!-- Node16&#45;&gt;Node9 -->
<g id="edge14" class="edge">
<title>Node16&#45;&gt;Node9</title>
<path fill="none" stroke="midnightblue" d="M647.04,-238C668.27,-238 691.31,-238 712.69,-238"/>
<polygon fill="midnightblue" stroke="midnightblue" points="712.7,-241.5 722.7,-238 712.7,-234.5 712.7,-241.5"/>
</g>
<!-- Node21 -->
<g id="node15" class="node">
<title>Node21</title>
<g id="a_node15"><a xlink:href="classInputManager.html#a3579aef6a242289012e5819b4be15e52" target="_top" xlink:title="Set the InputInterface.">
<polygon fill="white" stroke="red" points="502,-190.5 502,-209.5 635,-209.5 635,-190.5 502,-190.5"/>
<text text-anchor="middle" x="568.5" y="-197.5" font-family="Helvetica,sans-Serif" font-size="10.00">InputManager::addInput</text>
</a>
</g>
</g>
<!-- Node20&#45;&gt;Node21 -->
<g id="edge16" class="edge">
<title>Node20&#45;&gt;Node21</title>
<path fill="none" stroke="midnightblue" d="M422.76,-200C444.89,-200 469.29,-200 491.66,-200"/>
<polygon fill="midnightblue" stroke="midnightblue" points="491.77,-203.5 501.77,-200 491.77,-196.5 491.77,-203.5"/>
</g>
<!-- Node27&#45;&gt;Node9 -->
<g id="edge18" class="edge">
<title>Node27&#45;&gt;Node9</title>
<path fill="none" stroke="midnightblue" d="M627.23,-171.53C639.49,-174.13 652.28,-177.28 664,-181 700.22,-192.49 739.92,-210.99 765.58,-223.79"/>
<polygon fill="midnightblue" stroke="midnightblue" points="764.19,-227 774.7,-228.38 767.34,-220.75 764.19,-227"/>
</g>
<!-- Node31 -->
<g id="node20" class="node">
<title>Node31</title>
<g id="a_node20"><a xlink:href="classDisplayInterface.html#a3649a768b8ca59c3070f56aed1fe42c2" target="_top" xlink:title="Get the ID of this display instance.">
<polygon fill="white" stroke="black" points="730,-38.5 730,-57.5 858,-57.5 858,-38.5 730,-38.5"/>
<text text-anchor="middle" x="794" y="-45.5" font-family="Helvetica,sans-Serif" font-size="10.00">DisplayInterface::getId</text>
</a>
</g>
</g>
<!-- Node30&#45;&gt;Node31 -->
<g id="edge22" class="edge">
<title>Node30&#45;&gt;Node31</title>
<path fill="none" stroke="midnightblue" d="M420.62,-48C502.26,-48 636.5,-48 719.55,-48"/>
<polygon fill="midnightblue" stroke="midnightblue" points="719.66,-51.5 729.66,-48 719.66,-44.5 719.66,-51.5"/>
</g>
<!-- Node32 -->
<g id="node21" class="node">
<title>Node32</title>
<g id="a_node21"><a xlink:href="classInputInterface.html#a8835a0d2c51926d4636f239d888a8e71" target="_top" xlink:title="Set the DisplayInterface for this input if required.">
<polygon fill="white" stroke="black" points="497,-19.5 497,-38.5 640,-38.5 640,-19.5 497,-19.5"/>
<text text-anchor="middle" x="568.5" y="-26.5" font-family="Helvetica,sans-Serif" font-size="10.00">InputInterface::setDisplay</text>
</a>
</g>
</g>
<!-- Node30&#45;&gt;Node32 -->
<g id="edge23" class="edge">
<title>Node30&#45;&gt;Node32</title>
<path fill="none" stroke="midnightblue" d="M420.65,-41.86C441.71,-40.01 464.98,-37.98 486.67,-36.08"/>
<polygon fill="midnightblue" stroke="midnightblue" points="487.19,-39.55 496.84,-35.19 486.58,-32.57 487.19,-39.55"/>
</g>
<!-- Node32&#45;&gt;Node31 -->
<g id="edge24" class="edge">
<title>Node32&#45;&gt;Node31</title>
<path fill="none" stroke="midnightblue" d="M640.22,-35.01C665.62,-37.17 694.31,-39.61 719.91,-41.79"/>
<polygon fill="midnightblue" stroke="midnightblue" points="719.66,-45.28 729.92,-42.64 720.26,-38.3 719.66,-45.28"/>
</g>
</g>
</svg>
