<?xml version="1.0" encoding="UTF-8" standalone="no"?>
<!DOCTYPE svg PUBLIC "-//W3C//DTD SVG 1.1//EN"
 "http://www.w3.org/Graphics/SVG/1.1/DTD/svg11.dtd">
<!-- Generated by graphviz version 2.43.0 (0)
 -->
<!-- Title: setup Pages: 1 -->
<svg width="849pt" height="477pt"
 viewBox="0.00 0.00 849.00 476.50" xmlns="http://www.w3.org/2000/svg" xmlns:xlink="http://www.w3.org/1999/xlink">
<g id="graph0" class="graph" transform="scale(1 1) rotate(0) translate(4 472.5)">
<title>setup</title>
<polygon fill="white" stroke="transparent" points="-4,4 -4,-472.5 845,-472.5 845,4 -4,4"/>
<!-- Node1 -->
<g id="node1" class="node">
<title>Node1</title>
<g id="a_node1"><a xlink:title="Main setup method, initialise Configurator here.">
<polygon fill="#bfbfbf" stroke="black" points="0,-171.5 0,-190.5 44,-190.5 44,-171.5 0,-171.5"/>
<text text-anchor="middle" x="22" y="-178.5" font-family="Helvetica,sans-Serif" font-size="10.00">setup</text>
</a>
</g>
</g>
<!-- Node2 -->
<g id="node2" class="node">
<title>Node2</title>
<g id="a_node2"><a xlink:href="classController.html#a1cc0b87ab9e07d21ab47d294aa5bf607" target="_top" xlink:title="Call once to start displays and input.">
<polygon fill="white" stroke="black" points="104,-361.5 104,-380.5 202,-380.5 202,-361.5 104,-361.5"/>
<text text-anchor="middle" x="153" y="-368.5" font-family="Helvetica,sans-Serif" font-size="10.00">Controller::begin</text>
</a>
</g>
</g>
<!-- Node1&#45;&gt;Node2 -->
<g id="edge1" class="edge">
<title>Node1&#45;&gt;Node2</title>
<path fill="none" stroke="midnightblue" d="M29.57,-190.68C50.01,-220.79 112.68,-313.08 139.55,-352.66"/>
<polygon fill="midnightblue" stroke="midnightblue" points="136.77,-354.8 145.28,-361.11 142.56,-350.87 136.77,-354.8"/>
</g>
<!-- Node13 -->
<g id="node10" class="node">
<title>Node13</title>
<g id="a_node10"><a xlink:href="classConfigurator.html#a82c65d6d040b717d64520903c788dd79" target="_top" xlink:title="Get the Controller instance for this Configurator.">
<polygon fill="white" stroke="black" points="80,-133.5 80,-152.5 226,-152.5 226,-133.5 80,-133.5"/>
<text text-anchor="middle" x="153" y="-140.5" font-family="Helvetica,sans-Serif" font-size="10.00">Configurator::getController</text>
</a>
</g>
</g>
<!-- Node1&#45;&gt;Node13 -->
<g id="edge12" class="edge">
<title>Node1&#45;&gt;Node13</title>
<path fill="none" stroke="midnightblue" d="M44.01,-173.64C54.73,-169.98 68,-165.58 80,-162 87.84,-159.66 96.2,-157.32 104.35,-155.12"/>
<polygon fill="midnightblue" stroke="midnightblue" points="105.37,-158.47 114.13,-152.51 103.57,-151.7 105.37,-158.47"/>
</g>
<!-- Node14 -->
<g id="node11" class="node">
<title>Node14</title>
<g id="a_node11"><a xlink:href="classConfigurator.html#a25ee5e1b0a64d971232d6ecaaadd5d61" target="_top" xlink:title="Call all one&#45;shot initialisation or begin methods on startup.">
<polygon fill="white" stroke="black" points="90.5,-171.5 90.5,-190.5 215.5,-190.5 215.5,-171.5 90.5,-171.5"/>
<text text-anchor="middle" x="153" y="-178.5" font-family="Helvetica,sans-Serif" font-size="10.00">Configurator::initialise</text>
</a>
</g>
</g>
<!-- Node1&#45;&gt;Node14 -->
<g id="edge13" class="edge">
<title>Node1&#45;&gt;Node14</title>
<path fill="none" stroke="midnightblue" d="M44.01,-181C54.14,-181 66.94,-181 80.16,-181"/>
<polygon fill="midnightblue" stroke="midnightblue" points="80.32,-184.5 90.32,-181 80.32,-177.5 80.32,-184.5"/>
</g>
<!-- Node3 -->
<g id="node3" class="node">
<title>Node3</title>
<g id="a_node3"><a xlink:href="classDisplayManager.html#aa0e0e26134a34beeb30e27c00b8e829f" target="_top" xlink:title="Calls the displayStartupInfo of all Display instances to display the version.">
<polygon fill="white" stroke="black" points="262,-418.5 262,-437.5 453,-437.5 453,-418.5 262,-418.5"/>
<text text-anchor="middle" x="357.5" y="-425.5" font-family="Helvetica,sans-Serif" font-size="10.00">DisplayManager::displayStartupInfo</text>
</a>
</g>
</g>
<!-- Node2&#45;&gt;Node3 -->
<g id="edge2" class="edge">
<title>Node2&#45;&gt;Node3</title>
<path fill="none" stroke="midnightblue" d="M178.14,-380.59C199.83,-388.94 232.68,-400.94 262,-409 271.68,-411.66 282.02,-414.12 292.16,-416.32"/>
<polygon fill="midnightblue" stroke="midnightblue" points="291.72,-419.81 302.22,-418.44 293.16,-412.96 291.72,-419.81"/>
</g>
<!-- Node10 -->
<g id="node7" class="node">
<title>Node10</title>
<g id="a_node7"><a xlink:href="classDisplayManager.html#a270daf83b6af22558fde42034254b351" target="_top" xlink:title="Call the begin() method for all associated Display instances.">
<polygon fill="white" stroke="black" points="274,-380.5 274,-399.5 441,-399.5 441,-380.5 274,-380.5"/>
<text text-anchor="middle" x="357.5" y="-387.5" font-family="Helvetica,sans-Serif" font-size="10.00">DisplayManager::startDisplays</text>
</a>
</g>
</g>
<!-- Node2&#45;&gt;Node10 -->
<g id="edge6" class="edge">
<title>Node2&#45;&gt;Node10</title>
<path fill="none" stroke="midnightblue" d="M202.25,-375.53C220.73,-377.26 242.49,-379.3 263.75,-381.3"/>
<polygon fill="midnightblue" stroke="midnightblue" points="263.51,-384.79 273.8,-382.24 264.17,-377.82 263.51,-384.79"/>
</g>
<!-- Node11 -->
<g id="node8" class="node">
<title>Node11</title>
<g id="a_node8"><a xlink:href="classInputManager.html#aa180ec01ef4c17f0f9a3d681dc99817c" target="_top" xlink:title="Start the configured input &#45; calls the InputInterface::begin() method.">
<polygon fill="white" stroke="black" points="289,-342.5 289,-361.5 426,-361.5 426,-342.5 289,-342.5"/>
<text text-anchor="middle" x="357.5" y="-349.5" font-family="Helvetica,sans-Serif" font-size="10.00">InputManager::startInput</text>
</a>
</g>
</g>
<!-- Node2&#45;&gt;Node11 -->
<g id="edge10" class="edge">
<title>Node2&#45;&gt;Node11</title>
<path fill="none" stroke="midnightblue" d="M202.25,-366.47C225.07,-364.33 252.9,-361.72 278.6,-359.31"/>
<polygon fill="midnightblue" stroke="midnightblue" points="279.08,-362.78 288.71,-358.36 278.43,-355.81 279.08,-362.78"/>
</g>
<!-- Node4 -->
<g id="node4" class="node">
<title>Node4</title>
<g id="a_node4"><a xlink:href="classDisplayManager.html#ab5225aac5f432dd65258e1d568bde88d" target="_top" xlink:title="Manually deselects SPI displays that require manual selecting via the CS pin &#45; sets pin high.">
<polygon fill="white" stroke="red" points="508.5,-438 508.5,-468 657.5,-468 657.5,-438 508.5,-438"/>
<text text-anchor="start" x="516.5" y="-456" font-family="Helvetica,sans-Serif" font-size="10.00">DisplayManager::_deselect</text>
<text text-anchor="middle" x="583" y="-445" font-family="Helvetica,sans-Serif" font-size="10.00">SPIDisplay</text>
</a>
</g>
</g>
<!-- Node3&#45;&gt;Node4 -->
<g id="edge3" class="edge">
<title>Node3&#45;&gt;Node4</title>
<path fill="none" stroke="midnightblue" d="M443.63,-437.52C461.47,-439.52 480.27,-441.62 498.07,-443.61"/>
<polygon fill="midnightblue" stroke="midnightblue" points="498.09,-447.14 508.42,-444.77 498.87,-440.18 498.09,-447.14"/>
</g>
<!-- Node8 -->
<g id="node5" class="node">
<title>Node8</title>
<g id="a_node5"><a xlink:href="classDisplayManager.html#abcac9213f163018979f2a226ecf53882" target="_top" xlink:title="Manually selects SPI displays that require manual selecting via the CS pin &#45; sets pin low.">
<polygon fill="white" stroke="red" points="489,-399.5 489,-418.5 677,-418.5 677,-399.5 489,-399.5"/>
<text text-anchor="middle" x="583" y="-406.5" font-family="Helvetica,sans-Serif" font-size="10.00">DisplayManager::_selectSPIDisplay</text>
</a>
</g>
</g>
<!-- Node3&#45;&gt;Node8 -->
<g id="edge4" class="edge">
<title>Node3&#45;&gt;Node8</title>
<path fill="none" stroke="midnightblue" d="M453.28,-419.94C461.75,-419.22 470.35,-418.49 478.88,-417.77"/>
<polygon fill="midnightblue" stroke="midnightblue" points="479.18,-421.25 488.85,-416.92 478.59,-414.28 479.18,-421.25"/>
</g>
<!-- Node9 -->
<g id="node6" class="node">
<title>Node9</title>
<g id="a_node6"><a xlink:href="classDisplayInterface.html#aa869afa166e1d7f231549e3b93f7bef5" target="_top" xlink:title="Get the next DisplayInterface derived instance in the list.">
<polygon fill="white" stroke="black" points="512,-361.5 512,-380.5 654,-380.5 654,-361.5 512,-361.5"/>
<text text-anchor="middle" x="583" y="-368.5" font-family="Helvetica,sans-Serif" font-size="10.00">DisplayInterface::getNext</text>
</a>
</g>
</g>
<!-- Node3&#45;&gt;Node9 -->
<g id="edge5" class="edge">
<title>Node3&#45;&gt;Node9</title>
<path fill="none" stroke="midnightblue" d="M419.19,-418.48C430.59,-415.95 442.28,-412.82 453,-409 470.04,-402.93 471.97,-396.09 489,-390 496.5,-387.32 504.49,-384.97 512.5,-382.93"/>
<polygon fill="midnightblue" stroke="midnightblue" points="513.36,-386.32 522.27,-380.58 511.73,-379.51 513.36,-386.32"/>
</g>
<!-- Node10&#45;&gt;Node4 -->
<g id="edge7" class="edge">
<title>Node10&#45;&gt;Node4</title>
<path fill="none" stroke="midnightblue" d="M419.19,-399.52C430.59,-402.05 442.28,-405.18 453,-409 470.04,-415.07 472.16,-421.39 489,-428 495.27,-430.46 501.88,-432.77 508.55,-434.91"/>
<polygon fill="midnightblue" stroke="midnightblue" points="507.76,-438.33 518.35,-437.92 509.82,-431.64 507.76,-438.33"/>
</g>
<!-- Node10&#45;&gt;Node8 -->
<g id="edge8" class="edge">
<title>Node10&#45;&gt;Node8</title>
<path fill="none" stroke="midnightblue" d="M441.09,-397.02C453.35,-398.06 466.12,-399.15 478.75,-400.22"/>
<polygon fill="midnightblue" stroke="midnightblue" points="478.56,-403.72 488.83,-401.08 479.16,-396.74 478.56,-403.72"/>
</g>
<!-- Node10&#45;&gt;Node9 -->
<g id="edge9" class="edge">
<title>Node10&#45;&gt;Node9</title>
<path fill="none" stroke="midnightblue" d="M441.09,-382.98C460.89,-381.3 482,-379.5 501.7,-377.83"/>
<polygon fill="midnightblue" stroke="midnightblue" points="502.19,-381.3 511.86,-376.96 501.6,-374.32 502.19,-381.3"/>
</g>
<!-- Node12 -->
<g id="node9" class="node">
<title>Node12</title>
<g id="a_node9"><a xlink:href="classInputInterface.html#a3a54545cc1cd9a852ed6b598aea53b11" target="_top" xlink:title="Perform any initial once off setup or configuration here and call only once.">
<polygon fill="white" stroke="black" points="524,-323.5 524,-342.5 642,-342.5 642,-323.5 524,-323.5"/>
<text text-anchor="middle" x="583" y="-330.5" font-family="Helvetica,sans-Serif" font-size="10.00">InputInterface::begin</text>
</a>
</g>
</g>
<!-- Node11&#45;&gt;Node12 -->
<g id="edge11" class="edge">
<title>Node11&#45;&gt;Node12</title>
<path fill="none" stroke="midnightblue" d="M426.16,-346.25C453.86,-343.89 485.85,-341.17 513.61,-338.81"/>
<polygon fill="midnightblue" stroke="midnightblue" points="513.97,-342.3 523.64,-337.96 513.38,-335.32 513.97,-342.3"/>
</g>
<!-- Node15 -->
<g id="node12" class="node">
<title>Node15</title>
<g id="a_node12"><a xlink:href="classDisplayManager.html#a9ade9b696372a53b8b716d29d7b53c70" target="_top" xlink:title="Parses the displays configured in myConfig.h and creates the list of displays (this is implemented in...">
<polygon fill="white" stroke="black" points="270,-266.5 270,-285.5 445,-285.5 445,-266.5 270,-266.5"/>
<text text-anchor="middle" x="357.5" y="-273.5" font-family="Helvetica,sans-Serif" font-size="10.00">DisplayManager::createDisplays</text>
</a>
</g>
</g>
<!-- Node14&#45;&gt;Node15 -->
<g id="edge14" class="edge">
<title>Node14&#45;&gt;Node15</title>
<path fill="none" stroke="midnightblue" d="M164.43,-190.64C182.72,-206.97 222.4,-239.98 262,-257 268.09,-259.62 274.57,-261.88 281.16,-263.84"/>
<polygon fill="midnightblue" stroke="midnightblue" points="280.29,-267.23 290.86,-266.49 282.14,-260.48 280.29,-267.23"/>
</g>
<!-- Node16 -->
<g id="node13" class="node">
<title>Node16</title>
<g id="a_node13"><a xlink:href="classInputManager.html#a3307bd524c644992394b1f74ad9c1433" target="_top" xlink:title="Call once to create the InputInterface derived input.">
<polygon fill="white" stroke="black" points="284.5,-228.5 284.5,-247.5 430.5,-247.5 430.5,-228.5 284.5,-228.5"/>
<text text-anchor="middle" x="357.5" y="-235.5" font-family="Helvetica,sans-Serif" font-size="10.00">InputManager::createInput</text>
</a>
</g>
</g>
<!-- Node14&#45;&gt;Node16 -->
<g id="edge15" class="edge">
<title>Node14&#45;&gt;Node16</title>
<path fill="none" stroke="midnightblue" d="M178.14,-190.59C199.83,-198.94 232.68,-210.94 262,-219 271.68,-221.66 282.02,-224.12 292.16,-226.32"/>
<polygon fill="midnightblue" stroke="midnightblue" points="291.72,-229.81 302.22,-228.44 293.16,-222.96 291.72,-229.81"/>
</g>
<!-- Node17 -->
<g id="node14" class="node">
<title>Node17</title>
<g id="a_node14"><a xlink:href="classDisplayManager.html#a0dcf69d16599029ba34bf31c0c666390" target="_top" xlink:title="Get a DisplayInterface derived instance by its ID.">
<polygon fill="white" stroke="black" points="269.5,-304.5 269.5,-323.5 445.5,-323.5 445.5,-304.5 269.5,-304.5"/>
<text text-anchor="middle" x="357.5" y="-311.5" font-family="Helvetica,sans-Serif" font-size="10.00">DisplayManager::getDisplayById</text>
</a>
</g>
</g>
<!-- Node14&#45;&gt;Node17 -->
<g id="edge16" class="edge">
<title>Node14&#45;&gt;Node17</title>
<path fill="none" stroke="midnightblue" d="M159.96,-190.52C174.43,-212.77 213.81,-268.34 262,-295 266.17,-297.31 270.59,-299.34 275.14,-301.12"/>
<polygon fill="midnightblue" stroke="midnightblue" points="274.05,-304.45 284.64,-304.46 276.36,-297.84 274.05,-304.45"/>
</g>
<!-- Node18 -->
<g id="node15" class="node">
<title>Node18</title>
<g id="a_node15"><a xlink:href="classInputManager.html#a2672882f95872798fd07d4d98f82063b" target="_top" xlink:title="Get the configured InputInterface.">
<polygon fill="white" stroke="black" points="292,-190.5 292,-209.5 423,-209.5 423,-190.5 292,-190.5"/>
<text text-anchor="middle" x="357.5" y="-197.5" font-family="Helvetica,sans-Serif" font-size="10.00">InputManager::getInput</text>
</a>
</g>
</g>
<!-- Node14&#45;&gt;Node18 -->
<g id="edge18" class="edge">
<title>Node14&#45;&gt;Node18</title>
<path fill="none" stroke="midnightblue" d="M215.58,-186.78C236.37,-188.73 259.82,-190.93 281.53,-192.97"/>
<polygon fill="midnightblue" stroke="midnightblue" points="281.42,-196.47 291.7,-193.92 282.07,-189.5 281.42,-196.47"/>
</g>
<!-- Node19 -->
<g id="node16" class="node">
<title>Node19</title>
<g id="a_node16"><a xlink:href="classInputInterface.html#a150a075ce0c5a95dc4fd15ccd1933d26" target="_top" xlink:title="Test if this InputInterface requires a display instance &#45; needed for TFT_eSPI as it shares the instan...">
<polygon fill="white" stroke="black" points="279,-152.5 279,-171.5 436,-171.5 436,-152.5 279,-152.5"/>
<text text-anchor="middle" x="357.5" y="-159.5" font-family="Helvetica,sans-Serif" font-size="10.00">InputInterface::needsDisplay</text>
</a>
</g>
</g>
<!-- Node14&#45;&gt;Node19 -->
<g id="edge19" class="edge">
<title>Node14&#45;&gt;Node19</title>
<path fill="none" stroke="midnightblue" d="M215.58,-175.22C232.21,-173.66 250.54,-171.94 268.33,-170.27"/>
<polygon fill="midnightblue" stroke="midnightblue" points="269.09,-173.72 278.72,-169.3 268.43,-166.75 269.09,-173.72"/>
</g>
<!-- Node20 -->
<g id="node17" class="node">
<title>Node20</title>
<g id="a_node17"><a xlink:href="classInputManager.html#a085a9206b827e9666b798cb8706c20c5" target="_top" xlink:title="Set the CallbackInterface derived instance for user input to use for callbacks.">
<polygon fill="white" stroke="black" points="284,-114.5 284,-133.5 431,-133.5 431,-114.5 284,-114.5"/>
<text text-anchor="middle" x="357.5" y="-121.5" font-family="Helvetica,sans-Serif" font-size="10.00">InputManager::setCallback</text>
</a>
</g>
</g>
<!-- Node14&#45;&gt;Node20 -->
<g id="edge20" class="edge">
<title>Node14&#45;&gt;Node20</title>
<path fill="none" stroke="midnightblue" d="M196.77,-171.43C206.52,-168.78 216.73,-165.62 226,-162 242.86,-155.43 244.96,-149.07 262,-143 269.62,-140.29 277.73,-137.92 285.88,-135.87"/>
<polygon fill="midnightblue" stroke="midnightblue" points="286.88,-139.23 295.81,-133.52 285.27,-132.42 286.88,-139.23"/>
</g>
<!-- Node21 -->
<g id="node18" class="node">
<title>Node21</title>
<g id="a_node18"><a xlink:href="classInputManager.html#a27c7bc043eb9fbb8c7700624852220f6" target="_top" xlink:title="Set the display interface to retrieve required attributes &#45; note this should only be required for TFT...">
<polygon fill="white" stroke="black" points="286.5,-76.5 286.5,-95.5 428.5,-95.5 428.5,-76.5 286.5,-76.5"/>
<text text-anchor="middle" x="357.5" y="-83.5" font-family="Helvetica,sans-Serif" font-size="10.00">InputManager::setDisplay</text>
</a>
</g>
</g>
<!-- Node14&#45;&gt;Node21 -->
<g id="edge21" class="edge">
<title>Node14&#45;&gt;Node21</title>
<path fill="none" stroke="midnightblue" d="M208.34,-171.46C214.63,-169 220.68,-165.9 226,-162 250.16,-144.28 237.32,-121.99 262,-105 266.57,-101.86 271.53,-99.21 276.72,-96.98"/>
<polygon fill="midnightblue" stroke="midnightblue" points="278.12,-100.19 286.26,-93.41 275.66,-93.64 278.12,-100.19"/>
</g>
<!-- Node24 -->
<g id="node21" class="node">
<title>Node24</title>
<g id="a_node21"><a xlink:href="classAtFinder.html#ac50442f56c76cd6bd05da52db7ba8910" target="_top" xlink:title="Set the logger instance to use for diagnostic logging.">
<polygon fill="white" stroke="black" points="302,-0.5 302,-19.5 413,-19.5 413,-0.5 302,-0.5"/>
<text text-anchor="middle" x="357.5" y="-7.5" font-family="Helvetica,sans-Serif" font-size="10.00">AtFinder::setLogger</text>
</a>
</g>
</g>
<!-- Node14&#45;&gt;Node24 -->
<g id="edge25" class="edge">
<title>Node14&#45;&gt;Node24</title>
<path fill="none" stroke="midnightblue" d="M212.75,-171.39C217.62,-168.91 222.15,-165.83 226,-162 269.44,-118.84 217.29,-70.85 262,-29 270.31,-21.22 280.89,-16.23 291.93,-13.1"/>
<polygon fill="midnightblue" stroke="midnightblue" points="292.78,-16.5 301.71,-10.81 291.18,-9.68 292.78,-16.5"/>
</g>
<!-- Node25 -->
<g id="node22" class="node">
<title>Node25</title>
<g id="a_node22"><a xlink:href="classAtFinder.html#abadf56235ed457d74fff16dfdcd6d693" target="_top" xlink:title="Setup the AtFinder parser.">
<polygon fill="white" stroke="black" points="312.5,-38.5 312.5,-57.5 402.5,-57.5 402.5,-38.5 312.5,-38.5"/>
<text text-anchor="middle" x="357.5" y="-45.5" font-family="Helvetica,sans-Serif" font-size="10.00">AtFinder::setup</text>
</a>
</g>
</g>
<!-- Node14&#45;&gt;Node25 -->
<g id="edge26" class="edge">
<title>Node14&#45;&gt;Node25</title>
<path fill="none" stroke="midnightblue" d="M211.3,-171.49C216.65,-169.01 221.68,-165.89 226,-162 259.55,-131.78 227.57,-96.21 262,-67 273.09,-57.59 287.54,-52.38 301.79,-49.6"/>
<polygon fill="midnightblue" stroke="midnightblue" points="302.75,-53 312.09,-47.99 301.66,-46.08 302.75,-53"/>
</g>
<!-- Node17&#45;&gt;Node9 -->
<g id="edge17" class="edge">
<title>Node17&#45;&gt;Node9</title>
<path fill="none" stroke="midnightblue" d="M419.19,-323.52C430.59,-326.05 442.28,-329.18 453,-333 470.04,-339.07 471.97,-345.91 489,-352 496.5,-354.68 504.49,-357.03 512.5,-359.07"/>
<polygon fill="midnightblue" stroke="midnightblue" points="511.73,-362.49 522.27,-361.42 513.36,-355.68 511.73,-362.49"/>
</g>
<!-- Node22 -->
<g id="node19" class="node">
<title>Node22</title>
<g id="a_node19"><a xlink:href="classDisplayInterface.html#a3649a768b8ca59c3070f56aed1fe42c2" target="_top" xlink:title="Get the ID of this display instance.">
<polygon fill="white" stroke="black" points="713,-76.5 713,-95.5 841,-95.5 841,-76.5 713,-76.5"/>
<text text-anchor="middle" x="777" y="-83.5" font-family="Helvetica,sans-Serif" font-size="10.00">DisplayInterface::getId</text>
</a>
</g>
</g>
<!-- Node21&#45;&gt;Node22 -->
<g id="edge22" class="edge">
<title>Node21&#45;&gt;Node22</title>
<path fill="none" stroke="midnightblue" d="M428.85,-86C504.91,-86 625.59,-86 702.76,-86"/>
<polygon fill="midnightblue" stroke="midnightblue" points="702.89,-89.5 712.89,-86 702.89,-82.5 702.89,-89.5"/>
</g>
<!-- Node23 -->
<g id="node20" class="node">
<title>Node23</title>
<g id="a_node20"><a xlink:href="classInputInterface.html#a8835a0d2c51926d4636f239d888a8e71" target="_top" xlink:title="Set the DisplayInterface for this input if required.">
<polygon fill="white" stroke="black" points="511.5,-95.5 511.5,-114.5 654.5,-114.5 654.5,-95.5 511.5,-95.5"/>
<text text-anchor="middle" x="583" y="-102.5" font-family="Helvetica,sans-Serif" font-size="10.00">InputInterface::setDisplay</text>
</a>
</g>
</g>
<!-- Node21&#45;&gt;Node23 -->
<g id="edge23" class="edge">
<title>Node21&#45;&gt;Node23</title>
<path fill="none" stroke="midnightblue" d="M428.6,-91.96C451.68,-93.92 477.52,-96.12 501.32,-98.14"/>
<polygon fill="midnightblue" stroke="midnightblue" points="501.12,-101.64 511.38,-99 501.71,-94.66 501.12,-101.64"/>
</g>
<!-- Node23&#45;&gt;Node22 -->
<g id="edge24" class="edge">
<title>Node23&#45;&gt;Node22</title>
<path fill="none" stroke="midnightblue" d="M654.68,-98.01C670.29,-96.46 686.86,-94.82 702.58,-93.27"/>
<polygon fill="midnightblue" stroke="midnightblue" points="703.16,-96.73 712.77,-92.26 702.47,-89.76 703.16,-96.73"/>
</g>
</g>
</svg>
