<?xml version="1.0" encoding="UTF-8" standalone="no"?>
<!DOCTYPE svg PUBLIC "-//W3C//DTD SVG 1.1//EN"
 "http://www.w3.org/Graphics/SVG/1.1/DTD/svg11.dtd">
<!-- Generated by graphviz version 2.43.0 (0)
 -->
<!-- Title: /home/runner/work/EX&#45;Display/EX&#45;Display/EX&#45;Display.ino Pages: 1 -->
<!--zoomable 386 -->
<svg id="main" version="1.1" xmlns="http://www.w3.org/2000/svg" xmlns:xlink="http://www.w3.org/1999/xlink" xml:space="preserve" onload="init(evt)">
<style type="text/css"><![CDATA[
.edge:hover path { stroke: red; }
.edge:hover polygon { stroke: red; fill: red; }
]]></style>
<script type="text/javascript"><![CDATA[
var edges = document.getElementsByTagName('g');
if (edges && edges.length) {
  for (var i=0;i<edges.length;i++) {
    if (edges[i].id.substr(0,4)=='edge') {
      edges[i].setAttribute('class','edge');
    }
  }
}
]]></script>
        <defs>
                <circle id="rim" cx="0" cy="0" r="7"/>
                <circle id="rim2" cx="0" cy="0" r="3.5"/>
                <g id="zoomPlus">
                        <use xlink:href="#rim" fill="#404040">
                                <set attributeName="fill" to="#808080" begin="zoomplus.mouseover" end="zoomplus.mouseout"/>
                        </use>
                        <path d="M-4,0h8M0,-4v8" fill="none" stroke="white" stroke-width="1.5" pointer-events="none"/>
                </g>
                <g id="zoomMin">
                        <use xlink:href="#rim" fill="#404040">
                                <set attributeName="fill" to="#808080" begin="zoomminus.mouseover" end="zoomminus.mouseout"/>
                        </use>
                        <path d="M-4,0h8" fill="none" stroke="white" stroke-width="1.5" pointer-events="none"/>
                </g>
                <g id="dirArrow">
                        <path fill="none" stroke="white" stroke-width="1.5" d="M0,-3.0v7 M-2.5,-0.5L0,-3.0L2.5,-0.5"/>
                </g>
               <g id="resetDef">
                       <use xlink:href="#rim2" fill="#404040">
                               <set attributeName="fill" to="#808080" begin="reset.mouseover" end="reset.mouseout"/>
                       </use>
               </g>
        </defs>

<script type="text/javascript">
var viewWidth = 552;
var viewHeight = 386;
var sectionId = 'dynsection-0';
</script>
<script xlink:href="svgpan.js"/>
<svg id="graph" class="graph">
<g id="viewport">
<title>/home/runner/work/EX&#45;Display/EX&#45;Display/EX&#45;Display.ino</title>
<polygon fill="white" stroke="transparent" points="-4,4 -4,-382 547.51,-382 547.51,4 -4,4"/>
<!-- Node1 -->
<g id="node1" class="node">
<title>Node1</title>
<g id="a_node1"><a xlink:title=" ">
<polygon fill="#bfbfbf" stroke="black" points="120.01,-336.5 120.01,-377.5 248.01,-377.5 248.01,-336.5 120.01,-336.5"/>
<text text-anchor="start" x="128.01" y="-365.5" font-family="Helvetica,sans-Serif" font-size="10.00">/home/runner/work/EX</text>
<text text-anchor="start" x="128.01" y="-354.5" font-family="Helvetica,sans-Serif" font-size="10.00">&#45;Display/EX&#45;Display/EX</text>
<text text-anchor="middle" x="184.01" y="-343.5" font-family="Helvetica,sans-Serif" font-size="10.00">&#45;Display.ino</text>
</a>
</g>
</g>
<!-- Node2 -->
<g id="node2" class="node">
<title>Node2</title>
<g id="a_node2"><a xlink:href="Configurator_8h.html" target="_top" xlink:title=" ">
<polygon fill="white" stroke="black" points="141.51,-280.5 141.51,-299.5 226.51,-299.5 226.51,-280.5 141.51,-280.5"/>
<text text-anchor="middle" x="184.01" y="-287.5" font-family="Helvetica,sans-Serif" font-size="10.00">Configurator.h</text>
</a>
</g>
</g>
<!-- Node1&#45;&gt;Node2 -->
<g id="edge1" class="edge">
<title>Node1&#45;&gt;Node2</title>
<path fill="none" stroke="midnightblue" d="M184.01,-336.5C184.01,-328.07 184.01,-318.24 184.01,-309.87"/>
<polygon fill="midnightblue" stroke="midnightblue" points="187.51,-309.65 184.01,-299.65 180.51,-309.65 187.51,-309.65"/>
</g>
<!-- Node3 -->
<g id="node3" class="node">
<title>Node3</title>
<g id="a_node3"><a xlink:href="Controller_8h.html" target="_top" xlink:title=" ">
<polygon fill="white" stroke="black" points="258.51,-224.5 258.51,-243.5 331.51,-243.5 331.51,-224.5 258.51,-224.5"/>
<text text-anchor="middle" x="295.01" y="-231.5" font-family="Helvetica,sans-Serif" font-size="10.00">Controller.h</text>
</a>
</g>
</g>
<!-- Node2&#45;&gt;Node3 -->
<g id="edge2" class="edge">
<title>Node2&#45;&gt;Node3</title>
<path fill="none" stroke="midnightblue" d="M201.85,-280.32C219.73,-271.62 247.49,-258.12 268.06,-248.11"/>
<polygon fill="midnightblue" stroke="midnightblue" points="269.76,-251.18 277.22,-243.65 266.7,-244.88 269.76,-251.18"/>
</g>
<!-- Node6 -->
<g id="node5" class="node">
<title>Node6</title>
<g id="a_node5"><a xlink:href="Logger_8h.html" target="_top" xlink:title=" ">
<polygon fill="white" stroke="black" points="179.01,-56.5 179.01,-75.5 237.01,-75.5 237.01,-56.5 179.01,-56.5"/>
<text text-anchor="middle" x="208.01" y="-63.5" font-family="Helvetica,sans-Serif" font-size="10.00">Logger.h</text>
</a>
</g>
</g>
<!-- Node2&#45;&gt;Node6 -->
<g id="edge20" class="edge">
<title>Node2&#45;&gt;Node6</title>
<path fill="none" stroke="midnightblue" d="M143.55,-280.45C81.55,-265.24 -26.53,-229.2 6.01,-168 37.97,-107.88 119.52,-82.85 168.67,-72.97"/>
<polygon fill="midnightblue" stroke="midnightblue" points="169.47,-76.38 178.64,-71.08 168.16,-69.5 169.47,-76.38"/>
</g>
<!-- Node13 -->
<g id="node7" class="node">
<title>Node13</title>
<g id="a_node7"><a xlink:href="DisplayManager_8h.html" target="_top" xlink:title=" ">
<polygon fill="white" stroke="red" points="15.01,-168.5 15.01,-187.5 119.01,-187.5 119.01,-168.5 15.01,-168.5"/>
<text text-anchor="middle" x="67.01" y="-175.5" font-family="Helvetica,sans-Serif" font-size="10.00">DisplayManager.h</text>
</a>
</g>
</g>
<!-- Node2&#45;&gt;Node13 -->
<g id="edge18" class="edge">
<title>Node2&#45;&gt;Node13</title>
<path fill="none" stroke="midnightblue" d="M173.71,-280.2C163.3,-271.24 146.83,-256.88 133.01,-244 115.48,-227.65 95.99,-208.3 82.76,-194.99"/>
<polygon fill="midnightblue" stroke="midnightblue" points="84.93,-192.21 75.41,-187.57 79.96,-197.14 84.93,-192.21"/>
</g>
<!-- Node15 -->
<g id="node8" class="node">
<title>Node15</title>
<g id="a_node8"><a xlink:href="InputManager_8h.html" target="_top" xlink:title=" ">
<polygon fill="white" stroke="red" points="175.01,-168.5 175.01,-187.5 267.01,-187.5 267.01,-168.5 175.01,-168.5"/>
<text text-anchor="middle" x="221.01" y="-175.5" font-family="Helvetica,sans-Serif" font-size="10.00">InputManager.h</text>
</a>
</g>
</g>
<!-- Node2&#45;&gt;Node15 -->
<g id="edge19" class="edge">
<title>Node2&#45;&gt;Node15</title>
<path fill="none" stroke="midnightblue" d="M186.92,-280.37C192.91,-262.54 206.79,-221.3 214.87,-197.27"/>
<polygon fill="midnightblue" stroke="midnightblue" points="218.25,-198.19 218.12,-187.59 211.62,-195.95 218.25,-198.19"/>
</g>
<!-- Node16 -->
<g id="node9" class="node">
<title>Node16</title>
<g id="a_node9"><a xlink:href="Defines_8h.html" target="_top" xlink:title=" ">
<polygon fill="white" stroke="black" points="118.01,-112.5 118.01,-131.5 180.01,-131.5 180.01,-112.5 118.01,-112.5"/>
<text text-anchor="middle" x="149.01" y="-119.5" font-family="Helvetica,sans-Serif" font-size="10.00">Defines.h</text>
</a>
</g>
</g>
<!-- Node2&#45;&gt;Node16 -->
<g id="edge17" class="edge">
<title>Node2&#45;&gt;Node16</title>
<path fill="none" stroke="midnightblue" d="M182.13,-280.08C176.62,-253.95 160.44,-177.21 152.93,-141.58"/>
<polygon fill="midnightblue" stroke="midnightblue" points="156.31,-140.63 150.82,-131.57 149.46,-142.08 156.31,-140.63"/>
</g>
<!-- Node18 -->
<g id="node10" class="node">
<title>Node18</title>
<g id="a_node10"><a xlink:href="ScreenManager_8h.html" target="_top" xlink:title=" ">
<polygon fill="white" stroke="red" points="442.51,-168.5 442.51,-187.5 543.51,-187.5 543.51,-168.5 442.51,-168.5"/>
<text text-anchor="middle" x="493.01" y="-175.5" font-family="Helvetica,sans-Serif" font-size="10.00">ScreenManager.h</text>
</a>
</g>
</g>
<!-- Node2&#45;&gt;Node18 -->
<g id="edge21" class="edge">
<title>Node2&#45;&gt;Node18</title>
<path fill="none" stroke="midnightblue" d="M218.4,-280.47C250.47,-272.2 299.47,-258.77 341.01,-244 385.47,-228.19 435.52,-205.88 465.64,-191.94"/>
<polygon fill="midnightblue" stroke="midnightblue" points="467.47,-194.95 475.05,-187.55 464.51,-188.6 467.47,-194.95"/>
</g>
<!-- Node4 -->
<g id="node4" class="node">
<title>Node4</title>
<g id="a_node4"><a xlink:href="CallbackInterface_8h.html" target="_top" xlink:title=" ">
<polygon fill="white" stroke="red" points="274.51,-112.5 274.51,-131.5 385.51,-131.5 385.51,-112.5 274.51,-112.5"/>
<text text-anchor="middle" x="330.01" y="-119.5" font-family="Helvetica,sans-Serif" font-size="10.00">CallbackInterface.h</text>
</a>
</g>
</g>
<!-- Node3&#45;&gt;Node4 -->
<g id="edge3" class="edge">
<title>Node3&#45;&gt;Node4</title>
<path fill="none" stroke="midnightblue" d="M297.76,-224.37C303.43,-206.54 316.55,-165.3 324.2,-141.27"/>
<polygon fill="midnightblue" stroke="midnightblue" points="327.58,-142.18 327.28,-131.59 320.91,-140.06 327.58,-142.18"/>
</g>
<!-- Node3&#45;&gt;Node6 -->
<g id="edge14" class="edge">
<title>Node3&#45;&gt;Node6</title>
<path fill="none" stroke="midnightblue" d="M293.36,-224.28C290.74,-211.51 285,-187.16 276.01,-168 261.06,-136.11 236.77,-102.95 221.63,-83.68"/>
<polygon fill="midnightblue" stroke="midnightblue" points="224.17,-81.26 215.19,-75.63 218.7,-85.63 224.17,-81.26"/>
</g>
<!-- Node7 -->
<g id="node6" class="node">
<title>Node7</title>
<g id="a_node6"><a xlink:href="Arduino_8h.html" target="_top" xlink:title=" ">
<polygon fill="white" stroke="red" points="298.51,-0.5 298.51,-19.5 361.51,-19.5 361.51,-0.5 298.51,-0.5"/>
<text text-anchor="middle" x="330.01" y="-7.5" font-family="Helvetica,sans-Serif" font-size="10.00">Arduino.h</text>
</a>
</g>
</g>
<!-- Node3&#45;&gt;Node7 -->
<g id="edge16" class="edge">
<title>Node3&#45;&gt;Node7</title>
<path fill="none" stroke="midnightblue" d="M308.7,-224.49C331.71,-209.26 377.37,-174.9 395.01,-132 411.31,-92.37 372.71,-48.76 348.24,-26.28"/>
<polygon fill="midnightblue" stroke="midnightblue" points="350.39,-23.51 340.59,-19.51 345.75,-28.75 350.39,-23.51"/>
</g>
<!-- Node3&#45;&gt;Node13 -->
<g id="edge7" class="edge">
<title>Node3&#45;&gt;Node13</title>
<path fill="none" stroke="midnightblue" d="M258.89,-224.44C219.36,-215.08 155.92,-200.06 112.9,-189.87"/>
<polygon fill="midnightblue" stroke="midnightblue" points="113.51,-186.42 102.97,-187.52 111.89,-193.23 113.51,-186.42"/>
</g>
<!-- Node3&#45;&gt;Node15 -->
<g id="edge9" class="edge">
<title>Node3&#45;&gt;Node15</title>
<path fill="none" stroke="midnightblue" d="M283.12,-224.32C271.86,-216.11 254.73,-203.6 241.3,-193.81"/>
<polygon fill="midnightblue" stroke="midnightblue" points="243.26,-190.9 233.12,-187.83 239.13,-196.56 243.26,-190.9"/>
</g>
<!-- Node3&#45;&gt;Node18 -->
<g id="edge15" class="edge">
<title>Node3&#45;&gt;Node18</title>
<path fill="none" stroke="midnightblue" d="M326.39,-224.44C360.28,-215.2 414.42,-200.44 451.74,-190.26"/>
<polygon fill="midnightblue" stroke="midnightblue" points="453.06,-193.52 461.79,-187.52 451.22,-186.77 453.06,-193.52"/>
</g>
<!-- Node4&#45;&gt;Node6 -->
<g id="edge4" class="edge">
<title>Node4&#45;&gt;Node6</title>
<path fill="none" stroke="midnightblue" d="M310.68,-112.44C290.69,-103.6 259.27,-89.69 236.45,-79.59"/>
<polygon fill="midnightblue" stroke="midnightblue" points="237.81,-76.36 227.25,-75.52 234.98,-82.76 237.81,-76.36"/>
</g>
<!-- Node4&#45;&gt;Node7 -->
<g id="edge6" class="edge">
<title>Node4&#45;&gt;Node7</title>
<path fill="none" stroke="midnightblue" d="M330.01,-112.37C330.01,-94.62 330.01,-53.67 330.01,-29.6"/>
<polygon fill="midnightblue" stroke="midnightblue" points="333.51,-29.59 330.01,-19.59 326.51,-29.59 333.51,-29.59"/>
</g>
<!-- Node6&#45;&gt;Node7 -->
<g id="edge5" class="edge">
<title>Node6&#45;&gt;Node7</title>
<path fill="none" stroke="midnightblue" d="M227.34,-56.44C247.33,-47.6 278.76,-33.69 301.58,-23.59"/>
<polygon fill="midnightblue" stroke="midnightblue" points="303.04,-26.76 310.77,-19.52 300.21,-20.36 303.04,-26.76"/>
</g>
<!-- Node13&#45;&gt;Node6 -->
<g id="edge8" class="edge">
<title>Node13&#45;&gt;Node6</title>
<path fill="none" stroke="midnightblue" d="M70.67,-168.3C76.79,-154.66 90.3,-128.15 109.01,-112 126.38,-97.02 149.55,-86.12 169.12,-78.81"/>
<polygon fill="midnightblue" stroke="midnightblue" points="170.43,-82.06 178.68,-75.4 168.08,-75.46 170.43,-82.06"/>
</g>
<!-- Node15&#45;&gt;Node4 -->
<g id="edge10" class="edge">
<title>Node15&#45;&gt;Node4</title>
<path fill="none" stroke="midnightblue" d="M238.53,-168.32C256.08,-159.62 283.34,-146.12 303.54,-136.11"/>
<polygon fill="midnightblue" stroke="midnightblue" points="305.14,-139.23 312.54,-131.65 302.03,-132.96 305.14,-139.23"/>
</g>
<!-- Node15&#45;&gt;Node6 -->
<g id="edge13" class="edge">
<title>Node15&#45;&gt;Node6</title>
<path fill="none" stroke="midnightblue" d="M219.99,-168.37C217.89,-150.62 213.05,-109.67 210.21,-85.6"/>
<polygon fill="midnightblue" stroke="midnightblue" points="213.68,-85.11 209.03,-75.59 206.73,-85.93 213.68,-85.11"/>
</g>
<!-- Node15&#45;&gt;Node16 -->
<g id="edge11" class="edge">
<title>Node15&#45;&gt;Node16</title>
<path fill="none" stroke="midnightblue" d="M209.44,-168.32C198.59,-160.18 182.13,-147.84 169.13,-138.09"/>
<polygon fill="midnightblue" stroke="midnightblue" points="170.89,-135.03 160.79,-131.83 166.69,-140.63 170.89,-135.03"/>
</g>
<!-- Node16&#45;&gt;Node6 -->
<g id="edge12" class="edge">
<title>Node16&#45;&gt;Node6</title>
<path fill="none" stroke="midnightblue" d="M158.49,-112.32C167.21,-104.34 180.36,-92.31 190.91,-82.65"/>
<polygon fill="midnightblue" stroke="midnightblue" points="193.35,-85.17 198.36,-75.83 188.62,-80 193.35,-85.17"/>
</g>
</g>
</svg>
        <g id="navigator" transform="translate(0 0)" fill="#404254">
                <rect fill="#f2f5e9" fill-opacity="0.5" stroke="#606060" stroke-width=".5" x="0" y="0" width="60" height="60"/>
                <use id="zoomplus" xlink:href="#zoomPlus" x="17" y="9" onmousedown="handleZoom(evt,'in')"/>
                <use id="zoomminus" xlink:href="#zoomMin" x="42" y="9" onmousedown="handleZoom(evt,'out')"/>
                <use id="reset" xlink:href="#resetDef" x="30" y="36" onmousedown="handleReset()"/>
                <g id="arrowUp" xlink:href="#dirArrow" transform="translate(30 24)" onmousedown="handlePan(0,-1)">
                  <use xlink:href="#rim" fill="#404040">
                        <set attributeName="fill" to="#808080" begin="arrowUp.mouseover" end="arrowUp.mouseout"/>
                  </use>
                  <path fill="none" stroke="white" stroke-width="1.5" d="M0,-3.0v7 M-2.5,-0.5L0,-3.0L2.5,-0.5"/>
                </g>
                <g id="arrowRight" xlink:href="#dirArrow" transform="rotate(90) translate(36 -43)" onmousedown="handlePan(1,0)">
                  <use xlink:href="#rim" fill="#404040">
                        <set attributeName="fill" to="#808080" begin="arrowRight.mouseover" end="arrowRight.mouseout"/>
                  </use>
                  <path fill="none" stroke="white" stroke-width="1.5" d="M0,-3.0v7 M-2.5,-0.5L0,-3.0L2.5,-0.5"/>
                </g>
                <g id="arrowDown" xlink:href="#dirArrow" transform="rotate(180) translate(-30 -48)" onmousedown="handlePan(0,1)">
                  <use xlink:href="#rim" fill="#404040">
                        <set attributeName="fill" to="#808080" begin="arrowDown.mouseover" end="arrowDown.mouseout"/>
                  </use>
                  <path fill="none" stroke="white" stroke-width="1.5" d="M0,-3.0v7 M-2.5,-0.5L0,-3.0L2.5,-0.5"/>
                </g>
                <g id="arrowLeft" xlink:href="#dirArrow" transform="rotate(270) translate(-36 17)" onmousedown="handlePan(-1,0)">
                  <use xlink:href="#rim" fill="#404040">
                        <set attributeName="fill" to="#808080" begin="arrowLeft.mouseover" end="arrowLeft.mouseout"/>
                  </use>
                  <path fill="none" stroke="white" stroke-width="1.5" d="M0,-3.0v7 M-2.5,-0.5L0,-3.0L2.5,-0.5"/>
                </g>
        </g>
        <svg viewBox="0 0 15 15" width="100%" height="30px" preserveAspectRatio="xMaxYMin meet">
         <g id="arrow_out" transform="scale(0.3 0.3)">
          <a xlink:href="EX-Display_8ino__incl_org.svg" target="_base">
           <rect id="button" ry="5" rx="5" y="6" x="6" height="38" width="38"
                fill="#f2f5e9" fill-opacity="0.5" stroke="#606060" stroke-width="1.0"/>
           <path id="arrow"
             d="M 11.500037,31.436501 C 11.940474,20.09759 22.043105,11.32322 32.158766,21.979434 L 37.068811,17.246167 C 37.068811,17.246167 37.088388,32 37.088388,32 L 22.160133,31.978069 C 22.160133,31.978069 26.997745,27.140456 26.997745,27.140456 C 18.528582,18.264221 13.291696,25.230495 11.500037,31.436501 z"
             style="fill:#404040;"/>
          </a>
         </g>
        </svg>
</svg>
