<?xml version="1.0" encoding="UTF-8" standalone="no"?>
<!DOCTYPE svg PUBLIC "-//W3C//DTD SVG 1.1//EN"
 "http://www.w3.org/Graphics/SVG/1.1/DTD/svg11.dtd">
<!-- Generated by graphviz version 2.43.0 (0)
 -->
<!-- Title: setup Pages: 1 -->
<svg width="863pt" height="484pt"
 viewBox="0.00 0.00 863.00 484.00" xmlns="http://www.w3.org/2000/svg" xmlns:xlink="http://www.w3.org/1999/xlink">
<g id="graph0" class="graph" transform="scale(1 1) rotate(0) translate(4 480)">
<title>setup</title>
<polygon fill="white" stroke="transparent" points="-4,4 -4,-480 859,-480 859,4 -4,4"/>
<!-- Node1 -->
<g id="node1" class="node">
<title>Node1</title>
<g id="a_node1"><a xlink:title="Main setup method, initialise Configurator here.">
<polygon fill="#bfbfbf" stroke="black" points="0,-256.5 0,-275.5 44,-275.5 44,-256.5 0,-256.5"/>
<text text-anchor="middle" x="22" y="-263.5" font-family="Helvetica,sans-Serif" font-size="10.00">setup</text>
</a>
</g>
</g>
<!-- Node2 -->
<g id="node2" class="node">
<title>Node2</title>
<g id="a_node2"><a xlink:href="classController.html#a1cc0b87ab9e07d21ab47d294aa5bf607" target="_top" xlink:title="Call once to start displays and input.">
<polygon fill="white" stroke="black" points="104,-361.5 104,-380.5 202,-380.5 202,-361.5 104,-361.5"/>
<text text-anchor="middle" x="153" y="-368.5" font-family="Helvetica,sans-Serif" font-size="10.00">Controller::begin</text>
</a>
</g>
</g>
<!-- Node1&#45;&gt;Node2 -->
<g id="edge1" class="edge">
<title>Node1&#45;&gt;Node2</title>
<path fill="none" stroke="midnightblue" d="M34.9,-275.69C57.08,-293.74 104.92,-332.68 132.09,-354.79"/>
<polygon fill="midnightblue" stroke="midnightblue" points="130.16,-357.74 140.12,-361.33 134.58,-352.31 130.16,-357.74"/>
</g>
<!-- Node14 -->
<g id="node10" class="node">
<title>Node14</title>
<g id="a_node10"><a xlink:href="classConfigurator.html#a82c65d6d040b717d64520903c788dd79" target="_top" xlink:title="Get the Controller instance for this Configurator.">
<polygon fill="white" stroke="black" points="80,-256.5 80,-275.5 226,-275.5 226,-256.5 80,-256.5"/>
<text text-anchor="middle" x="153" y="-263.5" font-family="Helvetica,sans-Serif" font-size="10.00">Configurator::getController</text>
</a>
</g>
</g>
<!-- Node1&#45;&gt;Node14 -->
<g id="edge12" class="edge">
<title>Node1&#45;&gt;Node14</title>
<path fill="none" stroke="midnightblue" d="M44.01,-266C51.48,-266 60.41,-266 69.89,-266"/>
<polygon fill="midnightblue" stroke="midnightblue" points="69.93,-269.5 79.93,-266 69.93,-262.5 69.93,-269.5"/>
</g>
<!-- Node15 -->
<g id="node11" class="node">
<title>Node15</title>
<g id="a_node11"><a xlink:href="classConfigurator.html#a25ee5e1b0a64d971232d6ecaaadd5d61" target="_top" xlink:title="Call all one&#45;shot initialisation or begin methods on startup.">
<polygon fill="white" stroke="black" points="90.5,-171.5 90.5,-190.5 215.5,-190.5 215.5,-171.5 90.5,-171.5"/>
<text text-anchor="middle" x="153" y="-178.5" font-family="Helvetica,sans-Serif" font-size="10.00">Configurator::initialise</text>
</a>
</g>
</g>
<!-- Node1&#45;&gt;Node15 -->
<g id="edge13" class="edge">
<title>Node1&#45;&gt;Node15</title>
<path fill="none" stroke="midnightblue" d="M37.8,-256.25C60.06,-241.58 102.35,-213.71 128.76,-196.31"/>
<polygon fill="midnightblue" stroke="midnightblue" points="130.95,-199.06 137.37,-190.64 127.1,-193.22 130.95,-199.06"/>
</g>
<!-- Node3 -->
<g id="node3" class="node">
<title>Node3</title>
<g id="a_node3"><a xlink:href="classDisplayManager.html#aa0e0e26134a34beeb30e27c00b8e829f" target="_top" xlink:title="Calls the displayStartupInfo of all Display instances to display the version.">
<polygon fill="white" stroke="black" points="262,-418.5 262,-437.5 453,-437.5 453,-418.5 262,-418.5"/>
<text text-anchor="middle" x="357.5" y="-425.5" font-family="Helvetica,sans-Serif" font-size="10.00">DisplayManager::displayStartupInfo</text>
</a>
</g>
</g>
<!-- Node2&#45;&gt;Node3 -->
<g id="edge2" class="edge">
<title>Node2&#45;&gt;Node3</title>
<path fill="none" stroke="midnightblue" d="M178.14,-380.59C199.83,-388.94 232.68,-400.94 262,-409 271.68,-411.66 282.02,-414.12 292.16,-416.32"/>
<polygon fill="midnightblue" stroke="midnightblue" points="291.72,-419.81 302.22,-418.44 293.16,-412.96 291.72,-419.81"/>
</g>
<!-- Node9 -->
<g id="node6" class="node">
<title>Node9</title>
<g id="a_node6"><a xlink:href="classDisplayManager.html#a270daf83b6af22558fde42034254b351" target="_top" xlink:title="Call the begin() method for all associated Display instances.">
<polygon fill="white" stroke="black" points="274,-380.5 274,-399.5 441,-399.5 441,-380.5 274,-380.5"/>
<text text-anchor="middle" x="357.5" y="-387.5" font-family="Helvetica,sans-Serif" font-size="10.00">DisplayManager::startDisplays</text>
</a>
</g>
</g>
<!-- Node2&#45;&gt;Node9 -->
<g id="edge6" class="edge">
<title>Node2&#45;&gt;Node9</title>
<path fill="none" stroke="midnightblue" d="M202.25,-375.53C220.73,-377.26 242.49,-379.3 263.75,-381.3"/>
<polygon fill="midnightblue" stroke="midnightblue" points="263.51,-384.79 273.8,-382.24 264.17,-377.82 263.51,-384.79"/>
</g>
<!-- Node12 -->
<g id="node8" class="node">
<title>Node12</title>
<g id="a_node8"><a xlink:href="classInputManager.html#aa180ec01ef4c17f0f9a3d681dc99817c" target="_top" xlink:title="Start the configured input &#45; calls the InputInterface::begin() method.">
<polygon fill="white" stroke="black" points="289,-342.5 289,-361.5 426,-361.5 426,-342.5 289,-342.5"/>
<text text-anchor="middle" x="357.5" y="-349.5" font-family="Helvetica,sans-Serif" font-size="10.00">InputManager::startInput</text>
</a>
</g>
</g>
<!-- Node2&#45;&gt;Node12 -->
<g id="edge10" class="edge">
<title>Node2&#45;&gt;Node12</title>
<path fill="none" stroke="midnightblue" d="M202.25,-366.47C225.07,-364.33 252.9,-361.72 278.6,-359.31"/>
<polygon fill="midnightblue" stroke="midnightblue" points="279.08,-362.78 288.71,-358.36 278.43,-355.81 279.08,-362.78"/>
</g>
<!-- Node4 -->
<g id="node4" class="node">
<title>Node4</title>
<g id="a_node4"><a xlink:href="classDisplayManager.html#abcac9213f163018979f2a226ecf53882" target="_top" xlink:title="Manually selects SPI displays that require manual selecting via the CS pin &#45; sets pin low.">
<polygon fill="white" stroke="red" points="489,-456.5 489,-475.5 677,-475.5 677,-456.5 489,-456.5"/>
<text text-anchor="middle" x="583" y="-463.5" font-family="Helvetica,sans-Serif" font-size="10.00">DisplayManager::_selectSPIDisplay</text>
</a>
</g>
</g>
<!-- Node3&#45;&gt;Node4 -->
<g id="edge3" class="edge">
<title>Node3&#45;&gt;Node4</title>
<path fill="none" stroke="midnightblue" d="M414.61,-437.54C445.3,-442.76 483.5,-449.25 515.66,-454.72"/>
<polygon fill="midnightblue" stroke="midnightblue" points="515.42,-458.23 525.87,-456.46 516.6,-451.33 515.42,-458.23"/>
</g>
<!-- Node8 -->
<g id="node5" class="node">
<title>Node8</title>
<g id="a_node5"><a xlink:href="classDisplayInterface.html#aa869afa166e1d7f231549e3b93f7bef5" target="_top" xlink:title="Get the next DisplayInterface derived instance in the list.">
<polygon fill="white" stroke="black" points="713,-380.5 713,-399.5 855,-399.5 855,-380.5 713,-380.5"/>
<text text-anchor="middle" x="784" y="-387.5" font-family="Helvetica,sans-Serif" font-size="10.00">DisplayInterface::getNext</text>
</a>
</g>
</g>
<!-- Node3&#45;&gt;Node8 -->
<g id="edge5" class="edge">
<title>Node3&#45;&gt;Node8</title>
<path fill="none" stroke="midnightblue" d="M453.04,-422.27C516.47,-418.08 601.85,-411.79 677,-404 686.08,-403.06 695.59,-401.96 705.03,-400.8"/>
<polygon fill="midnightblue" stroke="midnightblue" points="705.72,-404.24 715.21,-399.53 704.85,-397.3 705.72,-404.24"/>
</g>
<!-- Node4&#45;&gt;Node8 -->
<g id="edge4" class="edge">
<title>Node4&#45;&gt;Node8</title>
<path fill="none" stroke="midnightblue" d="M628.56,-456.45C644.1,-452.61 661.52,-447.73 677,-442 705.34,-431.52 736.19,-415.86 757.27,-404.47"/>
<polygon fill="midnightblue" stroke="midnightblue" points="759.12,-407.44 766.21,-399.57 755.76,-401.3 759.12,-407.44"/>
</g>
<!-- Node9&#45;&gt;Node8 -->
<g id="edge9" class="edge">
<title>Node9&#45;&gt;Node8</title>
<path fill="none" stroke="midnightblue" d="M441.1,-390C516.66,-390 627.75,-390 702.61,-390"/>
<polygon fill="midnightblue" stroke="midnightblue" points="702.92,-393.5 712.92,-390 702.92,-386.5 702.92,-393.5"/>
</g>
<!-- Node10 -->
<g id="node7" class="node">
<title>Node10</title>
<g id="a_node7"><a xlink:href="classDisplayManager.html#a33f6184fa8292c66a6cd2f05f264ef0f" target="_top" xlink:title="Set the chip select pin state for all displays that have it set and select them.">
<polygon fill="white" stroke="red" points="509.5,-331 509.5,-361 656.5,-361 656.5,-331 509.5,-331"/>
<text text-anchor="start" x="517.5" y="-349" font-family="Helvetica,sans-Serif" font-size="10.00">DisplayManager::_setupAll</text>
<text text-anchor="middle" x="583" y="-338" font-family="Helvetica,sans-Serif" font-size="10.00">SPICSPins</text>
</a>
</g>
</g>
<!-- Node9&#45;&gt;Node10 -->
<g id="edge7" class="edge">
<title>Node9&#45;&gt;Node10</title>
<path fill="none" stroke="midnightblue" d="M407,-380.45C433.99,-375.14 468.32,-368.38 499.42,-362.26"/>
<polygon fill="midnightblue" stroke="midnightblue" points="500.25,-365.66 509.39,-360.3 498.9,-358.79 500.25,-365.66"/>
</g>
<!-- Node10&#45;&gt;Node8 -->
<g id="edge8" class="edge">
<title>Node10&#45;&gt;Node8</title>
<path fill="none" stroke="midnightblue" d="M651.93,-361.02C677.44,-366.66 706.05,-372.99 730.02,-378.28"/>
<polygon fill="midnightblue" stroke="midnightblue" points="729.46,-381.75 739.98,-380.49 730.97,-374.91 729.46,-381.75"/>
</g>
<!-- Node13 -->
<g id="node9" class="node">
<title>Node13</title>
<g id="a_node9"><a xlink:href="classInputInterface.html#a3a54545cc1cd9a852ed6b598aea53b11" target="_top" xlink:title="Perform any initial once off setup or configuration here and call only once.">
<polygon fill="white" stroke="black" points="524,-292.5 524,-311.5 642,-311.5 642,-292.5 524,-292.5"/>
<text text-anchor="middle" x="583" y="-299.5" font-family="Helvetica,sans-Serif" font-size="10.00">InputInterface::begin</text>
</a>
</g>
</g>
<!-- Node12&#45;&gt;Node13 -->
<g id="edge11" class="edge">
<title>Node12&#45;&gt;Node13</title>
<path fill="none" stroke="midnightblue" d="M410.7,-342.46C424.51,-339.67 439.37,-336.44 453,-333 469.22,-328.9 472.81,-326.21 489,-322 500.25,-319.08 512.34,-316.25 523.97,-313.69"/>
<polygon fill="midnightblue" stroke="midnightblue" points="525,-317.04 534.03,-311.51 523.51,-310.2 525,-317.04"/>
</g>
<!-- Node16 -->
<g id="node12" class="node">
<title>Node16</title>
<g id="a_node12"><a xlink:href="classDisplayManager.html#a9ade9b696372a53b8b716d29d7b53c70" target="_top" xlink:title="Parses the displays configured in myConfig.h and creates the list of displays (this is implemented in...">
<polygon fill="white" stroke="black" points="270,-304.5 270,-323.5 445,-323.5 445,-304.5 270,-304.5"/>
<text text-anchor="middle" x="357.5" y="-311.5" font-family="Helvetica,sans-Serif" font-size="10.00">DisplayManager::createDisplays</text>
</a>
</g>
</g>
<!-- Node15&#45;&gt;Node16 -->
<g id="edge14" class="edge">
<title>Node15&#45;&gt;Node16</title>
<path fill="none" stroke="midnightblue" d="M165.84,-190.67C180.65,-203.02 206.42,-225.39 226,-247 243.91,-266.76 239.45,-280.77 262,-295 265.23,-297.04 268.64,-298.87 272.17,-300.5"/>
<polygon fill="midnightblue" stroke="midnightblue" points="271.16,-303.87 281.74,-304.4 273.8,-297.39 271.16,-303.87"/>
</g>
<!-- Node17 -->
<g id="node13" class="node">
<title>Node17</title>
<g id="a_node13"><a xlink:href="classInputManager.html#a3307bd524c644992394b1f74ad9c1433" target="_top" xlink:title="Call once to create the InputInterface derived input.">
<polygon fill="white" stroke="black" points="284.5,-266.5 284.5,-285.5 430.5,-285.5 430.5,-266.5 284.5,-266.5"/>
<text text-anchor="middle" x="357.5" y="-273.5" font-family="Helvetica,sans-Serif" font-size="10.00">InputManager::createInput</text>
</a>
</g>
</g>
<!-- Node15&#45;&gt;Node17 -->
<g id="edge15" class="edge">
<title>Node15&#45;&gt;Node17</title>
<path fill="none" stroke="midnightblue" d="M165.86,-190.74C184.96,-205.95 224.22,-235.35 262,-252 272.66,-256.7 284.42,-260.61 295.92,-263.81"/>
<polygon fill="midnightblue" stroke="midnightblue" points="295.36,-267.28 305.92,-266.44 297.14,-260.51 295.36,-267.28"/>
</g>
<!-- Node18 -->
<g id="node14" class="node">
<title>Node18</title>
<g id="a_node14"><a xlink:href="classDisplayManager.html#a0dcf69d16599029ba34bf31c0c666390" target="_top" xlink:title="Get a DisplayInterface derived instance by its ID.">
<polygon fill="white" stroke="black" points="495,-241.5 495,-260.5 671,-260.5 671,-241.5 495,-241.5"/>
<text text-anchor="middle" x="583" y="-248.5" font-family="Helvetica,sans-Serif" font-size="10.00">DisplayManager::getDisplayById</text>
</a>
</g>
</g>
<!-- Node15&#45;&gt;Node18 -->
<g id="edge16" class="edge">
<title>Node15&#45;&gt;Node18</title>
<path fill="none" stroke="midnightblue" d="M176.3,-190.61C197.82,-199.46 231.54,-212.22 262,-219 335.72,-235.41 420.87,-243.41 484.8,-247.31"/>
<polygon fill="midnightblue" stroke="midnightblue" points="484.68,-250.81 494.87,-247.9 485.09,-243.82 484.68,-250.81"/>
</g>
<!-- Node19 -->
<g id="node15" class="node">
<title>Node19</title>
<g id="a_node15"><a xlink:href="classInputManager.html#a2672882f95872798fd07d4d98f82063b" target="_top" xlink:title="Get the configured InputInterface.">
<polygon fill="white" stroke="black" points="292,-190.5 292,-209.5 423,-209.5 423,-190.5 292,-190.5"/>
<text text-anchor="middle" x="357.5" y="-197.5" font-family="Helvetica,sans-Serif" font-size="10.00">InputManager::getInput</text>
</a>
</g>
</g>
<!-- Node15&#45;&gt;Node19 -->
<g id="edge18" class="edge">
<title>Node15&#45;&gt;Node19</title>
<path fill="none" stroke="midnightblue" d="M215.58,-186.78C236.37,-188.73 259.82,-190.93 281.53,-192.97"/>
<polygon fill="midnightblue" stroke="midnightblue" points="281.42,-196.47 291.7,-193.92 282.07,-189.5 281.42,-196.47"/>
</g>
<!-- Node20 -->
<g id="node16" class="node">
<title>Node20</title>
<g id="a_node16"><a xlink:href="classInputInterface.html#a150a075ce0c5a95dc4fd15ccd1933d26" target="_top" xlink:title="Test if this InputInterface requires a display instance &#45; needed for TFT_eSPI as it shares the instan...">
<polygon fill="white" stroke="black" points="279,-152.5 279,-171.5 436,-171.5 436,-152.5 279,-152.5"/>
<text text-anchor="middle" x="357.5" y="-159.5" font-family="Helvetica,sans-Serif" font-size="10.00">InputInterface::needsDisplay</text>
</a>
</g>
</g>
<!-- Node15&#45;&gt;Node20 -->
<g id="edge19" class="edge">
<title>Node15&#45;&gt;Node20</title>
<path fill="none" stroke="midnightblue" d="M215.58,-175.22C232.21,-173.66 250.54,-171.94 268.33,-170.27"/>
<polygon fill="midnightblue" stroke="midnightblue" points="269.09,-173.72 278.72,-169.3 268.43,-166.75 269.09,-173.72"/>
</g>
<!-- Node21 -->
<g id="node17" class="node">
<title>Node21</title>
<g id="a_node17"><a xlink:href="classInputManager.html#a085a9206b827e9666b798cb8706c20c5" target="_top" xlink:title="Set the CallbackInterface derived instance for user input to use for callbacks.">
<polygon fill="white" stroke="black" points="284,-114.5 284,-133.5 431,-133.5 431,-114.5 284,-114.5"/>
<text text-anchor="middle" x="357.5" y="-121.5" font-family="Helvetica,sans-Serif" font-size="10.00">InputManager::setCallback</text>
</a>
</g>
</g>
<!-- Node15&#45;&gt;Node21 -->
<g id="edge20" class="edge">
<title>Node15&#45;&gt;Node21</title>
<path fill="none" stroke="midnightblue" d="M178.14,-171.41C199.83,-163.06 232.68,-151.06 262,-143 271.68,-140.34 282.02,-137.88 292.16,-135.68"/>
<polygon fill="midnightblue" stroke="midnightblue" points="293.16,-139.04 302.22,-133.56 291.72,-132.19 293.16,-139.04"/>
</g>
<!-- Node22 -->
<g id="node18" class="node">
<title>Node22</title>
<g id="a_node18"><a xlink:href="classInputManager.html#a27c7bc043eb9fbb8c7700624852220f6" target="_top" xlink:title="Set the display interface to retrieve required attributes &#45; note this should only be required for TFT...">
<polygon fill="white" stroke="black" points="286.5,-76.5 286.5,-95.5 428.5,-95.5 428.5,-76.5 286.5,-76.5"/>
<text text-anchor="middle" x="357.5" y="-83.5" font-family="Helvetica,sans-Serif" font-size="10.00">InputManager::setDisplay</text>
</a>
</g>
</g>
<!-- Node15&#45;&gt;Node22 -->
<g id="edge21" class="edge">
<title>Node15&#45;&gt;Node22</title>
<path fill="none" stroke="midnightblue" d="M164.43,-171.36C182.72,-155.03 222.4,-122.02 262,-105 268.09,-102.38 274.57,-100.12 281.16,-98.16"/>
<polygon fill="midnightblue" stroke="midnightblue" points="282.14,-101.52 290.86,-95.51 280.29,-94.77 282.14,-101.52"/>
</g>
<!-- Node25 -->
<g id="node21" class="node">
<title>Node25</title>
<g id="a_node21"><a xlink:href="classAtFinder.html#ac50442f56c76cd6bd05da52db7ba8910" target="_top" xlink:title="Set the logger instance to use for diagnostic logging.">
<polygon fill="white" stroke="black" points="302,-38.5 302,-57.5 413,-57.5 413,-38.5 302,-38.5"/>
<text text-anchor="middle" x="357.5" y="-45.5" font-family="Helvetica,sans-Serif" font-size="10.00">AtFinder::setLogger</text>
</a>
</g>
</g>
<!-- Node15&#45;&gt;Node25 -->
<g id="edge25" class="edge">
<title>Node15&#45;&gt;Node25</title>
<path fill="none" stroke="midnightblue" d="M159.96,-171.48C174.43,-149.23 213.81,-93.66 262,-67 271.1,-61.97 281.35,-58.26 291.65,-55.52"/>
<polygon fill="midnightblue" stroke="midnightblue" points="292.59,-58.9 301.52,-53.19 290.98,-52.09 292.59,-58.9"/>
</g>
<!-- Node26 -->
<g id="node22" class="node">
<title>Node26</title>
<g id="a_node22"><a xlink:href="classAtFinder.html#abadf56235ed457d74fff16dfdcd6d693" target="_top" xlink:title="Setup the AtFinder parser.">
<polygon fill="white" stroke="black" points="312.5,-0.5 312.5,-19.5 402.5,-19.5 402.5,-0.5 312.5,-0.5"/>
<text text-anchor="middle" x="357.5" y="-7.5" font-family="Helvetica,sans-Serif" font-size="10.00">AtFinder::setup</text>
</a>
</g>
</g>
<!-- Node15&#45;&gt;Node26 -->
<g id="edge26" class="edge">
<title>Node15&#45;&gt;Node26</title>
<path fill="none" stroke="midnightblue" d="M157.85,-171.24C169.18,-143.84 205.25,-65.84 262,-29 273.86,-21.3 288.19,-16.62 302.06,-13.79"/>
<polygon fill="midnightblue" stroke="midnightblue" points="302.79,-17.22 312.04,-12.05 301.58,-10.32 302.79,-17.22"/>
</g>
<!-- Node18&#45;&gt;Node8 -->
<g id="edge17" class="edge">
<title>Node18&#45;&gt;Node8</title>
<path fill="none" stroke="midnightblue" d="M624.72,-260.61C641.69,-265.7 661.09,-273.01 677,-283 715.88,-307.42 751.29,-348.67 769.7,-372.18"/>
<polygon fill="midnightblue" stroke="midnightblue" points="767.03,-374.45 775.89,-380.25 772.58,-370.19 767.03,-374.45"/>
</g>
<!-- Node23 -->
<g id="node19" class="node">
<title>Node23</title>
<g id="a_node19"><a xlink:href="classDisplayInterface.html#a3649a768b8ca59c3070f56aed1fe42c2" target="_top" xlink:title="Get the ID of this display instance.">
<polygon fill="white" stroke="black" points="720,-76.5 720,-95.5 848,-95.5 848,-76.5 720,-76.5"/>
<text text-anchor="middle" x="784" y="-83.5" font-family="Helvetica,sans-Serif" font-size="10.00">DisplayInterface::getId</text>
</a>
</g>
</g>
<!-- Node22&#45;&gt;Node23 -->
<g id="edge22" class="edge">
<title>Node22&#45;&gt;Node23</title>
<path fill="none" stroke="midnightblue" d="M428.6,-86C506.12,-86 630.48,-86 709.39,-86"/>
<polygon fill="midnightblue" stroke="midnightblue" points="709.73,-89.5 719.73,-86 709.73,-82.5 709.73,-89.5"/>
</g>
<!-- Node24 -->
<g id="node20" class="node">
<title>Node24</title>
<g id="a_node20"><a xlink:href="classInputInterface.html#a8835a0d2c51926d4636f239d888a8e71" target="_top" xlink:title="Set the DisplayInterface for this input if required.">
<polygon fill="white" stroke="black" points="511.5,-57.5 511.5,-76.5 654.5,-76.5 654.5,-57.5 511.5,-57.5"/>
<text text-anchor="middle" x="583" y="-64.5" font-family="Helvetica,sans-Serif" font-size="10.00">InputInterface::setDisplay</text>
</a>
</g>
</g>
<!-- Node22&#45;&gt;Node24 -->
<g id="edge23" class="edge">
<title>Node22&#45;&gt;Node24</title>
<path fill="none" stroke="midnightblue" d="M428.6,-80.04C451.68,-78.08 477.52,-75.88 501.32,-73.86"/>
<polygon fill="midnightblue" stroke="midnightblue" points="501.71,-77.34 511.38,-73 501.12,-70.36 501.71,-77.34"/>
</g>
<!-- Node24&#45;&gt;Node23 -->
<g id="edge24" class="edge">
<title>Node24&#45;&gt;Node23</title>
<path fill="none" stroke="midnightblue" d="M654.72,-73.75C672.55,-75.45 691.72,-77.28 709.67,-79"/>
<polygon fill="midnightblue" stroke="midnightblue" points="709.5,-82.5 719.79,-79.97 710.17,-75.53 709.5,-82.5"/>
</g>
</g>
</svg>
