<?xml version="1.0" encoding="UTF-8" standalone="no"?>
<!DOCTYPE svg PUBLIC "-//W3C//DTD SVG 1.1//EN"
 "http://www.w3.org/Graphics/SVG/1.1/DTD/svg11.dtd">
<!-- Generated by graphviz version 2.43.0 (0)
 -->
<!-- Title: Graphical Class Hierarchy Pages: 1 -->
<svg width="241pt" height="754pt"
 viewBox="0.00 0.00 241.00 753.50" xmlns="http://www.w3.org/2000/svg" xmlns:xlink="http://www.w3.org/1999/xlink">
<g id="graph0" class="graph" transform="scale(1 1) rotate(0) translate(4 749.5)">
<title>Graphical Class Hierarchy</title>
<!-- Node0 -->
<g id="Node000000" class="node">
<title>Node0</title>
<g id="a_Node000000"><a xlink:title=" ">
<polygon fill="#e0e0e0" stroke="#999999" points="36,-382 0,-382 0,-363 36,-363 36,-382"/>
<text text-anchor="middle" x="18" y="-370" font-family="Helvetica,sans-Serif" font-size="10.00">Test</text>
</a>
</g>
</g>
<!-- Node1 -->
<g id="Node000001" class="node">
<title>Node1</title>
<g id="a_Node000001"><a xlink:href="classAtFinderLoggerIntegrationTests.html" target="_top" xlink:title="Test harness integration testing of ConsoleInput and Logger classes.">
<polygon fill="white" stroke="#666666" points="224,-745.5 81,-745.5 81,-715.5 224,-715.5 224,-745.5"/>
<text text-anchor="start" x="89" y="-733.5" font-family="Helvetica,sans-Serif" font-size="10.00">AtFinderLoggerIntegration</text>
<text text-anchor="middle" x="152.5" y="-722.5" font-family="Helvetica,sans-Serif" font-size="10.00">Tests</text>
</a>
</g>
</g>
<!-- Node0&#45;&gt;Node1 -->
<g id="edge11_Node000000_Node000001" class="edge">
<title>Node0&#45;&gt;Node1</title>
<g id="a_edge11_Node000000_Node000001"><a xlink:title=" ">
<path fill="none" stroke="#63b8ff" d="M19.46,-392.14C21.36,-456.41 30.58,-659.03 72,-706.5 74.94,-709.87 78.33,-712.77 82.02,-715.27"/>
<polygon fill="#63b8ff" stroke="#63b8ff" points="22.96,-392.03 19.19,-382.13 15.96,-392.22 22.96,-392.03"/>
</a>
</g>
</g>
<!-- Node2 -->
<g id="Node000002" class="node">
<title>Node2</title>
<g id="a_Node000002"><a xlink:href="classAtFinderTests.html" target="_top" xlink:title=" ">
<polygon fill="white" stroke="#666666" points="193.5,-697 111.5,-697 111.5,-678 193.5,-678 193.5,-697"/>
<text text-anchor="middle" x="152.5" y="-685" font-family="Helvetica,sans-Serif" font-size="10.00">AtFinderTests</text>
</a>
</g>
</g>
<!-- Node0&#45;&gt;Node2 -->
<g id="edge12_Node000000_Node000002" class="edge">
<title>Node0&#45;&gt;Node2</title>
<g id="a_edge12_Node000000_Node000002"><a xlink:title=" ">
<path fill="none" stroke="#63b8ff" d="M19.77,-392.35C22.49,-452.23 33.68,-629.37 72,-669.5 82.16,-680.14 97.19,-685.11 111.45,-687.26"/>
<polygon fill="#63b8ff" stroke="#63b8ff" points="23.25,-391.86 19.33,-382.02 16.25,-392.16 23.25,-391.86"/>
</a>
</g>
</g>
<!-- Node3 -->
<g id="Node000003" class="node">
<title>Node3</title>
<g id="a_Node000003"><a xlink:href="classCompilerCreationTests.html" target="_top" xlink:title="Test harness for creating user defined devices via the compiler macros This test harness uses devices...">
<polygon fill="white" stroke="#666666" points="216,-660 89,-660 89,-641 216,-641 216,-660"/>
<text text-anchor="middle" x="152.5" y="-648" font-family="Helvetica,sans-Serif" font-size="10.00">CompilerCreationTests</text>
</a>
</g>
</g>
<!-- Node0&#45;&gt;Node3 -->
<g id="edge13_Node000000_Node000003" class="edge">
<title>Node0&#45;&gt;Node3</title>
<g id="a_edge13_Node000000_Node000003"><a xlink:title=" ">
<path fill="none" stroke="#63b8ff" d="M20.32,-392.36C24.36,-447.07 38.38,-598.15 72,-632.5 76.75,-637.35 82.52,-641.02 88.75,-643.78"/>
<polygon fill="#63b8ff" stroke="#63b8ff" points="23.8,-391.96 19.6,-382.23 16.82,-392.45 23.8,-391.96"/>
</a>
</g>
</g>
<!-- Node4 -->
<g id="Node000004" class="node">
<title>Node4</title>
<g id="a_Node000004"><a xlink:href="classConfiguratorTests.html" target="_top" xlink:title=" ">
<polygon fill="white" stroke="#666666" points="203,-623 102,-623 102,-604 203,-604 203,-623"/>
<text text-anchor="middle" x="152.5" y="-611" font-family="Helvetica,sans-Serif" font-size="10.00">ConfiguratorTests</text>
</a>
</g>
</g>
<!-- Node0&#45;&gt;Node4 -->
<g id="edge14_Node000000_Node000004" class="edge">
<title>Node0&#45;&gt;Node4</title>
<g id="a_edge14_Node000000_Node000004"><a xlink:title=" ">
<path fill="none" stroke="#63b8ff" d="M21.02,-392.09C26.46,-441.04 43,-566.81 72,-595.5 80.05,-603.46 90.83,-608.21 101.85,-610.97"/>
<polygon fill="#63b8ff" stroke="#63b8ff" points="24.5,-391.7 19.95,-382.13 17.54,-392.45 24.5,-391.7"/>
</a>
</g>
</g>
<!-- Node5 -->
<g id="Node000005" class="node">
<title>Node5</title>
<g id="a_Node000005"><a xlink:href="classControllerDisplayUpdateTests.html" target="_top" xlink:title="Test harness for ensuring displays are updated when screen updates are received.">
<polygon fill="white" stroke="#666666" points="233,-586 72,-586 72,-567 233,-567 233,-586"/>
<text text-anchor="middle" x="152.5" y="-574" font-family="Helvetica,sans-Serif" font-size="10.00">ControllerDisplayUpdateTests</text>
</a>
</g>
</g>
<!-- Node0&#45;&gt;Node5 -->
<g id="edge15_Node000000_Node000005" class="edge">
<title>Node0&#45;&gt;Node5</title>
<g id="a_edge15_Node000000_Node000005"><a xlink:title=" ">
<path fill="none" stroke="#63b8ff" d="M18.5,-392.64C18.71,-430.83 24.93,-513.95 72,-558.5 75.49,-561.81 79.46,-564.55 83.72,-566.83"/>
<polygon fill="#63b8ff" stroke="#63b8ff" points="22,-392.35 18.59,-382.32 15,-392.29 22,-392.35"/>
</a>
</g>
</g>
<!-- Node6 -->
<g id="Node000006" class="node">
<title>Node6</title>
<g id="a_Node000006"><a xlink:href="classControllerInputActionTests.html" target="_top" xlink:title="Test harness for input actions interacting with the Controller.">
<polygon fill="white" stroke="#666666" points="225,-549 80,-549 80,-530 225,-530 225,-549"/>
<text text-anchor="middle" x="152.5" y="-537" font-family="Helvetica,sans-Serif" font-size="10.00">ControllerInputActionTests</text>
</a>
</g>
</g>
<!-- Node0&#45;&gt;Node6 -->
<g id="edge16_Node000000_Node000006" class="edge">
<title>Node0&#45;&gt;Node6</title>
<g id="a_edge16_Node000000_Node000006"><a xlink:title=" ">
<path fill="none" stroke="#63b8ff" d="M20.19,-392.62C23.22,-424.82 33.96,-487.74 72,-521.5 75.81,-524.88 80.12,-527.67 84.72,-529.96"/>
<polygon fill="#63b8ff" stroke="#63b8ff" points="23.65,-391.95 19.39,-382.25 16.67,-392.49 23.65,-391.95"/>
</a>
</g>
</g>
<!-- Node7 -->
<g id="Node000007" class="node">
<title>Node7</title>
<g id="a_Node000007"><a xlink:href="classControllerScreenCreation.html" target="_top" xlink:title="Test harness for ensuring displays are updated when screen updates are received.">
<polygon fill="white" stroke="#666666" points="222,-512 83,-512 83,-493 222,-493 222,-512"/>
<text text-anchor="middle" x="152.5" y="-500" font-family="Helvetica,sans-Serif" font-size="10.00">ControllerScreenCreation</text>
</a>
</g>
</g>
<!-- Node0&#45;&gt;Node7 -->
<g id="edge17_Node000000_Node000007" class="edge">
<title>Node0&#45;&gt;Node7</title>
<g id="a_edge17_Node000000_Node000007"><a xlink:title=" ">
<path fill="none" stroke="#63b8ff" d="M22.73,-391.93C28.63,-417.22 42.61,-460.94 72,-484.5 76.2,-487.86 80.9,-490.63 85.86,-492.89"/>
<polygon fill="#63b8ff" stroke="#63b8ff" points="26.13,-391.09 20.62,-382.04 19.28,-392.55 26.13,-391.09"/>
</a>
</g>
</g>
<!-- Node8 -->
<g id="Node000008" class="node">
<title>Node8</title>
<g id="a_Node000008"><a xlink:href="classControllerTests.html" target="_top" xlink:title=" ">
<polygon fill="white" stroke="#666666" points="197,-475 108,-475 108,-456 197,-456 197,-475"/>
<text text-anchor="middle" x="152.5" y="-463" font-family="Helvetica,sans-Serif" font-size="10.00">ControllerTests</text>
</a>
</g>
</g>
<!-- Node0&#45;&gt;Node8 -->
<g id="edge18_Node000000_Node000008" class="edge">
<title>Node0&#45;&gt;Node8</title>
<g id="a_edge18_Node000000_Node000008"><a xlink:title=" ">
<path fill="none" stroke="#63b8ff" d="M27.28,-391.18C35.94,-408.48 51.17,-433.58 72,-447.5 82.59,-454.58 95.56,-458.9 107.93,-461.54"/>
<polygon fill="#63b8ff" stroke="#63b8ff" points="30.4,-389.58 22.96,-382.04 24.07,-392.57 30.4,-389.58"/>
</a>
</g>
</g>
<!-- Node9 -->
<g id="Node000009" class="node">
<title>Node9</title>
<g id="a_Node000009"><a xlink:href="classDebounceHoldInputTests.html" target="_top" xlink:title="Test harness for inputs utilising debounce and hold options.">
<polygon fill="white" stroke="#666666" points="221,-438 84,-438 84,-419 221,-419 221,-438"/>
<text text-anchor="middle" x="152.5" y="-426" font-family="Helvetica,sans-Serif" font-size="10.00">DebounceHoldInputTests</text>
</a>
</g>
</g>
<!-- Node0&#45;&gt;Node9 -->
<g id="edge19_Node000000_Node000009" class="edge">
<title>Node0&#45;&gt;Node9</title>
<g id="a_edge19_Node000000_Node000009"><a xlink:title=" ">
<path fill="none" stroke="#63b8ff" d="M37.33,-388.44C47.05,-396.14 59.54,-404.9 72,-410.5 79.49,-413.86 87.66,-416.63 95.83,-418.89"/>
<polygon fill="#63b8ff" stroke="#63b8ff" points="39.51,-385.7 29.57,-382.05 35.07,-391.11 39.51,-385.7"/>
</a>
</g>
</g>
<!-- Node10 -->
<g id="Node000010" class="node">
<title>Node10</title>
<g id="a_Node000010"><a xlink:href="classDisplayInterfaceTests.html" target="_top" xlink:title="Test harness for physical display interface tests.">
<polygon fill="white" stroke="#666666" points="213.5,-401 91.5,-401 91.5,-382 213.5,-382 213.5,-401"/>
<text text-anchor="middle" x="152.5" y="-389" font-family="Helvetica,sans-Serif" font-size="10.00">DisplayInterfaceTests</text>
</a>
</g>
</g>
<!-- Node0&#45;&gt;Node10 -->
<g id="edge20_Node000000_Node000010" class="edge">
<title>Node0&#45;&gt;Node10</title>
<g id="a_edge20_Node000000_Node000010"><a xlink:title=" ">
<path fill="none" stroke="#63b8ff" d="M46.22,-376.4C59.3,-378.28 75.53,-380.61 91.31,-382.87"/>
<polygon fill="#63b8ff" stroke="#63b8ff" points="46.45,-372.9 36.05,-374.95 45.45,-379.83 46.45,-372.9"/>
</a>
</g>
</g>
<!-- Node11 -->
<g id="Node000011" class="node">
<title>Node11</title>
<g id="a_Node000011"><a xlink:href="classDisplayManagerTests.html" target="_top" xlink:title="Test harness for testing DisplayManager.">
<polygon fill="white" stroke="#666666" points="213,-364 92,-364 92,-345 213,-345 213,-364"/>
<text text-anchor="middle" x="152.5" y="-352" font-family="Helvetica,sans-Serif" font-size="10.00">DisplayManagerTests</text>
</a>
</g>
</g>
<!-- Node0&#45;&gt;Node11 -->
<g id="edge21_Node000000_Node000011" class="edge">
<title>Node0&#45;&gt;Node11</title>
<g id="a_edge21_Node000000_Node000011"><a xlink:title=" ">
<path fill="none" stroke="#63b8ff" d="M46.33,-368.79C59.55,-366.99 75.99,-364.76 91.91,-362.6"/>
<polygon fill="#63b8ff" stroke="#63b8ff" points="45.49,-365.37 36.05,-370.18 46.43,-372.31 45.49,-365.37"/>
</a>
</g>
</g>
<!-- Node12 -->
<g id="Node000012" class="node">
<title>Node12</title>
<g id="a_Node000012"><a xlink:href="classDisplayManualSPISwitchingTests.html" target="_top" xlink:title="Test harness for testing DisplayManager.">
<polygon fill="white" stroke="#666666" points="228.5,-326.5 76.5,-326.5 76.5,-296.5 228.5,-296.5 228.5,-326.5"/>
<text text-anchor="start" x="84.5" y="-314.5" font-family="Helvetica,sans-Serif" font-size="10.00">DisplayManualSPISwitching</text>
<text text-anchor="middle" x="152.5" y="-303.5" font-family="Helvetica,sans-Serif" font-size="10.00">Tests</text>
</a>
</g>
</g>
<!-- Node0&#45;&gt;Node12 -->
<g id="edge22_Node000000_Node000012" class="edge">
<title>Node0&#45;&gt;Node12</title>
<g id="a_edge22_Node000000_Node000012"><a xlink:title=" ">
<path fill="none" stroke="#63b8ff" d="M39.08,-356.81C48.65,-349.88 60.5,-342.06 72,-336.5 79.68,-332.78 88.05,-329.45 96.37,-326.52"/>
<polygon fill="#63b8ff" stroke="#63b8ff" points="36.93,-354.05 31.01,-362.83 41.12,-359.66 36.93,-354.05"/>
</a>
</g>
</g>
<!-- Node13 -->
<g id="Node000013" class="node">
<title>Node13</title>
<g id="a_Node000013"><a xlink:href="classDisplayScreenTests.html" target="_top" xlink:title="Test harness for testing DisplayManager.">
<polygon fill="white" stroke="#666666" points="208,-278 97,-278 97,-259 208,-259 208,-278"/>
<text text-anchor="middle" x="152.5" y="-266" font-family="Helvetica,sans-Serif" font-size="10.00">DisplayScreenTests</text>
</a>
</g>
</g>
<!-- Node0&#45;&gt;Node13 -->
<g id="edge23_Node000000_Node000013" class="edge">
<title>Node0&#45;&gt;Node13</title>
<g id="a_edge23_Node000000_Node000013"><a xlink:title=" ">
<path fill="none" stroke="#63b8ff" d="M25.83,-353.46C33.84,-333.9 49.03,-304.04 72,-287.5 79.37,-282.19 88.03,-278.35 96.86,-275.58"/>
<polygon fill="#63b8ff" stroke="#63b8ff" points="22.53,-352.29 22.2,-362.88 29.06,-354.81 22.53,-352.29"/>
</a>
</g>
</g>
<!-- Node14 -->
<g id="Node000014" class="node">
<title>Node14</title>
<g id="a_Node000014"><a xlink:href="classInputInterfaceTests.html" target="_top" xlink:title="Test harness for input interface tests.">
<polygon fill="white" stroke="#666666" points="207.5,-241 97.5,-241 97.5,-222 207.5,-222 207.5,-241"/>
<text text-anchor="middle" x="152.5" y="-229" font-family="Helvetica,sans-Serif" font-size="10.00">InputInterfaceTests</text>
</a>
</g>
</g>
<!-- Node0&#45;&gt;Node14 -->
<g id="edge24_Node000000_Node000014" class="edge">
<title>Node0&#45;&gt;Node14</title>
<g id="a_edge24_Node000000_Node000014"><a xlink:title=" ">
<path fill="none" stroke="#63b8ff" d="M21.95,-352.97C27.12,-325.8 40.43,-276.97 72,-250.5 79.29,-244.39 88.2,-240.18 97.4,-237.29"/>
<polygon fill="#63b8ff" stroke="#63b8ff" points="18.5,-352.4 20.26,-362.85 25.4,-353.59 18.5,-352.4"/>
</a>
</g>
</g>
<!-- Node15 -->
<g id="Node000015" class="node">
<title>Node15</title>
<g id="a_Node000015"><a xlink:href="classInputManagerTests.html" target="_top" xlink:title="Test harness for input interface tests.">
<polygon fill="white" stroke="#666666" points="207,-204 98,-204 98,-185 207,-185 207,-204"/>
<text text-anchor="middle" x="152.5" y="-192" font-family="Helvetica,sans-Serif" font-size="10.00">InputManagerTests</text>
</a>
</g>
</g>
<!-- Node0&#45;&gt;Node15 -->
<g id="edge25_Node000000_Node000015" class="edge">
<title>Node0&#45;&gt;Node15</title>
<g id="a_edge25_Node000000_Node000015"><a xlink:title=" ">
<path fill="none" stroke="#63b8ff" d="M19.7,-352.55C22.01,-318.78 31.7,-250.43 72,-213.5 79.22,-206.88 88.32,-202.45 97.77,-199.51"/>
<polygon fill="#63b8ff" stroke="#63b8ff" points="16.18,-352.77 19.16,-362.94 23.17,-353.14 16.18,-352.77"/>
</a>
</g>
</g>
<!-- Node16 -->
<g id="Node000016" class="node">
<title>Node16</title>
<g id="a_Node000016"><a xlink:href="classLoggerTests.html" target="_top" xlink:title=" ">
<polygon fill="white" stroke="#666666" points="189.5,-167 115.5,-167 115.5,-148 189.5,-148 189.5,-167"/>
<text text-anchor="middle" x="152.5" y="-155" font-family="Helvetica,sans-Serif" font-size="10.00">LoggerTests</text>
</a>
</g>
</g>
<!-- Node0&#45;&gt;Node16 -->
<g id="edge26_Node000000_Node000016" class="edge">
<title>Node0&#45;&gt;Node16</title>
<g id="a_edge26_Node000000_Node000016"><a xlink:title=" ">
<path fill="none" stroke="#63b8ff" d="M18.19,-352.44C17.76,-312.84 22.74,-224.33 72,-176.5 83.4,-165.43 100.05,-160.41 115.16,-158.26"/>
<polygon fill="#63b8ff" stroke="#63b8ff" points="14.7,-352.74 18.44,-362.65 21.7,-352.56 14.7,-352.74"/>
</a>
</g>
</g>
<!-- Node17 -->
<g id="Node000017" class="node">
<title>Node17</title>
<g id="a_Node000017"><a xlink:href="classRowFormattingTests.html" target="_top" xlink:title=" ">
<polygon fill="white" stroke="#666666" points="210.5,-130 94.5,-130 94.5,-111 210.5,-111 210.5,-130"/>
<text text-anchor="middle" x="152.5" y="-118" font-family="Helvetica,sans-Serif" font-size="10.00">RowFormattingTests</text>
</a>
</g>
</g>
<!-- Node0&#45;&gt;Node17 -->
<g id="edge27_Node000000_Node000017" class="edge">
<title>Node0&#45;&gt;Node17</title>
<g id="a_edge27_Node000000_Node000017"><a xlink:title=" ">
<path fill="none" stroke="#63b8ff" d="M20.84,-352.75C25.95,-302.18 41.96,-169.87 72,-139.5 78.19,-133.24 86.04,-128.9 94.39,-125.92"/>
<polygon fill="#63b8ff" stroke="#63b8ff" points="17.33,-352.7 19.84,-362.99 24.3,-353.38 17.33,-352.7"/>
</a>
</g>
</g>
<!-- Node18 -->
<g id="Node000018" class="node">
<title>Node18</title>
<g id="a_Node000018"><a xlink:href="classScreenManagerTests.html" target="_top" xlink:title=" ">
<polygon fill="white" stroke="#666666" points="211,-93 94,-93 94,-74 211,-74 211,-93"/>
<text text-anchor="middle" x="152.5" y="-81" font-family="Helvetica,sans-Serif" font-size="10.00">ScreenManagerTests</text>
</a>
</g>
</g>
<!-- Node0&#45;&gt;Node18 -->
<g id="edge28_Node000000_Node000018" class="edge">
<title>Node0&#45;&gt;Node18</title>
<g id="a_edge28_Node000000_Node000018"><a xlink:title=" ">
<path fill="none" stroke="#63b8ff" d="M20.15,-353.01C23.85,-297.24 37.26,-138.69 72,-102.5 77.99,-96.26 85.65,-91.91 93.83,-88.91"/>
<polygon fill="#63b8ff" stroke="#63b8ff" points="16.66,-352.8 19.52,-363 23.64,-353.24 16.66,-352.8"/>
</a>
</g>
</g>
<!-- Node19 -->
<g id="Node000019" class="node">
<title>Node19</title>
<g id="a_Node000019"><a xlink:href="classScreenTests.html" target="_top" xlink:title=" ">
<polygon fill="white" stroke="#666666" points="189.5,-56 115.5,-56 115.5,-37 189.5,-37 189.5,-56"/>
<text text-anchor="middle" x="152.5" y="-44" font-family="Helvetica,sans-Serif" font-size="10.00">ScreenTests</text>
</a>
</g>
</g>
<!-- Node0&#45;&gt;Node19 -->
<g id="edge29_Node000000_Node000019" class="edge">
<title>Node0&#45;&gt;Node19</title>
<g id="a_edge29_Node000000_Node000019"><a xlink:title=" ">
<path fill="none" stroke="#63b8ff" d="M19.65,-352.8C22.09,-291.77 32.62,-107.46 72,-65.5 83.07,-53.7 100.05,-48.64 115.47,-46.66"/>
<polygon fill="#63b8ff" stroke="#63b8ff" points="16.15,-352.87 19.28,-362.99 23.15,-353.12 16.15,-352.87"/>
</a>
</g>
</g>
<!-- Node20 -->
<g id="Node000020" class="node">
<title>Node20</title>
<g id="a_Node000020"><a xlink:href="classTouchScreenInputTests.html" target="_top" xlink:title="Test harness for touch screen inputs requiring calculation of where the user has touched to be conver...">
<polygon fill="white" stroke="#666666" points="216,-19 89,-19 89,0 216,0 216,-19"/>
<text text-anchor="middle" x="152.5" y="-7" font-family="Helvetica,sans-Serif" font-size="10.00">TouchScreenInputTests</text>
</a>
</g>
</g>
<!-- Node0&#45;&gt;Node20 -->
<g id="edge30_Node000000_Node000020" class="edge">
<title>Node0&#45;&gt;Node20</title>
<g id="a_edge30_Node000000_Node000020"><a xlink:title=" ">
<path fill="none" stroke="#63b8ff" d="M19.25,-352.61C20.51,-286.61 27.96,-76.29 72,-28.5 76.71,-23.39 82.53,-19.53 88.87,-16.65"/>
<polygon fill="#63b8ff" stroke="#63b8ff" points="15.75,-352.82 19.09,-362.87 22.75,-352.93 15.75,-352.82"/>
</a>
</g>
</g>
</g>
</svg>
