<?xml version="1.0" encoding="UTF-8" standalone="no"?>
<!DOCTYPE svg PUBLIC "-//W3C//DTD SVG 1.1//EN"
 "http://www.w3.org/Graphics/SVG/1.1/DTD/svg11.dtd">
<!-- Generated by graphviz version 2.43.0 (0)
 -->
<!-- Title: Graphical Class Hierarchy Pages: 1 -->
<svg width="238pt" height="104pt"
 viewBox="0.00 0.00 238.00 104.00" xmlns="http://www.w3.org/2000/svg" xmlns:xlink="http://www.w3.org/1999/xlink">
<g id="graph0" class="graph" transform="scale(1 1) rotate(0) translate(4 100)">
<title>Graphical Class Hierarchy</title>
<polygon fill="white" stroke="transparent" points="-4,4 -4,-100 234,-100 234,4 -4,4"/>
<!-- Node0 -->
<g id="node1" class="node">
<title>Node0</title>
<g id="a_node1"><a xlink:href="classDisplayInterface.html" target="_top" xlink:title="Class to abstract away all physical display implementation to enable multiple display types.">
<polygon fill="white" stroke="black" points="0,-38.5 0,-57.5 97,-57.5 97,-38.5 0,-38.5"/>
<text text-anchor="middle" x="48.5" y="-45.5" font-family="Helvetica,sans-Serif" font-size="10.00">DisplayInterface</text>
</a>
</g>
</g>
<!-- Node1 -->
<g id="node2" class="node">
<title>Node1</title>
<g id="a_node2"><a xlink:href="classMockDisplay.html" target="_top" xlink:title="Mock physical display class.">
<polygon fill="white" stroke="black" points="141.5,-76.5 141.5,-95.5 221.5,-95.5 221.5,-76.5 141.5,-76.5"/>
<text text-anchor="middle" x="181.5" y="-83.5" font-family="Helvetica,sans-Serif" font-size="10.00">MockDisplay</text>
</a>
</g>
</g>
<!-- Node0&#45;&gt;Node1 -->
<g id="edge1" class="edge">
<title>Node0&#45;&gt;Node1</title>
<path fill="none" stroke="midnightblue" d="M92.21,-60.39C110.15,-65.59 130.7,-71.55 147.45,-76.41"/>
<polygon fill="midnightblue" stroke="midnightblue" points="93.14,-57.01 82.56,-57.59 91.19,-63.74 93.14,-57.01"/>
</g>
<!-- Node2 -->
<g id="node3" class="node">
<title>Node2</title>
<g id="a_node3"><a xlink:href="classMockSPIDisplay.html" target="_top" xlink:title="Mock physical display class for an SPI device Use this mock to test manual switching between SPI devi...">
<polygon fill="white" stroke="black" points="134,-38.5 134,-57.5 229,-57.5 229,-38.5 134,-38.5"/>
<text text-anchor="middle" x="181.5" y="-45.5" font-family="Helvetica,sans-Serif" font-size="10.00">MockSPIDisplay</text>
</a>
</g>
</g>
<!-- Node0&#45;&gt;Node2 -->
<g id="edge2" class="edge">
<title>Node0&#45;&gt;Node2</title>
<path fill="none" stroke="midnightblue" d="M107.45,-48C116.32,-48 125.38,-48 133.97,-48"/>
<polygon fill="midnightblue" stroke="midnightblue" points="107.16,-44.5 97.16,-48 107.16,-51.5 107.16,-44.5"/>
</g>
<!-- Node3 -->
<g id="node4" class="node">
<title>Node3</title>
<g id="a_node4"><a xlink:href="classTFT__eSPIDisplay.html" target="_top" xlink:title="Display class for TFT_eSPI based displays.">
<polygon fill="white" stroke="black" points="133,-0.5 133,-19.5 230,-19.5 230,-0.5 133,-0.5"/>
<text text-anchor="middle" x="181.5" y="-7.5" font-family="Helvetica,sans-Serif" font-size="10.00">TFT_eSPIDisplay</text>
</a>
</g>
</g>
<!-- Node0&#45;&gt;Node3 -->
<g id="edge3" class="edge">
<title>Node0&#45;&gt;Node3</title>
<path fill="none" stroke="midnightblue" d="M92.21,-35.61C110.15,-30.41 130.7,-24.45 147.45,-19.59"/>
<polygon fill="midnightblue" stroke="midnightblue" points="91.19,-32.26 82.56,-38.41 93.14,-38.99 91.19,-32.26"/>
</g>
</g>
</svg>
