<?xml version="1.0" encoding="UTF-8" standalone="no"?>
<!DOCTYPE svg PUBLIC "-//W3C//DTD SVG 1.1//EN"
 "http://www.w3.org/Graphics/SVG/1.1/DTD/svg11.dtd">
<!-- Generated by graphviz version 2.43.0 (0)
 -->
<!-- Title: Graphical Class Hierarchy Pages: 1 -->
<svg width="231pt" height="66pt"
 viewBox="0.00 0.00 231.00 66.00" xmlns="http://www.w3.org/2000/svg" xmlns:xlink="http://www.w3.org/1999/xlink">
<g id="graph0" class="graph" transform="scale(1 1) rotate(0) translate(4 62)">
<title>Graphical Class Hierarchy</title>
<polygon fill="white" stroke="transparent" points="-4,4 -4,-62 227,-62 227,4 -4,4"/>
<!-- Node0 -->
<g id="node1" class="node">
<title>Node0</title>
<g id="a_node1"><a xlink:href="classCallbackInterface.html" target="_top" xlink:title="Interface class to use for callbacks.">
<polygon fill="white" stroke="black" points="0,-19.5 0,-38.5 102,-38.5 102,-19.5 0,-19.5"/>
<text text-anchor="middle" x="51" y="-26.5" font-family="Helvetica,sans-Serif" font-size="10.00">CallbackInterface</text>
</a>
</g>
</g>
<!-- Node1 -->
<g id="node2" class="node">
<title>Node1</title>
<g id="a_node2"><a xlink:href="classController.html" target="_top" xlink:title="Class for the central controller for EX&#45;Display All application activities are controlled through thi...">
<polygon fill="white" stroke="black" points="148,-38.5 148,-57.5 213,-57.5 213,-38.5 148,-38.5"/>
<text text-anchor="middle" x="180.5" y="-45.5" font-family="Helvetica,sans-Serif" font-size="10.00">Controller</text>
</a>
</g>
</g>
<!-- Node0&#45;&gt;Node1 -->
<g id="edge1" class="edge">
<title>Node0&#45;&gt;Node1</title>
<path fill="none" stroke="midnightblue" d="M111.94,-37.93C124.4,-39.79 137.06,-41.68 148,-43.31"/>
<polygon fill="midnightblue" stroke="midnightblue" points="112.43,-34.47 102.03,-36.45 111.4,-41.39 112.43,-34.47"/>
</g>
<!-- Node2 -->
<g id="node3" class="node">
<title>Node2</title>
<g id="a_node3"><a xlink:href="classMockCallback.html" target="_top" xlink:title="Mock class to test callbacks.">
<polygon fill="white" stroke="black" points="138,-0.5 138,-19.5 223,-19.5 223,-0.5 138,-0.5"/>
<text text-anchor="middle" x="180.5" y="-7.5" font-family="Helvetica,sans-Serif" font-size="10.00">MockCallback</text>
</a>
</g>
</g>
<!-- Node0&#45;&gt;Node2 -->
<g id="edge2" class="edge">
<title>Node0&#45;&gt;Node2</title>
<path fill="none" stroke="midnightblue" d="M112.15,-20.04C120.85,-18.74 129.63,-17.43 137.85,-16.21"/>
<polygon fill="midnightblue" stroke="midnightblue" points="111.4,-16.61 102.03,-21.55 112.43,-23.53 111.4,-16.61"/>
</g>
</g>
</svg>
