<?xml version="1.0" encoding="UTF-8" standalone="no"?>
<!DOCTYPE svg PUBLIC "-//W3C//DTD SVG 1.1//EN"
 "http://www.w3.org/Graphics/SVG/1.1/DTD/svg11.dtd">
<!-- Generated by graphviz version 2.43.0 (0)
 -->
<!-- Title: Graphical Class Hierarchy Pages: 1 -->
<svg width="241pt" height="686pt"
 viewBox="0.00 0.00 241.00 685.50" xmlns="http://www.w3.org/2000/svg" xmlns:xlink="http://www.w3.org/1999/xlink">
<g id="graph0" class="graph" transform="scale(1 1) rotate(0) translate(4 681.5)">
<title>Graphical Class Hierarchy</title>
<polygon fill="white" stroke="transparent" points="-4,4 -4,-681.5 237,-681.5 237,4 -4,4"/>
<!-- Node21 -->
<g id="node1" class="node">
<title>Node21</title>
<g id="a_node1"><a xlink:title=" ">
<polygon fill="white" stroke="#bfbfbf" points="0,-323.5 0,-342.5 36,-342.5 36,-323.5 0,-323.5"/>
<text text-anchor="middle" x="18" y="-330.5" font-family="Helvetica,sans-Serif" font-size="10.00">Test</text>
</a>
</g>
</g>
<!-- Node0 -->
<g id="node2" class="node">
<title>Node0</title>
<g id="a_node2"><a xlink:href="classAtFinderLoggerIntegrationTests.html" target="_top" xlink:title="Test harness integration testing of ConsoleInput and Logger classes.">
<polygon fill="white" stroke="black" points="81,-647 81,-677 224,-677 224,-647 81,-647"/>
<text text-anchor="start" x="89" y="-665" font-family="Helvetica,sans-Serif" font-size="10.00">AtFinderLoggerIntegration</text>
<text text-anchor="middle" x="152.5" y="-654" font-family="Helvetica,sans-Serif" font-size="10.00">Tests</text>
</a>
</g>
</g>
<!-- Node21&#45;&gt;Node0 -->
<g id="edge1" class="edge">
<title>Node21&#45;&gt;Node0</title>
<path fill="none" stroke="midnightblue" d="M19.83,-352.8C22.76,-413.3 34.53,-594.22 72,-637 75.34,-640.81 79.25,-644.04 83.51,-646.79"/>
<polygon fill="midnightblue" stroke="midnightblue" points="23.32,-352.5 19.37,-342.67 16.33,-352.82 23.32,-352.5"/>
</g>
<!-- Node23 -->
<g id="node3" class="node">
<title>Node23</title>
<g id="a_node3"><a xlink:href="classAtFinderTests.html" target="_top" xlink:title=" ">
<polygon fill="white" stroke="black" points="111.5,-608.5 111.5,-627.5 193.5,-627.5 193.5,-608.5 111.5,-608.5"/>
<text text-anchor="middle" x="152.5" y="-615.5" font-family="Helvetica,sans-Serif" font-size="10.00">AtFinderTests</text>
</a>
</g>
</g>
<!-- Node21&#45;&gt;Node23 -->
<g id="edge2" class="edge">
<title>Node21&#45;&gt;Node23</title>
<path fill="none" stroke="midnightblue" d="M20.25,-352.92C24.13,-408.5 37.85,-563.53 72,-599 82.14,-609.53 96.99,-614.66 111.12,-617.04"/>
<polygon fill="midnightblue" stroke="midnightblue" points="23.72,-352.39 19.56,-342.65 16.73,-352.86 23.72,-352.39"/>
</g>
<!-- Node24 -->
<g id="node4" class="node">
<title>Node24</title>
<g id="a_node4"><a xlink:href="classConfiguratorTests.html" target="_top" xlink:title=" ">
<polygon fill="white" stroke="black" points="102,-570.5 102,-589.5 203,-589.5 203,-570.5 102,-570.5"/>
<text text-anchor="middle" x="152.5" y="-577.5" font-family="Helvetica,sans-Serif" font-size="10.00">ConfiguratorTests</text>
</a>
</g>
</g>
<!-- Node21&#45;&gt;Node24 -->
<g id="edge3" class="edge">
<title>Node21&#45;&gt;Node24</title>
<path fill="none" stroke="midnightblue" d="M20.94,-352.66C26.24,-402.4 42.57,-531.38 72,-561 80,-569.05 90.77,-573.93 101.79,-576.82"/>
<polygon fill="midnightblue" stroke="midnightblue" points="24.4,-352.16 19.9,-342.57 17.44,-352.87 24.4,-352.16"/>
</g>
<!-- Node25 -->
<g id="node5" class="node">
<title>Node25</title>
<g id="a_node5"><a xlink:href="classControllerDisplayUpdateTests.html" target="_top" xlink:title="Test harness for ensuring displays are updated when screen updates are received.">
<polygon fill="white" stroke="black" points="72,-532.5 72,-551.5 233,-551.5 233,-532.5 72,-532.5"/>
<text text-anchor="middle" x="152.5" y="-539.5" font-family="Helvetica,sans-Serif" font-size="10.00">ControllerDisplayUpdateTests</text>
</a>
</g>
</g>
<!-- Node21&#45;&gt;Node25 -->
<g id="edge4" class="edge">
<title>Node21&#45;&gt;Node25</title>
<path fill="none" stroke="midnightblue" d="M18.4,-352.96C18.39,-391.62 24.17,-476.92 72,-523 75.99,-526.84 80.6,-529.95 85.57,-532.46"/>
<polygon fill="midnightblue" stroke="midnightblue" points="21.91,-352.61 18.55,-342.56 14.91,-352.51 21.91,-352.61"/>
</g>
<!-- Node26 -->
<g id="node6" class="node">
<title>Node26</title>
<g id="a_node6"><a xlink:href="classControllerInputActionTests.html" target="_top" xlink:title="Test harness for input actions interacting with the Controller.">
<polygon fill="white" stroke="black" points="80,-494.5 80,-513.5 225,-513.5 225,-494.5 80,-494.5"/>
<text text-anchor="middle" x="152.5" y="-501.5" font-family="Helvetica,sans-Serif" font-size="10.00">ControllerInputActionTests</text>
</a>
</g>
</g>
<!-- Node21&#45;&gt;Node26 -->
<g id="edge5" class="edge">
<title>Node21&#45;&gt;Node26</title>
<path fill="none" stroke="midnightblue" d="M20.03,-352.56C22.82,-385.03 33.24,-449.96 72,-485 76.21,-488.81 81.05,-491.89 86.21,-494.38"/>
<polygon fill="midnightblue" stroke="midnightblue" points="23.52,-352.26 19.32,-342.53 16.53,-352.75 23.52,-352.26"/>
</g>
<!-- Node27 -->
<g id="node7" class="node">
<title>Node27</title>
<g id="a_node7"><a xlink:href="classControllerScreenCreation.html" target="_top" xlink:title="Test harness for ensuring displays are updated when screen updates are received.">
<polygon fill="white" stroke="black" points="83,-456.5 83,-475.5 222,-475.5 222,-456.5 83,-456.5"/>
<text text-anchor="middle" x="152.5" y="-463.5" font-family="Helvetica,sans-Serif" font-size="10.00">ControllerScreenCreation</text>
</a>
</g>
</g>
<!-- Node21&#45;&gt;Node27 -->
<g id="edge6" class="edge">
<title>Node21&#45;&gt;Node27</title>
<path fill="none" stroke="midnightblue" d="M22.67,-352.72C28.5,-378.39 42.41,-422.82 72,-447 76.73,-450.86 82.11,-453.96 87.79,-456.45"/>
<polygon fill="midnightblue" stroke="midnightblue" points="26.04,-351.76 20.58,-342.68 19.19,-353.18 26.04,-351.76"/>
</g>
<!-- Node28 -->
<g id="node8" class="node">
<title>Node28</title>
<g id="a_node8"><a xlink:href="classControllerTests.html" target="_top" xlink:title=" ">
<polygon fill="white" stroke="black" points="108,-418.5 108,-437.5 197,-437.5 197,-418.5 108,-418.5"/>
<text text-anchor="middle" x="152.5" y="-425.5" font-family="Helvetica,sans-Serif" font-size="10.00">ControllerTests</text>
</a>
</g>
</g>
<!-- Node21&#45;&gt;Node28 -->
<g id="edge7" class="edge">
<title>Node21&#45;&gt;Node28</title>
<path fill="none" stroke="midnightblue" d="M27.26,-351.87C35.89,-369.36 51.11,-394.76 72,-409 82.55,-416.19 95.51,-420.68 107.88,-423.47"/>
<polygon fill="midnightblue" stroke="midnightblue" points="30.35,-350.21 22.94,-342.63 24,-353.17 30.35,-350.21"/>
</g>
<!-- Node29 -->
<g id="node9" class="node">
<title>Node29</title>
<g id="a_node9"><a xlink:href="classDebounceHoldInputTests.html" target="_top" xlink:title="Test harness for inputs utilising debounce and hold options.">
<polygon fill="white" stroke="black" points="84,-380.5 84,-399.5 221,-399.5 221,-380.5 84,-380.5"/>
<text text-anchor="middle" x="152.5" y="-387.5" font-family="Helvetica,sans-Serif" font-size="10.00">DebounceHoldInputTests</text>
</a>
</g>
</g>
<!-- Node21&#45;&gt;Node29 -->
<g id="edge8" class="edge">
<title>Node21&#45;&gt;Node29</title>
<path fill="none" stroke="midnightblue" d="M37.36,-348.88C47.09,-356.56 59.57,-365.33 72,-371 80.39,-374.83 89.65,-377.94 98.79,-380.45"/>
<polygon fill="midnightblue" stroke="midnightblue" points="39.54,-346.14 29.59,-342.51 35.1,-351.55 39.54,-346.14"/>
</g>
<!-- Node30 -->
<g id="node10" class="node">
<title>Node30</title>
<g id="a_node10"><a xlink:href="classDisplayCreationTests.html" target="_top" xlink:title=" ">
<polygon fill="white" stroke="black" points="93,-342.5 93,-361.5 212,-361.5 212,-342.5 93,-342.5"/>
<text text-anchor="middle" x="152.5" y="-349.5" font-family="Helvetica,sans-Serif" font-size="10.00">DisplayCreationTests</text>
</a>
</g>
</g>
<!-- Node21&#45;&gt;Node30 -->
<g id="edge9" class="edge">
<title>Node21&#45;&gt;Node30</title>
<path fill="none" stroke="midnightblue" d="M46.09,-336.88C59.6,-338.82 76.51,-341.25 92.81,-343.58"/>
<polygon fill="midnightblue" stroke="midnightblue" points="46.45,-333.4 36.05,-335.45 45.45,-340.33 46.45,-333.4"/>
</g>
<!-- Node31 -->
<g id="node11" class="node">
<title>Node31</title>
<g id="a_node11"><a xlink:href="classDisplayInterfaceTests.html" target="_top" xlink:title="Test harness for physical display interface tests.">
<polygon fill="white" stroke="black" points="91.5,-304.5 91.5,-323.5 213.5,-323.5 213.5,-304.5 91.5,-304.5"/>
<text text-anchor="middle" x="152.5" y="-311.5" font-family="Helvetica,sans-Serif" font-size="10.00">DisplayInterfaceTests</text>
</a>
</g>
</g>
<!-- Node21&#45;&gt;Node31 -->
<g id="edge10" class="edge">
<title>Node21&#45;&gt;Node31</title>
<path fill="none" stroke="midnightblue" d="M46.22,-329.1C59.3,-327.22 75.53,-324.89 91.31,-322.63"/>
<polygon fill="midnightblue" stroke="midnightblue" points="45.45,-325.67 36.05,-330.55 46.45,-332.6 45.45,-325.67"/>
</g>
<!-- Node32 -->
<g id="node12" class="node">
<title>Node32</title>
<g id="a_node12"><a xlink:href="classDisplayManagerTests.html" target="_top" xlink:title="Test harness for testing DisplayManager.">
<polygon fill="white" stroke="black" points="92,-266.5 92,-285.5 213,-285.5 213,-266.5 92,-266.5"/>
<text text-anchor="middle" x="152.5" y="-273.5" font-family="Helvetica,sans-Serif" font-size="10.00">DisplayManagerTests</text>
</a>
</g>
</g>
<!-- Node21&#45;&gt;Node32 -->
<g id="edge11" class="edge">
<title>Node21&#45;&gt;Node32</title>
<path fill="none" stroke="midnightblue" d="M37.36,-317.12C47.09,-309.44 59.57,-300.67 72,-295 80.39,-291.17 89.65,-288.06 98.79,-285.55"/>
<polygon fill="midnightblue" stroke="midnightblue" points="35.1,-314.45 29.59,-323.49 39.54,-319.86 35.1,-314.45"/>
</g>
<!-- Node33 -->
<g id="node13" class="node">
<title>Node33</title>
<g id="a_node13"><a xlink:href="classInputInterfaceTests.html" target="_top" xlink:title="Test harness for input interface tests.">
<polygon fill="white" stroke="black" points="97.5,-228.5 97.5,-247.5 207.5,-247.5 207.5,-228.5 97.5,-228.5"/>
<text text-anchor="middle" x="152.5" y="-235.5" font-family="Helvetica,sans-Serif" font-size="10.00">InputInterfaceTests</text>
</a>
</g>
</g>
<!-- Node21&#45;&gt;Node33 -->
<g id="edge12" class="edge">
<title>Node21&#45;&gt;Node33</title>
<path fill="none" stroke="midnightblue" d="M27.26,-314.13C35.89,-296.64 51.11,-271.24 72,-257 79.5,-251.89 88.23,-248.14 97.09,-245.4"/>
<polygon fill="midnightblue" stroke="midnightblue" points="24,-312.83 22.94,-323.37 30.35,-315.79 24,-312.83"/>
</g>
<!-- Node34 -->
<g id="node14" class="node">
<title>Node34</title>
<g id="a_node14"><a xlink:href="classInputManagerTests.html" target="_top" xlink:title="Test harness for input interface tests.">
<polygon fill="white" stroke="black" points="98,-190.5 98,-209.5 207,-209.5 207,-190.5 98,-190.5"/>
<text text-anchor="middle" x="152.5" y="-197.5" font-family="Helvetica,sans-Serif" font-size="10.00">InputManagerTests</text>
</a>
</g>
</g>
<!-- Node21&#45;&gt;Node34 -->
<g id="edge13" class="edge">
<title>Node21&#45;&gt;Node34</title>
<path fill="none" stroke="midnightblue" d="M22.67,-313.28C28.5,-287.61 42.41,-243.18 72,-219 79.47,-212.89 88.58,-208.69 97.94,-205.81"/>
<polygon fill="midnightblue" stroke="midnightblue" points="19.19,-312.82 20.58,-323.32 26.04,-314.24 19.19,-312.82"/>
</g>
<!-- Node35 -->
<g id="node15" class="node">
<title>Node35</title>
<g id="a_node15"><a xlink:href="classLoggerTests.html" target="_top" xlink:title=" ">
<polygon fill="white" stroke="black" points="115.5,-152.5 115.5,-171.5 189.5,-171.5 189.5,-152.5 115.5,-152.5"/>
<text text-anchor="middle" x="152.5" y="-159.5" font-family="Helvetica,sans-Serif" font-size="10.00">LoggerTests</text>
</a>
</g>
</g>
<!-- Node21&#45;&gt;Node35 -->
<g id="edge14" class="edge">
<title>Node21&#45;&gt;Node35</title>
<path fill="none" stroke="midnightblue" d="M20.03,-313.44C22.82,-280.97 33.24,-216.04 72,-181 83.69,-170.44 100.18,-165.46 115.12,-163.22"/>
<polygon fill="midnightblue" stroke="midnightblue" points="16.53,-313.25 19.32,-323.47 23.52,-313.74 16.53,-313.25"/>
</g>
<!-- Node36 -->
<g id="node16" class="node">
<title>Node36</title>
<g id="a_node16"><a xlink:href="classScreenManagerTests.html" target="_top" xlink:title=" ">
<polygon fill="white" stroke="black" points="94,-114.5 94,-133.5 211,-133.5 211,-114.5 94,-114.5"/>
<text text-anchor="middle" x="152.5" y="-121.5" font-family="Helvetica,sans-Serif" font-size="10.00">ScreenManagerTests</text>
</a>
</g>
</g>
<!-- Node21&#45;&gt;Node36 -->
<g id="edge15" class="edge">
<title>Node21&#45;&gt;Node36</title>
<path fill="none" stroke="midnightblue" d="M18.4,-313.04C18.39,-274.38 24.17,-189.08 72,-143 78.13,-137.09 85.76,-132.91 93.84,-129.97"/>
<polygon fill="midnightblue" stroke="midnightblue" points="14.91,-313.49 18.55,-323.44 21.91,-313.39 14.91,-313.49"/>
</g>
<!-- Node37 -->
<g id="node17" class="node">
<title>Node37</title>
<g id="a_node17"><a xlink:href="classScreenTests.html" target="_top" xlink:title=" ">
<polygon fill="white" stroke="black" points="115.5,-76.5 115.5,-95.5 189.5,-95.5 189.5,-76.5 115.5,-76.5"/>
<text text-anchor="middle" x="152.5" y="-83.5" font-family="Helvetica,sans-Serif" font-size="10.00">ScreenTests</text>
</a>
</g>
</g>
<!-- Node21&#45;&gt;Node37 -->
<g id="edge16" class="edge">
<title>Node21&#45;&gt;Node37</title>
<path fill="none" stroke="midnightblue" d="M20.94,-313.34C26.24,-263.6 42.57,-134.62 72,-105 83.3,-93.63 100.12,-88.59 115.38,-86.52"/>
<polygon fill="midnightblue" stroke="midnightblue" points="17.44,-313.13 19.9,-323.43 24.4,-313.84 17.44,-313.13"/>
</g>
<!-- Node38 -->
<g id="node18" class="node">
<title>Node38</title>
<g id="a_node18"><a xlink:href="classTouchScreenInputTests.html" target="_top" xlink:title="Test harness for touch screen inputs requiring calculation of where the user has touched to be conver...">
<polygon fill="white" stroke="black" points="89,-38.5 89,-57.5 216,-57.5 216,-38.5 89,-38.5"/>
<text text-anchor="middle" x="152.5" y="-45.5" font-family="Helvetica,sans-Serif" font-size="10.00">TouchScreenInputTests</text>
</a>
</g>
</g>
<!-- Node21&#45;&gt;Node38 -->
<g id="edge17" class="edge">
<title>Node21&#45;&gt;Node38</title>
<path fill="none" stroke="midnightblue" d="M20.25,-313.08C24.13,-257.5 37.85,-102.47 72,-67 76.72,-62.09 82.47,-58.36 88.69,-55.53"/>
<polygon fill="midnightblue" stroke="midnightblue" points="16.73,-313.14 19.56,-323.35 23.72,-313.61 16.73,-313.14"/>
</g>
<!-- Node39 -->
<g id="node19" class="node">
<title>Node39</title>
<g id="a_node19"><a xlink:href="classValidDisplayScreenTests.html" target="_top" xlink:title="Integration test harness for ensuring displays are set to display valid screens.">
<polygon fill="white" stroke="black" points="85,-0.5 85,-19.5 220,-19.5 220,-0.5 85,-0.5"/>
<text text-anchor="middle" x="152.5" y="-7.5" font-family="Helvetica,sans-Serif" font-size="10.00">ValidDisplayScreenTests</text>
</a>
</g>
</g>
<!-- Node21&#45;&gt;Node39 -->
<g id="edge18" class="edge">
<title>Node21&#45;&gt;Node39</title>
<path fill="none" stroke="midnightblue" d="M19.7,-313.09C22.25,-252.25 33.05,-70.44 72,-29 75.69,-25.07 80.04,-21.89 84.77,-19.32"/>
<polygon fill="midnightblue" stroke="midnightblue" points="16.2,-313.14 19.3,-323.27 23.19,-313.41 16.2,-313.14"/>
</g>
</g>
</svg>
