<?xml version="1.0" encoding="UTF-8" standalone="no"?>
<!DOCTYPE svg PUBLIC "-//W3C//DTD SVG 1.1//EN"
 "http://www.w3.org/Graphics/SVG/1.1/DTD/svg11.dtd">
<!-- Generated by graphviz version 2.43.0 (0)
 -->
<!-- Title: Graphical Class Hierarchy Pages: 1 -->
<svg width="257pt" height="142pt"
 viewBox="0.00 0.00 257.00 142.00" xmlns="http://www.w3.org/2000/svg" xmlns:xlink="http://www.w3.org/1999/xlink">
<g id="graph0" class="graph" transform="scale(1 1) rotate(0) translate(4 138)">
<title>Graphical Class Hierarchy</title>
<polygon fill="white" stroke="transparent" points="-4,4 -4,-138 253,-138 253,4 -4,4"/>
<!-- Node0 -->
<g id="node1" class="node">
<title>Node0</title>
<g id="a_node1"><a xlink:href="classInputInterface.html" target="_top" xlink:title="Class to abstract away all physical input implementatio to enable multiple input types Default return...">
<polygon fill="white" stroke="black" points="0,-57.5 0,-76.5 85,-76.5 85,-57.5 0,-57.5"/>
<text text-anchor="middle" x="42.5" y="-64.5" font-family="Helvetica,sans-Serif" font-size="10.00">InputInterface</text>
</a>
</g>
</g>
<!-- Node1 -->
<g id="node2" class="node">
<title>Node1</title>
<g id="a_node2"><a xlink:href="classMockButtonInput.html" target="_top" xlink:title="Mock button input class using debounce and hold methods Use setRawAction() to simulate what a button ...">
<polygon fill="white" stroke="black" points="135,-114.5 135,-133.5 235,-133.5 235,-114.5 135,-114.5"/>
<text text-anchor="middle" x="185" y="-121.5" font-family="Helvetica,sans-Serif" font-size="10.00">MockButtonInput</text>
</a>
</g>
</g>
<!-- Node0&#45;&gt;Node1 -->
<g id="edge1" class="edge">
<title>Node0&#45;&gt;Node1</title>
<path fill="none" stroke="midnightblue" d="M70.03,-81.34C84.77,-88.98 103.61,-98.17 121,-105 129.83,-108.47 139.55,-111.68 148.66,-114.45"/>
<polygon fill="midnightblue" stroke="midnightblue" points="71.46,-78.14 60.98,-76.59 68.21,-84.34 71.46,-78.14"/>
</g>
<!-- Node2 -->
<g id="node3" class="node">
<title>Node2</title>
<g id="a_node3"><a xlink:href="classMockInput.html" target="_top" xlink:title="Mock physical input class.">
<polygon fill="white" stroke="black" points="151,-76.5 151,-95.5 219,-95.5 219,-76.5 151,-76.5"/>
<text text-anchor="middle" x="185" y="-83.5" font-family="Helvetica,sans-Serif" font-size="10.00">MockInput</text>
</a>
</g>
</g>
<!-- Node0&#45;&gt;Node2 -->
<g id="edge2" class="edge">
<title>Node0&#45;&gt;Node2</title>
<path fill="none" stroke="midnightblue" d="M95.32,-74.01C113.8,-76.51 134.11,-79.25 150.62,-81.49"/>
<polygon fill="midnightblue" stroke="midnightblue" points="95.65,-70.52 85.27,-72.65 94.71,-77.46 95.65,-70.52"/>
</g>
<!-- Node3 -->
<g id="node4" class="node">
<title>Node3</title>
<g id="a_node4"><a xlink:href="classMockTouchScreenInput.html" target="_top" xlink:title="Mock touch screen input class using debounce and hold methods and calculating touch position to deter...">
<polygon fill="white" stroke="black" points="121,-38.5 121,-57.5 249,-57.5 249,-38.5 121,-38.5"/>
<text text-anchor="middle" x="185" y="-45.5" font-family="Helvetica,sans-Serif" font-size="10.00">MockTouchScreenInput</text>
</a>
</g>
</g>
<!-- Node0&#45;&gt;Node3 -->
<g id="edge3" class="edge">
<title>Node0&#45;&gt;Node3</title>
<path fill="none" stroke="midnightblue" d="M95.21,-60.01C103.53,-58.88 112.23,-57.7 120.79,-56.55"/>
<polygon fill="midnightblue" stroke="midnightblue" points="94.71,-56.54 85.27,-61.35 95.65,-63.48 94.71,-56.54"/>
</g>
<!-- Node4 -->
<g id="node5" class="node">
<title>Node4</title>
<g id="a_node5"><a xlink:href="classTFT__eSPITouch.html" target="_top" xlink:title="Display class for TFT_eSPI touch screens.">
<polygon fill="white" stroke="black" points="141,-0.5 141,-19.5 229,-19.5 229,-0.5 141,-0.5"/>
<text text-anchor="middle" x="185" y="-7.5" font-family="Helvetica,sans-Serif" font-size="10.00">TFT_eSPITouch</text>
</a>
</g>
</g>
<!-- Node0&#45;&gt;Node4 -->
<g id="edge4" class="edge">
<title>Node0&#45;&gt;Node4</title>
<path fill="none" stroke="midnightblue" d="M70.03,-52.66C84.77,-45.02 103.61,-35.83 121,-29 129.83,-25.53 139.55,-22.32 148.66,-19.55"/>
<polygon fill="midnightblue" stroke="midnightblue" points="68.21,-49.66 60.98,-57.41 71.46,-55.86 68.21,-49.66"/>
</g>
</g>
</svg>
