<?xml version="1.0" encoding="UTF-8" standalone="no"?>
<!DOCTYPE svg PUBLIC "-//W3C//DTD SVG 1.1//EN"
 "http://www.w3.org/Graphics/SVG/1.1/DTD/svg11.dtd">
<!-- Generated by graphviz version 2.43.0 (0)
 -->
<!-- Title: /home/runner/work/EX&#45;Display/EX&#45;Display/InputActions.h Pages: 1 -->
<!--zoomable 489 -->

<svg id="main" version="1.1" xmlns="http://www.w3.org/2000/svg" xmlns:xlink="http://www.w3.org/1999/xlink" xml:space="preserve" onload="init(evt)">
<style type="text/css"><![CDATA[
.node, .edge {opacity: 0.7;}
.node.selected, .edge.selected {opacity: 1;}
.edge:hover path { stroke: red; }
.edge:hover polygon { stroke: red; fill: red; }
]]></style>

<defs>
  <circle id="rim" cx="0" cy="0" r="7"/>
  <circle id="rim2" cx="0" cy="0" r="3.5"/>
  <g id="zoomPlus">
    <use xlink:href="#rim" fill="#404040"><set attributeName="fill" to="#808080" begin="zoomplus.mouseover" end="zoomplus.mouseout"/></use>
    <path d="M-4,0h8M0,-4v8" fill="none" stroke="white" stroke-width="1.5" pointer-events="none"/>
  </g>
  <g id="zoomMin">
    <use xlink:href="#rim" fill="#404040"><set attributeName="fill" to="#808080" begin="zoomminus.mouseover" end="zoomminus.mouseout"/></use>
    <path d="M-4,0h8" fill="none" stroke="white" stroke-width="1.5" pointer-events="none"/>
  </g>
  <g id="arrowUp" transform="translate(30 24)">
    <use xlink:href="#rim"/>
    <path pointer-events="none" fill="none" stroke="white" stroke-width="1.5" d="M0,-3.0v7 M-2.5,-0.5L0,-3.0L2.5,-0.5"/>
  </g>
  <g id="arrowRight" transform="rotate(90) translate(36 -43)">
    <use xlink:href="#rim"/>
    <path pointer-events="none" fill="none" stroke="white" stroke-width="1.5" d="M0,-3.0v7 M-2.5,-0.5L0,-3.0L2.5,-0.5"/>
  </g>
  <g id="arrowDown" transform="rotate(180) translate(-30 -48)">
    <use xlink:href="#rim"/>
    <path pointer-events="none" fill="none" stroke="white" stroke-width="1.5" d="M0,-3.0v7 M-2.5,-0.5L0,-3.0L2.5,-0.5"/>
  </g>
  <g id="arrowLeft" transform="rotate(270) translate(-36 17)">
    <use xlink:href="#rim"/>
    <path pointer-events="none" fill="none" stroke="white" stroke-width="1.5" d="M0,-3.0v7 M-2.5,-0.5L0,-3.0L2.5,-0.5"/>
  </g>
  <g id="resetDef">
    <use xlink:href="#rim2" fill="#404040"><set attributeName="fill" to="#808080" begin="reset.mouseover" end="reset.mouseout"/></use>
  </g>
</defs>
<script type="application/ecmascript">
var viewWidth = 2556;
var viewHeight = 489;
var sectionId = 'dynsection-0';
</script>
<script type="application/ecmascript" xlink:href="svg.min.js"/>
<svg id="graph" class="graph">
<g id="viewport">
<title>/home/runner/work/EX&#45;Display/EX&#45;Display/InputActions.h</title>
<!-- Node1 -->
<g id="Node000001" class="node">
<title>Node1</title>
<g id="a_Node000001"><a xlink:title=" ">
<polygon fill="#999999" stroke="#666666" points="1581.5,-481 1396.5,-481 1396.5,-451 1581.5,-451 1581.5,-481"/>
<text text-anchor="start" x="1404.5" y="-469" font-family="Helvetica,sans-Serif" font-size="10.00">/home/runner/work/EX</text>
<text text-anchor="middle" x="1489" y="-458" font-family="Helvetica,sans-Serif" font-size="10.00">&#45;Display/EX&#45;Display/InputActions.h</text>
</a>
</g>
</g>
<!-- Node2 -->
<g id="Node000002" class="node">
<title>Node2</title>
<g id="a_Node000002"><a xlink:href="CallbackInterface_8h.html" target="_top" xlink:title=" ">
<polygon fill="white" stroke="#666666" points="1515,-415 1357,-415 1357,-374 1515,-374 1515,-415"/>
<text text-anchor="start" x="1365" y="-403" font-family="Helvetica,sans-Serif" font-size="10.00">/home/runner/work/EX</text>
<text text-anchor="start" x="1365" y="-392" font-family="Helvetica,sans-Serif" font-size="10.00">&#45;Display/EX&#45;Display/Callback</text>
<text text-anchor="middle" x="1436" y="-381" font-family="Helvetica,sans-Serif" font-size="10.00">Interface.h</text>
</a>
</g>
</g>
<!-- Node1&#45;&gt;Node2 -->
<g id="edge1_Node000001_Node000002" class="edge">
<title>Node1&#45;&gt;Node2</title>
<g id="a_edge1_Node000001_Node000002"><a xlink:title=" ">
<path fill="none" stroke="#63b8ff" d="M1472.12,-442.86C1465.31,-433.94 1457.52,-423.72 1450.93,-415.07"/>
<polygon fill="#63b8ff" stroke="#63b8ff" points="1469.43,-445.11 1478.27,-450.94 1474.99,-440.86 1469.43,-445.11"/>
</a>
</g>
</g>
<!-- Node17 -->
<g id="Node000017" class="node">
<title>Node17</title>
<g id="a_Node000017"><a xlink:href="InputInterface_8h.html" target="_top" xlink:title=" ">
<polygon fill="white" stroke="#666666" points="1657.5,-338 1464.5,-338 1464.5,-308 1657.5,-308 1657.5,-338"/>
<text text-anchor="start" x="1472.5" y="-326" font-family="Helvetica,sans-Serif" font-size="10.00">/home/runner/work/EX</text>
<text text-anchor="middle" x="1561" y="-315" font-family="Helvetica,sans-Serif" font-size="10.00">&#45;Display/EX&#45;Display/InputInterface.h</text>
</a>
</g>
</g>
<!-- Node1&#45;&gt;Node17 -->
<g id="edge47_Node000001_Node000017" class="edge">
<title>Node1&#45;&gt;Node17</title>
<g id="a_edge47_Node000001_Node000017"><a xlink:title=" ">
<path fill="none" stroke="#63b8ff" d="M1506.34,-442.53C1512.36,-434.15 1518.89,-424.39 1524,-415 1538.19,-388.94 1550.18,-356.26 1556.41,-338.01"/>
<polygon fill="#63b8ff" stroke="#63b8ff" points="1503.44,-440.56 1500.32,-450.68 1509.07,-444.72 1503.44,-440.56"/>
</a>
</g>
</g>
<!-- Node3 -->
<g id="Node000003" class="node">
<title>Node3</title>
<g id="a_Node000003"><a xlink:href="AtFinder_8h.html" target="_top" xlink:title=" ">
<polygon fill="white" stroke="#666666" points="1435,-189.5 1271,-189.5 1271,-159.5 1435,-159.5 1435,-189.5"/>
<text text-anchor="start" x="1279" y="-177.5" font-family="Helvetica,sans-Serif" font-size="10.00">/home/runner/work/EX</text>
<text text-anchor="middle" x="1353" y="-166.5" font-family="Helvetica,sans-Serif" font-size="10.00">&#45;Display/EX&#45;Display/AtFinder.h</text>
</a>
</g>
</g>
<!-- Node2&#45;&gt;Node3 -->
<g id="edge2_Node000002_Node000003" class="edge">
<title>Node2&#45;&gt;Node3</title>
<g id="a_edge2_Node000002_Node000003"><a xlink:title=" ">
<path fill="none" stroke="#63b8ff" d="M1424.91,-364.37C1406.88,-317 1371.85,-225.02 1358.42,-189.74"/>
<polygon fill="#63b8ff" stroke="#63b8ff" points="1421.66,-365.67 1428.49,-373.77 1428.2,-363.18 1421.66,-365.67"/>
</a>
</g>
</g>
<!-- Node11 -->
<g id="Node000011" class="node">
<title>Node11</title>
<g id="a_Node000011"><a xlink:href="Controller_8h.html" target="_top" xlink:title=" ">
<polygon fill="white" stroke="#666666" points="1908,-189.5 1736,-189.5 1736,-159.5 1908,-159.5 1908,-189.5"/>
<text text-anchor="start" x="1744" y="-177.5" font-family="Helvetica,sans-Serif" font-size="10.00">/home/runner/work/EX</text>
<text text-anchor="middle" x="1822" y="-166.5" font-family="Helvetica,sans-Serif" font-size="10.00">&#45;Display/EX&#45;Display/Controller.h</text>
</a>
</g>
</g>
<!-- Node2&#45;&gt;Node11 -->
<g id="edge10_Node000002_Node000011" class="edge">
<title>Node2&#45;&gt;Node11</title>
<g id="a_edge10_Node000002_Node000011"><a xlink:title=" ">
<path fill="none" stroke="#63b8ff" d="M1436.96,-363.62C1439.95,-325.85 1451.3,-262.03 1493,-231 1530.52,-203.08 1651.64,-188.3 1735.94,-181.19"/>
<polygon fill="#63b8ff" stroke="#63b8ff" points="1433.44,-363.78 1436.3,-373.98 1440.43,-364.23 1433.44,-363.78"/>
</a>
</g>
</g>
<!-- Node2&#45;&gt;Node17 -->
<g id="edge18_Node000002_Node000017" class="edge">
<title>Node2&#45;&gt;Node17</title>
<g id="a_edge18_Node000002_Node000017"><a xlink:title=" ">
<path fill="none" stroke="#63b8ff" d="M1480.06,-369C1498.67,-358.66 1519.67,-346.98 1535.62,-338.11"/>
<polygon fill="#63b8ff" stroke="#63b8ff" points="1478.19,-366.04 1471.15,-373.96 1481.59,-372.15 1478.19,-366.04"/>
</a>
</g>
</g>
<!-- Node19 -->
<g id="Node000019" class="node">
<title>Node19</title>
<g id="a_Node000019"><a xlink:href="InputManager_8h.html" target="_top" xlink:title=" ">
<polygon fill="#fff0f0" stroke="red" points="1915.5,-266.5 1724.5,-266.5 1724.5,-236.5 1915.5,-236.5 1915.5,-266.5"/>
<text text-anchor="start" x="1732.5" y="-254.5" font-family="Helvetica,sans-Serif" font-size="10.00">/home/runner/work/EX</text>
<text text-anchor="middle" x="1820" y="-243.5" font-family="Helvetica,sans-Serif" font-size="10.00">&#45;Display/EX&#45;Display/InputManager.h</text>
</a>
</g>
</g>
<!-- Node2&#45;&gt;Node19 -->
<g id="edge35_Node000002_Node000019" class="edge">
<title>Node2&#45;&gt;Node19</title>
<g id="a_edge35_Node000002_Node000019"><a xlink:title=" ">
<path fill="none" stroke="#63b8ff" d="M1525.18,-378.02C1568.8,-368.96 1621.56,-355.76 1667,-338 1716.88,-318.5 1770.49,-285.4 1799.13,-266.62"/>
<polygon fill="#63b8ff" stroke="#63b8ff" points="1524.26,-374.64 1515.16,-380.06 1525.65,-381.49 1524.26,-374.64"/>
</a>
</g>
</g>
<!-- Node38 -->
<g id="Node000038" class="node">
<title>Node38</title>
<g id="a_Node000038"><a xlink:href="TFT__eSPITouch_8cpp.html" target="_top" xlink:title=" ">
<polygon fill="white" stroke="#666666" points="2159.5,-195 2026.5,-195 2026.5,-154 2159.5,-154 2159.5,-195"/>
<text text-anchor="start" x="2034.5" y="-183" font-family="Helvetica,sans-Serif" font-size="10.00">/home/runner/work/EX</text>
<text text-anchor="start" x="2034.5" y="-172" font-family="Helvetica,sans-Serif" font-size="10.00">&#45;Display/EX&#45;Display/TFT</text>
<text text-anchor="middle" x="2093" y="-161" font-family="Helvetica,sans-Serif" font-size="10.00">_eSPITouch.cpp</text>
</a>
</g>
</g>
<!-- Node2&#45;&gt;Node38 -->
<g id="edge36_Node000002_Node000038" class="edge">
<title>Node2&#45;&gt;Node38</title>
<g id="a_edge36_Node000002_Node000038"><a xlink:title=" ">
<path fill="none" stroke="#63b8ff" d="M1525.23,-388.78C1682.66,-378.54 2000.31,-348.7 2076,-272 2095.95,-251.78 2097.11,-216.87 2095.5,-195.05"/>
<polygon fill="#63b8ff" stroke="#63b8ff" points="1524.85,-385.29 1515.09,-389.42 1525.3,-392.28 1524.85,-385.29"/>
</a>
</g>
</g>
<!-- Node39 -->
<g id="Node000039" class="node">
<title>Node39</title>
<g id="a_Node000039"><a xlink:href="MockButtonInput_8h.html" target="_top" xlink:title=" ">
<polygon fill="white" stroke="#666666" points="1331.5,-272 1184.5,-272 1184.5,-231 1331.5,-231 1331.5,-272"/>
<text text-anchor="start" x="1192.5" y="-260" font-family="Helvetica,sans-Serif" font-size="10.00">/home/runner/work/EX</text>
<text text-anchor="start" x="1192.5" y="-249" font-family="Helvetica,sans-Serif" font-size="10.00">&#45;Display/EX&#45;Display/test</text>
<text text-anchor="middle" x="1258" y="-238" font-family="Helvetica,sans-Serif" font-size="10.00">/mocks/MockButtonInput.h</text>
</a>
</g>
</g>
<!-- Node2&#45;&gt;Node39 -->
<g id="edge37_Node000002_Node000039" class="edge">
<title>Node2&#45;&gt;Node39</title>
<g id="a_edge37_Node000002_Node000039"><a xlink:title=" ">
<path fill="none" stroke="#63b8ff" d="M1391.6,-368.75C1376.64,-359.74 1360.16,-349.03 1346,-338 1319.78,-317.58 1292.84,-290.3 1275.79,-272.1"/>
<polygon fill="#63b8ff" stroke="#63b8ff" points="1389.81,-371.76 1400.2,-373.86 1393.38,-365.74 1389.81,-371.76"/>
</a>
</g>
</g>
<!-- Node43 -->
<g id="Node000043" class="node">
<title>Node43</title>
<g id="a_Node000043"><a xlink:href="MockTouchScreenInput_8h.html" target="_top" xlink:title=" ">
<polygon fill="white" stroke="#666666" points="1166,-272 990,-272 990,-231 1166,-231 1166,-272"/>
<text text-anchor="start" x="998" y="-260" font-family="Helvetica,sans-Serif" font-size="10.00">/home/runner/work/EX</text>
<text text-anchor="start" x="998" y="-249" font-family="Helvetica,sans-Serif" font-size="10.00">&#45;Display/EX&#45;Display/test</text>
<text text-anchor="middle" x="1078" y="-238" font-family="Helvetica,sans-Serif" font-size="10.00">/mocks/MockTouchScreenInput.h</text>
</a>
</g>
</g>
<!-- Node2&#45;&gt;Node43 -->
<g id="edge46_Node000002_Node000043" class="edge">
<title>Node2&#45;&gt;Node43</title>
<g id="a_edge46_Node000002_Node000043"><a xlink:title=" ">
<path fill="none" stroke="#63b8ff" d="M1376.7,-370.14C1307.06,-342.72 1192.81,-297.72 1127.64,-272.05"/>
<polygon fill="#63b8ff" stroke="#63b8ff" points="1375.63,-373.49 1386.22,-373.89 1378.2,-366.97 1375.63,-373.49"/>
</a>
</g>
</g>
<!-- Node45 -->
<g id="Node000045" class="node">
<title>Node45</title>
<g id="a_Node000045"><a xlink:href="MockCallback_8h.html" target="_top" xlink:title=" ">
<polygon fill="white" stroke="#666666" points="854,-195 720,-195 720,-154 854,-154 854,-195"/>
<text text-anchor="start" x="728" y="-183" font-family="Helvetica,sans-Serif" font-size="10.00">/home/runner/work/EX</text>
<text text-anchor="start" x="728" y="-172" font-family="Helvetica,sans-Serif" font-size="10.00">&#45;Display/EX&#45;Display/test</text>
<text text-anchor="middle" x="787" y="-161" font-family="Helvetica,sans-Serif" font-size="10.00">/mocks/MockCallback.h</text>
</a>
</g>
</g>
<!-- Node2&#45;&gt;Node45 -->
<g id="edge38_Node000002_Node000045" class="edge">
<title>Node2&#45;&gt;Node45</title>
<g id="a_edge38_Node000002_Node000045"><a xlink:title=" ">
<path fill="none" stroke="#63b8ff" d="M1418.44,-365.14C1413.12,-356.46 1407.28,-346.86 1402,-338 1387.93,-314.39 1363.09,-245.9 1340,-231 1261.24,-180.21 983.61,-174.54 854.26,-174.76"/>
<polygon fill="#63b8ff" stroke="#63b8ff" points="1415.54,-367.11 1423.77,-373.79 1421.51,-363.44 1415.54,-367.11"/>
</a>
</g>
</g>
<!-- Node4 -->
<g id="Node000004" class="node">
<title>Node4</title>
<g id="a_Node000004"><a xlink:href="AtFinder_8cpp.html" target="_top" xlink:title=" ">
<polygon fill="white" stroke="#666666" points="1361,-107 1185,-107 1185,-77 1361,-77 1361,-107"/>
<text text-anchor="start" x="1193" y="-95" font-family="Helvetica,sans-Serif" font-size="10.00">/home/runner/work/EX</text>
<text text-anchor="middle" x="1273" y="-84" font-family="Helvetica,sans-Serif" font-size="10.00">&#45;Display/EX&#45;Display/AtFinder.cpp</text>
</a>
</g>
</g>
<!-- Node3&#45;&gt;Node4 -->
<g id="edge3_Node000003_Node000004" class="edge">
<title>Node3&#45;&gt;Node4</title>
<g id="a_edge3_Node000003_Node000004"><a xlink:title=" ">
<path fill="none" stroke="#63b8ff" d="M1331.69,-152.05C1317.55,-137.83 1299.39,-119.56 1287.04,-107.13"/>
<polygon fill="#63b8ff" stroke="#63b8ff" points="1329.53,-154.85 1339.07,-159.48 1334.5,-149.92 1329.53,-154.85"/>
</a>
</g>
</g>
<!-- Node5 -->
<g id="Node000005" class="node">
<title>Node5</title>
<g id="a_Node000005"><a xlink:href="Configurator_8cpp.html" target="_top" xlink:title=" ">
<polygon fill="white" stroke="#666666" points="2019.5,-30 1824.5,-30 1824.5,0 2019.5,0 2019.5,-30"/>
<text text-anchor="start" x="1832.5" y="-18" font-family="Helvetica,sans-Serif" font-size="10.00">/home/runner/work/EX</text>
<text text-anchor="middle" x="1922" y="-7" font-family="Helvetica,sans-Serif" font-size="10.00">&#45;Display/EX&#45;Display/Configurator.cpp</text>
</a>
</g>
</g>
<!-- Node3&#45;&gt;Node5 -->
<g id="edge4_Node000003_Node000005" class="edge">
<title>Node3&#45;&gt;Node5</title>
<g id="a_edge4_Node000003_Node000005"><a xlink:title=" ">
<path fill="none" stroke="#63b8ff" d="M1362.09,-149.59C1373.42,-121.13 1393.1,-76.14 1408,-66 1441.57,-43.16 1684.93,-27.61 1824.42,-20.47"/>
<polygon fill="#63b8ff" stroke="#63b8ff" points="1358.7,-148.65 1358.31,-159.24 1365.22,-151.2 1358.7,-148.65"/>
</a>
</g>
</g>
<!-- Node6 -->
<g id="Node000006" class="node">
<title>Node6</title>
<g id="a_Node000006"><a xlink:href="Controller_8cpp.html" target="_top" xlink:title=" ">
<polygon fill="white" stroke="#666666" points="1956.5,-107 1773.5,-107 1773.5,-77 1956.5,-77 1956.5,-107"/>
<text text-anchor="start" x="1781.5" y="-95" font-family="Helvetica,sans-Serif" font-size="10.00">/home/runner/work/EX</text>
<text text-anchor="middle" x="1865" y="-84" font-family="Helvetica,sans-Serif" font-size="10.00">&#45;Display/EX&#45;Display/Controller.cpp</text>
</a>
</g>
</g>
<!-- Node3&#45;&gt;Node6 -->
<g id="edge5_Node000003_Node000006" class="edge">
<title>Node3&#45;&gt;Node6</title>
<g id="a_edge5_Node000003_Node000006"><a xlink:title=" ">
<path fill="none" stroke="#63b8ff" d="M1424.72,-157.44C1431.22,-156.19 1437.72,-155.02 1444,-154 1585.26,-130.98 1623.13,-143.25 1764,-118 1780.36,-115.07 1798,-111.01 1813.9,-107.02"/>
<polygon fill="#63b8ff" stroke="#63b8ff" points="1423.65,-154.08 1414.52,-159.45 1425.01,-160.95 1423.65,-154.08"/>
</a>
</g>
</g>
<!-- Node7 -->
<g id="Node000007" class="node">
<title>Node7</title>
<g id="a_Node000007"><a xlink:href="test__ControllerDisplayUpdate_8cpp.html" target="_top" xlink:title=" ">
<polygon fill="white" stroke="#666666" points="1755,-118 1571,-118 1571,-66 1755,-66 1755,-118"/>
<text text-anchor="start" x="1579" y="-106" font-family="Helvetica,sans-Serif" font-size="10.00">/home/runner/work/EX</text>
<text text-anchor="start" x="1579" y="-95" font-family="Helvetica,sans-Serif" font-size="10.00">&#45;Display/EX&#45;Display/test</text>
<text text-anchor="start" x="1579" y="-84" font-family="Helvetica,sans-Serif" font-size="10.00">/integration/test_Controller</text>
<text text-anchor="middle" x="1663" y="-73" font-family="Helvetica,sans-Serif" font-size="10.00">/test_ControllerDisplayUpdate.cpp</text>
</a>
</g>
</g>
<!-- Node3&#45;&gt;Node7 -->
<g id="edge6_Node000003_Node000007" class="edge">
<title>Node3&#45;&gt;Node7</title>
<g id="a_edge6_Node000003_Node000007"><a xlink:title=" ">
<path fill="none" stroke="#63b8ff" d="M1416.8,-156.93C1461.23,-145.4 1521.16,-129.83 1570.78,-116.95"/>
<polygon fill="#63b8ff" stroke="#63b8ff" points="1415.8,-153.58 1407,-159.48 1417.56,-160.35 1415.8,-153.58"/>
</a>
</g>
</g>
<!-- Node8 -->
<g id="Node000008" class="node">
<title>Node8</title>
<g id="a_Node000008"><a xlink:href="test__AtFinder__Logger_8cpp.html" target="_top" xlink:title=" ">
<polygon fill="white" stroke="#666666" points="790.5,-118 605.5,-118 605.5,-66 790.5,-66 790.5,-118"/>
<text text-anchor="start" x="613.5" y="-106" font-family="Helvetica,sans-Serif" font-size="10.00">/home/runner/work/EX</text>
<text text-anchor="start" x="613.5" y="-95" font-family="Helvetica,sans-Serif" font-size="10.00">&#45;Display/EX&#45;Display/test</text>
<text text-anchor="start" x="613.5" y="-84" font-family="Helvetica,sans-Serif" font-size="10.00">/integration/test_InteractiveLogger</text>
<text text-anchor="middle" x="698" y="-73" font-family="Helvetica,sans-Serif" font-size="10.00">/test_AtFinder_Logger.cpp</text>
</a>
</g>
</g>
<!-- Node3&#45;&gt;Node8 -->
<g id="edge7_Node000003_Node000008" class="edge">
<title>Node3&#45;&gt;Node8</title>
<g id="a_edge7_Node000003_Node000008"><a xlink:title=" ">
<path fill="none" stroke="#63b8ff" d="M1260.91,-168.22C1150.72,-161 960.92,-145.65 800,-118 796.95,-117.48 793.85,-116.91 790.72,-116.31"/>
<polygon fill="#63b8ff" stroke="#63b8ff" points="1260.79,-171.72 1271,-168.88 1261.25,-164.74 1260.79,-171.72"/>
</a>
</g>
</g>
<!-- Node9 -->
<g id="Node000009" class="node">
<title>Node9</title>
<g id="a_Node000009"><a xlink:href="test__Controller_8cpp.html" target="_top" xlink:title=" ">
<polygon fill="white" stroke="#666666" points="1552.5,-118 1417.5,-118 1417.5,-66 1552.5,-66 1552.5,-118"/>
<text text-anchor="start" x="1425.5" y="-106" font-family="Helvetica,sans-Serif" font-size="10.00">/home/runner/work/EX</text>
<text text-anchor="start" x="1425.5" y="-95" font-family="Helvetica,sans-Serif" font-size="10.00">&#45;Display/EX&#45;Display/test</text>
<text text-anchor="start" x="1425.5" y="-84" font-family="Helvetica,sans-Serif" font-size="10.00">/unit/test_Controller/test</text>
<text text-anchor="middle" x="1485" y="-73" font-family="Helvetica,sans-Serif" font-size="10.00">_Controller.cpp</text>
</a>
</g>
</g>
<!-- Node3&#45;&gt;Node9 -->
<g id="edge8_Node000003_Node000009" class="edge">
<title>Node3&#45;&gt;Node9</title>
<g id="a_edge8_Node000003_Node000009"><a xlink:title=" ">
<path fill="none" stroke="#63b8ff" d="M1384.81,-154.1C1402.55,-143.28 1424.84,-129.69 1443.88,-118.07"/>
<polygon fill="#63b8ff" stroke="#63b8ff" points="1382.71,-151.28 1375.99,-159.48 1386.35,-157.26 1382.71,-151.28"/>
</a>
</g>
</g>
<!-- Node10 -->
<g id="Node000010" class="node">
<title>Node10</title>
<g id="a_Node000010"><a xlink:href="test__AtFinder_8cpp.html" target="_top" xlink:title=" ">
<polygon fill="white" stroke="#666666" points="943,-118 809,-118 809,-66 943,-66 943,-118"/>
<text text-anchor="start" x="817" y="-106" font-family="Helvetica,sans-Serif" font-size="10.00">/home/runner/work/EX</text>
<text text-anchor="start" x="817" y="-95" font-family="Helvetica,sans-Serif" font-size="10.00">&#45;Display/EX&#45;Display/test</text>
<text text-anchor="start" x="817" y="-84" font-family="Helvetica,sans-Serif" font-size="10.00">/unit/test_Infrastructure</text>
<text text-anchor="middle" x="876" y="-73" font-family="Helvetica,sans-Serif" font-size="10.00">/test_AtFinder.cpp</text>
</a>
</g>
</g>
<!-- Node3&#45;&gt;Node10 -->
<g id="edge9_Node000003_Node000010" class="edge">
<title>Node3&#45;&gt;Node10</title>
<g id="a_edge9_Node000003_Node000010"><a xlink:title=" ">
<path fill="none" stroke="#63b8ff" d="M1260.78,-165.5C1178.94,-157.28 1056.51,-142.21 952,-118 949.16,-117.34 946.27,-116.62 943.37,-115.86"/>
<polygon fill="#63b8ff" stroke="#63b8ff" points="1260.51,-168.99 1270.8,-166.5 1261.2,-162.03 1260.51,-168.99"/>
</a>
</g>
</g>
<!-- Node11&#45;&gt;Node6 -->
<g id="edge13_Node000011_Node000006" class="edge">
<title>Node11&#45;&gt;Node6</title>
<g id="a_edge13_Node000011_Node000006"><a xlink:title=" ">
<path fill="none" stroke="#63b8ff" d="M1834.31,-150.46C1841.77,-136.48 1851.06,-119.1 1857.45,-107.13"/>
<polygon fill="#63b8ff" stroke="#63b8ff" points="1831.11,-149.01 1829.49,-159.48 1837.29,-152.31 1831.11,-149.01"/>
</a>
</g>
</g>
<!-- Node11&#45;&gt;Node7 -->
<g id="edge14_Node000011_Node000007" class="edge">
<title>Node11&#45;&gt;Node7</title>
<g id="a_edge14_Node000011_Node000007"><a xlink:title=" ">
<path fill="none" stroke="#63b8ff" d="M1785.14,-154.84C1763.55,-143.91 1736,-129.96 1712.53,-118.07"/>
<polygon fill="#63b8ff" stroke="#63b8ff" points="1783.8,-158.08 1794.3,-159.48 1786.96,-151.84 1783.8,-158.08"/>
</a>
</g>
</g>
<!-- Node11&#45;&gt;Node9 -->
<g id="edge17_Node000011_Node000009" class="edge">
<title>Node11&#45;&gt;Node9</title>
<g id="a_edge17_Node000011_Node000009"><a xlink:title=" ">
<path fill="none" stroke="#63b8ff" d="M1736.15,-157.5C1685.22,-147.43 1619.57,-133.45 1562,-118 1559.01,-117.2 1555.97,-116.35 1552.91,-115.47"/>
<polygon fill="#63b8ff" stroke="#63b8ff" points="1735.64,-160.97 1746.13,-159.46 1736.99,-154.1 1735.64,-160.97"/>
</a>
</g>
</g>
<!-- Node12 -->
<g id="Node000012" class="node">
<title>Node12</title>
<g id="a_Node000012"><a xlink:href="Configurator_8h.html" target="_top" xlink:title=" ">
<polygon fill="#fff0f0" stroke="red" points="2548,-107 2364,-107 2364,-77 2548,-77 2548,-107"/>
<text text-anchor="start" x="2372" y="-95" font-family="Helvetica,sans-Serif" font-size="10.00">/home/runner/work/EX</text>
<text text-anchor="middle" x="2456" y="-84" font-family="Helvetica,sans-Serif" font-size="10.00">&#45;Display/EX&#45;Display/Configurator.h</text>
</a>
</g>
</g>
<!-- Node11&#45;&gt;Node12 -->
<g id="edge11_Node000011_Node000012" class="edge">
<title>Node11&#45;&gt;Node12</title>
<g id="a_edge11_Node000011_Node000012"><a xlink:title=" ">
<path fill="none" stroke="#63b8ff" d="M1918.25,-161.29C1938.94,-158.78 1960.69,-156.22 1981,-154 2147,-135.83 2190.4,-146.14 2355,-118 2371.56,-115.17 2389.42,-111.1 2405.44,-107.06"/>
<polygon fill="#63b8ff" stroke="#63b8ff" points="1917.69,-157.83 1908.18,-162.51 1918.54,-164.78 1917.69,-157.83"/>
</a>
</g>
</g>
<!-- Node15 -->
<g id="Node000015" class="node">
<title>Node15</title>
<g id="a_Node000015"><a xlink:href="test__ControllerInputAction_8cpp.html" target="_top" xlink:title=" ">
<polygon fill="white" stroke="#666666" points="2345.5,-118 2178.5,-118 2178.5,-66 2345.5,-66 2345.5,-118"/>
<text text-anchor="start" x="2186.5" y="-106" font-family="Helvetica,sans-Serif" font-size="10.00">/home/runner/work/EX</text>
<text text-anchor="start" x="2186.5" y="-95" font-family="Helvetica,sans-Serif" font-size="10.00">&#45;Display/EX&#45;Display/test</text>
<text text-anchor="start" x="2186.5" y="-84" font-family="Helvetica,sans-Serif" font-size="10.00">/integration/test_Controller</text>
<text text-anchor="middle" x="2262" y="-73" font-family="Helvetica,sans-Serif" font-size="10.00">/test_ControllerInputAction.cpp</text>
</a>
</g>
</g>
<!-- Node11&#45;&gt;Node15 -->
<g id="edge15_Node000011_Node000015" class="edge">
<title>Node11&#45;&gt;Node15</title>
<g id="a_edge15_Node000011_Node000015"><a xlink:title=" ">
<path fill="none" stroke="#63b8ff" d="M1912.85,-157.82C1920.67,-156.51 1928.47,-155.22 1936,-154 2039.86,-137.13 2067.07,-139.83 2170,-118 2172.75,-117.42 2175.55,-116.8 2178.36,-116.16"/>
<polygon fill="#63b8ff" stroke="#63b8ff" points="1912.21,-154.38 1902.93,-159.48 1913.37,-161.28 1912.21,-154.38"/>
</a>
</g>
</g>
<!-- Node16 -->
<g id="Node000016" class="node">
<title>Node16</title>
<g id="a_Node000016"><a xlink:href="test__ControllerScreenCreation_8cpp.html" target="_top" xlink:title=" ">
<polygon fill="white" stroke="#666666" points="2161,-118 1975,-118 1975,-66 2161,-66 2161,-118"/>
<text text-anchor="start" x="1983" y="-106" font-family="Helvetica,sans-Serif" font-size="10.00">/home/runner/work/EX</text>
<text text-anchor="start" x="1983" y="-95" font-family="Helvetica,sans-Serif" font-size="10.00">&#45;Display/EX&#45;Display/test</text>
<text text-anchor="start" x="1983" y="-84" font-family="Helvetica,sans-Serif" font-size="10.00">/integration/test_Controller</text>
<text text-anchor="middle" x="2068" y="-73" font-family="Helvetica,sans-Serif" font-size="10.00">/test_ControllerScreenCreation.cpp</text>
</a>
</g>
</g>
<!-- Node11&#45;&gt;Node16 -->
<g id="edge16_Node000011_Node000016" class="edge">
<title>Node11&#45;&gt;Node16</title>
<g id="a_edge16_Node000011_Node000016"><a xlink:title=" ">
<path fill="none" stroke="#63b8ff" d="M1874.59,-156.29C1908.6,-145.16 1953.43,-130.49 1991.38,-118.07"/>
<polygon fill="#63b8ff" stroke="#63b8ff" points="1873.27,-153.04 1864.85,-159.48 1875.44,-159.69 1873.27,-153.04"/>
</a>
</g>
</g>
<!-- Node12&#45;&gt;Node5 -->
<g id="edge12_Node000012_Node000005" class="edge">
<title>Node12&#45;&gt;Node5</title>
<g id="a_edge12_Node000012_Node000005"><a xlink:title=" ">
<path fill="none" stroke="#63b8ff" d="M2394.8,-74.52C2381.73,-71.38 2367.96,-68.34 2355,-66 2240.69,-45.34 2107.79,-31.48 2019.69,-23.69"/>
<polygon fill="#63b8ff" stroke="#63b8ff" points="2394.09,-77.95 2404.63,-76.94 2395.76,-71.15 2394.09,-77.95"/>
</a>
</g>
</g>
<!-- Node18 -->
<g id="Node000018" class="node">
<title>Node18</title>
<g id="a_Node000018"><a xlink:href="InputInterface_8cpp.html" target="_top" xlink:title=" ">
<polygon fill="white" stroke="#666666" points="1706,-266.5 1502,-266.5 1502,-236.5 1706,-236.5 1706,-266.5"/>
<text text-anchor="start" x="1510" y="-254.5" font-family="Helvetica,sans-Serif" font-size="10.00">/home/runner/work/EX</text>
<text text-anchor="middle" x="1604" y="-243.5" font-family="Helvetica,sans-Serif" font-size="10.00">&#45;Display/EX&#45;Display/InputInterface.cpp</text>
</a>
</g>
</g>
<!-- Node17&#45;&gt;Node18 -->
<g id="edge19_Node000017_Node000018" class="edge">
<title>Node17&#45;&gt;Node18</title>
<g id="a_edge19_Node000017_Node000018"><a xlink:title=" ">
<path fill="none" stroke="#63b8ff" d="M1574.99,-299.38C1581.69,-288.57 1589.49,-275.96 1595.31,-266.54"/>
<polygon fill="#63b8ff" stroke="#63b8ff" points="1571.99,-297.59 1569.7,-307.94 1577.94,-301.27 1571.99,-297.59"/>
</a>
</g>
</g>
<!-- Node17&#45;&gt;Node19 -->
<g id="edge20_Node000017_Node000019" class="edge">
<title>Node17&#45;&gt;Node19</title>
<g id="a_edge20_Node000017_Node000019"><a xlink:title=" ">
<path fill="none" stroke="#63b8ff" d="M1623.17,-305.32C1667.31,-293.47 1725.91,-277.75 1767.67,-266.54"/>
<polygon fill="#63b8ff" stroke="#63b8ff" points="1622.16,-301.96 1613.41,-307.94 1623.98,-308.72 1622.16,-301.96"/>
</a>
</g>
</g>
<!-- Node37 -->
<g id="Node000037" class="node">
<title>Node37</title>
<g id="a_Node000037"><a xlink:href="TFT__eSPITouch_8h.html" target="_top" xlink:title=" ">
<polygon fill="#fff0f0" stroke="red" points="2066.5,-272 1933.5,-272 1933.5,-231 2066.5,-231 2066.5,-272"/>
<text text-anchor="start" x="1941.5" y="-260" font-family="Helvetica,sans-Serif" font-size="10.00">/home/runner/work/EX</text>
<text text-anchor="start" x="1941.5" y="-249" font-family="Helvetica,sans-Serif" font-size="10.00">&#45;Display/EX&#45;Display/TFT</text>
<text text-anchor="middle" x="2000" y="-238" font-family="Helvetica,sans-Serif" font-size="10.00">_eSPITouch.h</text>
</a>
</g>
</g>
<!-- Node17&#45;&gt;Node37 -->
<g id="edge25_Node000017_Node000037" class="edge">
<title>Node17&#45;&gt;Node37</title>
<g id="a_edge25_Node000017_Node000037"><a xlink:title=" ">
<path fill="none" stroke="#63b8ff" d="M1667.8,-310.69C1740.64,-302.15 1839.09,-289.01 1925,-272 1927.77,-271.45 1930.59,-270.86 1933.44,-270.24"/>
<polygon fill="#63b8ff" stroke="#63b8ff" points="1667.23,-307.23 1657.7,-311.86 1668.03,-314.18 1667.23,-307.23"/>
</a>
</g>
</g>
<!-- Node17&#45;&gt;Node39 -->
<g id="edge27_Node000017_Node000039" class="edge">
<title>Node17&#45;&gt;Node39</title>
<g id="a_edge27_Node000017_Node000039"><a xlink:title=" ">
<path fill="none" stroke="#63b8ff" d="M1489.76,-305.66C1442.13,-294.73 1379.62,-280.4 1331.52,-269.36"/>
<polygon fill="#63b8ff" stroke="#63b8ff" points="1489.15,-309.11 1499.68,-307.94 1490.72,-302.29 1489.15,-309.11"/>
</a>
</g>
</g>
<!-- Node41 -->
<g id="Node000041" class="node">
<title>Node41</title>
<g id="a_Node000041"><a xlink:href="MockInput_8h.html" target="_top" xlink:title=" ">
<polygon fill="#fff0f0" stroke="red" points="1587,-195 1453,-195 1453,-154 1587,-154 1587,-195"/>
<text text-anchor="start" x="1461" y="-183" font-family="Helvetica,sans-Serif" font-size="10.00">/home/runner/work/EX</text>
<text text-anchor="start" x="1461" y="-172" font-family="Helvetica,sans-Serif" font-size="10.00">&#45;Display/EX&#45;Display/test</text>
<text text-anchor="middle" x="1520" y="-161" font-family="Helvetica,sans-Serif" font-size="10.00">/mocks/MockInput.h</text>
</a>
</g>
</g>
<!-- Node17&#45;&gt;Node41 -->
<g id="edge29_Node000017_Node000041" class="edge">
<title>Node17&#45;&gt;Node41</title>
<g id="a_edge29_Node000017_Node000041"><a xlink:title=" ">
<path fill="none" stroke="#63b8ff" d="M1521.82,-302.44C1510.41,-294.64 1499.33,-284.5 1493,-272 1480.36,-247.01 1494.29,-215.28 1506.38,-195.18"/>
<polygon fill="#63b8ff" stroke="#63b8ff" points="1520.21,-305.56 1530.54,-307.94 1523.95,-299.64 1520.21,-305.56"/>
</a>
</g>
</g>
<!-- Node17&#45;&gt;Node43 -->
<g id="edge33_Node000017_Node000043" class="edge">
<title>Node17&#45;&gt;Node43</title>
<g id="a_edge33_Node000017_Node000043"><a xlink:title=" ">
<path fill="none" stroke="#63b8ff" d="M1454.08,-310.18C1376.44,-301.1 1268.96,-287.51 1175,-272 1172.12,-271.52 1169.19,-271.03 1166.24,-270.51"/>
<polygon fill="#63b8ff" stroke="#63b8ff" points="1454.02,-313.69 1464.36,-311.37 1454.83,-306.74 1454.02,-313.69"/>
</a>
</g>
</g>
<!-- Node19&#45;&gt;Node9 -->
<g id="edge24_Node000019_Node000009" class="edge">
<title>Node19&#45;&gt;Node9</title>
<g id="a_edge24_Node000019_Node000009"><a xlink:title=" ">
<path fill="none" stroke="#63b8ff" d="M1780.82,-232.08C1720.77,-203.85 1605.83,-149.81 1538.26,-118.04"/>
<polygon fill="#63b8ff" stroke="#63b8ff" points="1779.44,-235.3 1789.98,-236.38 1782.42,-228.96 1779.44,-235.3"/>
</a>
</g>
</g>
<!-- Node19&#45;&gt;Node11 -->
<g id="edge22_Node000019_Node000011" class="edge">
<title>Node19&#45;&gt;Node11</title>
<g id="a_edge22_Node000019_Node000011"><a xlink:title=" ">
<path fill="none" stroke="#63b8ff" d="M1820.65,-226.04C1820.97,-213.95 1821.35,-199.79 1821.63,-189.54"/>
<polygon fill="#63b8ff" stroke="#63b8ff" points="1817.14,-226.3 1820.38,-236.39 1824.14,-226.49 1817.14,-226.3"/>
</a>
</g>
</g>
<!-- Node19&#45;&gt;Node12 -->
<g id="edge21_Node000019_Node000012" class="edge">
<title>Node19&#45;&gt;Node12</title>
<g id="a_edge21_Node000019_Node000012"><a xlink:title=" ">
<path fill="none" stroke="#63b8ff" d="M1874.97,-233.09C1902.23,-223.49 1935.19,-210.39 1963,-195 1989.68,-180.24 1989.61,-165.12 2018,-154 2158.24,-99.04 2206.66,-144.16 2355,-118 2371.46,-115.1 2389.21,-111.03 2405.17,-107.02"/>
<polygon fill="#63b8ff" stroke="#63b8ff" points="1873.51,-229.9 1865.2,-236.47 1875.8,-236.51 1873.51,-229.9"/>
</a>
</g>
</g>
<!-- Node19&#45;&gt;Node15 -->
<g id="edge23_Node000019_Node000015" class="edge">
<title>Node19&#45;&gt;Node15</title>
<g id="a_edge23_Node000019_Node000015"><a xlink:title=" ">
<path fill="none" stroke="#63b8ff" d="M1854.09,-231.55C1872.79,-221.01 1896.32,-207.53 1917,-195 1945.89,-177.5 1949.62,-166.5 1981,-154 2060.44,-122.36 2086.68,-137.23 2170,-118 2172.74,-117.37 2175.52,-116.71 2178.33,-116.03"/>
<polygon fill="#63b8ff" stroke="#63b8ff" points="1852.33,-228.52 1845.32,-236.47 1855.76,-234.62 1852.33,-228.52"/>
</a>
</g>
</g>
<!-- Node37&#45;&gt;Node38 -->
<g id="edge26_Node000037_Node000038" class="edge">
<title>Node37&#45;&gt;Node38</title>
<g id="a_edge26_Node000037_Node000038"><a xlink:title=" ">
<path fill="none" stroke="#63b8ff" d="M2032.43,-224.35C2044.35,-214.73 2057.64,-204.01 2068.73,-195.07"/>
<polygon fill="#63b8ff" stroke="#63b8ff" points="2030.02,-221.79 2024.43,-230.79 2034.42,-227.24 2030.02,-221.79"/>
</a>
</g>
</g>
<!-- Node40 -->
<g id="Node000040" class="node">
<title>Node40</title>
<g id="a_Node000040"><a xlink:href="test__DebounceHoldInput_8cpp.html" target="_top" xlink:title=" ">
<polygon fill="white" stroke="#666666" points="384,-118 196,-118 196,-66 384,-66 384,-118"/>
<text text-anchor="start" x="204" y="-106" font-family="Helvetica,sans-Serif" font-size="10.00">/home/runner/work/EX</text>
<text text-anchor="start" x="204" y="-95" font-family="Helvetica,sans-Serif" font-size="10.00">&#45;Display/EX&#45;Display/test</text>
<text text-anchor="start" x="204" y="-84" font-family="Helvetica,sans-Serif" font-size="10.00">/unit/test_Input/test_DebounceHold</text>
<text text-anchor="middle" x="290" y="-73" font-family="Helvetica,sans-Serif" font-size="10.00">Input.cpp</text>
</a>
</g>
</g>
<!-- Node39&#45;&gt;Node40 -->
<g id="edge28_Node000039_Node000040" class="edge">
<title>Node39&#45;&gt;Node40</title>
<g id="a_edge28_Node000039_Node000040"><a xlink:title=" ">
<path fill="none" stroke="#63b8ff" d="M1174.44,-231.06C968.84,-200.12 912.09,-226.94 711,-195 567.38,-172.19 534.32,-152.26 393,-118 390.05,-117.28 387.05,-116.56 384.02,-115.82"/>
<polygon fill="#63b8ff" stroke="#63b8ff" points="1173.93,-234.52 1184.35,-232.58 1174.99,-227.6 1173.93,-234.52"/>
</a>
</g>
</g>
<!-- Node41&#45;&gt;Node9 -->
<g id="edge31_Node000041_Node000009" class="edge">
<title>Node41&#45;&gt;Node9</title>
<g id="a_edge31_Node000041_Node000009"><a xlink:title=" ">
<path fill="none" stroke="#63b8ff" d="M1507.31,-144.32C1503.59,-135.75 1499.54,-126.45 1495.94,-118.16"/>
<polygon fill="#63b8ff" stroke="#63b8ff" points="1504.15,-145.83 1511.35,-153.6 1510.57,-143.03 1504.15,-145.83"/>
</a>
</g>
</g>
<!-- Node41&#45;&gt;Node15 -->
<g id="edge30_Node000041_Node000015" class="edge">
<title>Node41&#45;&gt;Node15</title>
<g id="a_edge30_Node000041_Node000015"><a xlink:title=" ">
<path fill="none" stroke="#63b8ff" d="M1597.3,-165.98C1636.2,-162.26 1684.09,-157.76 1727,-154 1923.78,-136.74 1975.42,-152.04 2170,-118 2172.77,-117.52 2175.58,-116.98 2178.41,-116.42"/>
<polygon fill="#63b8ff" stroke="#63b8ff" points="1596.72,-162.52 1587.1,-166.96 1597.39,-169.49 1596.72,-162.52"/>
</a>
</g>
</g>
<!-- Node42 -->
<g id="Node000042" class="node">
<title>Node42</title>
<g id="a_Node000042"><a xlink:href="test__InputInterface_8cpp.html" target="_top" xlink:title=" ">
<polygon fill="white" stroke="#666666" points="1167,-112.5 961,-112.5 961,-71.5 1167,-71.5 1167,-112.5"/>
<text text-anchor="start" x="969" y="-100.5" font-family="Helvetica,sans-Serif" font-size="10.00">/home/runner/work/EX</text>
<text text-anchor="start" x="969" y="-89.5" font-family="Helvetica,sans-Serif" font-size="10.00">&#45;Display/EX&#45;Display/test</text>
<text text-anchor="middle" x="1064" y="-78.5" font-family="Helvetica,sans-Serif" font-size="10.00">/unit/test_Input/test_InputInterface.cpp</text>
</a>
</g>
</g>
<!-- Node41&#45;&gt;Node42 -->
<g id="edge32_Node000041_Node000042" class="edge">
<title>Node41&#45;&gt;Node42</title>
<g id="a_edge32_Node000041_Node000042"><a xlink:title=" ">
<path fill="none" stroke="#63b8ff" d="M1443.12,-153.95C1324.3,-131.43 1291.19,-138.55 1176,-118 1166.88,-116.37 1157.38,-114.51 1147.93,-112.56"/>
<polygon fill="#63b8ff" stroke="#63b8ff" points="1442.48,-157.39 1452.96,-155.84 1443.8,-150.52 1442.48,-157.39"/>
</a>
</g>
</g>
<!-- Node44 -->
<g id="Node000044" class="node">
<title>Node44</title>
<g id="a_Node000044"><a xlink:href="test__TouchScreenInput_8cpp.html" target="_top" xlink:title=" ">
<polygon fill="white" stroke="#666666" points="178,-118 0,-118 0,-66 178,-66 178,-118"/>
<text text-anchor="start" x="8" y="-106" font-family="Helvetica,sans-Serif" font-size="10.00">/home/runner/work/EX</text>
<text text-anchor="start" x="8" y="-95" font-family="Helvetica,sans-Serif" font-size="10.00">&#45;Display/EX&#45;Display/test</text>
<text text-anchor="start" x="8" y="-84" font-family="Helvetica,sans-Serif" font-size="10.00">/unit/test_Input/test_TouchScreen</text>
<text text-anchor="middle" x="89" y="-73" font-family="Helvetica,sans-Serif" font-size="10.00">Input.cpp</text>
</a>
</g>
</g>
<!-- Node43&#45;&gt;Node44 -->
<g id="edge34_Node000043_Node000044" class="edge">
<title>Node43&#45;&gt;Node44</title>
<g id="a_edge34_Node000043_Node000044"><a xlink:title=" ">
<path fill="none" stroke="#63b8ff" d="M979.45,-244.27C868.66,-236.41 683.63,-220.73 526,-195 373.51,-170.11 337.2,-154.21 187,-118 184.1,-117.3 181.15,-116.58 178.17,-115.85"/>
<polygon fill="#63b8ff" stroke="#63b8ff" points="979.39,-247.77 989.61,-244.98 979.88,-240.79 979.39,-247.77"/>
</a>
</g>
</g>
<!-- Node45&#45;&gt;Node8 -->
<g id="edge40_Node000045_Node000008" class="edge">
<title>Node45&#45;&gt;Node8</title>
<g id="a_edge40_Node000045_Node000008"><a xlink:title=" ">
<path fill="none" stroke="#63b8ff" d="M757.47,-146.79C747.27,-137.56 735.87,-127.26 725.81,-118.16"/>
<polygon fill="#63b8ff" stroke="#63b8ff" points="755.24,-149.49 765,-153.6 759.93,-144.3 755.24,-149.49"/>
</a>
</g>
</g>
<!-- Node45&#45;&gt;Node9 -->
<g id="edge41_Node000045_Node000009" class="edge">
<title>Node45&#45;&gt;Node9</title>
<g id="a_edge41_Node000045_Node000009"><a xlink:title=" ">
<path fill="none" stroke="#63b8ff" d="M864.4,-169.08C976.42,-162.01 1190.02,-146.03 1370,-118 1385.44,-115.59 1401.93,-112.39 1417.45,-109.09"/>
<polygon fill="#63b8ff" stroke="#63b8ff" points="863.97,-165.6 854.21,-169.71 864.41,-172.58 863.97,-165.6"/>
</a>
</g>
</g>
<!-- Node45&#45;&gt;Node10 -->
<g id="edge42_Node000045_Node000010" class="edge">
<title>Node45&#45;&gt;Node10</title>
<g id="a_edge42_Node000045_Node000010"><a xlink:title=" ">
<path fill="none" stroke="#63b8ff" d="M816.53,-146.79C826.73,-137.56 838.13,-127.26 848.19,-118.16"/>
<polygon fill="#63b8ff" stroke="#63b8ff" points="814.07,-144.3 809,-153.6 818.76,-149.49 814.07,-144.3"/>
</a>
</g>
</g>
<!-- Node45&#45;&gt;Node40 -->
<g id="edge43_Node000045_Node000040" class="edge">
<title>Node45&#45;&gt;Node40</title>
<g id="a_edge43_Node000045_Node000040"><a xlink:title=" ">
<path fill="none" stroke="#63b8ff" d="M709.79,-164.9C630.08,-155.48 502.31,-138.91 393,-118 390.11,-117.45 387.18,-116.87 384.22,-116.26"/>
<polygon fill="#63b8ff" stroke="#63b8ff" points="709.4,-168.38 719.74,-166.06 710.22,-161.42 709.4,-168.38"/>
</a>
</g>
</g>
<!-- Node45&#45;&gt;Node42 -->
<g id="edge44_Node000045_Node000042" class="edge">
<title>Node45&#45;&gt;Node42</title>
<g id="a_edge44_Node000045_Node000042"><a xlink:title=" ">
<path fill="none" stroke="#63b8ff" d="M863.88,-151.16C905.53,-139.05 956.52,-124.24 996.6,-112.59"/>
<polygon fill="#63b8ff" stroke="#63b8ff" points="862.68,-147.86 854.05,-154.01 864.63,-154.58 862.68,-147.86"/>
</a>
</g>
</g>
<!-- Node45&#45;&gt;Node44 -->
<g id="edge45_Node000045_Node000044" class="edge">
<title>Node45&#45;&gt;Node44</title>
<g id="a_edge45_Node000045_Node000044"><a xlink:title=" ">
<path fill="none" stroke="#63b8ff" d="M709.87,-170.25C595.16,-164.55 373.12,-150.14 187,-118 184.06,-117.49 181.08,-116.94 178.07,-116.36"/>
<polygon fill="#63b8ff" stroke="#63b8ff" points="709.8,-173.76 719.96,-170.75 710.14,-166.76 709.8,-173.76"/>
</a>
</g>
</g>
<!-- Node21 -->
<g id="Node000021" class="node">
<title>Node21</title>
<g id="a_Node000021"><a xlink:href="test__CompilerCreation_8cpp.html" target="_top" xlink:title=" ">
<polygon fill="white" stroke="#666666" points="587.5,-118 402.5,-118 402.5,-66 587.5,-66 587.5,-118"/>
<text text-anchor="start" x="410.5" y="-106" font-family="Helvetica,sans-Serif" font-size="10.00">/home/runner/work/EX</text>
<text text-anchor="start" x="410.5" y="-95" font-family="Helvetica,sans-Serif" font-size="10.00">&#45;Display/EX&#45;Display/test</text>
<text text-anchor="start" x="410.5" y="-84" font-family="Helvetica,sans-Serif" font-size="10.00">/integration/test_CompilerCreation</text>
<text text-anchor="middle" x="495" y="-73" font-family="Helvetica,sans-Serif" font-size="10.00">/test_CompilerCreation.cpp</text>
</a>
</g>
</g>
<!-- Node45&#45;&gt;Node21 -->
<g id="edge39_Node000045_Node000021" class="edge">
<title>Node45&#45;&gt;Node21</title>
<g id="a_edge39_Node000045_Node000021"><a xlink:title=" ">
<path fill="none" stroke="#63b8ff" d="M709.65,-152.18C671.6,-141.69 625.51,-128.98 585.81,-118.03"/>
<polygon fill="#63b8ff" stroke="#63b8ff" points="709.07,-155.65 719.64,-154.93 710.93,-148.9 709.07,-155.65"/>
</a>
</g>
</g>
</g>
</svg>

<g id="navigator" transform="translate(0 0)" fill="#404254">
  <rect fill="#f2f5e9" fill-opacity="0.5" stroke="#606060" stroke-width=".5" x="0" y="0" width="60" height="60"/>
  <use id="zoomplus" xlink:href="#zoomPlus" x="17" y="9" onmousedown="handleZoom(evt,'in')"/>
  <use id="zoomminus" xlink:href="#zoomMin" x="42" y="9" onmousedown="handleZoom(evt,'out')"/>
  <use id="reset" xlink:href="#resetDef" x="30" y="36" onmousedown="handleReset()"/>
   <use id="arrowup" xlink:href="#arrowUp" x="0" y="0" onmousedown="handlePan(0,-1)"/>
  <use id="arrowright" xlink:href="#arrowRight" x="0" y="0" onmousedown="handlePan(1,0)"/>
  <use id="arrowdown" xlink:href="#arrowDown" x="0" y="0" onmousedown="handlePan(0,1)"/>
  <use id="arrowleft" xlink:href="#arrowLeft" x="0" y="0" onmousedown="handlePan(-1,0)"/>
</g>
<svg viewBox="0 0 15 15" width="100%" height="30px" preserveAspectRatio="xMaxYMin meet">
 <g id="arrow_out" transform="scale(0.3 0.3)">
  <a xlink:href="InputActions_8h__dep__incl_org.svg" target="_base">
   <rect id="button" ry="5" rx="5" y="6" x="6" height="38" width="38"
        fill="#f2f5e9" fill-opacity="0.5" stroke="#606060" stroke-width="1.0"/>
   <path id="arrow"
     d="M 11.500037,31.436501 C 11.940474,20.09759 22.043105,11.32322 32.158766,21.979434 L 37.068811,17.246167 C 37.068811,17.246167 37.088388,32 37.088388,32 L 22.160133,31.978069 C 22.160133,31.978069 26.997745,27.140456 26.997745,27.140456 C 18.528582,18.264221 13.291696,25.230495 11.500037,31.436501 z"
     style="fill:#404040;"/>
  </a>
 </g>
</svg>

<style type='text/css'>
<![CDATA[
[data-mouse-over-selected='false'] { opacity: 0.7; }
[data-mouse-over-selected='true']  { opacity: 1.0; }
]]>
</style>
<script type="application/ecmascript"><![CDATA[
document.addEventListener('DOMContentLoaded', (event) => {
  highlightEdges();
  highlightAdjacentNodes();
});
]]></script>
</svg>
