<?xml version="1.0" encoding="UTF-8" standalone="no"?>
<!DOCTYPE svg PUBLIC "-//W3C//DTD SVG 1.1//EN"
 "http://www.w3.org/Graphics/SVG/1.1/DTD/svg11.dtd">
<!-- Generated by graphviz version 2.43.0 (0)
 -->
<!-- Title: /home/runner/work/EX&#45;Display/EX&#45;Display/InputInterface.h Pages: 1 -->
<svg width="3374pt" height="384pt"
 viewBox="0.00 0.00 3374.00 384.00" xmlns="http://www.w3.org/2000/svg" xmlns:xlink="http://www.w3.org/1999/xlink">
<g id="graph0" class="graph" transform="scale(1 1) rotate(0) translate(4 380)">
<title>/home/runner/work/EX&#45;Display/EX&#45;Display/InputInterface.h</title>
<polygon fill="white" stroke="transparent" points="-4,4 -4,-380 3370,-380 3370,4 -4,4"/>
<!-- Node1 -->
<g id="node1" class="node">
<title>Node1</title>
<g id="a_node1"><a xlink:title=" ">
<polygon fill="#bfbfbf" stroke="black" points="1101,-345.5 1101,-375.5 1294,-375.5 1294,-345.5 1101,-345.5"/>
<text text-anchor="start" x="1109" y="-363.5" font-family="Helvetica,sans-Serif" font-size="10.00">/home/runner/work/EX</text>
<text text-anchor="middle" x="1197.5" y="-352.5" font-family="Helvetica,sans-Serif" font-size="10.00">&#45;Display/EX&#45;Display/InputInterface.h</text>
</a>
</g>
</g>
<!-- Node2 -->
<g id="node2" class="node">
<title>Node2</title>
<g id="a_node2"><a xlink:href="InputInterface_8cpp.html" target="_top" xlink:title=" ">
<polygon fill="white" stroke="black" points="465.5,-273 465.5,-303 669.5,-303 669.5,-273 465.5,-273"/>
<text text-anchor="start" x="473.5" y="-291" font-family="Helvetica,sans-Serif" font-size="10.00">/home/runner/work/EX</text>
<text text-anchor="middle" x="567.5" y="-280" font-family="Helvetica,sans-Serif" font-size="10.00">&#45;Display/EX&#45;Display/InputInterface.cpp</text>
</a>
</g>
</g>
<!-- Node1&#45;&gt;Node2 -->
<g id="edge1" class="edge">
<title>Node1&#45;&gt;Node2</title>
<path fill="none" stroke="midnightblue" d="M1090.63,-351.65C985.49,-343.33 820.53,-328.67 678.5,-309 666.18,-307.29 653.15,-305.2 640.51,-303.03"/>
<polygon fill="midnightblue" stroke="midnightblue" points="1090.37,-355.14 1100.61,-352.44 1090.92,-348.17 1090.37,-355.14"/>
</g>
<!-- Node3 -->
<g id="node3" class="node">
<title>Node3</title>
<g id="a_node3"><a xlink:href="InputManager_8h.html" target="_top" xlink:title=" ">
<polygon fill="white" stroke="black" points="1012,-273 1012,-303 1203,-303 1203,-273 1012,-273"/>
<text text-anchor="start" x="1020" y="-291" font-family="Helvetica,sans-Serif" font-size="10.00">/home/runner/work/EX</text>
<text text-anchor="middle" x="1107.5" y="-280" font-family="Helvetica,sans-Serif" font-size="10.00">&#45;Display/EX&#45;Display/InputManager.h</text>
</a>
</g>
</g>
<!-- Node1&#45;&gt;Node3 -->
<g id="edge2" class="edge">
<title>Node1&#45;&gt;Node3</title>
<path fill="none" stroke="midnightblue" d="M1171.06,-338.79C1156.35,-327.27 1138.44,-313.23 1125.38,-303"/>
<polygon fill="midnightblue" stroke="midnightblue" points="1169.26,-341.82 1179.29,-345.23 1173.57,-336.31 1169.26,-341.82"/>
</g>
<!-- Node31 -->
<g id="node31" class="node">
<title>Node31</title>
<g id="a_node31"><a xlink:href="MockButtonInput_8h.html" target="_top" xlink:title=" ">
<polygon fill="white" stroke="black" points="1868,-267.5 1868,-308.5 2015,-308.5 2015,-267.5 1868,-267.5"/>
<text text-anchor="start" x="1876" y="-296.5" font-family="Helvetica,sans-Serif" font-size="10.00">/home/runner/work/EX</text>
<text text-anchor="start" x="1876" y="-285.5" font-family="Helvetica,sans-Serif" font-size="10.00">&#45;Display/EX&#45;Display/test</text>
<text text-anchor="middle" x="1941.5" y="-274.5" font-family="Helvetica,sans-Serif" font-size="10.00">/mocks/MockButtonInput.h</text>
</a>
</g>
</g>
<!-- Node1&#45;&gt;Node31 -->
<g id="edge34" class="edge">
<title>Node1&#45;&gt;Node31</title>
<path fill="none" stroke="midnightblue" d="M1304.36,-349.37C1457.54,-334.86 1735.62,-308.51 1867.85,-295.98"/>
<polygon fill="midnightblue" stroke="midnightblue" points="1303.63,-345.93 1294,-350.36 1304.29,-352.9 1303.63,-345.93"/>
</g>
<!-- Node33 -->
<g id="node33" class="node">
<title>Node33</title>
<g id="a_node33"><a xlink:href="MockInput_8h.html" target="_top" xlink:title=" ">
<polygon fill="white" stroke="black" points="1221.5,-267.5 1221.5,-308.5 1355.5,-308.5 1355.5,-267.5 1221.5,-267.5"/>
<text text-anchor="start" x="1229.5" y="-296.5" font-family="Helvetica,sans-Serif" font-size="10.00">/home/runner/work/EX</text>
<text text-anchor="start" x="1229.5" y="-285.5" font-family="Helvetica,sans-Serif" font-size="10.00">&#45;Display/EX&#45;Display/test</text>
<text text-anchor="middle" x="1288.5" y="-274.5" font-family="Helvetica,sans-Serif" font-size="10.00">/mocks/MockInput.h</text>
</a>
</g>
</g>
<!-- Node1&#45;&gt;Node33 -->
<g id="edge36" class="edge">
<title>Node1&#45;&gt;Node33</title>
<path fill="none" stroke="midnightblue" d="M1224.05,-338.93C1236.4,-329.36 1251.02,-318.03 1263.22,-308.59"/>
<polygon fill="midnightblue" stroke="midnightblue" points="1221.68,-336.34 1215.92,-345.23 1225.96,-341.88 1221.68,-336.34"/>
</g>
<!-- Node35 -->
<g id="node35" class="node">
<title>Node35</title>
<g id="a_node35"><a xlink:href="MockTouchScreenInput_8h.html" target="_top" xlink:title=" ">
<polygon fill="white" stroke="black" points="2290.5,-267.5 2290.5,-308.5 2466.5,-308.5 2466.5,-267.5 2290.5,-267.5"/>
<text text-anchor="start" x="2298.5" y="-296.5" font-family="Helvetica,sans-Serif" font-size="10.00">/home/runner/work/EX</text>
<text text-anchor="start" x="2298.5" y="-285.5" font-family="Helvetica,sans-Serif" font-size="10.00">&#45;Display/EX&#45;Display/test</text>
<text text-anchor="middle" x="2378.5" y="-274.5" font-family="Helvetica,sans-Serif" font-size="10.00">/mocks/MockTouchScreenInput.h</text>
</a>
</g>
</g>
<!-- Node1&#45;&gt;Node35 -->
<g id="edge41" class="edge">
<title>Node1&#45;&gt;Node35</title>
<path fill="none" stroke="midnightblue" d="M1304.23,-353.13C1535.1,-339.35 2077.2,-306.99 2290.28,-294.27"/>
<polygon fill="midnightblue" stroke="midnightblue" points="1303.92,-349.64 1294.15,-353.73 1304.34,-356.63 1303.92,-349.64"/>
</g>
<!-- Node37 -->
<g id="node37" class="node">
<title>Node37</title>
<g id="a_node37"><a xlink:href="TFT__eSPITouch_8h.html" target="_top" xlink:title=" ">
<polygon fill="white" stroke="black" points="688,-267.5 688,-308.5 821,-308.5 821,-267.5 688,-267.5"/>
<text text-anchor="start" x="696" y="-296.5" font-family="Helvetica,sans-Serif" font-size="10.00">/home/runner/work/EX</text>
<text text-anchor="start" x="696" y="-285.5" font-family="Helvetica,sans-Serif" font-size="10.00">&#45;Display/EX&#45;Display/TFT</text>
<text text-anchor="middle" x="754.5" y="-274.5" font-family="Helvetica,sans-Serif" font-size="10.00">_eSPITouch.h</text>
</a>
</g>
</g>
<!-- Node1&#45;&gt;Node37 -->
<g id="edge43" class="edge">
<title>Node1&#45;&gt;Node37</title>
<path fill="none" stroke="midnightblue" d="M1099.57,-343.92C1014.97,-330.45 894.99,-311.36 821.09,-299.6"/>
<polygon fill="midnightblue" stroke="midnightblue" points="1099.02,-347.37 1109.45,-345.49 1100.12,-340.46 1099.02,-347.37"/>
</g>
<!-- Node4 -->
<g id="node4" class="node">
<title>Node4</title>
<g id="a_node4"><a xlink:href="Configurator_8h.html" target="_top" xlink:title=" ">
<polygon fill="white" stroke="black" points="257.5,-100.5 257.5,-130.5 441.5,-130.5 441.5,-100.5 257.5,-100.5"/>
<text text-anchor="start" x="265.5" y="-118.5" font-family="Helvetica,sans-Serif" font-size="10.00">/home/runner/work/EX</text>
<text text-anchor="middle" x="349.5" y="-107.5" font-family="Helvetica,sans-Serif" font-size="10.00">&#45;Display/EX&#45;Display/Configurator.h</text>
</a>
</g>
</g>
<!-- Node3&#45;&gt;Node4 -->
<g id="edge3" class="edge">
<title>Node3&#45;&gt;Node4</title>
<path fill="none" stroke="midnightblue" d="M1002.12,-272.13C968.52,-263.84 932.56,-250.98 903.5,-231 879.4,-214.43 890,-192.32 864.5,-178 783.98,-132.79 541.56,-157.35 450.5,-142 433.38,-139.11 414.9,-134.81 398.48,-130.55"/>
<polygon fill="midnightblue" stroke="midnightblue" points="1001.46,-275.57 1011.99,-274.45 1003.06,-268.75 1001.46,-275.57"/>
</g>
<!-- Node8 -->
<g id="node8" class="node">
<title>Node8</title>
<g id="a_node8"><a xlink:href="Controller_8h.html" target="_top" xlink:title=" ">
<polygon fill="white" stroke="black" points="912.5,-189.5 912.5,-219.5 1084.5,-219.5 1084.5,-189.5 912.5,-189.5"/>
<text text-anchor="start" x="920.5" y="-207.5" font-family="Helvetica,sans-Serif" font-size="10.00">/home/runner/work/EX</text>
<text text-anchor="middle" x="998.5" y="-196.5" font-family="Helvetica,sans-Serif" font-size="10.00">&#45;Display/EX&#45;Display/Controller.h</text>
</a>
</g>
</g>
<!-- Node3&#45;&gt;Node8 -->
<g id="edge7" class="edge">
<title>Node3&#45;&gt;Node8</title>
<path fill="none" stroke="midnightblue" d="M1080.26,-266.63C1060.62,-251.95 1034.62,-232.51 1017.27,-219.53"/>
<polygon fill="midnightblue" stroke="midnightblue" points="1078.41,-269.62 1088.51,-272.8 1082.6,-264.01 1078.41,-269.62"/>
</g>
<!-- Node11 -->
<g id="node11" class="node">
<title>Node11</title>
<g id="a_node11"><a xlink:href="test__ControllerInputAction_8cpp.html" target="_top" xlink:title=" ">
<polygon fill="white" stroke="black" points="1067,-89.5 1067,-141.5 1234,-141.5 1234,-89.5 1067,-89.5"/>
<text text-anchor="start" x="1075" y="-129.5" font-family="Helvetica,sans-Serif" font-size="10.00">/home/runner/work/EX</text>
<text text-anchor="start" x="1075" y="-118.5" font-family="Helvetica,sans-Serif" font-size="10.00">&#45;Display/EX&#45;Display/test</text>
<text text-anchor="start" x="1075" y="-107.5" font-family="Helvetica,sans-Serif" font-size="10.00">/integration/test_Controller</text>
<text text-anchor="middle" x="1150.5" y="-96.5" font-family="Helvetica,sans-Serif" font-size="10.00">/test_ControllerInputAction.cpp</text>
</a>
</g>
</g>
<!-- Node3&#45;&gt;Node11 -->
<g id="edge18" class="edge">
<title>Node3&#45;&gt;Node11</title>
<path fill="none" stroke="midnightblue" d="M1113.58,-262.88C1121.67,-230.8 1135.91,-174.35 1144.14,-141.72"/>
<polygon fill="midnightblue" stroke="midnightblue" points="1110.14,-262.2 1111.09,-272.76 1116.93,-263.92 1110.14,-262.2"/>
</g>
<!-- Node13 -->
<g id="node13" class="node">
<title>Node13</title>
<g id="a_node13"><a xlink:href="test__Controller_8cpp.html" target="_top" xlink:title=" ">
<polygon fill="white" stroke="black" points="1252,-89.5 1252,-141.5 1387,-141.5 1387,-89.5 1252,-89.5"/>
<text text-anchor="start" x="1260" y="-129.5" font-family="Helvetica,sans-Serif" font-size="10.00">/home/runner/work/EX</text>
<text text-anchor="start" x="1260" y="-118.5" font-family="Helvetica,sans-Serif" font-size="10.00">&#45;Display/EX&#45;Display/test</text>
<text text-anchor="start" x="1260" y="-107.5" font-family="Helvetica,sans-Serif" font-size="10.00">/unit/test_Controller/test</text>
<text text-anchor="middle" x="1319.5" y="-96.5" font-family="Helvetica,sans-Serif" font-size="10.00">_Controller.cpp</text>
</a>
</g>
</g>
<!-- Node3&#45;&gt;Node13 -->
<g id="edge32" class="edge">
<title>Node3&#45;&gt;Node13</title>
<path fill="none" stroke="midnightblue" d="M1124.17,-264.91C1142.69,-241.36 1174.39,-203.98 1207.5,-178 1225.13,-164.17 1246.28,-151.68 1265.43,-141.62"/>
<polygon fill="midnightblue" stroke="midnightblue" points="1121.32,-262.86 1117.96,-272.91 1126.85,-267.15 1121.32,-262.86"/>
</g>
<!-- Node14 -->
<g id="node14" class="node">
<title>Node14</title>
<g id="a_node14"><a xlink:href="CreateUserDevices_8h.html" target="_top" xlink:title=" ">
<polygon fill="white" stroke="black" points="464.5,-184 464.5,-225 634.5,-225 634.5,-184 464.5,-184"/>
<text text-anchor="start" x="472.5" y="-213" font-family="Helvetica,sans-Serif" font-size="10.00">/home/runner/work/EX</text>
<text text-anchor="start" x="472.5" y="-202" font-family="Helvetica,sans-Serif" font-size="10.00">&#45;Display/EX&#45;Display/CreateUser</text>
<text text-anchor="middle" x="549.5" y="-191" font-family="Helvetica,sans-Serif" font-size="10.00">Devices.h</text>
</a>
</g>
</g>
<!-- Node3&#45;&gt;Node14 -->
<g id="edge14" class="edge">
<title>Node3&#45;&gt;Node14</title>
<path fill="none" stroke="midnightblue" d="M1001.65,-278.62C907.16,-270.1 765.29,-254.74 643.5,-231 634.79,-229.3 625.69,-227.23 616.74,-225"/>
<polygon fill="midnightblue" stroke="midnightblue" points="1001.51,-282.12 1011.78,-279.53 1002.13,-275.15 1001.51,-282.12"/>
</g>
<!-- Node16 -->
<g id="node16" class="node">
<title>Node16</title>
<g id="a_node16"><a xlink:href="InputManager_8cpp.html" target="_top" xlink:title=" ">
<polygon fill="white" stroke="black" points="653,-189.5 653,-219.5 856,-219.5 856,-189.5 653,-189.5"/>
<text text-anchor="start" x="661" y="-207.5" font-family="Helvetica,sans-Serif" font-size="10.00">/home/runner/work/EX</text>
<text text-anchor="middle" x="754.5" y="-196.5" font-family="Helvetica,sans-Serif" font-size="10.00">&#45;Display/EX&#45;Display/InputManager.cpp</text>
</a>
</g>
</g>
<!-- Node3&#45;&gt;Node16 -->
<g id="edge17" class="edge">
<title>Node3&#45;&gt;Node16</title>
<path fill="none" stroke="midnightblue" d="M1036.67,-270.65C971.8,-255.67 876.78,-233.73 815.28,-219.53"/>
<polygon fill="midnightblue" stroke="midnightblue" points="1036.29,-274.15 1046.82,-272.99 1037.86,-267.33 1036.29,-274.15"/>
</g>
<!-- Node17 -->
<g id="node17" class="node">
<title>Node17</title>
<g id="a_node17"><a xlink:href="MockDisplayInputMethods_8h.html" target="_top" xlink:title=" ">
<polygon fill="white" stroke="black" points="1976.5,-184 1976.5,-225 2170.5,-225 2170.5,-184 1976.5,-184"/>
<text text-anchor="start" x="1984.5" y="-213" font-family="Helvetica,sans-Serif" font-size="10.00">/home/runner/work/EX</text>
<text text-anchor="start" x="1984.5" y="-202" font-family="Helvetica,sans-Serif" font-size="10.00">&#45;Display/EX&#45;Display/test</text>
<text text-anchor="middle" x="2073.5" y="-191" font-family="Helvetica,sans-Serif" font-size="10.00">/mocks/MockDisplayInputMethods.h</text>
</a>
</g>
</g>
<!-- Node3&#45;&gt;Node17 -->
<g id="edge19" class="edge">
<title>Node3&#45;&gt;Node17</title>
<path fill="none" stroke="midnightblue" d="M1184.84,-271.21C1194.13,-269.63 1203.51,-268.17 1212.5,-267 1488.15,-231.03 1816.4,-214.9 1976.29,-208.74"/>
<polygon fill="midnightblue" stroke="midnightblue" points="1184.05,-267.79 1174.81,-272.97 1185.27,-274.69 1184.05,-267.79"/>
</g>
<!-- Node30 -->
<g id="node30" class="node">
<title>Node30</title>
<g id="a_node30"><a xlink:href="test__InputManager_8cpp.html" target="_top" xlink:title=" ">
<polygon fill="white" stroke="black" points="1216.5,-178.5 1216.5,-230.5 1350.5,-230.5 1350.5,-178.5 1216.5,-178.5"/>
<text text-anchor="start" x="1224.5" y="-218.5" font-family="Helvetica,sans-Serif" font-size="10.00">/home/runner/work/EX</text>
<text text-anchor="start" x="1224.5" y="-207.5" font-family="Helvetica,sans-Serif" font-size="10.00">&#45;Display/EX&#45;Display/test</text>
<text text-anchor="start" x="1224.5" y="-196.5" font-family="Helvetica,sans-Serif" font-size="10.00">/unit/test_InputManager</text>
<text text-anchor="middle" x="1283.5" y="-185.5" font-family="Helvetica,sans-Serif" font-size="10.00">/test_InputManager.cpp</text>
</a>
</g>
</g>
<!-- Node3&#45;&gt;Node30 -->
<g id="edge33" class="edge">
<title>Node3&#45;&gt;Node30</title>
<path fill="none" stroke="midnightblue" d="M1147.04,-268.69C1171.37,-257.42 1202.88,-242.83 1229.5,-230.51"/>
<polygon fill="midnightblue" stroke="midnightblue" points="1145.36,-265.61 1137.76,-272.99 1148.3,-271.96 1145.36,-265.61"/>
</g>
<!-- Node5 -->
<g id="node5" class="node">
<title>Node5</title>
<g id="a_node5"><a xlink:href="Configurator_8cpp.html" target="_top" xlink:title=" ">
<polygon fill="white" stroke="black" points="0,-11.5 0,-41.5 195,-41.5 195,-11.5 0,-11.5"/>
<text text-anchor="start" x="8" y="-29.5" font-family="Helvetica,sans-Serif" font-size="10.00">/home/runner/work/EX</text>
<text text-anchor="middle" x="97.5" y="-18.5" font-family="Helvetica,sans-Serif" font-size="10.00">&#45;Display/EX&#45;Display/Configurator.cpp</text>
</a>
</g>
</g>
<!-- Node4&#45;&gt;Node5 -->
<g id="edge4" class="edge">
<title>Node4&#45;&gt;Node5</title>
<path fill="none" stroke="midnightblue" d="M299,-97.07C251.74,-80.75 182.01,-56.68 138.21,-41.55"/>
<polygon fill="midnightblue" stroke="midnightblue" points="298.14,-100.47 308.73,-100.43 300.42,-93.85 298.14,-100.47"/>
</g>
<!-- Node6 -->
<g id="node6" class="node">
<title>Node6</title>
<g id="a_node6"><a xlink:href="EX-Display_8ino.html" target="_top" xlink:title=" ">
<polygon fill="white" stroke="black" points="249.5,-6 249.5,-47 377.5,-47 377.5,-6 249.5,-6"/>
<text text-anchor="start" x="257.5" y="-35" font-family="Helvetica,sans-Serif" font-size="10.00">/home/runner/work/EX</text>
<text text-anchor="start" x="257.5" y="-24" font-family="Helvetica,sans-Serif" font-size="10.00">&#45;Display/EX&#45;Display/EX</text>
<text text-anchor="middle" x="313.5" y="-13" font-family="Helvetica,sans-Serif" font-size="10.00">&#45;Display.ino</text>
</a>
</g>
</g>
<!-- Node4&#45;&gt;Node6 -->
<g id="edge5" class="edge">
<title>Node4&#45;&gt;Node6</title>
<path fill="none" stroke="midnightblue" d="M339.71,-90.84C334.04,-77.13 326.97,-60.06 321.61,-47.1"/>
<polygon fill="midnightblue" stroke="midnightblue" points="336.5,-92.23 343.56,-100.13 342.97,-89.56 336.5,-92.23"/>
</g>
<!-- Node7 -->
<g id="node7" class="node">
<title>Node7</title>
<g id="a_node7"><a xlink:href="test__Configurator_8cpp.html" target="_top" xlink:title=" ">
<polygon fill="white" stroke="black" points="395.5,-0.5 395.5,-52.5 529.5,-52.5 529.5,-0.5 395.5,-0.5"/>
<text text-anchor="start" x="403.5" y="-40.5" font-family="Helvetica,sans-Serif" font-size="10.00">/home/runner/work/EX</text>
<text text-anchor="start" x="403.5" y="-29.5" font-family="Helvetica,sans-Serif" font-size="10.00">&#45;Display/EX&#45;Display/test</text>
<text text-anchor="start" x="403.5" y="-18.5" font-family="Helvetica,sans-Serif" font-size="10.00">/unit/test_Configurator</text>
<text text-anchor="middle" x="462.5" y="-7.5" font-family="Helvetica,sans-Serif" font-size="10.00">/test_Configurator.cpp</text>
</a>
</g>
</g>
<!-- Node4&#45;&gt;Node7 -->
<g id="edge6" class="edge">
<title>Node4&#45;&gt;Node7</title>
<path fill="none" stroke="midnightblue" d="M375.88,-94.19C392.02,-81.76 412.79,-65.77 429.95,-52.56"/>
<polygon fill="midnightblue" stroke="midnightblue" points="373.7,-91.45 367.91,-100.33 377.97,-97 373.7,-91.45"/>
</g>
<!-- Node8&#45;&gt;Node4 -->
<g id="edge8" class="edge">
<title>Node8&#45;&gt;Node4</title>
<path fill="none" stroke="midnightblue" d="M940.5,-186.94C926.82,-183.53 912.22,-180.28 898.5,-178 701.46,-145.2 647.58,-174.56 450.5,-142 433.28,-139.16 414.69,-134.83 398.21,-130.55"/>
<polygon fill="midnightblue" stroke="midnightblue" points="939.72,-190.35 950.28,-189.44 941.46,-183.57 939.72,-190.35"/>
</g>
<!-- Node9 -->
<g id="node9" class="node">
<title>Node9</title>
<g id="a_node9"><a xlink:href="Controller_8cpp.html" target="_top" xlink:title=" ">
<polygon fill="white" stroke="black" points="460,-100.5 460,-130.5 643,-130.5 643,-100.5 460,-100.5"/>
<text text-anchor="start" x="468" y="-118.5" font-family="Helvetica,sans-Serif" font-size="10.00">/home/runner/work/EX</text>
<text text-anchor="middle" x="551.5" y="-107.5" font-family="Helvetica,sans-Serif" font-size="10.00">&#45;Display/EX&#45;Display/Controller.cpp</text>
</a>
</g>
</g>
<!-- Node8&#45;&gt;Node9 -->
<g id="edge9" class="edge">
<title>Node8&#45;&gt;Node9</title>
<path fill="none" stroke="midnightblue" d="M938.08,-187.01C925.08,-183.77 911.38,-180.58 898.5,-178 790.15,-156.32 760.88,-163.55 652.5,-142 636.27,-138.77 618.74,-134.59 602.91,-130.56"/>
<polygon fill="midnightblue" stroke="midnightblue" points="937.31,-190.43 947.86,-189.49 939.03,-183.64 937.31,-190.43"/>
</g>
<!-- Node10 -->
<g id="node10" class="node">
<title>Node10</title>
<g id="a_node10"><a xlink:href="test__ControllerDisplayUpdate_8cpp.html" target="_top" xlink:title=" ">
<polygon fill="white" stroke="black" points="661.5,-89.5 661.5,-141.5 845.5,-141.5 845.5,-89.5 661.5,-89.5"/>
<text text-anchor="start" x="669.5" y="-129.5" font-family="Helvetica,sans-Serif" font-size="10.00">/home/runner/work/EX</text>
<text text-anchor="start" x="669.5" y="-118.5" font-family="Helvetica,sans-Serif" font-size="10.00">&#45;Display/EX&#45;Display/test</text>
<text text-anchor="start" x="669.5" y="-107.5" font-family="Helvetica,sans-Serif" font-size="10.00">/integration/test_Controller</text>
<text text-anchor="middle" x="753.5" y="-96.5" font-family="Helvetica,sans-Serif" font-size="10.00">/test_ControllerDisplayUpdate.cpp</text>
</a>
</g>
</g>
<!-- Node8&#45;&gt;Node10 -->
<g id="edge10" class="edge">
<title>Node8&#45;&gt;Node10</title>
<path fill="none" stroke="midnightblue" d="M949.12,-185.97C913.27,-173.23 864.24,-155.82 824.24,-141.62"/>
<polygon fill="midnightblue" stroke="midnightblue" points="948.27,-189.38 958.86,-189.43 950.61,-182.78 948.27,-189.38"/>
</g>
<!-- Node8&#45;&gt;Node11 -->
<g id="edge11" class="edge">
<title>Node8&#45;&gt;Node11</title>
<path fill="none" stroke="midnightblue" d="M1032.21,-184.21C1054.15,-171.65 1083,-155.14 1106.71,-141.56"/>
<polygon fill="midnightblue" stroke="midnightblue" points="1030.2,-181.32 1023.26,-189.33 1033.68,-187.4 1030.2,-181.32"/>
</g>
<!-- Node12 -->
<g id="node12" class="node">
<title>Node12</title>
<g id="a_node12"><a xlink:href="test__ControllerScreenCreation_8cpp.html" target="_top" xlink:title=" ">
<polygon fill="white" stroke="black" points="863.5,-89.5 863.5,-141.5 1049.5,-141.5 1049.5,-89.5 863.5,-89.5"/>
<text text-anchor="start" x="871.5" y="-129.5" font-family="Helvetica,sans-Serif" font-size="10.00">/home/runner/work/EX</text>
<text text-anchor="start" x="871.5" y="-118.5" font-family="Helvetica,sans-Serif" font-size="10.00">&#45;Display/EX&#45;Display/test</text>
<text text-anchor="start" x="871.5" y="-107.5" font-family="Helvetica,sans-Serif" font-size="10.00">/integration/test_Controller</text>
<text text-anchor="middle" x="956.5" y="-96.5" font-family="Helvetica,sans-Serif" font-size="10.00">/test_ControllerScreenCreation.cpp</text>
</a>
</g>
</g>
<!-- Node8&#45;&gt;Node12 -->
<g id="edge12" class="edge">
<title>Node8&#45;&gt;Node12</title>
<path fill="none" stroke="midnightblue" d="M987.11,-179.91C981.42,-168.12 974.52,-153.83 968.71,-141.8"/>
<polygon fill="midnightblue" stroke="midnightblue" points="984.07,-181.65 991.56,-189.13 990.37,-178.61 984.07,-181.65"/>
</g>
<!-- Node8&#45;&gt;Node13 -->
<g id="edge13" class="edge">
<title>Node8&#45;&gt;Node13</title>
<path fill="none" stroke="midnightblue" d="M1069.1,-187.15C1118.02,-175.46 1184.52,-158.88 1242.5,-142 1245.61,-141.09 1248.78,-140.15 1251.98,-139.17"/>
<polygon fill="midnightblue" stroke="midnightblue" points="1068.16,-183.77 1059.25,-189.49 1069.78,-190.58 1068.16,-183.77"/>
</g>
<!-- Node14&#45;&gt;Node5 -->
<g id="edge15" class="edge">
<title>Node14&#45;&gt;Node5</title>
<path fill="none" stroke="midnightblue" d="M472.46,-181.62C466.41,-180.27 460.37,-179.04 454.5,-178 409.47,-170.04 75.39,-175.72 44.5,-142 16.98,-111.96 57.43,-65.13 81.61,-41.76"/>
<polygon fill="midnightblue" stroke="midnightblue" points="472.08,-185.12 482.62,-183.99 473.67,-178.31 472.08,-185.12"/>
</g>
<!-- Node15 -->
<g id="node15" class="node">
<title>Node15</title>
<g id="a_node15"><a xlink:href="test__CompilerCreation_8cpp.html" target="_top" xlink:title=" ">
<polygon fill="white" stroke="black" points="54,-89.5 54,-141.5 239,-141.5 239,-89.5 54,-89.5"/>
<text text-anchor="start" x="62" y="-129.5" font-family="Helvetica,sans-Serif" font-size="10.00">/home/runner/work/EX</text>
<text text-anchor="start" x="62" y="-118.5" font-family="Helvetica,sans-Serif" font-size="10.00">&#45;Display/EX&#45;Display/test</text>
<text text-anchor="start" x="62" y="-107.5" font-family="Helvetica,sans-Serif" font-size="10.00">/integration/test_CompilerCreation</text>
<text text-anchor="middle" x="146.5" y="-96.5" font-family="Helvetica,sans-Serif" font-size="10.00">/test_CompilerCreation.cpp</text>
</a>
</g>
</g>
<!-- Node14&#45;&gt;Node15 -->
<g id="edge16" class="edge">
<title>Node14&#45;&gt;Node15</title>
<path fill="none" stroke="midnightblue" d="M469.73,-181.54C464.59,-180.29 459.48,-179.1 454.5,-178 363.75,-157.93 339.42,-161.28 248.5,-142 245.46,-141.36 242.38,-140.69 239.27,-139.99"/>
<polygon fill="midnightblue" stroke="midnightblue" points="469.09,-184.98 479.63,-183.99 470.77,-178.19 469.09,-184.98"/>
</g>
<!-- Node18 -->
<g id="node18" class="node">
<title>Node18</title>
<g id="a_node18"><a xlink:href="integration_2test__Controller_2test__main_8cpp.html" target="_top" xlink:title=" ">
<polygon fill="white" stroke="black" points="1405.5,-89.5 1405.5,-141.5 1553.5,-141.5 1553.5,-89.5 1405.5,-89.5"/>
<text text-anchor="start" x="1413.5" y="-129.5" font-family="Helvetica,sans-Serif" font-size="10.00">/home/runner/work/EX</text>
<text text-anchor="start" x="1413.5" y="-118.5" font-family="Helvetica,sans-Serif" font-size="10.00">&#45;Display/EX&#45;Display/test</text>
<text text-anchor="start" x="1413.5" y="-107.5" font-family="Helvetica,sans-Serif" font-size="10.00">/integration/test_Controller</text>
<text text-anchor="middle" x="1479.5" y="-96.5" font-family="Helvetica,sans-Serif" font-size="10.00">/test_main.cpp</text>
</a>
</g>
</g>
<!-- Node17&#45;&gt;Node18 -->
<g id="edge20" class="edge">
<title>Node17&#45;&gt;Node18</title>
<path fill="none" stroke="midnightblue" d="M1965.92,-196.16C1861.88,-187.74 1700.18,-171.19 1562.5,-142 1559.55,-141.37 1556.56,-140.69 1553.54,-139.96"/>
<polygon fill="midnightblue" stroke="midnightblue" points="1965.87,-199.66 1976.12,-196.97 1966.43,-192.69 1965.87,-199.66"/>
</g>
<!-- Node19 -->
<g id="node19" class="node">
<title>Node19</title>
<g id="a_node19"><a xlink:href="integration_2test__Display_2test__main_8cpp.html" target="_top" xlink:title=" ">
<polygon fill="white" stroke="black" points="1572,-89.5 1572,-141.5 1709,-141.5 1709,-89.5 1572,-89.5"/>
<text text-anchor="start" x="1580" y="-129.5" font-family="Helvetica,sans-Serif" font-size="10.00">/home/runner/work/EX</text>
<text text-anchor="start" x="1580" y="-118.5" font-family="Helvetica,sans-Serif" font-size="10.00">&#45;Display/EX&#45;Display/test</text>
<text text-anchor="start" x="1580" y="-107.5" font-family="Helvetica,sans-Serif" font-size="10.00">/integration/test_Display</text>
<text text-anchor="middle" x="1640.5" y="-96.5" font-family="Helvetica,sans-Serif" font-size="10.00">/test_main.cpp</text>
</a>
</g>
</g>
<!-- Node17&#45;&gt;Node19 -->
<g id="edge21" class="edge">
<title>Node17&#45;&gt;Node19</title>
<path fill="none" stroke="midnightblue" d="M1966.05,-189.19C1894.96,-178.69 1799.99,-162.66 1717.5,-142 1714.77,-141.32 1711.99,-140.58 1709.2,-139.81"/>
<polygon fill="midnightblue" stroke="midnightblue" points="1965.96,-192.72 1976.36,-190.7 1966.98,-185.79 1965.96,-192.72"/>
</g>
<!-- Node20 -->
<g id="node20" class="node">
<title>Node20</title>
<g id="a_node20"><a xlink:href="integration_2test__InteractiveLogger_2test__main_8cpp.html" target="_top" xlink:title=" ">
<polygon fill="white" stroke="black" points="1727,-89.5 1727,-141.5 1912,-141.5 1912,-89.5 1727,-89.5"/>
<text text-anchor="start" x="1735" y="-129.5" font-family="Helvetica,sans-Serif" font-size="10.00">/home/runner/work/EX</text>
<text text-anchor="start" x="1735" y="-118.5" font-family="Helvetica,sans-Serif" font-size="10.00">&#45;Display/EX&#45;Display/test</text>
<text text-anchor="start" x="1735" y="-107.5" font-family="Helvetica,sans-Serif" font-size="10.00">/integration/test_InteractiveLogger</text>
<text text-anchor="middle" x="1819.5" y="-96.5" font-family="Helvetica,sans-Serif" font-size="10.00">/test_main.cpp</text>
</a>
</g>
</g>
<!-- Node17&#45;&gt;Node20 -->
<g id="edge22" class="edge">
<title>Node17&#45;&gt;Node20</title>
<path fill="none" stroke="midnightblue" d="M2006.83,-180.67C1971.77,-168.66 1928.72,-153.91 1892.74,-141.58"/>
<polygon fill="midnightblue" stroke="midnightblue" points="2005.9,-184.05 2016.5,-183.98 2008.17,-177.42 2005.9,-184.05"/>
</g>
<!-- Node21 -->
<g id="node21" class="node">
<title>Node21</title>
<g id="a_node21"><a xlink:href="unit_2test__Configurator_2test__main_8cpp.html" target="_top" xlink:title=" ">
<polygon fill="white" stroke="black" points="1930.5,-89.5 1930.5,-141.5 2064.5,-141.5 2064.5,-89.5 1930.5,-89.5"/>
<text text-anchor="start" x="1938.5" y="-129.5" font-family="Helvetica,sans-Serif" font-size="10.00">/home/runner/work/EX</text>
<text text-anchor="start" x="1938.5" y="-118.5" font-family="Helvetica,sans-Serif" font-size="10.00">&#45;Display/EX&#45;Display/test</text>
<text text-anchor="start" x="1938.5" y="-107.5" font-family="Helvetica,sans-Serif" font-size="10.00">/unit/test_Configurator</text>
<text text-anchor="middle" x="1997.5" y="-96.5" font-family="Helvetica,sans-Serif" font-size="10.00">/test_main.cpp</text>
</a>
</g>
</g>
<!-- Node17&#45;&gt;Node21 -->
<g id="edge23" class="edge">
<title>Node17&#45;&gt;Node21</title>
<path fill="none" stroke="midnightblue" d="M2049.56,-176.09C2039.97,-165.12 2028.99,-152.55 2019.59,-141.79"/>
<polygon fill="midnightblue" stroke="midnightblue" points="2047.04,-178.53 2056.25,-183.76 2052.31,-173.92 2047.04,-178.53"/>
</g>
<!-- Node22 -->
<g id="node22" class="node">
<title>Node22</title>
<g id="a_node22"><a xlink:href="unit_2test__Controller_2test__main_8cpp.html" target="_top" xlink:title=" ">
<polygon fill="white" stroke="black" points="2083,-89.5 2083,-141.5 2218,-141.5 2218,-89.5 2083,-89.5"/>
<text text-anchor="start" x="2091" y="-129.5" font-family="Helvetica,sans-Serif" font-size="10.00">/home/runner/work/EX</text>
<text text-anchor="start" x="2091" y="-118.5" font-family="Helvetica,sans-Serif" font-size="10.00">&#45;Display/EX&#45;Display/test</text>
<text text-anchor="start" x="2091" y="-107.5" font-family="Helvetica,sans-Serif" font-size="10.00">/unit/test_Controller/test</text>
<text text-anchor="middle" x="2150.5" y="-96.5" font-family="Helvetica,sans-Serif" font-size="10.00">_main.cpp</text>
</a>
</g>
</g>
<!-- Node17&#45;&gt;Node22 -->
<g id="edge24" class="edge">
<title>Node17&#45;&gt;Node22</title>
<path fill="none" stroke="midnightblue" d="M2097.76,-176.09C2107.47,-165.12 2118.6,-152.55 2128.12,-141.79"/>
<polygon fill="midnightblue" stroke="midnightblue" points="2094.98,-173.95 2090.97,-183.76 2100.22,-178.59 2094.98,-173.95"/>
</g>
<!-- Node23 -->
<g id="node23" class="node">
<title>Node23</title>
<g id="a_node23"><a xlink:href="unit_2test__Display_2test__main_8cpp.html" target="_top" xlink:title=" ">
<polygon fill="white" stroke="black" points="2236.5,-89.5 2236.5,-141.5 2370.5,-141.5 2370.5,-89.5 2236.5,-89.5"/>
<text text-anchor="start" x="2244.5" y="-129.5" font-family="Helvetica,sans-Serif" font-size="10.00">/home/runner/work/EX</text>
<text text-anchor="start" x="2244.5" y="-118.5" font-family="Helvetica,sans-Serif" font-size="10.00">&#45;Display/EX&#45;Display/test</text>
<text text-anchor="start" x="2244.5" y="-107.5" font-family="Helvetica,sans-Serif" font-size="10.00">/unit/test_Display/test</text>
<text text-anchor="middle" x="2303.5" y="-96.5" font-family="Helvetica,sans-Serif" font-size="10.00">_main.cpp</text>
</a>
</g>
</g>
<!-- Node17&#45;&gt;Node23 -->
<g id="edge25" class="edge">
<title>Node17&#45;&gt;Node23</title>
<path fill="none" stroke="midnightblue" d="M2134.68,-180.36C2166.28,-168.4 2204.88,-153.81 2237.18,-141.58"/>
<polygon fill="midnightblue" stroke="midnightblue" points="2133.23,-177.16 2125.12,-183.98 2135.71,-183.71 2133.23,-177.16"/>
</g>
<!-- Node24 -->
<g id="node24" class="node">
<title>Node24</title>
<g id="a_node24"><a xlink:href="unit_2test__DisplayManager_2test__main_8cpp.html" target="_top" xlink:title=" ">
<polygon fill="white" stroke="black" points="2389,-89.5 2389,-141.5 2534,-141.5 2534,-89.5 2389,-89.5"/>
<text text-anchor="start" x="2397" y="-129.5" font-family="Helvetica,sans-Serif" font-size="10.00">/home/runner/work/EX</text>
<text text-anchor="start" x="2397" y="-118.5" font-family="Helvetica,sans-Serif" font-size="10.00">&#45;Display/EX&#45;Display/test</text>
<text text-anchor="start" x="2397" y="-107.5" font-family="Helvetica,sans-Serif" font-size="10.00">/unit/test_DisplayManager</text>
<text text-anchor="middle" x="2461.5" y="-96.5" font-family="Helvetica,sans-Serif" font-size="10.00">/test_main.cpp</text>
</a>
</g>
</g>
<!-- Node17&#45;&gt;Node24 -->
<g id="edge26" class="edge">
<title>Node17&#45;&gt;Node24</title>
<path fill="none" stroke="midnightblue" d="M2162.23,-181.75C2168.07,-180.45 2173.86,-179.18 2179.5,-178 2267.89,-159.43 2291.77,-163.45 2379.5,-142 2382.54,-141.26 2385.64,-140.46 2388.75,-139.63"/>
<polygon fill="midnightblue" stroke="midnightblue" points="2161.37,-178.36 2152.4,-183.99 2162.92,-185.19 2161.37,-178.36"/>
</g>
<!-- Node25 -->
<g id="node25" class="node">
<title>Node25</title>
<g id="a_node25"><a xlink:href="unit_2test__Infrastructure_2test__main_8cpp.html" target="_top" xlink:title=" ">
<polygon fill="white" stroke="black" points="2552.5,-89.5 2552.5,-141.5 2686.5,-141.5 2686.5,-89.5 2552.5,-89.5"/>
<text text-anchor="start" x="2560.5" y="-129.5" font-family="Helvetica,sans-Serif" font-size="10.00">/home/runner/work/EX</text>
<text text-anchor="start" x="2560.5" y="-118.5" font-family="Helvetica,sans-Serif" font-size="10.00">&#45;Display/EX&#45;Display/test</text>
<text text-anchor="start" x="2560.5" y="-107.5" font-family="Helvetica,sans-Serif" font-size="10.00">/unit/test_Infrastructure</text>
<text text-anchor="middle" x="2619.5" y="-96.5" font-family="Helvetica,sans-Serif" font-size="10.00">/test_main.cpp</text>
</a>
</g>
</g>
<!-- Node17&#45;&gt;Node25 -->
<g id="edge27" class="edge">
<title>Node17&#45;&gt;Node25</title>
<path fill="none" stroke="midnightblue" d="M2159.14,-181.84C2166.01,-180.43 2172.85,-179.12 2179.5,-178 2339.8,-150.92 2384.54,-176.07 2543.5,-142 2546.36,-141.39 2549.26,-140.7 2552.17,-139.96"/>
<polygon fill="midnightblue" stroke="midnightblue" points="2158.14,-178.47 2149.09,-183.98 2159.6,-185.32 2158.14,-178.47"/>
</g>
<!-- Node26 -->
<g id="node26" class="node">
<title>Node26</title>
<g id="a_node26"><a xlink:href="unit_2test__Input_2test__main_8cpp.html" target="_top" xlink:title=" ">
<polygon fill="white" stroke="black" points="2704.5,-95 2704.5,-136 2866.5,-136 2866.5,-95 2704.5,-95"/>
<text text-anchor="start" x="2712.5" y="-124" font-family="Helvetica,sans-Serif" font-size="10.00">/home/runner/work/EX</text>
<text text-anchor="start" x="2712.5" y="-113" font-family="Helvetica,sans-Serif" font-size="10.00">&#45;Display/EX&#45;Display/test</text>
<text text-anchor="middle" x="2785.5" y="-102" font-family="Helvetica,sans-Serif" font-size="10.00">/unit/test_Input/test_main.cpp</text>
</a>
</g>
</g>
<!-- Node17&#45;&gt;Node26 -->
<g id="edge28" class="edge">
<title>Node17&#45;&gt;Node26</title>
<path fill="none" stroke="midnightblue" d="M2157.83,-181.88C2165.13,-180.41 2172.43,-179.09 2179.5,-178 2406.71,-142.99 2469.04,-181.54 2695.5,-142 2704.46,-140.44 2713.8,-138.34 2722.94,-136.01"/>
<polygon fill="midnightblue" stroke="midnightblue" points="2156.97,-178.48 2147.9,-183.96 2158.4,-185.34 2156.97,-178.48"/>
</g>
<!-- Node27 -->
<g id="node27" class="node">
<title>Node27</title>
<g id="a_node27"><a xlink:href="unit_2test__InputManager_2test__main_8cpp.html" target="_top" xlink:title=" ">
<polygon fill="white" stroke="black" points="2884.5,-89.5 2884.5,-141.5 3018.5,-141.5 3018.5,-89.5 2884.5,-89.5"/>
<text text-anchor="start" x="2892.5" y="-129.5" font-family="Helvetica,sans-Serif" font-size="10.00">/home/runner/work/EX</text>
<text text-anchor="start" x="2892.5" y="-118.5" font-family="Helvetica,sans-Serif" font-size="10.00">&#45;Display/EX&#45;Display/test</text>
<text text-anchor="start" x="2892.5" y="-107.5" font-family="Helvetica,sans-Serif" font-size="10.00">/unit/test_InputManager</text>
<text text-anchor="middle" x="2951.5" y="-96.5" font-family="Helvetica,sans-Serif" font-size="10.00">/test_main.cpp</text>
</a>
</g>
</g>
<!-- Node17&#45;&gt;Node27 -->
<g id="edge29" class="edge">
<title>Node17&#45;&gt;Node27</title>
<path fill="none" stroke="midnightblue" d="M2156.96,-181.91C2164.54,-180.41 2172.14,-179.07 2179.5,-178 2486.05,-133.59 2571.19,-199.8 2875.5,-142 2878.37,-141.45 2881.28,-140.83 2884.21,-140.13"/>
<polygon fill="midnightblue" stroke="midnightblue" points="2156.09,-178.51 2147.01,-183.97 2157.51,-185.37 2156.09,-178.51"/>
</g>
<!-- Node28 -->
<g id="node28" class="node">
<title>Node28</title>
<g id="a_node28"><a xlink:href="unit_2test__Screen_2test__main_8cpp.html" target="_top" xlink:title=" ">
<polygon fill="white" stroke="black" points="3036.5,-95 3036.5,-136 3206.5,-136 3206.5,-95 3036.5,-95"/>
<text text-anchor="start" x="3044.5" y="-124" font-family="Helvetica,sans-Serif" font-size="10.00">/home/runner/work/EX</text>
<text text-anchor="start" x="3044.5" y="-113" font-family="Helvetica,sans-Serif" font-size="10.00">&#45;Display/EX&#45;Display/test</text>
<text text-anchor="middle" x="3121.5" y="-102" font-family="Helvetica,sans-Serif" font-size="10.00">/unit/test_Screen/test_main.cpp</text>
</a>
</g>
</g>
<!-- Node17&#45;&gt;Node28 -->
<g id="edge30" class="edge">
<title>Node17&#45;&gt;Node28</title>
<path fill="none" stroke="midnightblue" d="M2156.74,-181.88C2164.4,-180.37 2172.07,-179.04 2179.5,-178 2553.08,-125.64 2654.72,-199.74 3027.5,-142 3037.11,-140.51 3047.14,-138.41 3056.93,-136.03"/>
<polygon fill="midnightblue" stroke="midnightblue" points="2155.79,-178.5 2146.71,-183.94 2157.21,-185.35 2155.79,-178.5"/>
</g>
<!-- Node29 -->
<g id="node29" class="node">
<title>Node29</title>
<g id="a_node29"><a xlink:href="unit_2test__ScreenManager_2test__main_8cpp.html" target="_top" xlink:title=" ">
<polygon fill="white" stroke="black" points="3225,-89.5 3225,-141.5 3366,-141.5 3366,-89.5 3225,-89.5"/>
<text text-anchor="start" x="3233" y="-129.5" font-family="Helvetica,sans-Serif" font-size="10.00">/home/runner/work/EX</text>
<text text-anchor="start" x="3233" y="-118.5" font-family="Helvetica,sans-Serif" font-size="10.00">&#45;Display/EX&#45;Display/test</text>
<text text-anchor="start" x="3233" y="-107.5" font-family="Helvetica,sans-Serif" font-size="10.00">/unit/test_ScreenManager</text>
<text text-anchor="middle" x="3295.5" y="-96.5" font-family="Helvetica,sans-Serif" font-size="10.00">/test_main.cpp</text>
</a>
</g>
</g>
<!-- Node17&#45;&gt;Node29 -->
<g id="edge31" class="edge">
<title>Node17&#45;&gt;Node29</title>
<path fill="none" stroke="midnightblue" d="M2156.07,-181.94C2163.95,-180.4 2171.85,-179.04 2179.5,-178 2636.01,-115.81 2761.55,-220.7 3215.5,-142 3218.52,-141.48 3221.58,-140.87 3224.65,-140.19"/>
<polygon fill="midnightblue" stroke="midnightblue" points="2155.21,-178.55 2146.12,-183.99 2156.62,-185.4 2155.21,-178.55"/>
</g>
<!-- Node32 -->
<g id="node32" class="node">
<title>Node32</title>
<g id="a_node32"><a xlink:href="test__DebounceHoldInput_8cpp.html" target="_top" xlink:title=" ">
<polygon fill="white" stroke="black" points="2412.5,-178.5 2412.5,-230.5 2600.5,-230.5 2600.5,-178.5 2412.5,-178.5"/>
<text text-anchor="start" x="2420.5" y="-218.5" font-family="Helvetica,sans-Serif" font-size="10.00">/home/runner/work/EX</text>
<text text-anchor="start" x="2420.5" y="-207.5" font-family="Helvetica,sans-Serif" font-size="10.00">&#45;Display/EX&#45;Display/test</text>
<text text-anchor="start" x="2420.5" y="-196.5" font-family="Helvetica,sans-Serif" font-size="10.00">/unit/test_Input/test_DebounceHold</text>
<text text-anchor="middle" x="2506.5" y="-185.5" font-family="Helvetica,sans-Serif" font-size="10.00">Input.cpp</text>
</a>
</g>
</g>
<!-- Node31&#45;&gt;Node32 -->
<g id="edge35" class="edge">
<title>Node31&#45;&gt;Node32</title>
<path fill="none" stroke="midnightblue" d="M2025.32,-279.94C2118.24,-271.4 2272.33,-255.09 2403.5,-231 2406.4,-230.47 2409.34,-229.9 2412.3,-229.31"/>
<polygon fill="midnightblue" stroke="midnightblue" points="2024.77,-276.48 2015.13,-280.87 2025.41,-283.45 2024.77,-276.48"/>
</g>
<!-- Node33&#45;&gt;Node11 -->
<g id="edge37" class="edge">
<title>Node33&#45;&gt;Node11</title>
<path fill="none" stroke="midnightblue" d="M1243.28,-261.62C1230.63,-253.05 1217.6,-242.65 1207.5,-231 1184.38,-204.31 1167.99,-166.61 1158.89,-141.87"/>
<polygon fill="midnightblue" stroke="midnightblue" points="1241.65,-264.73 1251.94,-267.26 1245.47,-258.87 1241.65,-264.73"/>
</g>
<!-- Node33&#45;&gt;Node13 -->
<g id="edge38" class="edge">
<title>Node33&#45;&gt;Node13</title>
<path fill="none" stroke="midnightblue" d="M1333.92,-261.09C1344.21,-252.89 1353.77,-242.82 1359.5,-231 1369.78,-209.8 1366.2,-200.58 1359.5,-178 1355.66,-165.06 1348.14,-152.29 1340.65,-141.77"/>
<polygon fill="midnightblue" stroke="midnightblue" points="1331.54,-258.51 1325.58,-267.27 1335.7,-264.13 1331.54,-258.51"/>
</g>
<!-- Node33&#45;&gt;Node30 -->
<g id="edge40" class="edge">
<title>Node33&#45;&gt;Node30</title>
<path fill="none" stroke="midnightblue" d="M1286.67,-257.12C1286.13,-248.41 1285.55,-238.99 1285.04,-230.61"/>
<polygon fill="midnightblue" stroke="midnightblue" points="1283.18,-257.5 1287.29,-267.27 1290.17,-257.08 1283.18,-257.5"/>
</g>
<!-- Node34 -->
<g id="node34" class="node">
<title>Node34</title>
<g id="a_node34"><a xlink:href="test__InputInterface_8cpp.html" target="_top" xlink:title=" ">
<polygon fill="white" stroke="black" points="2188.5,-184 2188.5,-225 2394.5,-225 2394.5,-184 2188.5,-184"/>
<text text-anchor="start" x="2196.5" y="-213" font-family="Helvetica,sans-Serif" font-size="10.00">/home/runner/work/EX</text>
<text text-anchor="start" x="2196.5" y="-202" font-family="Helvetica,sans-Serif" font-size="10.00">&#45;Display/EX&#45;Display/test</text>
<text text-anchor="middle" x="2291.5" y="-191" font-family="Helvetica,sans-Serif" font-size="10.00">/unit/test_Input/test_InputInterface.cpp</text>
</a>
</g>
</g>
<!-- Node33&#45;&gt;Node34 -->
<g id="edge39" class="edge">
<title>Node33&#45;&gt;Node34</title>
<path fill="none" stroke="midnightblue" d="M1366.03,-286.32C1521.25,-284.03 1880.9,-274.09 2179.5,-231 2190.45,-229.42 2201.92,-227.33 2213.17,-225.02"/>
<polygon fill="midnightblue" stroke="midnightblue" points="1365.61,-282.82 1355.66,-286.46 1365.71,-289.82 1365.61,-282.82"/>
</g>
<!-- Node36 -->
<g id="node36" class="node">
<title>Node36</title>
<g id="a_node36"><a xlink:href="test__TouchScreenInput_8cpp.html" target="_top" xlink:title=" ">
<polygon fill="white" stroke="black" points="2618.5,-178.5 2618.5,-230.5 2796.5,-230.5 2796.5,-178.5 2618.5,-178.5"/>
<text text-anchor="start" x="2626.5" y="-218.5" font-family="Helvetica,sans-Serif" font-size="10.00">/home/runner/work/EX</text>
<text text-anchor="start" x="2626.5" y="-207.5" font-family="Helvetica,sans-Serif" font-size="10.00">&#45;Display/EX&#45;Display/test</text>
<text text-anchor="start" x="2626.5" y="-196.5" font-family="Helvetica,sans-Serif" font-size="10.00">/unit/test_Input/test_TouchScreen</text>
<text text-anchor="middle" x="2707.5" y="-185.5" font-family="Helvetica,sans-Serif" font-size="10.00">Input.cpp</text>
</a>
</g>
</g>
<!-- Node35&#45;&gt;Node36 -->
<g id="edge42" class="edge">
<title>Node35&#45;&gt;Node36</title>
<path fill="none" stroke="midnightblue" d="M2470.38,-265.1C2512.77,-254.9 2563.74,-242.5 2609.5,-231 2612.4,-230.27 2615.34,-229.53 2618.32,-228.77"/>
<polygon fill="midnightblue" stroke="midnightblue" points="2469.54,-261.7 2460.63,-267.44 2471.18,-268.51 2469.54,-261.7"/>
</g>
<!-- Node37&#45;&gt;Node14 -->
<g id="edge44" class="edge">
<title>Node37&#45;&gt;Node14</title>
<path fill="none" stroke="midnightblue" d="M696.06,-263.77C665.24,-251.51 627.85,-236.65 598.56,-225"/>
<polygon fill="midnightblue" stroke="midnightblue" points="694.81,-267.04 705.4,-267.48 697.4,-260.53 694.81,-267.04"/>
</g>
<!-- Node37&#45;&gt;Node16 -->
<g id="edge45" class="edge">
<title>Node37&#45;&gt;Node16</title>
<path fill="none" stroke="midnightblue" d="M754.5,-257.03C754.5,-244.26 754.5,-229.97 754.5,-219.68"/>
<polygon fill="midnightblue" stroke="midnightblue" points="751,-257.27 754.5,-267.27 758,-257.27 751,-257.27"/>
</g>
<!-- Node38 -->
<g id="node38" class="node">
<title>Node38</title>
<g id="a_node38"><a xlink:href="TFT__eSPITouch_8cpp.html" target="_top" xlink:title=" ">
<polygon fill="white" stroke="black" points="313,-184 313,-225 446,-225 446,-184 313,-184"/>
<text text-anchor="start" x="321" y="-213" font-family="Helvetica,sans-Serif" font-size="10.00">/home/runner/work/EX</text>
<text text-anchor="start" x="321" y="-202" font-family="Helvetica,sans-Serif" font-size="10.00">&#45;Display/EX&#45;Display/TFT</text>
<text text-anchor="middle" x="379.5" y="-191" font-family="Helvetica,sans-Serif" font-size="10.00">_eSPITouch.cpp</text>
</a>
</g>
</g>
<!-- Node37&#45;&gt;Node38 -->
<g id="edge46" class="edge">
<title>Node37&#45;&gt;Node38</title>
<path fill="none" stroke="midnightblue" d="M678,-267.02C578.51,-246.72 549.93,-254.3 455.5,-231 448.61,-229.3 441.45,-227.26 434.4,-225.1"/>
<polygon fill="midnightblue" stroke="midnightblue" points="677.36,-270.46 687.86,-269.07 678.78,-263.6 677.36,-270.46"/>
</g>
</g>
</svg>
