<?xml version="1.0" encoding="UTF-8" standalone="no"?>
<!DOCTYPE svg PUBLIC "-//W3C//DTD SVG 1.1//EN"
 "http://www.w3.org/Graphics/SVG/1.1/DTD/svg11.dtd">
<!-- Generated by graphviz version 2.43.0 (0)
 -->
<!-- Title: /home/runner/work/EX&#45;Display/EX&#45;Display/InputManager.h Pages: 1 -->
<svg width="462pt" height="368pt"
 viewBox="0.00 0.00 461.99 368.00" xmlns="http://www.w3.org/2000/svg" xmlns:xlink="http://www.w3.org/1999/xlink">
<g id="graph0" class="graph" transform="scale(1 1) rotate(0) translate(4 364)">
<title>/home/runner/work/EX&#45;Display/EX&#45;Display/InputManager.h</title>
<!-- Node1 -->
<g id="Node000001" class="node">
<title>Node1</title>
<g id="a_Node000001"><a xlink:title=" ">
<polygon fill="#999999" stroke="#666666" points="311,-360 120,-360 120,-330 311,-330 311,-360"/>
<text text-anchor="start" x="128" y="-348" font-family="Helvetica,sans-Serif" font-size="10.00">/home/runner/work/EX</text>
<text text-anchor="middle" x="215.5" y="-337" font-family="Helvetica,sans-Serif" font-size="10.00">&#45;Display/EX&#45;Display/InputManager.h</text>
</a>
</g>
</g>
<!-- Node2 -->
<g id="Node000002" class="node">
<title>Node2</title>
<g id="a_Node000002"><a xlink:href="CallbackInterface_8h.html" target="_top" xlink:title=" ">
<polygon fill="white" stroke="#666666" points="111,-239 0,-239 0,-220 111,-220 111,-239"/>
<text text-anchor="middle" x="55.5" y="-227" font-family="Helvetica,sans-Serif" font-size="10.00">CallbackInterface.h</text>
</a>
</g>
</g>
<!-- Node1&#45;&gt;Node2 -->
<g id="edge1_Node000001_Node000002" class="edge">
<title>Node1&#45;&gt;Node2</title>
<g id="a_edge1_Node000001_Node000002"><a xlink:title=" ">
<path fill="none" stroke="#63b8ff" d="M149.98,-329.93C127.08,-322.38 102.61,-310.99 84.5,-294 71.67,-281.96 64.06,-263.15 59.88,-249.13"/>
<polygon fill="#63b8ff" stroke="#63b8ff" points="63.18,-247.89 57.23,-239.12 56.41,-249.69 63.18,-247.89"/>
</a>
</g>
</g>
<!-- Node4 -->
<g id="Node000004" class="node">
<title>Node4</title>
<g id="a_Node000004"><a xlink:href="Logger_8h.html" target="_top" xlink:title=" ">
<polygon fill="white" stroke="#666666" points="325.5,-74 267.5,-74 267.5,-55 325.5,-55 325.5,-74"/>
<text text-anchor="middle" x="296.5" y="-62" font-family="Helvetica,sans-Serif" font-size="10.00">Logger.h</text>
</a>
</g>
</g>
<!-- Node1&#45;&gt;Node4 -->
<g id="edge20_Node000001_Node000004" class="edge">
<title>Node1&#45;&gt;Node4</title>
<g id="a_edge20_Node000001_Node000004"><a xlink:title=" ">
<path fill="none" stroke="#63b8ff" d="M250.06,-329.93C284.68,-313.74 335.96,-283.51 358.5,-239 372.89,-210.58 327.35,-121.34 306.43,-83.14"/>
<polygon fill="#63b8ff" stroke="#63b8ff" points="309.38,-81.24 301.47,-74.2 303.26,-84.64 309.38,-81.24"/>
</a>
</g>
</g>
<!-- Node11 -->
<g id="Node000011" class="node">
<title>Node11</title>
<g id="a_Node000011"><a xlink:href="Defines_8h.html" target="_top" xlink:title=" ">
<polygon fill="white" stroke="#666666" points="268.5,-129 206.5,-129 206.5,-110 268.5,-110 268.5,-129"/>
<text text-anchor="middle" x="237.5" y="-117" font-family="Helvetica,sans-Serif" font-size="10.00">Defines.h</text>
</a>
</g>
</g>
<!-- Node1&#45;&gt;Node11 -->
<g id="edge6_Node000001_Node000011" class="edge">
<title>Node1&#45;&gt;Node11</title>
<g id="a_edge6_Node000001_Node000011"><a xlink:title=" ">
<path fill="none" stroke="#63b8ff" d="M216.91,-329.68C220.74,-290.76 231.34,-183.07 235.65,-139.33"/>
<polygon fill="#63b8ff" stroke="#63b8ff" points="239.14,-139.53 236.64,-129.23 232.18,-138.84 239.14,-139.53"/>
</a>
</g>
</g>
<!-- Node12 -->
<g id="Node000012" class="node">
<title>Node12</title>
<g id="a_Node000012"><a xlink:href="DisplayInterface_8h.html" target="_top" xlink:title=" ">
<polygon fill="white" stroke="#666666" points="349.5,-239 243.5,-239 243.5,-220 349.5,-220 349.5,-239"/>
<text text-anchor="middle" x="296.5" y="-227" font-family="Helvetica,sans-Serif" font-size="10.00">DisplayInterface.h</text>
</a>
</g>
</g>
<!-- Node1&#45;&gt;Node12 -->
<g id="edge8_Node000001_Node000012" class="edge">
<title>Node1&#45;&gt;Node12</title>
<g id="a_edge8_Node000001_Node000012"><a xlink:title=" ">
<path fill="none" stroke="#63b8ff" d="M225.76,-329.63C240.72,-308.65 268.49,-269.75 284.42,-247.42"/>
<polygon fill="#63b8ff" stroke="#63b8ff" points="287.31,-249.4 290.27,-239.23 281.61,-245.34 287.31,-249.4"/>
</a>
</g>
</g>
<!-- Node15 -->
<g id="Node000015" class="node">
<title>Node15</title>
<g id="a_Node000015"><a xlink:href="InputInterface_8h.html" target="_top" xlink:title=" ">
<polygon fill="white" stroke="#666666" points="187.5,-294 93.5,-294 93.5,-275 187.5,-275 187.5,-294"/>
<text text-anchor="middle" x="140.5" y="-282" font-family="Helvetica,sans-Serif" font-size="10.00">InputInterface.h</text>
</a>
</g>
</g>
<!-- Node1&#45;&gt;Node15 -->
<g id="edge15_Node000001_Node000015" class="edge">
<title>Node1&#45;&gt;Node15</title>
<g id="a_edge15_Node000001_Node000015"><a xlink:title=" ">
<path fill="none" stroke="#63b8ff" d="M197.34,-329.84C186.01,-321 171.44,-309.63 159.88,-300.62"/>
<polygon fill="#63b8ff" stroke="#63b8ff" points="161.78,-297.66 151.74,-294.27 157.47,-303.18 161.78,-297.66"/>
</a>
</g>
</g>
<!-- Node3 -->
<g id="Node000003" class="node">
<title>Node3</title>
<g id="a_Node000003"><a xlink:href="InputActions_8h.html" target="_top" xlink:title=" ">
<polygon fill="white" stroke="#666666" points="149.5,-184 63.5,-184 63.5,-165 149.5,-165 149.5,-184"/>
<text text-anchor="middle" x="106.5" y="-172" font-family="Helvetica,sans-Serif" font-size="10.00">InputActions.h</text>
</a>
</g>
</g>
<!-- Node2&#45;&gt;Node3 -->
<g id="edge2_Node000002_Node000003" class="edge">
<title>Node2&#45;&gt;Node3</title>
<g id="a_edge2_Node000002_Node000003"><a xlink:title=" ">
<path fill="none" stroke="#63b8ff" d="M63.92,-219.75C71.27,-212.11 82.13,-200.82 91.04,-191.56"/>
<polygon fill="#63b8ff" stroke="#63b8ff" points="93.82,-193.72 98.24,-184.09 88.78,-188.87 93.82,-193.72"/>
</a>
</g>
</g>
<!-- Node2&#45;&gt;Node4 -->
<g id="edge3_Node000002_Node000004" class="edge">
<title>Node2&#45;&gt;Node4</title>
<g id="a_edge3_Node000002_Node000004"><a xlink:title=" ">
<path fill="none" stroke="#63b8ff" d="M52.66,-219.93C48.92,-206.97 43.98,-182.09 54.5,-165 97.54,-95.08 200.44,-74.29 257.22,-68.11"/>
<polygon fill="#63b8ff" stroke="#63b8ff" points="257.65,-71.59 267.26,-67.12 256.96,-64.62 257.65,-71.59"/>
</a>
</g>
</g>
<!-- Node5 -->
<g id="Node000005" class="node">
<title>Node5</title>
<g id="a_Node000005"><a xlink:href="Arduino_8h.html" target="_top" xlink:title=" ">
<polygon fill="#fff0f0" stroke="red" points="381,-19 318,-19 318,0 381,0 381,-19"/>
<text text-anchor="middle" x="349.5" y="-7" font-family="Helvetica,sans-Serif" font-size="10.00">Arduino.h</text>
</a>
</g>
</g>
<!-- Node2&#45;&gt;Node5 -->
<g id="edge5_Node000002_Node000005" class="edge">
<title>Node2&#45;&gt;Node5</title>
<g id="a_edge5_Node000002_Node000005"><a xlink:title=" ">
<path fill="none" stroke="#63b8ff" d="M51.63,-219.69C46.73,-207.26 39.59,-183.96 45.5,-165 54.35,-136.64 60.07,-128.27 83.5,-110 151.96,-56.64 252.05,-29.62 307.9,-17.94"/>
<polygon fill="#63b8ff" stroke="#63b8ff" points="308.69,-21.35 317.79,-15.94 307.3,-14.49 308.69,-21.35"/>
</a>
</g>
</g>
<!-- Node4&#45;&gt;Node5 -->
<g id="edge4_Node000004_Node000005" class="edge">
<title>Node4&#45;&gt;Node5</title>
<g id="a_edge4_Node000004_Node000005"><a xlink:title=" ">
<path fill="none" stroke="#63b8ff" d="M305.25,-54.75C312.97,-47.03 324.4,-35.6 333.72,-26.28"/>
<polygon fill="#63b8ff" stroke="#63b8ff" points="336.31,-28.64 340.91,-19.09 331.36,-23.69 336.31,-28.64"/>
</a>
</g>
</g>
<!-- Node11&#45;&gt;Node4 -->
<g id="edge7_Node000011_Node000004" class="edge">
<title>Node11&#45;&gt;Node4</title>
<g id="a_edge7_Node000011_Node000004"><a xlink:title=" ">
<path fill="none" stroke="#63b8ff" d="M246.98,-109.98C255.7,-102.15 268.84,-90.34 279.4,-80.86"/>
<polygon fill="#63b8ff" stroke="#63b8ff" points="281.75,-83.46 286.85,-74.17 277.07,-78.25 281.75,-83.46"/>
</a>
</g>
</g>
<!-- Node12&#45;&gt;Node4 -->
<g id="edge9_Node000012_Node000004" class="edge">
<title>Node12&#45;&gt;Node4</title>
<g id="a_edge9_Node000012_Node000004"><a xlink:title=" ">
<path fill="none" stroke="#63b8ff" d="M296.5,-219.74C296.5,-194.31 296.5,-120.08 296.5,-84.69"/>
<polygon fill="#63b8ff" stroke="#63b8ff" points="300,-84.31 296.5,-74.31 293,-84.31 300,-84.31"/>
</a>
</g>
</g>
<!-- Node13 -->
<g id="Node000013" class="node">
<title>Node13</title>
<g id="a_Node000013"><a xlink:href="Screen_8h.html" target="_top" xlink:title=" ">
<polygon fill="white" stroke="#666666" points="432,-184 373,-184 373,-165 432,-165 432,-184"/>
<text text-anchor="middle" x="402.5" y="-172" font-family="Helvetica,sans-Serif" font-size="10.00">Screen.h</text>
</a>
</g>
</g>
<!-- Node12&#45;&gt;Node13 -->
<g id="edge10_Node000012_Node000013" class="edge">
<title>Node12&#45;&gt;Node13</title>
<g id="a_edge10_Node000012_Node000013"><a xlink:title=" ">
<path fill="none" stroke="#63b8ff" d="M313.53,-219.98C330.43,-211.54 356.56,-198.47 376.14,-188.68"/>
<polygon fill="#63b8ff" stroke="#63b8ff" points="377.78,-191.77 385.16,-184.17 374.65,-185.51 377.78,-191.77"/>
</a>
</g>
</g>
<!-- Node13&#45;&gt;Node5 -->
<g id="edge14_Node000013_Node000005" class="edge">
<title>Node13&#45;&gt;Node5</title>
<g id="a_edge14_Node000013_Node000005"><a xlink:title=" ">
<path fill="none" stroke="#63b8ff" d="M417.56,-164.8C435.19,-153.39 460.86,-132.2 451.5,-110 435.58,-72.24 397.55,-41.68 372.7,-24.82"/>
<polygon fill="#63b8ff" stroke="#63b8ff" points="374.48,-21.8 364.2,-19.24 370.64,-27.65 374.48,-21.8"/>
</a>
</g>
</g>
<!-- Node14 -->
<g id="Node000014" class="node">
<title>Node14</title>
<g id="a_Node000014"><a xlink:href="ScreenRow_8h.html" target="_top" xlink:title=" ">
<polygon fill="white" stroke="#666666" points="442,-129 363,-129 363,-110 442,-110 442,-129"/>
<text text-anchor="middle" x="402.5" y="-117" font-family="Helvetica,sans-Serif" font-size="10.00">ScreenRow.h</text>
</a>
</g>
</g>
<!-- Node13&#45;&gt;Node14 -->
<g id="edge11_Node000013_Node000014" class="edge">
<title>Node13&#45;&gt;Node14</title>
<g id="a_edge11_Node000013_Node000014"><a xlink:title=" ">
<path fill="none" stroke="#63b8ff" d="M402.5,-164.75C402.5,-157.8 402.5,-147.85 402.5,-139.13"/>
<polygon fill="#63b8ff" stroke="#63b8ff" points="406,-139.09 402.5,-129.09 399,-139.09 406,-139.09"/>
</a>
</g>
</g>
<!-- Node14&#45;&gt;Node4 -->
<g id="edge12_Node000014_Node000004" class="edge">
<title>Node14&#45;&gt;Node4</title>
<g id="a_edge12_Node000014_Node000004"><a xlink:title=" ">
<path fill="none" stroke="#63b8ff" d="M385.47,-109.98C368.57,-101.54 342.44,-88.47 322.86,-78.68"/>
<polygon fill="#63b8ff" stroke="#63b8ff" points="324.35,-75.51 313.84,-74.17 321.22,-81.77 324.35,-75.51"/>
</a>
</g>
</g>
<!-- Node14&#45;&gt;Node5 -->
<g id="edge13_Node000014_Node000005" class="edge">
<title>Node14&#45;&gt;Node5</title>
<g id="a_edge13_Node000014_Node000005"><a xlink:title=" ">
<path fill="none" stroke="#63b8ff" d="M398.16,-109.66C389.46,-91.93 369.73,-51.73 358.24,-28.32"/>
<polygon fill="#63b8ff" stroke="#63b8ff" points="361.3,-26.59 353.75,-19.16 355.01,-29.68 361.3,-26.59"/>
</a>
</g>
</g>
<!-- Node15&#45;&gt;Node2 -->
<g id="edge16_Node000015_Node000002" class="edge">
<title>Node15&#45;&gt;Node2</title>
<g id="a_edge16_Node000015_Node000002"><a xlink:title=" ">
<path fill="none" stroke="#63b8ff" d="M126.84,-274.98C113.66,-266.77 93.47,-254.18 77.93,-244.49"/>
<polygon fill="#63b8ff" stroke="#63b8ff" points="79.74,-241.49 69.41,-239.17 76.04,-247.43 79.74,-241.49"/>
</a>
</g>
</g>
<!-- Node15&#45;&gt;Node3 -->
<g id="edge18_Node000015_Node000003" class="edge">
<title>Node15&#45;&gt;Node3</title>
<g id="a_edge18_Node000015_Node000003"><a xlink:title=" ">
<path fill="none" stroke="#63b8ff" d="M137.72,-274.66C132.19,-257.09 119.71,-217.45 112.31,-193.95"/>
<polygon fill="#63b8ff" stroke="#63b8ff" points="115.57,-192.65 109.23,-184.16 108.89,-194.75 115.57,-192.65"/>
</a>
</g>
</g>
<!-- Node15&#45;&gt;Node4 -->
<g id="edge19_Node000015_Node000004" class="edge">
<title>Node15&#45;&gt;Node4</title>
<g id="a_edge19_Node000015_Node000004"><a xlink:title=" ">
<path fill="none" stroke="#63b8ff" d="M142.37,-274.86C149.3,-243.44 174.38,-135.69 197.5,-110 213.21,-92.55 237.08,-81.54 257.45,-74.84"/>
<polygon fill="#63b8ff" stroke="#63b8ff" points="258.57,-78.16 267.11,-71.89 256.53,-71.46 258.57,-78.16"/>
</a>
</g>
</g>
<!-- Node15&#45;&gt;Node12 -->
<g id="edge17_Node000015_Node000012" class="edge">
<title>Node15&#45;&gt;Node12</title>
<g id="a_edge17_Node000015_Node000012"><a xlink:title=" ">
<path fill="none" stroke="#63b8ff" d="M165.56,-274.98C191.53,-266.16 232.31,-252.31 261.46,-242.41"/>
<polygon fill="#63b8ff" stroke="#63b8ff" points="262.9,-245.61 271.24,-239.08 260.65,-238.99 262.9,-245.61"/>
</a>
</g>
</g>
</g>
</svg>
