<?xml version="1.0" encoding="UTF-8" standalone="no"?>
<!DOCTYPE svg PUBLIC "-//W3C//DTD SVG 1.1//EN"
 "http://www.w3.org/Graphics/SVG/1.1/DTD/svg11.dtd">
<!-- Generated by graphviz version 2.43.0 (0)
 -->
<!-- Title: /home/runner/work/EX&#45;Display/EX&#45;Display/InputActions.h Pages: 1 -->
<!--zoomable 496 -->
<svg id="main" version="1.1" xmlns="http://www.w3.org/2000/svg" xmlns:xlink="http://www.w3.org/1999/xlink" xml:space="preserve" onload="init(evt)">
<style type="text/css"><![CDATA[
.edge:hover path { stroke: red; }
.edge:hover polygon { stroke: red; fill: red; }
]]></style>
<script type="text/javascript"><![CDATA[
var edges = document.getElementsByTagName('g');
if (edges && edges.length) {
  for (var i=0;i<edges.length;i++) {
    if (edges[i].id.substr(0,4)=='edge') {
      edges[i].setAttribute('class','edge');
    }
  }
}
]]></script>
        <defs>
                <circle id="rim" cx="0" cy="0" r="7"/>
                <circle id="rim2" cx="0" cy="0" r="3.5"/>
                <g id="zoomPlus">
                        <use xlink:href="#rim" fill="#404040">
                                <set attributeName="fill" to="#808080" begin="zoomplus.mouseover" end="zoomplus.mouseout"/>
                        </use>
                        <path d="M-4,0h8M0,-4v8" fill="none" stroke="white" stroke-width="1.5" pointer-events="none"/>
                </g>
                <g id="zoomMin">
                        <use xlink:href="#rim" fill="#404040">
                                <set attributeName="fill" to="#808080" begin="zoomminus.mouseover" end="zoomminus.mouseout"/>
                        </use>
                        <path d="M-4,0h8" fill="none" stroke="white" stroke-width="1.5" pointer-events="none"/>
                </g>
                <g id="dirArrow">
                        <path fill="none" stroke="white" stroke-width="1.5" d="M0,-3.0v7 M-2.5,-0.5L0,-3.0L2.5,-0.5"/>
                </g>
               <g id="resetDef">
                       <use xlink:href="#rim2" fill="#404040">
                               <set attributeName="fill" to="#808080" begin="reset.mouseover" end="reset.mouseout"/>
                       </use>
               </g>
        </defs>

<script type="text/javascript">
var viewWidth = 2520;
var viewHeight = 496;
var sectionId = 'dynsection-0';
</script>
<script xlink:href="svgpan.js"/>
<svg id="graph" class="graph">
<g id="viewport">
<title>/home/runner/work/EX&#45;Display/EX&#45;Display/InputActions.h</title>
<polygon fill="white" stroke="transparent" points="-4,4 -4,-492 2515.5,-492 2515.5,4 -4,4"/>
<!-- Node1 -->
<g id="node1" class="node">
<title>Node1</title>
<g id="a_node1"><a xlink:title=" ">
<polygon fill="#bfbfbf" stroke="black" points="1698.5,-457.5 1698.5,-487.5 1883.5,-487.5 1883.5,-457.5 1698.5,-457.5"/>
<text text-anchor="start" x="1706.5" y="-475.5" font-family="Helvetica,sans-Serif" font-size="10.00">/home/runner/work/EX</text>
<text text-anchor="middle" x="1791" y="-464.5" font-family="Helvetica,sans-Serif" font-size="10.00">&#45;Display/EX&#45;Display/InputActions.h</text>
</a>
</g>
</g>
<!-- Node2 -->
<g id="node2" class="node">
<title>Node2</title>
<g id="a_node2"><a xlink:href="CallbackInterface_8h.html" target="_top" xlink:title=" ">
<polygon fill="white" stroke="black" points="1659,-379.5 1659,-420.5 1817,-420.5 1817,-379.5 1659,-379.5"/>
<text text-anchor="start" x="1667" y="-408.5" font-family="Helvetica,sans-Serif" font-size="10.00">/home/runner/work/EX</text>
<text text-anchor="start" x="1667" y="-397.5" font-family="Helvetica,sans-Serif" font-size="10.00">&#45;Display/EX&#45;Display/Callback</text>
<text text-anchor="middle" x="1738" y="-386.5" font-family="Helvetica,sans-Serif" font-size="10.00">Interface.h</text>
</a>
</g>
</g>
<!-- Node1&#45;&gt;Node2 -->
<g id="edge1" class="edge">
<title>Node1&#45;&gt;Node2</title>
<path fill="none" stroke="midnightblue" d="M1774.07,-448.98C1767.2,-439.85 1759.35,-429.4 1752.73,-420.59"/>
<polygon fill="midnightblue" stroke="midnightblue" points="1771.47,-451.34 1780.27,-457.23 1777.06,-447.14 1771.47,-451.34"/>
</g>
<!-- Node18 -->
<g id="node16" class="node">
<title>Node18</title>
<g id="a_node16"><a xlink:href="InputInterface_8h.html" target="_top" xlink:title=" ">
<polygon fill="white" stroke="black" points="1868.5,-312.5 1868.5,-342.5 2061.5,-342.5 2061.5,-312.5 1868.5,-312.5"/>
<text text-anchor="start" x="1876.5" y="-330.5" font-family="Helvetica,sans-Serif" font-size="10.00">/home/runner/work/EX</text>
<text text-anchor="middle" x="1965" y="-319.5" font-family="Helvetica,sans-Serif" font-size="10.00">&#45;Display/EX&#45;Display/InputInterface.h</text>
</a>
</g>
</g>
<!-- Node1&#45;&gt;Node18 -->
<g id="edge47" class="edge">
<title>Node1&#45;&gt;Node18</title>
<path fill="none" stroke="midnightblue" d="M1816.37,-450.65C1852.26,-421.16 1916.92,-368.01 1947.75,-342.68"/>
<polygon fill="midnightblue" stroke="midnightblue" points="1813.82,-448.21 1808.32,-457.27 1818.27,-453.62 1813.82,-448.21"/>
</g>
<!-- Node3 -->
<g id="node3" class="node">
<title>Node3</title>
<g id="a_node3"><a xlink:href="AtFinder_8h.html" target="_top" xlink:title=" ">
<polygon fill="white" stroke="black" points="1166,-162 1166,-192 1330,-192 1330,-162 1166,-162"/>
<text text-anchor="start" x="1174" y="-180" font-family="Helvetica,sans-Serif" font-size="10.00">/home/runner/work/EX</text>
<text text-anchor="middle" x="1248" y="-169" font-family="Helvetica,sans-Serif" font-size="10.00">&#45;Display/EX&#45;Display/AtFinder.h</text>
</a>
</g>
</g>
<!-- Node2&#45;&gt;Node3 -->
<g id="edge2" class="edge">
<title>Node2&#45;&gt;Node3</title>
<path fill="none" stroke="midnightblue" d="M1703.92,-373C1692.73,-363.93 1680.48,-353.41 1670,-343 1625.23,-298.53 1633.72,-265.43 1579,-234 1537.68,-210.27 1414.13,-194.01 1330.23,-185.36"/>
<polygon fill="midnightblue" stroke="midnightblue" points="1701.84,-375.82 1711.84,-379.33 1706.21,-370.35 1701.84,-375.82"/>
</g>
<!-- Node11 -->
<g id="node11" class="node">
<title>Node11</title>
<g id="a_node11"><a xlink:href="Controller_8h.html" target="_top" xlink:title=" ">
<polygon fill="white" stroke="black" points="790,-162 790,-192 962,-192 962,-162 790,-162"/>
<text text-anchor="start" x="798" y="-180" font-family="Helvetica,sans-Serif" font-size="10.00">/home/runner/work/EX</text>
<text text-anchor="middle" x="876" y="-169" font-family="Helvetica,sans-Serif" font-size="10.00">&#45;Display/EX&#45;Display/Controller.h</text>
</a>
</g>
</g>
<!-- Node2&#45;&gt;Node11 -->
<g id="edge10" class="edge">
<title>Node2&#45;&gt;Node11</title>
<path fill="none" stroke="midnightblue" d="M1652.11,-376.98C1475.65,-331.74 1076.63,-229.44 930.74,-192.03"/>
<polygon fill="midnightblue" stroke="midnightblue" points="1651.33,-380.39 1661.88,-379.48 1653.06,-373.61 1651.33,-380.39"/>
</g>
<!-- Node2&#45;&gt;Node18 -->
<g id="edge19" class="edge">
<title>Node2&#45;&gt;Node18</title>
<path fill="none" stroke="midnightblue" d="M1810.83,-376.38C1846.57,-365.28 1888.5,-352.26 1919.61,-342.6"/>
<polygon fill="midnightblue" stroke="midnightblue" points="1809.44,-373.15 1800.93,-379.46 1811.52,-379.83 1809.44,-373.15"/>
</g>
<!-- Node20 -->
<g id="node18" class="node">
<title>Node20</title>
<g id="a_node18"><a xlink:href="InputManager_8h.html" target="_top" xlink:title=" ">
<polygon fill="white" stroke="red" points="1378.5,-240 1378.5,-270 1569.5,-270 1569.5,-240 1378.5,-240"/>
<text text-anchor="start" x="1386.5" y="-258" font-family="Helvetica,sans-Serif" font-size="10.00">/home/runner/work/EX</text>
<text text-anchor="middle" x="1474" y="-247" font-family="Helvetica,sans-Serif" font-size="10.00">&#45;Display/EX&#45;Display/InputManager.h</text>
</a>
</g>
</g>
<!-- Node2&#45;&gt;Node20 -->
<g id="edge36" class="edge">
<title>Node2&#45;&gt;Node20</title>
<path fill="none" stroke="midnightblue" d="M1660.14,-376.13C1635.08,-367.35 1607.68,-356.21 1584,-343 1546.58,-322.12 1508.62,-288.83 1488.55,-270.06"/>
<polygon fill="midnightblue" stroke="midnightblue" points="1659.02,-379.44 1669.62,-379.37 1661.29,-372.82 1659.02,-379.44"/>
</g>
<!-- Node23 -->
<g id="node19" class="node">
<title>Node23</title>
<g id="a_node19"><a xlink:href="MockButtonInput_8h.html" target="_top" xlink:title=" ">
<polygon fill="white" stroke="black" points="1664.5,-234.5 1664.5,-275.5 1811.5,-275.5 1811.5,-234.5 1664.5,-234.5"/>
<text text-anchor="start" x="1672.5" y="-263.5" font-family="Helvetica,sans-Serif" font-size="10.00">/home/runner/work/EX</text>
<text text-anchor="start" x="1672.5" y="-252.5" font-family="Helvetica,sans-Serif" font-size="10.00">&#45;Display/EX&#45;Display/test</text>
<text text-anchor="middle" x="1738" y="-241.5" font-family="Helvetica,sans-Serif" font-size="10.00">/mocks/MockButtonInput.h</text>
</a>
</g>
</g>
<!-- Node2&#45;&gt;Node23 -->
<g id="edge37" class="edge">
<title>Node2&#45;&gt;Node23</title>
<path fill="none" stroke="midnightblue" d="M1738,-369.39C1738,-341.35 1738,-300.06 1738,-275.81"/>
<polygon fill="midnightblue" stroke="midnightblue" points="1734.5,-369.42 1738,-379.42 1741.5,-369.42 1734.5,-369.42"/>
</g>
<!-- Node27 -->
<g id="node23" class="node">
<title>Node27</title>
<g id="a_node23"><a xlink:href="MockTouchScreenInput_8h.html" target="_top" xlink:title=" ">
<polygon fill="white" stroke="black" points="2280,-234.5 2280,-275.5 2456,-275.5 2456,-234.5 2280,-234.5"/>
<text text-anchor="start" x="2288" y="-263.5" font-family="Helvetica,sans-Serif" font-size="10.00">/home/runner/work/EX</text>
<text text-anchor="start" x="2288" y="-252.5" font-family="Helvetica,sans-Serif" font-size="10.00">&#45;Display/EX&#45;Display/test</text>
<text text-anchor="middle" x="2368" y="-241.5" font-family="Helvetica,sans-Serif" font-size="10.00">/mocks/MockTouchScreenInput.h</text>
</a>
</g>
</g>
<!-- Node2&#45;&gt;Node27 -->
<g id="edge45" class="edge">
<title>Node2&#45;&gt;Node27</title>
<path fill="none" stroke="midnightblue" d="M1827.39,-386.9C1894.77,-377.07 1989.21,-361.79 2071,-343 2154.52,-323.81 2249.26,-294.76 2308.82,-275.59"/>
<polygon fill="midnightblue" stroke="midnightblue" points="1826.63,-383.47 1817.24,-388.37 1827.64,-390.4 1826.63,-383.47"/>
</g>
<!-- Node30 -->
<g id="node26" class="node">
<title>Node30</title>
<g id="a_node26"><a xlink:href="TFT__eSPITouch_8cpp.html" target="_top" xlink:title=" ">
<polygon fill="white" stroke="black" points="1810.5,-156.5 1810.5,-197.5 1943.5,-197.5 1943.5,-156.5 1810.5,-156.5"/>
<text text-anchor="start" x="1818.5" y="-185.5" font-family="Helvetica,sans-Serif" font-size="10.00">/home/runner/work/EX</text>
<text text-anchor="start" x="1818.5" y="-174.5" font-family="Helvetica,sans-Serif" font-size="10.00">&#45;Display/EX&#45;Display/TFT</text>
<text text-anchor="middle" x="1877" y="-163.5" font-family="Helvetica,sans-Serif" font-size="10.00">_eSPITouch.cpp</text>
</a>
</g>
</g>
<!-- Node2&#45;&gt;Node30 -->
<g id="edge46" class="edge">
<title>Node2&#45;&gt;Node30</title>
<path fill="none" stroke="midnightblue" d="M1757.93,-370.77C1775.14,-346.09 1800.4,-309.12 1821,-276 1837.56,-249.38 1855.29,-217.75 1866.27,-197.78"/>
<polygon fill="midnightblue" stroke="midnightblue" points="1754.84,-369.07 1751.98,-379.27 1760.58,-373.09 1754.84,-369.07"/>
</g>
<!-- Node31 -->
<g id="node27" class="node">
<title>Node31</title>
<g id="a_node27"><a xlink:href="MockCallback_8h.html" target="_top" xlink:title=" ">
<polygon fill="white" stroke="black" points="1570,-156.5 1570,-197.5 1704,-197.5 1704,-156.5 1570,-156.5"/>
<text text-anchor="start" x="1578" y="-185.5" font-family="Helvetica,sans-Serif" font-size="10.00">/home/runner/work/EX</text>
<text text-anchor="start" x="1578" y="-174.5" font-family="Helvetica,sans-Serif" font-size="10.00">&#45;Display/EX&#45;Display/test</text>
<text text-anchor="middle" x="1637" y="-163.5" font-family="Helvetica,sans-Serif" font-size="10.00">/mocks/MockCallback.h</text>
</a>
</g>
</g>
<!-- Node2&#45;&gt;Node31 -->
<g id="edge38" class="edge">
<title>Node2&#45;&gt;Node31</title>
<path fill="none" stroke="midnightblue" d="M1714.76,-371.22C1696.06,-347.42 1670.57,-311.46 1656,-276 1645.4,-250.19 1640.62,-218.08 1638.53,-197.81"/>
<polygon fill="midnightblue" stroke="midnightblue" points="1712.09,-373.48 1721.06,-379.11 1717.56,-369.12 1712.09,-373.48"/>
</g>
<!-- Node4 -->
<g id="node4" class="node">
<title>Node4</title>
<g id="a_node4"><a xlink:href="AtFinder_8cpp.html" target="_top" xlink:title=" ">
<polygon fill="white" stroke="black" points="986,-78.5 986,-108.5 1162,-108.5 1162,-78.5 986,-78.5"/>
<text text-anchor="start" x="994" y="-96.5" font-family="Helvetica,sans-Serif" font-size="10.00">/home/runner/work/EX</text>
<text text-anchor="middle" x="1074" y="-85.5" font-family="Helvetica,sans-Serif" font-size="10.00">&#45;Display/EX&#45;Display/AtFinder.cpp</text>
</a>
</g>
</g>
<!-- Node3&#45;&gt;Node4 -->
<g id="edge3" class="edge">
<title>Node3&#45;&gt;Node4</title>
<path fill="none" stroke="midnightblue" d="M1208.67,-157.58C1176.97,-142.73 1133.05,-122.16 1104.1,-108.6"/>
<polygon fill="midnightblue" stroke="midnightblue" points="1207.55,-160.92 1218.09,-161.99 1210.52,-154.58 1207.55,-160.92"/>
</g>
<!-- Node5 -->
<g id="node5" class="node">
<title>Node5</title>
<g id="a_node5"><a xlink:href="Configurator_8cpp.html" target="_top" xlink:title=" ">
<polygon fill="white" stroke="black" points="543.5,-0.5 543.5,-30.5 738.5,-30.5 738.5,-0.5 543.5,-0.5"/>
<text text-anchor="start" x="551.5" y="-18.5" font-family="Helvetica,sans-Serif" font-size="10.00">/home/runner/work/EX</text>
<text text-anchor="middle" x="641" y="-7.5" font-family="Helvetica,sans-Serif" font-size="10.00">&#45;Display/EX&#45;Display/Configurator.cpp</text>
</a>
</g>
</g>
<!-- Node3&#45;&gt;Node5 -->
<g id="edge4" class="edge">
<title>Node3&#45;&gt;Node5</title>
<path fill="none" stroke="midnightblue" d="M1232.33,-153.58C1210.15,-121.86 1172.13,-67.66 1171,-67 1099.78,-25.71 871.08,-17.43 738.52,-16.21"/>
<polygon fill="midnightblue" stroke="midnightblue" points="1229.53,-155.67 1238.12,-161.86 1235.26,-151.66 1229.53,-155.67"/>
</g>
<!-- Node6 -->
<g id="node6" class="node">
<title>Node6</title>
<g id="a_node6"><a xlink:href="Controller_8cpp.html" target="_top" xlink:title=" ">
<polygon fill="white" stroke="black" points="582.5,-78.5 582.5,-108.5 765.5,-108.5 765.5,-78.5 582.5,-78.5"/>
<text text-anchor="start" x="590.5" y="-96.5" font-family="Helvetica,sans-Serif" font-size="10.00">/home/runner/work/EX</text>
<text text-anchor="middle" x="674" y="-85.5" font-family="Helvetica,sans-Serif" font-size="10.00">&#45;Display/EX&#45;Display/Controller.cpp</text>
</a>
</g>
</g>
<!-- Node3&#45;&gt;Node6 -->
<g id="edge5" class="edge">
<title>Node3&#45;&gt;Node6</title>
<path fill="none" stroke="midnightblue" d="M1155.68,-168.63C1059.96,-160.16 906.22,-144.23 775,-120 758.28,-116.91 740.22,-112.66 724.06,-108.5"/>
<polygon fill="midnightblue" stroke="midnightblue" points="1155.64,-172.14 1165.91,-169.53 1156.25,-165.17 1155.64,-172.14"/>
</g>
<!-- Node7 -->
<g id="node7" class="node">
<title>Node7</title>
<g id="a_node7"><a xlink:href="test__ControllerDisplayUpdate_8cpp.html" target="_top" xlink:title=" ">
<polygon fill="white" stroke="black" points="784,-67.5 784,-119.5 968,-119.5 968,-67.5 784,-67.5"/>
<text text-anchor="start" x="792" y="-107.5" font-family="Helvetica,sans-Serif" font-size="10.00">/home/runner/work/EX</text>
<text text-anchor="start" x="792" y="-96.5" font-family="Helvetica,sans-Serif" font-size="10.00">&#45;Display/EX&#45;Display/test</text>
<text text-anchor="start" x="792" y="-85.5" font-family="Helvetica,sans-Serif" font-size="10.00">/integration/test_controller</text>
<text text-anchor="middle" x="876" y="-74.5" font-family="Helvetica,sans-Serif" font-size="10.00">/test_ControllerDisplayUpdate.cpp</text>
</a>
</g>
</g>
<!-- Node3&#45;&gt;Node7 -->
<g id="edge6" class="edge">
<title>Node3&#45;&gt;Node7</title>
<path fill="none" stroke="midnightblue" d="M1166.08,-160.04C1112.22,-149.3 1040.26,-134.51 977,-120 974.09,-119.33 971.14,-118.65 968.16,-117.94"/>
<polygon fill="midnightblue" stroke="midnightblue" points="1165.43,-163.48 1175.92,-161.99 1166.8,-156.61 1165.43,-163.48"/>
</g>
<!-- Node8 -->
<g id="node8" class="node">
<title>Node8</title>
<g id="a_node8"><a xlink:href="test__AtFinder__Logger_8cpp.html" target="_top" xlink:title=" ">
<polygon fill="white" stroke="black" points="1218,-67.5 1218,-119.5 1396,-119.5 1396,-67.5 1218,-67.5"/>
<text text-anchor="start" x="1226" y="-107.5" font-family="Helvetica,sans-Serif" font-size="10.00">/home/runner/work/EX</text>
<text text-anchor="start" x="1226" y="-96.5" font-family="Helvetica,sans-Serif" font-size="10.00">&#45;Display/EX&#45;Display/test</text>
<text text-anchor="start" x="1226" y="-85.5" font-family="Helvetica,sans-Serif" font-size="10.00">/integration/test_interactive</text>
<text text-anchor="middle" x="1307" y="-74.5" font-family="Helvetica,sans-Serif" font-size="10.00">_logger/test_AtFinder_Logger.cpp</text>
</a>
</g>
</g>
<!-- Node3&#45;&gt;Node8 -->
<g id="edge7" class="edge">
<title>Node3&#45;&gt;Node8</title>
<path fill="none" stroke="midnightblue" d="M1264.25,-153.56C1271.84,-143.07 1280.91,-130.54 1288.74,-119.72"/>
<polygon fill="midnightblue" stroke="midnightblue" points="1261.31,-151.65 1258.28,-161.8 1266.98,-155.76 1261.31,-151.65"/>
</g>
<!-- Node9 -->
<g id="node9" class="node">
<title>Node9</title>
<g id="a_node9"><a xlink:href="test__Controller_8cpp.html" target="_top" xlink:title=" ">
<polygon fill="white" stroke="black" points="1566.5,-67.5 1566.5,-119.5 1707.5,-119.5 1707.5,-67.5 1566.5,-67.5"/>
<text text-anchor="start" x="1574.5" y="-107.5" font-family="Helvetica,sans-Serif" font-size="10.00">/home/runner/work/EX</text>
<text text-anchor="start" x="1574.5" y="-96.5" font-family="Helvetica,sans-Serif" font-size="10.00">&#45;Display/EX&#45;Display/test</text>
<text text-anchor="start" x="1574.5" y="-85.5" font-family="Helvetica,sans-Serif" font-size="10.00">/unit/test_application/test</text>
<text text-anchor="middle" x="1637" y="-74.5" font-family="Helvetica,sans-Serif" font-size="10.00">_Controller.cpp</text>
</a>
</g>
</g>
<!-- Node3&#45;&gt;Node9 -->
<g id="edge8" class="edge">
<title>Node3&#45;&gt;Node9</title>
<path fill="none" stroke="midnightblue" d="M1340.37,-162.46C1402.13,-152.63 1484.96,-137.93 1557,-120 1560.11,-119.23 1563.28,-118.4 1566.47,-117.53"/>
<polygon fill="midnightblue" stroke="midnightblue" points="1339.59,-159.04 1330.26,-164.06 1340.69,-165.96 1339.59,-159.04"/>
</g>
<!-- Node10 -->
<g id="node10" class="node">
<title>Node10</title>
<g id="a_node10"><a xlink:href="test__AtFinder_8cpp.html" target="_top" xlink:title=" ">
<polygon fill="white" stroke="black" points="1414,-67.5 1414,-119.5 1548,-119.5 1548,-67.5 1414,-67.5"/>
<text text-anchor="start" x="1422" y="-107.5" font-family="Helvetica,sans-Serif" font-size="10.00">/home/runner/work/EX</text>
<text text-anchor="start" x="1422" y="-96.5" font-family="Helvetica,sans-Serif" font-size="10.00">&#45;Display/EX&#45;Display/test</text>
<text text-anchor="start" x="1422" y="-85.5" font-family="Helvetica,sans-Serif" font-size="10.00">/unit/test_infrastructure</text>
<text text-anchor="middle" x="1481" y="-74.5" font-family="Helvetica,sans-Serif" font-size="10.00">/test_AtFinder.cpp</text>
</a>
</g>
</g>
<!-- Node3&#45;&gt;Node10 -->
<g id="edge9" class="edge">
<title>Node3&#45;&gt;Node10</title>
<path fill="none" stroke="midnightblue" d="M1297.72,-158.61C1331.52,-146.78 1376.66,-131 1413.69,-118.05"/>
<polygon fill="midnightblue" stroke="midnightblue" points="1296.34,-155.38 1288.05,-161.99 1298.65,-161.99 1296.34,-155.38"/>
</g>
<!-- Node11&#45;&gt;Node6 -->
<g id="edge13" class="edge">
<title>Node11&#45;&gt;Node6</title>
<path fill="none" stroke="midnightblue" d="M831.76,-158.15C794.86,-143.26 742.99,-122.34 708.95,-108.6"/>
<polygon fill="midnightblue" stroke="midnightblue" points="830.69,-161.49 841.27,-161.99 833.31,-155 830.69,-161.49"/>
</g>
<!-- Node11&#45;&gt;Node7 -->
<g id="edge14" class="edge">
<title>Node11&#45;&gt;Node7</title>
<path fill="none" stroke="midnightblue" d="M876,-151.65C876,-141.57 876,-129.89 876,-119.72"/>
<polygon fill="midnightblue" stroke="midnightblue" points="872.5,-151.8 876,-161.8 879.5,-151.8 872.5,-151.8"/>
</g>
<!-- Node11&#45;&gt;Node9 -->
<g id="edge18" class="edge">
<title>Node11&#45;&gt;Node9</title>
<path fill="none" stroke="midnightblue" d="M972.47,-169.28C1146.73,-156.97 1501.2,-131.04 1557,-120 1560,-119.41 1563.05,-118.74 1566.12,-118.01"/>
<polygon fill="midnightblue" stroke="midnightblue" points="972,-165.81 962.27,-170 972.49,-172.79 972,-165.81"/>
</g>
<!-- Node12 -->
<g id="node12" class="node">
<title>Node12</title>
<g id="a_node12"><a xlink:href="Configurator_8h.html" target="_top" xlink:title=" ">
<polygon fill="white" stroke="red" points="0,-78.5 0,-108.5 184,-108.5 184,-78.5 0,-78.5"/>
<text text-anchor="start" x="8" y="-96.5" font-family="Helvetica,sans-Serif" font-size="10.00">/home/runner/work/EX</text>
<text text-anchor="middle" x="92" y="-85.5" font-family="Helvetica,sans-Serif" font-size="10.00">&#45;Display/EX&#45;Display/Configurator.h</text>
</a>
</g>
</g>
<!-- Node11&#45;&gt;Node12 -->
<g id="edge11" class="edge">
<title>Node11&#45;&gt;Node12</title>
<path fill="none" stroke="midnightblue" d="M779.85,-173.13C647.08,-168.03 400.47,-154.45 193,-120 175.78,-117.14 157.2,-112.81 140.72,-108.53"/>
<polygon fill="midnightblue" stroke="midnightblue" points="779.87,-176.63 789.99,-173.51 780.13,-169.64 779.87,-176.63"/>
</g>
<!-- Node15 -->
<g id="node13" class="node">
<title>Node15</title>
<g id="a_node13"><a xlink:href="test__ControllerInputAction_8cpp.html" target="_top" xlink:title=" ">
<polygon fill="white" stroke="black" points="1914.5,-67.5 1914.5,-119.5 2081.5,-119.5 2081.5,-67.5 1914.5,-67.5"/>
<text text-anchor="start" x="1922.5" y="-107.5" font-family="Helvetica,sans-Serif" font-size="10.00">/home/runner/work/EX</text>
<text text-anchor="start" x="1922.5" y="-96.5" font-family="Helvetica,sans-Serif" font-size="10.00">&#45;Display/EX&#45;Display/test</text>
<text text-anchor="start" x="1922.5" y="-85.5" font-family="Helvetica,sans-Serif" font-size="10.00">/integration/test_controller</text>
<text text-anchor="middle" x="1998" y="-74.5" font-family="Helvetica,sans-Serif" font-size="10.00">/test_ControllerInputAction.cpp</text>
</a>
</g>
</g>
<!-- Node11&#45;&gt;Node15 -->
<g id="edge15" class="edge">
<title>Node11&#45;&gt;Node15</title>
<path fill="none" stroke="midnightblue" d="M972.35,-168.59C1026.58,-164.56 1095.54,-159.66 1157,-156 1489.68,-136.17 1576.94,-172.84 1906,-120 1908.78,-119.55 1911.6,-119.05 1914.44,-118.51"/>
<polygon fill="midnightblue" stroke="midnightblue" points="971.77,-165.13 962.05,-169.36 972.29,-172.11 971.77,-165.13"/>
</g>
<!-- Node16 -->
<g id="node14" class="node">
<title>Node16</title>
<g id="a_node14"><a xlink:href="test__ControllerScreenCreation_8cpp.html" target="_top" xlink:title=" ">
<polygon fill="white" stroke="black" points="378,-67.5 378,-119.5 564,-119.5 564,-67.5 378,-67.5"/>
<text text-anchor="start" x="386" y="-107.5" font-family="Helvetica,sans-Serif" font-size="10.00">/home/runner/work/EX</text>
<text text-anchor="start" x="386" y="-96.5" font-family="Helvetica,sans-Serif" font-size="10.00">&#45;Display/EX&#45;Display/test</text>
<text text-anchor="start" x="386" y="-85.5" font-family="Helvetica,sans-Serif" font-size="10.00">/integration/test_controller</text>
<text text-anchor="middle" x="471" y="-74.5" font-family="Helvetica,sans-Serif" font-size="10.00">/test_ControllerScreenCreation.cpp</text>
</a>
</g>
</g>
<!-- Node11&#45;&gt;Node16 -->
<g id="edge16" class="edge">
<title>Node11&#45;&gt;Node16</title>
<path fill="none" stroke="midnightblue" d="M782.23,-160.22C722.22,-149.74 642.8,-135.16 573,-120 570.06,-119.36 567.07,-118.7 564.06,-118.02"/>
<polygon fill="midnightblue" stroke="midnightblue" points="782,-163.73 792.45,-162 783.2,-156.84 782,-163.73"/>
</g>
<!-- Node17 -->
<g id="node15" class="node">
<title>Node17</title>
<g id="a_node15"><a xlink:href="test__ValidDisplayScreen_8cpp.html" target="_top" xlink:title=" ">
<polygon fill="white" stroke="black" points="202,-67.5 202,-119.5 360,-119.5 360,-67.5 202,-67.5"/>
<text text-anchor="start" x="210" y="-107.5" font-family="Helvetica,sans-Serif" font-size="10.00">/home/runner/work/EX</text>
<text text-anchor="start" x="210" y="-96.5" font-family="Helvetica,sans-Serif" font-size="10.00">&#45;Display/EX&#45;Display/test</text>
<text text-anchor="start" x="210" y="-85.5" font-family="Helvetica,sans-Serif" font-size="10.00">/integration/test_display</text>
<text text-anchor="middle" x="281" y="-74.5" font-family="Helvetica,sans-Serif" font-size="10.00">/test_ValidDisplayScreen.cpp</text>
</a>
</g>
</g>
<!-- Node11&#45;&gt;Node17 -->
<g id="edge17" class="edge">
<title>Node11&#45;&gt;Node17</title>
<path fill="none" stroke="midnightblue" d="M779.61,-170.31C677.06,-163.1 510.43,-148.09 369,-120 366.19,-119.44 363.34,-118.84 360.47,-118.19"/>
<polygon fill="midnightblue" stroke="midnightblue" points="779.42,-173.8 789.64,-171 779.91,-166.82 779.42,-173.8"/>
</g>
<!-- Node12&#45;&gt;Node5 -->
<g id="edge12" class="edge">
<title>Node12&#45;&gt;Node5</title>
<path fill="none" stroke="midnightblue" d="M152.11,-75.91C165.5,-72.61 179.67,-69.42 193,-67 312.75,-45.24 452.32,-31.28 543.44,-23.68"/>
<polygon fill="midnightblue" stroke="midnightblue" points="150.9,-72.6 142.05,-78.44 152.61,-79.39 150.9,-72.6"/>
</g>
<!-- Node19 -->
<g id="node17" class="node">
<title>Node19</title>
<g id="a_node17"><a xlink:href="InputInterface_8cpp.html" target="_top" xlink:title=" ">
<polygon fill="white" stroke="black" points="2058,-240 2058,-270 2262,-270 2262,-240 2058,-240"/>
<text text-anchor="start" x="2066" y="-258" font-family="Helvetica,sans-Serif" font-size="10.00">/home/runner/work/EX</text>
<text text-anchor="middle" x="2160" y="-247" font-family="Helvetica,sans-Serif" font-size="10.00">&#45;Display/EX&#45;Display/InputInterface.cpp</text>
</a>
</g>
</g>
<!-- Node18&#45;&gt;Node19 -->
<g id="edge20" class="edge">
<title>Node18&#45;&gt;Node19</title>
<path fill="none" stroke="midnightblue" d="M2013.5,-308.96C2046.7,-296.96 2090.14,-281.26 2121.08,-270.07"/>
<polygon fill="midnightblue" stroke="midnightblue" points="2012.21,-305.71 2003.99,-312.4 2014.59,-312.29 2012.21,-305.71"/>
</g>
<!-- Node18&#45;&gt;Node20 -->
<g id="edge21" class="edge">
<title>Node18&#45;&gt;Node20</title>
<path fill="none" stroke="midnightblue" d="M1858.24,-311.17C1772.28,-298.83 1652.53,-281.63 1569.67,-269.74"/>
<polygon fill="midnightblue" stroke="midnightblue" points="1857.89,-314.66 1868.29,-312.61 1858.89,-307.73 1857.89,-314.66"/>
</g>
<!-- Node18&#45;&gt;Node23 -->
<g id="edge26" class="edge">
<title>Node18&#45;&gt;Node23</title>
<path fill="none" stroke="midnightblue" d="M1909.99,-309.42C1877.13,-299.21 1835.28,-286.21 1801.08,-275.59"/>
<polygon fill="midnightblue" stroke="midnightblue" points="1909.29,-312.86 1919.88,-312.49 1911.37,-306.18 1909.29,-312.86"/>
</g>
<!-- Node25 -->
<g id="node21" class="node">
<title>Node25</title>
<g id="a_node21"><a xlink:href="MockInput_8h.html" target="_top" xlink:title=" ">
<polygon fill="white" stroke="red" points="1963,-156.5 1963,-197.5 2097,-197.5 2097,-156.5 1963,-156.5"/>
<text text-anchor="start" x="1971" y="-185.5" font-family="Helvetica,sans-Serif" font-size="10.00">/home/runner/work/EX</text>
<text text-anchor="start" x="1971" y="-174.5" font-family="Helvetica,sans-Serif" font-size="10.00">&#45;Display/EX&#45;Display/test</text>
<text text-anchor="middle" x="2030" y="-163.5" font-family="Helvetica,sans-Serif" font-size="10.00">/mocks/MockInput.h</text>
</a>
</g>
</g>
<!-- Node18&#45;&gt;Node25 -->
<g id="edge28" class="edge">
<title>Node18&#45;&gt;Node25</title>
<path fill="none" stroke="midnightblue" d="M1989.25,-305.17C1997.32,-296.84 2005.62,-286.71 2011,-276 2023.59,-250.91 2027.86,-218.33 2029.29,-197.79"/>
<polygon fill="midnightblue" stroke="midnightblue" points="1986.68,-302.78 1981.98,-312.28 1991.57,-307.79 1986.68,-302.78"/>
</g>
<!-- Node18&#45;&gt;Node27 -->
<g id="edge32" class="edge">
<title>Node18&#45;&gt;Node27</title>
<path fill="none" stroke="midnightblue" d="M2066.06,-310.86C2125.78,-301.35 2202.81,-288.65 2271,-276 2273.87,-275.47 2276.79,-274.92 2279.74,-274.35"/>
<polygon fill="midnightblue" stroke="midnightblue" points="2065.21,-307.45 2055.88,-312.47 2066.3,-314.36 2065.21,-307.45"/>
</g>
<!-- Node29 -->
<g id="node25" class="node">
<title>Node29</title>
<g id="a_node25"><a xlink:href="TFT__eSPITouch_8h.html" target="_top" xlink:title=" ">
<polygon fill="white" stroke="red" points="1868.5,-234.5 1868.5,-275.5 2001.5,-275.5 2001.5,-234.5 1868.5,-234.5"/>
<text text-anchor="start" x="1876.5" y="-263.5" font-family="Helvetica,sans-Serif" font-size="10.00">/home/runner/work/EX</text>
<text text-anchor="start" x="1876.5" y="-252.5" font-family="Helvetica,sans-Serif" font-size="10.00">&#45;Display/EX&#45;Display/TFT</text>
<text text-anchor="middle" x="1935" y="-241.5" font-family="Helvetica,sans-Serif" font-size="10.00">_eSPITouch.h</text>
</a>
</g>
</g>
<!-- Node18&#45;&gt;Node29 -->
<g id="edge34" class="edge">
<title>Node18&#45;&gt;Node29</title>
<path fill="none" stroke="midnightblue" d="M1954.93,-302.84C1951.16,-293.99 1946.93,-284.03 1943.34,-275.59"/>
<polygon fill="midnightblue" stroke="midnightblue" points="1951.79,-304.4 1958.93,-312.23 1958.23,-301.66 1951.79,-304.4"/>
</g>
<!-- Node20&#45;&gt;Node9 -->
<g id="edge25" class="edge">
<title>Node20&#45;&gt;Node9</title>
<path fill="none" stroke="midnightblue" d="M1491.85,-231.87C1508.79,-211.37 1535.41,-180.45 1561,-156 1574.25,-143.34 1589.85,-130.41 1603.46,-119.7"/>
<polygon fill="midnightblue" stroke="midnightblue" points="1489.06,-229.76 1485.42,-239.71 1494.47,-234.2 1489.06,-229.76"/>
</g>
<!-- Node20&#45;&gt;Node11 -->
<g id="edge23" class="edge">
<title>Node20&#45;&gt;Node11</title>
<path fill="none" stroke="midnightblue" d="M1368.32,-240.57C1252.69,-225.87 1069.54,-202.6 962.24,-188.96"/>
<polygon fill="midnightblue" stroke="midnightblue" points="1367.89,-244.04 1378.25,-241.83 1368.77,-237.1 1367.89,-244.04"/>
</g>
<!-- Node20&#45;&gt;Node12 -->
<g id="edge22" class="edge">
<title>Node20&#45;&gt;Node12</title>
<path fill="none" stroke="midnightblue" d="M1368.11,-249.05C1147.7,-237.4 624.26,-202.76 193,-120 176.57,-116.85 158.83,-112.64 142.87,-108.56"/>
<polygon fill="midnightblue" stroke="midnightblue" points="1368.2,-252.56 1378.37,-249.59 1368.57,-245.57 1368.2,-252.56"/>
</g>
<!-- Node20&#45;&gt;Node15 -->
<g id="edge24" class="edge">
<title>Node20&#45;&gt;Node15</title>
<path fill="none" stroke="midnightblue" d="M1562.28,-237.95C1607.93,-228.5 1664.17,-215.03 1713,-198 1754.3,-183.6 1761.26,-171.92 1802,-156 1838.21,-141.85 1879.11,-128.6 1914.16,-118.05"/>
<polygon fill="midnightblue" stroke="midnightblue" points="1561.51,-234.54 1552.41,-239.97 1562.91,-241.4 1561.51,-234.54"/>
</g>
<!-- Node24 -->
<g id="node20" class="node">
<title>Node24</title>
<g id="a_node20"><a xlink:href="test__DebounceHoldInput_8cpp.html" target="_top" xlink:title=" ">
<polygon fill="white" stroke="black" points="1725.5,-67.5 1725.5,-119.5 1896.5,-119.5 1896.5,-67.5 1725.5,-67.5"/>
<text text-anchor="start" x="1733.5" y="-107.5" font-family="Helvetica,sans-Serif" font-size="10.00">/home/runner/work/EX</text>
<text text-anchor="start" x="1733.5" y="-96.5" font-family="Helvetica,sans-Serif" font-size="10.00">&#45;Display/EX&#45;Display/test</text>
<text text-anchor="start" x="1733.5" y="-85.5" font-family="Helvetica,sans-Serif" font-size="10.00">/unit/test_inputs/test_Debounce</text>
<text text-anchor="middle" x="1811" y="-74.5" font-family="Helvetica,sans-Serif" font-size="10.00">HoldInput.cpp</text>
</a>
</g>
</g>
<!-- Node23&#45;&gt;Node24 -->
<g id="edge27" class="edge">
<title>Node23&#45;&gt;Node24</title>
<path fill="none" stroke="midnightblue" d="M1751.13,-225.31C1764.89,-195.24 1786.31,-148.45 1799.45,-119.74"/>
<polygon fill="midnightblue" stroke="midnightblue" points="1747.93,-223.89 1746.95,-234.44 1754.3,-226.81 1747.93,-223.89"/>
</g>
<!-- Node25&#45;&gt;Node9 -->
<g id="edge30" class="edge">
<title>Node25&#45;&gt;Node9</title>
<path fill="none" stroke="midnightblue" d="M1953.3,-156.06C1953.2,-156.04 1953.1,-156.02 1953,-156 1849.07,-134.63 1820.31,-144.19 1717,-120 1713.88,-119.27 1710.7,-118.48 1707.5,-117.64"/>
<polygon fill="midnightblue" stroke="midnightblue" points="1952.39,-159.45 1962.9,-158.14 1953.87,-152.6 1952.39,-159.45"/>
</g>
<!-- Node25&#45;&gt;Node15 -->
<g id="edge29" class="edge">
<title>Node25&#45;&gt;Node15</title>
<path fill="none" stroke="midnightblue" d="M2018.49,-146.69C2015.01,-137.83 2011.22,-128.17 2007.86,-119.61"/>
<polygon fill="midnightblue" stroke="midnightblue" points="2015.34,-148.24 2022.25,-156.27 2021.86,-145.68 2015.34,-148.24"/>
</g>
<!-- Node26 -->
<g id="node22" class="node">
<title>Node26</title>
<g id="a_node22"><a xlink:href="test__InputInterface_8cpp.html" target="_top" xlink:title=" ">
<polygon fill="white" stroke="black" points="2099.5,-73 2099.5,-114 2310.5,-114 2310.5,-73 2099.5,-73"/>
<text text-anchor="start" x="2107.5" y="-102" font-family="Helvetica,sans-Serif" font-size="10.00">/home/runner/work/EX</text>
<text text-anchor="start" x="2107.5" y="-91" font-family="Helvetica,sans-Serif" font-size="10.00">&#45;Display/EX&#45;Display/test</text>
<text text-anchor="middle" x="2205" y="-80" font-family="Helvetica,sans-Serif" font-size="10.00">/unit/test_inputs/test_InputInterface.cpp</text>
</a>
</g>
</g>
<!-- Node25&#45;&gt;Node26 -->
<g id="edge31" class="edge">
<title>Node25&#45;&gt;Node26</title>
<path fill="none" stroke="midnightblue" d="M2081.25,-152.13C2107.3,-140 2138.54,-125.45 2163.12,-114"/>
<polygon fill="midnightblue" stroke="midnightblue" points="2079.5,-149.08 2071.92,-156.48 2082.46,-155.43 2079.5,-149.08"/>
</g>
<!-- Node28 -->
<g id="node24" class="node">
<title>Node28</title>
<g id="a_node24"><a xlink:href="test__TouchScreenInput_8cpp.html" target="_top" xlink:title=" ">
<polygon fill="white" stroke="black" points="2328.5,-67.5 2328.5,-119.5 2511.5,-119.5 2511.5,-67.5 2328.5,-67.5"/>
<text text-anchor="start" x="2336.5" y="-107.5" font-family="Helvetica,sans-Serif" font-size="10.00">/home/runner/work/EX</text>
<text text-anchor="start" x="2336.5" y="-96.5" font-family="Helvetica,sans-Serif" font-size="10.00">&#45;Display/EX&#45;Display/test</text>
<text text-anchor="start" x="2336.5" y="-85.5" font-family="Helvetica,sans-Serif" font-size="10.00">/unit/test_inputs/test_TouchScreen</text>
<text text-anchor="middle" x="2420" y="-74.5" font-family="Helvetica,sans-Serif" font-size="10.00">Input.cpp</text>
</a>
</g>
</g>
<!-- Node27&#45;&gt;Node28 -->
<g id="edge33" class="edge">
<title>Node27&#45;&gt;Node28</title>
<path fill="none" stroke="midnightblue" d="M2377.48,-224.92C2387.29,-194.83 2402.45,-148.33 2411.77,-119.74"/>
<polygon fill="midnightblue" stroke="midnightblue" points="2374.15,-223.85 2374.38,-234.44 2380.8,-226.02 2374.15,-223.85"/>
</g>
<!-- Node29&#45;&gt;Node30 -->
<g id="edge35" class="edge">
<title>Node29&#45;&gt;Node30</title>
<path fill="none" stroke="midnightblue" d="M1913.89,-226.34C1906.59,-216.78 1898.58,-206.27 1891.89,-197.51"/>
<polygon fill="midnightblue" stroke="midnightblue" points="1911.21,-228.6 1920.06,-234.43 1916.78,-224.36 1911.21,-228.6"/>
</g>
<!-- Node31&#45;&gt;Node8 -->
<g id="edge39" class="edge">
<title>Node31&#45;&gt;Node8</title>
<path fill="none" stroke="midnightblue" d="M1560.18,-157.82C1514.96,-147.02 1456.67,-132.96 1405,-120 1402.1,-119.27 1399.16,-118.53 1396.18,-117.78"/>
<polygon fill="midnightblue" stroke="midnightblue" points="1559.38,-161.22 1569.92,-160.14 1561,-154.42 1559.38,-161.22"/>
</g>
<!-- Node31&#45;&gt;Node9 -->
<g id="edge40" class="edge">
<title>Node31&#45;&gt;Node9</title>
<path fill="none" stroke="midnightblue" d="M1637,-146.12C1637,-137.41 1637,-127.99 1637,-119.61"/>
<polygon fill="midnightblue" stroke="midnightblue" points="1633.5,-146.27 1637,-156.27 1640.5,-146.27 1633.5,-146.27"/>
</g>
<!-- Node31&#45;&gt;Node10 -->
<g id="edge41" class="edge">
<title>Node31&#45;&gt;Node10</title>
<path fill="none" stroke="midnightblue" d="M1590.66,-151.79C1571.22,-141.63 1548.61,-129.82 1529,-119.58"/>
<polygon fill="midnightblue" stroke="midnightblue" points="1589.15,-154.95 1599.63,-156.48 1592.39,-148.75 1589.15,-154.95"/>
</g>
<!-- Node31&#45;&gt;Node24 -->
<g id="edge42" class="edge">
<title>Node31&#45;&gt;Node24</title>
<path fill="none" stroke="midnightblue" d="M1687.81,-152.2C1709.69,-141.95 1735.29,-129.96 1757.46,-119.58"/>
<polygon fill="midnightblue" stroke="midnightblue" points="1686.25,-149.07 1678.68,-156.48 1689.22,-155.41 1686.25,-149.07"/>
</g>
<!-- Node31&#45;&gt;Node26 -->
<g id="edge43" class="edge">
<title>Node31&#45;&gt;Node26</title>
<path fill="none" stroke="midnightblue" d="M1714.31,-166.56C1841.5,-151.02 2081.81,-121.59 2091,-120 2101.09,-118.25 2111.64,-116.2 2122.07,-114.04"/>
<polygon fill="midnightblue" stroke="midnightblue" points="1713.74,-163.1 1704.24,-167.79 1714.59,-170.05 1713.74,-163.1"/>
</g>
<!-- Node31&#45;&gt;Node28 -->
<g id="edge44" class="edge">
<title>Node31&#45;&gt;Node28</title>
<path fill="none" stroke="midnightblue" d="M1714.35,-165.79C1741.97,-162.37 1773.35,-158.73 1802,-156 2031.74,-134.11 2092.15,-156.66 2320,-120 2322.74,-119.56 2325.52,-119.08 2328.31,-118.56"/>
<polygon fill="midnightblue" stroke="midnightblue" points="1713.84,-162.33 1704.35,-167.04 1714.71,-169.28 1713.84,-162.33"/>
</g>
</g>
</svg>
        <g id="navigator" transform="translate(0 0)" fill="#404254">
                <rect fill="#f2f5e9" fill-opacity="0.5" stroke="#606060" stroke-width=".5" x="0" y="0" width="60" height="60"/>
                <use id="zoomplus" xlink:href="#zoomPlus" x="17" y="9" onmousedown="handleZoom(evt,'in')"/>
                <use id="zoomminus" xlink:href="#zoomMin" x="42" y="9" onmousedown="handleZoom(evt,'out')"/>
                <use id="reset" xlink:href="#resetDef" x="30" y="36" onmousedown="handleReset()"/>
                <g id="arrowUp" xlink:href="#dirArrow" transform="translate(30 24)" onmousedown="handlePan(0,-1)">
                  <use xlink:href="#rim" fill="#404040">
                        <set attributeName="fill" to="#808080" begin="arrowUp.mouseover" end="arrowUp.mouseout"/>
                  </use>
                  <path fill="none" stroke="white" stroke-width="1.5" d="M0,-3.0v7 M-2.5,-0.5L0,-3.0L2.5,-0.5"/>
                </g>
                <g id="arrowRight" xlink:href="#dirArrow" transform="rotate(90) translate(36 -43)" onmousedown="handlePan(1,0)">
                  <use xlink:href="#rim" fill="#404040">
                        <set attributeName="fill" to="#808080" begin="arrowRight.mouseover" end="arrowRight.mouseout"/>
                  </use>
                  <path fill="none" stroke="white" stroke-width="1.5" d="M0,-3.0v7 M-2.5,-0.5L0,-3.0L2.5,-0.5"/>
                </g>
                <g id="arrowDown" xlink:href="#dirArrow" transform="rotate(180) translate(-30 -48)" onmousedown="handlePan(0,1)">
                  <use xlink:href="#rim" fill="#404040">
                        <set attributeName="fill" to="#808080" begin="arrowDown.mouseover" end="arrowDown.mouseout"/>
                  </use>
                  <path fill="none" stroke="white" stroke-width="1.5" d="M0,-3.0v7 M-2.5,-0.5L0,-3.0L2.5,-0.5"/>
                </g>
                <g id="arrowLeft" xlink:href="#dirArrow" transform="rotate(270) translate(-36 17)" onmousedown="handlePan(-1,0)">
                  <use xlink:href="#rim" fill="#404040">
                        <set attributeName="fill" to="#808080" begin="arrowLeft.mouseover" end="arrowLeft.mouseout"/>
                  </use>
                  <path fill="none" stroke="white" stroke-width="1.5" d="M0,-3.0v7 M-2.5,-0.5L0,-3.0L2.5,-0.5"/>
                </g>
        </g>
        <svg viewBox="0 0 15 15" width="100%" height="30px" preserveAspectRatio="xMaxYMin meet">
         <g id="arrow_out" transform="scale(0.3 0.3)">
          <a xlink:href="InputActions_8h__dep__incl_org.svg" target="_base">
           <rect id="button" ry="5" rx="5" y="6" x="6" height="38" width="38"
                fill="#f2f5e9" fill-opacity="0.5" stroke="#606060" stroke-width="1.0"/>
           <path id="arrow"
             d="M 11.500037,31.436501 C 11.940474,20.09759 22.043105,11.32322 32.158766,21.979434 L 37.068811,17.246167 C 37.068811,17.246167 37.088388,32 37.088388,32 L 22.160133,31.978069 C 22.160133,31.978069 26.997745,27.140456 26.997745,27.140456 C 18.528582,18.264221 13.291696,25.230495 11.500037,31.436501 z"
             style="fill:#404040;"/>
          </a>
         </g>
        </svg>
</svg>
