<?xml version="1.0" encoding="UTF-8" standalone="no"?>
<!DOCTYPE svg PUBLIC "-//W3C//DTD SVG 1.1//EN"
 "http://www.w3.org/Graphics/SVG/1.1/DTD/svg11.dtd">
<!-- Generated by graphviz version 2.43.0 (0)
 -->
<!-- Title: /home/runner/work/EX&#45;Display/EX&#45;Display/InputManager.h Pages: 1 -->
<!--zoomable 295 -->
<svg id="main" version="1.1" xmlns="http://www.w3.org/2000/svg" xmlns:xlink="http://www.w3.org/1999/xlink" xml:space="preserve" onload="init(evt)">
<style type="text/css"><![CDATA[
.edge:hover path { stroke: red; }
.edge:hover polygon { stroke: red; fill: red; }
]]></style>
<script type="text/javascript"><![CDATA[
var edges = document.getElementsByTagName('g');
if (edges && edges.length) {
  for (var i=0;i<edges.length;i++) {
    if (edges[i].id.substr(0,4)=='edge') {
      edges[i].setAttribute('class','edge');
    }
  }
}
]]></script>
        <defs>
                <circle id="rim" cx="0" cy="0" r="7"/>
                <circle id="rim2" cx="0" cy="0" r="3.5"/>
                <g id="zoomPlus">
                        <use xlink:href="#rim" fill="#404040">
                                <set attributeName="fill" to="#808080" begin="zoomplus.mouseover" end="zoomplus.mouseout"/>
                        </use>
                        <path d="M-4,0h8M0,-4v8" fill="none" stroke="white" stroke-width="1.5" pointer-events="none"/>
                </g>
                <g id="zoomMin">
                        <use xlink:href="#rim" fill="#404040">
                                <set attributeName="fill" to="#808080" begin="zoomminus.mouseover" end="zoomminus.mouseout"/>
                        </use>
                        <path d="M-4,0h8" fill="none" stroke="white" stroke-width="1.5" pointer-events="none"/>
                </g>
                <g id="dirArrow">
                        <path fill="none" stroke="white" stroke-width="1.5" d="M0,-3.0v7 M-2.5,-0.5L0,-3.0L2.5,-0.5"/>
                </g>
               <g id="resetDef">
                       <use xlink:href="#rim2" fill="#404040">
                               <set attributeName="fill" to="#808080" begin="reset.mouseover" end="reset.mouseout"/>
                       </use>
               </g>
        </defs>

<script type="text/javascript">
var viewWidth = 1692;
var viewHeight = 295;
var sectionId = 'dynsection-1';
</script>
<script xlink:href="svgpan.js"/>
<svg id="graph" class="graph">
<g id="viewport">
<title>/home/runner/work/EX&#45;Display/EX&#45;Display/InputManager.h</title>
<polygon fill="white" stroke="transparent" points="-4,4 -4,-291 1688,-291 1688,4 -4,4"/>
<!-- Node1 -->
<g id="node1" class="node">
<title>Node1</title>
<g id="a_node1"><a xlink:title=" ">
<polygon fill="#bfbfbf" stroke="black" points="1111,-256.5 1111,-286.5 1302,-286.5 1302,-256.5 1111,-256.5"/>
<text text-anchor="start" x="1119" y="-274.5" font-family="Helvetica,sans-Serif" font-size="10.00">/home/runner/work/EX</text>
<text text-anchor="middle" x="1206.5" y="-263.5" font-family="Helvetica,sans-Serif" font-size="10.00">&#45;Display/EX&#45;Display/InputManager.h</text>
</a>
</g>
</g>
<!-- Node2 -->
<g id="node2" class="node">
<title>Node2</title>
<g id="a_node2"><a xlink:href="Configurator_8h.html" target="_top" xlink:title=" ">
<polygon fill="white" stroke="black" points="185.5,-100.5 185.5,-130.5 369.5,-130.5 369.5,-100.5 185.5,-100.5"/>
<text text-anchor="start" x="193.5" y="-118.5" font-family="Helvetica,sans-Serif" font-size="10.00">/home/runner/work/EX</text>
<text text-anchor="middle" x="277.5" y="-107.5" font-family="Helvetica,sans-Serif" font-size="10.00">&#45;Display/EX&#45;Display/Configurator.h</text>
</a>
</g>
</g>
<!-- Node1&#45;&gt;Node2 -->
<g id="edge1" class="edge">
<title>Node1&#45;&gt;Node2</title>
<path fill="none" stroke="midnightblue" d="M1100.72,-257.71C942.67,-237.78 635.89,-195.94 378.5,-142 362.57,-138.66 345.36,-134.52 329.73,-130.55"/>
<polygon fill="midnightblue" stroke="midnightblue" points="1100.56,-261.22 1110.91,-258.99 1101.43,-254.27 1100.56,-261.22"/>
</g>
<!-- Node6 -->
<g id="node6" class="node">
<title>Node6</title>
<g id="a_node6"><a xlink:href="Controller_8h.html" target="_top" xlink:title=" ">
<polygon fill="white" stroke="black" points="853.5,-184 853.5,-214 1025.5,-214 1025.5,-184 853.5,-184"/>
<text text-anchor="start" x="861.5" y="-202" font-family="Helvetica,sans-Serif" font-size="10.00">/home/runner/work/EX</text>
<text text-anchor="middle" x="939.5" y="-191" font-family="Helvetica,sans-Serif" font-size="10.00">&#45;Display/EX&#45;Display/Controller.h</text>
</a>
</g>
</g>
<!-- Node1&#45;&gt;Node6 -->
<g id="edge5" class="edge">
<title>Node1&#45;&gt;Node6</title>
<path fill="none" stroke="midnightblue" d="M1143.61,-253.89C1097.79,-241.79 1036.38,-225.58 992.93,-214.11"/>
<polygon fill="midnightblue" stroke="midnightblue" points="1142.87,-257.32 1153.43,-256.49 1144.66,-250.55 1142.87,-257.32"/>
</g>
<!-- Node9 -->
<g id="node9" class="node">
<title>Node9</title>
<g id="a_node9"><a xlink:href="test__ControllerInputAction_8cpp.html" target="_top" xlink:title=" ">
<polygon fill="white" stroke="black" points="1171,-89.5 1171,-141.5 1338,-141.5 1338,-89.5 1171,-89.5"/>
<text text-anchor="start" x="1179" y="-129.5" font-family="Helvetica,sans-Serif" font-size="10.00">/home/runner/work/EX</text>
<text text-anchor="start" x="1179" y="-118.5" font-family="Helvetica,sans-Serif" font-size="10.00">&#45;Display/EX&#45;Display/test</text>
<text text-anchor="start" x="1179" y="-107.5" font-family="Helvetica,sans-Serif" font-size="10.00">/integration/test_controller</text>
<text text-anchor="middle" x="1254.5" y="-96.5" font-family="Helvetica,sans-Serif" font-size="10.00">/test_ControllerInputAction.cpp</text>
</a>
</g>
</g>
<!-- Node1&#45;&gt;Node9 -->
<g id="edge14" class="edge">
<title>Node1&#45;&gt;Node9</title>
<path fill="none" stroke="midnightblue" d="M1204.23,-246.02C1203.3,-226.96 1203.87,-200.11 1211.5,-178 1216,-164.94 1224.15,-152.16 1232.15,-141.65"/>
<polygon fill="midnightblue" stroke="midnightblue" points="1200.75,-246.5 1204.9,-256.25 1207.73,-246.04 1200.75,-246.5"/>
</g>
<!-- Node12 -->
<g id="node12" class="node">
<title>Node12</title>
<g id="a_node12"><a xlink:href="test__Controller_8cpp.html" target="_top" xlink:title=" ">
<polygon fill="white" stroke="black" points="1356,-89.5 1356,-141.5 1497,-141.5 1497,-89.5 1356,-89.5"/>
<text text-anchor="start" x="1364" y="-129.5" font-family="Helvetica,sans-Serif" font-size="10.00">/home/runner/work/EX</text>
<text text-anchor="start" x="1364" y="-118.5" font-family="Helvetica,sans-Serif" font-size="10.00">&#45;Display/EX&#45;Display/test</text>
<text text-anchor="start" x="1364" y="-107.5" font-family="Helvetica,sans-Serif" font-size="10.00">/unit/test_application/test</text>
<text text-anchor="middle" x="1426.5" y="-96.5" font-family="Helvetica,sans-Serif" font-size="10.00">_Controller.cpp</text>
</a>
</g>
</g>
<!-- Node1&#45;&gt;Node12 -->
<g id="edge15" class="edge">
<title>Node1&#45;&gt;Node12</title>
<path fill="none" stroke="midnightblue" d="M1210.94,-246.22C1215.94,-225.44 1226.06,-196.1 1245.5,-178 1247.71,-175.94 1306.08,-156.29 1355.94,-139.75"/>
<polygon fill="midnightblue" stroke="midnightblue" points="1207.47,-245.68 1208.77,-256.2 1214.31,-247.17 1207.47,-245.68"/>
</g>
<!-- Node13 -->
<g id="node13" class="node">
<title>Node13</title>
<g id="a_node13"><a xlink:href="InputManager_8cpp.html" target="_top" xlink:title=" ">
<polygon fill="white" stroke="black" points="1254,-184 1254,-214 1457,-214 1457,-184 1254,-184"/>
<text text-anchor="start" x="1262" y="-202" font-family="Helvetica,sans-Serif" font-size="10.00">/home/runner/work/EX</text>
<text text-anchor="middle" x="1355.5" y="-191" font-family="Helvetica,sans-Serif" font-size="10.00">&#45;Display/EX&#45;Display/InputManager.cpp</text>
</a>
</g>
</g>
<!-- Node1&#45;&gt;Node13 -->
<g id="edge13" class="edge">
<title>Node1&#45;&gt;Node13</title>
<path fill="none" stroke="midnightblue" d="M1245.54,-252.03C1270.63,-240.16 1302.73,-224.97 1325.76,-214.07"/>
<polygon fill="midnightblue" stroke="midnightblue" points="1243.84,-248.96 1236.29,-256.4 1246.83,-255.29 1243.84,-248.96"/>
</g>
<!-- Node14 -->
<g id="node14" class="node">
<title>Node14</title>
<g id="a_node14"><a xlink:href="test__InputManager_8cpp.html" target="_top" xlink:title=" ">
<polygon fill="white" stroke="black" points="1475,-178.5 1475,-219.5 1684,-219.5 1684,-178.5 1475,-178.5"/>
<text text-anchor="start" x="1483" y="-207.5" font-family="Helvetica,sans-Serif" font-size="10.00">/home/runner/work/EX</text>
<text text-anchor="start" x="1483" y="-196.5" font-family="Helvetica,sans-Serif" font-size="10.00">&#45;Display/EX&#45;Display/test</text>
<text text-anchor="middle" x="1579.5" y="-185.5" font-family="Helvetica,sans-Serif" font-size="10.00">/unit/test_inputs/test_InputManager.cpp</text>
</a>
</g>
</g>
<!-- Node1&#45;&gt;Node14 -->
<g id="edge16" class="edge">
<title>Node1&#45;&gt;Node14</title>
<path fill="none" stroke="midnightblue" d="M1290.69,-254.59C1345.65,-244.2 1417.77,-230.57 1476.2,-219.53"/>
<polygon fill="midnightblue" stroke="midnightblue" points="1289.81,-251.19 1280.64,-256.49 1291.11,-258.07 1289.81,-251.19"/>
</g>
<!-- Node3 -->
<g id="node3" class="node">
<title>Node3</title>
<g id="a_node3"><a xlink:href="Configurator_8cpp.html" target="_top" xlink:title=" ">
<polygon fill="white" stroke="black" points="0,-11.5 0,-41.5 195,-41.5 195,-11.5 0,-11.5"/>
<text text-anchor="start" x="8" y="-29.5" font-family="Helvetica,sans-Serif" font-size="10.00">/home/runner/work/EX</text>
<text text-anchor="middle" x="97.5" y="-18.5" font-family="Helvetica,sans-Serif" font-size="10.00">&#45;Display/EX&#45;Display/Configurator.cpp</text>
</a>
</g>
</g>
<!-- Node2&#45;&gt;Node3 -->
<g id="edge2" class="edge">
<title>Node2&#45;&gt;Node3</title>
<path fill="none" stroke="midnightblue" d="M239.08,-95.93C205.37,-79.64 157.08,-56.3 126.51,-41.52"/>
<polygon fill="midnightblue" stroke="midnightblue" points="237.65,-99.13 248.18,-100.33 240.7,-92.83 237.65,-99.13"/>
</g>
<!-- Node4 -->
<g id="node4" class="node">
<title>Node4</title>
<g id="a_node4"><a xlink:href="EX-Display_8ino.html" target="_top" xlink:title=" ">
<polygon fill="white" stroke="black" points="213.5,-6 213.5,-47 341.5,-47 341.5,-6 213.5,-6"/>
<text text-anchor="start" x="221.5" y="-35" font-family="Helvetica,sans-Serif" font-size="10.00">/home/runner/work/EX</text>
<text text-anchor="start" x="221.5" y="-24" font-family="Helvetica,sans-Serif" font-size="10.00">&#45;Display/EX&#45;Display/EX</text>
<text text-anchor="middle" x="277.5" y="-13" font-family="Helvetica,sans-Serif" font-size="10.00">&#45;Display.ino</text>
</a>
</g>
</g>
<!-- Node2&#45;&gt;Node4 -->
<g id="edge3" class="edge">
<title>Node2&#45;&gt;Node4</title>
<path fill="none" stroke="midnightblue" d="M277.5,-90.04C277.5,-76.47 277.5,-59.81 277.5,-47.1"/>
<polygon fill="midnightblue" stroke="midnightblue" points="274,-90.13 277.5,-100.13 281,-90.13 274,-90.13"/>
</g>
<!-- Node5 -->
<g id="node5" class="node">
<title>Node5</title>
<g id="a_node5"><a xlink:href="test__Configurator_8cpp.html" target="_top" xlink:title=" ">
<polygon fill="white" stroke="black" points="360,-0.5 360,-52.5 501,-52.5 501,-0.5 360,-0.5"/>
<text text-anchor="start" x="368" y="-40.5" font-family="Helvetica,sans-Serif" font-size="10.00">/home/runner/work/EX</text>
<text text-anchor="start" x="368" y="-29.5" font-family="Helvetica,sans-Serif" font-size="10.00">&#45;Display/EX&#45;Display/test</text>
<text text-anchor="start" x="368" y="-18.5" font-family="Helvetica,sans-Serif" font-size="10.00">/unit/test_application/test</text>
<text text-anchor="middle" x="430.5" y="-7.5" font-family="Helvetica,sans-Serif" font-size="10.00">_Configurator.cpp</text>
</a>
</g>
</g>
<!-- Node2&#45;&gt;Node5 -->
<g id="edge4" class="edge">
<title>Node2&#45;&gt;Node5</title>
<path fill="none" stroke="midnightblue" d="M311.13,-95.38C333.26,-82.79 362.45,-66.2 386.42,-52.56"/>
<polygon fill="midnightblue" stroke="midnightblue" points="309.39,-92.34 302.42,-100.33 312.85,-98.43 309.39,-92.34"/>
</g>
<!-- Node6&#45;&gt;Node2 -->
<g id="edge6" class="edge">
<title>Node6&#45;&gt;Node2</title>
<path fill="none" stroke="midnightblue" d="M843.15,-192.72C730.92,-185.58 540.24,-170.33 378.5,-142 361.58,-139.04 343.31,-134.76 327.02,-130.55"/>
<polygon fill="midnightblue" stroke="midnightblue" points="843.22,-196.24 853.42,-193.37 843.66,-189.25 843.22,-196.24"/>
</g>
<!-- Node7 -->
<g id="node7" class="node">
<title>Node7</title>
<g id="a_node7"><a xlink:href="Controller_8cpp.html" target="_top" xlink:title=" ">
<polygon fill="white" stroke="black" points="970,-100.5 970,-130.5 1153,-130.5 1153,-100.5 970,-100.5"/>
<text text-anchor="start" x="978" y="-118.5" font-family="Helvetica,sans-Serif" font-size="10.00">/home/runner/work/EX</text>
<text text-anchor="middle" x="1061.5" y="-107.5" font-family="Helvetica,sans-Serif" font-size="10.00">&#45;Display/EX&#45;Display/Controller.cpp</text>
</a>
</g>
</g>
<!-- Node6&#45;&gt;Node7 -->
<g id="edge7" class="edge">
<title>Node6&#45;&gt;Node7</title>
<path fill="none" stroke="midnightblue" d="M968.82,-178.42C990.89,-163.67 1020.62,-143.81 1040.39,-130.6"/>
<polygon fill="midnightblue" stroke="midnightblue" points="966.84,-175.52 960.47,-183.99 970.73,-181.35 966.84,-175.52"/>
</g>
<!-- Node8 -->
<g id="node8" class="node">
<title>Node8</title>
<g id="a_node8"><a xlink:href="test__ControllerDisplayUpdate_8cpp.html" target="_top" xlink:title=" ">
<polygon fill="white" stroke="black" points="387.5,-89.5 387.5,-141.5 571.5,-141.5 571.5,-89.5 387.5,-89.5"/>
<text text-anchor="start" x="395.5" y="-129.5" font-family="Helvetica,sans-Serif" font-size="10.00">/home/runner/work/EX</text>
<text text-anchor="start" x="395.5" y="-118.5" font-family="Helvetica,sans-Serif" font-size="10.00">&#45;Display/EX&#45;Display/test</text>
<text text-anchor="start" x="395.5" y="-107.5" font-family="Helvetica,sans-Serif" font-size="10.00">/integration/test_controller</text>
<text text-anchor="middle" x="479.5" y="-96.5" font-family="Helvetica,sans-Serif" font-size="10.00">/test_ControllerDisplayUpdate.cpp</text>
</a>
</g>
</g>
<!-- Node6&#45;&gt;Node8 -->
<g id="edge8" class="edge">
<title>Node6&#45;&gt;Node8</title>
<path fill="none" stroke="midnightblue" d="M843.11,-185.43C770.58,-175.38 668.9,-160.01 580.5,-142 577.58,-141.4 574.61,-140.78 571.62,-140.13"/>
<polygon fill="midnightblue" stroke="midnightblue" points="842.76,-188.92 853.14,-186.82 843.72,-181.98 842.76,-188.92"/>
</g>
<!-- Node6&#45;&gt;Node9 -->
<g id="edge9" class="edge">
<title>Node6&#45;&gt;Node9</title>
<path fill="none" stroke="midnightblue" d="M1006.36,-181.51C1050.47,-170.54 1109.5,-155.69 1161.5,-142 1164.58,-141.19 1167.71,-140.36 1170.87,-139.52"/>
<polygon fill="midnightblue" stroke="midnightblue" points="1005.48,-178.13 996.62,-183.93 1007.17,-184.92 1005.48,-178.13"/>
</g>
<!-- Node10 -->
<g id="node10" class="node">
<title>Node10</title>
<g id="a_node10"><a xlink:href="test__ControllerScreenCreation_8cpp.html" target="_top" xlink:title=" ">
<polygon fill="white" stroke="black" points="589.5,-89.5 589.5,-141.5 775.5,-141.5 775.5,-89.5 589.5,-89.5"/>
<text text-anchor="start" x="597.5" y="-129.5" font-family="Helvetica,sans-Serif" font-size="10.00">/home/runner/work/EX</text>
<text text-anchor="start" x="597.5" y="-118.5" font-family="Helvetica,sans-Serif" font-size="10.00">&#45;Display/EX&#45;Display/test</text>
<text text-anchor="start" x="597.5" y="-107.5" font-family="Helvetica,sans-Serif" font-size="10.00">/integration/test_controller</text>
<text text-anchor="middle" x="682.5" y="-96.5" font-family="Helvetica,sans-Serif" font-size="10.00">/test_ControllerScreenCreation.cpp</text>
</a>
</g>
</g>
<!-- Node6&#45;&gt;Node10 -->
<g id="edge10" class="edge">
<title>Node6&#45;&gt;Node10</title>
<path fill="none" stroke="midnightblue" d="M885.5,-180.88C849.5,-169.46 801.59,-154.27 761.36,-141.51"/>
<polygon fill="midnightblue" stroke="midnightblue" points="884.73,-184.3 895.32,-183.99 886.85,-177.63 884.73,-184.3"/>
</g>
<!-- Node11 -->
<g id="node11" class="node">
<title>Node11</title>
<g id="a_node11"><a xlink:href="test__ValidDisplayScreen_8cpp.html" target="_top" xlink:title=" ">
<polygon fill="white" stroke="black" points="793.5,-89.5 793.5,-141.5 951.5,-141.5 951.5,-89.5 793.5,-89.5"/>
<text text-anchor="start" x="801.5" y="-129.5" font-family="Helvetica,sans-Serif" font-size="10.00">/home/runner/work/EX</text>
<text text-anchor="start" x="801.5" y="-118.5" font-family="Helvetica,sans-Serif" font-size="10.00">&#45;Display/EX&#45;Display/test</text>
<text text-anchor="start" x="801.5" y="-107.5" font-family="Helvetica,sans-Serif" font-size="10.00">/integration/test_display</text>
<text text-anchor="middle" x="872.5" y="-96.5" font-family="Helvetica,sans-Serif" font-size="10.00">/test_ValidDisplayScreen.cpp</text>
</a>
</g>
</g>
<!-- Node6&#45;&gt;Node11 -->
<g id="edge11" class="edge">
<title>Node6&#45;&gt;Node11</title>
<path fill="none" stroke="midnightblue" d="M921.31,-175.87C912.63,-165.32 902.21,-152.65 893.23,-141.72"/>
<polygon fill="midnightblue" stroke="midnightblue" points="918.78,-178.3 927.83,-183.8 924.18,-173.86 918.78,-178.3"/>
</g>
<!-- Node6&#45;&gt;Node12 -->
<g id="edge12" class="edge">
<title>Node6&#45;&gt;Node12</title>
<path fill="none" stroke="midnightblue" d="M1036.06,-189.58C1119.28,-181.17 1242.28,-166.01 1347.5,-142 1350.17,-141.39 1352.88,-140.73 1355.61,-140.03"/>
<polygon fill="midnightblue" stroke="midnightblue" points="1035.46,-186.12 1025.86,-190.59 1036.16,-193.09 1035.46,-186.12"/>
</g>
</g>
</svg>
        <g id="navigator" transform="translate(0 0)" fill="#404254">
                <rect fill="#f2f5e9" fill-opacity="0.5" stroke="#606060" stroke-width=".5" x="0" y="0" width="60" height="60"/>
                <use id="zoomplus" xlink:href="#zoomPlus" x="17" y="9" onmousedown="handleZoom(evt,'in')"/>
                <use id="zoomminus" xlink:href="#zoomMin" x="42" y="9" onmousedown="handleZoom(evt,'out')"/>
                <use id="reset" xlink:href="#resetDef" x="30" y="36" onmousedown="handleReset()"/>
                <g id="arrowUp" xlink:href="#dirArrow" transform="translate(30 24)" onmousedown="handlePan(0,-1)">
                  <use xlink:href="#rim" fill="#404040">
                        <set attributeName="fill" to="#808080" begin="arrowUp.mouseover" end="arrowUp.mouseout"/>
                  </use>
                  <path fill="none" stroke="white" stroke-width="1.5" d="M0,-3.0v7 M-2.5,-0.5L0,-3.0L2.5,-0.5"/>
                </g>
                <g id="arrowRight" xlink:href="#dirArrow" transform="rotate(90) translate(36 -43)" onmousedown="handlePan(1,0)">
                  <use xlink:href="#rim" fill="#404040">
                        <set attributeName="fill" to="#808080" begin="arrowRight.mouseover" end="arrowRight.mouseout"/>
                  </use>
                  <path fill="none" stroke="white" stroke-width="1.5" d="M0,-3.0v7 M-2.5,-0.5L0,-3.0L2.5,-0.5"/>
                </g>
                <g id="arrowDown" xlink:href="#dirArrow" transform="rotate(180) translate(-30 -48)" onmousedown="handlePan(0,1)">
                  <use xlink:href="#rim" fill="#404040">
                        <set attributeName="fill" to="#808080" begin="arrowDown.mouseover" end="arrowDown.mouseout"/>
                  </use>
                  <path fill="none" stroke="white" stroke-width="1.5" d="M0,-3.0v7 M-2.5,-0.5L0,-3.0L2.5,-0.5"/>
                </g>
                <g id="arrowLeft" xlink:href="#dirArrow" transform="rotate(270) translate(-36 17)" onmousedown="handlePan(-1,0)">
                  <use xlink:href="#rim" fill="#404040">
                        <set attributeName="fill" to="#808080" begin="arrowLeft.mouseover" end="arrowLeft.mouseout"/>
                  </use>
                  <path fill="none" stroke="white" stroke-width="1.5" d="M0,-3.0v7 M-2.5,-0.5L0,-3.0L2.5,-0.5"/>
                </g>
        </g>
        <svg viewBox="0 0 15 15" width="100%" height="30px" preserveAspectRatio="xMaxYMin meet">
         <g id="arrow_out" transform="scale(0.3 0.3)">
          <a xlink:href="InputManager_8h__dep__incl_org.svg" target="_base">
           <rect id="button" ry="5" rx="5" y="6" x="6" height="38" width="38"
                fill="#f2f5e9" fill-opacity="0.5" stroke="#606060" stroke-width="1.0"/>
           <path id="arrow"
             d="M 11.500037,31.436501 C 11.940474,20.09759 22.043105,11.32322 32.158766,21.979434 L 37.068811,17.246167 C 37.068811,17.246167 37.088388,32 37.088388,32 L 22.160133,31.978069 C 22.160133,31.978069 26.997745,27.140456 26.997745,27.140456 C 18.528582,18.264221 13.291696,25.230495 11.500037,31.436501 z"
             style="fill:#404040;"/>
          </a>
         </g>
        </svg>
</svg>
