<?xml version="1.0" encoding="UTF-8" standalone="no"?>
<!DOCTYPE svg PUBLIC "-//W3C//DTD SVG 1.1//EN"
 "http://www.w3.org/Graphics/SVG/1.1/DTD/svg11.dtd">
<!-- Generated by graphviz version 2.43.0 (0)
 -->
<!-- Title: /home/runner/work/EX&#45;Display/EX&#45;Display/InputManager.h Pages: 1 -->
<svg width="3388pt" height="306pt"
 viewBox="0.00 0.00 3388.00 306.00" xmlns="http://www.w3.org/2000/svg" xmlns:xlink="http://www.w3.org/1999/xlink">
<g id="graph0" class="graph" transform="scale(1 1) rotate(0) translate(4 302)">
<title>/home/runner/work/EX&#45;Display/EX&#45;Display/InputManager.h</title>
<polygon fill="white" stroke="transparent" points="-4,4 -4,-302 3384,-302 3384,4 -4,4"/>
<!-- Node1 -->
<g id="node1" class="node">
<title>Node1</title>
<g id="a_node1"><a xlink:title=" ">
<polygon fill="#bfbfbf" stroke="black" points="1088,-267.5 1088,-297.5 1279,-297.5 1279,-267.5 1088,-267.5"/>
<text text-anchor="start" x="1096" y="-285.5" font-family="Helvetica,sans-Serif" font-size="10.00">/home/runner/work/EX</text>
<text text-anchor="middle" x="1183.5" y="-274.5" font-family="Helvetica,sans-Serif" font-size="10.00">&#45;Display/EX&#45;Display/InputManager.h</text>
</a>
</g>
</g>
<!-- Node2 -->
<g id="node2" class="node">
<title>Node2</title>
<g id="a_node2"><a xlink:href="Configurator_8h.html" target="_top" xlink:title=" ">
<polygon fill="white" stroke="black" points="271.5,-100.5 271.5,-130.5 455.5,-130.5 455.5,-100.5 271.5,-100.5"/>
<text text-anchor="start" x="279.5" y="-118.5" font-family="Helvetica,sans-Serif" font-size="10.00">/home/runner/work/EX</text>
<text text-anchor="middle" x="363.5" y="-107.5" font-family="Helvetica,sans-Serif" font-size="10.00">&#45;Display/EX&#45;Display/Configurator.h</text>
</a>
</g>
</g>
<!-- Node1&#45;&gt;Node2 -->
<g id="edge1" class="edge">
<title>Node1&#45;&gt;Node2</title>
<path fill="none" stroke="midnightblue" d="M1080.06,-265.88C1020.18,-256.5 943.43,-243.92 875.5,-231 691.89,-196.09 646.47,-184.66 464.5,-142 449.27,-138.43 432.8,-134.36 417.67,-130.54"/>
<polygon fill="midnightblue" stroke="midnightblue" points="1079.86,-269.39 1090.28,-267.48 1080.94,-262.48 1079.86,-269.39"/>
</g>
<!-- Node6 -->
<g id="node6" class="node">
<title>Node6</title>
<g id="a_node6"><a xlink:href="Controller_8h.html" target="_top" xlink:title=" ">
<polygon fill="white" stroke="black" points="884.5,-189.5 884.5,-219.5 1056.5,-219.5 1056.5,-189.5 884.5,-189.5"/>
<text text-anchor="start" x="892.5" y="-207.5" font-family="Helvetica,sans-Serif" font-size="10.00">/home/runner/work/EX</text>
<text text-anchor="middle" x="970.5" y="-196.5" font-family="Helvetica,sans-Serif" font-size="10.00">&#45;Display/EX&#45;Display/Controller.h</text>
</a>
</g>
</g>
<!-- Node1&#45;&gt;Node6 -->
<g id="edge5" class="edge">
<title>Node1&#45;&gt;Node6</title>
<path fill="none" stroke="midnightblue" d="M1134.15,-263.89C1096.35,-250.4 1044.91,-232.05 1009.85,-219.54"/>
<polygon fill="midnightblue" stroke="midnightblue" points="1133.34,-267.32 1143.94,-267.38 1135.69,-260.73 1133.34,-267.32"/>
</g>
<!-- Node9 -->
<g id="node9" class="node">
<title>Node9</title>
<g id="a_node9"><a xlink:href="test__ControllerInputAction_8cpp.html" target="_top" xlink:title=" ">
<polygon fill="white" stroke="black" points="1081,-89.5 1081,-141.5 1248,-141.5 1248,-89.5 1081,-89.5"/>
<text text-anchor="start" x="1089" y="-129.5" font-family="Helvetica,sans-Serif" font-size="10.00">/home/runner/work/EX</text>
<text text-anchor="start" x="1089" y="-118.5" font-family="Helvetica,sans-Serif" font-size="10.00">&#45;Display/EX&#45;Display/test</text>
<text text-anchor="start" x="1089" y="-107.5" font-family="Helvetica,sans-Serif" font-size="10.00">/integration/test_Controller</text>
<text text-anchor="middle" x="1164.5" y="-96.5" font-family="Helvetica,sans-Serif" font-size="10.00">/test_ControllerInputAction.cpp</text>
</a>
</g>
</g>
<!-- Node1&#45;&gt;Node9 -->
<g id="edge16" class="edge">
<title>Node1&#45;&gt;Node9</title>
<path fill="none" stroke="midnightblue" d="M1180.69,-257.11C1177.13,-226.15 1171.01,-173.01 1167.4,-141.68"/>
<polygon fill="midnightblue" stroke="midnightblue" points="1177.26,-257.9 1181.88,-267.43 1184.21,-257.1 1177.26,-257.9"/>
</g>
<!-- Node11 -->
<g id="node11" class="node">
<title>Node11</title>
<g id="a_node11"><a xlink:href="test__Controller_8cpp.html" target="_top" xlink:title=" ">
<polygon fill="white" stroke="black" points="1266,-89.5 1266,-141.5 1401,-141.5 1401,-89.5 1266,-89.5"/>
<text text-anchor="start" x="1274" y="-129.5" font-family="Helvetica,sans-Serif" font-size="10.00">/home/runner/work/EX</text>
<text text-anchor="start" x="1274" y="-118.5" font-family="Helvetica,sans-Serif" font-size="10.00">&#45;Display/EX&#45;Display/test</text>
<text text-anchor="start" x="1274" y="-107.5" font-family="Helvetica,sans-Serif" font-size="10.00">/unit/test_Controller/test</text>
<text text-anchor="middle" x="1333.5" y="-96.5" font-family="Helvetica,sans-Serif" font-size="10.00">_Controller.cpp</text>
</a>
</g>
</g>
<!-- Node1&#45;&gt;Node11 -->
<g id="edge30" class="edge">
<title>Node1&#45;&gt;Node11</title>
<path fill="none" stroke="midnightblue" d="M1187.35,-257.31C1192.04,-234.6 1201.89,-200.8 1221.5,-178 1234.45,-162.95 1252.03,-150.9 1269.42,-141.6"/>
<polygon fill="midnightblue" stroke="midnightblue" points="1183.9,-256.7 1185.5,-267.18 1190.78,-258 1183.9,-256.7"/>
</g>
<!-- Node12 -->
<g id="node12" class="node">
<title>Node12</title>
<g id="a_node12"><a xlink:href="CreateUserDevices_8h.html" target="_top" xlink:title=" ">
<polygon fill="white" stroke="black" points="127.5,-184 127.5,-225 297.5,-225 297.5,-184 127.5,-184"/>
<text text-anchor="start" x="135.5" y="-213" font-family="Helvetica,sans-Serif" font-size="10.00">/home/runner/work/EX</text>
<text text-anchor="start" x="135.5" y="-202" font-family="Helvetica,sans-Serif" font-size="10.00">&#45;Display/EX&#45;Display/CreateUser</text>
<text text-anchor="middle" x="212.5" y="-191" font-family="Helvetica,sans-Serif" font-size="10.00">Devices.h</text>
</a>
</g>
</g>
<!-- Node1&#45;&gt;Node12 -->
<g id="edge12" class="edge">
<title>Node1&#45;&gt;Node12</title>
<path fill="none" stroke="midnightblue" d="M1077.54,-273.21C883.58,-258.03 475.14,-226.06 297.75,-212.17"/>
<polygon fill="midnightblue" stroke="midnightblue" points="1077.5,-276.71 1087.74,-274 1078.04,-269.74 1077.5,-276.71"/>
</g>
<!-- Node14 -->
<g id="node14" class="node">
<title>Node14</title>
<g id="a_node14"><a xlink:href="InputManager_8cpp.html" target="_top" xlink:title=" ">
<polygon fill="white" stroke="black" points="1231,-189.5 1231,-219.5 1434,-219.5 1434,-189.5 1231,-189.5"/>
<text text-anchor="start" x="1239" y="-207.5" font-family="Helvetica,sans-Serif" font-size="10.00">/home/runner/work/EX</text>
<text text-anchor="middle" x="1332.5" y="-196.5" font-family="Helvetica,sans-Serif" font-size="10.00">&#45;Display/EX&#45;Display/InputManager.cpp</text>
</a>
</g>
</g>
<!-- Node1&#45;&gt;Node14 -->
<g id="edge15" class="edge">
<title>Node1&#45;&gt;Node14</title>
<path fill="none" stroke="midnightblue" d="M1220.41,-262.67C1246.6,-249.32 1281.18,-231.68 1304.97,-219.54"/>
<polygon fill="midnightblue" stroke="midnightblue" points="1218.49,-259.72 1211.18,-267.38 1221.68,-265.96 1218.49,-259.72"/>
</g>
<!-- Node15 -->
<g id="node15" class="node">
<title>Node15</title>
<g id="a_node15"><a xlink:href="MockDisplayInputMethods_8h.html" target="_top" xlink:title=" ">
<polygon fill="white" stroke="black" points="2143.5,-184 2143.5,-225 2337.5,-225 2337.5,-184 2143.5,-184"/>
<text text-anchor="start" x="2151.5" y="-213" font-family="Helvetica,sans-Serif" font-size="10.00">/home/runner/work/EX</text>
<text text-anchor="start" x="2151.5" y="-202" font-family="Helvetica,sans-Serif" font-size="10.00">&#45;Display/EX&#45;Display/test</text>
<text text-anchor="middle" x="2240.5" y="-191" font-family="Helvetica,sans-Serif" font-size="10.00">/mocks/MockDisplayInputMethods.h</text>
</a>
</g>
</g>
<!-- Node1&#45;&gt;Node15 -->
<g id="edge17" class="edge">
<title>Node1&#45;&gt;Node15</title>
<path fill="none" stroke="midnightblue" d="M1289.36,-273.89C1494.78,-259.12 1944.67,-226.77 2143.14,-212.5"/>
<polygon fill="midnightblue" stroke="midnightblue" points="1288.89,-270.41 1279.17,-274.62 1289.39,-277.4 1288.89,-270.41"/>
</g>
<!-- Node28 -->
<g id="node28" class="node">
<title>Node28</title>
<g id="a_node28"><a xlink:href="test__InputManager_8cpp.html" target="_top" xlink:title=" ">
<polygon fill="white" stroke="black" points="2355.5,-178.5 2355.5,-230.5 2489.5,-230.5 2489.5,-178.5 2355.5,-178.5"/>
<text text-anchor="start" x="2363.5" y="-218.5" font-family="Helvetica,sans-Serif" font-size="10.00">/home/runner/work/EX</text>
<text text-anchor="start" x="2363.5" y="-207.5" font-family="Helvetica,sans-Serif" font-size="10.00">&#45;Display/EX&#45;Display/test</text>
<text text-anchor="start" x="2363.5" y="-196.5" font-family="Helvetica,sans-Serif" font-size="10.00">/unit/test_InputManager</text>
<text text-anchor="middle" x="2422.5" y="-185.5" font-family="Helvetica,sans-Serif" font-size="10.00">/test_InputManager.cpp</text>
</a>
</g>
</g>
<!-- Node1&#45;&gt;Node28 -->
<g id="edge31" class="edge">
<title>Node1&#45;&gt;Node28</title>
<path fill="none" stroke="midnightblue" d="M1289.4,-280.69C1536.54,-278.18 2145.61,-268.29 2346.5,-231 2349.37,-230.47 2352.29,-229.85 2355.21,-229.16"/>
<polygon fill="midnightblue" stroke="midnightblue" points="1289.3,-277.19 1279.33,-280.79 1289.37,-284.19 1289.3,-277.19"/>
</g>
<!-- Node3 -->
<g id="node3" class="node">
<title>Node3</title>
<g id="a_node3"><a xlink:href="Configurator_8cpp.html" target="_top" xlink:title=" ">
<polygon fill="white" stroke="black" points="99,-11.5 99,-41.5 294,-41.5 294,-11.5 99,-11.5"/>
<text text-anchor="start" x="107" y="-29.5" font-family="Helvetica,sans-Serif" font-size="10.00">/home/runner/work/EX</text>
<text text-anchor="middle" x="196.5" y="-18.5" font-family="Helvetica,sans-Serif" font-size="10.00">&#45;Display/EX&#45;Display/Configurator.cpp</text>
</a>
</g>
</g>
<!-- Node2&#45;&gt;Node3 -->
<g id="edge2" class="edge">
<title>Node2&#45;&gt;Node3</title>
<path fill="none" stroke="midnightblue" d="M327.05,-95.51C295.81,-79.24 251.53,-56.17 223.41,-41.52"/>
<polygon fill="midnightblue" stroke="midnightblue" points="325.81,-98.81 336.3,-100.33 329.05,-92.6 325.81,-98.81"/>
</g>
<!-- Node4 -->
<g id="node4" class="node">
<title>Node4</title>
<g id="a_node4"><a xlink:href="EX-Display_8ino.html" target="_top" xlink:title=" ">
<polygon fill="white" stroke="black" points="464.5,-6 464.5,-47 592.5,-47 592.5,-6 464.5,-6"/>
<text text-anchor="start" x="472.5" y="-35" font-family="Helvetica,sans-Serif" font-size="10.00">/home/runner/work/EX</text>
<text text-anchor="start" x="472.5" y="-24" font-family="Helvetica,sans-Serif" font-size="10.00">&#45;Display/EX&#45;Display/EX</text>
<text text-anchor="middle" x="528.5" y="-13" font-family="Helvetica,sans-Serif" font-size="10.00">&#45;Display.ino</text>
</a>
</g>
</g>
<!-- Node2&#45;&gt;Node4 -->
<g id="edge3" class="edge">
<title>Node2&#45;&gt;Node4</title>
<path fill="none" stroke="midnightblue" d="M399.56,-95.49C426.78,-81.13 464.01,-61.51 491.47,-47.03"/>
<polygon fill="midnightblue" stroke="midnightblue" points="397.59,-92.57 390.38,-100.33 400.86,-98.76 397.59,-92.57"/>
</g>
<!-- Node5 -->
<g id="node5" class="node">
<title>Node5</title>
<g id="a_node5"><a xlink:href="test__Configurator_8cpp.html" target="_top" xlink:title=" ">
<polygon fill="white" stroke="black" points="312.5,-0.5 312.5,-52.5 446.5,-52.5 446.5,-0.5 312.5,-0.5"/>
<text text-anchor="start" x="320.5" y="-40.5" font-family="Helvetica,sans-Serif" font-size="10.00">/home/runner/work/EX</text>
<text text-anchor="start" x="320.5" y="-29.5" font-family="Helvetica,sans-Serif" font-size="10.00">&#45;Display/EX&#45;Display/test</text>
<text text-anchor="start" x="320.5" y="-18.5" font-family="Helvetica,sans-Serif" font-size="10.00">/unit/test_Configurator</text>
<text text-anchor="middle" x="379.5" y="-7.5" font-family="Helvetica,sans-Serif" font-size="10.00">/test_Configurator.cpp</text>
</a>
</g>
</g>
<!-- Node2&#45;&gt;Node5 -->
<g id="edge4" class="edge">
<title>Node2&#45;&gt;Node5</title>
<path fill="none" stroke="midnightblue" d="M367.97,-90.2C370.11,-78.54 372.68,-64.58 374.85,-52.8"/>
<polygon fill="midnightblue" stroke="midnightblue" points="364.51,-89.67 366.14,-100.13 371.39,-90.93 364.51,-89.67"/>
</g>
<!-- Node6&#45;&gt;Node2 -->
<g id="edge6" class="edge">
<title>Node6&#45;&gt;Node2</title>
<path fill="none" stroke="midnightblue" d="M874.5,-195.47C772.32,-186.08 606.16,-168.38 464.5,-142 447.88,-138.9 429.92,-134.67 413.83,-130.54"/>
<polygon fill="midnightblue" stroke="midnightblue" points="874.22,-198.96 884.5,-196.38 874.85,-191.99 874.22,-198.96"/>
</g>
<!-- Node7 -->
<g id="node7" class="node">
<title>Node7</title>
<g id="a_node7"><a xlink:href="Controller_8cpp.html" target="_top" xlink:title=" ">
<polygon fill="white" stroke="black" points="474,-100.5 474,-130.5 657,-130.5 657,-100.5 474,-100.5"/>
<text text-anchor="start" x="482" y="-118.5" font-family="Helvetica,sans-Serif" font-size="10.00">/home/runner/work/EX</text>
<text text-anchor="middle" x="565.5" y="-107.5" font-family="Helvetica,sans-Serif" font-size="10.00">&#45;Display/EX&#45;Display/Controller.cpp</text>
</a>
</g>
</g>
<!-- Node6&#45;&gt;Node7 -->
<g id="edge7" class="edge">
<title>Node6&#45;&gt;Node7</title>
<path fill="none" stroke="midnightblue" d="M885.97,-187.52C824.84,-175.69 740.36,-158.79 666.5,-142 651.07,-138.49 634.39,-134.4 619.11,-130.54"/>
<polygon fill="midnightblue" stroke="midnightblue" points="885.47,-190.99 895.95,-189.45 886.8,-184.12 885.47,-190.99"/>
</g>
<!-- Node8 -->
<g id="node8" class="node">
<title>Node8</title>
<g id="a_node8"><a xlink:href="test__ControllerDisplayUpdate_8cpp.html" target="_top" xlink:title=" ">
<polygon fill="white" stroke="black" points="675.5,-89.5 675.5,-141.5 859.5,-141.5 859.5,-89.5 675.5,-89.5"/>
<text text-anchor="start" x="683.5" y="-129.5" font-family="Helvetica,sans-Serif" font-size="10.00">/home/runner/work/EX</text>
<text text-anchor="start" x="683.5" y="-118.5" font-family="Helvetica,sans-Serif" font-size="10.00">&#45;Display/EX&#45;Display/test</text>
<text text-anchor="start" x="683.5" y="-107.5" font-family="Helvetica,sans-Serif" font-size="10.00">/integration/test_Controller</text>
<text text-anchor="middle" x="767.5" y="-96.5" font-family="Helvetica,sans-Serif" font-size="10.00">/test_ControllerDisplayUpdate.cpp</text>
</a>
</g>
</g>
<!-- Node6&#45;&gt;Node8 -->
<g id="edge8" class="edge">
<title>Node6&#45;&gt;Node8</title>
<path fill="none" stroke="midnightblue" d="M928.2,-185.37C898.59,-172.68 858.64,-155.56 825.98,-141.56"/>
<polygon fill="midnightblue" stroke="midnightblue" points="926.86,-188.61 937.43,-189.33 929.62,-182.17 926.86,-188.61"/>
</g>
<!-- Node6&#45;&gt;Node9 -->
<g id="edge9" class="edge">
<title>Node6&#45;&gt;Node9</title>
<path fill="none" stroke="midnightblue" d="M1011.29,-185.21C1039.55,-172.53 1077.53,-155.5 1108.61,-141.56"/>
<polygon fill="midnightblue" stroke="midnightblue" points="1009.79,-182.04 1002.1,-189.33 1012.66,-188.43 1009.79,-182.04"/>
</g>
<!-- Node10 -->
<g id="node10" class="node">
<title>Node10</title>
<g id="a_node10"><a xlink:href="test__ControllerScreenCreation_8cpp.html" target="_top" xlink:title=" ">
<polygon fill="white" stroke="black" points="877.5,-89.5 877.5,-141.5 1063.5,-141.5 1063.5,-89.5 877.5,-89.5"/>
<text text-anchor="start" x="885.5" y="-129.5" font-family="Helvetica,sans-Serif" font-size="10.00">/home/runner/work/EX</text>
<text text-anchor="start" x="885.5" y="-118.5" font-family="Helvetica,sans-Serif" font-size="10.00">&#45;Display/EX&#45;Display/test</text>
<text text-anchor="start" x="885.5" y="-107.5" font-family="Helvetica,sans-Serif" font-size="10.00">/integration/test_Controller</text>
<text text-anchor="middle" x="970.5" y="-96.5" font-family="Helvetica,sans-Serif" font-size="10.00">/test_ControllerScreenCreation.cpp</text>
</a>
</g>
</g>
<!-- Node6&#45;&gt;Node10 -->
<g id="edge10" class="edge">
<title>Node6&#45;&gt;Node10</title>
<path fill="none" stroke="midnightblue" d="M970.5,-178.85C970.5,-167.26 970.5,-153.46 970.5,-141.8"/>
<polygon fill="midnightblue" stroke="midnightblue" points="967,-179.13 970.5,-189.13 974,-179.13 967,-179.13"/>
</g>
<!-- Node6&#45;&gt;Node11 -->
<g id="edge11" class="edge">
<title>Node6&#45;&gt;Node11</title>
<path fill="none" stroke="midnightblue" d="M1056.67,-187.49C1113.74,-176.27 1190.05,-160.09 1256.5,-142 1259.49,-141.19 1262.53,-140.32 1265.6,-139.43"/>
<polygon fill="midnightblue" stroke="midnightblue" points="1055.75,-184.11 1046.61,-189.46 1057.09,-190.98 1055.75,-184.11"/>
</g>
<!-- Node12&#45;&gt;Node3 -->
<g id="edge13" class="edge">
<title>Node12&#45;&gt;Node3</title>
<path fill="none" stroke="midnightblue" d="M209.81,-173.94C206.32,-135.56 200.38,-70.13 197.78,-41.55"/>
<polygon fill="midnightblue" stroke="midnightblue" points="206.34,-174.35 210.73,-183.99 213.31,-173.72 206.34,-174.35"/>
</g>
<!-- Node13 -->
<g id="node13" class="node">
<title>Node13</title>
<g id="a_node13"><a xlink:href="test__CompilerCreation_8cpp.html" target="_top" xlink:title=" ">
<polygon fill="white" stroke="black" points="0,-89.5 0,-141.5 185,-141.5 185,-89.5 0,-89.5"/>
<text text-anchor="start" x="8" y="-129.5" font-family="Helvetica,sans-Serif" font-size="10.00">/home/runner/work/EX</text>
<text text-anchor="start" x="8" y="-118.5" font-family="Helvetica,sans-Serif" font-size="10.00">&#45;Display/EX&#45;Display/test</text>
<text text-anchor="start" x="8" y="-107.5" font-family="Helvetica,sans-Serif" font-size="10.00">/integration/test_CompilerCreation</text>
<text text-anchor="middle" x="92.5" y="-96.5" font-family="Helvetica,sans-Serif" font-size="10.00">/test_CompilerCreation.cpp</text>
</a>
</g>
</g>
<!-- Node12&#45;&gt;Node13 -->
<g id="edge14" class="edge">
<title>Node12&#45;&gt;Node13</title>
<path fill="none" stroke="midnightblue" d="M177.12,-177.85C161.33,-166.4 142.79,-152.96 127.1,-141.58"/>
<polygon fill="midnightblue" stroke="midnightblue" points="175.42,-180.94 185.57,-183.98 179.53,-175.27 175.42,-180.94"/>
</g>
<!-- Node16 -->
<g id="node16" class="node">
<title>Node16</title>
<g id="a_node16"><a xlink:href="integration_2test__Controller_2test__main_8cpp.html" target="_top" xlink:title=" ">
<polygon fill="white" stroke="black" points="1419.5,-89.5 1419.5,-141.5 1567.5,-141.5 1567.5,-89.5 1419.5,-89.5"/>
<text text-anchor="start" x="1427.5" y="-129.5" font-family="Helvetica,sans-Serif" font-size="10.00">/home/runner/work/EX</text>
<text text-anchor="start" x="1427.5" y="-118.5" font-family="Helvetica,sans-Serif" font-size="10.00">&#45;Display/EX&#45;Display/test</text>
<text text-anchor="start" x="1427.5" y="-107.5" font-family="Helvetica,sans-Serif" font-size="10.00">/integration/test_Controller</text>
<text text-anchor="middle" x="1493.5" y="-96.5" font-family="Helvetica,sans-Serif" font-size="10.00">/test_main.cpp</text>
</a>
</g>
</g>
<!-- Node15&#45;&gt;Node16 -->
<g id="edge18" class="edge">
<title>Node15&#45;&gt;Node16</title>
<path fill="none" stroke="midnightblue" d="M2133.27,-200.34C2001.19,-194.91 1770.48,-180.36 1576.5,-142 1573.54,-141.42 1570.54,-140.77 1567.52,-140.07"/>
<polygon fill="midnightblue" stroke="midnightblue" points="2133.26,-203.85 2143.39,-200.75 2133.54,-196.85 2133.26,-203.85"/>
</g>
<!-- Node17 -->
<g id="node17" class="node">
<title>Node17</title>
<g id="a_node17"><a xlink:href="integration_2test__Display_2test__main_8cpp.html" target="_top" xlink:title=" ">
<polygon fill="white" stroke="black" points="1586,-89.5 1586,-141.5 1723,-141.5 1723,-89.5 1586,-89.5"/>
<text text-anchor="start" x="1594" y="-129.5" font-family="Helvetica,sans-Serif" font-size="10.00">/home/runner/work/EX</text>
<text text-anchor="start" x="1594" y="-118.5" font-family="Helvetica,sans-Serif" font-size="10.00">&#45;Display/EX&#45;Display/test</text>
<text text-anchor="start" x="1594" y="-107.5" font-family="Helvetica,sans-Serif" font-size="10.00">/integration/test_Display</text>
<text text-anchor="middle" x="1654.5" y="-96.5" font-family="Helvetica,sans-Serif" font-size="10.00">/test_main.cpp</text>
</a>
</g>
</g>
<!-- Node15&#45;&gt;Node17 -->
<g id="edge19" class="edge">
<title>Node15&#45;&gt;Node17</title>
<path fill="none" stroke="midnightblue" d="M2133.2,-196.78C2029.46,-188.82 1868.32,-172.6 1731.5,-142 1728.75,-141.39 1725.96,-140.71 1723.16,-139.99"/>
<polygon fill="midnightblue" stroke="midnightblue" points="2133.13,-200.29 2143.37,-197.55 2133.66,-193.31 2133.13,-200.29"/>
</g>
<!-- Node18 -->
<g id="node18" class="node">
<title>Node18</title>
<g id="a_node18"><a xlink:href="integration_2test__InteractiveLogger_2test__main_8cpp.html" target="_top" xlink:title=" ">
<polygon fill="white" stroke="black" points="1741,-89.5 1741,-141.5 1926,-141.5 1926,-89.5 1741,-89.5"/>
<text text-anchor="start" x="1749" y="-129.5" font-family="Helvetica,sans-Serif" font-size="10.00">/home/runner/work/EX</text>
<text text-anchor="start" x="1749" y="-118.5" font-family="Helvetica,sans-Serif" font-size="10.00">&#45;Display/EX&#45;Display/test</text>
<text text-anchor="start" x="1749" y="-107.5" font-family="Helvetica,sans-Serif" font-size="10.00">/integration/test_InteractiveLogger</text>
<text text-anchor="middle" x="1833.5" y="-96.5" font-family="Helvetica,sans-Serif" font-size="10.00">/test_main.cpp</text>
</a>
</g>
</g>
<!-- Node15&#45;&gt;Node18 -->
<g id="edge20" class="edge">
<title>Node15&#45;&gt;Node18</title>
<path fill="none" stroke="midnightblue" d="M2133.4,-183.16C2074.8,-171.71 2001,-156.78 1935.5,-142 1932.38,-141.3 1929.22,-140.57 1926.02,-139.83"/>
<polygon fill="midnightblue" stroke="midnightblue" points="2132.93,-186.63 2143.42,-185.11 2134.27,-179.76 2132.93,-186.63"/>
</g>
<!-- Node19 -->
<g id="node19" class="node">
<title>Node19</title>
<g id="a_node19"><a xlink:href="unit_2test__Configurator_2test__main_8cpp.html" target="_top" xlink:title=" ">
<polygon fill="white" stroke="black" points="1944.5,-89.5 1944.5,-141.5 2078.5,-141.5 2078.5,-89.5 1944.5,-89.5"/>
<text text-anchor="start" x="1952.5" y="-129.5" font-family="Helvetica,sans-Serif" font-size="10.00">/home/runner/work/EX</text>
<text text-anchor="start" x="1952.5" y="-118.5" font-family="Helvetica,sans-Serif" font-size="10.00">&#45;Display/EX&#45;Display/test</text>
<text text-anchor="start" x="1952.5" y="-107.5" font-family="Helvetica,sans-Serif" font-size="10.00">/unit/test_Configurator</text>
<text text-anchor="middle" x="2011.5" y="-96.5" font-family="Helvetica,sans-Serif" font-size="10.00">/test_main.cpp</text>
</a>
</g>
</g>
<!-- Node15&#45;&gt;Node19 -->
<g id="edge21" class="edge">
<title>Node15&#45;&gt;Node19</title>
<path fill="none" stroke="midnightblue" d="M2179.58,-180.36C2148.12,-168.4 2109.7,-153.81 2077.53,-141.58"/>
<polygon fill="midnightblue" stroke="midnightblue" points="2178.52,-183.7 2189.11,-183.98 2181,-177.15 2178.52,-183.7"/>
</g>
<!-- Node20 -->
<g id="node20" class="node">
<title>Node20</title>
<g id="a_node20"><a xlink:href="unit_2test__Controller_2test__main_8cpp.html" target="_top" xlink:title=" ">
<polygon fill="white" stroke="black" points="2097,-89.5 2097,-141.5 2232,-141.5 2232,-89.5 2097,-89.5"/>
<text text-anchor="start" x="2105" y="-129.5" font-family="Helvetica,sans-Serif" font-size="10.00">/home/runner/work/EX</text>
<text text-anchor="start" x="2105" y="-118.5" font-family="Helvetica,sans-Serif" font-size="10.00">&#45;Display/EX&#45;Display/test</text>
<text text-anchor="start" x="2105" y="-107.5" font-family="Helvetica,sans-Serif" font-size="10.00">/unit/test_Controller/test</text>
<text text-anchor="middle" x="2164.5" y="-96.5" font-family="Helvetica,sans-Serif" font-size="10.00">_main.cpp</text>
</a>
</g>
</g>
<!-- Node15&#45;&gt;Node20 -->
<g id="edge22" class="edge">
<title>Node15&#45;&gt;Node20</title>
<path fill="none" stroke="midnightblue" d="M2216.56,-176.09C2206.97,-165.12 2195.99,-152.55 2186.59,-141.79"/>
<polygon fill="midnightblue" stroke="midnightblue" points="2214.04,-178.53 2223.25,-183.76 2219.31,-173.92 2214.04,-178.53"/>
</g>
<!-- Node21 -->
<g id="node21" class="node">
<title>Node21</title>
<g id="a_node21"><a xlink:href="unit_2test__Display_2test__main_8cpp.html" target="_top" xlink:title=" ">
<polygon fill="white" stroke="black" points="2250.5,-89.5 2250.5,-141.5 2384.5,-141.5 2384.5,-89.5 2250.5,-89.5"/>
<text text-anchor="start" x="2258.5" y="-129.5" font-family="Helvetica,sans-Serif" font-size="10.00">/home/runner/work/EX</text>
<text text-anchor="start" x="2258.5" y="-118.5" font-family="Helvetica,sans-Serif" font-size="10.00">&#45;Display/EX&#45;Display/test</text>
<text text-anchor="start" x="2258.5" y="-107.5" font-family="Helvetica,sans-Serif" font-size="10.00">/unit/test_Display/test</text>
<text text-anchor="middle" x="2317.5" y="-96.5" font-family="Helvetica,sans-Serif" font-size="10.00">_main.cpp</text>
</a>
</g>
</g>
<!-- Node15&#45;&gt;Node21 -->
<g id="edge23" class="edge">
<title>Node15&#45;&gt;Node21</title>
<path fill="none" stroke="midnightblue" d="M2264.76,-176.09C2274.47,-165.12 2285.6,-152.55 2295.12,-141.79"/>
<polygon fill="midnightblue" stroke="midnightblue" points="2261.98,-173.95 2257.97,-183.76 2267.22,-178.59 2261.98,-173.95"/>
</g>
<!-- Node22 -->
<g id="node22" class="node">
<title>Node22</title>
<g id="a_node22"><a xlink:href="unit_2test__DisplayManager_2test__main_8cpp.html" target="_top" xlink:title=" ">
<polygon fill="white" stroke="black" points="2403,-89.5 2403,-141.5 2548,-141.5 2548,-89.5 2403,-89.5"/>
<text text-anchor="start" x="2411" y="-129.5" font-family="Helvetica,sans-Serif" font-size="10.00">/home/runner/work/EX</text>
<text text-anchor="start" x="2411" y="-118.5" font-family="Helvetica,sans-Serif" font-size="10.00">&#45;Display/EX&#45;Display/test</text>
<text text-anchor="start" x="2411" y="-107.5" font-family="Helvetica,sans-Serif" font-size="10.00">/unit/test_DisplayManager</text>
<text text-anchor="middle" x="2475.5" y="-96.5" font-family="Helvetica,sans-Serif" font-size="10.00">/test_main.cpp</text>
</a>
</g>
</g>
<!-- Node15&#45;&gt;Node22 -->
<g id="edge24" class="edge">
<title>Node15&#45;&gt;Node22</title>
<path fill="none" stroke="midnightblue" d="M2303.01,-180.36C2335.3,-168.4 2374.73,-153.81 2407.74,-141.58"/>
<polygon fill="midnightblue" stroke="midnightblue" points="2301.4,-177.22 2293.24,-183.98 2303.83,-183.79 2301.4,-177.22"/>
</g>
<!-- Node23 -->
<g id="node23" class="node">
<title>Node23</title>
<g id="a_node23"><a xlink:href="unit_2test__Infrastructure_2test__main_8cpp.html" target="_top" xlink:title=" ">
<polygon fill="white" stroke="black" points="2566.5,-89.5 2566.5,-141.5 2700.5,-141.5 2700.5,-89.5 2566.5,-89.5"/>
<text text-anchor="start" x="2574.5" y="-129.5" font-family="Helvetica,sans-Serif" font-size="10.00">/home/runner/work/EX</text>
<text text-anchor="start" x="2574.5" y="-118.5" font-family="Helvetica,sans-Serif" font-size="10.00">&#45;Display/EX&#45;Display/test</text>
<text text-anchor="start" x="2574.5" y="-107.5" font-family="Helvetica,sans-Serif" font-size="10.00">/unit/test_Infrastructure</text>
<text text-anchor="middle" x="2633.5" y="-96.5" font-family="Helvetica,sans-Serif" font-size="10.00">/test_main.cpp</text>
</a>
</g>
</g>
<!-- Node15&#45;&gt;Node23 -->
<g id="edge25" class="edge">
<title>Node15&#45;&gt;Node23</title>
<path fill="none" stroke="midnightblue" d="M2329.04,-181.73C2334.94,-180.43 2340.8,-179.17 2346.5,-178 2439.69,-158.86 2465.24,-165.2 2557.5,-142 2560.33,-141.29 2563.22,-140.52 2566.12,-139.71"/>
<polygon fill="midnightblue" stroke="midnightblue" points="2328.08,-178.36 2319.09,-183.97 2329.62,-185.19 2328.08,-178.36"/>
</g>
<!-- Node24 -->
<g id="node24" class="node">
<title>Node24</title>
<g id="a_node24"><a xlink:href="unit_2test__Input_2test__main_8cpp.html" target="_top" xlink:title=" ">
<polygon fill="white" stroke="black" points="2718.5,-95 2718.5,-136 2880.5,-136 2880.5,-95 2718.5,-95"/>
<text text-anchor="start" x="2726.5" y="-124" font-family="Helvetica,sans-Serif" font-size="10.00">/home/runner/work/EX</text>
<text text-anchor="start" x="2726.5" y="-113" font-family="Helvetica,sans-Serif" font-size="10.00">&#45;Display/EX&#45;Display/test</text>
<text text-anchor="middle" x="2799.5" y="-102" font-family="Helvetica,sans-Serif" font-size="10.00">/unit/test_Input/test_main.cpp</text>
</a>
</g>
</g>
<!-- Node15&#45;&gt;Node24 -->
<g id="edge26" class="edge">
<title>Node15&#45;&gt;Node24</title>
<path fill="none" stroke="midnightblue" d="M2326.14,-181.84C2333.01,-180.43 2339.85,-179.12 2346.5,-178 2506.36,-150.98 2550.22,-172.22 2709.5,-142 2718.12,-140.37 2727.1,-138.29 2735.92,-136.02"/>
<polygon fill="midnightblue" stroke="midnightblue" points="2325.14,-178.47 2316.09,-183.98 2326.6,-185.32 2325.14,-178.47"/>
</g>
<!-- Node25 -->
<g id="node25" class="node">
<title>Node25</title>
<g id="a_node25"><a xlink:href="unit_2test__InputManager_2test__main_8cpp.html" target="_top" xlink:title=" ">
<polygon fill="white" stroke="black" points="2898.5,-89.5 2898.5,-141.5 3032.5,-141.5 3032.5,-89.5 2898.5,-89.5"/>
<text text-anchor="start" x="2906.5" y="-129.5" font-family="Helvetica,sans-Serif" font-size="10.00">/home/runner/work/EX</text>
<text text-anchor="start" x="2906.5" y="-118.5" font-family="Helvetica,sans-Serif" font-size="10.00">&#45;Display/EX&#45;Display/test</text>
<text text-anchor="start" x="2906.5" y="-107.5" font-family="Helvetica,sans-Serif" font-size="10.00">/unit/test_InputManager</text>
<text text-anchor="middle" x="2965.5" y="-96.5" font-family="Helvetica,sans-Serif" font-size="10.00">/test_main.cpp</text>
</a>
</g>
</g>
<!-- Node15&#45;&gt;Node25 -->
<g id="edge27" class="edge">
<title>Node15&#45;&gt;Node25</title>
<path fill="none" stroke="midnightblue" d="M2324.63,-181.89C2331.99,-180.42 2339.36,-179.09 2346.5,-178 2585.61,-141.58 2652.22,-188.86 2889.5,-142 2892.37,-141.43 2895.28,-140.79 2898.2,-140.08"/>
<polygon fill="midnightblue" stroke="midnightblue" points="2323.68,-178.52 2314.6,-183.99 2325.11,-185.37 2323.68,-178.52"/>
</g>
<!-- Node26 -->
<g id="node26" class="node">
<title>Node26</title>
<g id="a_node26"><a xlink:href="unit_2test__Screen_2test__main_8cpp.html" target="_top" xlink:title=" ">
<polygon fill="white" stroke="black" points="3050.5,-95 3050.5,-136 3220.5,-136 3220.5,-95 3050.5,-95"/>
<text text-anchor="start" x="3058.5" y="-124" font-family="Helvetica,sans-Serif" font-size="10.00">/home/runner/work/EX</text>
<text text-anchor="start" x="3058.5" y="-113" font-family="Helvetica,sans-Serif" font-size="10.00">&#45;Display/EX&#45;Display/test</text>
<text text-anchor="middle" x="3135.5" y="-102" font-family="Helvetica,sans-Serif" font-size="10.00">/unit/test_Screen/test_main.cpp</text>
</a>
</g>
</g>
<!-- Node15&#45;&gt;Node26 -->
<g id="edge28" class="edge">
<title>Node15&#45;&gt;Node26</title>
<path fill="none" stroke="midnightblue" d="M2323.96,-181.91C2331.54,-180.41 2339.14,-179.07 2346.5,-178 2652.61,-133.64 2736.07,-190.77 3041.5,-142 3051.02,-140.48 3060.96,-138.37 3070.66,-136.02"/>
<polygon fill="midnightblue" stroke="midnightblue" points="2323.09,-178.52 2314.01,-183.97 2324.51,-185.37 2323.09,-178.52"/>
</g>
<!-- Node27 -->
<g id="node27" class="node">
<title>Node27</title>
<g id="a_node27"><a xlink:href="unit_2test__ScreenManager_2test__main_8cpp.html" target="_top" xlink:title=" ">
<polygon fill="white" stroke="black" points="3239,-89.5 3239,-141.5 3380,-141.5 3380,-89.5 3239,-89.5"/>
<text text-anchor="start" x="3247" y="-129.5" font-family="Helvetica,sans-Serif" font-size="10.00">/home/runner/work/EX</text>
<text text-anchor="start" x="3247" y="-118.5" font-family="Helvetica,sans-Serif" font-size="10.00">&#45;Display/EX&#45;Display/test</text>
<text text-anchor="start" x="3247" y="-107.5" font-family="Helvetica,sans-Serif" font-size="10.00">/unit/test_ScreenManager</text>
<text text-anchor="middle" x="3309.5" y="-96.5" font-family="Helvetica,sans-Serif" font-size="10.00">/test_main.cpp</text>
</a>
</g>
</g>
<!-- Node15&#45;&gt;Node27 -->
<g id="edge29" class="edge">
<title>Node15&#45;&gt;Node27</title>
<path fill="none" stroke="midnightblue" d="M2323.28,-181.95C2331.09,-180.41 2338.92,-179.06 2346.5,-178 2735.51,-123.81 2842.71,-210.25 3229.5,-142 3232.51,-141.47 3235.57,-140.85 3238.65,-140.17"/>
<polygon fill="midnightblue" stroke="midnightblue" points="2322.5,-178.54 2313.42,-183.99 2323.92,-185.4 2322.5,-178.54"/>
</g>
</g>
</svg>
