<?xml version="1.0" encoding="UTF-8" standalone="no"?>
<!DOCTYPE svg PUBLIC "-//W3C//DTD SVG 1.1//EN"
 "http://www.w3.org/Graphics/SVG/1.1/DTD/svg11.dtd">
<!-- Generated by graphviz version 2.43.0 (0)
 -->
<!-- Title: /home/runner/work/EX&#45;Display/EX&#45;Display/InputManager.h Pages: 1 -->
<svg width="462pt" height="375pt"
 viewBox="0.00 0.00 461.63 375.00" xmlns="http://www.w3.org/2000/svg" xmlns:xlink="http://www.w3.org/1999/xlink">
<g id="graph0" class="graph" transform="scale(1 1) rotate(0) translate(4 371)">
<title>/home/runner/work/EX&#45;Display/EX&#45;Display/InputManager.h</title>
<polygon fill="white" stroke="transparent" points="-4,4 -4,-371 457.63,-371 457.63,4 -4,4"/>
<!-- Node1 -->
<g id="node1" class="node">
<title>Node1</title>
<g id="a_node1"><a xlink:title=" ">
<polygon fill="#bfbfbf" stroke="black" points="120,-336.5 120,-366.5 311,-366.5 311,-336.5 120,-336.5"/>
<text text-anchor="start" x="128" y="-354.5" font-family="Helvetica,sans-Serif" font-size="10.00">/home/runner/work/EX</text>
<text text-anchor="middle" x="215.5" y="-343.5" font-family="Helvetica,sans-Serif" font-size="10.00">&#45;Display/EX&#45;Display/InputManager.h</text>
</a>
</g>
</g>
<!-- Node2 -->
<g id="node2" class="node">
<title>Node2</title>
<g id="a_node2"><a xlink:href="CallbackInterface_8h.html" target="_top" xlink:title=" ">
<polygon fill="white" stroke="black" points="0,-224.5 0,-243.5 111,-243.5 111,-224.5 0,-224.5"/>
<text text-anchor="middle" x="55.5" y="-231.5" font-family="Helvetica,sans-Serif" font-size="10.00">CallbackInterface.h</text>
</a>
</g>
</g>
<!-- Node1&#45;&gt;Node2 -->
<g id="edge1" class="edge">
<title>Node1&#45;&gt;Node2</title>
<path fill="none" stroke="midnightblue" d="M150.56,-336.47C127.47,-328.84 102.71,-317.29 84.5,-300 71.36,-287.52 63.76,-268.02 59.66,-253.62"/>
<polygon fill="midnightblue" stroke="midnightblue" points="63.03,-252.65 57.18,-243.82 56.24,-254.37 63.03,-252.65"/>
</g>
<!-- Node4 -->
<g id="node4" class="node">
<title>Node4</title>
<g id="a_node4"><a xlink:href="Logger_8h.html" target="_top" xlink:title=" ">
<polygon fill="white" stroke="black" points="267.5,-56.5 267.5,-75.5 325.5,-75.5 325.5,-56.5 267.5,-56.5"/>
<text text-anchor="middle" x="296.5" y="-63.5" font-family="Helvetica,sans-Serif" font-size="10.00">Logger.h</text>
</a>
</g>
</g>
<!-- Node1&#45;&gt;Node4 -->
<g id="edge20" class="edge">
<title>Node1&#45;&gt;Node4</title>
<path fill="none" stroke="midnightblue" d="M249.44,-336.4C284.08,-319.94 335.86,-289.09 358.5,-244 373.08,-214.96 327.22,-123.58 306.32,-84.75"/>
<polygon fill="midnightblue" stroke="midnightblue" points="309.34,-82.98 301.48,-75.87 303.19,-86.33 309.34,-82.98"/>
</g>
<!-- Node11 -->
<g id="node6" class="node">
<title>Node11</title>
<g id="a_node6"><a xlink:href="Defines_8h.html" target="_top" xlink:title=" ">
<polygon fill="white" stroke="black" points="206.5,-112.5 206.5,-131.5 268.5,-131.5 268.5,-112.5 206.5,-112.5"/>
<text text-anchor="middle" x="237.5" y="-119.5" font-family="Helvetica,sans-Serif" font-size="10.00">Defines.h</text>
</a>
</g>
</g>
<!-- Node1&#45;&gt;Node11 -->
<g id="edge6" class="edge">
<title>Node1&#45;&gt;Node11</title>
<path fill="none" stroke="midnightblue" d="M216.88,-336.27C220.68,-296.89 231.36,-186.49 235.67,-141.97"/>
<polygon fill="midnightblue" stroke="midnightblue" points="239.16,-142.22 236.64,-131.93 232.19,-141.54 239.16,-142.22"/>
</g>
<!-- Node12 -->
<g id="node7" class="node">
<title>Node12</title>
<g id="a_node7"><a xlink:href="DisplayInterface_8h.html" target="_top" xlink:title=" ">
<polygon fill="white" stroke="black" points="243.5,-224.5 243.5,-243.5 349.5,-243.5 349.5,-224.5 243.5,-224.5"/>
<text text-anchor="middle" x="296.5" y="-231.5" font-family="Helvetica,sans-Serif" font-size="10.00">DisplayInterface.h</text>
</a>
</g>
</g>
<!-- Node1&#45;&gt;Node12 -->
<g id="edge8" class="edge">
<title>Node1&#45;&gt;Node12</title>
<path fill="none" stroke="midnightblue" d="M225.43,-336.34C240.36,-315.05 268.53,-274.89 284.55,-252.03"/>
<polygon fill="midnightblue" stroke="midnightblue" points="287.54,-253.87 290.42,-243.67 281.81,-249.85 287.54,-253.87"/>
</g>
<!-- Node15 -->
<g id="node10" class="node">
<title>Node15</title>
<g id="a_node10"><a xlink:href="InputInterface_8h.html" target="_top" xlink:title=" ">
<polygon fill="white" stroke="black" points="93.5,-280.5 93.5,-299.5 187.5,-299.5 187.5,-280.5 93.5,-280.5"/>
<text text-anchor="middle" x="140.5" y="-287.5" font-family="Helvetica,sans-Serif" font-size="10.00">InputInterface.h</text>
</a>
</g>
</g>
<!-- Node1&#45;&gt;Node15 -->
<g id="edge15" class="edge">
<title>Node1&#45;&gt;Node15</title>
<path fill="none" stroke="midnightblue" d="M197.73,-336.4C186.15,-327.22 171.08,-315.26 159.3,-305.92"/>
<polygon fill="midnightblue" stroke="midnightblue" points="161.42,-303.13 151.41,-299.66 157.07,-308.61 161.42,-303.13"/>
</g>
<!-- Node3 -->
<g id="node3" class="node">
<title>Node3</title>
<g id="a_node3"><a xlink:href="InputActions_8h.html" target="_top" xlink:title=" ">
<polygon fill="white" stroke="black" points="63.5,-168.5 63.5,-187.5 149.5,-187.5 149.5,-168.5 63.5,-168.5"/>
<text text-anchor="middle" x="106.5" y="-175.5" font-family="Helvetica,sans-Serif" font-size="10.00">InputActions.h</text>
</a>
</g>
</g>
<!-- Node2&#45;&gt;Node3 -->
<g id="edge2" class="edge">
<title>Node2&#45;&gt;Node3</title>
<path fill="none" stroke="midnightblue" d="M63.92,-224.08C71.35,-216.22 82.35,-204.57 91.31,-195.08"/>
<polygon fill="midnightblue" stroke="midnightblue" points="93.91,-197.42 98.24,-187.75 88.82,-192.62 93.91,-197.42"/>
</g>
<!-- Node2&#45;&gt;Node4 -->
<g id="edge3" class="edge">
<title>Node2&#45;&gt;Node4</title>
<path fill="none" stroke="midnightblue" d="M52.61,-224.24C48.82,-210.99 43.8,-185.53 54.5,-168 97.38,-97.77 200.35,-76.36 257.18,-69.84"/>
<polygon fill="midnightblue" stroke="midnightblue" points="257.65,-73.31 267.23,-68.79 256.92,-66.35 257.65,-73.31"/>
</g>
<!-- Node5 -->
<g id="node5" class="node">
<title>Node5</title>
<g id="a_node5"><a xlink:href="Arduino_8h.html" target="_top" xlink:title=" ">
<polygon fill="white" stroke="red" points="318,-0.5 318,-19.5 381,-19.5 381,-0.5 318,-0.5"/>
<text text-anchor="middle" x="349.5" y="-7.5" font-family="Helvetica,sans-Serif" font-size="10.00">Arduino.h</text>
</a>
</g>
</g>
<!-- Node2&#45;&gt;Node5 -->
<g id="edge5" class="edge">
<title>Node2&#45;&gt;Node5</title>
<path fill="none" stroke="midnightblue" d="M51.54,-224.41C46.27,-211.81 38.33,-187.66 44.5,-168 53.58,-139.06 59.59,-130.66 83.5,-112 152.06,-58.5 252.11,-30.82 307.93,-18.75"/>
<polygon fill="midnightblue" stroke="midnightblue" points="308.75,-22.15 317.82,-16.67 307.31,-15.3 308.75,-22.15"/>
</g>
<!-- Node4&#45;&gt;Node5 -->
<g id="edge4" class="edge">
<title>Node4&#45;&gt;Node5</title>
<path fill="none" stroke="midnightblue" d="M305.25,-56.08C312.97,-48.22 324.4,-36.57 333.72,-27.08"/>
<polygon fill="midnightblue" stroke="midnightblue" points="336.4,-29.34 340.91,-19.75 331.41,-24.44 336.4,-29.34"/>
</g>
<!-- Node11&#45;&gt;Node4 -->
<g id="edge7" class="edge">
<title>Node11&#45;&gt;Node4</title>
<path fill="none" stroke="midnightblue" d="M246.98,-112.32C255.7,-104.34 268.84,-92.31 279.4,-82.65"/>
<polygon fill="midnightblue" stroke="midnightblue" points="281.83,-85.17 286.85,-75.83 277.11,-80 281.83,-85.17"/>
</g>
<!-- Node12&#45;&gt;Node4 -->
<g id="edge9" class="edge">
<title>Node12&#45;&gt;Node4</title>
<path fill="none" stroke="midnightblue" d="M296.5,-224.08C296.5,-197.95 296.5,-121.21 296.5,-85.58"/>
<polygon fill="midnightblue" stroke="midnightblue" points="300,-85.57 296.5,-75.57 293,-85.57 300,-85.57"/>
</g>
<!-- Node13 -->
<g id="node8" class="node">
<title>Node13</title>
<g id="a_node8"><a xlink:href="Screen_8h.html" target="_top" xlink:title=" ">
<polygon fill="white" stroke="black" points="373,-168.5 373,-187.5 432,-187.5 432,-168.5 373,-168.5"/>
<text text-anchor="middle" x="402.5" y="-175.5" font-family="Helvetica,sans-Serif" font-size="10.00">Screen.h</text>
</a>
</g>
</g>
<!-- Node12&#45;&gt;Node13 -->
<g id="edge10" class="edge">
<title>Node12&#45;&gt;Node13</title>
<path fill="none" stroke="midnightblue" d="M313.53,-224.32C330.53,-215.66 356.88,-202.24 376.49,-192.25"/>
<polygon fill="midnightblue" stroke="midnightblue" points="378.19,-195.31 385.51,-187.65 375.01,-189.08 378.19,-195.31"/>
</g>
<!-- Node13&#45;&gt;Node5 -->
<g id="edge14" class="edge">
<title>Node13&#45;&gt;Node5</title>
<path fill="none" stroke="midnightblue" d="M416.97,-168.45C434.63,-156.82 461.02,-134.83 451.5,-112 435.52,-73.69 397.16,-42.48 372.31,-25.35"/>
<polygon fill="midnightblue" stroke="midnightblue" points="374.09,-22.33 363.83,-19.68 370.2,-28.15 374.09,-22.33"/>
</g>
<!-- Node14 -->
<g id="node9" class="node">
<title>Node14</title>
<g id="a_node9"><a xlink:href="ScreenRow_8h.html" target="_top" xlink:title=" ">
<polygon fill="white" stroke="black" points="363,-112.5 363,-131.5 442,-131.5 442,-112.5 363,-112.5"/>
<text text-anchor="middle" x="402.5" y="-119.5" font-family="Helvetica,sans-Serif" font-size="10.00">ScreenRow.h</text>
</a>
</g>
</g>
<!-- Node13&#45;&gt;Node14 -->
<g id="edge11" class="edge">
<title>Node13&#45;&gt;Node14</title>
<path fill="none" stroke="midnightblue" d="M402.5,-168.08C402.5,-161.01 402.5,-150.86 402.5,-141.99"/>
<polygon fill="midnightblue" stroke="midnightblue" points="406,-141.75 402.5,-131.75 399,-141.75 406,-141.75"/>
</g>
<!-- Node14&#45;&gt;Node4 -->
<g id="edge12" class="edge">
<title>Node14&#45;&gt;Node4</title>
<path fill="none" stroke="midnightblue" d="M385.47,-112.32C368.47,-103.66 342.12,-90.24 322.51,-80.25"/>
<polygon fill="midnightblue" stroke="midnightblue" points="323.99,-77.08 313.49,-75.65 320.81,-83.31 323.99,-77.08"/>
</g>
<!-- Node14&#45;&gt;Node5 -->
<g id="edge13" class="edge">
<title>Node14&#45;&gt;Node5</title>
<path fill="none" stroke="midnightblue" d="M398.34,-112.37C389.67,-94.38 369.52,-52.55 357.99,-28.63"/>
<polygon fill="midnightblue" stroke="midnightblue" points="361.13,-27.08 353.64,-19.59 354.83,-30.12 361.13,-27.08"/>
</g>
<!-- Node15&#45;&gt;Node2 -->
<g id="edge16" class="edge">
<title>Node15&#45;&gt;Node2</title>
<path fill="none" stroke="midnightblue" d="M126.84,-280.32C113.58,-271.9 93.23,-258.97 77.65,-249.07"/>
<polygon fill="midnightblue" stroke="midnightblue" points="79.44,-246.06 69.12,-243.65 75.69,-251.97 79.44,-246.06"/>
</g>
<!-- Node15&#45;&gt;Node3 -->
<g id="edge18" class="edge">
<title>Node15&#45;&gt;Node3</title>
<path fill="none" stroke="midnightblue" d="M137.83,-280.37C132.32,-262.54 119.57,-221.3 112.15,-197.27"/>
<polygon fill="midnightblue" stroke="midnightblue" points="115.45,-196.11 109.16,-187.59 108.76,-198.18 115.45,-196.11"/>
</g>
<!-- Node15&#45;&gt;Node4 -->
<g id="edge19" class="edge">
<title>Node15&#45;&gt;Node4</title>
<path fill="none" stroke="midnightblue" d="M142.35,-280.19C149.22,-248.15 174.09,-138.27 197.5,-112 213.15,-94.44 237.02,-83.31 257.4,-76.51"/>
<polygon fill="midnightblue" stroke="midnightblue" points="258.56,-79.82 267.08,-73.52 256.49,-73.13 258.56,-79.82"/>
</g>
<!-- Node15&#45;&gt;Node12 -->
<g id="edge17" class="edge">
<title>Node15&#45;&gt;Node12</title>
<path fill="none" stroke="midnightblue" d="M165.22,-280.44C191.35,-271.4 232.76,-257.06 262.08,-246.92"/>
<polygon fill="midnightblue" stroke="midnightblue" points="263.59,-250.1 271.9,-243.52 261.3,-243.48 263.59,-250.1"/>
</g>
</g>
</svg>
