<?xml version="1.0" encoding="UTF-8" standalone="no"?>
<!DOCTYPE svg PUBLIC "-//W3C//DTD SVG 1.1//EN"
 "http://www.w3.org/Graphics/SVG/1.1/DTD/svg11.dtd">
<!-- Generated by graphviz version 2.43.0 (0)
 -->
<!-- Title: /home/runner/work/EX&#45;Display/EX&#45;Display/InputInterface.h Pages: 1 -->
<svg width="367pt" height="313pt"
 viewBox="0.00 0.00 367.43 313.00" xmlns="http://www.w3.org/2000/svg" xmlns:xlink="http://www.w3.org/1999/xlink">

<svg id="main" version="1.1" xmlns="http://www.w3.org/2000/svg" xmlns:xlink="http://www.w3.org/1999/xlink" xml:space="preserve" onload="init(evt)">
<style type="text/css"><![CDATA[
.node, .edge {opacity: 0.7;}
.node.selected, .edge.selected {opacity: 1;}
.edge:hover path { stroke: red; }
.edge:hover polygon { stroke: red; fill: red; }
]]></style>
<script type="application/ecmascript" xlink:href="svg.min.js"/>
<svg id="graph" class="graph">
<g id="graph0" class="graph" transform="scale(1 1) rotate(0) translate(4 309)">
<title>/home/runner/work/EX&#45;Display/EX&#45;Display/InputInterface.h</title>
<!-- Node1 -->
<g id="Node000001" class="node">
<title>Node1</title>
<g id="a_Node000001"><a xlink:title=" ">
<polygon fill="#999999" stroke="#666666" points="256.5,-305 63.5,-305 63.5,-275 256.5,-275 256.5,-305"/>
<text text-anchor="start" x="71.5" y="-293" font-family="Helvetica,sans-Serif" font-size="10.00">/home/runner/work/EX</text>
<text text-anchor="middle" x="160" y="-282" font-family="Helvetica,sans-Serif" font-size="10.00">&#45;Display/EX&#45;Display/InputInterface.h</text>
</a>
</g>
</g>
<!-- Node2 -->
<g id="Node000002" class="node">
<title>Node2</title>
<g id="a_Node000002"><a xlink:href="CallbackInterface_8h.html" target="_top" xlink:title=" ">
<polygon fill="white" stroke="#666666" points="173.5,-239 62.5,-239 62.5,-220 173.5,-220 173.5,-239"/>
<text text-anchor="middle" x="118" y="-227" font-family="Helvetica,sans-Serif" font-size="10.00">CallbackInterface.h</text>
</a>
</g>
</g>
<!-- Node1&#45;&gt;Node2 -->
<g id="edge1_Node000001_Node000002" class="edge">
<title>Node1&#45;&gt;Node2</title>
<g id="a_edge1_Node000001_Node000002"><a xlink:title=" ">
<path fill="none" stroke="#63b8ff" d="M149.83,-274.84C143.92,-266.61 136.44,-256.18 130.21,-247.51"/>
<polygon fill="#63b8ff" stroke="#63b8ff" points="132.97,-245.35 124.29,-239.27 127.28,-249.43 132.97,-245.35"/>
</a>
</g>
</g>
<!-- Node3 -->
<g id="Node000003" class="node">
<title>Node3</title>
<g id="a_Node000003"><a xlink:href="InputActions_8h.html" target="_top" xlink:title=" ">
<polygon fill="white" stroke="#666666" points="86,-184 0,-184 0,-165 86,-165 86,-184"/>
<text text-anchor="middle" x="43" y="-172" font-family="Helvetica,sans-Serif" font-size="10.00">InputActions.h</text>
</a>
</g>
</g>
<!-- Node1&#45;&gt;Node3 -->
<g id="edge13_Node000001_Node000003" class="edge">
<title>Node1&#45;&gt;Node3</title>
<g id="a_edge13_Node000001_Node000003"><a xlink:title=" ">
<path fill="none" stroke="#63b8ff" d="M104.91,-274.96C85.69,-267.38 65.76,-255.96 53,-239 43.46,-226.32 41.43,-208.14 41.52,-194.47"/>
<polygon fill="#63b8ff" stroke="#63b8ff" points="45.02,-194.43 41.96,-184.28 38.03,-194.12 45.02,-194.43"/>
</a>
</g>
</g>
<!-- Node4 -->
<g id="Node000004" class="node">
<title>Node4</title>
<g id="a_Node000004"><a xlink:href="Logger_8h.html" target="_top" xlink:title=" ">
<polygon fill="white" stroke="#666666" points="269,-74 211,-74 211,-55 269,-55 269,-74"/>
<text text-anchor="middle" x="240" y="-62" font-family="Helvetica,sans-Serif" font-size="10.00">Logger.h</text>
</a>
</g>
</g>
<!-- Node1&#45;&gt;Node4 -->
<g id="edge14_Node000001_Node000004" class="edge">
<title>Node1&#45;&gt;Node4</title>
<g id="a_edge14_Node000001_Node000004"><a xlink:title=" ">
<path fill="none" stroke="#63b8ff" d="M166.71,-274.71C171.26,-264.78 177.28,-251.21 182,-239 203.49,-183.34 224.67,-115.95 234.43,-84.01"/>
<polygon fill="#63b8ff" stroke="#63b8ff" points="237.83,-84.85 237.38,-74.27 231.13,-82.82 237.83,-84.85"/>
</a>
</g>
</g>
<!-- Node11 -->
<g id="Node000011" class="node">
<title>Node11</title>
<g id="a_Node000011"><a xlink:href="DisplayInterface_8h.html" target="_top" xlink:title=" ">
<polygon fill="white" stroke="#666666" points="336,-239 230,-239 230,-220 336,-220 336,-239"/>
<text text-anchor="middle" x="283" y="-227" font-family="Helvetica,sans-Serif" font-size="10.00">DisplayInterface.h</text>
</a>
</g>
</g>
<!-- Node1&#45;&gt;Node11 -->
<g id="edge6_Node000001_Node000011" class="edge">
<title>Node1&#45;&gt;Node11</title>
<g id="a_edge6_Node000001_Node000011"><a xlink:title=" ">
<path fill="none" stroke="#63b8ff" d="M189.46,-274.99C209.62,-265.4 236.14,-252.79 255.8,-243.44"/>
<polygon fill="#63b8ff" stroke="#63b8ff" points="257.31,-246.6 264.84,-239.14 254.3,-240.27 257.31,-246.6"/>
</a>
</g>
</g>
<!-- Node2&#45;&gt;Node3 -->
<g id="edge2_Node000002_Node000003" class="edge">
<title>Node2&#45;&gt;Node3</title>
<g id="a_edge2_Node000002_Node000003"><a xlink:title=" ">
<path fill="none" stroke="#63b8ff" d="M105.95,-219.98C94.54,-211.92 77.17,-199.65 63.57,-190.03"/>
<polygon fill="#63b8ff" stroke="#63b8ff" points="65.46,-187.08 55.27,-184.17 61.42,-192.8 65.46,-187.08"/>
</a>
</g>
</g>
<!-- Node2&#45;&gt;Node4 -->
<g id="edge3_Node000002_Node000004" class="edge">
<title>Node2&#45;&gt;Node4</title>
<g id="a_edge3_Node000002_Node000004"><a xlink:title=" ">
<path fill="none" stroke="#63b8ff" d="M121.89,-219.84C131.33,-199.38 156.97,-146.97 188,-110 197.31,-98.91 209.54,-88.29 219.8,-80.21"/>
<polygon fill="#63b8ff" stroke="#63b8ff" points="222.03,-82.92 227.85,-74.07 217.78,-77.35 222.03,-82.92"/>
</a>
</g>
</g>
<!-- Node5 -->
<g id="Node000005" class="node">
<title>Node5</title>
<g id="a_Node000005"><a xlink:href="Arduino_8h.html" target="_top" xlink:title=" ">
<polygon fill="#fff0f0" stroke="red" points="305.5,-19 242.5,-19 242.5,0 305.5,0 305.5,-19"/>
<text text-anchor="middle" x="274" y="-7" font-family="Helvetica,sans-Serif" font-size="10.00">Arduino.h</text>
</a>
</g>
</g>
<!-- Node2&#45;&gt;Node5 -->
<g id="edge5_Node000002_Node000005" class="edge">
<title>Node2&#45;&gt;Node5</title>
<g id="a_edge5_Node000002_Node000005"><a xlink:title=" ">
<path fill="none" stroke="#63b8ff" d="M119.74,-219.62C122.36,-207.11 127.9,-183.72 136,-165 158.64,-112.67 161.95,-95.58 202,-55 214.7,-42.13 231.83,-31.35 246.19,-23.63"/>
<polygon fill="#63b8ff" stroke="#63b8ff" points="247.87,-26.7 255.15,-19 244.66,-20.48 247.87,-26.7"/>
</a>
</g>
</g>
<!-- Node4&#45;&gt;Node5 -->
<g id="edge4_Node000004_Node000005" class="edge">
<title>Node4&#45;&gt;Node5</title>
<g id="a_edge4_Node000004_Node000005"><a xlink:title=" ">
<path fill="none" stroke="#63b8ff" d="M245.61,-54.75C250.32,-47.42 257.17,-36.73 262.97,-27.7"/>
<polygon fill="#63b8ff" stroke="#63b8ff" points="266.04,-29.4 268.49,-19.09 260.14,-25.62 266.04,-29.4"/>
</a>
</g>
</g>
<!-- Node11&#45;&gt;Node4 -->
<g id="edge7_Node000011_Node000004" class="edge">
<title>Node11&#45;&gt;Node4</title>
<g id="a_edge7_Node000011_Node000004"><a xlink:title=" ">
<path fill="none" stroke="#63b8ff" d="M280.42,-220C277.72,-211.06 273.43,-196.58 270,-184 260.41,-148.81 250.17,-107.46 244.48,-84.08"/>
<polygon fill="#63b8ff" stroke="#63b8ff" points="247.83,-83.05 242.08,-74.15 241.03,-84.69 247.83,-83.05"/>
</a>
</g>
</g>
<!-- Node12 -->
<g id="Node000012" class="node">
<title>Node12</title>
<g id="a_Node000012"><a xlink:href="Screen_8h.html" target="_top" xlink:title=" ">
<polygon fill="white" stroke="#666666" points="337.5,-184 278.5,-184 278.5,-165 337.5,-165 337.5,-184"/>
<text text-anchor="middle" x="308" y="-172" font-family="Helvetica,sans-Serif" font-size="10.00">Screen.h</text>
</a>
</g>
</g>
<!-- Node11&#45;&gt;Node12 -->
<g id="edge8_Node000011_Node000012" class="edge">
<title>Node11&#45;&gt;Node12</title>
<g id="a_edge8_Node000011_Node000012"><a xlink:title=" ">
<path fill="none" stroke="#63b8ff" d="M287.13,-219.75C290.51,-212.57 295.42,-202.18 299.62,-193.27"/>
<polygon fill="#63b8ff" stroke="#63b8ff" points="302.85,-194.63 303.95,-184.09 296.52,-191.64 302.85,-194.63"/>
</a>
</g>
</g>
<!-- Node12&#45;&gt;Node5 -->
<g id="edge12_Node000012_Node000005" class="edge">
<title>Node12&#45;&gt;Node5</title>
<g id="a_edge12_Node000012_Node000005"><a xlink:title=" ">
<path fill="none" stroke="#63b8ff" d="M323.13,-164.73C334.81,-156.99 350.12,-144.55 357,-129 360.42,-121.28 359.88,-117.94 357,-110 344.27,-74.87 313.11,-43.43 292.8,-25.69"/>
<polygon fill="#63b8ff" stroke="#63b8ff" points="294.99,-22.96 285.1,-19.16 290.47,-28.3 294.99,-22.96"/>
</a>
</g>
</g>
<!-- Node13 -->
<g id="Node000013" class="node">
<title>Node13</title>
<g id="a_Node000013"><a xlink:href="ScreenRow_8h.html" target="_top" xlink:title=" ">
<polygon fill="white" stroke="#666666" points="347.5,-129 268.5,-129 268.5,-110 347.5,-110 347.5,-129"/>
<text text-anchor="middle" x="308" y="-117" font-family="Helvetica,sans-Serif" font-size="10.00">ScreenRow.h</text>
</a>
</g>
</g>
<!-- Node12&#45;&gt;Node13 -->
<g id="edge9_Node000012_Node000013" class="edge">
<title>Node12&#45;&gt;Node13</title>
<g id="a_edge9_Node000012_Node000013"><a xlink:title=" ">
<path fill="none" stroke="#63b8ff" d="M308,-164.75C308,-157.8 308,-147.85 308,-139.13"/>
<polygon fill="#63b8ff" stroke="#63b8ff" points="311.5,-139.09 308,-129.09 304.5,-139.09 311.5,-139.09"/>
</a>
</g>
</g>
<!-- Node13&#45;&gt;Node4 -->
<g id="edge10_Node000013_Node000004" class="edge">
<title>Node13&#45;&gt;Node4</title>
<g id="a_edge10_Node000013_Node000004"><a xlink:title=" ">
<path fill="none" stroke="#63b8ff" d="M297.07,-109.98C286.92,-102.07 271.58,-90.11 259.35,-80.58"/>
<polygon fill="#63b8ff" stroke="#63b8ff" points="261.16,-77.56 251.12,-74.17 256.86,-83.08 261.16,-77.56"/>
</a>
</g>
</g>
<!-- Node13&#45;&gt;Node5 -->
<g id="edge11_Node000013_Node000005" class="edge">
<title>Node13&#45;&gt;Node5</title>
<g id="a_edge11_Node000013_Node000005"><a xlink:title=" ">
<path fill="none" stroke="#63b8ff" d="M305.22,-109.66C299.69,-92.09 287.21,-52.45 279.81,-28.95"/>
<polygon fill="#63b8ff" stroke="#63b8ff" points="283.07,-27.65 276.73,-19.16 276.39,-29.75 283.07,-27.65"/>
</a>
</g>
</g>
</g>
</svg>
</svg>

<style type='text/css'>
<![CDATA[
[data-mouse-over-selected='false'] { opacity: 0.7; }
[data-mouse-over-selected='true']  { opacity: 1.0; }
]]>
</style>
<script type="application/ecmascript"><![CDATA[
document.addEventListener('DOMContentLoaded', (event) => {
  highlightEdges();
  highlightAdjacentNodes();
});
]]></script>
</svg>
