<?xml version="1.0" encoding="UTF-8" standalone="no"?>
<!DOCTYPE svg PUBLIC "-//W3C//DTD SVG 1.1//EN"
 "http://www.w3.org/Graphics/SVG/1.1/DTD/svg11.dtd">
<!-- Generated by graphviz version 2.43.0 (0)
 -->
<!-- Title: /home/runner/work/EX&#45;Display/EX&#45;Display/InputInterface.h Pages: 1 -->
<svg width="339pt" height="207pt"
 viewBox="0.00 0.00 339.00 207.00" xmlns="http://www.w3.org/2000/svg" xmlns:xlink="http://www.w3.org/1999/xlink">
<g id="graph0" class="graph" transform="scale(1 1) rotate(0) translate(4 203)">
<title>/home/runner/work/EX&#45;Display/EX&#45;Display/InputInterface.h</title>
<polygon fill="white" stroke="transparent" points="-4,4 -4,-203 335,-203 335,4 -4,4"/>
<!-- Node1 -->
<g id="node1" class="node">
<title>Node1</title>
<g id="a_node1"><a xlink:title=" ">
<polygon fill="#bfbfbf" stroke="black" points="58.5,-168.5 58.5,-198.5 251.5,-198.5 251.5,-168.5 58.5,-168.5"/>
<text text-anchor="start" x="66.5" y="-186.5" font-family="Helvetica,sans-Serif" font-size="10.00">/home/runner/work/EX</text>
<text text-anchor="middle" x="155" y="-175.5" font-family="Helvetica,sans-Serif" font-size="10.00">&#45;Display/EX&#45;Display/InputInterface.h</text>
</a>
</g>
</g>
<!-- Node2 -->
<g id="node2" class="node">
<title>Node2</title>
<g id="a_node2"><a xlink:href="CallbackInterface_8h.html" target="_top" xlink:title=" ">
<polygon fill="white" stroke="black" points="57.5,-112.5 57.5,-131.5 168.5,-131.5 168.5,-112.5 57.5,-112.5"/>
<text text-anchor="middle" x="113" y="-119.5" font-family="Helvetica,sans-Serif" font-size="10.00">CallbackInterface.h</text>
</a>
</g>
</g>
<!-- Node1&#45;&gt;Node2 -->
<g id="edge1" class="edge">
<title>Node1&#45;&gt;Node2</title>
<path fill="none" stroke="midnightblue" d="M145.05,-168.4C139.01,-159.84 131.26,-148.87 124.9,-139.86"/>
<polygon fill="midnightblue" stroke="midnightblue" points="127.74,-137.81 119.11,-131.66 122.02,-141.85 127.74,-137.81"/>
</g>
<!-- Node3 -->
<g id="node3" class="node">
<title>Node3</title>
<g id="a_node3"><a xlink:href="InputActions_8h.html" target="_top" xlink:title=" ">
<polygon fill="white" stroke="black" points="0,-56.5 0,-75.5 86,-75.5 86,-56.5 0,-56.5"/>
<text text-anchor="middle" x="43" y="-63.5" font-family="Helvetica,sans-Serif" font-size="10.00">InputActions.h</text>
</a>
</g>
</g>
<!-- Node1&#45;&gt;Node3 -->
<g id="edge8" class="edge">
<title>Node1&#45;&gt;Node3</title>
<path fill="none" stroke="midnightblue" d="M98.33,-168.39C79.29,-160.78 59.89,-149.25 48,-132 38.78,-118.62 38.33,-99.79 39.71,-85.85"/>
<polygon fill="midnightblue" stroke="midnightblue" points="43.18,-86.29 41.08,-75.9 36.25,-85.33 43.18,-86.29"/>
</g>
<!-- Node4 -->
<g id="node4" class="node">
<title>Node4</title>
<g id="a_node4"><a xlink:href="Logger_8h.html" target="_top" xlink:title=" ">
<polygon fill="white" stroke="black" points="161,-56.5 161,-75.5 219,-75.5 219,-56.5 161,-56.5"/>
<text text-anchor="middle" x="190" y="-63.5" font-family="Helvetica,sans-Serif" font-size="10.00">Logger.h</text>
</a>
</g>
</g>
<!-- Node1&#45;&gt;Node4 -->
<g id="edge9" class="edge">
<title>Node1&#45;&gt;Node4</title>
<path fill="none" stroke="midnightblue" d="M162.19,-168.23C166.96,-158.28 173.05,-144.59 177,-132 181.8,-116.71 185.22,-98.83 187.35,-85.7"/>
<polygon fill="midnightblue" stroke="midnightblue" points="190.85,-85.97 188.88,-75.56 183.92,-84.92 190.85,-85.97"/>
</g>
<!-- Node11 -->
<g id="node6" class="node">
<title>Node11</title>
<g id="a_node6"><a xlink:href="DisplayInterface_8h.html" target="_top" xlink:title=" ">
<polygon fill="white" stroke="black" points="225,-112.5 225,-131.5 331,-131.5 331,-112.5 225,-112.5"/>
<text text-anchor="middle" x="278" y="-119.5" font-family="Helvetica,sans-Serif" font-size="10.00">DisplayInterface.h</text>
</a>
</g>
</g>
<!-- Node1&#45;&gt;Node11 -->
<g id="edge6" class="edge">
<title>Node1&#45;&gt;Node11</title>
<path fill="none" stroke="midnightblue" d="M184.15,-168.4C204.42,-158.59 231.24,-145.62 251.02,-136.05"/>
<polygon fill="midnightblue" stroke="midnightblue" points="252.62,-139.16 260.1,-131.66 249.58,-132.86 252.62,-139.16"/>
</g>
<!-- Node2&#45;&gt;Node3 -->
<g id="edge2" class="edge">
<title>Node2&#45;&gt;Node3</title>
<path fill="none" stroke="midnightblue" d="M101.75,-112.32C91.2,-104.18 75.2,-91.84 62.56,-82.09"/>
<polygon fill="midnightblue" stroke="midnightblue" points="64.51,-79.17 54.45,-75.83 60.23,-84.71 64.51,-79.17"/>
</g>
<!-- Node2&#45;&gt;Node4 -->
<g id="edge3" class="edge">
<title>Node2&#45;&gt;Node4</title>
<path fill="none" stroke="midnightblue" d="M125.37,-112.32C137.16,-104.06 155.13,-91.45 169.14,-81.63"/>
<polygon fill="midnightblue" stroke="midnightblue" points="171.48,-84.26 177.66,-75.65 167.46,-78.53 171.48,-84.26"/>
</g>
<!-- Node5 -->
<g id="node5" class="node">
<title>Node5</title>
<g id="a_node5"><a xlink:href="Arduino_8h.html" target="_top" xlink:title=" ">
<polygon fill="white" stroke="red" points="116.5,-0.5 116.5,-19.5 179.5,-19.5 179.5,-0.5 116.5,-0.5"/>
<text text-anchor="middle" x="148" y="-7.5" font-family="Helvetica,sans-Serif" font-size="10.00">Arduino.h</text>
</a>
</g>
</g>
<!-- Node2&#45;&gt;Node5 -->
<g id="edge5" class="edge">
<title>Node2&#45;&gt;Node5</title>
<path fill="none" stroke="midnightblue" d="M115.75,-112.37C121.42,-94.54 134.54,-53.3 142.19,-29.27"/>
<polygon fill="midnightblue" stroke="midnightblue" points="145.57,-30.18 145.27,-19.59 138.9,-28.06 145.57,-30.18"/>
</g>
<!-- Node4&#45;&gt;Node5 -->
<g id="edge4" class="edge">
<title>Node4&#45;&gt;Node5</title>
<path fill="none" stroke="midnightblue" d="M183.06,-56.08C177.07,-48.38 168.25,-37.03 160.95,-27.65"/>
<polygon fill="midnightblue" stroke="midnightblue" points="163.71,-25.5 154.81,-19.75 158.18,-29.79 163.71,-25.5"/>
</g>
<!-- Node11&#45;&gt;Node4 -->
<g id="edge7" class="edge">
<title>Node11&#45;&gt;Node4</title>
<path fill="none" stroke="midnightblue" d="M263.86,-112.32C250.13,-103.9 229.06,-90.97 212.94,-81.07"/>
<polygon fill="midnightblue" stroke="midnightblue" points="214.46,-77.9 204.1,-75.65 210.8,-83.87 214.46,-77.9"/>
</g>
</g>
</svg>
