<?xml version="1.0" encoding="UTF-8" standalone="no"?>
<!DOCTYPE svg PUBLIC "-//W3C//DTD SVG 1.1//EN"
 "http://www.w3.org/Graphics/SVG/1.1/DTD/svg11.dtd">
<!-- Generated by graphviz version 2.43.0 (0)
 -->
<!-- Title: /home/runner/work/EX&#45;Display/EX&#45;Display/InputManager.h Pages: 1 -->
<svg width="1469pt" height="306pt"
 viewBox="0.00 0.00 1468.50 306.00" xmlns="http://www.w3.org/2000/svg" xmlns:xlink="http://www.w3.org/1999/xlink">
<g id="graph0" class="graph" transform="scale(1 1) rotate(0) translate(4 302)">
<title>/home/runner/work/EX&#45;Display/EX&#45;Display/InputManager.h</title>
<polygon fill="white" stroke="transparent" points="-4,4 -4,-302 1464.5,-302 1464.5,4 -4,4"/>
<!-- Node1 -->
<g id="node1" class="node">
<title>Node1</title>
<g id="a_node1"><a xlink:title=" ">
<polygon fill="#bfbfbf" stroke="black" points="962,-267.5 962,-297.5 1153,-297.5 1153,-267.5 962,-267.5"/>
<text text-anchor="start" x="970" y="-285.5" font-family="Helvetica,sans-Serif" font-size="10.00">/home/runner/work/EX</text>
<text text-anchor="middle" x="1057.5" y="-274.5" font-family="Helvetica,sans-Serif" font-size="10.00">&#45;Display/EX&#45;Display/InputManager.h</text>
</a>
</g>
</g>
<!-- Node2 -->
<g id="node2" class="node">
<title>Node2</title>
<g id="a_node2"><a xlink:href="Configurator_8h.html" target="_top" xlink:title=" ">
<polygon fill="white" stroke="black" points="185.5,-100.5 185.5,-130.5 369.5,-130.5 369.5,-100.5 185.5,-100.5"/>
<text text-anchor="start" x="193.5" y="-118.5" font-family="Helvetica,sans-Serif" font-size="10.00">/home/runner/work/EX</text>
<text text-anchor="middle" x="277.5" y="-107.5" font-family="Helvetica,sans-Serif" font-size="10.00">&#45;Display/EX&#45;Display/Configurator.h</text>
</a>
</g>
</g>
<!-- Node1&#45;&gt;Node2 -->
<g id="edge1" class="edge">
<title>Node1&#45;&gt;Node2</title>
<path fill="none" stroke="midnightblue" d="M970.05,-265.64C917.62,-255.97 849.66,-243.18 789.5,-231 606.32,-193.91 560.47,-184.66 378.5,-142 363.27,-138.43 346.8,-134.36 331.67,-130.54"/>
<polygon fill="midnightblue" stroke="midnightblue" points="969.52,-269.1 979.99,-267.47 970.79,-262.21 969.52,-269.1"/>
</g>
<!-- Node6 -->
<g id="node6" class="node">
<title>Node6</title>
<g id="a_node6"><a xlink:href="Controller_8h.html" target="_top" xlink:title=" ">
<polygon fill="white" stroke="black" points="798.5,-189.5 798.5,-219.5 970.5,-219.5 970.5,-189.5 798.5,-189.5"/>
<text text-anchor="start" x="806.5" y="-207.5" font-family="Helvetica,sans-Serif" font-size="10.00">/home/runner/work/EX</text>
<text text-anchor="middle" x="884.5" y="-196.5" font-family="Helvetica,sans-Serif" font-size="10.00">&#45;Display/EX&#45;Display/Controller.h</text>
</a>
</g>
</g>
<!-- Node1&#45;&gt;Node6 -->
<g id="edge5" class="edge">
<title>Node1&#45;&gt;Node6</title>
<path fill="none" stroke="midnightblue" d="M1015.84,-263.2C985.3,-249.78 944.45,-231.84 916.46,-219.54"/>
<polygon fill="midnightblue" stroke="midnightblue" points="1014.8,-266.57 1025.37,-267.38 1017.62,-260.16 1014.8,-266.57"/>
</g>
<!-- Node9 -->
<g id="node9" class="node">
<title>Node9</title>
<g id="a_node9"><a xlink:href="test__ControllerInputAction_8cpp.html" target="_top" xlink:title=" ">
<polygon fill="white" stroke="black" points="995,-89.5 995,-141.5 1162,-141.5 1162,-89.5 995,-89.5"/>
<text text-anchor="start" x="1003" y="-129.5" font-family="Helvetica,sans-Serif" font-size="10.00">/home/runner/work/EX</text>
<text text-anchor="start" x="1003" y="-118.5" font-family="Helvetica,sans-Serif" font-size="10.00">&#45;Display/EX&#45;Display/test</text>
<text text-anchor="start" x="1003" y="-107.5" font-family="Helvetica,sans-Serif" font-size="10.00">/integration/test_Controller</text>
<text text-anchor="middle" x="1078.5" y="-96.5" font-family="Helvetica,sans-Serif" font-size="10.00">/test_ControllerInputAction.cpp</text>
</a>
</g>
</g>
<!-- Node1&#45;&gt;Node9 -->
<g id="edge13" class="edge">
<title>Node1&#45;&gt;Node9</title>
<path fill="none" stroke="midnightblue" d="M1057.26,-257.34C1057.39,-236.28 1058.39,-204.96 1062.5,-178 1064.35,-165.89 1067.6,-152.72 1070.69,-141.69"/>
<polygon fill="midnightblue" stroke="midnightblue" points="1053.76,-257.35 1057.26,-267.35 1060.76,-257.35 1053.76,-257.35"/>
</g>
<!-- Node11 -->
<g id="node11" class="node">
<title>Node11</title>
<g id="a_node11"><a xlink:href="test__Controller_8cpp.html" target="_top" xlink:title=" ">
<polygon fill="white" stroke="black" points="1180,-89.5 1180,-141.5 1315,-141.5 1315,-89.5 1180,-89.5"/>
<text text-anchor="start" x="1188" y="-129.5" font-family="Helvetica,sans-Serif" font-size="10.00">/home/runner/work/EX</text>
<text text-anchor="start" x="1188" y="-118.5" font-family="Helvetica,sans-Serif" font-size="10.00">&#45;Display/EX&#45;Display/test</text>
<text text-anchor="start" x="1188" y="-107.5" font-family="Helvetica,sans-Serif" font-size="10.00">/unit/test_Controller/test</text>
<text text-anchor="middle" x="1247.5" y="-96.5" font-family="Helvetica,sans-Serif" font-size="10.00">_Controller.cpp</text>
</a>
</g>
</g>
<!-- Node1&#45;&gt;Node11 -->
<g id="edge14" class="edge">
<title>Node1&#45;&gt;Node11</title>
<path fill="none" stroke="midnightblue" d="M1060.97,-257.16C1065.44,-234.06 1075.33,-199.73 1096.5,-178 1102.99,-171.33 1142.66,-155.29 1179.7,-141.26"/>
<polygon fill="midnightblue" stroke="midnightblue" points="1057.49,-256.74 1059.22,-267.19 1064.38,-257.94 1057.49,-256.74"/>
</g>
<!-- Node12 -->
<g id="node12" class="node">
<title>Node12</title>
<g id="a_node12"><a xlink:href="InputManager_8cpp.html" target="_top" xlink:title=" ">
<polygon fill="white" stroke="black" points="1105,-189.5 1105,-219.5 1308,-219.5 1308,-189.5 1105,-189.5"/>
<text text-anchor="start" x="1113" y="-207.5" font-family="Helvetica,sans-Serif" font-size="10.00">/home/runner/work/EX</text>
<text text-anchor="middle" x="1206.5" y="-196.5" font-family="Helvetica,sans-Serif" font-size="10.00">&#45;Display/EX&#45;Display/InputManager.cpp</text>
</a>
</g>
</g>
<!-- Node1&#45;&gt;Node12 -->
<g id="edge12" class="edge">
<title>Node1&#45;&gt;Node12</title>
<path fill="none" stroke="midnightblue" d="M1094.41,-262.67C1120.6,-249.32 1155.18,-231.68 1178.97,-219.54"/>
<polygon fill="midnightblue" stroke="midnightblue" points="1092.49,-259.72 1085.18,-267.38 1095.68,-265.96 1092.49,-259.72"/>
</g>
<!-- Node13 -->
<g id="node13" class="node">
<title>Node13</title>
<g id="a_node13"><a xlink:href="test__InputManager_8cpp.html" target="_top" xlink:title=" ">
<polygon fill="white" stroke="black" points="1326.5,-178.5 1326.5,-230.5 1460.5,-230.5 1460.5,-178.5 1326.5,-178.5"/>
<text text-anchor="start" x="1334.5" y="-218.5" font-family="Helvetica,sans-Serif" font-size="10.00">/home/runner/work/EX</text>
<text text-anchor="start" x="1334.5" y="-207.5" font-family="Helvetica,sans-Serif" font-size="10.00">&#45;Display/EX&#45;Display/test</text>
<text text-anchor="start" x="1334.5" y="-196.5" font-family="Helvetica,sans-Serif" font-size="10.00">/unit/test_InputManager</text>
<text text-anchor="middle" x="1393.5" y="-185.5" font-family="Helvetica,sans-Serif" font-size="10.00">/test_InputManager.cpp</text>
</a>
</g>
</g>
<!-- Node1&#45;&gt;Node13 -->
<g id="edge15" class="edge">
<title>Node1&#45;&gt;Node13</title>
<path fill="none" stroke="midnightblue" d="M1155.09,-265.69C1204.17,-256.95 1264.36,-245.01 1317.5,-231 1320.33,-230.25 1323.2,-229.46 1326.09,-228.63"/>
<polygon fill="midnightblue" stroke="midnightblue" points="1154.35,-262.27 1145.11,-267.45 1155.57,-269.16 1154.35,-262.27"/>
</g>
<!-- Node3 -->
<g id="node3" class="node">
<title>Node3</title>
<g id="a_node3"><a xlink:href="Configurator_8cpp.html" target="_top" xlink:title=" ">
<polygon fill="white" stroke="black" points="0,-11.5 0,-41.5 195,-41.5 195,-11.5 0,-11.5"/>
<text text-anchor="start" x="8" y="-29.5" font-family="Helvetica,sans-Serif" font-size="10.00">/home/runner/work/EX</text>
<text text-anchor="middle" x="97.5" y="-18.5" font-family="Helvetica,sans-Serif" font-size="10.00">&#45;Display/EX&#45;Display/Configurator.cpp</text>
</a>
</g>
</g>
<!-- Node2&#45;&gt;Node3 -->
<g id="edge2" class="edge">
<title>Node2&#45;&gt;Node3</title>
<path fill="none" stroke="midnightblue" d="M239.08,-95.93C205.37,-79.64 157.08,-56.3 126.51,-41.52"/>
<polygon fill="midnightblue" stroke="midnightblue" points="237.65,-99.13 248.18,-100.33 240.7,-92.83 237.65,-99.13"/>
</g>
<!-- Node4 -->
<g id="node4" class="node">
<title>Node4</title>
<g id="a_node4"><a xlink:href="EX-Display_8ino.html" target="_top" xlink:title=" ">
<polygon fill="white" stroke="black" points="213.5,-6 213.5,-47 341.5,-47 341.5,-6 213.5,-6"/>
<text text-anchor="start" x="221.5" y="-35" font-family="Helvetica,sans-Serif" font-size="10.00">/home/runner/work/EX</text>
<text text-anchor="start" x="221.5" y="-24" font-family="Helvetica,sans-Serif" font-size="10.00">&#45;Display/EX&#45;Display/EX</text>
<text text-anchor="middle" x="277.5" y="-13" font-family="Helvetica,sans-Serif" font-size="10.00">&#45;Display.ino</text>
</a>
</g>
</g>
<!-- Node2&#45;&gt;Node4 -->
<g id="edge3" class="edge">
<title>Node2&#45;&gt;Node4</title>
<path fill="none" stroke="midnightblue" d="M277.5,-90.04C277.5,-76.47 277.5,-59.81 277.5,-47.1"/>
<polygon fill="midnightblue" stroke="midnightblue" points="274,-90.13 277.5,-100.13 281,-90.13 274,-90.13"/>
</g>
<!-- Node5 -->
<g id="node5" class="node">
<title>Node5</title>
<g id="a_node5"><a xlink:href="test__Configurator_8cpp.html" target="_top" xlink:title=" ">
<polygon fill="white" stroke="black" points="359.5,-0.5 359.5,-52.5 493.5,-52.5 493.5,-0.5 359.5,-0.5"/>
<text text-anchor="start" x="367.5" y="-40.5" font-family="Helvetica,sans-Serif" font-size="10.00">/home/runner/work/EX</text>
<text text-anchor="start" x="367.5" y="-29.5" font-family="Helvetica,sans-Serif" font-size="10.00">&#45;Display/EX&#45;Display/test</text>
<text text-anchor="start" x="367.5" y="-18.5" font-family="Helvetica,sans-Serif" font-size="10.00">/unit/test_Configurator</text>
<text text-anchor="middle" x="426.5" y="-7.5" font-family="Helvetica,sans-Serif" font-size="10.00">/test_Configurator.cpp</text>
</a>
</g>
</g>
<!-- Node2&#45;&gt;Node5 -->
<g id="edge4" class="edge">
<title>Node2&#45;&gt;Node5</title>
<path fill="none" stroke="midnightblue" d="M310.54,-95.21C332.05,-82.65 360.33,-66.14 383.57,-52.56"/>
<polygon fill="midnightblue" stroke="midnightblue" points="308.64,-92.26 301.77,-100.33 312.17,-98.31 308.64,-92.26"/>
</g>
<!-- Node6&#45;&gt;Node2 -->
<g id="edge6" class="edge">
<title>Node6&#45;&gt;Node2</title>
<path fill="none" stroke="midnightblue" d="M788.5,-195.47C686.32,-186.08 520.16,-168.38 378.5,-142 361.88,-138.9 343.92,-134.67 327.83,-130.54"/>
<polygon fill="midnightblue" stroke="midnightblue" points="788.22,-198.96 798.5,-196.38 788.85,-191.99 788.22,-198.96"/>
</g>
<!-- Node7 -->
<g id="node7" class="node">
<title>Node7</title>
<g id="a_node7"><a xlink:href="Controller_8cpp.html" target="_top" xlink:title=" ">
<polygon fill="white" stroke="black" points="388,-100.5 388,-130.5 571,-130.5 571,-100.5 388,-100.5"/>
<text text-anchor="start" x="396" y="-118.5" font-family="Helvetica,sans-Serif" font-size="10.00">/home/runner/work/EX</text>
<text text-anchor="middle" x="479.5" y="-107.5" font-family="Helvetica,sans-Serif" font-size="10.00">&#45;Display/EX&#45;Display/Controller.cpp</text>
</a>
</g>
</g>
<!-- Node6&#45;&gt;Node7 -->
<g id="edge7" class="edge">
<title>Node6&#45;&gt;Node7</title>
<path fill="none" stroke="midnightblue" d="M799.97,-187.52C738.84,-175.69 654.36,-158.79 580.5,-142 565.07,-138.49 548.39,-134.4 533.11,-130.54"/>
<polygon fill="midnightblue" stroke="midnightblue" points="799.47,-190.99 809.95,-189.45 800.8,-184.12 799.47,-190.99"/>
</g>
<!-- Node8 -->
<g id="node8" class="node">
<title>Node8</title>
<g id="a_node8"><a xlink:href="test__ControllerDisplayUpdate_8cpp.html" target="_top" xlink:title=" ">
<polygon fill="white" stroke="black" points="589.5,-89.5 589.5,-141.5 773.5,-141.5 773.5,-89.5 589.5,-89.5"/>
<text text-anchor="start" x="597.5" y="-129.5" font-family="Helvetica,sans-Serif" font-size="10.00">/home/runner/work/EX</text>
<text text-anchor="start" x="597.5" y="-118.5" font-family="Helvetica,sans-Serif" font-size="10.00">&#45;Display/EX&#45;Display/test</text>
<text text-anchor="start" x="597.5" y="-107.5" font-family="Helvetica,sans-Serif" font-size="10.00">/integration/test_Controller</text>
<text text-anchor="middle" x="681.5" y="-96.5" font-family="Helvetica,sans-Serif" font-size="10.00">/test_ControllerDisplayUpdate.cpp</text>
</a>
</g>
</g>
<!-- Node6&#45;&gt;Node8 -->
<g id="edge8" class="edge">
<title>Node6&#45;&gt;Node8</title>
<path fill="none" stroke="midnightblue" d="M842.2,-185.37C812.59,-172.68 772.64,-155.56 739.98,-141.56"/>
<polygon fill="midnightblue" stroke="midnightblue" points="840.86,-188.61 851.43,-189.33 843.62,-182.17 840.86,-188.61"/>
</g>
<!-- Node6&#45;&gt;Node9 -->
<g id="edge9" class="edge">
<title>Node6&#45;&gt;Node9</title>
<path fill="none" stroke="midnightblue" d="M925.29,-185.21C953.55,-172.53 991.53,-155.5 1022.61,-141.56"/>
<polygon fill="midnightblue" stroke="midnightblue" points="923.79,-182.04 916.1,-189.33 926.66,-188.43 923.79,-182.04"/>
</g>
<!-- Node10 -->
<g id="node10" class="node">
<title>Node10</title>
<g id="a_node10"><a xlink:href="test__ControllerScreenCreation_8cpp.html" target="_top" xlink:title=" ">
<polygon fill="white" stroke="black" points="791.5,-89.5 791.5,-141.5 977.5,-141.5 977.5,-89.5 791.5,-89.5"/>
<text text-anchor="start" x="799.5" y="-129.5" font-family="Helvetica,sans-Serif" font-size="10.00">/home/runner/work/EX</text>
<text text-anchor="start" x="799.5" y="-118.5" font-family="Helvetica,sans-Serif" font-size="10.00">&#45;Display/EX&#45;Display/test</text>
<text text-anchor="start" x="799.5" y="-107.5" font-family="Helvetica,sans-Serif" font-size="10.00">/integration/test_Controller</text>
<text text-anchor="middle" x="884.5" y="-96.5" font-family="Helvetica,sans-Serif" font-size="10.00">/test_ControllerScreenCreation.cpp</text>
</a>
</g>
</g>
<!-- Node6&#45;&gt;Node10 -->
<g id="edge10" class="edge">
<title>Node6&#45;&gt;Node10</title>
<path fill="none" stroke="midnightblue" d="M884.5,-178.85C884.5,-167.26 884.5,-153.46 884.5,-141.8"/>
<polygon fill="midnightblue" stroke="midnightblue" points="881,-179.13 884.5,-189.13 888,-179.13 881,-179.13"/>
</g>
<!-- Node6&#45;&gt;Node11 -->
<g id="edge11" class="edge">
<title>Node6&#45;&gt;Node11</title>
<path fill="none" stroke="midnightblue" d="M971.6,-187.49C1028.81,-176.32 1105.09,-160.2 1171.5,-142 1174.18,-141.26 1176.91,-140.49 1179.66,-139.68"/>
<polygon fill="midnightblue" stroke="midnightblue" points="970.66,-184.1 961.51,-189.44 971.99,-190.98 970.66,-184.1"/>
</g>
</g>
</svg>
