<?xml version="1.0" encoding="UTF-8" standalone="no"?>
<!DOCTYPE svg PUBLIC "-//W3C//DTD SVG 1.1//EN"
 "http://www.w3.org/Graphics/SVG/1.1/DTD/svg11.dtd">
<!-- Generated by graphviz version 2.43.0 (0)
 -->
<!-- Title: /home/runner/work/EX&#45;Display/EX&#45;Display/Logger.h Pages: 1 -->
<svg width="287pt" height="207pt"
 viewBox="0.00 0.00 287.00 207.00" xmlns="http://www.w3.org/2000/svg" xmlns:xlink="http://www.w3.org/1999/xlink">
<g id="graph0" class="graph" transform="scale(1 1) rotate(0) translate(4 203)">
<title>/home/runner/work/EX&#45;Display/EX&#45;Display/Logger.h</title>
<polygon fill="white" stroke="transparent" points="-4,4 -4,-203 283,-203 283,4 -4,4"/>
<!-- Node1 -->
<g id="node1" class="node">
<title>Node1</title>
<g id="a_node1"><a xlink:title=" ">
<polygon fill="#bfbfbf" stroke="black" points="65,-168.5 65,-198.5 222,-198.5 222,-168.5 65,-168.5"/>
<text text-anchor="start" x="73" y="-186.5" font-family="Helvetica,sans-Serif" font-size="10.00">/home/runner/work/EX</text>
<text text-anchor="middle" x="143.5" y="-175.5" font-family="Helvetica,sans-Serif" font-size="10.00">&#45;Display/EX&#45;Display/Logger.h</text>
</a>
</g>
</g>
<!-- Node2 -->
<g id="node2" class="node">
<title>Node2</title>
<g id="a_node2"><a xlink:href="Arduino_8h.html" target="_top" xlink:title=" ">
<polygon fill="white" stroke="black" points="112,-112.5 112,-131.5 175,-131.5 175,-112.5 112,-112.5"/>
<text text-anchor="middle" x="143.5" y="-119.5" font-family="Helvetica,sans-Serif" font-size="10.00">Arduino.h</text>
</a>
</g>
</g>
<!-- Node1&#45;&gt;Node2 -->
<g id="edge1" class="edge">
<title>Node1&#45;&gt;Node2</title>
<path fill="none" stroke="midnightblue" d="M143.5,-168.4C143.5,-160.47 143.5,-150.46 143.5,-141.86"/>
<polygon fill="midnightblue" stroke="midnightblue" points="147,-141.66 143.5,-131.66 140,-141.66 147,-141.66"/>
</g>
<!-- Node3 -->
<g id="node3" class="node">
<title>Node3</title>
<g id="a_node3"><a xlink:href="Stream_8h.html" target="_top" xlink:title=" ">
<polygon fill="white" stroke="black" points="76,-56.5 76,-75.5 137,-75.5 137,-56.5 76,-56.5"/>
<text text-anchor="middle" x="106.5" y="-63.5" font-family="Helvetica,sans-Serif" font-size="10.00">Stream.h</text>
</a>
</g>
</g>
<!-- Node2&#45;&gt;Node3 -->
<g id="edge2" class="edge">
<title>Node2&#45;&gt;Node3</title>
<path fill="none" stroke="midnightblue" d="M137.39,-112.08C132.22,-104.53 124.65,-93.49 118.31,-84.23"/>
<polygon fill="midnightblue" stroke="midnightblue" points="121.04,-82.02 112.5,-75.75 115.26,-85.98 121.04,-82.02"/>
</g>
<!-- Node4 -->
<g id="node4" class="node">
<title>Node4</title>
<g id="a_node4"><a xlink:title=" ">
<polygon fill="white" stroke="#bfbfbf" points="0,-0.5 0,-19.5 95,-19.5 95,-0.5 0,-0.5"/>
<text text-anchor="middle" x="47.5" y="-7.5" font-family="Helvetica,sans-Serif" font-size="10.00">gmock/gmock.h</text>
</a>
</g>
</g>
<!-- Node2&#45;&gt;Node4 -->
<g id="edge6" class="edge">
<title>Node2&#45;&gt;Node4</title>
<path fill="none" stroke="midnightblue" d="M119.34,-112.48C102.25,-105.28 80.04,-93.33 66.5,-76 56.11,-62.69 51.39,-43.86 49.26,-29.89"/>
<polygon fill="midnightblue" stroke="midnightblue" points="52.73,-29.43 48.04,-19.93 45.78,-30.28 52.73,-29.43"/>
</g>
<!-- Node6 -->
<g id="node6" class="node">
<title>Node6</title>
<g id="a_node6"><a xlink:title=" ">
<polygon fill="white" stroke="#bfbfbf" points="155,-56.5 155,-75.5 208,-75.5 208,-56.5 155,-56.5"/>
<text text-anchor="middle" x="181.5" y="-63.5" font-family="Helvetica,sans-Serif" font-size="10.00">cstdarg</text>
</a>
</g>
</g>
<!-- Node2&#45;&gt;Node6 -->
<g id="edge5" class="edge">
<title>Node2&#45;&gt;Node6</title>
<path fill="none" stroke="midnightblue" d="M149.77,-112.08C155.14,-104.46 163.02,-93.26 169.58,-83.94"/>
<polygon fill="midnightblue" stroke="midnightblue" points="172.45,-85.94 175.34,-75.75 166.72,-81.91 172.45,-85.94"/>
</g>
<!-- Node7 -->
<g id="node7" class="node">
<title>Node7</title>
<g id="a_node7"><a xlink:title=" ">
<polygon fill="white" stroke="#bfbfbf" points="226,-56.5 226,-75.5 279,-75.5 279,-56.5 226,-56.5"/>
<text text-anchor="middle" x="252.5" y="-63.5" font-family="Helvetica,sans-Serif" font-size="10.00">stdint.h</text>
</a>
</g>
</g>
<!-- Node2&#45;&gt;Node7 -->
<g id="edge7" class="edge">
<title>Node2&#45;&gt;Node7</title>
<path fill="none" stroke="midnightblue" d="M161.01,-112.32C178.57,-103.62 205.83,-90.12 226.03,-80.11"/>
<polygon fill="midnightblue" stroke="midnightblue" points="227.62,-83.23 235.03,-75.65 224.52,-76.96 227.62,-83.23"/>
</g>
<!-- Node3&#45;&gt;Node4 -->
<g id="edge3" class="edge">
<title>Node3&#45;&gt;Node4</title>
<path fill="none" stroke="midnightblue" d="M97.02,-56.32C88.3,-48.34 75.16,-36.31 64.6,-26.65"/>
<polygon fill="midnightblue" stroke="midnightblue" points="66.89,-24 57.15,-19.83 62.17,-29.17 66.89,-24"/>
</g>
<!-- Node5 -->
<g id="node5" class="node">
<title>Node5</title>
<g id="a_node5"><a xlink:title=" ">
<polygon fill="white" stroke="#bfbfbf" points="113.5,-0.5 113.5,-19.5 157.5,-19.5 157.5,-0.5 113.5,-0.5"/>
<text text-anchor="middle" x="135.5" y="-7.5" font-family="Helvetica,sans-Serif" font-size="10.00">string</text>
</a>
</g>
</g>
<!-- Node3&#45;&gt;Node5 -->
<g id="edge4" class="edge">
<title>Node3&#45;&gt;Node5</title>
<path fill="none" stroke="midnightblue" d="M111.29,-56.08C115.26,-48.69 121.03,-37.95 125.93,-28.81"/>
<polygon fill="midnightblue" stroke="midnightblue" points="129.15,-30.22 130.8,-19.75 122.99,-26.91 129.15,-30.22"/>
</g>
</g>
</svg>
