<?xml version="1.0" encoding="UTF-8" standalone="no"?>
<!DOCTYPE svg PUBLIC "-//W3C//DTD SVG 1.1//EN"
 "http://www.w3.org/Graphics/SVG/1.1/DTD/svg11.dtd">
<!-- Generated by graphviz version 2.43.0 (0)
 -->
<!-- Title: /home/runner/work/EX&#45;Display/EX&#45;Display/test/mocks/MockSPIDisplay.h Pages: 1 -->
<svg width="199pt" height="386pt"
 viewBox="0.00 0.00 199.00 386.00" xmlns="http://www.w3.org/2000/svg" xmlns:xlink="http://www.w3.org/1999/xlink">
<g id="graph0" class="graph" transform="scale(1 1) rotate(0) translate(4 382)">
<title>/home/runner/work/EX&#45;Display/EX&#45;Display/test/mocks/MockSPIDisplay.h</title>
<polygon fill="white" stroke="transparent" points="-4,4 -4,-382 195,-382 195,4 -4,4"/>
<!-- Node1 -->
<g id="node1" class="node">
<title>Node1</title>
<g id="a_node1"><a xlink:title=" ">
<polygon fill="#bfbfbf" stroke="black" points="51,-336.5 51,-377.5 191,-377.5 191,-336.5 51,-336.5"/>
<text text-anchor="start" x="59" y="-365.5" font-family="Helvetica,sans-Serif" font-size="10.00">/home/runner/work/EX</text>
<text text-anchor="start" x="59" y="-354.5" font-family="Helvetica,sans-Serif" font-size="10.00">&#45;Display/EX&#45;Display/test</text>
<text text-anchor="middle" x="121" y="-343.5" font-family="Helvetica,sans-Serif" font-size="10.00">/mocks/MockSPIDisplay.h</text>
</a>
</g>
</g>
<!-- Node2 -->
<g id="node2" class="node">
<title>Node2</title>
<g id="a_node2"><a xlink:href="DisplayInterface_8h.html" target="_top" xlink:title=" ">
<polygon fill="white" stroke="black" points="15,-280.5 15,-299.5 121,-299.5 121,-280.5 15,-280.5"/>
<text text-anchor="middle" x="68" y="-287.5" font-family="Helvetica,sans-Serif" font-size="10.00">DisplayInterface.h</text>
</a>
</g>
</g>
<!-- Node1&#45;&gt;Node2 -->
<g id="edge1" class="edge">
<title>Node1&#45;&gt;Node2</title>
<path fill="none" stroke="midnightblue" d="M105.1,-336.5C97.6,-327.3 88.74,-316.44 81.56,-307.63"/>
<polygon fill="midnightblue" stroke="midnightblue" points="84.09,-305.19 75.06,-299.65 78.66,-309.61 84.09,-305.19"/>
</g>
<!-- Node6 -->
<g id="node5" class="node">
<title>Node6</title>
<g id="a_node5"><a xlink:title=" ">
<polygon fill="white" stroke="#bfbfbf" points="76.5,-0.5 76.5,-19.5 171.5,-19.5 171.5,-0.5 76.5,-0.5"/>
<text text-anchor="middle" x="124" y="-7.5" font-family="Helvetica,sans-Serif" font-size="10.00">gmock/gmock.h</text>
</a>
</g>
</g>
<!-- Node1&#45;&gt;Node6 -->
<g id="edge10" class="edge">
<title>Node1&#45;&gt;Node6</title>
<path fill="none" stroke="midnightblue" d="M132.2,-336.15C144.34,-312.73 162,-272.26 162,-235 162,-235 162,-235 162,-121 162,-86.81 145.4,-49.76 134.14,-28.57"/>
<polygon fill="midnightblue" stroke="midnightblue" points="137.18,-26.83 129.28,-19.77 131.05,-30.22 137.18,-26.83"/>
</g>
<!-- Node3 -->
<g id="node3" class="node">
<title>Node3</title>
<g id="a_node3"><a xlink:href="Logger_8h.html" target="_top" xlink:title=" ">
<polygon fill="white" stroke="black" points="0,-112.5 0,-131.5 58,-131.5 58,-112.5 0,-112.5"/>
<text text-anchor="middle" x="29" y="-119.5" font-family="Helvetica,sans-Serif" font-size="10.00">Logger.h</text>
</a>
</g>
</g>
<!-- Node2&#45;&gt;Node3 -->
<g id="edge2" class="edge">
<title>Node2&#45;&gt;Node3</title>
<path fill="none" stroke="midnightblue" d="M58.95,-280.41C50.33,-271.84 37.46,-257.97 29,-244 15.16,-221.12 11.98,-214.27 7,-188 5.35,-179.27 5,-176.66 7,-168 9.23,-158.36 13.82,-148.41 18.24,-140.31"/>
<polygon fill="midnightblue" stroke="midnightblue" points="21.35,-141.92 23.36,-131.52 15.3,-138.4 21.35,-141.92"/>
</g>
<!-- Node10 -->
<g id="node6" class="node">
<title>Node10</title>
<g id="a_node6"><a xlink:href="Screen_8h.html" target="_top" xlink:title=" ">
<polygon fill="white" stroke="black" points="38.5,-224.5 38.5,-243.5 97.5,-243.5 97.5,-224.5 38.5,-224.5"/>
<text text-anchor="middle" x="68" y="-231.5" font-family="Helvetica,sans-Serif" font-size="10.00">Screen.h</text>
</a>
</g>
</g>
<!-- Node2&#45;&gt;Node10 -->
<g id="edge5" class="edge">
<title>Node2&#45;&gt;Node10</title>
<path fill="none" stroke="midnightblue" d="M68,-280.08C68,-273.01 68,-262.86 68,-253.99"/>
<polygon fill="midnightblue" stroke="midnightblue" points="71.5,-253.75 68,-243.75 64.5,-253.75 71.5,-253.75"/>
</g>
<!-- Node4 -->
<g id="node4" class="node">
<title>Node4</title>
<g id="a_node4"><a xlink:href="Arduino_8h.html" target="_top" xlink:title=" ">
<polygon fill="white" stroke="red" points="62.5,-56.5 62.5,-75.5 125.5,-75.5 125.5,-56.5 62.5,-56.5"/>
<text text-anchor="middle" x="94" y="-63.5" font-family="Helvetica,sans-Serif" font-size="10.00">Arduino.h</text>
</a>
</g>
</g>
<!-- Node3&#45;&gt;Node4 -->
<g id="edge3" class="edge">
<title>Node3&#45;&gt;Node4</title>
<path fill="none" stroke="midnightblue" d="M39.44,-112.32C49.15,-104.26 63.82,-92.08 75.5,-82.37"/>
<polygon fill="midnightblue" stroke="midnightblue" points="77.91,-84.92 83.37,-75.83 73.44,-79.53 77.91,-84.92"/>
</g>
<!-- Node4&#45;&gt;Node6 -->
<g id="edge4" class="edge">
<title>Node4&#45;&gt;Node6</title>
<path fill="none" stroke="midnightblue" d="M98.95,-56.08C103.1,-48.61 109.15,-37.72 114.27,-28.52"/>
<polygon fill="midnightblue" stroke="midnightblue" points="117.34,-30.19 119.14,-19.75 111.22,-26.79 117.34,-30.19"/>
</g>
<!-- Node10&#45;&gt;Node4 -->
<g id="edge9" class="edge">
<title>Node10&#45;&gt;Node4</title>
<path fill="none" stroke="midnightblue" d="M78.16,-224.19C86.91,-215.87 98.9,-202.54 104,-188 116.22,-153.16 107.04,-109.34 100.02,-85.15"/>
<polygon fill="midnightblue" stroke="midnightblue" points="103.33,-84.03 97.03,-75.52 96.65,-86.11 103.33,-84.03"/>
</g>
<!-- Node11 -->
<g id="node7" class="node">
<title>Node11</title>
<g id="a_node7"><a xlink:href="ScreenRow_8h.html" target="_top" xlink:title=" ">
<polygon fill="white" stroke="black" points="16.5,-168.5 16.5,-187.5 95.5,-187.5 95.5,-168.5 16.5,-168.5"/>
<text text-anchor="middle" x="56" y="-175.5" font-family="Helvetica,sans-Serif" font-size="10.00">ScreenRow.h</text>
</a>
</g>
</g>
<!-- Node10&#45;&gt;Node11 -->
<g id="edge6" class="edge">
<title>Node10&#45;&gt;Node11</title>
<path fill="none" stroke="midnightblue" d="M66.02,-224.08C64.43,-216.93 62.14,-206.64 60.15,-197.69"/>
<polygon fill="midnightblue" stroke="midnightblue" points="63.53,-196.75 57.94,-187.75 56.7,-198.27 63.53,-196.75"/>
</g>
<!-- Node11&#45;&gt;Node3 -->
<g id="edge7" class="edge">
<title>Node11&#45;&gt;Node3</title>
<path fill="none" stroke="midnightblue" d="M51.54,-168.08C47.85,-160.69 42.48,-149.95 37.91,-140.81"/>
<polygon fill="midnightblue" stroke="midnightblue" points="40.98,-139.13 33.38,-131.75 34.72,-142.26 40.98,-139.13"/>
</g>
<!-- Node11&#45;&gt;Node4 -->
<g id="edge8" class="edge">
<title>Node11&#45;&gt;Node4</title>
<path fill="none" stroke="midnightblue" d="M58.98,-168.37C65.14,-150.54 79.39,-109.3 87.69,-85.27"/>
<polygon fill="midnightblue" stroke="midnightblue" points="91.07,-86.19 91.03,-75.59 84.46,-83.9 91.07,-86.19"/>
</g>
</g>
</svg>
