<?xml version="1.0" encoding="UTF-8" standalone="no"?>
<!DOCTYPE svg PUBLIC "-//W3C//DTD SVG 1.1//EN"
 "http://www.w3.org/Graphics/SVG/1.1/DTD/svg11.dtd">
<!-- Generated by graphviz version 2.43.0 (0)
 -->
<!-- Title: /home/runner/work/EX&#45;Display/EX&#45;Display/test/mocks/MockDisplay.h Pages: 1 -->
<svg width="168pt" height="274pt"
 viewBox="0.00 0.00 168.00 274.00" xmlns="http://www.w3.org/2000/svg" xmlns:xlink="http://www.w3.org/1999/xlink">
<g id="graph0" class="graph" transform="scale(1 1) rotate(0) translate(4 270)">
<title>/home/runner/work/EX&#45;Display/EX&#45;Display/test/mocks/MockDisplay.h</title>
<polygon fill="white" stroke="transparent" points="-4,4 -4,-270 164,-270 164,4 -4,4"/>
<!-- Node1 -->
<g id="node1" class="node">
<title>Node1</title>
<g id="a_node1"><a xlink:title=" ">
<polygon fill="#bfbfbf" stroke="black" points="26,-224.5 26,-265.5 160,-265.5 160,-224.5 26,-224.5"/>
<text text-anchor="start" x="34" y="-253.5" font-family="Helvetica,sans-Serif" font-size="10.00">/home/runner/work/EX</text>
<text text-anchor="start" x="34" y="-242.5" font-family="Helvetica,sans-Serif" font-size="10.00">&#45;Display/EX&#45;Display/test</text>
<text text-anchor="middle" x="93" y="-231.5" font-family="Helvetica,sans-Serif" font-size="10.00">/mocks/MockDisplay.h</text>
</a>
</g>
</g>
<!-- Node2 -->
<g id="node2" class="node">
<title>Node2</title>
<g id="a_node2"><a xlink:href="DisplayInterface_8h.html" target="_top" xlink:title=" ">
<polygon fill="white" stroke="black" points="0,-168.5 0,-187.5 106,-187.5 106,-168.5 0,-168.5"/>
<text text-anchor="middle" x="53" y="-175.5" font-family="Helvetica,sans-Serif" font-size="10.00">DisplayInterface.h</text>
</a>
</g>
</g>
<!-- Node1&#45;&gt;Node2 -->
<g id="edge1" class="edge">
<title>Node1&#45;&gt;Node2</title>
<path fill="none" stroke="midnightblue" d="M81,-224.5C75.46,-215.49 68.93,-204.89 63.58,-196.19"/>
<polygon fill="midnightblue" stroke="midnightblue" points="66.55,-194.33 58.32,-187.65 60.58,-198 66.55,-194.33"/>
</g>
<!-- Node6 -->
<g id="node5" class="node">
<title>Node6</title>
<g id="a_node5"><a xlink:title=" ">
<polygon fill="white" stroke="#bfbfbf" points="51.5,-0.5 51.5,-19.5 146.5,-19.5 146.5,-0.5 51.5,-0.5"/>
<text text-anchor="middle" x="99" y="-7.5" font-family="Helvetica,sans-Serif" font-size="10.00">gmock/gmock.h</text>
</a>
</g>
</g>
<!-- Node1&#45;&gt;Node6 -->
<g id="edge5" class="edge">
<title>Node1&#45;&gt;Node6</title>
<path fill="none" stroke="midnightblue" d="M102.82,-224.32C107.52,-213.83 112.63,-200.52 115,-188 125.84,-130.78 112,-61.72 103.98,-29.38"/>
<polygon fill="midnightblue" stroke="midnightblue" points="107.33,-28.36 101.43,-19.56 100.55,-30.11 107.33,-28.36"/>
</g>
<!-- Node3 -->
<g id="node3" class="node">
<title>Node3</title>
<g id="a_node3"><a xlink:href="Logger_8h.html" target="_top" xlink:title=" ">
<polygon fill="white" stroke="black" points="34,-112.5 34,-131.5 92,-131.5 92,-112.5 34,-112.5"/>
<text text-anchor="middle" x="63" y="-119.5" font-family="Helvetica,sans-Serif" font-size="10.00">Logger.h</text>
</a>
</g>
</g>
<!-- Node2&#45;&gt;Node3 -->
<g id="edge2" class="edge">
<title>Node2&#45;&gt;Node3</title>
<path fill="none" stroke="midnightblue" d="M54.65,-168.08C55.98,-160.93 57.88,-150.64 59.54,-141.69"/>
<polygon fill="midnightblue" stroke="midnightblue" points="63,-142.22 61.38,-131.75 56.12,-140.95 63,-142.22"/>
</g>
<!-- Node4 -->
<g id="node4" class="node">
<title>Node4</title>
<g id="a_node4"><a xlink:href="Arduino_8h.html" target="_top" xlink:title=" ">
<polygon fill="white" stroke="red" points="37.5,-56.5 37.5,-75.5 100.5,-75.5 100.5,-56.5 37.5,-56.5"/>
<text text-anchor="middle" x="69" y="-63.5" font-family="Helvetica,sans-Serif" font-size="10.00">Arduino.h</text>
</a>
</g>
</g>
<!-- Node3&#45;&gt;Node4 -->
<g id="edge3" class="edge">
<title>Node3&#45;&gt;Node4</title>
<path fill="none" stroke="midnightblue" d="M63.99,-112.08C64.79,-104.93 65.93,-94.64 66.92,-85.69"/>
<polygon fill="midnightblue" stroke="midnightblue" points="70.4,-86.08 68.03,-75.75 63.44,-85.3 70.4,-86.08"/>
</g>
<!-- Node4&#45;&gt;Node6 -->
<g id="edge4" class="edge">
<title>Node4&#45;&gt;Node6</title>
<path fill="none" stroke="midnightblue" d="M73.95,-56.08C78.1,-48.61 84.15,-37.72 89.27,-28.52"/>
<polygon fill="midnightblue" stroke="midnightblue" points="92.34,-30.19 94.14,-19.75 86.22,-26.79 92.34,-30.19"/>
</g>
</g>
</svg>
