<?xml version="1.0" encoding="UTF-8" standalone="no"?>
<!DOCTYPE svg PUBLIC "-//W3C//DTD SVG 1.1//EN"
 "http://www.w3.org/Graphics/SVG/1.1/DTD/svg11.dtd">
<!-- Generated by graphviz version 2.43.0 (0)
 -->
<!-- Title: /home/runner/work/EX&#45;Display/EX&#45;Display/test/mocks/MockDisplayInputMethods.h Pages: 1 -->
<svg width="545pt" height="324pt"
 viewBox="0.00 0.00 544.50 324.00" xmlns="http://www.w3.org/2000/svg" xmlns:xlink="http://www.w3.org/1999/xlink">
<g id="graph0" class="graph" transform="scale(1 1) rotate(0) translate(4 320)">
<title>/home/runner/work/EX&#45;Display/EX&#45;Display/test/mocks/MockDisplayInputMethods.h</title>
<!-- Node1 -->
<g id="Node000001" class="node">
<title>Node1</title>
<g id="a_Node000001"><a xlink:title=" ">
<polygon fill="#999999" stroke="#666666" points="336.5,-316 142.5,-316 142.5,-275 336.5,-275 336.5,-316"/>
<text text-anchor="start" x="150.5" y="-304" font-family="Helvetica,sans-Serif" font-size="10.00">/home/runner/work/EX</text>
<text text-anchor="start" x="150.5" y="-293" font-family="Helvetica,sans-Serif" font-size="10.00">&#45;Display/EX&#45;Display/test</text>
<text text-anchor="middle" x="239.5" y="-282" font-family="Helvetica,sans-Serif" font-size="10.00">/mocks/MockDisplayInputMethods.h</text>
</a>
</g>
</g>
<!-- Node2 -->
<g id="Node000002" class="node">
<title>Node2</title>
<g id="a_Node000002"><a xlink:href="DisplayManager_8h.html" target="_top" xlink:title=" ">
<polygon fill="white" stroke="#666666" points="193.5,-184 89.5,-184 89.5,-165 193.5,-165 193.5,-184"/>
<text text-anchor="middle" x="141.5" y="-172" font-family="Helvetica,sans-Serif" font-size="10.00">DisplayManager.h</text>
</a>
</g>
</g>
<!-- Node1&#45;&gt;Node2 -->
<g id="edge1_Node000001_Node000002" class="edge">
<title>Node1&#45;&gt;Node2</title>
<g id="a_edge1_Node000001_Node000002"><a xlink:title=" ">
<path fill="none" stroke="#63b8ff" d="M223.32,-274.85C204.3,-251.76 173.08,-213.84 155.2,-192.14"/>
<polygon fill="#63b8ff" stroke="#63b8ff" points="157.7,-189.67 148.64,-184.18 152.3,-194.12 157.7,-189.67"/>
</a>
</g>
</g>
<!-- Node14 -->
<g id="Node000014" class="node">
<title>Node14</title>
<g id="a_Node000014"><a xlink:href="InputManager_8h.html" target="_top" xlink:title=" ">
<polygon fill="white" stroke="#666666" points="355.5,-239 263.5,-239 263.5,-220 355.5,-220 355.5,-239"/>
<text text-anchor="middle" x="309.5" y="-227" font-family="Helvetica,sans-Serif" font-size="10.00">InputManager.h</text>
</a>
</g>
</g>
<!-- Node1&#45;&gt;Node14 -->
<g id="edge10_Node000001_Node000014" class="edge">
<title>Node1&#45;&gt;Node14</title>
<g id="a_edge10_Node000001_Node000014"><a xlink:title=" ">
<path fill="none" stroke="#63b8ff" d="M260.88,-274.95C270.96,-265.74 282.82,-254.9 292.3,-246.23"/>
<polygon fill="#63b8ff" stroke="#63b8ff" points="294.9,-248.59 299.92,-239.26 290.18,-243.43 294.9,-248.59"/>
</a>
</g>
</g>
<!-- Node3 -->
<g id="Node000003" class="node">
<title>Node3</title>
<g id="a_Node000003"><a xlink:href="DisplayInterface_8h.html" target="_top" xlink:title=" ">
<polygon fill="white" stroke="#666666" points="263.5,-129 157.5,-129 157.5,-110 263.5,-110 263.5,-129"/>
<text text-anchor="middle" x="210.5" y="-117" font-family="Helvetica,sans-Serif" font-size="10.00">DisplayInterface.h</text>
</a>
</g>
</g>
<!-- Node2&#45;&gt;Node3 -->
<g id="edge2_Node000002_Node000003" class="edge">
<title>Node2&#45;&gt;Node3</title>
<g id="a_edge2_Node000002_Node000003"><a xlink:title=" ">
<path fill="none" stroke="#63b8ff" d="M152.59,-164.98C162.99,-157 178.76,-144.88 191.22,-135.31"/>
<polygon fill="#63b8ff" stroke="#63b8ff" points="193.41,-138.04 199.21,-129.17 189.15,-132.49 193.41,-138.04"/>
</a>
</g>
</g>
<!-- Node4 -->
<g id="Node000004" class="node">
<title>Node4</title>
<g id="a_Node000004"><a xlink:href="Logger_8h.html" target="_top" xlink:title=" ">
<polygon fill="white" stroke="#666666" points="339.5,-74 281.5,-74 281.5,-55 339.5,-55 339.5,-74"/>
<text text-anchor="middle" x="310.5" y="-62" font-family="Helvetica,sans-Serif" font-size="10.00">Logger.h</text>
</a>
</g>
</g>
<!-- Node2&#45;&gt;Node4 -->
<g id="edge7_Node000002_Node000004" class="edge">
<title>Node2&#45;&gt;Node4</title>
<g id="a_edge7_Node000002_Node000004"><a xlink:title=" ">
<path fill="none" stroke="#63b8ff" d="M139.71,-164.94C137.43,-151.54 135.26,-125.53 148.5,-110 164.33,-91.45 228.59,-78.15 271.27,-71.15"/>
<polygon fill="#63b8ff" stroke="#63b8ff" points="272.02,-74.58 281.34,-69.55 270.92,-67.66 272.02,-74.58"/>
</a>
</g>
</g>
<!-- Node13 -->
<g id="Node000013" class="node">
<title>Node13</title>
<g id="a_Node000013"><a xlink:href="ScreenManager_8h.html" target="_top" xlink:title=" ">
<polygon fill="white" stroke="#666666" points="101,-129 0,-129 0,-110 101,-110 101,-129"/>
<text text-anchor="middle" x="50.5" y="-117" font-family="Helvetica,sans-Serif" font-size="10.00">ScreenManager.h</text>
</a>
</g>
</g>
<!-- Node2&#45;&gt;Node13 -->
<g id="edge8_Node000002_Node000013" class="edge">
<title>Node2&#45;&gt;Node13</title>
<g id="a_edge8_Node000002_Node000013"><a xlink:title=" ">
<path fill="none" stroke="#63b8ff" d="M126.88,-164.98C112.64,-156.69 90.75,-143.94 74.05,-134.22"/>
<polygon fill="#63b8ff" stroke="#63b8ff" points="75.79,-131.18 65.39,-129.17 72.27,-137.23 75.79,-131.18"/>
</a>
</g>
</g>
<!-- Node3&#45;&gt;Node4 -->
<g id="edge3_Node000003_Node000004" class="edge">
<title>Node3&#45;&gt;Node4</title>
<g id="a_edge3_Node000003_Node000004"><a xlink:title=" ">
<path fill="none" stroke="#63b8ff" d="M226.57,-109.98C242.36,-101.61 266.72,-88.7 285.13,-78.95"/>
<polygon fill="#63b8ff" stroke="#63b8ff" points="286.94,-81.95 294.14,-74.17 283.67,-75.76 286.94,-81.95"/>
</a>
</g>
</g>
<!-- Node11 -->
<g id="Node000011" class="node">
<title>Node11</title>
<g id="a_Node000011"><a xlink:href="Screen_8h.html" target="_top" xlink:title=" ">
<polygon fill="#fff0f0" stroke="red" points="240,-74 181,-74 181,-55 240,-55 240,-74"/>
<text text-anchor="middle" x="210.5" y="-62" font-family="Helvetica,sans-Serif" font-size="10.00">Screen.h</text>
</a>
</g>
</g>
<!-- Node3&#45;&gt;Node11 -->
<g id="edge5_Node000003_Node000011" class="edge">
<title>Node3&#45;&gt;Node11</title>
<g id="a_edge5_Node000003_Node000011"><a xlink:title=" ">
<path fill="none" stroke="#63b8ff" d="M210.5,-109.75C210.5,-102.8 210.5,-92.85 210.5,-84.13"/>
<polygon fill="#63b8ff" stroke="#63b8ff" points="214,-84.09 210.5,-74.09 207,-84.09 214,-84.09"/>
</a>
</g>
</g>
<!-- Node5 -->
<g id="Node000005" class="node">
<title>Node5</title>
<g id="a_Node000005"><a xlink:href="Arduino_8h.html" target="_top" xlink:title=" ">
<polygon fill="#fff0f0" stroke="red" points="342,-19 279,-19 279,0 342,0 342,-19"/>
<text text-anchor="middle" x="310.5" y="-7" font-family="Helvetica,sans-Serif" font-size="10.00">Arduino.h</text>
</a>
</g>
</g>
<!-- Node4&#45;&gt;Node5 -->
<g id="edge4_Node000004_Node000005" class="edge">
<title>Node4&#45;&gt;Node5</title>
<g id="a_edge4_Node000004_Node000005"><a xlink:title=" ">
<path fill="none" stroke="#63b8ff" d="M310.5,-54.75C310.5,-47.8 310.5,-37.85 310.5,-29.13"/>
<polygon fill="#63b8ff" stroke="#63b8ff" points="314,-29.09 310.5,-19.09 307,-29.09 314,-29.09"/>
</a>
</g>
</g>
<!-- Node11&#45;&gt;Node5 -->
<g id="edge6_Node000011_Node000005" class="edge">
<title>Node11&#45;&gt;Node5</title>
<g id="a_edge6_Node000011_Node000005"><a xlink:title=" ">
<path fill="none" stroke="#63b8ff" d="M226.57,-54.98C242.36,-46.61 266.72,-33.7 285.13,-23.95"/>
<polygon fill="#63b8ff" stroke="#63b8ff" points="286.94,-26.95 294.14,-19.17 283.67,-20.76 286.94,-26.95"/>
</a>
</g>
</g>
<!-- Node13&#45;&gt;Node11 -->
<g id="edge9_Node000013_Node000011" class="edge">
<title>Node13&#45;&gt;Node11</title>
<g id="a_edge9_Node000013_Node000011"><a xlink:title=" ">
<path fill="none" stroke="#63b8ff" d="M76.21,-109.98C102.95,-101.13 145.03,-87.19 174.95,-77.28"/>
<polygon fill="#63b8ff" stroke="#63b8ff" points="176.2,-80.55 184.59,-74.08 174,-73.9 176.2,-80.55"/>
</a>
</g>
</g>
<!-- Node14&#45;&gt;Node3 -->
<g id="edge17_Node000014_Node000003" class="edge">
<title>Node14&#45;&gt;Node3</title>
<g id="a_edge17_Node000014_Node000003"><a xlink:title=" ">
<path fill="none" stroke="#63b8ff" d="M300.81,-219.75C292.04,-210.86 278.16,-196.63 266.5,-184 251.94,-168.23 235.77,-149.79 224.57,-136.86"/>
<polygon fill="#63b8ff" stroke="#63b8ff" points="227.17,-134.52 217.99,-129.24 221.87,-139.09 227.17,-134.52"/>
</a>
</g>
</g>
<!-- Node14&#45;&gt;Node4 -->
<g id="edge23_Node000014_Node000004" class="edge">
<title>Node14&#45;&gt;Node4</title>
<g id="a_edge23_Node000014_Node000004"><a xlink:title=" ">
<path fill="none" stroke="#63b8ff" d="M306.93,-219.73C304.45,-210.83 300.9,-196.59 299.5,-184 295.58,-148.7 301.88,-107.39 306.45,-84.04"/>
<polygon fill="#63b8ff" stroke="#63b8ff" points="309.9,-84.64 308.5,-74.13 303.04,-83.22 309.9,-84.64"/>
</a>
</g>
</g>
<!-- Node15 -->
<g id="Node000015" class="node">
<title>Node15</title>
<g id="a_Node000015"><a xlink:href="CallbackInterface_8h.html" target="_top" xlink:title=" ">
<polygon fill="white" stroke="#666666" points="507,-129 396,-129 396,-110 507,-110 507,-129"/>
<text text-anchor="middle" x="451.5" y="-117" font-family="Helvetica,sans-Serif" font-size="10.00">CallbackInterface.h</text>
</a>
</g>
</g>
<!-- Node14&#45;&gt;Node15 -->
<g id="edge11_Node000014_Node000015" class="edge">
<title>Node14&#45;&gt;Node15</title>
<g id="a_edge11_Node000014_Node000015"><a xlink:title=" ">
<path fill="none" stroke="#63b8ff" d="M355.86,-223.63C404.11,-217.49 474.93,-205.11 491.5,-184 503.83,-168.29 487.06,-148.63 471.61,-135.38"/>
<polygon fill="#63b8ff" stroke="#63b8ff" points="473.79,-132.64 463.81,-129.09 469.4,-138.09 473.79,-132.64"/>
</a>
</g>
</g>
<!-- Node17 -->
<g id="Node000017" class="node">
<title>Node17</title>
<g id="a_Node000017"><a xlink:href="Defines_8h.html" target="_top" xlink:title=" ">
<polygon fill="white" stroke="#666666" points="370.5,-184 308.5,-184 308.5,-165 370.5,-165 370.5,-184"/>
<text text-anchor="middle" x="339.5" y="-172" font-family="Helvetica,sans-Serif" font-size="10.00">Defines.h</text>
</a>
</g>
</g>
<!-- Node14&#45;&gt;Node17 -->
<g id="edge15_Node000014_Node000017" class="edge">
<title>Node14&#45;&gt;Node17</title>
<g id="a_edge15_Node000014_Node000017"><a xlink:title=" ">
<path fill="none" stroke="#63b8ff" d="M314.45,-219.75C318.56,-212.49 324.53,-201.95 329.6,-192.98"/>
<polygon fill="#63b8ff" stroke="#63b8ff" points="332.76,-194.52 334.64,-184.09 326.67,-191.07 332.76,-194.52"/>
</a>
</g>
</g>
<!-- Node18 -->
<g id="Node000018" class="node">
<title>Node18</title>
<g id="a_Node000018"><a xlink:href="InputInterface_8h.html" target="_top" xlink:title=" ">
<polygon fill="white" stroke="#666666" points="482.5,-184 388.5,-184 388.5,-165 482.5,-165 482.5,-184"/>
<text text-anchor="middle" x="435.5" y="-172" font-family="Helvetica,sans-Serif" font-size="10.00">InputInterface.h</text>
</a>
</g>
</g>
<!-- Node14&#45;&gt;Node18 -->
<g id="edge18_Node000014_Node000018" class="edge">
<title>Node14&#45;&gt;Node18</title>
<g id="a_edge18_Node000014_Node000018"><a xlink:title=" ">
<path fill="none" stroke="#63b8ff" d="M329.74,-219.98C350.2,-211.38 382.03,-197.99 405.43,-188.15"/>
<polygon fill="#63b8ff" stroke="#63b8ff" points="407.03,-191.27 414.89,-184.17 404.31,-184.82 407.03,-191.27"/>
</a>
</g>
</g>
<!-- Node15&#45;&gt;Node4 -->
<g id="edge13_Node000015_Node000004" class="edge">
<title>Node15&#45;&gt;Node4</title>
<g id="a_edge13_Node000015_Node000004"><a xlink:title=" ">
<path fill="none" stroke="#63b8ff" d="M428.85,-109.98C405.65,-101.27 369.38,-87.63 343.1,-77.75"/>
<polygon fill="#63b8ff" stroke="#63b8ff" points="344.16,-74.41 333.57,-74.17 341.7,-80.97 344.16,-74.41"/>
</a>
</g>
</g>
<!-- Node15&#45;&gt;Node5 -->
<g id="edge14_Node000015_Node000005" class="edge">
<title>Node15&#45;&gt;Node5</title>
<g id="a_edge14_Node000015_Node000005"><a xlink:title=" ">
<path fill="none" stroke="#63b8ff" d="M439.96,-109.66C415.78,-91.14 359.56,-48.08 329.79,-25.28"/>
<polygon fill="#63b8ff" stroke="#63b8ff" points="331.87,-22.46 321.8,-19.16 327.61,-28.02 331.87,-22.46"/>
</a>
</g>
</g>
<!-- Node16 -->
<g id="Node000016" class="node">
<title>Node16</title>
<g id="a_Node000016"><a xlink:href="InputActions_8h.html" target="_top" xlink:title=" ">
<polygon fill="white" stroke="#666666" points="536.5,-74 450.5,-74 450.5,-55 536.5,-55 536.5,-74"/>
<text text-anchor="middle" x="493.5" y="-62" font-family="Helvetica,sans-Serif" font-size="10.00">InputActions.h</text>
</a>
</g>
</g>
<!-- Node15&#45;&gt;Node16 -->
<g id="edge12_Node000015_Node000016" class="edge">
<title>Node15&#45;&gt;Node16</title>
<g id="a_edge12_Node000015_Node000016"><a xlink:title=" ">
<path fill="none" stroke="#63b8ff" d="M458.44,-109.75C464.37,-102.26 473.07,-91.28 480.32,-82.13"/>
<polygon fill="#63b8ff" stroke="#63b8ff" points="483.23,-84.1 486.69,-74.09 477.74,-79.75 483.23,-84.1"/>
</a>
</g>
</g>
<!-- Node17&#45;&gt;Node4 -->
<g id="edge16_Node000017_Node000004" class="edge">
<title>Node17&#45;&gt;Node4</title>
<g id="a_edge16_Node000017_Node000004"><a xlink:title=" ">
<path fill="none" stroke="#63b8ff" d="M337.13,-164.66C332.41,-147.09 321.76,-107.45 315.46,-83.95"/>
<polygon fill="#63b8ff" stroke="#63b8ff" points="318.8,-82.91 312.82,-74.16 312.04,-84.72 318.8,-82.91"/>
</a>
</g>
</g>
<!-- Node18&#45;&gt;Node3 -->
<g id="edge20_Node000018_Node000003" class="edge">
<title>Node18&#45;&gt;Node3</title>
<g id="a_edge20_Node000018_Node000003"><a xlink:title=" ">
<path fill="none" stroke="#63b8ff" d="M399.35,-164.98C360.59,-155.86 298.95,-141.33 256.7,-131.38"/>
<polygon fill="#63b8ff" stroke="#63b8ff" points="257.47,-127.97 246.93,-129.08 255.86,-134.78 257.47,-127.97"/>
</a>
</g>
</g>
<!-- Node18&#45;&gt;Node4 -->
<g id="edge22_Node000018_Node000004" class="edge">
<title>Node18&#45;&gt;Node4</title>
<g id="a_edge22_Node000018_Node000004"><a xlink:title=" ">
<path fill="none" stroke="#63b8ff" d="M425.27,-164.66C404.01,-146.3 354.84,-103.81 328.29,-80.87"/>
<polygon fill="#63b8ff" stroke="#63b8ff" points="330.38,-78.05 320.52,-74.16 325.8,-83.34 330.38,-78.05"/>
</a>
</g>
</g>
<!-- Node18&#45;&gt;Node15 -->
<g id="edge19_Node000018_Node000015" class="edge">
<title>Node18&#45;&gt;Node15</title>
<g id="a_edge19_Node000018_Node000015"><a xlink:title=" ">
<path fill="none" stroke="#63b8ff" d="M438.14,-164.75C440.26,-157.72 443.31,-147.62 445.96,-138.84"/>
<polygon fill="#63b8ff" stroke="#63b8ff" points="449.37,-139.67 448.91,-129.09 442.67,-137.65 449.37,-139.67"/>
</a>
</g>
</g>
<!-- Node18&#45;&gt;Node16 -->
<g id="edge21_Node000018_Node000016" class="edge">
<title>Node18&#45;&gt;Node16</title>
<g id="a_edge21_Node000018_Node000016"><a xlink:title=" ">
<path fill="none" stroke="#63b8ff" d="M466.92,-164.97C484.84,-158.32 505.8,-147.09 516.5,-129 525.23,-114.24 516.48,-95.62 507.37,-82.37"/>
<polygon fill="#63b8ff" stroke="#63b8ff" points="510.02,-80.06 501.22,-74.16 504.42,-84.26 510.02,-80.06"/>
</a>
</g>
</g>
</g>
</svg>
