<?xml version="1.0" encoding="UTF-8" standalone="no"?>
<!DOCTYPE svg PUBLIC "-//W3C//DTD SVG 1.1//EN"
 "http://www.w3.org/Graphics/SVG/1.1/DTD/svg11.dtd">
<!-- Generated by graphviz version 2.43.0 (0)
 -->
<!-- Title: /home/runner/work/EX&#45;Display/EX&#45;Display/test/mocks/MockInput.h Pages: 1 -->
<svg width="361pt" height="330pt"
 viewBox="0.00 0.00 361.00 330.00" xmlns="http://www.w3.org/2000/svg" xmlns:xlink="http://www.w3.org/1999/xlink">
<g id="graph0" class="graph" transform="scale(1 1) rotate(0) translate(4 326)">
<title>/home/runner/work/EX&#45;Display/EX&#45;Display/test/mocks/MockInput.h</title>
<polygon fill="white" stroke="transparent" points="-4,4 -4,-326 357,-326 357,4 -4,4"/>
<!-- Node1 -->
<g id="node1" class="node">
<title>Node1</title>
<g id="a_node1"><a xlink:title=" ">
<polygon fill="#bfbfbf" stroke="black" points="205,-280.5 205,-321.5 339,-321.5 339,-280.5 205,-280.5"/>
<text text-anchor="start" x="213" y="-309.5" font-family="Helvetica,sans-Serif" font-size="10.00">/home/runner/work/EX</text>
<text text-anchor="start" x="213" y="-298.5" font-family="Helvetica,sans-Serif" font-size="10.00">&#45;Display/EX&#45;Display/test</text>
<text text-anchor="middle" x="272" y="-287.5" font-family="Helvetica,sans-Serif" font-size="10.00">/mocks/MockInput.h</text>
</a>
</g>
</g>
<!-- Node2 -->
<g id="node2" class="node">
<title>Node2</title>
<g id="a_node2"><a xlink:href="InputInterface_8h.html" target="_top" xlink:title=" ">
<polygon fill="white" stroke="black" points="144,-224.5 144,-243.5 238,-243.5 238,-224.5 144,-224.5"/>
<text text-anchor="middle" x="191" y="-231.5" font-family="Helvetica,sans-Serif" font-size="10.00">InputInterface.h</text>
</a>
</g>
</g>
<!-- Node1&#45;&gt;Node2 -->
<g id="edge1" class="edge">
<title>Node1&#45;&gt;Node2</title>
<path fill="none" stroke="midnightblue" d="M247.7,-280.5C235.52,-270.72 221,-259.07 209.7,-250.01"/>
<polygon fill="midnightblue" stroke="midnightblue" points="211.77,-247.18 201.78,-243.65 207.39,-252.64 211.77,-247.18"/>
</g>
<!-- Node8 -->
<g id="node7" class="node">
<title>Node8</title>
<g id="a_node7"><a xlink:title=" ">
<polygon fill="white" stroke="#bfbfbf" points="224.5,-0.5 224.5,-19.5 319.5,-19.5 319.5,-0.5 224.5,-0.5"/>
<text text-anchor="middle" x="272" y="-7.5" font-family="Helvetica,sans-Serif" font-size="10.00">gmock/gmock.h</text>
</a>
</g>
</g>
<!-- Node1&#45;&gt;Node8 -->
<g id="edge12" class="edge">
<title>Node1&#45;&gt;Node8</title>
<path fill="none" stroke="midnightblue" d="M295.86,-280.41C319.76,-258.46 353,-220.46 353,-179 353,-179 353,-179 353,-121 353,-80.45 316.86,-44.99 292.86,-25.91"/>
<polygon fill="midnightblue" stroke="midnightblue" points="294.73,-22.94 284.66,-19.65 290.48,-28.5 294.73,-22.94"/>
</g>
<!-- Node3 -->
<g id="node3" class="node">
<title>Node3</title>
<g id="a_node3"><a xlink:href="CallbackInterface_8h.html" target="_top" xlink:title=" ">
<polygon fill="white" stroke="black" points="51.5,-168.5 51.5,-187.5 162.5,-187.5 162.5,-168.5 51.5,-168.5"/>
<text text-anchor="middle" x="107" y="-175.5" font-family="Helvetica,sans-Serif" font-size="10.00">CallbackInterface.h</text>
</a>
</g>
</g>
<!-- Node2&#45;&gt;Node3 -->
<g id="edge2" class="edge">
<title>Node2&#45;&gt;Node3</title>
<path fill="none" stroke="midnightblue" d="M177.5,-224.32C164.4,-215.9 144.29,-202.97 128.89,-193.07"/>
<polygon fill="midnightblue" stroke="midnightblue" points="130.77,-190.12 120.46,-187.65 126.98,-196.01 130.77,-190.12"/>
</g>
<!-- Node4 -->
<g id="node4" class="node">
<title>Node4</title>
<g id="a_node4"><a xlink:href="InputActions_8h.html" target="_top" xlink:title=" ">
<polygon fill="white" stroke="black" points="0,-112.5 0,-131.5 86,-131.5 86,-112.5 0,-112.5"/>
<text text-anchor="middle" x="43" y="-119.5" font-family="Helvetica,sans-Serif" font-size="10.00">InputActions.h</text>
</a>
</g>
</g>
<!-- Node2&#45;&gt;Node4 -->
<g id="edge10" class="edge">
<title>Node2&#45;&gt;Node4</title>
<path fill="none" stroke="midnightblue" d="M143.72,-232.64C109.44,-229.57 65.2,-219.24 42,-188 32.23,-174.84 33.86,-155.7 37.11,-141.6"/>
<polygon fill="midnightblue" stroke="midnightblue" points="40.59,-142.15 39.87,-131.58 33.84,-140.29 40.59,-142.15"/>
</g>
<!-- Node5 -->
<g id="node5" class="node">
<title>Node5</title>
<g id="a_node5"><a xlink:href="Logger_8h.html" target="_top" xlink:title=" ">
<polygon fill="white" stroke="black" points="162,-112.5 162,-131.5 220,-131.5 220,-112.5 162,-112.5"/>
<text text-anchor="middle" x="191" y="-119.5" font-family="Helvetica,sans-Serif" font-size="10.00">Logger.h</text>
</a>
</g>
</g>
<!-- Node2&#45;&gt;Node5 -->
<g id="edge11" class="edge">
<title>Node2&#45;&gt;Node5</title>
<path fill="none" stroke="midnightblue" d="M191,-224.37C191,-206.62 191,-165.67 191,-141.6"/>
<polygon fill="midnightblue" stroke="midnightblue" points="194.5,-141.59 191,-131.59 187.5,-141.59 194.5,-141.59"/>
</g>
<!-- Node12 -->
<g id="node8" class="node">
<title>Node12</title>
<g id="a_node8"><a xlink:href="DisplayInterface_8h.html" target="_top" xlink:title=" ">
<polygon fill="white" stroke="black" points="219,-168.5 219,-187.5 325,-187.5 325,-168.5 219,-168.5"/>
<text text-anchor="middle" x="272" y="-175.5" font-family="Helvetica,sans-Serif" font-size="10.00">DisplayInterface.h</text>
</a>
</g>
</g>
<!-- Node2&#45;&gt;Node12 -->
<g id="edge8" class="edge">
<title>Node2&#45;&gt;Node12</title>
<path fill="none" stroke="midnightblue" d="M204.01,-224.32C216.53,-215.98 235.68,-203.21 250.47,-193.35"/>
<polygon fill="midnightblue" stroke="midnightblue" points="252.64,-196.11 259.02,-187.65 248.76,-190.29 252.64,-196.11"/>
</g>
<!-- Node3&#45;&gt;Node4 -->
<g id="edge3" class="edge">
<title>Node3&#45;&gt;Node4</title>
<path fill="none" stroke="midnightblue" d="M96.72,-168.32C87.16,-160.26 72.72,-148.08 61.22,-138.37"/>
<polygon fill="midnightblue" stroke="midnightblue" points="63.37,-135.61 53.47,-131.83 58.86,-140.96 63.37,-135.61"/>
</g>
<!-- Node3&#45;&gt;Node5 -->
<g id="edge4" class="edge">
<title>Node3&#45;&gt;Node5</title>
<path fill="none" stroke="midnightblue" d="M120.5,-168.32C133.6,-159.9 153.71,-146.97 169.11,-137.07"/>
<polygon fill="midnightblue" stroke="midnightblue" points="171.02,-140.01 177.54,-131.65 167.23,-134.12 171.02,-140.01"/>
</g>
<!-- Node6 -->
<g id="node6" class="node">
<title>Node6</title>
<g id="a_node6"><a xlink:href="Arduino_8h.html" target="_top" xlink:title=" ">
<polygon fill="white" stroke="red" points="159.5,-56.5 159.5,-75.5 222.5,-75.5 222.5,-56.5 159.5,-56.5"/>
<text text-anchor="middle" x="191" y="-63.5" font-family="Helvetica,sans-Serif" font-size="10.00">Arduino.h</text>
</a>
</g>
</g>
<!-- Node3&#45;&gt;Node6 -->
<g id="edge7" class="edge">
<title>Node3&#45;&gt;Node6</title>
<path fill="none" stroke="midnightblue" d="M112.73,-168.42C121.22,-155.82 137.77,-131.68 153,-112 160.51,-102.3 169.33,-91.8 176.58,-83.39"/>
<polygon fill="midnightblue" stroke="midnightblue" points="179.28,-85.62 183.2,-75.78 174,-81.03 179.28,-85.62"/>
</g>
<!-- Node5&#45;&gt;Node6 -->
<g id="edge5" class="edge">
<title>Node5&#45;&gt;Node6</title>
<path fill="none" stroke="midnightblue" d="M191,-112.08C191,-105.01 191,-94.86 191,-85.99"/>
<polygon fill="midnightblue" stroke="midnightblue" points="194.5,-85.75 191,-75.75 187.5,-85.75 194.5,-85.75"/>
</g>
<!-- Node6&#45;&gt;Node8 -->
<g id="edge6" class="edge">
<title>Node6&#45;&gt;Node8</title>
<path fill="none" stroke="midnightblue" d="M204.01,-56.32C216.53,-47.98 235.68,-35.21 250.47,-25.35"/>
<polygon fill="midnightblue" stroke="midnightblue" points="252.64,-28.11 259.02,-19.65 248.76,-22.29 252.64,-28.11"/>
</g>
<!-- Node12&#45;&gt;Node5 -->
<g id="edge9" class="edge">
<title>Node12&#45;&gt;Node5</title>
<path fill="none" stroke="midnightblue" d="M258.99,-168.32C246.47,-159.98 227.32,-147.21 212.53,-137.35"/>
<polygon fill="midnightblue" stroke="midnightblue" points="214.24,-134.29 203.98,-131.65 210.36,-140.11 214.24,-134.29"/>
</g>
</g>
</svg>
