<?xml version="1.0" encoding="UTF-8" standalone="no"?>
<!DOCTYPE svg PUBLIC "-//W3C//DTD SVG 1.1//EN"
 "http://www.w3.org/Graphics/SVG/1.1/DTD/svg11.dtd">
<!-- Generated by graphviz version 2.43.0 (0)
 -->
<!-- Title: /home/runner/work/EX&#45;Display/EX&#45;Display/test/mocks/MockInput.h Pages: 1 -->
<svg width="360pt" height="330pt"
 viewBox="0.00 0.00 360.00 330.00" xmlns="http://www.w3.org/2000/svg" xmlns:xlink="http://www.w3.org/1999/xlink">
<g id="graph0" class="graph" transform="scale(1 1) rotate(0) translate(4 326)">
<title>/home/runner/work/EX&#45;Display/EX&#45;Display/test/mocks/MockInput.h</title>
<polygon fill="white" stroke="transparent" points="-4,4 -4,-326 356,-326 356,4 -4,4"/>
<!-- Node1 -->
<g id="node1" class="node">
<title>Node1</title>
<g id="a_node1"><a xlink:title=" ">
<polygon fill="#bfbfbf" stroke="black" points="204,-280.5 204,-321.5 338,-321.5 338,-280.5 204,-280.5"/>
<text text-anchor="start" x="212" y="-309.5" font-family="Helvetica,sans-Serif" font-size="10.00">/home/runner/work/EX</text>
<text text-anchor="start" x="212" y="-298.5" font-family="Helvetica,sans-Serif" font-size="10.00">&#45;Display/EX&#45;Display/test</text>
<text text-anchor="middle" x="271" y="-287.5" font-family="Helvetica,sans-Serif" font-size="10.00">/mocks/MockInput.h</text>
</a>
</g>
</g>
<!-- Node2 -->
<g id="node2" class="node">
<title>Node2</title>
<g id="a_node2"><a xlink:href="InputInterface_8h.html" target="_top" xlink:title=" ">
<polygon fill="white" stroke="black" points="143,-224.5 143,-243.5 237,-243.5 237,-224.5 143,-224.5"/>
<text text-anchor="middle" x="190" y="-231.5" font-family="Helvetica,sans-Serif" font-size="10.00">InputInterface.h</text>
</a>
</g>
</g>
<!-- Node1&#45;&gt;Node2 -->
<g id="edge1" class="edge">
<title>Node1&#45;&gt;Node2</title>
<path fill="none" stroke="midnightblue" d="M246.7,-280.5C234.52,-270.72 220,-259.07 208.7,-250.01"/>
<polygon fill="midnightblue" stroke="midnightblue" points="210.77,-247.18 200.78,-243.65 206.39,-252.64 210.77,-247.18"/>
</g>
<!-- Node8 -->
<g id="node7" class="node">
<title>Node8</title>
<g id="a_node7"><a xlink:title=" ">
<polygon fill="white" stroke="#bfbfbf" points="222.5,-0.5 222.5,-19.5 317.5,-19.5 317.5,-0.5 222.5,-0.5"/>
<text text-anchor="middle" x="270" y="-7.5" font-family="Helvetica,sans-Serif" font-size="10.00">gmock/gmock.h</text>
</a>
</g>
</g>
<!-- Node1&#45;&gt;Node8 -->
<g id="edge14" class="edge">
<title>Node1&#45;&gt;Node8</title>
<path fill="none" stroke="midnightblue" d="M294.86,-280.41C318.76,-258.46 352,-220.46 352,-179 352,-179 352,-179 352,-121 352,-80.27 315.41,-44.87 291.12,-25.86"/>
<polygon fill="midnightblue" stroke="midnightblue" points="292.91,-22.82 282.81,-19.61 288.7,-28.42 292.91,-22.82"/>
</g>
<!-- Node3 -->
<g id="node3" class="node">
<title>Node3</title>
<g id="a_node3"><a xlink:href="CallbackInterface_8h.html" target="_top" xlink:title=" ">
<polygon fill="white" stroke="black" points="50.5,-168.5 50.5,-187.5 161.5,-187.5 161.5,-168.5 50.5,-168.5"/>
<text text-anchor="middle" x="106" y="-175.5" font-family="Helvetica,sans-Serif" font-size="10.00">CallbackInterface.h</text>
</a>
</g>
</g>
<!-- Node2&#45;&gt;Node3 -->
<g id="edge2" class="edge">
<title>Node2&#45;&gt;Node3</title>
<path fill="none" stroke="midnightblue" d="M176.5,-224.32C163.4,-215.9 143.29,-202.97 127.89,-193.07"/>
<polygon fill="midnightblue" stroke="midnightblue" points="129.77,-190.12 119.46,-187.65 125.98,-196.01 129.77,-190.12"/>
</g>
<!-- Node4 -->
<g id="node4" class="node">
<title>Node4</title>
<g id="a_node4"><a xlink:href="InputActions_8h.html" target="_top" xlink:title=" ">
<polygon fill="white" stroke="black" points="0,-112.5 0,-131.5 86,-131.5 86,-112.5 0,-112.5"/>
<text text-anchor="middle" x="43" y="-119.5" font-family="Helvetica,sans-Serif" font-size="10.00">InputActions.h</text>
</a>
</g>
</g>
<!-- Node2&#45;&gt;Node4 -->
<g id="edge12" class="edge">
<title>Node2&#45;&gt;Node4</title>
<path fill="none" stroke="midnightblue" d="M142.72,-232.64C108.44,-229.57 64.2,-219.24 41,-188 31.13,-174.71 33.22,-155.32 36.81,-141.18"/>
<polygon fill="midnightblue" stroke="midnightblue" points="40.17,-142.16 39.68,-131.57 33.46,-140.16 40.17,-142.16"/>
</g>
<!-- Node5 -->
<g id="node5" class="node">
<title>Node5</title>
<g id="a_node5"><a xlink:href="Logger_8h.html" target="_top" xlink:title=" ">
<polygon fill="white" stroke="black" points="162,-112.5 162,-131.5 220,-131.5 220,-112.5 162,-112.5"/>
<text text-anchor="middle" x="191" y="-119.5" font-family="Helvetica,sans-Serif" font-size="10.00">Logger.h</text>
</a>
</g>
</g>
<!-- Node2&#45;&gt;Node5 -->
<g id="edge13" class="edge">
<title>Node2&#45;&gt;Node5</title>
<path fill="none" stroke="midnightblue" d="M190.08,-224.37C190.24,-206.62 190.61,-165.67 190.83,-141.6"/>
<polygon fill="midnightblue" stroke="midnightblue" points="194.33,-141.62 190.92,-131.59 187.33,-141.56 194.33,-141.62"/>
</g>
<!-- Node12 -->
<g id="node8" class="node">
<title>Node12</title>
<g id="a_node8"><a xlink:href="DisplayInterface_8h.html" target="_top" xlink:title=" ">
<polygon fill="white" stroke="black" points="218,-168.5 218,-187.5 324,-187.5 324,-168.5 218,-168.5"/>
<text text-anchor="middle" x="271" y="-175.5" font-family="Helvetica,sans-Serif" font-size="10.00">DisplayInterface.h</text>
</a>
</g>
</g>
<!-- Node2&#45;&gt;Node12 -->
<g id="edge8" class="edge">
<title>Node2&#45;&gt;Node12</title>
<path fill="none" stroke="midnightblue" d="M203.01,-224.32C215.53,-215.98 234.68,-203.21 249.47,-193.35"/>
<polygon fill="midnightblue" stroke="midnightblue" points="251.64,-196.11 258.02,-187.65 247.76,-190.29 251.64,-196.11"/>
</g>
<!-- Node3&#45;&gt;Node4 -->
<g id="edge3" class="edge">
<title>Node3&#45;&gt;Node4</title>
<path fill="none" stroke="midnightblue" d="M95.88,-168.32C86.47,-160.26 72.26,-148.08 60.93,-138.37"/>
<polygon fill="midnightblue" stroke="midnightblue" points="63.18,-135.68 53.31,-131.83 58.62,-141 63.18,-135.68"/>
</g>
<!-- Node3&#45;&gt;Node5 -->
<g id="edge4" class="edge">
<title>Node3&#45;&gt;Node5</title>
<path fill="none" stroke="midnightblue" d="M119.66,-168.32C132.92,-159.9 153.27,-146.97 168.85,-137.07"/>
<polygon fill="midnightblue" stroke="midnightblue" points="170.81,-139.97 177.38,-131.65 167.06,-134.06 170.81,-139.97"/>
</g>
<!-- Node6 -->
<g id="node6" class="node">
<title>Node6</title>
<g id="a_node6"><a xlink:href="Arduino_8h.html" target="_top" xlink:title=" ">
<polygon fill="white" stroke="red" points="198.5,-56.5 198.5,-75.5 261.5,-75.5 261.5,-56.5 198.5,-56.5"/>
<text text-anchor="middle" x="230" y="-63.5" font-family="Helvetica,sans-Serif" font-size="10.00">Arduino.h</text>
</a>
</g>
</g>
<!-- Node3&#45;&gt;Node6 -->
<g id="edge7" class="edge">
<title>Node3&#45;&gt;Node6</title>
<path fill="none" stroke="midnightblue" d="M110.81,-168.12C118.39,-154.7 134.23,-129.03 153,-112 167.34,-98.99 186.04,-87.95 201.42,-80.07"/>
<polygon fill="midnightblue" stroke="midnightblue" points="203.09,-83.14 210.5,-75.57 199.99,-76.87 203.09,-83.14"/>
</g>
<!-- Node5&#45;&gt;Node6 -->
<g id="edge5" class="edge">
<title>Node5&#45;&gt;Node6</title>
<path fill="none" stroke="midnightblue" d="M197.44,-112.08C202.95,-104.46 211.03,-93.26 217.76,-83.94"/>
<polygon fill="midnightblue" stroke="midnightblue" points="220.66,-85.91 223.68,-75.75 214.99,-81.81 220.66,-85.91"/>
</g>
<!-- Node6&#45;&gt;Node8 -->
<g id="edge6" class="edge">
<title>Node6&#45;&gt;Node8</title>
<path fill="none" stroke="midnightblue" d="M236.61,-56.08C242.26,-48.46 250.54,-37.26 257.45,-27.94"/>
<polygon fill="midnightblue" stroke="midnightblue" points="260.38,-29.87 263.52,-19.75 254.75,-25.7 260.38,-29.87"/>
</g>
<!-- Node12&#45;&gt;Node5 -->
<g id="edge9" class="edge">
<title>Node12&#45;&gt;Node5</title>
<path fill="none" stroke="midnightblue" d="M258.15,-168.32C245.78,-159.98 226.87,-147.21 212.26,-137.35"/>
<polygon fill="midnightblue" stroke="midnightblue" points="214.07,-134.35 203.82,-131.65 210.15,-140.15 214.07,-134.35"/>
</g>
<!-- Node13 -->
<g id="node9" class="node">
<title>Node13</title>
<g id="a_node9"><a xlink:href="Screen_8h.html" target="_top" xlink:title=" ">
<polygon fill="white" stroke="red" points="239.5,-112.5 239.5,-131.5 298.5,-131.5 298.5,-112.5 239.5,-112.5"/>
<text text-anchor="middle" x="269" y="-119.5" font-family="Helvetica,sans-Serif" font-size="10.00">Screen.h</text>
</a>
</g>
</g>
<!-- Node12&#45;&gt;Node13 -->
<g id="edge10" class="edge">
<title>Node12&#45;&gt;Node13</title>
<path fill="none" stroke="midnightblue" d="M270.67,-168.08C270.41,-161.01 270.03,-150.86 269.7,-141.99"/>
<polygon fill="midnightblue" stroke="midnightblue" points="273.19,-141.61 269.32,-131.75 266.2,-141.87 273.19,-141.61"/>
</g>
<!-- Node13&#45;&gt;Node6 -->
<g id="edge11" class="edge">
<title>Node13&#45;&gt;Node6</title>
<path fill="none" stroke="midnightblue" d="M262.56,-112.08C257.05,-104.46 248.97,-93.26 242.24,-83.94"/>
<polygon fill="midnightblue" stroke="midnightblue" points="245.01,-81.81 236.32,-75.75 239.34,-85.91 245.01,-81.81"/>
</g>
</g>
</svg>
