<?xml version="1.0" encoding="UTF-8" standalone="no"?>
<!DOCTYPE svg PUBLIC "-//W3C//DTD SVG 1.1//EN"
 "http://www.w3.org/Graphics/SVG/1.1/DTD/svg11.dtd">
<!-- Generated by graphviz version 2.43.0 (0)
 -->
<!-- Title: /home/runner/work/EX&#45;Display/EX&#45;Display/test/mocks/MockCallback.h Pages: 1 -->
<svg width="1118pt" height="139pt"
 viewBox="0.00 0.00 1117.50 139.00" xmlns="http://www.w3.org/2000/svg" xmlns:xlink="http://www.w3.org/1999/xlink">
<g id="graph0" class="graph" transform="scale(1 1) rotate(0) translate(4 135)">
<title>/home/runner/work/EX&#45;Display/EX&#45;Display/test/mocks/MockCallback.h</title>
<polygon fill="white" stroke="transparent" points="-4,4 -4,-135 1113.5,-135 1113.5,4 -4,4"/>
<!-- Node1 -->
<g id="node1" class="node">
<title>Node1</title>
<g id="a_node1"><a xlink:title=" ">
<polygon fill="#bfbfbf" stroke="black" points="441,-89.5 441,-130.5 575,-130.5 575,-89.5 441,-89.5"/>
<text text-anchor="start" x="449" y="-118.5" font-family="Helvetica,sans-Serif" font-size="10.00">/home/runner/work/EX</text>
<text text-anchor="start" x="449" y="-107.5" font-family="Helvetica,sans-Serif" font-size="10.00">&#45;Display/EX&#45;Display/test</text>
<text text-anchor="middle" x="508" y="-96.5" font-family="Helvetica,sans-Serif" font-size="10.00">/mocks/MockCallback.h</text>
</a>
</g>
</g>
<!-- Node2 -->
<g id="node2" class="node">
<title>Node2</title>
<g id="a_node2"><a xlink:href="test__AtFinder__Logger_8cpp.html" target="_top" xlink:title=" ">
<polygon fill="white" stroke="black" points="0,-0.5 0,-52.5 178,-52.5 178,-0.5 0,-0.5"/>
<text text-anchor="start" x="8" y="-40.5" font-family="Helvetica,sans-Serif" font-size="10.00">/home/runner/work/EX</text>
<text text-anchor="start" x="8" y="-29.5" font-family="Helvetica,sans-Serif" font-size="10.00">&#45;Display/EX&#45;Display/test</text>
<text text-anchor="start" x="8" y="-18.5" font-family="Helvetica,sans-Serif" font-size="10.00">/integration/test_interactive</text>
<text text-anchor="middle" x="89" y="-7.5" font-family="Helvetica,sans-Serif" font-size="10.00">_logger/test_AtFinder_Logger.cpp</text>
</a>
</g>
</g>
<!-- Node1&#45;&gt;Node2 -->
<g id="edge1" class="edge">
<title>Node1&#45;&gt;Node2</title>
<path fill="none" stroke="midnightblue" d="M430.78,-97.35C365.55,-87.07 269.78,-70.96 187,-53 184.08,-52.37 181.11,-51.7 178.12,-51.02"/>
<polygon fill="midnightblue" stroke="midnightblue" points="430.56,-100.86 440.99,-98.95 431.65,-93.94 430.56,-100.86"/>
</g>
<!-- Node3 -->
<g id="node3" class="node">
<title>Node3</title>
<g id="a_node3"><a xlink:href="test__Controller_8cpp.html" target="_top" xlink:title=" ">
<polygon fill="white" stroke="black" points="196.5,-0.5 196.5,-52.5 337.5,-52.5 337.5,-0.5 196.5,-0.5"/>
<text text-anchor="start" x="204.5" y="-40.5" font-family="Helvetica,sans-Serif" font-size="10.00">/home/runner/work/EX</text>
<text text-anchor="start" x="204.5" y="-29.5" font-family="Helvetica,sans-Serif" font-size="10.00">&#45;Display/EX&#45;Display/test</text>
<text text-anchor="start" x="204.5" y="-18.5" font-family="Helvetica,sans-Serif" font-size="10.00">/unit/test_application/test</text>
<text text-anchor="middle" x="267" y="-7.5" font-family="Helvetica,sans-Serif" font-size="10.00">_Controller.cpp</text>
</a>
</g>
</g>
<!-- Node1&#45;&gt;Node3 -->
<g id="edge2" class="edge">
<title>Node1&#45;&gt;Node3</title>
<path fill="none" stroke="midnightblue" d="M440.53,-86.18C408.44,-75.33 370.07,-62.36 337.59,-51.37"/>
<polygon fill="midnightblue" stroke="midnightblue" points="439.68,-89.59 450.27,-89.48 441.92,-82.96 439.68,-89.59"/>
</g>
<!-- Node4 -->
<g id="node4" class="node">
<title>Node4</title>
<g id="a_node4"><a xlink:href="test__AtFinder_8cpp.html" target="_top" xlink:title=" ">
<polygon fill="white" stroke="black" points="356,-0.5 356,-52.5 490,-52.5 490,-0.5 356,-0.5"/>
<text text-anchor="start" x="364" y="-40.5" font-family="Helvetica,sans-Serif" font-size="10.00">/home/runner/work/EX</text>
<text text-anchor="start" x="364" y="-29.5" font-family="Helvetica,sans-Serif" font-size="10.00">&#45;Display/EX&#45;Display/test</text>
<text text-anchor="start" x="364" y="-18.5" font-family="Helvetica,sans-Serif" font-size="10.00">/unit/test_infrastructure</text>
<text text-anchor="middle" x="423" y="-7.5" font-family="Helvetica,sans-Serif" font-size="10.00">/test_AtFinder.cpp</text>
</a>
</g>
</g>
<!-- Node1&#45;&gt;Node4 -->
<g id="edge3" class="edge">
<title>Node1&#45;&gt;Node4</title>
<path fill="none" stroke="midnightblue" d="M480.1,-82.24C470.15,-72.71 458.98,-62 449.19,-52.61"/>
<polygon fill="midnightblue" stroke="midnightblue" points="477.78,-84.88 487.42,-89.27 482.63,-79.82 477.78,-84.88"/>
</g>
<!-- Node5 -->
<g id="node5" class="node">
<title>Node5</title>
<g id="a_node5"><a xlink:href="test__DebounceHoldInput_8cpp.html" target="_top" xlink:title=" ">
<polygon fill="white" stroke="black" points="508.5,-0.5 508.5,-52.5 679.5,-52.5 679.5,-0.5 508.5,-0.5"/>
<text text-anchor="start" x="516.5" y="-40.5" font-family="Helvetica,sans-Serif" font-size="10.00">/home/runner/work/EX</text>
<text text-anchor="start" x="516.5" y="-29.5" font-family="Helvetica,sans-Serif" font-size="10.00">&#45;Display/EX&#45;Display/test</text>
<text text-anchor="start" x="516.5" y="-18.5" font-family="Helvetica,sans-Serif" font-size="10.00">/unit/test_inputs/test_Debounce</text>
<text text-anchor="middle" x="594" y="-7.5" font-family="Helvetica,sans-Serif" font-size="10.00">HoldInput.cpp</text>
</a>
</g>
</g>
<!-- Node1&#45;&gt;Node5 -->
<g id="edge4" class="edge">
<title>Node1&#45;&gt;Node5</title>
<path fill="none" stroke="midnightblue" d="M536.23,-82.24C546.3,-72.71 557.59,-62 567.51,-52.61"/>
<polygon fill="midnightblue" stroke="midnightblue" points="533.67,-79.85 528.82,-89.27 538.48,-84.93 533.67,-79.85"/>
</g>
<!-- Node6 -->
<g id="node6" class="node">
<title>Node6</title>
<g id="a_node6"><a xlink:href="test__InputInterface_8cpp.html" target="_top" xlink:title=" ">
<polygon fill="white" stroke="black" points="697.5,-6 697.5,-47 908.5,-47 908.5,-6 697.5,-6"/>
<text text-anchor="start" x="705.5" y="-35" font-family="Helvetica,sans-Serif" font-size="10.00">/home/runner/work/EX</text>
<text text-anchor="start" x="705.5" y="-24" font-family="Helvetica,sans-Serif" font-size="10.00">&#45;Display/EX&#45;Display/test</text>
<text text-anchor="middle" x="803" y="-13" font-family="Helvetica,sans-Serif" font-size="10.00">/unit/test_inputs/test_InputInterface.cpp</text>
</a>
</g>
</g>
<!-- Node1&#45;&gt;Node6 -->
<g id="edge5" class="edge">
<title>Node1&#45;&gt;Node6</title>
<path fill="none" stroke="midnightblue" d="M585.14,-87.69C630.72,-75.1 688,-59.27 732.38,-47.01"/>
<polygon fill="midnightblue" stroke="midnightblue" points="584.02,-84.37 575.31,-90.4 585.88,-91.12 584.02,-84.37"/>
</g>
<!-- Node7 -->
<g id="node7" class="node">
<title>Node7</title>
<g id="a_node7"><a xlink:href="test__TouchScreenInput_8cpp.html" target="_top" xlink:title=" ">
<polygon fill="white" stroke="black" points="926.5,-0.5 926.5,-52.5 1109.5,-52.5 1109.5,-0.5 926.5,-0.5"/>
<text text-anchor="start" x="934.5" y="-40.5" font-family="Helvetica,sans-Serif" font-size="10.00">/home/runner/work/EX</text>
<text text-anchor="start" x="934.5" y="-29.5" font-family="Helvetica,sans-Serif" font-size="10.00">&#45;Display/EX&#45;Display/test</text>
<text text-anchor="start" x="934.5" y="-18.5" font-family="Helvetica,sans-Serif" font-size="10.00">/unit/test_inputs/test_TouchScreen</text>
<text text-anchor="middle" x="1018" y="-7.5" font-family="Helvetica,sans-Serif" font-size="10.00">Input.cpp</text>
</a>
</g>
</g>
<!-- Node1&#45;&gt;Node7 -->
<g id="edge6" class="edge">
<title>Node1&#45;&gt;Node7</title>
<path fill="none" stroke="midnightblue" d="M585.21,-101.11C667.96,-92.04 802.93,-75.45 918,-53 920.73,-52.47 923.49,-51.91 926.27,-51.32"/>
<polygon fill="midnightblue" stroke="midnightblue" points="584.7,-97.64 575.14,-102.21 585.46,-104.6 584.7,-97.64"/>
</g>
</g>
</svg>
