<?xml version="1.0" encoding="UTF-8" standalone="no"?>
<!DOCTYPE svg PUBLIC "-//W3C//DTD SVG 1.1//EN"
 "http://www.w3.org/Graphics/SVG/1.1/DTD/svg11.dtd">
<!-- Generated by graphviz version 2.43.0 (0)
 -->
<!-- Title: /home/runner/work/EX&#45;Display/EX&#45;Display/test/mocks/MockDisplayInputMethods.h Pages: 1 -->
<svg width="553pt" height="330pt"
 viewBox="0.00 0.00 553.00 330.00" xmlns="http://www.w3.org/2000/svg" xmlns:xlink="http://www.w3.org/1999/xlink">
<g id="graph0" class="graph" transform="scale(1 1) rotate(0) translate(4 326)">
<title>/home/runner/work/EX&#45;Display/EX&#45;Display/test/mocks/MockDisplayInputMethods.h</title>
<polygon fill="white" stroke="transparent" points="-4,4 -4,-326 549,-326 549,4 -4,4"/>
<!-- Node1 -->
<g id="node1" class="node">
<title>Node1</title>
<g id="a_node1"><a xlink:title=" ">
<polygon fill="#bfbfbf" stroke="black" points="100.5,-280.5 100.5,-321.5 294.5,-321.5 294.5,-280.5 100.5,-280.5"/>
<text text-anchor="start" x="108.5" y="-309.5" font-family="Helvetica,sans-Serif" font-size="10.00">/home/runner/work/EX</text>
<text text-anchor="start" x="108.5" y="-298.5" font-family="Helvetica,sans-Serif" font-size="10.00">&#45;Display/EX&#45;Display/test</text>
<text text-anchor="middle" x="197.5" y="-287.5" font-family="Helvetica,sans-Serif" font-size="10.00">/mocks/MockDisplayInputMethods.h</text>
</a>
</g>
</g>
<!-- Node2 -->
<g id="node2" class="node">
<title>Node2</title>
<g id="a_node2"><a xlink:href="DisplayManager_8h.html" target="_top" xlink:title=" ">
<polygon fill="white" stroke="black" points="35.5,-168.5 35.5,-187.5 139.5,-187.5 139.5,-168.5 35.5,-168.5"/>
<text text-anchor="middle" x="87.5" y="-175.5" font-family="Helvetica,sans-Serif" font-size="10.00">DisplayManager.h</text>
</a>
</g>
</g>
<!-- Node1&#45;&gt;Node2 -->
<g id="edge1" class="edge">
<title>Node1&#45;&gt;Node2</title>
<path fill="none" stroke="midnightblue" d="M179.58,-280.29C157.99,-256.54 122.12,-217.09 102.12,-195.08"/>
<polygon fill="midnightblue" stroke="midnightblue" points="104.61,-192.62 95.3,-187.57 99.43,-197.33 104.61,-192.62"/>
</g>
<!-- Node14 -->
<g id="node8" class="node">
<title>Node14</title>
<g id="a_node8"><a xlink:href="InputManager_8h.html" target="_top" xlink:title=" ">
<polygon fill="white" stroke="black" points="231.5,-224.5 231.5,-243.5 323.5,-243.5 323.5,-224.5 231.5,-224.5"/>
<text text-anchor="middle" x="277.5" y="-231.5" font-family="Helvetica,sans-Serif" font-size="10.00">InputManager.h</text>
</a>
</g>
</g>
<!-- Node1&#45;&gt;Node14 -->
<g id="edge9" class="edge">
<title>Node1&#45;&gt;Node14</title>
<path fill="none" stroke="midnightblue" d="M221.5,-280.5C233.53,-270.72 247.87,-259.07 259.03,-250.01"/>
<polygon fill="midnightblue" stroke="midnightblue" points="261.3,-252.67 266.85,-243.65 256.88,-247.24 261.3,-252.67"/>
</g>
<!-- Node3 -->
<g id="node3" class="node">
<title>Node3</title>
<g id="a_node3"><a xlink:href="DisplayInterface_8h.html" target="_top" xlink:title=" ">
<polygon fill="white" stroke="black" points="195.5,-112.5 195.5,-131.5 301.5,-131.5 301.5,-112.5 195.5,-112.5"/>
<text text-anchor="middle" x="248.5" y="-119.5" font-family="Helvetica,sans-Serif" font-size="10.00">DisplayInterface.h</text>
</a>
</g>
</g>
<!-- Node2&#45;&gt;Node3 -->
<g id="edge2" class="edge">
<title>Node2&#45;&gt;Node3</title>
<path fill="none" stroke="midnightblue" d="M113.01,-168.44C140.1,-159.36 183.09,-144.94 213.37,-134.78"/>
<polygon fill="midnightblue" stroke="midnightblue" points="214.74,-138.01 223.11,-131.52 212.51,-131.38 214.74,-138.01"/>
</g>
<!-- Node4 -->
<g id="node4" class="node">
<title>Node4</title>
<g id="a_node4"><a xlink:href="Logger_8h.html" target="_top" xlink:title=" ">
<polygon fill="white" stroke="black" points="252.5,-56.5 252.5,-75.5 310.5,-75.5 310.5,-56.5 252.5,-56.5"/>
<text text-anchor="middle" x="281.5" y="-63.5" font-family="Helvetica,sans-Serif" font-size="10.00">Logger.h</text>
</a>
</g>
</g>
<!-- Node2&#45;&gt;Node4 -->
<g id="edge5" class="edge">
<title>Node2&#45;&gt;Node4</title>
<path fill="none" stroke="midnightblue" d="M94.27,-168.19C105.28,-154.39 128.4,-127.67 153.5,-112 181.14,-94.75 216.28,-83 242.75,-75.85"/>
<polygon fill="midnightblue" stroke="midnightblue" points="243.64,-79.23 252.44,-73.33 241.88,-72.46 243.64,-79.23"/>
</g>
<!-- Node11 -->
<g id="node6" class="node">
<title>Node11</title>
<g id="a_node6"><a xlink:href="ScreenManager_8h.html" target="_top" xlink:title=" ">
<polygon fill="white" stroke="black" points="0,-112.5 0,-131.5 101,-131.5 101,-112.5 0,-112.5"/>
<text text-anchor="middle" x="50.5" y="-119.5" font-family="Helvetica,sans-Serif" font-size="10.00">ScreenManager.h</text>
</a>
</g>
</g>
<!-- Node2&#45;&gt;Node11 -->
<g id="edge6" class="edge">
<title>Node2&#45;&gt;Node11</title>
<path fill="none" stroke="midnightblue" d="M81.39,-168.08C76.22,-160.53 68.65,-149.49 62.31,-140.23"/>
<polygon fill="midnightblue" stroke="midnightblue" points="65.04,-138.02 56.5,-131.75 59.26,-141.98 65.04,-138.02"/>
</g>
<!-- Node3&#45;&gt;Node4 -->
<g id="edge3" class="edge">
<title>Node3&#45;&gt;Node4</title>
<path fill="none" stroke="midnightblue" d="M253.95,-112.08C258.51,-104.61 265.17,-93.72 270.79,-84.52"/>
<polygon fill="midnightblue" stroke="midnightblue" points="273.92,-86.11 276.15,-75.75 267.95,-82.46 273.92,-86.11"/>
</g>
<!-- Node5 -->
<g id="node5" class="node">
<title>Node5</title>
<g id="a_node5"><a xlink:href="Arduino_8h.html" target="_top" xlink:title=" ">
<polygon fill="white" stroke="red" points="250,-0.5 250,-19.5 313,-19.5 313,-0.5 250,-0.5"/>
<text text-anchor="middle" x="281.5" y="-7.5" font-family="Helvetica,sans-Serif" font-size="10.00">Arduino.h</text>
</a>
</g>
</g>
<!-- Node4&#45;&gt;Node5 -->
<g id="edge4" class="edge">
<title>Node4&#45;&gt;Node5</title>
<path fill="none" stroke="midnightblue" d="M281.5,-56.08C281.5,-49.01 281.5,-38.86 281.5,-29.99"/>
<polygon fill="midnightblue" stroke="midnightblue" points="285,-29.75 281.5,-19.75 278,-29.75 285,-29.75"/>
</g>
<!-- Node12 -->
<g id="node7" class="node">
<title>Node12</title>
<g id="a_node7"><a xlink:href="Screen_8h.html" target="_top" xlink:title=" ">
<polygon fill="white" stroke="red" points="115,-56.5 115,-75.5 174,-75.5 174,-56.5 115,-56.5"/>
<text text-anchor="middle" x="144.5" y="-63.5" font-family="Helvetica,sans-Serif" font-size="10.00">Screen.h</text>
</a>
</g>
</g>
<!-- Node11&#45;&gt;Node12 -->
<g id="edge7" class="edge">
<title>Node11&#45;&gt;Node12</title>
<path fill="none" stroke="midnightblue" d="M65.6,-112.32C80.4,-103.82 103.19,-90.73 120.48,-80.8"/>
<polygon fill="midnightblue" stroke="midnightblue" points="122.51,-83.67 129.43,-75.65 119.02,-77.6 122.51,-83.67"/>
</g>
<!-- Node12&#45;&gt;Node5 -->
<g id="edge8" class="edge">
<title>Node12&#45;&gt;Node5</title>
<path fill="none" stroke="midnightblue" d="M166.21,-56.44C188.85,-47.52 224.57,-33.44 250.25,-23.32"/>
<polygon fill="midnightblue" stroke="midnightblue" points="251.87,-26.44 259.89,-19.52 249.31,-19.93 251.87,-26.44"/>
</g>
<!-- Node14&#45;&gt;Node3 -->
<g id="edge16" class="edge">
<title>Node14&#45;&gt;Node3</title>
<path fill="none" stroke="midnightblue" d="M275.22,-224.37C270.52,-206.54 259.65,-165.3 253.32,-141.27"/>
<polygon fill="midnightblue" stroke="midnightblue" points="256.7,-140.37 250.77,-131.59 249.93,-142.15 256.7,-140.37"/>
</g>
<!-- Node14&#45;&gt;Node4 -->
<g id="edge22" class="edge">
<title>Node14&#45;&gt;Node4</title>
<path fill="none" stroke="midnightblue" d="M261.81,-224.25C229.03,-204.8 158.53,-156.2 186.5,-112 198.83,-92.52 222.12,-81.31 242.56,-74.95"/>
<polygon fill="midnightblue" stroke="midnightblue" points="243.63,-78.28 252.3,-72.2 241.73,-71.54 243.63,-78.28"/>
</g>
<!-- Node15 -->
<g id="node9" class="node">
<title>Node15</title>
<g id="a_node9"><a xlink:href="CallbackInterface_8h.html" target="_top" xlink:title=" ">
<polygon fill="white" stroke="black" points="434,-112.5 434,-131.5 545,-131.5 545,-112.5 434,-112.5"/>
<text text-anchor="middle" x="489.5" y="-119.5" font-family="Helvetica,sans-Serif" font-size="10.00">CallbackInterface.h</text>
</a>
</g>
</g>
<!-- Node14&#45;&gt;Node15 -->
<g id="edge10" class="edge">
<title>Node14&#45;&gt;Node15</title>
<path fill="none" stroke="midnightblue" d="M323.53,-232.41C363.59,-229.59 421.1,-219.71 459.5,-188 473.7,-176.27 481.52,-156.33 485.58,-141.62"/>
<polygon fill="midnightblue" stroke="midnightblue" points="489.05,-142.16 488,-131.62 482.24,-140.52 489.05,-142.16"/>
</g>
<!-- Node17 -->
<g id="node11" class="node">
<title>Node17</title>
<g id="a_node11"><a xlink:href="Defines_8h.html" target="_top" xlink:title=" ">
<polygon fill="white" stroke="black" points="276.5,-168.5 276.5,-187.5 338.5,-187.5 338.5,-168.5 276.5,-168.5"/>
<text text-anchor="middle" x="307.5" y="-175.5" font-family="Helvetica,sans-Serif" font-size="10.00">Defines.h</text>
</a>
</g>
</g>
<!-- Node14&#45;&gt;Node17 -->
<g id="edge14" class="edge">
<title>Node14&#45;&gt;Node17</title>
<path fill="none" stroke="midnightblue" d="M282.45,-224.08C286.6,-216.61 292.65,-205.72 297.77,-196.52"/>
<polygon fill="midnightblue" stroke="midnightblue" points="300.84,-198.19 302.64,-187.75 294.72,-194.79 300.84,-198.19"/>
</g>
<!-- Node18 -->
<g id="node12" class="node">
<title>Node18</title>
<g id="a_node12"><a xlink:href="InputInterface_8h.html" target="_top" xlink:title=" ">
<polygon fill="white" stroke="black" points="356.5,-168.5 356.5,-187.5 450.5,-187.5 450.5,-168.5 356.5,-168.5"/>
<text text-anchor="middle" x="403.5" y="-175.5" font-family="Helvetica,sans-Serif" font-size="10.00">InputInterface.h</text>
</a>
</g>
</g>
<!-- Node14&#45;&gt;Node18 -->
<g id="edge17" class="edge">
<title>Node14&#45;&gt;Node18</title>
<path fill="none" stroke="midnightblue" d="M297.47,-224.44C318.11,-215.6 350.56,-201.69 374.13,-191.59"/>
<polygon fill="midnightblue" stroke="midnightblue" points="375.82,-194.67 383.63,-187.52 373.06,-188.24 375.82,-194.67"/>
</g>
<!-- Node15&#45;&gt;Node4 -->
<g id="edge12" class="edge">
<title>Node15&#45;&gt;Node4</title>
<path fill="none" stroke="midnightblue" d="M456.54,-112.44C419.55,-102.84 359.6,-87.28 320.36,-77.09"/>
<polygon fill="midnightblue" stroke="midnightblue" points="321.17,-73.68 310.61,-74.56 319.41,-80.46 321.17,-73.68"/>
</g>
<!-- Node15&#45;&gt;Node5 -->
<g id="edge13" class="edge">
<title>Node15&#45;&gt;Node5</title>
<path fill="none" stroke="midnightblue" d="M488.13,-112.39C485.43,-98.4 478.1,-70.78 460.5,-56 421.76,-23.46 362.72,-13.94 323.15,-11.42"/>
<polygon fill="midnightblue" stroke="midnightblue" points="323.2,-7.92 313.04,-10.9 322.85,-14.91 323.2,-7.92"/>
</g>
<!-- Node16 -->
<g id="node10" class="node">
<title>Node16</title>
<g id="a_node10"><a xlink:href="InputActions_8h.html" target="_top" xlink:title=" ">
<polygon fill="white" stroke="black" points="365.5,-56.5 365.5,-75.5 451.5,-75.5 451.5,-56.5 365.5,-56.5"/>
<text text-anchor="middle" x="408.5" y="-63.5" font-family="Helvetica,sans-Serif" font-size="10.00">InputActions.h</text>
</a>
</g>
</g>
<!-- Node15&#45;&gt;Node16 -->
<g id="edge11" class="edge">
<title>Node15&#45;&gt;Node16</title>
<path fill="none" stroke="midnightblue" d="M476.49,-112.32C463.97,-103.98 444.82,-91.21 430.03,-81.35"/>
<polygon fill="midnightblue" stroke="midnightblue" points="431.74,-78.29 421.48,-75.65 427.86,-84.11 431.74,-78.29"/>
</g>
<!-- Node17&#45;&gt;Node4 -->
<g id="edge15" class="edge">
<title>Node17&#45;&gt;Node4</title>
<path fill="none" stroke="midnightblue" d="M309.65,-168.37C312.43,-155.72 316.24,-131.51 310.5,-112 307.49,-101.76 301.35,-91.66 295.49,-83.63"/>
<polygon fill="midnightblue" stroke="midnightblue" points="298.09,-81.27 289.17,-75.54 292.57,-85.58 298.09,-81.27"/>
</g>
<!-- Node18&#45;&gt;Node3 -->
<g id="edge19" class="edge">
<title>Node18&#45;&gt;Node3</title>
<path fill="none" stroke="midnightblue" d="M378.94,-168.44C352.98,-159.4 311.83,-145.06 282.7,-134.92"/>
<polygon fill="midnightblue" stroke="midnightblue" points="283.54,-131.5 272.95,-131.52 281.24,-138.11 283.54,-131.5"/>
</g>
<!-- Node18&#45;&gt;Node4 -->
<g id="edge21" class="edge">
<title>Node18&#45;&gt;Node4</title>
<path fill="none" stroke="midnightblue" d="M393.93,-168.37C373.35,-149.81 324.66,-105.91 298.62,-82.44"/>
<polygon fill="midnightblue" stroke="midnightblue" points="300.8,-79.69 291.03,-75.59 296.11,-84.89 300.8,-79.69"/>
</g>
<!-- Node18&#45;&gt;Node15 -->
<g id="edge18" class="edge">
<title>Node18&#45;&gt;Node15</title>
<path fill="none" stroke="midnightblue" d="M417.32,-168.32C430.73,-159.9 451.32,-146.97 467.09,-137.07"/>
<polygon fill="midnightblue" stroke="midnightblue" points="469.11,-139.94 475.72,-131.65 465.39,-134.01 469.11,-139.94"/>
</g>
<!-- Node18&#45;&gt;Node16 -->
<g id="edge20" class="edge">
<title>Node18&#45;&gt;Node16</title>
<path fill="none" stroke="midnightblue" d="M403.89,-168.37C404.7,-150.62 406.56,-109.67 407.65,-85.6"/>
<polygon fill="midnightblue" stroke="midnightblue" points="411.15,-85.74 408.11,-75.59 404.16,-85.42 411.15,-85.74"/>
</g>
</g>
</svg>
