<?xml version="1.0" encoding="UTF-8" standalone="no"?>
<!DOCTYPE svg PUBLIC "-//W3C//DTD SVG 1.1//EN"
 "http://www.w3.org/Graphics/SVG/1.1/DTD/svg11.dtd">
<!-- Generated by graphviz version 2.43.0 (0)
 -->
<!-- Title: /home/runner/work/EX&#45;Display/EX&#45;Display/test/mocks/MockButtonInput.h Pages: 1 -->
<svg width="383pt" height="274pt"
 viewBox="0.00 0.00 382.50 274.00" xmlns="http://www.w3.org/2000/svg" xmlns:xlink="http://www.w3.org/1999/xlink">
<g id="graph0" class="graph" transform="scale(1 1) rotate(0) translate(4 270)">
<title>/home/runner/work/EX&#45;Display/EX&#45;Display/test/mocks/MockButtonInput.h</title>
<polygon fill="white" stroke="transparent" points="-4,4 -4,-270 378.5,-270 378.5,4 -4,4"/>
<!-- Node1 -->
<g id="node1" class="node">
<title>Node1</title>
<g id="a_node1"><a xlink:title=" ">
<polygon fill="#bfbfbf" stroke="black" points="177.5,-224.5 177.5,-265.5 324.5,-265.5 324.5,-224.5 177.5,-224.5"/>
<text text-anchor="start" x="185.5" y="-253.5" font-family="Helvetica,sans-Serif" font-size="10.00">/home/runner/work/EX</text>
<text text-anchor="start" x="185.5" y="-242.5" font-family="Helvetica,sans-Serif" font-size="10.00">&#45;Display/EX&#45;Display/test</text>
<text text-anchor="middle" x="251" y="-231.5" font-family="Helvetica,sans-Serif" font-size="10.00">/mocks/MockButtonInput.h</text>
</a>
</g>
</g>
<!-- Node2 -->
<g id="node2" class="node">
<title>Node2</title>
<g id="a_node2"><a xlink:href="CallbackInterface_8h.html" target="_top" xlink:title=" ">
<polygon fill="white" stroke="black" points="200.5,-112.5 200.5,-131.5 311.5,-131.5 311.5,-112.5 200.5,-112.5"/>
<text text-anchor="middle" x="256" y="-119.5" font-family="Helvetica,sans-Serif" font-size="10.00">CallbackInterface.h</text>
</a>
</g>
</g>
<!-- Node1&#45;&gt;Node2 -->
<g id="edge1" class="edge">
<title>Node1&#45;&gt;Node2</title>
<path fill="none" stroke="midnightblue" d="M251.81,-224.29C252.76,-201.48 254.3,-164.19 255.22,-141.78"/>
<polygon fill="midnightblue" stroke="midnightblue" points="258.73,-141.71 255.65,-131.57 251.74,-141.42 258.73,-141.71"/>
</g>
<!-- Node11 -->
<g id="node6" class="node">
<title>Node11</title>
<g id="a_node6"><a xlink:href="InputInterface_8h.html" target="_top" xlink:title=" ">
<polygon fill="white" stroke="black" points="125,-168.5 125,-187.5 219,-187.5 219,-168.5 125,-168.5"/>
<text text-anchor="middle" x="172" y="-175.5" font-family="Helvetica,sans-Serif" font-size="10.00">InputInterface.h</text>
</a>
</g>
</g>
<!-- Node1&#45;&gt;Node11 -->
<g id="edge6" class="edge">
<title>Node1&#45;&gt;Node11</title>
<path fill="none" stroke="midnightblue" d="M227.3,-224.5C215.42,-214.72 201.26,-203.07 190.24,-194.01"/>
<polygon fill="midnightblue" stroke="midnightblue" points="192.46,-191.3 182.52,-187.65 188.01,-196.71 192.46,-191.3"/>
</g>
<!-- Node7 -->
<g id="node8" class="node">
<title>Node7</title>
<g id="a_node8"><a xlink:title=" ">
<polygon fill="white" stroke="#bfbfbf" points="279.5,-168.5 279.5,-187.5 374.5,-187.5 374.5,-168.5 279.5,-168.5"/>
<text text-anchor="middle" x="327" y="-175.5" font-family="Helvetica,sans-Serif" font-size="10.00">gmock/gmock.h</text>
</a>
</g>
</g>
<!-- Node1&#45;&gt;Node7 -->
<g id="edge12" class="edge">
<title>Node1&#45;&gt;Node7</title>
<path fill="none" stroke="midnightblue" d="M273.8,-224.5C285.12,-214.82 298.59,-203.3 309.14,-194.27"/>
<polygon fill="midnightblue" stroke="midnightblue" points="311.56,-196.81 316.88,-187.65 307.01,-191.49 311.56,-196.81"/>
</g>
<!-- Node3 -->
<g id="node3" class="node">
<title>Node3</title>
<g id="a_node3"><a xlink:href="InputActions_8h.html" target="_top" xlink:title=" ">
<polygon fill="white" stroke="black" points="161,-56.5 161,-75.5 247,-75.5 247,-56.5 161,-56.5"/>
<text text-anchor="middle" x="204" y="-63.5" font-family="Helvetica,sans-Serif" font-size="10.00">InputActions.h</text>
</a>
</g>
</g>
<!-- Node2&#45;&gt;Node3 -->
<g id="edge2" class="edge">
<title>Node2&#45;&gt;Node3</title>
<path fill="none" stroke="midnightblue" d="M247.41,-112.08C239.84,-104.22 228.62,-92.57 219.49,-83.08"/>
<polygon fill="midnightblue" stroke="midnightblue" points="221.88,-80.53 212.43,-75.75 216.84,-85.38 221.88,-80.53"/>
</g>
<!-- Node4 -->
<g id="node4" class="node">
<title>Node4</title>
<g id="a_node4"><a xlink:href="Logger_8h.html" target="_top" xlink:title=" ">
<polygon fill="white" stroke="black" points="85,-56.5 85,-75.5 143,-75.5 143,-56.5 85,-56.5"/>
<text text-anchor="middle" x="114" y="-63.5" font-family="Helvetica,sans-Serif" font-size="10.00">Logger.h</text>
</a>
</g>
</g>
<!-- Node2&#45;&gt;Node4 -->
<g id="edge3" class="edge">
<title>Node2&#45;&gt;Node4</title>
<path fill="none" stroke="midnightblue" d="M233.5,-112.44C209.92,-103.48 172.68,-89.31 146.04,-79.18"/>
<polygon fill="midnightblue" stroke="midnightblue" points="146.99,-75.8 136.4,-75.52 144.5,-82.34 146.99,-75.8"/>
</g>
<!-- Node5 -->
<g id="node5" class="node">
<title>Node5</title>
<g id="a_node5"><a xlink:href="Arduino_8h.html" target="_top" xlink:title=" ">
<polygon fill="white" stroke="red" points="162.5,-0.5 162.5,-19.5 225.5,-19.5 225.5,-0.5 162.5,-0.5"/>
<text text-anchor="middle" x="194" y="-7.5" font-family="Helvetica,sans-Serif" font-size="10.00">Arduino.h</text>
</a>
</g>
</g>
<!-- Node2&#45;&gt;Node5 -->
<g id="edge5" class="edge">
<title>Node2&#45;&gt;Node5</title>
<path fill="none" stroke="midnightblue" d="M258.34,-112.43C261.39,-99.43 265.33,-74.3 256,-56 249,-42.27 235.63,-31.75 223.1,-24.35"/>
<polygon fill="midnightblue" stroke="midnightblue" points="224.68,-21.22 214.22,-19.51 221.33,-27.37 224.68,-21.22"/>
</g>
<!-- Node4&#45;&gt;Node5 -->
<g id="edge4" class="edge">
<title>Node4&#45;&gt;Node5</title>
<path fill="none" stroke="midnightblue" d="M126.85,-56.32C139.22,-47.98 158.13,-35.21 172.74,-25.35"/>
<polygon fill="midnightblue" stroke="midnightblue" points="174.85,-28.15 181.18,-19.65 170.93,-22.35 174.85,-28.15"/>
</g>
<!-- Node11&#45;&gt;Node2 -->
<g id="edge7" class="edge">
<title>Node11&#45;&gt;Node2</title>
<path fill="none" stroke="midnightblue" d="M185.5,-168.32C198.6,-159.9 218.71,-146.97 234.11,-137.07"/>
<polygon fill="midnightblue" stroke="midnightblue" points="236.02,-140.01 242.54,-131.65 232.23,-134.12 236.02,-140.01"/>
</g>
<!-- Node11&#45;&gt;Node3 -->
<g id="edge10" class="edge">
<title>Node11&#45;&gt;Node3</title>
<path fill="none" stroke="midnightblue" d="M174.51,-168.37C179.7,-150.54 191.7,-109.3 198.68,-85.27"/>
<polygon fill="midnightblue" stroke="midnightblue" points="202.07,-86.17 201.5,-75.59 195.35,-84.22 202.07,-86.17"/>
</g>
<!-- Node11&#45;&gt;Node4 -->
<g id="edge11" class="edge">
<title>Node11&#45;&gt;Node4</title>
<path fill="none" stroke="midnightblue" d="M167.45,-168.37C157.96,-150.38 135.91,-108.55 123.29,-84.63"/>
<polygon fill="midnightblue" stroke="midnightblue" points="126.29,-82.8 118.53,-75.59 120.1,-86.07 126.29,-82.8"/>
</g>
<!-- Node12 -->
<g id="node7" class="node">
<title>Node12</title>
<g id="a_node7"><a xlink:href="DisplayInterface_8h.html" target="_top" xlink:title=" ">
<polygon fill="white" stroke="black" points="0,-112.5 0,-131.5 106,-131.5 106,-112.5 0,-112.5"/>
<text text-anchor="middle" x="53" y="-119.5" font-family="Helvetica,sans-Serif" font-size="10.00">DisplayInterface.h</text>
</a>
</g>
</g>
<!-- Node11&#45;&gt;Node12 -->
<g id="edge8" class="edge">
<title>Node11&#45;&gt;Node12</title>
<path fill="none" stroke="midnightblue" d="M153.14,-168.44C133.73,-159.64 103.27,-145.81 81.04,-135.72"/>
<polygon fill="midnightblue" stroke="midnightblue" points="82.32,-132.46 71.77,-131.52 79.43,-138.84 82.32,-132.46"/>
</g>
<!-- Node12&#45;&gt;Node4 -->
<g id="edge9" class="edge">
<title>Node12&#45;&gt;Node4</title>
<path fill="none" stroke="midnightblue" d="M62.8,-112.32C71.82,-104.34 85.41,-92.31 96.32,-82.65"/>
<polygon fill="midnightblue" stroke="midnightblue" points="98.85,-85.08 104.02,-75.83 94.21,-79.84 98.85,-85.08"/>
</g>
</g>
</svg>
