<?xml version="1.0" encoding="UTF-8" standalone="no"?>
<!DOCTYPE svg PUBLIC "-//W3C//DTD SVG 1.1//EN"
 "http://www.w3.org/Graphics/SVG/1.1/DTD/svg11.dtd">
<!-- Generated by graphviz version 2.43.0 (0)
 -->
<!-- Title: /home/runner/work/EX&#45;Display/EX&#45;Display/test/mocks/MockButtonInput.h Pages: 1 -->
<svg width="348pt" height="324pt"
 viewBox="0.00 0.00 347.50 324.00" xmlns="http://www.w3.org/2000/svg" xmlns:xlink="http://www.w3.org/1999/xlink">

<svg id="main" version="1.1" xmlns="http://www.w3.org/2000/svg" xmlns:xlink="http://www.w3.org/1999/xlink" xml:space="preserve" onload="init(evt)">
<style type="text/css"><![CDATA[
.node, .edge {opacity: 0.7;}
.node.selected, .edge.selected {opacity: 1;}
.edge:hover path { stroke: red; }
.edge:hover polygon { stroke: red; fill: red; }
]]></style>
<script type="application/ecmascript" xlink:href="svg.min.js"/>
<svg id="graph" class="graph">
<g id="graph0" class="graph" transform="scale(1 1) rotate(0) translate(4 320)">
<title>/home/runner/work/EX&#45;Display/EX&#45;Display/test/mocks/MockButtonInput.h</title>
<!-- Node1 -->
<g id="Node000001" class="node">
<title>Node1</title>
<g id="a_Node000001"><a xlink:title=" ">
<polygon fill="#999999" stroke="#666666" points="232,-316 85,-316 85,-275 232,-275 232,-316"/>
<text text-anchor="start" x="93" y="-304" font-family="Helvetica,sans-Serif" font-size="10.00">/home/runner/work/EX</text>
<text text-anchor="start" x="93" y="-293" font-family="Helvetica,sans-Serif" font-size="10.00">&#45;Display/EX&#45;Display/test</text>
<text text-anchor="middle" x="158.5" y="-282" font-family="Helvetica,sans-Serif" font-size="10.00">/mocks/MockButtonInput.h</text>
</a>
</g>
</g>
<!-- Node2 -->
<g id="Node000002" class="node">
<title>Node2</title>
<g id="a_Node000002"><a xlink:href="CallbackInterface_8h.html" target="_top" xlink:title=" ">
<polygon fill="white" stroke="#666666" points="111,-184 0,-184 0,-165 111,-165 111,-184"/>
<text text-anchor="middle" x="55.5" y="-172" font-family="Helvetica,sans-Serif" font-size="10.00">CallbackInterface.h</text>
</a>
</g>
</g>
<!-- Node1&#45;&gt;Node2 -->
<g id="edge1_Node000001_Node000002" class="edge">
<title>Node1&#45;&gt;Node2</title>
<g id="a_edge1_Node000001_Node000002"><a xlink:title=" ">
<path fill="none" stroke="#63b8ff" d="M137.25,-274.92C126.44,-264.61 113.34,-251.52 102.5,-239 89.5,-223.98 76.16,-205.63 67.03,-192.52"/>
<polygon fill="#63b8ff" stroke="#63b8ff" points="69.74,-190.29 61.2,-184.03 63.98,-194.25 69.74,-190.29"/>
</a>
</g>
</g>
<!-- Node7 -->
<g id="Node000007" class="node">
<title>Node7</title>
<g id="a_Node000007"><a xlink:title=" ">
<polygon fill="#e0e0e0" stroke="#999999" points="319,-19 224,-19 224,0 319,0 319,-19"/>
<text text-anchor="middle" x="271.5" y="-7" font-family="Helvetica,sans-Serif" font-size="10.00">gmock/gmock.h</text>
</a>
</g>
</g>
<!-- Node1&#45;&gt;Node7 -->
<g id="edge15_Node000001_Node000007" class="edge">
<title>Node1&#45;&gt;Node7</title>
<g id="a_edge15_Node000001_Node000007"><a xlink:title=" ">
<path fill="none" stroke="#63b8ff" d="M232.12,-277.19C282.23,-260.54 339.5,-229.65 339.5,-175.5 339.5,-175.5 339.5,-175.5 339.5,-118.5 339.5,-80.75 309.38,-45.41 289.23,-25.99"/>
<polygon fill="#63b8ff" stroke="#63b8ff" points="291.54,-23.36 281.83,-19.13 286.78,-28.5 291.54,-23.36"/>
</a>
</g>
</g>
<!-- Node11 -->
<g id="Node000011" class="node">
<title>Node11</title>
<g id="a_Node000011"><a xlink:href="InputInterface_8h.html" target="_top" xlink:title=" ">
<polygon fill="white" stroke="#666666" points="205.5,-239 111.5,-239 111.5,-220 205.5,-220 205.5,-239"/>
<text text-anchor="middle" x="158.5" y="-227" font-family="Helvetica,sans-Serif" font-size="10.00">InputInterface.h</text>
</a>
</g>
</g>
<!-- Node1&#45;&gt;Node11 -->
<g id="edge7_Node000001_Node000011" class="edge">
<title>Node1&#45;&gt;Node11</title>
<g id="a_edge7_Node000001_Node000011"><a xlink:title=" ">
<path fill="none" stroke="#63b8ff" d="M158.5,-274.95C158.5,-266.85 158.5,-257.5 158.5,-249.47"/>
<polygon fill="#63b8ff" stroke="#63b8ff" points="162,-249.26 158.5,-239.26 155,-249.26 162,-249.26"/>
</a>
</g>
</g>
<!-- Node3 -->
<g id="Node000003" class="node">
<title>Node3</title>
<g id="a_Node000003"><a xlink:href="InputActions_8h.html" target="_top" xlink:title=" ">
<polygon fill="white" stroke="#666666" points="156.5,-129 70.5,-129 70.5,-110 156.5,-110 156.5,-129"/>
<text text-anchor="middle" x="113.5" y="-117" font-family="Helvetica,sans-Serif" font-size="10.00">InputActions.h</text>
</a>
</g>
</g>
<!-- Node2&#45;&gt;Node3 -->
<g id="edge2_Node000002_Node000003" class="edge">
<title>Node2&#45;&gt;Node3</title>
<g id="a_edge2_Node000002_Node000003"><a xlink:title=" ">
<path fill="none" stroke="#63b8ff" d="M64.82,-164.98C73.31,-157.23 86.06,-145.58 96.38,-136.14"/>
<polygon fill="#63b8ff" stroke="#63b8ff" points="98.99,-138.5 104.01,-129.17 94.27,-133.33 98.99,-138.5"/>
</a>
</g>
</g>
<!-- Node4 -->
<g id="Node000004" class="node">
<title>Node4</title>
<g id="a_Node000004"><a xlink:href="Logger_8h.html" target="_top" xlink:title=" ">
<polygon fill="white" stroke="#666666" points="232.5,-129 174.5,-129 174.5,-110 232.5,-110 232.5,-129"/>
<text text-anchor="middle" x="203.5" y="-117" font-family="Helvetica,sans-Serif" font-size="10.00">Logger.h</text>
</a>
</g>
</g>
<!-- Node2&#45;&gt;Node4 -->
<g id="edge3_Node000002_Node000004" class="edge">
<title>Node2&#45;&gt;Node4</title>
<g id="a_edge3_Node000002_Node000004"><a xlink:title=" ">
<path fill="none" stroke="#63b8ff" d="M79.28,-164.98C103.73,-156.23 142.03,-142.51 169.65,-132.62"/>
<polygon fill="#63b8ff" stroke="#63b8ff" points="171.05,-135.84 179.29,-129.17 168.69,-129.25 171.05,-135.84"/>
</a>
</g>
</g>
<!-- Node5 -->
<g id="Node000005" class="node">
<title>Node5</title>
<g id="a_Node000005"><a xlink:href="Arduino_8h.html" target="_top" xlink:title=" ">
<polygon fill="#fff0f0" stroke="red" points="273,-74 210,-74 210,-55 273,-55 273,-74"/>
<text text-anchor="middle" x="241.5" y="-62" font-family="Helvetica,sans-Serif" font-size="10.00">Arduino.h</text>
</a>
</g>
</g>
<!-- Node2&#45;&gt;Node5 -->
<g id="edge6_Node000002_Node000005" class="edge">
<title>Node2&#45;&gt;Node5</title>
<g id="a_edge6_Node000002_Node000005"><a xlink:title=" ">
<path fill="none" stroke="#63b8ff" d="M53.5,-164.92C50.92,-151.49 48.2,-125.43 61.5,-110 79.32,-89.33 152.5,-76.52 199.89,-70.22"/>
<polygon fill="#63b8ff" stroke="#63b8ff" points="200.39,-73.69 209.87,-68.94 199.5,-66.74 200.39,-73.69"/>
</a>
</g>
</g>
<!-- Node4&#45;&gt;Node5 -->
<g id="edge4_Node000004_Node000005" class="edge">
<title>Node4&#45;&gt;Node5</title>
<g id="a_edge4_Node000004_Node000005"><a xlink:title=" ">
<path fill="none" stroke="#63b8ff" d="M209.77,-109.75C215.09,-102.34 222.86,-91.5 229.38,-82.41"/>
<polygon fill="#63b8ff" stroke="#63b8ff" points="232.36,-84.26 235.34,-74.09 226.67,-80.18 232.36,-84.26"/>
</a>
</g>
</g>
<!-- Node5&#45;&gt;Node7 -->
<g id="edge5_Node000005_Node000007" class="edge">
<title>Node5&#45;&gt;Node7</title>
<g id="a_edge5_Node000005_Node000007"><a xlink:title=" ">
<path fill="none" stroke="#63b8ff" d="M246.45,-54.75C250.56,-47.49 256.53,-36.95 261.6,-27.98"/>
<polygon fill="#63b8ff" stroke="#63b8ff" points="264.76,-29.52 266.64,-19.09 258.67,-26.07 264.76,-29.52"/>
</a>
</g>
</g>
<!-- Node11&#45;&gt;Node2 -->
<g id="edge8_Node000011_Node000002" class="edge">
<title>Node11&#45;&gt;Node2</title>
<g id="a_edge8_Node000011_Node000002"><a xlink:title=" ">
<path fill="none" stroke="#63b8ff" d="M141.95,-219.98C125.61,-211.57 100.37,-198.59 81.37,-188.81"/>
<polygon fill="#63b8ff" stroke="#63b8ff" points="82.84,-185.63 72.35,-184.17 79.64,-191.86 82.84,-185.63"/>
</a>
</g>
</g>
<!-- Node11&#45;&gt;Node3 -->
<g id="edge13_Node000011_Node000003" class="edge">
<title>Node11&#45;&gt;Node3</title>
<g id="a_edge13_Node000011_Node000003"><a xlink:title=" ">
<path fill="none" stroke="#63b8ff" d="M154.82,-219.66C147.46,-202.01 130.83,-162.09 121.06,-138.64"/>
<polygon fill="#63b8ff" stroke="#63b8ff" points="124.18,-137.04 117.11,-129.16 117.72,-139.74 124.18,-137.04"/>
</a>
</g>
</g>
<!-- Node11&#45;&gt;Node4 -->
<g id="edge14_Node000011_Node000004" class="edge">
<title>Node11&#45;&gt;Node4</title>
<g id="a_edge14_Node000011_Node000004"><a xlink:title=" ">
<path fill="none" stroke="#63b8ff" d="M162.18,-219.66C169.54,-202.01 186.17,-162.09 195.94,-138.64"/>
<polygon fill="#63b8ff" stroke="#63b8ff" points="199.28,-139.74 199.89,-129.16 192.82,-137.04 199.28,-139.74"/>
</a>
</g>
</g>
<!-- Node12 -->
<g id="Node000012" class="node">
<title>Node12</title>
<g id="a_Node000012"><a xlink:href="DisplayInterface_8h.html" target="_top" xlink:title=" ">
<polygon fill="white" stroke="#666666" points="311.5,-184 205.5,-184 205.5,-165 311.5,-165 311.5,-184"/>
<text text-anchor="middle" x="258.5" y="-172" font-family="Helvetica,sans-Serif" font-size="10.00">DisplayInterface.h</text>
</a>
</g>
</g>
<!-- Node11&#45;&gt;Node12 -->
<g id="edge9_Node000011_Node000012" class="edge">
<title>Node11&#45;&gt;Node12</title>
<g id="a_edge9_Node000011_Node000012"><a xlink:title=" ">
<path fill="none" stroke="#63b8ff" d="M174.57,-219.98C190.36,-211.61 214.72,-198.7 233.13,-188.95"/>
<polygon fill="#63b8ff" stroke="#63b8ff" points="234.94,-191.95 242.14,-184.17 231.67,-185.76 234.94,-191.95"/>
</a>
</g>
</g>
<!-- Node12&#45;&gt;Node4 -->
<g id="edge10_Node000012_Node000004" class="edge">
<title>Node12&#45;&gt;Node4</title>
<g id="a_edge10_Node000012_Node000004"><a xlink:title=" ">
<path fill="none" stroke="#63b8ff" d="M249.42,-164.75C241.41,-157.03 229.54,-145.6 219.88,-136.28"/>
<polygon fill="#63b8ff" stroke="#63b8ff" points="222.04,-133.51 212.41,-129.09 217.19,-138.55 222.04,-133.51"/>
</a>
</g>
</g>
<!-- Node13 -->
<g id="Node000013" class="node">
<title>Node13</title>
<g id="a_Node000013"><a xlink:href="Screen_8h.html" target="_top" xlink:title=" ">
<polygon fill="#fff0f0" stroke="red" points="310,-129 251,-129 251,-110 310,-110 310,-129"/>
<text text-anchor="middle" x="280.5" y="-117" font-family="Helvetica,sans-Serif" font-size="10.00">Screen.h</text>
</a>
</g>
</g>
<!-- Node12&#45;&gt;Node13 -->
<g id="edge11_Node000012_Node000013" class="edge">
<title>Node12&#45;&gt;Node13</title>
<g id="a_edge11_Node000012_Node000013"><a xlink:title=" ">
<path fill="none" stroke="#63b8ff" d="M262.13,-164.75C265.08,-157.65 269.33,-147.4 273.01,-138.56"/>
<polygon fill="#63b8ff" stroke="#63b8ff" points="276.33,-139.67 276.93,-129.09 269.87,-136.98 276.33,-139.67"/>
</a>
</g>
</g>
<!-- Node13&#45;&gt;Node5 -->
<g id="edge12_Node000013_Node000005" class="edge">
<title>Node13&#45;&gt;Node5</title>
<g id="a_edge12_Node000013_Node000005"><a xlink:title=" ">
<path fill="none" stroke="#63b8ff" d="M274.06,-109.75C268.61,-102.34 260.64,-91.5 253.94,-82.41"/>
<polygon fill="#63b8ff" stroke="#63b8ff" points="256.57,-80.07 247.82,-74.09 250.93,-84.22 256.57,-80.07"/>
</a>
</g>
</g>
</g>
</svg>
</svg>

<style type='text/css'>
<![CDATA[
[data-mouse-over-selected='false'] { opacity: 0.7; }
[data-mouse-over-selected='true']  { opacity: 1.0; }
]]>
</style>
<script type="application/ecmascript"><![CDATA[
document.addEventListener('DOMContentLoaded', (event) => {
  highlightEdges();
  highlightAdjacentNodes();
});
]]></script>
</svg>
