<?xml version="1.0" encoding="UTF-8" standalone="no"?>
<!DOCTYPE svg PUBLIC "-//W3C//DTD SVG 1.1//EN"
 "http://www.w3.org/Graphics/SVG/1.1/DTD/svg11.dtd">
<!-- Generated by graphviz version 2.43.0 (0)
 -->
<!-- Title: /home/runner/work/EX&#45;Display/EX&#45;Display/ScreenRow.h Pages: 1 -->
<svg width="1175pt" height="373pt"
 viewBox="0.00 0.00 1175.00 373.00" xmlns="http://www.w3.org/2000/svg" xmlns:xlink="http://www.w3.org/1999/xlink">
<g id="graph0" class="graph" transform="scale(1 1) rotate(0) translate(4 369)">
<title>/home/runner/work/EX&#45;Display/EX&#45;Display/ScreenRow.h</title>
<polygon fill="white" stroke="transparent" points="-4,4 -4,-369 1171,-369 1171,4 -4,4"/>
<!-- Node1 -->
<g id="node1" class="node">
<title>Node1</title>
<g id="a_node1"><a xlink:title=" ">
<polygon fill="#bfbfbf" stroke="black" points="706,-334.5 706,-364.5 884,-364.5 884,-334.5 706,-334.5"/>
<text text-anchor="start" x="714" y="-352.5" font-family="Helvetica,sans-Serif" font-size="10.00">/home/runner/work/EX</text>
<text text-anchor="middle" x="795" y="-341.5" font-family="Helvetica,sans-Serif" font-size="10.00">&#45;Display/EX&#45;Display/ScreenRow.h</text>
</a>
</g>
</g>
<!-- Node2 -->
<g id="node2" class="node">
<title>Node2</title>
<g id="a_node2"><a xlink:href="Screen_8h.html" target="_top" xlink:title=" ">
<polygon fill="white" stroke="black" points="620,-267.5 620,-297.5 778,-297.5 778,-267.5 620,-267.5"/>
<text text-anchor="start" x="628" y="-285.5" font-family="Helvetica,sans-Serif" font-size="10.00">/home/runner/work/EX</text>
<text text-anchor="middle" x="699" y="-274.5" font-family="Helvetica,sans-Serif" font-size="10.00">&#45;Display/EX&#45;Display/Screen.h</text>
</a>
</g>
</g>
<!-- Node1&#45;&gt;Node2 -->
<g id="edge1" class="edge">
<title>Node1&#45;&gt;Node2</title>
<path fill="none" stroke="midnightblue" d="M765.81,-328.73C750.95,-318.68 733.24,-306.68 719.79,-297.58"/>
<polygon fill="midnightblue" stroke="midnightblue" points="763.93,-331.69 774.17,-334.4 767.85,-325.89 763.93,-331.69"/>
</g>
<!-- Node19 -->
<g id="node15" class="node">
<title>Node19</title>
<g id="a_node15"><a xlink:href="ScreenRow_8cpp.html" target="_top" xlink:title=" ">
<polygon fill="white" stroke="black" points="796.5,-267.5 796.5,-297.5 985.5,-297.5 985.5,-267.5 796.5,-267.5"/>
<text text-anchor="start" x="804.5" y="-285.5" font-family="Helvetica,sans-Serif" font-size="10.00">/home/runner/work/EX</text>
<text text-anchor="middle" x="891" y="-274.5" font-family="Helvetica,sans-Serif" font-size="10.00">&#45;Display/EX&#45;Display/ScreenRow.cpp</text>
</a>
</g>
</g>
<!-- Node1&#45;&gt;Node19 -->
<g id="edge20" class="edge">
<title>Node1&#45;&gt;Node19</title>
<path fill="none" stroke="midnightblue" d="M824.19,-328.73C839.05,-318.68 856.76,-306.68 870.21,-297.58"/>
<polygon fill="midnightblue" stroke="midnightblue" points="822.15,-325.89 815.83,-334.4 826.07,-331.69 822.15,-325.89"/>
</g>
<!-- Node3 -->
<g id="node3" class="node">
<title>Node3</title>
<g id="a_node3"><a xlink:href="Screen_8cpp.html" target="_top" xlink:title=" ">
<polygon fill="white" stroke="black" points="411.5,-189.5 411.5,-219.5 580.5,-219.5 580.5,-189.5 411.5,-189.5"/>
<text text-anchor="start" x="419.5" y="-207.5" font-family="Helvetica,sans-Serif" font-size="10.00">/home/runner/work/EX</text>
<text text-anchor="middle" x="496" y="-196.5" font-family="Helvetica,sans-Serif" font-size="10.00">&#45;Display/EX&#45;Display/Screen.cpp</text>
</a>
</g>
</g>
<!-- Node2&#45;&gt;Node3 -->
<g id="edge2" class="edge">
<title>Node2&#45;&gt;Node3</title>
<path fill="none" stroke="midnightblue" d="M651.51,-263.72C615.53,-250.25 566.77,-232 533.51,-219.54"/>
<polygon fill="midnightblue" stroke="midnightblue" points="650.7,-267.15 661.29,-267.38 653.15,-260.6 650.7,-267.15"/>
</g>
<!-- Node4 -->
<g id="node4" class="node">
<title>Node4</title>
<g id="a_node4"><a xlink:href="ScreenManager_8h.html" target="_top" xlink:title=" ">
<polygon fill="white" stroke="black" points="599,-189.5 599,-219.5 799,-219.5 799,-189.5 599,-189.5"/>
<text text-anchor="start" x="607" y="-207.5" font-family="Helvetica,sans-Serif" font-size="10.00">/home/runner/work/EX</text>
<text text-anchor="middle" x="699" y="-196.5" font-family="Helvetica,sans-Serif" font-size="10.00">&#45;Display/EX&#45;Display/ScreenManager.h</text>
</a>
</g>
</g>
<!-- Node2&#45;&gt;Node4 -->
<g id="edge3" class="edge">
<title>Node2&#45;&gt;Node4</title>
<path fill="none" stroke="midnightblue" d="M699,-257.09C699,-244.76 699,-230.22 699,-219.73"/>
<polygon fill="midnightblue" stroke="midnightblue" points="695.5,-257.2 699,-267.2 702.5,-257.21 695.5,-257.2"/>
</g>
<!-- Node18 -->
<g id="node14" class="node">
<title>Node18</title>
<g id="a_node14"><a xlink:href="test__Screen_8cpp.html" target="_top" xlink:title=" ">
<polygon fill="white" stroke="black" points="817,-178.5 817,-230.5 951,-230.5 951,-178.5 817,-178.5"/>
<text text-anchor="start" x="825" y="-218.5" font-family="Helvetica,sans-Serif" font-size="10.00">/home/runner/work/EX</text>
<text text-anchor="start" x="825" y="-207.5" font-family="Helvetica,sans-Serif" font-size="10.00">&#45;Display/EX&#45;Display/test</text>
<text text-anchor="start" x="825" y="-196.5" font-family="Helvetica,sans-Serif" font-size="10.00">/unit/test_screens/test</text>
<text text-anchor="middle" x="884" y="-185.5" font-family="Helvetica,sans-Serif" font-size="10.00">_Screen.cpp</text>
</a>
</g>
</g>
<!-- Node2&#45;&gt;Node18 -->
<g id="edge19" class="edge">
<title>Node2&#45;&gt;Node18</title>
<path fill="none" stroke="midnightblue" d="M742.87,-263.48C766.77,-253.66 796.71,-241.36 822.86,-230.62"/>
<polygon fill="midnightblue" stroke="midnightblue" points="741.28,-260.35 733.36,-267.38 743.94,-266.82 741.28,-260.35"/>
</g>
<!-- Node5 -->
<g id="node5" class="node">
<title>Node5</title>
<g id="a_node5"><a xlink:href="Configurator_8h.html" target="_top" xlink:title=" ">
<polygon fill="white" stroke="red" points="0,-11.5 0,-41.5 184,-41.5 184,-11.5 0,-11.5"/>
<text text-anchor="start" x="8" y="-29.5" font-family="Helvetica,sans-Serif" font-size="10.00">/home/runner/work/EX</text>
<text text-anchor="middle" x="92" y="-18.5" font-family="Helvetica,sans-Serif" font-size="10.00">&#45;Display/EX&#45;Display/Configurator.h</text>
</a>
</g>
</g>
<!-- Node4&#45;&gt;Node5 -->
<g id="edge4" class="edge">
<title>Node4&#45;&gt;Node5</title>
<path fill="none" stroke="midnightblue" d="M631.43,-187.18C617.44,-183.98 602.76,-180.77 589,-178 495.73,-159.25 469.56,-167.82 378,-142 281.23,-114.71 172.35,-65.75 121.33,-41.67"/>
<polygon fill="midnightblue" stroke="midnightblue" points="630.95,-190.66 641.48,-189.49 632.52,-183.84 630.95,-190.66"/>
</g>
<!-- Node9 -->
<g id="node6" class="node">
<title>Node9</title>
<g id="a_node6"><a xlink:href="Controller_8h.html" target="_top" xlink:title=" ">
<polygon fill="white" stroke="red" points="499,-100.5 499,-130.5 671,-130.5 671,-100.5 499,-100.5"/>
<text text-anchor="start" x="507" y="-118.5" font-family="Helvetica,sans-Serif" font-size="10.00">/home/runner/work/EX</text>
<text text-anchor="middle" x="585" y="-107.5" font-family="Helvetica,sans-Serif" font-size="10.00">&#45;Display/EX&#45;Display/Controller.h</text>
</a>
</g>
</g>
<!-- Node4&#45;&gt;Node9 -->
<g id="edge5" class="edge">
<title>Node4&#45;&gt;Node9</title>
<path fill="none" stroke="midnightblue" d="M672.47,-183.26C651.33,-167.12 622.27,-144.95 603.56,-130.67"/>
<polygon fill="midnightblue" stroke="midnightblue" points="670.36,-186.04 680.43,-189.33 674.6,-180.48 670.36,-186.04"/>
</g>
<!-- Node11 -->
<g id="node7" class="node">
<title>Node11</title>
<g id="a_node7"><a xlink:href="test__ControllerDisplayUpdate_8cpp.html" target="_top" xlink:title=" ">
<polygon fill="white" stroke="black" points="202,-0.5 202,-52.5 386,-52.5 386,-0.5 202,-0.5"/>
<text text-anchor="start" x="210" y="-40.5" font-family="Helvetica,sans-Serif" font-size="10.00">/home/runner/work/EX</text>
<text text-anchor="start" x="210" y="-29.5" font-family="Helvetica,sans-Serif" font-size="10.00">&#45;Display/EX&#45;Display/test</text>
<text text-anchor="start" x="210" y="-18.5" font-family="Helvetica,sans-Serif" font-size="10.00">/integration/test_controller</text>
<text text-anchor="middle" x="294" y="-7.5" font-family="Helvetica,sans-Serif" font-size="10.00">/test_ControllerDisplayUpdate.cpp</text>
</a>
</g>
</g>
<!-- Node4&#45;&gt;Node11 -->
<g id="edge13" class="edge">
<title>Node4&#45;&gt;Node11</title>
<path fill="none" stroke="midnightblue" d="M629.12,-187.06C573.33,-173.47 500.03,-154.45 472,-142 417.6,-117.83 360.77,-78.4 326.37,-52.7"/>
<polygon fill="midnightblue" stroke="midnightblue" points="628.43,-190.49 638.97,-189.44 630.08,-183.69 628.43,-190.49"/>
</g>
<!-- Node12 -->
<g id="node8" class="node">
<title>Node12</title>
<g id="a_node8"><a xlink:href="test__ControllerInputAction_8cpp.html" target="_top" xlink:title=" ">
<polygon fill="white" stroke="black" points="404.5,-0.5 404.5,-52.5 571.5,-52.5 571.5,-0.5 404.5,-0.5"/>
<text text-anchor="start" x="412.5" y="-40.5" font-family="Helvetica,sans-Serif" font-size="10.00">/home/runner/work/EX</text>
<text text-anchor="start" x="412.5" y="-29.5" font-family="Helvetica,sans-Serif" font-size="10.00">&#45;Display/EX&#45;Display/test</text>
<text text-anchor="start" x="412.5" y="-18.5" font-family="Helvetica,sans-Serif" font-size="10.00">/integration/test_controller</text>
<text text-anchor="middle" x="488" y="-7.5" font-family="Helvetica,sans-Serif" font-size="10.00">/test_ControllerInputAction.cpp</text>
</a>
</g>
</g>
<!-- Node4&#45;&gt;Node12 -->
<g id="edge14" class="edge">
<title>Node4&#45;&gt;Node12</title>
<path fill="none" stroke="midnightblue" d="M628.34,-187.08C571.17,-173.08 498.73,-153.47 490,-142 470.6,-116.54 474.81,-77.82 480.61,-52.58"/>
<polygon fill="midnightblue" stroke="midnightblue" points="627.56,-190.49 638.1,-189.45 629.21,-183.68 627.56,-190.49"/>
</g>
<!-- Node13 -->
<g id="node9" class="node">
<title>Node13</title>
<g id="a_node9"><a xlink:href="test__ControllerScreenCreation_8cpp.html" target="_top" xlink:title=" ">
<polygon fill="white" stroke="black" points="589,-0.5 589,-52.5 775,-52.5 775,-0.5 589,-0.5"/>
<text text-anchor="start" x="597" y="-40.5" font-family="Helvetica,sans-Serif" font-size="10.00">/home/runner/work/EX</text>
<text text-anchor="start" x="597" y="-29.5" font-family="Helvetica,sans-Serif" font-size="10.00">&#45;Display/EX&#45;Display/test</text>
<text text-anchor="start" x="597" y="-18.5" font-family="Helvetica,sans-Serif" font-size="10.00">/integration/test_controller</text>
<text text-anchor="middle" x="682" y="-7.5" font-family="Helvetica,sans-Serif" font-size="10.00">/test_ControllerScreenCreation.cpp</text>
</a>
</g>
</g>
<!-- Node4&#45;&gt;Node13 -->
<g id="edge15" class="edge">
<title>Node4&#45;&gt;Node13</title>
<path fill="none" stroke="midnightblue" d="M696.65,-179.17C693.43,-145.81 687.67,-86.21 684.42,-52.51"/>
<polygon fill="midnightblue" stroke="midnightblue" points="693.19,-179.78 697.64,-189.39 700.16,-179.1 693.19,-179.78"/>
</g>
<!-- Node14 -->
<g id="node10" class="node">
<title>Node14</title>
<g id="a_node10"><a xlink:href="test__ValidDisplayScreen_8cpp.html" target="_top" xlink:title=" ">
<polygon fill="white" stroke="black" points="793,-0.5 793,-52.5 951,-52.5 951,-0.5 793,-0.5"/>
<text text-anchor="start" x="801" y="-40.5" font-family="Helvetica,sans-Serif" font-size="10.00">/home/runner/work/EX</text>
<text text-anchor="start" x="801" y="-29.5" font-family="Helvetica,sans-Serif" font-size="10.00">&#45;Display/EX&#45;Display/test</text>
<text text-anchor="start" x="801" y="-18.5" font-family="Helvetica,sans-Serif" font-size="10.00">/integration/test_display</text>
<text text-anchor="middle" x="872" y="-7.5" font-family="Helvetica,sans-Serif" font-size="10.00">/test_ValidDisplayScreen.cpp</text>
</a>
</g>
</g>
<!-- Node4&#45;&gt;Node14 -->
<g id="edge16" class="edge">
<title>Node4&#45;&gt;Node14</title>
<path fill="none" stroke="midnightblue" d="M707.25,-179.73C716.92,-154.67 735,-115.26 761,-89 775.57,-74.29 794.41,-62.09 812.41,-52.54"/>
<polygon fill="midnightblue" stroke="midnightblue" points="703.94,-178.61 703.74,-189.2 710.5,-181.04 703.94,-178.61"/>
</g>
<!-- Node15 -->
<g id="node11" class="node">
<title>Node15</title>
<g id="a_node11"><a xlink:href="test__Controller_8cpp.html" target="_top" xlink:title=" ">
<polygon fill="white" stroke="black" points="969.5,-0.5 969.5,-52.5 1110.5,-52.5 1110.5,-0.5 969.5,-0.5"/>
<text text-anchor="start" x="977.5" y="-40.5" font-family="Helvetica,sans-Serif" font-size="10.00">/home/runner/work/EX</text>
<text text-anchor="start" x="977.5" y="-29.5" font-family="Helvetica,sans-Serif" font-size="10.00">&#45;Display/EX&#45;Display/test</text>
<text text-anchor="start" x="977.5" y="-18.5" font-family="Helvetica,sans-Serif" font-size="10.00">/unit/test_application/test</text>
<text text-anchor="middle" x="1040" y="-7.5" font-family="Helvetica,sans-Serif" font-size="10.00">_Controller.cpp</text>
</a>
</g>
</g>
<!-- Node4&#45;&gt;Node15 -->
<g id="edge17" class="edge">
<title>Node4&#45;&gt;Node15</title>
<path fill="none" stroke="midnightblue" d="M720.23,-181.8C731.23,-170.27 744.69,-155.67 756,-142 774.64,-119.46 770.47,-104.92 795,-89 857.96,-48.14 887.5,-72.42 960,-53 963.1,-52.17 966.25,-51.29 969.44,-50.39"/>
<polygon fill="midnightblue" stroke="midnightblue" points="717.48,-179.62 713.07,-189.26 722.52,-184.47 717.48,-179.62"/>
</g>
<!-- Node16 -->
<g id="node12" class="node">
<title>Node16</title>
<g id="a_node12"><a xlink:href="ScreenManager_8cpp.html" target="_top" xlink:title=" ">
<polygon fill="white" stroke="black" points="803.5,-100.5 803.5,-130.5 1014.5,-130.5 1014.5,-100.5 803.5,-100.5"/>
<text text-anchor="start" x="811.5" y="-118.5" font-family="Helvetica,sans-Serif" font-size="10.00">/home/runner/work/EX</text>
<text text-anchor="middle" x="909" y="-107.5" font-family="Helvetica,sans-Serif" font-size="10.00">&#45;Display/EX&#45;Display/ScreenManager.cpp</text>
</a>
</g>
</g>
<!-- Node4&#45;&gt;Node16 -->
<g id="edge12" class="edge">
<title>Node4&#45;&gt;Node16</title>
<path fill="none" stroke="midnightblue" d="M742.81,-185.35C782.19,-169.04 839.19,-145.42 875.16,-130.52"/>
<polygon fill="midnightblue" stroke="midnightblue" points="741.11,-182.27 733.21,-189.33 743.79,-188.73 741.11,-182.27"/>
</g>
<!-- Node17 -->
<g id="node13" class="node">
<title>Node17</title>
<g id="a_node13"><a xlink:href="test__ScreenManager_8cpp.html" target="_top" xlink:title=" ">
<polygon fill="white" stroke="black" points="1033,-89.5 1033,-141.5 1167,-141.5 1167,-89.5 1033,-89.5"/>
<text text-anchor="start" x="1041" y="-129.5" font-family="Helvetica,sans-Serif" font-size="10.00">/home/runner/work/EX</text>
<text text-anchor="start" x="1041" y="-118.5" font-family="Helvetica,sans-Serif" font-size="10.00">&#45;Display/EX&#45;Display/test</text>
<text text-anchor="start" x="1041" y="-107.5" font-family="Helvetica,sans-Serif" font-size="10.00">/unit/test_screens/test</text>
<text text-anchor="middle" x="1100" y="-96.5" font-family="Helvetica,sans-Serif" font-size="10.00">_ScreenManager.cpp</text>
</a>
</g>
</g>
<!-- Node4&#45;&gt;Node17 -->
<g id="edge18" class="edge">
<title>Node4&#45;&gt;Node17</title>
<path fill="none" stroke="midnightblue" d="M765.94,-187.12C779.81,-183.93 794.35,-180.73 808,-178 903.43,-158.91 929.57,-165.55 1024,-142 1026.84,-141.29 1029.72,-140.53 1032.62,-139.73"/>
<polygon fill="midnightblue" stroke="midnightblue" points="764.93,-183.76 755.98,-189.44 766.52,-190.58 764.93,-183.76"/>
</g>
<!-- Node9&#45;&gt;Node5 -->
<g id="edge6" class="edge">
<title>Node9&#45;&gt;Node5</title>
<path fill="none" stroke="midnightblue" d="M488.93,-101.93C409.3,-90.92 293.33,-73.49 193,-53 176.88,-49.71 159.45,-45.53 143.69,-41.52"/>
<polygon fill="midnightblue" stroke="midnightblue" points="488.56,-105.42 498.95,-103.31 489.52,-98.48 488.56,-105.42"/>
</g>
<!-- Node9&#45;&gt;Node11 -->
<g id="edge7" class="edge">
<title>Node9&#45;&gt;Node11</title>
<path fill="none" stroke="midnightblue" d="M528.23,-97.53C485.41,-84.73 426,-66.96 377.73,-52.53"/>
<polygon fill="midnightblue" stroke="midnightblue" points="527.34,-100.91 537.92,-100.43 529.34,-94.21 527.34,-100.91"/>
</g>
<!-- Node9&#45;&gt;Node12 -->
<g id="edge8" class="edge">
<title>Node9&#45;&gt;Node12</title>
<path fill="none" stroke="midnightblue" d="M561.42,-93.35C547.79,-81.13 530.55,-65.67 516.21,-52.8"/>
<polygon fill="midnightblue" stroke="midnightblue" points="559.2,-96.06 568.98,-100.13 563.87,-90.85 559.2,-96.06"/>
</g>
<!-- Node9&#45;&gt;Node13 -->
<g id="edge9" class="edge">
<title>Node9&#45;&gt;Node13</title>
<path fill="none" stroke="midnightblue" d="M608.58,-93.35C622.21,-81.13 639.45,-65.67 653.79,-52.8"/>
<polygon fill="midnightblue" stroke="midnightblue" points="606.13,-90.85 601.02,-100.13 610.8,-96.06 606.13,-90.85"/>
</g>
<!-- Node9&#45;&gt;Node14 -->
<g id="edge10" class="edge">
<title>Node9&#45;&gt;Node14</title>
<path fill="none" stroke="midnightblue" d="M641.21,-97.46C684.44,-84.35 744.73,-66.08 792.84,-51.5"/>
<polygon fill="midnightblue" stroke="midnightblue" points="639.99,-94.17 631.43,-100.43 642.02,-100.87 639.99,-94.17"/>
</g>
<!-- Node9&#45;&gt;Node15 -->
<g id="edge11" class="edge">
<title>Node9&#45;&gt;Node15</title>
<path fill="none" stroke="midnightblue" d="M681.29,-100.34C774.35,-86.37 908.55,-65.35 960,-53 963.12,-52.25 966.29,-51.44 969.49,-50.59"/>
<polygon fill="midnightblue" stroke="midnightblue" points="680.66,-96.9 671.29,-101.84 681.7,-103.82 680.66,-96.9"/>
</g>
</g>
</svg>
