<?xml version="1.0" encoding="UTF-8" standalone="no"?>
<!DOCTYPE svg PUBLIC "-//W3C//DTD SVG 1.1//EN"
 "http://www.w3.org/Graphics/SVG/1.1/DTD/svg11.dtd">
<!-- Generated by graphviz version 2.43.0 (0)
 -->
<!-- Title: /home/runner/work/EX&#45;Display/EX&#45;Display/Screen.cpp Pages: 1 -->
<svg width="183pt" height="263pt"
 viewBox="0.00 0.00 182.50 263.00" xmlns="http://www.w3.org/2000/svg" xmlns:xlink="http://www.w3.org/1999/xlink">
<g id="graph0" class="graph" transform="scale(1 1) rotate(0) translate(4 259)">
<title>/home/runner/work/EX&#45;Display/EX&#45;Display/Screen.cpp</title>
<polygon fill="white" stroke="transparent" points="-4,4 -4,-259 178.5,-259 178.5,4 -4,4"/>
<!-- Node1 -->
<g id="node1" class="node">
<title>Node1</title>
<g id="a_node1"><a xlink:title=" ">
<polygon fill="#bfbfbf" stroke="black" points="5.5,-224.5 5.5,-254.5 174.5,-254.5 174.5,-224.5 5.5,-224.5"/>
<text text-anchor="start" x="13.5" y="-242.5" font-family="Helvetica,sans-Serif" font-size="10.00">/home/runner/work/EX</text>
<text text-anchor="middle" x="90" y="-231.5" font-family="Helvetica,sans-Serif" font-size="10.00">&#45;Display/EX&#45;Display/Screen.cpp</text>
</a>
</g>
</g>
<!-- Node2 -->
<g id="node2" class="node">
<title>Node2</title>
<g id="a_node2"><a xlink:href="Screen_8h.html" target="_top" xlink:title=" ">
<polygon fill="white" stroke="black" points="60.5,-168.5 60.5,-187.5 119.5,-187.5 119.5,-168.5 60.5,-168.5"/>
<text text-anchor="middle" x="90" y="-175.5" font-family="Helvetica,sans-Serif" font-size="10.00">Screen.h</text>
</a>
</g>
</g>
<!-- Node1&#45;&gt;Node2 -->
<g id="edge1" class="edge">
<title>Node1&#45;&gt;Node2</title>
<path fill="none" stroke="midnightblue" d="M90,-224.4C90,-216.47 90,-206.46 90,-197.86"/>
<polygon fill="midnightblue" stroke="midnightblue" points="93.5,-197.66 90,-187.66 86.5,-197.66 93.5,-197.66"/>
</g>
<!-- Node3 -->
<g id="node3" class="node">
<title>Node3</title>
<g id="a_node3"><a xlink:href="ScreenRow_8h.html" target="_top" xlink:title=" ">
<polygon fill="white" stroke="black" points="16.5,-112.5 16.5,-131.5 95.5,-131.5 95.5,-112.5 16.5,-112.5"/>
<text text-anchor="middle" x="56" y="-119.5" font-family="Helvetica,sans-Serif" font-size="10.00">ScreenRow.h</text>
</a>
</g>
</g>
<!-- Node2&#45;&gt;Node3 -->
<g id="edge2" class="edge">
<title>Node2&#45;&gt;Node3</title>
<path fill="none" stroke="midnightblue" d="M84.39,-168.08C79.63,-160.53 72.68,-149.49 66.85,-140.23"/>
<polygon fill="midnightblue" stroke="midnightblue" points="69.8,-138.35 61.51,-131.75 63.88,-142.08 69.8,-138.35"/>
</g>
<!-- Node5 -->
<g id="node5" class="node">
<title>Node5</title>
<g id="a_node5"><a xlink:href="Arduino_8h.html" target="_top" xlink:title=" ">
<polygon fill="white" stroke="red" points="54.5,-0.5 54.5,-19.5 117.5,-19.5 117.5,-0.5 54.5,-0.5"/>
<text text-anchor="middle" x="86" y="-7.5" font-family="Helvetica,sans-Serif" font-size="10.00">Arduino.h</text>
</a>
</g>
</g>
<!-- Node2&#45;&gt;Node5 -->
<g id="edge6" class="edge">
<title>Node2&#45;&gt;Node5</title>
<path fill="none" stroke="midnightblue" d="M93.6,-168.22C97.06,-159.28 102.03,-144.94 104,-132 109.54,-95.57 99.3,-52.93 92.13,-29.24"/>
<polygon fill="midnightblue" stroke="midnightblue" points="95.4,-27.98 89.02,-19.51 88.73,-30.1 95.4,-27.98"/>
</g>
<!-- Node4 -->
<g id="node4" class="node">
<title>Node4</title>
<g id="a_node4"><a xlink:href="Logger_8h.html" target="_top" xlink:title=" ">
<polygon fill="white" stroke="black" points="0,-56.5 0,-75.5 58,-75.5 58,-56.5 0,-56.5"/>
<text text-anchor="middle" x="29" y="-63.5" font-family="Helvetica,sans-Serif" font-size="10.00">Logger.h</text>
</a>
</g>
</g>
<!-- Node3&#45;&gt;Node4 -->
<g id="edge3" class="edge">
<title>Node3&#45;&gt;Node4</title>
<path fill="none" stroke="midnightblue" d="M51.54,-112.08C47.85,-104.69 42.48,-93.95 37.91,-84.81"/>
<polygon fill="midnightblue" stroke="midnightblue" points="40.98,-83.13 33.38,-75.75 34.72,-86.26 40.98,-83.13"/>
</g>
<!-- Node3&#45;&gt;Node5 -->
<g id="edge5" class="edge">
<title>Node3&#45;&gt;Node5</title>
<path fill="none" stroke="midnightblue" d="M58.35,-112.37C63.22,-94.54 74.46,-53.3 81.02,-29.27"/>
<polygon fill="midnightblue" stroke="midnightblue" points="84.4,-30.16 83.66,-19.59 77.65,-28.32 84.4,-30.16"/>
</g>
<!-- Node4&#45;&gt;Node5 -->
<g id="edge4" class="edge">
<title>Node4&#45;&gt;Node5</title>
<path fill="none" stroke="midnightblue" d="M38.16,-56.32C46.5,-48.42 59.03,-36.55 69.18,-26.94"/>
<polygon fill="midnightblue" stroke="midnightblue" points="71.82,-29.25 76.68,-19.83 67.01,-24.17 71.82,-29.25"/>
</g>
</g>
</svg>
