<?xml version="1.0" encoding="UTF-8" standalone="no"?>
<!DOCTYPE svg PUBLIC "-//W3C//DTD SVG 1.1//EN"
 "http://www.w3.org/Graphics/SVG/1.1/DTD/svg11.dtd">
<!-- Generated by graphviz version 2.43.0 (0)
 -->
<!-- Title: /home/runner/work/EX&#45;Display/EX&#45;Display/Screen.h Pages: 1 -->
<!--zoomable 473 -->
<svg id="main" version="1.1" xmlns="http://www.w3.org/2000/svg" xmlns:xlink="http://www.w3.org/1999/xlink" xml:space="preserve" onload="init(evt)">
<style type="text/css"><![CDATA[
.edge:hover path { stroke: red; }
.edge:hover polygon { stroke: red; fill: red; }
]]></style>
<script type="text/javascript"><![CDATA[
var edges = document.getElementsByTagName('g');
if (edges && edges.length) {
  for (var i=0;i<edges.length;i++) {
    if (edges[i].id.substr(0,4)=='edge') {
      edges[i].setAttribute('class','edge');
    }
  }
}
]]></script>
        <defs>
                <circle id="rim" cx="0" cy="0" r="7"/>
                <circle id="rim2" cx="0" cy="0" r="3.5"/>
                <g id="zoomPlus">
                        <use xlink:href="#rim" fill="#404040">
                                <set attributeName="fill" to="#808080" begin="zoomplus.mouseover" end="zoomplus.mouseout"/>
                        </use>
                        <path d="M-4,0h8M0,-4v8" fill="none" stroke="white" stroke-width="1.5" pointer-events="none"/>
                </g>
                <g id="zoomMin">
                        <use xlink:href="#rim" fill="#404040">
                                <set attributeName="fill" to="#808080" begin="zoomminus.mouseover" end="zoomminus.mouseout"/>
                        </use>
                        <path d="M-4,0h8" fill="none" stroke="white" stroke-width="1.5" pointer-events="none"/>
                </g>
                <g id="dirArrow">
                        <path fill="none" stroke="white" stroke-width="1.5" d="M0,-3.0v7 M-2.5,-0.5L0,-3.0L2.5,-0.5"/>
                </g>
               <g id="resetDef">
                       <use xlink:href="#rim2" fill="#404040">
                               <set attributeName="fill" to="#808080" begin="reset.mouseover" end="reset.mouseout"/>
                       </use>
               </g>
        </defs>

<script type="text/javascript">
var viewWidth = 2002;
var viewHeight = 473;
var sectionId = 'dynsection-1';
</script>
<script xlink:href="svgpan.js"/>
<svg id="graph" class="graph">
<g id="viewport">
<title>/home/runner/work/EX&#45;Display/EX&#45;Display/Screen.h</title>
<polygon fill="white" stroke="transparent" points="-4,4 -4,-469 1997.5,-469 1997.5,4 -4,4"/>
<!-- Node1 -->
<g id="node1" class="node">
<title>Node1</title>
<g id="a_node1"><a xlink:title=" ">
<polygon fill="#bfbfbf" stroke="black" points="941,-434.5 941,-464.5 1099,-464.5 1099,-434.5 941,-434.5"/>
<text text-anchor="start" x="949" y="-452.5" font-family="Helvetica,sans-Serif" font-size="10.00">/home/runner/work/EX</text>
<text text-anchor="middle" x="1020" y="-441.5" font-family="Helvetica,sans-Serif" font-size="10.00">&#45;Display/EX&#45;Display/Screen.h</text>
</a>
</g>
</g>
<!-- Node2 -->
<g id="node2" class="node">
<title>Node2</title>
<g id="a_node2"><a xlink:href="Screen_8cpp.html" target="_top" xlink:title=" ">
<polygon fill="white" stroke="black" points="732.5,-362 732.5,-392 901.5,-392 901.5,-362 732.5,-362"/>
<text text-anchor="start" x="740.5" y="-380" font-family="Helvetica,sans-Serif" font-size="10.00">/home/runner/work/EX</text>
<text text-anchor="middle" x="817" y="-369" font-family="Helvetica,sans-Serif" font-size="10.00">&#45;Display/EX&#45;Display/Screen.cpp</text>
</a>
</g>
</g>
<!-- Node1&#45;&gt;Node2 -->
<g id="edge1" class="edge">
<title>Node1&#45;&gt;Node2</title>
<path fill="none" stroke="midnightblue" d="M969.95,-431.12C935.34,-419.1 889.87,-403.31 857.52,-392.07"/>
<polygon fill="midnightblue" stroke="midnightblue" points="968.81,-434.43 979.41,-434.4 971.11,-427.82 968.81,-434.43"/>
</g>
<!-- Node3 -->
<g id="node3" class="node">
<title>Node3</title>
<g id="a_node3"><a xlink:href="ScreenManager_8h.html" target="_top" xlink:title=" ">
<polygon fill="white" stroke="black" points="920,-362 920,-392 1120,-392 1120,-362 920,-362"/>
<text text-anchor="start" x="928" y="-380" font-family="Helvetica,sans-Serif" font-size="10.00">/home/runner/work/EX</text>
<text text-anchor="middle" x="1020" y="-369" font-family="Helvetica,sans-Serif" font-size="10.00">&#45;Display/EX&#45;Display/ScreenManager.h</text>
</a>
</g>
</g>
<!-- Node1&#45;&gt;Node3 -->
<g id="edge2" class="edge">
<title>Node1&#45;&gt;Node3</title>
<path fill="none" stroke="midnightblue" d="M1020,-424.23C1020,-413.57 1020,-401.41 1020,-392.25"/>
<polygon fill="midnightblue" stroke="midnightblue" points="1016.5,-424.23 1020,-434.23 1023.5,-424.23 1016.5,-424.23"/>
</g>
<!-- Node36 -->
<g id="node23" class="node">
<title>Node36</title>
<g id="a_node23"><a xlink:href="test__Screen_8cpp.html" target="_top" xlink:title=" ">
<polygon fill="white" stroke="black" points="1138.5,-356.5 1138.5,-397.5 1317.5,-397.5 1317.5,-356.5 1138.5,-356.5"/>
<text text-anchor="start" x="1146.5" y="-385.5" font-family="Helvetica,sans-Serif" font-size="10.00">/home/runner/work/EX</text>
<text text-anchor="start" x="1146.5" y="-374.5" font-family="Helvetica,sans-Serif" font-size="10.00">&#45;Display/EX&#45;Display/test</text>
<text text-anchor="middle" x="1228" y="-363.5" font-family="Helvetica,sans-Serif" font-size="10.00">/unit/test_Screen/test_Screen.cpp</text>
</a>
</g>
</g>
<!-- Node1&#45;&gt;Node36 -->
<g id="edge34" class="edge">
<title>Node1&#45;&gt;Node36</title>
<path fill="none" stroke="midnightblue" d="M1071.44,-431.07C1101.43,-420.9 1139.33,-408.05 1170.33,-397.55"/>
<polygon fill="midnightblue" stroke="midnightblue" points="1069.94,-427.88 1061.59,-434.4 1072.19,-434.51 1069.94,-427.88"/>
</g>
<!-- Node4 -->
<g id="node4" class="node">
<title>Node4</title>
<g id="a_node4"><a xlink:href="Configurator_8h.html" target="_top" xlink:title=" ">
<polygon fill="white" stroke="black" points="202,-100.5 202,-130.5 386,-130.5 386,-100.5 202,-100.5"/>
<text text-anchor="start" x="210" y="-118.5" font-family="Helvetica,sans-Serif" font-size="10.00">/home/runner/work/EX</text>
<text text-anchor="middle" x="294" y="-107.5" font-family="Helvetica,sans-Serif" font-size="10.00">&#45;Display/EX&#45;Display/Configurator.h</text>
</a>
</g>
</g>
<!-- Node3&#45;&gt;Node4 -->
<g id="edge3" class="edge">
<title>Node3&#45;&gt;Node4</title>
<path fill="none" stroke="midnightblue" d="M939.81,-360.31C929.8,-358.68 919.68,-357.19 910,-356 848.55,-348.45 407.07,-351.88 354,-320 288.01,-280.36 289.78,-169.81 292.65,-130.55"/>
<polygon fill="midnightblue" stroke="midnightblue" points="939.33,-363.78 949.77,-361.99 940.48,-356.88 939.33,-363.78"/>
</g>
<!-- Node8 -->
<g id="node8" class="node">
<title>Node8</title>
<g id="a_node8"><a xlink:href="Controller_8h.html" target="_top" xlink:title=" ">
<polygon fill="white" stroke="black" points="322,-189.5 322,-219.5 494,-219.5 494,-189.5 322,-189.5"/>
<text text-anchor="start" x="330" y="-207.5" font-family="Helvetica,sans-Serif" font-size="10.00">/home/runner/work/EX</text>
<text text-anchor="middle" x="408" y="-196.5" font-family="Helvetica,sans-Serif" font-size="10.00">&#45;Display/EX&#45;Display/Controller.h</text>
</a>
</g>
</g>
<!-- Node3&#45;&gt;Node8 -->
<g id="edge7" class="edge">
<title>Node3&#45;&gt;Node8</title>
<path fill="none" stroke="midnightblue" d="M932.77,-360.12C863.75,-347.29 773.16,-329.82 737,-320 627.86,-290.36 502.62,-242.93 443.03,-219.51"/>
<polygon fill="midnightblue" stroke="midnightblue" points="932.32,-363.59 942.79,-361.98 933.59,-356.71 932.32,-363.59"/>
</g>
<!-- Node10 -->
<g id="node10" class="node">
<title>Node10</title>
<g id="a_node10"><a xlink:href="test__ControllerDisplayUpdate_8cpp.html" target="_top" xlink:title=" ">
<polygon fill="white" stroke="black" points="0,-89.5 0,-141.5 184,-141.5 184,-89.5 0,-89.5"/>
<text text-anchor="start" x="8" y="-129.5" font-family="Helvetica,sans-Serif" font-size="10.00">/home/runner/work/EX</text>
<text text-anchor="start" x="8" y="-118.5" font-family="Helvetica,sans-Serif" font-size="10.00">&#45;Display/EX&#45;Display/test</text>
<text text-anchor="start" x="8" y="-107.5" font-family="Helvetica,sans-Serif" font-size="10.00">/integration/test_Controller</text>
<text text-anchor="middle" x="92" y="-96.5" font-family="Helvetica,sans-Serif" font-size="10.00">/test_ControllerDisplayUpdate.cpp</text>
</a>
</g>
</g>
<!-- Node3&#45;&gt;Node10 -->
<g id="edge28" class="edge">
<title>Node3&#45;&gt;Node10</title>
<path fill="none" stroke="midnightblue" d="M940.04,-360.3C929.96,-358.67 919.76,-357.17 910,-356 776.94,-339.98 431.03,-373.13 308,-320 217.66,-280.98 141.89,-186.91 109.23,-141.65"/>
<polygon fill="midnightblue" stroke="midnightblue" points="939.63,-363.78 950.07,-361.98 940.78,-356.88 939.63,-363.78"/>
</g>
<!-- Node11 -->
<g id="node11" class="node">
<title>Node11</title>
<g id="a_node11"><a xlink:href="test__ControllerInputAction_8cpp.html" target="_top" xlink:title=" ">
<polygon fill="white" stroke="black" points="404.5,-89.5 404.5,-141.5 571.5,-141.5 571.5,-89.5 404.5,-89.5"/>
<text text-anchor="start" x="412.5" y="-129.5" font-family="Helvetica,sans-Serif" font-size="10.00">/home/runner/work/EX</text>
<text text-anchor="start" x="412.5" y="-118.5" font-family="Helvetica,sans-Serif" font-size="10.00">&#45;Display/EX&#45;Display/test</text>
<text text-anchor="start" x="412.5" y="-107.5" font-family="Helvetica,sans-Serif" font-size="10.00">/integration/test_Controller</text>
<text text-anchor="middle" x="488" y="-96.5" font-family="Helvetica,sans-Serif" font-size="10.00">/test_ControllerInputAction.cpp</text>
</a>
</g>
</g>
<!-- Node3&#45;&gt;Node11 -->
<g id="edge29" class="edge">
<title>Node3&#45;&gt;Node11</title>
<path fill="none" stroke="midnightblue" d="M937.16,-360.26C928.01,-358.72 918.82,-357.27 910,-356 775.83,-336.73 391.61,-341.42 313,-231 299.34,-211.81 299.38,-197.22 313,-178 318.93,-169.62 362.37,-154.34 404.47,-141.1"/>
<polygon fill="midnightblue" stroke="midnightblue" points="936.6,-363.71 947.05,-361.95 937.78,-356.81 936.6,-363.71"/>
</g>
<!-- Node12 -->
<g id="node12" class="node">
<title>Node12</title>
<g id="a_node12"><a xlink:href="test__ControllerScreenCreation_8cpp.html" target="_top" xlink:title=" ">
<polygon fill="white" stroke="black" points="791,-89.5 791,-141.5 977,-141.5 977,-89.5 791,-89.5"/>
<text text-anchor="start" x="799" y="-129.5" font-family="Helvetica,sans-Serif" font-size="10.00">/home/runner/work/EX</text>
<text text-anchor="start" x="799" y="-118.5" font-family="Helvetica,sans-Serif" font-size="10.00">&#45;Display/EX&#45;Display/test</text>
<text text-anchor="start" x="799" y="-107.5" font-family="Helvetica,sans-Serif" font-size="10.00">/integration/test_Controller</text>
<text text-anchor="middle" x="884" y="-96.5" font-family="Helvetica,sans-Serif" font-size="10.00">/test_ControllerScreenCreation.cpp</text>
</a>
</g>
</g>
<!-- Node3&#45;&gt;Node12 -->
<g id="edge30" class="edge">
<title>Node3&#45;&gt;Node12</title>
<path fill="none" stroke="midnightblue" d="M1097.37,-359.79C1235.21,-330.14 1511.43,-266.91 1538,-231 1552.01,-212.06 1554.11,-195.19 1538,-178 1495.98,-133.15 1046.73,-151.49 986,-142 983.11,-141.55 980.19,-141.05 977.25,-140.52"/>
<polygon fill="midnightblue" stroke="midnightblue" points="1096.33,-356.44 1087.28,-361.96 1097.8,-363.28 1096.33,-356.44"/>
</g>
<!-- Node13 -->
<g id="node13" class="node">
<title>Node13</title>
<g id="a_node13"><a xlink:href="test__Controller_8cpp.html" target="_top" xlink:title=" ">
<polygon fill="white" stroke="black" points="1293.5,-89.5 1293.5,-141.5 1428.5,-141.5 1428.5,-89.5 1293.5,-89.5"/>
<text text-anchor="start" x="1301.5" y="-129.5" font-family="Helvetica,sans-Serif" font-size="10.00">/home/runner/work/EX</text>
<text text-anchor="start" x="1301.5" y="-118.5" font-family="Helvetica,sans-Serif" font-size="10.00">&#45;Display/EX&#45;Display/test</text>
<text text-anchor="start" x="1301.5" y="-107.5" font-family="Helvetica,sans-Serif" font-size="10.00">/unit/test_Controller/test</text>
<text text-anchor="middle" x="1361" y="-96.5" font-family="Helvetica,sans-Serif" font-size="10.00">_Controller.cpp</text>
</a>
</g>
</g>
<!-- Node3&#45;&gt;Node13 -->
<g id="edge32" class="edge">
<title>Node3&#45;&gt;Node13</title>
<path fill="none" stroke="midnightblue" d="M1104.98,-360.21C1113.42,-358.75 1121.87,-357.32 1130,-356 1325.2,-324.38 1453.81,-399.68 1557,-231 1569.29,-210.91 1570.94,-196.99 1557,-178 1527.87,-138.33 1473.19,-123.56 1428.97,-118.37"/>
<polygon fill="midnightblue" stroke="midnightblue" points="1104.33,-356.77 1095.08,-361.95 1105.54,-363.67 1104.33,-356.77"/>
</g>
<!-- Node14 -->
<g id="node14" class="node">
<title>Node14</title>
<g id="a_node14"><a xlink:href="DisplayManager_8h.html" target="_top" xlink:title=" ">
<polygon fill="white" stroke="black" points="746,-273 746,-314 898,-314 898,-273 746,-273"/>
<text text-anchor="start" x="754" y="-302" font-family="Helvetica,sans-Serif" font-size="10.00">/home/runner/work/EX</text>
<text text-anchor="start" x="754" y="-291" font-family="Helvetica,sans-Serif" font-size="10.00">&#45;Display/EX&#45;Display/Display</text>
<text text-anchor="middle" x="822" y="-280" font-family="Helvetica,sans-Serif" font-size="10.00">Manager.h</text>
</a>
</g>
</g>
<!-- Node3&#45;&gt;Node14 -->
<g id="edge14" class="edge">
<title>Node3&#45;&gt;Node14</title>
<path fill="none" stroke="midnightblue" d="M976.54,-358.11C944.94,-345.11 902.19,-327.51 869.66,-314.12"/>
<polygon fill="midnightblue" stroke="midnightblue" points="975.38,-361.42 985.96,-361.99 978.05,-354.95 975.38,-361.42"/>
</g>
<!-- Node18 -->
<g id="node17" class="node">
<title>Node18</title>
<g id="a_node17"><a xlink:href="test__DisplayScreens_8cpp.html" target="_top" xlink:title=" ">
<polygon fill="white" stroke="black" points="1389.5,-178.5 1389.5,-230.5 1528.5,-230.5 1528.5,-178.5 1389.5,-178.5"/>
<text text-anchor="start" x="1397.5" y="-218.5" font-family="Helvetica,sans-Serif" font-size="10.00">/home/runner/work/EX</text>
<text text-anchor="start" x="1397.5" y="-207.5" font-family="Helvetica,sans-Serif" font-size="10.00">&#45;Display/EX&#45;Display/test</text>
<text text-anchor="start" x="1397.5" y="-196.5" font-family="Helvetica,sans-Serif" font-size="10.00">/integration/test_Display</text>
<text text-anchor="middle" x="1459" y="-185.5" font-family="Helvetica,sans-Serif" font-size="10.00">/test_DisplayScreens.cpp</text>
</a>
</g>
</g>
<!-- Node3&#45;&gt;Node18 -->
<g id="edge31" class="edge">
<title>Node3&#45;&gt;Node18</title>
<path fill="none" stroke="midnightblue" d="M1065.91,-358.17C1144.39,-327.69 1304.55,-265.49 1394.32,-230.62"/>
<polygon fill="midnightblue" stroke="midnightblue" points="1064.35,-355.02 1056.3,-361.9 1066.89,-361.54 1064.35,-355.02"/>
</g>
<!-- Node34 -->
<g id="node21" class="node">
<title>Node34</title>
<g id="a_node21"><a xlink:href="ScreenManager_8cpp.html" target="_top" xlink:title=" ">
<polygon fill="white" stroke="black" points="1623.5,-278.5 1623.5,-308.5 1834.5,-308.5 1834.5,-278.5 1623.5,-278.5"/>
<text text-anchor="start" x="1631.5" y="-296.5" font-family="Helvetica,sans-Serif" font-size="10.00">/home/runner/work/EX</text>
<text text-anchor="middle" x="1729" y="-285.5" font-family="Helvetica,sans-Serif" font-size="10.00">&#45;Display/EX&#45;Display/ScreenManager.cpp</text>
</a>
</g>
</g>
<!-- Node3&#45;&gt;Node34 -->
<g id="edge27" class="edge">
<title>Node3&#45;&gt;Node34</title>
<path fill="none" stroke="midnightblue" d="M1100.96,-360.29C1110.72,-358.69 1120.57,-357.21 1130,-356 1341.76,-328.87 1397.67,-350.26 1609,-320 1629.24,-317.1 1651.18,-312.79 1670.69,-308.54"/>
<polygon fill="midnightblue" stroke="midnightblue" points="1100.12,-356.88 1090.84,-361.99 1101.28,-363.78 1100.12,-356.88"/>
</g>
<!-- Node35 -->
<g id="node22" class="node">
<title>Node35</title>
<g id="a_node22"><a xlink:href="test__ScreenManager_8cpp.html" target="_top" xlink:title=" ">
<polygon fill="white" stroke="black" points="1852.5,-267.5 1852.5,-319.5 1993.5,-319.5 1993.5,-267.5 1852.5,-267.5"/>
<text text-anchor="start" x="1860.5" y="-307.5" font-family="Helvetica,sans-Serif" font-size="10.00">/home/runner/work/EX</text>
<text text-anchor="start" x="1860.5" y="-296.5" font-family="Helvetica,sans-Serif" font-size="10.00">&#45;Display/EX&#45;Display/test</text>
<text text-anchor="start" x="1860.5" y="-285.5" font-family="Helvetica,sans-Serif" font-size="10.00">/unit/test_ScreenManager</text>
<text text-anchor="middle" x="1923" y="-274.5" font-family="Helvetica,sans-Serif" font-size="10.00">/test_ScreenManager.cpp</text>
</a>
</g>
</g>
<!-- Node3&#45;&gt;Node35 -->
<g id="edge33" class="edge">
<title>Node3&#45;&gt;Node35</title>
<path fill="none" stroke="midnightblue" d="M1099.5,-360.29C1109.73,-358.64 1120.09,-357.15 1130,-356 1445.63,-319.5 1531.47,-377.29 1844,-320 1846.69,-319.51 1849.42,-318.95 1852.17,-318.33"/>
<polygon fill="midnightblue" stroke="midnightblue" points="1098.62,-356.89 1089.33,-361.99 1099.77,-363.79 1098.62,-356.89"/>
</g>
<!-- Node5 -->
<g id="node5" class="node">
<title>Node5</title>
<g id="a_node5"><a xlink:href="Configurator_8cpp.html" target="_top" xlink:title=" ">
<polygon fill="white" stroke="black" points="753.5,-11.5 753.5,-41.5 948.5,-41.5 948.5,-11.5 753.5,-11.5"/>
<text text-anchor="start" x="761.5" y="-29.5" font-family="Helvetica,sans-Serif" font-size="10.00">/home/runner/work/EX</text>
<text text-anchor="middle" x="851" y="-18.5" font-family="Helvetica,sans-Serif" font-size="10.00">&#45;Display/EX&#45;Display/Configurator.cpp</text>
</a>
</g>
</g>
<!-- Node4&#45;&gt;Node5 -->
<g id="edge4" class="edge">
<title>Node4&#45;&gt;Node5</title>
<path fill="none" stroke="midnightblue" d="M354.79,-97.97C367.99,-94.71 381.91,-91.53 395,-89 517.56,-65.34 660.38,-47.65 753.08,-37.46"/>
<polygon fill="midnightblue" stroke="midnightblue" points="353.72,-94.63 344.87,-100.46 355.42,-101.42 353.72,-94.63"/>
</g>
<!-- Node6 -->
<g id="node6" class="node">
<title>Node6</title>
<g id="a_node6"><a xlink:href="EX-Display_8ino.html" target="_top" xlink:title=" ">
<polygon fill="white" stroke="black" points="304,-6 304,-47 432,-47 432,-6 304,-6"/>
<text text-anchor="start" x="312" y="-35" font-family="Helvetica,sans-Serif" font-size="10.00">/home/runner/work/EX</text>
<text text-anchor="start" x="312" y="-24" font-family="Helvetica,sans-Serif" font-size="10.00">&#45;Display/EX&#45;Display/EX</text>
<text text-anchor="middle" x="368" y="-13" font-family="Helvetica,sans-Serif" font-size="10.00">&#45;Display.ino</text>
</a>
</g>
</g>
<!-- Node4&#45;&gt;Node6 -->
<g id="edge5" class="edge">
<title>Node4&#45;&gt;Node6</title>
<path fill="none" stroke="midnightblue" d="M312.77,-92.43C324.65,-78.46 339.88,-60.56 351.33,-47.1"/>
<polygon fill="midnightblue" stroke="midnightblue" points="310.03,-90.25 306.22,-100.13 315.36,-94.78 310.03,-90.25"/>
</g>
<!-- Node7 -->
<g id="node7" class="node">
<title>Node7</title>
<g id="a_node7"><a xlink:href="test__Configurator_8cpp.html" target="_top" xlink:title=" ">
<polygon fill="white" stroke="black" points="152,-0.5 152,-52.5 286,-52.5 286,-0.5 152,-0.5"/>
<text text-anchor="start" x="160" y="-40.5" font-family="Helvetica,sans-Serif" font-size="10.00">/home/runner/work/EX</text>
<text text-anchor="start" x="160" y="-29.5" font-family="Helvetica,sans-Serif" font-size="10.00">&#45;Display/EX&#45;Display/test</text>
<text text-anchor="start" x="160" y="-18.5" font-family="Helvetica,sans-Serif" font-size="10.00">/unit/test_Configurator</text>
<text text-anchor="middle" x="219" y="-7.5" font-family="Helvetica,sans-Serif" font-size="10.00">/test_Configurator.cpp</text>
</a>
</g>
</g>
<!-- Node4&#45;&gt;Node7 -->
<g id="edge6" class="edge">
<title>Node4&#45;&gt;Node7</title>
<path fill="none" stroke="midnightblue" d="M274.88,-92.32C264.48,-80.26 251.59,-65.31 240.81,-52.8"/>
<polygon fill="midnightblue" stroke="midnightblue" points="272.43,-94.84 281.62,-100.13 277.74,-90.27 272.43,-94.84"/>
</g>
<!-- Node8&#45;&gt;Node4 -->
<g id="edge8" class="edge">
<title>Node8&#45;&gt;Node4</title>
<path fill="none" stroke="midnightblue" d="M381.47,-183.26C360.33,-167.12 331.27,-144.95 312.56,-130.67"/>
<polygon fill="midnightblue" stroke="midnightblue" points="379.36,-186.04 389.43,-189.33 383.6,-180.48 379.36,-186.04"/>
</g>
<!-- Node9 -->
<g id="node9" class="node">
<title>Node9</title>
<g id="a_node9"><a xlink:href="Controller_8cpp.html" target="_top" xlink:title=" ">
<polygon fill="white" stroke="black" points="589.5,-100.5 589.5,-130.5 772.5,-130.5 772.5,-100.5 589.5,-100.5"/>
<text text-anchor="start" x="597.5" y="-118.5" font-family="Helvetica,sans-Serif" font-size="10.00">/home/runner/work/EX</text>
<text text-anchor="middle" x="681" y="-107.5" font-family="Helvetica,sans-Serif" font-size="10.00">&#45;Display/EX&#45;Display/Controller.cpp</text>
</a>
</g>
</g>
<!-- Node8&#45;&gt;Node9 -->
<g id="edge9" class="edge">
<title>Node8&#45;&gt;Node9</title>
<path fill="none" stroke="midnightblue" d="M461.74,-186.37C512.96,-170.05 589.15,-145.77 636.9,-130.55"/>
<polygon fill="midnightblue" stroke="midnightblue" points="460.63,-183.05 452.17,-189.43 462.76,-189.72 460.63,-183.05"/>
</g>
<!-- Node8&#45;&gt;Node10 -->
<g id="edge10" class="edge">
<title>Node8&#45;&gt;Node10</title>
<path fill="none" stroke="midnightblue" d="M347.23,-186.77C300.67,-173.95 235.67,-156.05 182.92,-141.53"/>
<polygon fill="midnightblue" stroke="midnightblue" points="346.31,-190.15 356.88,-189.43 348.17,-183.4 346.31,-190.15"/>
</g>
<!-- Node8&#45;&gt;Node11 -->
<g id="edge11" class="edge">
<title>Node8&#45;&gt;Node11</title>
<path fill="none" stroke="midnightblue" d="M428.08,-181.66C439.22,-169.55 453.12,-154.43 464.74,-141.8"/>
<polygon fill="midnightblue" stroke="midnightblue" points="425.4,-179.4 421.21,-189.13 430.56,-184.14 425.4,-179.4"/>
</g>
<!-- Node8&#45;&gt;Node12 -->
<g id="edge12" class="edge">
<title>Node8&#45;&gt;Node12</title>
<path fill="none" stroke="midnightblue" d="M488.39,-187.54C505.72,-184.26 523.95,-180.91 541,-178 647.32,-159.84 675.2,-162.98 781,-142 784.25,-141.35 787.56,-140.67 790.89,-139.97"/>
<polygon fill="midnightblue" stroke="midnightblue" points="487.47,-184.15 478.31,-189.47 488.79,-191.03 487.47,-184.15"/>
</g>
<!-- Node8&#45;&gt;Node13 -->
<g id="edge13" class="edge">
<title>Node8&#45;&gt;Node13</title>
<path fill="none" stroke="midnightblue" d="M481.87,-187.53C501.04,-183.89 521.73,-180.39 541,-178 820.65,-143.39 893.51,-169.06 1174,-142 1213.63,-138.18 1257.76,-132.24 1293.2,-127.05"/>
<polygon fill="midnightblue" stroke="midnightblue" points="481.14,-184.11 471.99,-189.45 482.48,-190.98 481.14,-184.11"/>
</g>
<!-- Node14&#45;&gt;Node4 -->
<g id="edge15" class="edge">
<title>Node14&#45;&gt;Node4</title>
<path fill="none" stroke="midnightblue" d="M735.83,-287.67C598.64,-279.16 342.94,-259.65 313,-231 285.48,-204.67 288.24,-154.81 291.57,-130.51"/>
<polygon fill="midnightblue" stroke="midnightblue" points="735.7,-291.17 745.9,-288.29 736.13,-284.18 735.7,-291.17"/>
</g>
<!-- Node14&#45;&gt;Node8 -->
<g id="edge16" class="edge">
<title>Node14&#45;&gt;Node8</title>
<path fill="none" stroke="midnightblue" d="M735.99,-277C672.74,-265.28 584.77,-248.29 508,-231 492.62,-227.54 476,-223.44 460.8,-219.56"/>
<polygon fill="midnightblue" stroke="midnightblue" points="735.46,-280.47 745.93,-278.84 736.73,-273.58 735.46,-280.47"/>
</g>
<!-- Node14&#45;&gt;Node10 -->
<g id="edge20" class="edge">
<title>Node14&#45;&gt;Node10</title>
<path fill="none" stroke="midnightblue" d="M735.67,-286.94C606.13,-277.86 368.04,-258.1 287,-231 225.38,-210.4 161.93,-168.58 124.78,-141.59"/>
<polygon fill="midnightblue" stroke="midnightblue" points="735.73,-290.45 745.95,-287.65 736.21,-283.47 735.73,-290.45"/>
</g>
<!-- Node14&#45;&gt;Node11 -->
<g id="edge21" class="edge">
<title>Node14&#45;&gt;Node11</title>
<path fill="none" stroke="midnightblue" d="M735.57,-282.11C664.43,-272.04 570.65,-254.8 541,-231 512.98,-208.51 499.11,-167.85 492.76,-141.52"/>
<polygon fill="midnightblue" stroke="midnightblue" points="735.51,-285.64 745.9,-283.55 736.47,-278.7 735.51,-285.64"/>
</g>
<!-- Node14&#45;&gt;Node13 -->
<g id="edge24" class="edge">
<title>Node14&#45;&gt;Node13</title>
<path fill="none" stroke="midnightblue" d="M908.38,-287.89C1048.11,-279.62 1311.26,-260.33 1342,-231 1365.76,-208.32 1366.97,-168.1 1364.71,-141.88"/>
<polygon fill="midnightblue" stroke="midnightblue" points="907.91,-284.41 898.13,-288.49 908.32,-291.4 907.91,-284.41"/>
</g>
<!-- Node15 -->
<g id="node15" class="node">
<title>Node15</title>
<g id="a_node15"><a xlink:href="CreateUserDevices_8h.html" target="_top" xlink:title=" ">
<polygon fill="white" stroke="red" points="995,-95 995,-136 1165,-136 1165,-95 995,-95"/>
<text text-anchor="start" x="1003" y="-124" font-family="Helvetica,sans-Serif" font-size="10.00">/home/runner/work/EX</text>
<text text-anchor="start" x="1003" y="-113" font-family="Helvetica,sans-Serif" font-size="10.00">&#45;Display/EX&#45;Display/CreateUser</text>
<text text-anchor="middle" x="1080" y="-102" font-family="Helvetica,sans-Serif" font-size="10.00">Devices.h</text>
</a>
</g>
</g>
<!-- Node14&#45;&gt;Node15 -->
<g id="edge17" class="edge">
<title>Node14&#45;&gt;Node15</title>
<path fill="none" stroke="midnightblue" d="M801.72,-264.43C786.2,-239.22 770.61,-202.5 791,-178 819.19,-144.13 943.03,-151.78 986,-142 994,-140.18 1002.34,-138.14 1010.6,-136.01"/>
<polygon fill="midnightblue" stroke="midnightblue" points="798.78,-266.33 807.15,-272.83 804.66,-262.53 798.78,-266.33"/>
</g>
<!-- Node17 -->
<g id="node16" class="node">
<title>Node17</title>
<g id="a_node16"><a xlink:href="DisplayManager_8cpp.html" target="_top" xlink:title=" ">
<polygon fill="white" stroke="black" points="1181,-184 1181,-225 1333,-225 1333,-184 1181,-184"/>
<text text-anchor="start" x="1189" y="-213" font-family="Helvetica,sans-Serif" font-size="10.00">/home/runner/work/EX</text>
<text text-anchor="start" x="1189" y="-202" font-family="Helvetica,sans-Serif" font-size="10.00">&#45;Display/EX&#45;Display/Display</text>
<text text-anchor="middle" x="1257" y="-191" font-family="Helvetica,sans-Serif" font-size="10.00">Manager.cpp</text>
</a>
</g>
</g>
<!-- Node14&#45;&gt;Node17 -->
<g id="edge19" class="edge">
<title>Node14&#45;&gt;Node17</title>
<path fill="none" stroke="midnightblue" d="M908.58,-280.19C979.76,-269.37 1083.03,-252.09 1172,-231 1179.5,-229.22 1187.31,-227.17 1195.02,-225.01"/>
<polygon fill="midnightblue" stroke="midnightblue" points="907.68,-276.78 898.31,-281.74 908.72,-283.7 907.68,-276.78"/>
</g>
<!-- Node14&#45;&gt;Node18 -->
<g id="edge22" class="edge">
<title>Node14&#45;&gt;Node18</title>
<path fill="none" stroke="midnightblue" d="M908.27,-287.83C1017.73,-280.79 1211.9,-264.53 1375,-231 1379.63,-230.05 1384.37,-228.95 1389.12,-227.76"/>
<polygon fill="midnightblue" stroke="midnightblue" points="908.03,-284.34 898.27,-288.47 908.48,-291.33 908.03,-284.34"/>
</g>
<!-- Node19 -->
<g id="node18" class="node">
<title>Node19</title>
<g id="a_node18"><a xlink:href="MockDisplayInputMethods_8h.html" target="_top" xlink:title=" ">
<polygon fill="white" stroke="red" points="550,-184 550,-225 744,-225 744,-184 550,-184"/>
<text text-anchor="start" x="558" y="-213" font-family="Helvetica,sans-Serif" font-size="10.00">/home/runner/work/EX</text>
<text text-anchor="start" x="558" y="-202" font-family="Helvetica,sans-Serif" font-size="10.00">&#45;Display/EX&#45;Display/test</text>
<text text-anchor="middle" x="647" y="-191" font-family="Helvetica,sans-Serif" font-size="10.00">/mocks/MockDisplayInputMethods.h</text>
</a>
</g>
</g>
<!-- Node14&#45;&gt;Node19 -->
<g id="edge23" class="edge">
<title>Node14&#45;&gt;Node19</title>
<path fill="none" stroke="midnightblue" d="M773.68,-268.48C746.23,-254.83 712.28,-237.96 686.44,-225.11"/>
<polygon fill="midnightblue" stroke="midnightblue" points="772.21,-271.66 782.73,-272.98 775.33,-265.39 772.21,-271.66"/>
</g>
<!-- Node32 -->
<g id="node19" class="node">
<title>Node32</title>
<g id="a_node19"><a xlink:href="test__DisplayManager_8cpp.html" target="_top" xlink:title=" ">
<polygon fill="white" stroke="black" points="800.5,-178.5 800.5,-230.5 945.5,-230.5 945.5,-178.5 800.5,-178.5"/>
<text text-anchor="start" x="808.5" y="-218.5" font-family="Helvetica,sans-Serif" font-size="10.00">/home/runner/work/EX</text>
<text text-anchor="start" x="808.5" y="-207.5" font-family="Helvetica,sans-Serif" font-size="10.00">&#45;Display/EX&#45;Display/test</text>
<text text-anchor="start" x="808.5" y="-196.5" font-family="Helvetica,sans-Serif" font-size="10.00">/unit/test_DisplayManager</text>
<text text-anchor="middle" x="873" y="-185.5" font-family="Helvetica,sans-Serif" font-size="10.00">/test_DisplayManager.cpp</text>
</a>
</g>
</g>
<!-- Node14&#45;&gt;Node32 -->
<g id="edge25" class="edge">
<title>Node14&#45;&gt;Node32</title>
<path fill="none" stroke="midnightblue" d="M838.63,-264.13C844.93,-253.39 852.05,-241.23 858.18,-230.79"/>
<polygon fill="midnightblue" stroke="midnightblue" points="835.61,-262.36 833.57,-272.76 841.65,-265.9 835.61,-262.36"/>
</g>
<!-- Node33 -->
<g id="node20" class="node">
<title>Node33</title>
<g id="a_node20"><a xlink:href="test__DisplayManualSPISwitching_8cpp.html" target="_top" xlink:title=" ">
<polygon fill="white" stroke="black" points="963.5,-178.5 963.5,-230.5 1162.5,-230.5 1162.5,-178.5 963.5,-178.5"/>
<text text-anchor="start" x="971.5" y="-218.5" font-family="Helvetica,sans-Serif" font-size="10.00">/home/runner/work/EX</text>
<text text-anchor="start" x="971.5" y="-207.5" font-family="Helvetica,sans-Serif" font-size="10.00">&#45;Display/EX&#45;Display/test</text>
<text text-anchor="start" x="971.5" y="-196.5" font-family="Helvetica,sans-Serif" font-size="10.00">/unit/test_DisplayManager</text>
<text text-anchor="middle" x="1063" y="-185.5" font-family="Helvetica,sans-Serif" font-size="10.00">/test_DisplayManualSPISwitching.cpp</text>
</a>
</g>
</g>
<!-- Node14&#45;&gt;Node33 -->
<g id="edge26" class="edge">
<title>Node14&#45;&gt;Node33</title>
<path fill="none" stroke="midnightblue" d="M885.68,-269.51C918.87,-257.53 959.51,-242.86 993.51,-230.58"/>
<polygon fill="midnightblue" stroke="midnightblue" points="884.3,-266.29 876.09,-272.98 886.68,-272.87 884.3,-266.29"/>
</g>
<!-- Node15&#45;&gt;Node5 -->
<g id="edge18" class="edge">
<title>Node15&#45;&gt;Node5</title>
<path fill="none" stroke="midnightblue" d="M1019.09,-91.36C977.36,-75.5 923.35,-54.99 887.97,-41.55"/>
<polygon fill="midnightblue" stroke="midnightblue" points="1018.02,-94.7 1028.61,-94.98 1020.5,-88.15 1018.02,-94.7"/>
</g>
</g>
</svg>
        <g id="navigator" transform="translate(0 0)" fill="#404254">
                <rect fill="#f2f5e9" fill-opacity="0.5" stroke="#606060" stroke-width=".5" x="0" y="0" width="60" height="60"/>
                <use id="zoomplus" xlink:href="#zoomPlus" x="17" y="9" onmousedown="handleZoom(evt,'in')"/>
                <use id="zoomminus" xlink:href="#zoomMin" x="42" y="9" onmousedown="handleZoom(evt,'out')"/>
                <use id="reset" xlink:href="#resetDef" x="30" y="36" onmousedown="handleReset()"/>
                <g id="arrowUp" xlink:href="#dirArrow" transform="translate(30 24)" onmousedown="handlePan(0,-1)">
                  <use xlink:href="#rim" fill="#404040">
                        <set attributeName="fill" to="#808080" begin="arrowUp.mouseover" end="arrowUp.mouseout"/>
                  </use>
                  <path fill="none" stroke="white" stroke-width="1.5" d="M0,-3.0v7 M-2.5,-0.5L0,-3.0L2.5,-0.5"/>
                </g>
                <g id="arrowRight" xlink:href="#dirArrow" transform="rotate(90) translate(36 -43)" onmousedown="handlePan(1,0)">
                  <use xlink:href="#rim" fill="#404040">
                        <set attributeName="fill" to="#808080" begin="arrowRight.mouseover" end="arrowRight.mouseout"/>
                  </use>
                  <path fill="none" stroke="white" stroke-width="1.5" d="M0,-3.0v7 M-2.5,-0.5L0,-3.0L2.5,-0.5"/>
                </g>
                <g id="arrowDown" xlink:href="#dirArrow" transform="rotate(180) translate(-30 -48)" onmousedown="handlePan(0,1)">
                  <use xlink:href="#rim" fill="#404040">
                        <set attributeName="fill" to="#808080" begin="arrowDown.mouseover" end="arrowDown.mouseout"/>
                  </use>
                  <path fill="none" stroke="white" stroke-width="1.5" d="M0,-3.0v7 M-2.5,-0.5L0,-3.0L2.5,-0.5"/>
                </g>
                <g id="arrowLeft" xlink:href="#dirArrow" transform="rotate(270) translate(-36 17)" onmousedown="handlePan(-1,0)">
                  <use xlink:href="#rim" fill="#404040">
                        <set attributeName="fill" to="#808080" begin="arrowLeft.mouseover" end="arrowLeft.mouseout"/>
                  </use>
                  <path fill="none" stroke="white" stroke-width="1.5" d="M0,-3.0v7 M-2.5,-0.5L0,-3.0L2.5,-0.5"/>
                </g>
        </g>
        <svg viewBox="0 0 15 15" width="100%" height="30px" preserveAspectRatio="xMaxYMin meet">
         <g id="arrow_out" transform="scale(0.3 0.3)">
          <a xlink:href="Screen_8h__dep__incl_org.svg" target="_base">
           <rect id="button" ry="5" rx="5" y="6" x="6" height="38" width="38"
                fill="#f2f5e9" fill-opacity="0.5" stroke="#606060" stroke-width="1.0"/>
           <path id="arrow"
             d="M 11.500037,31.436501 C 11.940474,20.09759 22.043105,11.32322 32.158766,21.979434 L 37.068811,17.246167 C 37.068811,17.246167 37.088388,32 37.088388,32 L 22.160133,31.978069 C 22.160133,31.978069 26.997745,27.140456 26.997745,27.140456 C 18.528582,18.264221 13.291696,25.230495 11.500037,31.436501 z"
             style="fill:#404040;"/>
          </a>
         </g>
        </svg>
</svg>
