<?xml version="1.0" encoding="UTF-8" standalone="no"?>
<!DOCTYPE svg PUBLIC "-//W3C//DTD SVG 1.1//EN"
 "http://www.w3.org/Graphics/SVG/1.1/DTD/svg11.dtd">
<!-- Generated by graphviz version 2.43.0 (0)
 -->
<!-- Title: /home/runner/work/EX&#45;Display/EX&#45;Display/Screen.h Pages: 1 -->
<svg width="177pt" height="207pt"
 viewBox="0.00 0.00 177.00 207.00" xmlns="http://www.w3.org/2000/svg" xmlns:xlink="http://www.w3.org/1999/xlink">
<g id="graph0" class="graph" transform="scale(1 1) rotate(0) translate(4 203)">
<title>/home/runner/work/EX&#45;Display/EX&#45;Display/Screen.h</title>
<polygon fill="white" stroke="transparent" points="-4,4 -4,-203 173,-203 173,4 -4,4"/>
<!-- Node1 -->
<g id="node1" class="node">
<title>Node1</title>
<g id="a_node1"><a xlink:title=" ">
<polygon fill="#bfbfbf" stroke="black" points="11,-168.5 11,-198.5 169,-198.5 169,-168.5 11,-168.5"/>
<text text-anchor="start" x="19" y="-186.5" font-family="Helvetica,sans-Serif" font-size="10.00">/home/runner/work/EX</text>
<text text-anchor="middle" x="90" y="-175.5" font-family="Helvetica,sans-Serif" font-size="10.00">&#45;Display/EX&#45;Display/Screen.h</text>
</a>
</g>
</g>
<!-- Node2 -->
<g id="node2" class="node">
<title>Node2</title>
<g id="a_node2"><a xlink:href="ScreenRow_8h.html" target="_top" xlink:title=" ">
<polygon fill="white" stroke="black" points="16.5,-112.5 16.5,-131.5 95.5,-131.5 95.5,-112.5 16.5,-112.5"/>
<text text-anchor="middle" x="56" y="-119.5" font-family="Helvetica,sans-Serif" font-size="10.00">ScreenRow.h</text>
</a>
</g>
</g>
<!-- Node1&#45;&gt;Node2 -->
<g id="edge1" class="edge">
<title>Node1&#45;&gt;Node2</title>
<path fill="none" stroke="midnightblue" d="M81.94,-168.4C77.15,-160.02 71.04,-149.33 65.96,-140.42"/>
<polygon fill="midnightblue" stroke="midnightblue" points="68.95,-138.6 60.95,-131.66 62.87,-142.08 68.95,-138.6"/>
</g>
<!-- Node4 -->
<g id="node4" class="node">
<title>Node4</title>
<g id="a_node4"><a xlink:href="Arduino_8h.html" target="_top" xlink:title=" ">
<polygon fill="white" stroke="red" points="54.5,-0.5 54.5,-19.5 117.5,-19.5 117.5,-0.5 54.5,-0.5"/>
<text text-anchor="middle" x="86" y="-7.5" font-family="Helvetica,sans-Serif" font-size="10.00">Arduino.h</text>
</a>
</g>
</g>
<!-- Node1&#45;&gt;Node4 -->
<g id="edge5" class="edge">
<title>Node1&#45;&gt;Node4</title>
<path fill="none" stroke="midnightblue" d="M95.1,-168.13C98.37,-158.14 102.31,-144.44 104,-132 108.94,-95.67 99.03,-53.3 92.05,-29.57"/>
<polygon fill="midnightblue" stroke="midnightblue" points="95.33,-28.31 89.03,-19.79 88.64,-30.38 95.33,-28.31"/>
</g>
<!-- Node3 -->
<g id="node3" class="node">
<title>Node3</title>
<g id="a_node3"><a xlink:href="Logger_8h.html" target="_top" xlink:title=" ">
<polygon fill="white" stroke="black" points="0,-56.5 0,-75.5 58,-75.5 58,-56.5 0,-56.5"/>
<text text-anchor="middle" x="29" y="-63.5" font-family="Helvetica,sans-Serif" font-size="10.00">Logger.h</text>
</a>
</g>
</g>
<!-- Node2&#45;&gt;Node3 -->
<g id="edge2" class="edge">
<title>Node2&#45;&gt;Node3</title>
<path fill="none" stroke="midnightblue" d="M51.54,-112.08C47.85,-104.69 42.48,-93.95 37.91,-84.81"/>
<polygon fill="midnightblue" stroke="midnightblue" points="40.98,-83.13 33.38,-75.75 34.72,-86.26 40.98,-83.13"/>
</g>
<!-- Node2&#45;&gt;Node4 -->
<g id="edge4" class="edge">
<title>Node2&#45;&gt;Node4</title>
<path fill="none" stroke="midnightblue" d="M58.35,-112.37C63.22,-94.54 74.46,-53.3 81.02,-29.27"/>
<polygon fill="midnightblue" stroke="midnightblue" points="84.4,-30.16 83.66,-19.59 77.65,-28.32 84.4,-30.16"/>
</g>
<!-- Node3&#45;&gt;Node4 -->
<g id="edge3" class="edge">
<title>Node3&#45;&gt;Node4</title>
<path fill="none" stroke="midnightblue" d="M38.16,-56.32C46.5,-48.42 59.03,-36.55 69.18,-26.94"/>
<polygon fill="midnightblue" stroke="midnightblue" points="71.82,-29.25 76.68,-19.83 67.01,-24.17 71.82,-29.25"/>
</g>
</g>
</svg>
