<?xml version="1.0" encoding="UTF-8" standalone="no"?>
<!DOCTYPE svg PUBLIC "-//W3C//DTD SVG 1.1//EN"
 "http://www.w3.org/Graphics/SVG/1.1/DTD/svg11.dtd">
<!-- Generated by graphviz version 2.43.0 (0)
 -->
<!-- Title: /home/runner/work/EX&#45;Display/EX&#45;Display/Screen.h Pages: 1 -->
<!--zoomable 473 -->
<svg id="main" version="1.1" xmlns="http://www.w3.org/2000/svg" xmlns:xlink="http://www.w3.org/1999/xlink" xml:space="preserve" onload="init(evt)">
<style type="text/css"><![CDATA[
.edge:hover path { stroke: red; }
.edge:hover polygon { stroke: red; fill: red; }
]]></style>
<script type="text/javascript"><![CDATA[
var edges = document.getElementsByTagName('g');
if (edges && edges.length) {
  for (var i=0;i<edges.length;i++) {
    if (edges[i].id.substr(0,4)=='edge') {
      edges[i].setAttribute('class','edge');
    }
  }
}
]]></script>
        <defs>
                <circle id="rim" cx="0" cy="0" r="7"/>
                <circle id="rim2" cx="0" cy="0" r="3.5"/>
                <g id="zoomPlus">
                        <use xlink:href="#rim" fill="#404040">
                                <set attributeName="fill" to="#808080" begin="zoomplus.mouseover" end="zoomplus.mouseout"/>
                        </use>
                        <path d="M-4,0h8M0,-4v8" fill="none" stroke="white" stroke-width="1.5" pointer-events="none"/>
                </g>
                <g id="zoomMin">
                        <use xlink:href="#rim" fill="#404040">
                                <set attributeName="fill" to="#808080" begin="zoomminus.mouseover" end="zoomminus.mouseout"/>
                        </use>
                        <path d="M-4,0h8" fill="none" stroke="white" stroke-width="1.5" pointer-events="none"/>
                </g>
                <g id="dirArrow">
                        <path fill="none" stroke="white" stroke-width="1.5" d="M0,-3.0v7 M-2.5,-0.5L0,-3.0L2.5,-0.5"/>
                </g>
               <g id="resetDef">
                       <use xlink:href="#rim2" fill="#404040">
                               <set attributeName="fill" to="#808080" begin="reset.mouseover" end="reset.mouseout"/>
                       </use>
               </g>
        </defs>

<script type="text/javascript">
var viewWidth = 1860;
var viewHeight = 473;
var sectionId = 'dynsection-1';
</script>
<script xlink:href="svgpan.js"/>
<svg id="graph" class="graph">
<g id="viewport">
<title>/home/runner/work/EX&#45;Display/EX&#45;Display/Screen.h</title>
<polygon fill="white" stroke="transparent" points="-4,4 -4,-469 1855.5,-469 1855.5,4 -4,4"/>
<!-- Node1 -->
<g id="node1" class="node">
<title>Node1</title>
<g id="a_node1"><a xlink:title=" ">
<polygon fill="#bfbfbf" stroke="black" points="604,-434.5 604,-464.5 762,-464.5 762,-434.5 604,-434.5"/>
<text text-anchor="start" x="612" y="-452.5" font-family="Helvetica,sans-Serif" font-size="10.00">/home/runner/work/EX</text>
<text text-anchor="middle" x="683" y="-441.5" font-family="Helvetica,sans-Serif" font-size="10.00">&#45;Display/EX&#45;Display/Screen.h</text>
</a>
</g>
</g>
<!-- Node2 -->
<g id="node2" class="node">
<title>Node2</title>
<g id="a_node2"><a xlink:href="Screen_8cpp.html" target="_top" xlink:title=" ">
<polygon fill="white" stroke="black" points="395.5,-362 395.5,-392 564.5,-392 564.5,-362 395.5,-362"/>
<text text-anchor="start" x="403.5" y="-380" font-family="Helvetica,sans-Serif" font-size="10.00">/home/runner/work/EX</text>
<text text-anchor="middle" x="480" y="-369" font-family="Helvetica,sans-Serif" font-size="10.00">&#45;Display/EX&#45;Display/Screen.cpp</text>
</a>
</g>
</g>
<!-- Node1&#45;&gt;Node2 -->
<g id="edge1" class="edge">
<title>Node1&#45;&gt;Node2</title>
<path fill="none" stroke="midnightblue" d="M632.95,-431.12C598.34,-419.1 552.87,-403.31 520.52,-392.07"/>
<polygon fill="midnightblue" stroke="midnightblue" points="631.81,-434.43 642.41,-434.4 634.11,-427.82 631.81,-434.43"/>
</g>
<!-- Node3 -->
<g id="node3" class="node">
<title>Node3</title>
<g id="a_node3"><a xlink:href="ScreenManager_8h.html" target="_top" xlink:title=" ">
<polygon fill="white" stroke="black" points="583,-362 583,-392 783,-392 783,-362 583,-362"/>
<text text-anchor="start" x="591" y="-380" font-family="Helvetica,sans-Serif" font-size="10.00">/home/runner/work/EX</text>
<text text-anchor="middle" x="683" y="-369" font-family="Helvetica,sans-Serif" font-size="10.00">&#45;Display/EX&#45;Display/ScreenManager.h</text>
</a>
</g>
</g>
<!-- Node1&#45;&gt;Node3 -->
<g id="edge2" class="edge">
<title>Node1&#45;&gt;Node3</title>
<path fill="none" stroke="midnightblue" d="M683,-424.23C683,-413.57 683,-401.41 683,-392.25"/>
<polygon fill="midnightblue" stroke="midnightblue" points="679.5,-424.23 683,-434.23 686.5,-424.23 679.5,-424.23"/>
</g>
<!-- Node21 -->
<g id="node21" class="node">
<title>Node21</title>
<g id="a_node21"><a xlink:href="test__Screen_8cpp.html" target="_top" xlink:title=" ">
<polygon fill="white" stroke="black" points="801.5,-356.5 801.5,-397.5 980.5,-397.5 980.5,-356.5 801.5,-356.5"/>
<text text-anchor="start" x="809.5" y="-385.5" font-family="Helvetica,sans-Serif" font-size="10.00">/home/runner/work/EX</text>
<text text-anchor="start" x="809.5" y="-374.5" font-family="Helvetica,sans-Serif" font-size="10.00">&#45;Display/EX&#45;Display/test</text>
<text text-anchor="middle" x="891" y="-363.5" font-family="Helvetica,sans-Serif" font-size="10.00">/unit/test_Screen/test_Screen.cpp</text>
</a>
</g>
</g>
<!-- Node1&#45;&gt;Node21 -->
<g id="edge31" class="edge">
<title>Node1&#45;&gt;Node21</title>
<path fill="none" stroke="midnightblue" d="M734.44,-431.07C764.43,-420.9 802.33,-408.05 833.33,-397.55"/>
<polygon fill="midnightblue" stroke="midnightblue" points="732.94,-427.88 724.59,-434.4 735.19,-434.51 732.94,-427.88"/>
</g>
<!-- Node4 -->
<g id="node4" class="node">
<title>Node4</title>
<g id="a_node4"><a xlink:href="Configurator_8h.html" target="_top" xlink:title=" ">
<polygon fill="white" stroke="black" points="589,-100.5 589,-130.5 773,-130.5 773,-100.5 589,-100.5"/>
<text text-anchor="start" x="597" y="-118.5" font-family="Helvetica,sans-Serif" font-size="10.00">/home/runner/work/EX</text>
<text text-anchor="middle" x="681" y="-107.5" font-family="Helvetica,sans-Serif" font-size="10.00">&#45;Display/EX&#45;Display/Configurator.h</text>
</a>
</g>
</g>
<!-- Node3&#45;&gt;Node4 -->
<g id="edge3" class="edge">
<title>Node3&#45;&gt;Node4</title>
<path fill="none" stroke="midnightblue" d="M648.9,-356.06C636.45,-346.82 623.77,-334.63 617,-320 590.48,-262.73 592.27,-236.06 617,-178 625.45,-158.15 643.8,-141.62 658.69,-130.71"/>
<polygon fill="midnightblue" stroke="midnightblue" points="647.2,-359.15 657.41,-361.98 651.2,-353.4 647.2,-359.15"/>
</g>
<!-- Node8 -->
<g id="node8" class="node">
<title>Node8</title>
<g id="a_node8"><a xlink:href="Controller_8h.html" target="_top" xlink:title=" ">
<polygon fill="white" stroke="black" points="393,-189.5 393,-219.5 565,-219.5 565,-189.5 393,-189.5"/>
<text text-anchor="start" x="401" y="-207.5" font-family="Helvetica,sans-Serif" font-size="10.00">/home/runner/work/EX</text>
<text text-anchor="middle" x="479" y="-196.5" font-family="Helvetica,sans-Serif" font-size="10.00">&#45;Display/EX&#45;Display/Controller.h</text>
</a>
</g>
</g>
<!-- Node3&#45;&gt;Node8 -->
<g id="edge7" class="edge">
<title>Node3&#45;&gt;Node8</title>
<path fill="none" stroke="midnightblue" d="M640.67,-357.52C620.91,-347.85 597.68,-334.9 579,-320 540.63,-289.38 505.23,-242.81 488.73,-219.63"/>
<polygon fill="midnightblue" stroke="midnightblue" points="639.23,-360.71 649.77,-361.87 642.25,-354.4 639.23,-360.71"/>
</g>
<!-- Node10 -->
<g id="node10" class="node">
<title>Node10</title>
<g id="a_node10"><a xlink:href="test__ControllerDisplayUpdate_8cpp.html" target="_top" xlink:title=" ">
<polygon fill="white" stroke="black" points="0,-89.5 0,-141.5 184,-141.5 184,-89.5 0,-89.5"/>
<text text-anchor="start" x="8" y="-129.5" font-family="Helvetica,sans-Serif" font-size="10.00">/home/runner/work/EX</text>
<text text-anchor="start" x="8" y="-118.5" font-family="Helvetica,sans-Serif" font-size="10.00">&#45;Display/EX&#45;Display/test</text>
<text text-anchor="start" x="8" y="-107.5" font-family="Helvetica,sans-Serif" font-size="10.00">/integration/test_Controller</text>
<text text-anchor="middle" x="92" y="-96.5" font-family="Helvetica,sans-Serif" font-size="10.00">/test_ControllerDisplayUpdate.cpp</text>
</a>
</g>
</g>
<!-- Node3&#45;&gt;Node10 -->
<g id="edge25" class="edge">
<title>Node3&#45;&gt;Node10</title>
<path fill="none" stroke="midnightblue" d="M595.61,-360.11C504.55,-343.55 375,-320 375,-320 269.73,-275.29 165.64,-185.68 118.37,-141.83"/>
<polygon fill="midnightblue" stroke="midnightblue" points="595.21,-363.6 605.68,-361.94 596.46,-356.71 595.21,-363.6"/>
</g>
<!-- Node11 -->
<g id="node11" class="node">
<title>Node11</title>
<g id="a_node11"><a xlink:href="test__ControllerInputAction_8cpp.html" target="_top" xlink:title=" ">
<polygon fill="white" stroke="black" points="202.5,-89.5 202.5,-141.5 369.5,-141.5 369.5,-89.5 202.5,-89.5"/>
<text text-anchor="start" x="210.5" y="-129.5" font-family="Helvetica,sans-Serif" font-size="10.00">/home/runner/work/EX</text>
<text text-anchor="start" x="210.5" y="-118.5" font-family="Helvetica,sans-Serif" font-size="10.00">&#45;Display/EX&#45;Display/test</text>
<text text-anchor="start" x="210.5" y="-107.5" font-family="Helvetica,sans-Serif" font-size="10.00">/integration/test_Controller</text>
<text text-anchor="middle" x="286" y="-96.5" font-family="Helvetica,sans-Serif" font-size="10.00">/test_ControllerInputAction.cpp</text>
</a>
</g>
</g>
<!-- Node3&#45;&gt;Node11 -->
<g id="edge26" class="edge">
<title>Node3&#45;&gt;Node11</title>
<path fill="none" stroke="midnightblue" d="M593.73,-359.66C515.83,-341.05 404.66,-303.34 335,-231 310.85,-205.92 297.7,-167.1 291.26,-141.74"/>
<polygon fill="midnightblue" stroke="midnightblue" points="593,-363.09 603.53,-361.95 594.59,-356.27 593,-363.09"/>
</g>
<!-- Node12 -->
<g id="node12" class="node">
<title>Node12</title>
<g id="a_node12"><a xlink:href="test__ControllerScreenCreation_8cpp.html" target="_top" xlink:title=" ">
<polygon fill="white" stroke="black" points="1152,-89.5 1152,-141.5 1338,-141.5 1338,-89.5 1152,-89.5"/>
<text text-anchor="start" x="1160" y="-129.5" font-family="Helvetica,sans-Serif" font-size="10.00">/home/runner/work/EX</text>
<text text-anchor="start" x="1160" y="-118.5" font-family="Helvetica,sans-Serif" font-size="10.00">&#45;Display/EX&#45;Display/test</text>
<text text-anchor="start" x="1160" y="-107.5" font-family="Helvetica,sans-Serif" font-size="10.00">/integration/test_Controller</text>
<text text-anchor="middle" x="1245" y="-96.5" font-family="Helvetica,sans-Serif" font-size="10.00">/test_ControllerScreenCreation.cpp</text>
</a>
</g>
</g>
<!-- Node3&#45;&gt;Node12 -->
<g id="edge27" class="edge">
<title>Node3&#45;&gt;Node12</title>
<path fill="none" stroke="midnightblue" d="M766.98,-360.22C775.43,-358.75 783.88,-357.31 792,-356 935.48,-332.8 1343.54,-344.76 1434,-231 1448.66,-212.56 1447.84,-197.06 1434,-178 1411.8,-147.43 1374.01,-131.76 1338.03,-123.83"/>
<polygon fill="midnightblue" stroke="midnightblue" points="766.34,-356.78 757.1,-361.97 767.55,-363.68 766.34,-356.78"/>
</g>
<!-- Node13 -->
<g id="node13" class="node">
<title>Node13</title>
<g id="a_node13"><a xlink:href="test__Controller_8cpp.html" target="_top" xlink:title=" ">
<polygon fill="white" stroke="black" points="791.5,-89.5 791.5,-141.5 926.5,-141.5 926.5,-89.5 791.5,-89.5"/>
<text text-anchor="start" x="799.5" y="-129.5" font-family="Helvetica,sans-Serif" font-size="10.00">/home/runner/work/EX</text>
<text text-anchor="start" x="799.5" y="-118.5" font-family="Helvetica,sans-Serif" font-size="10.00">&#45;Display/EX&#45;Display/test</text>
<text text-anchor="start" x="799.5" y="-107.5" font-family="Helvetica,sans-Serif" font-size="10.00">/unit/test_Controller/test</text>
<text text-anchor="middle" x="859" y="-96.5" font-family="Helvetica,sans-Serif" font-size="10.00">_Controller.cpp</text>
</a>
</g>
</g>
<!-- Node3&#45;&gt;Node13 -->
<g id="edge29" class="edge">
<title>Node3&#45;&gt;Node13</title>
<path fill="none" stroke="midnightblue" d="M666.01,-353.47C659.67,-343.72 653.23,-331.84 650,-320 643.8,-297.27 642.94,-289.47 650,-267 664.44,-221.01 674.49,-208.29 712,-178 725.13,-167.4 759.13,-152.93 791.13,-140.7"/>
<polygon fill="midnightblue" stroke="midnightblue" points="663.16,-355.51 671.7,-361.77 668.93,-351.55 663.16,-355.51"/>
</g>
<!-- Node14 -->
<g id="node14" class="node">
<title>Node14</title>
<g id="a_node14"><a xlink:href="DisplayManager_8h.html" target="_top" xlink:title=" ">
<polygon fill="white" stroke="black" points="659,-273 659,-314 811,-314 811,-273 659,-273"/>
<text text-anchor="start" x="667" y="-302" font-family="Helvetica,sans-Serif" font-size="10.00">/home/runner/work/EX</text>
<text text-anchor="start" x="667" y="-291" font-family="Helvetica,sans-Serif" font-size="10.00">&#45;Display/EX&#45;Display/Display</text>
<text text-anchor="middle" x="735" y="-280" font-family="Helvetica,sans-Serif" font-size="10.00">Manager.h</text>
</a>
</g>
</g>
<!-- Node3&#45;&gt;Node14 -->
<g id="edge14" class="edge">
<title>Node3&#45;&gt;Node14</title>
<path fill="none" stroke="midnightblue" d="M697.66,-353.02C705.5,-340.73 715.06,-325.75 722.54,-314.03"/>
<polygon fill="midnightblue" stroke="midnightblue" points="694.49,-351.49 692.06,-361.8 700.39,-355.26 694.49,-351.49"/>
</g>
<!-- Node16 -->
<g id="node16" class="node">
<title>Node16</title>
<g id="a_node16"><a xlink:href="test__DisplayScreens_8cpp.html" target="_top" xlink:title=" ">
<polygon fill="white" stroke="black" points="1285.5,-178.5 1285.5,-230.5 1424.5,-230.5 1424.5,-178.5 1285.5,-178.5"/>
<text text-anchor="start" x="1293.5" y="-218.5" font-family="Helvetica,sans-Serif" font-size="10.00">/home/runner/work/EX</text>
<text text-anchor="start" x="1293.5" y="-207.5" font-family="Helvetica,sans-Serif" font-size="10.00">&#45;Display/EX&#45;Display/test</text>
<text text-anchor="start" x="1293.5" y="-196.5" font-family="Helvetica,sans-Serif" font-size="10.00">/integration/test_Display</text>
<text text-anchor="middle" x="1355" y="-185.5" font-family="Helvetica,sans-Serif" font-size="10.00">/test_DisplayScreens.cpp</text>
</a>
</g>
</g>
<!-- Node3&#45;&gt;Node16 -->
<g id="edge28" class="edge">
<title>Node3&#45;&gt;Node16</title>
<path fill="none" stroke="midnightblue" d="M757.52,-359.74C870.53,-334.64 1091.69,-283.82 1277,-231 1279.74,-230.22 1282.53,-229.4 1285.34,-228.57"/>
<polygon fill="midnightblue" stroke="midnightblue" points="756.6,-356.36 747.59,-361.94 758.11,-363.19 756.6,-356.36"/>
</g>
<!-- Node19 -->
<g id="node19" class="node">
<title>Node19</title>
<g id="a_node19"><a xlink:href="ScreenManager_8cpp.html" target="_top" xlink:title=" ">
<polygon fill="white" stroke="black" points="1481.5,-278.5 1481.5,-308.5 1692.5,-308.5 1692.5,-278.5 1481.5,-278.5"/>
<text text-anchor="start" x="1489.5" y="-296.5" font-family="Helvetica,sans-Serif" font-size="10.00">/home/runner/work/EX</text>
<text text-anchor="middle" x="1587" y="-285.5" font-family="Helvetica,sans-Serif" font-size="10.00">&#45;Display/EX&#45;Display/ScreenManager.cpp</text>
</a>
</g>
</g>
<!-- Node3&#45;&gt;Node19 -->
<g id="edge24" class="edge">
<title>Node3&#45;&gt;Node19</title>
<path fill="none" stroke="midnightblue" d="M762,-360.28C772.07,-358.63 782.26,-357.15 792,-356 1090.36,-320.82 1169.16,-359.34 1467,-320 1487.69,-317.27 1510.13,-312.89 1529.94,-308.53"/>
<polygon fill="midnightblue" stroke="midnightblue" points="761.27,-356.85 751.99,-361.96 762.43,-363.75 761.27,-356.85"/>
</g>
<!-- Node20 -->
<g id="node20" class="node">
<title>Node20</title>
<g id="a_node20"><a xlink:href="test__ScreenManager_8cpp.html" target="_top" xlink:title=" ">
<polygon fill="white" stroke="black" points="1710.5,-267.5 1710.5,-319.5 1851.5,-319.5 1851.5,-267.5 1710.5,-267.5"/>
<text text-anchor="start" x="1718.5" y="-307.5" font-family="Helvetica,sans-Serif" font-size="10.00">/home/runner/work/EX</text>
<text text-anchor="start" x="1718.5" y="-296.5" font-family="Helvetica,sans-Serif" font-size="10.00">&#45;Display/EX&#45;Display/test</text>
<text text-anchor="start" x="1718.5" y="-285.5" font-family="Helvetica,sans-Serif" font-size="10.00">/unit/test_ScreenManager</text>
<text text-anchor="middle" x="1781" y="-274.5" font-family="Helvetica,sans-Serif" font-size="10.00">/test_ScreenManager.cpp</text>
</a>
</g>
</g>
<!-- Node3&#45;&gt;Node20 -->
<g id="edge30" class="edge">
<title>Node3&#45;&gt;Node20</title>
<path fill="none" stroke="midnightblue" d="M761,-360.31C771.39,-358.62 781.93,-357.12 792,-356 1194.29,-311.36 1303.48,-390.82 1702,-320 1704.7,-319.52 1707.43,-318.97 1710.17,-318.37"/>
<polygon fill="midnightblue" stroke="midnightblue" points="760.38,-356.86 751.1,-361.97 761.54,-363.76 760.38,-356.86"/>
</g>
<!-- Node5 -->
<g id="node5" class="node">
<title>Node5</title>
<g id="a_node5"><a xlink:href="Configurator_8cpp.html" target="_top" xlink:title=" ">
<polygon fill="white" stroke="black" points="403.5,-11.5 403.5,-41.5 598.5,-41.5 598.5,-11.5 403.5,-11.5"/>
<text text-anchor="start" x="411.5" y="-29.5" font-family="Helvetica,sans-Serif" font-size="10.00">/home/runner/work/EX</text>
<text text-anchor="middle" x="501" y="-18.5" font-family="Helvetica,sans-Serif" font-size="10.00">&#45;Display/EX&#45;Display/Configurator.cpp</text>
</a>
</g>
</g>
<!-- Node4&#45;&gt;Node5 -->
<g id="edge4" class="edge">
<title>Node4&#45;&gt;Node5</title>
<path fill="none" stroke="midnightblue" d="M642.58,-95.93C608.87,-79.64 560.58,-56.3 530.01,-41.52"/>
<polygon fill="midnightblue" stroke="midnightblue" points="641.15,-99.13 651.68,-100.33 644.2,-92.83 641.15,-99.13"/>
</g>
<!-- Node6 -->
<g id="node6" class="node">
<title>Node6</title>
<g id="a_node6"><a xlink:href="EX-Display_8ino.html" target="_top" xlink:title=" ">
<polygon fill="white" stroke="black" points="617,-6 617,-47 745,-47 745,-6 617,-6"/>
<text text-anchor="start" x="625" y="-35" font-family="Helvetica,sans-Serif" font-size="10.00">/home/runner/work/EX</text>
<text text-anchor="start" x="625" y="-24" font-family="Helvetica,sans-Serif" font-size="10.00">&#45;Display/EX&#45;Display/EX</text>
<text text-anchor="middle" x="681" y="-13" font-family="Helvetica,sans-Serif" font-size="10.00">&#45;Display.ino</text>
</a>
</g>
</g>
<!-- Node4&#45;&gt;Node6 -->
<g id="edge5" class="edge">
<title>Node4&#45;&gt;Node6</title>
<path fill="none" stroke="midnightblue" d="M681,-90.04C681,-76.47 681,-59.81 681,-47.1"/>
<polygon fill="midnightblue" stroke="midnightblue" points="677.5,-90.13 681,-100.13 684.5,-90.13 677.5,-90.13"/>
</g>
<!-- Node7 -->
<g id="node7" class="node">
<title>Node7</title>
<g id="a_node7"><a xlink:href="test__Configurator_8cpp.html" target="_top" xlink:title=" ">
<polygon fill="white" stroke="black" points="763,-0.5 763,-52.5 897,-52.5 897,-0.5 763,-0.5"/>
<text text-anchor="start" x="771" y="-40.5" font-family="Helvetica,sans-Serif" font-size="10.00">/home/runner/work/EX</text>
<text text-anchor="start" x="771" y="-29.5" font-family="Helvetica,sans-Serif" font-size="10.00">&#45;Display/EX&#45;Display/test</text>
<text text-anchor="start" x="771" y="-18.5" font-family="Helvetica,sans-Serif" font-size="10.00">/unit/test_Configurator</text>
<text text-anchor="middle" x="830" y="-7.5" font-family="Helvetica,sans-Serif" font-size="10.00">/test_Configurator.cpp</text>
</a>
</g>
</g>
<!-- Node4&#45;&gt;Node7 -->
<g id="edge6" class="edge">
<title>Node4&#45;&gt;Node7</title>
<path fill="none" stroke="midnightblue" d="M714.04,-95.21C735.55,-82.65 763.83,-66.14 787.07,-52.56"/>
<polygon fill="midnightblue" stroke="midnightblue" points="712.14,-92.26 705.27,-100.33 715.67,-98.31 712.14,-92.26"/>
</g>
<!-- Node8&#45;&gt;Node4 -->
<g id="edge8" class="edge">
<title>Node8&#45;&gt;Node4</title>
<path fill="none" stroke="midnightblue" d="M521.15,-185.35C559.02,-169.04 613.85,-145.42 648.44,-130.52"/>
<polygon fill="midnightblue" stroke="midnightblue" points="519.7,-182.16 511.9,-189.33 522.47,-188.59 519.7,-182.16"/>
</g>
<!-- Node9 -->
<g id="node9" class="node">
<title>Node9</title>
<g id="a_node9"><a xlink:href="Controller_8cpp.html" target="_top" xlink:title=" ">
<polygon fill="white" stroke="black" points="387.5,-100.5 387.5,-130.5 570.5,-130.5 570.5,-100.5 387.5,-100.5"/>
<text text-anchor="start" x="395.5" y="-118.5" font-family="Helvetica,sans-Serif" font-size="10.00">/home/runner/work/EX</text>
<text text-anchor="middle" x="479" y="-107.5" font-family="Helvetica,sans-Serif" font-size="10.00">&#45;Display/EX&#45;Display/Controller.cpp</text>
</a>
</g>
</g>
<!-- Node8&#45;&gt;Node9 -->
<g id="edge9" class="edge">
<title>Node8&#45;&gt;Node9</title>
<path fill="none" stroke="midnightblue" d="M479,-179.09C479,-163.44 479,-143.68 479,-130.6"/>
<polygon fill="midnightblue" stroke="midnightblue" points="475.5,-179.13 479,-189.13 482.5,-179.13 475.5,-179.13"/>
</g>
<!-- Node8&#45;&gt;Node10 -->
<g id="edge10" class="edge">
<title>Node8&#45;&gt;Node10</title>
<path fill="none" stroke="midnightblue" d="M400.25,-187.35C342.71,-175.36 262.86,-158.33 193,-142 190.09,-141.32 187.14,-140.62 184.17,-139.91"/>
<polygon fill="midnightblue" stroke="midnightblue" points="399.87,-190.85 410.37,-189.46 401.29,-183.99 399.87,-190.85"/>
</g>
<!-- Node8&#45;&gt;Node11 -->
<g id="edge11" class="edge">
<title>Node8&#45;&gt;Node11</title>
<path fill="none" stroke="midnightblue" d="M438.42,-185.21C410.3,-172.53 372.52,-155.5 341.6,-141.56"/>
<polygon fill="midnightblue" stroke="midnightblue" points="437.01,-188.41 447.56,-189.33 439.88,-182.03 437.01,-188.41"/>
</g>
<!-- Node8&#45;&gt;Node12 -->
<g id="edge12" class="edge">
<title>Node8&#45;&gt;Node12</title>
<path fill="none" stroke="midnightblue" d="M575.01,-192.6C723.16,-175.77 1005.66,-143.68 1151.99,-127.06"/>
<polygon fill="midnightblue" stroke="midnightblue" points="574.55,-189.12 565.01,-193.73 575.34,-196.08 574.55,-189.12"/>
</g>
<!-- Node8&#45;&gt;Node13 -->
<g id="edge13" class="edge">
<title>Node8&#45;&gt;Node13</title>
<path fill="none" stroke="midnightblue" d="M563.41,-187.54C638.2,-173.18 741.6,-152.75 782,-142 784.99,-141.2 788.04,-140.36 791.11,-139.47"/>
<polygon fill="midnightblue" stroke="midnightblue" points="562.68,-184.12 553.52,-189.43 564,-190.99 562.68,-184.12"/>
</g>
<!-- Node14&#45;&gt;Node4 -->
<g id="edge15" class="edge">
<title>Node14&#45;&gt;Node4</title>
<path fill="none" stroke="midnightblue" d="M711.84,-264.86C704.61,-254.8 697.39,-242.95 693,-231 680.4,-196.66 679.68,-152.91 680.3,-130.75"/>
<polygon fill="midnightblue" stroke="midnightblue" points="709.04,-266.97 717.85,-272.86 714.64,-262.76 709.04,-266.97"/>
</g>
<!-- Node14&#45;&gt;Node8 -->
<g id="edge16" class="edge">
<title>Node14&#45;&gt;Node8</title>
<path fill="none" stroke="midnightblue" d="M667.79,-269.66C621.02,-253.76 560.13,-233.07 520.33,-219.55"/>
<polygon fill="midnightblue" stroke="midnightblue" points="666.95,-273.07 677.55,-272.98 669.21,-266.44 666.95,-273.07"/>
</g>
<!-- Node14&#45;&gt;Node10 -->
<g id="edge18" class="edge">
<title>Node14&#45;&gt;Node10</title>
<path fill="none" stroke="midnightblue" d="M648.6,-286.09C567.32,-278.43 442.93,-262.47 339,-231 264.81,-208.53 184.31,-167.86 136.03,-141.53"/>
<polygon fill="midnightblue" stroke="midnightblue" points="648.51,-289.6 658.79,-287.03 649.15,-282.63 648.51,-289.6"/>
</g>
<!-- Node14&#45;&gt;Node11 -->
<g id="edge19" class="edge">
<title>Node14&#45;&gt;Node11</title>
<path fill="none" stroke="midnightblue" d="M648.53,-284.14C559.58,-274.35 428,-256.2 384,-231 357.19,-215.64 359.09,-201.48 339,-178 328.74,-166 317.31,-152.73 307.7,-141.6"/>
<polygon fill="midnightblue" stroke="midnightblue" points="648.3,-287.63 658.62,-285.23 649.06,-280.67 648.3,-287.63"/>
</g>
<!-- Node14&#45;&gt;Node13 -->
<g id="edge21" class="edge">
<title>Node14&#45;&gt;Node13</title>
<path fill="none" stroke="midnightblue" d="M723.54,-263.4C715.84,-238.73 709.76,-203.4 726,-178 734.05,-165.41 762.73,-151.42 791.4,-139.97"/>
<polygon fill="midnightblue" stroke="midnightblue" points="720.25,-264.59 726.76,-272.94 726.88,-262.35 720.25,-264.59"/>
</g>
<!-- Node15 -->
<g id="node15" class="node">
<title>Node15</title>
<g id="a_node15"><a xlink:href="DisplayManager_8cpp.html" target="_top" xlink:title=" ">
<polygon fill="white" stroke="black" points="735,-184 735,-225 887,-225 887,-184 735,-184"/>
<text text-anchor="start" x="743" y="-213" font-family="Helvetica,sans-Serif" font-size="10.00">/home/runner/work/EX</text>
<text text-anchor="start" x="743" y="-202" font-family="Helvetica,sans-Serif" font-size="10.00">&#45;Display/EX&#45;Display/Display</text>
<text text-anchor="middle" x="811" y="-191" font-family="Helvetica,sans-Serif" font-size="10.00">Manager.cpp</text>
</a>
</g>
</g>
<!-- Node14&#45;&gt;Node15 -->
<g id="edge17" class="edge">
<title>Node14&#45;&gt;Node15</title>
<path fill="none" stroke="midnightblue" d="M758.99,-265.03C770.3,-252.09 783.54,-236.94 793.82,-225.16"/>
<polygon fill="midnightblue" stroke="midnightblue" points="756.19,-262.92 752.25,-272.76 761.46,-267.53 756.19,-262.92"/>
</g>
<!-- Node14&#45;&gt;Node16 -->
<g id="edge20" class="edge">
<title>Node14&#45;&gt;Node16</title>
<path fill="none" stroke="midnightblue" d="M821.36,-288.12C929.06,-281.42 1118.34,-265.56 1277,-231 1279.78,-230.39 1282.61,-229.73 1285.45,-229.01"/>
<polygon fill="midnightblue" stroke="midnightblue" points="820.97,-284.63 811.2,-288.74 821.39,-291.62 820.97,-284.63"/>
</g>
<!-- Node17 -->
<g id="node17" class="node">
<title>Node17</title>
<g id="a_node17"><a xlink:href="test__DisplayManager_8cpp.html" target="_top" xlink:title=" ">
<polygon fill="white" stroke="black" points="905.5,-178.5 905.5,-230.5 1050.5,-230.5 1050.5,-178.5 905.5,-178.5"/>
<text text-anchor="start" x="913.5" y="-218.5" font-family="Helvetica,sans-Serif" font-size="10.00">/home/runner/work/EX</text>
<text text-anchor="start" x="913.5" y="-207.5" font-family="Helvetica,sans-Serif" font-size="10.00">&#45;Display/EX&#45;Display/test</text>
<text text-anchor="start" x="913.5" y="-196.5" font-family="Helvetica,sans-Serif" font-size="10.00">/unit/test_DisplayManager</text>
<text text-anchor="middle" x="978" y="-185.5" font-family="Helvetica,sans-Serif" font-size="10.00">/test_DisplayManager.cpp</text>
</a>
</g>
</g>
<!-- Node14&#45;&gt;Node17 -->
<g id="edge22" class="edge">
<title>Node14&#45;&gt;Node17</title>
<path fill="none" stroke="midnightblue" d="M799.21,-269.51C832.67,-257.53 873.65,-242.86 907.94,-230.58"/>
<polygon fill="midnightblue" stroke="midnightblue" points="797.77,-266.31 789.53,-272.98 800.13,-272.9 797.77,-266.31"/>
</g>
<!-- Node18 -->
<g id="node18" class="node">
<title>Node18</title>
<g id="a_node18"><a xlink:href="test__DisplayManualSPISwitching_8cpp.html" target="_top" xlink:title=" ">
<polygon fill="white" stroke="black" points="1068.5,-178.5 1068.5,-230.5 1267.5,-230.5 1267.5,-178.5 1068.5,-178.5"/>
<text text-anchor="start" x="1076.5" y="-218.5" font-family="Helvetica,sans-Serif" font-size="10.00">/home/runner/work/EX</text>
<text text-anchor="start" x="1076.5" y="-207.5" font-family="Helvetica,sans-Serif" font-size="10.00">&#45;Display/EX&#45;Display/test</text>
<text text-anchor="start" x="1076.5" y="-196.5" font-family="Helvetica,sans-Serif" font-size="10.00">/unit/test_DisplayManager</text>
<text text-anchor="middle" x="1168" y="-185.5" font-family="Helvetica,sans-Serif" font-size="10.00">/test_DisplayManualSPISwitching.cpp</text>
</a>
</g>
</g>
<!-- Node14&#45;&gt;Node18 -->
<g id="edge23" class="edge">
<title>Node14&#45;&gt;Node18</title>
<path fill="none" stroke="midnightblue" d="M820.93,-277.32C886.57,-265.47 979.19,-248.18 1060,-231 1062.73,-230.42 1065.5,-229.82 1068.3,-229.21"/>
<polygon fill="midnightblue" stroke="midnightblue" points="820.26,-273.89 811.04,-279.11 821.5,-280.78 820.26,-273.89"/>
</g>
</g>
</svg>
        <g id="navigator" transform="translate(0 0)" fill="#404254">
                <rect fill="#f2f5e9" fill-opacity="0.5" stroke="#606060" stroke-width=".5" x="0" y="0" width="60" height="60"/>
                <use id="zoomplus" xlink:href="#zoomPlus" x="17" y="9" onmousedown="handleZoom(evt,'in')"/>
                <use id="zoomminus" xlink:href="#zoomMin" x="42" y="9" onmousedown="handleZoom(evt,'out')"/>
                <use id="reset" xlink:href="#resetDef" x="30" y="36" onmousedown="handleReset()"/>
                <g id="arrowUp" xlink:href="#dirArrow" transform="translate(30 24)" onmousedown="handlePan(0,-1)">
                  <use xlink:href="#rim" fill="#404040">
                        <set attributeName="fill" to="#808080" begin="arrowUp.mouseover" end="arrowUp.mouseout"/>
                  </use>
                  <path fill="none" stroke="white" stroke-width="1.5" d="M0,-3.0v7 M-2.5,-0.5L0,-3.0L2.5,-0.5"/>
                </g>
                <g id="arrowRight" xlink:href="#dirArrow" transform="rotate(90) translate(36 -43)" onmousedown="handlePan(1,0)">
                  <use xlink:href="#rim" fill="#404040">
                        <set attributeName="fill" to="#808080" begin="arrowRight.mouseover" end="arrowRight.mouseout"/>
                  </use>
                  <path fill="none" stroke="white" stroke-width="1.5" d="M0,-3.0v7 M-2.5,-0.5L0,-3.0L2.5,-0.5"/>
                </g>
                <g id="arrowDown" xlink:href="#dirArrow" transform="rotate(180) translate(-30 -48)" onmousedown="handlePan(0,1)">
                  <use xlink:href="#rim" fill="#404040">
                        <set attributeName="fill" to="#808080" begin="arrowDown.mouseover" end="arrowDown.mouseout"/>
                  </use>
                  <path fill="none" stroke="white" stroke-width="1.5" d="M0,-3.0v7 M-2.5,-0.5L0,-3.0L2.5,-0.5"/>
                </g>
                <g id="arrowLeft" xlink:href="#dirArrow" transform="rotate(270) translate(-36 17)" onmousedown="handlePan(-1,0)">
                  <use xlink:href="#rim" fill="#404040">
                        <set attributeName="fill" to="#808080" begin="arrowLeft.mouseover" end="arrowLeft.mouseout"/>
                  </use>
                  <path fill="none" stroke="white" stroke-width="1.5" d="M0,-3.0v7 M-2.5,-0.5L0,-3.0L2.5,-0.5"/>
                </g>
        </g>
        <svg viewBox="0 0 15 15" width="100%" height="30px" preserveAspectRatio="xMaxYMin meet">
         <g id="arrow_out" transform="scale(0.3 0.3)">
          <a xlink:href="Screen_8h__dep__incl_org.svg" target="_base">
           <rect id="button" ry="5" rx="5" y="6" x="6" height="38" width="38"
                fill="#f2f5e9" fill-opacity="0.5" stroke="#606060" stroke-width="1.0"/>
           <path id="arrow"
             d="M 11.500037,31.436501 C 11.940474,20.09759 22.043105,11.32322 32.158766,21.979434 L 37.068811,17.246167 C 37.068811,17.246167 37.088388,32 37.088388,32 L 22.160133,31.978069 C 22.160133,31.978069 26.997745,27.140456 26.997745,27.140456 C 18.528582,18.264221 13.291696,25.230495 11.500037,31.436501 z"
             style="fill:#404040;"/>
          </a>
         </g>
        </svg>
</svg>
