<?xml version="1.0" encoding="UTF-8" standalone="no"?>
<!DOCTYPE svg PUBLIC "-//W3C//DTD SVG 1.1//EN"
 "http://www.w3.org/Graphics/SVG/1.1/DTD/svg11.dtd">
<!-- Generated by graphviz version 2.43.0 (0)
 -->
<!-- Title: /home/runner/work/EX&#45;Display/EX&#45;Display/Screen.h Pages: 1 -->
<!--zoomable 395 -->
<svg id="main" version="1.1" xmlns="http://www.w3.org/2000/svg" xmlns:xlink="http://www.w3.org/1999/xlink" xml:space="preserve" onload="init(evt)">
<style type="text/css"><![CDATA[
.edge:hover path { stroke: red; }
.edge:hover polygon { stroke: red; fill: red; }
]]></style>
<script type="text/javascript"><![CDATA[
var edges = document.getElementsByTagName('g');
if (edges && edges.length) {
  for (var i=0;i<edges.length;i++) {
    if (edges[i].id.substr(0,4)=='edge') {
      edges[i].setAttribute('class','edge');
    }
  }
}
]]></script>
        <defs>
                <circle id="rim" cx="0" cy="0" r="7"/>
                <circle id="rim2" cx="0" cy="0" r="3.5"/>
                <g id="zoomPlus">
                        <use xlink:href="#rim" fill="#404040">
                                <set attributeName="fill" to="#808080" begin="zoomplus.mouseover" end="zoomplus.mouseout"/>
                        </use>
                        <path d="M-4,0h8M0,-4v8" fill="none" stroke="white" stroke-width="1.5" pointer-events="none"/>
                </g>
                <g id="zoomMin">
                        <use xlink:href="#rim" fill="#404040">
                                <set attributeName="fill" to="#808080" begin="zoomminus.mouseover" end="zoomminus.mouseout"/>
                        </use>
                        <path d="M-4,0h8" fill="none" stroke="white" stroke-width="1.5" pointer-events="none"/>
                </g>
                <g id="dirArrow">
                        <path fill="none" stroke="white" stroke-width="1.5" d="M0,-3.0v7 M-2.5,-0.5L0,-3.0L2.5,-0.5"/>
                </g>
               <g id="resetDef">
                       <use xlink:href="#rim2" fill="#404040">
                               <set attributeName="fill" to="#808080" begin="reset.mouseover" end="reset.mouseout"/>
                       </use>
               </g>
        </defs>

<script type="text/javascript">
var viewWidth = 1506;
var viewHeight = 395;
var sectionId = 'dynsection-1';
</script>
<script xlink:href="svgpan.js"/>
<svg id="graph" class="graph">
<g id="viewport">
<title>/home/runner/work/EX&#45;Display/EX&#45;Display/Screen.h</title>
<polygon fill="white" stroke="transparent" points="-4,4 -4,-391 1502,-391 1502,4 -4,4"/>
<!-- Node1 -->
<g id="node1" class="node">
<title>Node1</title>
<g id="a_node1"><a xlink:title=" ">
<polygon fill="#bfbfbf" stroke="black" points="901.5,-356.5 901.5,-386.5 1059.5,-386.5 1059.5,-356.5 901.5,-356.5"/>
<text text-anchor="start" x="909.5" y="-374.5" font-family="Helvetica,sans-Serif" font-size="10.00">/home/runner/work/EX</text>
<text text-anchor="middle" x="980.5" y="-363.5" font-family="Helvetica,sans-Serif" font-size="10.00">&#45;Display/EX&#45;Display/Screen.h</text>
</a>
</g>
</g>
<!-- Node2 -->
<g id="node2" class="node">
<title>Node2</title>
<g id="a_node2"><a xlink:href="Screen_8cpp.html" target="_top" xlink:title=" ">
<polygon fill="white" stroke="black" points="693,-278.5 693,-308.5 862,-308.5 862,-278.5 693,-278.5"/>
<text text-anchor="start" x="701" y="-296.5" font-family="Helvetica,sans-Serif" font-size="10.00">/home/runner/work/EX</text>
<text text-anchor="middle" x="777.5" y="-285.5" font-family="Helvetica,sans-Serif" font-size="10.00">&#45;Display/EX&#45;Display/Screen.cpp</text>
</a>
</g>
</g>
<!-- Node1&#45;&gt;Node2 -->
<g id="edge1" class="edge">
<title>Node1&#45;&gt;Node2</title>
<path fill="none" stroke="midnightblue" d="M933.01,-352.72C897.03,-339.25 848.27,-321 815.01,-308.54"/>
<polygon fill="midnightblue" stroke="midnightblue" points="932.2,-356.15 942.79,-356.38 934.65,-349.6 932.2,-356.15"/>
</g>
<!-- Node3 -->
<g id="node3" class="node">
<title>Node3</title>
<g id="a_node3"><a xlink:href="ScreenManager_8h.html" target="_top" xlink:title=" ">
<polygon fill="white" stroke="black" points="880.5,-278.5 880.5,-308.5 1080.5,-308.5 1080.5,-278.5 880.5,-278.5"/>
<text text-anchor="start" x="888.5" y="-296.5" font-family="Helvetica,sans-Serif" font-size="10.00">/home/runner/work/EX</text>
<text text-anchor="middle" x="980.5" y="-285.5" font-family="Helvetica,sans-Serif" font-size="10.00">&#45;Display/EX&#45;Display/ScreenManager.h</text>
</a>
</g>
</g>
<!-- Node1&#45;&gt;Node3 -->
<g id="edge2" class="edge">
<title>Node1&#45;&gt;Node3</title>
<path fill="none" stroke="midnightblue" d="M980.5,-346.09C980.5,-333.76 980.5,-319.22 980.5,-308.73"/>
<polygon fill="midnightblue" stroke="midnightblue" points="977,-346.2 980.5,-356.2 984,-346.21 977,-346.2"/>
</g>
<!-- Node17 -->
<g id="node17" class="node">
<title>Node17</title>
<g id="a_node17"><a xlink:href="test__Screen_8cpp.html" target="_top" xlink:title=" ">
<polygon fill="white" stroke="black" points="1098.5,-267.5 1098.5,-319.5 1232.5,-319.5 1232.5,-267.5 1098.5,-267.5"/>
<text text-anchor="start" x="1106.5" y="-307.5" font-family="Helvetica,sans-Serif" font-size="10.00">/home/runner/work/EX</text>
<text text-anchor="start" x="1106.5" y="-296.5" font-family="Helvetica,sans-Serif" font-size="10.00">&#45;Display/EX&#45;Display/test</text>
<text text-anchor="start" x="1106.5" y="-285.5" font-family="Helvetica,sans-Serif" font-size="10.00">/unit/test_screens/test</text>
<text text-anchor="middle" x="1165.5" y="-274.5" font-family="Helvetica,sans-Serif" font-size="10.00">_Screen.cpp</text>
</a>
</g>
</g>
<!-- Node1&#45;&gt;Node17 -->
<g id="edge22" class="edge">
<title>Node1&#45;&gt;Node17</title>
<path fill="none" stroke="midnightblue" d="M1024.37,-352.48C1048.27,-342.66 1078.21,-330.36 1104.36,-319.62"/>
<polygon fill="midnightblue" stroke="midnightblue" points="1022.78,-349.35 1014.86,-356.38 1025.44,-355.82 1022.78,-349.35"/>
</g>
<!-- Node4 -->
<g id="node4" class="node">
<title>Node4</title>
<g id="a_node4"><a xlink:href="Configurator_8h.html" target="_top" xlink:title=" ">
<polygon fill="white" stroke="black" points="185.5,-100.5 185.5,-130.5 369.5,-130.5 369.5,-100.5 185.5,-100.5"/>
<text text-anchor="start" x="193.5" y="-118.5" font-family="Helvetica,sans-Serif" font-size="10.00">/home/runner/work/EX</text>
<text text-anchor="middle" x="277.5" y="-107.5" font-family="Helvetica,sans-Serif" font-size="10.00">&#45;Display/EX&#45;Display/Configurator.h</text>
</a>
</g>
</g>
<!-- Node3&#45;&gt;Node4 -->
<g id="edge3" class="edge">
<title>Node3&#45;&gt;Node4</title>
<path fill="none" stroke="midnightblue" d="M914.85,-276.16C900.3,-272.85 884.92,-269.6 870.5,-267 747.45,-244.86 712.97,-260.6 591.5,-231 484.95,-205.04 364.58,-155 308.87,-130.59"/>
<polygon fill="midnightblue" stroke="midnightblue" points="914.23,-279.61 924.76,-278.45 915.81,-272.79 914.23,-279.61"/>
</g>
<!-- Node8 -->
<g id="node8" class="node">
<title>Node8</title>
<g id="a_node8"><a xlink:href="Controller_8h.html" target="_top" xlink:title=" ">
<polygon fill="white" stroke="black" points="780.5,-189.5 780.5,-219.5 952.5,-219.5 952.5,-189.5 780.5,-189.5"/>
<text text-anchor="start" x="788.5" y="-207.5" font-family="Helvetica,sans-Serif" font-size="10.00">/home/runner/work/EX</text>
<text text-anchor="middle" x="866.5" y="-196.5" font-family="Helvetica,sans-Serif" font-size="10.00">&#45;Display/EX&#45;Display/Controller.h</text>
</a>
</g>
</g>
<!-- Node3&#45;&gt;Node8 -->
<g id="edge7" class="edge">
<title>Node3&#45;&gt;Node8</title>
<path fill="none" stroke="midnightblue" d="M953.97,-272.26C932.83,-256.12 903.77,-233.95 885.06,-219.67"/>
<polygon fill="midnightblue" stroke="midnightblue" points="951.86,-275.04 961.93,-278.33 956.1,-269.48 951.86,-275.04"/>
</g>
<!-- Node10 -->
<g id="node10" class="node">
<title>Node10</title>
<g id="a_node10"><a xlink:href="test__ControllerDisplayUpdate_8cpp.html" target="_top" xlink:title=" ">
<polygon fill="white" stroke="black" points="387.5,-89.5 387.5,-141.5 571.5,-141.5 571.5,-89.5 387.5,-89.5"/>
<text text-anchor="start" x="395.5" y="-129.5" font-family="Helvetica,sans-Serif" font-size="10.00">/home/runner/work/EX</text>
<text text-anchor="start" x="395.5" y="-118.5" font-family="Helvetica,sans-Serif" font-size="10.00">&#45;Display/EX&#45;Display/test</text>
<text text-anchor="start" x="395.5" y="-107.5" font-family="Helvetica,sans-Serif" font-size="10.00">/integration/test_controller</text>
<text text-anchor="middle" x="479.5" y="-96.5" font-family="Helvetica,sans-Serif" font-size="10.00">/test_ControllerDisplayUpdate.cpp</text>
</a>
</g>
</g>
<!-- Node3&#45;&gt;Node10 -->
<g id="edge16" class="edge">
<title>Node3&#45;&gt;Node10</title>
<path fill="none" stroke="midnightblue" d="M910.29,-276.17C897.08,-273.11 883.37,-269.95 870.5,-267 799.87,-250.82 779.79,-255.2 711.5,-231 642.92,-206.7 568.23,-167.3 522.63,-141.65"/>
<polygon fill="midnightblue" stroke="midnightblue" points="909.75,-279.63 920.28,-278.48 911.33,-272.82 909.75,-279.63"/>
</g>
<!-- Node11 -->
<g id="node11" class="node">
<title>Node11</title>
<g id="a_node11"><a xlink:href="test__ControllerInputAction_8cpp.html" target="_top" xlink:title=" ">
<polygon fill="white" stroke="black" points="590,-89.5 590,-141.5 757,-141.5 757,-89.5 590,-89.5"/>
<text text-anchor="start" x="598" y="-129.5" font-family="Helvetica,sans-Serif" font-size="10.00">/home/runner/work/EX</text>
<text text-anchor="start" x="598" y="-118.5" font-family="Helvetica,sans-Serif" font-size="10.00">&#45;Display/EX&#45;Display/test</text>
<text text-anchor="start" x="598" y="-107.5" font-family="Helvetica,sans-Serif" font-size="10.00">/integration/test_controller</text>
<text text-anchor="middle" x="673.5" y="-96.5" font-family="Helvetica,sans-Serif" font-size="10.00">/test_ControllerInputAction.cpp</text>
</a>
</g>
</g>
<!-- Node3&#45;&gt;Node11 -->
<g id="edge17" class="edge">
<title>Node3&#45;&gt;Node11</title>
<path fill="none" stroke="midnightblue" d="M908.77,-276.02C857.76,-263.44 794.38,-245.81 771.5,-231 735.7,-207.82 705.76,-167.74 688.73,-141.68"/>
<polygon fill="midnightblue" stroke="midnightblue" points="908.25,-279.5 918.79,-278.47 909.9,-272.7 908.25,-279.5"/>
</g>
<!-- Node12 -->
<g id="node12" class="node">
<title>Node12</title>
<g id="a_node12"><a xlink:href="test__ControllerScreenCreation_8cpp.html" target="_top" xlink:title=" ">
<polygon fill="white" stroke="black" points="976.5,-89.5 976.5,-141.5 1162.5,-141.5 1162.5,-89.5 976.5,-89.5"/>
<text text-anchor="start" x="984.5" y="-129.5" font-family="Helvetica,sans-Serif" font-size="10.00">/home/runner/work/EX</text>
<text text-anchor="start" x="984.5" y="-118.5" font-family="Helvetica,sans-Serif" font-size="10.00">&#45;Display/EX&#45;Display/test</text>
<text text-anchor="start" x="984.5" y="-107.5" font-family="Helvetica,sans-Serif" font-size="10.00">/integration/test_controller</text>
<text text-anchor="middle" x="1069.5" y="-96.5" font-family="Helvetica,sans-Serif" font-size="10.00">/test_ControllerScreenCreation.cpp</text>
</a>
</g>
</g>
<!-- Node3&#45;&gt;Node12 -->
<g id="edge18" class="edge">
<title>Node3&#45;&gt;Node12</title>
<path fill="none" stroke="midnightblue" d="M981.42,-268.04C983.26,-243.79 988.68,-206.29 1004.5,-178 1012.16,-164.3 1023.89,-151.84 1035.29,-141.77"/>
<polygon fill="midnightblue" stroke="midnightblue" points="977.92,-267.97 980.8,-278.16 984.9,-268.4 977.92,-267.97"/>
</g>
<!-- Node13 -->
<g id="node13" class="node">
<title>Node13</title>
<g id="a_node13"><a xlink:href="test__ValidDisplayScreen_8cpp.html" target="_top" xlink:title=" ">
<polygon fill="white" stroke="black" points="1180.5,-89.5 1180.5,-141.5 1338.5,-141.5 1338.5,-89.5 1180.5,-89.5"/>
<text text-anchor="start" x="1188.5" y="-129.5" font-family="Helvetica,sans-Serif" font-size="10.00">/home/runner/work/EX</text>
<text text-anchor="start" x="1188.5" y="-118.5" font-family="Helvetica,sans-Serif" font-size="10.00">&#45;Display/EX&#45;Display/test</text>
<text text-anchor="start" x="1188.5" y="-107.5" font-family="Helvetica,sans-Serif" font-size="10.00">/integration/test_display</text>
<text text-anchor="middle" x="1259.5" y="-96.5" font-family="Helvetica,sans-Serif" font-size="10.00">/test_ValidDisplayScreen.cpp</text>
</a>
</g>
</g>
<!-- Node3&#45;&gt;Node13 -->
<g id="edge19" class="edge">
<title>Node3&#45;&gt;Node13</title>
<path fill="none" stroke="midnightblue" d="M990.5,-269.17C1003.69,-239.42 1027.02,-190.35 1042.5,-178 1089.03,-140.88 1114.25,-158.28 1171.5,-142 1174.41,-141.17 1177.37,-140.33 1180.36,-139.47"/>
<polygon fill="midnightblue" stroke="midnightblue" points="987.25,-267.87 986.45,-278.44 993.66,-270.68 987.25,-267.87"/>
</g>
<!-- Node14 -->
<g id="node14" class="node">
<title>Node14</title>
<g id="a_node14"><a xlink:href="test__Controller_8cpp.html" target="_top" xlink:title=" ">
<polygon fill="white" stroke="black" points="1357,-89.5 1357,-141.5 1498,-141.5 1498,-89.5 1357,-89.5"/>
<text text-anchor="start" x="1365" y="-129.5" font-family="Helvetica,sans-Serif" font-size="10.00">/home/runner/work/EX</text>
<text text-anchor="start" x="1365" y="-118.5" font-family="Helvetica,sans-Serif" font-size="10.00">&#45;Display/EX&#45;Display/test</text>
<text text-anchor="start" x="1365" y="-107.5" font-family="Helvetica,sans-Serif" font-size="10.00">/unit/test_application/test</text>
<text text-anchor="middle" x="1427.5" y="-96.5" font-family="Helvetica,sans-Serif" font-size="10.00">_Controller.cpp</text>
</a>
</g>
</g>
<!-- Node3&#45;&gt;Node14 -->
<g id="edge20" class="edge">
<title>Node3&#45;&gt;Node14</title>
<path fill="none" stroke="midnightblue" d="M1002.37,-271.36C1013.88,-259.83 1027.95,-245.08 1039.5,-231 1057.72,-208.79 1051.96,-192.93 1076.5,-178 1180.29,-114.83 1228.93,-168.55 1347.5,-142 1350.49,-141.33 1353.52,-140.6 1356.58,-139.82"/>
<polygon fill="midnightblue" stroke="midnightblue" points="999.87,-268.9 995.23,-278.43 1004.8,-273.88 999.87,-268.9"/>
</g>
<!-- Node15 -->
<g id="node15" class="node">
<title>Node15</title>
<g id="a_node15"><a xlink:href="ScreenManager_8cpp.html" target="_top" xlink:title=" ">
<polygon fill="white" stroke="black" points="1085,-189.5 1085,-219.5 1296,-219.5 1296,-189.5 1085,-189.5"/>
<text text-anchor="start" x="1093" y="-207.5" font-family="Helvetica,sans-Serif" font-size="10.00">/home/runner/work/EX</text>
<text text-anchor="middle" x="1190.5" y="-196.5" font-family="Helvetica,sans-Serif" font-size="10.00">&#45;Display/EX&#45;Display/ScreenManager.cpp</text>
</a>
</g>
</g>
<!-- Node3&#45;&gt;Node15 -->
<g id="edge15" class="edge">
<title>Node3&#45;&gt;Node15</title>
<path fill="none" stroke="midnightblue" d="M1024.31,-274.35C1063.69,-258.04 1120.69,-234.42 1156.66,-219.52"/>
<polygon fill="midnightblue" stroke="midnightblue" points="1022.61,-271.27 1014.71,-278.33 1025.29,-277.73 1022.61,-271.27"/>
</g>
<!-- Node16 -->
<g id="node16" class="node">
<title>Node16</title>
<g id="a_node16"><a xlink:href="test__ScreenManager_8cpp.html" target="_top" xlink:title=" ">
<polygon fill="white" stroke="black" points="1314.5,-178.5 1314.5,-230.5 1448.5,-230.5 1448.5,-178.5 1314.5,-178.5"/>
<text text-anchor="start" x="1322.5" y="-218.5" font-family="Helvetica,sans-Serif" font-size="10.00">/home/runner/work/EX</text>
<text text-anchor="start" x="1322.5" y="-207.5" font-family="Helvetica,sans-Serif" font-size="10.00">&#45;Display/EX&#45;Display/test</text>
<text text-anchor="start" x="1322.5" y="-196.5" font-family="Helvetica,sans-Serif" font-size="10.00">/unit/test_screens/test</text>
<text text-anchor="middle" x="1381.5" y="-185.5" font-family="Helvetica,sans-Serif" font-size="10.00">_ScreenManager.cpp</text>
</a>
</g>
</g>
<!-- Node3&#45;&gt;Node16 -->
<g id="edge21" class="edge">
<title>Node3&#45;&gt;Node16</title>
<path fill="none" stroke="midnightblue" d="M1047.44,-276.12C1061.31,-272.93 1075.85,-269.73 1089.5,-267 1184.93,-247.91 1211.07,-254.55 1305.5,-231 1308.34,-230.29 1311.22,-229.53 1314.12,-228.73"/>
<polygon fill="midnightblue" stroke="midnightblue" points="1046.43,-272.76 1037.48,-278.44 1048.02,-279.58 1046.43,-272.76"/>
</g>
<!-- Node5 -->
<g id="node5" class="node">
<title>Node5</title>
<g id="a_node5"><a xlink:href="Configurator_8cpp.html" target="_top" xlink:title=" ">
<polygon fill="white" stroke="black" points="0,-11.5 0,-41.5 195,-41.5 195,-11.5 0,-11.5"/>
<text text-anchor="start" x="8" y="-29.5" font-family="Helvetica,sans-Serif" font-size="10.00">/home/runner/work/EX</text>
<text text-anchor="middle" x="97.5" y="-18.5" font-family="Helvetica,sans-Serif" font-size="10.00">&#45;Display/EX&#45;Display/Configurator.cpp</text>
</a>
</g>
</g>
<!-- Node4&#45;&gt;Node5 -->
<g id="edge4" class="edge">
<title>Node4&#45;&gt;Node5</title>
<path fill="none" stroke="midnightblue" d="M239.08,-95.93C205.37,-79.64 157.08,-56.3 126.51,-41.52"/>
<polygon fill="midnightblue" stroke="midnightblue" points="237.65,-99.13 248.18,-100.33 240.7,-92.83 237.65,-99.13"/>
</g>
<!-- Node6 -->
<g id="node6" class="node">
<title>Node6</title>
<g id="a_node6"><a xlink:href="EX-Display_8ino.html" target="_top" xlink:title=" ">
<polygon fill="white" stroke="black" points="213.5,-6 213.5,-47 341.5,-47 341.5,-6 213.5,-6"/>
<text text-anchor="start" x="221.5" y="-35" font-family="Helvetica,sans-Serif" font-size="10.00">/home/runner/work/EX</text>
<text text-anchor="start" x="221.5" y="-24" font-family="Helvetica,sans-Serif" font-size="10.00">&#45;Display/EX&#45;Display/EX</text>
<text text-anchor="middle" x="277.5" y="-13" font-family="Helvetica,sans-Serif" font-size="10.00">&#45;Display.ino</text>
</a>
</g>
</g>
<!-- Node4&#45;&gt;Node6 -->
<g id="edge5" class="edge">
<title>Node4&#45;&gt;Node6</title>
<path fill="none" stroke="midnightblue" d="M277.5,-90.04C277.5,-76.47 277.5,-59.81 277.5,-47.1"/>
<polygon fill="midnightblue" stroke="midnightblue" points="274,-90.13 277.5,-100.13 281,-90.13 274,-90.13"/>
</g>
<!-- Node7 -->
<g id="node7" class="node">
<title>Node7</title>
<g id="a_node7"><a xlink:href="test__Configurator_8cpp.html" target="_top" xlink:title=" ">
<polygon fill="white" stroke="black" points="360,-0.5 360,-52.5 501,-52.5 501,-0.5 360,-0.5"/>
<text text-anchor="start" x="368" y="-40.5" font-family="Helvetica,sans-Serif" font-size="10.00">/home/runner/work/EX</text>
<text text-anchor="start" x="368" y="-29.5" font-family="Helvetica,sans-Serif" font-size="10.00">&#45;Display/EX&#45;Display/test</text>
<text text-anchor="start" x="368" y="-18.5" font-family="Helvetica,sans-Serif" font-size="10.00">/unit/test_application/test</text>
<text text-anchor="middle" x="430.5" y="-7.5" font-family="Helvetica,sans-Serif" font-size="10.00">_Configurator.cpp</text>
</a>
</g>
</g>
<!-- Node4&#45;&gt;Node7 -->
<g id="edge6" class="edge">
<title>Node4&#45;&gt;Node7</title>
<path fill="none" stroke="midnightblue" d="M311.13,-95.38C333.26,-82.79 362.45,-66.2 386.42,-52.56"/>
<polygon fill="midnightblue" stroke="midnightblue" points="309.39,-92.34 302.42,-100.33 312.85,-98.43 309.39,-92.34"/>
</g>
<!-- Node8&#45;&gt;Node4 -->
<g id="edge8" class="edge">
<title>Node8&#45;&gt;Node4</title>
<path fill="none" stroke="midnightblue" d="M770.53,-194.9C671.73,-185.22 513.58,-167.47 378.5,-142 361.97,-138.88 344.12,-134.67 328.09,-130.56"/>
<polygon fill="midnightblue" stroke="midnightblue" points="770.21,-198.38 780.5,-195.86 770.88,-191.41 770.21,-198.38"/>
</g>
<!-- Node9 -->
<g id="node9" class="node">
<title>Node9</title>
<g id="a_node9"><a xlink:href="Controller_8cpp.html" target="_top" xlink:title=" ">
<polygon fill="white" stroke="black" points="775,-100.5 775,-130.5 958,-130.5 958,-100.5 775,-100.5"/>
<text text-anchor="start" x="783" y="-118.5" font-family="Helvetica,sans-Serif" font-size="10.00">/home/runner/work/EX</text>
<text text-anchor="middle" x="866.5" y="-107.5" font-family="Helvetica,sans-Serif" font-size="10.00">&#45;Display/EX&#45;Display/Controller.cpp</text>
</a>
</g>
</g>
<!-- Node8&#45;&gt;Node9 -->
<g id="edge9" class="edge">
<title>Node8&#45;&gt;Node9</title>
<path fill="none" stroke="midnightblue" d="M866.5,-179.09C866.5,-163.44 866.5,-143.68 866.5,-130.6"/>
<polygon fill="midnightblue" stroke="midnightblue" points="863,-179.13 866.5,-189.13 870,-179.13 863,-179.13"/>
</g>
<!-- Node8&#45;&gt;Node10 -->
<g id="edge10" class="edge">
<title>Node8&#45;&gt;Node10</title>
<path fill="none" stroke="midnightblue" d="M787.75,-187.35C730.21,-175.36 650.36,-158.33 580.5,-142 577.59,-141.32 574.64,-140.62 571.67,-139.91"/>
<polygon fill="midnightblue" stroke="midnightblue" points="787.37,-190.85 797.87,-189.46 788.79,-183.99 787.37,-190.85"/>
</g>
<!-- Node8&#45;&gt;Node11 -->
<g id="edge11" class="edge">
<title>Node8&#45;&gt;Node11</title>
<path fill="none" stroke="midnightblue" d="M825.92,-185.21C797.8,-172.53 760.02,-155.5 729.1,-141.56"/>
<polygon fill="midnightblue" stroke="midnightblue" points="824.51,-188.41 835.06,-189.33 827.38,-182.03 824.51,-188.41"/>
</g>
<!-- Node8&#45;&gt;Node12 -->
<g id="edge12" class="edge">
<title>Node8&#45;&gt;Node12</title>
<path fill="none" stroke="midnightblue" d="M908.8,-185.37C938.41,-172.68 978.36,-155.56 1011.02,-141.56"/>
<polygon fill="midnightblue" stroke="midnightblue" points="907.38,-182.17 899.57,-189.33 910.14,-188.61 907.38,-182.17"/>
</g>
<!-- Node8&#45;&gt;Node13 -->
<g id="edge13" class="edge">
<title>Node8&#45;&gt;Node13</title>
<path fill="none" stroke="midnightblue" d="M949.65,-187.54C1025,-172.93 1130.33,-152.1 1171.5,-142 1174.44,-141.28 1177.42,-140.53 1180.43,-139.75"/>
<polygon fill="midnightblue" stroke="midnightblue" points="948.84,-184.13 939.69,-189.47 950.18,-191 948.84,-184.13"/>
</g>
<!-- Node8&#45;&gt;Node14 -->
<g id="edge14" class="edge">
<title>Node8&#45;&gt;Node14</title>
<path fill="none" stroke="midnightblue" d="M962.98,-189.05C988.79,-185.32 1016.69,-181.39 1042.5,-178 1177.83,-160.21 1214.09,-170.86 1347.5,-142 1350.49,-141.35 1353.53,-140.64 1356.59,-139.88"/>
<polygon fill="midnightblue" stroke="midnightblue" points="962.22,-185.63 952.82,-190.53 963.22,-192.55 962.22,-185.63"/>
</g>
</g>
</svg>
        <g id="navigator" transform="translate(0 0)" fill="#404254">
                <rect fill="#f2f5e9" fill-opacity="0.5" stroke="#606060" stroke-width=".5" x="0" y="0" width="60" height="60"/>
                <use id="zoomplus" xlink:href="#zoomPlus" x="17" y="9" onmousedown="handleZoom(evt,'in')"/>
                <use id="zoomminus" xlink:href="#zoomMin" x="42" y="9" onmousedown="handleZoom(evt,'out')"/>
                <use id="reset" xlink:href="#resetDef" x="30" y="36" onmousedown="handleReset()"/>
                <g id="arrowUp" xlink:href="#dirArrow" transform="translate(30 24)" onmousedown="handlePan(0,-1)">
                  <use xlink:href="#rim" fill="#404040">
                        <set attributeName="fill" to="#808080" begin="arrowUp.mouseover" end="arrowUp.mouseout"/>
                  </use>
                  <path fill="none" stroke="white" stroke-width="1.5" d="M0,-3.0v7 M-2.5,-0.5L0,-3.0L2.5,-0.5"/>
                </g>
                <g id="arrowRight" xlink:href="#dirArrow" transform="rotate(90) translate(36 -43)" onmousedown="handlePan(1,0)">
                  <use xlink:href="#rim" fill="#404040">
                        <set attributeName="fill" to="#808080" begin="arrowRight.mouseover" end="arrowRight.mouseout"/>
                  </use>
                  <path fill="none" stroke="white" stroke-width="1.5" d="M0,-3.0v7 M-2.5,-0.5L0,-3.0L2.5,-0.5"/>
                </g>
                <g id="arrowDown" xlink:href="#dirArrow" transform="rotate(180) translate(-30 -48)" onmousedown="handlePan(0,1)">
                  <use xlink:href="#rim" fill="#404040">
                        <set attributeName="fill" to="#808080" begin="arrowDown.mouseover" end="arrowDown.mouseout"/>
                  </use>
                  <path fill="none" stroke="white" stroke-width="1.5" d="M0,-3.0v7 M-2.5,-0.5L0,-3.0L2.5,-0.5"/>
                </g>
                <g id="arrowLeft" xlink:href="#dirArrow" transform="rotate(270) translate(-36 17)" onmousedown="handlePan(-1,0)">
                  <use xlink:href="#rim" fill="#404040">
                        <set attributeName="fill" to="#808080" begin="arrowLeft.mouseover" end="arrowLeft.mouseout"/>
                  </use>
                  <path fill="none" stroke="white" stroke-width="1.5" d="M0,-3.0v7 M-2.5,-0.5L0,-3.0L2.5,-0.5"/>
                </g>
        </g>
        <svg viewBox="0 0 15 15" width="100%" height="30px" preserveAspectRatio="xMaxYMin meet">
         <g id="arrow_out" transform="scale(0.3 0.3)">
          <a xlink:href="Screen_8h__dep__incl_org.svg" target="_base">
           <rect id="button" ry="5" rx="5" y="6" x="6" height="38" width="38"
                fill="#f2f5e9" fill-opacity="0.5" stroke="#606060" stroke-width="1.0"/>
           <path id="arrow"
             d="M 11.500037,31.436501 C 11.940474,20.09759 22.043105,11.32322 32.158766,21.979434 L 37.068811,17.246167 C 37.068811,17.246167 37.088388,32 37.088388,32 L 22.160133,31.978069 C 22.160133,31.978069 26.997745,27.140456 26.997745,27.140456 C 18.528582,18.264221 13.291696,25.230495 11.500037,31.436501 z"
             style="fill:#404040;"/>
          </a>
         </g>
        </svg>
</svg>
