<?xml version="1.0" encoding="UTF-8" standalone="no"?>
<!DOCTYPE svg PUBLIC "-//W3C//DTD SVG 1.1//EN"
 "http://www.w3.org/Graphics/SVG/1.1/DTD/svg11.dtd">
<!-- Generated by graphviz version 2.43.0 (0)
 -->
<!-- Title: /home/runner/work/EX&#45;Display/EX&#45;Display/ScreenRow.cpp Pages: 1 -->
<svg width="197pt" height="207pt"
 viewBox="0.00 0.00 197.00 207.00" xmlns="http://www.w3.org/2000/svg" xmlns:xlink="http://www.w3.org/1999/xlink">
<g id="graph0" class="graph" transform="scale(1 1) rotate(0) translate(4 203)">
<title>/home/runner/work/EX&#45;Display/EX&#45;Display/ScreenRow.cpp</title>
<polygon fill="white" stroke="transparent" points="-4,4 -4,-203 193,-203 193,4 -4,4"/>
<!-- Node1 -->
<g id="node1" class="node">
<title>Node1</title>
<g id="a_node1"><a xlink:title=" ">
<polygon fill="#bfbfbf" stroke="black" points="0,-168.5 0,-198.5 189,-198.5 189,-168.5 0,-168.5"/>
<text text-anchor="start" x="8" y="-186.5" font-family="Helvetica,sans-Serif" font-size="10.00">/home/runner/work/EX</text>
<text text-anchor="middle" x="94.5" y="-175.5" font-family="Helvetica,sans-Serif" font-size="10.00">&#45;Display/EX&#45;Display/ScreenRow.cpp</text>
</a>
</g>
</g>
<!-- Node2 -->
<g id="node2" class="node">
<title>Node2</title>
<g id="a_node2"><a xlink:href="ScreenRow_8h.html" target="_top" xlink:title=" ">
<polygon fill="white" stroke="black" points="55,-112.5 55,-131.5 134,-131.5 134,-112.5 55,-112.5"/>
<text text-anchor="middle" x="94.5" y="-119.5" font-family="Helvetica,sans-Serif" font-size="10.00">ScreenRow.h</text>
</a>
</g>
</g>
<!-- Node1&#45;&gt;Node2 -->
<g id="edge1" class="edge">
<title>Node1&#45;&gt;Node2</title>
<path fill="none" stroke="midnightblue" d="M94.5,-168.4C94.5,-160.47 94.5,-150.46 94.5,-141.86"/>
<polygon fill="midnightblue" stroke="midnightblue" points="98,-141.66 94.5,-131.66 91,-141.66 98,-141.66"/>
</g>
<!-- Node3 -->
<g id="node3" class="node">
<title>Node3</title>
<g id="a_node3"><a xlink:href="Logger_8h.html" target="_top" xlink:title=" ">
<polygon fill="white" stroke="black" points="37.5,-56.5 37.5,-75.5 95.5,-75.5 95.5,-56.5 37.5,-56.5"/>
<text text-anchor="middle" x="66.5" y="-63.5" font-family="Helvetica,sans-Serif" font-size="10.00">Logger.h</text>
</a>
</g>
</g>
<!-- Node2&#45;&gt;Node3 -->
<g id="edge2" class="edge">
<title>Node2&#45;&gt;Node3</title>
<path fill="none" stroke="midnightblue" d="M89.88,-112.08C86.04,-104.69 80.48,-93.95 75.74,-84.81"/>
<polygon fill="midnightblue" stroke="midnightblue" points="78.75,-83.02 71.04,-75.75 72.53,-86.24 78.75,-83.02"/>
</g>
<!-- Node4 -->
<g id="node4" class="node">
<title>Node4</title>
<g id="a_node4"><a xlink:href="Arduino_8h.html" target="_top" xlink:title=" ">
<polygon fill="white" stroke="red" points="63,-0.5 63,-19.5 126,-19.5 126,-0.5 63,-0.5"/>
<text text-anchor="middle" x="94.5" y="-7.5" font-family="Helvetica,sans-Serif" font-size="10.00">Arduino.h</text>
</a>
</g>
</g>
<!-- Node2&#45;&gt;Node4 -->
<g id="edge4" class="edge">
<title>Node2&#45;&gt;Node4</title>
<path fill="none" stroke="midnightblue" d="M97.34,-112.2C101.02,-99.74 106.72,-76.2 104.5,-56 103.53,-47.14 101.51,-37.47 99.54,-29.38"/>
<polygon fill="midnightblue" stroke="midnightblue" points="102.88,-28.33 96.98,-19.53 96.11,-30.09 102.88,-28.33"/>
</g>
<!-- Node3&#45;&gt;Node4 -->
<g id="edge3" class="edge">
<title>Node3&#45;&gt;Node4</title>
<path fill="none" stroke="midnightblue" d="M71.12,-56.08C74.96,-48.69 80.52,-37.95 85.26,-28.81"/>
<polygon fill="midnightblue" stroke="midnightblue" points="88.47,-30.24 89.96,-19.75 82.25,-27.02 88.47,-30.24"/>
</g>
</g>
</svg>
