<?xml version="1.0" encoding="UTF-8" standalone="no"?>
<!DOCTYPE svg PUBLIC "-//W3C//DTD SVG 1.1//EN"
 "http://www.w3.org/Graphics/SVG/1.1/DTD/svg11.dtd">
<!-- Generated by graphviz version 2.43.0 (0)
 -->
<!-- Title: /home/runner/work/EX&#45;Display/EX&#45;Display/ScreenManager.h Pages: 1 -->
<svg width="3370pt" height="395pt"
 viewBox="0.00 0.00 3369.50 395.00" xmlns="http://www.w3.org/2000/svg" xmlns:xlink="http://www.w3.org/1999/xlink">
<g id="graph0" class="graph" transform="scale(1 1) rotate(0) translate(4 391)">
<title>/home/runner/work/EX&#45;Display/EX&#45;Display/ScreenManager.h</title>
<polygon fill="white" stroke="transparent" points="-4,4 -4,-391 3365.5,-391 3365.5,4 -4,4"/>
<!-- Node1 -->
<g id="node1" class="node">
<title>Node1</title>
<g id="a_node1"><a xlink:title=" ">
<polygon fill="#bfbfbf" stroke="black" points="1005,-356.5 1005,-386.5 1205,-386.5 1205,-356.5 1005,-356.5"/>
<text text-anchor="start" x="1013" y="-374.5" font-family="Helvetica,sans-Serif" font-size="10.00">/home/runner/work/EX</text>
<text text-anchor="middle" x="1105" y="-363.5" font-family="Helvetica,sans-Serif" font-size="10.00">&#45;Display/EX&#45;Display/ScreenManager.h</text>
</a>
</g>
</g>
<!-- Node2 -->
<g id="node2" class="node">
<title>Node2</title>
<g id="a_node2"><a xlink:href="Configurator_8h.html" target="_top" xlink:title=" ">
<polygon fill="white" stroke="black" points="406,-100.5 406,-130.5 590,-130.5 590,-100.5 406,-100.5"/>
<text text-anchor="start" x="414" y="-118.5" font-family="Helvetica,sans-Serif" font-size="10.00">/home/runner/work/EX</text>
<text text-anchor="middle" x="498" y="-107.5" font-family="Helvetica,sans-Serif" font-size="10.00">&#45;Display/EX&#45;Display/Configurator.h</text>
</a>
</g>
</g>
<!-- Node1&#45;&gt;Node2 -->
<g id="edge1" class="edge">
<title>Node1&#45;&gt;Node2</title>
<path fill="none" stroke="midnightblue" d="M994.74,-368.36C798.43,-361.88 401.35,-335.81 321,-231 306.67,-212.31 307.35,-197.2 321,-178 328.71,-167.16 398.77,-145.08 448.39,-130.54"/>
<polygon fill="midnightblue" stroke="midnightblue" points="994.68,-371.86 1004.79,-368.68 994.91,-364.86 994.68,-371.86"/>
</g>
<!-- Node6 -->
<g id="node6" class="node">
<title>Node6</title>
<g id="a_node6"><a xlink:href="Controller_8h.html" target="_top" xlink:title=" ">
<polygon fill="white" stroke="black" points="330,-189.5 330,-219.5 502,-219.5 502,-189.5 330,-189.5"/>
<text text-anchor="start" x="338" y="-207.5" font-family="Helvetica,sans-Serif" font-size="10.00">/home/runner/work/EX</text>
<text text-anchor="middle" x="416" y="-196.5" font-family="Helvetica,sans-Serif" font-size="10.00">&#45;Display/EX&#45;Display/Controller.h</text>
</a>
</g>
</g>
<!-- Node1&#45;&gt;Node6 -->
<g id="edge5" class="edge">
<title>Node1&#45;&gt;Node6</title>
<path fill="none" stroke="midnightblue" d="M1031.39,-354.21C918.63,-329.04 696.46,-278.62 509,-231 495.05,-227.46 479.97,-223.41 466.1,-219.61"/>
<polygon fill="midnightblue" stroke="midnightblue" points="1030.78,-357.66 1041.3,-356.42 1032.3,-350.83 1030.78,-357.66"/>
</g>
<!-- Node8 -->
<g id="node8" class="node">
<title>Node8</title>
<g id="a_node8"><a xlink:href="test__ControllerDisplayUpdate_8cpp.html" target="_top" xlink:title=" ">
<polygon fill="white" stroke="black" points="204,-89.5 204,-141.5 388,-141.5 388,-89.5 204,-89.5"/>
<text text-anchor="start" x="212" y="-129.5" font-family="Helvetica,sans-Serif" font-size="10.00">/home/runner/work/EX</text>
<text text-anchor="start" x="212" y="-118.5" font-family="Helvetica,sans-Serif" font-size="10.00">&#45;Display/EX&#45;Display/test</text>
<text text-anchor="start" x="212" y="-107.5" font-family="Helvetica,sans-Serif" font-size="10.00">/integration/test_Controller</text>
<text text-anchor="middle" x="296" y="-96.5" font-family="Helvetica,sans-Serif" font-size="10.00">/test_ControllerDisplayUpdate.cpp</text>
</a>
</g>
</g>
<!-- Node1&#45;&gt;Node8 -->
<g id="edge39" class="edge">
<title>Node1&#45;&gt;Node8</title>
<path fill="none" stroke="midnightblue" d="M994.86,-367.74C802.5,-362.21 420.48,-347.86 366,-320 320.2,-296.58 309.49,-279.38 292,-231 281.45,-201.82 285.25,-165.68 289.82,-141.91"/>
<polygon fill="midnightblue" stroke="midnightblue" points="994.9,-371.24 1005,-368.02 995.1,-364.24 994.9,-371.24"/>
</g>
<!-- Node9 -->
<g id="node9" class="node">
<title>Node9</title>
<g id="a_node9"><a xlink:href="test__ControllerInputAction_8cpp.html" target="_top" xlink:title=" ">
<polygon fill="white" stroke="black" points="821.5,-89.5 821.5,-141.5 988.5,-141.5 988.5,-89.5 821.5,-89.5"/>
<text text-anchor="start" x="829.5" y="-129.5" font-family="Helvetica,sans-Serif" font-size="10.00">/home/runner/work/EX</text>
<text text-anchor="start" x="829.5" y="-118.5" font-family="Helvetica,sans-Serif" font-size="10.00">&#45;Display/EX&#45;Display/test</text>
<text text-anchor="start" x="829.5" y="-107.5" font-family="Helvetica,sans-Serif" font-size="10.00">/integration/test_Controller</text>
<text text-anchor="middle" x="905" y="-96.5" font-family="Helvetica,sans-Serif" font-size="10.00">/test_ControllerInputAction.cpp</text>
</a>
</g>
</g>
<!-- Node1&#45;&gt;Node9 -->
<g id="edge40" class="edge">
<title>Node1&#45;&gt;Node9</title>
<path fill="none" stroke="midnightblue" d="M1119.17,-347.38C1141.13,-308.22 1177.02,-228.24 1138,-178 1098.32,-126.92 1059.5,-158.64 997,-142 994.28,-141.28 991.51,-140.53 988.72,-139.78"/>
<polygon fill="midnightblue" stroke="midnightblue" points="1115.92,-346 1113.94,-356.41 1121.98,-349.51 1115.92,-346"/>
</g>
<!-- Node10 -->
<g id="node10" class="node">
<title>Node10</title>
<g id="a_node10"><a xlink:href="test__ControllerScreenCreation_8cpp.html" target="_top" xlink:title=" ">
<polygon fill="white" stroke="black" points="0,-89.5 0,-141.5 186,-141.5 186,-89.5 0,-89.5"/>
<text text-anchor="start" x="8" y="-129.5" font-family="Helvetica,sans-Serif" font-size="10.00">/home/runner/work/EX</text>
<text text-anchor="start" x="8" y="-118.5" font-family="Helvetica,sans-Serif" font-size="10.00">&#45;Display/EX&#45;Display/test</text>
<text text-anchor="start" x="8" y="-107.5" font-family="Helvetica,sans-Serif" font-size="10.00">/integration/test_Controller</text>
<text text-anchor="middle" x="93" y="-96.5" font-family="Helvetica,sans-Serif" font-size="10.00">/test_ControllerScreenCreation.cpp</text>
</a>
</g>
</g>
<!-- Node1&#45;&gt;Node10 -->
<g id="edge41" class="edge">
<title>Node1&#45;&gt;Node10</title>
<path fill="none" stroke="midnightblue" d="M994.5,-367.76C789.51,-362.05 365.52,-347.11 304,-320 215.05,-280.8 141.38,-186.81 109.7,-141.61"/>
<polygon fill="midnightblue" stroke="midnightblue" points="994.6,-371.26 1004.69,-368.04 994.79,-364.26 994.6,-371.26"/>
</g>
<!-- Node11 -->
<g id="node11" class="node">
<title>Node11</title>
<g id="a_node11"><a xlink:href="test__Controller_8cpp.html" target="_top" xlink:title=" ">
<polygon fill="white" stroke="black" points="1006.5,-89.5 1006.5,-141.5 1141.5,-141.5 1141.5,-89.5 1006.5,-89.5"/>
<text text-anchor="start" x="1014.5" y="-129.5" font-family="Helvetica,sans-Serif" font-size="10.00">/home/runner/work/EX</text>
<text text-anchor="start" x="1014.5" y="-118.5" font-family="Helvetica,sans-Serif" font-size="10.00">&#45;Display/EX&#45;Display/test</text>
<text text-anchor="start" x="1014.5" y="-107.5" font-family="Helvetica,sans-Serif" font-size="10.00">/unit/test_Controller/test</text>
<text text-anchor="middle" x="1074" y="-96.5" font-family="Helvetica,sans-Serif" font-size="10.00">_Controller.cpp</text>
</a>
</g>
</g>
<!-- Node1&#45;&gt;Node11 -->
<g id="edge43" class="edge">
<title>Node1&#45;&gt;Node11</title>
<path fill="none" stroke="midnightblue" d="M1142.5,-350.83C1153.78,-342.88 1164.79,-332.58 1171,-320 1181.43,-298.88 1172.84,-290.48 1171,-267 1167.88,-227.08 1177.74,-212.25 1157,-178 1148.17,-163.43 1134.47,-151.2 1120.72,-141.59"/>
<polygon fill="midnightblue" stroke="midnightblue" points="1140.37,-348.05 1133.91,-356.45 1144.2,-353.91 1140.37,-348.05"/>
</g>
<!-- Node12 -->
<g id="node12" class="node">
<title>Node12</title>
<g id="a_node12"><a xlink:href="DisplayManager_8h.html" target="_top" xlink:title=" ">
<polygon fill="white" stroke="black" points="925,-273 925,-314 1077,-314 1077,-273 925,-273"/>
<text text-anchor="start" x="933" y="-302" font-family="Helvetica,sans-Serif" font-size="10.00">/home/runner/work/EX</text>
<text text-anchor="start" x="933" y="-291" font-family="Helvetica,sans-Serif" font-size="10.00">&#45;Display/EX&#45;Display/Display</text>
<text text-anchor="middle" x="1001" y="-280" font-family="Helvetica,sans-Serif" font-size="10.00">Manager.h</text>
</a>
</g>
</g>
<!-- Node1&#45;&gt;Node12 -->
<g id="edge12" class="edge">
<title>Node1&#45;&gt;Node12</title>
<path fill="none" stroke="midnightblue" d="M1077.36,-350.3C1062.06,-339.12 1043.12,-325.28 1027.93,-314.18"/>
<polygon fill="midnightblue" stroke="midnightblue" points="1075.3,-353.13 1085.44,-356.2 1079.43,-347.48 1075.3,-353.13"/>
</g>
<!-- Node16 -->
<g id="node16" class="node">
<title>Node16</title>
<g id="a_node16"><a xlink:href="test__DisplayScreens_8cpp.html" target="_top" xlink:title=" ">
<polygon fill="white" stroke="black" points="2261.5,-178.5 2261.5,-230.5 2400.5,-230.5 2400.5,-178.5 2261.5,-178.5"/>
<text text-anchor="start" x="2269.5" y="-218.5" font-family="Helvetica,sans-Serif" font-size="10.00">/home/runner/work/EX</text>
<text text-anchor="start" x="2269.5" y="-207.5" font-family="Helvetica,sans-Serif" font-size="10.00">&#45;Display/EX&#45;Display/test</text>
<text text-anchor="start" x="2269.5" y="-196.5" font-family="Helvetica,sans-Serif" font-size="10.00">/integration/test_Display</text>
<text text-anchor="middle" x="2331" y="-185.5" font-family="Helvetica,sans-Serif" font-size="10.00">/test_DisplayScreens.cpp</text>
</a>
</g>
</g>
<!-- Node1&#45;&gt;Node16 -->
<g id="edge42" class="edge">
<title>Node1&#45;&gt;Node16</title>
<path fill="none" stroke="midnightblue" d="M1176.58,-353.45C1200.35,-345.67 1226.06,-334.8 1247,-320 1271.77,-302.49 1262.86,-280.56 1290,-267 1385.69,-219.2 2146.67,-249.6 2252,-231 2255.12,-230.45 2258.29,-229.8 2261.48,-229.09"/>
<polygon fill="midnightblue" stroke="midnightblue" points="1175.38,-350.16 1166.88,-356.49 1177.47,-356.84 1175.38,-350.16"/>
</g>
<!-- Node32 -->
<g id="node32" class="node">
<title>Node32</title>
<g id="a_node32"><a xlink:href="ScreenManager_8cpp.html" target="_top" xlink:title=" ">
<polygon fill="white" stroke="black" points="1299.5,-278.5 1299.5,-308.5 1510.5,-308.5 1510.5,-278.5 1299.5,-278.5"/>
<text text-anchor="start" x="1307.5" y="-296.5" font-family="Helvetica,sans-Serif" font-size="10.00">/home/runner/work/EX</text>
<text text-anchor="middle" x="1405" y="-285.5" font-family="Helvetica,sans-Serif" font-size="10.00">&#45;Display/EX&#45;Display/ScreenManager.cpp</text>
</a>
</g>
</g>
<!-- Node1&#45;&gt;Node32 -->
<g id="edge38" class="edge">
<title>Node1&#45;&gt;Node32</title>
<path fill="none" stroke="midnightblue" d="M1170.13,-354C1223.75,-340.42 1298.95,-321.37 1349.7,-308.51"/>
<polygon fill="midnightblue" stroke="midnightblue" points="1169.21,-350.62 1160.37,-356.47 1170.93,-357.41 1169.21,-350.62"/>
</g>
<!-- Node33 -->
<g id="node33" class="node">
<title>Node33</title>
<g id="a_node33"><a xlink:href="test__ScreenManager_8cpp.html" target="_top" xlink:title=" ">
<polygon fill="white" stroke="black" points="1528.5,-267.5 1528.5,-319.5 1669.5,-319.5 1669.5,-267.5 1528.5,-267.5"/>
<text text-anchor="start" x="1536.5" y="-307.5" font-family="Helvetica,sans-Serif" font-size="10.00">/home/runner/work/EX</text>
<text text-anchor="start" x="1536.5" y="-296.5" font-family="Helvetica,sans-Serif" font-size="10.00">&#45;Display/EX&#45;Display/test</text>
<text text-anchor="start" x="1536.5" y="-285.5" font-family="Helvetica,sans-Serif" font-size="10.00">/unit/test_ScreenManager</text>
<text text-anchor="middle" x="1599" y="-274.5" font-family="Helvetica,sans-Serif" font-size="10.00">/test_ScreenManager.cpp</text>
</a>
</g>
</g>
<!-- Node1&#45;&gt;Node33 -->
<g id="edge44" class="edge">
<title>Node1&#45;&gt;Node33</title>
<path fill="none" stroke="midnightblue" d="M1215.07,-362.72C1299.04,-355.42 1417.2,-342.23 1519,-320 1521.99,-319.35 1525.03,-318.63 1528.09,-317.86"/>
<polygon fill="midnightblue" stroke="midnightblue" points="1214.67,-359.24 1205,-363.58 1215.26,-366.21 1214.67,-359.24"/>
</g>
<!-- Node3 -->
<g id="node3" class="node">
<title>Node3</title>
<g id="a_node3"><a xlink:href="Configurator_8cpp.html" target="_top" xlink:title=" ">
<polygon fill="white" stroke="black" points="901.5,-11.5 901.5,-41.5 1096.5,-41.5 1096.5,-11.5 901.5,-11.5"/>
<text text-anchor="start" x="909.5" y="-29.5" font-family="Helvetica,sans-Serif" font-size="10.00">/home/runner/work/EX</text>
<text text-anchor="middle" x="999" y="-18.5" font-family="Helvetica,sans-Serif" font-size="10.00">&#45;Display/EX&#45;Display/Configurator.cpp</text>
</a>
</g>
</g>
<!-- Node2&#45;&gt;Node3 -->
<g id="edge2" class="edge">
<title>Node2&#45;&gt;Node3</title>
<path fill="none" stroke="midnightblue" d="M559.47,-97.99C572.47,-94.78 586.15,-91.6 599,-89 701.43,-68.24 819.88,-50.84 901.14,-39.91"/>
<polygon fill="midnightblue" stroke="midnightblue" points="558.53,-94.62 549.69,-100.45 560.24,-101.41 558.53,-94.62"/>
</g>
<!-- Node4 -->
<g id="node4" class="node">
<title>Node4</title>
<g id="a_node4"><a xlink:href="EX-Display_8ino.html" target="_top" xlink:title=" ">
<polygon fill="white" stroke="black" points="359,-6 359,-47 487,-47 487,-6 359,-6"/>
<text text-anchor="start" x="367" y="-35" font-family="Helvetica,sans-Serif" font-size="10.00">/home/runner/work/EX</text>
<text text-anchor="start" x="367" y="-24" font-family="Helvetica,sans-Serif" font-size="10.00">&#45;Display/EX&#45;Display/EX</text>
<text text-anchor="middle" x="423" y="-13" font-family="Helvetica,sans-Serif" font-size="10.00">&#45;Display.ino</text>
</a>
</g>
</g>
<!-- Node2&#45;&gt;Node4 -->
<g id="edge3" class="edge">
<title>Node2&#45;&gt;Node4</title>
<path fill="none" stroke="midnightblue" d="M478.97,-92.43C466.93,-78.46 451.5,-60.56 439.9,-47.1"/>
<polygon fill="midnightblue" stroke="midnightblue" points="476.43,-94.84 485.62,-100.13 481.74,-90.27 476.43,-94.84"/>
</g>
<!-- Node5 -->
<g id="node5" class="node">
<title>Node5</title>
<g id="a_node5"><a xlink:href="test__Configurator_8cpp.html" target="_top" xlink:title=" ">
<polygon fill="white" stroke="black" points="505,-0.5 505,-52.5 639,-52.5 639,-0.5 505,-0.5"/>
<text text-anchor="start" x="513" y="-40.5" font-family="Helvetica,sans-Serif" font-size="10.00">/home/runner/work/EX</text>
<text text-anchor="start" x="513" y="-29.5" font-family="Helvetica,sans-Serif" font-size="10.00">&#45;Display/EX&#45;Display/test</text>
<text text-anchor="start" x="513" y="-18.5" font-family="Helvetica,sans-Serif" font-size="10.00">/unit/test_Configurator</text>
<text text-anchor="middle" x="572" y="-7.5" font-family="Helvetica,sans-Serif" font-size="10.00">/test_Configurator.cpp</text>
</a>
</g>
</g>
<!-- Node2&#45;&gt;Node5 -->
<g id="edge4" class="edge">
<title>Node2&#45;&gt;Node5</title>
<path fill="none" stroke="midnightblue" d="M516.87,-92.32C527.12,-80.26 539.84,-65.31 550.48,-52.8"/>
<polygon fill="midnightblue" stroke="midnightblue" points="514.03,-90.25 510.22,-100.13 519.36,-94.78 514.03,-90.25"/>
</g>
<!-- Node6&#45;&gt;Node2 -->
<g id="edge6" class="edge">
<title>Node6&#45;&gt;Node2</title>
<path fill="none" stroke="midnightblue" d="M436.49,-181.76C451.59,-165.74 471.67,-144.44 484.71,-130.6"/>
<polygon fill="midnightblue" stroke="midnightblue" points="433.85,-179.46 429.54,-189.13 438.95,-184.26 433.85,-179.46"/>
</g>
<!-- Node7 -->
<g id="node7" class="node">
<title>Node7</title>
<g id="a_node7"><a xlink:href="Controller_8cpp.html" target="_top" xlink:title=" ">
<polygon fill="white" stroke="black" points="608.5,-100.5 608.5,-130.5 791.5,-130.5 791.5,-100.5 608.5,-100.5"/>
<text text-anchor="start" x="616.5" y="-118.5" font-family="Helvetica,sans-Serif" font-size="10.00">/home/runner/work/EX</text>
<text text-anchor="middle" x="700" y="-107.5" font-family="Helvetica,sans-Serif" font-size="10.00">&#45;Display/EX&#45;Display/Controller.cpp</text>
</a>
</g>
</g>
<!-- Node6&#45;&gt;Node7 -->
<g id="edge7" class="edge">
<title>Node6&#45;&gt;Node7</title>
<path fill="none" stroke="midnightblue" d="M471.58,-186.47C524.86,-170.15 604.34,-145.8 654.12,-130.55"/>
<polygon fill="midnightblue" stroke="midnightblue" points="470.48,-183.15 461.95,-189.43 472.53,-189.84 470.48,-183.15"/>
</g>
<!-- Node6&#45;&gt;Node8 -->
<g id="edge8" class="edge">
<title>Node6&#45;&gt;Node8</title>
<path fill="none" stroke="midnightblue" d="M387.99,-183.19C370.85,-170.76 348.79,-154.77 330.57,-141.56"/>
<polygon fill="midnightblue" stroke="midnightblue" points="386.3,-186.29 396.45,-189.33 390.41,-180.62 386.3,-186.29"/>
</g>
<!-- Node6&#45;&gt;Node9 -->
<g id="edge9" class="edge">
<title>Node6&#45;&gt;Node9</title>
<path fill="none" stroke="midnightblue" d="M496.08,-187.52C513.5,-184.22 531.85,-180.87 549,-178 660.15,-159.38 689.34,-163.32 800,-142 807,-140.65 814.23,-139.14 821.48,-137.55"/>
<polygon fill="midnightblue" stroke="midnightblue" points="495.12,-184.14 485.95,-189.45 496.43,-191.01 495.12,-184.14"/>
</g>
<!-- Node6&#45;&gt;Node10 -->
<g id="edge10" class="edge">
<title>Node6&#45;&gt;Node10</title>
<path fill="none" stroke="midnightblue" d="M353.89,-186.77C306.29,-173.95 239.85,-156.05 185.94,-141.53"/>
<polygon fill="midnightblue" stroke="midnightblue" points="353.18,-190.2 363.75,-189.43 355,-183.44 353.18,-190.2"/>
</g>
<!-- Node6&#45;&gt;Node11 -->
<g id="edge11" class="edge">
<title>Node6&#45;&gt;Node11</title>
<path fill="none" stroke="midnightblue" d="M491.36,-187.57C510.12,-184.01 530.24,-180.54 549,-178 746.94,-151.15 801.23,-181.68 997,-142 1000.04,-141.38 1003.12,-140.69 1006.22,-139.92"/>
<polygon fill="midnightblue" stroke="midnightblue" points="490.54,-184.16 481.39,-189.49 491.87,-191.03 490.54,-184.16"/>
</g>
<!-- Node12&#45;&gt;Node2 -->
<g id="edge13" class="edge">
<title>Node12&#45;&gt;Node2</title>
<path fill="none" stroke="midnightblue" d="M914.55,-285.28C791.55,-274.32 577.66,-252.49 549,-231 516.1,-206.32 503.98,-155.67 499.89,-130.85"/>
<polygon fill="midnightblue" stroke="midnightblue" points="914.43,-288.78 924.7,-286.18 915.05,-281.81 914.43,-288.78"/>
</g>
<!-- Node12&#45;&gt;Node6 -->
<g id="edge14" class="edge">
<title>Node12&#45;&gt;Node6</title>
<path fill="none" stroke="midnightblue" d="M914.85,-284.82C817.49,-275.39 654.51,-257.34 516,-231 499.63,-227.89 481.96,-223.67 466.09,-219.56"/>
<polygon fill="midnightblue" stroke="midnightblue" points="914.65,-288.32 924.94,-285.79 915.32,-281.35 914.65,-288.32"/>
</g>
<!-- Node12&#45;&gt;Node8 -->
<g id="edge19" class="edge">
<title>Node12&#45;&gt;Node8</title>
<path fill="none" stroke="midnightblue" d="M914.85,-290.32C741.79,-285.14 364.65,-269.52 321,-231 295.98,-208.92 292.76,-168.14 293.67,-141.68"/>
<polygon fill="midnightblue" stroke="midnightblue" points="914.85,-293.82 924.94,-290.62 915.05,-286.82 914.85,-293.82"/>
</g>
<!-- Node12&#45;&gt;Node9 -->
<g id="edge20" class="edge">
<title>Node12&#45;&gt;Node9</title>
<path fill="none" stroke="midnightblue" d="M985.49,-264.07C967.02,-230.2 936.45,-174.16 918.78,-141.76"/>
<polygon fill="midnightblue" stroke="midnightblue" points="982.5,-265.89 990.36,-272.99 988.64,-262.54 982.5,-265.89"/>
</g>
<!-- Node12&#45;&gt;Node11 -->
<g id="edge35" class="edge">
<title>Node12&#45;&gt;Node11</title>
<path fill="none" stroke="midnightblue" d="M1086.61,-271.73C1106.82,-262.63 1125.96,-249.6 1138,-231 1150.8,-211.23 1147.23,-199.67 1138,-178 1132.02,-163.96 1121.1,-151.59 1109.94,-141.68"/>
<polygon fill="midnightblue" stroke="midnightblue" points="1085.15,-268.55 1077.28,-275.65 1087.85,-275.01 1085.15,-268.55"/>
</g>
<!-- Node13 -->
<g id="node13" class="node">
<title>Node13</title>
<g id="a_node13"><a xlink:href="CreateUserDevices_8h.html" target="_top" xlink:title=" ">
<polygon fill="white" stroke="black" points="1261,-184 1261,-225 1431,-225 1431,-184 1261,-184"/>
<text text-anchor="start" x="1269" y="-213" font-family="Helvetica,sans-Serif" font-size="10.00">/home/runner/work/EX</text>
<text text-anchor="start" x="1269" y="-202" font-family="Helvetica,sans-Serif" font-size="10.00">&#45;Display/EX&#45;Display/CreateUser</text>
<text text-anchor="middle" x="1346" y="-191" font-family="Helvetica,sans-Serif" font-size="10.00">Devices.h</text>
</a>
</g>
</g>
<!-- Node12&#45;&gt;Node13 -->
<g id="edge15" class="edge">
<title>Node12&#45;&gt;Node13</title>
<path fill="none" stroke="midnightblue" d="M1086.99,-270.82C1142.69,-256.77 1214.64,-238.63 1268.56,-225.03"/>
<polygon fill="midnightblue" stroke="midnightblue" points="1085.98,-267.46 1077.14,-273.3 1087.69,-274.25 1085.98,-267.46"/>
</g>
<!-- Node15 -->
<g id="node15" class="node">
<title>Node15</title>
<g id="a_node15"><a xlink:href="DisplayManager_8cpp.html" target="_top" xlink:title=" ">
<polygon fill="white" stroke="black" points="977,-184 977,-225 1129,-225 1129,-184 977,-184"/>
<text text-anchor="start" x="985" y="-213" font-family="Helvetica,sans-Serif" font-size="10.00">/home/runner/work/EX</text>
<text text-anchor="start" x="985" y="-202" font-family="Helvetica,sans-Serif" font-size="10.00">&#45;Display/EX&#45;Display/Display</text>
<text text-anchor="middle" x="1053" y="-191" font-family="Helvetica,sans-Serif" font-size="10.00">Manager.cpp</text>
</a>
</g>
</g>
<!-- Node12&#45;&gt;Node15 -->
<g id="edge18" class="edge">
<title>Node12&#45;&gt;Node15</title>
<path fill="none" stroke="midnightblue" d="M1018.08,-263.93C1025.67,-251.23 1034.41,-236.61 1041.25,-225.16"/>
<polygon fill="midnightblue" stroke="midnightblue" points="1014.93,-262.38 1012.8,-272.76 1020.93,-265.97 1014.93,-262.38"/>
</g>
<!-- Node12&#45;&gt;Node16 -->
<g id="edge21" class="edge">
<title>Node12&#45;&gt;Node16</title>
<path fill="none" stroke="midnightblue" d="M1087.11,-282.55C1136.73,-277.17 1200.3,-270.85 1257,-267 1477.75,-252.03 2034.09,-269.35 2252,-231 2255.12,-230.45 2258.29,-229.81 2261.48,-229.09"/>
<polygon fill="midnightblue" stroke="midnightblue" points="1086.63,-279.09 1077.07,-283.65 1087.39,-286.05 1086.63,-279.09"/>
</g>
<!-- Node17 -->
<g id="node17" class="node">
<title>Node17</title>
<g id="a_node17"><a xlink:href="MockDisplayInputMethods_8h.html" target="_top" xlink:title=" ">
<polygon fill="white" stroke="black" points="2049,-184 2049,-225 2243,-225 2243,-184 2049,-184"/>
<text text-anchor="start" x="2057" y="-213" font-family="Helvetica,sans-Serif" font-size="10.00">/home/runner/work/EX</text>
<text text-anchor="start" x="2057" y="-202" font-family="Helvetica,sans-Serif" font-size="10.00">&#45;Display/EX&#45;Display/test</text>
<text text-anchor="middle" x="2146" y="-191" font-family="Helvetica,sans-Serif" font-size="10.00">/mocks/MockDisplayInputMethods.h</text>
</a>
</g>
</g>
<!-- Node12&#45;&gt;Node17 -->
<g id="edge22" class="edge">
<title>Node12&#45;&gt;Node17</title>
<path fill="none" stroke="midnightblue" d="M1087.17,-283.26C1136.8,-278.11 1200.37,-271.78 1257,-267 1544.7,-242.73 1885.39,-221.16 2048.91,-211.25"/>
<polygon fill="midnightblue" stroke="midnightblue" points="1086.7,-279.79 1077.12,-284.31 1087.43,-286.75 1086.7,-279.79"/>
</g>
<!-- Node30 -->
<g id="node30" class="node">
<title>Node30</title>
<g id="a_node30"><a xlink:href="test__DisplayManager_8cpp.html" target="_top" xlink:title=" ">
<polygon fill="white" stroke="black" points="558.5,-178.5 558.5,-230.5 703.5,-230.5 703.5,-178.5 558.5,-178.5"/>
<text text-anchor="start" x="566.5" y="-218.5" font-family="Helvetica,sans-Serif" font-size="10.00">/home/runner/work/EX</text>
<text text-anchor="start" x="566.5" y="-207.5" font-family="Helvetica,sans-Serif" font-size="10.00">&#45;Display/EX&#45;Display/test</text>
<text text-anchor="start" x="566.5" y="-196.5" font-family="Helvetica,sans-Serif" font-size="10.00">/unit/test_DisplayManager</text>
<text text-anchor="middle" x="631" y="-185.5" font-family="Helvetica,sans-Serif" font-size="10.00">/test_DisplayManager.cpp</text>
</a>
</g>
</g>
<!-- Node12&#45;&gt;Node30 -->
<g id="edge36" class="edge">
<title>Node12&#45;&gt;Node30</title>
<path fill="none" stroke="midnightblue" d="M914.96,-276.42C857.22,-265.09 779.65,-248.8 712,-231 709.29,-230.29 706.54,-229.54 703.76,-228.77"/>
<polygon fill="midnightblue" stroke="midnightblue" points="914.29,-279.86 924.78,-278.34 915.63,-272.99 914.29,-279.86"/>
</g>
<!-- Node31 -->
<g id="node31" class="node">
<title>Node31</title>
<g id="a_node31"><a xlink:href="test__DisplayManualSPISwitching_8cpp.html" target="_top" xlink:title=" ">
<polygon fill="white" stroke="black" points="721.5,-178.5 721.5,-230.5 920.5,-230.5 920.5,-178.5 721.5,-178.5"/>
<text text-anchor="start" x="729.5" y="-218.5" font-family="Helvetica,sans-Serif" font-size="10.00">/home/runner/work/EX</text>
<text text-anchor="start" x="729.5" y="-207.5" font-family="Helvetica,sans-Serif" font-size="10.00">&#45;Display/EX&#45;Display/test</text>
<text text-anchor="start" x="729.5" y="-196.5" font-family="Helvetica,sans-Serif" font-size="10.00">/unit/test_DisplayManager</text>
<text text-anchor="middle" x="821" y="-185.5" font-family="Helvetica,sans-Serif" font-size="10.00">/test_DisplayManualSPISwitching.cpp</text>
</a>
</g>
</g>
<!-- Node12&#45;&gt;Node31 -->
<g id="edge37" class="edge">
<title>Node12&#45;&gt;Node31</title>
<path fill="none" stroke="midnightblue" d="M951.51,-268.58C927.09,-256.78 897.64,-242.54 872.9,-230.58"/>
<polygon fill="midnightblue" stroke="midnightblue" points="950.08,-271.77 960.6,-272.98 953.12,-265.47 950.08,-271.77"/>
</g>
<!-- Node13&#45;&gt;Node3 -->
<g id="edge16" class="edge">
<title>Node13&#45;&gt;Node3</title>
<path fill="none" stroke="midnightblue" d="M1260.71,-180.49C1235.69,-171.15 1209.34,-158.56 1188,-142 1165.1,-124.23 1172.76,-106.95 1150,-89 1121.66,-66.65 1084.1,-51.31 1053.52,-41.54"/>
<polygon fill="midnightblue" stroke="midnightblue" points="1259.62,-183.82 1270.22,-183.91 1261.99,-177.24 1259.62,-183.82"/>
</g>
<!-- Node14 -->
<g id="node14" class="node">
<title>Node14</title>
<g id="a_node14"><a xlink:href="test__CompilerCreation_8cpp.html" target="_top" xlink:title=" ">
<polygon fill="white" stroke="black" points="1197.5,-89.5 1197.5,-141.5 1382.5,-141.5 1382.5,-89.5 1197.5,-89.5"/>
<text text-anchor="start" x="1205.5" y="-129.5" font-family="Helvetica,sans-Serif" font-size="10.00">/home/runner/work/EX</text>
<text text-anchor="start" x="1205.5" y="-118.5" font-family="Helvetica,sans-Serif" font-size="10.00">&#45;Display/EX&#45;Display/test</text>
<text text-anchor="start" x="1205.5" y="-107.5" font-family="Helvetica,sans-Serif" font-size="10.00">/integration/test_CompilerCreation</text>
<text text-anchor="middle" x="1290" y="-96.5" font-family="Helvetica,sans-Serif" font-size="10.00">/test_CompilerCreation.cpp</text>
</a>
</g>
</g>
<!-- Node13&#45;&gt;Node14 -->
<g id="edge17" class="edge">
<title>Node13&#45;&gt;Node14</title>
<path fill="none" stroke="midnightblue" d="M1327.74,-175.13C1320.82,-164.39 1313,-152.23 1306.28,-141.79"/>
<polygon fill="midnightblue" stroke="midnightblue" points="1324.94,-177.24 1333.29,-183.76 1330.82,-173.46 1324.94,-177.24"/>
</g>
<!-- Node18 -->
<g id="node18" class="node">
<title>Node18</title>
<g id="a_node18"><a xlink:href="integration_2test__Controller_2test__main_8cpp.html" target="_top" xlink:title=" ">
<polygon fill="white" stroke="black" points="1401,-89.5 1401,-141.5 1549,-141.5 1549,-89.5 1401,-89.5"/>
<text text-anchor="start" x="1409" y="-129.5" font-family="Helvetica,sans-Serif" font-size="10.00">/home/runner/work/EX</text>
<text text-anchor="start" x="1409" y="-118.5" font-family="Helvetica,sans-Serif" font-size="10.00">&#45;Display/EX&#45;Display/test</text>
<text text-anchor="start" x="1409" y="-107.5" font-family="Helvetica,sans-Serif" font-size="10.00">/integration/test_Controller</text>
<text text-anchor="middle" x="1475" y="-96.5" font-family="Helvetica,sans-Serif" font-size="10.00">/test_main.cpp</text>
</a>
</g>
</g>
<!-- Node17&#45;&gt;Node18 -->
<g id="edge23" class="edge">
<title>Node17&#45;&gt;Node18</title>
<path fill="none" stroke="midnightblue" d="M2038.71,-198.53C1920.11,-191.59 1723.88,-175.82 1558,-142 1555.05,-141.4 1552.05,-140.73 1549.03,-140.02"/>
<polygon fill="midnightblue" stroke="midnightblue" points="2038.69,-202.04 2048.88,-199.12 2039.09,-195.05 2038.69,-202.04"/>
</g>
<!-- Node19 -->
<g id="node19" class="node">
<title>Node19</title>
<g id="a_node19"><a xlink:href="integration_2test__Display_2test__main_8cpp.html" target="_top" xlink:title=" ">
<polygon fill="white" stroke="black" points="1567.5,-89.5 1567.5,-141.5 1704.5,-141.5 1704.5,-89.5 1567.5,-89.5"/>
<text text-anchor="start" x="1575.5" y="-129.5" font-family="Helvetica,sans-Serif" font-size="10.00">/home/runner/work/EX</text>
<text text-anchor="start" x="1575.5" y="-118.5" font-family="Helvetica,sans-Serif" font-size="10.00">&#45;Display/EX&#45;Display/test</text>
<text text-anchor="start" x="1575.5" y="-107.5" font-family="Helvetica,sans-Serif" font-size="10.00">/integration/test_Display</text>
<text text-anchor="middle" x="1636" y="-96.5" font-family="Helvetica,sans-Serif" font-size="10.00">/test_main.cpp</text>
</a>
</g>
</g>
<!-- Node17&#45;&gt;Node19 -->
<g id="edge24" class="edge">
<title>Node17&#45;&gt;Node19</title>
<path fill="none" stroke="midnightblue" d="M2038.75,-193.66C1950.52,-184.28 1822.61,-167.72 1713,-142 1710.26,-141.36 1707.47,-140.66 1704.67,-139.92"/>
<polygon fill="midnightblue" stroke="midnightblue" points="2038.46,-197.15 2048.77,-194.71 2039.19,-190.18 2038.46,-197.15"/>
</g>
<!-- Node20 -->
<g id="node20" class="node">
<title>Node20</title>
<g id="a_node20"><a xlink:href="integration_2test__InteractiveLogger_2test__main_8cpp.html" target="_top" xlink:title=" ">
<polygon fill="white" stroke="black" points="1722.5,-89.5 1722.5,-141.5 1907.5,-141.5 1907.5,-89.5 1722.5,-89.5"/>
<text text-anchor="start" x="1730.5" y="-129.5" font-family="Helvetica,sans-Serif" font-size="10.00">/home/runner/work/EX</text>
<text text-anchor="start" x="1730.5" y="-118.5" font-family="Helvetica,sans-Serif" font-size="10.00">&#45;Display/EX&#45;Display/test</text>
<text text-anchor="start" x="1730.5" y="-107.5" font-family="Helvetica,sans-Serif" font-size="10.00">/integration/test_InteractiveLogger</text>
<text text-anchor="middle" x="1815" y="-96.5" font-family="Helvetica,sans-Serif" font-size="10.00">/test_main.cpp</text>
</a>
</g>
</g>
<!-- Node17&#45;&gt;Node20 -->
<g id="edge25" class="edge">
<title>Node17&#45;&gt;Node20</title>
<path fill="none" stroke="midnightblue" d="M2061.86,-181.38C2014.8,-169.02 1956.05,-153.57 1907.68,-140.86"/>
<polygon fill="midnightblue" stroke="midnightblue" points="2061.16,-184.82 2071.72,-183.98 2062.94,-178.05 2061.16,-184.82"/>
</g>
<!-- Node21 -->
<g id="node21" class="node">
<title>Node21</title>
<g id="a_node21"><a xlink:href="unit_2test__Configurator_2test__main_8cpp.html" target="_top" xlink:title=" ">
<polygon fill="white" stroke="black" points="1926,-89.5 1926,-141.5 2060,-141.5 2060,-89.5 1926,-89.5"/>
<text text-anchor="start" x="1934" y="-129.5" font-family="Helvetica,sans-Serif" font-size="10.00">/home/runner/work/EX</text>
<text text-anchor="start" x="1934" y="-118.5" font-family="Helvetica,sans-Serif" font-size="10.00">&#45;Display/EX&#45;Display/test</text>
<text text-anchor="start" x="1934" y="-107.5" font-family="Helvetica,sans-Serif" font-size="10.00">/unit/test_Configurator</text>
<text text-anchor="middle" x="1993" y="-96.5" font-family="Helvetica,sans-Serif" font-size="10.00">/test_main.cpp</text>
</a>
</g>
</g>
<!-- Node17&#45;&gt;Node21 -->
<g id="edge26" class="edge">
<title>Node17&#45;&gt;Node21</title>
<path fill="none" stroke="midnightblue" d="M2102.83,-178.95C2082.3,-167.28 2057.77,-153.33 2037.11,-141.58"/>
<polygon fill="midnightblue" stroke="midnightblue" points="2101.24,-182.07 2111.66,-183.98 2104.7,-175.99 2101.24,-182.07"/>
</g>
<!-- Node22 -->
<g id="node22" class="node">
<title>Node22</title>
<g id="a_node22"><a xlink:href="unit_2test__Controller_2test__main_8cpp.html" target="_top" xlink:title=" ">
<polygon fill="white" stroke="black" points="2078.5,-89.5 2078.5,-141.5 2213.5,-141.5 2213.5,-89.5 2078.5,-89.5"/>
<text text-anchor="start" x="2086.5" y="-129.5" font-family="Helvetica,sans-Serif" font-size="10.00">/home/runner/work/EX</text>
<text text-anchor="start" x="2086.5" y="-118.5" font-family="Helvetica,sans-Serif" font-size="10.00">&#45;Display/EX&#45;Display/test</text>
<text text-anchor="start" x="2086.5" y="-107.5" font-family="Helvetica,sans-Serif" font-size="10.00">/unit/test_Controller/test</text>
<text text-anchor="middle" x="2146" y="-96.5" font-family="Helvetica,sans-Serif" font-size="10.00">_main.cpp</text>
</a>
</g>
</g>
<!-- Node17&#45;&gt;Node22 -->
<g id="edge27" class="edge">
<title>Node17&#45;&gt;Node22</title>
<path fill="none" stroke="midnightblue" d="M2146,-173.51C2146,-163.17 2146,-151.71 2146,-141.79"/>
<polygon fill="midnightblue" stroke="midnightblue" points="2142.5,-173.76 2146,-183.76 2149.5,-173.76 2142.5,-173.76"/>
</g>
<!-- Node23 -->
<g id="node23" class="node">
<title>Node23</title>
<g id="a_node23"><a xlink:href="unit_2test__Display_2test__main_8cpp.html" target="_top" xlink:title=" ">
<polygon fill="white" stroke="black" points="2232,-89.5 2232,-141.5 2366,-141.5 2366,-89.5 2232,-89.5"/>
<text text-anchor="start" x="2240" y="-129.5" font-family="Helvetica,sans-Serif" font-size="10.00">/home/runner/work/EX</text>
<text text-anchor="start" x="2240" y="-118.5" font-family="Helvetica,sans-Serif" font-size="10.00">&#45;Display/EX&#45;Display/test</text>
<text text-anchor="start" x="2240" y="-107.5" font-family="Helvetica,sans-Serif" font-size="10.00">/unit/test_Display/test</text>
<text text-anchor="middle" x="2299" y="-96.5" font-family="Helvetica,sans-Serif" font-size="10.00">_main.cpp</text>
</a>
</g>
</g>
<!-- Node17&#45;&gt;Node23 -->
<g id="edge28" class="edge">
<title>Node17&#45;&gt;Node23</title>
<path fill="none" stroke="midnightblue" d="M2189.17,-178.95C2209.7,-167.28 2234.23,-153.33 2254.89,-141.58"/>
<polygon fill="midnightblue" stroke="midnightblue" points="2187.3,-175.99 2180.34,-183.98 2190.76,-182.07 2187.3,-175.99"/>
</g>
<!-- Node24 -->
<g id="node24" class="node">
<title>Node24</title>
<g id="a_node24"><a xlink:href="unit_2test__DisplayManager_2test__main_8cpp.html" target="_top" xlink:title=" ">
<polygon fill="white" stroke="black" points="2384.5,-89.5 2384.5,-141.5 2529.5,-141.5 2529.5,-89.5 2384.5,-89.5"/>
<text text-anchor="start" x="2392.5" y="-129.5" font-family="Helvetica,sans-Serif" font-size="10.00">/home/runner/work/EX</text>
<text text-anchor="start" x="2392.5" y="-118.5" font-family="Helvetica,sans-Serif" font-size="10.00">&#45;Display/EX&#45;Display/test</text>
<text text-anchor="start" x="2392.5" y="-107.5" font-family="Helvetica,sans-Serif" font-size="10.00">/unit/test_DisplayManager</text>
<text text-anchor="middle" x="2457" y="-96.5" font-family="Helvetica,sans-Serif" font-size="10.00">/test_main.cpp</text>
</a>
</g>
</g>
<!-- Node17&#45;&gt;Node24 -->
<g id="edge29" class="edge">
<title>Node17&#45;&gt;Node24</title>
<path fill="none" stroke="midnightblue" d="M2231.65,-181.35C2274.76,-169.98 2327.77,-155.68 2375,-142 2378.01,-141.13 2381.07,-140.23 2384.17,-139.31"/>
<polygon fill="midnightblue" stroke="midnightblue" points="2230.54,-178.02 2221.76,-183.95 2232.32,-184.79 2230.54,-178.02"/>
</g>
<!-- Node25 -->
<g id="node25" class="node">
<title>Node25</title>
<g id="a_node25"><a xlink:href="unit_2test__Infrastructure_2test__main_8cpp.html" target="_top" xlink:title=" ">
<polygon fill="white" stroke="black" points="2548,-89.5 2548,-141.5 2682,-141.5 2682,-89.5 2548,-89.5"/>
<text text-anchor="start" x="2556" y="-129.5" font-family="Helvetica,sans-Serif" font-size="10.00">/home/runner/work/EX</text>
<text text-anchor="start" x="2556" y="-118.5" font-family="Helvetica,sans-Serif" font-size="10.00">&#45;Display/EX&#45;Display/test</text>
<text text-anchor="start" x="2556" y="-107.5" font-family="Helvetica,sans-Serif" font-size="10.00">/unit/test_Infrastructure</text>
<text text-anchor="middle" x="2615" y="-96.5" font-family="Helvetica,sans-Serif" font-size="10.00">/test_main.cpp</text>
</a>
</g>
</g>
<!-- Node17&#45;&gt;Node25 -->
<g id="edge30" class="edge">
<title>Node17&#45;&gt;Node25</title>
<path fill="none" stroke="midnightblue" d="M2233.74,-181.78C2240.24,-180.42 2246.71,-179.14 2253,-178 2379.05,-155.12 2414.1,-170.52 2539,-142 2541.85,-141.35 2544.74,-140.63 2547.65,-139.87"/>
<polygon fill="midnightblue" stroke="midnightblue" points="2232.56,-178.45 2223.52,-183.98 2234.03,-185.3 2232.56,-178.45"/>
</g>
<!-- Node26 -->
<g id="node26" class="node">
<title>Node26</title>
<g id="a_node26"><a xlink:href="unit_2test__Input_2test__main_8cpp.html" target="_top" xlink:title=" ">
<polygon fill="white" stroke="black" points="2700,-95 2700,-136 2862,-136 2862,-95 2700,-95"/>
<text text-anchor="start" x="2708" y="-124" font-family="Helvetica,sans-Serif" font-size="10.00">/home/runner/work/EX</text>
<text text-anchor="start" x="2708" y="-113" font-family="Helvetica,sans-Serif" font-size="10.00">&#45;Display/EX&#45;Display/test</text>
<text text-anchor="middle" x="2781" y="-102" font-family="Helvetica,sans-Serif" font-size="10.00">/unit/test_Input/test_main.cpp</text>
</a>
</g>
</g>
<!-- Node17&#45;&gt;Node26 -->
<g id="edge31" class="edge">
<title>Node17&#45;&gt;Node26</title>
<path fill="none" stroke="midnightblue" d="M2231.55,-181.9C2238.78,-180.44 2246,-179.12 2253,-178 2445.89,-147.27 2498.8,-176.79 2691,-142 2699.79,-140.41 2708.96,-138.32 2717.93,-136.03"/>
<polygon fill="midnightblue" stroke="midnightblue" points="2230.78,-178.48 2221.7,-183.96 2232.21,-185.34 2230.78,-178.48"/>
</g>
<!-- Node27 -->
<g id="node27" class="node">
<title>Node27</title>
<g id="a_node27"><a xlink:href="unit_2test__InputManager_2test__main_8cpp.html" target="_top" xlink:title=" ">
<polygon fill="white" stroke="black" points="2880,-89.5 2880,-141.5 3014,-141.5 3014,-89.5 2880,-89.5"/>
<text text-anchor="start" x="2888" y="-129.5" font-family="Helvetica,sans-Serif" font-size="10.00">/home/runner/work/EX</text>
<text text-anchor="start" x="2888" y="-118.5" font-family="Helvetica,sans-Serif" font-size="10.00">&#45;Display/EX&#45;Display/test</text>
<text text-anchor="start" x="2888" y="-107.5" font-family="Helvetica,sans-Serif" font-size="10.00">/unit/test_InputManager</text>
<text text-anchor="middle" x="2947" y="-96.5" font-family="Helvetica,sans-Serif" font-size="10.00">/test_main.cpp</text>
</a>
</g>
</g>
<!-- Node17&#45;&gt;Node27 -->
<g id="edge32" class="edge">
<title>Node17&#45;&gt;Node27</title>
<path fill="none" stroke="midnightblue" d="M2230.46,-181.92C2238.05,-180.43 2245.64,-179.08 2253,-178 2525.2,-137.95 2600.87,-194.22 2871,-142 2873.87,-141.45 2876.78,-140.81 2879.7,-140.11"/>
<polygon fill="midnightblue" stroke="midnightblue" points="2229.59,-178.53 2220.51,-183.98 2231.01,-185.39 2229.59,-178.53"/>
</g>
<!-- Node28 -->
<g id="node28" class="node">
<title>Node28</title>
<g id="a_node28"><a xlink:href="unit_2test__Screen_2test__main_8cpp.html" target="_top" xlink:title=" ">
<polygon fill="white" stroke="black" points="3032,-95 3032,-136 3202,-136 3202,-95 3032,-95"/>
<text text-anchor="start" x="3040" y="-124" font-family="Helvetica,sans-Serif" font-size="10.00">/home/runner/work/EX</text>
<text text-anchor="start" x="3040" y="-113" font-family="Helvetica,sans-Serif" font-size="10.00">&#45;Display/EX&#45;Display/test</text>
<text text-anchor="middle" x="3117" y="-102" font-family="Helvetica,sans-Serif" font-size="10.00">/unit/test_Screen/test_main.cpp</text>
</a>
</g>
</g>
<!-- Node17&#45;&gt;Node28 -->
<g id="edge33" class="edge">
<title>Node17&#45;&gt;Node28</title>
<path fill="none" stroke="midnightblue" d="M2229.78,-181.96C2237.59,-180.43 2245.42,-179.07 2253,-178 2592.23,-130.08 2684.55,-195.16 3023,-142 3032.52,-140.5 3042.46,-138.41 3052.17,-136.06"/>
<polygon fill="midnightblue" stroke="midnightblue" points="2229,-178.55 2219.91,-183.99 2230.41,-185.41 2229,-178.55"/>
</g>
<!-- Node29 -->
<g id="node29" class="node">
<title>Node29</title>
<g id="a_node29"><a xlink:href="unit_2test__ScreenManager_2test__main_8cpp.html" target="_top" xlink:title=" ">
<polygon fill="white" stroke="black" points="3220.5,-89.5 3220.5,-141.5 3361.5,-141.5 3361.5,-89.5 3220.5,-89.5"/>
<text text-anchor="start" x="3228.5" y="-129.5" font-family="Helvetica,sans-Serif" font-size="10.00">/home/runner/work/EX</text>
<text text-anchor="start" x="3228.5" y="-118.5" font-family="Helvetica,sans-Serif" font-size="10.00">&#45;Display/EX&#45;Display/test</text>
<text text-anchor="start" x="3228.5" y="-107.5" font-family="Helvetica,sans-Serif" font-size="10.00">/unit/test_ScreenManager</text>
<text text-anchor="middle" x="3291" y="-96.5" font-family="Helvetica,sans-Serif" font-size="10.00">/test_main.cpp</text>
</a>
</g>
</g>
<!-- Node17&#45;&gt;Node29 -->
<g id="edge34" class="edge">
<title>Node17&#45;&gt;Node29</title>
<path fill="none" stroke="midnightblue" d="M2229.56,-181.93C2237.45,-180.4 2245.35,-179.04 2253,-178 2675.16,-120.33 2791.29,-215.37 3211,-142 3214.02,-141.47 3217.07,-140.86 3220.15,-140.18"/>
<polygon fill="midnightblue" stroke="midnightblue" points="2228.71,-178.53 2219.61,-183.96 2230.11,-185.39 2228.71,-178.53"/>
</g>
</g>
</svg>
