<?xml version="1.0" encoding="UTF-8" standalone="no"?>
<!DOCTYPE svg PUBLIC "-//W3C//DTD SVG 1.1//EN"
 "http://www.w3.org/Graphics/SVG/1.1/DTD/svg11.dtd">
<!-- Generated by graphviz version 2.43.0 (0)
 -->
<!-- Title: /home/runner/work/EX&#45;Display/EX&#45;Display/ScreenRow.h Pages: 1 -->
<svg width="1670pt" height="529pt"
 viewBox="0.00 0.00 1670.40 529.00" xmlns="http://www.w3.org/2000/svg" xmlns:xlink="http://www.w3.org/1999/xlink">
<g id="graph0" class="graph" transform="scale(1 1) rotate(0) translate(4 525)">
<title>/home/runner/work/EX&#45;Display/EX&#45;Display/ScreenRow.h</title>
<polygon fill="white" stroke="transparent" points="-4,4 -4,-525 1666.4,-525 1666.4,4 -4,4"/>
<!-- Node1 -->
<g id="node1" class="node">
<title>Node1</title>
<g id="a_node1"><a xlink:title=" ">
<polygon fill="#bfbfbf" stroke="black" points="1256.9,-490.5 1256.9,-520.5 1434.9,-520.5 1434.9,-490.5 1256.9,-490.5"/>
<text text-anchor="start" x="1264.9" y="-508.5" font-family="Helvetica,sans-Serif" font-size="10.00">/home/runner/work/EX</text>
<text text-anchor="middle" x="1345.9" y="-497.5" font-family="Helvetica,sans-Serif" font-size="10.00">&#45;Display/EX&#45;Display/ScreenRow.h</text>
</a>
</g>
</g>
<!-- Node2 -->
<g id="node2" class="node">
<title>Node2</title>
<g id="a_node2"><a xlink:href="Screen_8h.html" target="_top" xlink:title=" ">
<polygon fill="white" stroke="black" points="1170.9,-423.5 1170.9,-453.5 1328.9,-453.5 1328.9,-423.5 1170.9,-423.5"/>
<text text-anchor="start" x="1178.9" y="-441.5" font-family="Helvetica,sans-Serif" font-size="10.00">/home/runner/work/EX</text>
<text text-anchor="middle" x="1249.9" y="-430.5" font-family="Helvetica,sans-Serif" font-size="10.00">&#45;Display/EX&#45;Display/Screen.h</text>
</a>
</g>
</g>
<!-- Node1&#45;&gt;Node2 -->
<g id="edge1" class="edge">
<title>Node1&#45;&gt;Node2</title>
<path fill="none" stroke="midnightblue" d="M1316.7,-484.73C1301.85,-474.68 1284.14,-462.68 1270.69,-453.58"/>
<polygon fill="midnightblue" stroke="midnightblue" points="1314.82,-487.69 1325.07,-490.4 1318.75,-481.89 1314.82,-487.69"/>
</g>
<!-- Node57 -->
<g id="node23" class="node">
<title>Node57</title>
<g id="a_node23"><a xlink:href="ScreenRow_8cpp.html" target="_top" xlink:title=" ">
<polygon fill="white" stroke="black" points="1347.4,-423.5 1347.4,-453.5 1536.4,-453.5 1536.4,-423.5 1347.4,-423.5"/>
<text text-anchor="start" x="1355.4" y="-441.5" font-family="Helvetica,sans-Serif" font-size="10.00">/home/runner/work/EX</text>
<text text-anchor="middle" x="1441.9" y="-430.5" font-family="Helvetica,sans-Serif" font-size="10.00">&#45;Display/EX&#45;Display/ScreenRow.cpp</text>
</a>
</g>
</g>
<!-- Node1&#45;&gt;Node57 -->
<g id="edge44" class="edge">
<title>Node1&#45;&gt;Node57</title>
<path fill="none" stroke="midnightblue" d="M1375.09,-484.73C1389.95,-474.68 1407.66,-462.68 1421.11,-453.58"/>
<polygon fill="midnightblue" stroke="midnightblue" points="1373.05,-481.89 1366.73,-490.4 1376.97,-487.69 1373.05,-481.89"/>
</g>
<!-- Node3 -->
<g id="node3" class="node">
<title>Node3</title>
<g id="a_node3"><a xlink:href="DisplayInterface_8h.html" target="_top" xlink:title=" ">
<polygon fill="white" stroke="black" points="866.9,-345.5 866.9,-386.5 1018.9,-386.5 1018.9,-345.5 866.9,-345.5"/>
<text text-anchor="start" x="874.9" y="-374.5" font-family="Helvetica,sans-Serif" font-size="10.00">/home/runner/work/EX</text>
<text text-anchor="start" x="874.9" y="-363.5" font-family="Helvetica,sans-Serif" font-size="10.00">&#45;Display/EX&#45;Display/Display</text>
<text text-anchor="middle" x="942.9" y="-352.5" font-family="Helvetica,sans-Serif" font-size="10.00">Interface.h</text>
</a>
</g>
</g>
<!-- Node2&#45;&gt;Node3 -->
<g id="edge2" class="edge">
<title>Node2&#45;&gt;Node3</title>
<path fill="none" stroke="midnightblue" d="M1178.91,-421.2C1131.04,-410.21 1067.95,-395.72 1019.05,-384.49"/>
<polygon fill="midnightblue" stroke="midnightblue" points="1178.35,-424.66 1188.88,-423.49 1179.91,-417.84 1178.35,-424.66"/>
</g>
<!-- Node47 -->
<g id="node14" class="node">
<title>Node47</title>
<g id="a_node14"><a xlink:href="MockDisplay_8h.html" target="_top" xlink:title=" ">
<polygon fill="white" stroke="red" points="1106.9,-184 1106.9,-225 1240.9,-225 1240.9,-184 1106.9,-184"/>
<text text-anchor="start" x="1114.9" y="-213" font-family="Helvetica,sans-Serif" font-size="10.00">/home/runner/work/EX</text>
<text text-anchor="start" x="1114.9" y="-202" font-family="Helvetica,sans-Serif" font-size="10.00">&#45;Display/EX&#45;Display/test</text>
<text text-anchor="middle" x="1173.9" y="-191" font-family="Helvetica,sans-Serif" font-size="10.00">/mocks/MockDisplay.h</text>
</a>
</g>
</g>
<!-- Node2&#45;&gt;Node47 -->
<g id="edge41" class="edge">
<title>Node2&#45;&gt;Node47</title>
<path fill="none" stroke="midnightblue" d="M1242.08,-413.63C1227.02,-367.66 1194.25,-267.63 1180.35,-225.18"/>
<polygon fill="midnightblue" stroke="midnightblue" points="1238.82,-414.92 1245.26,-423.34 1245.47,-412.74 1238.82,-414.92"/>
</g>
<!-- Node48 -->
<g id="node15" class="node">
<title>Node48</title>
<g id="a_node15"><a xlink:href="test__DisplayInterface_8cpp.html" target="_top" xlink:title=" ">
<polygon fill="white" stroke="black" points="1195.9,-89.5 1195.9,-141.5 1329.9,-141.5 1329.9,-89.5 1195.9,-89.5"/>
<text text-anchor="start" x="1203.9" y="-129.5" font-family="Helvetica,sans-Serif" font-size="10.00">/home/runner/work/EX</text>
<text text-anchor="start" x="1203.9" y="-118.5" font-family="Helvetica,sans-Serif" font-size="10.00">&#45;Display/EX&#45;Display/test</text>
<text text-anchor="start" x="1203.9" y="-107.5" font-family="Helvetica,sans-Serif" font-size="10.00">/unit/test_Display/test</text>
<text text-anchor="middle" x="1262.9" y="-96.5" font-family="Helvetica,sans-Serif" font-size="10.00">_DisplayInterface.cpp</text>
</a>
</g>
</g>
<!-- Node2&#45;&gt;Node48 -->
<g id="edge42" class="edge">
<title>Node2&#45;&gt;Node48</title>
<path fill="none" stroke="midnightblue" d="M1250.89,-412.99C1253.3,-353.52 1259.43,-202.04 1261.87,-141.78"/>
<polygon fill="midnightblue" stroke="midnightblue" points="1247.38,-413.16 1250.47,-423.29 1254.37,-413.44 1247.38,-413.16"/>
</g>
<!-- Node52 -->
<g id="node18" class="node">
<title>Node52</title>
<g id="a_node18"><a xlink:href="Screen_8cpp.html" target="_top" xlink:title=" ">
<polygon fill="white" stroke="black" points="1296.4,-351 1296.4,-381 1465.4,-381 1465.4,-351 1296.4,-351"/>
<text text-anchor="start" x="1304.4" y="-369" font-family="Helvetica,sans-Serif" font-size="10.00">/home/runner/work/EX</text>
<text text-anchor="middle" x="1380.9" y="-358" font-family="Helvetica,sans-Serif" font-size="10.00">&#45;Display/EX&#45;Display/Screen.cpp</text>
</a>
</g>
</g>
<!-- Node2&#45;&gt;Node52 -->
<g id="edge29" class="edge">
<title>Node2&#45;&gt;Node52</title>
<path fill="none" stroke="midnightblue" d="M1285.1,-418.56C1307.03,-406.76 1334.77,-391.83 1354.75,-381.07"/>
<polygon fill="midnightblue" stroke="midnightblue" points="1283.24,-415.58 1276.09,-423.4 1286.56,-421.75 1283.24,-415.58"/>
</g>
<!-- Node53 -->
<g id="node19" class="node">
<title>Node53</title>
<g id="a_node19"><a xlink:href="ScreenManager_8h.html" target="_top" xlink:title=" ">
<polygon fill="white" stroke="black" points="303.9,-273 303.9,-303 503.9,-303 503.9,-273 303.9,-273"/>
<text text-anchor="start" x="311.9" y="-291" font-family="Helvetica,sans-Serif" font-size="10.00">/home/runner/work/EX</text>
<text text-anchor="middle" x="403.9" y="-280" font-family="Helvetica,sans-Serif" font-size="10.00">&#45;Display/EX&#45;Display/ScreenManager.h</text>
</a>
</g>
</g>
<!-- Node2&#45;&gt;Node53 -->
<g id="edge30" class="edge">
<title>Node2&#45;&gt;Node53</title>
<path fill="none" stroke="midnightblue" d="M1160.77,-428.19C1081.11,-419.35 961.33,-404.79 857.9,-387 714.26,-362.29 547.13,-323.62 461.29,-303.02"/>
<polygon fill="midnightblue" stroke="midnightblue" points="1160.44,-431.68 1170.77,-429.29 1161.21,-424.72 1160.44,-431.68"/>
</g>
<!-- Node56 -->
<g id="node22" class="node">
<title>Node56</title>
<g id="a_node22"><a xlink:href="test__Screen_8cpp.html" target="_top" xlink:title=" ">
<polygon fill="white" stroke="black" points="1483.4,-345.5 1483.4,-386.5 1662.4,-386.5 1662.4,-345.5 1483.4,-345.5"/>
<text text-anchor="start" x="1491.4" y="-374.5" font-family="Helvetica,sans-Serif" font-size="10.00">/home/runner/work/EX</text>
<text text-anchor="start" x="1491.4" y="-363.5" font-family="Helvetica,sans-Serif" font-size="10.00">&#45;Display/EX&#45;Display/test</text>
<text text-anchor="middle" x="1572.9" y="-352.5" font-family="Helvetica,sans-Serif" font-size="10.00">/unit/test_Screen/test_Screen.cpp</text>
</a>
</g>
</g>
<!-- Node2&#45;&gt;Node56 -->
<g id="edge43" class="edge">
<title>Node2&#45;&gt;Node56</title>
<path fill="none" stroke="midnightblue" d="M1323.99,-421.33C1371.43,-410.97 1433.27,-397.48 1483.44,-386.53"/>
<polygon fill="midnightblue" stroke="midnightblue" points="1323.12,-417.94 1314.1,-423.49 1324.61,-424.77 1323.12,-417.94"/>
</g>
<!-- Node4 -->
<g id="node4" class="node">
<title>Node4</title>
<g id="a_node4"><a xlink:href="DisplayManager_8h.html" target="_top" xlink:title=" ">
<polygon fill="white" stroke="red" points="774.9,-184 774.9,-225 926.9,-225 926.9,-184 774.9,-184"/>
<text text-anchor="start" x="782.9" y="-213" font-family="Helvetica,sans-Serif" font-size="10.00">/home/runner/work/EX</text>
<text text-anchor="start" x="782.9" y="-202" font-family="Helvetica,sans-Serif" font-size="10.00">&#45;Display/EX&#45;Display/Display</text>
<text text-anchor="middle" x="850.9" y="-191" font-family="Helvetica,sans-Serif" font-size="10.00">Manager.h</text>
</a>
</g>
</g>
<!-- Node3&#45;&gt;Node4 -->
<g id="edge3" class="edge">
<title>Node3&#45;&gt;Node4</title>
<path fill="none" stroke="midnightblue" d="M893.86,-339.68C882.28,-331.43 871.2,-321.19 863.9,-309 848.45,-283.21 847.57,-247.35 848.86,-225.32"/>
<polygon fill="midnightblue" stroke="midnightblue" points="892.07,-342.7 902.33,-345.34 895.96,-336.88 892.07,-342.7"/>
</g>
<!-- Node34 -->
<g id="node12" class="node">
<title>Node34</title>
<g id="a_node12"><a xlink:href="InputInterface_8h.html" target="_top" xlink:title=" ">
<polygon fill="white" stroke="red" points="623.4,-273 623.4,-303 816.4,-303 816.4,-273 623.4,-273"/>
<text text-anchor="start" x="631.4" y="-291" font-family="Helvetica,sans-Serif" font-size="10.00">/home/runner/work/EX</text>
<text text-anchor="middle" x="719.9" y="-280" font-family="Helvetica,sans-Serif" font-size="10.00">&#45;Display/EX&#45;Display/InputInterface.h</text>
</a>
</g>
</g>
<!-- Node3&#45;&gt;Node34 -->
<g id="edge15" class="edge">
<title>Node3&#45;&gt;Node34</title>
<path fill="none" stroke="midnightblue" d="M875.69,-342.1C838.46,-329.41 793.36,-314.04 761.29,-303.11"/>
<polygon fill="midnightblue" stroke="midnightblue" points="874.87,-345.52 885.47,-345.43 877.13,-338.89 874.87,-345.52"/>
</g>
<!-- Node36 -->
<g id="node13" class="node">
<title>Node36</title>
<g id="a_node13"><a xlink:href="InputManager_8h.html" target="_top" xlink:title=" ">
<polygon fill="white" stroke="red" points="527.4,-189.5 527.4,-219.5 718.4,-219.5 718.4,-189.5 527.4,-189.5"/>
<text text-anchor="start" x="535.4" y="-207.5" font-family="Helvetica,sans-Serif" font-size="10.00">/home/runner/work/EX</text>
<text text-anchor="middle" x="622.9" y="-196.5" font-family="Helvetica,sans-Serif" font-size="10.00">&#45;Display/EX&#45;Display/InputManager.h</text>
</a>
</g>
</g>
<!-- Node3&#45;&gt;Node36 -->
<g id="edge21" class="edge">
<title>Node3&#45;&gt;Node36</title>
<path fill="none" stroke="midnightblue" d="M856.7,-362.51C769.85,-357.96 644.41,-345.15 613.9,-309 592.61,-283.78 606.35,-241.73 615.93,-219.8"/>
<polygon fill="midnightblue" stroke="midnightblue" points="856.67,-366.01 866.83,-363.01 857.01,-359.02 856.67,-366.01"/>
</g>
<!-- Node3&#45;&gt;Node47 -->
<g id="edge22" class="edge">
<title>Node3&#45;&gt;Node47</title>
<path fill="none" stroke="midnightblue" d="M1029,-355.24C1086.89,-346.7 1155.81,-332 1173.9,-309 1192.56,-285.27 1186.73,-248.11 1180.51,-225.37"/>
<polygon fill="midnightblue" stroke="midnightblue" points="1028.48,-351.78 1019.07,-356.66 1029.47,-358.71 1028.48,-351.78"/>
</g>
<!-- Node49 -->
<g id="node16" class="node">
<title>Node49</title>
<g id="a_node16"><a xlink:href="MockSPIDisplay_8h.html" target="_top" xlink:title=" ">
<polygon fill="white" stroke="red" points="872.9,-267.5 872.9,-308.5 1012.9,-308.5 1012.9,-267.5 872.9,-267.5"/>
<text text-anchor="start" x="880.9" y="-296.5" font-family="Helvetica,sans-Serif" font-size="10.00">/home/runner/work/EX</text>
<text text-anchor="start" x="880.9" y="-285.5" font-family="Helvetica,sans-Serif" font-size="10.00">&#45;Display/EX&#45;Display/test</text>
<text text-anchor="middle" x="942.9" y="-274.5" font-family="Helvetica,sans-Serif" font-size="10.00">/mocks/MockSPIDisplay.h</text>
</a>
</g>
</g>
<!-- Node3&#45;&gt;Node49 -->
<g id="edge27" class="edge">
<title>Node3&#45;&gt;Node49</title>
<path fill="none" stroke="midnightblue" d="M942.9,-335.3C942.9,-326.3 942.9,-316.65 942.9,-308.51"/>
<polygon fill="midnightblue" stroke="midnightblue" points="939.4,-335.43 942.9,-345.43 946.4,-335.43 939.4,-335.43"/>
</g>
<!-- Node50 -->
<g id="node17" class="node">
<title>Node50</title>
<g id="a_node17"><a xlink:href="TFT__eSPIDisplay_8h.html" target="_top" xlink:title=" ">
<polygon fill="white" stroke="red" points="1031.4,-267.5 1031.4,-308.5 1164.4,-308.5 1164.4,-267.5 1031.4,-267.5"/>
<text text-anchor="start" x="1039.4" y="-296.5" font-family="Helvetica,sans-Serif" font-size="10.00">/home/runner/work/EX</text>
<text text-anchor="start" x="1039.4" y="-285.5" font-family="Helvetica,sans-Serif" font-size="10.00">&#45;Display/EX&#45;Display/TFT</text>
<text text-anchor="middle" x="1097.9" y="-274.5" font-family="Helvetica,sans-Serif" font-size="10.00">_eSPIDisplay.h</text>
</a>
</g>
</g>
<!-- Node3&#45;&gt;Node50 -->
<g id="edge28" class="edge">
<title>Node3&#45;&gt;Node50</title>
<path fill="none" stroke="midnightblue" d="M992.03,-340.91C1013.34,-330.46 1037.98,-318.38 1058.12,-308.51"/>
<polygon fill="midnightblue" stroke="midnightblue" points="990.25,-337.88 982.81,-345.43 993.33,-344.17 990.25,-337.88"/>
</g>
<!-- Node5 -->
<g id="node5" class="node">
<title>Node5</title>
<g id="a_node5"><a xlink:href="Configurator_8h.html" target="_top" xlink:title=" ">
<polygon fill="white" stroke="red" points="312.9,-11.5 312.9,-41.5 496.9,-41.5 496.9,-11.5 312.9,-11.5"/>
<text text-anchor="start" x="320.9" y="-29.5" font-family="Helvetica,sans-Serif" font-size="10.00">/home/runner/work/EX</text>
<text text-anchor="middle" x="404.9" y="-18.5" font-family="Helvetica,sans-Serif" font-size="10.00">&#45;Display/EX&#45;Display/Configurator.h</text>
</a>
</g>
</g>
<!-- Node4&#45;&gt;Node5 -->
<g id="edge4" class="edge">
<title>Node4&#45;&gt;Node5</title>
<path fill="none" stroke="midnightblue" d="M764.99,-185.14C752.57,-182.65 739.92,-180.19 727.9,-178 626.98,-159.58 585.41,-198.67 499.9,-142 476.77,-126.67 484.2,-110.7 466.9,-89 452.91,-71.46 434.37,-53.64 421.22,-41.73"/>
<polygon fill="midnightblue" stroke="midnightblue" points="764.4,-188.6 774.9,-187.15 765.79,-181.74 764.4,-188.6"/>
</g>
<!-- Node9 -->
<g id="node6" class="node">
<title>Node9</title>
<g id="a_node6"><a xlink:href="Controller_8h.html" target="_top" xlink:title=" ">
<polygon fill="white" stroke="red" points="508.9,-100.5 508.9,-130.5 680.9,-130.5 680.9,-100.5 508.9,-100.5"/>
<text text-anchor="start" x="516.9" y="-118.5" font-family="Helvetica,sans-Serif" font-size="10.00">/home/runner/work/EX</text>
<text text-anchor="middle" x="594.9" y="-107.5" font-family="Helvetica,sans-Serif" font-size="10.00">&#45;Display/EX&#45;Display/Controller.h</text>
</a>
</g>
</g>
<!-- Node4&#45;&gt;Node9 -->
<g id="edge5" class="edge">
<title>Node4&#45;&gt;Node9</title>
<path fill="none" stroke="midnightblue" d="M783.69,-180.66C736.91,-164.76 676.03,-144.07 636.23,-130.55"/>
<polygon fill="midnightblue" stroke="midnightblue" points="782.85,-184.07 793.45,-183.98 785.1,-177.44 782.85,-184.07"/>
</g>
<!-- Node11 -->
<g id="node7" class="node">
<title>Node11</title>
<g id="a_node7"><a xlink:href="test__ControllerDisplayUpdate_8cpp.html" target="_top" xlink:title=" ">
<polygon fill="white" stroke="black" points="927.9,-0.5 927.9,-52.5 1111.9,-52.5 1111.9,-0.5 927.9,-0.5"/>
<text text-anchor="start" x="935.9" y="-40.5" font-family="Helvetica,sans-Serif" font-size="10.00">/home/runner/work/EX</text>
<text text-anchor="start" x="935.9" y="-29.5" font-family="Helvetica,sans-Serif" font-size="10.00">&#45;Display/EX&#45;Display/test</text>
<text text-anchor="start" x="935.9" y="-18.5" font-family="Helvetica,sans-Serif" font-size="10.00">/integration/test_Controller</text>
<text text-anchor="middle" x="1019.9" y="-7.5" font-family="Helvetica,sans-Serif" font-size="10.00">/test_ControllerDisplayUpdate.cpp</text>
</a>
</g>
</g>
<!-- Node4&#45;&gt;Node11 -->
<g id="edge11" class="edge">
<title>Node4&#45;&gt;Node11</title>
<path fill="none" stroke="midnightblue" d="M851.73,-173.63C853.93,-148.4 860.73,-112.69 880.9,-89 894.24,-73.33 912.36,-61.5 931.1,-52.62"/>
<polygon fill="midnightblue" stroke="midnightblue" points="848.23,-173.52 851.05,-183.73 855.21,-173.99 848.23,-173.52"/>
</g>
<!-- Node12 -->
<g id="node8" class="node">
<title>Node12</title>
<g id="a_node8"><a xlink:href="test__ControllerInputAction_8cpp.html" target="_top" xlink:title=" ">
<polygon fill="white" stroke="black" points="668.4,-0.5 668.4,-52.5 835.4,-52.5 835.4,-0.5 668.4,-0.5"/>
<text text-anchor="start" x="676.4" y="-40.5" font-family="Helvetica,sans-Serif" font-size="10.00">/home/runner/work/EX</text>
<text text-anchor="start" x="676.4" y="-29.5" font-family="Helvetica,sans-Serif" font-size="10.00">&#45;Display/EX&#45;Display/test</text>
<text text-anchor="start" x="676.4" y="-18.5" font-family="Helvetica,sans-Serif" font-size="10.00">/integration/test_Controller</text>
<text text-anchor="middle" x="751.9" y="-7.5" font-family="Helvetica,sans-Serif" font-size="10.00">/test_ControllerInputAction.cpp</text>
</a>
</g>
</g>
<!-- Node4&#45;&gt;Node12 -->
<g id="edge12" class="edge">
<title>Node4&#45;&gt;Node12</title>
<path fill="none" stroke="midnightblue" d="M839.78,-174.3C830.26,-150.6 815.48,-116.7 798.9,-89 791.37,-76.43 781.74,-63.42 773.15,-52.61"/>
<polygon fill="midnightblue" stroke="midnightblue" points="836.6,-175.77 843.53,-183.78 843.11,-173.2 836.6,-175.77"/>
</g>
<!-- Node14 -->
<g id="node10" class="node">
<title>Node14</title>
<g id="a_node10"><a xlink:href="test__Controller_8cpp.html" target="_top" xlink:title=" ">
<polygon fill="white" stroke="black" points="515.4,-0.5 515.4,-52.5 650.4,-52.5 650.4,-0.5 515.4,-0.5"/>
<text text-anchor="start" x="523.4" y="-40.5" font-family="Helvetica,sans-Serif" font-size="10.00">/home/runner/work/EX</text>
<text text-anchor="start" x="523.4" y="-29.5" font-family="Helvetica,sans-Serif" font-size="10.00">&#45;Display/EX&#45;Display/test</text>
<text text-anchor="start" x="523.4" y="-18.5" font-family="Helvetica,sans-Serif" font-size="10.00">/unit/test_Controller/test</text>
<text text-anchor="middle" x="582.9" y="-7.5" font-family="Helvetica,sans-Serif" font-size="10.00">_Controller.cpp</text>
</a>
</g>
</g>
<!-- Node4&#45;&gt;Node14 -->
<g id="edge14" class="edge">
<title>Node4&#45;&gt;Node14</title>
<path fill="none" stroke="midnightblue" d="M816.76,-177.77C784.62,-153.89 734.83,-117.8 689.9,-89 670.23,-76.4 647.92,-63.38 628.77,-52.58"/>
<polygon fill="midnightblue" stroke="midnightblue" points="814.83,-180.69 824.94,-183.86 819.01,-175.08 814.83,-180.69"/>
</g>
<!-- Node18 -->
<g id="node11" class="node">
<title>Node18</title>
<g id="a_node11"><a xlink:href="test__DisplayScreens_8cpp.html" target="_top" xlink:title=" ">
<polygon fill="white" stroke="black" points="889.4,-89.5 889.4,-141.5 1028.4,-141.5 1028.4,-89.5 889.4,-89.5"/>
<text text-anchor="start" x="897.4" y="-129.5" font-family="Helvetica,sans-Serif" font-size="10.00">/home/runner/work/EX</text>
<text text-anchor="start" x="897.4" y="-118.5" font-family="Helvetica,sans-Serif" font-size="10.00">&#45;Display/EX&#45;Display/test</text>
<text text-anchor="start" x="897.4" y="-107.5" font-family="Helvetica,sans-Serif" font-size="10.00">/integration/test_Display</text>
<text text-anchor="middle" x="958.9" y="-96.5" font-family="Helvetica,sans-Serif" font-size="10.00">/test_DisplayScreens.cpp</text>
</a>
</g>
</g>
<!-- Node4&#45;&gt;Node18 -->
<g id="edge13" class="edge">
<title>Node4&#45;&gt;Node18</title>
<path fill="none" stroke="midnightblue" d="M883.14,-177.53C897.26,-166.15 913.76,-152.86 927.76,-141.58"/>
<polygon fill="midnightblue" stroke="midnightblue" points="880.73,-174.98 875.13,-183.98 885.12,-180.43 880.73,-174.98"/>
</g>
<!-- Node9&#45;&gt;Node5 -->
<g id="edge6" class="edge">
<title>Node9&#45;&gt;Node5</title>
<path fill="none" stroke="midnightblue" d="M554.8,-96.14C519.2,-79.84 467.92,-56.36 435.52,-41.52"/>
<polygon fill="midnightblue" stroke="midnightblue" points="553.4,-99.35 563.95,-100.33 556.31,-92.98 553.4,-99.35"/>
</g>
<!-- Node9&#45;&gt;Node11 -->
<g id="edge7" class="edge">
<title>Node9&#45;&gt;Node11</title>
<path fill="none" stroke="midnightblue" d="M673.57,-98.4C745.51,-83.67 851.95,-61.88 927.82,-46.35"/>
<polygon fill="midnightblue" stroke="midnightblue" points="672.75,-94.99 663.65,-100.43 674.15,-101.85 672.75,-94.99"/>
</g>
<!-- Node9&#45;&gt;Node12 -->
<g id="edge8" class="edge">
<title>Node9&#45;&gt;Node12</title>
<path fill="none" stroke="midnightblue" d="M629.41,-95.38C652.11,-82.79 682.07,-66.2 706.67,-52.56"/>
<polygon fill="midnightblue" stroke="midnightblue" points="627.52,-92.42 620.47,-100.33 630.91,-98.54 627.52,-92.42"/>
</g>
<!-- Node13 -->
<g id="node9" class="node">
<title>Node13</title>
<g id="a_node9"><a xlink:href="test__ControllerScreenCreation_8cpp.html" target="_top" xlink:title=" ">
<polygon fill="white" stroke="black" points="5.9,-0.5 5.9,-52.5 191.9,-52.5 191.9,-0.5 5.9,-0.5"/>
<text text-anchor="start" x="13.9" y="-40.5" font-family="Helvetica,sans-Serif" font-size="10.00">/home/runner/work/EX</text>
<text text-anchor="start" x="13.9" y="-29.5" font-family="Helvetica,sans-Serif" font-size="10.00">&#45;Display/EX&#45;Display/test</text>
<text text-anchor="start" x="13.9" y="-18.5" font-family="Helvetica,sans-Serif" font-size="10.00">/integration/test_Controller</text>
<text text-anchor="middle" x="98.9" y="-7.5" font-family="Helvetica,sans-Serif" font-size="10.00">/test_ControllerScreenCreation.cpp</text>
</a>
</g>
</g>
<!-- Node9&#45;&gt;Node13 -->
<g id="edge9" class="edge">
<title>Node9&#45;&gt;Node13</title>
<path fill="none" stroke="midnightblue" d="M504.91,-98.72C416.4,-83.19 281.88,-59.6 192.24,-43.87"/>
<polygon fill="midnightblue" stroke="midnightblue" points="504.48,-102.19 514.93,-100.47 505.69,-95.3 504.48,-102.19"/>
</g>
<!-- Node9&#45;&gt;Node14 -->
<g id="edge10" class="edge">
<title>Node9&#45;&gt;Node14</title>
<path fill="none" stroke="midnightblue" d="M591.55,-90.2C589.94,-78.54 588.01,-64.58 586.39,-52.8"/>
<polygon fill="midnightblue" stroke="midnightblue" points="588.08,-90.71 592.92,-100.13 595.02,-89.75 588.08,-90.71"/>
</g>
<!-- Node34&#45;&gt;Node36 -->
<g id="edge16" class="edge">
<title>Node34&#45;&gt;Node36</title>
<path fill="none" stroke="midnightblue" d="M694.95,-266.04C677.56,-251.43 654.84,-232.34 639.6,-219.53"/>
<polygon fill="midnightblue" stroke="midnightblue" points="693.09,-269.05 703,-272.8 697.6,-263.69 693.09,-269.05"/>
</g>
<!-- Node36&#45;&gt;Node5 -->
<g id="edge17" class="edge">
<title>Node36&#45;&gt;Node5</title>
<path fill="none" stroke="midnightblue" d="M568.02,-185.93C541.95,-175.81 511.42,-161.24 487.9,-142 452.36,-112.93 424.45,-65.24 411.99,-41.64"/>
<polygon fill="midnightblue" stroke="midnightblue" points="566.81,-189.21 577.4,-189.45 569.27,-182.66 566.81,-189.21"/>
</g>
<!-- Node36&#45;&gt;Node9 -->
<g id="edge18" class="edge">
<title>Node36&#45;&gt;Node9</title>
<path fill="none" stroke="midnightblue" d="M615.19,-179.54C610.13,-163.82 603.69,-143.81 599.44,-130.6"/>
<polygon fill="midnightblue" stroke="midnightblue" points="611.88,-180.69 618.27,-189.13 618.54,-178.54 611.88,-180.69"/>
</g>
<!-- Node36&#45;&gt;Node12 -->
<g id="edge19" class="edge">
<title>Node36&#45;&gt;Node12</title>
<path fill="none" stroke="midnightblue" d="M649.37,-182.77C662.56,-171.61 678.16,-157.06 689.9,-142 711.86,-113.83 730.33,-76.82 741.25,-52.61"/>
<polygon fill="midnightblue" stroke="midnightblue" points="647,-180.19 641.53,-189.26 651.46,-185.59 647,-180.19"/>
</g>
<!-- Node36&#45;&gt;Node14 -->
<g id="edge20" class="edge">
<title>Node36&#45;&gt;Node14</title>
<path fill="none" stroke="midnightblue" d="M556.21,-185.74C534.42,-176.43 512.58,-162.52 499.9,-142 487.51,-121.96 489.3,-110.04 499.9,-89 507.32,-74.26 520.13,-62.18 533.49,-52.74"/>
<polygon fill="midnightblue" stroke="midnightblue" points="554.93,-189 565.52,-189.46 557.53,-182.5 554.93,-189"/>
</g>
<!-- Node47&#45;&gt;Node11 -->
<g id="edge23" class="edge">
<title>Node47&#45;&gt;Node11</title>
<path fill="none" stroke="midnightblue" d="M1162.01,-174.78C1150.84,-150.12 1132.33,-114.6 1108.9,-89 1096.22,-75.15 1079.86,-62.73 1064.64,-52.75"/>
<polygon fill="midnightblue" stroke="midnightblue" points="1158.83,-176.24 1166.07,-183.97 1165.24,-173.41 1158.83,-176.24"/>
</g>
<!-- Node47&#45;&gt;Node12 -->
<g id="edge24" class="edge">
<title>Node47&#45;&gt;Node12</title>
<path fill="none" stroke="midnightblue" d="M1144.01,-177.01C1107.73,-145.05 1049.88,-94.87 1037.9,-89 1002.84,-71.81 906.73,-53.09 835.55,-40.87"/>
<polygon fill="midnightblue" stroke="midnightblue" points="1142.03,-179.93 1151.84,-183.92 1146.66,-174.68 1142.03,-179.93"/>
</g>
<!-- Node47&#45;&gt;Node18 -->
<g id="edge25" class="edge">
<title>Node47&#45;&gt;Node18</title>
<path fill="none" stroke="midnightblue" d="M1116.32,-180.2C1086.86,-168.28 1050.96,-153.75 1020.89,-141.58"/>
<polygon fill="midnightblue" stroke="midnightblue" points="1115.06,-183.47 1125.65,-183.98 1117.69,-176.98 1115.06,-183.47"/>
</g>
<!-- Node47&#45;&gt;Node48 -->
<g id="edge26" class="edge">
<title>Node47&#45;&gt;Node48</title>
<path fill="none" stroke="midnightblue" d="M1201.28,-176.73C1212.66,-165.6 1225.81,-152.75 1237.03,-141.79"/>
<polygon fill="midnightblue" stroke="midnightblue" points="1198.8,-174.27 1194.09,-183.76 1203.69,-179.27 1198.8,-174.27"/>
</g>
<!-- Node53&#45;&gt;Node4 -->
<g id="edge33" class="edge">
<title>Node53&#45;&gt;Node4</title>
<path fill="none" stroke="midnightblue" d="M514.42,-273.16C585.27,-263.43 678.98,-248.96 760.9,-231 768.83,-229.26 777.1,-227.23 785.26,-225.08"/>
<polygon fill="midnightblue" stroke="midnightblue" points="513.57,-269.75 504.14,-274.57 514.52,-276.68 513.57,-269.75"/>
</g>
<!-- Node53&#45;&gt;Node5 -->
<g id="edge31" class="edge">
<title>Node53&#45;&gt;Node5</title>
<path fill="none" stroke="midnightblue" d="M293.64,-284.21C204.07,-279.34 87.85,-266.19 57.9,-231 16.99,-182.94 17.35,-137.36 57.9,-89 66.14,-79.17 212.58,-55.81 312.56,-40.88"/>
<polygon fill="midnightblue" stroke="midnightblue" points="293.7,-287.72 303.87,-284.74 294.06,-280.73 293.7,-287.72"/>
</g>
<!-- Node53&#45;&gt;Node9 -->
<g id="edge32" class="edge">
<title>Node53&#45;&gt;Node9</title>
<path fill="none" stroke="midnightblue" d="M336.61,-269.05C317.95,-260.64 299.83,-248.48 288.9,-231 276.41,-211.03 273.97,-196.22 288.9,-178 316.24,-144.62 427.98,-128.97 508.53,-121.91"/>
<polygon fill="midnightblue" stroke="midnightblue" points="335.5,-272.38 346.08,-273 338.2,-265.92 335.5,-272.38"/>
</g>
<!-- Node53&#45;&gt;Node11 -->
<g id="edge35" class="edge">
<title>Node53&#45;&gt;Node11</title>
<path fill="none" stroke="midnightblue" d="M514.12,-276.45C675.33,-260.95 956.98,-233.57 961.9,-231 1007.99,-206.89 1019.9,-190.8 1037.9,-142 1048.76,-112.55 1039.7,-76.47 1030.96,-52.78"/>
<polygon fill="midnightblue" stroke="midnightblue" points="513.77,-272.97 504.16,-277.41 514.44,-279.94 513.77,-272.97"/>
</g>
<!-- Node53&#45;&gt;Node12 -->
<g id="edge36" class="edge">
<title>Node53&#45;&gt;Node12</title>
<path fill="none" stroke="midnightblue" d="M514.08,-274.5C602.06,-263.46 713.01,-246.71 727.9,-231 773.9,-182.45 765.28,-95.46 757.45,-52.67"/>
<polygon fill="midnightblue" stroke="midnightblue" points="513.51,-271.05 504.02,-275.75 514.37,-277.99 513.51,-271.05"/>
</g>
<!-- Node53&#45;&gt;Node13 -->
<g id="edge37" class="edge">
<title>Node53&#45;&gt;Node13</title>
<path fill="none" stroke="midnightblue" d="M293.49,-286.05C194.56,-282.58 59.94,-270.46 25.9,-231 -15.33,-183.22 -0.72,-146.22 25.9,-89 32.61,-74.58 44.55,-62.32 56.86,-52.64"/>
<polygon fill="midnightblue" stroke="midnightblue" points="293.44,-289.55 303.55,-286.38 293.67,-282.55 293.44,-289.55"/>
</g>
<!-- Node53&#45;&gt;Node14 -->
<g id="edge39" class="edge">
<title>Node53&#45;&gt;Node14</title>
<path fill="none" stroke="midnightblue" d="M293.9,-284.48C182.43,-277.73 33.93,-254.66 90.9,-178 205.8,-23.39 322.23,-111.06 505.9,-53 508.99,-52.02 512.14,-51.02 515.33,-49.99"/>
<polygon fill="midnightblue" stroke="midnightblue" points="293.7,-287.98 303.88,-285.05 294.1,-280.99 293.7,-287.98"/>
</g>
<!-- Node53&#45;&gt;Node18 -->
<g id="edge38" class="edge">
<title>Node53&#45;&gt;Node18</title>
<path fill="none" stroke="midnightblue" d="M514,-276.22C668.68,-260.97 932.02,-234.53 935.9,-231 960.48,-208.61 963.01,-167.92 961.65,-141.56"/>
<polygon fill="midnightblue" stroke="midnightblue" points="513.59,-272.75 503.98,-277.21 514.27,-279.71 513.59,-272.75"/>
</g>
<!-- Node54 -->
<g id="node20" class="node">
<title>Node54</title>
<g id="a_node20"><a xlink:href="ScreenManager_8cpp.html" target="_top" xlink:title=" ">
<polygon fill="white" stroke="black" points="298.4,-189.5 298.4,-219.5 509.4,-219.5 509.4,-189.5 298.4,-189.5"/>
<text text-anchor="start" x="306.4" y="-207.5" font-family="Helvetica,sans-Serif" font-size="10.00">/home/runner/work/EX</text>
<text text-anchor="middle" x="403.9" y="-196.5" font-family="Helvetica,sans-Serif" font-size="10.00">&#45;Display/EX&#45;Display/ScreenManager.cpp</text>
</a>
</g>
</g>
<!-- Node53&#45;&gt;Node54 -->
<g id="edge34" class="edge">
<title>Node53&#45;&gt;Node54</title>
<path fill="none" stroke="midnightblue" d="M403.9,-262.78C403.9,-248.68 403.9,-231.4 403.9,-219.53"/>
<polygon fill="midnightblue" stroke="midnightblue" points="400.4,-262.8 403.9,-272.8 407.4,-262.8 400.4,-262.8"/>
</g>
<!-- Node55 -->
<g id="node21" class="node">
<title>Node55</title>
<g id="a_node21"><a xlink:href="test__ScreenManager_8cpp.html" target="_top" xlink:title=" ">
<polygon fill="white" stroke="black" points="100.4,-178.5 100.4,-230.5 241.4,-230.5 241.4,-178.5 100.4,-178.5"/>
<text text-anchor="start" x="108.4" y="-218.5" font-family="Helvetica,sans-Serif" font-size="10.00">/home/runner/work/EX</text>
<text text-anchor="start" x="108.4" y="-207.5" font-family="Helvetica,sans-Serif" font-size="10.00">&#45;Display/EX&#45;Display/test</text>
<text text-anchor="start" x="108.4" y="-196.5" font-family="Helvetica,sans-Serif" font-size="10.00">/unit/test_ScreenManager</text>
<text text-anchor="middle" x="170.9" y="-185.5" font-family="Helvetica,sans-Serif" font-size="10.00">/test_ScreenManager.cpp</text>
</a>
</g>
</g>
<!-- Node53&#45;&gt;Node55 -->
<g id="edge40" class="edge">
<title>Node53&#45;&gt;Node55</title>
<path fill="none" stroke="midnightblue" d="M354.02,-269.55C321.21,-258.08 277.78,-242.89 241.45,-230.18"/>
<polygon fill="midnightblue" stroke="midnightblue" points="353.25,-272.99 363.84,-272.99 355.56,-266.38 353.25,-272.99"/>
</g>
</g>
</svg>
