<?xml version="1.0" encoding="UTF-8" standalone="no"?>
<!DOCTYPE svg PUBLIC "-//W3C//DTD SVG 1.1//EN"
 "http://www.w3.org/Graphics/SVG/1.1/DTD/svg11.dtd">
<!-- Generated by graphviz version 2.43.0 (0)
 -->
<!-- Title: /home/runner/work/EX&#45;Display/EX&#45;Display/Screen.h Pages: 1 -->
<svg width="3213pt" height="462pt"
 viewBox="0.00 0.00 3212.50 462.00" xmlns="http://www.w3.org/2000/svg" xmlns:xlink="http://www.w3.org/1999/xlink">
<g id="graph0" class="graph" transform="scale(1 1) rotate(0) translate(4 458)">
<title>/home/runner/work/EX&#45;Display/EX&#45;Display/Screen.h</title>
<polygon fill="white" stroke="transparent" points="-4,4 -4,-458 3208.5,-458 3208.5,4 -4,4"/>
<!-- Node1 -->
<g id="node1" class="node">
<title>Node1</title>
<g id="a_node1"><a xlink:title=" ">
<polygon fill="#bfbfbf" stroke="black" points="2669,-423.5 2669,-453.5 2827,-453.5 2827,-423.5 2669,-423.5"/>
<text text-anchor="start" x="2677" y="-441.5" font-family="Helvetica,sans-Serif" font-size="10.00">/home/runner/work/EX</text>
<text text-anchor="middle" x="2748" y="-430.5" font-family="Helvetica,sans-Serif" font-size="10.00">&#45;Display/EX&#45;Display/Screen.h</text>
</a>
</g>
</g>
<!-- Node2 -->
<g id="node2" class="node">
<title>Node2</title>
<g id="a_node2"><a xlink:href="DisplayInterface_8h.html" target="_top" xlink:title=" ">
<polygon fill="white" stroke="black" points="1310,-345.5 1310,-386.5 1462,-386.5 1462,-345.5 1310,-345.5"/>
<text text-anchor="start" x="1318" y="-374.5" font-family="Helvetica,sans-Serif" font-size="10.00">/home/runner/work/EX</text>
<text text-anchor="start" x="1318" y="-363.5" font-family="Helvetica,sans-Serif" font-size="10.00">&#45;Display/EX&#45;Display/Display</text>
<text text-anchor="middle" x="1386" y="-352.5" font-family="Helvetica,sans-Serif" font-size="10.00">Interface.h</text>
</a>
</g>
</g>
<!-- Node1&#45;&gt;Node2 -->
<g id="edge1" class="edge">
<title>Node1&#45;&gt;Node2</title>
<path fill="none" stroke="midnightblue" d="M2658.7,-432.88C2407.39,-419.87 1697.13,-383.1 1462.37,-370.95"/>
<polygon fill="midnightblue" stroke="midnightblue" points="2658.72,-436.38 2668.89,-433.4 2659.08,-429.39 2658.72,-436.38"/>
</g>
<!-- Node46 -->
<g id="node23" class="node">
<title>Node46</title>
<g id="a_node23"><a xlink:href="MockDisplay_8h.html" target="_top" xlink:title=" ">
<polygon fill="white" stroke="black" points="2032,-184 2032,-225 2166,-225 2166,-184 2032,-184"/>
<text text-anchor="start" x="2040" y="-213" font-family="Helvetica,sans-Serif" font-size="10.00">/home/runner/work/EX</text>
<text text-anchor="start" x="2040" y="-202" font-family="Helvetica,sans-Serif" font-size="10.00">&#45;Display/EX&#45;Display/test</text>
<text text-anchor="middle" x="2099" y="-191" font-family="Helvetica,sans-Serif" font-size="10.00">/mocks/MockDisplay.h</text>
</a>
</g>
</g>
<!-- Node1&#45;&gt;Node46 -->
<g id="edge61" class="edge">
<title>Node1&#45;&gt;Node46</title>
<path fill="none" stroke="midnightblue" d="M2698.8,-419.91C2579.93,-377.42 2277.79,-269.41 2153.59,-225.01"/>
<polygon fill="midnightblue" stroke="midnightblue" points="2697.78,-423.27 2708.38,-423.34 2700.14,-416.67 2697.78,-423.27"/>
</g>
<!-- Node47 -->
<g id="node24" class="node">
<title>Node47</title>
<g id="a_node24"><a xlink:href="test__DisplayInterface_8cpp.html" target="_top" xlink:title=" ">
<polygon fill="white" stroke="black" points="2573,-89.5 2573,-141.5 2707,-141.5 2707,-89.5 2573,-89.5"/>
<text text-anchor="start" x="2581" y="-129.5" font-family="Helvetica,sans-Serif" font-size="10.00">/home/runner/work/EX</text>
<text text-anchor="start" x="2581" y="-118.5" font-family="Helvetica,sans-Serif" font-size="10.00">&#45;Display/EX&#45;Display/test</text>
<text text-anchor="start" x="2581" y="-107.5" font-family="Helvetica,sans-Serif" font-size="10.00">/unit/test_Display/test</text>
<text text-anchor="middle" x="2640" y="-96.5" font-family="Helvetica,sans-Serif" font-size="10.00">_DisplayInterface.cpp</text>
</a>
</g>
</g>
<!-- Node1&#45;&gt;Node47 -->
<g id="edge62" class="edge">
<title>Node1&#45;&gt;Node47</title>
<path fill="none" stroke="midnightblue" d="M2743.66,-413.16C2734.82,-366.31 2712.47,-260.89 2677,-178 2671.66,-165.51 2664.16,-152.51 2657.3,-141.69"/>
<polygon fill="midnightblue" stroke="midnightblue" points="2740.27,-414.06 2745.53,-423.26 2747.15,-412.79 2740.27,-414.06"/>
</g>
<!-- Node51 -->
<g id="node28" class="node">
<title>Node51</title>
<g id="a_node28"><a xlink:href="Screen_8cpp.html" target="_top" xlink:title=" ">
<polygon fill="white" stroke="black" points="2838.5,-351 2838.5,-381 3007.5,-381 3007.5,-351 2838.5,-351"/>
<text text-anchor="start" x="2846.5" y="-369" font-family="Helvetica,sans-Serif" font-size="10.00">/home/runner/work/EX</text>
<text text-anchor="middle" x="2923" y="-358" font-family="Helvetica,sans-Serif" font-size="10.00">&#45;Display/EX&#45;Display/Screen.cpp</text>
</a>
</g>
</g>
<!-- Node1&#45;&gt;Node51 -->
<g id="edge49" class="edge">
<title>Node1&#45;&gt;Node51</title>
<path fill="none" stroke="midnightblue" d="M2792.3,-419.65C2821.99,-407.69 2860.54,-392.16 2888.07,-381.07"/>
<polygon fill="midnightblue" stroke="midnightblue" points="2790.96,-416.42 2782.99,-423.4 2793.58,-422.91 2790.96,-416.42"/>
</g>
<!-- Node52 -->
<g id="node29" class="node">
<title>Node52</title>
<g id="a_node29"><a xlink:href="ScreenManager_8h.html" target="_top" xlink:title=" ">
<polygon fill="white" stroke="black" points="2460,-273 2460,-303 2660,-303 2660,-273 2460,-273"/>
<text text-anchor="start" x="2468" y="-291" font-family="Helvetica,sans-Serif" font-size="10.00">/home/runner/work/EX</text>
<text text-anchor="middle" x="2560" y="-280" font-family="Helvetica,sans-Serif" font-size="10.00">&#45;Display/EX&#45;Display/ScreenManager.h</text>
</a>
</g>
</g>
<!-- Node1&#45;&gt;Node52 -->
<g id="edge50" class="edge">
<title>Node1&#45;&gt;Node52</title>
<path fill="none" stroke="midnightblue" d="M2721.77,-416.78C2682.98,-386.14 2611.34,-329.55 2577.97,-303.2"/>
<polygon fill="midnightblue" stroke="midnightblue" points="2719.96,-419.81 2729.97,-423.26 2724.3,-414.32 2719.96,-419.81"/>
</g>
<!-- Node55 -->
<g id="node32" class="node">
<title>Node55</title>
<g id="a_node32"><a xlink:href="test__Screen_8cpp.html" target="_top" xlink:title=" ">
<polygon fill="white" stroke="black" points="3025.5,-345.5 3025.5,-386.5 3204.5,-386.5 3204.5,-345.5 3025.5,-345.5"/>
<text text-anchor="start" x="3033.5" y="-374.5" font-family="Helvetica,sans-Serif" font-size="10.00">/home/runner/work/EX</text>
<text text-anchor="start" x="3033.5" y="-363.5" font-family="Helvetica,sans-Serif" font-size="10.00">&#45;Display/EX&#45;Display/test</text>
<text text-anchor="middle" x="3115" y="-352.5" font-family="Helvetica,sans-Serif" font-size="10.00">/unit/test_Screen/test_Screen.cpp</text>
</a>
</g>
</g>
<!-- Node1&#45;&gt;Node55 -->
<g id="edge63" class="edge">
<title>Node1&#45;&gt;Node55</title>
<path fill="none" stroke="midnightblue" d="M2834.58,-421.6C2887.34,-411.83 2956.11,-398.93 3017,-387 3019.73,-386.47 3022.5,-385.92 3025.29,-385.37"/>
<polygon fill="midnightblue" stroke="midnightblue" points="2833.78,-418.19 2824.59,-423.45 2835.06,-425.07 2833.78,-418.19"/>
</g>
<!-- Node3 -->
<g id="node3" class="node">
<title>Node3</title>
<g id="a_node3"><a xlink:href="DisplayManager_8h.html" target="_top" xlink:title=" ">
<polygon fill="white" stroke="black" points="1476,-184 1476,-225 1628,-225 1628,-184 1476,-184"/>
<text text-anchor="start" x="1484" y="-213" font-family="Helvetica,sans-Serif" font-size="10.00">/home/runner/work/EX</text>
<text text-anchor="start" x="1484" y="-202" font-family="Helvetica,sans-Serif" font-size="10.00">&#45;Display/EX&#45;Display/Display</text>
<text text-anchor="middle" x="1552" y="-191" font-family="Helvetica,sans-Serif" font-size="10.00">Manager.h</text>
</a>
</g>
</g>
<!-- Node2&#45;&gt;Node3 -->
<g id="edge2" class="edge">
<title>Node2&#45;&gt;Node3</title>
<path fill="none" stroke="midnightblue" d="M1425.77,-339.75C1438.82,-330.72 1453.03,-320.02 1465,-309 1493.66,-282.6 1521.74,-246.92 1537.93,-225.09"/>
<polygon fill="midnightblue" stroke="midnightblue" points="1423.7,-336.93 1417.4,-345.44 1427.64,-342.72 1423.7,-336.93"/>
</g>
<!-- Node33 -->
<g id="node16" class="node">
<title>Node33</title>
<g id="a_node16"><a xlink:href="InputInterface_8h.html" target="_top" xlink:title=" ">
<polygon fill="white" stroke="black" points="495.5,-273 495.5,-303 688.5,-303 688.5,-273 495.5,-273"/>
<text text-anchor="start" x="503.5" y="-291" font-family="Helvetica,sans-Serif" font-size="10.00">/home/runner/work/EX</text>
<text text-anchor="middle" x="592" y="-280" font-family="Helvetica,sans-Serif" font-size="10.00">&#45;Display/EX&#45;Display/InputInterface.h</text>
</a>
</g>
</g>
<!-- Node2&#45;&gt;Node33 -->
<g id="edge19" class="edge">
<title>Node2&#45;&gt;Node33</title>
<path fill="none" stroke="midnightblue" d="M1299.83,-356.75C1150.58,-342.47 844.98,-313.21 688.7,-298.26"/>
<polygon fill="midnightblue" stroke="midnightblue" points="1299.58,-360.24 1309.87,-357.71 1300.25,-353.28 1299.58,-360.24"/>
</g>
<!-- Node35 -->
<g id="node18" class="node">
<title>Node35</title>
<g id="a_node18"><a xlink:href="InputManager_8h.html" target="_top" xlink:title=" ">
<polygon fill="white" stroke="red" points="810.5,-189.5 810.5,-219.5 1001.5,-219.5 1001.5,-189.5 810.5,-189.5"/>
<text text-anchor="start" x="818.5" y="-207.5" font-family="Helvetica,sans-Serif" font-size="10.00">/home/runner/work/EX</text>
<text text-anchor="middle" x="906" y="-196.5" font-family="Helvetica,sans-Serif" font-size="10.00">&#45;Display/EX&#45;Display/InputManager.h</text>
</a>
</g>
</g>
<!-- Node2&#45;&gt;Node35 -->
<g id="edge35" class="edge">
<title>Node2&#45;&gt;Node35</title>
<path fill="none" stroke="midnightblue" d="M1343.54,-340.47C1303.91,-318.49 1242.56,-286.75 1186,-267 1123.86,-245.3 1051.2,-229.61 995.47,-219.51"/>
<polygon fill="midnightblue" stroke="midnightblue" points="1341.96,-343.59 1352.39,-345.42 1345.37,-337.48 1341.96,-343.59"/>
</g>
<!-- Node2&#45;&gt;Node46 -->
<g id="edge36" class="edge">
<title>Node2&#45;&gt;Node46</title>
<path fill="none" stroke="midnightblue" d="M1472.41,-345.67C1616.3,-313.48 1901.99,-249.57 2031.9,-220.51"/>
<polygon fill="midnightblue" stroke="midnightblue" points="1471.3,-342.33 1462.3,-347.93 1472.83,-349.16 1471.3,-342.33"/>
</g>
<!-- Node48 -->
<g id="node25" class="node">
<title>Node48</title>
<g id="a_node25"><a xlink:href="MockSPIDisplay_8h.html" target="_top" xlink:title=" ">
<polygon fill="white" stroke="black" points="1316,-267.5 1316,-308.5 1456,-308.5 1456,-267.5 1316,-267.5"/>
<text text-anchor="start" x="1324" y="-296.5" font-family="Helvetica,sans-Serif" font-size="10.00">/home/runner/work/EX</text>
<text text-anchor="start" x="1324" y="-285.5" font-family="Helvetica,sans-Serif" font-size="10.00">&#45;Display/EX&#45;Display/test</text>
<text text-anchor="middle" x="1386" y="-274.5" font-family="Helvetica,sans-Serif" font-size="10.00">/mocks/MockSPIDisplay.h</text>
</a>
</g>
</g>
<!-- Node2&#45;&gt;Node48 -->
<g id="edge42" class="edge">
<title>Node2&#45;&gt;Node48</title>
<path fill="none" stroke="midnightblue" d="M1386,-335.3C1386,-326.3 1386,-316.65 1386,-308.51"/>
<polygon fill="midnightblue" stroke="midnightblue" points="1382.5,-335.43 1386,-345.43 1389.5,-335.43 1382.5,-335.43"/>
</g>
<!-- Node49 -->
<g id="node26" class="node">
<title>Node49</title>
<g id="a_node26"><a xlink:href="TFT__eSPIDisplay_8h.html" target="_top" xlink:title=" ">
<polygon fill="white" stroke="black" points="1044.5,-267.5 1044.5,-308.5 1177.5,-308.5 1177.5,-267.5 1044.5,-267.5"/>
<text text-anchor="start" x="1052.5" y="-296.5" font-family="Helvetica,sans-Serif" font-size="10.00">/home/runner/work/EX</text>
<text text-anchor="start" x="1052.5" y="-285.5" font-family="Helvetica,sans-Serif" font-size="10.00">&#45;Display/EX&#45;Display/TFT</text>
<text text-anchor="middle" x="1111" y="-274.5" font-family="Helvetica,sans-Serif" font-size="10.00">_eSPIDisplay.h</text>
</a>
</g>
</g>
<!-- Node2&#45;&gt;Node49 -->
<g id="edge44" class="edge">
<title>Node2&#45;&gt;Node49</title>
<path fill="none" stroke="midnightblue" d="M1305.32,-342.7C1264.77,-331.5 1216.22,-318.08 1177.79,-307.46"/>
<polygon fill="midnightblue" stroke="midnightblue" points="1304.61,-346.14 1315.18,-345.43 1306.47,-339.39 1304.61,-346.14"/>
</g>
<!-- Node4 -->
<g id="node4" class="node">
<title>Node4</title>
<g id="a_node4"><a xlink:href="Configurator_8h.html" target="_top" xlink:title=" ">
<polygon fill="white" stroke="red" points="1688,-11.5 1688,-41.5 1872,-41.5 1872,-11.5 1688,-11.5"/>
<text text-anchor="start" x="1696" y="-29.5" font-family="Helvetica,sans-Serif" font-size="10.00">/home/runner/work/EX</text>
<text text-anchor="middle" x="1780" y="-18.5" font-family="Helvetica,sans-Serif" font-size="10.00">&#45;Display/EX&#45;Display/Configurator.h</text>
</a>
</g>
</g>
<!-- Node3&#45;&gt;Node4 -->
<g id="edge3" class="edge">
<title>Node3&#45;&gt;Node4</title>
<path fill="none" stroke="midnightblue" d="M1637.98,-199.11C1680.96,-192.32 1730.24,-176.75 1761,-142 1785.97,-113.78 1784.6,-65.69 1782.05,-41.82"/>
<polygon fill="midnightblue" stroke="midnightblue" points="1637.45,-195.65 1628.06,-200.54 1638.45,-202.57 1637.45,-195.65"/>
</g>
<!-- Node8 -->
<g id="node5" class="node">
<title>Node8</title>
<g id="a_node5"><a xlink:href="Controller_8h.html" target="_top" xlink:title=" ">
<polygon fill="white" stroke="red" points="1580,-100.5 1580,-130.5 1752,-130.5 1752,-100.5 1580,-100.5"/>
<text text-anchor="start" x="1588" y="-118.5" font-family="Helvetica,sans-Serif" font-size="10.00">/home/runner/work/EX</text>
<text text-anchor="middle" x="1666" y="-107.5" font-family="Helvetica,sans-Serif" font-size="10.00">&#45;Display/EX&#45;Display/Controller.h</text>
</a>
</g>
</g>
<!-- Node3&#45;&gt;Node8 -->
<g id="edge4" class="edge">
<title>Node3&#45;&gt;Node8</title>
<path fill="none" stroke="midnightblue" d="M1585.65,-177.82C1605.9,-162.36 1630.91,-143.28 1647.59,-130.55"/>
<polygon fill="midnightblue" stroke="midnightblue" points="1583.41,-175.13 1577.58,-183.98 1587.66,-180.69 1583.41,-175.13"/>
</g>
<!-- Node10 -->
<g id="node6" class="node">
<title>Node10</title>
<g id="a_node6"><a xlink:href="test__ControllerDisplayUpdate_8cpp.html" target="_top" xlink:title=" ">
<polygon fill="white" stroke="black" points="2044,-0.5 2044,-52.5 2228,-52.5 2228,-0.5 2044,-0.5"/>
<text text-anchor="start" x="2052" y="-40.5" font-family="Helvetica,sans-Serif" font-size="10.00">/home/runner/work/EX</text>
<text text-anchor="start" x="2052" y="-29.5" font-family="Helvetica,sans-Serif" font-size="10.00">&#45;Display/EX&#45;Display/test</text>
<text text-anchor="start" x="2052" y="-18.5" font-family="Helvetica,sans-Serif" font-size="10.00">/integration/test_Controller</text>
<text text-anchor="middle" x="2136" y="-7.5" font-family="Helvetica,sans-Serif" font-size="10.00">/test_ControllerDisplayUpdate.cpp</text>
</a>
</g>
</g>
<!-- Node3&#45;&gt;Node10 -->
<g id="edge12" class="edge">
<title>Node3&#45;&gt;Node10</title>
<path fill="none" stroke="midnightblue" d="M1638.24,-192.42C1684.44,-183.71 1740.95,-168.45 1786,-142 1814.19,-125.45 1808.37,-104.78 1837,-89 1900.7,-53.89 1982.04,-38.75 2043.8,-32.26"/>
<polygon fill="midnightblue" stroke="midnightblue" points="1637.46,-189 1628.24,-194.23 1638.71,-195.89 1637.46,-189"/>
</g>
<!-- Node11 -->
<g id="node7" class="node">
<title>Node11</title>
<g id="a_node7"><a xlink:href="test__ControllerInputAction_8cpp.html" target="_top" xlink:title=" ">
<polygon fill="white" stroke="black" points="1502.5,-0.5 1502.5,-52.5 1669.5,-52.5 1669.5,-0.5 1502.5,-0.5"/>
<text text-anchor="start" x="1510.5" y="-40.5" font-family="Helvetica,sans-Serif" font-size="10.00">/home/runner/work/EX</text>
<text text-anchor="start" x="1510.5" y="-29.5" font-family="Helvetica,sans-Serif" font-size="10.00">&#45;Display/EX&#45;Display/test</text>
<text text-anchor="start" x="1510.5" y="-18.5" font-family="Helvetica,sans-Serif" font-size="10.00">/integration/test_Controller</text>
<text text-anchor="middle" x="1586" y="-7.5" font-family="Helvetica,sans-Serif" font-size="10.00">/test_ControllerInputAction.cpp</text>
</a>
</g>
</g>
<!-- Node3&#45;&gt;Node11 -->
<g id="edge13" class="edge">
<title>Node3&#45;&gt;Node11</title>
<path fill="none" stroke="midnightblue" d="M1556.27,-174.06C1559.77,-150.87 1565.11,-117.76 1571,-89 1573.47,-76.94 1576.65,-63.66 1579.44,-52.54"/>
<polygon fill="midnightblue" stroke="midnightblue" points="1552.8,-173.56 1554.79,-183.97 1559.72,-174.6 1552.8,-173.56"/>
</g>
<!-- Node13 -->
<g id="node9" class="node">
<title>Node13</title>
<g id="a_node9"><a xlink:href="test__Controller_8cpp.html" target="_top" xlink:title=" ">
<polygon fill="white" stroke="black" points="1349.5,-0.5 1349.5,-52.5 1484.5,-52.5 1484.5,-0.5 1349.5,-0.5"/>
<text text-anchor="start" x="1357.5" y="-40.5" font-family="Helvetica,sans-Serif" font-size="10.00">/home/runner/work/EX</text>
<text text-anchor="start" x="1357.5" y="-29.5" font-family="Helvetica,sans-Serif" font-size="10.00">&#45;Display/EX&#45;Display/test</text>
<text text-anchor="start" x="1357.5" y="-18.5" font-family="Helvetica,sans-Serif" font-size="10.00">/unit/test_Controller/test</text>
<text text-anchor="middle" x="1417" y="-7.5" font-family="Helvetica,sans-Serif" font-size="10.00">_Controller.cpp</text>
</a>
</g>
</g>
<!-- Node3&#45;&gt;Node13 -->
<g id="edge16" class="edge">
<title>Node3&#45;&gt;Node13</title>
<path fill="none" stroke="midnightblue" d="M1541.31,-174.34C1531.44,-149.92 1515.13,-114.98 1494,-89 1482.99,-75.46 1468.53,-62.95 1455.11,-52.79"/>
<polygon fill="midnightblue" stroke="midnightblue" points="1538.1,-175.76 1545.02,-183.79 1544.62,-173.2 1538.1,-175.76"/>
</g>
<!-- Node14 -->
<g id="node10" class="node">
<title>Node14</title>
<g id="a_node10"><a xlink:href="CreateUserDevices_8h.html" target="_top" xlink:title=" ">
<polygon fill="white" stroke="red" points="602,-95 602,-136 772,-136 772,-95 602,-95"/>
<text text-anchor="start" x="610" y="-124" font-family="Helvetica,sans-Serif" font-size="10.00">/home/runner/work/EX</text>
<text text-anchor="start" x="610" y="-113" font-family="Helvetica,sans-Serif" font-size="10.00">&#45;Display/EX&#45;Display/CreateUser</text>
<text text-anchor="middle" x="687" y="-102" font-family="Helvetica,sans-Serif" font-size="10.00">Devices.h</text>
</a>
</g>
</g>
<!-- Node3&#45;&gt;Node14 -->
<g id="edge10" class="edge">
<title>Node3&#45;&gt;Node14</title>
<path fill="none" stroke="midnightblue" d="M1465.7,-195.36C1412.46,-190.34 1342.77,-183.79 1281,-178 1109.45,-161.93 1066.31,-160.49 895,-142 854.58,-137.64 809.81,-132.23 772.2,-127.51"/>
<polygon fill="midnightblue" stroke="midnightblue" points="1465.5,-198.86 1475.78,-196.31 1466.15,-191.89 1465.5,-198.86"/>
</g>
<!-- Node16 -->
<g id="node11" class="node">
<title>Node16</title>
<g id="a_node11"><a xlink:href="DisplayManager_8cpp.html" target="_top" xlink:title=" ">
<polygon fill="white" stroke="black" points="1116,-95 1116,-136 1268,-136 1268,-95 1116,-95"/>
<text text-anchor="start" x="1124" y="-124" font-family="Helvetica,sans-Serif" font-size="10.00">/home/runner/work/EX</text>
<text text-anchor="start" x="1124" y="-113" font-family="Helvetica,sans-Serif" font-size="10.00">&#45;Display/EX&#45;Display/Display</text>
<text text-anchor="middle" x="1192" y="-102" font-family="Helvetica,sans-Serif" font-size="10.00">Manager.cpp</text>
</a>
</g>
</g>
<!-- Node3&#45;&gt;Node16 -->
<g id="edge11" class="edge">
<title>Node3&#45;&gt;Node16</title>
<path fill="none" stroke="midnightblue" d="M1465.83,-185.88C1411.44,-174.35 1339.83,-158.43 1277,-142 1269.99,-140.17 1262.7,-138.15 1255.45,-136.07"/>
<polygon fill="midnightblue" stroke="midnightblue" points="1465.27,-189.34 1475.78,-187.98 1466.72,-182.49 1465.27,-189.34"/>
</g>
<!-- Node17 -->
<g id="node12" class="node">
<title>Node17</title>
<g id="a_node12"><a xlink:href="test__DisplayScreens_8cpp.html" target="_top" xlink:title=" ">
<polygon fill="white" stroke="black" points="2009.5,-89.5 2009.5,-141.5 2148.5,-141.5 2148.5,-89.5 2009.5,-89.5"/>
<text text-anchor="start" x="2017.5" y="-129.5" font-family="Helvetica,sans-Serif" font-size="10.00">/home/runner/work/EX</text>
<text text-anchor="start" x="2017.5" y="-118.5" font-family="Helvetica,sans-Serif" font-size="10.00">&#45;Display/EX&#45;Display/test</text>
<text text-anchor="start" x="2017.5" y="-107.5" font-family="Helvetica,sans-Serif" font-size="10.00">/integration/test_Display</text>
<text text-anchor="middle" x="2079" y="-96.5" font-family="Helvetica,sans-Serif" font-size="10.00">/test_DisplayScreens.cpp</text>
</a>
</g>
</g>
<!-- Node3&#45;&gt;Node17 -->
<g id="edge14" class="edge">
<title>Node3&#45;&gt;Node17</title>
<path fill="none" stroke="midnightblue" d="M1638.22,-196.33C1729.23,-187.69 1876.47,-170.64 2001,-142 2003.78,-141.36 2006.6,-140.67 2009.43,-139.93"/>
<polygon fill="midnightblue" stroke="midnightblue" points="1637.85,-192.85 1628.22,-197.27 1638.51,-199.82 1637.85,-192.85"/>
</g>
<!-- Node18 -->
<g id="node13" class="node">
<title>Node18</title>
<g id="a_node13"><a xlink:href="MockDisplayInputMethods_8h.html" target="_top" xlink:title=" ">
<polygon fill="white" stroke="red" points="904,-95 904,-136 1098,-136 1098,-95 904,-95"/>
<text text-anchor="start" x="912" y="-124" font-family="Helvetica,sans-Serif" font-size="10.00">/home/runner/work/EX</text>
<text text-anchor="start" x="912" y="-113" font-family="Helvetica,sans-Serif" font-size="10.00">&#45;Display/EX&#45;Display/test</text>
<text text-anchor="middle" x="1001" y="-102" font-family="Helvetica,sans-Serif" font-size="10.00">/mocks/MockDisplayInputMethods.h</text>
</a>
</g>
</g>
<!-- Node3&#45;&gt;Node18 -->
<g id="edge15" class="edge">
<title>Node3&#45;&gt;Node18</title>
<path fill="none" stroke="midnightblue" d="M1465.49,-194.11C1375.52,-183.74 1230.79,-165.38 1107,-142 1097.7,-140.24 1087.99,-138.2 1078.38,-136.05"/>
<polygon fill="midnightblue" stroke="midnightblue" points="1465.31,-197.61 1475.64,-195.27 1466.11,-190.66 1465.31,-197.61"/>
</g>
<!-- Node31 -->
<g id="node14" class="node">
<title>Node31</title>
<g id="a_node14"><a xlink:href="test__DisplayManager_8cpp.html" target="_top" xlink:title=" ">
<polygon fill="white" stroke="black" points="1846.5,-89.5 1846.5,-141.5 1991.5,-141.5 1991.5,-89.5 1846.5,-89.5"/>
<text text-anchor="start" x="1854.5" y="-129.5" font-family="Helvetica,sans-Serif" font-size="10.00">/home/runner/work/EX</text>
<text text-anchor="start" x="1854.5" y="-118.5" font-family="Helvetica,sans-Serif" font-size="10.00">&#45;Display/EX&#45;Display/test</text>
<text text-anchor="start" x="1854.5" y="-107.5" font-family="Helvetica,sans-Serif" font-size="10.00">/unit/test_DisplayManager</text>
<text text-anchor="middle" x="1919" y="-96.5" font-family="Helvetica,sans-Serif" font-size="10.00">/test_DisplayManager.cpp</text>
</a>
</g>
</g>
<!-- Node3&#45;&gt;Node31 -->
<g id="edge17" class="edge">
<title>Node3&#45;&gt;Node31</title>
<path fill="none" stroke="midnightblue" d="M1637.9,-186.23C1693.49,-174.66 1767.3,-158.57 1832,-142 1836.73,-140.79 1841.58,-139.5 1846.47,-138.16"/>
<polygon fill="midnightblue" stroke="midnightblue" points="1637.18,-182.81 1628.09,-188.27 1638.6,-189.66 1637.18,-182.81"/>
</g>
<!-- Node32 -->
<g id="node15" class="node">
<title>Node32</title>
<g id="a_node15"><a xlink:href="test__DisplayManualSPISwitching_8cpp.html" target="_top" xlink:title=" ">
<polygon fill="white" stroke="black" points="1286.5,-89.5 1286.5,-141.5 1485.5,-141.5 1485.5,-89.5 1286.5,-89.5"/>
<text text-anchor="start" x="1294.5" y="-129.5" font-family="Helvetica,sans-Serif" font-size="10.00">/home/runner/work/EX</text>
<text text-anchor="start" x="1294.5" y="-118.5" font-family="Helvetica,sans-Serif" font-size="10.00">&#45;Display/EX&#45;Display/test</text>
<text text-anchor="start" x="1294.5" y="-107.5" font-family="Helvetica,sans-Serif" font-size="10.00">/unit/test_DisplayManager</text>
<text text-anchor="middle" x="1386" y="-96.5" font-family="Helvetica,sans-Serif" font-size="10.00">/test_DisplayManualSPISwitching.cpp</text>
</a>
</g>
</g>
<!-- Node3&#45;&gt;Node32 -->
<g id="edge18" class="edge">
<title>Node3&#45;&gt;Node32</title>
<path fill="none" stroke="midnightblue" d="M1505.76,-179.27C1483.36,-167.53 1456.48,-153.44 1433.86,-141.58"/>
<polygon fill="midnightblue" stroke="midnightblue" points="1504.26,-182.43 1514.75,-183.98 1507.51,-176.23 1504.26,-182.43"/>
</g>
<!-- Node8&#45;&gt;Node4 -->
<g id="edge5" class="edge">
<title>Node8&#45;&gt;Node4</title>
<path fill="none" stroke="midnightblue" d="M1692.53,-94.26C1713.67,-78.12 1742.73,-55.95 1761.44,-41.67"/>
<polygon fill="midnightblue" stroke="midnightblue" points="1690.4,-91.48 1684.57,-100.33 1694.64,-97.04 1690.4,-91.48"/>
</g>
<!-- Node8&#45;&gt;Node10 -->
<g id="edge6" class="edge">
<title>Node8&#45;&gt;Node10</title>
<path fill="none" stroke="midnightblue" d="M1751.64,-98.65C1834.29,-83.35 1959.04,-60.26 2043.82,-44.56"/>
<polygon fill="midnightblue" stroke="midnightblue" points="1750.97,-95.21 1741.77,-100.47 1752.24,-102.09 1750.97,-95.21"/>
</g>
<!-- Node8&#45;&gt;Node11 -->
<g id="edge7" class="edge">
<title>Node8&#45;&gt;Node11</title>
<path fill="none" stroke="midnightblue" d="M1645.92,-92.66C1634.78,-80.55 1620.88,-65.43 1609.26,-52.8"/>
<polygon fill="midnightblue" stroke="midnightblue" points="1643.44,-95.14 1652.79,-100.13 1648.6,-90.4 1643.44,-95.14"/>
</g>
<!-- Node12 -->
<g id="node8" class="node">
<title>Node12</title>
<g id="a_node8"><a xlink:href="test__ControllerScreenCreation_8cpp.html" target="_top" xlink:title=" ">
<polygon fill="white" stroke="black" points="2453,-0.5 2453,-52.5 2639,-52.5 2639,-0.5 2453,-0.5"/>
<text text-anchor="start" x="2461" y="-40.5" font-family="Helvetica,sans-Serif" font-size="10.00">/home/runner/work/EX</text>
<text text-anchor="start" x="2461" y="-29.5" font-family="Helvetica,sans-Serif" font-size="10.00">&#45;Display/EX&#45;Display/test</text>
<text text-anchor="start" x="2461" y="-18.5" font-family="Helvetica,sans-Serif" font-size="10.00">/integration/test_Controller</text>
<text text-anchor="middle" x="2546" y="-7.5" font-family="Helvetica,sans-Serif" font-size="10.00">/test_ControllerScreenCreation.cpp</text>
</a>
</g>
</g>
<!-- Node8&#45;&gt;Node12 -->
<g id="edge8" class="edge">
<title>Node8&#45;&gt;Node12</title>
<path fill="none" stroke="midnightblue" d="M1762.36,-99.07C1786.68,-95.47 1812.77,-91.86 1837,-89 1896.63,-81.97 2274.45,-50.16 2452.89,-35.25"/>
<polygon fill="midnightblue" stroke="midnightblue" points="1761.79,-95.62 1752.42,-100.56 1762.82,-102.54 1761.79,-95.62"/>
</g>
<!-- Node8&#45;&gt;Node13 -->
<g id="edge9" class="edge">
<title>Node8&#45;&gt;Node13</title>
<path fill="none" stroke="midnightblue" d="M1615.99,-97.03C1578.35,-83.87 1526.35,-65.7 1484.94,-51.24"/>
<polygon fill="midnightblue" stroke="midnightblue" points="1615.12,-100.43 1625.72,-100.43 1617.43,-93.82 1615.12,-100.43"/>
</g>
<!-- Node34 -->
<g id="node17" class="node">
<title>Node34</title>
<g id="a_node17"><a xlink:href="InputInterface_8cpp.html" target="_top" xlink:title=" ">
<polygon fill="white" stroke="black" points="0,-189.5 0,-219.5 204,-219.5 204,-189.5 0,-189.5"/>
<text text-anchor="start" x="8" y="-207.5" font-family="Helvetica,sans-Serif" font-size="10.00">/home/runner/work/EX</text>
<text text-anchor="middle" x="102" y="-196.5" font-family="Helvetica,sans-Serif" font-size="10.00">&#45;Display/EX&#45;Display/InputInterface.cpp</text>
</a>
</g>
</g>
<!-- Node33&#45;&gt;Node34 -->
<g id="edge20" class="edge">
<title>Node33&#45;&gt;Node34</title>
<path fill="none" stroke="midnightblue" d="M485.38,-273.54C409.23,-263.37 304.49,-248.24 213,-231 195.42,-227.69 176.39,-223.53 159.14,-219.54"/>
<polygon fill="midnightblue" stroke="midnightblue" points="485.09,-277.03 495.46,-274.88 486.01,-270.09 485.09,-277.03"/>
</g>
<!-- Node33&#45;&gt;Node35 -->
<g id="edge21" class="edge">
<title>Node33&#45;&gt;Node35</title>
<path fill="none" stroke="midnightblue" d="M655.72,-270.46C713.4,-255.49 797.46,-233.67 851.94,-219.53"/>
<polygon fill="midnightblue" stroke="midnightblue" points="654.78,-267.09 645.98,-272.99 656.54,-273.87 654.78,-267.09"/>
</g>
<!-- Node38 -->
<g id="node19" class="node">
<title>Node38</title>
<g id="a_node19"><a xlink:href="MockButtonInput_8h.html" target="_top" xlink:title=" ">
<polygon fill="white" stroke="red" points="222.5,-184 222.5,-225 369.5,-225 369.5,-184 222.5,-184"/>
<text text-anchor="start" x="230.5" y="-213" font-family="Helvetica,sans-Serif" font-size="10.00">/home/runner/work/EX</text>
<text text-anchor="start" x="230.5" y="-202" font-family="Helvetica,sans-Serif" font-size="10.00">&#45;Display/EX&#45;Display/test</text>
<text text-anchor="middle" x="296" y="-191" font-family="Helvetica,sans-Serif" font-size="10.00">/mocks/MockButtonInput.h</text>
</a>
</g>
</g>
<!-- Node33&#45;&gt;Node38 -->
<g id="edge28" class="edge">
<title>Node33&#45;&gt;Node38</title>
<path fill="none" stroke="midnightblue" d="M525.9,-270.37C483.75,-259.57 428.02,-244.97 379,-231 372.48,-229.14 365.68,-227.15 358.91,-225.12"/>
<polygon fill="midnightblue" stroke="midnightblue" points="525.22,-273.8 535.77,-272.89 526.95,-267.02 525.22,-273.8"/>
</g>
<!-- Node40 -->
<g id="node20" class="node">
<title>Node40</title>
<g id="a_node20"><a xlink:href="MockInput_8h.html" target="_top" xlink:title=" ">
<polygon fill="white" stroke="red" points="450,-95 450,-136 584,-136 584,-95 450,-95"/>
<text text-anchor="start" x="458" y="-124" font-family="Helvetica,sans-Serif" font-size="10.00">/home/runner/work/EX</text>
<text text-anchor="start" x="458" y="-113" font-family="Helvetica,sans-Serif" font-size="10.00">&#45;Display/EX&#45;Display/test</text>
<text text-anchor="middle" x="517" y="-102" font-family="Helvetica,sans-Serif" font-size="10.00">/mocks/MockInput.h</text>
</a>
</g>
</g>
<!-- Node33&#45;&gt;Node40 -->
<g id="edge29" class="edge">
<title>Node33&#45;&gt;Node40</title>
<path fill="none" stroke="midnightblue" d="M591.61,-262.59C590.38,-239.68 586.22,-204.98 573,-178 565.18,-162.05 551.95,-147.23 540.31,-136.14"/>
<polygon fill="midnightblue" stroke="midnightblue" points="588.12,-262.96 592.01,-272.81 595.12,-262.68 588.12,-262.96"/>
</g>
<!-- Node42 -->
<g id="node21" class="node">
<title>Node42</title>
<g id="a_node21"><a xlink:href="MockTouchScreenInput_8h.html" target="_top" xlink:title=" ">
<polygon fill="white" stroke="red" points="388,-184 388,-225 564,-225 564,-184 388,-184"/>
<text text-anchor="start" x="396" y="-213" font-family="Helvetica,sans-Serif" font-size="10.00">/home/runner/work/EX</text>
<text text-anchor="start" x="396" y="-202" font-family="Helvetica,sans-Serif" font-size="10.00">&#45;Display/EX&#45;Display/test</text>
<text text-anchor="middle" x="476" y="-191" font-family="Helvetica,sans-Serif" font-size="10.00">/mocks/MockTouchScreenInput.h</text>
</a>
</g>
</g>
<!-- Node33&#45;&gt;Node42 -->
<g id="edge32" class="edge">
<title>Node33&#45;&gt;Node42</title>
<path fill="none" stroke="midnightblue" d="M563.61,-267.06C545.45,-254.3 521.99,-237.81 503.92,-225.12"/>
<polygon fill="midnightblue" stroke="midnightblue" points="561.86,-270.1 572.06,-272.99 565.89,-264.38 561.86,-270.1"/>
</g>
<!-- Node44 -->
<g id="node22" class="node">
<title>Node44</title>
<g id="a_node22"><a xlink:href="TFT__eSPITouch_8h.html" target="_top" xlink:title=" ">
<polygon fill="white" stroke="red" points="620.5,-184 620.5,-225 753.5,-225 753.5,-184 620.5,-184"/>
<text text-anchor="start" x="628.5" y="-213" font-family="Helvetica,sans-Serif" font-size="10.00">/home/runner/work/EX</text>
<text text-anchor="start" x="628.5" y="-202" font-family="Helvetica,sans-Serif" font-size="10.00">&#45;Display/EX&#45;Display/TFT</text>
<text text-anchor="middle" x="687" y="-191" font-family="Helvetica,sans-Serif" font-size="10.00">_eSPITouch.h</text>
</a>
</g>
</g>
<!-- Node33&#45;&gt;Node44 -->
<g id="edge33" class="edge">
<title>Node33&#45;&gt;Node44</title>
<path fill="none" stroke="midnightblue" d="M616.29,-266.16C631.04,-253.5 649.77,-237.44 664.24,-225.03"/>
<polygon fill="midnightblue" stroke="midnightblue" points="613.86,-263.64 608.55,-272.8 618.42,-268.95 613.86,-263.64"/>
</g>
<!-- Node35&#45;&gt;Node4 -->
<g id="edge22" class="edge">
<title>Node35&#45;&gt;Node4</title>
<path fill="none" stroke="midnightblue" d="M894.38,-179.87C883.52,-153.98 872.11,-112.97 895,-89 925.08,-57.51 1634.91,-59.31 1678,-53 1695.88,-50.38 1715.19,-45.97 1732.14,-41.55"/>
<polygon fill="midnightblue" stroke="midnightblue" points="891.32,-181.6 898.6,-189.3 897.71,-178.74 891.32,-181.6"/>
</g>
<!-- Node35&#45;&gt;Node8 -->
<g id="edge23" class="edge">
<title>Node35&#45;&gt;Node8</title>
<path fill="none" stroke="midnightblue" d="M1011.99,-191.11C1049.28,-186.84 1091.49,-182.1 1130,-178 1291.66,-160.81 1332.66,-161.93 1494,-142 1522.01,-138.54 1552.51,-134.21 1579.93,-130.1"/>
<polygon fill="midnightblue" stroke="midnightblue" points="1011.15,-187.68 1001.61,-192.3 1011.95,-194.64 1011.15,-187.68"/>
</g>
<!-- Node35&#45;&gt;Node11 -->
<g id="edge25" class="edge">
<title>Node35&#45;&gt;Node11</title>
<path fill="none" stroke="midnightblue" d="M885.55,-181.76C864.29,-156.55 837.33,-115.12 862,-89 910.22,-37.95 1423.7,-64.35 1493,-53 1496.06,-52.5 1499.16,-51.94 1502.28,-51.33"/>
<polygon fill="midnightblue" stroke="midnightblue" points="882.96,-184.12 892.17,-189.34 888.22,-179.51 882.96,-184.12"/>
</g>
<!-- Node35&#45;&gt;Node13 -->
<g id="edge27" class="edge">
<title>Node35&#45;&gt;Node13</title>
<path fill="none" stroke="midnightblue" d="M866.27,-184.22C850.04,-174.09 833,-160 824,-142 813.47,-120.93 808.23,-106.49 824,-89 858.66,-50.56 1201.1,-34.65 1349.26,-29.52"/>
<polygon fill="midnightblue" stroke="midnightblue" points="864.75,-187.39 875.15,-189.44 868.3,-181.36 864.75,-187.39"/>
</g>
<!-- Node35&#45;&gt;Node14 -->
<g id="edge24" class="edge">
<title>Node35&#45;&gt;Node14</title>
<path fill="none" stroke="midnightblue" d="M860.96,-185.61C824.61,-171.17 773.55,-150.88 736.16,-136.03"/>
<polygon fill="midnightblue" stroke="midnightblue" points="859.74,-188.89 870.33,-189.33 862.33,-182.38 859.74,-188.89"/>
</g>
<!-- Node35&#45;&gt;Node18 -->
<g id="edge26" class="edge">
<title>Node35&#45;&gt;Node18</title>
<path fill="none" stroke="midnightblue" d="M929.25,-182.21C944.62,-168.13 964.62,-149.82 979.6,-136.1"/>
<polygon fill="midnightblue" stroke="midnightblue" points="926.7,-179.8 921.69,-189.13 931.43,-184.96 926.7,-179.8"/>
</g>
<!-- Node40&#45;&gt;Node11 -->
<g id="edge30" class="edge">
<title>Node40&#45;&gt;Node11</title>
<path fill="none" stroke="midnightblue" d="M578.65,-92.21C583.47,-90.96 588.29,-89.87 593,-89 986.72,-16.6 1097.41,-114.33 1493,-53 1496.06,-52.53 1499.16,-51.99 1502.29,-51.39"/>
<polygon fill="midnightblue" stroke="midnightblue" points="577.51,-88.89 568.82,-94.95 579.39,-95.64 577.51,-88.89"/>
</g>
<!-- Node40&#45;&gt;Node13 -->
<g id="edge31" class="edge">
<title>Node40&#45;&gt;Node13</title>
<path fill="none" stroke="midnightblue" d="M579.55,-92.16C584.07,-90.96 588.58,-89.89 593,-89 869.67,-33.17 1207.78,-26.83 1349.47,-26.89"/>
<polygon fill="midnightblue" stroke="midnightblue" points="578.36,-88.86 569.69,-94.95 580.27,-95.59 578.36,-88.86"/>
</g>
<!-- Node44&#45;&gt;Node14 -->
<g id="edge34" class="edge">
<title>Node44&#45;&gt;Node14</title>
<path fill="none" stroke="midnightblue" d="M687,-173.44C687,-161.1 687,-147.16 687,-136.16"/>
<polygon fill="midnightblue" stroke="midnightblue" points="683.5,-173.76 687,-183.76 690.5,-173.76 683.5,-173.76"/>
</g>
<!-- Node46&#45;&gt;Node10 -->
<g id="edge37" class="edge">
<title>Node46&#45;&gt;Node10</title>
<path fill="none" stroke="midnightblue" d="M2154.47,-178.78C2168.97,-169.45 2182.83,-157.3 2191,-142 2202.1,-121.22 2199.4,-111.01 2191,-89 2185.79,-75.35 2176,-62.82 2166.1,-52.67"/>
<polygon fill="midnightblue" stroke="midnightblue" points="2152.65,-175.79 2145.89,-183.95 2156.26,-181.79 2152.65,-175.79"/>
</g>
<!-- Node46&#45;&gt;Node11 -->
<g id="edge38" class="edge">
<title>Node46&#45;&gt;Node11</title>
<path fill="none" stroke="midnightblue" d="M2133.24,-176.79C2143.15,-167.03 2152.72,-155.13 2158,-142 2166.79,-120.15 2174.02,-106.27 2158,-89 2121.7,-49.87 1731.59,-62.1 1679,-53 1675.95,-52.47 1672.85,-51.89 1669.73,-51.26"/>
<polygon fill="midnightblue" stroke="midnightblue" points="2130.61,-174.45 2125.65,-183.82 2135.37,-179.59 2130.61,-174.45"/>
</g>
<!-- Node46&#45;&gt;Node17 -->
<g id="edge39" class="edge">
<title>Node46&#45;&gt;Node17</title>
<path fill="none" stroke="midnightblue" d="M2092.18,-173.84C2089.79,-163.42 2087.12,-151.81 2084.81,-141.79"/>
<polygon fill="midnightblue" stroke="midnightblue" points="2088.81,-174.8 2094.46,-183.76 2095.63,-173.23 2088.81,-174.8"/>
</g>
<!-- Node46&#45;&gt;Node31 -->
<g id="edge41" class="edge">
<title>Node46&#45;&gt;Node31</title>
<path fill="none" stroke="midnightblue" d="M2049.51,-179.58C2025.09,-167.78 1995.64,-153.54 1970.9,-141.58"/>
<polygon fill="midnightblue" stroke="midnightblue" points="2048.08,-182.77 2058.6,-183.98 2051.12,-176.47 2048.08,-182.77"/>
</g>
<!-- Node46&#45;&gt;Node47 -->
<g id="edge40" class="edge">
<title>Node46&#45;&gt;Node47</title>
<path fill="none" stroke="midnightblue" d="M2175.9,-190.56C2200.23,-186.5 2227.24,-182.03 2252,-178 2364.42,-159.72 2495.28,-139.12 2572.68,-127"/>
<polygon fill="midnightblue" stroke="midnightblue" points="2175.3,-187.11 2166.01,-192.21 2176.45,-194.02 2175.3,-187.11"/>
</g>
<!-- Node48&#45;&gt;Node32 -->
<g id="edge43" class="edge">
<title>Node48&#45;&gt;Node32</title>
<path fill="none" stroke="midnightblue" d="M1386,-257.13C1386,-224.36 1386,-172.36 1386,-141.61"/>
<polygon fill="midnightblue" stroke="midnightblue" points="1382.5,-257.44 1386,-267.44 1389.5,-257.44 1382.5,-257.44"/>
</g>
<!-- Node49&#45;&gt;Node14 -->
<g id="edge45" class="edge">
<title>Node49&#45;&gt;Node14</title>
<path fill="none" stroke="midnightblue" d="M1033.91,-279.64C955.08,-270.97 838.97,-254.68 801,-231 776.18,-215.53 782.13,-199.21 762,-178 747.4,-162.61 729,-147.47 714.08,-136.06"/>
<polygon fill="midnightblue" stroke="midnightblue" points="1033.97,-283.17 1044.29,-280.76 1034.72,-276.21 1033.97,-283.17"/>
</g>
<!-- Node49&#45;&gt;Node16 -->
<g id="edge46" class="edge">
<title>Node49&#45;&gt;Node16</title>
<path fill="none" stroke="midnightblue" d="M1111.35,-257.24C1112.73,-234.4 1117.11,-202.7 1130,-178 1138.49,-161.74 1152.8,-147.11 1165.54,-136.2"/>
<polygon fill="midnightblue" stroke="midnightblue" points="1107.85,-257.21 1110.9,-267.36 1114.84,-257.52 1107.85,-257.21"/>
</g>
<!-- Node49&#45;&gt;Node44 -->
<g id="edge48" class="edge">
<title>Node49&#45;&gt;Node44</title>
<path fill="none" stroke="midnightblue" d="M1034.32,-277.68C964.39,-268.43 858.5,-252.52 768,-231 760.69,-229.26 753.07,-227.2 745.56,-225.02"/>
<polygon fill="midnightblue" stroke="midnightblue" points="1034,-281.17 1044.37,-279 1034.91,-274.23 1034,-281.17"/>
</g>
<!-- Node50 -->
<g id="node27" class="node">
<title>Node50</title>
<g id="a_node27"><a xlink:href="TFT__eSPIDisplay_8cpp.html" target="_top" xlink:title=" ">
<polygon fill="white" stroke="black" points="1139.5,-184 1139.5,-225 1272.5,-225 1272.5,-184 1139.5,-184"/>
<text text-anchor="start" x="1147.5" y="-213" font-family="Helvetica,sans-Serif" font-size="10.00">/home/runner/work/EX</text>
<text text-anchor="start" x="1147.5" y="-202" font-family="Helvetica,sans-Serif" font-size="10.00">&#45;Display/EX&#45;Display/TFT</text>
<text text-anchor="middle" x="1206" y="-191" font-family="Helvetica,sans-Serif" font-size="10.00">_eSPIDisplay.cpp</text>
</a>
</g>
</g>
<!-- Node49&#45;&gt;Node50 -->
<g id="edge47" class="edge">
<title>Node49&#45;&gt;Node50</title>
<path fill="none" stroke="midnightblue" d="M1141.67,-260.69C1155.17,-249.1 1170.76,-235.73 1183.21,-225.05"/>
<polygon fill="midnightblue" stroke="midnightblue" points="1139.31,-258.1 1134,-267.27 1143.87,-263.42 1139.31,-258.1"/>
</g>
<!-- Node52&#45;&gt;Node3 -->
<g id="edge53" class="edge">
<title>Node52&#45;&gt;Node3</title>
<path fill="none" stroke="midnightblue" d="M2449.65,-279.02C2306.82,-268.58 2050.26,-249.44 1831,-231 1762.3,-225.22 1684.14,-218.02 1628.06,-212.75"/>
<polygon fill="midnightblue" stroke="midnightblue" points="2449.5,-282.52 2459.73,-279.76 2450.01,-275.54 2449.5,-282.52"/>
</g>
<!-- Node52&#45;&gt;Node4 -->
<g id="edge51" class="edge">
<title>Node52&#45;&gt;Node4</title>
<path fill="none" stroke="midnightblue" d="M2615.29,-268.52C2632.36,-259.91 2649.22,-247.77 2659,-231 2670.87,-210.65 2673.7,-196.41 2659,-178 2631.13,-143.1 2310.99,-96.75 2267,-89 2130.41,-64.93 1970.66,-46.61 1872.41,-36.45"/>
<polygon fill="midnightblue" stroke="midnightblue" points="2613.41,-265.53 2605.83,-272.94 2616.37,-271.87 2613.41,-265.53"/>
</g>
<!-- Node52&#45;&gt;Node8 -->
<g id="edge52" class="edge">
<title>Node52&#45;&gt;Node8</title>
<path fill="none" stroke="midnightblue" d="M2449.53,-282.15C2340.23,-275.79 2168.66,-261.61 2023,-231 1902.29,-205.63 1764.67,-155.08 1701.32,-130.53"/>
<polygon fill="midnightblue" stroke="midnightblue" points="2449.39,-285.65 2459.58,-282.72 2449.79,-278.66 2449.39,-285.65"/>
</g>
<!-- Node52&#45;&gt;Node10 -->
<g id="edge55" class="edge">
<title>Node52&#45;&gt;Node10</title>
<path fill="none" stroke="midnightblue" d="M2657.31,-269.44C2678.1,-261.15 2697.75,-248.95 2711,-231 2748.5,-180.19 2758.23,-135.95 2716,-89 2707.93,-80.03 2389.87,-50.28 2228.26,-35.7"/>
<polygon fill="midnightblue" stroke="midnightblue" points="2655.88,-266.24 2647.7,-272.98 2658.3,-272.81 2655.88,-266.24"/>
</g>
<!-- Node52&#45;&gt;Node11 -->
<g id="edge56" class="edge">
<title>Node52&#45;&gt;Node11</title>
<path fill="none" stroke="midnightblue" d="M2449.74,-280.2C2372.85,-273.07 2279.32,-258.85 2252,-231 2207.23,-185.36 2276.31,-132.01 2229,-89 2183.68,-47.81 1739.4,-63.15 1679,-53 1675.95,-52.49 1672.85,-51.91 1669.73,-51.29"/>
<polygon fill="midnightblue" stroke="midnightblue" points="2449.72,-283.71 2459.99,-281.11 2450.35,-276.74 2449.72,-283.71"/>
</g>
<!-- Node52&#45;&gt;Node12 -->
<g id="edge57" class="edge">
<title>Node52&#45;&gt;Node12</title>
<path fill="none" stroke="midnightblue" d="M2650.64,-270.84C2692.84,-261.28 2736.49,-247.76 2749,-231 2786.76,-180.43 2786.6,-139.68 2749,-89 2735.18,-70.37 2685.78,-55.18 2639.18,-44.56"/>
<polygon fill="midnightblue" stroke="midnightblue" points="2649.83,-267.43 2640.82,-273 2651.33,-274.27 2649.83,-267.43"/>
</g>
<!-- Node52&#45;&gt;Node13 -->
<g id="edge59" class="edge">
<title>Node52&#45;&gt;Node13</title>
<path fill="none" stroke="midnightblue" d="M2449.65,-278.66C2368.32,-270.61 2266.14,-255.88 2232,-231 2174.48,-189.09 2217.83,-127.54 2158,-89 2095.79,-48.93 1565.68,-66.9 1493,-53 1490.27,-52.48 1487.5,-51.88 1484.71,-51.22"/>
<polygon fill="midnightblue" stroke="midnightblue" points="2449.68,-282.18 2459.97,-279.66 2450.35,-275.22 2449.68,-282.18"/>
</g>
<!-- Node52&#45;&gt;Node17 -->
<g id="edge58" class="edge">
<title>Node52&#45;&gt;Node17</title>
<path fill="none" stroke="midnightblue" d="M2602.71,-267.63C2617.26,-258.7 2631.9,-246.57 2640,-231 2650.88,-210.11 2655.72,-195.54 2640,-178 2607.73,-142 2291.74,-124.95 2148.71,-119.03"/>
<polygon fill="midnightblue" stroke="midnightblue" points="2600.66,-264.78 2593.72,-272.78 2604.14,-270.85 2600.66,-264.78"/>
</g>
<!-- Node53 -->
<g id="node30" class="node">
<title>Node53</title>
<g id="a_node30"><a xlink:href="ScreenManager_8cpp.html" target="_top" xlink:title=" ">
<polygon fill="white" stroke="black" points="2260.5,-189.5 2260.5,-219.5 2471.5,-219.5 2471.5,-189.5 2260.5,-189.5"/>
<text text-anchor="start" x="2268.5" y="-207.5" font-family="Helvetica,sans-Serif" font-size="10.00">/home/runner/work/EX</text>
<text text-anchor="middle" x="2366" y="-196.5" font-family="Helvetica,sans-Serif" font-size="10.00">&#45;Display/EX&#45;Display/ScreenManager.cpp</text>
</a>
</g>
</g>
<!-- Node52&#45;&gt;Node53 -->
<g id="edge54" class="edge">
<title>Node52&#45;&gt;Node53</title>
<path fill="none" stroke="midnightblue" d="M2517.06,-268.96C2481.65,-254.09 2432.12,-233.28 2399.56,-219.6"/>
<polygon fill="midnightblue" stroke="midnightblue" points="2516.08,-272.34 2526.65,-272.99 2518.79,-265.89 2516.08,-272.34"/>
</g>
<!-- Node54 -->
<g id="node31" class="node">
<title>Node54</title>
<g id="a_node31"><a xlink:href="test__ScreenManager_8cpp.html" target="_top" xlink:title=" ">
<polygon fill="white" stroke="black" points="2489.5,-178.5 2489.5,-230.5 2630.5,-230.5 2630.5,-178.5 2489.5,-178.5"/>
<text text-anchor="start" x="2497.5" y="-218.5" font-family="Helvetica,sans-Serif" font-size="10.00">/home/runner/work/EX</text>
<text text-anchor="start" x="2497.5" y="-207.5" font-family="Helvetica,sans-Serif" font-size="10.00">&#45;Display/EX&#45;Display/test</text>
<text text-anchor="start" x="2497.5" y="-196.5" font-family="Helvetica,sans-Serif" font-size="10.00">/unit/test_ScreenManager</text>
<text text-anchor="middle" x="2560" y="-185.5" font-family="Helvetica,sans-Serif" font-size="10.00">/test_ScreenManager.cpp</text>
</a>
</g>
</g>
<!-- Node52&#45;&gt;Node54 -->
<g id="edge60" class="edge">
<title>Node52&#45;&gt;Node54</title>
<path fill="none" stroke="midnightblue" d="M2560,-262.65C2560,-252.57 2560,-240.89 2560,-230.72"/>
<polygon fill="midnightblue" stroke="midnightblue" points="2556.5,-262.8 2560,-272.8 2563.5,-262.8 2556.5,-262.8"/>
</g>
</g>
</svg>
