<?xml version="1.0" encoding="UTF-8" standalone="no"?>
<!DOCTYPE svg PUBLIC "-//W3C//DTD SVG 1.1//EN"
 "http://www.w3.org/Graphics/SVG/1.1/DTD/svg11.dtd">
<!-- Generated by graphviz version 2.43.0 (0)
 -->
<!-- Title: /home/runner/work/EX&#45;Display/EX&#45;Display/TFT_eSPIDisplay.h Pages: 1 -->
<svg width="320pt" height="330pt"
 viewBox="0.00 0.00 319.50 330.00" xmlns="http://www.w3.org/2000/svg" xmlns:xlink="http://www.w3.org/1999/xlink">
<g id="graph0" class="graph" transform="scale(1 1) rotate(0) translate(4 326)">
<title>/home/runner/work/EX&#45;Display/EX&#45;Display/TFT_eSPIDisplay.h</title>
<polygon fill="white" stroke="transparent" points="-4,4 -4,-326 315.5,-326 315.5,4 -4,4"/>
<!-- Node1 -->
<g id="node1" class="node">
<title>Node1</title>
<g id="a_node1"><a xlink:title=" ">
<polygon fill="#bfbfbf" stroke="black" points="91.5,-280.5 91.5,-321.5 224.5,-321.5 224.5,-280.5 91.5,-280.5"/>
<text text-anchor="start" x="99.5" y="-309.5" font-family="Helvetica,sans-Serif" font-size="10.00">/home/runner/work/EX</text>
<text text-anchor="start" x="99.5" y="-298.5" font-family="Helvetica,sans-Serif" font-size="10.00">&#45;Display/EX&#45;Display/TFT</text>
<text text-anchor="middle" x="158" y="-287.5" font-family="Helvetica,sans-Serif" font-size="10.00">_eSPIDisplay.h</text>
</a>
</g>
</g>
<!-- Node2 -->
<g id="node2" class="node">
<title>Node2</title>
<g id="a_node2"><a xlink:href="Defines_8h.html" target="_top" xlink:title=" ">
<polygon fill="white" stroke="black" points="0,-168.5 0,-187.5 62,-187.5 62,-168.5 0,-168.5"/>
<text text-anchor="middle" x="31" y="-175.5" font-family="Helvetica,sans-Serif" font-size="10.00">Defines.h</text>
</a>
</g>
</g>
<!-- Node1&#45;&gt;Node2 -->
<g id="edge1" class="edge">
<title>Node1&#45;&gt;Node2</title>
<path fill="none" stroke="midnightblue" d="M100.11,-280.47C81.87,-271.82 63.08,-259.9 50,-244 39.16,-230.82 34.5,-211.68 32.5,-197.58"/>
<polygon fill="midnightblue" stroke="midnightblue" points="35.97,-197.13 31.4,-187.57 29.02,-197.89 35.97,-197.13"/>
</g>
<!-- Node10 -->
<g id="node5" class="node">
<title>Node10</title>
<g id="a_node5"><a xlink:href="DisplayInterface_8h.html" target="_top" xlink:title=" ">
<polygon fill="white" stroke="black" points="59,-224.5 59,-243.5 165,-243.5 165,-224.5 59,-224.5"/>
<text text-anchor="middle" x="112" y="-231.5" font-family="Helvetica,sans-Serif" font-size="10.00">DisplayInterface.h</text>
</a>
</g>
</g>
<!-- Node1&#45;&gt;Node10 -->
<g id="edge4" class="edge">
<title>Node1&#45;&gt;Node10</title>
<path fill="none" stroke="midnightblue" d="M144.2,-280.5C137.76,-271.39 130.16,-260.66 123.97,-251.91"/>
<polygon fill="midnightblue" stroke="midnightblue" points="126.76,-249.79 118.12,-243.65 121.04,-253.84 126.76,-249.79"/>
</g>
<!-- Node13 -->
<g id="node8" class="node">
<title>Node13</title>
<g id="a_node8"><a xlink:title=" ">
<polygon fill="white" stroke="#bfbfbf" points="183.5,-224.5 183.5,-243.5 224.5,-243.5 224.5,-224.5 183.5,-224.5"/>
<text text-anchor="middle" x="204" y="-231.5" font-family="Helvetica,sans-Serif" font-size="10.00">SPI.h</text>
</a>
</g>
</g>
<!-- Node1&#45;&gt;Node13 -->
<g id="edge11" class="edge">
<title>Node1&#45;&gt;Node13</title>
<path fill="none" stroke="midnightblue" d="M171.8,-280.5C178.24,-271.39 185.84,-260.66 192.03,-251.91"/>
<polygon fill="midnightblue" stroke="midnightblue" points="194.96,-253.84 197.88,-243.65 189.24,-249.79 194.96,-253.84"/>
</g>
<!-- Node14 -->
<g id="node9" class="node">
<title>Node14</title>
<g id="a_node9"><a xlink:title=" ">
<polygon fill="white" stroke="#bfbfbf" points="242.5,-224.5 242.5,-243.5 311.5,-243.5 311.5,-224.5 242.5,-224.5"/>
<text text-anchor="middle" x="277" y="-231.5" font-family="Helvetica,sans-Serif" font-size="10.00">TFT_eSPI.h</text>
</a>
</g>
</g>
<!-- Node1&#45;&gt;Node14 -->
<g id="edge12" class="edge">
<title>Node1&#45;&gt;Node14</title>
<path fill="none" stroke="midnightblue" d="M193.7,-280.5C212.48,-270.24 235.03,-257.93 251.93,-248.69"/>
<polygon fill="midnightblue" stroke="midnightblue" points="254.06,-251.52 261.16,-243.65 250.71,-245.37 254.06,-251.52"/>
</g>
<!-- Node3 -->
<g id="node3" class="node">
<title>Node3</title>
<g id="a_node3"><a xlink:href="Logger_8h.html" target="_top" xlink:title=" ">
<polygon fill="white" stroke="black" points="67,-56.5 67,-75.5 125,-75.5 125,-56.5 67,-56.5"/>
<text text-anchor="middle" x="96" y="-63.5" font-family="Helvetica,sans-Serif" font-size="10.00">Logger.h</text>
</a>
</g>
</g>
<!-- Node2&#45;&gt;Node3 -->
<g id="edge2" class="edge">
<title>Node2&#45;&gt;Node3</title>
<path fill="none" stroke="midnightblue" d="M36.1,-168.37C46.78,-150.3 71.67,-108.18 85.77,-84.31"/>
<polygon fill="midnightblue" stroke="midnightblue" points="88.85,-85.98 90.92,-75.59 82.82,-82.42 88.85,-85.98"/>
</g>
<!-- Node4 -->
<g id="node4" class="node">
<title>Node4</title>
<g id="a_node4"><a xlink:href="Arduino_8h.html" target="_top" xlink:title=" ">
<polygon fill="white" stroke="red" points="126.5,-0.5 126.5,-19.5 189.5,-19.5 189.5,-0.5 126.5,-0.5"/>
<text text-anchor="middle" x="158" y="-7.5" font-family="Helvetica,sans-Serif" font-size="10.00">Arduino.h</text>
</a>
</g>
</g>
<!-- Node3&#45;&gt;Node4 -->
<g id="edge3" class="edge">
<title>Node3&#45;&gt;Node4</title>
<path fill="none" stroke="midnightblue" d="M105.96,-56.32C115.13,-48.34 128.94,-36.31 140.03,-26.65"/>
<polygon fill="midnightblue" stroke="midnightblue" points="142.62,-29.04 147.86,-19.83 138.02,-23.76 142.62,-29.04"/>
</g>
<!-- Node10&#45;&gt;Node3 -->
<g id="edge5" class="edge">
<title>Node10&#45;&gt;Node3</title>
<path fill="none" stroke="midnightblue" d="M111.14,-224.08C108.62,-197.95 101.23,-121.21 97.79,-85.58"/>
<polygon fill="midnightblue" stroke="midnightblue" points="101.27,-85.19 96.83,-75.57 94.3,-85.86 101.27,-85.19"/>
</g>
<!-- Node11 -->
<g id="node6" class="node">
<title>Node11</title>
<g id="a_node6"><a xlink:href="Screen_8h.html" target="_top" xlink:title=" ">
<polygon fill="white" stroke="black" points="128.5,-168.5 128.5,-187.5 187.5,-187.5 187.5,-168.5 128.5,-168.5"/>
<text text-anchor="middle" x="158" y="-175.5" font-family="Helvetica,sans-Serif" font-size="10.00">Screen.h</text>
</a>
</g>
</g>
<!-- Node10&#45;&gt;Node11 -->
<g id="edge6" class="edge">
<title>Node10&#45;&gt;Node11</title>
<path fill="none" stroke="midnightblue" d="M119.6,-224.08C126.23,-216.3 136.02,-204.8 144.06,-195.37"/>
<polygon fill="midnightblue" stroke="midnightblue" points="146.73,-197.63 150.55,-187.75 141.4,-193.09 146.73,-197.63"/>
</g>
<!-- Node11&#45;&gt;Node4 -->
<g id="edge10" class="edge">
<title>Node11&#45;&gt;Node4</title>
<path fill="none" stroke="midnightblue" d="M172.66,-168.4C184.41,-160.58 200.03,-147.86 207,-132 210.58,-123.86 208.99,-120.66 207,-112 199.79,-80.64 181.5,-47.72 169.42,-28.3"/>
<polygon fill="midnightblue" stroke="midnightblue" points="172.25,-26.22 163.91,-19.68 166.35,-29.99 172.25,-26.22"/>
</g>
<!-- Node12 -->
<g id="node7" class="node">
<title>Node12</title>
<g id="a_node7"><a xlink:href="ScreenRow_8h.html" target="_top" xlink:title=" ">
<polygon fill="white" stroke="black" points="118.5,-112.5 118.5,-131.5 197.5,-131.5 197.5,-112.5 118.5,-112.5"/>
<text text-anchor="middle" x="158" y="-119.5" font-family="Helvetica,sans-Serif" font-size="10.00">ScreenRow.h</text>
</a>
</g>
</g>
<!-- Node11&#45;&gt;Node12 -->
<g id="edge7" class="edge">
<title>Node11&#45;&gt;Node12</title>
<path fill="none" stroke="midnightblue" d="M158,-168.08C158,-161.01 158,-150.86 158,-141.99"/>
<polygon fill="midnightblue" stroke="midnightblue" points="161.5,-141.75 158,-131.75 154.5,-141.75 161.5,-141.75"/>
</g>
<!-- Node12&#45;&gt;Node3 -->
<g id="edge8" class="edge">
<title>Node12&#45;&gt;Node3</title>
<path fill="none" stroke="midnightblue" d="M148.04,-112.32C138.87,-104.34 125.06,-92.31 113.97,-82.65"/>
<polygon fill="midnightblue" stroke="midnightblue" points="115.98,-79.76 106.14,-75.83 111.38,-85.04 115.98,-79.76"/>
</g>
<!-- Node12&#45;&gt;Node4 -->
<g id="edge9" class="edge">
<title>Node12&#45;&gt;Node4</title>
<path fill="none" stroke="midnightblue" d="M158,-112.37C158,-94.62 158,-53.67 158,-29.6"/>
<polygon fill="midnightblue" stroke="midnightblue" points="161.5,-29.59 158,-19.59 154.5,-29.59 161.5,-29.59"/>
</g>
</g>
</svg>
