<?xml version="1.0" encoding="UTF-8" standalone="no"?>
<!DOCTYPE svg PUBLIC "-//W3C//DTD SVG 1.1//EN"
 "http://www.w3.org/Graphics/SVG/1.1/DTD/svg11.dtd">
<!-- Generated by graphviz version 2.43.0 (0)
 -->
<!-- Title: /home/runner/work/EX&#45;Display/EX&#45;Display/TFT_eSPITouch.h Pages: 1 -->
<!--zoomable 269 -->

<svg id="main" version="1.1" xmlns="http://www.w3.org/2000/svg" xmlns:xlink="http://www.w3.org/1999/xlink" xml:space="preserve" onload="init(evt)">
<style type="text/css"><![CDATA[
.node, .edge {opacity: 0.7;}
.node.selected, .edge.selected {opacity: 1;}
.edge:hover path { stroke: red; }
.edge:hover polygon { stroke: red; fill: red; }
]]></style>

<defs>
  <circle id="rim" cx="0" cy="0" r="7"/>
  <circle id="rim2" cx="0" cy="0" r="3.5"/>
  <g id="zoomPlus">
    <use xlink:href="#rim" fill="#404040"><set attributeName="fill" to="#808080" begin="zoomplus.mouseover" end="zoomplus.mouseout"/></use>
    <path d="M-4,0h8M0,-4v8" fill="none" stroke="white" stroke-width="1.5" pointer-events="none"/>
  </g>
  <g id="zoomMin">
    <use xlink:href="#rim" fill="#404040"><set attributeName="fill" to="#808080" begin="zoomminus.mouseover" end="zoomminus.mouseout"/></use>
    <path d="M-4,0h8" fill="none" stroke="white" stroke-width="1.5" pointer-events="none"/>
  </g>
  <g id="arrowUp" transform="translate(30 24)">
    <use xlink:href="#rim"/>
    <path pointer-events="none" fill="none" stroke="white" stroke-width="1.5" d="M0,-3.0v7 M-2.5,-0.5L0,-3.0L2.5,-0.5"/>
  </g>
  <g id="arrowRight" transform="rotate(90) translate(36 -43)">
    <use xlink:href="#rim"/>
    <path pointer-events="none" fill="none" stroke="white" stroke-width="1.5" d="M0,-3.0v7 M-2.5,-0.5L0,-3.0L2.5,-0.5"/>
  </g>
  <g id="arrowDown" transform="rotate(180) translate(-30 -48)">
    <use xlink:href="#rim"/>
    <path pointer-events="none" fill="none" stroke="white" stroke-width="1.5" d="M0,-3.0v7 M-2.5,-0.5L0,-3.0L2.5,-0.5"/>
  </g>
  <g id="arrowLeft" transform="rotate(270) translate(-36 17)">
    <use xlink:href="#rim"/>
    <path pointer-events="none" fill="none" stroke="white" stroke-width="1.5" d="M0,-3.0v7 M-2.5,-0.5L0,-3.0L2.5,-0.5"/>
  </g>
  <g id="resetDef">
    <use xlink:href="#rim2" fill="#404040"><set attributeName="fill" to="#808080" begin="reset.mouseover" end="reset.mouseout"/></use>
  </g>
</defs>
<script type="application/ecmascript">
var viewWidth = 569;
var viewHeight = 269;
var sectionId = 'dynsection-0';
</script>
<script type="application/ecmascript" xlink:href="svg.min.js"/>
<svg id="graph" class="graph">
<g id="viewport">
<title>/home/runner/work/EX&#45;Display/EX&#45;Display/TFT_eSPITouch.h</title>
<!-- Node1 -->
<g id="Node000001" class="node">
<title>Node1</title>
<g id="a_Node000001"><a xlink:title=" ">
<polygon fill="#999999" stroke="#666666" points="455.5,-261 322.5,-261 322.5,-220 455.5,-220 455.5,-261"/>
<text text-anchor="start" x="330.5" y="-249" font-family="Helvetica,sans-Serif" font-size="10.00">/home/runner/work/EX</text>
<text text-anchor="start" x="330.5" y="-238" font-family="Helvetica,sans-Serif" font-size="10.00">&#45;Display/EX&#45;Display/TFT</text>
<text text-anchor="middle" x="389" y="-227" font-family="Helvetica,sans-Serif" font-size="10.00">_eSPITouch.h</text>
</a>
</g>
</g>
<!-- Node2 -->
<g id="Node000002" class="node">
<title>Node2</title>
<g id="a_Node000002"><a xlink:href="Defines_8h.html" target="_top" xlink:title=" ">
<polygon fill="white" stroke="#666666" points="414,-129 352,-129 352,-110 414,-110 414,-129"/>
<text text-anchor="middle" x="383" y="-117" font-family="Helvetica,sans-Serif" font-size="10.00">Defines.h</text>
</a>
</g>
</g>
<!-- Node1&#45;&gt;Node2 -->
<g id="edge1_Node000001_Node000002" class="edge">
<title>Node1&#45;&gt;Node2</title>
<g id="a_edge1_Node000001_Node000002"><a xlink:title=" ">
<path fill="none" stroke="#63b8ff" d="M358.32,-219.99C346.53,-210.68 334.37,-198.4 328,-184 319.28,-164.28 338.97,-146.17 357.16,-134.37"/>
<polygon fill="#63b8ff" stroke="#63b8ff" points="359.11,-137.29 365.84,-129.11 355.48,-131.3 359.11,-137.29"/>
</a>
</g>
</g>
<!-- Node10 -->
<g id="Node000010" class="node">
<title>Node10</title>
<g id="a_Node000010"><a xlink:href="InputInterface_8h.html" target="_top" xlink:title=" ">
<polygon fill="white" stroke="#666666" points="247,-184 153,-184 153,-165 247,-165 247,-184"/>
<text text-anchor="middle" x="200" y="-172" font-family="Helvetica,sans-Serif" font-size="10.00">InputInterface.h</text>
</a>
</g>
</g>
<!-- Node1&#45;&gt;Node10 -->
<g id="edge4_Node000001_Node000010" class="edge">
<title>Node1&#45;&gt;Node10</title>
<g id="a_edge4_Node000001_Node000010"><a xlink:title=" ">
<path fill="none" stroke="#63b8ff" d="M331.27,-219.95C299.89,-209.32 262.1,-196.53 235.14,-187.4"/>
<polygon fill="#63b8ff" stroke="#63b8ff" points="235.97,-183.98 225.37,-184.09 233.72,-190.61 235.97,-183.98"/>
</a>
</g>
</g>
<!-- Node16 -->
<g id="Node000016" class="node">
<title>Node16</title>
<g id="a_Node000016"><a xlink:href="TFT__eSPIDisplay_8h.html" target="_top" xlink:title=" ">
<polygon fill="white" stroke="#666666" points="441,-184 337,-184 337,-165 441,-165 441,-184"/>
<text text-anchor="middle" x="389" y="-172" font-family="Helvetica,sans-Serif" font-size="10.00">TFT_eSPIDisplay.h</text>
</a>
</g>
</g>
<!-- Node1&#45;&gt;Node16 -->
<g id="edge15_Node000001_Node000016" class="edge">
<title>Node1&#45;&gt;Node16</title>
<g id="a_edge15_Node000001_Node000016"><a xlink:title=" ">
<path fill="none" stroke="#63b8ff" d="M389,-219.95C389,-211.85 389,-202.5 389,-194.47"/>
<polygon fill="#63b8ff" stroke="#63b8ff" points="392.5,-194.26 389,-184.26 385.5,-194.26 392.5,-194.26"/>
</a>
</g>
</g>
<!-- Node17 -->
<g id="Node000017" class="node">
<title>Node17</title>
<g id="a_Node000017"><a xlink:title=" ">
<polygon fill="#e0e0e0" stroke="#999999" points="473.5,-129 432.5,-129 432.5,-110 473.5,-110 473.5,-129"/>
<text text-anchor="middle" x="453" y="-117" font-family="Helvetica,sans-Serif" font-size="10.00">SPI.h</text>
</a>
</g>
</g>
<!-- Node1&#45;&gt;Node17 -->
<g id="edge20_Node000001_Node000017" class="edge">
<title>Node1&#45;&gt;Node17</title>
<g id="a_edge20_Node000001_Node000017"><a xlink:title=" ">
<path fill="none" stroke="#63b8ff" d="M419.35,-219.84C431.09,-210.5 443.29,-198.25 450,-184 456.54,-170.1 456.86,-152.54 455.78,-139.41"/>
<polygon fill="#63b8ff" stroke="#63b8ff" points="459.23,-138.74 454.6,-129.21 452.27,-139.55 459.23,-138.74"/>
</a>
</g>
</g>
<!-- Node18 -->
<g id="Node000018" class="node">
<title>Node18</title>
<g id="a_Node000018"><a xlink:title=" ">
<polygon fill="#e0e0e0" stroke="#999999" points="560.5,-129 491.5,-129 491.5,-110 560.5,-110 560.5,-129"/>
<text text-anchor="middle" x="526" y="-117" font-family="Helvetica,sans-Serif" font-size="10.00">TFT_eSPI.h</text>
</a>
</g>
</g>
<!-- Node1&#45;&gt;Node18 -->
<g id="edge21_Node000001_Node000018" class="edge">
<title>Node1&#45;&gt;Node18</title>
<g id="a_edge21_Node000001_Node000018"><a xlink:title=" ">
<path fill="none" stroke="#63b8ff" d="M419.71,-219.78C434.54,-209.74 452.26,-196.94 467,-184 483.7,-169.34 500.76,-150.47 512.22,-137.12"/>
<polygon fill="#63b8ff" stroke="#63b8ff" points="515.09,-139.14 518.87,-129.24 509.74,-134.62 515.09,-139.14"/>
</a>
</g>
</g>
<!-- Node3 -->
<g id="Node000003" class="node">
<title>Node3</title>
<g id="a_Node000003"><a xlink:href="Logger_8h.html" target="_top" xlink:title=" ">
<polygon fill="white" stroke="#666666" points="230,-74 172,-74 172,-55 230,-55 230,-74"/>
<text text-anchor="middle" x="201" y="-62" font-family="Helvetica,sans-Serif" font-size="10.00">Logger.h</text>
</a>
</g>
</g>
<!-- Node2&#45;&gt;Node3 -->
<g id="edge2_Node000002_Node000003" class="edge">
<title>Node2&#45;&gt;Node3</title>
<g id="a_edge2_Node000002_Node000003"><a xlink:title=" ">
<path fill="none" stroke="#63b8ff" d="M353.76,-109.98C322.85,-100.98 273.93,-86.74 239.81,-76.8"/>
<polygon fill="#63b8ff" stroke="#63b8ff" points="240.75,-73.43 230.17,-73.99 238.79,-80.15 240.75,-73.43"/>
</a>
</g>
</g>
<!-- Node4 -->
<g id="Node000004" class="node">
<title>Node4</title>
<g id="a_Node000004"><a xlink:href="Arduino_8h.html" target="_top" xlink:title=" ">
<polygon fill="#fff0f0" stroke="red" points="232.5,-19 169.5,-19 169.5,0 232.5,0 232.5,-19"/>
<text text-anchor="middle" x="201" y="-7" font-family="Helvetica,sans-Serif" font-size="10.00">Arduino.h</text>
</a>
</g>
</g>
<!-- Node3&#45;&gt;Node4 -->
<g id="edge3_Node000003_Node000004" class="edge">
<title>Node3&#45;&gt;Node4</title>
<g id="a_edge3_Node000003_Node000004"><a xlink:title=" ">
<path fill="none" stroke="#63b8ff" d="M201,-54.75C201,-47.8 201,-37.85 201,-29.13"/>
<polygon fill="#63b8ff" stroke="#63b8ff" points="204.5,-29.09 201,-19.09 197.5,-29.09 204.5,-29.09"/>
</a>
</g>
</g>
<!-- Node10&#45;&gt;Node3 -->
<g id="edge14_Node000010_Node000003" class="edge">
<title>Node10&#45;&gt;Node3</title>
<g id="a_edge14_Node000010_Node000003"><a xlink:title=" ">
<path fill="none" stroke="#63b8ff" d="M200.08,-164.66C200.24,-147.17 200.61,-107.8 200.83,-84.27"/>
<polygon fill="#63b8ff" stroke="#63b8ff" points="204.33,-84.19 200.92,-74.16 197.33,-84.13 204.33,-84.19"/>
</a>
</g>
</g>
<!-- Node11 -->
<g id="Node000011" class="node">
<title>Node11</title>
<g id="a_Node000011"><a xlink:href="CallbackInterface_8h.html" target="_top" xlink:title=" ">
<polygon fill="white" stroke="#666666" points="171.5,-129 60.5,-129 60.5,-110 171.5,-110 171.5,-129"/>
<text text-anchor="middle" x="116" y="-117" font-family="Helvetica,sans-Serif" font-size="10.00">CallbackInterface.h</text>
</a>
</g>
</g>
<!-- Node10&#45;&gt;Node11 -->
<g id="edge5_Node000010_Node000011" class="edge">
<title>Node10&#45;&gt;Node11</title>
<g id="a_edge5_Node000010_Node000011"><a xlink:title=" ">
<path fill="none" stroke="#63b8ff" d="M186.5,-164.98C173.6,-156.84 153.9,-144.41 138.6,-134.76"/>
<polygon fill="#63b8ff" stroke="#63b8ff" points="140.07,-131.55 129.74,-129.17 136.33,-137.47 140.07,-131.55"/>
</a>
</g>
</g>
<!-- Node12 -->
<g id="Node000012" class="node">
<title>Node12</title>
<g id="a_Node000012"><a xlink:href="InputActions_8h.html" target="_top" xlink:title=" ">
<polygon fill="white" stroke="#666666" points="86,-74 0,-74 0,-55 86,-55 86,-74"/>
<text text-anchor="middle" x="43" y="-62" font-family="Helvetica,sans-Serif" font-size="10.00">InputActions.h</text>
</a>
</g>
</g>
<!-- Node10&#45;&gt;Node12 -->
<g id="edge13_Node000010_Node000012" class="edge">
<title>Node10&#45;&gt;Node12</title>
<g id="a_edge13_Node000010_Node000012"><a xlink:title=" ">
<path fill="none" stroke="#63b8ff" d="M152.77,-172.32C119.22,-168.81 75.87,-158.35 51,-129 40.67,-116.81 39.42,-98.29 40.31,-84.39"/>
<polygon fill="#63b8ff" stroke="#63b8ff" points="43.83,-84.35 41.41,-74.04 36.87,-83.62 43.83,-84.35"/>
</a>
</g>
</g>
<!-- Node13 -->
<g id="Node000013" class="node">
<title>Node13</title>
<g id="a_Node000013"><a xlink:href="DisplayInterface_8h.html" target="_top" xlink:title=" ">
<polygon fill="white" stroke="#666666" points="334,-129 228,-129 228,-110 334,-110 334,-129"/>
<text text-anchor="middle" x="281" y="-117" font-family="Helvetica,sans-Serif" font-size="10.00">DisplayInterface.h</text>
</a>
</g>
</g>
<!-- Node10&#45;&gt;Node13 -->
<g id="edge9_Node000010_Node000013" class="edge">
<title>Node10&#45;&gt;Node13</title>
<g id="a_edge9_Node000010_Node000013"><a xlink:title=" ">
<path fill="none" stroke="#63b8ff" d="M213.01,-164.98C225.46,-156.84 244.46,-144.41 259.21,-134.76"/>
<polygon fill="#63b8ff" stroke="#63b8ff" points="261.3,-137.57 267.75,-129.17 257.46,-131.72 261.3,-137.57"/>
</a>
</g>
</g>
<!-- Node11&#45;&gt;Node3 -->
<g id="edge7_Node000011_Node000003" class="edge">
<title>Node11&#45;&gt;Node3</title>
<g id="a_edge7_Node000011_Node000003"><a xlink:title=" ">
<path fill="none" stroke="#63b8ff" d="M129.66,-109.98C142.84,-101.77 163.03,-89.18 178.57,-79.49"/>
<polygon fill="#63b8ff" stroke="#63b8ff" points="180.46,-82.43 187.09,-74.17 176.76,-76.49 180.46,-82.43"/>
</a>
</g>
</g>
<!-- Node11&#45;&gt;Node4 -->
<g id="edge8_Node000011_Node000004" class="edge">
<title>Node11&#45;&gt;Node4</title>
<g id="a_edge8_Node000011_Node000004"><a xlink:title=" ">
<path fill="none" stroke="#63b8ff" d="M122.2,-109.73C131.02,-97.34 147.8,-74.11 163,-55 170.59,-45.46 179.41,-35.09 186.65,-26.76"/>
<polygon fill="#63b8ff" stroke="#63b8ff" points="189.29,-29.04 193.25,-19.21 184.03,-24.43 189.29,-29.04"/>
</a>
</g>
</g>
<!-- Node11&#45;&gt;Node12 -->
<g id="edge6_Node000011_Node000012" class="edge">
<title>Node11&#45;&gt;Node12</title>
<g id="a_edge6_Node000011_Node000012"><a xlink:title=" ">
<path fill="none" stroke="#63b8ff" d="M104.27,-109.98C93.27,-102 76.58,-89.88 63.4,-80.31"/>
<polygon fill="#63b8ff" stroke="#63b8ff" points="65.09,-77.21 54.94,-74.17 60.98,-82.88 65.09,-77.21"/>
</a>
</g>
</g>
<!-- Node13&#45;&gt;Node3 -->
<g id="edge10_Node000013_Node000003" class="edge">
<title>Node13&#45;&gt;Node3</title>
<g id="a_edge10_Node000013_Node000003"><a xlink:title=" ">
<path fill="none" stroke="#63b8ff" d="M268.15,-109.98C255.86,-101.84 237.09,-89.41 222.52,-79.76"/>
<polygon fill="#63b8ff" stroke="#63b8ff" points="224.36,-76.78 214.09,-74.17 220.49,-82.61 224.36,-76.78"/>
</a>
</g>
</g>
<!-- Node14 -->
<g id="Node000014" class="node">
<title>Node14</title>
<g id="a_Node000014"><a xlink:href="Screen_8h.html" target="_top" xlink:title=" ">
<polygon fill="#fff0f0" stroke="red" points="309.5,-74 250.5,-74 250.5,-55 309.5,-55 309.5,-74"/>
<text text-anchor="middle" x="280" y="-62" font-family="Helvetica,sans-Serif" font-size="10.00">Screen.h</text>
</a>
</g>
</g>
<!-- Node13&#45;&gt;Node14 -->
<g id="edge11_Node000013_Node000014" class="edge">
<title>Node13&#45;&gt;Node14</title>
<g id="a_edge11_Node000013_Node000014"><a xlink:title=" ">
<path fill="none" stroke="#63b8ff" d="M280.83,-109.75C280.7,-102.8 280.52,-92.85 280.35,-84.13"/>
<polygon fill="#63b8ff" stroke="#63b8ff" points="283.85,-84.02 280.16,-74.09 276.85,-84.15 283.85,-84.02"/>
</a>
</g>
</g>
<!-- Node14&#45;&gt;Node4 -->
<g id="edge12_Node000014_Node000004" class="edge">
<title>Node14&#45;&gt;Node4</title>
<g id="a_edge12_Node000014_Node000004"><a xlink:title=" ">
<path fill="none" stroke="#63b8ff" d="M267.31,-54.98C255.17,-46.84 236.64,-34.41 222.25,-24.76"/>
<polygon fill="#63b8ff" stroke="#63b8ff" points="224.18,-21.84 213.92,-19.17 220.28,-27.65 224.18,-21.84"/>
</a>
</g>
</g>
<!-- Node16&#45;&gt;Node2 -->
<g id="edge16_Node000016_Node000002" class="edge">
<title>Node16&#45;&gt;Node2</title>
<g id="a_edge16_Node000016_Node000002"><a xlink:title=" ">
<path fill="none" stroke="#63b8ff" d="M388.01,-164.75C387.22,-157.8 386.1,-147.85 385.11,-139.13"/>
<polygon fill="#63b8ff" stroke="#63b8ff" points="388.58,-138.63 383.97,-129.09 381.62,-139.42 388.58,-138.63"/>
</a>
</g>
</g>
<!-- Node16&#45;&gt;Node13 -->
<g id="edge17_Node000016_Node000013" class="edge">
<title>Node16&#45;&gt;Node13</title>
<g id="a_edge17_Node000016_Node000013"><a xlink:title=" ">
<path fill="none" stroke="#63b8ff" d="M371.65,-164.98C354.43,-156.54 327.8,-143.47 307.85,-133.68"/>
<polygon fill="#63b8ff" stroke="#63b8ff" points="309.19,-130.43 298.67,-129.17 306.1,-136.72 309.19,-130.43"/>
</a>
</g>
</g>
<!-- Node16&#45;&gt;Node17 -->
<g id="edge18_Node000016_Node000017" class="edge">
<title>Node16&#45;&gt;Node17</title>
<g id="a_edge18_Node000016_Node000017"><a xlink:title=" ">
<path fill="none" stroke="#63b8ff" d="M399.28,-164.98C408.84,-157.07 423.28,-145.11 434.78,-135.58"/>
<polygon fill="#63b8ff" stroke="#63b8ff" points="437.06,-138.24 442.53,-129.17 432.6,-132.85 437.06,-138.24"/>
</a>
</g>
</g>
<!-- Node16&#45;&gt;Node18 -->
<g id="edge19_Node000016_Node000018" class="edge">
<title>Node16&#45;&gt;Node18</title>
<g id="a_edge19_Node000016_Node000018"><a xlink:title=" ">
<path fill="none" stroke="#63b8ff" d="M411.01,-164.98C433.45,-156.3 468.48,-142.75 493.99,-132.88"/>
<polygon fill="#63b8ff" stroke="#63b8ff" points="495.52,-136.04 503.59,-129.17 493,-129.51 495.52,-136.04"/>
</a>
</g>
</g>
</g>
</svg>

<g id="navigator" transform="translate(0 0)" fill="#404254">
  <rect fill="#f2f5e9" fill-opacity="0.5" stroke="#606060" stroke-width=".5" x="0" y="0" width="60" height="60"/>
  <use id="zoomplus" xlink:href="#zoomPlus" x="17" y="9" onmousedown="handleZoom(evt,'in')"/>
  <use id="zoomminus" xlink:href="#zoomMin" x="42" y="9" onmousedown="handleZoom(evt,'out')"/>
  <use id="reset" xlink:href="#resetDef" x="30" y="36" onmousedown="handleReset()"/>
   <use id="arrowup" xlink:href="#arrowUp" x="0" y="0" onmousedown="handlePan(0,-1)"/>
  <use id="arrowright" xlink:href="#arrowRight" x="0" y="0" onmousedown="handlePan(1,0)"/>
  <use id="arrowdown" xlink:href="#arrowDown" x="0" y="0" onmousedown="handlePan(0,1)"/>
  <use id="arrowleft" xlink:href="#arrowLeft" x="0" y="0" onmousedown="handlePan(-1,0)"/>
</g>
<svg viewBox="0 0 15 15" width="100%" height="30px" preserveAspectRatio="xMaxYMin meet">
 <g id="arrow_out" transform="scale(0.3 0.3)">
  <a xlink:href="TFT__eSPITouch_8h__incl_org.svg" target="_base">
   <rect id="button" ry="5" rx="5" y="6" x="6" height="38" width="38"
        fill="#f2f5e9" fill-opacity="0.5" stroke="#606060" stroke-width="1.0"/>
   <path id="arrow"
     d="M 11.500037,31.436501 C 11.940474,20.09759 22.043105,11.32322 32.158766,21.979434 L 37.068811,17.246167 C 37.068811,17.246167 37.088388,32 37.088388,32 L 22.160133,31.978069 C 22.160133,31.978069 26.997745,27.140456 26.997745,27.140456 C 18.528582,18.264221 13.291696,25.230495 11.500037,31.436501 z"
     style="fill:#404040;"/>
  </a>
 </g>
</svg>

<style type='text/css'>
<![CDATA[
[data-mouse-over-selected='false'] { opacity: 0.7; }
[data-mouse-over-selected='true']  { opacity: 1.0; }
]]>
</style>
<script type="application/ecmascript"><![CDATA[
document.addEventListener('DOMContentLoaded', (event) => {
  highlightEdges();
  highlightAdjacentNodes();
});
]]></script>
</svg>
