<?xml version="1.0" encoding="UTF-8" standalone="no"?>
<!DOCTYPE svg PUBLIC "-//W3C//DTD SVG 1.1//EN"
 "http://www.w3.org/Graphics/SVG/1.1/DTD/svg11.dtd">
<!-- Generated by graphviz version 2.43.0 (0)
 -->
<!-- Title: /home/runner/work/EX&#45;Display/EX&#45;Display/TFT_eSPIDisplay.cpp Pages: 1 -->
<svg width="341pt" height="218pt"
 viewBox="0.00 0.00 340.50 218.00" xmlns="http://www.w3.org/2000/svg" xmlns:xlink="http://www.w3.org/1999/xlink">
<g id="graph0" class="graph" transform="scale(1 1) rotate(0) translate(4 214)">
<title>/home/runner/work/EX&#45;Display/EX&#45;Display/TFT_eSPIDisplay.cpp</title>
<polygon fill="white" stroke="transparent" points="-4,4 -4,-214 336.5,-214 336.5,4 -4,4"/>
<!-- Node1 -->
<g id="node1" class="node">
<title>Node1</title>
<g id="a_node1"><a xlink:title=" ">
<polygon fill="#bfbfbf" stroke="black" points="112.5,-168.5 112.5,-209.5 245.5,-209.5 245.5,-168.5 112.5,-168.5"/>
<text text-anchor="start" x="120.5" y="-197.5" font-family="Helvetica,sans-Serif" font-size="10.00">/home/runner/work/EX</text>
<text text-anchor="start" x="120.5" y="-186.5" font-family="Helvetica,sans-Serif" font-size="10.00">&#45;Display/EX&#45;Display/TFT</text>
<text text-anchor="middle" x="179" y="-175.5" font-family="Helvetica,sans-Serif" font-size="10.00">_eSPIDisplay.cpp</text>
</a>
</g>
</g>
<!-- Node2 -->
<g id="node2" class="node">
<title>Node2</title>
<g id="a_node2"><a xlink:href="TFT__eSPIDisplay_8h.html" target="_top" xlink:title=" ">
<polygon fill="white" stroke="black" points="127,-112.5 127,-131.5 231,-131.5 231,-112.5 127,-112.5"/>
<text text-anchor="middle" x="179" y="-119.5" font-family="Helvetica,sans-Serif" font-size="10.00">TFT_eSPIDisplay.h</text>
</a>
</g>
</g>
<!-- Node1&#45;&gt;Node2 -->
<g id="edge1" class="edge">
<title>Node1&#45;&gt;Node2</title>
<path fill="none" stroke="midnightblue" d="M179,-168.5C179,-160.07 179,-150.24 179,-141.87"/>
<polygon fill="midnightblue" stroke="midnightblue" points="182.5,-141.65 179,-131.65 175.5,-141.65 182.5,-141.65"/>
</g>
<!-- Node3 -->
<g id="node3" class="node">
<title>Node3</title>
<g id="a_node3"><a xlink:href="Defines_8h.html" target="_top" xlink:title=" ">
<polygon fill="white" stroke="black" points="0,-56.5 0,-75.5 62,-75.5 62,-56.5 0,-56.5"/>
<text text-anchor="middle" x="31" y="-63.5" font-family="Helvetica,sans-Serif" font-size="10.00">Defines.h</text>
</a>
</g>
</g>
<!-- Node2&#45;&gt;Node3 -->
<g id="edge2" class="edge">
<title>Node2&#45;&gt;Node3</title>
<path fill="none" stroke="midnightblue" d="M155.55,-112.44C130.87,-103.44 91.81,-89.19 64.02,-79.05"/>
<polygon fill="midnightblue" stroke="midnightblue" points="64.94,-75.66 54.34,-75.52 62.54,-82.23 64.94,-75.66"/>
</g>
<!-- Node11 -->
<g id="node5" class="node">
<title>Node11</title>
<g id="a_node5"><a xlink:href="DisplayInterface_8h.html" target="_top" xlink:title=" ">
<polygon fill="white" stroke="black" points="80,-56.5 80,-75.5 186,-75.5 186,-56.5 80,-56.5"/>
<text text-anchor="middle" x="133" y="-63.5" font-family="Helvetica,sans-Serif" font-size="10.00">DisplayInterface.h</text>
</a>
</g>
</g>
<!-- Node2&#45;&gt;Node11 -->
<g id="edge4" class="edge">
<title>Node2&#45;&gt;Node11</title>
<path fill="none" stroke="midnightblue" d="M171.4,-112.08C164.77,-104.3 154.98,-92.8 146.94,-83.37"/>
<polygon fill="midnightblue" stroke="midnightblue" points="149.6,-81.09 140.45,-75.75 144.27,-85.63 149.6,-81.09"/>
</g>
<!-- Node12 -->
<g id="node6" class="node">
<title>Node12</title>
<g id="a_node6"><a xlink:title=" ">
<polygon fill="white" stroke="#bfbfbf" points="204.5,-56.5 204.5,-75.5 245.5,-75.5 245.5,-56.5 204.5,-56.5"/>
<text text-anchor="middle" x="225" y="-63.5" font-family="Helvetica,sans-Serif" font-size="10.00">SPI.h</text>
</a>
</g>
</g>
<!-- Node2&#45;&gt;Node12 -->
<g id="edge6" class="edge">
<title>Node2&#45;&gt;Node12</title>
<path fill="none" stroke="midnightblue" d="M186.6,-112.08C193.23,-104.3 203.02,-92.8 211.06,-83.37"/>
<polygon fill="midnightblue" stroke="midnightblue" points="213.73,-85.63 217.55,-75.75 208.4,-81.09 213.73,-85.63"/>
</g>
<!-- Node13 -->
<g id="node7" class="node">
<title>Node13</title>
<g id="a_node7"><a xlink:title=" ">
<polygon fill="white" stroke="#bfbfbf" points="263.5,-56.5 263.5,-75.5 332.5,-75.5 332.5,-56.5 263.5,-56.5"/>
<text text-anchor="middle" x="298" y="-63.5" font-family="Helvetica,sans-Serif" font-size="10.00">TFT_eSPI.h</text>
</a>
</g>
</g>
<!-- Node2&#45;&gt;Node13 -->
<g id="edge7" class="edge">
<title>Node2&#45;&gt;Node13</title>
<path fill="none" stroke="midnightblue" d="M197.86,-112.44C217.27,-103.64 247.73,-89.81 269.96,-79.72"/>
<polygon fill="midnightblue" stroke="midnightblue" points="271.57,-82.84 279.23,-75.52 268.68,-76.46 271.57,-82.84"/>
</g>
<!-- Node4 -->
<g id="node4" class="node">
<title>Node4</title>
<g id="a_node4"><a xlink:href="Logger_8h.html" target="_top" xlink:title=" ">
<polygon fill="white" stroke="red" points="53,-0.5 53,-19.5 111,-19.5 111,-0.5 53,-0.5"/>
<text text-anchor="middle" x="82" y="-7.5" font-family="Helvetica,sans-Serif" font-size="10.00">Logger.h</text>
</a>
</g>
</g>
<!-- Node3&#45;&gt;Node4 -->
<g id="edge3" class="edge">
<title>Node3&#45;&gt;Node4</title>
<path fill="none" stroke="midnightblue" d="M39.42,-56.08C46.85,-48.22 57.85,-36.57 66.81,-27.08"/>
<polygon fill="midnightblue" stroke="midnightblue" points="69.41,-29.42 73.74,-19.75 64.32,-24.62 69.41,-29.42"/>
</g>
<!-- Node11&#45;&gt;Node4 -->
<g id="edge5" class="edge">
<title>Node11&#45;&gt;Node4</title>
<path fill="none" stroke="midnightblue" d="M124.58,-56.08C117.15,-48.22 106.15,-36.57 97.19,-27.08"/>
<polygon fill="midnightblue" stroke="midnightblue" points="99.68,-24.62 90.26,-19.75 94.59,-29.42 99.68,-24.62"/>
</g>
</g>
</svg>
