<?xml version="1.0" encoding="UTF-8" standalone="no"?>
<!DOCTYPE svg PUBLIC "-//W3C//DTD SVG 1.1//EN"
 "http://www.w3.org/Graphics/SVG/1.1/DTD/svg11.dtd">
<!-- Generated by graphviz version 2.43.0 (0)
 -->
<!-- Title: /home/runner/work/EX&#45;Display/EX&#45;Display/TFT_eSPIDisplay.h Pages: 1 -->
<svg width="320pt" height="324pt"
 viewBox="0.00 0.00 319.50 324.00" xmlns="http://www.w3.org/2000/svg" xmlns:xlink="http://www.w3.org/1999/xlink">
<g id="graph0" class="graph" transform="scale(1 1) rotate(0) translate(4 320)">
<title>/home/runner/work/EX&#45;Display/EX&#45;Display/TFT_eSPIDisplay.h</title>
<!-- Node1 -->
<g id="Node000001" class="node">
<title>Node1</title>
<g id="a_Node000001"><a xlink:title=" ">
<polygon fill="#999999" stroke="#666666" points="224.5,-316 91.5,-316 91.5,-275 224.5,-275 224.5,-316"/>
<text text-anchor="start" x="99.5" y="-304" font-family="Helvetica,sans-Serif" font-size="10.00">/home/runner/work/EX</text>
<text text-anchor="start" x="99.5" y="-293" font-family="Helvetica,sans-Serif" font-size="10.00">&#45;Display/EX&#45;Display/TFT</text>
<text text-anchor="middle" x="158" y="-282" font-family="Helvetica,sans-Serif" font-size="10.00">_eSPIDisplay.h</text>
</a>
</g>
</g>
<!-- Node2 -->
<g id="Node000002" class="node">
<title>Node2</title>
<g id="a_Node000002"><a xlink:href="Defines_8h.html" target="_top" xlink:title=" ">
<polygon fill="white" stroke="#666666" points="62,-184 0,-184 0,-165 62,-165 62,-184"/>
<text text-anchor="middle" x="31" y="-172" font-family="Helvetica,sans-Serif" font-size="10.00">Defines.h</text>
</a>
</g>
</g>
<!-- Node1&#45;&gt;Node2 -->
<g id="edge1_Node000001_Node000002" class="edge">
<title>Node1&#45;&gt;Node2</title>
<g id="a_edge1_Node000001_Node000002"><a xlink:title=" ">
<path fill="none" stroke="#63b8ff" d="M99.61,-274.93C81.55,-266.38 63,-254.65 50,-239 39.54,-226.42 34.84,-208.22 32.73,-194.53"/>
<polygon fill="#63b8ff" stroke="#63b8ff" points="36.17,-193.82 31.49,-184.31 29.22,-194.66 36.17,-193.82"/>
</a>
</g>
</g>
<!-- Node10 -->
<g id="Node000010" class="node">
<title>Node10</title>
<g id="a_Node000010"><a xlink:href="DisplayInterface_8h.html" target="_top" xlink:title=" ">
<polygon fill="white" stroke="#666666" points="165,-239 59,-239 59,-220 165,-220 165,-239"/>
<text text-anchor="middle" x="112" y="-227" font-family="Helvetica,sans-Serif" font-size="10.00">DisplayInterface.h</text>
</a>
</g>
</g>
<!-- Node1&#45;&gt;Node10 -->
<g id="edge4_Node000001_Node000010" class="edge">
<title>Node1&#45;&gt;Node10</title>
<g id="a_edge4_Node000001_Node000010"><a xlink:title=" ">
<path fill="none" stroke="#63b8ff" d="M143.95,-274.95C137.66,-266.2 130.32,-255.99 124.26,-247.56"/>
<polygon fill="#63b8ff" stroke="#63b8ff" points="126.98,-245.34 118.3,-239.26 121.29,-249.42 126.98,-245.34"/>
</a>
</g>
</g>
<!-- Node13 -->
<g id="Node000013" class="node">
<title>Node13</title>
<g id="a_Node000013"><a xlink:title=" ">
<polygon fill="#e0e0e0" stroke="#999999" points="224.5,-239 183.5,-239 183.5,-220 224.5,-220 224.5,-239"/>
<text text-anchor="middle" x="204" y="-227" font-family="Helvetica,sans-Serif" font-size="10.00">SPI.h</text>
</a>
</g>
</g>
<!-- Node1&#45;&gt;Node13 -->
<g id="edge11_Node000001_Node000013" class="edge">
<title>Node1&#45;&gt;Node13</title>
<g id="a_edge11_Node000001_Node000013"><a xlink:title=" ">
<path fill="none" stroke="#63b8ff" d="M172.05,-274.95C178.34,-266.2 185.68,-255.99 191.74,-247.56"/>
<polygon fill="#63b8ff" stroke="#63b8ff" points="194.71,-249.42 197.7,-239.26 189.02,-245.34 194.71,-249.42"/>
</a>
</g>
</g>
<!-- Node14 -->
<g id="Node000014" class="node">
<title>Node14</title>
<g id="a_Node000014"><a xlink:title=" ">
<polygon fill="#e0e0e0" stroke="#999999" points="311.5,-239 242.5,-239 242.5,-220 311.5,-220 311.5,-239"/>
<text text-anchor="middle" x="277" y="-227" font-family="Helvetica,sans-Serif" font-size="10.00">TFT_eSPI.h</text>
</a>
</g>
</g>
<!-- Node1&#45;&gt;Node14 -->
<g id="edge12_Node000001_Node000014" class="edge">
<title>Node1&#45;&gt;Node14</title>
<g id="a_edge12_Node000001_Node000014"><a xlink:title=" ">
<path fill="none" stroke="#63b8ff" d="M194.35,-274.95C212.98,-264.93 235.19,-252.99 251.89,-244"/>
<polygon fill="#63b8ff" stroke="#63b8ff" points="253.88,-246.91 261.02,-239.09 250.56,-240.75 253.88,-246.91"/>
</a>
</g>
</g>
<!-- Node3 -->
<g id="Node000003" class="node">
<title>Node3</title>
<g id="a_Node000003"><a xlink:href="Logger_8h.html" target="_top" xlink:title=" ">
<polygon fill="white" stroke="#666666" points="125,-74 67,-74 67,-55 125,-55 125,-74"/>
<text text-anchor="middle" x="96" y="-62" font-family="Helvetica,sans-Serif" font-size="10.00">Logger.h</text>
</a>
</g>
</g>
<!-- Node2&#45;&gt;Node3 -->
<g id="edge2_Node000002_Node000003" class="edge">
<title>Node2&#45;&gt;Node3</title>
<g id="a_edge2_Node000002_Node000003"><a xlink:title=" ">
<path fill="none" stroke="#63b8ff" d="M36.32,-164.66C47.04,-146.85 71.4,-106.37 85.46,-83.01"/>
<polygon fill="#63b8ff" stroke="#63b8ff" points="88.63,-84.53 90.79,-74.16 82.63,-80.92 88.63,-84.53"/>
</a>
</g>
</g>
<!-- Node4 -->
<g id="Node000004" class="node">
<title>Node4</title>
<g id="a_Node000004"><a xlink:href="Arduino_8h.html" target="_top" xlink:title=" ">
<polygon fill="#fff0f0" stroke="red" points="189.5,-19 126.5,-19 126.5,0 189.5,0 189.5,-19"/>
<text text-anchor="middle" x="158" y="-7" font-family="Helvetica,sans-Serif" font-size="10.00">Arduino.h</text>
</a>
</g>
</g>
<!-- Node3&#45;&gt;Node4 -->
<g id="edge3_Node000003_Node000004" class="edge">
<title>Node3&#45;&gt;Node4</title>
<g id="a_edge3_Node000003_Node000004"><a xlink:title=" ">
<path fill="none" stroke="#63b8ff" d="M105.96,-54.98C115.13,-47.15 128.94,-35.34 140.03,-25.86"/>
<polygon fill="#63b8ff" stroke="#63b8ff" points="142.53,-28.33 147.86,-19.17 137.98,-23.01 142.53,-28.33"/>
</a>
</g>
</g>
<!-- Node10&#45;&gt;Node3 -->
<g id="edge5_Node000010_Node000003" class="edge">
<title>Node10&#45;&gt;Node3</title>
<g id="a_edge5_Node000010_Node000003"><a xlink:title=" ">
<path fill="none" stroke="#63b8ff" d="M111.14,-219.74C108.64,-194.31 101.36,-120.08 97.88,-84.69"/>
<polygon fill="#63b8ff" stroke="#63b8ff" points="101.32,-83.92 96.86,-74.31 94.36,-84.6 101.32,-83.92"/>
</a>
</g>
</g>
<!-- Node11 -->
<g id="Node000011" class="node">
<title>Node11</title>
<g id="a_Node000011"><a xlink:href="Screen_8h.html" target="_top" xlink:title=" ">
<polygon fill="white" stroke="#666666" points="187.5,-184 128.5,-184 128.5,-165 187.5,-165 187.5,-184"/>
<text text-anchor="middle" x="158" y="-172" font-family="Helvetica,sans-Serif" font-size="10.00">Screen.h</text>
</a>
</g>
</g>
<!-- Node10&#45;&gt;Node11 -->
<g id="edge6_Node000010_Node000011" class="edge">
<title>Node10&#45;&gt;Node11</title>
<g id="a_edge6_Node000010_Node000011"><a xlink:title=" ">
<path fill="none" stroke="#63b8ff" d="M119.6,-219.75C126.16,-212.18 135.82,-201.05 143.81,-191.84"/>
<polygon fill="#63b8ff" stroke="#63b8ff" points="146.63,-193.94 150.55,-184.09 141.35,-189.35 146.63,-193.94"/>
</a>
</g>
</g>
<!-- Node11&#45;&gt;Node4 -->
<g id="edge10_Node000011_Node000004" class="edge">
<title>Node11&#45;&gt;Node4</title>
<g id="a_edge10_Node000011_Node000004"><a xlink:title=" ">
<path fill="none" stroke="#63b8ff" d="M173.13,-164.73C184.81,-156.99 200.12,-144.55 207,-129 210.42,-121.28 208.92,-118.22 207,-110 199.79,-79.04 181.5,-46.63 169.42,-27.51"/>
<polygon fill="#63b8ff" stroke="#63b8ff" points="172.29,-25.51 163.91,-19.04 166.42,-29.33 172.29,-25.51"/>
</a>
</g>
</g>
<!-- Node12 -->
<g id="Node000012" class="node">
<title>Node12</title>
<g id="a_Node000012"><a xlink:href="ScreenRow_8h.html" target="_top" xlink:title=" ">
<polygon fill="white" stroke="#666666" points="197.5,-129 118.5,-129 118.5,-110 197.5,-110 197.5,-129"/>
<text text-anchor="middle" x="158" y="-117" font-family="Helvetica,sans-Serif" font-size="10.00">ScreenRow.h</text>
</a>
</g>
</g>
<!-- Node11&#45;&gt;Node12 -->
<g id="edge7_Node000011_Node000012" class="edge">
<title>Node11&#45;&gt;Node12</title>
<g id="a_edge7_Node000011_Node000012"><a xlink:title=" ">
<path fill="none" stroke="#63b8ff" d="M158,-164.75C158,-157.8 158,-147.85 158,-139.13"/>
<polygon fill="#63b8ff" stroke="#63b8ff" points="161.5,-139.09 158,-129.09 154.5,-139.09 161.5,-139.09"/>
</a>
</g>
</g>
<!-- Node12&#45;&gt;Node3 -->
<g id="edge8_Node000012_Node000003" class="edge">
<title>Node12&#45;&gt;Node3</title>
<g id="a_edge8_Node000012_Node000003"><a xlink:title=" ">
<path fill="none" stroke="#63b8ff" d="M148.04,-109.98C138.87,-102.15 125.06,-90.34 113.97,-80.86"/>
<polygon fill="#63b8ff" stroke="#63b8ff" points="116.02,-78.01 106.14,-74.17 111.47,-83.33 116.02,-78.01"/>
</a>
</g>
</g>
<!-- Node12&#45;&gt;Node4 -->
<g id="edge9_Node000012_Node000004" class="edge">
<title>Node12&#45;&gt;Node4</title>
<g id="a_edge9_Node000012_Node000004"><a xlink:title=" ">
<path fill="none" stroke="#63b8ff" d="M158,-109.66C158,-92.17 158,-52.8 158,-29.27"/>
<polygon fill="#63b8ff" stroke="#63b8ff" points="161.5,-29.16 158,-19.16 154.5,-29.16 161.5,-29.16"/>
</a>
</g>
</g>
</g>
</svg>
