<?xml version="1.0" encoding="UTF-8" standalone="no"?>
<!DOCTYPE svg PUBLIC "-//W3C//DTD SVG 1.1//EN"
 "http://www.w3.org/Graphics/SVG/1.1/DTD/svg11.dtd">
<!-- Generated by graphviz version 2.43.0 (0)
 -->
<!-- Title: /home/runner/work/EX&#45;Display/EX&#45;Display/TFT_eSPITouch.h Pages: 1 -->
<!--zoomable 274 -->
<svg id="main" version="1.1" xmlns="http://www.w3.org/2000/svg" xmlns:xlink="http://www.w3.org/1999/xlink" xml:space="preserve" onload="init(evt)">
<style type="text/css"><![CDATA[
.edge:hover path { stroke: red; }
.edge:hover polygon { stroke: red; fill: red; }
]]></style>
<script type="text/javascript"><![CDATA[
var edges = document.getElementsByTagName('g');
if (edges && edges.length) {
  for (var i=0;i<edges.length;i++) {
    if (edges[i].id.substr(0,4)=='edge') {
      edges[i].setAttribute('class','edge');
    }
  }
}
]]></script>
        <defs>
                <circle id="rim" cx="0" cy="0" r="7"/>
                <circle id="rim2" cx="0" cy="0" r="3.5"/>
                <g id="zoomPlus">
                        <use xlink:href="#rim" fill="#404040">
                                <set attributeName="fill" to="#808080" begin="zoomplus.mouseover" end="zoomplus.mouseout"/>
                        </use>
                        <path d="M-4,0h8M0,-4v8" fill="none" stroke="white" stroke-width="1.5" pointer-events="none"/>
                </g>
                <g id="zoomMin">
                        <use xlink:href="#rim" fill="#404040">
                                <set attributeName="fill" to="#808080" begin="zoomminus.mouseover" end="zoomminus.mouseout"/>
                        </use>
                        <path d="M-4,0h8" fill="none" stroke="white" stroke-width="1.5" pointer-events="none"/>
                </g>
                <g id="dirArrow">
                        <path fill="none" stroke="white" stroke-width="1.5" d="M0,-3.0v7 M-2.5,-0.5L0,-3.0L2.5,-0.5"/>
                </g>
               <g id="resetDef">
                       <use xlink:href="#rim2" fill="#404040">
                               <set attributeName="fill" to="#808080" begin="reset.mouseover" end="reset.mouseout"/>
                       </use>
               </g>
        </defs>

<script type="text/javascript">
var viewWidth = 569;
var viewHeight = 274;
var sectionId = 'dynsection-0';
</script>
<script xlink:href="svgpan.js"/>
<svg id="graph" class="graph">
<g id="viewport">
<title>/home/runner/work/EX&#45;Display/EX&#45;Display/TFT_eSPITouch.h</title>
<polygon fill="white" stroke="transparent" points="-4,4 -4,-270 564.5,-270 564.5,4 -4,4"/>
<!-- Node1 -->
<g id="node1" class="node">
<title>Node1</title>
<g id="a_node1"><a xlink:title=" ">
<polygon fill="#bfbfbf" stroke="black" points="322.5,-224.5 322.5,-265.5 455.5,-265.5 455.5,-224.5 322.5,-224.5"/>
<text text-anchor="start" x="330.5" y="-253.5" font-family="Helvetica,sans-Serif" font-size="10.00">/home/runner/work/EX</text>
<text text-anchor="start" x="330.5" y="-242.5" font-family="Helvetica,sans-Serif" font-size="10.00">&#45;Display/EX&#45;Display/TFT</text>
<text text-anchor="middle" x="389" y="-231.5" font-family="Helvetica,sans-Serif" font-size="10.00">_eSPITouch.h</text>
</a>
</g>
</g>
<!-- Node2 -->
<g id="node2" class="node">
<title>Node2</title>
<g id="a_node2"><a xlink:href="Defines_8h.html" target="_top" xlink:title=" ">
<polygon fill="white" stroke="black" points="352,-112.5 352,-131.5 414,-131.5 414,-112.5 352,-112.5"/>
<text text-anchor="middle" x="383" y="-119.5" font-family="Helvetica,sans-Serif" font-size="10.00">Defines.h</text>
</a>
</g>
</g>
<!-- Node1&#45;&gt;Node2 -->
<g id="edge1" class="edge">
<title>Node1&#45;&gt;Node2</title>
<path fill="none" stroke="midnightblue" d="M358.32,-224.26C346.52,-214.85 334.36,-202.48 328,-188 319.16,-167.88 339.14,-149.21 357.44,-137.09"/>
<polygon fill="midnightblue" stroke="midnightblue" points="359.5,-139.93 366.16,-131.68 355.82,-133.98 359.5,-139.93"/>
</g>
<!-- Node10 -->
<g id="node5" class="node">
<title>Node10</title>
<g id="a_node5"><a xlink:href="InputInterface_8h.html" target="_top" xlink:title=" ">
<polygon fill="white" stroke="black" points="153,-168.5 153,-187.5 247,-187.5 247,-168.5 153,-168.5"/>
<text text-anchor="middle" x="200" y="-175.5" font-family="Helvetica,sans-Serif" font-size="10.00">InputInterface.h</text>
</a>
</g>
</g>
<!-- Node1&#45;&gt;Node10 -->
<g id="edge4" class="edge">
<title>Node1&#45;&gt;Node10</title>
<path fill="none" stroke="midnightblue" d="M332.29,-224.5C300.53,-213.57 261.95,-200.3 234.66,-190.92"/>
<polygon fill="midnightblue" stroke="midnightblue" points="235.75,-187.6 225.16,-187.65 233.48,-194.21 235.75,-187.6"/>
</g>
<!-- Node16 -->
<g id="node10" class="node">
<title>Node16</title>
<g id="a_node10"><a xlink:href="TFT__eSPIDisplay_8h.html" target="_top" xlink:title=" ">
<polygon fill="white" stroke="black" points="337,-168.5 337,-187.5 441,-187.5 441,-168.5 337,-168.5"/>
<text text-anchor="middle" x="389" y="-175.5" font-family="Helvetica,sans-Serif" font-size="10.00">TFT_eSPIDisplay.h</text>
</a>
</g>
</g>
<!-- Node1&#45;&gt;Node16 -->
<g id="edge15" class="edge">
<title>Node1&#45;&gt;Node16</title>
<path fill="none" stroke="midnightblue" d="M389,-224.5C389,-216.07 389,-206.24 389,-197.87"/>
<polygon fill="midnightblue" stroke="midnightblue" points="392.5,-197.65 389,-187.65 385.5,-197.65 392.5,-197.65"/>
</g>
<!-- Node17 -->
<g id="node11" class="node">
<title>Node17</title>
<g id="a_node11"><a xlink:title=" ">
<polygon fill="white" stroke="#bfbfbf" points="432.5,-112.5 432.5,-131.5 473.5,-131.5 473.5,-112.5 432.5,-112.5"/>
<text text-anchor="middle" x="453" y="-119.5" font-family="Helvetica,sans-Serif" font-size="10.00">SPI.h</text>
</a>
</g>
</g>
<!-- Node1&#45;&gt;Node17 -->
<g id="edge20" class="edge">
<title>Node1&#45;&gt;Node17</title>
<path fill="none" stroke="midnightblue" d="M419.04,-224.37C430.88,-214.91 443.24,-202.46 450,-188 456.72,-173.61 456.97,-155.41 455.82,-141.94"/>
<polygon fill="midnightblue" stroke="midnightblue" points="459.28,-141.44 454.64,-131.91 452.33,-142.25 459.28,-141.44"/>
</g>
<!-- Node18 -->
<g id="node12" class="node">
<title>Node18</title>
<g id="a_node12"><a xlink:title=" ">
<polygon fill="white" stroke="#bfbfbf" points="491.5,-112.5 491.5,-131.5 560.5,-131.5 560.5,-112.5 491.5,-112.5"/>
<text text-anchor="middle" x="526" y="-119.5" font-family="Helvetica,sans-Serif" font-size="10.00">TFT_eSPI.h</text>
</a>
</g>
</g>
<!-- Node1&#45;&gt;Node18 -->
<g id="edge21" class="edge">
<title>Node1&#45;&gt;Node18</title>
<path fill="none" stroke="midnightblue" d="M419.39,-224.4C434.3,-214.23 452.19,-201.2 467,-188 483.98,-172.86 501.22,-153.27 512.65,-139.57"/>
<polygon fill="midnightblue" stroke="midnightblue" points="515.61,-141.48 519.25,-131.53 510.2,-137.03 515.61,-141.48"/>
</g>
<!-- Node3 -->
<g id="node3" class="node">
<title>Node3</title>
<g id="a_node3"><a xlink:href="Logger_8h.html" target="_top" xlink:title=" ">
<polygon fill="white" stroke="black" points="172,-56.5 172,-75.5 230,-75.5 230,-56.5 172,-56.5"/>
<text text-anchor="middle" x="201" y="-63.5" font-family="Helvetica,sans-Serif" font-size="10.00">Logger.h</text>
</a>
</g>
</g>
<!-- Node2&#45;&gt;Node3 -->
<g id="edge2" class="edge">
<title>Node2&#45;&gt;Node3</title>
<path fill="none" stroke="midnightblue" d="M354.16,-112.44C323.14,-103.24 273.67,-88.56 239.38,-78.39"/>
<polygon fill="midnightblue" stroke="midnightblue" points="240.29,-75.01 229.7,-75.52 238.29,-81.72 240.29,-75.01"/>
</g>
<!-- Node4 -->
<g id="node4" class="node">
<title>Node4</title>
<g id="a_node4"><a xlink:href="Arduino_8h.html" target="_top" xlink:title=" ">
<polygon fill="white" stroke="red" points="169.5,-0.5 169.5,-19.5 232.5,-19.5 232.5,-0.5 169.5,-0.5"/>
<text text-anchor="middle" x="201" y="-7.5" font-family="Helvetica,sans-Serif" font-size="10.00">Arduino.h</text>
</a>
</g>
</g>
<!-- Node3&#45;&gt;Node4 -->
<g id="edge3" class="edge">
<title>Node3&#45;&gt;Node4</title>
<path fill="none" stroke="midnightblue" d="M201,-56.08C201,-49.01 201,-38.86 201,-29.99"/>
<polygon fill="midnightblue" stroke="midnightblue" points="204.5,-29.75 201,-19.75 197.5,-29.75 204.5,-29.75"/>
</g>
<!-- Node10&#45;&gt;Node3 -->
<g id="edge14" class="edge">
<title>Node10&#45;&gt;Node3</title>
<path fill="none" stroke="midnightblue" d="M200.08,-168.37C200.24,-150.62 200.61,-109.67 200.83,-85.6"/>
<polygon fill="midnightblue" stroke="midnightblue" points="204.33,-85.62 200.92,-75.59 197.33,-85.56 204.33,-85.62"/>
</g>
<!-- Node11 -->
<g id="node6" class="node">
<title>Node11</title>
<g id="a_node6"><a xlink:href="CallbackInterface_8h.html" target="_top" xlink:title=" ">
<polygon fill="white" stroke="black" points="60.5,-112.5 60.5,-131.5 171.5,-131.5 171.5,-112.5 60.5,-112.5"/>
<text text-anchor="middle" x="116" y="-119.5" font-family="Helvetica,sans-Serif" font-size="10.00">CallbackInterface.h</text>
</a>
</g>
</g>
<!-- Node10&#45;&gt;Node11 -->
<g id="edge5" class="edge">
<title>Node10&#45;&gt;Node11</title>
<path fill="none" stroke="midnightblue" d="M186.5,-168.32C173.4,-159.9 153.29,-146.97 137.89,-137.07"/>
<polygon fill="midnightblue" stroke="midnightblue" points="139.77,-134.12 129.46,-131.65 135.98,-140.01 139.77,-134.12"/>
</g>
<!-- Node12 -->
<g id="node7" class="node">
<title>Node12</title>
<g id="a_node7"><a xlink:href="InputActions_8h.html" target="_top" xlink:title=" ">
<polygon fill="white" stroke="black" points="0,-56.5 0,-75.5 86,-75.5 86,-56.5 0,-56.5"/>
<text text-anchor="middle" x="43" y="-63.5" font-family="Helvetica,sans-Serif" font-size="10.00">InputActions.h</text>
</a>
</g>
</g>
<!-- Node10&#45;&gt;Node12 -->
<g id="edge13" class="edge">
<title>Node10&#45;&gt;Node12</title>
<path fill="none" stroke="midnightblue" d="M152.73,-175.67C119.16,-172.06 75.81,-161.45 51,-132 40.37,-119.37 39.22,-100.16 40.22,-85.9"/>
<polygon fill="midnightblue" stroke="midnightblue" points="43.72,-86.06 41.34,-75.74 36.77,-85.29 43.72,-86.06"/>
</g>
<!-- Node13 -->
<g id="node8" class="node">
<title>Node13</title>
<g id="a_node8"><a xlink:href="DisplayInterface_8h.html" target="_top" xlink:title=" ">
<polygon fill="white" stroke="black" points="228,-112.5 228,-131.5 334,-131.5 334,-112.5 228,-112.5"/>
<text text-anchor="middle" x="281" y="-119.5" font-family="Helvetica,sans-Serif" font-size="10.00">DisplayInterface.h</text>
</a>
</g>
</g>
<!-- Node10&#45;&gt;Node13 -->
<g id="edge9" class="edge">
<title>Node10&#45;&gt;Node13</title>
<path fill="none" stroke="midnightblue" d="M213.01,-168.32C225.53,-159.98 244.68,-147.21 259.47,-137.35"/>
<polygon fill="midnightblue" stroke="midnightblue" points="261.64,-140.11 268.02,-131.65 257.76,-134.29 261.64,-140.11"/>
</g>
<!-- Node11&#45;&gt;Node3 -->
<g id="edge7" class="edge">
<title>Node11&#45;&gt;Node3</title>
<path fill="none" stroke="midnightblue" d="M129.66,-112.32C142.92,-103.9 163.27,-90.97 178.85,-81.07"/>
<polygon fill="midnightblue" stroke="midnightblue" points="180.81,-83.97 187.38,-75.65 177.06,-78.06 180.81,-83.97"/>
</g>
<!-- Node11&#45;&gt;Node4 -->
<g id="edge8" class="edge">
<title>Node11&#45;&gt;Node4</title>
<path fill="none" stroke="midnightblue" d="M121.88,-112.44C130.6,-99.86 147.56,-75.75 163,-56 170.56,-46.33 179.38,-35.84 186.62,-27.42"/>
<polygon fill="midnightblue" stroke="midnightblue" points="189.32,-29.65 193.23,-19.8 184.03,-25.06 189.32,-29.65"/>
</g>
<!-- Node11&#45;&gt;Node12 -->
<g id="edge6" class="edge">
<title>Node11&#45;&gt;Node12</title>
<path fill="none" stroke="midnightblue" d="M104.27,-112.32C93.16,-104.11 76.26,-91.6 63.02,-81.81"/>
<polygon fill="midnightblue" stroke="midnightblue" points="65.06,-78.97 54.94,-75.83 60.9,-84.59 65.06,-78.97"/>
</g>
<!-- Node13&#45;&gt;Node3 -->
<g id="edge10" class="edge">
<title>Node13&#45;&gt;Node3</title>
<path fill="none" stroke="midnightblue" d="M268.15,-112.32C255.78,-103.98 236.87,-91.21 222.26,-81.35"/>
<polygon fill="midnightblue" stroke="midnightblue" points="224.07,-78.35 213.82,-75.65 220.15,-84.15 224.07,-78.35"/>
</g>
<!-- Node14 -->
<g id="node9" class="node">
<title>Node14</title>
<g id="a_node9"><a xlink:href="Screen_8h.html" target="_top" xlink:title=" ">
<polygon fill="white" stroke="red" points="250.5,-56.5 250.5,-75.5 309.5,-75.5 309.5,-56.5 250.5,-56.5"/>
<text text-anchor="middle" x="280" y="-63.5" font-family="Helvetica,sans-Serif" font-size="10.00">Screen.h</text>
</a>
</g>
</g>
<!-- Node13&#45;&gt;Node14 -->
<g id="edge11" class="edge">
<title>Node13&#45;&gt;Node14</title>
<path fill="none" stroke="midnightblue" d="M280.83,-112.08C280.7,-105.01 280.52,-94.86 280.35,-85.99"/>
<polygon fill="midnightblue" stroke="midnightblue" points="283.85,-85.68 280.16,-75.75 276.85,-85.81 283.85,-85.68"/>
</g>
<!-- Node14&#45;&gt;Node4 -->
<g id="edge12" class="edge">
<title>Node14&#45;&gt;Node4</title>
<path fill="none" stroke="midnightblue" d="M267.31,-56.32C255.1,-47.98 236.42,-35.21 222,-25.35"/>
<polygon fill="midnightblue" stroke="midnightblue" points="223.89,-22.41 213.66,-19.65 219.94,-28.19 223.89,-22.41"/>
</g>
<!-- Node16&#45;&gt;Node2 -->
<g id="edge16" class="edge">
<title>Node16&#45;&gt;Node2</title>
<path fill="none" stroke="midnightblue" d="M388.01,-168.08C387.21,-160.93 386.07,-150.64 385.08,-141.69"/>
<polygon fill="midnightblue" stroke="midnightblue" points="388.56,-141.3 383.97,-131.75 381.6,-142.08 388.56,-141.3"/>
</g>
<!-- Node16&#45;&gt;Node13 -->
<g id="edge17" class="edge">
<title>Node16&#45;&gt;Node13</title>
<path fill="none" stroke="midnightblue" d="M371.65,-168.32C354.33,-159.66 327.48,-146.24 307.5,-136.25"/>
<polygon fill="midnightblue" stroke="midnightblue" points="308.82,-133 298.31,-131.65 305.69,-139.26 308.82,-133"/>
</g>
<!-- Node16&#45;&gt;Node17 -->
<g id="edge18" class="edge">
<title>Node16&#45;&gt;Node17</title>
<path fill="none" stroke="midnightblue" d="M399.28,-168.32C408.84,-160.26 423.28,-148.08 434.78,-138.37"/>
<polygon fill="midnightblue" stroke="midnightblue" points="437.14,-140.96 442.53,-131.83 432.63,-135.61 437.14,-140.96"/>
</g>
<!-- Node16&#45;&gt;Node18 -->
<g id="edge19" class="edge">
<title>Node16&#45;&gt;Node18</title>
<path fill="none" stroke="midnightblue" d="M410.71,-168.44C433.35,-159.52 469.07,-145.44 494.75,-135.32"/>
<polygon fill="midnightblue" stroke="midnightblue" points="496.37,-138.44 504.39,-131.52 493.81,-131.93 496.37,-138.44"/>
</g>
</g>
</svg>
        <g id="navigator" transform="translate(0 0)" fill="#404254">
                <rect fill="#f2f5e9" fill-opacity="0.5" stroke="#606060" stroke-width=".5" x="0" y="0" width="60" height="60"/>
                <use id="zoomplus" xlink:href="#zoomPlus" x="17" y="9" onmousedown="handleZoom(evt,'in')"/>
                <use id="zoomminus" xlink:href="#zoomMin" x="42" y="9" onmousedown="handleZoom(evt,'out')"/>
                <use id="reset" xlink:href="#resetDef" x="30" y="36" onmousedown="handleReset()"/>
                <g id="arrowUp" xlink:href="#dirArrow" transform="translate(30 24)" onmousedown="handlePan(0,-1)">
                  <use xlink:href="#rim" fill="#404040">
                        <set attributeName="fill" to="#808080" begin="arrowUp.mouseover" end="arrowUp.mouseout"/>
                  </use>
                  <path fill="none" stroke="white" stroke-width="1.5" d="M0,-3.0v7 M-2.5,-0.5L0,-3.0L2.5,-0.5"/>
                </g>
                <g id="arrowRight" xlink:href="#dirArrow" transform="rotate(90) translate(36 -43)" onmousedown="handlePan(1,0)">
                  <use xlink:href="#rim" fill="#404040">
                        <set attributeName="fill" to="#808080" begin="arrowRight.mouseover" end="arrowRight.mouseout"/>
                  </use>
                  <path fill="none" stroke="white" stroke-width="1.5" d="M0,-3.0v7 M-2.5,-0.5L0,-3.0L2.5,-0.5"/>
                </g>
                <g id="arrowDown" xlink:href="#dirArrow" transform="rotate(180) translate(-30 -48)" onmousedown="handlePan(0,1)">
                  <use xlink:href="#rim" fill="#404040">
                        <set attributeName="fill" to="#808080" begin="arrowDown.mouseover" end="arrowDown.mouseout"/>
                  </use>
                  <path fill="none" stroke="white" stroke-width="1.5" d="M0,-3.0v7 M-2.5,-0.5L0,-3.0L2.5,-0.5"/>
                </g>
                <g id="arrowLeft" xlink:href="#dirArrow" transform="rotate(270) translate(-36 17)" onmousedown="handlePan(-1,0)">
                  <use xlink:href="#rim" fill="#404040">
                        <set attributeName="fill" to="#808080" begin="arrowLeft.mouseover" end="arrowLeft.mouseout"/>
                  </use>
                  <path fill="none" stroke="white" stroke-width="1.5" d="M0,-3.0v7 M-2.5,-0.5L0,-3.0L2.5,-0.5"/>
                </g>
        </g>
        <svg viewBox="0 0 15 15" width="100%" height="30px" preserveAspectRatio="xMaxYMin meet">
         <g id="arrow_out" transform="scale(0.3 0.3)">
          <a xlink:href="TFT__eSPITouch_8h__incl_org.svg" target="_base">
           <rect id="button" ry="5" rx="5" y="6" x="6" height="38" width="38"
                fill="#f2f5e9" fill-opacity="0.5" stroke="#606060" stroke-width="1.0"/>
           <path id="arrow"
             d="M 11.500037,31.436501 C 11.940474,20.09759 22.043105,11.32322 32.158766,21.979434 L 37.068811,17.246167 C 37.068811,17.246167 37.088388,32 37.088388,32 L 22.160133,31.978069 C 22.160133,31.978069 26.997745,27.140456 26.997745,27.140456 C 18.528582,18.264221 13.291696,25.230495 11.500037,31.436501 z"
             style="fill:#404040;"/>
          </a>
         </g>
        </svg>
</svg>
