<?xml version="1.0" encoding="UTF-8" standalone="no"?>
<!DOCTYPE svg PUBLIC "-//W3C//DTD SVG 1.1//EN"
 "http://www.w3.org/Graphics/SVG/1.1/DTD/svg11.dtd">
<!-- Generated by graphviz version 2.43.0 (0)
 -->
<!-- Title: /home/runner/work/EX&#45;Display/EX&#45;Display/TFT_eSPITouch.cpp Pages: 1 -->
<svg width="546pt" height="324pt"
 viewBox="0.00 0.00 546.00 324.00" xmlns="http://www.w3.org/2000/svg" xmlns:xlink="http://www.w3.org/1999/xlink">
<g id="graph0" class="graph" transform="scale(1 1) rotate(0) translate(4 320)">
<title>/home/runner/work/EX&#45;Display/EX&#45;Display/TFT_eSPITouch.cpp</title>
<!-- Node1 -->
<g id="Node000001" class="node">
<title>Node1</title>
<g id="a_Node000001"><a xlink:title=" ">
<polygon fill="#999999" stroke="#666666" points="284,-316 151,-316 151,-275 284,-275 284,-316"/>
<text text-anchor="start" x="159" y="-304" font-family="Helvetica,sans-Serif" font-size="10.00">/home/runner/work/EX</text>
<text text-anchor="start" x="159" y="-293" font-family="Helvetica,sans-Serif" font-size="10.00">&#45;Display/EX&#45;Display/TFT</text>
<text text-anchor="middle" x="217.5" y="-282" font-family="Helvetica,sans-Serif" font-size="10.00">_eSPITouch.cpp</text>
</a>
</g>
</g>
<!-- Node2 -->
<g id="Node000002" class="node">
<title>Node2</title>
<g id="a_Node000002"><a xlink:title=" ">
<polygon fill="#e0e0e0" stroke="#999999" points="150.5,-239 92.5,-239 92.5,-220 150.5,-220 150.5,-239"/>
<text text-anchor="middle" x="121.5" y="-227" font-family="Helvetica,sans-Serif" font-size="10.00">SPIFFS.h</text>
</a>
</g>
</g>
<!-- Node1&#45;&gt;Node2 -->
<g id="edge1_Node000001_Node000002" class="edge">
<title>Node1&#45;&gt;Node2</title>
<g id="a_edge1_Node000001_Node000002"><a xlink:title=" ">
<path fill="none" stroke="#63b8ff" d="M188.18,-274.95C173.57,-265.21 156.23,-253.65 142.9,-244.76"/>
<polygon fill="#63b8ff" stroke="#63b8ff" points="144.65,-241.73 134.39,-239.09 140.77,-247.55 144.65,-241.73"/>
</a>
</g>
</g>
<!-- Node3 -->
<g id="Node000003" class="node">
<title>Node3</title>
<g id="a_Node000003"><a xlink:href="CallbackInterface_8h.html" target="_top" xlink:title=" ">
<polygon fill="white" stroke="#666666" points="538,-129 427,-129 427,-110 538,-110 538,-129"/>
<text text-anchor="middle" x="482.5" y="-117" font-family="Helvetica,sans-Serif" font-size="10.00">CallbackInterface.h</text>
</a>
</g>
</g>
<!-- Node1&#45;&gt;Node3 -->
<g id="edge2_Node000001_Node000003" class="edge">
<title>Node1&#45;&gt;Node3</title>
<g id="a_edge2_Node000001_Node000003"><a xlink:title=" ">
<path fill="none" stroke="#63b8ff" d="M260.19,-274.82C301.85,-254.72 366.13,-221.23 416.5,-184 435.77,-169.76 455.23,-150.27 467.97,-136.66"/>
<polygon fill="#63b8ff" stroke="#63b8ff" points="470.79,-138.77 474.98,-129.04 465.63,-134.03 470.79,-138.77"/>
</a>
</g>
</g>
<!-- Node12 -->
<g id="Node000012" class="node">
<title>Node12</title>
<g id="a_Node000012"><a xlink:href="TFT__eSPITouch_8h.html" target="_top" xlink:title=" ">
<polygon fill="white" stroke="#666666" points="266,-239 169,-239 169,-220 266,-220 266,-239"/>
<text text-anchor="middle" x="217.5" y="-227" font-family="Helvetica,sans-Serif" font-size="10.00">TFT_eSPITouch.h</text>
</a>
</g>
</g>
<!-- Node1&#45;&gt;Node12 -->
<g id="edge7_Node000001_Node000012" class="edge">
<title>Node1&#45;&gt;Node12</title>
<g id="a_edge7_Node000001_Node000012"><a xlink:title=" ">
<path fill="none" stroke="#63b8ff" d="M217.5,-274.95C217.5,-266.85 217.5,-257.5 217.5,-249.47"/>
<polygon fill="#63b8ff" stroke="#63b8ff" points="221,-249.26 217.5,-239.26 214,-249.26 221,-249.26"/>
</a>
</g>
</g>
<!-- Node4 -->
<g id="Node000004" class="node">
<title>Node4</title>
<g id="a_Node000004"><a xlink:href="InputActions_8h.html" target="_top" xlink:title=" ">
<polygon fill="white" stroke="#666666" points="454.5,-74 368.5,-74 368.5,-55 454.5,-55 454.5,-74"/>
<text text-anchor="middle" x="411.5" y="-62" font-family="Helvetica,sans-Serif" font-size="10.00">InputActions.h</text>
</a>
</g>
</g>
<!-- Node3&#45;&gt;Node4 -->
<g id="edge3_Node000003_Node000004" class="edge">
<title>Node3&#45;&gt;Node4</title>
<g id="a_edge3_Node000003_Node000004"><a xlink:title=" ">
<path fill="none" stroke="#63b8ff" d="M471.09,-109.98C460.39,-102 444.16,-89.88 431.34,-80.31"/>
<polygon fill="#63b8ff" stroke="#63b8ff" points="433.22,-77.35 423.11,-74.17 429.03,-82.96 433.22,-77.35"/>
</a>
</g>
</g>
<!-- Node5 -->
<g id="Node000005" class="node">
<title>Node5</title>
<g id="a_Node000005"><a xlink:href="Logger_8h.html" target="_top" xlink:title=" ">
<polygon fill="white" stroke="#666666" points="350.5,-74 292.5,-74 292.5,-55 350.5,-55 350.5,-74"/>
<text text-anchor="middle" x="321.5" y="-62" font-family="Helvetica,sans-Serif" font-size="10.00">Logger.h</text>
</a>
</g>
</g>
<!-- Node3&#45;&gt;Node5 -->
<g id="edge4_Node000003_Node000005" class="edge">
<title>Node3&#45;&gt;Node5</title>
<g id="a_edge4_Node000003_Node000005"><a xlink:title=" ">
<path fill="none" stroke="#63b8ff" d="M456.63,-109.98C429.72,-101.13 387.38,-87.19 357.27,-77.28"/>
<polygon fill="#63b8ff" stroke="#63b8ff" points="358.16,-73.88 347.57,-74.08 355.97,-80.53 358.16,-73.88"/>
</a>
</g>
</g>
<!-- Node6 -->
<g id="Node000006" class="node">
<title>Node6</title>
<g id="a_Node000006"><a xlink:href="Arduino_8h.html" target="_top" xlink:title=" ">
<polygon fill="#fff0f0" stroke="red" points="433,-19 370,-19 370,0 433,0 433,-19"/>
<text text-anchor="middle" x="401.5" y="-7" font-family="Helvetica,sans-Serif" font-size="10.00">Arduino.h</text>
</a>
</g>
</g>
<!-- Node3&#45;&gt;Node6 -->
<g id="edge6_Node000003_Node000006" class="edge">
<title>Node3&#45;&gt;Node6</title>
<g id="a_edge6_Node000003_Node000006"><a xlink:title=" ">
<path fill="none" stroke="#63b8ff" d="M481.7,-109.92C480.13,-96.95 475.66,-72.05 463.5,-55 454.43,-42.28 440.56,-31.83 428.23,-24.27"/>
<polygon fill="#63b8ff" stroke="#63b8ff" points="429.62,-21.03 419.21,-19.05 426.12,-27.09 429.62,-21.03"/>
</a>
</g>
</g>
<!-- Node5&#45;&gt;Node6 -->
<g id="edge5_Node000005_Node000006" class="edge">
<title>Node5&#45;&gt;Node6</title>
<g id="a_edge5_Node000005_Node000006"><a xlink:title=" ">
<path fill="none" stroke="#63b8ff" d="M334.35,-54.98C346.64,-46.84 365.41,-34.41 379.98,-24.76"/>
<polygon fill="#63b8ff" stroke="#63b8ff" points="382.01,-27.61 388.41,-19.17 378.14,-21.78 382.01,-27.61"/>
</a>
</g>
</g>
<!-- Node13 -->
<g id="Node000013" class="node">
<title>Node13</title>
<g id="a_Node000013"><a xlink:href="Defines_8h.html" target="_top" xlink:title=" ">
<polygon fill="white" stroke="#666666" points="208.5,-129 146.5,-129 146.5,-110 208.5,-110 208.5,-129"/>
<text text-anchor="middle" x="177.5" y="-117" font-family="Helvetica,sans-Serif" font-size="10.00">Defines.h</text>
</a>
</g>
</g>
<!-- Node12&#45;&gt;Node13 -->
<g id="edge8_Node000012_Node000013" class="edge">
<title>Node12&#45;&gt;Node13</title>
<g id="a_edge8_Node000012_Node000013"><a xlink:title=" ">
<path fill="none" stroke="#63b8ff" d="M224.46,-219.96C233.74,-207.46 247.97,-183.63 238.5,-165 231.73,-151.68 218.9,-141.41 206.75,-134.1"/>
<polygon fill="#63b8ff" stroke="#63b8ff" points="208.14,-130.87 197.7,-129.09 204.75,-136.99 208.14,-130.87"/>
</a>
</g>
</g>
<!-- Node14 -->
<g id="Node000014" class="node">
<title>Node14</title>
<g id="a_Node000014"><a xlink:href="InputInterface_8h.html" target="_top" xlink:title=" ">
<polygon fill="white" stroke="#666666" points="407.5,-184 313.5,-184 313.5,-165 407.5,-165 407.5,-184"/>
<text text-anchor="middle" x="360.5" y="-172" font-family="Helvetica,sans-Serif" font-size="10.00">InputInterface.h</text>
</a>
</g>
</g>
<!-- Node12&#45;&gt;Node14 -->
<g id="edge10_Node000012_Node000014" class="edge">
<title>Node12&#45;&gt;Node14</title>
<g id="a_edge10_Node000012_Node000014"><a xlink:title=" ">
<path fill="none" stroke="#63b8ff" d="M240.48,-219.98C264,-211.27 300.79,-197.63 327.44,-187.75"/>
<polygon fill="#63b8ff" stroke="#63b8ff" points="328.95,-190.93 337.11,-184.17 326.51,-184.36 328.95,-190.93"/>
</a>
</g>
</g>
<!-- Node18 -->
<g id="Node000018" class="node">
<title>Node18</title>
<g id="a_Node000018"><a xlink:href="TFT__eSPIDisplay_8h.html" target="_top" xlink:title=" ">
<polygon fill="white" stroke="#666666" points="229.5,-184 125.5,-184 125.5,-165 229.5,-165 229.5,-184"/>
<text text-anchor="middle" x="177.5" y="-172" font-family="Helvetica,sans-Serif" font-size="10.00">TFT_eSPIDisplay.h</text>
</a>
</g>
</g>
<!-- Node12&#45;&gt;Node18 -->
<g id="edge16_Node000012_Node000018" class="edge">
<title>Node12&#45;&gt;Node18</title>
<g id="a_edge16_Node000012_Node000018"><a xlink:title=" ">
<path fill="none" stroke="#63b8ff" d="M210.89,-219.75C205.24,-212.26 196.96,-201.28 190.05,-192.13"/>
<polygon fill="#63b8ff" stroke="#63b8ff" points="192.8,-189.96 183.98,-184.09 187.21,-194.18 192.8,-189.96"/>
</a>
</g>
</g>
<!-- Node19 -->
<g id="Node000019" class="node">
<title>Node19</title>
<g id="a_Node000019"><a xlink:title=" ">
<polygon fill="#e0e0e0" stroke="#999999" points="128,-129 87,-129 87,-110 128,-110 128,-129"/>
<text text-anchor="middle" x="107.5" y="-117" font-family="Helvetica,sans-Serif" font-size="10.00">SPI.h</text>
</a>
</g>
</g>
<!-- Node12&#45;&gt;Node19 -->
<g id="edge21_Node000012_Node000019" class="edge">
<title>Node12&#45;&gt;Node19</title>
<g id="a_edge21_Node000012_Node000019"><a xlink:title=" ">
<path fill="none" stroke="#63b8ff" d="M174.8,-219.92C154.02,-213.52 130.56,-202.56 116.5,-184 106.94,-171.38 105.22,-153.19 105.59,-139.51"/>
<polygon fill="#63b8ff" stroke="#63b8ff" points="109.09,-139.51 106.25,-129.3 102.11,-139.05 109.09,-139.51"/>
</a>
</g>
</g>
<!-- Node20 -->
<g id="Node000020" class="node">
<title>Node20</title>
<g id="a_Node000020"><a xlink:title=" ">
<polygon fill="#e0e0e0" stroke="#999999" points="69,-129 0,-129 0,-110 69,-110 69,-129"/>
<text text-anchor="middle" x="34.5" y="-117" font-family="Helvetica,sans-Serif" font-size="10.00">TFT_eSPI.h</text>
</a>
</g>
</g>
<!-- Node12&#45;&gt;Node20 -->
<g id="edge22_Node000012_Node000020" class="edge">
<title>Node12&#45;&gt;Node20</title>
<g id="a_edge22_Node000012_Node000020"><a xlink:title=" ">
<path fill="none" stroke="#63b8ff" d="M186.53,-219.86C162.74,-212.42 129.63,-200.31 103.5,-184 82.49,-170.88 62.08,-150.93 48.98,-136.9"/>
<polygon fill="#63b8ff" stroke="#63b8ff" points="51.49,-134.45 42.16,-129.42 46.31,-139.17 51.49,-134.45"/>
</a>
</g>
</g>
<!-- Node13&#45;&gt;Node5 -->
<g id="edge9_Node000013_Node000005" class="edge">
<title>Node13&#45;&gt;Node5</title>
<g id="a_edge9_Node000013_Node000005"><a xlink:title=" ">
<path fill="none" stroke="#63b8ff" d="M200.64,-109.98C224.32,-101.27 261.37,-87.63 288.21,-77.75"/>
<polygon fill="#63b8ff" stroke="#63b8ff" points="289.77,-80.91 297.94,-74.17 287.35,-74.34 289.77,-80.91"/>
</a>
</g>
</g>
<!-- Node14&#45;&gt;Node3 -->
<g id="edge11_Node000014_Node000003" class="edge">
<title>Node14&#45;&gt;Node3</title>
<g id="a_edge11_Node000014_Node000003"><a xlink:title=" ">
<path fill="none" stroke="#63b8ff" d="M380.1,-164.98C399.82,-156.42 430.45,-143.11 453.08,-133.28"/>
<polygon fill="#63b8ff" stroke="#63b8ff" points="454.76,-136.37 462.54,-129.17 451.98,-129.94 454.76,-136.37"/>
</a>
</g>
</g>
<!-- Node14&#45;&gt;Node4 -->
<g id="edge14_Node000014_Node000004" class="edge">
<title>Node14&#45;&gt;Node4</title>
<g id="a_edge14_Node000014_Node000004"><a xlink:title=" ">
<path fill="none" stroke="#63b8ff" d="M364.67,-164.66C373.05,-146.93 392.03,-106.73 403.09,-83.32"/>
<polygon fill="#63b8ff" stroke="#63b8ff" points="406.31,-84.7 407.41,-74.16 399.98,-81.71 406.31,-84.7"/>
</a>
</g>
</g>
<!-- Node14&#45;&gt;Node5 -->
<g id="edge15_Node000014_Node000005" class="edge">
<title>Node14&#45;&gt;Node5</title>
<g id="a_edge15_Node000014_Node000005"><a xlink:title=" ">
<path fill="none" stroke="#63b8ff" d="M358.27,-164.75C355.04,-152.4 348.65,-129.19 341.5,-110 338.17,-101.07 333.91,-91.4 330.17,-83.35"/>
<polygon fill="#63b8ff" stroke="#63b8ff" points="333.29,-81.75 325.83,-74.22 326.96,-84.76 333.29,-81.75"/>
</a>
</g>
</g>
<!-- Node15 -->
<g id="Node000015" class="node">
<title>Node15</title>
<g id="a_Node000015"><a xlink:href="DisplayInterface_8h.html" target="_top" xlink:title=" ">
<polygon fill="#fff0f0" stroke="red" points="332.5,-129 226.5,-129 226.5,-110 332.5,-110 332.5,-129"/>
<text text-anchor="middle" x="279.5" y="-117" font-family="Helvetica,sans-Serif" font-size="10.00">DisplayInterface.h</text>
</a>
</g>
</g>
<!-- Node14&#45;&gt;Node15 -->
<g id="edge12_Node000014_Node000015" class="edge">
<title>Node14&#45;&gt;Node15</title>
<g id="a_edge12_Node000014_Node000015"><a xlink:title=" ">
<path fill="none" stroke="#63b8ff" d="M347.49,-164.98C335.04,-156.84 316.04,-144.41 301.29,-134.76"/>
<polygon fill="#63b8ff" stroke="#63b8ff" points="303.04,-131.72 292.75,-129.17 299.2,-137.57 303.04,-131.72"/>
</a>
</g>
</g>
<!-- Node15&#45;&gt;Node5 -->
<g id="edge13_Node000015_Node000005" class="edge">
<title>Node15&#45;&gt;Node5</title>
<g id="a_edge13_Node000015_Node000005"><a xlink:title=" ">
<path fill="none" stroke="#63b8ff" d="M286.44,-109.75C292.37,-102.26 301.07,-91.28 308.32,-82.13"/>
<polygon fill="#63b8ff" stroke="#63b8ff" points="311.23,-84.1 314.69,-74.09 305.74,-79.75 311.23,-84.1"/>
</a>
</g>
</g>
<!-- Node18&#45;&gt;Node13 -->
<g id="edge17_Node000018_Node000013" class="edge">
<title>Node18&#45;&gt;Node13</title>
<g id="a_edge17_Node000018_Node000013"><a xlink:title=" ">
<path fill="none" stroke="#63b8ff" d="M177.5,-164.75C177.5,-157.8 177.5,-147.85 177.5,-139.13"/>
<polygon fill="#63b8ff" stroke="#63b8ff" points="181,-139.09 177.5,-129.09 174,-139.09 181,-139.09"/>
</a>
</g>
</g>
<!-- Node18&#45;&gt;Node15 -->
<g id="edge18_Node000018_Node000015" class="edge">
<title>Node18&#45;&gt;Node15</title>
<g id="a_edge18_Node000018_Node000015"><a xlink:title=" ">
<path fill="none" stroke="#63b8ff" d="M193.89,-164.98C210.07,-156.57 235.07,-143.59 253.88,-133.81"/>
<polygon fill="#63b8ff" stroke="#63b8ff" points="255.55,-136.89 262.81,-129.17 252.33,-130.68 255.55,-136.89"/>
</a>
</g>
</g>
<!-- Node18&#45;&gt;Node19 -->
<g id="edge19_Node000018_Node000019" class="edge">
<title>Node18&#45;&gt;Node19</title>
<g id="a_edge19_Node000018_Node000019"><a xlink:title=" ">
<path fill="none" stroke="#63b8ff" d="M166.25,-164.98C155.7,-157 139.7,-144.88 127.06,-135.31"/>
<polygon fill="#63b8ff" stroke="#63b8ff" points="129.04,-132.42 118.95,-129.17 124.81,-138 129.04,-132.42"/>
</a>
</g>
</g>
<!-- Node18&#45;&gt;Node20 -->
<g id="edge20_Node000018_Node000020" class="edge">
<title>Node18&#45;&gt;Node20</title>
<g id="a_edge20_Node000018_Node000020"><a xlink:title=" ">
<path fill="none" stroke="#63b8ff" d="M154.52,-164.98C131,-156.27 94.21,-142.63 67.56,-132.75"/>
<polygon fill="#63b8ff" stroke="#63b8ff" points="68.49,-129.36 57.89,-129.17 66.05,-135.93 68.49,-129.36"/>
</a>
</g>
</g>
</g>
</svg>
