<?xml version="1.0" encoding="UTF-8" standalone="no"?>
<!DOCTYPE svg PUBLIC "-//W3C//DTD SVG 1.1//EN"
 "http://www.w3.org/Graphics/SVG/1.1/DTD/svg11.dtd">
<!-- Generated by graphviz version 2.43.0 (0)
 -->
<!-- Title: /home/runner/work/EX&#45;Display/EX&#45;Display/Version.h Pages: 1 -->
<svg width="724pt" height="126pt"
 viewBox="0.00 0.00 724.00 126.00" xmlns="http://www.w3.org/2000/svg" xmlns:xlink="http://www.w3.org/1999/xlink">
<g id="graph0" class="graph" transform="scale(1 1) rotate(0) translate(4 122)">
<title>/home/runner/work/EX&#45;Display/EX&#45;Display/Version.h</title>
<!-- Node1 -->
<g id="Node000001" class="node">
<title>Node1</title>
<g id="a_Node000001"><a xlink:title=" ">
<polygon fill="#999999" stroke="#666666" points="428,-118 267,-118 267,-88 428,-88 428,-118"/>
<text text-anchor="start" x="275" y="-106" font-family="Helvetica,sans-Serif" font-size="10.00">/home/runner/work/EX</text>
<text text-anchor="middle" x="347.5" y="-95" font-family="Helvetica,sans-Serif" font-size="10.00">&#45;Display/EX&#45;Display/Version.h</text>
</a>
</g>
</g>
<!-- Node2 -->
<g id="Node000002" class="node">
<title>Node2</title>
<g id="a_Node000002"><a xlink:href="Controller_8cpp.html" target="_top" xlink:title=" ">
<polygon fill="white" stroke="#666666" points="183,-41 0,-41 0,-11 183,-11 183,-41"/>
<text text-anchor="start" x="8" y="-29" font-family="Helvetica,sans-Serif" font-size="10.00">/home/runner/work/EX</text>
<text text-anchor="middle" x="91.5" y="-18" font-family="Helvetica,sans-Serif" font-size="10.00">&#45;Display/EX&#45;Display/Controller.cpp</text>
</a>
</g>
</g>
<!-- Node1&#45;&gt;Node2 -->
<g id="edge1_Node000001_Node000002" class="edge">
<title>Node1&#45;&gt;Node2</title>
<g id="a_edge1_Node000001_Node000002"><a xlink:title=" ">
<path fill="none" stroke="#63b8ff" d="M289.96,-85.14C244.65,-71.87 182.22,-53.58 139.55,-41.08"/>
<polygon fill="#63b8ff" stroke="#63b8ff" points="289.07,-88.53 299.65,-87.98 291.04,-81.81 289.07,-88.53"/>
</a>
</g>
</g>
<!-- Node3 -->
<g id="Node000003" class="node">
<title>Node3</title>
<g id="a_Node000003"><a xlink:href="test__DisplayInterface_8cpp.html" target="_top" xlink:title=" ">
<polygon fill="white" stroke="#666666" points="335.5,-52 201.5,-52 201.5,0 335.5,0 335.5,-52"/>
<text text-anchor="start" x="209.5" y="-40" font-family="Helvetica,sans-Serif" font-size="10.00">/home/runner/work/EX</text>
<text text-anchor="start" x="209.5" y="-29" font-family="Helvetica,sans-Serif" font-size="10.00">&#45;Display/EX&#45;Display/test</text>
<text text-anchor="start" x="209.5" y="-18" font-family="Helvetica,sans-Serif" font-size="10.00">/unit/test_Display/test</text>
<text text-anchor="middle" x="268.5" y="-7" font-family="Helvetica,sans-Serif" font-size="10.00">_DisplayInterface.cpp</text>
</a>
</g>
</g>
<!-- Node1&#45;&gt;Node3 -->
<g id="edge2_Node000001_Node000003" class="edge">
<title>Node1&#45;&gt;Node3</title>
<g id="a_edge2_Node000001_Node000003"><a xlink:title=" ">
<path fill="none" stroke="#63b8ff" d="M325.22,-80.85C315.86,-71.96 304.9,-61.56 295.13,-52.28"/>
<polygon fill="#63b8ff" stroke="#63b8ff" points="322.98,-83.55 332.64,-87.89 327.8,-78.47 322.98,-83.55"/>
</a>
</g>
</g>
<!-- Node4 -->
<g id="Node000004" class="node">
<title>Node4</title>
<g id="a_Node000004"><a xlink:href="test__DisplayManager_8cpp.html" target="_top" xlink:title=" ">
<polygon fill="white" stroke="#666666" points="499,-52 354,-52 354,0 499,0 499,-52"/>
<text text-anchor="start" x="362" y="-40" font-family="Helvetica,sans-Serif" font-size="10.00">/home/runner/work/EX</text>
<text text-anchor="start" x="362" y="-29" font-family="Helvetica,sans-Serif" font-size="10.00">&#45;Display/EX&#45;Display/test</text>
<text text-anchor="start" x="362" y="-18" font-family="Helvetica,sans-Serif" font-size="10.00">/unit/test_DisplayManager</text>
<text text-anchor="middle" x="426.5" y="-7" font-family="Helvetica,sans-Serif" font-size="10.00">/test_DisplayManager.cpp</text>
</a>
</g>
</g>
<!-- Node1&#45;&gt;Node4 -->
<g id="edge3_Node000001_Node000004" class="edge">
<title>Node1&#45;&gt;Node4</title>
<g id="a_edge3_Node000001_Node000004"><a xlink:title=" ">
<path fill="none" stroke="#63b8ff" d="M369.78,-80.85C379.14,-71.96 390.1,-61.56 399.87,-52.28"/>
<polygon fill="#63b8ff" stroke="#63b8ff" points="367.2,-78.47 362.36,-87.89 372.02,-83.55 367.2,-78.47"/>
</a>
</g>
</g>
<!-- Node5 -->
<g id="Node000005" class="node">
<title>Node5</title>
<g id="a_Node000005"><a xlink:href="test__DisplayManualSPISwitching_8cpp.html" target="_top" xlink:title=" ">
<polygon fill="white" stroke="#666666" points="716,-52 517,-52 517,0 716,0 716,-52"/>
<text text-anchor="start" x="525" y="-40" font-family="Helvetica,sans-Serif" font-size="10.00">/home/runner/work/EX</text>
<text text-anchor="start" x="525" y="-29" font-family="Helvetica,sans-Serif" font-size="10.00">&#45;Display/EX&#45;Display/test</text>
<text text-anchor="start" x="525" y="-18" font-family="Helvetica,sans-Serif" font-size="10.00">/unit/test_DisplayManager</text>
<text text-anchor="middle" x="616.5" y="-7" font-family="Helvetica,sans-Serif" font-size="10.00">/test_DisplayManualSPISwitching.cpp</text>
</a>
</g>
</g>
<!-- Node1&#45;&gt;Node5 -->
<g id="edge4_Node000001_Node000005" class="edge">
<title>Node1&#45;&gt;Node5</title>
<g id="a_edge4_Node000001_Node000005"><a xlink:title=" ">
<path fill="none" stroke="#63b8ff" d="M407.85,-85.17C442.87,-75.41 487.64,-62.93 526.72,-52.03"/>
<polygon fill="#63b8ff" stroke="#63b8ff" points="406.47,-81.92 397.78,-87.98 408.35,-88.67 406.47,-81.92"/>
</a>
</g>
</g>
</g>
</svg>
